<!-- Generated by IcoMoon.io -->
<svg version="1.1" xmlns="http://www.w3.org/2000/svg" width="32" height="32" viewBox="0 0 32 32">
<title>ico30_SlotsGames</title>
<path fill="#f66" d="M14.933 0.853c-4.907 1.067-8.533 5.333-8.533 10.453v11.093h17.067c0-1.28 0-9.92 0-11.093 0-5.12-3.627-9.387-8.533-10.453z"></path>
<path fill="#e8ebef" d="M30.293 17.067v1.28c0 0.64-0.533 1.28-1.28 1.28h-2.453v-3.733h2.453c0.747-0.107 1.28 0.427 1.28 1.173z"></path>
<path fill="#fc0" d="M23.467 29.76v-6.293h-17.067v6.293c0 0.64 0.533 1.173 1.173 1.173h14.613c0.747 0 1.28-0.533 1.28-1.173z"></path>
<path fill="#b5c0cb" d="M26.56 15.787v3.733c0 0.64-0.533 1.28-1.28 1.28h-1.28v-6.293h1.28c0.747 0.107 1.28 0.64 1.28 1.28z"></path>
<path fill="#e8ebef" d="M5.333 13.867v5.333h14.933v-5.333c-0.64 0-14.507 0-14.933 0z"></path>
<path fill="#e8ebef" d="M5.867 9.6c1.067-2.453 3.84-4.267 7.040-4.267s5.973 1.813 7.040 4.267c-4.267 0-9.92 0-14.080 0z"></path>
<path fill="#fc0" d="M14.293 4.587c-2.24 0.64-4.053 2.56-4.8 5.013h9.707c-0.747-2.453-2.56-4.373-4.907-5.013z"></path>
<path fill="#b5c0cb" d="M8.533 26.667h8.533v2.133h-8.533v-2.133z"></path>
<path fill="#363c43" d="M13.333 7.36c0.213-0.213 0.213-0.64 0-0.853s-0.64-0.213-0.853 0c-0.213 0.213-0.213 0.64 0 0.853s0.64 0.213 0.853 0z"></path>
<path fill="#363c43" d="M4.907 20.267h15.787c0.32 0 0.64-0.32 0.64-0.64v-6.187c0-0.32-0.32-0.64-0.64-0.64h-15.787c-0.32 0-0.64 0.32-0.64 0.64v6.187c0 0.32 0.32 0.64 0.64 0.64zM10.88 18.987v-5.013h3.947v5.013h-3.947zM20.053 18.987h-3.947v-5.013h3.947v5.013zM5.547 14.080h3.947v5.013h-3.947v-5.013z"></path>
<path fill="#363c43" d="M27.733 10.667v4.267l-0.64 0.213c-0.213-0.64-0.64-1.28-1.493-1.28h-1.067v-2.133c0-7.467-5.12-11.733-11.627-11.733s-11.84 5.333-11.84 11.84v18.24c0 1.067 0.853 1.92 1.92 1.92h19.413c1.067 0 2.133-1.067 2.133-2.133v-8.533h1.067c0.853 0 1.28-0.427 1.493-1.173l1.707 0.107c1.067 0 2.133-0.96 2.133-1.92v-1.28c0-1.067-1.067-2.133-2.133-2.133v-4.267h-1.067zM12.907 1.28c5.867 0 10.56 4.8 10.56 10.667v10.453h-21.333l0.213-10.56c0-5.867 4.693-10.56 10.56-10.56zM22.827 30.72h-19.84c-0.32 0-0.64-0.32-0.64-0.64l-0.213-6.613h21.333v6.613c0 0.427-0.32 0.64-0.64 0.64zM25.387 20.16h-0.64v-5.013h0.64c0.32 0 0.64 0.32 0.64 0.64v3.733c-0.107 0.427-0.32 0.64-0.64 0.64zM29.653 17.067v1.28c0 0.32-0.32 0.64-0.64 0.64h-1.92v-2.453h1.92c0.427-0.107 0.64 0.213 0.64 0.533zM27.2 7.68c0-0.64 0.533-1.28 1.28-1.28 0.64 0 1.28 0.533 1.28 1.28s-0.533 1.28-1.28 1.28c-0.747 0-1.28-0.533-1.28-1.28z"></path>
<path fill="#363c43" d="M30.933 8c0 1.493-1.173 2.667-2.667 2.667s-2.667-1.173-2.667-2.667 1.173-2.667 2.667-2.667 2.667 1.173 2.667 2.667z"></path>
<path fill="#f66" d="M29.867 8c0 0.853-0.747 1.6-1.6 1.6s-1.6-0.747-1.6-1.6 0.747-1.6 1.6-1.6 1.6 0.747 1.6 1.6z"></path>
<path fill="#363c43" d="M17.493 25.6h-9.387c-0.427 0-0.64 0.32-0.64 0.747v2.88c0 0.32 0.213 0.64 0.64 0.64h9.493c0.32 0 0.64-0.32 0.64-0.747v-2.88c-0.107-0.32-0.32-0.64-0.747-0.64zM16.96 28.48h-8.32v-1.387h8.32v1.387z"></path>
<path fill="#363c43" d="M5.867 10.667h14.080c0.213 0 0.427-0.107 0.533-0.32s0.107-0.427 0.107-0.533c-1.173-3.307-4.267-5.547-7.68-5.547s-6.507 2.24-7.68 5.547c0 0.213 0 0.427 0.107 0.533 0.107 0.213 0.32 0.32 0.533 0.32zM12.907 5.547c2.56 0 4.907 1.493 6.080 3.84h-1.387c-0.533-0.747-1.173-1.387-1.92-1.813-0.427-0.213-0.747-0.107-0.96 0.213s-0.107 0.747 0.213 0.853c0.32 0.213 0.64 0.427 0.96 0.747h-6.080c0.32-0.32 0.64-0.533 0.96-0.747s0.427-0.533 0.213-0.853-0.533-0.427-0.853-0.213-1.493 1.067-1.92 1.813h-1.387c1.173-2.347 3.52-3.84 6.080-3.84z"></path>
<path fill="#363c43" d="M7.893 15.147c-0.32 0-0.64 0.32-0.64 0.64v1.28c0 0.32 0.32 0.64 0.64 0.64s0.64-0.32 0.64-0.64v-1.28c0-0.32-0.32-0.64-0.64-0.64z"></path>
<path fill="#363c43" d="M12.907 15.147c-0.32 0-0.64 0.32-0.64 0.64v1.28c0 0.32 0.32 0.64 0.64 0.64s0.64-0.32 0.64-0.64v-1.28c0-0.32-0.32-0.64-0.64-0.64z"></path>
<path fill="#363c43" d="M17.92 17.707c0.32 0 0.64-0.32 0.64-0.64v-1.28c0-0.32-0.32-0.64-0.64-0.64s-0.64 0.32-0.64 0.64v1.28c0 0.32 0.213 0.64 0.64 0.64z"></path>
</svg>
