<!-- Generated by IcoMoon.io -->
<svg version="1.1" xmlns="http://www.w3.org/2000/svg" width="32" height="32" viewBox="0 0 32 32">
<title>ico30_LiveDealers</title>
<path fill="#ffc478" d="M27.947 31.36c0.747 0 1.28-0.533 1.28-1.28v-1.28c0-2.347-0.96-4.48-2.56-5.973 0.107 2.88 0.533 5.76 1.28 8.533z"></path>
<path fill="#ffc478" d="M6.72 23.040c-1.493 1.493-2.453 3.627-2.453 5.867v1.28c0 0.64 0.427 1.173 1.067 1.28 0.747-2.88 1.173-5.653 1.387-8.427z"></path>
<path fill="#ffc478" d="M22.613 20.48c-0.853-0.213-1.707-0.32-2.667-0.32v-3.627c2.027-1.707 3.52-4.587 3.84-7.147-2.453 0-4.48-1.6-5.013-3.733-1.707 1.6-3.733 2.773-6.080 3.307-0.107 0.213-0.213 0.427-0.213 0.427 0.427 2.56 1.813 5.333 3.84 7.147v3.627c-0.96 0-1.813 0.107-2.667 0.32v0.32c0 3.733 0.96 7.36 2.667 10.56h3.52c1.707-3.307 2.667-6.933 2.667-10.56v-0.32z"></path>
<path fill="#f66" d="M23.787 9.387c-0.213 1.707-0.96 3.52-2.133 5.12v5.76c0.32 0.107 0.533 0.107 0.853 0.213 0.427 0.107 0.853 0.32 1.28 0.427v-11.52c0.107 0 0.107 0 0 0z"></path>
<path fill="#f66" d="M10.027 20.373c0.64-0.107 1.28-0.213 2.027-0.213v-3.627c-0.747-0.64-1.387-1.387-2.027-2.347v6.187z"></path>
<path fill="#f66" d="M18.133 0.853c-3.307 0.853-5.76 3.733-5.76 7.253 0 0.32 0 0.64 0.107 0.96 2.453-0.533 4.587-1.707 6.4-3.413 0.533 2.027 2.453 3.52 4.693 3.733 0.107 0 0.213 0 0.32 0 0.107-0.427 0.107-0.853 0.107-1.28-0.107-3.413-2.56-6.293-5.867-7.253z"></path>
<path fill="#f66" d="M24.32 21.227c-0.107 3.52-0.96 7.040-2.667 10.133h4.8c-0.853-3.2-1.28-6.4-1.28-9.707-0.213-0.107-0.533-0.32-0.853-0.427z"></path>
<path fill="#f66" d="M8.533 21.76c0 3.307-0.533 6.507-1.28 9.707h4.8c-1.707-3.2-2.56-6.613-2.667-10.133-0.32 0-0.64 0.213-0.853 0.427z"></path>
<path fill="#363c43" d="M14.080 13.653c-0.213 0.32-0.107 0.64 0.213 0.853 0.533 0.32 1.067 0.427 1.6 0.427s1.067-0.107 1.6-0.427c0.32-0.213 0.427-0.533 0.213-0.853s-0.533-0.427-0.853-0.213c-0.32 0.213-0.64 0.32-0.96 0.32s-0.64-0.107-0.96-0.32c-0.213-0.107-0.64 0-0.853 0.213z"></path>
<path fill="#363c43" d="M16 23.467c-1.173 0-2.133 0.96-2.133 2.133s0.96 2.133 2.133 2.133 2.133-0.96 2.133-2.133c0-1.173-0.96-2.133-2.133-2.133z"></path>
<path fill="#f66" d="M16 24.533c0.64 0 1.067 0.427 1.067 1.067s-0.427 1.067-1.067 1.067-1.067-0.427-1.067-1.067c0-0.64 0.427-1.067 1.067-1.067z"></path>
<path fill="#363c43" d="M24.533 8.107c0-4.48-3.84-8.107-8.533-8.107s-8.533 3.627-8.533 8.107v12.48c-3.307 1.6-5.333 4.907-5.333 8.32v1.28c0 1.067 0.853 1.92 2.027 1.92h1.28c0 0 0 0 0 0s0 0 0 0h22.507c1.067 0 2.027-0.853 2.027-1.92v-1.28c0-3.413-2.027-6.613-5.333-8.32v-12.48zM25.707 30.72h-4.693c1.387-2.987 2.133-6.187 2.24-9.387 0.107 0 0.107 0.107 0.213 0.107 0.107 0.107 0.213 0.107 0.32 0.107 0.213 0.107 0.533 0.213 0.747 0.427 0.107 2.987 0.533 5.867 1.173 8.747zM16.64 30.72v-1.707c0-0.32-0.32-0.64-0.64-0.64s-0.64 0.32-0.64 0.64v1.707h-2.88c-1.6-2.987-2.347-6.4-2.453-9.813 0.427-0.107 0.96-0.213 1.387-0.213 0 0.213 0.107 0.533 0.107 0.853 0.107 0.32 0.427 0.533 0.747 0.533 0.32-0.107 0.64-0.427 0.533-0.747-0.107-0.533-0.107-0.96-0.107-1.28v-2.347c1.067 0.64 2.133 0.96 3.307 0.96 1.067 0 2.24-0.32 3.307-0.96v2.347c0 0.32-0.107 0.747-0.107 1.28-0.107 0.427 0.213 0.747 0.64 0.747 0.32 0 0.533-0.213 0.64-0.533s0.107-0.533 0.107-0.853c0.427 0 0.96 0.107 1.387 0.213 0 3.413-0.853 6.72-2.453 9.813h-2.88zM7.36 22.080c0.427-0.32 0.853-0.533 1.387-0.64 0.107 3.2 0.853 6.4 2.24 9.387h-4.693c0.64-2.88 1.067-5.867 1.067-8.747zM18.56 6.72c0.853 1.707 2.56 2.88 4.48 3.2-0.533 2.347-1.813 4.587-3.52 6.080-1.173 0.96-2.347 1.493-3.52 1.493s-2.347-0.533-3.52-1.493c-1.707-1.387-2.987-3.733-3.52-5.973h0.427c3.413 0 6.613-1.173 9.173-3.307zM11.413 16.747v2.773c-0.853 0-1.707 0.213-2.667 0.533v-6.827c0.64 1.28 1.6 2.56 2.667 3.52zM20.587 19.52v-2.773c1.067-0.96 1.92-2.24 2.667-3.52v6.827c-0.853-0.32-1.707-0.427-2.667-0.533zM16 1.28c4.053 0 7.253 3.093 7.253 6.827 0 0.213 0 0.427 0 0.533-1.707-0.213-3.093-1.387-3.733-2.88 0.32-0.32 0.64-0.64 0.96-1.067 0.213-0.32 0.107-0.64-0.107-0.853-0.32-0.213-0.747-0.107-0.96 0.107-0.32 0.427-0.747 0.853-1.067 1.173-2.347 2.347-5.653 3.627-8.96 3.627h-0.64c0-0.213 0-0.427 0-0.64 0-3.733 3.2-6.827 7.253-6.827zM3.413 30.080v-1.28c0-2.24 0.96-4.267 2.56-5.76-0.107 2.56-0.533 5.12-1.173 7.68h-0.64c-0.427 0-0.747-0.213-0.747-0.64zM28.587 28.907v1.28c0 0.32-0.32 0.64-0.64 0.64h-0.853c-0.64-2.56-1.067-5.12-1.173-7.68 1.707 1.387 2.667 3.52 2.667 5.76z"></path>
</svg>
