<!-- Generated by IcoMoon.io -->
<svg version="1.1" xmlns="http://www.w3.org/2000/svg" width="32" height="32" viewBox="0 0 32 32">
<title>ico30_Bonus</title>
<path fill="#e8ebef" d="M3.2 14.187h25.6v17.173h-25.6v-17.173z"></path>
<path fill="#e8ebef" d="M30.187 7.787v6.4h-28.373v-6.4h28.373z"></path>
<path fill="#f66" d="M11.2 7.787h9.493v6.4h-9.493v-6.4z"></path>
<path fill="#f66" d="M12.587 26.347v-12.16h6.827v17.173h-6.827z"></path>
<path fill="#363c43" d="M30.293 7.147h-4.053c0.853-0.747 1.493-1.813 1.6-2.987 0.107-0.64 0-1.28-0.213-1.707-0.747-1.813-3.307-2.773-5.653-2.347 0 0 0 0-0.107 0-1.387 0.427-2.987 1.813-4.587 4.053-0.533 0.747-0.96 1.493-1.387 2.133-0.32-0.533-0.747-1.28-1.387-2.133-1.6-2.347-3.093-3.627-4.587-4.053 0 0 0 0-0.107 0-0.96-0.213-2.24-0.107-3.413 0.427-0.32 0.107-0.427 0.427-0.32 0.747s0.533 0.427 0.853 0.32c0.853-0.32 1.813-0.427 2.667-0.32 2.027 0.64 4.267 3.84 5.333 5.867h-5.653c-1.493 0-2.88-0.853-3.52-2.133-0.107-0.32-0.533-0.427-0.853-0.32-0.32 0.213-0.533 0.533-0.32 0.853 0.32 0.533 0.747 1.067 1.173 1.493h-4.053c-0.32 0.107-0.64 0.32-0.64 0.64v6.507c0 0.32 0.32 0.64 0.64 0.64h0.747v16.533c0 0.32 0.32 0.64 0.747 0.64h25.6c0.32 0 0.64-0.32 0.64-0.64v-16.533h0.747c0.32 0 0.64-0.32 0.64-0.64v-6.507c0.107-0.32-0.213-0.533-0.533-0.533zM22.293 1.387c1.813-0.32 3.627 0.32 4.16 1.6 0.107 0.32 0.213 0.64 0.107 1.067-0.213 1.707-1.813 3.093-3.733 3.093h-5.76c1.067-2.027 3.307-5.227 5.227-5.76zM2.453 13.547v-5.227h8.107v5.227h-8.107zM18.773 30.72h-14.933v-15.893h8.107v11.52c0 0.32 0.32 0.64 0.64 0.64s0.64-0.32 0.64-0.64v-11.52h5.547v15.893zM20.053 13.547h-8.213v-5.227h8.213v5.227zM28.16 30.72h-8.107v-15.893h8.107v15.893zM29.547 13.547h-8.107v-5.227h8.107v5.227z"></path>
<path fill="#363c43" d="M13.227 28.907c0 0.32-0.32 0.64-0.64 0.64s-0.64-0.32-0.64-0.64 0.32-0.64 0.64-0.64 0.64 0.213 0.64 0.64z"></path>
<path fill="#363c43" d="M5.653 2.88c0 0.32-0.32 0.64-0.64 0.64s-0.747-0.32-0.747-0.64 0.32-0.64 0.64-0.64 0.747 0.32 0.747 0.64z"></path>
</svg>
