<!-- Generated by IcoMoon.io -->
<svg version="1.1" xmlns="http://www.w3.org/2000/svg" width="32" height="32" viewBox="0 0 32 32">
<title>ico30_Account</title>
<path fill="#b5c0cb" d="M29.547 19.52c1.067-0.107 1.813-0.853 1.813-1.813v-3.413c0-0.853-0.747-1.707-1.813-1.813l-1.813-0.213c-0.213-0.64-0.427-1.28-0.747-1.92l1.067-1.387c0.64-0.853 0.64-1.92 0-2.56l-2.453-2.453c-0.64-0.64-1.707-0.64-2.56 0l-1.387 1.067c-0.64-0.32-1.28-0.533-1.92-0.747l-0.213-1.813c0-0.107 0-0.213 0-0.213s-0.107 0-0.107 0c-2.56 0-5.013 0.747-7.040 1.92v0.107c-0.107 0-0.213 0.107-0.32 0.107-3.84 2.453-6.4 6.72-6.4 11.627s2.56 9.173 6.4 11.627c0.107 0 0.213 0.107 0.32 0.107v0.107c2.027 1.28 4.48 1.92 7.040 1.92 0 0 0.107 0 0.107 0 0-0.107 0-0.213 0-0.213l0.213-1.813c0.64-0.213 1.28-0.427 1.92-0.747l1.387 1.067c0.853 0.64 1.92 0.64 2.56 0l2.453-2.453c0.64-0.64 0.64-1.707 0-2.56l-1.067-1.387c0.32-0.64 0.533-1.28 0.747-1.92l1.813-0.213zM16 21.653c-3.093 0-5.653-2.56-5.653-5.653s2.56-5.653 5.653-5.653c3.093 0 5.653 2.56 5.653 5.653s-2.56 5.653-5.653 5.653z"></path>
<path fill="#363c43" d="M17.707 32h-3.413c-1.173 0-2.24-1.067-2.453-2.453l-0.107-1.387c-0.427-0.107-0.853-0.32-1.28-0.533l-1.067 0.853c-1.067 0.853-2.56 0.853-3.413 0l-2.453-2.453c-0.853-0.853-0.853-2.347 0-3.413l0.853-1.067c-0.213-0.427-0.32-0.853-0.533-1.28l-1.387-0.213c-1.387-0.107-2.453-1.067-2.453-2.347v-3.413c0-1.173 1.067-2.24 2.453-2.453l1.387-0.107c0.107-0.427 0.32-0.853 0.533-1.28l-0.853-1.067c-0.853-1.067-0.853-2.56 0-3.413l2.453-2.453c0.853-0.853 2.347-0.853 3.413 0l1.067 0.853c0.427-0.213 0.853-0.32 1.28-0.533l0.213-1.387c0.107-1.387 1.067-2.453 2.347-2.453h3.413c1.173 0 2.24 1.067 2.453 2.453l0.107 1.387c0.427 0.107 0.853 0.32 1.28 0.533l1.067-0.853c1.067-0.853 2.56-0.853 3.413 0l2.453 2.453c0.853 0.853 0.853 2.347 0 3.413l-0.853 1.067c0.213 0.427 0.32 0.853 0.533 1.28l1.387 0.213c1.387 0.213 2.453 1.173 2.453 2.453v3.413c0 1.173-1.067 2.24-2.453 2.453h-1.387c-0.107 0.427-0.32 0.853-0.533 1.28l0.853 1.067c0.853 1.067 0.853 2.56 0 3.413l-2.453 2.453c-0.853 0.853-2.347 0.853-3.413 0l-1.067-0.853c-0.427 0.213-0.853 0.427-1.28 0.533l-0.213 1.387c-0.107 1.387-1.067 2.453-2.347 2.453zM10.347 26.347c0.107 0 0.213 0 0.32 0.107 0.533 0.32 1.173 0.533 1.813 0.747 0.213 0.107 0.427 0.32 0.427 0.533l0.213 1.813c0.107 0.747 0.64 1.28 1.173 1.28h3.413c0.533 0 1.067-0.533 1.173-1.28l0.213-1.813c0-0.213 0.213-0.427 0.427-0.533 0.64-0.213 1.28-0.427 1.813-0.747 0.213-0.107 0.533-0.107 0.64 0.107l1.387 1.067c0.64 0.427 1.387 0.533 1.707 0.107l2.453-2.453c0.427-0.427 0.32-1.173-0.107-1.707l-1.067-1.387c-0.107-0.213-0.213-0.427-0.107-0.64 0.32-0.533 0.533-1.173 0.747-1.813 0.107-0.213 0.32-0.427 0.533-0.427l1.813-0.213c0.747-0.107 1.28-0.64 1.28-1.173v-3.413c0-0.533-0.533-1.067-1.28-1.173v0l-1.813-0.213c-0.213 0-0.427-0.213-0.533-0.427-0.213-0.64-0.427-1.28-0.747-1.813-0.107-0.213-0.107-0.533 0.107-0.64l1.067-1.387c0.427-0.64 0.533-1.387 0.107-1.707l-2.453-2.453c-0.427-0.427-1.173-0.32-1.707 0.107l-1.387 1.067c-0.213 0.107-0.427 0.213-0.64 0.107-0.533-0.32-1.173-0.533-1.813-0.747-0.213-0.107-0.427-0.32-0.427-0.533l-0.213-1.813c-0.107-0.747-0.64-1.28-1.173-1.28h-3.413c-0.533 0-1.067 0.533-1.173 1.28l-0.213 1.813c0 0.213-0.213 0.427-0.427 0.533-0.64-0.107-1.28 0.107-1.813 0.427-0.213 0.107-0.533 0.107-0.747-0.107l-1.387-1.067c-0.533-0.533-1.28-0.533-1.707-0.107l-2.453 2.453c-0.427 0.427-0.427 1.173 0.107 1.707l1.067 1.387c0.213 0.213 0.213 0.533 0.107 0.747-0.32 0.533-0.533 1.173-0.747 1.813-0.107 0.213-0.32 0.427-0.533 0.427l-1.813 0.213c-0.747 0.107-1.28 0.64-1.28 1.173v3.413c0 0.533 0.533 1.067 1.28 1.173l1.813 0.213c0.213 0 0.427 0.213 0.533 0.427 0.213 0.64 0.427 1.28 0.747 1.813 0.107 0.213 0.107 0.533-0.107 0.64l-1.067 1.387c-0.427 0.64-0.533 1.387-0.107 1.707l2.453 2.453c0.427 0.427 1.173 0.32 1.707-0.107l1.387-1.067c0.107 0 0.32 0 0.427 0z"></path>
<path fill="#363c43" d="M16 22.293c-3.413 0-6.293-2.773-6.293-6.293s2.773-6.293 6.293-6.293 6.293 2.773 6.293 6.293c0 3.413-2.88 6.293-6.293 6.293zM16 10.987c-2.773 0-5.013 2.24-5.013 5.013s2.24 5.013 5.013 5.013 5.013-2.24 5.013-5.013-2.24-5.013-5.013-5.013z"></path>
<path fill="#363c43" d="M18.667 25.28c-0.213 0-0.533-0.213-0.64-0.427-0.107-0.32 0.107-0.64 0.427-0.747 3.52-1.067 5.867-4.373 5.867-8 0-0.32 0.32-0.64 0.64-0.64s0.64 0.213 0.64 0.533c0 2.133-0.64 4.053-1.92 5.76-1.173 1.6-2.987 2.88-4.907 3.413 0 0.107 0 0.107-0.107 0.107z"></path>
<path fill="#363c43" d="M16.533 24.853c0 0.353-0.287 0.64-0.64 0.64s-0.64-0.287-0.64-0.64c0-0.353 0.287-0.64 0.64-0.64s0.64 0.287 0.64 0.64z"></path>
</svg>
