<!-- Generated by IcoMoon.io -->
<svg version="1.1" xmlns="http://www.w3.org/2000/svg" width="32" height="32" viewBox="0 0 32 32">
<title>ico30_Tournament</title>
<path fill="#b5c0cb" d="M19.093 19.093v2.56l-1.067 1.067-17.493-16.533v-5.653l18.56 18.56z"></path>
<path fill="#e8ebef" d="M6.187 0.533l16.533 17.6-1.067 1.067h-2.56l-18.56-18.667h5.653z"></path>
<path fill="#0080ff" d="M30.933 27.84c0 0-0.107-0.107-0.107-0.107l-1.387-1.387-3.093 3.093 1.387 1.387c0 0 0.107 0.107 0.107 0.107 0.427 0.32 0.853 0.533 1.387 0.533 0.64 0 1.173-0.213 1.6-0.64s0.64-0.96 0.64-1.6c0-0.427-0.213-0.96-0.533-1.387z"></path>
<path fill="#b5c0cb" d="M23.253 25.28l2.027-2.027 3.627 3.627-2.027 2.027-3.627-3.627z"></path>
<path fill="#0080ff" d="M26.347 22.187l-4.16 4.16-1.6-1.6 4.16-4.16 1.6 1.6z"></path>
<path fill="#0080ff" d="M21.653 23.787l-4.16 4.16-3.627-1.067 5.12-5.12v1.067l2.667 0.96z"></path>
<path fill="#0080ff" d="M26.88 13.973l1.067 3.627-4.16 4.16-1.067-2.56h-1.067l5.227-5.227z"></path>
<path fill="#0080ff" d="M22.72 19.093l1.067 2.56-2.027 2.027-2.56-1.067v-3.627h3.52z"></path>
<path fill="#363c43" d="M31.253 27.413l-1.813-1.813-0.533 0.533-2.88-2.88 1.067-1.067-1.6-1.6 2.987-2.987-1.387-4.8-4.373 4.373-16.32-17.173h-6.4v6.4l17.28 16.32-4.373 4.373 4.8 1.387 2.987-2.987 1.6 1.6 1.067-1.067 2.88 2.88-0.64 0.533 1.813 1.813c0.533 0.533 1.173 0.747 1.92 0.747 1.493 0 2.667-1.173 2.667-2.667 0-0.747-0.32-1.493-0.747-1.92zM27.307 17.387l-3.413 3.413-0.853-2.133h-0.107l3.627-3.627 0.747 2.347zM21.547 23.147l-1.92-0.747v-2.773h2.773l0.747 1.92-1.6 1.6zM1.067 5.973v-4.16l5.333 5.333 0.747-0.747-5.333-5.333h4.16l16 17.067-0.533 0.533h-2.133l-11.2-11.307-0.747 0.747 11.2 11.2v2.133l-0.533 0.533-16.96-16zM17.387 27.307l-2.453-0.747 3.627-3.627v0.107l2.133 0.853-3.307 3.413zM21.333 24.747l3.413-3.413 0.853 0.853-3.413 3.413-0.853-0.853zM24 25.28l1.387-1.387 2.88 2.88-1.387 1.387-2.88-2.88zM27.093 29.44l2.347-2.347 0.853 0.853-2.347 2.347-0.853-0.853zM29.333 30.933c-0.213 0-0.427 0-0.533-0.107l2.133-2.133c0.107 0.213 0.107 0.427 0.107 0.533-0.107 0.96-0.853 1.707-1.707 1.707z"></path>
<path fill="#363c43" d="M20.693 20.693h1.067v1.067h-1.067v-1.067z"></path>
<path fill="#363c43" d="M16.107 7.040l0.747-0.747 5.12 5.12-0.64 0.853-5.227-5.227z"></path>
<path fill="#363c43" d="M14.613 5.547l0.747-0.747 1.067 1.067-0.747 0.747-1.067-1.067z"></path>
<path fill="#363c43" d="M6.293 16.853l0.747-0.747 5.12 5.12-0.747 0.747-5.12-5.12z"></path>
<path fill="#363c43" d="M4.8 15.36l0.747-0.747 1.067 1.067-0.747 0.747-1.067-1.067z"></path>
<path fill="#363c43" d="M1.707 16.853l0.747-0.747 5.12 5.227-0.747 0.747-5.12-5.227z"></path>
<path fill="#363c43" d="M0.107 15.36l0.747-0.747 1.067 1.067-0.747 0.747-1.067-1.067z"></path>
<path fill="#363c43" d="M16.107 2.453l0.747-0.747 5.12 5.12-0.64 0.747-5.227-5.12z"></path>
<path fill="#363c43" d="M14.613 0.853l0.747-0.747 1.067 1.067-0.747 0.747-1.067-1.067z"></path>
</svg>
