<!-- Generated by IcoMoon.io -->
<svg version="1.1" xmlns="http://www.w3.org/2000/svg" width="32" height="32" viewBox="0 0 32 32">
<title>ico30_Casino</title>
<path fill="#6c757c" d="M31.36 16h-3.947c0-2.133-0.64-4.053-1.6-5.76l3.307-1.92c1.493 2.24 2.24 4.907 2.24 7.68z"></path>
<path fill="#6c757c" d="M29.12 23.68v0c-1.28 2.24-3.2 4.16-5.44 5.547v0l-1.92-3.307c1.707-0.96 3.093-2.453 4.053-4.053v0l3.307 1.813z"></path>
<path fill="#6c757c" d="M9.173 27.84v0c2.027 1.28 4.373 2.027 6.827 2.133v-2.56c-2.027 0-4.053-0.533-5.76-1.6l-1.067 2.027z"></path>
<path fill="#6c757c" d="M6.187 21.76c-1.067-1.707-1.6-3.627-1.6-5.76h-1.92c0 2.453 0.64 4.8 1.707 6.827l1.813-1.067z"></path>
<path fill="#6c757c" d="M9.067 4.16c-1.813 1.173-3.307 2.88-4.373 4.693v0l1.707 0.96c0.96-1.493 2.347-2.773 3.84-3.733l-1.173-1.92z"></path>
<path fill="#6c757c" d="M23.68 2.773v0l-1.92 3.413c-1.707-1.067-3.627-1.6-5.76-1.6v-3.947c2.773 0 5.44 0.747 7.68 2.133z"></path>
<path fill="#f66" d="M29.227 8.32v0l-3.413 1.92c-0.96-1.707-2.453-3.093-4.053-4.053l1.92-3.307c2.24 1.28 4.16 3.2 5.547 5.44z"></path>
<path fill="#f66" d="M27.413 16h3.947c0 2.773-0.747 5.44-2.133 7.68v0l-3.307-1.92c0.96-1.707 1.493-3.627 1.493-5.76z"></path>
<path fill="#f66" d="M16 27.413v2.453c2.56 0.213 5.013-0.32 7.253-1.387l-1.493-2.667c-1.707 1.067-3.733 1.6-5.76 1.6z"></path>
<path fill="#f66" d="M8.96 27.947l1.28-2.133c-1.707-0.96-3.093-2.347-4.053-4.053l-1.92 1.173c1.067 2.027 2.773 3.733 4.693 5.013z"></path>
<path fill="#f66" d="M4.373 9.173c-1.067 2.027-1.707 4.373-1.707 6.827h1.92c0-2.133 0.64-4.053 1.6-5.76l-1.813-1.067z"></path>
<path fill="#f66" d="M9.173 4.373l1.28 1.707c1.707-0.96 3.52-1.493 5.547-1.493v-3.2c-2.56 0.32-4.907 1.387-6.933 2.88l0.107 0.107z"></path>
<path fill="#363c43" d="M20.373 9.173c0.32 0 0.64-0.32 0.64-0.64s-0.32-0.64-0.64-0.64-0.64 0.213-0.64 0.64 0.32 0.64 0.64 0.64z"></path>
<path fill="#363c43" d="M16 0c-8.64 0-16 7.36-16 16s7.36 16 16 16c5.76 0 10.88-3.2 13.76-8 1.493-2.453 2.24-5.227 2.24-8 0-8.64-7.36-16-16-16zM29.013 22.827l-2.347-1.28c0.853-1.493 1.28-3.2 1.387-4.907h2.667c-0.107 2.133-0.64 4.267-1.707 6.187zM10.453 26.667c1.493 0.853 3.2 1.28 4.907 1.387v2.667c-2.133-0.107-4.267-0.747-6.187-1.707l1.28-2.347zM16.64 28.053c1.707-0.107 3.413-0.533 4.907-1.387l1.28 2.347c-1.92 1.067-4.053 1.707-6.187 1.707v-2.667zM16 26.773c-5.867 0-10.773-4.907-10.773-10.773s4.907-10.773 10.773-10.773c5.867 0 10.773 5.013 10.773 10.773 0 5.867-4.907 10.773-10.773 10.773zM2.987 22.827c-1.067-1.92-1.707-4.053-1.707-6.187h2.667c0.107 1.707 0.533 3.413 1.387 4.907l-2.347 1.28zM2.987 9.173l2.347 1.28c-0.853 1.493-1.28 3.2-1.387 4.907h-2.667c0.107-2.133 0.64-4.267 1.707-6.187zM21.547 5.333c-1.493-0.853-3.2-1.28-4.907-1.387v-2.667c2.133 0.107 4.267 0.747 6.187 1.707l-1.28 2.347zM15.36 3.947c-1.707 0.107-3.307 0.533-4.907 1.387l-1.28-2.347c1.92-1.067 4.053-1.707 6.187-1.707v2.667zM28.053 15.36c-0.107-1.707-0.533-3.413-1.387-4.907l2.347-1.28c1.067 1.92 1.707 4.053 1.707 6.187h-2.667zM28.373 8.107l-2.347 1.28c-0.96-1.387-2.133-2.56-3.413-3.413l1.28-2.347c1.813 1.173 3.307 2.667 4.48 4.48zM8.107 3.627l1.28 2.347c-1.387 0.96-2.56 2.133-3.413 3.413l-2.347-1.28c1.173-1.813 2.667-3.307 4.48-4.48zM3.627 23.893l2.347-1.28c0.96 1.387 2.133 2.56 3.413 3.413l-1.28 2.347c-1.813-1.173-3.307-2.667-4.48-4.48zM23.893 28.373l-1.28-2.347c1.387-0.96 2.56-2.133 3.413-3.413l2.347 1.28c-1.173 1.813-2.667 3.307-4.48 4.48z"></path>
<path fill="#363c43" d="M23.787 13.653c0.107 0.32 0.427 0.533 0.747 0.427s0.533-0.427 0.427-0.747c-0.427-1.387-1.173-2.667-2.133-3.733-0.213-0.213-0.64-0.213-0.853 0s-0.213 0.64 0 0.853c0.853 0.853 1.493 2.027 1.813 3.2z"></path>
<path fill="#363c43" d="M22.293 14.080c-0.853 0-1.493 0.533-1.813 1.28h-1.387c-0.213-1.173-1.173-2.24-2.453-2.453v-1.387c0.747-0.213 1.28-0.96 1.28-1.813 0-1.067-0.853-1.92-1.92-1.92s-1.92 0.853-1.92 1.92c0 0.853 0.533 1.493 1.28 1.813v1.387c-1.173 0.213-2.24 1.173-2.453 2.453h-1.387c-0.213-0.747-0.96-1.28-1.813-1.28-1.067 0-1.92 0.853-1.92 1.92s0.853 1.92 1.92 1.92c0.853 0 1.493-0.533 1.813-1.28h1.387c0.213 1.173 1.173 2.24 2.453 2.453v1.387c-0.747 0.213-1.28 0.96-1.28 1.813 0 1.067 0.853 1.92 1.92 1.92s1.92-0.853 1.92-1.92c0-0.853-0.533-1.493-1.28-1.813v-1.387c1.173-0.213 2.24-1.173 2.453-2.453h1.387c0.213 0.747 0.96 1.28 1.813 1.28 1.067 0 1.92-0.853 1.92-1.92s-0.96-1.92-1.92-1.92zM16 9.173c0.32 0 0.64 0.32 0.64 0.64s-0.32 0.533-0.64 0.533-0.64-0.32-0.64-0.64 0.32-0.533 0.64-0.533zM9.707 16.64c-0.32 0-0.64-0.32-0.64-0.64s0.32-0.64 0.64-0.64 0.64 0.32 0.64 0.64-0.213 0.64-0.64 0.64zM16 22.827c-0.32 0-0.64-0.32-0.64-0.64s0.32-0.64 0.64-0.64 0.64 0.32 0.64 0.64-0.32 0.64-0.64 0.64zM16 17.92c-1.067 0-1.92-0.853-1.92-1.92s0.853-1.92 1.92-1.92 1.92 0.853 1.92 1.92-0.853 1.92-1.92 1.92zM22.293 16.64c-0.32 0-0.64-0.32-0.64-0.64s0.32-0.64 0.64-0.64 0.64 0.32 0.64 0.64-0.32 0.64-0.64 0.64z"></path>
</svg>
