<!-- Generated by IcoMoon.io -->
<svg version="1.1" xmlns="http://www.w3.org/2000/svg" width="32" height="32" viewBox="0 0 32 32">
<title>ico30_ThemedGames</title>
<path fill="#fc0" d="M0.853 21.227c1.92 5.333 12.587 6.187 15.147-0.427-0.107-0.107-1.707-1.813-3.947-1.493 0 0-1.6 0.213-3.2 1.92-2.24 2.453-5.867 2.027-6.187 0.213 0 0-0.32-1.067 0.32-2.133 0 0 0-0.107-0.107-0.107-0.427 0.107-1.493 0.64-2.027 2.027z"></path>
<path fill="#fc0" d="M31.147 21.227c-0.533-1.28-1.6-1.813-2.027-2.027 0 0 0 0.107-0.107 0.107 0.64 1.067 0.32 2.133 0.32 2.133-0.32 1.813-3.947 2.24-6.187-0.213-1.6-1.813-3.2-1.92-3.2-1.92-2.24-0.213-3.733 1.387-3.947 1.493 2.453 6.613 13.227 5.653 15.147 0.427z"></path>
<path fill="#b5c0cb" d="M31.253 8c-0.427-2.453-2.027-3.627-4.16-3.947-0.32 0-0.64 0.107-0.96 0.107-2.133 0.427-3.627 1.493-4.053 3.733-0.427 1.92 0.533 4.053 1.707 5.653 0.96 1.173 2.133 2.027 3.413 2.453 3.307-1.387 4.48-5.653 4.053-8z"></path>
<path fill="#b5c0cb" d="M10.24 4.16c-0.427-0.107-0.853-0.107-1.28-0.213-1.067 0.213-2.027 0.533-2.667 1.173-0.853 0.747-1.387 1.707-1.6 2.88-0.427 2.667 1.067 6.827 4.16 8.107 1.387-0.427 2.773-1.387 3.733-2.56 1.173-1.493 2.133-3.733 1.707-5.653-0.427-2.24-1.92-3.307-4.053-3.733z"></path>
<path fill="#363c43" d="M29.013 9.28c0.32 0 0.64-0.32 0.64-0.64s-0.32-0.64-0.64-0.64c-0.32 0-0.64 0.32-0.64 0.64 0 0.427 0.32 0.64 0.64 0.64z"></path>
<path fill="#363c43" d="M2.987 9.28c0.32 0 0.64-0.32 0.64-0.64s-0.32-0.64-0.64-0.64c-0.32 0-0.64 0.32-0.64 0.64 0 0.427 0.32 0.64 0.64 0.64z"></path>
<path fill="#363c43" d="M32 22.080c-0.32-2.88-2.773-3.52-2.88-3.627-0.533-0.107-0.96 0.533-0.64 0.96 0.533 0.747 0.32 1.707 0.32 1.707s0 0 0 0c-0.213 1.173-3.2 1.6-5.12-0.533-1.707-1.92-3.52-2.133-3.627-2.133-1.92-0.107-3.307 0.747-4.053 1.387-0.747-0.64-2.133-1.493-4.053-1.28-0.107 0-1.813 0.213-3.627 2.133-1.28 1.387-2.987 1.707-4.053 1.387-0.213-0.107-0.853-0.32-0.96-0.853-0.107-0.64-0.107-1.173 0.213-1.707 0.107-0.213 0.107-0.533 0-0.747s-0.427-0.32-0.64-0.213c-0.107 0-2.56 0.64-2.88 3.52-0.427 2.773 2.24 6.187 7.253 6.72 3.413 0.32 6.933-0.853 8.747-3.84 1.813 2.987 5.333 4.267 8.747 3.84 5.013-0.533 7.573-3.947 7.253-6.72zM24.64 27.413c-2.88 0.32-6.72-0.64-8-4.267-0.107-0.213-0.32-0.427-0.533-0.427 0 0 0 0 0 0-0.213 0-0.533 0.213-0.533 0.427-1.387 3.627-5.12 4.587-8 4.267-2.667-0.32-5.653-1.707-6.080-4.48-0.107-0.853 0.107-1.813 0.64-2.453 0 1.387 0.533 2.347 1.92 2.773 1.493 0.427 3.733 0.107 5.44-1.707 1.387-1.6 2.773-1.707 2.773-1.707 1.92-0.213 3.2 1.067 3.413 1.387 0.32 0.32 0.64 0.213 0.853 0v0c0.213-0.213 1.6-1.6 3.413-1.387 0.107 0 1.387 0.213 2.773 1.707 2.56 2.88 6.72 2.347 7.253 0 0-0.107 0.107-0.427 0.107-0.96 0.32 0.32 0.64 0.853 0.64 1.707 0 0 0 0 0 0 0.32 1.813-1.707 4.693-6.080 5.12z"></path>
<path fill="#363c43" d="M6.827 17.067c2.24 0 4.8-1.28 6.293-3.2 1.28-1.707 2.027-3.733 1.92-5.44 0.213-0.213 0.533-0.427 0.96-0.427s0.747 0.213 0.96 0.427c-0.107 1.707 0.64 3.733 1.92 5.44 1.493 1.92 3.947 3.2 6.080 3.2 5.333 0 7.36-6.080 6.827-9.28-0.427-3.307-3.2-4.587-6.507-4.587-1.28 0-2.453 0.107-3.413 0.32 0 0 0 0-0.107 0h-11.52c0 0-0.107 0-0.107 0-0.96-0.213-2.24-0.32-3.52-0.32-4.16 0-6.080 2.027-6.507 4.693-0.64 3.413 1.813 9.173 6.72 9.173zM16 6.72c-0.427 0-0.853 0.107-1.28 0.32-0.32-0.96-0.853-1.707-1.493-2.347h5.547c-0.747 0.64-1.173 1.387-1.493 2.347-0.427-0.213-0.853-0.32-1.28-0.32zM30.72 8.107c0.427 2.453-1.173 7.68-5.653 7.68-1.813 0-3.947-1.067-5.12-2.667-1.067-1.387-1.92-3.413-1.6-5.12 0.427-2.027 1.707-2.88 3.627-3.2 0.96-0.213 2.133-0.32 3.413-0.32 2.56 0 4.8 0.853 5.333 3.627zM1.28 8.107c0.427-2.667 2.667-3.627 5.333-3.627 1.387 0 3.84 0.213 5.12 0.853 1.067 0.533 1.707 1.387 1.92 2.667 0.32 1.707-0.533 3.733-1.6 5.12-1.387 1.813-3.733 2.667-5.333 2.667-4.053 0-5.867-5.013-5.44-7.68z"></path>
<path fill="#363c43" d="M3.307 10.56c-0.32 0.107-0.427 0.533-0.32 0.853 0.533 1.387 1.387 2.347 2.347 2.773 0.32 0.107 0.64 0 0.853-0.32 0.107-0.32 0-0.747-0.32-0.853-0.64-0.32-1.28-1.067-1.707-2.027-0.107-0.427-0.533-0.533-0.853-0.427z"></path>
<path fill="#363c43" d="M26.453 14.187c0.107 0 0.213 0 0.213-0.107 0.96-0.427 1.813-1.387 2.347-2.773 0.107-0.32 0-0.747-0.32-0.853s-0.64 0-0.853 0.32c-0.427 0.96-0.96 1.707-1.707 2.027-0.32 0.107-0.427 0.533-0.32 0.853 0.107 0.427 0.32 0.533 0.64 0.533z"></path>
</svg>
