<!-- Generated by IcoMoon.io -->
<svg version="1.1" xmlns="http://www.w3.org/2000/svg" width="32" height="32" viewBox="0 0 32 32">
<title>ico30_OtherGames</title>
<path fill="#f66" d="M30.933 18.027v-12.587c0-1.173-1.067-2.24-2.24-2.24h-7.147c-1.28 0-2.347 1.067-2.347 2.24v12.48c0 1.28 1.067 2.24 2.24 2.24h7.147c1.28 0.107 2.347-0.96 2.347-2.133z"></path>
<path fill="#e8ebef" d="M28.8 16.533c0 0.853-0.747 1.6-1.6 1.6s-1.6-0.747-1.6-1.6 0.747-1.6 1.6-1.6 1.6 0.747 1.6 1.6z"></path>
<path fill="#e8ebef" d="M28.8 6.933c0 0.853-0.747 1.6-1.6 1.6s-1.6-0.747-1.6-1.6 0.747-1.6 1.6-1.6 1.6 0.747 1.6 1.6z"></path>
<path fill="#e8ebef" d="M18.133 26.56c0-0.427 0-12.16 0-12.48 0-1.28-0.96-2.24-2.133-2.24-0.213 0-3.52 0-6.507 0-1.173 0-2.133 1.067-2.133 2.24v12.48c0.107 1.173 1.067 2.24 2.24 2.24h6.4c1.173 0 2.133-1.067 2.133-2.24z"></path>
<path fill="#363c43" d="M9.6 17.6c-1.493 0-2.667 1.173-2.667 2.667s1.173 2.667 2.667 2.667 2.667-1.173 2.667-2.667-1.173-2.667-2.667-2.667zM9.6 21.547c-0.747 0-1.28-0.64-1.28-1.28s0.64-1.28 1.28-1.28 1.28 0.64 1.28 1.28-0.533 1.28-1.28 1.28z"></path>
<path fill="#363c43" d="M4.8 18.133c1.493 0 2.667-1.173 2.667-2.667s-1.173-2.667-2.667-2.667-2.667 1.173-2.667 2.667 1.173 2.667 2.667 2.667zM4.8 14.080c0.747 0 1.28 0.64 1.28 1.28s-0.64 1.28-1.28 1.28-1.28-0.64-1.28-1.28 0.533-1.28 1.28-1.28z"></path>
<path fill="#363c43" d="M15.147 2.133c-1.707 0-3.093 1.387-3.093 2.987v5.44h-8.96c-1.707 0-3.093 1.387-3.093 2.987v13.227c0 1.707 1.387 3.093 3.093 3.093h13.76c1.707 0 3.093-1.387 3.093-2.987v-5.44h8.853c1.707 0 3.093-1.387 3.093-2.987v-13.333c0.107-1.6-1.28-2.987-2.987-2.987h-13.76zM18.773 26.88c0 0.96-0.853 1.813-1.92 1.813h-13.76c-1.067 0-1.92-0.853-1.92-1.813v-13.333c0.107-0.96 0.96-1.813 1.92-1.813h13.76c1.067 0 1.92 0.853 1.92 1.813v13.333zM30.72 5.12v13.227c0 0.96-0.853 1.813-1.92 1.813h-8.853v-6.613c0-1.707-1.387-2.987-3.093-2.987h-3.627v-5.44c0-0.96 0.853-1.813 1.92-1.813h13.76c0.96 0 1.813 0.853 1.813 1.813z"></path>
<path fill="#363c43" d="M16.533 4.267c-1.493 0-2.667 1.173-2.667 2.667s1.173 2.667 2.667 2.667 2.667-1.173 2.667-2.667-1.173-2.667-2.667-2.667zM16.533 8.32c-0.747 0-1.28-0.64-1.28-1.28s0.64-1.28 1.28-1.28 1.28 0.64 1.28 1.28-0.533 1.28-1.28 1.28z"></path>
<path fill="#363c43" d="M27.2 13.867c-1.493 0-2.667 1.173-2.667 2.667s1.173 2.667 2.667 2.667 2.667-1.173 2.667-2.667-1.173-2.667-2.667-2.667zM27.2 17.92c-0.747 0-1.28-0.64-1.28-1.28s0.64-1.28 1.28-1.28 1.28 0.64 1.28 1.28-0.533 1.28-1.28 1.28z"></path>
<path fill="#363c43" d="M27.2 4.267c-1.493 0-2.667 1.173-2.667 2.667s1.173 2.667 2.667 2.667 2.667-1.173 2.667-2.667-1.173-2.667-2.667-2.667zM27.2 8.32c-0.747 0-1.28-0.64-1.28-1.28s0.64-1.28 1.28-1.28 1.28 0.64 1.28 1.28-0.533 1.28-1.28 1.28z"></path>
<path fill="#363c43" d="M14.4 22.613c-1.493 0-2.667 1.173-2.667 2.56s1.173 2.56 2.667 2.56 2.667-1.173 2.667-2.56-1.173-2.56-2.667-2.56zM14.4 26.453c-0.747 0-1.28-0.533-1.28-1.28s0.64-1.28 1.28-1.28 1.28 0.533 1.28 1.28c0.107 0.747-0.533 1.28-1.28 1.28z"></path>
<path fill="#363c43" d="M3.307 26.773c0 0.32 0.32 0.64 0.64 0.64h2.453c0.32 0 0.64-0.32 0.64-0.64s-0.32-0.64-0.64-0.64h-2.453c-0.32 0-0.64 0.213-0.64 0.64z"></path>
</svg>
