<!-- Generated by IcoMoon.io -->
<svg version="1.1" xmlns="http://www.w3.org/2000/svg" width="32" height="32" viewBox="0 0 32 32">
<title>ico30_Favorites</title>
<path fill="#363c43" d="M18.027 1.387l3.2 6.72c0.32 0.747 0.96 1.067 1.707 1.28l7.147 1.067c1.813 0.213 2.56 2.453 1.28 3.84l-5.44 5.44c-0.533 0.533-0.747 1.28-0.64 1.92l1.28 7.573c0.213 1.813-1.707 3.307-3.307 2.347l-6.187-3.307c-0.747-0.32-1.493-0.32-2.24 0l-6.293 3.413c-1.6 0.853-3.52-0.533-3.307-2.347l1.28-7.573c0.107-0.747-0.107-1.493-0.64-1.92l-5.227-5.547c-1.28-1.387-0.533-3.52 1.28-3.84l7.147-1.067c0.64-0.107 1.28-0.64 1.6-1.28l3.2-6.72c0.853-1.813 3.307-1.813 4.16 0z"></path>
<path fill="#e8ebef" d="M20.373 9.813c0.107 0.32 0.533 0.64 0.853 0.64l8 1.28c0.853 0.107 1.28 1.28 0.64 1.813l-5.76 6.080c-0.213 0.213-0.427 0.64-0.213 0.96l1.387 8.427c0.107 0.853-0.853 1.6-1.6 1.067l-7.040-3.84c-0.427-0.213-0.747-0.213-1.173 0l-6.933 3.947c-0.853 0.533-1.92-0.213-1.6-1.067l1.387-8.427c0-0.32 0-0.747-0.213-0.96l-5.973-6.080c-0.64-0.64-0.213-1.707 0.64-1.813l8-1.28c0.427 0 0.747-0.213 0.853-0.64l3.52-7.467c0.32-0.64 1.28-0.64 1.6 0l3.627 7.36z"></path>
<path fill="#0080ff" d="M18.56 12.8c0.107 0.213 0.213 0.32 0.533 0.32l4.8 0.747c0.533 0.107 0.747 0.747 0.32 1.067l-3.52 3.733c-0.107 0.107-0.213 0.32-0.107 0.64l0.853 5.013c0.107 0.64-0.533 0.96-0.96 0.747l-4.267-2.347c-0.213-0.107-0.533-0.107-0.64 0l-4.267 2.347c-0.533 0.213-1.067-0.107-0.96-0.747l0.853-5.013c0-0.213 0-0.32-0.107-0.64l-3.627-3.52c-0.32-0.32-0.107-1.067 0.32-1.067l4.8-0.747c0.213 0 0.32-0.107 0.533-0.32l2.133-4.48c0.213-0.427 0.747-0.427 0.96 0l2.347 4.267z"></path>
</svg>
