<!-- Generated by IcoMoon.io -->
<svg version="1.1" xmlns="http://www.w3.org/2000/svg" width="32" height="32" viewBox="0 0 32 32">
<title>ico30_NewGames</title>
<path fill="#3c3" d="M26.027 6.507c0.107-0.107 0.213-0.107 0.213-0.213 0 0 0.107-0.107 0.107-0.107-4.587-1.92-10.987-0.213-15.787 4.693-5.013 5.227-6.613 12.267-4.16 17.067-0.107 0.107-0.107 0.107-0.213 0.213 0 0-0.107 0.107-0.107 0.107 2.347 0.96 5.12 1.067 7.893 0.213v0l11.307-9.707c2.24-4.267 2.453-8.853 0.747-12.267z"></path>
<path fill="#e8ebef" d="M8.853 18.667c0 6.4 5.013 11.627 11.2 11.627s11.2-5.227 11.2-11.627h-22.4z"></path>
<path fill="#3c3" d="M20.16 30.293c5.227 0 9.493-3.627 10.88-8.533h-21.76c1.28 4.907 5.653 8.533 10.88 8.533z"></path>
<path fill="#363c43" d="M20.693 6.507c0.32 0 0.64-0.32 0.64-0.64s-0.32-0.64-0.64-0.64-0.64 0.32-0.64 0.64c0 0.32 0.32 0.64 0.64 0.64z"></path>
<path fill="#363c43" d="M18.133 5.227c0.32 0 0.64-0.32 0.64-0.64s-0.32-0.64-0.64-0.64-0.64 0.32-0.64 0.64c0.107 0.32 0.32 0.64 0.64 0.64z"></path>
<path fill="#363c43" d="M18.133 7.787c0.32 0 0.64-0.32 0.64-0.64s-0.32-0.64-0.64-0.64-0.64 0.32-0.64 0.64c0.107 0.32 0.32 0.64 0.64 0.64z"></path>
<path fill="#363c43" d="M15.68 5.227c0.32 0 0.64-0.32 0.64-0.64s-0.32-0.64-0.64-0.64-0.64 0.32-0.64 0.64c0 0.32 0.32 0.64 0.64 0.64z"></path>
<path fill="#363c43" d="M6.933 9.067c-0.32 0-0.64 0.32-0.64 0.64s0.32 0.64 0.64 0.64 0.64-0.32 0.64-0.64c0-0.427-0.32-0.64-0.64-0.64z"></path>
<path fill="#363c43" d="M31.36 18.027h-5.013c1.707-4.053 1.92-8.213 0.427-11.413 1.173-1.28 1.173-3.307-0.107-4.48-1.173-1.173-3.093-1.173-4.267 0-2.347-1.173-5.227-1.387-8.107-0.64-3.093 0.747-6.293 2.667-8.747 5.227s-4.267 5.76-5.12 8.96c-0.747 2.987-0.533 5.973 0.64 8.427-1.173 1.28-1.173 3.2 0.107 4.48 1.173 1.28 3.093 1.28 4.267 0 2.667 1.28 5.653 1.28 8.427 0.533 1.813 1.173 3.947 1.813 6.187 1.813 6.613 0 11.947-5.44 11.947-12.267 0-0.32-0.32-0.64-0.64-0.64zM14.827 25.067l4.693-4.8v6.827c-1.707-0.213-3.413-0.853-4.693-2.027zM13.973 24.107c-1.173-1.387-1.813-2.987-1.92-4.8h6.613l-4.693 4.8zM20.8 20.267l4.693 4.8c-1.28 1.173-2.987 1.813-4.693 2.027v-6.827zM26.24 24.107l-4.693-4.8h6.613c-0.107 1.813-0.747 3.52-1.92 4.8zM5.653 27.307c-0.32-0.107-0.64-0.107-0.747 0.213-0.64 0.96-2.027 1.067-2.88 0.213-0.747-0.747-0.747-1.92 0-2.773 0-0.107 0.107-0.213 0.107-0.213 0.213-0.213 0.32-0.533 0.213-0.853-2.453-4.587-0.747-11.413 4.053-16.213 4.693-4.907 11.413-6.613 15.893-4.16 0.32 0.107 0.64 0.107 0.747-0.213 0.107-0.107 0.107-0.107 0.213-0.213 0.747-0.747 1.92-0.747 2.667 0s0.747 2.027 0 2.773c-0.107 0.107-0.107 0.107-0.213 0.213-0.213 0.213-0.32 0.533-0.213 0.853 1.6 3.093 1.387 7.253-0.533 11.2h-16.107c-0.32 0-0.64 0.32-0.64 0.64 0 3.733 1.6 7.147 4.373 9.493-2.56 0.427-5.013 0.107-6.933-0.96zM20.16 29.653c-2.027 0-4.053-0.64-5.76-1.707-2.88-1.92-4.693-5.12-4.907-8.533h1.28c0.107 2.347 1.067 4.48 2.773 6.187 1.813 1.813 4.16 2.88 6.613 2.88 5.013 0 9.067-4.053 9.387-9.067h1.28c-0.427 5.653-5.013 10.24-10.667 10.24z"></path>
<path fill="#363c43" d="M5.867 11.307c-0.32-0.213-0.64-0.107-0.853 0.213-2.133 3.307-2.88 6.933-2.24 10.027 0.107 0.32 0.32 0.533 0.64 0.533 0.427 0 0.747-0.427 0.64-0.747-0.64-2.667 0.107-5.973 2.027-8.96 0.107-0.533 0-0.96-0.213-1.067z"></path>
</svg>
