<!-- Generated by IcoMoon.io -->
<svg version="1.1" xmlns="http://www.w3.org/2000/svg" width="32" height="32" viewBox="0 0 32 32">
<title>ico30_Sport</title>
<path fill="#e8ebef" d="M31.573 16c0 8.533-6.933 15.573-15.573 15.573s-15.573-7.040-15.573-15.573 7.040-15.573 15.573-15.573 15.573 7.040 15.573 15.573z"></path>
<path fill="#b5c0cb" d="M16 8.853l-6.827 4.907 2.56 8h8.427l2.56-8-6.72-4.907z"></path>
<path fill="#b5c0cb" d="M31.467 15.147l-1.92 2.56-3.733-4.907v-6.187l3.093 0.96c0.64 1.067 1.173 2.133 1.6 3.307l0.213 0.64c0.533 1.173 0.747 2.347 0.747 3.627zM28.053 22.507l-5.867 1.92-3.627 5.013 3.093 1.067c1.173-0.427 2.347-1.067 3.413-1.813l0.107-0.107c1.067-0.747 2.133-1.707 2.987-2.773l-0.107-3.307zM3.947 22.507v3.307c0.853 1.067 1.813 2.027 2.987 2.773l0.107 0.107c1.067 0.747 2.133 1.387 3.413 1.813l3.093-1.067-3.627-5.013-5.973-1.92zM2.453 17.813l3.733-5.013v-6.187l-3.2 0.96c-0.64 1.067-1.173 2.133-1.6 3.307l-0.213 0.64c-0.32 1.173-0.533 2.453-0.64 3.627l1.92 2.667zM10.133 3.627l5.867 2.027 5.867-1.92-1.92-2.667c-1.28-0.32-2.667-0.533-4.053-0.533s-2.773 0.213-4.053 0.533l-1.707 2.56z"></path>
<path fill="#e8ebef" d="M2.347 16c0-8.213 6.4-15.040 14.613-15.467-0.32 0-0.64 0-0.96 0-8.533-0.107-15.573 6.933-15.573 15.467s7.040 15.573 15.573 15.573c0.32 0 0.64 0 0.96 0-8.213-0.533-14.613-7.36-14.613-15.573z"></path>
<path fill="#e8ebef" d="M16.96 9.6l-0.96-0.747-6.827 4.907 2.56 8h1.92l-2.56-8 5.867-4.16z"></path>
<path fill="#e8ebef" d="M2.347 15.147c0.107-1.28 0.32-2.453 0.64-3.627l0.213-0.64c0.427-1.173 0.96-2.347 1.6-3.307l1.28-0.427v-0.533l-3.093 0.96c-0.64 1.067-1.173 2.133-1.6 3.307l-0.213 0.64c-0.32 1.173-0.533 2.453-0.64 3.627l1.92 2.56 0.96-1.28-1.067-1.28z"></path>
<path fill="#e8ebef" d="M30.507 16.533l-2.773-3.733v-5.653l-1.92-0.533v6.187l3.733 5.013 0.96-1.28z"></path>
<path fill="#e8ebef" d="M8.853 28.693l-0.107-0.107c-1.067-0.747-2.133-1.707-2.987-2.773v-2.667l-1.813-0.64v3.307c0.853 1.067 1.813 2.027 2.987 2.773l0.107 0.107c1.067 0.747 2.133 1.387 3.413 1.813l1.067-0.32c-0.96-0.427-1.813-0.96-2.667-1.493z"></path>
<path fill="#e8ebef" d="M11.947 3.627l1.92-2.667c0.96-0.213 2.027-0.427 3.093-0.533-0.32 0-0.64 0-0.96 0-1.387 0-2.773 0.213-4.053 0.533l-1.813 2.667 5.867 2.027 0.96-0.32-5.013-1.707z"></path>
<path fill="#e8ebef" d="M20.373 29.44l3.627-5.013 4.053-1.28v-0.64l-5.867 1.92-3.627 5.013 3.093 1.067c0.32-0.107 0.533-0.213 0.853-0.32l-2.133-0.747z"></path>
<path fill="#363c43" d="M32 15.36v0 0c-0.213-3.947-1.707-7.68-4.693-10.667-2.88-2.88-6.72-4.587-10.88-4.693-8.533-0.213-15.68 6.293-16.427 14.72 0 0.32 0 0.427 0 0.64v0c-0.213 4.587 1.493 8.853 4.693 11.947 2.987 2.987 7.040 4.693 11.307 4.693s8.32-1.707 11.307-4.693c3.2-3.2 4.907-7.467 4.693-11.947zM30.613 12.16c0.213 0.853 0.427 1.813 0.427 2.773l-1.493 1.92-3.2-4.373v-5.44l2.347 0.747c0.853 1.493 1.493 2.88 1.92 4.373zM27.84 6.72l-1.707-0.533c-1.173-1.28-2.56-2.133-3.947-2.88l-1.067-1.493c2.667 1.067 5.013 2.667 6.72 4.907zM19.947 22.187l1.6 2.133-3.307 4.587c-1.493 0.213-2.987 0.213-4.48 0l-3.307-4.587 1.6-2.133h4.907v-0.853h-4.8l-2.347-7.36 6.187-4.48 6.187 4.48-2.347 7.36h-1.707v0.96h1.813v-0.107zM16.427 8.64v-0.747h-0.96v0.747l-6.4 4.693-2.56-0.853v-5.653c1.067-1.067 2.24-1.92 3.627-2.667l5.333 1.813v0.64h0.96v-0.64l5.333-1.813c1.387 0.64 2.56 1.6 3.627 2.667v5.653l-2.56 0.853-6.4-4.693zM12.267 1.387c2.347-0.64 4.907-0.64 7.467 0l1.387 2.027-5.12 1.707-5.12-1.707 1.387-2.027zM10.773 1.813l-1.067 1.493c-1.28 0.64-2.667 1.6-3.84 2.88l-1.707 0.533c1.707-2.24 4.053-3.84 6.613-4.907zM3.307 8l2.347-0.747v5.44l-3.2 4.373-1.493-1.92c0.213-2.56 0.96-5.013 2.347-7.147zM3.52 24.427c-1.493-2.24-2.453-4.907-2.56-7.787l1.067 1.387c0.213 1.6 0.747 3.2 1.493 4.693v1.707zM2.987 17.92l3.413-4.587 2.56 0.853 2.453 7.573-1.6 2.133-5.547-1.813c-0.64-1.28-1.067-2.667-1.28-4.16zM4.373 25.6v-2.453l5.227 1.6 3.2 4.373-2.347 0.853c-2.347-0.96-4.48-2.453-6.080-4.373zM11.84 30.507l1.707-0.533c1.6 0.32 3.307 0.32 4.907 0l1.707 0.533c-2.773 0.747-5.547 0.747-8.32 0zM21.547 29.973l-2.347-0.747 3.2-4.373 5.12-1.6v2.453c-1.493 1.813-3.627 3.307-5.973 4.267zM22.293 23.787l-1.6-2.133 2.453-7.573 2.56-0.853 3.413 4.587c-0.213 1.493-0.64 2.88-1.387 4.267l-5.44 1.707zM28.48 24.427v-1.707c0.747-1.493 1.28-2.987 1.493-4.693l1.067-1.387c-0.107 2.773-1.067 5.44-2.56 7.787z"></path>
</svg>
