<!-- Generated by IcoMoon.io -->
<svg version="1.1" xmlns="http://www.w3.org/2000/svg" width="32" height="32" viewBox="0 0 32 32">
<title>ico30_TableGames</title>
<path fill="#0080ff" d="M21.227 5.12l-0.96-3.52c-0.107-0.533-0.427-0.853-0.853-0.96l-12.48 2.24c-0.64 0.107-1.067 0.747-0.96 1.387l4.053 23.467c0.107 0.64 0.747 1.067 1.387 1.067l9.813-23.68z"></path>
<path fill="#fff" d="M31.36 6.4v23.787c0 0.64-0.533 1.28-1.28 1.28h-17.493c-0.64 0-1.28-0.533-1.28-1.28v-23.787c0-0.64 0.533-1.28 1.28-1.28h17.493c0.747 0 1.28 0.533 1.28 1.28z"></path>
<path fill="#e8ebef" d="M31.36 30.080v-23.68c0-0.64-0.533-1.28-1.28-1.28h-10.773c-0.64 0-1.28 0.533-1.28 1.28v23.787c0 0.64 0.533 1.28 1.28 1.28h10.773c0.747-0.107 1.28-0.64 1.28-1.387z"></path>
<path fill="#e8ebef" d="M27.52 17.493c0 1.813-1.28 3.413-3.093 3.413-0.64 0-1.173-0.213-1.6-0.427-0.107 0.427-0.107 0.747-0.107 1.173 0 1.387 0.533 2.56 1.493 3.52-0.64 0-5.013 0-5.76 0 0.853-0.853 1.493-2.133 1.493-3.52 0-0.427 0-0.853-0.107-1.173-0.427 0.32-0.96 0.427-1.6 0.427-1.813 0-3.093-1.493-3.093-3.413 0-1.493 0.853-2.56 2.24-3.947 1.067-0.96 2.453-2.133 4.053-3.52 0.64 0.533 1.28 1.067 1.92 1.6 2.56 2.347 4.16 3.84 4.16 5.867z"></path>
<path fill="#6c757c" d="M23.253 11.733c-0.107-0.107-0.32-0.213-0.427-0.32-0.96 0.853-1.813 1.6-2.56 2.24-1.387 1.28-2.24 2.453-2.24 3.947 0 1.28 0.64 2.453 1.6 2.987 0 0 0.107-0.107 0.107-0.107 0 0.107 0 0.107 0 0.213 0.427 0.213 0.853 0.32 1.28 0.32 0.64 0 1.173-0.213 1.6-0.427 0 0.107 0.107 0.32 0.107 0.427 0-0.107 0-0.32 0.107-0.427 0.427 0.32 0.96 0.427 1.6 0.427 0.427 0 0.96-0.107 1.28-0.32 0-0.107 0-0.107 0-0.213 0 0 0.107 0.107 0.107 0.107 0.96-0.533 1.6-1.707 1.6-2.987 0.107-2.133-1.493-3.627-4.16-5.867z"></path>
<path fill="#6c757c" d="M22.827 22.4c-0.213 1.067-0.64 2.027-1.387 2.667h2.773c-0.747-0.64-1.28-1.6-1.387-2.667z"></path>
<path fill="#363c43" d="M23.893 28.267c-0.32 0-0.64 0.32-0.64 0.64s0.32 0.64 0.64 0.64 0.64-0.32 0.64-0.64c0-0.427-0.32-0.64-0.64-0.64z"></path>
<path fill="#363c43" d="M18.88 8.213c0.32 0 0.64-0.32 0.64-0.64s-0.32-0.64-0.64-0.64-0.64 0.32-0.64 0.64c0 0.427 0.32 0.64 0.64 0.64z"></path>
<path fill="#363c43" d="M25.707 28.907c0 0.32 0.32 0.64 0.64 0.64h2.453c0.32 0 0.64-0.32 0.64-0.64s-0.32-0.64-0.64-0.64h-2.453c-0.32 0-0.64 0.213-0.64 0.64z"></path>
<path fill="#363c43" d="M13.867 8.213h2.453c0.32 0 0.64-0.32 0.64-0.64s-0.32-0.64-0.64-0.64h-2.453c-0.32 0-0.64 0.32-0.64 0.64 0 0.427 0.32 0.64 0.64 0.64z"></path>
<path fill="#363c43" d="M4.16 28.587c0.213 0.96 1.173 1.707 2.133 1.493l4.48-0.427v0.427c0 1.067 0.853 1.92 1.92 1.92h17.493c1.067 0 1.92-0.853 1.92-1.92v-23.68c0-1.067-0.853-1.92-1.92-1.92h-8.427l-0.747-2.987c-0.213-0.96-1.173-1.707-2.133-1.493l-17.28 3.093c-1.067 0.107-1.707 1.173-1.6 2.133l4.16 23.36zM30.72 6.4v23.787c0 0.32-0.32 0.64-0.64 0.64h-17.493c-0.32 0-0.64-0.32-0.64-0.64 0-0.853 0-21.653 0-23.787 0-0.32 0.32-0.64 0.64-0.64h17.493c0.427 0 0.64 0.32 0.64 0.64zM1.813 4.267l17.28-2.987c0.32-0.107 0.64 0.213 0.747 0.533 0 0 0 0 0 0l0.747 2.667h-7.787c-1.067 0-1.92 0.853-1.92 1.92v22.080l-4.587 0.533c0 0 0 0 0 0-0.533 0-0.853-0.213-0.96-0.64l-4.053-23.36c-0.107-0.32 0.107-0.64 0.533-0.747z"></path>
<path fill="#363c43" d="M16.96 13.12c-1.28 1.173-2.453 2.56-2.453 4.373 0 2.24 1.6 4.053 3.733 4.053 0.427 0 0.747-0.107 1.067-0.213 0 0.107 0 0.213 0 0.32 0 1.173-0.427 2.24-1.28 2.987-0.213 0.213-0.213 0.427-0.107 0.64s0.32 0.427 0.533 0.427c0.64 0 5.12 0 5.76 0v0c0.213 0 0.533-0.107 0.533-0.427 0.107-0.213 0-0.533-0.107-0.64-0.853-0.853-1.28-1.92-1.28-2.987 0-0.107 0-0.213 0-0.32 0.32 0.107 0.747 0.213 1.067 0.213 2.133 0 3.733-1.813 3.733-4.053 0-2.987-3.093-4.907-6.4-7.893-0.213-0.213-0.533-0.213-0.853 0-1.493 1.387-2.88 2.56-3.947 3.52zM21.333 10.987c3.413 2.987 5.547 4.48 5.547 6.613 0 1.6-1.067 2.773-2.453 2.773-0.427 0-0.853-0.107-1.173-0.32-0.213-0.107-0.427-0.107-0.533-0.107-0.213 0.107-0.32 0.213-0.427 0.427-0.107 0.427-0.213 0.853-0.213 1.387 0 1.067 0.32 2.027 0.747 2.88-0.96 0-2.133 0-3.093 0 0.533-0.853 0.747-1.813 0.747-2.88 0-0.427-0.107-0.96-0.213-1.387 0-0.213-0.213-0.32-0.427-0.427s-0.427 0-0.533 0.107-0.747 0.32-1.173 0.32c-1.387 0-2.453-1.173-2.453-2.773 0.107-2.133 2.24-3.733 5.653-6.613z"></path>
</svg>
