<!-- Generated by IcoMoon.io -->
<svg version="1.1" xmlns="http://www.w3.org/2000/svg" width="32" height="32" viewBox="0 0 32 32">
<title>ico30_VirtualSport</title>
<path fill="#3c3" d="M26.667 30.080c0-0.747 0-27.413 0-28.267 0-0.64-0.533-1.28-1.173-1.28-0.533 0-8.107 0-13.653 0-0.64 0-1.173 0.533-1.173 1.28v28.267c0 0.64 0.533 1.28 1.173 1.28h13.653c0.64 0 1.173-0.533 1.173-1.28z"></path>
<path fill="#363c43" d="M22.933 22.4c0.853 0 1.6 0.747 1.6 1.6s-0.747 1.6-1.6 1.6-1.6-0.747-1.6-1.6 0.747-1.6 1.6-1.6z"></path>
<path fill="#fff" d="M22.187 6.827c1.387 0 2.453 1.067 2.453 2.453s-1.067 2.453-2.453 2.453c-1.387 0-2.453-1.067-2.453-2.453s1.067-2.453 2.453-2.453z"></path>
<path fill="#fc0" d="M23.253 7.147c-0.853 0.32-1.493 1.28-1.493 2.24s0.533 1.813 1.387 2.24c0.853-0.427 1.387-1.28 1.387-2.24s-0.533-1.92-1.28-2.24z"></path>
<path fill="#f66" d="M10.88 20.373c-0.853 0.427-1.493 1.28-1.493 2.24s0.64 1.92 1.493 2.24c0.853-0.427 1.493-1.28 1.493-2.24s-0.64-1.92-1.493-2.24z"></path>
<path fill="#363c43" d="M16 16.64c0.32 0 0.64-0.32 0.64-0.64s-0.32-0.64-0.64-0.64-0.64 0.32-0.64 0.64 0.32 0.64 0.64 0.64z"></path>
<path fill="#363c43" d="M25.92 32c1.067 0 1.813-0.853 1.813-1.92v-28.16c0-1.067-0.853-1.92-1.813-1.92h-19.84c-0.96 0-1.813 0.853-1.813 1.92v28.267c0 1.067 0.853 1.92 1.813 1.92h19.84zM11.733 30.72c0.32-2.133 2.133-3.733 4.267-3.733s3.947 1.6 4.267 3.733h-8.533zM20.267 1.28c-0.32 2.133-2.133 3.733-4.267 3.733s-3.947-1.6-4.267-3.733h8.533zM5.547 30.080v-13.44h8c0.32 0 0.64-0.32 0.64-0.64s-0.32-0.64-0.64-0.64h-8v-13.44c0-0.32 0.32-0.64 0.64-0.64h4.373c0.32 2.773 2.667 5.013 5.547 5.013s5.227-2.24 5.547-5.013h4.373c0.32 0 0.64 0.32 0.64 0.64v13.547h-8c-0.32 0-0.64 0.32-0.64 0.64s0.32 0.64 0.64 0.64h8v13.547c0 0.32-0.32 0.64-0.64 0.64h-4.373c-0.32-2.773-2.667-5.013-5.547-5.013s-5.227 2.24-5.547 5.013h-4.48c-0.32-0.213-0.533-0.427-0.533-0.853z"></path>
<path fill="#363c43" d="M9.813 25.707c1.707 0 3.093-1.387 3.093-3.093s-1.387-3.093-3.093-3.093-3.093 1.387-3.093 3.093 1.387 3.093 3.093 3.093zM9.813 20.8c1.067 0 1.813 0.853 1.813 1.92s-0.747 1.813-1.813 1.813-1.813-0.853-1.813-1.92 0.853-1.813 1.813-1.813z"></path>
<path fill="#363c43" d="M22.187 12.48c1.707 0 3.093-1.387 3.093-3.093s-1.387-3.093-3.093-3.093c-1.707 0-3.093 1.387-3.093 3.093s1.387 3.093 3.093 3.093zM22.187 7.467c1.067 0 1.813 0.853 1.813 1.92s-0.853 1.92-1.813 1.92c-1.067 0-1.813-0.853-1.813-1.92s0.747-1.92 1.813-1.92z"></path>
</svg>
