<!-- Generated by IcoMoon.io -->
<svg version="1.1" xmlns="http://www.w3.org/2000/svg" width="32" height="32" viewBox="0 0 32 32">
<title>ico30_PopularGames</title>
<path fill="#f66" d="M12.373 11.413c0 0 6.4 2.453 5.12 8.107 0 0 2.027-0.64 3.093-2.453 2.453 3.733 3.52 11.093-3.947 14.080-0.213 0.107-0.427 0.213-0.64 0.213 6.72-0.213 13.547-4.8 13.227-13.013-0.853 1.387-4.587 1.387-4.587 1.387 3.413-7.36-1.6-10.987-1.6-10.987 0.533 4.693-11.2 5.333-5.44-8.107-12.373 2.347-10.453 18.24-10.453 18.24-1.387-0.213-4.16-3.093-4.16-3.093-1.6 10.88 5.653 15.787 12.8 15.573 0 0 0 0 0 0-5.653 0-9.813-5.867-6.933-11.307 1.387-2.453 4.16-6.187 3.52-8.64z"></path>
<path fill="#e8ebef" d="M17.493 19.52c1.28-5.653-5.12-8.107-5.12-8.107 0.64 2.453-2.133 6.187-3.413 8.64-2.88 5.44 1.173 11.307 6.933 11.307-4.48-0.213-8.747-8.32-1.28-12.48-1.92 4.48 2.24 6.933 4.693 4.053 2.773 2.773 0.32 6.72-2.667 8.213 7.573-2.88 6.4-10.347 3.947-14.080-1.067 1.813-3.093 2.453-3.093 2.453z"></path>
<path fill="#fc0" d="M19.2 22.933c-2.453 2.88-6.613 0.427-4.693-4.053-7.467 4.16-3.2 12.267 1.28 12.48v0c0.213-0.107 0.533-0.213 0.747-0.32 2.987-1.387 5.547-5.333 2.667-8.107z"></path>
<path fill="#363c43" d="M29.867 18.24c0-0.32-0.213-0.533-0.533-0.533-0.32-0.107-0.533 0.107-0.747 0.32-0.32 0.64-1.813 0.96-3.093 1.067 1.387-3.52 0.853-6.187 0.107-7.787-0.747-2.027-2.133-2.987-2.133-3.093-0.213-0.107-0.427-0.213-0.64 0-0.32 0.107-0.427 0.32-0.427 0.64 0.107 1.173-0.747 1.813-1.173 2.027-0.96 0.427-2.347 0.533-3.413-0.427-1.707-1.6-1.493-5.013 0.427-9.493 0.107-0.213 0.107-0.427-0.107-0.64-0.107-0.213-0.32-0.32-0.533-0.32-1.493 0.32-3.093 0.853-4.16 1.493-0.32 0.213-0.427 0.533-0.213 0.853s0.533 0.427 0.853 0.213c0.64-0.427 1.6-0.747 2.56-1.067-2.347 6.080-0.747 8.747 0.32 9.813 1.493 1.387 3.52 1.28 4.8 0.64 0.853-0.427 1.493-1.067 1.707-1.813 0.32 0.427 0.747 0.96 0.96 1.6 0.96 2.24 0.853 4.8-0.533 7.68-0.107 0.213-0.107 0.427 0 0.64s0.32 0.32 0.533 0.32c0 0 0.96 0 2.133-0.213 0.747-0.107 1.387-0.32 1.813-0.533-0.32 5.44-3.84 8.213-6.080 9.387-0.96 0.533-1.92 0.853-2.88 1.173 0.213-0.213 0.427-0.32 0.64-0.533 0.96-0.96 1.707-2.027 2.24-3.2 0.107-0.32 0-0.64-0.32-0.853-0.32-0.107-0.64 0-0.853 0.32-0.107 0.213-0.213 0.533-0.32 0.747 0.32-1.6-0.107-3.093-1.28-4.267-0.107-0.107-0.32-0.213-0.427-0.213-0.213 0-0.32 0.107-0.427 0.213-0.853 1.067-2.027 1.28-2.987 0.747-0.853-0.533-1.6-1.92-0.64-4.16 0.107-0.213 0-0.533-0.213-0.747s-0.533-0.213-0.747-0.107c-1.92 1.067-3.2 2.347-3.84 3.947-0.64 1.387-0.747 2.88-0.32 4.48 0.213 0.747 0.533 1.493 0.96 2.24-0.533-0.533-1.067-1.067-1.493-1.707-1.28-2.133-1.28-4.693-0.107-6.933 0.32-0.533 0.64-1.067 0.96-1.707 1.173-2.027 2.56-4.267 2.667-6.187 0.533 0.32 1.28 0.747 1.92 1.387 1.707 1.6 2.347 3.413 1.92 5.547 0 0.213 0 0.427 0.213 0.64 0.213 0.107 0.427 0.213 0.64 0.107 0.107 0 1.6-0.533 2.773-1.92 0.533 1.067 0.96 2.347 1.173 3.52 0 0.32 0.32 0.533 0.747 0.533 0.32 0 0.533-0.32 0.533-0.747-0.213-1.707-0.853-3.413-1.813-4.907-0.107-0.213-0.32-0.32-0.533-0.32s-0.427 0.107-0.533 0.32c-0.427 0.853-1.173 1.387-1.707 1.707 0.107-2.133-0.747-4.053-2.453-5.547-1.493-1.387-3.2-2.027-3.307-2.027-0.213-0.107-0.427 0-0.64 0.107-0.107 0.427-0.107 0.64-0.107 0.853 0.427 1.707-1.173 4.373-2.453 6.507-0.32 0.64-0.747 1.173-0.96 1.707-1.387 2.667-1.387 5.653 0.213 8.107 0.32 0.64 0.853 1.173 1.28 1.707-0.533-0.213-1.173-0.533-1.6-0.96-3.52-2.347-5.12-6.4-4.693-11.52 0.96 0.96 2.453 2.24 3.52 2.347 0.213 0 0.427 0 0.533-0.213 0.107-0.107 0.213-0.32 0.213-0.533 0-0.107-0.96-8.213 3.093-13.44 0.213-0.32 0.213-0.64-0.107-0.853-0.32-0.107-0.747-0.107-0.96 0.213-2.24 2.88-3.093 6.72-3.307 9.28-0.213 1.707-0.107 3.093-0.107 4.053-0.96-0.64-2.24-1.813-2.987-2.56-0.213-0.213-0.427-0.213-0.64-0.213-0.213 0.107-0.427 0.32-0.427 0.533-0.853 6.187 0.96 11.093 5.12 13.973 2.133 1.493 4.8 2.347 7.68 2.347 0.107 0 0.213 0 0.32 0s0.213 0 0.32 0c0 0 0.107 0 0.107 0s0.107 0 0.107 0c2.453-0.107 4.907-0.747 7.040-1.92s3.84-2.773 4.907-4.587c1.387-2.133 2.027-4.587 1.92-7.253zM13.44 20.267c-0.107 0.64-0.107 1.173 0.107 1.707 0.213 0.96 0.747 1.707 1.6 2.24 0.747 0.427 1.493 0.533 2.347 0.427 0.64-0.107 1.28-0.427 1.813-0.853 0.533 0.747 0.747 1.707 0.533 2.667-0.32 1.6-1.707 3.2-3.413 4.053-0.213 0.107-0.427 0.107-0.533 0.213 0 0 0 0 0 0-1.92-0.107-3.84-2.027-4.48-4.373-0.427-1.067-0.747-3.733 2.027-6.080z"></path>
<path fill="#363c43" d="M21.76 23.467v0c0 0.32 0.213 0.64 0.64 0.64 0 0 0 0 0 0 0.32 0 0.64-0.213 0.64-0.64v0c0-0.32-0.213-0.64-0.64-0.64-0.32 0-0.533 0.32-0.64 0.64z"></path>
<path fill="#363c43" d="M12.267 3.52c0 0.32-0.32 0.64-0.64 0.64s-0.64-0.32-0.64-0.64 0.32-0.64 0.64-0.64c0.32 0.107 0.64 0.32 0.64 0.64z"></path>
</svg>
