<!-- Generated by IcoMoon.io -->
<svg version="1.1" xmlns="http://www.w3.org/2000/svg" width="48" height="32" viewBox="0 0 48 32">
<title>FlagEngland_sq</title>
<path fill="#06c" d="M0 0h48v32h-48v-32z"></path>
<path fill="#eee" d="M48 0h-4.53l-15.332 10.221v-10.221h-8.276v10.221l-15.332-10.221h-4.53v3.020l13.154 8.769h-13.154v8.421h13.154l-13.154 8.769v3.020h4.53l15.332-10.221v10.221h8.276v-10.221l15.332 10.221h4.53v-3.020l-13.154-8.769h13.154v-8.421h-13.154l13.154-8.769v-3.020z"></path>
<path fill="#c00" d="M48 13.474h-21.517v-13.474h-4.965v13.474h-21.517v5.052h21.517v13.474h4.965v-13.474h21.517z"></path>
<path fill="#c00" d="M16.776 20.211l-16.776 11.080v0.71h1.967l17.849-11.789h-3.040z"></path>
<path fill="#c00" d="M32.474 20.211h-3.040l17.849 11.789h0.717v-1.535l-15.526-10.255z"></path>
<path fill="#c00" d="M0 1.772l15.167 10.018h3.040l-17.847-11.789h-0.36v1.772z"></path>
<path fill="#c00" d="M31.178 11.789l16.822-11.109v-0.68h-2.013l-17.849 11.789h3.040z"></path>
</svg>
