<?xml version="1.0" encoding="utf-8"?>
<!-- Generator: Adobe Illustrator 21.0.0, SVG Export Plug-In . SVG Version: 6.00 Build 0)  -->
<svg version="1.1" id="Слой_1" xmlns="http://www.w3.org/2000/svg" xmlns:xlink="http://www.w3.org/1999/xlink" x="0px" y="0px"
	 width="16px" height="20px" viewBox="0 0 16 20" style="enable-background:new 0 0 16 20;" xml:space="preserve">
<style type="text/css">
	.st0{fill-rule:evenodd;clip-rule:evenodd;fill:#12100C;}
	.st1{fill-rule:evenodd;clip-rule:evenodd;fill:#231F1D;}
	.st2{fill-rule:evenodd;clip-rule:evenodd;fill:#2D2926;}
</style>
<g id="ornament_x5F_line01">
	<rect class="st0" width="16" height="20"/>
	<path class="st1" d="M15,17h1v2H0v-1h13V7H7v4H5V5h10V17z M0,2v1h1v12h10V9H9v4H3V3h13V2H0z"/>
	<path class="st2" d="M0,1h16v1H0V1z M14,8h-1v9H0v1h14V8z M2,4H1v11h1V4z M10,10h1V9H9v4H4v1h6V10z M6,6h9V5H5v6h1V6z"/>
</g>
</svg>
