<?xml version="1.0" encoding="utf-8"?>
<!-- Generator: Adobe Illustrator 21.0.0, SVG Export Plug-In . SVG Version: 6.00 Build 0)  -->
<svg version="1.1" id="Слой_1" xmlns="http://www.w3.org/2000/svg" xmlns:xlink="http://www.w3.org/1999/xlink" x="0px" y="0px"
	 width="120px" height="120px" viewBox="0 0 120 120" style="enable-background:new 0 0 120 120;" xml:space="preserve">
<style type="text/css">
	.st0{fill:#323334;}
	.st1{fill:#FFFFFF;}
	.st2{fill:#565656;}
</style>
<g id="Sport">
	<ellipse transform="matrix(1 -1.761813e-03 1.761813e-03 1 -0.1056 0.1058)" class="st0" cx="60" cy="60" rx="50" ry="50"/>
	<path class="st1" d="M19,55.7c0,0-2.8,5.6-4.1,13c-0.7,3.7-0.5,5.2,2.4,9.3c5.5,7.9,7.6,10,9.5,9.7s10.8-2.2,13.4-2.9
		c2-0.5,2-1,2.7-4.4c0.8-3.4,2-8.2,2.3-10.8c0.3-2.6-0.1-2.5-2.4-5.4C40.5,61.3,35.1,54,34,52.7s-1.7-1-4.3-0.5
		c-2.6,0.4-6.5,1.4-8.4,1.9C19.4,54.6,19.4,55.1,19,55.7z M22.8,29c0,0-2.4,3.2-4.6,7c-1.2,2.2-0.8,5.4-0.1,11.5
		c0.7,6.1,1.3,6.1,3.7,5.6c2.3-0.5,8.7-1.9,10.4-2.2c1.7-0.4,3-3.3,4.6-5.9c1.6-2.6,7.9-10.7,9.1-12c1.2-1.1,0.8-2.1,0.5-5
		c-0.4-2.9-1.2-8.8-2-9s-6.8-0.2-9.1-0.3C33.1,18.6,27.4,23.2,22.8,29z M45.9,69.9c0,0-2.4,9.6-3.2,13.2c-0.4,2.2-0.5,2.6,4,5.6
		s6.7,4.7,8.1,5.5s2.7,0.8,6.8-0.2s8.2-1.8,9.9-2.6c1.7-0.7,4.3-6.5,5.5-10.4s2.1-7,0.5-8.3c-1.7-1.4-3.7-3.4-6.4-5.3
		c-2.7-1.8-5-4.2-6-3.8c-1,0.5-11.7,3.2-15.8,4.3C47.3,68.6,46,69.1,45.9,69.9z M54.3,107.7c0,0,1.9-8.2,2.3-10.1
		c0.3-2,1-2.1,3.8-2.5c2.8-0.5,10.3-2.7,11.7-3.2c1.3-0.5,2.1-0.7,4.4,1s7.4,5.5,9.1,6.7c1.3,0.9-4.6,5.1-12.1,7.1
		C64.6,109.1,54.2,109.1,54.3,107.7z M47.5,30.9c0,0-1-5.9-1.4-9.1s0-2.9,4.2-4.7s13.3-4.1,15.5-4.3C68,12.6,70.5,13.3,76,16
		c5.5,2.8,6.9,3.7,7.2,5.3c0.3,1.6,2,9,2.1,12.5c-0.1,2.4-0.9,2.1-4.9,3.8c-4.1,1.7-8.1,3.4-9.1,3.9c-1.3,0.6-3.5-0.8-7.2-3.1
		c-3.2-2.1-9.9-5-12.7-5.8C48.5,31.8,47.8,32.3,47.5,30.9z M70.4,44.2c0,0-2,9.2-3,13.9c-1,4.5-0.7,5.2,2.1,7.3
		c2.7,2.1,5.8,5,7.5,6.3s2.7,2.7,8,1.3c6.6-1.9,8.3-2.4,10.4-3.1c2-0.7,2.4-1.5,3.2-5.2c0.8-3.7,1.3-9.3,1.7-12.4
		c0.4-3-0.2-3.5-2.6-6c-2.4-2.4-7-6.4-8.8-8.1c-1.8-1.8-3-2-5.1-1.2s-8,3-10.1,4.1C71.5,42.3,70.7,42.4,70.4,44.2z M105.8,47.7
		c0,0-3.2,1.1-4.1,1.5c-1,0.5-0.8,3.6-1.2,6.8c-0.4,3.2-1.5,9.3-2.3,12.1c-0.4,1.3,1.4,2.4,2.9,4.8c2.3,3.8,3.6,5.9,4.1,5.2
		c0.5-0.7,3.9-8.1,3.7-20.3C108.4,52.2,107.4,46.7,105.8,47.7z M13.4,74.8c0,0,0.5-1.3,0.9-0.6c0.4,0.7,5.1,8.3,8.8,12.4
		c1.3,1.3,1.7,1.6,1.9,4c0.2,2.4-0.1,3-1.5,1.6C22.1,90.8,15.3,82.3,13.4,74.8z M70,11.9c0,0-0.7-0.2-1,0.1s1.3,0.8,4.2,2
		c2.8,1.2,7.2,3.4,9.1,4.7c1.3,0.8,1.8,0.9,2.9,0.5c1.1-0.5,1.4-0.6,0.2-1.3C84.1,17,76,12.7,70,11.9z"/>
	<ellipse transform="matrix(0.7632 -0.6461 0.6461 0.7632 -13.8285 40.7071)" class="st2" cx="48.6" cy="39.2" rx="4.9" ry="3.8"/>
	<ellipse transform="matrix(0.7632 -0.6461 0.6461 0.7632 -20.0063 37.9867)" class="st2" cx="41.8" cy="46.3" rx="2.2" ry="1.7"/>
</g>
</svg>
