<?xml version="1.0" encoding="utf-8"?>
<!-- Generator: Adobe Illustrator 21.0.0, SVG Export Plug-In . SVG Version: 6.00 Build 0)  -->
<svg version="1.1" id="Слой_1" xmlns="http://www.w3.org/2000/svg" xmlns:xlink="http://www.w3.org/1999/xlink" x="0px" y="0px"
	 width="120px" height="120px" viewBox="0 0 120 120" style="enable-background:new 0 0 120 120;" xml:space="preserve">
<style type="text/css">
	.st0{fill:#2C1475;}
	.st1{fill:#432392;}
	.st2{fill:#FF7606;}
	.st3{fill:#FFC801;}
	.st4{fill:#FFB001;}
	.st5{fill:#FF8603;}
	.st6{fill:#FF4808;}
	.st7{fill:#FFE603;}
</style>
<g id="Bonus">
	<path class="st0" d="M45.7,33.6c0,0-29.7-1.3-38.6-16.1c0,8.1,3.6,13.4,3.6,13.4S6.2,33.6,0,29.6C3.1,44.4,35.1,43,45.7,33.6z"/>
	<path class="st0" d="M74.3,32.1c0,0,29.7-1.3,38.6-16.1c0,8.1-3.6,13.4-3.6,13.4s4.4,2.7,10.7-1.3C116.9,42.9,85.8,44.4,74.3,32.1z
		"/>
	<path d="M59.2,32.6c0,0-12.4-14.3-27.1-14.8c-4.9-3.6,1.3-11.7,1.3-11.7S54.7,3.9,59.2,32.6z"/>
	<path class="st1" d="M36.5,6.1c0,0-19.5,13.4,22.6,26.5C57,36.1,34.3,38.8,25,26.7C17.3,16.7,24.1,4.8,36.5,6.1z"/>
	<path d="M58.1,32.6c0,0,12.4-14.3,27.1-14.8c4.9-3.6-1.3-11.7-1.3-11.7S62.6,3.9,58.1,32.6z"/>
	<path class="st1" d="M80.8,6.1c0,0,19.5,13.4-22.6,26.5c2.2,3.6,24.9,6.3,34.2-5.8C100,16.7,93.2,4.8,80.8,6.1z"/>
	<polygon class="st2" points="22.5,108.6 64.5,97.3 97.1,106.2 68.5,114 	"/>
	<polygon class="st3" points="22.5,108.6 11.2,57.8 59.8,39.3 64.5,97.3 	"/>
	<polygon class="st4" points="108.9,60.2 59.8,39.3 64.5,97.3 97.1,106.2 	"/>
	<polygon class="st4" points="1.8,49.4 5.9,60.8 59.8,39.3 58.6,26.1 	"/>
	<polygon class="st5" points="59.8,39.3 11.4,58.6 13.2,66.7 	"/>
	<polygon class="st6" points="108.9,60.2 59.8,39.3 106.9,68.1 	"/>
	<polygon class="st5" points="117.2,50.4 58.6,26.1 59.8,39.3 113,62 	"/>
	<polygon class="st1" points="36.5,35.1 24.6,39.7 38.8,104.3 48.9,101.6 	"/>
	<polygon class="st0" points="103.1,44.6 89.1,38.7 76.1,100.7 84.9,102.9 	"/>
	<polygon class="st6" points="65.1,100.3 68.1,112.6 92.1,106.2 	"/>
	<polygon points="76.1,100.7 46.2,111.3 51.5,112.1 84.9,102.9 	"/>
	<path d="M48.9,101.6c-1.1,0.1-10.2,2.6-10.2,2.6l38.2,7.5l7.1-1.9L48.9,101.6z"/>
	<polygon class="st7" points="56.8,45.9 61.8,95.5 53.6,98.5 	"/>
</g>
</svg>
