<?xml version="1.0" encoding="utf-8"?>
<!-- Generator: Adobe Illustrator 21.0.0, SVG Export Plug-In . SVG Version: 6.00 Build 0)  -->
<svg version="1.1" id="Слой_1" xmlns="http://www.w3.org/2000/svg" xmlns:xlink="http://www.w3.org/1999/xlink" x="0px" y="0px"
	 width="120px" height="120px" viewBox="0 0 120 120" style="enable-background:new 0 0 120 120;" xml:space="preserve">
<style type="text/css">
	.st0{fill:#FFD9AD;}
	.st1{fill:#8A6C4C;}
	.st2{fill:#3F768A;}
	.st3{opacity:0.5;fill:#1D1D1B;}
	.st4{fill:#3D3029;}
	.st5{fill:#C69C6D;}
	.st6{opacity:0.5;fill:#C69C6D;}
	.st7{fill:#F2F2F2;}
	.st8{fill:#FBB03B;}
	.st9{fill:#B23841;}
	.st10{opacity:0.3;fill:#8A6C4C;}
	.st11{fill:#544239;}
	.st12{opacity:0.3;fill:#B23841;}
	.st13{fill:#FFA161;}
	.st14{opacity:0.5;fill:#FFA161;}
	.st15{opacity:0.5;fill:#8A6C4C;}
	.st16{fill:#6E564A;}
	.st17{opacity:0.2;fill:#8A6C4C;}
	.st18{fill:#333333;}
	.st19{fill:#4D4D4D;}
	.st20{fill:#808080;}
	.st21{fill:#999999;}
	.st22{fill:#CCCCCC;}
	.st23{fill:#B3B3B3;}
	.st24{fill:#666666;}
	.st25{fill:#FF8754;}
</style>
<g id="Virtual">
	<path class="st0" d="M77,19.8c3.2,0.4,4,5.6,5.1,10.1c0.5,3.1,0.2,5.9-1.3,9.2l-3.1-1.3c-0.2-2.5,0.1-5.1,0.6-6.9l-1.6-5.7
		C77.4,25,76.6,20.5,77,19.8z"/>
	<path class="st1" d="M58.6,84.4c0,0.2,0,0.4,0,0.6L53,86.4c0-0.2,0-0.3,0-0.5l-1-0.6c0,0.2-0.1,0.5-0.1,0.7c0,0.3,0,0.5,0.1,0.8
		c0.1,0.2,0.2,0.4,0.4,0.5c0.1,0.1,0.2,0.1,0.3,0.1c0.1,0,0.3,0,0.4,0l6.1-1.5c0.2,0,0.3-0.2,0.4-0.3c0.1-0.3,0.1-0.5,0.1-0.8
		c0-0.4-0.1-0.7-0.2-1L58.6,84.4z"/>
	<g>
		<path d="M93.7,67.6c-1.1,0.3-1,0.9-4.1,0c-3.1-1.6-3.2-2.2-5.6-3.2c-0.2-0.1-0.4,1.4-2.6,0.5c-1.3-0.2-1.4-3.5,0.1-5.3
			c0.2-0.7,0.7-0.8,0.8-1.4c0.5,0.4,1,0.6,1.6,0.7c0.8,0.1,1.5-1.5,2.5-1.8c0,0.2,1,1.2,1,1.4c0.9,3.1,1.6,4,4.4,5.4
			c1.1,0.6,2.4,1.5,2.5,2.2C94.6,66.8,94.4,67.2,93.7,67.6z"/>
		<path class="st2" d="M72.2,36.4c-0.3-0.1-0.6-0.1-0.9-0.2c-0.1,0.1-0.2,0.2-0.3,0.3c-0.5,0.5-1,0.9-1.7,1.2
			c-0.1,0-0.2,0.1-0.3,0.1c-0.3,0.1-0.6,0.2-0.8,0.3c-0.1,0-0.2,0.1-0.3,0.1L66.2,44c7.1,3.2,10.4,4.5,16.2,4.9
			c-3.4,7.4-1.5,6.2-2,11.8c0.6,0.5,1.2,0.8,1.8,0.9c2.1,0.6,4.3-0.2,4.9-0.5c2.7-1.5,2.1-9.6,2.6-13.5
			C89.9,44.3,82.2,38.2,72.2,36.4z"/>
		<path class="st3" d="M83.9,58.9l-0.1,0.2l-1.1,1.7c-0.2,0.3-0.3,0.5-0.4,0.8c-0.6-0.2-1.3-0.5-1.8-0.9c0.5-5.5-1.4-4.4,2-11.8
			c-5.8-0.4-9.2-1.8-16.4-5c2-1.5,4.1-6.4,4.2-6.3c0.1,0.1,6.2,8,14,9.6C83.1,51.1,83,55,83.9,58.9z"/>
	</g>
	<g>
		<path class="st4" d="M13.7,27.1c0.4,0.1,0.7,0.2,1.1,0.3c-2.6-1.3-5.1-2.8-7.4-4.6c1.3,0.1,2.6,0.2,4,0.3
			c-2.1-1.1-4.1-2.3-6.2-3.4c3.4-0.4,7,0.3,10,2c-0.5-0.7-1.1-1.3-1.6-2c4.8,1.2,9.3,3.6,12.9,7.1c-0.3-1.4-0.9-2.7-1.9-3.7
			c1.6,1,3.1,2.2,4.5,3.6c-0.1-0.6-0.1-1.3-0.2-1.9c0,0,3.5,2.8,3.9,3.3c1.2,1.6,1.9,3.5,3.2,5.1c1.5,1.8,7.5,5.4,2.6,5.4
			c-1.7,0-3.7-1-5.4-1.3c-2.5-0.4-5-0.2-7.5-1C20.7,34.5,16.8,30.9,13.7,27.1z"/>
		<path class="st4" d="M20.6,66.2l-2.4,0.7c-2.7,0-3.7-5.8-0.7-7.8l1.7,0.6L20.6,66.2z"/>
		<path class="st1" d="M42.7,39c-2.2,3.2-4.8,5.5-7.6,7l-3.1,0.5c-1.2,0.2-2.3,0.9-2.9,1.9l-7.2,11.2l-2.5,0
			c-1.7,1.2-1.1,6.3,1.3,6.6l3.4-1.7l7.6-11c0.2-0.3,0.4-0.4,0.8-0.5c3.3-0.5,6.8,0.1,10.2,0.9V39z"/>
		<path class="st4" d="M87.4,102.4l-3.7,1.2c-2.7,0-3.7-5.8-0.7-7.8l2.1,0L87.4,102.4z"/>
		<path class="st1" d="M81.4,64l1.2,6.8c1,5,7.4,7.7,12.6,15.8c0.4,0.4,0.4,1.1-0.1,1.5c-2.1,2.1-7.1,7.6-7.6,7.6
			c-0.5,0-2.5,0.1-2.5,0.1c-2.6,1.5-0.8,8.4,3.1,6.4l12.7-10.8c1.5-1.3,1.8-3.5,0.7-5.2L94,74.8L93.9,65L81.4,64z"/>
		<path class="st4" d="M74.7,107.8L71,109c-2.7,0-3.7-5.8-0.7-7.8l2.1,0L74.7,107.8z"/>
		<path class="st4" d="M4.9,71.4l-2.4,0.7c-2.7,0-3.7-5.8-0.7-7.8l1.7,0.6L4.9,71.4z"/>
		<path class="st5" d="M109.2,33.7c-1,1.1-1.8,2.4-3,3.4c-1.7,1.4,2.6,3.1,3.7,2.3C111.9,38.1,112.8,29.9,109.2,33.7z"/>
		<path class="st5" d="M31.1,51.9l4.8,5.8l9,0.5l1.7,3.1l1.7,3.2c1.4,2.7,3.2,5.1,5.4,7.1c1.2,1.1,2.5,2.2,4,3.1l0.1,0l4.5,2.8
			c2.5,1.6,5.2,2.7,8.1,3.4l11.8,2.8l3.3-1.7c4.1-2.1,7.1-6,8.2-10.5l0.1-0.5l3.8-6.4l3.5-5.8l2-3.3l-0.1-0.3l-4.3-16.8
			c-6.3,1.5-8.9,3.3-13.2,6.4c-2.4,1.7-5.2,2.5-8,2.5c-1.1,0-2.2-0.1-3.3-0.4c-5.4-1.3-9.9-3.5-13.9-7.5c-0.8-0.8-1.7-1.7-2.5-2.7
			c0,0-1.9-4.2-11-5.1c-4.4-0.4-7.8,0.6-10.4,2.6c-2.6,2-4.2,5.1-5,8.5C30.6,45.7,30.6,48.8,31.1,51.9z"/>
		<path class="st6" d="M35.2,52.8l9,0.5l3.3,6.4c2.2,4.2,5.4,7.7,9.4,10.2l4.6,2.9c2.5,1.6,5.2,2.7,8.1,3.4l11.8,2.8l1.7-2.8
			c1.1,2.6,5.2,1.4,6.3-3.2l3.6-6.7c2.8-3.8,3.1-9.9,2.5-16.7l7.4,6.1l-9.2,15.5l-0.1,0.5c-1.1,4.5-4.1,8.3-8.2,10.5l-3.3,1.7
			l-11.8-2.8c-2.9-0.7-5.6-1.8-8.1-3.4l-4.6-2.9c-4-2.5-7.2-6-9.4-10.2L45,58.2l-9-0.5l-4.8-5.8c-0.2-1.5-0.4-3-0.3-4.5L35.2,52.8z"
			/>
		<path class="st4" d="M106.8,40.9c0.2-0.3,0.4-0.6,0.7-0.8L106.8,40.9z"/>
		<path class="st4" d="M94.7,45c-0.2-0.6-0.4-1.2-0.6-1.7c-0.5,1.7-0.9,3.4-1.1,5.2c-0.3-1.2-0.5-2.4-0.5-3.6
			c-0.9,2.2-1.5,4.5-1.9,6.8c-0.2-1.5-0.4-3-0.6-4.5c-0.5,2.1-1,4.2-1.5,6.4c-0.5-1.1-1-2.3-1.6-3.4c-0.8,2.5-1.3,5.2-1.7,7.8
			c-0.4-1.5-0.8-2.9-1.2-4.4c-0.6,1.8-1.1,3.6-1.4,5.5c-0.2-1.3-0.6-2.6-1.2-3.9c-0.7,1.6-1.2,3.3-1.5,4.9c-0.3-1.2-0.7-2.5-1-3.7
			c-0.4,1.4-0.7,2.8-1.1,4.1c-0.4-2.4-0.6-4.8-0.6-7.3c0-2,0.2-4.1,1.5-5.5c0.8-0.8,1.9-1.2,3-1.7c4-1.8,7.5-4.5,11.5-6.2
			c1-0.4,4.7-2.1,4.5-0.5c-0.1,0.8-1.4,1.9-1.8,2.6C95.5,42.8,95,43.9,94.7,45z"/>
		<path class="st5" d="M95.5,44.2c0,2.1,0.1,3.9,0.2,5.4c0.7,6.2,2.6,8.3,5.4,9.3c1.3,0.5,2.9,0.7,4.6,1l3.9,3.5l0.6,3
			c0.1,0.6,0.5,1.2,1.1,1.5l1.5,0.9c0.3,0.2,0.7,0.3,1.1,0.3h1.8c0.7,0,1.3-0.3,1.8-0.9l0.2-0.3l1.2-1.5c0.5-0.9,0.7-1.7,0.8-2.6
			c0.3-0.6,0.4-1.3,0.3-2c0-0.5-0.4-1.6-1.1-1.5l-1.1-2.2l-4-8.3c-0.4-1.9-0.6-3.6-0.8-5c-0.7-4-1.9-6.4-7.9-8.5l-6.5,2.2L95.5,44.2
			z"/>
		<path class="st7" d="M105.9,43.7c0.2,2.2,0.6,4.3,1.3,6.4c0.2,0.6,0.4,1.2,0.8,1.8c0.3,0.5,0.7,1,1.1,1.4c1.4,1.5,2.6,3.2,3.7,4.9
			c0.6,1,1.2,2,2.2,2.5c1,0.5,2.5,0.3,2.9-0.7c0.2-0.6,0.1-1.2-0.1-1.8l-4-8.3c-0.4-1.9-0.6-3.6-0.8-5c-0.3-0.8-0.6-1.5-1-2.2
			c-1-1.5-3.5-1.7-5.1-1c-0.3,0.1-0.5,0.3-0.7,0.5C105.8,42.5,105.8,43.2,105.9,43.7z"/>
		<path class="st4" d="M114.2,41.8c-0.5-0.3-2-0.8-2.5-1.1c1,1.4,1.7,3,1.8,4.7c-0.6-0.9-1.3-1.6-2.2-2.3c0.8,1.7,1.2,3.5,1.2,5.3
			c-0.4-1.6-1.3-3-2.5-4.1c0,0.9-0.1,1.7-0.1,2.6c-0.5-1.4-1.3-2.7-2.4-3.9c0,0.9,0,1.9-0.2,2.8c-0.8-3.5-4.6-8.2-10.3-7.5
			c2.1-1.1,5.8-4.1,11-1.8c1.1,0.5,2.2,1.1,3.1,1.9C111.8,39.3,113.6,41.5,114.2,41.8z"/>
		<path class="st5" d="M100.9,38c-0.4-0.4-3.7-4.6-3.9-2c-0.1,1.4,0.1,2.7,0.3,4.1c0.2,0.9,0.3,1.8,0.8,2.5c0.4,0.7,1.2,1.3,2,1.3
			c0.8,0,1.5-0.5,1.9-1.3C103.3,40.3,102.3,39.3,100.9,38z"/>
		<path class="st4" d="M98.4,36.6c0.5,0.9,1,1.8,1.7,2.6c0.3,0.4,0.6,0.7,0.8,1.2c0.2,0.4,0.3,0.9,0.2,1.4s-0.5,0.9-1,0.9
			c-0.4,0-0.8-0.3-1-0.6c-0.6-0.7-0.9-1.6-1.2-2.5c-0.3-0.9-0.5-1.9-0.5-2.8c0-0.3-0.1-1,0.3-1C98,35.7,98.3,36.4,98.4,36.6z"/>
		<path class="st4" d="M114.7,63.7c-0.1-0.7-0.4-1.4-1-1.7c0,0-0.1,0-0.2,0c-0.1,0-0.1,0-0.2,0.1c-0.3,0.2-0.4,0.6-0.4,1
			c0,0.4,0.2,0.7,0.3,1.1c0.2,0.4,0.6,2,1.2,1.8C114.9,65.6,114.8,64.1,114.7,63.7z"/>
		<g>
			<path class="st4" d="M109.6,64c-0.1,0-0.1,0-0.2,0c-0.3-0.1-0.4-0.4-0.3-0.7c1.1-3.1,4.5-5.3,7-5.6c1.3-0.2,2.3,0.1,2.8,0.9
				c0.2,0.2,0.1,0.6-0.1,0.8c-0.2,0.2-0.6,0.1-0.8-0.1c-0.4-0.5-1.3-0.5-1.8-0.4c-2.2,0.3-5.2,2.3-6.1,4.9
				C110.1,63.9,109.9,64,109.6,64z"/>
		</g>
		<g>
			<path class="st4" d="M110.4,63c-0.2,0-0.3-0.1-0.4-0.2c-1.3-1.4-2.7-2.8-4.2-4c-0.8-0.7-1.5-1.4-2.3-2.1
				c-1.7-1.6-4.2-4.2-5.2-7.4c-0.1-0.3,0.1-0.6,0.3-0.7c0.3-0.1,0.6,0.1,0.7,0.3c1,3,3.3,5.4,5,7c0.7,0.7,1.5,1.4,2.2,2
				c1.5,1.3,3,2.6,4.3,4.1c0.2,0.2,0.2,0.6-0.1,0.8C110.7,62.9,110.5,63,110.4,63z"/>
		</g>
		<g>
			<path class="st4" d="M98.2,57.9c-0.2,0-0.5-0.2-0.5-0.4c-1.4-6,1.1-12.8,6-16.5c0.7-0.5,1.6-1.1,2.6-1.1c0.3,0,0.6,0.2,0.6,0.5
				c0,0.3-0.2,0.6-0.5,0.6c-0.7,0-1.4,0.5-2,0.9c-4.6,3.5-6.9,9.8-5.6,15.4c0.1,0.3-0.1,0.6-0.4,0.6C98.2,57.9,98.2,57.9,98.2,57.9z
				"/>
		</g>
		<g>
			<path class="st4" d="M98.8,50.4c-0.2,0-0.5-0.1-0.6-0.3c-0.5-0.7-1-1.4-1.6-2.1c-0.3-0.4-0.6-0.8-1-1.1c-1.2-1.5-1.8-2.8-1.9-4.1
				c0-0.4,0.2-0.8,0.6-0.8c0.4,0,0.8,0.2,0.8,0.6c0.1,1,0.6,2.1,1.6,3.4c0.3,0.4,0.6,0.7,0.9,1.1c0.6,0.7,1.2,1.4,1.7,2.2
				c0.2,0.3,0.1,0.8-0.2,1C99,50.4,98.9,50.4,98.8,50.4z"/>
		</g>
		<g>
			<path class="st8" d="M97.2,48.7c0,0.7,0.6,1.6,1.3,2c0.7,0.4,1.3,0.2,1.3-0.5c0-0.7-0.6-1.6-1.3-2C97.8,47.8,97.2,48,97.2,48.7z"
				/>
			<path class="st4" d="M99.1,51.3c-0.3,0-0.5-0.1-0.8-0.2c-0.8-0.5-1.4-1.5-1.4-2.3c0-0.4,0.2-0.8,0.5-1c0.4-0.2,0.8-0.2,1.3,0.1
				c0.8,0.5,1.4,1.5,1.4,2.3c0,0.4-0.2,0.8-0.5,1C99.5,51.2,99.3,51.3,99.1,51.3z M97.8,48.4c-0.1,0-0.1,0-0.1,0
				c-0.1,0.1-0.1,0.2-0.1,0.3c0,0.6,0.5,1.3,1.1,1.7c0.3,0.2,0.5,0.2,0.6,0.1c0.1-0.1,0.1-0.2,0.1-0.3c0-0.6-0.5-1.3-1.1-1.7
				C98.1,48.4,98,48.4,97.8,48.4z"/>
		</g>
		<path class="st4" d="M53.7,71.7c1.2,1.1,2.5,2.2,4,3.1l0.1,0c-3.8-4.9-0.4-14-0.4-14.1c0.2-0.6-0.1-1.4-0.7-1.6
			c-0.6-0.2-1.4,0.1-1.6,0.7C54.9,60.3,52.7,66.3,53.7,71.7z"/>
		<path class="st8" d="M53.6,60.8l3.9,2.4c3.8,2.3,8.9,0.4,9.8-3.9c2.3-11,9.7-11.8,10-11.9c-1.1,0-2.2-0.1-3.3-0.4
			c-5.4-1.3-9.9-3.5-13.9-7.5c-7.3,1.7-9.1,10.1-9.6,15.2C50.4,57.2,51.6,59.5,53.6,60.8z"/>
		<g>
			<path class="st8" d="M109.3,62c0,0.4,0.4,1,0.8,1.3c0.4,0.3,0.8,0.1,0.8-0.3c0-0.4-0.4-1-0.8-1.3C109.6,61.4,109.3,61.5,109.3,62
				z"/>
			<path class="st4" d="M110.5,63.7c-0.2,0-0.4-0.1-0.6-0.2c-0.6-0.3-1-1-1-1.6c0-0.3,0.1-0.6,0.4-0.7c0.3-0.2,0.6-0.1,1,0.1
				c0.6,0.3,1,1,1,1.6c0,0.3-0.1,0.6-0.4,0.7C110.7,63.7,110.6,63.7,110.5,63.7z M109.7,61.9C109.7,61.9,109.6,61.9,109.7,61.9
				c0,0.4,0.3,0.8,0.6,1c0.1,0.1,0.2,0.1,0.2,0.1c0,0,0,0,0-0.1c0-0.3-0.3-0.8-0.6-0.9C109.8,61.9,109.7,61.9,109.7,61.9z"/>
		</g>
		<path class="st9" d="M64,57.4c-0.2,0.9-0.4,1.8-0.9,2.6c-0.9,1.3-2.7,2-4.2,1.5c-0.6-0.2-1.2-0.6-1.7-1c-0.5-0.3-1-0.7-1.5-1
			c-0.4-0.3-0.8-0.6-1.1-1c-0.4-0.7-0.4-1.5-0.3-2.3c0.3-2.5,1.2-5,2.7-7.1c0.1-0.2,0.3-0.4,0.5-0.5c0.2-0.1,0.5-0.1,0.7-0.1
			c1.7,0.2,3.1,1.5,4.7,2.2c1,0.5,3.5,0.7,3.1,2.3c-0.2,0.7-0.8,1.4-1.1,2.1C64.5,55.8,64.2,56.6,64,57.4z"/>
		<path class="st4" d="M76.3,47.4l-0.9-2.2c-0.5-1.1-1.9-1.5-2.8-0.8l-2,1c-3.9-1.1-6.7-2.6-8.5-5.2c-0.3-0.5-0.9-0.6-1.4-0.4
			l-1.1,0.5c-2.5,1.2-3.8,3.9-3.2,6.6l0.7,5.1c0.3,1.2,1,2.2,2.1,2.7l2.8,1.5c2.4,1.3,5.5-1.4,6.9-3.8l0.8-1.3
			c0.9-1.6,2.4-2.7,4.1-3.1L76.3,47.4z"/>
		<path class="st6" d="M95.6,48.3c0,0.4,0,0.9,0.1,1.3c0.4,6.5,0.9,11.4,1.9,15.1l3.5-5.8c1.3,0.5,2.9,0.7,4.6,1l3.9,3.6l0.6,3
			c0.1,0.6,0.5,1.2,1.1,1.5l1.5,0.9c0.3,0.2,0.7,0.3,1.1,0.3h1.8c0.7,0,1.3-0.3,1.8-0.9l0.2-0.3c-1.6,0.3-3.1,0.4-4.5-0.1
			c-1.8-0.6-2.8-4.6-2.6-6.4c-2.6-0.8-4-1.8-5.3-6.2c-3.9,0.8-7.8-1.4-9.2-5.2L95.6,48.3z"/>
		<path class="st6" d="M112.2,62c0-0.3,0.1-0.7,0.2-1c0.1-0.3,0.3-0.6,0.6-0.7c0.1,0,0.3-0.1,0.4-0.1c0.4,0,0.9,0.2,0.9,0.6
			c-0.5,0-0.8-0.2-1.3,0.1C112.7,61.2,112.2,61.7,112.2,62z"/>
		<path class="st5" d="M68.8,69.4l1.2,6.8c1,5,7.4,7.7,12.6,15.8c0.4,0.4,0.4,1.1-0.1,1.5c-2.1,2.1-7.1,7.6-7.6,7.6
			c-0.5,0-2.5,0.1-2.5,0.1c-2.6,1.5-0.8,8.4,3.1,6.4l12.7-10.8c1.5-1.3,1.8-3.5,0.7-5.2l-7.6-11.4l-0.1-9.8L68.8,69.4z"/>
		<path class="st5" d="M19.3,51.1l-3.1,0.5c-1.2,0.2-2.3,0.9-2.9,1.9L6.1,64.7l-2.5,0c-1.7,1.2-1.1,6.3,1.3,6.6l3.4-1.7l7.6-11
			c0.2-0.3,0.4-0.4,0.8-0.5c9.7-1.6,20,6.8,30.9,0.8l-2.5-17l-6.8-9c-4,1.4-7.9,3.1-11.2,10.8C24.9,47.2,22.2,49.6,19.3,51.1z"/>
	</g>
	<g>
		<polygon class="st4" points="78,33.5 74.7,37.6 69,35.8 71.1,30.9 		"/>
		<path d="M60,73.7l-1,3.1l-0.6,4.5v4.1c0,0.7-0.2,1.3-0.7,1.5c-1.3,0.4-3.1,0.1-4.2-0.8c-1.1-1.4-0.9-3.4-0.7-5.3l1.4-4.6l0.8-1.5
			l1.4-2.3l3.4,1.3H60z"/>
		<path class="st2" d="M67.9,38.2c-0.1,0-0.2,0.1-0.3,0.1c-2.2,0.5-4.7,0.2-6.6-0.5c-0.4-0.1-0.7-0.3-1.1-0.5
			c-0.8-0.4-1.3-0.9-1.7-1.5c-0.6,0.5-1.1,1-1.6,1.7c-1.2,1.7-1.5,4-1,6.7c0,0,0,0.1,0,0.1c-0.7,4.5-0.4,7.7,0.4,12.1l0.1,5.6
			c-0.1,0.1-0.2,0.2-0.3,0.3c-2.6,3.3-3.8,11.8-3.6,15.4c0,0.3,0.2,0.6,0.6,0.9c1.3,1.2,4.7,2.4,6.7,0c2.3-1.5,1.9-9.6,3.3-15.7
			c2.4-4.5,2.6-10,2.7-17.4l0.4-1.6c0.1,0,0.1,0.1,0.2,0.1L67.9,38.2C67.9,38.2,67.9,38.2,67.9,38.2z"/>
		<path class="st2" d="M71.2,36.2c-0.1,0.1-0.2,0.2-0.3,0.3c-0.3,0.3-0.5,0.7-0.8,1c-1.3,2-1.9,4.3-4.2,6.3l-1.7,0.9
			c-0.4-1-1.5-1.6-2.8-1.9c-2-0.4-4.6,0-5.8,1.4c-0.7-2.6-0.7-6.1,2.5-8.4C62.1,39.5,66.9,38.9,71.2,36.2z"/>
		<path class="st0" d="M75,32.1c-0.6,0.9-1.4,1.6-2.3,2.1l-1.4,2c-0.6,0.6-1.3,1.1-1.9,1.5c-0.7,0.4-1.5,0.8-2.3,1
			c-2.3,0.7-4.8,0.3-7.2-1.4c-0.6-0.4-1.1-0.9-1.7-1.5c0.6-3.1-1.1-3.8-0.2-7.2c1.1-3.4,3.9-5.7,7.8-6.8c3.2-2.7,6.8-3.9,10.8-3.5
			C77.3,23.6,77.1,29,75,32.1z"/>
		<path class="st10" d="M65.2,31.6l-1.6,8c0.2,0,0.3,0,0.5-0.1c1.2-0.3,2.1-0.5,2.9-0.8c0.7-0.2,1.3-0.5,2-0.9
			c0.1,0,0.2-0.1,0.3-0.1c0.7-0.4,1.3-0.9,1.9-1.5l1.4-2c1-0.5,1.7-1.2,2.3-2.1C72.3,32.7,68.9,32.6,65.2,31.6z"/>
		<path class="st11" d="M70.7,24c-0.1-1.7,0-3.2,0.3-3.9l3.2-1.4l-1,21.3c3,0,4.3-0.5,4.6-3.5l1-4.9c0.2-4.7-0.9-10.5-2.5-14.4
			c-1.7,0-3.2,0.2-4.5,0.9c-0.9,0.4-1.8,1.1-2.7,2L70.7,24z"/>
		<path class="st9" d="M66.7,21.1c0.6,3.9,4.3,5.7,3.7,9.5c3.5-1.8,4.8-4.6,4.9-8L68.2,20L66.7,21.1z"/>
		<path class="st12" d="M75.8,24.1c-0.5,1.5-0.8,4.9-2.4,4.5c-1.9-0.4-5.4-4.7-4.7-7.8L75.8,24.1z"/>
		<path d="M58,36c2,3,5.4,4.4,11.4,3.1c1.2-0.9,1.9-1.9,1.9-2.9c-5.3,2.2-9.5,1.2-13-1.5L58,36z"/>
		<g>
			<path class="st13" d="M76.5,19.2c0,0.8-0.1,1.7-0.1,2.5c-0.1,1.4-0.4,2.7-1.1,3.1c-0.8,0.6-2.4-0.1-4.3-0.9
				c-0.4-0.2-0.8-0.5-1-0.9c-0.2-0.3-0.4-0.6-0.6-1c-0.1-0.2-0.2-0.4-0.3-0.6c-0.2-0.3-0.4-0.7-0.6-0.9c-0.2-0.3-0.3-0.5-0.3-0.6
				c-0.1-0.2-0.2-0.4-0.3-0.6c-0.3-0.6-0.5-1.5-0.6-2.6c0.1-2.5,1.5-3.9,4.1-4.4c0.8,0.1,1.5,0.2,2.1,0.5c1.5,0.7,2.4,2.2,2.9,4
				c0.1,0.2,0.1,0.5,0.1,0.7C76.6,18.1,76.5,18.7,76.5,19.2z"/>
			<path d="M76.5,17.6c-1.2,2.2-4,2.4-5.4,2.3c-0.5,0-0.8,0.4-0.8,0.8l0.1,0.7l-0.8-0.3l-1.1-0.5l-0.5-0.2c-0.1-0.2-0.2-0.5-0.3-0.7
				c-0.4-0.9-0.6-1.9-0.6-2.7c-0.1-2.3,1.1-4.2,3.8-4.6c1.2-0.2,2.2,0,3,0.5C76.2,14.2,76.6,17.3,76.5,17.6z"/>
			<path class="st13" d="M69.7,21c0,0,0,0.1,0,0.1c-0.1,0.2-0.3,0.4-0.5,0.5c0,0,0,0-0.1,0c-0.1,0-0.2,0-0.4,0
				c-0.4-0.1-0.6-0.5-0.8-0.8c-0.2-0.3-0.3-0.6-0.3-0.9c0,0,0-0.1,0-0.1c0-0.1,0.1-0.2,0.2-0.3c0.1-0.1,0.2-0.1,0.3-0.2
				c0.3-0.1,0.6,0,0.8,0.2c0.2,0.2,0.4,0.5,0.5,0.7C69.7,20.5,69.8,20.7,69.7,21z"/>
			<path class="st14" d="M76.5,19.2c0,0.8-0.1,1.7-0.1,2.5c-0.1,0-0.2,0.1-0.3,0.1c-2.2,0.4-4.5,0.5-6.6,0.3
				c-0.1-0.2-0.2-0.4-0.3-0.6c-0.1,0-0.2,0-0.4,0c-0.4-0.1-0.6-0.5-0.8-0.8c-0.2-0.3-0.3-0.6-0.3-0.9c0,0,0-0.1,0-0.1
				c-0.4-0.9-0.6-1.9-0.6-2.7c0.1,0,0.2-0.1,0.2-0.1c0.1-0.1,0.2-0.2,0.3-0.2c1.7-1.8,3.1-3.2,5.9-3.6c0.1,0,0.3,0,0.4-0.1
				c2.2,1.3,2.7,4.4,2.6,4.7C76.6,18.1,76.5,18.7,76.5,19.2z"/>
		</g>
		<path class="st11" d="M69,39.1c-0.2,0.9,0.3,3.1,0,3.9c-1.2,0.3-4.3-0.9-5.4-0.9c-2.7,0-6.1-0.9-7-4.5c-0.1-0.3-0.1-0.5-0.2-0.8
			l1.3-8.1c0.4-1.6,1.1-2.8,2-3.9c1.2-1.7,5.9-4.4,8-4.3c0.5,0.6-1.5,0.7-0.5,3.5c0.5,1.4,0.7,2.9,0.8,4.6
			C68.5,31.9,69.8,35.9,69,39.1z"/>
		<path class="st15" d="M61.3,41.4c-5,2.8-3.1,16.6-3.1,17.6c-2.5,5.3-4.7,15.9-5.4,19.5c-0.3-0.3-0.5-0.6-0.6-0.9
			c-0.2-3.6,1.1-12.1,3.6-15.4c0.1-0.1,0.2-0.2,0.3-0.3l-0.1-5.6c-0.8-4.4-1.1-7.6-0.4-12.1c0,0,0-0.1,0-0.1c-0.5-2.7-0.2-5,1-6.7
			c-0.1-0.3-0.1-0.5-0.2-0.8l1.3-8.1c1.6-5.8,5.5-6.1,5.8-0.8c-2,4.3-2.6,7.7-2.7,10C60.8,39.9,61.2,41.2,61.3,41.4z"/>
		<g>
			<path class="st16" d="M75,11c4.1,0.3,6.2,2.2,6.2,4.7c0,2-2.2,3.8-5.2,4.4c-5.7,1-12.5-0.1-13.4-2c-0.5-1.7,3.1-1.7,5-3.2
				C69.6,12.7,71.2,11.2,75,11z"/>
			<path class="st17" d="M73.4,15.4c0.8-0.2,1.6-0.4,2.4-0.3c0.8,0.1,1.6,0.5,1.9,1.1c0.2,0.7-0.2,1.4-0.8,1.8
				c-0.7,0.4-1.5,0.6-2.3,0.7c-0.7,0.1-1.4,0.2-2.1,0.2c-0.7,0-1.4,0-1.9-0.3c-0.7-0.4-1.2-1.5-0.4-2C70.9,16,72.3,15.7,73.4,15.4z"
				/>
			<path class="st11" d="M76.6,16.7c-0.3,2-2.9,2.4-5.5,2.2c-0.6,0-1.1-0.1-1.5-0.2c-1.3-0.2-2-0.6-2.2-1.4l0.1-4.1
				c-0.2-0.8,1.5-1.7,3.6-2.1c1.7-0.3,3.2-0.2,3.9,0.2c0,0,0.1,0.1,0.1,0.1c0.1,0.1,0.2,0.2,0.2,0.3c0,0.1,0.3,1.2,0.3,1.3
				L76.6,16.7z"/>
			<path class="st4" d="M76.4,16c-0.6,1.6-3,1.9-5.3,1.7c-2-0.2-3.2-0.4-3.7-1.3l0,1c0.3,1.1,1.6,1.4,3.8,1.5
				c2.5,0.2,5.2-0.2,5.5-2.2L76.4,16z"/>
			<g>
				<path class="st10" d="M75.6,13.1c0-0.1-0.3-1.2-0.3-1.3c0-0.1-0.1-0.2-0.2-0.3c0,0-0.1-0.1-0.1-0.1c0.1,0.1,0.1,0.3,0.1,0.4
					c0,0.1,0,0.1,0,0.1c0,0.2-0.2,0.4-0.3,0.6c-0.2,0.2-0.5,0.4-0.8,0.6c-1,0.5-2.1,0.8-3.2,0.8c1.2,0.3,2.6,0,3.7-0.6
					c0.2-0.1,0.4-0.3,0.5-0.5c0,0,0-0.1,0.1-0.1c-0.2,1.4-1.2,3.5-5.3,5.9c-0.1,0-0.1,0.1-0.2,0.1c0.4,0.1,1,0.1,1.5,0.2
					c2.5,0.2,5.2-0.2,5.5-2.2L75.6,13.1z"/>
			</g>
			<path class="st10" d="M69.8,13.7c-1.8-1.1,1.9-2.3,4.9-2c-0.8-0.4-1.9-0.4-3.4-0.2c-1.9,0.3-3.3,1.2-3.2,1.9
				C68.3,13.7,68.8,13.8,69.8,13.7z"/>
		</g>
		<g>
			<g>
				<g>
					<g>
						
							<rect x="53.2" y="51.5" transform="matrix(0.1283 -0.9917 0.9917 0.1283 -3.543 99.4836)" class="st18" width="3.3" height="0.5"/>
						<path class="st18" d="M54.8,53.3c0.1,0.1,0.1,0.2,0,0.2c-0.1,0-0.3,0-0.4,0c-0.1-0.1-0.1-0.2,0-0.2
							C54.5,53.2,54.7,53.3,54.8,53.3z"/>
						<path class="st19" d="M55.2,50c0.1,0.1,0.1,0.2,0,0.2c-0.1,0-0.3,0-0.4,0c-0.1-0.1-0.1-0.2,0-0.2C55,49.9,55.1,50,55.2,50z"/>
					</g>
					<g>
						<g>
							<path class="st18" d="M55.2,50.1c-0.2-0.4-0.3-0.6-0.4-1l0.1-0.6l-0.3-0.2c-0.1-0.1-0.2,0-0.3,0.1l0,0.3c0,0.1,0,0.2,0,0.3
								l0.5,1.3l0.3,0.2L55.2,50.1z"/>
						</g>
						<g>
							<path class="st18" d="M55.2,50.1c-0.2-0.4-0.3-0.6-0.4-1l0.1-0.6l-0.3-0.2c-0.1-0.1-0.2,0-0.3,0.1l0,0.3c0,0.1,0,0.2,0,0.3
								l0.5,1.3l0.3,0.2L55.2,50.1z"/>
						</g>
					</g>
					<path class="st19" d="M55.3,48.8c0.2,0.4,0.3,0.6,0.4,1l-0.1,0.5l-0.5,0.2l-0.3-0.2L54.4,49c0-0.1-0.1-0.2,0-0.3l0-0.3
						c0-0.1,0.1-0.1,0.1-0.1c0,0,0.5-0.2,0.5-0.2c0,0,0.1,0,0.2,0l0.3,0.2L55.3,48.8z"/>
					<g>
						
							<rect x="53.4" y="46.3" transform="matrix(0.1283 -0.9917 0.9917 0.1283 1.7785 95.15)" class="st18" width="3.3" height="0.5"/>
						<path class="st18" d="M55,48.1c0.1,0.1,0.1,0.2,0,0.2c-0.1,0-0.3,0-0.4,0c-0.1-0.1-0.1-0.2,0-0.2C54.7,48,54.9,48.1,55,48.1z"
							/>
						<path class="st19" d="M55.4,44.8c0.1,0.1,0.1,0.2,0,0.2c-0.1,0-0.3,0-0.4,0c-0.1-0.1-0.1-0.2,0-0.2
							C55.2,44.7,55.3,44.8,55.4,44.8z"/>
					</g>
					<g>
						<g>
							<polygon class="st20" points="54.9,54.4 54.5,54.6 54.6,54.9 55.1,55 55.5,54.9 55.4,54.6 							"/>
							<polygon class="st20" points="55.5,54.9 54.5,54.6 55.1,49.8 56.1,50.1 							"/>
							<polygon class="st21" points="55.5,49.7 55.1,49.8 55.2,50.1 55.7,50.3 56.1,50.1 56,49.8 							"/>
							<polygon class="st20" points="55.1,55 55.5,54.9 56.1,50.1 55.7,50.3 							"/>
							<polygon class="st22" points="55.1,55 54.6,54.9 55.2,50.1 55.7,50.3 							"/>
						</g>
						<path class="st18" d="M55.8,49.9c0.1,0.1,0.1,0.2,0,0.2c-0.1,0.1-0.3,0-0.4-0.1c-0.1-0.1-0.1-0.2,0-0.2
							C55.6,49.8,55.7,49.8,55.8,49.9z"/>
					</g>
					<g>
						<path class="st19" d="M54.3,41.2l-0.2,0.1l-0.3,0c0,0-0.1,0.1-0.1,0.2l0.1,0l0.6,0.1l0,0.3l-0.2,0.1l-0.6-0.3l0,0.7
							c0,0.3,0.2,0.6,0.4,0.8l0.3,0.2l0,0.2l-0.2,0.1l-0.3-0.3c-0.3-0.2-0.5-0.6-0.5-1l0-0.7c0-0.1,0-0.1,0-0.2
							c0-0.2,0.1-0.3,0.2-0.4l0.2-0.1c0,0,0.1,0,0.1,0l0.2,0C54.2,41.1,54.2,41.2,54.3,41.2z"/>
						<g>
							<g>
								<path class="st21" d="M54.2,43.6l0-0.2l-0.3-0.2c-0.2-0.2-0.4-0.5-0.4-0.8l0-0.7c0,0,0-0.1,0-0.1c0-0.2,0.1-0.3,0.3-0.3
									l0.3,0c0-0.1-0.1-0.1-0.1-0.2l-0.2,0c-0.2,0-0.3,0.1-0.4,0.4c0,0.1,0,0.1,0,0.2l0,0.7c0,0.4,0.2,0.8,0.5,1L54.2,43.6z"/>
							</g>
							<g>
								<path class="st21" d="M54.2,43.6l0-0.2l-0.3-0.2c-0.2-0.2-0.4-0.5-0.4-0.8l0-0.7c0,0,0-0.1,0-0.1c0-0.2,0.1-0.3,0.3-0.3
									l0.3,0c0-0.1-0.1-0.1-0.1-0.2l-0.2,0c-0.2,0-0.3,0.1-0.4,0.4c0,0.1,0,0.1,0,0.2l0,0.7c0,0.4,0.2,0.8,0.5,1L54.2,43.6z"/>
							</g>
						</g>
						<g>
							<g>
								<polygon class="st21" points="54.2,41.9 54.2,41.6 53.6,41.5 53.6,41.6 								"/>
							</g>
							<g>
								<polygon class="st21" points="54.2,41.9 54.2,41.6 53.6,41.5 53.6,41.6 								"/>
							</g>
						</g>
					</g>
					<g>
						<path class="st5" d="M53.1,36.5c1.5,1.4,2.6,2.5,2.7,4.3c0,0.1,0,0.1,0,0.2c0,0.2,0,0.6-0.2,0.6l-0.1,0
							c-0.1,0.1-0.3,0-0.5-0.3c-0.6-1.5-1.6-2-2.3-2.1c-0.1,0-0.2-0.2-0.2-0.3l0.3-2.3c0-0.1,0-0.1,0.1-0.1
							C52.9,36.5,53,36.4,53.1,36.5C53.1,36.5,53.1,36.5,53.1,36.5z"/>
						<path class="st0" d="M55.4,41c0,0.1,0,0.1,0,0.2c0,0.1-0.1,0.1-0.2,0.1c-0.7-1.5-1.6-2.2-2.4-2.4l0.2-1.8
							C54.4,38.4,55.3,39.4,55.4,41z"/>
					</g>
					<g>
						<path class="st23" d="M56.6,46.8l-0.4,3.3l-0.7,0.3l-0.4-0.3c-0.2-0.4-0.3-0.7-0.4-1.1l0.1-1.1c0-0.2-0.1-0.5-0.2-0.7L54.3,47
							c-0.2-0.2-0.2-0.4-0.2-0.6l0-0.6l0-2.3l0-0.2l0-0.7l0.7-0.3l0.6,0.4l-0.4,2.9L56.6,46.8z"/>
						<g>
							<path class="st20" d="M55.9,47.2L54.4,46l0.4-2.9l-0.6-0.4l0,0.7l0,0.2l0,2.3l0,0.6c0,0.2,0,0.4,0.2,0.6l0.2,0.3
								c0.2,0.2,0.2,0.5,0.2,0.7l-0.1,1.1c0.2,0.4,0.3,0.6,0.4,1c0,0,0.4,0.3,0.4,0.3L55.9,47.2z"/>
							<path class="st18" d="M54.5,46.9c-0.1-0.1-0.1-0.2-0.1-0.3c0-0.1,0.1-0.2,0.2-0.1c0.1,0.1,0.1,0.2,0.1,0.3
								C54.6,46.9,54.6,47,54.5,46.9z"/>
							<path class="st18" d="M54.8,49.1c0,0-0.1-0.1-0.1-0.2c0-0.1,0.1-0.1,0.1-0.1C54.9,48.9,54.9,49,54.8,49.1
								C54.9,49.1,54.9,49.2,54.8,49.1z"/>
							<path class="st18" d="M55.3,50.1c0,0-0.1-0.1-0.1-0.2c0-0.1,0.1-0.1,0.1-0.1C55.3,49.9,55.4,50,55.3,50.1
								C55.3,50.1,55.3,50.2,55.3,50.1z"/>
						</g>
					</g>
					<g>
						<path class="st18" d="M52.9,36.6c1.5,1.4,2.6,2.6,2.7,4.5l0.2,0.1l0.2,0.6l0.1,0.2l-0.2,0.1c0,0,0,0-0.1,0.1
							c-0.1,0.1-0.1,0.2-0.2,0.4l-0.1,0.1l-0.1,0.1l-0.7,0.3l-0.6-0.4l0-0.9l0-0.2c-0.1-0.1-0.1-0.2-0.2-0.3c0-0.1-0.1-0.1-0.1-0.2
							c-0.6-1.1-1.4-1.5-2.1-1.6c-0.1,0-0.2-0.2-0.2-0.3l0.3-2.3c0-0.1,0-0.1,0.1-0.1c0,0,0.7-0.3,0.7-0.3
							C52.9,36.5,52.9,36.5,52.9,36.6z"/>
						<g>
							<path class="st20" d="M55.4,42.3l-0.1-0.2l-0.2-0.6l-0.2-0.1c-0.1-1.9-1.2-3.1-2.7-4.5c-0.1-0.1-0.2-0.1-0.2,0.1l-0.3,2.3
								c0,0.1,0.1,0.3,0.2,0.3c0.7,0.1,1.5,0.5,2.1,1.6c0,0.1,0.1,0.1,0.1,0.2c0.1,0.1,0.1,0.2,0.2,0.3l0,0.2l0,0.9l0.6,0.4l0.1-0.1
								l0.1-0.1c0-0.2,0.1-0.3,0.2-0.4C55.2,42.4,55.3,42.4,55.4,42.3z"/>
						</g>
					</g>
					<g>
						<path class="st23" d="M54.7,46.8c0.5,0.3,1.3,0.4,1.8,0.2c0.3-0.1,0.4-0.3,0.4-0.5c0,0,0.4-2.8,0.4-2.8c0-0.1,0-0.1,0-0.2
							c0,0,0-0.1,0-0.2c0,0,0,0,0-0.1c0,0,0-0.1,0-0.1c0,0,0-0.1,0-0.2c0-0.2-0.1-0.3-0.2-0.4c-0.3-0.4-0.7-0.5-0.9-0.5
							c-0.2,0-0.4,0-0.5,0c-0.2,0-0.3,0.1-0.5,0.2c-0.1,0.1-0.2,0.2-0.3,0.4c-0.1,0.2-0.1,0.4-0.2,0.5c0,0,0,0.1,0,0.2
							c0,0.1-0.1,0.1-0.1,0.2c-0.1,0.9-0.3,2-0.4,2.8C54.3,46.4,54.4,46.6,54.7,46.8z"/>
						<path class="st21" d="M56.5,47c0.3-0.1,0.4-0.3,0.4-0.5l0.4-2.8c0,0.2-0.2,0.4-0.4,0.5c-0.5,0.2-1.3,0.1-1.8-0.2
							c-0.2-0.2-0.3-0.4-0.3-0.6l-0.4,2.8c0,0.2,0.1,0.4,0.3,0.6C55.1,47.1,55.9,47.2,56.5,47z"/>
						<path class="st18" d="M56.8,44.2c0.5-0.2,0.6-0.7,0.1-1c-0.1-0.1-0.1-0.1-0.2-0.2c0.3,0.3,0.3,0.6-0.1,0.8
							c-0.4,0.2-1,0.1-1.3-0.2C55,43.3,55,43,55.4,42.8c-0.1,0-0.2,0.1-0.3,0.1c-0.5,0.2-0.6,0.7-0.1,1
							C55.5,44.3,56.3,44.4,56.8,44.2z"/>
						<path class="st21" d="M56.9,43.8c0.3-0.1,0.4-0.3,0.4-0.5c0-0.1,0-0.2,0-0.3c0,0,0-0.1,0-0.2c0,0,0-0.1-0.1-0.2
							c-0.1-0.1-0.1-0.2-0.1-0.2c0-0.1-0.1-0.1-0.2-0.2c-0.1-0.1-0.2-0.1-0.2-0.1c-0.1-0.1-0.3-0.1-0.5-0.1c-0.3,0-0.6,0.1-0.9,0.3
							c-0.1,0.1-0.2,0.2-0.3,0.4c-0.1,0.1-0.1,0.2-0.1,0.2c0,0.1,0,0.2-0.1,0.2c0,0.2,0.1,0.4,0.3,0.6C55.5,44,56.3,44.1,56.9,43.8z
							"/>
						<path class="st22" d="M56.6,43.8c-0.4,0.1-0.9,0-1.3-0.2c-0.2-0.4-0.2-0.9,0.1-1.4c0.1,0,0.2-0.1,0.2-0.1
							C55.7,42.8,56,43.4,56.6,43.8z"/>
					</g>
					<g>
						<path class="st24" d="M57.3,41.8L57.3,41.8l-0.3,0c0,0,0,0,0,0.1c-0.1,0-0.2-0.1-0.3,0l-0.1,0c0,0-0.1-0.1-0.1-0.1
							c-0.2-0.2-0.4-0.2-0.6-0.2c0,0-0.3,0.1-0.3,0.1l0.1,0.2c0.1,0,0.3,0,0.5,0.2c0.3,0.2,0.5,0.6,0.6,1l0.2-0.1
							c0-0.2-0.1-0.4-0.1-0.6c0,0,0-0.1,0-0.1c0,0,0-0.1,0-0.1l0.2-0.1C57.2,42.1,57.2,42.1,57.3,41.8
							C57.3,41.9,57.3,41.9,57.3,41.8z"/>
						<path class="st18" d="M57,42C57,42,57,42,57,42l-0.1-0.2c-0.1,0.4-0.4-0.1-0.6,0.2c0,0-0.1-0.1-0.1-0.1
							c-0.2-0.2-0.4-0.2-0.6-0.2c0,0,0.1,0.2,0.1,0.2c0.1,0,0.3,0,0.5,0.2c0.3,0.2,0.5,0.6,0.6,1c0-0.2-0.1-0.4-0.1-0.6
							c0,0,0-0.1,0-0.1c0-0.2,0.1-0.2,0.2-0.2C56.9,42.3,57,42.2,57,42z"/>
					</g>
					<g>
						<path class="st5" d="M52.2,36.9c1.5,1.4,2.6,2.5,2.7,4.3c0,0.1,0,0.1,0,0.2c0,0.2,0,0.6-0.2,0.6l-0.1,0
							c-0.1,0.1-0.3,0-0.5-0.3c-0.6-1.5-1.6-2-2.3-2.1c-0.1,0-0.2-0.2-0.2-0.3l0.3-2.3c0-0.1,0-0.1,0.1-0.1
							C52,36.8,52.1,36.8,52.2,36.9C52.2,36.8,52.2,36.9,52.2,36.9z"/>
						<path class="st0" d="M54.5,41.3c0,0.1,0,0.1,0,0.2c0,0.1-0.1,0.1-0.2,0.1c-0.7-1.5-1.6-2.2-2.4-2.4l0.2-1.8
							C53.5,38.7,54.5,39.8,54.5,41.3z"/>
					</g>
					<path class="st18" d="M52.5,38.9c-0.1-0.1-0.1-0.2-0.1-0.3c0-0.1,0.1-0.2,0.2-0.1c0.1,0.1,0.1,0.2,0.1,0.3
						C52.6,38.9,52.5,39,52.5,38.9z"/>
					<path class="st22" d="M55.5,46.9c0.2,0,0.4,0.1,0.6,0l0.3-2.5c-0.2,0-0.4,0-0.6,0L55.5,46.9z"/>
					<path class="st22" d="M55.3,46.9l0.3-2.5c-0.1,0-0.2,0-0.2-0.1l-0.3,2.5C55.1,46.8,55.2,46.9,55.3,46.9z"/>
				</g>
				<polygon class="st19" points="55.7,54.5 55.6,54.9 55.5,55 55.3,54.8 55.4,54.2 55.5,54.1 				"/>
			</g>
			<path d="M62.1,41.4c-1,1.9-2.5,3.4-4.4,5l-0.3-1.2c1.2-1.2,2.3-2.7,2.9-3.9c0.3,0,0.6,0.2,0.9,0.2c0.1,0,0.2,0,0.3-0.1
				C61.7,41.3,61.9,41.5,62.1,41.4z"/>
			<polygon class="st1" points="53.9,45 54.2,53 56,53 58.1,46.2 57.8,45.2 			"/>
			<path class="st15" d="M54.3,45.7l0.3,6.2l1-0.3l1.4-4.8c0.2-0.6-0.3-1.1-0.9-1.1H54.3z"/>
		</g>
	</g>
	<path class="st1" d="M55.7,82.7c0.8-0.2,2.6,0.4,2.9,1.7l0.8-0.5c-0.2-0.6-0.6-1.2-1.1-1.6c-0.8-0.6-1.9-0.8-3-0.6
		c-1.7,0.4-3.1,1.9-3.4,3.6l1,0.6C52.9,84.1,54.5,83,55.7,82.7z"/>
	<polygon class="st1" points="57.2,82.4 56.3,82.1 62.8,63.9 63.7,63.6 	"/>
	<path class="st0" d="M71.3,41.5c-3.4,0.7-11.2,1-13-1.4c-1.5-3.7-0.4-8.6,1.3-14.1c2.1-4.7,8.3-0.7,4.9,4.6c-0.1,3.2-1.3,4.9-2.2,6
		c1.5,0.4,7.9,2.4,9.7,2.8C73.4,40,72.4,41.1,71.3,41.5z"/>
	<path class="st4" d="M109.3,62.9c-16.5-0.6-35.4-11.4-36-20.5l0.9-0.1c0.6,8.6,19.3,19.1,35.1,19.7L109.3,62.9z"/>
	<path class="st4" d="M74.9,40.7l-0.4-0.8c0.4-0.2,1-0.6,1.6-0.9c0.7-0.4,1.3-0.8,1.7-1l0.4,0.8c-0.4,0.2-1,0.6-1.6,0.9
		C76,40.1,75.3,40.5,74.9,40.7z"/>
	<path class="st4" d="M89.5,46.1c-1-0.6-1.9-1.3-3-2.1c-2-1.5-4.2-3.3-7.1-4.4l0.3-0.8c3,1.2,5.3,3,7.3,4.5c1,0.8,2,1.5,2.9,2.1
		L89.5,46.1z"/>
	<path class="st13" d="M79.4,36.8c0.6,0.5,1,1,1.4,1.7c0.1,0.7,0,1.4-0.2,2.1c-0.6,0.5-1.4,0.8-2.3,1c-0.6-0.5-1.8-2.2-1.7-2.6
		l1.3-1.8C78.3,36.9,78.8,36.8,79.4,36.8z"/>
	<g>
		<g>
			<path class="st25" d="M72.1,39.5l2.7-0.2c0.2,0,0.6,0.1,1.4,0.5c0.1,0.1,0.2,0.2,0.2,0.3l0.5,1.9c0.1,0.2,0,0.5-0.2,0.6
				c-0.3,0.3-0.8,0.7-1.3,1.1c-1.3,0.5-1.4-0.8-1.6-1.5c-0.8,0.5-1.2,0.8-2.1-0.4l-0.3-0.1c-0.6-0.3-0.7-1.9,0.4-2L72.1,39.5z"/>
		</g>
		<g>
			<path class="st13" d="M72.1,39.5l2.7-0.2c0.2,0,0.6,0.1,1.4,0.5c0.1,0.1,0.2,0.2,0.2,0.3l0.5,1.9c0.1,0.2,0,0.5-0.2,0.6
				c-0.3,0.3-0.8,0.7-1.3,1.1c-1.3,0.5-1.4-0.8-1.6-1.5c-0.8,0.5-1.2,0.8-2.1-0.4l-0.3-0.1c-0.6-0.3-0.7-1.9,0.4-2L72.1,39.5z"/>
		</g>
	</g>
</g>
</svg>
