<?xml version="1.0" encoding="utf-8"?>
<!-- Generator: Adobe Illustrator 21.0.0, SVG Export Plug-In . SVG Version: 6.00 Build 0)  -->
<svg class="main-menu__link-img" version="1.1" id="Слой_1" xmlns="http://www.w3.org/2000/svg" xmlns:xlink="http://www.w3.org/1999/xlink" x="0px"
						y="0px" width="38px" height="38px" viewBox="0 0 38 38" style="enable-background:new 0 0 38 38;"
						xml:space="preserve">
						<style type="text/css">
							.st0-5 {
								fill-rule: evenodd;
								clip-rule: evenodd;
								fill: #3952B2;
							}
					
							.st1-5-1 {
								fill-rule: evenodd;
								clip-rule: evenodd;
								fill: #4ed3ff;
							}
					
							.st2-5 {
								fill-rule: evenodd;
								clip-rule: evenodd;
								fill: #404040;
							}
						</style>
						<g id="chat">
							<polygon class="st0-5" points="31,4 34,7.4 35,28 9.6,30.3 8,35 6,34 7,26 22,19 	"></polygon>
							<path class="st1-5-1" d="M6,34c0,0-3-8-3-30c0,0,9-1,15-1s13,1,13,1l1,22L8.3,27.6L6,34z"></path>
							<path class="st2-5"
								d="M7.5,12.2l18.3-1.4l-0.1,3.1L7.5,15.2L7.5,12.2z M7.4,18.2l-0.1,3l16.1-0.8l0.1-3.1L7.4,18.2z"></path>
						</g>
					</svg>