<?xml version="1.0" encoding="utf-8"?>
<!-- Generator: Adobe Illustrator 21.0.0, SVG Export Plug-In . SVG Version: 6.00 Build 0)  -->
<svg version="1.1" id="Слой_1" xmlns="http://www.w3.org/2000/svg" xmlns:xlink="http://www.w3.org/1999/xlink" x="0px" y="0px"
	 width="120px" height="120px" viewBox="0 0 120 120" style="enable-background:new 0 0 120 120;" xml:space="preserve">
<style type="text/css">
	.st0{fill:#333333;}
	.st1{fill:#4D4D4D;}
	.st2{fill:#808080;}
	.st3{fill:#999999;}
	.st4{fill:#CCCCCC;}
	.st5{fill:#C69C6D;}
	.st6{fill:#FFD9AD;}
	.st7{fill:#B3B3B3;}
	.st8{fill:#666666;}
</style>
<g id="Tournament">
	<g>
		<g>
			<g>
				<polygon class="st0" points="90.4,31.8 91.5,34.8 71.6,42.1 70.6,39.1 				"/>
				<path class="st0" d="M89.9,32.5c0.1-0.7,0.7-0.9,1.2-0.4c0.5,0.5,0.9,1.4,0.8,2.1c-0.1,0.7-0.7,0.9-1.2,0.4
					C90.1,34.1,89.8,33.2,89.9,32.5z"/>
				<path class="st1" d="M70.1,39.7c0.1-0.7,0.7-0.9,1.2-0.4c0.5,0.5,0.9,1.4,0.8,2.1c-0.1,0.7-0.7,0.9-1.2,0.4
					C70.3,41.4,70,40.4,70.1,39.7z"/>
			</g>
			<g>
				<g>
					<path class="st0" d="M70.4,39.7c-1.8,2.1-2.8,3.3-4.6,5.5l-3.5,1.3l-0.3,2c-0.2,0.9,0.4,1.4,1.3,1.1l2-0.7
						c0.6-0.2,1.2-0.6,1.7-1.2l5.9-6.6l0.4-2.4L70.4,39.7z"/>
				</g>
				<g>
					<path class="st0" d="M70.4,39.7c-1.8,2.1-2.8,3.3-4.6,5.5l-3.5,1.3l-0.3,2c-0.2,0.9,0.4,1.4,1.3,1.1l2-0.7
						c0.6-0.2,1.2-0.6,1.7-1.2l5.9-6.6l0.4-2.4L70.4,39.7z"/>
				</g>
			</g>
			<path class="st1" d="M63.3,42.9c1.8-2.1,2.8-3.4,4.6-5.5l2.8-1l2.6,2.2L72.8,41L67,47.6c-0.5,0.6-1.1,1-1.7,1.2l-2,0.7
				c-0.5,0.2-0.9,0.1-1.1-0.2c0,0,0.1,0.1,0.1,0.1l-2.6-2.2c-0.2-0.2-0.3-0.6-0.3-1l0.3-2L63.3,42.9z"/>
			<g>
				<polygon class="st0" points="60.6,46 61.6,49 41.8,56.2 40.7,53.2 				"/>
				<path class="st0" d="M60.1,46.6c0.1-0.7,0.7-0.9,1.2-0.4c0.5,0.5,0.9,1.4,0.8,2.1c-0.1,0.7-0.7,0.9-1.2,0.4
					C60.3,48.3,60,47.3,60.1,46.6z"/>
				<path class="st1" d="M40.3,53.9c0.1-0.7,0.7-0.9,1.2-0.4c0.5,0.5,0.9,1.4,0.8,2.1c-0.1,0.7-0.7,0.9-1.2,0.4
					C40.5,55.5,40.2,54.6,40.3,53.9z"/>
			</g>
			<g>
				<g>
					<polygon class="st2" points="95.8,28.6 97.9,30.3 99.3,28.9 98.7,25.7 96.6,23.9 95.2,25.3 					"/>
					<polygon class="st2" points="96.6,23.9 97.9,30.3 69.2,40.8 68,34.4 					"/>
					<polygon class="st3" points="67.2,39 69.2,40.8 70.7,39.4 70.1,36.1 68,34.4 66.5,35.8 					"/>
					<polygon class="st2" points="98.7,25.7 96.6,23.9 68,34.4 70.1,36.1 					"/>
					<polygon class="st4" points="98.7,25.7 99.3,28.9 70.7,39.4 70.1,36.1 					"/>
				</g>
				<path class="st0" d="M67.4,36.6c0.1-0.8,0.8-1.1,1.4-0.5c0.6,0.5,1,1.7,0.9,2.5c-0.1,0.8-0.8,1.1-1.4,0.5
					C67.7,38.6,67.3,37.5,67.4,36.6z"/>
			</g>
			<g>
				<path class="st1" d="M23.3,71l1,0.9l0.7,1.7c0.4,0.1,0.8,0.1,1.2,0l-0.5-0.4l-1.1-4.1l1.5-0.8l1,0.9l0.1,3.9L31,71
					c1.6-0.9,2.9-2.8,3.2-4.4l0.4-2.5l1-0.5l1,0.9l-0.5,2.7c-0.4,2.1-2.1,4.5-4.1,5.7l-3.6,2.1c-0.3,0.2-0.6,0.3-0.9,0.4
					c-1.2,0.4-2.2,0.3-2.9-0.2c0,0-1-0.9-1-0.9c-0.2-0.2-0.4-0.4-0.5-0.7l-0.6-1.4C22.8,71.7,23,71.4,23.3,71z"/>
				<g>
					<g>
						<path class="st3" d="M36.7,64.4l-1,0.5l-0.4,2.5c-0.3,1.7-1.6,3.5-3.2,4.4L28.4,74c-0.2,0.1-0.5,0.3-0.7,0.3
							c-1.2,0.4-2.2,0.2-2.6-0.8l-0.7-1.7c-0.3,0.4-0.5,0.8-0.8,1.1l0.6,1.4c0.5,1.2,1.8,1.5,3.4,1c0.3-0.1,0.6-0.3,0.9-0.4l3.6-2.1
							c2.1-1.2,3.8-3.5,4.1-5.7L36.7,64.4z"/>
					</g>
					<g>
						<path class="st3" d="M36.7,64.4l-1,0.5l-0.4,2.5c-0.3,1.7-1.6,3.5-3.2,4.4L28.4,74c-0.2,0.1-0.5,0.3-0.7,0.3
							c-1.2,0.4-2.2,0.2-2.6-0.8l-0.7-1.7c-0.3,0.4-0.5,0.8-0.8,1.1l0.6,1.4c0.5,1.2,1.8,1.5,3.4,1c0.3-0.1,0.6-0.3,0.9-0.4l3.6-2.1
							c2.1-1.2,3.8-3.5,4.1-5.7L36.7,64.4z"/>
					</g>
				</g>
				<g>
					<g>
						<polygon class="st3" points="27.3,69.2 25.8,70 26.8,74 27.5,73.8 						"/>
					</g>
					<g>
						<polygon class="st3" points="27.3,69.2 25.8,70 26.8,74 27.5,73.8 						"/>
					</g>
				</g>
			</g>
			<g>
				<path class="st5" d="M0,91.7c3.6-12.3,6.8-22.2,16.5-28.3c0.3-0.2,0.6-0.3,0.8-0.5c0,0,0.1,0,0.1-0.1c1.1-0.8,2.9-1.8,3.9-0.9
					l0.5,0.5c0.7,0.6,0.8,2-0.3,3.9c-6.3,7.9-6.9,14.8-5.1,19.5c0.3,0.6-0.4,1.8-1.3,2.1L1.5,92.9C1.1,93,0.9,93,0.7,92.8
					c-0.3-0.2-0.6-0.4-0.7-0.8C0,92,0,92,0,92C0,91.7,0,91.7,0,91.7z"/>
				<path class="st6" d="M18.6,65.2c0.4-0.3,0.7-0.4,0.9-0.5c0.8-0.3,1.1,0.2,0.9,0.7c-6.6,8.3-7.8,15.7-6.3,20.9l-10.8,4
					C6.7,78.6,9.8,70.3,18.6,65.2z"/>
			</g>
			<g>
				<path class="st7" d="M48.2,41.2L67.7,34l3.8,3.3L71,40.4c0,0-0.1,0.1-0.1,0.1c-1.8,2.1-2.8,3.3-4.6,5.5l-6.5,2.4
					c-1.3,0.5-2.6,1.8-3.2,3.2l-0.9,2.1c-0.6,1.4-1.7,2-2.9,2.7l-3.2,1.6l-13,6.5l-1,0.5l-3.9,2L28,63.6l0.8-4.4l17.4-6.4L48.2,41.2
					z"/>
				<g>
					<path class="st2" d="M52,44.5l-2,11.6l-17.4,6.4l-0.8,4.4l3.9-2l1-0.5l13-6.5l3.2-1.6c1.3-0.7,2.4-1.3,2.9-2.7l0.9-2.1
						c0.6-1.4,1.9-2.7,3.2-3.2l6.5-2.4c1.8-2.1,2.8-3.4,4.6-5.5c0,0,0.1-0.1,0.1-0.1l0.5-3.1L52,44.5z"/>
					<path class="st0" d="M54.8,53.1c-0.1,0.6-0.7,1.3-1.4,1.5c-0.7,0.2-1.1-0.1-1-0.7s0.7-1.3,1.4-1.5
						C54.4,52.2,54.9,52.5,54.8,53.1z"/>
					<path class="st0" d="M66.2,44.7c-0.1,0.4-0.4,0.8-0.8,0.9c-0.4,0.1-0.7,0-0.6-0.4c0.1-0.4,0.4-0.8,0.8-0.9
						C65.9,44.1,66.2,44.3,66.2,44.7z"/>
					<path class="st0" d="M70.5,39.3c-0.1,0.4-0.4,0.8-0.8,0.9s-0.7,0-0.6-0.4c0.1-0.4,0.4-0.8,0.8-0.9
						C70.3,38.8,70.6,38.9,70.5,39.3z"/>
				</g>
			</g>
			<g>
				<path class="st0" d="M0.9,92.2c3.7-12.7,7-22.6,17.4-28.6l0.3-1.5l2.8-3l1.1-1.2l1.1,0.9c0.2,0.1,0.3,0.1,0.5,0.2
					c0.8,0.2,1.8,0.2,2.9-0.3l1.2,0.2l0.7,0.1l3.8,3.3l-0.8,4.4l-5.2,2.6l-0.9,0.5c-0.5,0.6-1,1.3-1.4,1.9c-0.3,0.4-0.5,0.8-0.8,1.1
					c-4.2,6.6-4.5,12.3-2.9,16.3c0.3,0.6-0.4,1.8-1.3,2.1L5.6,96.4c-0.3,0.1-0.6,0.1-0.7-0.1c0,0-3.8-3.3-3.8-3.3
					C0.8,92.9,0.8,92.6,0.9,92.2z"/>
				<g>
					<path class="st2" d="M26.3,61.3l-1.1,1.2l-2.8,3l-0.3,1.5c-10.4,6-13.7,15.9-17.4,28.6c-0.2,0.7,0.2,1.2,0.9,0.9l13.8-5.1
						c0.8-0.3,1.5-1.4,1.3-2.1c-1.6-4-1.4-9.7,2.9-16.3c0.2-0.4,0.5-0.8,0.8-1.1c0.4-0.6,0.9-1.3,1.4-1.9l0.9-0.5l5.2-2.6l0.8-4.4
						l-0.7-0.1l-1.2-0.2c-1.1,0.4-2.1,0.5-2.9,0.3C27.2,62.2,26.7,61.9,26.3,61.3z"/>
				</g>
			</g>
			<g>
				<path class="st7" d="M53.5,52.4c0.6-3.7-1.2-8.6-4-10.9c-1.4-1.2-2.8-1.5-3.9-1c0,0-17,6.3-17,6.3c-0.4,0.1-0.7,0.4-1,0.6
					c-0.4,0-0.7,0.1-1,0.2c0,0-0.3,0.1-0.8,0.3c-0.2,0.1-0.5,0.3-0.7,0.4c-0.2,0.1-0.6,0.4-1.1,0.9c-0.7,0.7-1.4,1.6-1.9,2.5
					c-1.3,2.8-0.8,5.2-0.3,6.4c0.5,1.3,1.1,2.2,1.6,2.7c0.8,0.8,1.6,1.4,2.6,1.9c0.5,0.3,1.6,0.7,3,0.7c1.4,0.1,2.4-0.2,3.1-0.5
					c-0.1,0-0.1,0-0.2,0.1c0.4-0.1,0.7-0.3,1.1-0.6c0.4,0,0.8,0,1.2-0.2c5.1-1.9,11.9-4.4,17-6.3c-0.1,0-0.1,0-0.2,0.1
					C52.2,55.6,53.2,54.3,53.5,52.4z"/>
				<path class="st3" d="M49.5,41.4c-1.4-1.1-2.8-1.5-3.9-1.1l-17,6.3c1.1-0.4,2.5-0.1,3.9,1.1c2.8,2.3,4.6,7.2,4,10.9
					c-0.3,1.9-1.2,3.1-2.3,3.5l17-6.3c1.2-0.4,2-1.6,2.3-3.5C54.1,48.7,52.3,43.8,49.5,41.4z"/>
				<path class="st0" d="M32.5,47.7c-2.8-2.3-5.6-1.2-6.2,2.4c-0.1,0.7-0.2,1-0.3,1.7c0.4-2.7,2.5-3.5,4.6-1.8
					c2.1,1.7,3.4,5.3,3,8.1c-0.4,2.7-2.5,3.5-4.6,1.8c0.5,0.4,0.8,0.7,1.3,1.1c2.8,2.3,5.6,1.2,6.2-2.4C37.1,55,35.3,50.1,32.5,47.7
					z"/>
				<path class="st3" d="M30.4,48.5c-1.4-1.1-2.7-1.5-3.8-1c-0.7,0.3-0.9,0.4-1.6,0.8c-0.3,0.2-0.7,0.5-1.1,0.9
					c-0.2,0.2-0.6,0.6-1,1.2c-0.5,0.7-0.8,1.3-0.8,1.5c-0.2,0.4-0.4,0.9-0.5,1.6c-0.2,0.8-0.2,1.4-0.2,1.7c0,0.8,0.1,2,0.7,3.4
					c0.8,1.9,2.3,3.4,4.2,4.2c0.9,0.4,1.9,0.6,2.9,0.6c0.8,0,1.3-0.1,1.5-0.1c0.6-0.1,1-0.2,1.5-0.4c1.1-0.4,2-1.6,2.3-3.5
					C35,55.7,33.2,50.9,30.4,48.5z"/>
				<path class="st4" d="M30.9,50.2c1.7,2,2.8,5,2.8,7.7c-1.5,2.5-4.7,3.6-7.9,3.6c-0.5-0.3-0.9-0.6-1.3-1
					C28.1,58.5,30.6,54.6,30.9,50.2z"/>
			</g>
			<g>
				<path class="st8" d="M18.1,52.2L18,53l1.3,1.1c0.1,0,0.2-0.1,0.3-0.1c0.1,0.6,0.2,1.3,0.7,1.7l0.6,0.5c-0.1,0.3-0.2,0.7-0.2,1
					c-0.3,1.6-0.1,3,0.6,4l1.3,1.1l1.1-1.2c-0.5-0.8-0.7-1.9-0.5-3.3c0.4-2.4,2-4.9,4-6.6l-1.3-1.1c-1.2,0.8-2.3,1.7-3.1,2.7
					c-0.2,0.1-0.3,0.2-0.5,0.2c-0.3,0.1-0.5,0.1-0.7,0.1l-1.2-1c-0.3-0.3-0.8-0.4-1.7-0.1C18.5,52,18.3,52.1,18.1,52.2z M21.1,52.9
					C21.1,52.9,21.1,52.9,21.1,52.9C21.1,52.9,21.1,52.9,21.1,52.9z M21.5,53C21.5,53,21.5,53.1,21.5,53C21.5,53.1,21.5,53,21.5,53z
					 M21.2,52.9c0,0-0.1,0-0.1,0C21.2,52.9,21.2,52.9,21.2,52.9z"/>
				<path class="st0" d="M20,53c-0.2,0.1-0.4,0.1-0.6,0.2l-0.1,0.8c2.4-0.9,0.9,2.6,3,3c-0.1,0.4-0.2,0.8-0.3,1.2
					c-0.3,1.6-0.1,3,0.6,4c0,0,1.2-1.2,1.2-1.2c-0.5-0.8-0.7-1.9-0.5-3.3c0.4-2.4,2-4.9,4-6.6c-1.2,0.8-2.3,1.7-3.1,2.7
					c-0.2,0.1-0.3,0.2-0.5,0.2c-1,0.3-1.3-0.1-1.6-0.6C21.6,53,21.2,52.6,20,53z"/>
			</g>
			<g>
				<path class="st5" d="M4.7,95.7c3.6-12.3,6.8-22.2,16.5-28.3c0.3-0.2,0.6-0.3,0.8-0.5c0,0,0.1,0,0.1-0.1c1.1-0.8,2.9-1.8,3.9-0.9
					l0.5,0.5c0.7,0.6,0.8,2-0.3,3.9c-6.3,7.9-6.9,14.8-5.1,19.5c0.3,0.6-0.4,1.8-1.3,2.1L6.1,96.9c-0.3,0.1-0.6,0.1-0.7-0.1
					c-0.3-0.2-0.6-0.4-0.7-0.8c0-0.1,0-0.1,0-0.1C4.7,95.7,4.7,95.7,4.7,95.7z"/>
				<path class="st6" d="M23.2,69.2c0.4-0.3,0.7-0.4,0.9-0.5c0.8-0.3,1.1,0.2,0.9,0.7c-6.6,8.3-7.8,15.7-6.3,20.9l-10.8,4
					C11.4,82.6,14.5,74.3,23.2,69.2z"/>
			</g>
			<path class="st0" d="M15.4,88.1c-0.1,0.6-0.7,1.3-1.4,1.5s-1.1-0.1-1-0.7c0.1-0.6,0.7-1.3,1.4-1.5C15,87.2,15.5,87.5,15.4,88.1z"
				/>
			<path class="st4" d="M52,47.5c-0.3-1.2-0.9-2.5-1.5-3.5l-14.9,5.6c0.6,1.1,1.1,2.3,1.4,3.5L52,47.5z"/>
			<path class="st4" d="M52.2,48.5l-15,5.6c0.1,0.5,0.2,1,0.2,1.5l14.9-5.5C52.4,49.5,52.3,49,52.2,48.5z"/>
		</g>
		<polygon class="st1" points="93.8,23.9 96.3,23 97.1,23.7 96.8,25.4 92.9,26.8 92.2,26.2 		"/>
	</g>
	<g>
		<g>
			<g>
				<polygon class="st0" points="29.6,31.8 28.5,34.8 48.4,42.1 49.4,39.1 				"/>
				<path class="st0" d="M30.1,32.5c-0.1-0.7-0.7-0.9-1.2-0.4c-0.5,0.5-0.9,1.4-0.8,2.1c0.1,0.7,0.7,0.9,1.2,0.4
					C29.9,34.1,30.2,33.2,30.1,32.5z"/>
				<path class="st1" d="M49.9,39.7c-0.1-0.7-0.7-0.9-1.2-0.4c-0.5,0.5-0.9,1.4-0.8,2.1c0.1,0.7,0.7,0.9,1.2,0.4
					C49.7,41.4,50,40.4,49.9,39.7z"/>
			</g>
			<g>
				<g>
					<path class="st0" d="M49.6,39.7c1.8,2.1,2.8,3.3,4.6,5.5l3.5,1.3l0.3,2c0.2,0.9-0.4,1.4-1.3,1.1l-2-0.7
						c-0.6-0.2-1.2-0.6-1.7-1.2L47.2,41l-0.4-2.4L49.6,39.7z"/>
				</g>
				<g>
					<path class="st0" d="M49.6,39.7c1.8,2.1,2.8,3.3,4.6,5.5l3.5,1.3l0.3,2c0.2,0.9-0.4,1.4-1.3,1.1l-2-0.7
						c-0.6-0.2-1.2-0.6-1.7-1.2L47.2,41l-0.4-2.4L49.6,39.7z"/>
				</g>
			</g>
			<path class="st1" d="M56.7,42.9c-1.8-2.1-2.8-3.4-4.6-5.5l-2.8-1l-2.6,2.2l0.4,2.4l5.9,6.6c0.5,0.6,1.1,1,1.7,1.2l2,0.7
				c0.5,0.2,0.9,0.1,1.1-0.2c0,0-0.1,0.1-0.1,0.1l2.6-2.2c0.2-0.2,0.3-0.6,0.3-1l-0.3-2L56.7,42.9z"/>
			<g>
				<polygon class="st0" points="59.4,46 58.4,49 78.2,56.2 79.3,53.2 				"/>
				<path class="st0" d="M59.9,46.6c-0.1-0.7-0.7-0.9-1.2-0.4c-0.5,0.5-0.9,1.4-0.8,2.1c0.1,0.7,0.7,0.9,1.2,0.4
					C59.7,48.3,60,47.3,59.9,46.6z"/>
				<path class="st1" d="M79.7,53.9c-0.1-0.7-0.7-0.9-1.2-0.4c-0.5,0.5-0.9,1.4-0.8,2.1c0.1,0.7,0.7,0.9,1.2,0.4
					C79.5,55.5,79.8,54.6,79.7,53.9z"/>
			</g>
			<g>
				<g>
					<polygon class="st2" points="24.2,28.6 22.1,30.3 20.7,28.9 21.3,25.7 23.4,23.9 24.8,25.3 					"/>
					<polygon class="st2" points="23.4,23.9 22.1,30.3 50.8,40.8 52,34.4 					"/>
					<polygon class="st3" points="52.8,39 50.8,40.8 49.3,39.4 49.9,36.1 52,34.4 53.5,35.8 					"/>
					<polygon class="st2" points="21.3,25.7 23.4,23.9 52,34.4 49.9,36.1 					"/>
					<polygon class="st4" points="21.3,25.7 20.7,28.9 49.3,39.4 49.9,36.1 					"/>
				</g>
				<path class="st0" d="M52.6,36.6c-0.1-0.8-0.8-1.1-1.4-0.5c-0.6,0.5-1,1.7-0.9,2.5c0.1,0.8,0.8,1.1,1.4,0.5
					C52.3,38.6,52.7,37.5,52.6,36.6z"/>
			</g>
			<g>
				<path class="st1" d="M96.7,71l-1,0.9l-0.7,1.7c-0.4,0.1-0.8,0.1-1.2,0l0.5-0.4l1.1-4.1l-1.5-0.8l-1,0.9l-0.1,3.9L89,71
					c-1.6-0.9-2.9-2.8-3.2-4.4l-0.4-2.5l-1-0.5l-1,0.9l0.5,2.7c0.4,2.1,2.1,4.5,4.1,5.7l3.6,2.1c0.3,0.2,0.6,0.3,0.9,0.4
					c1.2,0.4,2.2,0.3,2.9-0.2c0,0,1-0.9,1-0.9c0.2-0.2,0.4-0.4,0.5-0.7l0.6-1.4C97.2,71.7,97,71.4,96.7,71z"/>
				<g>
					<g>
						<path class="st3" d="M83.3,64.4l1,0.5l0.4,2.5c0.3,1.7,1.6,3.5,3.2,4.4l3.6,2.1c0.2,0.1,0.5,0.3,0.7,0.3
							c1.2,0.4,2.2,0.2,2.6-0.8l0.7-1.7c0.3,0.4,0.5,0.8,0.8,1.1l-0.6,1.4c-0.5,1.2-1.8,1.5-3.4,1c-0.3-0.1-0.6-0.3-0.9-0.4
							l-3.6-2.1c-2.1-1.2-3.8-3.5-4.1-5.7L83.3,64.4z"/>
					</g>
					<g>
						<path class="st3" d="M83.3,64.4l1,0.5l0.4,2.5c0.3,1.7,1.6,3.5,3.2,4.4l3.6,2.1c0.2,0.1,0.5,0.3,0.7,0.3
							c1.2,0.4,2.2,0.2,2.6-0.8l0.7-1.7c0.3,0.4,0.5,0.8,0.8,1.1l-0.6,1.4c-0.5,1.2-1.8,1.5-3.4,1c-0.3-0.1-0.6-0.3-0.9-0.4
							l-3.6-2.1c-2.1-1.2-3.8-3.5-4.1-5.7L83.3,64.4z"/>
					</g>
				</g>
				<g>
					<g>
						<polygon class="st3" points="92.7,69.2 94.2,70 93.2,74 92.5,73.8 						"/>
					</g>
					<g>
						<polygon class="st3" points="92.7,69.2 94.2,70 93.2,74 92.5,73.8 						"/>
					</g>
				</g>
			</g>
			<g>
				<path class="st5" d="M120,91.7c-3.6-12.3-6.8-22.2-16.5-28.3c-0.3-0.2-0.6-0.3-0.8-0.5c0,0-0.1,0-0.1-0.1
					c-1.1-0.8-2.9-1.8-3.9-0.9l-0.5,0.5c-0.7,0.6-0.8,2,0.3,3.9c6.3,7.9,6.9,14.8,5.1,19.5c-0.3,0.6,0.4,1.8,1.3,2.1l13.9,5.1
					c0.3,0.1,0.6,0.1,0.7-0.1c0.3-0.2,0.6-0.4,0.7-0.8c0-0.1,0-0.1,0-0.1C120,91.7,120,91.7,120,91.7z"/>
				<path class="st6" d="M101.4,65.2c-0.4-0.3-0.7-0.4-0.9-0.5c-0.8-0.3-1.1,0.2-0.9,0.7c6.6,8.3,7.8,15.7,6.3,20.9l10.8,4
					C113.3,78.6,110.2,70.3,101.4,65.2z"/>
			</g>
			<g>
				<path class="st7" d="M71.8,41.2L52.3,34l-3.8,3.3l0.5,3.1c0,0,0.1,0.1,0.1,0.1c1.8,2.1,2.8,3.3,4.6,5.5l6.5,2.4
					c1.3,0.5,2.6,1.8,3.2,3.2l0.9,2.1c0.6,1.4,1.7,2,2.9,2.7l3.2,1.6l13,6.5l1,0.5l3.9,2l3.8-3.3l-0.8-4.4l-17.4-6.4L71.8,41.2z"/>
				<g>
					<path class="st2" d="M68,44.5l2,11.6l17.4,6.4l0.8,4.4l-3.9-2l-1-0.5l-13-6.5l-3.2-1.6c-1.3-0.7-2.4-1.3-2.9-2.7l-0.9-2.1
						c-0.6-1.4-1.9-2.7-3.2-3.2L53.7,46c-1.8-2.1-2.8-3.4-4.6-5.5c0,0-0.1-0.1-0.1-0.1l-0.5-3.1L68,44.5z"/>
					<path class="st0" d="M65.2,53.1c0.1,0.6,0.7,1.3,1.4,1.5c0.7,0.2,1.1-0.1,1-0.7c-0.1-0.6-0.7-1.3-1.4-1.5
						C65.6,52.2,65.1,52.5,65.2,53.1z"/>
					<path class="st0" d="M53.8,44.7c0.1,0.4,0.4,0.8,0.8,0.9c0.4,0.1,0.7,0,0.6-0.4c-0.1-0.4-0.4-0.8-0.8-0.9
						C54.1,44.1,53.8,44.3,53.8,44.7z"/>
					<path class="st0" d="M49.5,39.3c0.1,0.4,0.4,0.8,0.8,0.9c0.4,0.1,0.7,0,0.6-0.4c-0.1-0.4-0.4-0.8-0.8-0.9
						C49.7,38.8,49.4,38.9,49.5,39.3z"/>
				</g>
			</g>
			<g>
				<path class="st0" d="M119.1,92.2c-3.7-12.7-7-22.6-17.4-28.6l-0.3-1.5l-2.8-3L97.5,58L96.4,59c-0.2,0.1-0.3,0.1-0.5,0.2
					c-0.8,0.2-1.8,0.2-2.9-0.3l-1.2,0.2l-0.7,0.1l-3.8,3.3l0.8,4.4l5.2,2.6l0.9,0.5c0.5,0.6,1,1.3,1.4,1.9c0.3,0.4,0.5,0.8,0.8,1.1
					c4.2,6.6,4.5,12.3,2.9,16.3c-0.3,0.6,0.4,1.8,1.3,2.1l13.8,5.1c0.3,0.1,0.6,0.1,0.7-0.1c0,0,3.8-3.3,3.8-3.3
					C119.2,92.9,119.2,92.6,119.1,92.2z"/>
				<g>
					<path class="st2" d="M93.7,61.3l1.1,1.2l2.8,3l0.3,1.5c10.4,6,13.7,15.9,17.4,28.6c0.2,0.7-0.2,1.2-0.9,0.9l-13.8-5.1
						c-0.8-0.3-1.5-1.4-1.3-2.1c1.6-4,1.4-9.7-2.9-16.3c-0.2-0.4-0.5-0.8-0.8-1.1c-0.4-0.6-0.9-1.3-1.4-1.9l-0.9-0.5l-5.2-2.6
						l-0.8-4.4l0.7-0.1l1.2-0.2c1.1,0.4,2.1,0.5,2.9,0.3C92.8,62.2,93.3,61.9,93.7,61.3z"/>
				</g>
			</g>
			<g>
				<path class="st7" d="M66.5,52.4c-0.6-3.7,1.2-8.6,4-10.9c1.4-1.2,2.8-1.5,3.9-1c0,0,17,6.3,17,6.3c0.4,0.1,0.7,0.4,1,0.6
					c0.4,0,0.7,0.1,1,0.2c0,0,0.3,0.1,0.8,0.3c0.2,0.1,0.5,0.3,0.7,0.4c0.2,0.1,0.6,0.4,1.1,0.9c0.7,0.7,1.4,1.6,1.9,2.5
					c1.3,2.8,0.8,5.2,0.3,6.4c-0.5,1.3-1.1,2.2-1.6,2.7c-0.8,0.8-1.6,1.4-2.6,1.9c-0.5,0.3-1.6,0.7-3,0.7c-1.4,0.1-2.4-0.2-3.1-0.5
					c0.1,0,0.1,0,0.2,0.1c-0.4-0.1-0.7-0.3-1.1-0.6c-0.4,0-0.8,0-1.2-0.2c-5.1-1.9-11.9-4.4-17-6.3c0.1,0,0.1,0,0.2,0.1
					C67.8,55.6,66.8,54.3,66.5,52.4z"/>
				<path class="st3" d="M70.5,41.4c1.4-1.1,2.8-1.5,3.9-1.1l17,6.3c-1.1-0.4-2.5-0.1-3.9,1.1c-2.8,2.3-4.6,7.2-4,10.9
					c0.3,1.9,1.2,3.1,2.3,3.5l-17-6.3c-1.2-0.4-2-1.6-2.3-3.5C65.9,48.7,67.7,43.8,70.5,41.4z"/>
				<path class="st0" d="M87.5,47.7c2.8-2.3,5.6-1.2,6.2,2.4c0.1,0.7,0.2,1,0.3,1.7c-0.4-2.7-2.5-3.5-4.6-1.8
					c-2.1,1.7-3.4,5.3-3,8.1c0.4,2.7,2.5,3.5,4.6,1.8c-0.5,0.4-0.8,0.7-1.3,1.1c-2.8,2.3-5.6,1.2-6.2-2.4
					C82.9,55,84.7,50.1,87.5,47.7z"/>
				<path class="st3" d="M89.6,48.5c1.4-1.1,2.7-1.5,3.8-1c0.7,0.3,0.9,0.4,1.6,0.8c0.3,0.2,0.7,0.5,1.1,0.9c0.2,0.2,0.6,0.6,1,1.2
					c0.5,0.7,0.8,1.3,0.8,1.5c0.2,0.4,0.4,0.9,0.5,1.6c0.2,0.8,0.2,1.4,0.2,1.7c0,0.8-0.1,2-0.7,3.4c-0.8,1.9-2.3,3.4-4.2,4.2
					c-0.9,0.4-1.9,0.6-2.9,0.6c-0.8,0-1.3-0.1-1.5-0.1c-0.6-0.1-1-0.2-1.5-0.4c-1.1-0.4-2-1.6-2.3-3.5C85,55.7,86.8,50.9,89.6,48.5z
					"/>
				<path class="st4" d="M89.1,50.2c-1.7,2-2.8,5-2.8,7.7c1.5,2.5,4.7,3.6,7.9,3.6c0.5-0.3,0.9-0.6,1.3-1
					C91.9,58.5,89.4,54.6,89.1,50.2z"/>
			</g>
			<g>
				<path class="st8" d="M101.3,51.9c-0.9-0.3-1.3-0.2-1.7,0.1l-1.2,1c-0.2,0-0.4,0-0.7-0.1c-0.1-0.1-0.3-0.1-0.5-0.2
					c-0.9-1-1.9-1.9-3.1-2.7l-1.3,1.1c2,1.8,3.6,4.3,4,6.6c0.2,1.4,0,2.5-0.5,3.3l1.1,1.2l1.3-1.1c0.7-1,0.9-2.4,0.6-4
					c-0.1-0.3-0.1-0.7-0.2-1l0.6-0.5c0.5-0.4,0.6-1.1,0.7-1.7c0.1,0,0.2,0.1,0.3,0.1L102,53l-0.1-0.8
					C101.7,52.1,101.5,52,101.3,51.9z M98.9,52.9C98.9,52.9,98.9,52.9,98.9,52.9C98.9,52.9,98.9,52.9,98.9,52.9z M98.5,53.1
					C98.5,53.1,98.5,53,98.5,53.1C98.5,53,98.5,53.1,98.5,53.1z M98.9,52.9c0,0-0.1,0-0.1,0C98.8,52.9,98.8,52.9,98.9,52.9z"/>
				<path class="st0" d="M100,53c0.2,0.1,0.4,0.1,0.6,0.2l0.1,0.8c-2.4-0.9-0.9,2.6-3,3c0.1,0.4,0.2,0.8,0.3,1.2
					c0.3,1.6,0.1,3-0.6,4c0,0-1.2-1.2-1.2-1.2c0.5-0.8,0.7-1.9,0.5-3.3c-0.4-2.4-2-4.9-4-6.6c1.2,0.8,2.3,1.7,3.1,2.7
					c0.2,0.1,0.3,0.2,0.5,0.2c1,0.3,1.3-0.1,1.6-0.6C98.4,53,98.8,52.6,100,53z"/>
			</g>
			<g>
				<path class="st5" d="M115.3,95.7c-3.6-12.3-6.8-22.2-16.5-28.3c-0.3-0.2-0.6-0.3-0.8-0.5c0,0-0.1,0-0.1-0.1
					c-1.1-0.8-2.9-1.8-3.9-0.9l-0.5,0.5c-0.7,0.6-0.8,2,0.3,3.9c6.3,7.9,6.9,14.8,5.1,19.5c-0.3,0.6,0.4,1.8,1.3,2.1l13.9,5.1
					c0.3,0.1,0.6,0.1,0.7-0.1c0.3-0.2,0.6-0.4,0.7-0.8c0-0.1,0-0.1,0-0.1C115.3,95.7,115.3,95.7,115.3,95.7z"/>
				<path class="st6" d="M96.8,69.2c-0.4-0.3-0.7-0.4-0.9-0.5c-0.8-0.3-1.1,0.2-0.9,0.7c6.6,8.3,7.8,15.7,6.3,20.9l10.8,4
					C108.6,82.6,105.5,74.3,96.8,69.2z"/>
			</g>
			<path class="st0" d="M104.6,88.1c0.1,0.6,0.7,1.3,1.4,1.5c0.7,0.2,1.1-0.1,1-0.7c-0.1-0.6-0.7-1.3-1.4-1.5
				C105,87.2,104.5,87.5,104.6,88.1z"/>
			<path class="st4" d="M68,47.5c0.3-1.2,0.9-2.5,1.5-3.5l14.9,5.6c-0.6,1.1-1.1,2.3-1.4,3.5L68,47.5z"/>
			<path class="st4" d="M67.8,48.5l15,5.6c-0.1,0.5-0.2,1-0.2,1.5l-14.9-5.5C67.6,49.5,67.7,49,67.8,48.5z"/>
		</g>
		<polygon class="st1" points="26.2,23.9 23.7,23 22.9,23.7 23.2,25.4 27.1,26.8 27.8,26.2 		"/>
	</g>
</g>
</svg>
