<?xml version="1.0" encoding="utf-8"?>
<!-- Generator: Adobe Illustrator 21.0.0, SVG Export Plug-In . SVG Version: 6.00 Build 0)  -->
<svg version="1.1" id="Слой_1" xmlns="http://www.w3.org/2000/svg" xmlns:xlink="http://www.w3.org/1999/xlink" x="0px" y="0px"
	 width="120px" height="120px" viewBox="0 0 120 120" style="enable-background:new 0 0 120 120;" xml:space="preserve">
<style type="text/css">
	.st0{fill:#3B4B72;}
	.st1{fill:#7C8AA6;}
	.st2{fill:#6A7D9B;}
	.st3{fill:#243C63;}
	.st4{opacity:0.4;fill:#FFFFFF;}
	.st5{fill:#2F4A72;}
	.st6{fill:#3C5C82;}
	.st7{fill:#EAB407;}
	.st8{fill:#D8130D;}
	.st9{fill:#AA0000;}
	.st10{fill:#FFD223;}
	.st11{fill:#233456;}
	.st12{fill:#2A3E5E;}
	.st13{fill:#FFDF78;}
	.st14{fill:#EA2F2F;}
</style>
<g id="Esport">
	<path class="st0" d="M103.5,65v35.2h-0.4c-0.3-0.7-0.6-1.4-1-2.1c0,0-0.1-0.1-0.1-0.1C95.4,85,79.1,76,60,76
		C39.9,76,22.8,86.1,17,100.2h-2.6V65H103.5z"/>
	<path class="st1" d="M116.1,62.9c-1.6-4.5-3.6-8.5-5.9-12.1C105.1,42.6,98.8,37,93,35.7V26H75.8c-3.5,3.7-9.4,6.1-15.8,6.1
		S47.7,29.7,44.3,26H24.5v10.6c-5.1,2.1-10.3,7.2-14.7,14.2c-2.2,3.6-4.2,7.7-5.9,12.1C-2.8,81.3-0.7,99,8.7,102.5
		c3.1,1.2,8,1.4,11.2-9.6c1.6-5.5,4.8-10.5,9.2-14.6c2-1.8,4.2-3.4,6.6-4.9c1.1-0.6,2.1-1.2,3.3-1.7c6.1-2.9,13.3-4.6,21-4.6
		c7.7,0,14.9,1.7,21,4.6c3.7,1.8,7.1,4,9.9,6.6c4.5,4.1,7.7,9.1,9.2,14.6c0.6,2,1.2,3.7,1.9,5c0,0,0,0.1,0.1,0.1
		c0.4,0.8,0.9,1.6,1.4,2.1c2.7,3.5,5.7,3.1,7.9,2.3C120.7,99,122.8,81.3,116.1,62.9z"/>
	<path class="st2" d="M46,27.5c-1.2-0.4-2.2-1-3.2-1.6h1.5C44.8,26.5,45.3,27,46,27.5z"/>
	<path class="st2" d="M75.7,68.7c1.8,0.8,3.5,1.8,5,2.8C74.7,68.7,67.6,67,60,67c-7.7,0-14.8,1.7-21,4.6c-1.1,0.5-2.2,1.1-3.3,1.7
		c-2.4,1.4-4.7,3-6.6,4.9c-4.5,4.1-7.7,9.1-9.2,14.6c-3.2,11-8.1,10.8-11.2,9.6c-1.4-0.5-2.7-1.4-3.7-2.5c3,0.6,7-0.7,9.7-10
		c1.6-5.5,4.8-10.5,9.2-14.6c2-1.8,4.2-3.4,6.6-4.9c1-0.6,2.1-1.2,3.3-1.7c6.1-3,13.3-4.6,21-4.6C62.4,64.1,69.6,65.8,75.7,68.7z"/>
	<path class="st2" d="M111.3,102.5c-2.2,0.8-5.2,1.2-7.9-2.3c0,0-0.1-0.1-0.1-0.1c1,0,1.9-0.3,2.7-0.5c9.3-3.5,11.4-21.2,4.7-39.5
		c-1.6-4.5-3.6-8.6-5.9-12.1c-3.1-5-6.6-8.9-10.2-11.6c5.3,1.9,10.9,7.2,15.5,14.6c2.2,3.6,4.2,7.7,5.9,12.1
		C122.8,81.3,120.7,99,111.3,102.5z"/>
	<path class="st2" d="M94.7,36.2c-0.6-0.2-1.2-0.4-1.7-0.5V35C93.6,35.4,94.2,35.8,94.7,36.2z"/>
	<ellipse class="st0" cx="27" cy="41.4" rx="21.1" ry="21.4"/>
	<ellipse class="st1" cx="27" cy="38.4" rx="21.1" ry="21.4"/>
	<path class="st2" d="M48.2,38.4c0,11.8-9.5,21.4-21.1,21.4c-6.5,0-12.3-2.9-16.1-7.6c3.5,2.6,7.8,4.1,12.4,4.1
		c11.7,0,21.1-9.6,21.1-21.4c0-5.3-1.9-10.1-5-13.8C44.8,25,48.2,31.3,48.2,38.4z"/>
	<ellipse class="st0" cx="93" cy="41.4" rx="21.1" ry="21.4"/>
	<ellipse class="st1" cx="93" cy="38.4" rx="21.1" ry="21.4"/>
	<path class="st2" d="M114.2,38.4c0,11.8-9.5,21.4-21.1,21.4c-6.5,0-12.3-3-16.2-7.7c3.7,3,8.3,4.9,13.5,4.9
		c11.7,0,21.1-9.6,21.1-21.4c0-5.2-1.8-10-4.9-13.7C111.2,25.8,114.2,31.8,114.2,38.4z"/>
	<ellipse class="st3" cx="93" cy="38.4" rx="14.4" ry="14.5"/>
	<path class="st4" d="M103.6,20.9c0.8,0.4,0.3,1.6-0.6,1.3c-1.9-0.6-3.9-0.9-5.9-0.9c-10.6,0-19.2,8.7-19.2,19.4
		c0,2.1,0.3,4.1,0.9,6c0.3,0.8-0.9,1.3-1.3,0.6c-1.5-2.8-2.3-5.9-2.3-9.3c0-10.7,8.6-19.4,19.2-19.4
		C97.8,18.6,100.9,19.4,103.6,20.9z"/>
	<ellipse class="st5" cx="93" cy="36.3" rx="14.4" ry="14.5"/>
	<path class="st6" d="M99.2,25c-1.2-0.3-2.4-0.5-3.6-0.5c-7.9,0-14.4,6.5-14.4,14.5c0,0.9,0.1,1.7,0.2,2.5c-0.9-1.7-1.4-3.7-1.4-5.7
		c0-7,5.6-12.7,12.6-12.7C95,23.1,97.3,23.8,99.2,25z"/>
	<g>
		<g>
			<ellipse class="st7" cx="27" cy="28.6" rx="3.7" ry="4.7"/>
			<ellipse class="st7" cx="27" cy="44.7" rx="3.7" ry="4.7"/>
		</g>
	</g>
	<g>
		<ellipse class="st8" cx="35" cy="36.6" rx="4.7" ry="3.7"/>
		<ellipse class="st8" cx="19" cy="36.6" rx="4.7" ry="3.7"/>
	</g>
	<g>
		<ellipse class="st9" cx="35" cy="36.6" rx="4.7" ry="3.7"/>
		<ellipse class="st9" cx="19" cy="36.6" rx="4.7" ry="3.7"/>
	</g>
	<g>
		<g>
			<ellipse class="st10" cx="27" cy="27.7" rx="3.7" ry="4.7"/>
			<ellipse class="st10" cx="27" cy="43.9" rx="3.7" ry="4.7"/>
		</g>
	</g>
	<g>
		<ellipse class="st8" cx="35" cy="35.8" rx="4.7" ry="3.7"/>
		<ellipse class="st8" cx="19" cy="35.8" rx="4.7" ry="3.7"/>
	</g>
	<ellipse class="st10" cx="50" cy="57.4" rx="4.1" ry="4.2"/>
	<ellipse class="st10" cx="69" cy="57.4" rx="4.1" ry="4.2"/>
	<path class="st3" d="M67.2,45.9H52.9c-0.6,0-1-0.5-1-1v-4.9c0-0.6,0.5-1,1-1h14.3c0.6,0,1,0.5,1,1v4.9
		C68.3,45.4,67.8,45.9,67.2,45.9z"/>
	<g>
		<ellipse class="st11" cx="93" cy="27.4" rx="1.4" ry="1.4"/>
		<ellipse class="st11" cx="93" cy="45.2" rx="1.4" ry="1.4"/>
	</g>
	<g>
		<ellipse class="st11" cx="101.8" cy="36.3" rx="1.4" ry="1.4"/>
		<ellipse class="st11" cx="84.2" cy="36.3" rx="1.4" ry="1.4"/>
		<ellipse class="st11" cx="93" cy="36.3" rx="4.1" ry="4.1"/>
		<ellipse class="st12" cx="93" cy="36.3" rx="3.2" ry="3.2"/>
	</g>
	<ellipse class="st13" cx="26.3" cy="27.5" rx="1.3" ry="2.8"/>
	<ellipse class="st13" cx="25.8" cy="43.9" rx="1.3" ry="2.8"/>
	<ellipse class="st14" cx="32.4" cy="35.8" rx="1.2" ry="2.1"/>
	<ellipse class="st14" cx="16.1" cy="35.8" rx="1.2" ry="2.1"/>
	<path class="st4" d="M35.8,20.9c0.8,0.4,0.3,1.6-0.6,1.3c-1.9-0.6-3.9-0.9-5.9-0.9c-10.6,0-19.2,8.7-19.2,19.4c0,2.1,0.3,4.1,0.9,6
		c0.3,0.8-0.9,1.3-1.3,0.6c-1.5-2.8-2.3-5.9-2.3-9.3c0-10.7,8.6-19.4,19.2-19.4C30,18.6,33.1,19.4,35.8,20.9z"/>
</g>
</svg>
