<?xml version="1.0" encoding="utf-8"?>
<!-- Generator: Adobe Illustrator 21.0.0, SVG Export Plug-In . SVG Version: 6.00 Build 0)  -->
<svg version="1.1" id="Слой_1" xmlns="http://www.w3.org/2000/svg" xmlns:xlink="http://www.w3.org/1999/xlink" x="0px" y="0px"
	 width="120px" height="120px" viewBox="0 0 120 120" style="enable-background:new 0 0 120 120;" xml:space="preserve">
<style type="text/css">
	.st0{fill:#AD412F;}
	.st1{fill:#851F41;}
	.st2{fill:#600023;}
	.st3{fill:url(#SVGID_1_);}
	.st4{filter:url(#Adobe_OpacityMaskFilter);}
	.st5{filter:url(#Adobe_OpacityMaskFilter_1_);}
	.st6{mask:url(#SVGID_2_);fill:url(#SVGID_3_);}
	.st7{fill:url(#SVGID_4_);}
	.st8{fill:#DACEC0;}
	.st9{fill:#708883;}
	.st10{fill:#22767D;}
	.st11{filter:url(#Adobe_OpacityMaskFilter_2_);}
	.st12{filter:url(#Adobe_OpacityMaskFilter_3_);}
	.st13{mask:url(#SVGID_5_);fill:url(#SVGID_6_);}
	.st14{fill:url(#SVGID_7_);}
	.st15{filter:url(#Adobe_OpacityMaskFilter_4_);}
	.st16{filter:url(#Adobe_OpacityMaskFilter_5_);}
	.st17{mask:url(#SVGID_8_);fill:url(#SVGID_9_);}
	.st18{fill:url(#SVGID_10_);}
</style>
<g id="TVgames">
	<polygon class="st0" points="118,97 32.4,120 2,47.5 107.5,22.1 	"/>
	<polygon class="st1" points="33.6,117.6 7.1,50.1 104.4,27 115.8,95.5 	"/>
	<polygon class="st2" points="7.1,50.1 33.6,117.6 43,103.5 27.2,58.7 82.6,43.7 104.4,27 	"/>
	
		<radialGradient id="SVGID_1_" cx="23.6208" cy="53.9255" r="78.52" gradientTransform="matrix(0.9609 -0.2588 0.2575 0.9659 -12.2129 13.3911)" gradientUnits="userSpaceOnUse">
		<stop  offset="0" style="stop-color:#D4CC81"/>
		<stop  offset="1.445279e-02" style="stop-color:#CFCA81"/>
		<stop  offset="0.2498" style="stop-color:#83B389"/>
		<stop  offset="0.4177" style="stop-color:#53A48D"/>
		<stop  offset="0.5011" style="stop-color:#419E8F"/>
		<stop  offset="1" style="stop-color:#2B5C6A"/>
	</radialGradient>
	<path class="st3" d="M91.3,90.5c-15.2,6-31.3,10.4-48.3,13c-9.1-15.3-14.4-30.2-15.8-44.9C44.2,50,62.7,45,82.6,43.7
		C89.3,58.7,92,74.3,91.3,90.5z"/>
	<defs>
		<filter id="Adobe_OpacityMaskFilter" filterUnits="userSpaceOnUse" x="29.2" y="45.7" width="52.2" height="55.7">
			<feColorMatrix  type="matrix" values="1 0 0 0 0  0 1 0 0 0  0 0 1 0 0  0 0 0 1 0"/>
		</filter>
	</defs>
	<mask maskUnits="userSpaceOnUse" x="29.2" y="45.7" width="52.2" height="55.7" id="SVGID_2_">
		<g class="st4">
			<defs>
				<filter id="Adobe_OpacityMaskFilter_1_" filterUnits="userSpaceOnUse" x="29.2" y="45.7" width="52.2" height="55.7">
					<feFlood  style="flood-color:white;flood-opacity:1" result="back"/>
					<feBlend  in="SourceGraphic" in2="back" mode="normal"/>
				</filter>
			</defs>
			<mask maskUnits="userSpaceOnUse" x="29.2" y="45.7" width="52.2" height="55.7" id="SVGID_2_">
				<g class="st5">
				</g>
			</mask>
			
				<linearGradient id="SVGID_3_" gradientUnits="userSpaceOnUse" x1="5.8999" y1="39.9118" x2="75.7637" y2="91.3151" gradientTransform="matrix(0.9659 -0.2588 0.2588 0.9659 -12.5871 13.3911)">
				<stop  offset="0" style="stop-color:#FFFFFF"/>
				<stop  offset="1" style="stop-color:#000000"/>
			</linearGradient>
			<path class="st6" d="M43.9,101.4c-8.3-14.2-13.3-28.2-14.7-41.6c8-4,16.5-7.2,25.2-9.5c8.7-2.3,17.8-3.9,27.1-4.6
				C62.9,51.2,46.5,58,37,64.9C37.6,76.1,40.2,88.5,43.9,101.4z"/>
		</g>
	</mask>
	
		<linearGradient id="SVGID_4_" gradientUnits="userSpaceOnUse" x1="5.8999" y1="39.9118" x2="75.7637" y2="91.3151" gradientTransform="matrix(0.9659 -0.2588 0.2588 0.9659 -12.5871 13.3911)">
		<stop  offset="0" style="stop-color:#FFF2CC"/>
		<stop  offset="1" style="stop-color:#FFF2CC"/>
	</linearGradient>
	<path class="st7" d="M43.9,101.4c-8.3-14.2-13.3-28.2-14.7-41.6c8-4,16.5-7.2,25.2-9.5c8.7-2.3,17.8-3.9,27.1-4.6
		C62.9,51.2,46.5,58,37,64.9C37.6,76.1,40.2,88.5,43.9,101.4z"/>
	<polygon class="st8" points="88.2,42.2 93.5,66 106,62.6 102.2,38.4 	"/>
	<path class="st8" d="M103.1,68.7c0.4,1.4-0.4,3-1.7,3.4s-2.7-0.2-3.1-1.6c-0.4-1.4,0.4-3,1.8-3.4C101.4,66.7,102.8,67.3,103.1,68.7
		z"/>
	<path class="st9" d="M107.4,78.9c0.7,2.8-0.8,6.1-3.5,6.9c-2.8,0.7-5.5-0.4-6.2-3.2c-0.7-2.8,0.8-6.1,3.6-6.9
		C103.9,74.9,106.6,76.1,107.4,78.9z"/>
	<polygon class="st8" points="99.2,85 104.6,75.8 106.1,76.7 100,85.5 	"/>
	<path class="st9" d="M91.7,51.6l10.6-3.2l0.3,1.9l-10.5,2.8L91.7,51.6z M92.7,55.9l10.3-2.8l-0.3-1.9l-10.4,3.2L92.7,55.9z
		 M93.4,58.7l10.1-2.7l-0.3-1.9L93,57.2L93.4,58.7z M94,61.6l10-2.7l-0.3-1.9l-10,3.1L94,61.6z M90.8,47.4l10.9-2.9l-0.3-1.9
		l-11,3.4L90.8,47.4z M94.3,62.8l0.3,1.3l9.8-2.6l-0.3-1.7L94.3,62.8z M101.3,41.6l-0.2-1.4l-11.2,3l0.3,1.4L101.3,41.6z M91.5,50.3
		l10.7-2.9l-0.3-1.9l-10.8,3.3L91.5,50.3z"/>
	<path class="st9" d="M39.2,38.5c0,0,4-10.5,10.2-11.8c7.2-1.5,15.7,5.5,15.7,5.5L39.2,38.5z"/>
	<polygon class="st10" points="44.4,29.9 22.3,12.5 22.2,10.6 18.9,10.1 19.2,13.2 21.4,13.3 44,30.4 	"/>
	<polygon class="st10" points="55.8,27.5 70.5,3.4 69.9,1.6 72.8,0 73.6,3.1 71.6,3.9 56.4,27.9 	"/>
	<defs>
		<filter id="Adobe_OpacityMaskFilter_2_" filterUnits="userSpaceOnUse" x="33.6" y="51.3" width="41.2" height="44.8">
			<feColorMatrix  type="matrix" values="1 0 0 0 0  0 1 0 0 0  0 0 1 0 0  0 0 0 1 0"/>
		</filter>
	</defs>
	<mask maskUnits="userSpaceOnUse" x="33.6" y="51.3" width="41.2" height="44.8" id="SVGID_5_">
		<g class="st11">
			<defs>
				<filter id="Adobe_OpacityMaskFilter_3_" filterUnits="userSpaceOnUse" x="33.6" y="51.3" width="41.2" height="44.8">
					<feFlood  style="flood-color:white;flood-opacity:1" result="back"/>
					<feBlend  in="SourceGraphic" in2="back" mode="normal"/>
				</filter>
			</defs>
			<mask maskUnits="userSpaceOnUse" x="33.6" y="51.3" width="41.2" height="44.8" id="SVGID_5_">
				<g class="st12">
				</g>
			</mask>
			
				<linearGradient id="SVGID_6_" gradientUnits="userSpaceOnUse" x1="69.5903" y1="44.3065" x2="43.1468" y2="93.3425" gradientTransform="matrix(-0.9659 0.2588 0.2588 0.9659 88.833 -13.7843)">
				<stop  offset="0" style="stop-color:#FFFFFF"/>
				<stop  offset="1" style="stop-color:#000000"/>
			</linearGradient>
			<path class="st13" d="M39.1,55.7c6,13.9,15.7,26.9,27.5,39.6L63.9,96C50.4,85,40.4,73.5,33.6,58.4C35.2,57.3,37.1,56.4,39.1,55.7
				z M42.2,54.2c5.3,14,15.2,27.6,27.3,40.4l5.4-1.4c-9.3-14-16.8-28-20.6-41.8C50.5,51,46.3,52,42.2,54.2z"/>
		</g>
	</mask>
	
		<linearGradient id="SVGID_7_" gradientUnits="userSpaceOnUse" x1="69.5903" y1="44.3065" x2="43.1468" y2="93.3425" gradientTransform="matrix(-0.9659 0.2588 0.2588 0.9659 88.833 -13.7843)">
		<stop  offset="0" style="stop-color:#FFF2CC"/>
		<stop  offset="1" style="stop-color:#FFF2CC"/>
	</linearGradient>
	<path class="st14" d="M39.1,55.7c6,13.9,15.7,26.9,27.5,39.6L63.9,96C50.4,85,40.4,73.5,33.6,58.4C35.2,57.3,37.1,56.4,39.1,55.7z
		 M42.2,54.2c5.3,14,15.2,27.6,27.3,40.4l5.4-1.4c-9.3-14-16.8-28-20.6-41.8C50.5,51,46.3,52,42.2,54.2z"/>
	<defs>
		<filter id="Adobe_OpacityMaskFilter_4_" filterUnits="userSpaceOnUse" x="41.5" y="28" width="10.9" height="9.1">
			<feColorMatrix  type="matrix" values="1 0 0 0 0  0 1 0 0 0  0 0 1 0 0  0 0 0 1 0"/>
		</filter>
	</defs>
	<mask maskUnits="userSpaceOnUse" x="41.5" y="28" width="10.9" height="9.1" id="SVGID_8_">
		<g class="st15">
			<defs>
				<filter id="Adobe_OpacityMaskFilter_5_" filterUnits="userSpaceOnUse" x="41.5" y="28" width="10.9" height="9.1">
					<feFlood  style="flood-color:white;flood-opacity:1" result="back"/>
					<feBlend  in="SourceGraphic" in2="back" mode="normal"/>
				</filter>
			</defs>
			<mask maskUnits="userSpaceOnUse" x="41.5" y="28" width="10.9" height="9.1" id="SVGID_8_">
				<g class="st16">
				</g>
			</mask>
			
				<linearGradient id="SVGID_9_" gradientUnits="userSpaceOnUse" x1="47.4492" y1="45.5753" x2="57.0458" y2="26.0623" gradientTransform="matrix(0.9659 -0.2588 0.2588 0.9659 -12.5871 13.3911)">
				<stop  offset="0" style="stop-color:#FFFFFF"/>
				<stop  offset="1" style="stop-color:#000000"/>
			</linearGradient>
			<path class="st17" d="M47.8,28.5c-2.9,2.5-5,5.5-6.3,8.7l10.9-2.9c-1.7-2.1-2.9-4.1-3-6.2L47.8,28.5z"/>
		</g>
	</mask>
	
		<linearGradient id="SVGID_10_" gradientUnits="userSpaceOnUse" x1="47.4492" y1="45.5753" x2="57.0458" y2="26.0623" gradientTransform="matrix(0.9659 -0.2588 0.2588 0.9659 -12.5871 13.3911)">
		<stop  offset="0" style="stop-color:#FFF2CC"/>
		<stop  offset="1" style="stop-color:#FFF2CC"/>
	</linearGradient>
	<path class="st18" d="M47.8,28.5c-2.9,2.5-5,5.5-6.3,8.7l10.9-2.9c-1.7-2.1-2.9-4.1-3-6.2L47.8,28.5z"/>
</g>
</svg>
