<?xml version="1.0" encoding="utf-8"?>
<!-- Generator: Adobe Illustrator 21.0.0, SVG Export Plug-In . SVG Version: 6.00 Build 0)  -->
<svg version="1.1" id="Слой_1" xmlns="http://www.w3.org/2000/svg" xmlns:xlink="http://www.w3.org/1999/xlink" x="0px" y="0px"
	 width="120px" height="120px" viewBox="0 0 120 120" style="enable-background:new 0 0 120 120;" xml:space="preserve">
<style type="text/css">
	.st0{fill:url(#SVGID_1_);}
	.st1{fill:url(#SVGID_2_);}
	.st2{fill:url(#SVGID_3_);}
	.st3{fill:url(#SVGID_4_);}
	.st4{fill:url(#SVGID_5_);}
	.st5{fill:url(#SVGID_6_);}
	.st6{fill:url(#SVGID_7_);}
	.st7{fill:url(#SVGID_8_);}
	.st8{fill:url(#SVGID_9_);}
	.st9{fill:url(#SVGID_10_);}
	.st10{fill:#FF4D45;}
	.st11{fill:#830045;}
	.st12{opacity:0.5;fill:url(#SVGID_11_);}
	.st13{fill:url(#SVGID_12_);}
	.st14{fill:url(#SVGID_13_);}
	.st15{fill:url(#SVGID_14_);}
	.st16{fill:url(#SVGID_15_);}
	.st17{fill:url(#SVGID_16_);}
	.st18{fill:url(#SVGID_17_);}
	.st19{fill:#CC819B;}
	.st20{fill:url(#SVGID_18_);}
	.st21{fill:url(#SVGID_19_);}
	.st22{fill:url(#SVGID_20_);}
	.st23{fill:url(#SVGID_21_);}
	.st24{fill:url(#SVGID_22_);}
	.st25{fill:url(#SVGID_23_);}
	.st26{fill:url(#SVGID_24_);}
	.st27{fill:url(#SVGID_25_);}
	.st28{clip-path:url(#SVGID_27_);}
	.st29{fill:url(#SVGID_28_);}
	.st30{fill:url(#SVGID_29_);}
	.st31{fill:url(#SVGID_30_);}
	.st32{fill:#FFFFFF;}
	.st33{fill:url(#SVGID_31_);}
	.st34{fill:url(#SVGID_32_);}
	.st35{fill:url(#SVGID_33_);}
	.st36{fill:url(#SVGID_34_);}
	.st37{fill:#392F63;}
	.st38{fill:url(#SVGID_35_);}
	.st39{fill:url(#SVGID_36_);}
	.st40{fill:url(#SVGID_37_);}
	.st41{fill:#D00500;}
	.st42{fill:#560500;}
	.st43{fill:url(#SVGID_38_);}
	.st44{fill:url(#SVGID_39_);}
	.st45{fill:url(#SVGID_40_);}
	.st46{fill:#9F1034;}
	.st47{fill:url(#SVGID_41_);}
	.st48{fill:url(#SVGID_42_);}
	.st49{fill:url(#SVGID_43_);}
	.st50{fill:url(#SVGID_44_);}
	.st51{fill:url(#SVGID_45_);}
	.st52{fill:url(#SVGID_46_);}
	.st53{fill:url(#SVGID_47_);}
	.st54{fill:url(#SVGID_48_);}
	.st55{fill:url(#SVGID_49_);}
	.st56{fill:url(#SVGID_50_);}
	.st57{fill:url(#SVGID_51_);}
	.st58{opacity:0.8;fill:url(#SVGID_52_);}
	.st59{opacity:0.8;fill:url(#SVGID_53_);}
	.st60{fill:url(#SVGID_54_);}
	.st61{fill:url(#SVGID_55_);}
	.st62{fill:url(#SVGID_56_);}
	.st63{fill:url(#SVGID_57_);}
</style>
<g id="Casino">
	<linearGradient id="SVGID_1_" gradientUnits="userSpaceOnUse" x1="99.101" y1="69.4942" x2="99.101" y2="36.8094">
		<stop  offset="0.1468" style="stop-color:#C9AEAA"/>
		<stop  offset="0.6091" style="stop-color:#876B7E"/>
		<stop  offset="1" style="stop-color:#C0AEB8"/>
	</linearGradient>
	<path class="st0" d="M88.4,63.5l19-26.6l2.4,1.6L92.4,69.5C92.4,69.5,89.2,69.9,88.4,63.5z"/>
	<linearGradient id="SVGID_2_" gradientUnits="userSpaceOnUse" x1="23.6335" y1="120" x2="23.6335" y2="-9.094947e-13">
		<stop  offset="0" style="stop-color:#D94D42"/>
		<stop  offset="1" style="stop-color:#C76127"/>
	</linearGradient>
	<polygon class="st1" points="11.1,118.7 5,2.6 16.1,0 42.3,93 38,120 	"/>
	<linearGradient id="SVGID_3_" gradientUnits="userSpaceOnUse" x1="26.9927" y1="181.4852" x2="106.5515" y2="-111.1137">
		<stop  offset="0" style="stop-color:#FF9036"/>
		<stop  offset="1" style="stop-color:#FFBD0C"/>
	</linearGradient>
	<polygon class="st2" points="94.6,120 38,120 36.2,90 16.1,0 80.7,3 112.4,89 	"/>
	<linearGradient id="SVGID_4_" gradientUnits="userSpaceOnUse" x1="63.1095" y1="88.447" x2="63.1095" y2="6.2832">
		<stop  offset="0" style="stop-color:#D94D42"/>
		<stop  offset="1" style="stop-color:#C76127"/>
	</linearGradient>
	<polygon class="st3" points="44.9,88.4 19.7,6.3 78.2,7.6 106.5,88 	"/>
	<linearGradient id="SVGID_5_" gradientUnits="userSpaceOnUse" x1="34.5483" y1="76.1432" x2="77.0044" y2="10.7665">
		<stop  offset="0" style="stop-color:#C9AEAA"/>
		<stop  offset="0.129" style="stop-color:#876B7E"/>
		<stop  offset="1" style="stop-color:#C0AEB8"/>
	</linearGradient>
	<polygon class="st4" points="20.4,8.5 76.1,10.2 89.1,81.7 42.8,81.5 	"/>
	<linearGradient id="SVGID_6_" gradientUnits="userSpaceOnUse" x1="42.8107" y1="84.9779" x2="106.5011" y2="84.9779">
		<stop  offset="0" style="stop-color:#FFD5CB"/>
		<stop  offset="1" style="stop-color:#FFFEDC"/>
	</linearGradient>
	<polygon class="st5" points="106.5,88 89.1,81.7 42.8,81.5 44.9,88.4 	"/>
	<linearGradient id="SVGID_7_" gradientUnits="userSpaceOnUse" x1="54.5984" y1="70.9536" x2="54.5984" y2="19.0629">
		<stop  offset="0" style="stop-color:#C9AEAA"/>
		<stop  offset="0.756" style="stop-color:#876B7E"/>
	</linearGradient>
	<polygon class="st6" points="23.6,19.1 74.7,19.7 85.6,70.1 39.6,71 	"/>
	<linearGradient id="SVGID_8_" gradientUnits="userSpaceOnUse" x1="53.1965" y1="68.7611" x2="53.1965" y2="20.4876">
		<stop  offset="0" style="stop-color:#FFFEDC"/>
		<stop  offset="1" style="stop-color:#FFD5C1"/>
	</linearGradient>
	<polygon class="st7" points="82.3,68.8 38.9,68.8 33.8,52 33.7,52 33.6,51.4 31,43 30.8,42.3 29.6,38.4 29.4,37.7 24.1,20.5 
		72.8,20.9 	"/>
	<g>
		<g>
			<linearGradient id="SVGID_9_" gradientUnits="userSpaceOnUse" x1="35.1546" y1="52.0478" x2="35.1546" y2="37.7128">
				<stop  offset="0" style="stop-color:#A20034"/>
				<stop  offset="0.1761" style="stop-color:#B30039"/>
				<stop  offset="0.4783" style="stop-color:#CB0040"/>
				<stop  offset="0.7603" style="stop-color:#D90044"/>
				<stop  offset="1" style="stop-color:#DE0045"/>
			</linearGradient>
			<path class="st8" d="M40.4,37.7h-11l0.2,0.7l1.2,3.9L31,43l2.7,0l-0.3-1.7l2.8,0c-0.4,0.7-0.7,1.5-1.1,2.4
				c-0.4,0.9-0.7,1.8-0.9,2.7c-0.3,0.9-0.4,1.9-0.5,2.8c-0.1,0.7-0.1,1.5,0,2.2l0.2,0.6l0,0.1l5.2-0.2c-0.1-0.6-0.2-1.3-0.2-1.9
				c0-0.7,0-1.3,0.1-2c0.1-0.7,0.2-1.3,0.3-2c0.2-0.7,0.4-1.5,0.6-2.3c0.2-0.9,0.6-1.9,1.2-3.2L40.4,37.7z"/>
			<linearGradient id="SVGID_10_" gradientUnits="userSpaceOnUse" x1="34.8983" y1="51.3414" x2="34.8983" y2="38.3803">
				<stop  offset="0" style="stop-color:#D60034"/>
				<stop  offset="0.2394" style="stop-color:#DA0C3A"/>
				<stop  offset="0.6572" style="stop-color:#DF1B42"/>
				<stop  offset="1" style="stop-color:#E12045"/>
			</linearGradient>
			<path class="st9" d="M40.2,40.3c-0.3,0.7-0.5,1.3-0.7,1.9c-0.2,0.4-0.3,0.8-0.4,1.2c-0.2,0.9-0.5,1.7-0.6,2.3
				c-0.2,0.7-0.3,1.4-0.4,2.1c0,0.4-0.1,0.7-0.1,1.1c0,0.3,0,0.7,0,1c0,0.5,0,0.9,0.1,1.4l-3.9,0.1c-0.1-0.6-0.1-1.3,0-1.9
				c0,0,0-0.1,0-0.1c0.1-0.9,0.3-1.8,0.5-2.7c0.3-0.9,0.6-1.8,0.9-2.7c0.1-0.2,0.2-0.4,0.3-0.6c0.3-0.6,0.5-1.2,0.8-1.7l0.6-1.1
				l-4.8,0l0.3,1.7l-2.1,0l-1.2-3.9l10.2,0L40.2,40.3z"/>
		</g>
		<polygon class="st10" points="40.4,37.7 39.8,38.4 29.6,38.4 29.4,37.7 		"/>
		<polygon class="st11" points="39,51.9 33.8,52 33.7,52 34.3,51.3 38.2,51.2 		"/>
		<polygon class="st11" points="33.7,43 31,43 30.8,42.3 32.9,42.3 		"/>
		<polygon class="st11" points="33.3,41.3 32.5,40.6 37.3,40.6 36.1,41.3 		"/>
	</g>
	<linearGradient id="SVGID_11_" gradientUnits="userSpaceOnUse" x1="79.1936" y1="70.1086" x2="79.1936" y2="19.7143">
		<stop  offset="1.117320e-02" style="stop-color:#BE6888"/>
		<stop  offset="1" style="stop-color:#8E81F4"/>
	</linearGradient>
	<polygon class="st12" points="82.3,68.8 85.6,70.1 74.7,19.7 72.8,20.9 	"/>
	<g>
		<g>
			<linearGradient id="SVGID_12_" gradientUnits="userSpaceOnUse" x1="52.4208" y1="52.0449" x2="52.4208" y2="37.7108">
				<stop  offset="0" style="stop-color:#A20034"/>
				<stop  offset="0.1761" style="stop-color:#B30039"/>
				<stop  offset="0.4783" style="stop-color:#CB0040"/>
				<stop  offset="0.7603" style="stop-color:#D90044"/>
				<stop  offset="1" style="stop-color:#DE0045"/>
			</linearGradient>
			<path class="st13" d="M46.3,37.7h11.6l0.6,2.7c-0.5,1.3-0.9,2.3-1.2,3.2c-0.2,0.9-0.4,1.6-0.6,2.3c-0.2,0.7-0.3,1.4-0.3,2
				c-0.1,0.7-0.1,1.3-0.1,2c0,0.7,0.1,1.3,0.2,1.9L51.3,52c-0.2-1-0.2-1.9-0.1-2.9c0.1-1,0.3-1.9,0.5-2.8c0.3-0.9,0.6-1.8,0.9-2.7
				c0.4-0.9,0.7-1.7,1.1-2.4l-2.8,0l0.3,1.7l-3.9,0L46.3,37.7z"/>
			<linearGradient id="SVGID_13_" gradientUnits="userSpaceOnUse" x1="52.469" y1="51.3396" x2="52.469" y2="38.3801">
				<stop  offset="0" style="stop-color:#D60034"/>
				<stop  offset="0.2394" style="stop-color:#DA0C3A"/>
				<stop  offset="0.6572" style="stop-color:#DF1B42"/>
				<stop  offset="1" style="stop-color:#E12045"/>
			</linearGradient>
			<path class="st14" d="M57.4,38.4l0.4,1.9c-0.3,0.7-0.5,1.3-0.7,1.9c-0.2,0.4-0.3,0.8-0.4,1.2c-0.2,0.9-0.5,1.7-0.6,2.4
				c-0.2,0.7-0.3,1.4-0.3,2.1c0,0.4-0.1,0.7-0.1,1.1c0,0.3,0,0.7,0,1c0,0.5,0,0.9,0.1,1.4l-3.9,0.1c-0.1-0.6-0.1-1.3,0-1.9
				c0,0,0-0.1,0-0.1c0.1-0.9,0.3-1.8,0.5-2.7c0.3-0.9,0.6-1.8,0.9-2.7c0.1-0.2,0.2-0.4,0.3-0.6c0.3-0.6,0.5-1.2,0.8-1.7l0.6-1.1
				l-4.8,0l0.3,1.7l-2.5,0l-0.8-3.9L57.4,38.4z"/>
		</g>
		<polygon class="st10" points="46.3,37.7 47.1,38.4 57.4,38.4 57.9,37.7 		"/>
		<polygon class="st11" points="56.6,51.9 55.8,51.2 51.8,51.3 51.3,52 		"/>
		<polygon class="st11" points="51.3,43 50.4,42.3 47.9,42.3 47.4,43 		"/>
		<polygon class="st11" points="50.9,41.3 50.1,40.6 54.9,40.6 53.7,41.3 		"/>
	</g>
	<g>
		<g>
			<linearGradient id="SVGID_14_" gradientUnits="userSpaceOnUse" x1="69.3244" y1="52.0449" x2="69.3244" y2="37.7108">
				<stop  offset="0" style="stop-color:#A20034"/>
				<stop  offset="0.1761" style="stop-color:#B30039"/>
				<stop  offset="0.4783" style="stop-color:#CB0040"/>
				<stop  offset="0.7603" style="stop-color:#D90044"/>
				<stop  offset="1" style="stop-color:#DE0045"/>
			</linearGradient>
			<path class="st15" d="M63.2,37.7h11.6l0.6,2.7c-0.5,1.3-0.9,2.3-1.2,3.2c-0.2,0.9-0.4,1.6-0.6,2.3c-0.2,0.7-0.3,1.4-0.3,2
				c-0.1,0.7-0.1,1.3-0.1,2c0,0.7,0.1,1.3,0.2,1.9L68.2,52c-0.2-1-0.2-1.9-0.1-2.9c0.1-1,0.3-1.9,0.5-2.8c0.3-0.9,0.6-1.8,0.9-2.7
				c0.4-0.9,0.7-1.7,1.1-2.4l-2.8,0l0.3,1.7l-3.9,0L63.2,37.7z"/>
			<linearGradient id="SVGID_15_" gradientUnits="userSpaceOnUse" x1="69.3726" y1="51.3396" x2="69.3726" y2="38.3801">
				<stop  offset="0" style="stop-color:#D60034"/>
				<stop  offset="0.2394" style="stop-color:#DA0C3A"/>
				<stop  offset="0.6572" style="stop-color:#DF1B42"/>
				<stop  offset="1" style="stop-color:#E12045"/>
			</linearGradient>
			<path class="st16" d="M74.3,38.4l0.4,1.9c-0.3,0.7-0.5,1.3-0.7,1.9c-0.2,0.4-0.3,0.8-0.4,1.2c-0.2,0.9-0.5,1.7-0.6,2.4
				c-0.2,0.7-0.3,1.4-0.3,2.1c0,0.4-0.1,0.7-0.1,1.1c0,0.3,0,0.7,0,1c0,0.5,0,0.9,0.1,1.4l-3.9,0.1c-0.1-0.6-0.1-1.3,0-1.9
				c0,0,0-0.1,0-0.1c0.1-0.9,0.3-1.8,0.5-2.7c0.3-0.9,0.6-1.8,0.9-2.7c0.1-0.2,0.2-0.4,0.3-0.6c0.3-0.6,0.5-1.2,0.8-1.7l0.6-1.1
				l-4.8,0l0.3,1.7l-2.5,0L64,38.4L74.3,38.4z"/>
		</g>
		<polygon class="st10" points="63.2,37.7 64,38.4 74.3,38.4 74.9,37.7 		"/>
		<polygon class="st11" points="73.5,51.9 72.7,51.2 68.8,51.3 68.2,52 		"/>
		<polygon class="st11" points="68.2,43 67.3,42.3 64.8,42.3 64.3,43 		"/>
		<polygon class="st11" points="67.8,41.3 67,40.6 71.8,40.6 70.6,41.3 		"/>
	</g>
	<linearGradient id="SVGID_16_" gradientUnits="userSpaceOnUse" x1="62.8506" y1="68.7608" x2="62.8506" y2="20.8001">
		<stop  offset="0" style="stop-color:#C9AEAA"/>
		<stop  offset="0.756" style="stop-color:#876B7E"/>
		<stop  offset="1" style="stop-color:#C0AEB8"/>
	</linearGradient>
	<polygon class="st17" points="68.3,68.8 57,20.8 58.3,20.8 68.7,68.8 	"/>
	<linearGradient id="SVGID_17_" gradientUnits="userSpaceOnUse" x1="43.7945" y1="68.7608" x2="43.7945" y2="20.6651">
		<stop  offset="0" style="stop-color:#C9AEAA"/>
		<stop  offset="0.756" style="stop-color:#876B7E"/>
		<stop  offset="1" style="stop-color:#C0AEB8"/>
	</linearGradient>
	<polygon class="st18" points="49.3,68.8 38.1,20.7 39.4,20.7 49.5,68.8 	"/>
	<polygon class="st19" points="89.1,81.7 80.4,81.4 74,14 21.3,11.3 20.4,8.5 76.1,10.2 	"/>
	<g>
		<g>
			<g>
				
					<linearGradient id="SVGID_18_" gradientUnits="userSpaceOnUse" x1="80.3973" y1="77.4076" x2="80.4161" y2="74.9952" gradientTransform="matrix(1.1406 8.900000e-03 8.900000e-03 1.0638 13.7341 -2.7309)">
					<stop  offset="0" style="stop-color:#9A0065"/>
					<stop  offset="1" style="stop-color:#CC1A6D"/>
				</linearGradient>
				<path class="st20" d="M104.9,78.9c-0.1,0.7,0.4,1.3,1.1,1.4c0.7,0.1,1.3-0.4,1.3-1.1c0.1-0.7-0.4-1.3-1.1-1.4
					C105.6,77.7,105,78.2,104.9,78.9z"/>
			</g>
		</g>
		
			<radialGradient id="SVGID_19_" cx="108.3766" cy="78.7065" r="2.2664" gradientTransform="matrix(1.0013 0 0 1 -7.585089e-02 0)" gradientUnits="userSpaceOnUse">
			<stop  offset="0" style="stop-color:#FFFFEB"/>
			<stop  offset="1" style="stop-color:#FFFFC0"/>
		</radialGradient>
		<ellipse class="st21" cx="107.7" cy="78.9" rx="2.3" ry="2.3"/>
	</g>
	<g>
		<g>
			<g>
				
					<linearGradient id="SVGID_20_" gradientUnits="userSpaceOnUse" x1="75.1283" y1="60.7424" x2="75.1472" y2="58.33" gradientTransform="matrix(1.1406 8.900000e-03 8.900000e-03 1.0638 13.7341 -2.7309)">
					<stop  offset="0" style="stop-color:#9A0065"/>
					<stop  offset="1" style="stop-color:#CC1A6D"/>
				</linearGradient>
				<path class="st22" d="M98.8,61.1c-0.1,0.7,0.4,1.3,1.1,1.4c0.7,0.1,1.3-0.4,1.3-1.1c0.1-0.7-0.4-1.3-1.1-1.4
					C99.4,59.9,98.8,60.4,98.8,61.1z"/>
			</g>
		</g>
		
			<radialGradient id="SVGID_21_" cx="102.2264" cy="60.9312" r="2.2664" gradientTransform="matrix(1.0013 0 0 1 -7.585089e-02 0)" gradientUnits="userSpaceOnUse">
			<stop  offset="0" style="stop-color:#FFFFEB"/>
			<stop  offset="1" style="stop-color:#FFFFC0"/>
		</radialGradient>
		<ellipse class="st23" cx="101.5" cy="61.1" rx="2.3" ry="2.3"/>
	</g>
	<g>
		<g>
			<g>
				
					<linearGradient id="SVGID_22_" gradientUnits="userSpaceOnUse" x1="69.8703" y1="45.0755" x2="69.8891" y2="42.6631" gradientTransform="matrix(1.1406 8.900000e-03 8.900000e-03 1.0638 13.7341 -2.7309)">
					<stop  offset="0" style="stop-color:#9A0065"/>
					<stop  offset="1" style="stop-color:#CC1A6D"/>
				</linearGradient>
				<path class="st24" d="M92.6,44.4c-0.1,0.7,0.4,1.3,1.1,1.4c0.7,0.1,1.3-0.4,1.3-1.1c0.1-0.7-0.4-1.3-1.1-1.4
					C93.3,43.2,92.7,43.7,92.6,44.4z"/>
			</g>
		</g>
		
			<radialGradient id="SVGID_23_" cx="96.0973" cy="44.2179" r="2.2664" gradientTransform="matrix(1.0013 0 0 1 -7.585089e-02 0)" gradientUnits="userSpaceOnUse">
			<stop  offset="0" style="stop-color:#FFFFEB"/>
			<stop  offset="1" style="stop-color:#FFFFC0"/>
		</radialGradient>
		<ellipse class="st25" cx="95.4" cy="44.4" rx="2.3" ry="2.3"/>
	</g>
	<g>
		<g>
			<g>
				
					<linearGradient id="SVGID_24_" gradientUnits="userSpaceOnUse" x1="64.3925" y1="29.0511" x2="64.4113" y2="26.6388" gradientTransform="matrix(1.1406 8.900000e-03 8.900000e-03 1.0638 13.7341 -2.7309)">
					<stop  offset="0" style="stop-color:#9A0065"/>
					<stop  offset="1" style="stop-color:#CC1A6D"/>
				</linearGradient>
				<path class="st26" d="M86.2,27.3c-0.1,0.7,0.4,1.3,1.1,1.4c0.7,0.1,1.3-0.4,1.3-1.1c0.1-0.7-0.4-1.3-1.1-1.4
					C86.9,26.1,86.3,26.6,86.2,27.3z"/>
			</g>
		</g>
		
			<radialGradient id="SVGID_25_" cx="89.7148" cy="27.1224" r="2.2664" gradientTransform="matrix(1.0013 0 0 1 -7.585089e-02 0)" gradientUnits="userSpaceOnUse">
			<stop  offset="0" style="stop-color:#FFFFEB"/>
			<stop  offset="1" style="stop-color:#FFFFC0"/>
		</radialGradient>
		<ellipse class="st27" cx="89" cy="27.3" rx="2.3" ry="2.3"/>
	</g>
	<g>
		<defs>
			<polygon id="SVGID_26_" points="24.1,20.5 38.9,68.8 82.3,68.8 72.8,20.9 			"/>
		</defs>
		<clipPath id="SVGID_27_">
			<use xlink:href="#SVGID_26_"  style="overflow:visible;"/>
		</clipPath>
		<g class="st28">
			<g>
				<linearGradient id="SVGID_28_" gradientUnits="userSpaceOnUse" x1="47.137" y1="33.2063" x2="47.137" y2="22.7206">
					<stop  offset="0" style="stop-color:#FF9036"/>
					<stop  offset="1" style="stop-color:#FFBD0C"/>
				</linearGradient>
				<path class="st29" d="M52.8,27.5c0.5,3.2-1.6,5.7-4.7,5.7c-3.1,0-6.1-2.6-6.6-5.8c-0.5-3.2,1.8-4.7,4.9-4.7
					C49.5,22.7,52.2,24.3,52.8,27.5z"/>
				<linearGradient id="SVGID_29_" gradientUnits="userSpaceOnUse" x1="46.7183" y1="23.9158" x2="46.7183" y2="23.0617">
					<stop  offset="0" style="stop-color:#FF9036"/>
					<stop  offset="1" style="stop-color:#FF980C"/>
				</linearGradient>
				<path class="st30" d="M48,23.5c0,0.2-0.5,0.4-1.3,0.4c-0.7,0-1.4-0.2-1.4-0.4c0-0.2,0.5-0.4,1.3-0.4C47.4,23.1,48,23.3,48,23.5z
					"/>
				<linearGradient id="SVGID_30_" gradientUnits="userSpaceOnUse" x1="47.03" y1="23.5256" x2="47.03" y2="20.6804">
					<stop  offset="5.586590e-03" style="stop-color:#367244"/>
					<stop  offset="0.9888" style="stop-color:#898133"/>
				</linearGradient>
				<path class="st31" d="M46.5,23.3c0,0-0.1-1.3,0.3-2.6c0,0,0.5,0,0.8,0.2c0,0-0.8,1-0.8,2.6C46.8,23.5,46.7,23.6,46.5,23.3z"/>
				<path class="st32" d="M43.4,25.9c-0.1,0.5-0.4,0.9-0.8,0.7c-0.3-0.1-0.6-0.6-0.5-1.1c0.1-0.5,0.4-0.8,0.8-0.7
					C43.2,24.9,43.5,25.4,43.4,25.9z"/>
			</g>
			<g>
				<linearGradient id="SVGID_31_" gradientUnits="userSpaceOnUse" x1="75.5857" y1="68.7417" x2="75.5857" y2="58.3152">
					<stop  offset="0" style="stop-color:#FF9036"/>
					<stop  offset="1" style="stop-color:#FFBD0C"/>
				</linearGradient>
				<path class="st33" d="M81.5,63c0.7,3.2-1.5,5.7-4.8,5.7c-3.3,0-6.5-2.6-7.1-5.7c-0.6-3.2,1.7-4.7,5-4.7
					C77.9,58.3,80.9,59.8,81.5,63z"/>
				<linearGradient id="SVGID_32_" gradientUnits="userSpaceOnUse" x1="75.0094" y1="59.5016" x2="75.0094" y2="58.6525">
					<stop  offset="0" style="stop-color:#FF9036"/>
					<stop  offset="1" style="stop-color:#FF980C"/>
				</linearGradient>
				<path class="st34" d="M76.4,59.1c0,0.2-0.5,0.4-1.3,0.4c-0.8,0-1.4-0.2-1.5-0.4c0-0.2,0.5-0.4,1.3-0.4S76.4,58.8,76.4,59.1z"/>
				<linearGradient id="SVGID_33_" gradientUnits="userSpaceOnUse" x1="75.2842" y1="59.1138" x2="75.2842" y2="56.2803">
					<stop  offset="5.586590e-03" style="stop-color:#367244"/>
					<stop  offset="0.9888" style="stop-color:#898133"/>
				</linearGradient>
				<path class="st35" d="M74.7,58.9c0,0-0.2-1.3,0.3-2.6c0,0,0.5,0,0.9,0.2c0,0-0.8,1-0.8,2.6C75.1,59.1,74.9,59.2,74.7,58.9z"/>
				<path class="st32" d="M71.6,61.5c-0.1,0.5-0.4,0.8-0.8,0.7c-0.4-0.1-0.6-0.6-0.6-1.1c0.1-0.5,0.4-0.8,0.8-0.7
					C71.4,60.5,71.6,61,71.6,61.5z"/>
			</g>
			<g>
				<linearGradient id="SVGID_34_" gradientUnits="userSpaceOnUse" x1="31.7154" y1="32.4155" x2="31.7154" y2="24.3609">
					<stop  offset="0" style="stop-color:#3B1B74"/>
					<stop  offset="1" style="stop-color:#773B92"/>
				</linearGradient>
				<path class="st36" d="M36,28c0.3,2.4-1.3,4.4-3.7,4.4c-2.4,0-4.6-2-4.9-4.5c-0.3-2.5,1.5-3.6,3.8-3.6C33.6,24.4,35.7,25.6,36,28
					z"/>
				<path class="st37" d="M32.5,25c0,0.2-0.4,0.3-1,0.3c-0.6,0-1-0.2-1.1-0.3c0-0.2,0.4-0.3,1-0.3C32,24.6,32.5,24.8,32.5,25z"/>
				<linearGradient id="SVGID_35_" gradientUnits="userSpaceOnUse" x1="31.7569" y1="24.9792" x2="31.7569" y2="22.7934">
					<stop  offset="5.586590e-03" style="stop-color:#367244"/>
					<stop  offset="0.9888" style="stop-color:#898133"/>
				</linearGradient>
				<path class="st38" d="M31.3,24.8c0,0-0.1-1,0.3-2c0,0,0.4,0,0.6,0.2c0,0-0.6,0.8-0.7,2C31.6,25,31.4,25.1,31.3,24.8z"/>
				<path class="st32" d="M28.9,26.8c-0.1,0.4-0.3,0.7-0.6,0.6c-0.3-0.1-0.4-0.5-0.4-0.9c0.1-0.4,0.3-0.7,0.6-0.6
					C28.8,26,28.9,26.4,28.9,26.8z"/>
			</g>
			<g>
				<linearGradient id="SVGID_36_" gradientUnits="userSpaceOnUse" x1="66.6686" y1="33.3143" x2="66.6686" y2="22.8701">
					<stop  offset="0" style="stop-color:#3D6336"/>
					<stop  offset="1" style="stop-color:#97890C"/>
				</linearGradient>
				<path class="st39" d="M72.3,27.6c0.1,0.6,0.1,1.2,0.1,1.8c-0.3,2.3-2.1,4-4.6,3.9c-3.1,0-6.2-2.6-6.7-5.8c-0.4-2,0.4-3.3,1.7-4
					c0.8-0.4,1.9-0.7,3-0.6C68.8,22.9,71.7,24.4,72.3,27.6z"/>
				<path class="st32" d="M62.9,26.1c-0.1,0.5-0.4,0.8-0.8,0.7c-0.4-0.1-0.6-0.6-0.5-1.1c0.1-0.5,0.4-0.8,0.8-0.7
					C62.7,25,62.9,25.5,62.9,26.1z"/>
				<linearGradient id="SVGID_37_" gradientUnits="userSpaceOnUse" x1="67.5655" y1="29.4403" x2="67.5655" y2="22.8701">
					<stop  offset="0" style="stop-color:#8E9336"/>
					<stop  offset="1" style="stop-color:#AE930C"/>
				</linearGradient>
				<path class="st40" d="M72.3,27.6c0.1,0.6,0.1,1.2,0.1,1.8c-0.9,0.1-2.5,0.3-4.7-0.9c-3.4-1.9-5-4.9-5-4.9c0.8-0.4,1.9-0.7,3-0.6
					C68.8,22.9,71.7,24.4,72.3,27.6z"/>
				<path class="st41" d="M63.3,23.7c0,0,1.3,2.1,3.9,3.7c2.6,1.6,5,1.5,5,1.5s0.5-3.1-2.3-4.9C67,22.2,64.5,23.1,63.3,23.7z"/>
				<path class="st42" d="M64.6,24.2c-0.2,0.1-0.5,0.1-0.6,0c-0.1-0.1,0-0.4,0.3-0.5c0.2-0.1,0.5-0.1,0.6,0
					C64.9,23.9,64.8,24.1,64.6,24.2z"/>
				<path class="st42" d="M67.7,26.7c-0.2,0.2-0.4,0.3-0.5,0.2c-0.1-0.1-0.1-0.4,0.1-0.6c0.2-0.2,0.4-0.3,0.5-0.2
					C67.9,26.2,67.9,26.5,67.7,26.7z"/>
				<path class="st42" d="M71.6,28.2c0,0.3-0.2,0.5-0.3,0.5c-0.2,0-0.3-0.3-0.3-0.6c0-0.3,0.2-0.5,0.3-0.5S71.6,27.9,71.6,28.2z"/>
				<path class="st42" d="M70.5,25.5c0,0.3-0.2,0.5-0.3,0.5c-0.2,0-0.3-0.3-0.3-0.6c0-0.3,0.2-0.5,0.3-0.5
					C70.4,24.9,70.5,25.2,70.5,25.5z"/>
				<path class="st42" d="M67.9,23.9c-0.3,0.1-0.5,0-0.6-0.1c-0.1-0.2,0.1-0.3,0.4-0.4c0.3-0.1,0.5,0,0.6,0.1
					C68.3,23.7,68.1,23.9,67.9,23.9z"/>
			</g>
			<g>
				<linearGradient id="SVGID_38_" gradientUnits="userSpaceOnUse" x1="38.4378" y1="69.7217" x2="38.4378" y2="59.2128">
					<stop  offset="0" style="stop-color:#3D6336"/>
					<stop  offset="1" style="stop-color:#97890C"/>
				</linearGradient>
				<path class="st43" d="M44.4,63.9c0.1,0.6,0.1,1.2,0,1.8c-0.4,2.3-2.4,4-5.1,4c-3.3,0-6.4-2.6-6.8-5.8c-0.3-2,0.6-3.3,2-4.1
					c0.9-0.5,2-0.7,3.3-0.7C41,59.2,43.9,60.8,44.4,63.9z"/>
				<path class="st32" d="M34.5,62.4c-0.1,0.5-0.5,0.9-0.8,0.7c-0.4-0.1-0.6-0.6-0.5-1.1c0.1-0.5,0.5-0.9,0.8-0.7
					C34.4,61.4,34.6,61.9,34.5,62.4z"/>
				<linearGradient id="SVGID_39_" gradientUnits="userSpaceOnUse" x1="39.4814" y1="65.7906" x2="39.4814" y2="59.2128">
					<stop  offset="0" style="stop-color:#8E9336"/>
					<stop  offset="1" style="stop-color:#AE930C"/>
				</linearGradient>
				<path class="st44" d="M44.4,63.9c0.1,0.6,0.1,1.2,0,1.8c-1,0.1-2.7,0.3-4.9-0.9c-3.5-1.9-5-4.9-5-4.9c0.9-0.5,2-0.7,3.3-0.7
					C41,59.2,43.9,60.8,44.4,63.9z"/>
				<path class="st41" d="M35.1,60.1c0,0,1.3,2.1,3.9,3.7c2.6,1.6,5.2,1.5,5.2,1.5s0.8-3.1-2.1-4.9C39.1,58.5,36.4,59.4,35.1,60.1z"
					/>
				<path class="st42" d="M36.4,60.6c-0.3,0.1-0.6,0.1-0.6,0c-0.1-0.1,0.1-0.4,0.3-0.5c0.3-0.1,0.6-0.1,0.6,0
					C36.8,60.2,36.7,60.4,36.4,60.6z"/>
				<path class="st42" d="M39.6,63.1c-0.2,0.2-0.5,0.3-0.6,0.2c-0.1-0.1-0.1-0.4,0.1-0.6c0.2-0.2,0.5-0.3,0.6-0.2
					C39.8,62.6,39.8,62.8,39.6,63.1z"/>
				<path class="st42" d="M43.7,64.5c0,0.3-0.2,0.5-0.4,0.5c-0.2,0-0.3-0.3-0.2-0.6c0-0.3,0.2-0.5,0.4-0.5
					C43.6,64,43.7,64.2,43.7,64.5z"/>
				<path class="st42" d="M42.6,61.8c0,0.3-0.2,0.5-0.4,0.5c-0.2,0-0.3-0.3-0.2-0.6c0-0.3,0.2-0.5,0.4-0.5S42.7,61.5,42.6,61.8z"/>
				<path class="st42" d="M39.9,60.3c-0.3,0.1-0.6,0-0.6-0.1c-0.1-0.2,0.1-0.3,0.4-0.4c0.3-0.1,0.6,0,0.6,0.1
					C40.4,60,40.2,60.2,39.9,60.3z"/>
			</g>
			<g>
				<linearGradient id="SVGID_40_" gradientUnits="userSpaceOnUse" x1="55.2152" y1="70.3646" x2="55.2152" y2="61.87">
					<stop  offset="0" style="stop-color:#86002C"/>
					<stop  offset="1" style="stop-color:#D93327"/>
				</linearGradient>
				<path class="st45" d="M59.6,66.1c0.4,2.3-1.2,4.2-3.7,4.3c-2.5,0-4.8-1.9-5.1-4.2c-0.4-2.3,1.3-4.3,3.7-4.3
					C56.9,61.9,59.2,63.8,59.6,66.1z"/>
				<path class="st32" d="M52.8,64.6c-0.1,0.4-0.4,0.7-0.7,0.6c-0.3-0.1-0.5-0.5-0.4-1c0.1-0.4,0.4-0.7,0.7-0.6
					C52.7,63.8,52.9,64.2,52.8,64.6z"/>
				<path class="st46" d="M55.9,62.3c0,0.2-0.5,0.4-1.1,0.4s-1.2-0.2-1.2-0.4c0-0.2,0.5-0.4,1.1-0.4C55.3,62,55.8,62.1,55.9,62.3z"
					/>
				<linearGradient id="SVGID_41_" gradientUnits="userSpaceOnUse" x1="60.7526" y1="71.7189" x2="60.7526" y2="63.2338">
					<stop  offset="0" style="stop-color:#9A002C"/>
					<stop  offset="1" style="stop-color:#F94527"/>
				</linearGradient>
				<path class="st47" d="M65.2,67.5c0.4,2.3-1.2,4.2-3.7,4.2c-2.5,0-4.8-1.9-5.2-4.2c-0.4-2.3,1.2-4.2,3.7-4.2
					C62.4,63.2,64.7,65.1,65.2,67.5z"/>
				<path class="st32" d="M58.3,66c-0.1,0.4-0.4,0.7-0.7,0.6c-0.3-0.1-0.5-0.5-0.4-1c0.1-0.4,0.4-0.7,0.7-0.6
					C58.2,65.1,58.4,65.5,58.3,66z"/>
				<path class="st46" d="M61.4,63.7c0,0.2-0.5,0.4-1.1,0.4c-0.7,0-1.2-0.2-1.3-0.4c0-0.2,0.5-0.4,1.1-0.4
					C60.8,63.3,61.3,63.5,61.4,63.7z"/>
				<linearGradient id="SVGID_42_" gradientUnits="userSpaceOnUse" x1="57.4243" y1="63.6218" x2="57.4243" y2="52.5271">
					<stop  offset="5.586590e-03" style="stop-color:#367244"/>
					<stop  offset="0.9888" style="stop-color:#898133"/>
				</linearGradient>
				<path class="st48" d="M54.3,62.3c0,0-0.6-5,2.3-9.8l0.7,0.5c0,0-0.1,2.2,0.7,5.1c0.8,2.9,2.5,5.5,2.5,5.5l-0.7,0
					c0,0-2.5-4.3-3-10.2c0,0-2.3,2.5-1.7,8.9C55.1,62.3,54.8,62.6,54.3,62.3z"/>
			</g>
		</g>
	</g>
	<g>
		<g>
			<g>
				
					<linearGradient id="SVGID_43_" gradientUnits="userSpaceOnUse" x1="20.5739" y1="77.9081" x2="20.5928" y2="75.4957" gradientTransform="matrix(1.1406 8.900000e-03 8.900000e-03 1.0638 13.7341 -2.7309)">
					<stop  offset="0" style="stop-color:#9A0065"/>
					<stop  offset="1" style="stop-color:#CC1A6D"/>
				</linearGradient>
				<path class="st49" d="M36.7,78.9c-0.1,0.7,0.4,1.3,1.1,1.4s1.3-0.4,1.3-1.1c0.1-0.7-0.4-1.3-1.1-1.4
					C37.4,77.7,36.8,78.2,36.7,78.9z"/>
			</g>
		</g>
		
			<radialGradient id="SVGID_44_" cx="40.2327" cy="78.7065" r="2.2664" gradientTransform="matrix(1.0013 0 0 1 -7.585089e-02 0)" gradientUnits="userSpaceOnUse">
			<stop  offset="0" style="stop-color:#FFFFEB"/>
			<stop  offset="1" style="stop-color:#FFFFC0"/>
		</radialGradient>
		<ellipse class="st50" cx="39.5" cy="78.9" rx="2.3" ry="2.3"/>
	</g>
	<g>
		<g>
			<g>
				
					<linearGradient id="SVGID_45_" gradientUnits="userSpaceOnUse" x1="16.2508" y1="61.235" x2="16.2697" y2="58.8226" gradientTransform="matrix(1.1406 8.900000e-03 8.900000e-03 1.0638 13.7341 -2.7309)">
					<stop  offset="0" style="stop-color:#9A0065"/>
					<stop  offset="1" style="stop-color:#CC1A6D"/>
				</linearGradient>
				<path class="st51" d="M31.6,61.1c-0.1,0.7,0.4,1.3,1.1,1.4c0.7,0.1,1.3-0.4,1.3-1.1c0.1-0.7-0.4-1.3-1.1-1.4
					C32.3,59.9,31.7,60.4,31.6,61.1z"/>
			</g>
		</g>
		
			<radialGradient id="SVGID_46_" cx="35.1598" cy="60.9312" r="2.2664" gradientTransform="matrix(1.0013 0 0 1 -7.585089e-02 0)" gradientUnits="userSpaceOnUse">
			<stop  offset="0" style="stop-color:#FFFFEB"/>
			<stop  offset="1" style="stop-color:#FFFFC0"/>
		</radialGradient>
		<ellipse class="st52" cx="34.4" cy="61.1" rx="2.3" ry="2.3"/>
	</g>
	<g>
		<g>
			<g>
				
					<linearGradient id="SVGID_47_" gradientUnits="userSpaceOnUse" x1="13.0042" y1="45.5512" x2="13.0231" y2="43.1388" gradientTransform="matrix(1.1406 8.900000e-03 8.900000e-03 1.0638 13.7341 -2.7309)">
					<stop  offset="0" style="stop-color:#9A0065"/>
					<stop  offset="1" style="stop-color:#CC1A6D"/>
				</linearGradient>
				<path class="st53" d="M27.8,44.4c-0.1,0.7,0.4,1.3,1.1,1.4c0.7,0.1,1.3-0.4,1.3-1.1c0.1-0.7-0.4-1.3-1.1-1.4
					C28.4,43.2,27.8,43.7,27.8,44.4z"/>
			</g>
		</g>
		
			<radialGradient id="SVGID_48_" cx="31.322" cy="44.2179" r="2.2664" gradientTransform="matrix(1.0013 0 0 1 -7.585089e-02 0)" gradientUnits="userSpaceOnUse">
			<stop  offset="0" style="stop-color:#FFFFEB"/>
			<stop  offset="1" style="stop-color:#FFFFC0"/>
		</radialGradient>
		<ellipse class="st54" cx="30.5" cy="44.4" rx="2.3" ry="2.3"/>
	</g>
	<g>
		<g>
			<g>
				
					<linearGradient id="SVGID_49_" gradientUnits="userSpaceOnUse" x1="9.0371" y1="29.5142" x2="9.056" y2="27.1019" gradientTransform="matrix(1.1406 8.900000e-03 8.900000e-03 1.0638 13.7341 -2.7309)">
					<stop  offset="0" style="stop-color:#9A0065"/>
					<stop  offset="1" style="stop-color:#CC1A6D"/>
				</linearGradient>
				<path class="st55" d="M23.1,27.3c-0.1,0.7,0.4,1.3,1.1,1.4c0.7,0.1,1.3-0.4,1.3-1.1c0.1-0.7-0.4-1.3-1.1-1.4
					C23.8,26.1,23.2,26.6,23.1,27.3z"/>
			</g>
		</g>
		
			<radialGradient id="SVGID_50_" cx="26.6603" cy="27.1224" r="2.2664" gradientTransform="matrix(1.0013 0 0 1 -7.585089e-02 0)" gradientUnits="userSpaceOnUse">
			<stop  offset="0" style="stop-color:#FFFFEB"/>
			<stop  offset="1" style="stop-color:#FFFFC0"/>
		</radialGradient>
		<ellipse class="st56" cx="25.9" cy="27.3" rx="2.3" ry="2.3"/>
	</g>
	<linearGradient id="SVGID_51_" gradientUnits="userSpaceOnUse" x1="39.9907" y1="137.4856" x2="67.0786" y2="95.7739">
		<stop  offset="0.1468" style="stop-color:#C9AEAA"/>
		<stop  offset="0.6091" style="stop-color:#876B7E"/>
		<stop  offset="1" style="stop-color:#C0AEB8"/>
	</linearGradient>
	<polygon class="st57" points="11.1,118.7 10.9,115.6 37.8,115.2 97.3,115.4 94.6,120 38,120 	"/>
	<linearGradient id="SVGID_52_" gradientUnits="userSpaceOnUse" x1="20.0754" y1="124.5524" x2="29.6122" y2="109.8671">
		<stop  offset="1.117320e-02" style="stop-color:#BE6888"/>
		<stop  offset="1" style="stop-color:#88689A"/>
	</linearGradient>
	<polygon class="st58" points="37.8,115.2 38,120 11.1,118.7 10.9,115.6 	"/>
	<linearGradient id="SVGID_53_" gradientUnits="userSpaceOnUse" x1="103.1299" y1="45.4655" x2="107.6101" y2="45.4655">
		<stop  offset="1.117320e-02" style="stop-color:#BE6888"/>
		<stop  offset="1" style="stop-color:#88689A"/>
	</linearGradient>
	<path class="st59" d="M103.7,42c0,0,1.3,2.2-0.5,8.3l4.5-8l-2.9-1.7L103.7,42z"/>
	<linearGradient id="SVGID_54_" gradientUnits="userSpaceOnUse" x1="103.1299" y1="36.5812" x2="115" y2="36.5812">
		<stop  offset="0" style="stop-color:#D60034"/>
		<stop  offset="0.2394" style="stop-color:#DA0C3A"/>
		<stop  offset="0.6572" style="stop-color:#DF1B42"/>
		<stop  offset="1" style="stop-color:#E12045"/>
	</linearGradient>
	<ellipse class="st60" cx="109.1" cy="36.6" rx="5.9" ry="5.9"/>
	
		<radialGradient id="SVGID_55_" cx="106.0452" cy="32.9065" r="1.0396" gradientTransform="matrix(1.0013 0 0 1 -7.585089e-02 0)" gradientUnits="userSpaceOnUse">
		<stop  offset="0" style="stop-color:#FFFFEB"/>
		<stop  offset="1" style="stop-color:#FFFFC0"/>
	</radialGradient>
	<path class="st61" d="M105.8,32.1c0,0-1.1,0.8-1.4,1.8c0,0,1.7-0.5,2.6-1.8C107,32.1,106.8,31.8,105.8,32.1z"/>
	
		<radialGradient id="SVGID_56_" cx="113.4449" cy="30.4503" r="1.7157" gradientTransform="matrix(0.9243 0.3847 -0.3852 0.9231 16.2667 -30.5809)" gradientUnits="userSpaceOnUse">
		<stop  offset="0" style="stop-color:#FFFFEB"/>
		<stop  offset="1" style="stop-color:#FFFFC0"/>
	</radialGradient>
	<path class="st62" d="M106,41c0,0,2.8,0.8,5.4-0.4c0,0-0.7,1.5-2.4,1.7C107.3,42.4,106,41,106,41z"/>
	<g>
		<linearGradient id="SVGID_57_" gradientUnits="userSpaceOnUse" x1="62.4553" y1="84.1616" x2="76.8423" y2="84.1616">
			<stop  offset="0" style="stop-color:#D60034"/>
			<stop  offset="0.2394" style="stop-color:#DA0C3A"/>
			<stop  offset="0.6572" style="stop-color:#DF1B42"/>
			<stop  offset="1" style="stop-color:#E12045"/>
		</linearGradient>
		<polygon class="st63" points="62.5,83.6 64.7,86 76.8,86 76.8,84.6 72.7,82.3 62.5,82.3 		"/>
		<polygon class="st19" points="76.8,84.6 65.1,84.6 62.5,82.3 62.5,83.6 64.7,86 76.8,86 		"/>
		<polygon class="st19" points="64.7,86 65.1,84.6 76.8,84.6 76.8,86 		"/>
	</g>
</g>
</svg>
