<?xml version="1.0" encoding="utf-8"?>
<!-- Generator: Adobe Illustrator 21.0.0, SVG Export Plug-In . SVG Version: 6.00 Build 0)  -->
<svg version="1.1" id="flags" xmlns="http://www.w3.org/2000/svg" xmlns:xlink="http://www.w3.org/1999/xlink" x="0px" y="0px"
	 viewBox="0 0 30 30" enable-background="new 0 0 30 30" xml:space="preserve">
<g id="flag_x5F_russia_1_">
	<path fill="#0066CC" d="M29.1,20.2c0.6-1.6,0.9-3.4,0.9-5.2c0-1.8-0.3-3.6-0.9-5.2L15,8.5L0.9,9.8C0.3,11.4,0,13.2,0,15
		c0,1.8,0.3,3.6,0.9,5.2L15,21.5L29.1,20.2z"/>
	<path fill="#CC3333" d="M15,30c6.4,0,11.9-4.1,14.1-9.8H0.9C3.1,25.9,8.6,30,15,30z"/>
	<path fill="#FFFFFF" d="M15,0C8.6,0,3.1,4.1,0.9,9.8l28.1,0C26.9,4.1,21.4,0,15,0z"/>
</g>
</svg>
