<?xml version="1.0" encoding="utf-8"?>
<!-- Generator: Adobe Illustrator 21.0.0, SVG Export Plug-In . SVG Version: 6.00 Build 0)  -->
<svg version="1.1" id="Слой_1" xmlns="http://www.w3.org/2000/svg" xmlns:xlink="http://www.w3.org/1999/xlink" x="0px" y="0px"
	 width="18px" height="42px" viewBox="0 0 18 42" style="enable-background:new 0 0 18 42;" xml:space="preserve">
<style type="text/css">
	.st0{fill-rule:evenodd;clip-rule:evenodd;fill:#231F1D;}
	.st1{fill:#2D2926;}
</style>
<g id="column_x5F_brand">
	<path class="st0" d="M0,0v8h6V4H4v2H2V2h6v38H2v-4h2v2h2v-4H0v8h18v-8h-6v4h2v-2h2v4h-6V2h6v4h-2V4h-2v4h6V0H0z M12,10h2v22h-2V10z
		 M4,10h2v22H4V10z"/>
	<path class="st1" d="M5,32H4V10h2v1H5V32z M1,1h17V0H0v8h1V1z M5,5h1V4H4v2H3v1h2V5z M12,38h1v-3h5v-1h-6V38z M9,3H8v37H3v1h6V3z
		 M12,32h1V11h1v-1h-2V32z M4,38h1v-1H4V38z M1,35h5v-1H0v8h1V35z M16,6h-1v1h2V3h-1V6z M11,41h6v-4h-1v3h-5V41z M13,5h1V4h-2v4h1V5
		z"/>
</g>
</svg>
