<svg width="618" height="620" viewBox="0 0 618 620" fill="none" xmlns="http://www.w3.org/2000/svg">
<style>
	* {
		transform-box: fill-box;
	}
	#arms {
		transform-origin: center center;
		animation: arm-animation 0.5s linear infinite alternate;
	}
	@keyframes arm-animation {
        0% {
            transform: translateY(-2px);
        }
        100% {
            transform: translateY(2px);
        }
    }
	#whell-1,
	#whell-2,
	#whell-3 {
		transform-origin: center center;
		animation: whell-animation 35s linear infinite;
	}
	@keyframes whell-animation {
        0% {
            transform: rotate(0deg);
        }
        100% {
            transform: rotate(360deg);
        }
    }
	#man-head {
		transform-origin: center bottom;
		animation: head-animation 1s linear infinite alternate;
	}
	@keyframes head-animation {
        0% {
            transform: rotate(-1deg);
        }
        100% {
            transform: rotate(4deg);
        }
    }
	#woman-head {
		transform-origin: center bottom;
		animation: woman-head-animation 1s linear infinite alternate;
	}
	@keyframes woman-head-animation {
        0% {
            transform: rotate(4deg);
        }
        100% {
            transform: rotate(-1deg);
        }
    }
	
</style>
<g id="b2b">
<path id="Vector" d="M573.687 357.472C501.746 310.658 626.33 235.069 598.776 160.232C571.221 85.5015 480.195 162.379 431.198 199.207C382.201 236.035 324.84 170.11 286.779 168.392C248.717 166.674 270.16 195.449 253.006 232.707C235.852 270.072 109.337 239.042 58.6244 275.118C7.91156 311.195 88.752 387.858 95.5066 433.598C102.261 479.338 14.9878 531.09 70.9542 598.949L348.964 597.66C376.947 590.681 395.174 585.098 395.174 585.098C655.385 493.188 645.629 404.285 573.687 357.472Z" fill="url(#paint0_linear)"/>
<g id="roket">
<path id="Union" fill-rule="evenodd" clip-rule="evenodd" d="M54.2823 75.8203C65.8583 48.2209 82.0549 32.9782 100.912 18.9334L100.911 18.9332C100.911 18.9332 130.203 2.12225 135.415 5.99376C140.486 9.73998 134.332 41.6287 134 43.3237L134.028 43.3445C126.151 65.6972 116.312 85.8152 93.0449 105.193C94.6807 115.137 96.2457 141.61 71.4381 159.268C69.202 160.855 67.8766 158.986 69.0231 157.282C74.0551 149.772 78.4729 132.423 69.883 121.453C69.4433 121.717 69.0003 121.982 68.5542 122.246L55.7866 112.833L45.0239 104.888C45.1584 104.319 45.2942 103.755 45.4313 103.195C32.2768 97.6008 16.5774 107.193 10.8107 114.33C9.51782 115.931 7.34497 115.213 8.21097 112.612C17.9963 82.7793 45.0313 76.9492 54.2823 75.8203ZM45.7524 120.108L40.2441 116.045L45.0267 104.91L68.557 122.269L59.3469 130.134L53.222 125.617C52.6654 130.334 49.119 149.709 28.3702 150.68C28.3702 150.68 26.3753 133.045 45.7524 120.108Z" fill="url(#paint1_linear)"/>
<path id="Vector_2" d="M93.4162 63.8479C98.7976 67.8204 106.401 66.688 110.368 61.2783C114.337 55.8914 113.183 48.2816 107.799 44.2862C102.418 40.3136 94.8158 41.4689 90.8245 46.8577C86.8578 52.2674 88.0101 59.8543 93.4162 63.8479Z" fill="#F1F1F1"/>
</g>
<path id="whell-2" d="M385.157 66.4254L382.305 68.386C380.106 66.9413 377.666 65.9438 375.158 65.4279L374.505 62.0226C374.402 61.5755 374.024 61.2659 373.577 61.2315L371.035 61.2315L370.691 61.2315H368.148C367.667 61.2315 367.289 61.5411 367.22 62.0226L366.568 65.4279C364.059 65.9438 361.62 66.9413 359.42 68.386L356.568 66.4254C356.19 66.1846 355.675 66.219 355.366 66.5286L353.545 68.3516L353.304 68.5924L351.483 70.4154C351.174 70.725 351.105 71.2753 351.38 71.6193L353.338 74.4742C351.895 76.6756 350.899 79.1177 350.383 81.6287L346.982 82.2822C346.535 82.3854 346.226 82.7637 346.191 83.2109L346.191 85.7562V86.1002L346.191 88.6455C346.191 89.1271 346.5 89.5055 346.982 89.5743L350.383 90.2278C350.899 92.7387 351.895 95.1809 353.338 97.3823L351.38 100.237C351.139 100.616 351.174 101.131 351.483 101.441L353.304 103.264L353.545 103.505L355.366 105.328C355.675 105.637 356.225 105.706 356.568 105.431L359.42 103.47C361.62 104.915 364.059 105.913 366.568 106.429L367.22 109.834C367.324 110.281 367.701 110.591 368.148 110.625L370.691 110.625L371.035 110.625L373.577 110.625C374.058 110.625 374.436 110.315 374.505 109.834L375.158 106.429C377.666 105.913 380.106 104.915 382.305 103.47L385.157 105.431C385.535 105.672 386.051 105.637 386.36 105.328L388.181 103.505L388.421 103.264L390.243 101.441C390.552 101.131 390.621 100.581 390.346 100.237L388.387 97.3823C389.83 95.1809 390.827 92.7387 391.342 90.2278L394.744 89.5743C395.191 89.4711 395.5 89.0927 395.534 88.6455V86.1002V85.7562L395.534 83.2109C395.534 82.7293 395.225 82.351 394.744 82.2822L391.342 81.6287C390.827 79.1177 389.83 76.6756 388.387 74.4742L390.346 71.6193C390.586 71.2409 390.552 70.725 390.243 70.4154L388.421 68.5924L388.181 68.3516L386.36 66.5286C386.051 66.219 385.569 66.1502 385.157 66.4254ZM378.972 77.845C383.439 82.3166 383.473 89.643 378.972 94.149C374.505 98.6205 367.186 98.6549 362.685 94.149C358.218 89.6774 358.183 82.351 362.685 77.845C367.186 73.3391 374.471 73.3391 378.972 77.845Z" fill="#418AD2"/>
<path id="whell-1" d="M153.631 178.916L149.412 181.816C146.158 179.679 142.549 178.203 138.838 177.44L137.872 172.402C137.72 171.741 137.16 171.283 136.5 171.232L132.738 171.232H132.229L128.467 171.232C127.756 171.232 127.197 171.69 127.095 172.402L126.129 177.44C122.418 178.203 118.809 179.679 115.555 181.816L111.336 178.916C110.777 178.559 110.014 178.61 109.556 179.068L106.862 181.765L106.506 182.122L103.812 184.819C103.354 185.277 103.253 186.091 103.66 186.6L106.557 190.823C104.422 194.08 102.948 197.693 102.185 201.408L97.1525 202.375C96.4916 202.528 96.0341 203.087 95.9833 203.749L95.9833 207.515V208.023V211.789C95.9833 212.502 96.4408 213.061 97.1525 213.163L102.185 214.13C102.948 217.845 104.422 221.458 106.557 224.715L103.66 228.938C103.304 229.498 103.354 230.261 103.812 230.719L106.506 233.416L106.862 233.773L109.556 236.47C110.014 236.928 110.827 237.029 111.336 236.622L115.555 233.722C118.809 235.859 122.418 237.335 126.129 238.098L127.095 243.136C127.247 243.798 127.807 244.256 128.467 244.306L132.229 244.306H132.738L136.5 244.306C137.211 244.306 137.77 243.848 137.872 243.136L138.838 238.098C142.549 237.335 146.158 235.859 149.412 233.722L153.631 236.622C154.19 236.979 154.953 236.928 155.41 236.47L158.105 233.773L158.461 233.416L161.155 230.719C161.612 230.261 161.714 229.447 161.307 228.938L158.41 224.715C160.545 221.458 162.019 217.845 162.782 214.13L167.814 213.163C168.475 213.01 168.933 212.451 168.984 211.789V208.023V207.515L168.984 203.749C168.984 203.036 168.526 202.477 167.814 202.375L162.782 201.408C162.019 197.693 160.545 194.08 158.41 190.823L161.307 186.6C161.663 186.04 161.612 185.277 161.155 184.819L158.461 182.122L158.105 181.765L155.41 179.068C154.953 178.61 154.241 178.509 153.631 178.916ZM144.481 195.81C151.089 202.426 151.14 213.265 144.481 219.931C137.872 226.547 127.044 226.598 120.385 219.931C113.776 213.316 113.725 202.477 120.385 195.81C127.044 189.144 137.821 189.144 144.481 195.81Z" fill="#418AD2"/>
<path id="whell-3" d="M404.486 20.0081L402.588 21.3129C401.124 20.3515 399.501 19.6876 397.831 19.3443L397.397 17.0781C397.328 16.7805 397.077 16.5745 396.779 16.5516L395.087 16.5516L394.859 16.5516L393.166 16.5516C392.846 16.5516 392.595 16.7576 392.549 17.0781L392.114 19.3443C390.445 19.6876 388.822 20.3515 387.358 21.3129L385.46 20.0081C385.208 19.8479 384.865 19.8708 384.66 20.0768L383.448 21.29L383.288 21.4502L382.076 22.6635C381.87 22.8695 381.824 23.2357 382.007 23.4646L383.31 25.3646C382.35 26.8296 381.687 28.4549 381.344 30.1259L379.08 30.5609C378.783 30.6295 378.577 30.8813 378.554 31.1789L378.554 32.8728V33.1018V34.7957C378.554 35.1162 378.76 35.368 379.08 35.4138L381.344 35.8487C381.687 37.5197 382.35 39.145 383.31 40.61L382.007 42.51C381.847 42.7618 381.87 43.1051 382.076 43.3111L383.288 44.5244L383.448 44.6846L384.66 45.8978C384.865 46.1039 385.231 46.1496 385.46 45.9665L387.358 44.6617C388.822 45.6231 390.445 46.287 392.114 46.6303L392.549 48.8966C392.618 49.1941 392.869 49.4002 393.166 49.423L394.859 49.423H395.087L396.779 49.423C397.1 49.423 397.351 49.217 397.397 48.8966L397.831 46.6303C399.501 46.287 401.124 45.6231 402.588 44.6617L404.486 45.9665C404.737 46.1267 405.08 46.1039 405.286 45.8978L406.498 44.6846L406.658 44.5244L407.87 43.3111C408.076 43.1051 408.122 42.7389 407.939 42.51L406.635 40.61C407.596 39.145 408.259 37.5197 408.602 35.8487L410.866 35.4138C411.163 35.3451 411.369 35.0933 411.392 34.7957V33.1018V32.8728L411.392 31.1789C411.392 30.8584 411.186 30.6066 410.866 30.5609L408.602 30.1259C408.259 28.4549 407.596 26.8296 406.635 25.3646L407.939 23.4646C408.099 23.2128 408.076 22.8695 407.87 22.6635L406.658 21.4502L406.498 21.29L405.286 20.0768C405.08 19.8708 404.76 19.825 404.486 20.0081ZM400.37 27.6079C403.342 30.5837 403.365 35.4595 400.37 38.4583C397.397 41.4341 392.526 41.457 389.53 38.4583C386.558 35.4824 386.535 30.6066 389.53 27.6079C392.526 24.6092 397.374 24.6092 400.37 27.6079Z" fill="#418AD2"/>
<path id="Vector_3" d="M271.757 452.508C274.401 453.442 275.957 454.143 275.957 454.143C275.957 454.143 270.823 446.903 262.579 439.507C254.335 432.11 255.502 430.787 245.469 432.344C235.436 433.901 230.225 429.853 228.125 429.853C227.114 429.853 212.026 446.124 209.148 447.603C206.815 445.423 218.714 431.721 214.904 431.721C211.326 431.721 201.993 443.243 199.971 448.382C197.638 449.55 194.915 451.029 192.349 452.664C192.349 447.993 198.338 436.704 198.338 436.704C198.338 436.704 176.872 442.932 176.872 446.358C176.872 449.783 191.104 455.7 184.805 455.7C178.583 455.7 171.661 446.669 171.661 446.669C171.661 446.669 160.461 451.963 162.639 457.88C164.739 463.797 157.895 465.899 155.561 467.923C150.273 469.636 143.584 472.984 140.706 475.553C135.884 479.913 149.573 505.527 145.995 508.719C142.418 511.911 135.107 483.805 135.107 481.158C135.107 479.601 133.551 479.446 131.529 480.691C137.362 451.807 146.384 426.816 160.383 414.126C165.905 408.988 172.594 405.874 177.649 403.149C177.727 403.149 177.805 403.071 177.883 403.071C176.872 404.55 175.938 407.275 175.938 412.024C175.938 423.391 208.448 427.128 203.626 422.768C198.804 418.408 193.438 405.017 196.004 405.017C198.571 405.017 202.926 419.187 209.848 422.145C216.77 425.104 224.936 417.162 224.936 417.162C224.936 417.162 203.16 402.448 205.337 400.502C207.515 398.555 226.259 418.252 231.47 420.121C236.68 421.989 246.169 412.958 246.169 412.958C246.169 412.958 210.315 395.675 211.326 392.716C212.337 389.758 244.613 411.09 249.669 409.688C254.724 408.287 259.002 399.256 259.002 399.256C259.002 399.256 222.603 388.201 224.003 385.554C225.403 382.907 254.491 397.232 258.613 396.453C262.735 395.675 260.713 384.931 260.713 383.062C260.713 381.194 238.314 378.469 236.136 376.523C233.958 374.576 258.146 380.104 259.857 380.104C261.568 380.104 263.513 378.235 261.802 374.654C260.091 371.073 258.535 359.239 258.535 359.239C256.435 359.239 247.258 352.699 245.702 351.298C244.147 349.897 238.236 362.353 235.98 362.353C233.725 362.353 242.591 351.142 242.591 348.495C242.591 345.848 237.069 343.513 232.558 343.513C228.047 343.513 221.125 370.528 219.026 370.528C216.926 370.528 226.336 342.89 224.936 341.644C223.536 340.398 219.57 338.53 211.248 339.62C202.926 340.71 207.593 372.319 204.637 374.966C201.682 377.613 204.637 341.488 204.637 340.554C204.637 339.62 194.215 342.111 190.638 345.381C186.982 348.651 193.204 379.17 190.638 381.505C188.071 383.841 185.971 352.388 185.971 349.118C185.971 345.848 182.705 345.537 173.294 356.125C170.728 359.006 170.261 362.275 170.883 365.39C156.184 371.229 159.061 392.405 165.439 398.166C168.705 401.047 172.594 401.825 175.627 401.825C161.55 409.299 152.917 414.36 143.273 434.135C143.273 427.439 142.418 412.958 138.451 409.377C134.407 405.718 143.273 407.742 143.273 404.005C143.273 400.268 142.806 385.943 140.94 384.308C139.073 382.673 134.251 395.753 131.218 393.028C128.185 390.303 139.773 382.206 139.773 381.194C139.773 380.182 133.085 360.64 131.451 360.64C129.818 360.64 130.985 369.127 126.396 371.229C121.807 373.331 128.963 359.161 128.963 354.879C128.963 350.519 124.218 349.585 118.774 344.68C113.563 339.931 107.497 331.29 107.497 331.29C107.497 331.29 112.085 345.77 119.241 358.227C126.007 369.983 127.796 413.581 128.029 418.486C127.874 418.642 127.796 418.797 127.796 418.953C127.407 444.489 127.018 466.755 126.629 486.219C126.318 487.075 126.552 490.501 126.552 490.89C126.007 494.004 125.54 497.118 125.074 500.388C123.518 496.184 122.507 493.07 122.507 493.07C122.507 493.07 121.652 493.926 120.33 495.328C119.63 491.591 118.074 488.632 115.508 487.776C115.508 487.776 114.263 488.944 112.397 490.501C111.619 465.977 110.219 444.022 107.963 430.943C107.419 428.373 106.952 425.804 105.786 423.001C107.497 423.001 109.674 422.534 112.63 421.289C122.352 417.162 110.841 387.578 109.286 393.339C107.73 399.1 98.6304 408.599 97.4638 406.341C96.2972 404.083 106.486 395.208 105.863 388.123C105.241 381.038 94.7417 376.834 94.7417 376.834C94.7417 376.834 92.0196 401.047 89.2975 399.879C86.6531 398.711 95.0528 375.277 94.275 370.061C93.4973 364.845 81.4422 359.862 81.4422 359.862C81.4422 359.862 82.8422 397.232 79.8867 397.465C76.9313 397.621 80.5867 361.886 77.0868 358.071C73.587 354.179 63.9429 353.711 63.9429 353.711C63.9429 353.711 70.9426 389.291 68.065 389.057C65.1873 388.824 64.254 358.383 61.6875 355.035C59.1209 351.687 50.8768 357.371 49.2435 358.071C47.6103 358.772 55.4655 379.248 54.7655 381.817C54.0656 384.386 47.8436 361.419 47.0658 359.94C46.2881 358.461 43.7993 357.448 41.5438 360.251C39.3661 362.976 29.9554 368.582 29.9554 368.582C30.8887 370.372 29.4888 380.727 28.9443 382.595C28.4777 384.464 41.7772 385.087 42.7882 387.033C43.7993 388.979 30.1887 385.32 27.9333 386.332C25.6778 387.267 26.1445 392.95 28.2444 396.843C30.2665 400.735 56.6321 396.998 57.5654 398.867C58.4987 400.657 30.5776 402.526 30.111 404.161C29.6443 405.796 29.8776 409.922 34.5441 416.773C39.2106 423.624 64.254 408.131 67.8317 409.766C71.4093 411.401 39.1328 421.834 38.3551 422.145C37.5773 422.457 44.4215 430.631 48.8546 432.578C53.2878 434.524 76.6202 418.175 79.809 419.576C82.9977 420.977 56.9432 434.135 54.1433 435.302C51.3434 436.47 52.5878 439.429 65.8873 443.788C69.5427 444.956 72.4981 444.256 74.9092 442.543C86.1087 452.82 102.053 443.866 105.163 436.392C106.719 447.759 107.73 463.719 108.43 481.625C105.552 477.266 99.7193 472.283 96.9194 474.852C93.1084 478.278 89.1419 493.07 84.7865 489.177C80.4312 485.285 95.5194 475.164 93.8084 469.247C92.0973 463.33 86.1865 458.269 84.0088 460.216C81.8311 462.162 82.3755 482.326 79.5756 479.835C76.7757 477.344 83.6977 457.335 81.6755 455.467C79.6534 453.676 69.3094 444.956 65.4984 448.382C61.6875 451.807 70.0094 470.259 67.8317 468.312C65.654 466.366 60.2097 445.735 57.1765 443.01C54.1433 440.285 49.3991 443.711 46.5214 441.141C46.5214 441.141 45.977 446.903 44.4215 448.226C42.9438 449.55 58.9654 461.695 56.8654 461.695C54.7655 461.695 41.6216 450.717 41.6216 450.717C41.6216 450.717 42.6327 462.473 45.5103 465.043C48.388 467.612 63.7874 469.792 63.7874 472.127C63.7874 474.385 43.9548 469.247 43.9548 469.247C43.9548 469.247 47.8436 482.715 54.8433 484.35C61.7652 485.985 72.6537 484.74 72.6537 487.075C72.6537 489.333 59.0431 487.932 59.0431 487.932C59.0431 487.932 62.3097 504.515 71.2537 504.515C80.2756 504.515 81.2867 503.035 81.2867 505.994C81.2867 508.874 74.287 503.892 74.287 509.108C74.287 514.324 80.82 524.679 84.2421 521.642C86.0309 520.007 87.2753 517.594 88.0531 515.803C92.7973 531.763 98.5526 554.886 102.519 582.758H105.319C101.275 553.796 95.1306 529.817 90.3085 513.701C93.3417 515.414 101.197 519.54 107.575 521.097C107.186 524.367 107.497 530.907 109.519 536.746C109.597 553.095 109.597 568.978 109.519 582.758H113.641C113.719 571.002 113.719 557.689 113.563 543.831C114.808 545.232 116.207 546.322 117.996 547.101C118.696 547.412 119.396 547.646 120.174 547.879C119.241 559.869 118.463 571.702 117.919 582.758H121.652C122.041 572.092 122.507 560.569 123.363 548.58C124.141 548.658 124.84 548.736 125.54 548.813C125.229 562.749 124.996 573.882 124.763 582.758H127.485C127.64 572.715 127.796 561.114 127.951 548.736C131.607 548.424 134.562 547.334 136.273 546.556C132.851 556.91 130.985 569.99 130.207 582.758H132.773C133.396 572.247 134.562 561.815 136.584 553.095C136.896 555.197 137.596 557.689 139.073 560.803C144.362 571.78 166.994 567.031 166.994 567.031C153.15 567.031 149.184 546.089 153.384 544.454C157.506 542.819 155.25 561.893 168.861 564.773C182.471 567.654 186.671 557.922 186.671 557.922C176.016 556.054 156.961 540.405 160.617 537.213C164.194 534.021 181.849 555.898 189.005 555.898C196.16 555.898 204.015 538.926 204.015 538.926C195.227 543.519 166.605 531.452 163.961 527.326C161.317 523.199 192.271 538.303 203.548 536.435C214.904 534.566 214.204 516.738 214.204 516.738C210.626 519.93 179.594 516.971 176.327 514.013C173.061 511.132 207.048 515.492 213.504 512.534C219.959 509.653 217.859 494.783 217.859 494.783C217.859 494.783 194.293 499.298 188.305 497.819C182.316 496.34 213.037 493.693 215.759 487.465C218.559 481.236 211.715 466.833 211.715 466.833C208.526 469.714 198.571 467.3 194.371 466.911C205.648 462.084 218.87 456.401 224.548 454.299C233.881 450.328 259.546 449.316 271.757 452.508ZM79.8867 438.728C79.1868 438.884 78.6423 439.039 78.0979 439.273C82.0644 434.212 83.7755 427.128 84.8643 427.595C86.6531 428.451 84.0088 437.949 79.8867 438.728ZM108.741 493.537C103.997 497.274 98.2415 501.167 96.5305 499.61C93.9639 497.352 104.697 492.136 108.586 488.087C108.663 489.878 108.663 491.669 108.741 493.537ZM121.963 526.314C121.807 527.793 121.652 529.272 121.496 530.673C119.007 530.362 115.896 526.703 113.252 523.511C113.252 522.732 113.252 521.954 113.252 521.175C113.485 521.097 113.719 521.097 113.874 521.02C114.574 520.786 115.196 520.319 115.819 519.618C117.996 522.343 120.33 524.523 121.963 526.314ZM172.516 372.163C172.672 371.462 172.672 370.761 172.672 370.139C175.861 376.445 181.849 381.661 180.994 382.44C179.594 383.763 171.661 376.523 172.516 372.163ZM128.574 479.913C128.885 449.705 128.963 424.948 128.729 419.42C131.374 421.989 129.74 435.225 133.785 438.884C136.118 440.986 138.762 441.453 140.706 440.363C139.851 442.387 138.995 444.489 138.062 446.747C137.362 448.771 133.473 459.281 131.996 465.354C130.751 469.792 129.663 474.696 128.574 479.913ZM137.751 522.499C135.34 523.433 131.529 516.037 128.34 508.407C128.34 505.371 128.418 502.335 128.418 499.298C128.574 498.442 128.729 497.508 128.807 496.651C133.007 507.239 141.018 521.253 137.751 522.499ZM164.972 497.196C158.984 497.196 162.095 479.757 162.795 471.582C164.117 471.972 165.517 472.361 166.917 472.75C166.839 481.548 170.416 497.196 164.972 497.196ZM191.727 467.534C189.316 471.193 187.527 482.638 183.483 483.572C179.827 484.35 184.494 474.463 186.982 469.636C188.46 468.935 190.016 468.235 191.727 467.534Z" fill="url(#paint2_linear)"/>
<path id="Vector_4" d="M150.104 603.778L85.5651 604.946C85.5651 599.107 63.0105 608.138 63.0105 600.353C63.0105 593.034 71.8768 586.495 85.5651 582.446H153.229C166.917 586.573 175.784 593.034 175.784 600.353C175.706 608.138 165.27 599.73 150.104 603.778Z" fill="url(#paint3_linear)"/>
<path id="Vector_5" d="M562.537 606.465C562.537 614.732 388.955 626.972 262.548 613.014C134.533 598.841 63.3417 610.652 63.3417 602.277C63.3417 593.902 180.85 587.353 309.616 587.353C438.381 587.353 562.537 598.09 562.537 606.465Z" fill="#A69CC1"/>
<g id="arms">
<path id="Vector_6" d="M279.166 201.248L301.896 189.329L301.253 197.167L296.964 218.856L280.346 214.347L279.166 201.248Z" fill="#EDC07D"/>
<path id="Vector_7" d="M326.234 195.879C320.23 198.348 299.216 197.704 299.216 197.704C299.216 197.704 283.134 210.374 283.777 213.38C284.42 216.279 285.493 215.528 287.422 217.997C289.352 220.467 293.855 222.936 293.855 222.936C293.855 222.936 297.286 226.372 301.468 225.406C305.649 224.44 315.727 213.917 320.23 212.843C321.195 212.629 325.269 211.662 331.059 210.374L326.234 195.879Z" fill="#FFD290"/>
<path id="Vector_8" d="M301.896 189.329C301.896 189.329 314.44 199.207 313.368 201.14C312.189 202.965 299.537 197.812 299.537 197.812L301.896 189.329Z" fill="#EDC07D"/>
<path id="Vector_9" d="M320.658 213.81C320.658 213.81 308.329 208.012 307.042 210.052C305.756 212.092 312.296 215.743 312.296 215.743C312.296 215.743 305.327 212.522 304.04 213.381C302.861 214.239 308.972 218.749 308.972 218.749C308.972 218.749 302.11 214.991 300.395 216.065C298.679 217.139 304.791 223.688 304.791 223.688C304.791 223.688 321.302 220.038 320.658 213.81Z" fill="#EDC07D"/>
</g>
<g id="Group">
<g id="Group_2">
<path id="Vector_10" d="M424.336 243.229L403.322 246.235L415.115 191.906L426.48 197.704L424.336 243.229Z" fill="#230044"/>
<path id="Vector_11" d="M424.764 99.5669C424.764 99.5669 387.024 154.219 379.198 162.057C371.371 169.895 320.551 195.234 320.551 195.234L329.235 213.38L390.134 182.242L427.23 148.206L424.764 99.5669Z" fill="#270E2D"/>
<path id="Vector_12" d="M470.545 583.809L470.223 603.888L472.474 603.995L475.369 581.018L470.545 583.809Z" fill="#1D1C22"/>
<g id="Group_3">
<path id="Vector_13" d="M455.107 407.077C455.107 407.077 457.466 438.536 461.325 447.878C465.185 457.219 458.323 581.34 455 591.432C454.249 593.687 453.284 595.62 452.319 597.338C448.781 603.458 447.923 604.639 452.748 604.746C458.859 604.746 464.22 603.565 465.399 601.096C467.437 596.801 469.259 581.769 473.441 581.769C473.441 581.769 476.335 576.186 475.585 573.287C474.513 568.885 471.511 571.139 471.511 565.019C471.511 558.899 491.882 465.486 488.665 451.958C485.449 438.322 483.197 436.711 483.304 420.605C483.519 404.285 455.107 407.077 455.107 407.077Z" fill="#FFD290"/>
<path id="Vector_14" d="M441.276 374.114C441.276 374.114 418.439 417.814 419.833 430.698C421.334 443.583 426.159 454.105 421.977 471.714C417.796 489.323 384.988 553.423 384.237 565.127C383.916 570.066 385.417 570.495 385.417 570.495C385.309 578.978 382.736 588.104 380.914 589.822C378.662 592.077 376.089 603.243 373.945 603.243C371.8 603.243 353.574 605.176 353.574 605.176C353.145 600.989 358.72 604.317 361.936 595.727C365.153 587.138 367.19 574.146 371.371 556.752C375.553 539.358 392.493 459.689 392.6 441.436C392.707 423.075 390.992 423.075 393.779 410.942C396.567 398.917 407.289 376.261 407.289 376.261L441.276 374.114Z" fill="#EDC07D"/>
<path id="Vector_15" d="M419.833 430.806C418.332 417.921 441.276 374.221 441.276 374.221L407.288 376.583C407.288 376.583 396.674 399.131 393.779 411.264C391.742 420.069 392.064 422.538 392.385 430.376C398.926 431.772 409.004 433.812 420.583 435.745C420.262 434.027 420.047 432.416 419.833 430.806Z" fill="#D6AB78"/>
<path id="Vector_16" d="M483.412 420.498C483.519 404.285 455.107 407.077 455.107 407.077C455.107 407.077 456.608 427.155 459.181 439.932C468.723 440.362 477.837 440.254 485.342 438.966C484.162 434.241 483.412 429.839 483.412 420.498Z" fill="#EDC07D"/>
</g>
<path id="Vector_17" d="M417.366 224.439C417.366 224.439 413.399 285.963 410.397 300.673C407.395 315.275 390.133 419.21 390.133 419.21C390.133 419.21 466.792 425.652 485.341 419.21C485.341 419.21 487.378 285.855 483.089 268.783C478.693 251.604 459.716 220.467 459.716 220.467L417.366 224.439Z" fill="#51275B"/>
<path id="Vector_18" opacity="0.53" d="M417.366 224.439C417.366 224.439 417.152 227.553 416.83 232.599C422.62 238.29 430.554 247.631 433.77 257.617C437.416 268.998 465.399 267.387 482.125 265.24C476.442 247.738 459.717 220.359 459.717 220.359L417.366 224.439Z" fill="#1A0033"/>
<path id="Vector_19" d="M457.036 94.4132L433.77 92.6953L425.515 108.908L458.644 112.344L457.036 94.4132Z" fill="#270E2D"/>
<path id="Vector_20" d="M424.764 99.5671C424.764 99.5671 435.379 91.5143 471.296 99.5671C472.261 99.7818 473.118 138.757 473.118 138.757C473.118 138.757 456.5 204.039 459.609 220.359C459.609 220.359 440.525 236.465 412.113 222.399C412.113 222.399 415.758 171.076 413.185 159.695C410.612 148.313 405.465 137.898 412.756 126.088C420.261 114.277 424.764 99.5671 424.764 99.5671Z" fill="#FFF7CF"/>
<path id="Vector_21" d="M431.412 152.716V228.09C448.888 229.593 459.716 220.467 459.716 220.467C456.5 204.146 473.226 138.865 473.226 138.865C473.226 138.865 472.368 99.8892 471.403 99.6745C465.721 98.3861 460.681 97.5271 456.178 96.9902L431.412 152.716Z" fill="#D1CCB2"/>
<path id="Vector_22" d="M457.036 94.4131L436.772 152.608V249.349L481.588 251.497L465.935 230.989L460.681 205.22L473.118 138.757L471.296 99.5669L457.036 94.4131Z" fill="#52195D"/>
<path id="Vector_23" d="M433.77 92.6953L417.045 148.313L412.756 246.236H403.321L413.4 194.483L407.503 136.18L424.336 98.4933L433.77 92.6953Z" fill="#52195D"/>
<path id="Vector_24" d="M457.036 94.4131L436.772 152.608L462.718 118.786L467.007 95.9163L457.036 94.4131Z" fill="#582066"/>
<path id="Vector_25" d="M433.77 92.6953L417.045 148.313L418.546 108.586L425.515 94.4132L433.77 92.6953Z" fill="#582066"/>
<path id="Vector_26" d="M472.904 236.25C473.44 235.713 478.587 228.197 479.659 229.271C480.731 230.345 475.156 237.324 475.156 237.324C475.156 237.324 481.696 230.774 482.875 232.063C484.162 233.351 474.191 242.263 473.118 242.263C472.154 242.156 472.904 236.25 472.904 236.25Z" fill="#EDC07D"/>
<path id="Vector_27" d="M464.112 228.842C464.112 228.842 461.325 233.029 463.362 235.069C465.399 237.109 464.327 239.149 465.721 240.545C467.115 241.941 473.226 242.156 473.226 242.156C473.226 242.156 473.655 236.25 476.657 229.378C477.193 228.09 479.015 225.62 481.589 222.399C478.908 220.574 476.013 218.963 473.119 217.568C468.079 224.225 464.22 228.734 464.112 228.842Z" fill="#FFD290"/>
<path id="Vector_28" d="M471.295 99.567C471.295 99.567 467.757 127.913 471.295 135.751C474.726 143.374 494.99 152.071 498.528 167.533C501.101 179.021 480.301 202.321 469.258 216.708C472.046 219.5 480.409 224.976 483.089 226.801C494.347 212.521 522.544 178.807 523.295 170.969C524.153 161.198 486.306 98.6006 471.295 99.567Z" fill="#52195D"/>
<path id="Vector_29" d="M471.296 99.5669C470.759 106.224 470.331 112.559 470.223 119.216C470.116 131.134 470.867 134.892 473.44 137.898C479.551 144.985 495.848 153.574 498.528 167.533C494.776 153.789 479.015 146.166 472.582 138.65C470.223 135.858 469.687 132.959 469.366 129.201C468.722 120.397 469.902 108.479 471.296 99.5669Z" fill="#582066"/>
<path id="Vector_30" d="M472.046 568.133C470.116 579.407 463.897 598.734 459.501 600.559C452.318 602.062 452.318 601.311 452.318 597.445C448.78 603.565 444.706 606.679 449.53 606.679C455.642 606.679 465.184 607.109 466.47 604.639C468.507 600.344 469.687 583.809 473.868 583.809L472.474 604.102L474.726 604.21C474.726 604.21 478.157 576.293 477.406 573.502C476.441 569.529 473.225 568.777 472.046 568.133Z" fill="#301036"/>
<path id="Vector_31" d="M359.792 599.915C354.753 603.029 348.641 603.029 348.963 606.357C348.963 606.357 372.55 605.391 374.695 605.391C376.839 605.391 378.769 592.184 381.02 589.93C383.272 587.675 381.878 605.498 381.878 605.498H384.237C384.237 605.498 385.845 587.138 387.989 580.051C389.705 574.361 387.239 571.999 385.523 570.603C378.34 584.132 377.589 603.136 359.792 599.915Z" fill="#301036"/>
</g>
</g>
<g id="woman-head">
<path id="Vector_32" d="M447.816 11.2795C449.205 12.5734 463.043 10.6944 474.681 23.3021C490.055 40.0044 488.081 78.9726 488.081 78.9726C488.081 78.9726 471.663 82.6668 465.122 82.8562C458.581 83.0455 445.4 81.169 438.436 80.0683C431.256 78.9667 427.554 38.4732 432.421 27.6476C437.287 17.0367 447.816 11.2795 447.816 11.2795Z" fill="#350042"/>
<path id="Vector_33" d="M447.816 11.2794C447.816 11.2794 432.38 10.3605 428.589 20.3313C424.69 30.3017 426.175 62.1969 420.908 65.5049C420.908 65.5049 424.973 68.0976 428.297 67.8958C428.297 67.8958 430.533 71.8772 425.15 77.6544C425.15 77.6544 431.788 80.1497 438.542 80.1759C438.971 80.1776 444.005 81.593 444.45 77.4072C445.005 72.3629 441.081 61.2884 441.636 56.4588C443.861 35.8521 447.816 11.2794 447.816 11.2794Z" fill="#3E054B"/>
<path id="Vector_34" d="M447.486 13.1033C445.985 13.0975 444.591 13.1995 443.41 13.517C443.41 13.517 430.201 19.049 429.521 28.7098C428.839 38.478 430.219 42.2414 429.122 48.572C427.368 58.4434 433.622 76.9356 444.344 76.7625C444.579 71.5022 440.975 60.9658 441.422 56.2432C443.418 39.1789 446.498 19.2197 447.486 13.1033Z" fill="#350042"/>
<path id="Vector_35" d="M440.822 72.7762C440.822 72.7762 438.283 91.5563 435.691 96.4854C433.098 101.414 428.94 123.087 432.478 123.101C436.123 123.115 452.914 106.323 454.12 99.5633C455.219 92.6958 460.581 64.5853 460.581 64.5853L440.822 72.7762Z" fill="#FFD290"/>
<path id="Vector_36" d="M441.153 70.6302C441.045 70.7371 440.601 74.6008 440.601 74.7081C439.941 78.8931 439.835 78.6779 439.94 79.2152C441.317 83.6228 446.989 86.3291 455.273 78.9526C455.488 78.7387 458.286 76.1727 458.287 75.9579C459.491 69.6277 460.475 64.585 460.475 64.585C460.475 64.585 441.368 70.5236 441.153 70.6302Z" fill="#EDC07D"/>
<path id="Vector_37" d="M444.805 13.5227C444.805 13.5227 432.241 18.7351 431.668 28.0742C431.096 37.4133 432.368 41.0689 431.273 47.0774C430.284 53.0864 432.795 69.3093 442.214 73.3186C451.633 77.4353 464.345 61.8084 466.517 54.8376C468.795 47.8673 469.585 37.7775 467.162 26.8162C464.845 15.9626 451.782 11.6171 444.805 13.5227Z" fill="#FFD290"/>
<path id="Vector_38" d="M459.505 65.8697C462.95 62.125 465.648 57.7333 466.516 54.945C468.795 47.9747 469.585 37.8848 467.161 26.9235C464.845 15.9626 451.674 11.6166 444.698 13.5222C444.698 13.5222 432.133 18.7346 431.561 28.0737C431.334 31.1866 431.325 33.6561 431.424 35.8039L443.219 35.4203C443.219 35.4203 442.507 25.4319 444.876 22.8642L445.258 34.8913L453.299 35.0299C453.299 35.0299 456.214 29.78 456.125 25.1627C456.125 25.1627 456.421 31.6061 454.693 35.0353C454.693 35.0353 461.234 34.7386 461.435 38.1753C461.531 40.9673 460.498 58.4649 459.944 63.0797C459.941 64.046 459.723 65.0115 459.505 65.8697Z" fill="#EDC07D"/>
<path id="Vector_39" d="M483.768 29.8871C474.409 10.4165 457.266 7.45093 447.816 11.2796C441.811 11.5784 434.832 14.0209 431.81 19.163C427.062 27.09 430.785 34.7279 430.785 34.7279L442.043 34.6642C442.043 34.6642 442.516 23.1773 444.885 20.6096L445.367 34.5697L453.302 34.2784C453.302 34.2784 455.902 27.202 455.706 22.5843C455.706 22.5843 457.283 30.6433 455.554 34.1798C455.554 34.1798 461.234 34.8461 461.327 38.2823C461.424 41.0744 460.391 58.5719 459.837 63.1868C458.838 71.88 454.102 76.586 453.995 76.6929C453.995 76.6929 472.744 80.0942 476.62 75.9218L474.668 81.7123C474.668 81.7123 485.18 80.572 488.08 79.0801C490.981 77.4808 489.193 41.0748 483.768 29.8871Z" fill="#3E054B"/>
<path id="Vector_40" d="M431.809 19.1629C427.061 27.09 430.784 34.7278 430.784 34.7278L442.042 34.6641C442.042 34.6641 442.515 23.1772 444.884 20.6095L445.366 34.5697L453.301 34.2784C453.301 34.2784 455.901 27.2019 455.705 22.5842C455.705 22.5842 457.282 30.6432 455.553 34.1797C455.553 34.1797 461.233 34.846 461.326 38.2823C461.423 41.0743 460.39 58.5719 459.836 63.1867C459.834 63.7235 459.725 64.1526 459.616 64.689C470.164 54.2076 468.438 29.0759 465.686 20.1534C462.933 11.2309 447.6 11.3861 447.6 11.3861C441.702 11.5779 434.831 14.1282 431.809 19.1629Z" fill="#58006D"/>
<path id="Vector_41" d="M447.813 12.0309C461.969 11.3343 471.927 14.5941 476.914 27.9275C481.689 40.8307 486.437 60.7128 481.883 73.6871L477.28 71.9513C481.608 61.6604 479.102 44.3639 476.249 33.5083C472.657 19.8581 467.969 12.3239 447.813 12.0309Z" fill="#70497A"/>
<g id="Group_4">
<path id="Vector_42" d="M445.344 12.7728C440.514 14.1499 435.144 16.5986 432.982 21.0998C430.929 25.2793 431.875 30.1147 432.715 34.6276L433.894 34.6321C431.787 25.1753 430.636 17.7621 445.344 12.7728Z" fill="#70497A"/>
<path id="Vector_43" d="M445.879 13.204C435.891 17.4601 436.29 25.1924 438.612 34.6501L439.791 34.6547C436.718 25.3014 435.997 17.6752 445.879 13.204Z" fill="#70497A"/>
<path id="Vector_44" d="M447.703 12.6748C450.89 20.4179 450.115 26.6425 448.155 34.3656L449.335 34.3702C450.758 26.645 451.105 20.0967 447.703 12.6748Z" fill="#70497A"/>
</g>
<path id="Vector_45" d="M440.357 54.5214C441.972 52.5949 442.309 48.6235 441.997 46.1527C441.452 48.5128 440.792 52.8051 439.5 54.3033L439.284 54.6246C439.391 54.7324 440.992 56.4565 443.137 56.3575C442.495 56.1402 441.104 55.3832 440.357 54.5214Z" fill="#301736"/>
<g id="Group_5">
<path id="Vector_46" d="M449.991 58.7462C445.265 60.9827 438.187 61.2773 438.187 61.2773C438.187 61.2773 438.72 62.2457 439.574 63.2154C441.611 63.0086 445.688 62.4875 448.909 61.2116C449.665 59.9261 449.991 58.7462 449.991 58.7462Z" fill="white"/>
<path id="Vector_47" d="M449.016 61.3194C445.687 62.595 441.718 63.1164 439.68 63.3232C443.096 67.2019 446.745 66.1423 449.016 61.3194Z" fill="#2E162B"/>
</g>
<path id="Vector_48" d="M445.457 38.5425C445.457 38.5425 446.534 37.3656 448.68 36.9445C450.826 36.5233 455.427 39.0107 455.427 39.0107C455.427 39.0107 450.821 37.8118 449.534 37.8068C448.248 37.8018 446.206 39.0823 446.206 39.0823L445.457 38.5425Z" fill="#3E054B"/>
<path id="Vector_49" d="M439.559 39.0567C439.559 39.0567 438.705 38.087 436.885 37.5431C435.064 36.9992 430.983 38.8087 430.983 38.8087C430.983 38.8087 434.953 38.0725 436.132 38.1844C437.203 38.296 438.914 39.4837 438.914 39.4837L439.559 39.0567Z" fill="#3E054B"/>
<path id="Vector_50" d="M445.22 44.4473C446.297 43.2704 448.658 42.8501 450.051 43.0702C452.086 43.5076 453.152 45.1223 454.438 45.3421C452.506 45.764 451.871 43.7215 447.581 43.9196C446.83 44.0241 446.079 44.1285 445.22 44.4473Z" fill="#301736"/>
<path id="Vector_51" d="M439.214 45.0683C438.254 43.7761 436.005 43.1231 434.503 43.332C432.465 43.5389 431.173 45.1444 429.886 45.2468C431.706 45.8981 432.571 43.8614 436.858 44.4149C437.608 44.5252 438.465 44.7432 439.214 45.0683Z" fill="#301736"/>
<path id="Vector_52" d="M453.879 51.2454C456.839 51.2569 459.243 50.3529 459.247 49.2262C459.252 48.0995 456.855 47.1768 453.894 47.1653C450.934 47.1539 448.53 48.0579 448.526 49.1846C448.521 50.3112 450.918 51.2339 453.879 51.2454Z" fill="#FC9A9A"/>
<path id="Vector_53" d="M439.091 49.1477C439.086 50.3288 437.368 51.1811 435.223 51.1728C433.079 51.1645 431.367 50.1915 431.371 49.1178C431.376 47.9367 433.095 47.0844 435.239 47.0927C437.384 46.9937 439.095 47.9667 439.091 49.1477Z" fill="#FC9A9A"/>
</g>
<g id="men">
<path id="Vector_54" d="M166.591 602.277H196.611L177.419 590.466L179.564 581.018C175.168 581.018 174.096 584.024 169.7 584.024C168.413 590.896 166.591 602.277 166.591 602.277Z" fill="#301036"/>
<path id="Vector_55" d="M252.684 314.953C252.684 314.953 262.655 345.339 264.478 348.453C266.3 351.567 266.3 365.847 263.406 367.78C260.511 369.712 262.655 361.982 261.905 357.901C261.154 353.821 257.401 348.345 257.401 348.345C257.401 348.345 260.511 352.533 261.476 357.687C262.226 361.659 261.261 366.598 259.867 367.35C256.758 369.175 259.331 364.344 258.259 358.653C257.187 352.962 254.078 350.278 254.078 350.278C254.078 350.278 256.651 360.908 253.971 362.411C251.29 363.914 241.748 321.073 241.748 321.073L252.684 314.953Z" fill="#EDC07D"/>
<path id="Vector_56" d="M217.195 106.868C217.195 106.868 233.492 130.812 235.743 159.48C236.708 171.398 235.85 230.56 241.64 255.147C249.145 287.037 259.545 317.53 259.545 317.53L235.314 332.132L216.337 256.221L211.191 202.106L217.195 106.868Z" fill="#270E2D"/>
<path id="Vector_57" d="M197.897 356.613L164.66 590.037L180.421 587.353L207.546 460.87C207.546 460.87 225.344 343.406 225.344 301.102L197.897 356.613Z" fill="#270E2D"/>
<path id="Vector_58" d="M111.481 603.995H142.145L122.953 592.077L125.098 582.628C120.702 582.628 119.63 585.635 115.234 585.635C113.947 592.507 111.481 603.995 111.481 603.995Z" fill="#301036"/>
<path id="Vector_59" d="M174.954 88.5081L173.774 106.868L217.196 101.929L207.011 89.4744L174.954 88.5081Z" fill="#375866"/>
<path id="Vector_60" d="M231.455 229.379C231.348 167.103 221.806 105.151 208.189 97.3125C208.189 97.3125 192.429 96.2388 184.28 95.9167C172.165 95.4872 162.73 101.607 152.652 135.966C146.326 157.655 145.468 205.864 146.112 251.497C146.433 271.683 148.256 291.868 148.685 306.256C182.887 306.256 197.682 307.759 230.919 307.759C233.063 246.021 231.455 247.846 231.455 229.379Z" fill="#418AD2"/>
<path id="Vector_61" d="M208.189 97.3127C208.189 97.3127 226.523 105.58 232.206 160.876C237.781 216.172 245.608 329.126 245.608 329.126H219.983C219.983 329.126 217.196 167.748 217.196 156.689C217.196 145.63 208.189 97.3127 208.189 97.3127Z" fill="#52195D"/>
<path id="Vector_62" d="M162.731 175.693C162.731 175.693 162.731 175.586 162.731 175.693C163.16 175.586 163.16 175.586 162.731 175.693Z" fill="#FC7575"/>
<path id="Vector_63" d="M219.018 266.958L154.153 268.569L148.792 303.679L146.648 453.032C146.648 453.032 115.234 558.362 108.908 593.258C108.908 593.258 126.813 592.184 125.848 592.184L178.598 467.312L202.507 353.177L222.02 308.833L219.018 266.958Z" fill="#52195D"/>
<path id="Vector_64" d="M207.01 336.105C206.581 315.49 205.616 291.009 204.544 267.281L154.045 268.569L148.685 303.679L148.256 331.918L207.01 336.105Z" fill="#391342"/>
<path id="Vector_65" d="M154.153 268.461L152.438 278.984H219.876L219.019 266.958L154.153 268.461Z" fill="#270E2D"/>
<path id="Vector_66" d="M218.054 267.71H200.899V277.266H218.054V267.71Z" fill="#A07FC0"/>
<path id="Vector_67" opacity="0.53" d="M218.054 267.71H200.899V268.569C204.223 268.461 212.8 268.569 214.409 272.434C215.159 274.367 215.695 275.977 215.91 277.158H218.054V267.71Z" fill="#A992C0"/>
<path id="Vector_68" d="M202.508 353.177L173.881 465.701L125.849 592.184L178.599 467.312L202.508 353.177Z" fill="#7D348E"/>
<path id="Vector_69" d="M191.678 170.969C191.785 171.72 171.521 97.7417 171.521 97.7417C171.521 97.7417 164.767 99.567 155.653 104.399L142.573 145.951C142.573 145.951 137.212 221.755 137.212 227.768C137.212 230.989 130.672 279.413 124.668 323.435L198.754 329.126C197.682 267.71 191.678 170.969 191.678 170.969Z" fill="#52195D"/>
<path id="Vector_70" d="M193.072 195.127C193.072 195.127 147.184 141.656 142.359 148.421C141.93 154.541 140.751 171.505 139.572 188.255C151.151 217.568 188.569 265.348 197.039 275.87C195.86 245.591 194.251 215.313 193.072 195.127Z" fill="#391342"/>
<path id="Vector_71" d="M191.679 170.969L198.755 329.018C198.755 329.126 196.075 172.901 191.679 170.969Z" fill="#7D348E"/>
<g id="man-head">
<path id="Vector_72" d="M184.816 73.6909C184.065 73.2614 174.738 49.9619 174.738 49.9619C174.738 49.9619 168.519 32.5679 172.486 29.5615C176.453 26.5551 186.102 16.3549 194.465 16.1401C202.828 15.9254 208.403 18.5023 209.154 18.9318C209.904 19.3613 215.372 28.5951 215.372 28.5951C215.372 28.5951 212.799 25.4814 211.513 36.9701C210.333 48.4587 184.816 73.6909 184.816 73.6909Z" fill="#350042"/>
<path id="Vector_73" d="M205.938 72.617C204.973 75.6233 205.402 96.7754 204.544 102.144C203.794 107.405 179.778 115.565 179.241 96.4533C178.92 77.2339 180.742 54.686 180.742 54.686L205.938 72.617Z" fill="#FFD290"/>
<path id="Vector_74" d="M205.939 72.617L197.576 66.7116L180.743 54.686C180.743 54.7934 180.743 54.9008 180.743 55.1155C180.636 55.7597 180.529 57.1556 180.421 59.0882C180.421 59.5177 180.314 59.8398 180.314 60.2693V60.3767C180.207 61.7725 180.1 63.3831 179.992 65.101C179.992 65.2084 179.992 65.3157 179.992 65.4231C179.992 65.8526 179.992 66.2821 179.885 66.7116C179.885 66.9263 179.885 67.141 179.885 67.3558C179.885 67.3558 179.885 67.3558 179.885 67.4632C179.885 67.5705 179.885 67.6779 179.885 67.6779V67.7853C179.885 67.8926 179.885 68.1074 179.885 68.2148C182.994 78.5224 194.788 89.5816 205.081 90.9774C205.081 90.2258 205.188 89.5816 205.188 88.83C205.295 81.8509 205.402 74.3349 205.939 72.617Z" fill="#EDC07D"/>
<path id="Vector_75" d="M179.885 37.1849C176.775 44.8082 176.668 58.8738 183.959 69.3961C191.249 80.0258 201.435 85.5017 208.618 80.1332C215.909 74.7646 217.946 41.265 212.692 32.6753C207.439 24.0856 184.495 25.4814 179.885 37.1849Z" fill="#FFD290"/>
<path id="Vector_76" d="M179.885 69.3958C179.885 69.3958 178.276 58.444 174.095 55.7597C169.914 53.0755 167.984 51.4649 167.233 47.5996C166.483 43.7342 152.437 41.1573 154.796 34.8224C157.048 28.4876 168.091 25.4812 173.666 14.422C179.241 3.3628 185.245 -2.75733 198.326 1.21538C211.299 5.29547 213.121 13.2409 213.121 13.2409C213.121 13.2409 218.911 12.2746 222.342 19.1463C225.88 26.018 223.307 29.8834 221.055 33.1045C221.055 33.1045 221.591 23.978 218.482 24.6222C215.373 25.2664 218.482 35.2519 218.482 35.2519C218.482 35.2519 213.765 31.3866 208.833 25.4812C203.901 19.5758 205.08 26.4475 206.581 33.9635C208.082 41.4794 197.039 34.393 192.107 29.0244C187.175 23.5485 180.206 28.7023 177.633 36.3256C174.845 43.949 185.889 56.0819 179.885 69.3958Z" fill="#58006D"/>
<path id="Vector_77" d="M182.243 49.2102C182.243 49.2102 177.633 41.3722 175.274 44.808C172.916 48.2439 174.846 58.4441 179.885 58.5515C185.031 58.5515 182.243 49.2102 182.243 49.2102Z" fill="#FFD290"/>
<path id="Vector_78" d="M179.67 49.747C179.67 49.747 179.884 45.2374 177.418 46.7406C174.953 48.2438 177.418 55.545 179.67 55.4376C181.922 55.2229 179.67 49.747 179.67 49.747Z" fill="#EDC07D"/>
<path id="Vector_79" d="M205.723 47.707C206.581 49.7471 207.224 52.0019 207.546 54.1493C208.296 58.981 207.546 61.021 207.438 61.3431C206.902 61.2358 205.401 61.021 203.471 60.4842C204.758 60.4842 206.045 60.4842 207.224 60.5915L206.795 60.9136C207.01 56.5114 206.152 52.1092 205.723 47.707Z" fill="#301736"/>
<path id="Vector_80" d="M199.505 48.8882C199.72 50.284 199.184 51.4651 198.219 51.6799C197.254 51.8946 196.182 50.9283 195.967 49.5325C195.753 48.1366 196.289 46.9556 197.254 46.7408C198.219 46.5261 199.184 47.4924 199.505 48.8882Z" fill="#530667"/>
<path id="Vector_81" d="M213.228 46.8479C213.443 48.2438 212.907 49.4248 211.942 49.6396C210.977 49.8543 209.905 48.888 209.69 47.4922C209.476 46.0964 210.012 44.9153 210.977 44.7005C211.942 44.5932 212.907 45.5595 213.228 46.8479Z" fill="#530667"/>
<path id="Vector_82" d="M191.679 45.3449C191.679 45.3449 193.823 41.587 197.254 40.9427C200.792 40.1911 199.72 43.1975 198.862 43.3049C198.112 43.5196 191.572 44.7007 191.679 45.3449Z" fill="#3E054B"/>
<path id="Vector_83" d="M208.404 39.2249C208.404 39.2249 212.585 40.4059 213.336 42.3386C213.336 42.3386 208.94 42.0165 208.19 40.9428C207.332 39.9765 208.404 39.2249 208.404 39.2249Z" fill="#3E054B"/>
<path id="Vector_84" d="M194.573 66.3896C194.573 66.3896 205.294 70.4697 211.191 66.497C211.191 66.497 209.583 71.8656 208.082 72.9393C204.865 74.9793 197.253 73.3687 194.573 66.3896Z" fill="white"/>
</g>
<path id="Vector_85" d="M207.011 89.4746L217.303 168.07L220.734 129.309L217.196 125.014V101.93L207.011 89.4746Z" fill="#391342"/>
<path id="Vector_86" d="M179.349 86.5752L191.571 104.828L185.675 116.102L167.555 94.3059L174.953 88.5079L179.349 86.5752Z" fill="#4E9BDB"/>
<path id="Vector_87" d="M207.01 89.4746L201.864 103.97L207.01 112.13L209.584 98.279L207.01 89.4746Z" fill="#4E9BDB"/>
<path id="Vector_88" d="M191.679 170.969L174.953 88.5081L157.584 102.037L172.809 130.275L171.629 139.08L191.679 170.969Z" fill="#7D348E"/>
<path id="Vector_89" d="M201.863 103.969L197.789 107.298L191.571 104.936L188.14 111.378C188.14 111.378 201.863 112.129 205.08 109.016L201.863 103.969Z" fill="#0A569F"/>
<path id="Vector_90" d="M192.107 104.828L201.542 104.184L201.328 112.559L193.716 112.881L192.107 104.828Z" fill="#600377"/>
<path id="Vector_91" d="M193.716 112.881L201.328 112.559L215.91 251.497L209.477 261.375L197.683 253.43L193.716 112.881Z" fill="#8805A8"/>
<path id="Vector_92" d="M269.087 202.965L279.809 200.925L281.096 216.709L269.087 223.795V202.965Z" fill="#4E9BDB"/>
<path id="Vector_93" d="M275.199 201.784L269.087 202.966V223.795L278.094 218.427L275.199 201.784Z" fill="#0A569F"/>
<path id="Vector_94" d="M155.654 104.506C155.654 104.506 139.679 116.102 141.609 149.173C143.003 172.15 198.755 242.156 198.755 242.156L276.379 228.197L274.342 201.462L217.947 204.039L155.654 104.506Z" fill="#52195D"/>
<path id="Vector_95" d="M218.375 203.18C196.931 168.607 178.276 138.436 155.654 104.506C176.882 140.583 195.538 170.325 217.41 205.113C243.999 203.61 252.362 203.18 274.341 201.57C264.906 201.677 227.381 202.751 218.375 203.18Z" fill="#70497A"/>
</g>
<path id="Vector_96" d="M296.213 244.732C295.676 244.732 295.248 244.303 295.14 243.766C295.14 243.229 295.569 242.692 296.105 242.692C338.991 239.042 345.103 216.709 345.103 216.494C345.21 215.957 345.853 215.635 346.389 215.742C346.925 215.85 347.247 216.494 347.14 217.031C346.925 217.89 340.707 240.867 296.213 244.732Z" fill="#8805A8"/>
<path id="Vector_97" d="M331.273 244.732C330.844 244.732 330.522 244.518 330.308 244.088C330.093 243.551 330.308 242.907 330.844 242.692C357.648 231.526 358.613 213.595 358.613 213.488C358.613 212.951 359.149 212.521 359.685 212.521C360.221 212.521 360.757 213.058 360.65 213.595C360.65 214.347 359.685 233.029 331.594 244.625C331.487 244.625 331.38 244.732 331.273 244.732Z" fill="#8805A8"/>
<path id="Vector_98" d="M520.937 193.751C520.937 193.751 520.503 193.179 520.711 192.817C532.722 176.558 530.336 161.863 530.348 161.709C530.349 161.308 530.672 161.012 530.971 161.023C531.362 161.007 531.636 161.326 531.612 161.634C531.6 161.788 535.721 177.12 521.8 193.444C521.649 193.84 520.937 193.751 520.937 193.751Z" fill="#52195D"/>
<path id="Vector_99" d="M153.187 63.8684C152.865 63.8684 152.437 63.6537 152.329 63.3316C137.641 37.8847 153.938 3.3113 154.688 1.80811C154.903 1.27125 155.546 1.05651 156.082 1.27125C156.618 1.486 156.832 2.13022 156.618 2.66707C156.404 3.09656 140 37.7773 154.152 62.2579C154.474 62.7947 154.259 63.4389 153.723 63.6537C153.616 63.761 153.402 63.8684 153.187 63.8684Z" fill="#8805A8"/>
<path id="Vector_100" d="M503.564 55.1101C503.028 55.1101 502.491 54.6806 502.491 54.0364C502.491 24.1873 491.019 5.29007 490.912 5.07533C490.591 4.53847 490.805 3.89425 491.234 3.67951C491.77 3.35739 492.413 3.57213 492.628 4.00162C492.735 4.21636 504.529 23.6505 504.529 54.0364C504.636 54.6806 504.1 55.1101 503.564 55.1101Z" fill="#8805A8"/>
</g>
<defs>
<linearGradient id="paint0_linear" x1="196.691" y1="639.723" x2="463.498" y2="94.7706" gradientUnits="userSpaceOnUse">
<stop stop-color="#F2F2F2"/>
<stop offset="1" stop-color="#A69DC1"/>
</linearGradient>
<linearGradient id="paint1_linear" x1="95.2732" y1="-1.53604" x2="67.6084" y2="159.612" gradientUnits="userSpaceOnUse">
<stop stop-color="#8805A8"/>
<stop offset="0.395833" stop-color="#8805A8"/>
</linearGradient>
<linearGradient id="paint2_linear" x1="151.2" y1="331.29" x2="151.2" y2="582.758" gradientUnits="userSpaceOnUse">
<stop stop-color="#A69EC1"/>
<stop offset="1" stop-color="#A69CC1"/>
</linearGradient>
<linearGradient id="paint3_linear" x1="109.746" y1="656.998" x2="120.733" y2="592.36" gradientUnits="userSpaceOnUse">
<stop stop-color="#EEEDEF"/>
<stop offset="1" stop-color="#A69EC1"/>
</linearGradient>
</defs>
</svg>
