<svg width="520" height="360" viewBox="0 0 520 360" fill="none" xmlns="http://www.w3.org/2000/svg">
<style>
	* {
		transform-box: fill-box;
	}
	#menu {
		transform-origin: center center;
		animation: menu-animation 1.5s linear infinite alternate;
	}
	@keyframes menu-animation {
        0%, 10% {
            transform: scaleX(0.88);
        }
        80%, 100% {
            transform: scaleX(1);
        }
    }
	#blocks {
		transform-origin: center top;
		animation: blocks-animation 1.5s linear infinite alternate;
	}
	#content {
		transform-origin: center bottom;
		animation: blocks-animation 1.5s linear infinite alternate;
	}
	@keyframes blocks-animation {
        0%, 10% {
            transform: scaleY(0.45);
        }
        90%, 100% {
            transform: scaleY(1);
        }
    }
</style>
<g id="company">
<mask id="mask0" mask-type="alpha" maskUnits="userSpaceOnUse" x="0" y="0" width="520" height="360">
<rect id="Rectangle 41" width="520" height="360" fill="#4A4A4A"/>
</mask>
<g mask="url(#mask0)">
<g id="&#209;&#134;&#208;&#178;&#208;&#181;&#209;&#130;&#209;&#139;">
<path id="Vector" d="M366.957 304.222C367.068 303.894 366.687 303.673 366.494 303.974C353.333 333.936 336.629 362.514 317.504 389.082C320.894 379.886 322.946 370.328 325.681 360.91C328.807 350.068 333.404 340 338.819 330.208C350.145 309.969 362.807 290.092 376.664 271.534C376.911 271.343 376.476 271.013 376.311 271.231C362.372 289.761 349.004 308.759 337.487 329.025C332.102 338.46 327.534 348.173 324.438 358.658C321.983 366.981 320.019 375.47 317.564 383.792C317.538 383.6 317.539 383.326 317.513 383.134C320.299 365.22 322.976 347.361 327.809 329.865C330.464 320.145 333.801 310.565 337.982 301.454C342.44 291.796 348.069 282.718 353.916 273.805C360.7 263.471 367.539 253.246 373.479 242.442C373.728 241.977 373.019 241.646 372.771 242.111C361.89 261.036 347.417 277.645 337.652 297.315C328.744 315.26 323.599 334.755 320.228 354.394C319.012 361.214 318.041 368.117 317.07 375.02C315.812 352.623 312.342 330.026 316.739 307.897C319.585 293.574 324.861 279.616 330.354 266.097C335.79 252.742 341.853 239.692 348.653 226.891C356.226 212.612 364.672 198.721 373.852 185.353C373.989 185.217 373.69 185.024 373.634 185.188C356.331 208.803 341.859 234.293 330.519 261.301C324.919 274.6 319.645 288.284 316.199 302.222C312.978 315.228 312.488 328.519 313.172 341.842C313.661 351.437 314.777 361.061 315.539 370.656C313.169 355.847 307.627 341.52 305.778 326.52C303.073 303.817 308.84 281.145 317.3 260.21C322.544 247.156 328.823 234.545 335.156 222.043C335.349 221.743 334.804 221.466 334.611 221.767C323.251 243.185 311.562 264.765 306.198 288.672C303.812 299.215 302.598 310.064 303.216 320.892C303.917 331.474 306.614 341.817 309.339 352.078C312.411 363.738 315.563 375.7 315.189 387.84C315.188 388.114 315.323 388.251 315.459 388.389C315.404 388.553 315.43 388.745 315.374 388.909C315.372 389.183 315.426 389.293 315.562 389.431C315.395 389.924 315.228 390.416 315.089 390.827C314.894 391.402 315.493 391.788 315.958 391.762C316.146 392.283 316.773 392.587 317.241 392.014C337.38 364.874 353.734 335.445 366.957 304.222Z" fill="url(#paint0_linear)"/>
<path id="Vector_2" d="M276.834 375.696C268.768 370.454 260.716 365.318 252.665 360.182C250.419 358.769 248.104 355.315 250.285 353.933C251.572 353.106 253.201 353.958 254.392 354.763C262.699 360.187 270.125 367.029 276.186 374.923C268.553 362.717 254.401 356.38 244.055 346.385C242.549 344.869 241.443 341.571 243.651 341.155C244.391 341.052 245.1 341.493 245.794 341.828C257.448 349.591 267.082 359.901 276.491 370.134C263.089 356.789 250.066 343.067 237.528 328.954C238.063 327.369 240.15 326.863 241.629 327.412C243.214 327.947 244.252 329.205 245.396 330.448C254.411 340.952 263.516 351.335 272.53 361.839C262.451 349.11 252.477 336.366 242.398 323.637C239.645 320.137 236.848 316.319 236.879 311.891C249.673 321.653 260.176 334.323 267.363 348.75C259.581 331.601 244.107 318.868 235.72 302.02C245.914 307.828 254.39 316.789 259.627 327.279C252.274 317.084 245.026 306.873 237.673 296.677C236.049 294.314 234.352 291.422 235.615 288.873C245.297 298.744 253.159 310.272 258.902 322.849C251.001 309.493 243.07 295.926 239.678 280.863C243.603 281.935 245.704 286.173 247.202 289.956C251.321 300.171 255.349 310.506 259.469 320.721C254.505 309.868 251.373 298.222 250.055 286.43C257.247 299.346 260.172 314.15 262.947 328.651C261.443 317.856 259.834 307.077 261.021 296.231C265.983 311.722 268.45 327.885 268.211 343.993C268.226 335.576 268.241 327.159 268.27 318.848C268.269 314.964 269.102 310.101 272.882 309.359C275.063 325.022 274.719 341.144 271.823 356.759C272.19 346.999 274.295 337.32 277.999 328.281C278.654 326.788 280.443 324.92 281.587 326.163C279.531 339.288 277.263 352.442 274.769 365.519C276.184 358.633 279.259 352.056 283.902 346.662C285.27 348.737 284.475 351.545 283.726 353.915C281.45 360.813 279.174 367.711 276.898 374.608" fill="url(#paint1_linear)"/>
<path id="Vector_3" d="M295.988 198.023C292.549 211.244 282.452 223.349 270.741 233.201C265.23 237.835 259.062 242.078 252.438 245.811C245.478 249.744 237.793 252.674 230.319 256.045C229.723 256.313 230.166 256.962 230.815 256.792C239.058 254.615 246.77 250.755 253.659 246.908C260.417 243.095 266.653 238.812 272.302 234.052C283.946 224.24 295.032 211.719 296.673 198.137C296.579 197.801 296.015 197.746 295.988 198.023Z" fill="url(#paint2_linear)"/>
<path id="Vector_4" d="M21.1783 261.044C15.9846 281.216 0.801731 299.704 -16.7982 314.758C-25.0801 321.838 -34.348 328.324 -44.2992 334.034C-54.7547 340.049 -66.2949 344.537 -77.5209 349.696C-78.415 350.106 -77.7522 351.094 -76.7779 350.834C-64.4007 347.493 -52.8172 341.588 -42.4694 335.704C-32.3165 329.873 -22.9477 323.325 -14.4572 316.052C3.04186 301.059 19.7103 281.935 22.2054 261.216C22.0655 260.704 21.2195 260.622 21.1783 261.044Z" fill="url(#paint3_linear)"/>
<path id="Vector_5" d="M1.96636 -0.947368C-0.44112 -2.94737 -2.53458 -5.26316 -4 -8C-0.650467 3.26315 6.46729 13.1579 13.3757 22.6316C18.714 30 24.0523 37.3684 29.3907 44.7368C29.0766 39.2632 28.7626 33.7895 28.5533 28.3158C37.2411 35.2632 45.1963 43.1579 52 52C44.6729 33.4737 31.1701 17.4737 14.3178 7.05263C10.1308 4.42105 5.73458 2.21053 1.96636 -0.947368Z" fill="url(#paint4_linear)"/>
<path id="Vector_6" d="M197.865 288.115C188.399 288.461 179.633 292.79 171.718 297.857C184.266 287.488 195.537 275.451 205.054 262.271C196.482 260.772 187.737 264.477 181.218 270.132C174.738 275.872 170.114 283.425 165.991 290.954C168.816 282.381 171.655 273.393 170.412 264.433C169.252 255.434 162.801 246.506 153.753 245.533C160.918 251.776 161.938 262.479 161.204 272.039C160.484 281.183 158.756 290.584 161.385 299.216C158.085 304.522 155.688 310.233 153.291 315.944C150.031 323.794 146.609 331.512 143.597 339.453C137.8 354.718 132.699 370.381 128.26 386.15C123.737 401.957 119.915 417.955 116.341 434.045C114.524 442.36 112.746 450.759 110.928 459.074C109.34 466.772 106.906 474.857 106.851 482.773C106.856 483.898 108.312 483.948 108.632 483.083C111.846 475.358 112.767 466.429 114.454 458.277C116.088 450.456 117.676 442.758 119.434 434.983C122.956 419.225 126.724 403.559 131.072 388.037C139.478 358.15 149.975 329.251 165.202 302.179C168.9 306.221 175.215 307.935 180.899 307.377C187.96 306.699 194.357 303.457 201.058 301.1C207.674 298.782 215.303 297.331 221.655 300.463C217.27 292.022 207.293 287.684 197.865 288.115Z" fill="url(#paint5_linear)"/>
</g>
<g id="&#209;&#129;&#208;&#176;&#208;&#185;&#209;&#130;">
<path id="Vector_7" d="M520 0H103V232.203H520V0Z" fill="#A69EC1"/>
</g>
<g id="content">
<path id="Vector_8" d="M504.686 168.855H118.101V172.631H504.686V168.855Z" fill="#ECEBEE"/>
<path id="Vector_9" d="M504.685 182.069H118.1V185.845H504.685V182.069Z" fill="#D8D5E0"/>
<path id="Vector_10" d="M504.685 195.495H118.1V199.271H504.685V195.495Z" fill="#CDC9DA"/>
</g>
<g id="blocks">
<path id="Vector_11" d="M298.075 63.557H118.102V149.558H298.075V63.557Z" fill="#CDC9DA"/>
<path id="Vector_12" d="M403.165 63.5557H313.179V149.557H403.165V63.5557Z" fill="#D8D5E0"/>
<path id="Vector_13" d="M504.687 63.5557H414.701V149.557H504.687V63.5557Z" fill="#ECEBEE"/>
</g>
<g id="menu">
<path id="Vector_14" d="M509.931 15.7312H112.858V48.4535H509.931V15.7312Z" fill="white"/>
<path id="Vector_15" d="M132.158 30.8333C132.158 33.5601 129.85 35.8675 127.123 35.8675C124.397 35.8675 122.089 33.5601 122.089 30.8333C122.089 28.1064 124.397 25.7991 127.123 25.7991C129.85 25.7991 132.158 27.8967 132.158 30.8333Z" fill="#3A1442"/>
<path id="Vector_16" d="M148.515 30.8333C148.515 33.5601 146.208 35.8675 143.481 35.8675C140.754 35.8675 138.447 33.5601 138.447 30.8333C138.447 28.1064 140.754 25.7991 143.481 25.7991C146.208 25.7991 148.515 27.8967 148.515 30.8333Z" fill="#7D348E"/>
<path id="Vector_17" d="M164.878 30.8333C164.878 33.5601 162.571 35.8675 159.844 35.8675C157.117 35.8675 154.81 33.5601 154.81 30.8333C154.81 28.1064 157.117 25.7991 159.844 25.7991C162.571 25.7991 164.878 27.8967 164.878 30.8333Z" fill="#CF60F6"/>
</g>
<g id="man">
<path id="Vector_18" d="M331.84 337.889C330.918 345.031 331.609 352.172 330.918 359.314C329.306 375.44 321.473 391.105 324.698 407H372.846C372.615 403.545 373.537 399.859 375.61 397.094C376.992 395.251 378.605 393.639 379.757 391.796C380.448 390.644 380.909 389.492 381.369 388.11C385.286 377.743 389.202 367.377 393.118 356.78C395.191 358.392 396.113 361.157 396.343 363.691C396.574 366.225 395.883 368.989 395.652 371.523C393.809 383.272 394.04 395.021 394.5 406.77C395.192 406.77 396.113 406.77 396.804 406.77H435.506C438.04 388.571 445.873 371.754 450.941 354.246C455.548 338.12 457.161 321.303 455.548 304.486C455.548 303.564 455.318 302.643 454.627 301.952C453.936 301.491 453.245 301.261 452.323 301.261C424.218 297.344 395.422 293.428 366.856 297.344C358.102 298.496 346.814 300.109 341.746 308.172C336.217 316.465 332.992 328.444 331.84 337.889Z" fill="#52195D"/>
<path id="Vector_19" d="M335.757 202.434C335.296 207.041 333.223 212.109 335.526 216.256C338.291 221.324 346.354 222.246 348.427 227.775C348.888 228.926 348.888 230.309 349.579 231.461C350.27 232.612 351.652 233.303 352.804 232.843C353.265 232.612 353.495 231.921 353.726 231.461C358.333 222.015 358.103 210.727 357.642 200.361C357.411 196.444 356.951 192.298 354.186 189.764C350.961 186.999 341.286 184.695 337.369 186.538C335.066 187.69 334.605 189.533 335.066 191.607C335.296 195.292 336.217 198.518 335.757 202.434Z" fill="#EDC07D"/>
<path id="Vector_20" d="M467.756 219.94C467.986 222.705 468.447 225.93 470.981 227.312C473.975 228.925 477.431 226.621 480.656 225.239C483.881 223.857 487.337 223.857 490.562 224.548C491.484 224.778 492.33 225.907 493.252 225.446C494.403 224.986 494.088 227.956 494.088 221.681C495.01 212.236 494.939 202.432 491.944 193.448C491.484 192.066 491.023 190.914 490.101 189.762C488.028 187.458 484.572 186.998 481.578 187.458C476.97 187.919 467.525 190.914 465.913 195.982C464.991 198.746 466.604 204.506 466.834 207.5C467.064 211.647 467.525 215.794 467.756 219.94Z" fill="#FFD290"/>
<path id="Vector_21" d="M491.486 192.067L465.685 198.287C465.685 198.517 465.685 199.439 465.685 200.13C465.685 201.282 465.915 202.203 466.145 203.355L492.407 195.062C492.177 194.371 492.177 193.91 491.947 193.219C491.947 192.988 491.716 192.528 491.486 192.067Z" fill="#EDC07D"/>
<path id="Vector_22" d="M277.012 162.809C273.556 162.349 270.101 162.349 266.645 162.579C264.802 162.809 263.189 162.809 261.577 163.04C260.425 163.27 258.582 163.04 258.121 164.422C257.43 167.186 261.577 166.495 262.959 166.726C264.802 167.186 266.645 167.878 268.488 168.799C267.797 168.338 265.032 169.49 264.111 169.49C262.498 169.721 260.886 169.951 259.273 170.181C256.048 170.642 252.592 170.642 249.367 170.872C246.142 170.872 242.917 170.872 239.692 170.642C238.77 170.642 230.938 168.108 231.398 170.412C231.398 170.642 231.859 171.103 232.09 171.103C236.236 174.328 241.535 176.632 246.372 178.244C252.592 180.548 259.273 181.7 265.954 181.93C273.326 182.16 280.928 181.239 287.609 184.464C294.98 188.15 298.897 195.983 303.043 203.124C310.876 216.486 320.552 228.695 331.84 239.292C334.374 241.596 337.368 244.13 340.824 244.36C345.892 244.821 350.5 240.444 351.421 235.376C352.343 230.308 350.73 225.24 348.196 220.863C340.133 207.271 325.85 199.899 313.64 190.684C300.97 181.7 293.598 165.113 277.012 162.809Z" fill="#FFD290"/>
<path id="Vector_23" d="M348.427 124.568C345.662 126.181 342.898 127.793 341.055 130.327C338.982 132.861 338.06 136.317 337.139 139.542C333.453 152.903 330.688 166.495 328.615 180.317C328.154 182.852 327.924 185.616 329.767 187.459C330.919 188.841 332.992 189.302 334.605 189.532C338.751 190.454 343.128 191.145 347.275 192.066C348.657 192.297 350.27 192.757 351.191 193.679C352.343 194.831 352.804 196.443 353.034 198.286C355.799 216.716 348.427 234.915 347.275 253.575C346.584 263.711 347.736 274.078 344.741 283.753C342.667 290.204 338.982 296.424 338.521 303.105C338.521 304.256 338.521 305.639 339.212 306.79C339.903 307.942 341.055 308.403 341.976 309.094C349.809 313.471 358.333 316.927 367.087 319.23C372.616 320.613 377.223 321.304 380.218 322.225C382.982 323.147 385.747 323.147 389.433 324.068C411.778 325.911 429.056 322.456 449.789 313.702C452.554 312.55 455.549 311.167 456.7 308.403C457.392 307.021 457.392 305.178 457.392 303.796C457.392 276.612 457.622 249.198 457.622 222.014C457.622 212.108 457.622 201.972 459.695 192.297C462.46 192.527 460.386 198.517 463.151 199.208C463.612 199.438 464.072 199.208 464.533 198.977C474.669 196.443 484.575 194.14 494.711 191.606C494.481 189.532 493.56 187.689 492.869 185.846C486.188 169.26 494.481 148.987 485.727 133.322C475.591 115.353 449.329 114.432 434.815 99.6881C432.972 97.8451 431.36 95.7718 429.056 94.62C425.14 92.5466 420.302 93.2377 416.155 94.1592C405.328 96.4629 395.652 99.2274 385.747 104.295C373.076 110.515 360.636 117.196 348.427 124.568Z" fill="#418AD2"/>
<path id="Vector_24" d="M387.357 102.451C387.126 103.142 386.666 103.833 386.896 104.755C387.126 105.446 387.587 106.137 388.278 106.598C393.346 111.205 398.875 116.043 405.556 116.964C414.54 118.116 423.064 111.896 429.054 104.985C430.205 103.603 431.588 101.99 432.048 100.147C432.509 98.3043 432.048 96.0006 430.205 95.0791C429.514 94.6184 428.823 94.6184 428.362 93.9273C427.902 93.4665 427.902 92.7754 427.902 92.0843C427.211 83.791 426.75 75.2673 426.059 66.974C423.064 66.974 420.53 69.2777 417.996 70.8903C411.085 75.4977 402.331 75.9584 394.959 80.1051C387.126 84.7125 390.351 94.8487 387.357 102.451Z" fill="#FFD290"/>
<path id="Vector_25" d="M389.662 87.4794C389.201 89.092 389.201 90.7045 388.971 92.5475C389.431 93.6993 390.122 95.0816 392.196 96.4638C394.73 98.3067 397.264 99.2282 400.95 100.15C410.165 102.453 417.076 94.6208 421.453 86.7883C423.065 83.7935 423.296 83.3327 424.678 78.9557C425.599 74.5787 425.83 74.5787 426.06 70.6624C426.06 69.2802 425.83 67.8979 425.83 66.7461C422.835 66.7461 420.301 69.0498 417.767 70.6624C410.856 75.2698 402.102 75.7305 394.73 79.8772C392.196 81.7201 390.583 84.4846 389.662 87.4794Z" fill="#EDC07D"/>
<path id="Vector_26" d="M373.768 34.7231C374.689 40.0216 375.611 45.0897 376.302 50.3882C377.224 56.8386 373.307 50.1578 373.998 61.2156C374.689 71.1215 379.758 69.9696 379.297 66.2837C381.14 74.8074 386.208 83.3311 392.889 88.86C395.423 90.9333 398.187 92.5459 401.182 93.237C409.706 95.3103 418.46 89.3207 422.376 81.7185C426.523 74.1163 426.983 65.1319 427.444 56.3778C427.214 60.0637 428.135 60.9852 429.748 58.4512C430.669 56.8386 431.13 54.9956 431.13 53.1526C431.13 48.7756 429.978 42.3253 426.983 45.5504C426.753 40.0216 426.523 33.8016 424.68 28.5031C422.837 23.2046 418.92 18.3668 413.622 16.2935C410.166 14.9113 406.25 15.1416 402.334 15.372C391.737 16.2935 371.464 19.749 373.768 34.7231Z" fill="#FFD290"/>
<path id="Ellipse 12" d="M376.947 61.8956C377.087 63.7219 377.072 65.0708 376.464 65.1176C375.855 65.1645 375.247 63.7219 375.107 61.8956C374.966 60.0692 375.346 58.5506 375.954 58.5038C376.563 58.4569 376.806 60.0692 376.947 61.8956Z" fill="#EDC07D"/>
<path id="Vector_27" d="M472.826 281.219C475.36 298.497 478.125 317.157 470.062 332.822C468.219 336.738 465.685 340.194 463.612 343.88C458.774 353.555 458.313 364.613 457.852 375.441C459.926 376.592 462.46 374.749 463.151 372.676C463.842 370.603 463.612 368.069 463.842 365.995C464.072 363.692 464.994 361.158 467.297 360.467C467.758 360.236 468.449 360.236 468.91 360.467C469.601 360.927 469.832 361.618 469.832 362.309C471.444 370.833 466.837 380.278 459.235 384.425C458.313 385.116 459.926 386.268 461.077 386.268C469.601 385.807 477.664 380.509 482.271 373.367C486.879 366.226 488.491 357.011 487.109 348.718C486.188 344.11 484.575 339.272 486.418 334.895C487.109 333.283 488.031 332.131 488.722 330.518C489.874 327.984 490.104 324.99 490.334 322.225C491.947 306.56 495.863 291.125 497.937 275.69C500.01 259.795 501.392 242.978 494.942 228.234C494.02 225.931 493.56 223.627 493.329 221.323C492.868 218.559 491.717 215.564 490.104 213.03C488.952 210.957 486.879 209.805 484.575 209.344C466.837 206.81 468.68 225.7 468.91 236.988C469.371 251.732 470.523 266.476 472.826 281.219Z" fill="#FFD290"/>
<path id="Vector_28" d="M413.16 50.6192C414.432 50.6192 415.463 49.5878 415.463 48.3155C415.463 47.0432 414.432 46.0118 413.16 46.0118C411.887 46.0118 410.856 47.0432 410.856 48.3155C410.856 49.5878 411.887 50.6192 413.16 50.6192Z" fill="#530667"/>
<path id="Vector_29" d="M390.353 53.8449C391.625 53.8449 392.656 52.8135 392.656 51.5412C392.656 50.2689 391.625 49.2375 390.353 49.2375C389.08 49.2375 388.049 50.2689 388.049 51.5412C388.049 52.8135 389.08 53.8449 390.353 53.8449Z" fill="#530667"/>
<path id="Vector_30" d="M383.673 48.7753C385.055 47.6235 385.515 47.8538 387.128 47.1627C388.971 46.4716 391.505 45.7805 394.039 46.0109C395.191 46.0109 395.421 44.3983 393.809 44.3983C392.196 44.3983 385.746 43.2464 382.06 50.1575L383.673 48.7753Z" fill="#501B5B"/>
<path id="Vector_31" d="M418.917 44.4008C417.305 43.7097 416.614 43.4793 415.001 43.2489C413.158 43.0186 410.624 43.2489 408.551 44.1704C407.629 44.6312 406.938 43.0186 408.32 42.5578C409.703 42.0971 416.383 39.7934 420.991 45.3223L418.917 44.4008Z" fill="#501B5B"/>
<path id="Vector_32" d="M403.255 52.6937C403.255 52.6937 401.571 65.7303 403.414 65.7303C405.257 65.7303 407.862 64.6729 407.862 64.6729L404.566 64.8089C404.148 64.8089 403.73 64.2026 403.73 63.9722C403.354 62.7596 403.414 59.7889 403.414 59.7889C403.414 59.3706 403.255 52.6937 403.255 52.6937Z" fill="#43184D"/>
<path id="Vector_33" d="M416.154 69.5109C411.316 72.736 403.944 75.9612 398.185 74.8094C402.793 79.4168 412.238 74.3486 416.154 69.5109Z" fill="white"/>
<path id="Vector_34" d="M426.751 48.3151C426.751 47.8544 427.442 44.6292 427.903 43.7077C428.364 42.7863 432.971 36.7966 431.82 34.0322C430.668 31.2678 433.202 24.1263 433.432 22.5137C433.662 20.9011 432.05 12.6078 428.594 12.1471C425.83 11.6863 425.369 11.456 424.217 9.84339C423.065 8.2308 421.914 3.85378 417.306 6.61822C412.929 9.15228 408.552 5.92711 406.479 5.46637C405.097 5.00563 390.814 -2.13583 380.908 8.2308C379.065 10.0738 367.777 8.92191 366.855 15.3723C365.934 21.3619 358.332 22.5137 363.86 34.0322C365.012 36.5663 358.562 43.247 365.473 46.7025C372.384 50.1581 375.379 51.7707 375.84 53.6136C376.3 55.4566 377.452 57.2996 377.452 57.5299C377.452 57.7603 377.683 41.6344 377.683 41.6344C377.683 41.6344 377.222 35.4144 382.29 30.3463C382.981 29.6552 385.054 30.1159 387.128 29.1944C388.74 28.273 388.51 26.6604 390.123 25.9693C393.117 25.0478 396.803 24.3567 401.411 24.1263C403.945 24.1263 407.17 25.0478 410.165 24.8174C425.139 23.6656 426.751 48.3151 426.751 48.3151Z" fill="#3A1442"/>
</g>
<g id="girl">
<path id="Vector_35" d="M91.7034 83.6099C89.6671 86.2571 86.8162 87.6825 84.5763 89.9224C81.5218 93.1806 79.8927 97.8641 80.7073 102.14C80.9109 102.955 81.1145 103.769 81.7254 104.584C83.3545 106.824 86.409 107.231 89.0562 107.231C94.3506 107.435 99.8486 107.028 105.143 106.417C105.55 106.417 106.161 106.213 106.365 105.806C106.568 105.602 106.568 105.195 106.568 104.788C106.365 101.529 104.939 98.475 103.514 95.4205C102.292 92.7733 100.867 89.9224 99.0341 87.6825C97.8123 86.0534 96.3869 84.8316 94.9615 83.4062C93.3324 81.9808 93.1288 81.7772 91.7034 83.6099Z" fill="#350042"/>
<path id="Vector_36" d="M70.3219 271.358C83.558 272.987 97.2013 268.1 107.79 256.493C108.401 255.882 109.012 255.271 109.216 254.253C109.419 253.235 109.216 252.217 108.808 251.199C106.161 242.443 99.4413 238.37 93.1287 235.926C79.8926 230.836 66.0457 230.021 52.8096 233.076C46.2934 234.705 29.3919 243.664 38.5554 255.679C46.0897 265.453 60.5476 270.137 70.3219 271.358Z" fill="#EDC07D"/>
<path id="Vector_37" d="M95.7749 252.625C102.495 252.421 109.418 252.014 116.138 251.2C118.378 250.996 120.618 250.792 122.451 251.81C125.098 253.643 125.302 257.308 125.302 260.567C125.505 279.912 134.058 298.238 134.058 317.583C134.058 332.652 128.967 347.314 127.134 362.382C126.523 362.586 125.709 362.79 125.098 362.79H78.2626C77.6517 357.088 78.059 351.183 79.0771 345.481C79.8916 341.816 80.9098 337.947 81.1134 334.281C81.3171 330.412 80.2989 326.34 77.6517 323.692C76.6335 322.674 74.8008 321.86 73.579 322.878C72.9682 323.285 72.7645 324.1 72.5609 324.914C71.1355 330.209 71.1355 335.91 71.5427 341.408C71.95 348.535 72.7645 355.866 74.8008 362.79H17.784C17.3767 347.925 11.8786 333.874 11.0641 319.213C10.4532 307.402 12.6932 295.591 16.3585 284.391C19.413 275.432 22.6711 262.399 28.9837 255.069C34.889 248.145 47.9215 252.014 55.6595 252.218C69.0992 252.829 82.5389 253.032 95.7749 252.625Z" fill="#51275B"/>
<path id="Vector_38" d="M15.5443 125.558C11.2681 127.798 6.9918 130.649 4.75185 134.722C2.71553 138.794 2.91916 143.885 3.12279 148.569C3.53006 155.492 3.93732 162.416 4.34458 169.339C4.75185 175.448 5.15911 181.557 6.78816 187.462C9.43538 197.237 15.5443 206.197 15.748 216.174C15.748 219.229 15.3407 222.487 15.748 225.542C16.1552 228.596 18.1915 231.854 21.0424 232.465C22.6714 232.872 24.7078 232.465 26.3368 233.076C29.5949 234.094 30.8167 238.167 30.6131 241.425C30.4094 244.683 28.984 248.145 28.984 251.403C36.9257 243.054 47.4419 244.072 58.8453 244.479C63.9361 244.683 69.0269 245.905 74.1177 246.923C80.023 248.348 85.9283 249.57 91.8336 251.403C106.088 255.475 121.026 255.475 133.854 263.01C133.447 256.901 132.836 250.588 132.429 244.479C132.225 241.018 131.818 237.352 129.578 234.909C128.356 233.687 126.727 232.669 126.32 230.836C125.709 227.985 129.374 226.152 132.225 225.338C137.112 224.116 142 222.691 146.887 221.469C148.312 221.062 149.738 220.654 150.552 219.84C151.367 219.025 151.774 218.007 152.181 216.989C157.068 203.549 150.959 189.091 147.294 175.244C142.203 155.289 142.203 133.907 133.243 115.58C132.022 113.137 131.207 108.861 128.56 108.453C123.673 107.639 123.469 108.25 115.935 106.621C102.12 105.171 88.2408 107.639 74.3939 107.842C64.6196 108.046 55.8634 111.101 46.7 113.34C35.9075 116.191 25.5223 120.264 15.5443 125.558Z" fill="#BD63D4"/>
<path id="Vector_39" d="M45.6831 113.341C59.7337 122.708 77.4496 126.17 93.9438 123.115C98.6273 122.097 103.311 120.671 107.994 119.042C115.325 116.395 122.656 113.341 128.968 108.861C116.954 106.214 104.329 105.195 91.9075 105.806C88.853 106.01 85.3913 106.01 83.5586 103.566C82.3368 101.937 82.3368 99.6974 82.1332 97.4574C81.5223 90.1267 67.879 67.9308 59.3264 78.1124C55.6611 82.3887 58.1046 90.9412 56.8828 96.2357C55.2538 103.159 51.1812 109.268 45.6831 113.341Z" fill="#EDC07D"/>
<path id="Vector_40" d="M80.5005 111.101C73.5771 115.784 56.0647 118.635 55.6575 118.635C67.6717 123.726 81.1114 125.355 93.9402 122.911C98.6238 121.893 103.307 120.468 107.991 118.839C113.285 117.006 118.376 114.97 123.06 112.322C125.3 111.101 126.521 110.286 127.336 109.675C127.743 109.268 128.363 109.319 128.77 108.912C125.104 108.097 120.483 107.185 116.614 106.574C110.097 106.778 87.6276 106.417 80.5005 111.101Z" fill="#FFD190"/>
<path id="Vector_41" d="M46.2916 59.9894C44.4589 62.8402 45.2734 67.3201 48.1242 69.3564C49.5497 70.3746 51.3824 70.7819 52.1969 72.2073C53.215 73.8363 52.8078 75.8726 52.8078 77.909C53.0114 84.6288 59.324 89.516 65.0257 93.1814C68.0802 95.014 71.1346 96.8467 74.5964 97.6612C78.0581 98.4758 81.9271 98.0685 84.778 95.8286C86.407 94.6068 87.4252 92.9777 88.4433 91.145C96.7922 76.4835 97.4031 58.7676 97.8104 42.0698C97.8104 39.8298 97.8104 37.7935 97.1995 35.7572C95.5704 31.6846 91.0905 29.6482 87.0179 28.6301C80.5017 27.001 73.5782 26.5938 67.2656 28.8337C60.953 31.0737 55.455 36.1645 53.6223 42.477C51.7896 48.3824 53.6223 54.8986 51.7896 60.6003C50.1606 59.9894 47.9206 59.5821 46.2916 59.9894Z" fill="#FFD190"/>
<path id="Vector_42" d="M61.5655 35.7571C57.2892 40.8479 55.0493 47.5677 54.2348 54.0839C54.0311 55.713 54.2348 56.9348 53.013 58.7675C52.6057 59.582 52.6057 60.3965 51.5875 60.3965C47.5149 59.7856 46.904 61.211 47.3113 65.08C47.5149 68.3382 50.773 69.3563 51.9948 71.189C57.0856 78.7234 59.1219 86.0541 58.7147 94.403C58.1038 102.956 53.4202 110.694 50.1621 118.839C46.904 126.78 45.0713 136.555 50.1621 143.682C47.9222 143.071 46.2931 140.424 46.7004 137.98C43.035 145.718 50.773 154.271 51.1803 162.823C51.5875 170.561 45.4786 178.299 47.7185 185.834C43.2386 183.797 40.1842 178.707 40.1842 173.819C34.8897 173.616 29.3917 170.358 27.559 165.47C26.3372 162.212 26.7445 158.547 26.5408 154.882C26.3372 151.42 25.1154 147.347 21.8573 145.922C21.0428 145.515 20.2283 145.311 19.4137 144.7C17.7847 143.478 17.9883 141.035 18.5992 139.202C19.2101 137.369 20.4319 135.74 20.6355 133.704C20.8392 132.075 20.4319 130.242 20.2283 128.613C19.4137 122.504 21.4501 116.599 23.4864 110.897C22.2646 112.73 21.0428 114.563 19.821 116.395C22.4682 112.119 20.4319 106.621 21.0428 101.734C21.8573 95.2175 27.1517 90.1267 28.1699 83.6105C28.7808 79.3343 27.7626 75.058 26.9481 70.9854C25.1154 60.1929 26.5408 47.7713 34.6861 40.6442C36.7224 39.0152 38.9624 37.5898 40.5914 35.5534C43.035 32.2953 43.6459 28.0191 45.4786 24.5573C48.9403 18.2448 56.2711 15.3939 63.3982 14.3758C69.3035 13.5612 75.6161 13.9685 80.9105 16.6157C85.7977 19.2629 90.8885 24.761 90.2776 30.6663C84.5759 32.0917 81.1141 28.8336 76.0233 28.4263C70.5253 28.0191 64.8236 31.8881 61.5655 35.7571Z" fill="#52195D"/>
<path id="Vector_43" d="M96.3852 45.1234C96.3852 54.2868 95.1634 63.2466 93.738 72.41C93.1271 76.0754 92.7198 79.5371 92.1089 83.2025C91.2944 87.886 90.6835 92.7732 88.4436 97.0495C87.0181 99.6967 85.1854 102.14 84.9818 104.991C91.498 105.398 97.8106 106.009 104.327 106.417C105.141 106.417 106.16 106.62 106.974 107.027C107.381 107.231 107.789 107.638 108.196 107.435C108.603 107.435 108.807 107.027 108.807 106.824C110.843 102.955 107.992 98.2712 107.381 93.7913C106.77 89.5151 107.992 85.2388 107.585 80.9626C107.178 76.4827 104.734 72.0028 105.141 67.5229C105.956 69.5592 106.77 71.5955 107.585 73.4282C107.381 68.9483 105.141 64.8756 104.327 60.5994C103.92 58.5631 103.92 56.3231 104.123 54.2868C104.123 50.2142 104.123 46.1415 104.327 41.8653C104.327 38.6071 104.327 35.349 103.309 32.2946C102.087 29.2401 99.8469 26.7965 96.9961 25.5747C94.9598 24.5566 89.2581 22.9275 88.2399 26.1856C87.4254 29.0365 92.1089 31.48 93.5343 33.1091C95.9779 36.5708 96.1816 41.0507 96.3852 45.1234Z" fill="#52195D"/>
<path id="Vector_44" d="M99.4398 191.74C101.272 191.536 103.105 191.332 104.734 190.722C106.16 190.111 107.381 188.889 108.603 187.871C111.454 185.02 114.305 182.169 116.952 179.115C119.192 176.467 121.432 173.006 120.414 169.747C120.007 168.729 119.396 167.915 119.396 166.897C119.396 165.471 120.618 164.453 121.839 163.639C126.523 160.177 131.614 157.122 136.908 154.679C137.723 155.697 137.519 156.919 136.908 157.937C136.297 158.955 135.279 159.77 134.261 160.38C132.428 161.602 130.799 163.028 128.966 164.249C127.541 165.268 126.116 166.693 126.116 168.322C126.319 169.951 127.948 170.969 129.577 171.173C131.206 171.377 132.632 170.969 134.261 170.766C140.37 169.951 146.682 173.413 149.533 178.911C149.126 180.133 147.293 179.725 146.275 179.115C142.406 176.671 137.926 174.431 133.243 175.449C132.225 175.653 131.206 176.671 131.817 177.282C132.021 177.485 133.446 177.485 133.854 177.485C134.464 177.689 135.279 177.689 135.89 177.893C137.112 178.3 139.352 180.133 140.573 180.744C143.017 182.169 144.035 183.594 145.664 185.834C146.479 186.853 147.09 187.463 147.701 188.685C147.904 189.296 148.108 190.111 148.311 190.722C148.515 191.332 148.515 191.74 147.701 191.74C147.09 191.74 146.682 191.74 146.071 191.536C145.053 191.332 144.239 190.722 143.424 189.907C141.999 188.685 140.573 187.26 138.741 187.056C139.963 188.074 141.184 188.889 142.202 190.111C142.61 190.518 146.275 193.369 144.239 193.776C143.424 193.98 142.202 193.572 141.388 193.369C140.166 192.961 139.148 192.351 138.13 191.74C136.094 190.518 134.057 188.685 131.817 187.871C130.799 187.463 129.577 187.26 128.356 187.463C122.247 188.278 120.414 198.052 114.305 198.663C113.083 198.867 112.065 198.46 110.843 198.46C109.011 198.46 107.381 199.07 105.752 199.478C96.1817 202.532 86.4074 204.568 76.6331 206.401C76.0222 206.605 75.4113 206.605 74.5967 206.605C73.7822 206.605 72.9677 205.994 72.1532 205.587C68.0805 203.347 62.9897 201.107 59.7316 197.645C55.659 193.165 64.4152 193.165 67.266 193.165C78.0585 193.165 88.851 192.554 99.4398 191.74Z" fill="#FFD290"/>
<path id="Vector_45" d="M79.8912 69.9659C77.4477 67.115 77.0404 61.0061 77.4477 57.3407C78.2622 61.0061 79.2803 67.3187 81.113 69.5586L81.5203 69.9659C81.3167 70.1695 78.8731 72.8167 75.8186 72.6131C76.8368 72.4094 78.8731 71.1877 79.8912 69.9659Z" fill="#452140"/>
<path id="Vector_46" d="M66.8583 79.335C73.3745 82.7967 76.2253 85.4439 82.5379 81.9822C77.0399 87.6839 70.32 84.2221 66.8583 79.335Z" fill="#2E162B"/>
<path id="Vector_47" d="M72.3563 45.939C72.3563 45.939 70.7273 44.31 67.4692 43.4954C64.2111 42.8845 57.2876 46.5499 57.2876 46.5499C57.2876 46.5499 64.2111 44.7172 66.0438 44.7172C67.8764 44.7172 70.9309 46.7535 70.9309 46.7535L72.3563 45.939Z" fill="#5C2C55"/>
<path id="Vector_48" d="M81.1129 46.5488C81.1129 46.5488 82.3347 44.9198 85.1855 44.3089C88.0364 43.4943 94.1453 46.1415 94.1453 46.1415C94.1453 46.1415 88.0364 45.1234 86.4073 45.327C84.7783 45.5307 82.1311 47.1597 82.1311 47.1597L81.1129 46.5488Z" fill="#5C2C55"/>
<path id="Vector_49" d="M72.5608 54.6956C70.9318 52.8629 67.47 52.252 65.2301 52.6593C62.1756 53.2702 60.5466 55.7138 58.5103 56.121C61.3611 56.7319 62.3793 53.6775 68.8955 53.8811C70.3209 54.0847 71.339 54.2883 72.5608 54.6956Z" fill="#2E162B"/>
<path id="Vector_50" d="M81.7233 55.7126C83.1487 53.8799 86.6104 52.8617 88.8504 53.0654C91.9049 53.4726 93.9412 55.7126 95.7739 55.9162C92.923 56.9344 91.7012 53.6763 85.185 54.6944C84.1668 54.8981 82.9451 55.1017 81.7233 55.7126Z" fill="#2E162B"/>
</g>
</g>
</g>
<defs>
<linearGradient id="paint0_linear" x1="360.512" y1="173.058" x2="477.353" y2="291.455" gradientUnits="userSpaceOnUse">
<stop offset="0.0468952" stop-color="#A69EC1"/>
<stop offset="1" stop-color="#ECEBEE"/>
</linearGradient>
<linearGradient id="paint1_linear" x1="331.559" y1="401.765" x2="293.886" y2="227.19" gradientUnits="userSpaceOnUse">
<stop offset="0.0468952" stop-color="#A69EC1"/>
<stop offset="1" stop-color="#ECEBEE"/>
</linearGradient>
<linearGradient id="paint2_linear" x1="244.23" y1="260.341" x2="302.514" y2="185.213" gradientUnits="userSpaceOnUse">
<stop offset="0.0468952" stop-color="#A69EC1"/>
<stop offset="1" stop-color="#ECEBEE"/>
</linearGradient>
<linearGradient id="paint3_linear" x1="-56.6518" y1="356.215" x2="32.6812" y2="242.812" gradientUnits="userSpaceOnUse">
<stop offset="0.0468952" stop-color="#A69EC1"/>
<stop offset="1" stop-color="#ECEBEE"/>
</linearGradient>
<linearGradient id="paint4_linear" x1="9.39347" y1="54.0084" x2="56.1338" y2="-20.1998" gradientUnits="userSpaceOnUse">
<stop offset="0.0468952" stop-color="#A69EC1"/>
<stop offset="1" stop-color="#ECEBEE"/>
</linearGradient>
<linearGradient id="paint5_linear" x1="147.622" y1="241.077" x2="107.805" y2="525.468" gradientUnits="userSpaceOnUse">
<stop offset="0.0468952" stop-color="#A69EC1"/>
<stop offset="1" stop-color="#ECEBEE"/>
</linearGradient>
</defs>
</svg>
