<svg width="520" height="360" viewBox="0 0 520 360" fill="none" xmlns="http://www.w3.org/2000/svg">
<style>
	#geo-elem {
		transform-box: fill-box;
		transform-origin: center bottom;
		animation: geo-elem-animation 3s linear infinite alternate;
	}
	@keyframes geo-elem-animation {
        0% {
            transform: rotate(-3deg);
        }
        100% {
            transform: rotate(3deg);
        }
    }
</style>
<g id="geo">
<mask id="mask0" mask-type="alpha" maskUnits="userSpaceOnUse" x="0" y="0" width="520" height="360">
<rect id="Rectangle 43" width="520" height="360" fill="#C4C4C4"/>
</mask>
<g mask="url(#mask0)">
<path id="Vector" d="M339.036 277.187C331.927 241.394 342.461 202.588 366.677 175.195C384.923 191.465 390.445 218.693 385.52 242.509C381.803 259.825 373.133 275.673 362.409 289.816C348.192 308.363 342.775 295.964 339.036 277.187Z" fill="url(#paint0_linear)"/>
<path id="Vector_2" d="M123.854 299.34C121.842 272.266 106.583 246.535 83.7796 231.705C73.9297 246.994 75.3779 267.612 83.6392 283.709C89.7433 295.386 99.1066 305.026 109.605 313.036C123.481 323.51 124.902 313.545 123.854 299.34Z" fill="url(#paint1_linear)"/>
<path id="Union" fill-rule="evenodd" clip-rule="evenodd" d="M473.884 141.907C478.208 134.813 479.82 125.262 477.66 115.2C475.383 104.592 469.38 95.5884 461.773 90C456.908 97.2442 454.994 107.231 457.271 117.838C459.364 127.592 464.609 135.99 471.354 141.623C471.957 146.793 472.794 153.062 473.943 160.191C471.63 154.828 468.116 149.721 463.482 145.418C455.512 138.019 445.886 134.448 437.141 134.862C438.02 144.228 442.678 153.956 450.699 161.407C458.355 168.516 467.54 172.09 476.004 171.993C477.171 178.2 478.554 184.853 480.189 191.839C475.283 185.142 468.154 179.776 459.755 177.138C449.819 174.033 440.193 175.379 433 179.984C437.813 188.366 445.938 195.248 455.822 198.353C465.162 201.272 474.228 200.258 481.257 196.3C482.307 200.589 483.452 204.989 484.699 209.477C486.285 215.184 488.086 221.194 490.128 227.422C486.449 221.683 481.215 217.297 474.969 215.325C467.154 212.841 459.34 214.755 453.389 219.723C456.959 227.743 463.221 234.056 471.087 236.54C478.577 238.92 486.067 237.308 491.917 232.75C505.488 272.248 528.666 319.324 567.5 353.948L569 352.033C523.547 311.516 499.772 253.618 487.763 211.363C495.416 211.925 503.235 209.258 509.176 203.268C515.386 197.059 518.232 188.573 517.818 180.19C509.901 179.362 501.724 182.001 495.566 188.21C490.098 193.678 487.198 200.91 486.9 208.283C484.562 199.816 482.594 191.671 480.938 184.016C488.473 184.467 496.137 181.79 501.983 175.896C508.193 169.687 511.039 161.201 510.625 152.818C502.707 151.99 494.531 154.629 488.373 160.838C483.432 165.82 480.59 172.267 479.873 178.951C476.817 164.004 474.976 151.197 473.884 141.907Z" fill="url(#paint2_linear)"/>
<path id="Vector_3" d="M301.184 208.548C303.918 213.351 305.934 218.476 306.648 223.9C308.145 203.265 302.552 182.514 297.043 162.587C292.815 147.111 288.588 131.634 284.361 116.157C281.46 125.359 278.559 134.562 275.485 143.698C265.453 126.809 257.225 108.822 251.494 90C252.039 125.083 264.38 159.891 285.749 187.625C291.032 194.585 296.923 200.985 301.184 208.548Z" fill="url(#paint3_linear)"/>
<path id="Vector_4" d="M42.596 81.3159C44.4016 84.489 45.7336 87.875 46.2054 91.4578C47.1942 77.8262 43.4996 64.1174 39.86 50.9531C37.0673 40.7288 34.2746 30.5044 31.4819 20.28C29.5654 26.3593 27.649 32.4386 25.6181 38.4745C18.9907 27.3171 13.5553 15.4344 9.76929 3C10.1294 26.1767 18.2822 49.1716 32.399 67.4936C35.8888 72.0919 39.7811 76.3194 42.596 81.3159Z" fill="url(#paint4_linear)"/>
<path id="Vector_5" d="M98.9523 92.3551C87.9502 88.8123 78.1264 77.9927 70.2574 65.3779C66.5566 59.4417 63.2079 52.7825 60.3052 45.6179C57.246 38.0904 55.0565 29.7574 52.4894 21.6603C52.2852 21.0154 51.7233 21.5083 51.8427 22.2131C53.3781 31.1674 56.3485 39.5157 59.3377 46.9664C62.303 54.2762 65.683 61.008 69.485 67.0935C77.3227 79.6358 87.4609 91.5273 98.8322 93.1033C99.1177 92.9958 99.1843 92.3802 98.9523 92.3551Z" fill="#A69EC1"/>
<path id="Vector_6" d="M382.53 112.711C387.751 85.6879 387.224 82.4451 384.253 65.1754C382.854 57.0507 381.002 48.816 377.935 40.4151C374.72 31.5802 372.063 22.6584 367.968 13.8051C367.641 13.1003 368.524 12.9939 368.972 13.6711C374.65 22.2905 378.588 31.7092 381.804 40.4191C384.93 48.9936 387.238 57.4733 388.665 65.8097C391.606 82.9926 392.009 101.716 383.224 113.208C382.888 113.377 382.346 112.939 382.53 112.711Z" fill="#A69EC1"/>
<path id="Vector_7" d="M26.9827 139C26.9827 139 16.9851 156.292 16.8409 167.425C16.6967 178.557 17.8983 187.603 12.8274 202.858C7.75645 218.089 17.8262 227.742 14.9182 236.157C12.0103 244.573 11.794 254.541 11.8901 262.084C11.9862 269.651 0.426434 294.656 -1.32796 307.316C-3.08236 319.976 -0.847306 320.024 -0.847306 320.024C-0.847306 320.024 1.07532 303.314 3.71893 297.784C6.38657 292.255 14.4616 273.192 16.3362 265.819C18.2348 258.446 23.3537 253.717 27.7518 241.226C32.1738 228.736 38.4464 218.235 37.9657 200.506C37.485 182.777 44.5507 164.078 26.9827 139Z" fill="url(#paint5_linear)"/>
<path id="Vector_8" d="M429.209 81.5574C447.173 66.8401 473.525 44.5399 482.708 30.661C499.565 5.20856 509.001 -25.7598 505.513 -56C505.384 -55.9531 470.989 39.1585 429.209 81.5574Z" fill="url(#paint6_linear)"/>
<g id="doroga">
<path id="Vector_9" fill-rule="evenodd" clip-rule="evenodd" d="M0 288.798C40.3165 276.996 83.9241 276.288 133.291 278.176C139.873 278.412 147.279 278.884 153.861 279.356C159.62 279.828 171.139 280.3 171.139 280.3L236.139 287.854C248.481 288.562 260.823 288.798 273.165 288.798C292.911 288.562 321.709 288.326 339.81 287.382C402.342 283.605 453.354 277.232 520 260V343.798C275.864 402 127.669 326 0 370V288.798Z" fill="#727270"/>
<path id="Vector_10" fill-rule="evenodd" clip-rule="evenodd" d="M471.46 307.447C483.802 305.086 496.967 302.254 510.131 299.421V306.502C496.967 309.335 483.802 311.932 471.46 314.056V307.447Z" fill="#67CDFD"/>
<path id="Vector_11" fill-rule="evenodd" clip-rule="evenodd" d="M412.21 316.416C424.552 314.999 437.717 313.347 450.881 310.986V317.36C437.717 319.484 424.552 321.137 412.21 322.553V316.416Z" fill="#67CDFD"/>
<path id="Vector_12" fill-rule="evenodd" clip-rule="evenodd" d="M352.974 321.845C365.316 321.137 379.303 319.957 391.645 319.013V324.914C379.303 326.094 365.316 327.038 352.974 327.511V321.845Z" fill="#67CDFD"/>
<path id="Vector_13" fill-rule="evenodd" clip-rule="evenodd" d="M294.551 323.497C306.07 323.497 320.057 323.261 332.399 322.789V328.454C320.057 328.926 306.07 329.162 293.728 329.162L294.551 323.497Z" fill="#67CDFD"/>
<path id="Vector_14" fill-rule="evenodd" clip-rule="evenodd" d="M239.423 322.318C250.942 322.79 265.752 323.027 278.094 323.027L277.271 328.692C264.93 328.692 248.474 328.22 236.132 327.748L239.423 322.318Z" fill="#67CDFD"/>
<path id="Vector_15" fill-rule="evenodd" clip-rule="evenodd" d="M176.898 318.777C189.239 319.485 202.404 320.194 215.569 321.138V326.803C202.404 326.095 189.239 325.623 176.898 324.915V318.777Z" fill="#67CDFD"/>
<path id="Vector_16" fill-rule="evenodd" clip-rule="evenodd" d="M117.663 310.417C130.005 310.653 143.17 311.125 156.334 311.833V318.207C143.17 317.735 130.005 317.262 117.663 317.026V310.417Z" fill="#67CDFD"/>
<path id="Vector_17" fill-rule="evenodd" clip-rule="evenodd" d="M59.2345 312.068C71.5763 310.888 84.7408 310.416 97.9054 310.18V317.025C85.5636 317.261 71.5763 317.969 59.2345 318.914V312.068Z" fill="#67CDFD"/>
<path id="Vector_18" fill-rule="evenodd" clip-rule="evenodd" d="M5.75171 321.745C16.4479 318.677 27.9669 316.316 38.6631 314.428V321.037C27.9669 322.453 16.4479 324.342 5.75171 326.938V321.745V321.745Z" fill="#67CDFD"/>
</g>
<g id="geo-elem">
<path id="Vector_19" d="M94.0414 201.878C94.1929 201.419 94.6475 201.419 95.1021 201.343C99.269 201.189 103.36 201.036 107.451 200.424C108.133 200.348 108.815 200.194 109.421 199.888C110.558 199.429 111.694 199.429 112.83 199.735C113.436 199.888 114.118 199.965 114.724 199.965C116.77 199.965 122.755 197.898 125.786 197.363C126.468 197.21 126.998 196.674 127.225 195.985C130.256 183.968 136.695 157.104 137.529 148.302C138.589 136.974 146.317 86 146.317 86L167 91.8169C167 91.8169 158.515 129.474 156.166 147.69C154.348 161.772 140.408 191.699 136.014 200.271C133.892 206.7 129.119 206.853 127.983 207.006C127.377 207.083 126.771 207.389 126.316 207.925C125.558 208.843 124.725 209.609 123.74 210.221C122.982 210.68 122.452 211.292 121.922 211.981C121.013 213.282 120.255 214.66 119.497 215.961C118.967 216.88 118.437 217.109 117.679 216.956C116.846 216.727 116.467 216.114 116.467 215.119C116.467 213.665 116.997 212.287 117.679 210.986C118.361 209.762 118.361 209.073 117.528 208.001C117.073 207.389 116.618 206.777 115.937 206.241C115.331 205.705 114.649 205.323 113.815 205.476C112.3 205.858 110.861 206.164 109.27 206.318L107.982 206.547C107.906 206.547 107.3 206.7 107.3 206.7C107.224 206.7 105.027 207.006 104.269 207.006C103.663 207.006 102.678 207.083 101.845 207.083C101.087 207.083 99.4963 206.7 99.4205 206.7C98.6629 206.7 98.0568 206.394 97.5265 205.935C97.2992 205.705 97.0719 205.476 97.2234 205.169C97.2992 204.863 97.6022 204.71 97.9053 204.634C98.4356 204.557 100.936 204.251 100.936 204.098C100.178 204.098 97.7537 204.021 96.9961 204.021C95.9355 204.021 95.1021 203.639 94.3445 202.873C94.1929 202.644 93.8899 202.338 94.0414 201.878Z" fill="#FFD290"/>
<g id="location">
<path id="Vector_20" d="M304.267 54.6103C277.759 18.1119 239.309 1.11914 199.187 1.11914C199.187 1.11914 100.913 1.11914 71.7774 89.3138C61.0305 121.863 63.4187 157.045 76.4343 188.757C80.9719 199.647 86.9424 211.613 94.8234 222.982C120.138 259.72 199.187 360.001 199.187 360.001H216.382C238.473 329.366 293.879 227.41 310.596 194.74C331.373 153.575 334.597 96.4938 304.267 54.6103ZM215.666 217.597C169.335 217.597 131.721 179.902 131.721 133.471C131.721 87.0401 169.335 49.345 215.666 49.345C261.996 49.345 299.61 87.0401 299.61 133.471C299.491 180.021 261.996 217.597 215.666 217.597Z" fill="#600377"/>
<path id="Vector_21" opacity="0.4" d="M304.368 54.9902C277.848 18.555 239.382 1.5918 199.243 1.5918C199.243 1.5918 100.928 1.5918 71.7802 89.6334C61.0289 122.126 63.4181 157.247 76.4391 188.904C80.9786 199.775 86.9516 211.721 94.8359 223.07C120.161 259.744 199.288 360.001 199.288 360.001H216.491C238.591 329.419 293.975 227.49 310.699 194.877C331.485 153.783 334.71 96.801 304.368 54.9902ZM215.729 217.694C169.379 217.694 131.749 180.064 131.749 133.714C131.749 87.3637 169.379 49.734 215.729 49.734C262.079 49.734 299.709 87.3637 299.709 133.714C299.589 180.184 262.079 217.694 215.729 217.694Z" fill="#600377"/>
<path id="Vector_22" d="M321.69 55.5876C295.29 19.1525 256.704 2.18921 216.566 2.18921C216.566 2.18921 118.251 2.18921 89.1025 90.2308C78.3511 122.724 80.7403 157.845 93.7614 189.502C98.3009 200.372 104.274 212.318 112.158 223.667C137.484 260.341 216.49 360.001 216.49 360.001C216.49 360.001 307.833 234.896 327.902 195.475C348.807 154.5 352.033 97.3984 321.69 55.5876ZM215.73 218.411C169.14 218.53 131.63 181.259 131.75 134.431C131.869 88.0805 169.379 50.4508 215.73 50.4508C262.08 50.4508 299.71 88.0805 299.71 134.431C299.71 181.02 262.08 218.291 215.73 218.411Z" fill="#8805A8"/>
<path id="Vector_23" d="M215.729 49.8539C179.174 49.8539 148.115 73.1485 136.527 105.761C147.876 80.7939 172.962 63.4723 202.11 63.4723C241.89 63.4723 274.025 95.7263 274.025 135.387C274.025 175.167 241.771 207.301 202.11 207.301C179.055 207.301 158.508 196.431 145.367 179.587C160.299 202.523 186.222 217.814 215.729 217.814C262.079 217.814 299.709 180.184 299.709 133.834C299.589 87.3641 262.079 49.8539 215.729 49.8539Z" fill="#600377"/>
<path id="Vector_24" opacity="0.4" d="M215.729 49.8539C179.174 49.8539 148.115 73.1485 136.527 105.761C147.876 80.7939 172.962 63.4723 202.11 63.4723C241.89 63.4723 274.025 95.7263 274.025 135.387C274.025 175.167 241.771 207.301 202.11 207.301C179.055 207.301 158.508 196.431 145.367 179.587C160.299 202.523 186.222 217.814 215.729 217.814C262.079 217.814 299.709 180.184 299.709 133.834C299.589 87.3641 262.079 49.8539 215.729 49.8539Z" fill="#600377"/>
</g>
<g id="girl">
<path id="Vector_25" d="M207.086 26.0804C203.293 16.9005 199.348 7.72053 189.485 3.01676C181.443 -0.776606 174.843 -1.30768 167.18 3.24436C159.062 8.09986 153.676 12.8571 153.676 26.0804C153.676 29.4186 152.352 36.7377 150 40C147.496 43.5658 145.348 49.3122 141.024 53.1055C132.451 60.6922 137.67 63.575 135.993 70.8421C133.325 77.3601 128.726 77.7018 128.167 85.5278C125.5 92.5 125.372 98.385 135.993 105.093C141.024 107.329 216.342 86.6225 215.28 70.8421C214.957 65.8622 213.875 58.0705 212.547 50.3105C210.758 39.8644 208.523 29.4758 207.086 26.0804Z" fill="#350042"/>
<path id="Vector_26" d="M263.912 204.975C261.636 204.596 256.022 200.575 254.049 200.271C252.532 199.968 249.194 199.513 247.828 199.285C246.083 192.836 237.283 157.634 236.296 147.316C235.234 136.163 227.344 87.7601 227.344 87.7601L206.86 91.4776C206.86 91.4776 215.357 128.728 217.709 146.709C219.757 162.186 236.751 197.085 238.876 200.726C238.876 200.802 238.876 200.878 238.876 201.03C239.179 206.492 241.835 204.672 241.835 204.672L246.083 205.734C246.083 205.734 261.257 207.175 262.243 207.555C263.229 207.934 266.188 205.354 263.912 204.975Z" fill="#FFD290"/>
<path id="Vector_27" d="M209.436 59.4612C223.927 64.3926 232.121 103.692 232.121 103.692C232.121 103.692 209.436 110.065 203.595 106.726C203.595 106.726 196.994 77.4417 194.642 78.5039L209.436 59.4612Z" fill="#418AD2"/>
<path id="Vector_28" d="M321.418 273.029C325.818 284.712 328.17 295.941 328.322 297.306C328.397 297.989 327.487 301.1 327.563 301.782C336.439 313.921 349.261 316.577 360.186 317.335C354.572 311.873 346.378 306.714 345.999 304.969C345.392 302.238 341.978 290.023 340.309 273.029C333.556 276.215 328.928 273.711 321.418 273.029Z" fill="#EDC07D"/>
<path id="Vector_29" d="M195.403 142.309L175.829 197.388C175.829 197.388 207.238 203.306 218.997 205.43C230.757 207.555 296.382 210.438 298.051 211.652C299.265 212.486 312.845 256.413 318.914 280.615C325.818 282.132 337.578 280.311 343.799 278.187C340.385 243.592 328.17 188.74 324.301 182.746C318.004 172.959 195.403 142.309 195.403 142.309Z" fill="#59447E"/>
<path id="Vector_30" d="M271.803 297.154C274.003 309.445 274.079 320.976 274.079 322.342C274.079 323.025 272.562 325.984 272.486 326.667C278.935 340.247 290.998 345.254 301.619 348.061C297.143 341.688 290.087 335.088 290.011 333.267C289.936 330.46 288.873 317.79 290.467 300.872C283.183 302.617 279.087 299.278 271.803 297.154Z" fill="#EDC07D"/>
<path id="Vector_31" d="M172.566 145.193L164.98 158.166C153.448 177.892 162.248 203.307 183.567 211.577C183.719 211.653 183.795 211.653 183.87 211.728C195.023 216.053 258.979 231.15 260.421 232.592C261.483 233.654 266.566 279.326 268.007 304.211C274.456 307.018 286.367 307.397 292.892 306.487C296.078 271.815 294.333 215.674 291.602 209.073C287.202 198.3 172.566 145.193 172.566 145.193Z" fill="#685886"/>
<path id="Vector_32" d="M275.064 322.721C273.395 320.825 267.098 331.218 265.58 333.419C263.835 335.922 264.291 337.743 264.518 338.198C265.049 339.26 298.051 358.607 306.093 359.972C306.852 360.124 308.142 359.593 308.521 359.365C311.632 356.558 297.217 336.074 290.692 333.343C286.444 331.522 282.726 331.143 275.064 322.721Z" fill="#301036"/>
<path id="Vector_33" d="M329.384 297.685C327.335 296.167 323.163 307.472 322.025 309.975C320.735 312.782 321.57 314.527 321.873 314.831C322.632 315.741 358.669 328.639 366.786 328.487C367.545 328.487 368.759 327.728 369.062 327.425C371.642 324.087 353.585 306.637 346.682 305.196C342.205 304.209 338.488 304.513 329.384 297.685Z" fill="#301036"/>
<path id="Vector_34" d="M195.705 59.3094C196.085 59.3094 196.616 59.1577 197.147 59.0059C199.802 58.5507 205.72 57.792 210.272 59.7646C215.81 62.1165 224.459 84.0421 223.928 106.575C223.7 109.989 223.548 113.099 223.321 115.224C221.879 132.218 217.024 164.158 216.796 164.31C210.196 168.558 170.138 152.019 167.407 148.378C164.675 144.736 163.006 100.581 161.717 98.381L159.061 59.9163C163.689 58.4749 188.574 59.2335 195.705 59.3094Z" fill="#4F9BDB"/>
<path id="Vector_35" d="M179.468 45.1974C179.468 45.1974 182.048 58.5501 181.516 63.7849C180.985 69.0198 183.489 86.014 194.642 86.014C205.794 86.0899 196.766 64.4677 195.704 59.3087C194.642 54.1498 194.414 38.2177 194.414 38.2177L179.468 45.1974Z" fill="#FFD290"/>
<path id="Vector_36" d="M194.646 46.1868C194.494 41.7865 194.418 38.1449 194.418 38.1449L179.472 45.1247C179.472 45.1247 180.003 47.8559 180.535 51.3458C187.059 52.7114 191.763 50.2837 194.646 46.1868Z" fill="#EDC07D"/>
<path id="Vector_37" d="M175.638 7.71568C175.638 7.71568 169.625 10.4076 166.93 17.1092C164.234 23.8108 165.159 41.7803 179.614 47.3359C194.07 52.8915 201.685 39.2947 199.507 28.072C197.405 16.8556 191.922 2.38551 175.638 7.71568Z" fill="#FFD290"/>
<path id="Vector_38" d="M201.754 23.9983C201.203 26.9213 199.425 29.0558 197.699 28.7583C195.973 28.4609 195.055 25.7951 195.605 22.8721C196.156 19.9491 197.934 17.8146 199.66 18.1121C201.304 18.4788 202.304 21.0754 201.754 23.9983Z" fill="#FFD290"/>
<path id="Vector_39" d="M175.75 7.49133C175.75 7.49133 162.17 14.5001 166.646 31.0102C160.197 34.5759 162.928 43.4524 162.928 43.4524C162.928 43.4524 157.087 22.9683 162.17 16.3678C167.177 9.69148 175.75 7.49133 175.75 7.49133Z" fill="#350042"/>
<path id="Vector_40" d="M169.947 32.8163C171.47 35.533 171.209 38.6326 169.375 39.6204C167.534 40.6837 164.839 39.2388 163.241 36.5158C161.718 33.7991 161.979 30.6995 163.813 29.7118C165.647 28.724 168.425 30.0997 169.947 32.8163Z" fill="#FFD290"/>
<path id="Vector_41" d="M193.592 35.2254L183.067 37.6547C183.067 37.6547 184.272 41.6267 188.92 40.7403C194.56 39.5718 193.592 35.2254 193.592 35.2254Z" fill="white"/>
<path id="Vector_42" d="M159.063 59.9169C147.531 60.979 140.172 103.692 140.172 103.692C140.172 103.692 162.857 110.065 168.698 106.727C168.698 106.727 175.299 77.4422 177.651 78.5044L159.063 59.9169Z" fill="#4F9BDB"/>
<path id="Vector_43" d="M187.892 30.5473C186.17 29.6688 184.529 25.9667 183.895 24.077C185.004 25.5773 187.043 29.43 188.403 30.0574L188.702 30.1703C188.599 30.3022 188.293 31.7661 186.059 32.1148C186.432 31.8573 187.61 31.3511 187.892 30.5473Z" fill="#43184C"/>
<ellipse id="Ellipse 13" cx="189.623" cy="20.6316" rx="1.27302" ry="1.90953" transform="rotate(-23.548 189.623 20.6316)" fill="#530667"/>
<ellipse id="Ellipse 14" cx="176.06" cy="24.716" rx="1.27302" ry="1.90953" transform="rotate(-15.3919 176.06 24.716)" fill="#530667"/>
<path id="Vector 4" d="M172.01 20.929C173.835 18.6337 176.164 19.2721 176.08 20.271C176.038 20.7672 171.556 22.1829 170.264 23.793C170.278 23.6269 170.897 22.3291 172.01 20.929Z" fill="#3E054B"/>
<path id="Vector 5" d="M190.182 15.9779C187.425 14.9795 185.777 16.7433 186.372 17.55C186.667 17.9507 191.226 16.8078 193.17 17.5021C192.426 16.8282 191.864 16.5869 190.182 15.9779Z" fill="#3E054B"/>
</g>
</g>
</g>
</g>
<defs>
<linearGradient id="paint0_linear" x1="400.002" y1="355.356" x2="438.213" y2="135.267" gradientUnits="userSpaceOnUse">
<stop stop-color="#ECEBEE"/>
<stop offset="1" stop-color="#A69EC1"/>
</linearGradient>
<linearGradient id="paint1_linear" x1="115.074" y1="256.433" x2="80.224" y2="319.578" gradientUnits="userSpaceOnUse">
<stop stop-color="#A69EC1"/>
<stop offset="1" stop-color="#ECEBEE"/>
</linearGradient>
<linearGradient id="paint2_linear" x1="531.5" y1="266" x2="531.781" y2="40.1928" gradientUnits="userSpaceOnUse">
<stop offset="0.0677083" stop-color="#ECEBEE"/>
<stop offset="1" stop-color="#A69EC1"/>
</linearGradient>
<linearGradient id="paint3_linear" x1="376.235" y1="288.381" x2="437.667" y2="107.753" gradientUnits="userSpaceOnUse">
<stop offset="0.0468952" stop-color="#A69EC1"/>
<stop offset="1" stop-color="#ECEBEE"/>
</linearGradient>
<linearGradient id="paint4_linear" x1="92.1764" y1="134.056" x2="132.76" y2="14.7281" gradientUnits="userSpaceOnUse">
<stop offset="0.0468952" stop-color="#A69EC1"/>
<stop offset="1" stop-color="#ECEBEE"/>
</linearGradient>
<linearGradient id="paint5_linear" x1="-10.2988" y1="367.712" x2="92.4599" y2="342.53" gradientUnits="userSpaceOnUse">
<stop offset="0.335997" stop-color="#F0F0F0"/>
<stop offset="1" stop-color="#A69EC1"/>
</linearGradient>
<linearGradient id="paint6_linear" x1="422.89" y1="181.375" x2="621.451" y2="100.766" gradientUnits="userSpaceOnUse">
<stop stop-color="#ECEBEE"/>
<stop offset="1" stop-color="#A69EC1"/>
</linearGradient>
</defs>
</svg>
