<svg width="634" height="433" viewBox="0 0 634 433" fill="none" xmlns="http://www.w3.org/2000/svg">
<style>
	* {
		transform-box: fill-box;
	}
	#money-1,
	#money-2,
	#money-3,
	#money-4,
	#money-5,
	#money-6 {
		transform-origin: center center;
		animation: arm-animation 1s linear infinite alternate;
	}
	#money-2 {
		animation-delay: 0.2s;
	}
	#money-3 {
		animation-delay: 0.3s;
	}
	#money-4 {
		animation-delay: 0.5s;
	}
	#money-5 {
		animation-delay: 0.7s;
	}
	#money-6 {
		animation-delay: 0.4s;
	}
	@keyframes arm-animation {
        0% {
            transform: rotate(0deg) scale(0.7);
        }
        100% {
            transform: rotate(8deg) scale(1.05);
        }
    }
</style>
<g id="pauments">
<path id="Vector 1" d="M361.552 315.982C331.828 297.793 225.218 321.913 163.392 313.214C105.926 305.129 66.0549 321.834 60.3479 345.243C53.2141 374.503 72.7981 398.843 97.2051 409.695C133.667 425.907 189.945 430.257 233.54 416.417C277.136 402.578 358.863 399.911 404.751 416.417C497.095 449.632 629.862 426.383 629.862 403.764C629.862 378.062 549.409 341.684 510.966 345.243C452.956 350.613 405.158 342.666 361.552 315.982Z" fill="#A79FC2"/>
<g id="money-4">
<g id="Group">
<g id="Group_2">
<g id="Group_3">
<g id="Group_4">
<path id="Vector" d="M499.966 37.0559L452.093 84.9291L477.169 110.005L525.043 62.1323L499.966 37.0559Z" fill="url(#paint0_linear)"/>
<g id="Group_5">
<path id="Vector_2" d="M488.587 75.314L493.423 80.15C491.703 81.3321 489.554 81.547 488.479 80.3649C487.942 79.8276 487.189 79.8276 486.652 80.3649C486.115 80.9022 486.115 81.6545 486.652 82.1918C488.801 84.3411 492.455 84.1262 495.249 81.9769L495.464 82.1918C496.002 82.7292 496.754 82.7292 497.291 82.1918C497.829 81.6545 497.829 80.9022 497.291 80.3649L497.076 80.15C498.903 77.6783 499.333 74.6692 498.044 72.5199C497.829 72.1975 497.614 71.8751 497.291 71.5527C495.142 69.4034 491.488 69.6183 488.694 71.7676L483.858 66.9317C485.577 65.7495 487.727 65.5346 488.801 66.7167C489.339 67.2541 490.091 67.2541 490.628 66.7167C491.166 66.1794 491.166 65.4271 490.628 64.8898C488.479 62.7405 484.825 62.9554 482.031 65.1047L481.816 64.8898C481.279 64.3525 480.527 64.3525 479.989 64.8898C479.452 65.4271 479.452 66.1794 479.989 66.7167L480.204 66.9317C478.055 69.8332 477.947 73.4871 479.989 75.5289C482.031 77.5708 485.685 77.4633 488.587 75.314ZM495.679 73.702C496.539 74.8841 496.324 76.7111 495.249 78.4305L490.521 73.5945C492.24 72.4124 494.39 72.1975 495.464 73.3796C495.572 73.4871 495.679 73.5945 495.679 73.702ZM481.816 73.702C480.742 72.6274 480.849 70.478 482.031 68.7586L486.76 73.4871C484.933 74.6692 482.891 74.7767 481.816 73.702ZM489.554 74.4543C489.661 74.3468 489.554 74.4543 489.554 74.4543V74.4543Z" fill="url(#paint1_linear)"/>
</g>
</g>
</g>
</g>
</g>
</g>
<g id="money-2">
<g id="Group_6">
<path id="Vector_3" d="M137.432 154.527C142.84 148.311 152.14 147.664 158.357 153.073C164.573 158.481 165.219 167.781 159.811 173.998C154.402 180.214 145.102 180.86 138.886 175.452C132.67 170.043 132.023 160.743 137.432 154.527Z" fill="url(#paint2_linear)"/>
<g id="Group_7">
<path id="Vector_4" d="M149.93 164.488L154.229 160.643C155.021 162.146 155.214 163.907 154.293 164.731C153.832 165.143 153.8 165.725 154.212 166.186C154.624 166.646 155.206 166.679 155.666 166.267C157.509 164.619 157.533 161.556 155.918 159.132L156.071 158.995C156.532 158.583 156.564 158.001 156.152 157.541C155.74 157.08 155.159 157.047 154.698 157.46L154.544 157.597C152.589 156.029 150.141 155.455 148.331 156.521C148.024 156.796 147.733 156.78 147.426 157.054C145.584 158.703 145.559 161.765 147.175 164.189L142.876 168.034C142.084 166.531 141.89 164.77 142.812 163.946C143.272 163.534 143.305 162.952 142.893 162.492C142.481 162.031 141.899 161.999 141.438 162.411C139.596 164.059 139.571 167.121 141.187 169.545L141.033 169.682C140.573 170.094 140.54 170.676 140.952 171.137C141.364 171.597 141.946 171.63 142.407 171.218L142.56 171.081C144.79 172.955 147.836 173.271 149.678 171.623C151.521 169.975 151.545 166.913 149.93 164.488ZM148.953 158.453C150.012 157.782 151.45 158.154 152.856 159.108L148.71 162.816C147.918 161.313 147.725 159.551 148.646 158.727C148.799 158.59 148.799 158.59 148.953 158.453ZM148.305 170.087C147.384 170.911 145.639 170.814 144.249 169.57L148.394 165.862C149.186 167.365 149.38 169.126 148.305 170.087ZM149.243 163.721C149.106 163.567 149.243 163.721 149.243 163.721V163.721Z" fill="url(#paint3_linear)"/>
</g>
</g>
</g>
<g id="money-5">
<path id="Vector_5" d="M579.453 85.157C588.518 74.7373 604.107 73.654 614.526 82.7197C624.946 91.7853 626.029 107.374 616.964 117.793C607.898 128.213 592.31 129.296 581.89 120.231C571.47 111.165 570.387 95.5767 579.453 85.157Z" fill="url(#paint4_linear)"/>
<g id="Group_8">
<path id="Vector_6" d="M595.769 101.642L589.423 108.936C587.793 106.602 587.103 103.713 588.462 102.15C589.142 101.369 589.075 100.395 588.293 99.7146C587.512 99.0347 586.537 99.1024 585.857 99.8839C583.138 103.01 583.737 108.108 586.93 111.802L586.704 112.062C586.024 112.844 586.092 113.818 586.873 114.498C587.654 115.178 588.629 115.11 589.309 114.329L589.535 114.068C593.115 116.267 597.306 116.71 600.093 114.558C600.547 114.037 601.034 114.003 601.487 113.482C604.207 110.356 603.608 105.258 600.414 101.564L606.76 94.2707C608.391 96.6048 609.081 99.4937 607.721 101.057C607.041 101.838 607.109 102.812 607.89 103.492C608.672 104.172 609.646 104.105 610.326 103.323C613.046 100.197 612.447 95.0992 609.253 91.4052L609.48 91.1447C610.16 90.3633 610.092 89.389 609.31 88.7091C608.529 88.0292 607.555 88.0969 606.875 88.8783L606.648 89.1388C602.548 86.4869 597.416 86.5987 594.696 89.7247C591.977 92.8506 592.576 97.9485 595.769 101.642ZM598.655 111.476C597.035 112.813 594.566 112.495 592.028 111.203L598.148 104.169C599.778 106.503 600.469 109.392 599.109 110.955C598.882 111.216 598.882 111.216 598.655 111.476ZM597.301 91.9911C598.661 90.4281 601.584 90.225 604.155 92.0043L598.036 99.0376C596.405 96.7035 595.715 93.8145 597.301 91.9911ZM597.072 102.776C597.332 103.002 597.072 102.776 597.072 102.776V102.776Z" fill="url(#paint5_linear)"/>
</g>
</g>
<g id="money-6">
<path id="Vector_7" d="M387.114 100.988C393.522 98.7513 400.439 102.088 402.676 108.497C404.913 114.906 401.576 121.822 395.168 124.059C388.759 126.296 381.842 122.959 379.605 116.551C377.368 110.142 380.705 103.226 387.114 100.988Z" fill="url(#paint6_linear)"/>
<g id="Group_9">
<path id="Vector_8" d="M391.31 111.467L388.47 107.658C389.761 107.119 391.221 107.089 391.83 107.905C392.134 108.313 392.609 108.382 393.017 108.078C393.425 107.774 393.494 107.299 393.19 106.891C391.973 105.258 389.462 105.014 387.355 106.162L387.253 106.026C386.949 105.617 386.474 105.548 386.066 105.853C385.658 106.157 385.588 106.632 385.893 107.04L385.994 107.176C384.564 108.665 383.914 110.632 384.656 112.195C384.859 112.467 384.825 112.705 385.027 112.977C386.245 114.609 388.755 114.854 390.863 113.706L393.703 117.515C392.412 118.055 390.952 118.084 390.344 117.268C390.04 116.86 389.565 116.791 389.156 117.095C388.748 117.399 388.679 117.874 388.983 118.282C390.201 119.915 392.711 120.16 394.819 119.012L394.92 119.148C395.225 119.556 395.7 119.625 396.108 119.321C396.516 119.016 396.585 118.541 396.281 118.133L396.179 117.997C397.881 116.305 398.363 113.829 397.146 112.196C395.929 110.564 393.418 110.319 391.31 111.467ZM386.286 111.826C385.814 110.909 386.224 109.756 387.11 108.672L389.849 112.346C388.557 112.885 387.098 112.915 386.489 112.099C386.388 111.962 386.388 111.962 386.286 111.826ZM395.786 113.211C396.394 114.027 396.186 115.452 395.064 116.501L392.325 112.828C393.616 112.288 395.075 112.258 395.786 113.211ZM390.63 111.974C390.494 112.076 390.63 111.974 390.63 111.974V111.974Z" fill="url(#paint7_linear)"/>
</g>
</g>
<g id="money-3">
<g id="Group_10">
<g id="Group_11">
<g id="Group_12">
<g id="Group_13">
<path id="Vector_9" d="M376.422 38.6235L335.604 3.33577L317.12 24.7164L357.938 60.0041L376.422 38.6235Z" fill="url(#paint8_linear)"/>
<g id="Group_14">
<path id="Vector_10" d="M345.354 31.7881L341.789 35.9113C340.75 34.6128 340.455 32.9168 341.333 31.9944C341.729 31.5362 341.686 30.9383 341.227 30.5422C340.769 30.1461 340.171 30.1896 339.775 30.6477C338.191 32.4803 338.573 35.3722 340.443 37.469L340.284 37.6522C339.888 38.1104 339.932 38.7083 340.39 39.1044C340.848 39.5005 341.446 39.457 341.842 38.9989L342 38.8156C344.07 40.125 346.487 40.2929 348.121 39.1437C348.365 38.9543 348.609 38.7648 348.846 38.4899C350.431 36.6574 350.049 33.7655 348.179 31.6687L351.744 27.5454C352.783 28.8439 353.078 30.5399 352.2 31.4624C351.804 31.9205 351.847 32.5185 352.305 32.9145C352.764 33.3106 353.362 33.2671 353.758 32.809C355.342 30.9765 354.96 28.0846 353.09 25.9878L353.249 25.8045C353.645 25.3464 353.601 24.7484 353.143 24.3524C352.685 23.9563 352.087 23.9997 351.691 24.4579L351.533 24.6411C349.102 23.1003 346.192 23.2259 344.687 24.9668C343.181 26.7077 343.478 29.6058 345.354 31.7881ZM347.045 37.3327C346.155 38.0844 344.69 38.019 343.262 37.2641L346.832 33.2263C347.871 34.5248 348.166 36.2208 347.289 37.1433C347.209 37.2349 347.13 37.3265 347.045 37.3327ZM346.244 26.3135C347.036 25.3972 348.751 25.3585 350.186 26.1988L346.701 30.2304C345.655 28.8465 345.452 27.2297 346.244 26.3135ZM346.093 32.5072C346.185 32.5864 346.093 32.5072 346.093 32.5072V32.5072Z" fill="url(#paint9_linear)"/>
</g>
</g>
</g>
</g>
</g>
</g>
<g id="money-1">
<g id="Group_15">
<g id="Group_16">
<g id="Group_17">
<g id="Group_18">
<path id="Vector_11" d="M90.8328 36.8521L32.0345 94.4716L62.2162 125.271L121.014 67.6512L90.8328 36.8521Z" fill="url(#paint10_linear)"/>
<g id="Group_19">
<path id="Vector_12" d="M76.5252 83.2319L82.3457 89.1714C80.2405 90.5876 77.6245 90.8225 76.3324 89.3719C75.6856 88.712 74.771 88.7027 74.111 89.3494C73.451 89.9961 73.4418 90.9108 74.0885 91.5708C76.6754 94.2106 81.1207 93.9942 84.5446 91.4153L84.8033 91.6793C85.45 92.3392 86.3646 92.3485 87.0246 91.7018C87.6846 91.055 87.6938 90.1404 87.0471 89.4804L86.7884 89.2164C89.0402 86.2336 89.5999 82.5802 88.0584 79.9509C87.801 79.5563 87.5436 79.1616 87.1556 78.7657C84.5687 76.1258 80.1234 76.3422 76.6995 78.9212L70.879 72.9816C72.9843 71.5654 75.6003 71.3305 76.8924 72.7811C77.5391 73.4411 78.4538 73.4503 79.1137 72.8036C79.7737 72.1569 79.783 71.2422 79.1362 70.5822C76.5493 67.9424 72.104 68.1588 68.6802 70.7377L68.4215 70.4737C67.7748 69.8138 66.8601 69.8045 66.2001 70.4513C65.5402 71.098 65.5309 72.0127 66.1777 72.6726L66.4363 72.9366C63.7873 76.4381 63.6116 80.8795 66.0692 83.3873C68.5267 85.8952 72.9707 85.8095 76.5252 83.2319ZM85.1691 81.3592C86.1999 82.8071 85.9161 85.0258 84.5882 87.1033L78.8984 81.165C81.0036 79.7488 83.6196 79.5139 84.9117 80.9645C85.0411 81.0965 85.1704 81.2285 85.1691 81.3592ZM68.313 81.1885C67.0196 79.8686 67.1767 77.2566 68.6352 75.1804L74.3264 80.988C72.0905 82.4029 69.6064 82.5084 68.313 81.1885ZM77.7118 82.1984C77.8438 82.0691 77.7118 82.1984 77.7118 82.1984V82.1984Z" fill="url(#paint11_linear)"/>
</g>
</g>
</g>
</g>
</g>
</g>
<g id="card">
<path id="Vector_13" d="M608.633 347.81H301.182C289.068 347.81 279.282 337.982 279.282 325.911V167.616C279.282 155.546 289.068 145.717 301.182 145.717H608.633C620.746 145.717 630.575 155.546 630.575 167.616V325.911C630.575 337.982 620.746 347.81 608.633 347.81Z" fill="#8805A8"/>
<path id="Vector_14" d="M600.658 344.232H295.276C283.335 344.232 273.635 334.533 273.635 322.592V167.357C273.635 155.416 283.335 145.717 295.276 145.717H600.658C612.599 145.717 622.298 155.416 622.298 167.357V322.592C622.255 334.533 612.599 344.232 600.658 344.232Z" fill="#AD0CD5"/>
<path id="Vector_15" d="M585.095 190.765H508.319C500.473 190.765 494.007 184.342 494.007 176.497C494.007 168.651 500.43 162.184 508.319 162.184H585.095C592.941 162.184 599.407 168.608 599.407 176.497C599.364 184.342 592.941 190.765 585.095 190.765Z" fill="#BE60D5"/>
<path id="Vector_16" opacity="0.5" d="M556.687 298.192C556.687 310.177 546.987 319.876 535.003 319.876C523.019 319.876 513.32 310.177 513.32 298.192C513.32 286.208 523.019 276.509 535.003 276.509C546.987 276.509 556.687 286.208 556.687 298.192Z" fill="#CE82E0"/>
<path id="Vector_17" opacity="0.5" d="M586.302 298.192C586.302 310.177 576.603 319.876 564.618 319.876C552.634 319.876 542.935 310.177 542.935 298.192C542.935 286.208 552.634 276.509 564.618 276.509C576.603 276.509 586.302 286.208 586.302 298.192Z" fill="#CE82E0"/>
<path id="Vector_18" d="M360.413 245.169H304.63C301.225 245.169 298.423 242.367 298.423 238.961V226.891C298.423 223.485 301.225 220.683 304.63 220.683H360.413C363.819 220.683 366.621 223.485 366.621 226.891V238.961C366.621 242.367 363.819 245.169 360.413 245.169Z" fill="#BE60D4"/>
<path id="Vector_19" d="M434.861 245.169H379.079C375.673 245.169 372.871 242.367 372.871 238.961V226.891C372.871 223.485 375.673 220.683 379.079 220.683H434.861C438.267 220.683 441.069 223.485 441.069 226.891V238.961C441.069 242.367 438.267 245.169 434.861 245.169Z" fill="#BE60D4"/>
<path id="Vector_20" d="M509.311 245.169H453.528C450.122 245.169 447.32 242.367 447.32 238.961V226.891C447.32 223.485 450.122 220.683 453.528 220.683H509.311C512.716 220.683 515.518 223.485 515.518 226.891V238.961C515.518 242.367 512.716 245.169 509.311 245.169Z" fill="#BE60D4"/>
<path id="Vector_21" d="M583.759 245.169H527.976C524.571 245.169 521.769 242.367 521.769 238.961V226.891C521.769 223.485 524.571 220.683 527.976 220.683H583.759C587.165 220.683 589.967 223.485 589.967 226.891V238.961C589.967 242.367 587.208 245.169 583.759 245.169Z" fill="#BE60D4"/>
<path id="Vector_22" d="M441.759 296.468H304.63C301.225 296.468 298.423 293.666 298.423 290.26V284.096C298.423 280.69 301.225 277.888 304.63 277.888H441.759C445.165 277.888 447.967 280.69 447.967 284.096V290.303C447.967 293.666 445.165 296.468 441.759 296.468Z" fill="#BE60D4"/>
<path id="Vector_23" d="M401.927 319.876H304.846C301.311 319.876 298.423 316.988 298.423 313.453V307.676C298.423 304.141 301.311 301.253 304.846 301.253H401.97C405.505 301.253 408.393 304.141 408.393 307.676V313.453C408.35 316.988 405.462 319.876 401.927 319.876Z" fill="#BE60D4"/>
</g>
<g id="girl">
<g id="Group_20">
<g id="Group_21">
<path id="Vector_24" d="M287.475 107.833C293.383 104.102 298.358 100.215 301.779 91.819C302.556 89.9533 303.178 86.5328 305.821 79.6918C306.754 77.2042 307.998 74.8721 309.397 70.6742C310.796 66.1654 311.107 63.2113 309.864 57.3032C309.242 54.3491 306.599 49.3739 303.489 47.3527C301.001 45.7979 300.535 42.9993 298.98 40.3562C297.114 37.0912 296.804 35.5364 292.761 32.1159C290.429 30.2502 281.1 22.6318 275.659 23.4092" fill="#58006D"/>
<path id="Vector_25" d="M264.621 26.828C269.285 23.8739 270.373 17.033 267.886 12.0577C265.398 7.08245 259.956 4.12839 254.515 3.351C246.585 2.10719 238.19 3.66196 232.748 9.4146C229.794 12.5241 228.861 14.0789 224.819 15.4782C221.243 16.722 216.267 17.9658 212.536 18.4323C207.561 19.0542 200.875 23.7185 198.387 28.0718C195.744 32.4252 195.278 34.9128 194.656 39.8881C194.034 44.5524 194.19 47.5064 190.925 50.9269C187.815 54.1919 185.483 56.2131 181.596 58.5453C174.289 62.8986 170.868 75.9587 170.713 84.5099C170.557 88.2414 171.179 90.5735 171.335 93.3721C171.49 95.8597 171.645 99.9021 174.133 105.033C176.776 110.941 179.108 114.051 185.483 114.517C188.748 114.672 193.568 114.828 196.522 116.227C199.476 117.627 200.72 119.648 202.585 122.291C206.161 127.422 211.292 128.043 216.267 128.043C219.999 128.043 222.486 127.266 225.596 126.8C228.55 126.333 230.26 125.4 232.903 125.4C236.324 125.245 239.433 123.224 241.455 120.425C243.476 117.627 244.875 114.361 247.518 112.029C250.939 109.075 255.603 108.298 259.956 106.743C269.44 103.478 277.37 96.0152 281.101 86.6866C284.833 77.358 284.366 66.4746 279.857 57.6124" fill="#58006D"/>
<g id="Group_22">
<g id="Group_23">
<g id="Group_24">
<g id="Group_25">
<g id="Group_26">
<g id="Group_27">
<g id="Group_28">
<g id="Group_29">
<g id="Group_30">
<g id="Group_31">
<g id="Group_32">
<g id="Group_33">
<g id="Group_34">
<path id="Vector_26" d="M274.726 32.8921C278.613 33.3586 276.412 62.5145 276.412 66.4014L276.902 141.104C276.747 152.92 259.333 159.606 246.584 159.295C233.68 158.984 233.369 152.765 233.213 141.415C232.902 122.602 232.902 115.45 232.902 115.606C232.902 115.606 216.733 112.807 213.312 91.6624C211.602 81.09 212.224 63.832 213.157 49.8391C213.934 37.09 222.485 21.5423 235.079 22.9416L274.726 32.8921Z" fill="#FFD290"/>
</g>
</g>
</g>
</g>
</g>
</g>
<g id="Group_35">
<g id="Group_36">
<g id="Group_37">
<g id="Group_38">
<g id="Group_39">
<g id="Group_40">
<g id="Group_41">
<path id="Vector_27" d="M217.974 63.3663C217.974 64.7656 219.063 66.0094 220.617 66.1649C222.172 66.3203 223.416 65.232 223.416 63.6772C223.416 62.2779 222.328 61.0341 220.773 60.8787C219.374 60.8787 218.13 61.967 217.974 63.3663Z" fill="#530667"/>
</g>
</g>
</g>
</g>
</g>
</g>
</g>
<g id="Group_42">
<g id="Group_43">
<g id="Group_44">
<g id="Group_45">
<g id="Group_46">
<g id="Group_47">
<g id="Group_48">
<path id="Vector_28" d="M247.208 63.3662C247.208 64.7655 248.296 66.0093 249.851 66.1648C251.406 66.3203 252.649 65.2319 252.649 63.6772C252.649 62.2779 251.561 61.0341 250.006 60.8786C248.452 60.8786 247.208 61.9669 247.208 63.3662Z" fill="#530667"/>
</g>
</g>
</g>
</g>
</g>
</g>
<g id="Group_49">
<g id="Group_50">
<g id="Group_51">
<g id="Group_52">
<g id="Group_53">
<g id="Group_54">
<g id="Group_55">
<path id="Vector_29" d="M244.873 60.4118C245.184 60.5673 246.895 59.6344 249.849 59.6344C252.803 59.6344 254.979 60.7228 255.29 60.5673C255.446 60.5673 254.824 60.1009 253.891 59.7899C252.958 59.479 251.559 59.0125 249.693 59.0125C247.828 59.0125 246.895 59.3235 246.117 59.6344C245.34 59.9454 244.718 60.4118 244.873 60.4118Z" fill="#530667"/>
</g>
</g>
</g>
</g>
</g>
</g>
</g>
<g id="Group_56">
<g id="Group_57">
<g id="Group_58">
<g id="Group_59">
<g id="Group_60">
<g id="Group_61">
<g id="Group_62">
<path id="Vector_30" d="M216.578 60.1C216.889 60.2554 218.288 59.3226 220.62 59.3226C222.953 59.3226 224.818 60.4109 225.129 60.2555C225.285 60.2555 224.663 59.789 223.885 59.4781C223.108 59.1671 222.02 58.7007 220.465 58.7007C219.066 58.7007 218.288 59.0116 217.511 59.3226C216.889 59.4781 216.423 59.9445 216.578 60.1Z" fill="#530667"/>
</g>
</g>
</g>
</g>
</g>
</g>
</g>
</g>
<g id="Group_63">
<g id="Group_64">
<g id="Group_65">
<g id="Group_66">
<g id="Group_67">
<g id="Group_68">
<g id="Group_69">
<path id="Vector_31" d="M235.234 80.9334C235.234 80.7779 233.213 80.4669 230.258 80.0005C229.326 79.845 229.015 79.5341 229.015 79.2231C229.015 78.9122 229.17 77.8238 229.481 77.0464C230.258 75.1807 230.88 73.315 231.658 71.2938C234.767 63.209 236.788 56.5235 236.633 56.5235C236.633 56.5235 233.679 62.898 230.569 70.9828C229.792 73.004 229.481 73.9369 228.548 76.1136C227.926 77.5129 227.615 79.5341 227.771 79.6896C227.771 79.845 228.393 80.3115 228.859 80.4669C229.326 80.6224 230.414 80.7779 230.725 80.7779C232.902 80.9334 235.234 80.9334 235.234 80.9334Z" fill="#301736"/>
</g>
</g>
</g>
</g>
</g>
</g>
</g>
<g id="Group_70">
<g id="Group_71">
<g id="Group_72">
<g id="Group_73">
<g id="Group_74">
<g id="Group_75">
<path id="Vector_32" d="M233.059 115.45C233.059 115.45 247.363 116.383 261.356 107.988C261.356 107.988 254.204 122.913 233.059 120.892V115.45Z" fill="#EDC07D"/>
</g>
</g>
</g>
</g>
</g>
</g>
<g id="Group_76">
<g id="Group_77">
<g id="Group_78">
<g id="Group_79">
<g id="Group_80">
<g id="Group_81">
<g id="Group_82">
<path id="Vector_33" d="M245.962 87.619C245.651 87.3081 243.163 88.3964 239.587 88.8628C236.011 89.3293 233.057 88.7074 232.746 89.0183C232.746 89.0183 232.746 89.1738 233.057 89.3293C233.99 89.9512 235.078 90.2621 236.322 90.4176C237.877 90.5731 238.188 90.7286 239.898 90.4176C240.676 90.2621 241.453 90.1067 242.386 89.9512C243.63 89.6402 244.873 89.0183 245.651 87.93C245.962 87.7745 246.117 87.619 245.962 87.619Z" fill="#301736"/>
</g>
</g>
</g>
</g>
</g>
</g>
</g>
</g>
</g>
</g>
<g id="Group_83">
<g id="Group_84">
<g id="Group_85">
<g id="Group_86">
<g id="Group_87">
<g id="Group_88">
<path id="Vector_34" d="M244.407 54.6585C244.407 54.6585 247.516 54.6585 250.937 55.1249C254.357 55.4359 257.622 56.2133 257.622 56.2133C257.622 56.2133 257.467 55.7468 256.378 54.814C255.29 54.0366 253.269 52.7928 251.248 52.6373C249.227 52.4818 247.516 52.1709 246.272 52.6373C245.184 53.1037 244.407 53.7256 244.407 54.6585Z" fill="#3E054B"/>
</g>
</g>
</g>
</g>
</g>
</g>
<g id="Group_89">
<g id="Group_90">
<g id="Group_91">
<g id="Group_92">
<g id="Group_93">
<g id="Group_94">
<path id="Vector_35" d="M216.111 54.6586C216.111 54.6586 219.065 54.5031 221.397 54.5031C223.884 54.3476 225.906 55.2805 226.217 54.814C226.217 54.814 225.75 53.8812 224.817 53.2593C223.884 52.6374 222.641 52.4819 220.93 52.4819C219.22 52.4819 218.132 52.9483 217.199 53.5702C216.577 54.1921 216.111 54.6586 216.111 54.6586Z" fill="#3E054B"/>
</g>
</g>
</g>
</g>
</g>
</g>
</g>
</g>
</g>
</g>
<path id="Vector_36" d="M260.89 26.0508C265.709 22.7858 272.084 21.231 277.681 22.9412C283.278 24.496 287.942 29.6267 288.253 35.3794C288.409 39.1108 286.699 43.1532 288.409 46.4182C289.964 49.6833 293.851 50.9271 296.649 53.2592C301.003 56.8352 302.246 63.5207 299.603 68.496C297.271 72.6938 292.451 75.8034 291.985 80.6232C291.674 85.132 295.405 88.8634 296.338 93.3723C297.427 98.192 294.628 103.323 290.741 106.588C286.854 109.853 282.034 111.563 277.215 113.273C273.483 114.673 269.441 115.916 265.554 115.139C260.89 114.051 257.469 109.853 256.847 105.189C256.225 100.524 258.091 95.8599 261.2 92.4394C263.844 89.4853 267.731 86.8422 268.352 82.9553C269.441 76.7362 261.978 71.761 262.444 65.5419C262.6 62.2769 264.932 59.6338 266.798 56.9907C268.663 54.3476 270.374 51.0825 269.13 47.973C267.575 44.0861 262.444 42.9977 259.335 40.1992C256.692 37.867 255.759 33.9801 256.692 30.5596C257.78 27.2946 260.89 24.6515 264.31 24.0296" fill="#350042"/>
<path id="Vector_37" d="M263.22 21.2308C263.22 25.4287 261.354 29.6265 258.089 32.4251C254.824 35.0682 250.315 36.312 246.117 35.5347C242.852 34.9127 239.276 33.358 236.478 35.0682C233.524 36.9339 233.368 41.2873 230.725 43.6194C226.994 46.8845 221.086 43.7749 216.266 45.1742C212.534 46.2626 210.358 49.683 207.87 52.6371C205.382 55.5912 201.806 58.3898 198.075 57.3014C198.386 54.0364 198.541 50.6159 199.474 47.5064C200.407 44.3968 202.273 41.2873 205.071 39.5771C206.626 38.6442 208.336 38.0223 209.736 36.7785C212.845 34.2908 213.467 30.093 215.333 26.6725C217.821 22.3191 222.485 19.2096 227.46 18.5877C231.658 18.1212 235.856 19.3651 239.898 18.4322C242.852 17.6548 245.495 15.7891 248.605 15.1672C254.513 14.0788 259.955 18.2767 264.308 22.4746" fill="#350042"/>
</g>
<g id="Group_95">
<path id="Vector_38" d="M301.779 71.7612C301.624 71.7612 302.401 70.9838 302.246 69.2736C302.09 67.7188 300.846 65.3866 298.048 64.4538C296.649 63.8319 295.094 63.5209 293.384 63.21C291.673 62.7435 289.808 62.2771 288.097 61.0333C286.387 59.7895 285.454 57.6128 285.299 55.4361C285.143 53.2594 285.454 51.0828 285.61 48.7506C285.61 47.6623 285.61 46.5739 285.454 45.4856C285.299 44.3973 284.832 43.4644 284.21 42.687C282.967 41.1322 280.945 40.3549 279.08 39.733C277.214 39.111 275.348 38.4891 273.949 37.5563C272.394 36.6234 271.15 35.5351 270.062 34.4467C268.041 32.2701 266.952 29.9379 266.331 28.3831C266.02 27.6058 265.864 26.9838 265.864 26.5174C265.709 26.051 265.709 25.8955 265.709 25.8955C265.709 25.8955 266.02 26.8284 266.641 28.2277C267.263 29.7824 268.507 31.8036 270.528 33.9803C272.55 36.157 275.504 38.0227 279.391 38.9556C281.256 39.5775 283.433 40.3549 284.832 42.0651C285.454 42.998 286.076 44.0863 286.232 45.1746C286.387 46.263 286.387 47.5068 286.387 48.5951C286.232 50.9273 285.921 53.104 286.076 55.1252C286.232 57.1464 287.009 59.1676 288.564 60.2559C290.119 61.3442 291.829 61.9662 293.539 62.4326C295.249 62.899 296.804 63.21 298.203 63.8319C299.603 64.4538 300.846 65.2312 301.468 66.3195C302.246 67.2524 302.557 68.3407 302.557 69.2736C302.557 70.2064 302.401 70.8283 302.246 71.1393C302.09 71.7612 301.779 71.9167 301.779 71.7612Z" fill="#740177"/>
</g>
<g id="Group_96">
<path id="Vector_39" d="M177.088 84.9758C177.088 84.9758 176.933 84.9758 176.777 84.8203C176.622 84.6648 176.311 84.5094 176 84.0429C175.534 83.1101 175.378 81.5553 176.466 79.845C176.933 79.0677 177.71 78.1348 178.799 77.6684C179.887 77.0465 180.975 76.7355 182.219 76.2691C183.463 75.8026 184.707 75.1807 185.795 74.2479C186.883 73.315 187.505 71.7602 187.816 70.2055C188.127 68.6507 188.283 66.9405 188.594 65.0747C188.905 63.209 189.371 61.3433 190.77 59.7885C193.258 56.5235 197.3 54.8133 200.254 51.7037C201.809 50.149 202.897 48.2832 203.519 46.1066C204.297 43.9299 204.608 41.7532 205.074 39.2656C205.696 34.6013 206.318 29.4705 209.583 25.1172C211.138 22.9405 213.47 21.3857 215.957 20.9193C218.445 20.4529 220.933 20.7638 223.265 21.0748C225.597 21.3857 227.929 21.6967 230.106 21.5412C232.283 21.2303 234.304 20.1419 235.703 18.5872C238.657 15.4776 240.212 11.2797 243.788 9.10306C247.208 6.92639 251.251 6.77091 254.516 7.70377C257.781 8.63663 260.268 10.8133 261.512 13.1455C262.912 15.4776 263.378 17.8098 263.378 19.6755C263.378 21.5412 263.067 22.9405 262.756 23.8734C262.445 24.8062 262.134 25.2727 262.134 25.2727C262.134 25.2727 262.29 24.8062 262.601 23.8734C262.912 22.9405 263.222 21.5412 263.067 19.6755C262.912 17.8098 262.445 15.6331 261.201 13.3009C259.957 11.1243 257.625 8.94759 254.36 8.1702C251.251 7.39282 247.364 7.5483 244.254 9.72497C242.7 10.8133 241.3 12.2126 240.212 13.9228C238.968 15.6331 237.88 17.4988 236.325 19.0536C235.548 19.831 234.615 20.6084 233.682 21.2303C232.594 21.6967 231.505 22.1631 230.261 22.3186C227.929 22.6296 225.597 22.3186 223.109 22.0076C220.777 21.6967 218.29 21.3857 215.957 21.8522C213.625 22.3186 211.449 23.7179 210.049 25.7391C208.65 27.7603 207.717 30.0924 207.095 32.4246C206.473 34.7567 206.162 37.2444 205.851 39.5765C205.541 41.9087 205.074 44.2408 204.297 46.4175C203.519 48.5942 202.431 50.6154 200.721 52.3256C197.456 55.4352 193.569 57.1454 191.237 60.255C189.993 61.8097 189.526 63.52 189.215 65.2302C188.905 66.9405 188.749 68.8062 188.438 70.361C188.127 72.0712 187.35 73.626 186.261 74.5588C185.173 75.6472 183.774 76.1136 182.53 76.58C181.286 77.0465 180.198 77.3574 179.109 77.9793C178.177 78.4458 177.399 79.2231 176.933 80.0005C176 81.5553 176 83.1101 176.311 83.8874C176.622 84.8203 177.244 84.9758 177.088 84.9758Z" fill="#740177"/>
</g>
</g>
<g id="Group_97">
<path id="Vector_40" d="M125.157 230.815L162.783 227.394C162.783 227.394 185.949 166.603 214.401 151.832L232.903 184.016L193.412 258.179H116.14L125.157 230.815Z" fill="#E8505B"/>
<path id="Vector_41" d="M125.157 230.815L162.783 227.394C162.783 227.394 185.949 166.603 214.401 151.832L232.903 184.016L193.412 258.179H116.14L125.157 230.815Z" fill="#0A569F"/>
<path id="Vector_42" d="M250.938 253.358L270.372 175.153C273.793 161.471 287.164 152.92 300.846 155.407C314.994 157.895 324.634 171.421 322.457 185.725L310.641 262.22C307.687 278.234 294.938 290.672 278.924 293.16L263.531 295.492L250.938 253.358Z" fill="#4E9BDB"/>
<g id="Group_98">
<path id="Vector_43" d="M312.041 150.277C311.885 150.433 309.864 147.945 305.2 146.857C302.868 146.39 299.914 146.235 296.804 146.857C293.695 147.634 290.585 149.189 287.787 151.521C282.034 156.341 279.08 162.404 276.903 166.758C275.815 168.935 275.037 170.8 274.571 172.044C273.949 173.288 273.638 173.91 273.638 173.91C273.638 173.91 273.794 173.132 274.26 171.889C274.727 170.645 275.504 168.779 276.437 166.447C277.37 164.27 278.613 161.627 280.479 158.829C282.189 156.03 284.522 153.231 287.32 150.744C290.274 148.256 293.539 146.701 296.804 145.924C300.069 145.147 303.023 145.458 305.511 146.079C307.843 146.701 309.709 147.79 310.797 148.567C311.264 149.033 311.73 149.344 312.041 149.655C311.885 150.122 312.041 150.277 312.041 150.277Z" fill="#263238"/>
</g>
<g id="Group_99">
<path id="Vector_44" d="M202.274 167.846C202.274 167.846 202.119 168.157 201.808 168.624C201.341 169.09 200.875 169.868 200.097 170.645C198.698 172.355 196.677 174.843 194.345 178.108C189.68 184.638 183.928 194.278 181.129 206.249C178.486 218.221 178.331 229.415 177.864 237.345C177.709 241.387 177.553 244.652 177.242 246.829C177.087 247.917 177.087 248.694 177.087 249.472C177.087 250.094 176.931 250.405 176.931 250.405C176.931 250.405 176.931 250.094 176.931 249.472C176.931 248.85 176.931 247.917 176.931 246.829C176.931 244.497 177.087 241.232 177.242 237.345C177.553 229.415 177.553 218.065 180.352 206.094C183.15 193.967 189.058 184.327 193.878 177.797C196.21 174.532 198.387 172.044 199.942 170.49C200.719 169.712 201.341 169.09 201.652 168.624C202.119 168.157 202.274 167.846 202.274 167.846Z" fill="#263238"/>
</g>
<path id="Vector_45" d="M326.344 167.69C324.168 153.697 316.549 150.277 308.465 145.924C305.821 144.524 293.228 141.259 283.277 138.772C282.344 132.708 280.634 121.825 280.168 119.648C279.701 116.383 229.171 124.468 228.549 125.712C228.083 126.489 226.995 139.083 226.217 147.478L214.09 151.676L198.387 171.733L190.147 183.394C185.327 190.079 181.751 197.697 180.041 205.782C178.019 214.644 177.708 223.351 177.708 232.835L175.221 284.143L280.634 313.994L288.874 261.909L316.083 224.906C318.726 209.98 328.987 184.948 326.344 167.69Z" fill="#418AD2"/>
<g id="Group_100">
<path id="Vector_46" d="M236.478 149.188C236.322 149.188 236.167 147.789 235.7 145.612C235.39 143.436 234.923 140.326 234.612 136.906C234.457 135.195 234.301 133.641 234.146 132.086C233.99 130.687 233.835 129.287 233.835 128.199C233.835 127.111 234.146 126.178 234.612 125.556C235.079 125.089 235.389 124.934 235.389 124.934C235.389 124.934 235.234 125.245 234.923 125.711C234.612 126.178 234.457 127.111 234.457 128.199C234.457 129.287 234.768 130.531 234.923 132.086C235.079 133.641 235.234 135.195 235.545 136.906C236.011 140.326 236.322 143.436 236.478 145.612C236.478 147.789 236.478 149.033 236.478 149.188Z" fill="#263238"/>
</g>
<g id="Group_101">
<path id="Vector_47" d="M249.85 145.924C249.695 145.924 249.229 144.68 248.762 142.659C248.14 140.637 247.674 137.683 247.363 134.418C247.052 131.153 247.052 128.199 247.207 126.023C247.363 123.846 247.674 122.602 247.674 122.602C247.985 122.602 247.518 127.888 248.14 134.263C248.762 140.793 250.161 145.924 249.85 145.924Z" fill="#263238"/>
</g>
<g id="Group_102">
<path id="Vector_48" d="M274.881 142.348C274.57 142.348 275.659 137.062 274.57 130.687C273.482 124.313 270.683 119.804 270.994 119.649C271.15 119.649 271.927 120.581 272.86 122.603C273.793 124.468 274.881 127.267 275.503 130.532C276.125 133.797 275.97 136.751 275.814 138.928C275.348 141.104 275.037 142.348 274.881 142.348Z" fill="#263238"/>
</g>
<g id="Group_103">
<path id="Vector_49" d="M250.938 246.983C250.938 246.983 250.938 246.827 250.938 246.361C250.938 245.894 250.938 245.428 251.249 244.651C251.404 243.873 251.871 242.94 252.959 242.318C253.892 241.696 255.291 241.386 256.69 241.696L256.379 241.852C258.09 235.944 260.733 227.237 263.531 217.442C266.019 208.269 267.729 199.873 268.973 193.81C269.595 190.856 270.061 188.368 270.372 186.658C270.683 184.947 270.994 184.015 270.994 184.015C270.994 184.015 270.994 184.947 270.683 186.658C270.372 188.368 270.061 190.856 269.44 193.965C268.351 200.029 266.796 208.58 264.153 217.753C261.355 227.548 258.556 236.255 256.69 242.163V242.318H256.379C255.136 242.007 253.736 242.318 252.959 242.785C252.026 243.251 251.56 244.184 251.404 244.806C250.938 246.205 251.093 246.983 250.938 246.983Z" fill="#263238"/>
</g>
<g id="Group_104">
<path id="Vector_50" d="M285.92 268.595C285.765 268.595 284.832 266.574 282.811 263.464C280.789 260.355 277.68 256.157 273.482 252.425C269.284 248.694 264.931 245.895 261.666 244.185C258.401 242.475 256.224 241.697 256.224 241.697C256.224 241.697 256.846 241.853 257.779 242.164C258.712 242.475 260.266 242.941 261.977 243.719C265.397 245.273 269.906 247.916 274.104 251.803C278.302 255.69 281.411 259.888 283.277 263.153C284.21 264.708 284.832 266.107 285.298 267.04C285.765 268.128 285.92 268.595 285.92 268.595Z" fill="#263238"/>
</g>
<g id="Group_105" opacity="0.2">
<path id="Vector_51" opacity="0.2" d="M257.001 240.609C262.91 241.076 267.885 241.542 273.326 243.563C278.924 245.584 284.054 249.627 286.076 255.224C286.542 256.623 286.853 258.334 285.765 259.266C284.987 260.044 283.743 260.044 282.811 259.733C281.878 259.422 280.945 258.645 280.167 258.023C276.747 254.913 273.171 252.114 269.595 249.005C266.019 245.895 260.888 242.786 256.224 242.008" fill="black"/>
</g>
<g id="Group_106">
<path id="Vector_52" d="M245.807 230.658C245.807 230.658 245.341 231.125 244.253 231.591C243.164 232.057 241.61 232.835 239.433 233.457C235.235 234.7 229.171 235.322 222.641 233.612C216.111 231.902 211.136 228.326 208.027 225.216C206.472 223.662 205.383 222.262 204.762 221.329C204.14 220.397 203.829 219.775 203.829 219.775C203.984 219.619 205.384 221.951 208.493 224.905C211.603 227.859 216.578 231.28 222.797 232.835C229.016 234.39 235.08 233.923 239.277 232.835C243.475 231.746 245.807 230.503 245.807 230.658Z" fill="#263238"/>
</g>
<g id="Group_107" opacity="0.2">
<path id="Vector_53" opacity="0.2" d="M204.762 220.863C207.405 226.616 210.514 232.213 215.49 236.1C218.288 238.276 221.709 240.142 225.285 240.142C230.415 240.298 234.924 236.722 238.967 233.301C225.906 235.478 211.447 229.725 204.762 220.863Z" fill="black"/>
</g>
<g id="Group_108">
<path id="Vector_54" d="M262.13 144.678C261.819 144.678 262.13 139.392 261.508 132.862C260.886 126.332 259.642 121.201 259.798 121.046C259.953 121.046 260.42 122.29 260.886 124.311C261.353 126.488 261.975 129.286 262.285 132.707C262.596 135.972 262.596 138.926 262.441 141.102C262.441 143.434 262.286 144.678 262.13 144.678Z" fill="#263238"/>
</g>
</g>
<g id="Group_109">
<path id="Vector_55" d="M77.7384 352.865C77.7384 352.865 60.7915 356.441 45.7102 354.264C31.7173 352.088 0 354.264 0 372.921C0 393.755 42.2897 388.625 58.7703 385.204C75.2508 381.939 91.7314 378.985 91.7314 378.985L77.7384 352.865Z" fill="#571C1C"/>
<path id="Vector_56" opacity="0.4" d="M72.6056 353.641L83.3335 380.538L91.5738 378.984L75.7151 352.863L72.6056 353.641Z" fill="black"/>
</g>
<path id="Vector_57" d="M212.071 280.255C210.36 280.877 99.6609 249.782 54.8836 237.188C43.0673 233.923 30.4737 235.789 20.2122 242.474L19.7458 242.785C4.82001 252.58 -2.4874 270.616 1.555 288.029C4.19811 299.068 11.0391 308.708 20.6787 314.616C50.2193 332.651 112.721 370.743 114.587 369.966C117.074 369.033 195.124 367.011 195.124 367.011L101.216 299.534L145.838 328.453L212.071 280.255Z" fill="#3A1442"/>
<path id="Vector_58" d="M119.718 246.517L143.195 234.39L166.206 248.849L252.495 251.647L264.933 293.626L139.93 264.708C139.93 264.708 117.23 266.729 115.52 261.598C114.121 256.467 119.718 246.517 119.718 246.517Z" fill="#FFBE9D"/>
<path id="Vector_59" d="M190.459 313.839L178.798 352.086L180.198 363.747C201.342 385.047 235.081 387.38 259.024 369.033C273.484 357.839 282.035 340.581 281.879 322.39L281.724 282.433L190.459 313.839Z" fill="#3A1442"/>
<g id="Group_110">
<path id="Vector_60" d="M121.273 314.149C121.117 314.304 107.591 304.509 91.11 292.227C74.6295 279.944 61.2585 269.838 61.4139 269.527C61.5694 269.372 75.0959 279.167 91.5765 291.449C108.057 303.887 121.428 313.993 121.273 314.149Z" fill="#151C1E"/>
</g>
<g id="Group_111">
<path id="Vector_61" d="M141.637 242.009C141.637 242.165 136.507 244.03 130.132 246.051C123.758 248.073 118.471 249.627 118.316 249.316C118.316 249.161 123.447 247.295 129.821 245.274C136.351 243.253 141.637 241.698 141.637 242.009Z" fill="#EB996E"/>
</g>
<g id="Group_112">
<path id="Vector_62" d="M143.505 249.16C143.505 249.315 141.95 249.471 139.463 249.937C136.975 250.404 133.555 251.026 129.823 251.803C126.092 252.736 122.827 253.669 120.339 254.291C118.007 255.068 116.452 255.534 116.452 255.379C116.452 255.223 117.852 254.602 120.184 253.824C122.516 252.891 125.936 251.958 129.668 251.026C133.399 250.093 136.82 249.626 139.463 249.315C141.95 249.004 143.505 249.004 143.505 249.16Z" fill="#EB996E"/>
</g>
<g id="Group_113">
<path id="Vector_63" d="M141.485 255.691C141.485 255.846 135.732 257.246 128.581 258.645C121.429 260.044 115.521 260.977 115.521 260.821C115.521 260.666 121.273 259.267 128.425 257.867C135.577 256.468 141.485 255.535 141.485 255.691Z" fill="#EB996E"/>
</g>
<g id="Group_114">
<path id="Vector_64" d="M111.011 190.079L132.777 261.443C133.088 262.221 133.71 262.842 134.643 262.842L193.724 267.351C194.813 267.507 195.59 268.284 195.59 269.373V273.104C195.59 274.192 194.657 275.125 193.413 275.125L31.7174 272.016C30.94 272.016 30.1626 271.549 29.8517 270.616L1.39941 196.454C0.932978 195.21 1.86584 193.655 3.26513 193.655L108.834 188.68C109.767 188.68 110.7 189.146 111.011 190.079Z" fill="#A79FC2"/>
<path id="Vector_65" d="M65.4568 220.864C64.3684 221.175 62.5027 222.729 62.1917 224.44C62.0363 226.15 62.8136 227.86 64.2129 228.948C65.9232 230.192 68.4108 230.348 70.1211 229.104C71.8313 227.86 72.6087 225.683 71.6758 223.196C71.0539 221.175 67.4779 219.931 65.4568 220.864Z" fill="#E0E0E0"/>
</g>
<g id="Group_115">
<path id="Vector_66" d="M91.578 378.983L74.4756 350.841L200.101 252.425C207.875 246.05 217.514 242.163 227.465 241.23C258.716 238.432 284.991 264.396 282.348 295.647L280.327 319.591L197.147 346.488L91.578 378.983Z" fill="#3A1442"/>
<g id="Group_116">
<path id="Vector_67" d="M252.655 312.283C252.655 312.283 252.499 312.438 252.344 312.594C252.033 312.749 251.722 313.06 251.255 313.371C250.322 314.149 248.923 315.237 247.213 316.636C246.28 317.258 245.347 318.036 244.259 318.968C243.17 319.746 241.927 320.523 240.683 321.456C239.439 322.389 238.04 323.322 236.485 324.255C235.708 324.721 234.93 325.343 234.153 325.809C233.375 326.276 232.443 326.742 231.665 327.364C228.245 329.385 224.513 331.717 220.315 333.894C218.294 334.982 216.117 336.226 213.941 337.315C211.764 338.403 209.432 339.491 206.944 340.58C197.305 344.933 186.732 349.286 175.227 353.173C152.216 361.103 131.072 366.7 115.835 371.364C111.948 372.452 108.527 373.541 105.573 374.474C102.619 375.406 99.9762 376.184 97.7996 376.961C95.7784 377.583 94.0681 378.205 92.9798 378.516C92.5133 378.672 92.0469 378.827 91.736 378.982C91.425 379.138 91.2695 379.138 91.2695 379.138C91.2695 379.138 91.425 379.138 91.736 378.982C92.0469 378.827 92.5133 378.672 92.9798 378.516C94.0681 378.05 95.7784 377.583 97.7996 376.806C99.8208 376.028 102.464 375.251 105.418 374.163C108.372 373.23 111.792 372.141 115.679 370.898C130.916 366.078 152.061 360.325 174.916 352.551C186.421 348.664 197.149 344.311 206.633 339.958C208.966 338.869 211.298 337.781 213.63 336.693C215.807 335.604 217.983 334.361 220.004 333.428C224.202 331.407 227.934 329.074 231.354 327.053C232.132 326.587 233.064 326.12 233.842 325.654C234.619 325.187 235.397 324.566 236.174 324.099C237.729 323.166 239.128 322.233 240.372 321.301C241.616 320.368 242.859 319.59 243.948 318.813C245.036 318.036 245.969 317.258 246.902 316.636C248.612 315.392 250.011 314.304 250.944 313.527C251.411 313.216 251.722 312.905 252.033 312.749C252.499 312.283 252.655 312.283 252.655 312.283Z" fill="#151C1E"/>
</g>
<g id="Group_117">
<path id="Vector_68" d="M255.762 325.344C255.762 325.344 255.295 325.655 254.518 325.965C253.74 326.276 252.497 326.898 250.942 327.365C247.832 328.453 243.479 329.852 238.659 330.941C233.684 332.029 229.175 332.495 225.91 332.806C224.2 332.962 222.956 332.962 222.023 332.962C221.09 332.962 220.624 332.962 220.624 332.806C220.624 332.651 222.645 332.495 225.91 332.185C229.175 331.874 233.684 331.252 238.504 330.163C243.323 329.075 247.677 327.831 250.786 326.898C253.74 325.965 255.762 325.344 255.762 325.344Z" fill="#151C1E"/>
</g>
<g id="Group_118">
<path id="Vector_69" d="M195.126 257.09C195.282 257.245 168.384 278.39 135.112 304.2C101.84 330.164 74.6315 350.998 74.6315 350.687C74.4761 350.532 101.374 329.387 134.646 303.422C167.918 277.768 194.971 256.935 195.126 257.09Z" fill="#151C1E"/>
</g>
<g id="Group_119">
<g id="Group_120">
<path id="Vector_70" d="M187.819 361.568C181.755 358.303 175.07 360.324 169.317 362.19C165.43 363.434 161.543 365.455 157.656 364.367C154.858 363.589 152.681 361.257 150.66 359.236C141.953 351.151 129.981 346.798 118.165 347.575C114.745 347.731 111.48 349.13 109.303 351.617C103.395 357.992 107.904 366.388 113.19 371.829C122.518 381.314 135.268 387.533 148.483 388.932C159.522 390.02 174.603 388.621 185.798 383.801C192.639 380.847 196.215 372.762 192.639 366.077C191.395 364.367 189.84 362.656 187.819 361.568Z" fill="#571C1C"/>
<g id="Group_121" opacity="0.4">
<path id="Vector_71" opacity="0.4" d="M187.819 366.7C181.755 363.435 175.069 365.456 169.317 367.322C165.43 368.565 161.543 370.587 157.656 369.498C154.857 368.721 152.681 366.389 150.66 364.367C141.953 356.283 129.981 351.929 118.165 352.707C114.744 352.862 111.479 354.261 109.303 356.749C108.059 358.148 107.281 359.703 106.815 361.258C107.748 365.145 110.236 368.876 113.19 371.83C122.518 381.314 135.267 387.534 148.483 388.933C159.522 390.021 174.603 388.622 185.797 383.802C189.995 382.092 192.794 378.36 193.727 374.318C193.416 373.23 193.105 372.297 192.638 371.208C191.394 369.498 189.84 367.788 187.819 366.7Z" fill="black"/>
</g>
</g>
<g id="Group_122">
<path id="Vector_72" d="M193.571 374.317C193.416 374.317 193.416 372.918 192.017 370.742C191.239 369.653 190.306 368.565 188.752 367.632C187.352 366.699 185.331 365.766 183.155 365.455C178.646 364.989 173.515 366.855 167.762 368.409C164.964 369.187 161.854 370.275 158.434 369.964C156.723 369.809 155.169 369.187 153.614 368.254C152.059 367.321 150.815 366.233 149.416 365.144C144.441 360.325 138.533 357.215 132.936 355.349C130.137 354.416 127.338 353.795 124.695 353.484C122.052 353.173 119.564 353.173 117.388 353.484C115.211 353.795 113.345 354.572 111.791 355.505C110.236 356.438 109.148 357.526 108.37 358.459C106.815 360.325 106.193 361.724 106.193 361.724C106.193 361.724 106.66 360.325 108.215 358.303C108.992 357.37 110.08 356.127 111.635 355.194C113.19 354.261 115.211 353.484 117.388 353.017C119.72 352.551 122.208 352.706 124.851 353.017C127.494 353.328 130.292 353.95 133.246 354.883C136.045 355.816 138.999 357.06 141.953 358.77C143.352 359.547 144.752 360.48 146.151 361.568C147.55 362.657 148.794 363.745 150.038 364.833C151.282 365.922 152.681 367.01 154.08 367.943C155.48 368.72 157.034 369.342 158.589 369.498C161.699 369.964 164.808 368.876 167.607 368.098C173.359 366.544 178.646 364.678 183.31 365.3C187.974 366.077 190.928 368.876 192.328 370.897C192.95 371.985 193.261 372.918 193.416 373.696C193.571 374.007 193.571 374.317 193.571 374.317Z" fill="#263238"/>
</g>
<g id="Group_123">
<path id="Vector_73" d="M193.571 374.317C193.416 374.317 193.416 372.918 192.017 370.742C191.239 369.653 190.306 368.565 188.752 367.632C187.352 366.699 185.331 365.766 183.155 365.455C178.646 364.989 173.515 366.855 167.762 368.409C164.964 369.187 161.854 370.275 158.434 369.964C156.723 369.809 155.169 369.187 153.614 368.254C152.059 367.321 150.815 366.233 149.416 365.144C144.441 360.325 138.533 357.215 132.936 355.349C130.137 354.416 127.338 353.795 124.695 353.484C122.052 353.173 119.564 353.173 117.388 353.484C115.211 353.795 113.345 354.572 111.791 355.505C110.236 356.438 109.148 357.526 108.37 358.459C106.815 360.325 106.193 361.724 106.193 361.724C106.193 361.724 106.66 360.325 108.215 358.303C108.992 357.37 110.08 356.127 111.635 355.194C113.19 354.261 115.211 353.484 117.388 353.017C119.72 352.551 122.208 352.706 124.851 353.017C127.494 353.328 130.292 353.95 133.246 354.883C136.045 355.816 138.999 357.06 141.953 358.77C143.352 359.547 144.752 360.48 146.151 361.568C147.55 362.657 148.794 363.745 150.038 364.833C151.282 365.922 152.681 367.01 154.08 367.943C155.48 368.72 157.034 369.342 158.589 369.498C161.699 369.964 164.808 368.876 167.607 368.098C173.359 366.544 178.646 364.678 183.31 365.3C187.974 366.077 190.928 368.876 192.328 370.897C192.95 371.985 193.261 372.918 193.416 373.696C193.571 374.007 193.571 374.317 193.571 374.317Z" fill="#151C1E"/>
</g>
</g>
</g>
</g>
</g>
<defs>
<linearGradient id="paint0_linear" x1="452.043" y1="84.9788" x2="514.831" y2="103.956" gradientUnits="userSpaceOnUse">
<stop offset="0.0468952" stop-color="#A69EC1"/>
<stop offset="0.505208" stop-color="#CDC9DA"/>
<stop offset="0.989583" stop-color="#ECEBEE"/>
</linearGradient>
<linearGradient id="paint1_linear" x1="498.951" y1="83.8512" x2="477.869" y2="65.3392" gradientUnits="userSpaceOnUse">
<stop offset="0.0468952" stop-color="#A69EC1"/>
<stop offset="0.484375" stop-color="#CDC9DA"/>
<stop offset="1" stop-color="#ECEBEE"/>
</linearGradient>
<linearGradient id="paint2_linear" x1="147.144" y1="143.317" x2="150.652" y2="186.688" gradientUnits="userSpaceOnUse">
<stop offset="0.0468952" stop-color="#A69EC1"/>
<stop offset="0.505208" stop-color="#CDC9DA"/>
<stop offset="0.989583" stop-color="#ECEBEE"/>
</linearGradient>
<linearGradient id="paint3_linear" x1="145.081" y1="175.753" x2="140.857" y2="154.352" gradientUnits="userSpaceOnUse">
<stop offset="0.0468952" stop-color="#A69EC1"/>
<stop offset="0.505208" stop-color="#CDC9DA"/>
<stop offset="0.989583" stop-color="#ECEBEE"/>
</linearGradient>
<linearGradient id="paint4_linear" x1="595.732" y1="66.3676" x2="601.611" y2="139.065" gradientUnits="userSpaceOnUse">
<stop offset="0.0468952" stop-color="#A69EC1"/>
<stop offset="0.505208" stop-color="#CDC9DA"/>
<stop offset="0.989583" stop-color="#ECEBEE"/>
</linearGradient>
<linearGradient id="paint5_linear" x1="609.31" y1="88.7091" x2="586.873" y2="114.498" gradientUnits="userSpaceOnUse">
<stop stop-color="#E6E4EA"/>
<stop offset="1" stop-color="#B1AAC9"/>
</linearGradient>
<linearGradient id="paint6_linear" x1="398.641" y1="96.9376" x2="383.431" y2="129.395" gradientUnits="userSpaceOnUse">
<stop offset="0.0468952" stop-color="#A69EC1"/>
<stop offset="0.505208" stop-color="#CDC9DA"/>
<stop offset="0.989583" stop-color="#ECEBEE"/>
</linearGradient>
<linearGradient id="paint7_linear" x1="400.197" y1="116.271" x2="382.329" y2="118.169" gradientUnits="userSpaceOnUse">
<stop offset="0.0468952" stop-color="#A69EC1"/>
<stop offset="0.505208" stop-color="#CDC9DA"/>
<stop offset="0.989583" stop-color="#ECEBEE"/>
</linearGradient>
<linearGradient id="paint8_linear" x1="335.562" y1="3.29909" x2="324.104" y2="54.3027" gradientUnits="userSpaceOnUse">
<stop offset="0.0468952" stop-color="#A69EC1"/>
<stop offset="0.505208" stop-color="#CDC9DA"/>
<stop offset="0.989583" stop-color="#ECEBEE"/>
</linearGradient>
<linearGradient id="paint9_linear" x1="339.167" y1="40.5194" x2="352.664" y2="22.6933" gradientUnits="userSpaceOnUse">
<stop offset="0.0468952" stop-color="#A69EC1"/>
<stop offset="0.34779" stop-color="#CDC9DA"/>
<stop offset="1" stop-color="#ECEBEE"/>
</linearGradient>
<linearGradient id="paint10_linear" x1="31.9734" y1="94.5315" x2="108.083" y2="118.379" gradientUnits="userSpaceOnUse">
<stop offset="0.0468952" stop-color="#A69EC1"/>
<stop offset="0.505208" stop-color="#CDC9DA"/>
<stop offset="0.989583" stop-color="#ECEBEE"/>
</linearGradient>
<linearGradient id="paint11_linear" x1="64.4099" y1="68.5987" x2="90.0668" y2="94.1251" gradientUnits="userSpaceOnUse">
<stop stop-color="#ECEBEE"/>
<stop offset="0.510537" stop-color="#CDC9DA"/>
<stop offset="1" stop-color="#A69EC1"/>
</linearGradient>
</defs>
</svg>
