<svg width="750" height="676" viewBox="0 0 750 676" fill="none" xmlns="http://www.w3.org/2000/svg">
<style>
	* {
		transform-box: fill-box;
	}
	#arrow {
		transform-origin: right bottom;
		animation: arm-animation 1.9s linear infinite alternate;
	}
	@keyframes arm-animation {
        0% {
            transform: rotate(0deg) scale(0.9);
        }
        100% {
            transform: rotate(2deg) scale(1);
        }
    }
	#line-1,
	#line-2,
	#line-3,
	#line-4,
	#line-5,
	#line-6,
	#line-7,
	#line-8,
	#line-9,
	#line-10 {
		transform-origin: center bottom;
		animation: click-animation 1.9s linear infinite alternate;
	}
	@keyframes click-animation {
        0% {
            transform: scaleY(0.6);
        }
        100% {
            transform: scaleY(1);
        }
    }
</style>
<g id="seo">
<path id="fon" d="M55.7044 319.894C146.934 245.176 -2.48101 197.07 32.5711 77.8664C67.6232 -41.3374 174.475 8.80475 236.598 67.5451C298.722 126.286 351.483 2.88762 399.836 0.0680837C448.189 -2.75145 456.347 82.6157 478.098 142.139C499.849 201.663 645.331 130.985 709.645 188.472C774.116 245.959 671.464 368.139 662.857 441.134C659.139 497.082 732.686 540.034 681.769 658.033L315.07 670C279.548 658.878 256.389 649.95 256.389 649.95C-74.1024 503.647 -14.5733 378.611 55.7044 319.894Z" fill="url(#paint0_linear)"/>
<g id="Group 14">
<path id="POL" d="M716.378 658.218C716.378 668.036 562.637 675.967 372.822 675.967C228.471 675.967 9.9133 675.967 30.6825 647.657C46.7954 625.693 193.539 642.937 388.022 642.937C577.837 642.937 716.378 648.399 716.378 658.218Z" fill="#A79FC2"/>
</g>
<g id="strrelka">
<path id="line-1" d="M66.8234 651.959H29.3608L29.3608 297.506H66.8234L66.8234 651.959Z" fill="#418AD2"/>
<path id="line-2" d="M129.715 652.216H92.2528L92.2528 354.691H129.715L129.715 652.216Z" fill="#418AD2"/>
<path id="line-3" d="M188.819 651.986H151.055L151.055 437.677H188.819L188.819 651.986Z" fill="#418AD2"/>
<path id="line-4" d="M247.834 651.991H210.372L210.372 416.488H247.834L247.834 651.991Z" fill="#418AD2"/>
<path id="line-5" d="M306.894 652.232H269.432V430.512H306.894V652.232Z" fill="#418AD2"/>
<path id="line-6" d="M365.954 652.216H328.491V490.42H365.954V652.216Z" fill="#418AD2"/>
<path id="line-7" d="M425.016 652.002H387.554V541.142H425.016V652.002Z" fill="#418AD2"/>
<path id="line-8" d="M484.32 651.986H446.556V637.825H484.32V651.986Z" fill="#418AD2"/>
<path id="line-9" d="M543.135 652.014H505.673V558.831H543.135V652.014Z" fill="#418AD2"/>
<path id="line-10" d="M602.192 652.07H564.729V608.925H602.192V652.07Z" fill="#418AD2"/>
<path id="arrow" d="M16.1837 224.453L25.4744 188.499L71.3285 265.801L191.208 272.693L339.56 406.324H445.054L607.491 573.214L623.076 557.633L454.345 384.152H347.951L200.499 251.12L84.5153 244.528L44.3555 177.113L80.6192 186.401L64.4354 159.136L13.1868 145.952L-6.10352e-05 197.188L16.1837 224.453Z" fill="#8805A8"/>
</g>
<g id="gaika">
<g id="Group">
<path id="Vector" d="M197.283 230.481L225.068 230.533C226.979 212.187 231.369 194.565 237.98 177.976L214.481 164.333C208.077 160.612 205.856 152.188 209.574 145.573L219.439 127.847C223.157 121.129 231.421 118.7 237.928 122.37L261.117 135.548C271.911 120.406 284.771 106.763 299.387 95.0316L286.062 72.0863C282.24 65.5231 284.513 56.8411 291.123 52.7068L308.89 41.6993C315.604 37.5133 324.229 39.4771 328.102 46.1436L341.478 68.8305C358.676 60.8204 377.217 55.0324 396.791 51.9316V25.0071C396.791 17.0486 403.299 10.3304 411.407 9.96863L432.995 8.98673C441.155 8.62498 447.817 14.8264 447.817 22.8366V50.0195C468.011 51.7249 487.43 56.221 505.764 63.2492L520.173 38.6502C524.408 31.4152 533.808 28.6246 541.245 32.3971L561.025 42.5261C568.514 46.3504 571.045 55.3941 566.758 62.6808L551.832 87.8483C568.204 99.4243 582.82 113.274 595.215 128.984L622.278 113.688C629.921 109.347 639.786 111.62 644.227 118.752L656.106 137.821C660.599 145.005 657.913 154.359 650.166 158.648L622.174 174.152C629.921 192.032 635.189 211.205 637.461 231.205L671.031 231.256C679.966 231.308 687.3 238.181 687.3 246.605V269.033C687.3 277.457 679.966 284.227 670.928 284.124L636.48 283.71C633.588 303.296 627.804 321.901 619.644 339.213L650.063 356.474C657.81 360.866 660.496 370.22 656.002 377.352L644.124 396.214C639.682 403.294 629.818 405.413 622.174 400.969L591.393 383.14C579.101 397.661 564.796 410.478 548.94 421.123L566.655 451.2C570.993 458.539 568.411 467.531 560.922 471.252L541.142 481.122C533.756 484.791 524.357 481.897 520.07 474.611L502.459 444.379C485.106 450.529 466.72 454.404 447.714 455.748V489.443C447.714 497.453 441.052 503.551 432.892 503.086L411.304 501.794C403.247 501.329 396.688 494.507 396.688 486.549V453.216C378.25 450.063 360.691 444.534 344.319 436.989L327.999 464.43C324.125 470.993 315.5 472.854 308.786 468.564L291.02 457.298C284.358 453.061 282.085 444.379 285.959 437.867L301.814 410.891C287.612 399.677 275.01 386.654 264.268 372.287L237.825 386.912C231.317 390.478 223.054 387.946 219.336 381.176L209.471 363.295C205.753 356.577 207.973 348.205 214.378 344.587L239.942 330.117C233.022 313.89 228.167 296.578 225.74 278.594L197.231 278.232C189.897 278.129 183.958 271.927 183.958 264.331V244.176C184.01 236.579 189.949 230.481 197.283 230.481ZM422.149 396.318C504.318 399.367 573.111 335.544 573.111 253.685C573.111 171.826 504.318 107.124 422.149 109.088C342.769 111 280.329 174.875 280.329 251.773C280.329 328.722 342.769 393.372 422.149 396.318Z" fill="url(#paint1_linear)"/>
<path id="Vector_2" d="M514.08 31.4147L533.86 30.7429L540.677 48.4686L514.08 31.4147Z" fill="#837699"/>
<path id="Vector_3" d="M317.979 39.6318L295.151 39.8385V56.6857L317.979 39.6318Z" fill="#837699"/>
<path id="Vector_4" d="M231.008 120.819L208.283 121.749L213.964 134.462L231.008 120.819Z" fill="#837699"/>
<path id="Vector_5" d="M195.32 230.739L172.389 232.547L179.877 243.658L195.32 230.739Z" fill="url(#paint2_linear)"/>
<path id="Vector_6" d="M233.539 388.358L211.228 391.563L208.542 373.372L233.539 388.358Z" fill="#837699"/>
<path id="Vector_7" d="M318.805 470.476L298.767 474.145L297.166 459.365L318.805 470.476Z" fill="#837699"/>
<path id="Vector_8" d="M418.844 505.979L436.765 502.827L421.323 479.83L418.844 505.979Z" fill="#837699"/>
<path id="Vector_9" d="M516.145 486.651L537.062 482.31L520.896 462.776L516.145 486.651Z" fill="#837699"/>
<path id="Vector_10" d="M633.693 111.723L611.846 112.395L620.523 128.312L633.693 111.723Z" fill="#837699"/>
<path id="Vector_11" d="M677.125 283.037L656.442 285.823L658.688 269.601L677.125 283.037Z" fill="url(#paint3_linear)"/>
<path id="Vector_12" d="M634.156 402.932L614.582 406.136L612.981 393.165L634.156 402.932Z" fill="url(#paint4_linear)"/>
</g>
<path id="Vector_13" d="M174.868 232.289L202.86 232.341C204.771 213.84 209.213 196.063 215.875 179.371L192.221 165.624C185.765 161.851 183.544 153.428 187.263 146.71L197.179 128.777C200.949 122.007 209.264 119.527 215.823 123.248L239.219 136.529C250.116 121.284 263.079 107.537 277.798 95.7029L264.37 72.6026C260.497 65.9877 262.821 57.254 269.483 53.0681L287.405 41.9572C294.17 37.7712 302.847 39.735 306.772 46.4015L320.251 69.2951C337.553 61.2333 356.3 55.3936 376.029 52.2929V25.1616C376.029 17.1515 382.588 10.3816 390.748 10.0198L412.491 8.98625C420.755 8.6245 427.468 14.8776 427.468 22.9395V50.3808C447.817 52.0862 467.443 56.6339 485.88 63.7139L500.444 38.9081C504.731 31.6215 514.234 28.7791 521.671 32.6034L541.606 42.8357C549.146 46.7116 551.729 55.807 547.391 63.1454L532.31 88.5196C548.785 100.199 563.556 114.152 576.054 130.017L603.323 114.566C611.07 110.173 620.986 112.447 625.479 119.682L637.461 138.906C642.006 146.141 639.32 155.547 631.47 159.888L603.271 175.495C611.07 193.53 616.39 212.858 618.662 233.013L652.49 233.065C661.58 233.065 669.017 239.989 669.017 248.465V271.1C669.017 279.627 661.631 286.397 652.49 286.294L617.732 285.88C614.789 305.621 609.004 324.381 600.792 341.848L631.47 359.264C639.269 363.708 641.954 373.165 637.461 380.349L625.479 399.366C620.986 406.498 611.07 408.617 603.323 404.121L572.336 386.137C559.94 400.813 545.531 413.681 529.521 424.43L547.391 454.766C551.729 462.156 549.146 471.251 541.606 474.972L521.671 484.894C514.234 488.615 504.731 485.669 500.444 478.331L482.73 447.841C465.222 454.042 446.681 457.918 427.52 459.313V493.266C427.52 501.38 420.806 507.53 412.543 507.013L390.748 505.721C382.588 505.256 376.029 498.331 376.029 490.372V456.781C357.437 453.577 339.722 448.047 323.247 440.451L306.772 468.15C302.847 474.765 294.17 476.626 287.405 472.336L269.483 460.967C262.769 456.729 260.497 447.944 264.37 441.381L280.329 414.146C266.023 402.829 253.318 389.754 242.473 375.232L215.823 389.961C209.264 393.578 200.949 390.994 197.179 384.173L187.211 366.137C183.493 359.367 185.714 350.943 192.169 347.274L217.941 332.701C210.968 316.319 206.062 298.903 203.635 280.764L174.868 280.402C167.431 280.299 161.44 274.046 161.44 266.397V246.088C161.44 238.439 167.431 232.289 174.868 232.289ZM401.542 399.47C484.382 402.57 553.743 338.23 553.743 255.648C553.743 173.117 484.382 107.899 401.542 109.915C321.491 111.878 258.586 176.27 258.586 253.788C258.586 331.306 321.543 396.472 401.542 399.47Z" fill="url(#paint5_linear)"/>
</g>
<path id="Vector_14" d="M380.069 339.129C380.069 339.129 335.3 364.5 330.3 380C325.889 393.671 339.045 420.918 356.645 420.918C364.41 420.918 386.281 394.906 404.27 396.459C427.046 398.271 446.329 427.259 452.67 420.918C463.929 409.659 478.553 393.741 478.553 378.729C478.553 363.717 448.658 339.129 448.658 339.129H380.069Z" fill="#44154F"/>
<g id="man">
<path id="Vector_15" d="M347.07 363.588C335.034 363.588 323.387 384.941 327.14 407.33C330.764 429.718 361.305 624.744 361.305 624.744L390.035 618.921C390.035 618.921 379.811 363.588 347.07 363.588Z" fill="#52195D"/>
<path id="Vector_16" d="M410.354 609.112C410.354 609.112 400.946 625.4 401.332 628.659C401.719 631.917 405.473 636.698 409.358 640.175C413.244 643.652 424.569 648.433 428.481 649.302C432.392 650.171 432.393 643.652 430.22 639.741C428.047 635.829 420.772 630.14 420.772 624.964C420.772 619.787 423.813 606.136 423.813 606.136L410.354 609.112Z" fill="#44154F"/>
<path id="Vector_17" d="M386.284 617.109C386.284 617.109 385.637 636.004 387.967 638.204C391.326 641.774 391.76 646.555 392.108 650.627C392.455 654.699 364.164 654.378 358.729 654.378C353.293 654.378 346.125 655.682 340.472 653.345C334.819 651.008 354.319 643.509 363.119 639.886C371.919 636.262 371.919 636.262 371.919 636.262L369.072 611.674L386.284 617.109Z" fill="#52195D"/>
<path id="Vector_18" d="M441.541 379.636C441.541 379.636 467.035 362.165 477.777 375.624C485.671 385.33 424.976 614.392 424.976 614.392H404.27C404.399 614.392 419.411 398.401 441.541 379.636Z" fill="#52195D"/>
<path id="Vector_19" d="M416.863 634.389C418.374 637.802 423.155 640.845 427.936 641.279C424.025 639.541 419.679 637.607 416.863 634.389Z" fill="#765893"/>
<path id="Vector_20" d="M544.941 135.303C544.941 135.303 549.729 134.268 554.388 135.303C559.047 136.338 569.012 141.126 569.012 141.126L559.953 142.809C559.953 142.809 557.882 140.479 552.576 139.444C547.271 138.538 542.612 137.632 544.941 135.303Z" fill="#EDC07D"/>
<path id="Union" fill-rule="evenodd" clip-rule="evenodd" d="M546.409 131.614C560.878 121.96 566.347 102.858 558.515 86.7875C549.97 69.2548 528.83 61.9685 511.298 70.5131C493.765 79.0576 486.479 100.197 495.023 117.73C502.606 133.288 520.106 140.778 536.203 136.297L559.813 184.745C561.172 187.531 564.532 188.69 567.319 187.331C570.105 185.973 571.264 182.613 569.905 179.826L546.409 131.614ZM550.316 90.783C556.654 103.787 551.25 119.467 538.245 125.805C525.241 132.143 509.561 126.738 503.223 113.734C496.886 100.729 502.29 85.0496 515.294 78.7119C528.299 72.3742 543.979 77.7786 550.316 90.783Z" fill="#52195D"/>
<circle id="Ellipse 6" cx="526.77" cy="102.259" r="26.1939" transform="rotate(-25.9823 526.77 102.259)" fill="#F1F1F1" fill-opacity="0.5"/>
<g id="Group_2">
<g id="Group_3">
<path id="Vector_21" d="M426.402 118.609C427.437 117.962 439.602 87.5502 439.602 87.5502C439.602 87.5502 447.755 64.644 442.449 60.891C437.143 57.0086 424.59 43.5497 413.719 43.4202C402.719 43.1614 395.343 46.5262 394.437 47.0438C393.401 47.6909 386.284 59.7263 386.284 59.7263C386.284 59.7263 389.648 55.7145 391.331 70.7264C393.013 85.609 426.402 118.609 426.402 118.609Z" fill="#350042"/>
<path id="Vector_22" d="M398.706 117.186C400 121.068 399.482 148.762 400.518 155.751C401.553 162.61 433 173.351 433.647 148.245C434.294 123.139 431.836 93.6324 431.836 93.6324L398.706 117.186Z" fill="#FFD290"/>
<path id="Vector_23" d="M398.706 117.186L409.706 109.421L431.836 93.7618C431.836 93.8913 431.836 94.0207 431.836 94.4089C431.965 95.3148 432.094 97.1266 432.224 99.7148C432.224 100.233 432.353 100.75 432.353 101.268V101.397C432.483 103.209 432.612 105.28 432.741 107.609C432.741 107.738 432.741 107.868 432.741 107.997C432.741 108.515 432.741 109.162 432.871 109.68C432.871 109.939 432.871 110.327 432.871 110.586C432.871 110.586 432.871 110.586 432.871 110.715C432.871 110.844 432.871 110.974 432.871 111.103V111.233C432.871 111.491 432.871 111.621 432.871 111.88C428.73 125.339 413.33 139.962 399.871 141.645C399.871 140.739 399.741 139.833 399.741 138.798C399.482 129.35 399.353 119.386 398.706 117.186Z" fill="#EDC07D"/>
<path id="Vector_24" d="M432.868 70.7271C436.88 80.8213 437.139 99.0686 427.562 113.045C417.986 126.892 404.656 134.14 395.209 127.022C385.762 120.034 383.044 76.1624 389.903 64.7741C396.633 53.5151 426.786 55.4563 432.868 70.7271Z" fill="#FFD290"/>
<path id="Vector_25" d="M432.869 112.915C432.869 112.915 435.069 98.5504 440.505 95.0562C446.069 91.562 448.528 89.362 449.434 84.3149C450.469 79.2678 468.846 75.903 465.87 67.4912C462.893 59.2087 448.528 55.1969 441.152 40.7026C433.775 26.2083 425.881 18.1847 408.928 23.4907C391.845 28.7966 389.516 39.1497 389.516 39.1497C389.516 39.1497 382.01 37.8555 377.351 46.9145C372.692 55.9734 376.057 61.0205 379.033 65.2912C379.033 65.2912 378.386 53.3851 382.528 54.1616C386.669 54.9381 382.528 68.0088 382.528 68.0088C382.528 68.0088 388.61 62.9617 395.21 55.1969C401.681 47.4321 400.128 56.491 398.187 66.3265C396.245 76.1619 410.74 66.8441 417.21 59.7264C423.681 52.6087 432.869 59.2087 436.234 69.303C439.469 79.656 424.975 95.4444 432.869 112.915Z" fill="#58006D"/>
<path id="Vector_26" d="M429.762 86.5152C429.762 86.5152 435.715 76.2916 438.95 80.6916C442.056 85.0917 439.468 98.5507 432.868 98.6801C426.139 98.8095 429.762 86.5152 429.762 86.5152Z" fill="#FFD290"/>
<path id="Vector_27" d="M433.128 87.2918C433.128 87.2918 432.869 81.3388 436.104 83.28C439.339 85.2212 436.104 94.7978 433.128 94.6684C430.151 94.4095 433.128 87.2918 433.128 87.2918Z" fill="#EDC07D"/>
<path id="Vector_28" d="M399.094 84.4456C397.929 87.1633 397.153 90.0104 396.635 92.9869C395.729 99.3281 396.635 102.046 396.765 102.434C397.541 102.305 399.482 102.046 402.071 101.269C400.388 101.269 398.706 101.269 397.153 101.399L397.671 101.787C397.282 96.0928 398.447 90.2692 399.094 84.4456Z" fill="#301736"/>
<path id="Vector_29" d="M417.467 81.468C417.467 81.468 414.749 76.5503 410.09 75.6444C405.431 74.7385 406.855 78.6209 407.89 78.7503C408.926 79.1385 417.596 80.5621 417.467 81.468Z" fill="#3E054B"/>
<path id="Vector_30" d="M386.8 81.9862C386.8 81.9862 389.517 77.0685 394.176 76.1626C398.835 75.2567 397.411 79.1391 396.376 79.2685C395.211 79.6568 386.67 81.0803 386.8 81.9862Z" fill="#3E054B"/>
<path id="Vector_31" d="M404.269 85.221C407.505 88.7152 410.611 87.5504 414.622 85.8681C410.999 90.0093 405.563 89.1034 404.269 85.221Z" fill="#301736"/>
<path id="Vector_32" d="M387.705 84.5733C390.422 87.5498 392.493 86.6439 395.858 85.091C393.011 88.5851 388.74 87.8086 387.705 84.5733Z" fill="#301736"/>
<path id="Vector_33" d="M411.388 110.585C412.164 110.197 412.682 111.362 411.905 111.75C411.646 111.75 408.54 113.174 395.987 112.785C395.47 112.785 395.47 112.009 395.987 112.009C397.67 111.88 407.764 112.138 411.388 110.585Z" fill="#301736"/>
</g>
<path id="Vector_34" d="M347.844 153.809C346.55 154.197 371.915 294.481 379.162 343.529C381.621 360.612 454.222 355.694 449.693 343.141C447.622 337.317 460.175 252.422 461.987 238.187C465.611 210.233 472.987 161.833 471.175 153.68C471.175 153.809 355.868 151.739 347.844 153.809Z" fill="#418AD2"/>
<path id="Vector_35" d="M571.342 142.032C569.531 140.221 544.554 139.444 544.554 144.103C544.554 148.762 563.448 142.809 563.448 147.468C563.448 152.127 558.53 163.256 553.354 163.256C548.177 163.256 543.26 158.896 543.26 156.307C543.26 153.719 545.201 152.599 543.26 150.657C541.318 148.716 534.977 156.009 538.342 164.033C541.707 172.056 550.507 177.75 547.66 185.256C547.142 186.55 545.589 188.751 543.26 191.209C547.919 194.833 552.836 198.198 557.236 201.821C560.86 197.162 563.707 193.021 565.26 189.915C573.284 174.256 573.154 143.844 571.342 142.032Z" fill="#FFD290"/>
<path id="Vector_36" d="M390.036 146.432C390.036 146.432 398.189 331.752 390.036 339.905C381.754 348.058 338.012 366.694 338.012 366.694C338.012 366.694 330.118 370.576 329.73 360.611C329.341 350.646 361.306 333.176 361.306 317.387C361.306 301.728 358.201 239.222 358.201 239.222L347.847 153.809L390.036 146.432Z" fill="#391442"/>
<path id="Vector_37" d="M471.177 153.809C471.177 153.809 456.165 321.14 456.165 330.976C456.165 340.811 478.424 360.87 478.424 360.87C478.424 360.87 452.412 369.411 443.871 360.87C435.33 352.329 433.647 143.844 433.647 143.844L471.177 153.809Z" fill="#52195D"/>
<path id="Vector_38" d="M407.504 152.774L420.704 152.386L420.186 168.174H410.222L407.504 152.774Z" fill="#600377"/>
<path id="Vector_39" d="M399.87 145.656L411.647 153.032L408.8 160.02L390.552 158.209L391.976 151.997L399.87 145.656Z" fill="#4E9BDB"/>
<path id="Vector_40" d="M433.776 143.974L417.341 152.385L420.317 160.021L433.905 158.856L433.776 143.974Z" fill="#4E9BDB"/>
<path id="Vector_41" d="M407.504 296.552L410.222 168.174H420.186L427.692 296.552L417.598 314.282L407.504 296.552Z" fill="#8805A8"/>
<path id="Vector_42" d="M544.295 181.762L569.013 193.927C569.013 193.927 514.789 273.904 501.848 273.904C488.906 273.904 459.918 206.609 459.918 206.609L471.047 153.809C471.047 153.809 500.036 218.645 505.989 218.645C512.071 218.645 544.295 181.762 544.295 181.762Z" fill="#52195D"/>
<path id="Vector_43" d="M399.873 144.621L393.532 298.623L372.179 196.515L380.59 191.468L370.237 176.974L378.261 147.468L399.873 144.621Z" fill="#52195D"/>
<path id="Vector_44" d="M433.774 143.974L437.916 307.681L452.798 196.127L447.88 190.562L456.163 172.574L450.857 148.503L433.774 143.974Z" fill="#7D348E"/>
<path id="Vector_45" d="M287.67 70.7259C287.67 70.7259 286.505 55.4551 281.458 47.0432L296.599 45.7491L300.482 50.0197L300.352 72.4082L287.67 70.7259Z" fill="#EDC07D"/>
<path id="Vector_46" d="M300.481 77.9728C301.904 97.5142 310.575 138.668 310.575 138.668L347.846 153.938L369.329 205.315C369.329 205.315 284.692 170.633 272.786 145.138C271.622 142.55 270.198 90.3965 283.916 72.6669C289.351 76.0316 293.363 77.3257 300.481 77.9728Z" fill="#391442"/>
<path id="Vector_47" d="M286.374 62.1839C284.562 65.5486 283.139 74.4782 283.139 74.4782C289.609 79.3959 294.915 79.0076 300.351 77.8429C301.645 72.6664 302.033 69.8193 303.068 65.4192C298.151 64.7722 291.162 65.4192 286.374 62.1839Z" fill="#DECFED"/>
<path id="Vector_48" d="M298.54 9.25456C297.246 8.34867 293.752 9.6428 292.716 12.7487C291.681 15.8546 292.975 16.3723 293.881 19.8664C295.952 27.243 288.575 25.9489 288.575 25.9489L282.363 27.8901L280.552 31.1254L281.457 47.0432C283.01 48.4668 286.634 52.9962 289.222 53.2551C292.846 53.7727 301.128 51.8315 301.516 48.0785C301.775 45.102 303.846 44.455 304.622 42.902C307.469 37.4667 305.528 27.7607 303.458 23.2312C301.387 18.7017 299.575 17.7958 299.316 15.4664C299.058 13.2664 299.964 10.2899 298.54 9.25456Z" fill="#EDC07D"/>
<path id="Vector_49" d="M297.892 35.7836C297.892 35.7836 299.057 37.9836 300.998 35.266C301.645 34.4895 301.386 25.6894 300.092 25.8188C298.927 25.9482 296.21 29.96 296.21 29.96L297.892 35.7836Z" fill="#CEA672"/>
<path id="Vector_50" d="M295.692 35.2668C295.692 35.2668 296.598 40.0551 297.504 40.7021C298.41 41.3492 299.833 41.0904 300.092 38.8903C300.48 36.5609 298.28 31.1256 297.763 31.255C297.504 31.1256 295.433 32.8079 295.692 35.2668Z" fill="#CEA672"/>
<path id="Vector_51" d="M295.561 37.7256C295.561 37.7256 293.62 41.9963 294.396 42.5139C295.302 43.161 299.185 42.6434 299.832 40.8316C300.608 38.8904 298.667 37.9845 295.561 37.7256Z" fill="#CEA672"/>
<path id="Vector_52" d="M297.116 42.1249C297.374 42.1249 297.763 42.1249 297.892 42.3837C298.28 43.0308 298.539 44.4543 296.598 45.7484C295.045 46.7838 292.198 47.4308 292.198 47.4308L293.233 42.3837C293.363 42.5131 294.916 42.6425 297.116 42.1249Z" fill="#CEA672"/>
<path id="Vector_53" d="M281.845 28.7965C281.198 29.4436 278.998 30.9965 279.127 32.1613C279.257 33.326 280.939 35.0083 280.939 35.0083C280.939 35.0083 294.786 36.0437 295.951 36.0437C297.116 35.9142 300.222 32.1613 297.634 30.9965C295.304 29.9612 281.845 28.7965 281.845 28.7965Z" fill="#FFD290"/>
<path id="Vector_54" d="M279.385 34.8784C278.35 35.5255 277.832 38.1137 277.962 39.2785C277.962 40.4432 280.032 42.6432 280.032 42.6432C280.032 42.6432 291.421 43.8079 293.75 42.902C296.079 41.8667 296.468 38.3726 295.562 37.7255C294.656 37.0784 280.938 33.8431 279.385 34.8784Z" fill="#FFD290"/>
<path id="Vector_55" d="M282.879 31.1255C282.879 31.1255 284.82 27.3725 286.761 26.4666C288.703 25.6901 300.091 27.2431 301.256 28.149C302.42 29.0549 299.185 31.6431 297.373 32.1608C295.562 32.6784 285.467 29.4431 282.879 31.1255Z" fill="#FFD290"/>
</g>
</g>
<g id="Flower">
<g id="Group_4">
<path id="Vector_56" d="M721.507 472.716C724.425 475.761 729.753 477.664 735.843 477.537C741.806 477.284 747.008 475 749.799 471.701C746.881 468.656 741.553 466.753 735.463 466.88C729.373 467.134 724.171 469.417 721.507 472.716Z" fill="#A79FC2"/>
<g id="Group_5">
<g id="Group_6">
<path id="Vector_57" d="M508.104 406.868C516.604 411.563 524.597 417.145 532.337 422.855C540.076 428.691 547.435 435.034 554.539 441.632C561.644 448.229 568.242 455.334 574.585 462.693C580.929 470.051 586.765 477.791 592.348 485.784C603.386 501.77 612.648 519.025 620.133 536.914C627.365 554.93 632.82 573.834 636.246 592.992L632.186 593.626C629.141 574.722 624.066 556.072 617.215 538.056C610.11 520.167 601.229 503.039 590.572 487.053C585.243 479.06 579.407 471.32 573.317 463.962C567.1 456.603 560.629 449.498 553.651 442.774C546.8 436.049 539.442 429.706 531.956 423.743C524.344 417.78 516.477 412.197 508.104 407.376V406.868Z" fill="#A79FC2"/>
<path id="Vector_58" d="M476.767 384.919C477.275 391.39 481.461 398.494 488.693 403.569C495.798 408.644 504.045 410.294 510.262 408.517C509.754 402.047 505.567 394.942 498.336 389.867C491.231 384.792 482.984 383.143 476.767 384.919Z" fill="#A79FC2"/>
<path id="Vector_59" d="M524.98 379.464C520.159 383.777 517.241 391.644 517.748 400.398C518.256 409.152 522.062 416.511 527.264 420.317C532.085 416.003 535.003 408.137 534.495 399.383C533.988 390.629 530.182 383.27 524.98 379.464Z" fill="#A79FC2"/>
<path id="Vector_60" d="M553.4 393.674C547.691 396.592 542.742 403.316 540.839 411.944C538.936 420.444 540.712 428.691 544.772 433.766C550.482 430.848 555.43 424.123 557.333 415.496C559.109 406.995 557.46 398.749 553.4 393.674Z" fill="#A79FC2"/>
<path id="Vector_61" d="M572.557 411.309C566.848 414.227 561.9 420.951 559.997 429.579C558.094 438.079 559.87 446.326 563.93 451.401C569.639 448.483 574.587 441.759 576.49 433.131C578.267 424.631 576.617 416.384 572.557 411.309Z" fill="#A79FC2"/>
<path id="Vector_62" d="M594.633 429.452C588.29 430.847 581.819 436.049 577.886 443.915C573.953 451.655 573.446 460.028 576.11 465.991C582.454 464.596 588.924 459.394 592.857 451.528C596.79 443.788 597.298 435.415 594.633 429.452Z" fill="#A79FC2"/>
<path id="Vector_63" d="M610.238 452.162C604.402 451.909 597.677 454.954 592.475 460.917C587.274 466.753 584.99 473.858 586.005 479.567C591.841 479.821 598.565 476.776 603.767 470.813C608.842 464.977 611.126 457.872 610.238 452.162Z" fill="#A79FC2"/>
<path id="Vector_64" d="M621.53 466.499C615.694 466.245 608.97 469.29 603.768 475.253C598.566 481.089 596.282 488.194 597.297 493.903C603.133 494.157 609.858 491.112 615.059 485.149C620.134 479.313 622.418 472.208 621.53 466.499Z" fill="#A79FC2"/>
<path id="Vector_65" d="M627.872 487.56C622.924 487.306 617.088 489.971 612.648 495.046C608.207 499.994 606.304 506.084 607.065 511.032C612.013 511.285 617.849 508.621 622.29 503.546C626.73 498.598 628.76 492.508 627.872 487.56Z" fill="#A79FC2"/>
<path id="Vector_66" d="M634.216 509.509C630.664 507.479 625.208 507.225 620.006 509.255C614.804 511.285 610.998 515.091 609.603 519.025C613.155 521.055 618.611 521.308 623.812 519.278C629.014 517.248 632.82 513.442 634.216 509.509Z" fill="#A79FC2"/>
<path id="Vector_67" d="M636.755 527.651C634.598 525.241 630.538 523.591 625.971 523.845C621.403 524.099 617.597 525.875 615.567 528.539C617.724 530.95 621.784 532.599 626.351 532.346C630.919 532.219 634.725 530.316 636.755 527.651Z" fill="#A79FC2"/>
<path id="Vector_68" d="M488.694 433.005C494.149 436.43 502.523 437.064 510.77 434.273C519.017 431.355 525.107 425.773 527.39 419.683C521.935 416.257 513.561 415.623 505.314 418.414C496.941 421.205 490.851 426.915 488.694 433.005Z" fill="#A79FC2"/>
<path id="Vector_69" d="M506.074 447.341C511.53 450.767 519.904 451.401 528.15 448.61C536.397 445.692 542.487 440.109 544.771 434.019C539.315 430.594 530.942 429.959 522.695 432.751C514.448 435.669 508.358 441.251 506.074 447.341Z" fill="#A79FC2"/>
<path id="Vector_70" d="M524.726 465.103C530.182 468.529 538.556 469.163 546.802 466.372C555.049 463.454 561.139 457.871 563.423 451.782C557.967 448.356 549.594 447.722 541.347 450.513C533.1 453.304 527.01 459.013 524.726 465.103Z" fill="#A79FC2"/>
<path id="Vector_71" d="M545.787 476.903C550.227 479.694 557.079 480.201 563.803 477.918C570.527 475.634 575.475 470.94 577.251 465.992C572.811 463.2 565.96 462.693 559.235 464.977C552.511 467.26 547.563 471.955 545.787 476.903Z" fill="#A79FC2"/>
<path id="Vector_72" d="M561.52 488.194C565.199 490.605 570.654 491.112 576.11 489.209C581.566 487.306 585.499 483.5 586.894 479.44C583.215 477.029 577.759 476.522 572.304 478.425C566.848 480.201 562.915 484.007 561.52 488.194Z" fill="#A79FC2"/>
<path id="Vector_73" d="M570.906 502.658C574.586 505.068 580.041 505.576 585.497 503.673C590.952 501.769 594.885 497.963 596.281 493.903C592.602 491.493 587.146 490.985 581.69 492.888C576.235 494.665 572.302 498.471 570.906 502.658Z" fill="#A79FC2"/>
<path id="Vector_74" d="M581.185 515.726C584.103 518.264 589.178 519.533 594.507 518.645C599.835 517.756 604.149 515.092 606.179 511.666C603.261 509.129 598.186 507.86 592.857 508.748C587.529 509.636 583.215 512.428 581.185 515.726Z" fill="#A79FC2"/>
<path id="Vector_75" d="M591.08 532.219C594.378 533.107 598.819 532.346 602.752 529.681C606.685 527.017 609.096 523.211 609.476 519.658C606.178 518.77 601.737 519.532 597.804 522.196C593.871 524.987 591.46 528.793 591.08 532.219Z" fill="#A79FC2"/>
<path id="Vector_76" d="M602.245 542.115C604.91 542.369 608.081 541.1 610.619 538.563C613.156 536.025 614.425 532.727 614.171 530.062C611.507 529.809 608.335 531.077 605.798 533.615C603.26 536.152 601.991 539.451 602.245 542.115Z" fill="#A79FC2"/>
<path id="Vector_77" d="M609.605 544.653C611.381 544.907 613.411 544.272 614.933 542.623C616.456 541.101 617.217 538.944 616.963 537.294C615.187 537.041 613.157 537.675 611.635 539.324C609.985 540.847 609.351 542.877 609.605 544.653Z" fill="#A79FC2"/>
<path id="Vector_78" d="M611.888 549.474C613.665 549.728 615.695 549.093 617.217 547.444C618.74 545.922 619.501 543.765 619.247 542.115C617.471 541.862 615.441 542.496 613.918 544.145C612.396 545.668 611.635 547.825 611.888 549.474Z" fill="#A79FC2"/>
</g>
<g id="Group_7">
<path id="Vector_79" d="M565.07 294.458C573.824 304.989 581.437 316.408 588.542 327.953C595.647 339.625 601.99 351.678 607.827 364.112C613.663 376.419 618.738 389.106 623.305 402.047C627.746 414.988 631.552 428.183 634.724 441.378C640.941 468.021 644.239 495.426 644.62 522.831C644.747 550.236 642.082 577.64 636.754 604.537L631.044 603.269C636.881 576.879 639.926 549.855 640.052 522.704C640.052 495.68 637.261 468.529 631.425 442.012C628.507 428.818 624.954 415.623 620.768 402.808C616.454 389.994 611.506 377.307 605.923 364.873C600.341 352.44 594.124 340.387 587.273 328.587C580.422 316.915 572.936 305.37 564.436 294.839L565.07 294.458Z" fill="#C2BDD3"/>
<path id="Vector_80" d="M535.382 249.545C532.591 258.3 534.621 269.845 541.345 280.122C548.07 290.399 557.966 296.742 567.101 297.757C569.892 289.003 567.862 277.458 561.138 267.181C554.286 256.777 544.39 250.434 535.382 249.545Z" fill="#C2BDD3"/>
<path id="Vector_81" d="M601.357 267.308C592.857 270.606 584.991 279.234 581.057 291.033C577.251 302.705 578.393 314.378 583.214 322.117C591.715 318.818 599.581 310.191 603.514 298.392C607.32 286.592 606.178 274.92 601.357 267.308Z" fill="#C2BDD3"/>
<path id="Vector_82" d="M631.172 300.675C622.037 301.563 612.141 307.907 605.29 318.057C598.439 328.334 596.409 339.879 599.2 348.633C608.335 347.745 618.231 341.402 625.082 331.252C631.933 320.975 633.836 309.429 631.172 300.675Z" fill="#C2BDD3"/>
<path id="Vector_83" d="M647.158 333.662C638.023 334.55 628.127 340.894 621.276 351.044C614.424 361.321 612.394 372.866 615.186 381.62C624.32 380.732 634.217 374.389 641.068 364.239C647.919 353.962 649.949 342.417 647.158 333.662Z" fill="#C2BDD3"/>
<path id="Vector_84" d="M666.823 368.934C657.815 367.411 646.65 370.963 637.388 379.21C628.127 387.33 623.305 398.114 623.686 407.122C632.694 408.645 643.859 405.092 653.121 396.846C662.256 388.726 667.077 378.068 666.823 368.934Z" fill="#C2BDD3"/>
<path id="Vector_85" d="M675.451 406.742C667.966 403.443 657.562 403.95 647.666 408.898C637.897 413.846 631.172 421.966 629.523 429.959C637.008 433.258 647.412 432.751 657.308 427.803C667.078 422.854 673.675 414.735 675.451 406.742Z" fill="#C2BDD3"/>
<path id="Vector_86" d="M682.811 431.229C675.325 427.93 664.922 428.437 655.025 433.385C645.256 438.333 638.532 446.453 636.883 454.446C644.368 457.745 654.772 457.238 664.668 452.29C674.437 447.341 681.035 439.222 682.811 431.229Z" fill="#C2BDD3"/>
<path id="Vector_87" d="M680.399 462.185C674.055 459.394 665.047 459.775 656.674 464.088C648.3 468.402 642.591 475.38 641.068 482.104C647.412 484.896 656.42 484.515 664.793 480.201C673.167 476.014 678.876 469.036 680.399 462.185Z" fill="#C2BDD3"/>
<path id="Vector_88" d="M677.228 494.158C673.549 489.59 666.698 486.545 658.705 486.418C650.839 486.418 643.861 489.337 640.054 493.777C643.734 498.345 650.585 501.39 658.578 501.516C666.571 501.643 673.422 498.725 677.228 494.158Z" fill="#C2BDD3"/>
<path id="Vector_89" d="M671.136 519.278C669.487 514.838 665.047 510.778 659.083 508.748C653.12 506.718 647.03 507.098 643.097 509.636C644.747 514.076 649.187 518.136 655.15 520.166C661.113 522.196 667.203 521.689 671.136 519.278Z" fill="#C2BDD3"/>
<path id="Vector_90" d="M526.121 318.692C531.577 326.05 542.107 331.252 554.414 331.76C566.721 332.267 577.632 327.953 583.722 321.229C578.266 313.87 567.736 308.669 555.429 308.034C543.122 307.527 532.084 311.841 526.121 318.692Z" fill="#C2BDD3"/>
<path id="Vector_91" d="M541.472 346.604C546.928 353.962 557.458 359.164 569.765 359.671C582.072 360.179 592.983 355.865 599.073 349.141C593.617 341.782 583.087 336.58 570.78 336.073C558.473 335.439 547.562 339.752 541.472 346.604Z" fill="#C2BDD3"/>
<path id="Vector_92" d="M556.697 379.337C562.153 386.696 572.683 391.898 584.99 392.405C597.297 392.913 608.208 388.599 614.298 381.875C608.842 374.516 598.312 369.314 586.005 368.807C573.698 368.299 562.787 372.613 556.697 379.337Z" fill="#C2BDD3"/>
<path id="Vector_93" d="M578.139 405.727C582.58 411.69 591.08 415.877 601.103 416.384C611.126 416.765 620.007 413.339 624.955 407.757C620.515 401.794 612.014 397.607 601.991 397.099C591.968 396.719 583.087 400.144 578.139 405.727Z" fill="#C2BDD3"/>
<path id="Vector_94" d="M592.982 428.564C596.535 433.512 603.513 437.065 611.506 437.445C619.626 437.826 626.731 434.781 630.791 430.214C627.238 425.265 620.26 421.713 612.267 421.332C604.147 420.952 596.916 423.87 592.982 428.564Z" fill="#C2BDD3"/>
<path id="Vector_95" d="M597.805 452.416C601.357 457.364 608.335 460.917 616.328 461.297C624.448 461.678 631.553 458.633 635.613 454.066C632.061 449.117 625.082 445.565 617.089 445.184C608.97 444.804 601.738 447.722 597.805 452.416Z" fill="#C2BDD3"/>
<path id="Vector_96" d="M604.53 474.873C607.067 479.694 613.03 483.881 620.389 485.53C627.875 487.18 634.853 485.784 639.293 482.485C636.756 477.664 630.793 473.477 623.434 471.828C615.948 470.305 608.843 471.574 604.53 474.873Z" fill="#C2BDD3"/>
<path id="Vector_97" d="M609.097 501.643C613.03 504.561 619.247 505.83 625.844 504.308C632.442 502.785 637.517 499.106 639.8 494.665C635.867 491.747 629.65 490.478 623.053 492.001C616.456 493.523 611.254 497.33 609.097 501.643Z" fill="#C2BDD3"/>
<path id="Vector_98" d="M618.486 520.293C621.785 521.943 626.733 521.943 631.427 519.913C636.121 517.883 639.42 514.33 640.562 510.778C637.263 509.128 632.315 509.128 627.621 511.158C622.926 513.188 619.501 516.741 618.486 520.293Z" fill="#C2BDD3"/>
<path id="Vector_99" d="M626.733 527.525C628.89 528.793 631.934 528.92 634.853 527.652C637.771 526.383 639.674 524.099 640.308 521.689C638.151 520.42 635.106 520.293 632.188 521.562C629.27 522.83 627.367 525.114 626.733 527.525Z" fill="#C2BDD3"/>
<path id="Vector_100" d="M656.546 528.035C654.389 529.304 651.344 529.431 648.426 528.162C645.508 526.893 643.605 524.61 642.97 522.199C645.127 520.93 648.172 520.803 651.09 522.072C654.008 523.341 656.038 525.625 656.546 528.035Z" fill="#C2BDD3"/>
</g>
<g id="Group_8">
<path id="Vector_101" d="M691.818 514.077C704.759 495.173 718.207 476.776 732.798 459.014L732.544 458.76C717.7 476.142 703.744 494.285 690.422 512.935C677.227 531.586 664.667 550.87 653.375 570.789C650.711 575.611 648.046 580.559 645.509 585.507C646.524 586.014 647.539 586.649 648.554 587.156C650.964 582.081 653.502 577.133 656.166 572.312C666.95 552.393 679.003 532.981 691.818 514.077Z" fill="#C2BDD3"/>
<path id="Vector_102" d="M747.008 435.035C742.314 435.415 737.366 438.587 734.194 443.789C731.149 448.991 730.642 454.827 732.418 459.141C737.112 458.76 742.06 455.588 745.232 450.386C748.404 445.311 748.911 439.475 747.008 435.035Z" fill="#A79FC2"/>
<path id="Vector_103" d="M711.609 446.073C709.706 449.879 709.579 455.461 711.736 461.171C713.893 466.753 717.826 470.94 721.759 472.463C723.662 468.656 723.789 463.074 721.632 457.365C719.475 451.655 715.669 447.595 711.609 446.073Z" fill="#C2BDD3"/>
<path id="Vector_104" d="M710.467 487.56C713.639 490.351 719.221 491.747 725.184 490.859C731.147 490.097 736.095 487.179 738.379 483.627C735.207 480.836 729.625 479.44 723.662 480.328C717.699 481.216 712.751 484.007 710.467 487.56Z" fill="#C2BDD3"/>
<path id="Vector_105" d="M696.258 505.957C699.43 508.748 705.012 510.144 710.975 509.256C716.938 508.495 721.887 505.577 724.17 502.024C720.998 499.233 715.416 497.837 709.453 498.725C703.49 499.614 698.542 502.405 696.258 505.957Z" fill="#A79FC2"/>
<path id="Vector_106" d="M686.49 520.674C689.662 523.465 695.244 524.861 701.207 523.973C707.17 523.212 712.118 520.293 714.402 516.741C711.23 513.95 705.648 512.554 699.685 513.442C693.849 514.33 688.901 517.122 686.49 520.674Z" fill="#C2BDD3"/>
<path id="Vector_107" d="M675.832 536.787C679.004 539.579 684.586 540.974 690.549 540.086C696.512 539.325 701.46 536.407 703.744 532.854C700.572 530.063 694.99 528.667 689.027 529.556C683.064 530.444 678.116 533.235 675.832 536.787Z" fill="#A79FC2"/>
<path id="Vector_108" d="M699.303 461.805C697.4 465.611 697.273 471.194 699.43 476.903C701.587 482.485 705.52 486.672 709.453 488.195C711.356 484.388 711.483 478.806 709.326 473.097C707.043 467.514 703.236 463.327 699.303 461.805Z" fill="#A79FC2"/>
<path id="Vector_109" d="M687.377 478.045C685.473 481.851 685.347 487.433 687.503 493.142C689.66 498.725 693.593 502.912 697.526 504.434C699.43 500.628 699.556 495.046 697.4 489.336C695.243 483.754 691.31 479.567 687.377 478.045Z" fill="#C2BDD3"/>
<path id="Vector_110" d="M676.084 494.412C674.181 498.218 674.054 503.8 676.211 509.51C678.368 515.092 682.301 519.279 686.234 520.801C688.137 516.995 688.264 511.413 686.107 505.703C683.95 500.121 680.017 495.934 676.084 494.412Z" fill="#A79FC2"/>
<path id="Vector_111" d="M665.174 510.524C663.271 514.33 663.144 519.912 665.301 525.622C667.457 531.204 671.39 535.391 675.324 536.913C677.227 533.107 677.353 527.525 675.197 521.815C673.04 516.106 669.107 512.046 665.174 510.524Z" fill="#C2BDD3"/>
</g>
</g>
<path id="Vector_112" d="M612.774 583.858H683.316C694.988 593.246 702.474 607.202 702.474 622.935C702.474 639.682 693.973 654.399 680.906 663.788H615.312C602.244 654.399 593.743 639.555 593.743 622.935C593.743 607.202 601.102 593.246 612.774 583.858Z" fill="#A79FC2"/>
<path id="Vector_113" d="M609.447 586.788H687.347V579.049H609.447V586.788Z" fill="#A79FC2"/>
</g>
</g>
</g>
<defs>
<linearGradient id="paint0_linear" x1="0.0406329" y1="-44.7714" x2="749.964" y2="703.981" gradientUnits="userSpaceOnUse">
<stop offset="0.0468952" stop-color="#A69EC1"/>
<stop offset="0.34779" stop-color="#CDC9DA"/>
<stop offset="1" stop-color="#ECEBEE"/>
</linearGradient>
<linearGradient id="paint1_linear" x1="1061.56" y1="360.587" x2="123.378" y2="206.197" gradientUnits="userSpaceOnUse">
<stop stop-color="#311944"/>
<stop offset="1" stop-color="#B1AAC8"/>
</linearGradient>
<linearGradient id="paint2_linear" x1="1058.26" y1="380.655" x2="120.076" y2="226.265" gradientUnits="userSpaceOnUse">
<stop stop-color="#6F5F84"/>
<stop offset="1" stop-color="#BCB6CF"/>
</linearGradient>
<linearGradient id="paint3_linear" x1="1064.17" y1="344.748" x2="125.986" y2="190.358" gradientUnits="userSpaceOnUse">
<stop stop-color="#726387"/>
<stop offset="1" stop-color="#9A90B0"/>
</linearGradient>
<linearGradient id="paint4_linear" x1="1043.48" y1="470.435" x2="105.303" y2="316.044" gradientUnits="userSpaceOnUse">
<stop stop-color="#837699"/>
<stop offset="1" stop-color="#837699"/>
</linearGradient>
<linearGradient id="paint5_linear" x1="669.046" y1="507.043" x2="161.12" y2="9.26922" gradientUnits="userSpaceOnUse">
<stop offset="0.0555719" stop-color="#EAE9ED"/>
<stop offset="0.9964" stop-color="#A69EC1"/>
</linearGradient>
</defs>
</svg>
