<svg width="520" height="360" viewBox="0 0 520 360" fill="none" xmlns="http://www.w3.org/2000/svg">
<style>
	* {
		transform-box: fill-box;
	}
	#conversion {
		transform-origin: center bottom;
		animation: conversion-animation 3s linear infinite alternate;
	}
	@keyframes conversion-animation {
        0% {
            transform: scaleX(1);
        }
        100% {
            transform: scaleX(1.6);
        }
    }
	#whell {
		animation: down-animation 6s linear infinite;
	}
	@keyframes down-animation {
		0% {
            opacity: 0;
        }
        1% {
			opacity: 1;
            transform: translate(0, 0);
        }
        90% {
			opacity: 1;
            transform: translate(100%, 150%);
        }
		91%,100% {
			opacity: 0;
		}
    }
	#lupa {
		animation: down-animation-2 6s linear infinite;
	}
	@keyframes down-animation-2 {
		0% {
            opacity: 0;
        }
        1% {
			opacity: 1;
            transform: translate(0, 0);
        }
        90% {
			opacity: 1;
            transform: translate(50%, 300%);
        }
		91%,100% {
			opacity: 0;
		}
    }
	#lamp,
	#horn {
		animation: down-animation-3 6s linear infinite;
	}
	@keyframes down-animation-3 {
		0% {
            opacity: 0;
        }
        1% {
			opacity: 1;
            transform: translate(0, 0);
        }
        90% {
			opacity: 1;
            transform: translate(-50%, 205%);
        }
		91%,100% {
			opacity: 0;
		}
    }
	#packman {
		animation: down-animation-4 6s linear infinite;
	}
	@keyframes down-animation-4 {
		0% {
            opacity: 0;
        }
        1% {
			opacity: 1;
            transform: translate(0, 0);
        }
        90% {
			opacity: 1;
            transform: translate(70%, 340%);
        }
		91%,100% {
			opacity: 0;
		}
    }
	#globe {
		animation: down-animation-4 6s linear infinite;
	}
	@keyframes down-animation-4 {
		0% {
            opacity: 0;
        }
        1% {
			opacity: 1;
            transform: translate(0, 0);
        }
        90% {
			opacity: 1;
            transform: translate(-50%, 505%);
        }
		91%,100% {
			opacity: 0;
		}
    }
	#graph {
		animation: down-animation-5 6s linear infinite;
	}
	@keyframes down-animation-5 {
		0% {
            opacity: 0;
        }
        1% {
			opacity: 1;
            transform: translate(0, 0);
        }
        90% {
			opacity: 1;
            transform: translate(-110%, 385%);
        }
		91%,100% {
			opacity: 0;
		}
    }
</style>
<g id="Mask Group">
<mask id="mask0" mask-type="alpha" maskUnits="userSpaceOnUse" x="0" y="0" width="520" height="360">
<rect id="Rectangle 42" width="520" height="360" fill="#C4C4C4"/>
</mask>
<g mask="url(#mask0)">
<path id="Vector" d="M89.9572 404.548C87.224 409.351 85.2077 414.476 84.4935 419.9C82.9968 399.265 88.5894 378.514 94.0988 358.587C98.3261 343.111 102.553 327.634 106.781 312.157C109.682 321.359 112.583 330.562 115.657 339.698C125.689 322.809 133.917 304.822 139.647 286C139.102 321.083 126.761 355.891 105.392 383.625C100.11 390.585 94.2181 396.985 89.9572 404.548Z" fill="url(#paint0_linear)"/>
<path id="Vector_2" d="M428.043 109.069C444.266 120.793 455.616 140.444 463.091 160.92C466.605 170.555 469.257 180.817 470.986 191.382C472.818 202.489 472.923 213.972 473.732 225.427C473.795 226.34 474.9 226.13 474.997 225.204C476.197 213.421 474.844 201.389 473.093 190.422C471.322 179.64 468.649 169.269 465.034 159.387C457.58 139.019 446.163 117.869 428.542 108.253C428.04 108.188 427.681 108.881 428.043 109.069Z" fill="url(#paint1_linear)"/>
<path id="Vector_3" d="M60.7875 60.3367C52.3712 57.0736 45.0444 46.5242 39.2725 34.1362C36.558 28.3067 34.1335 21.7474 32.066 14.6732C29.8866 7.24081 28.399 -1.01628 26.6138 -9.02877C26.4719 -9.6669 26.0255 -9.1616 26.1005 -8.46151C27.0672 0.431225 29.1579 8.68434 31.2851 16.0419C33.3974 23.2593 35.8443 29.8902 38.6333 35.8662C44.3828 48.1826 51.9263 59.7934 60.6764 61.0859C60.8997 60.9716 60.9663 60.3561 60.7875 60.3367Z" fill="#A69EC1"/>
<path id="Vector_4" d="M90.7041 423.25C88.7252 392.085 85.0458 345.811 77.0933 324.894C62.5221 286.516 36.105 251.915 0.34375 232C0.293408 232.178 77.1787 344.359 90.7041 423.25Z" fill="url(#paint2_linear)"/>
<path id="Vector_5" d="M96.3215 403.871C86.1755 382.981 71.5898 351.693 69.0659 335.243C64.4224 305.07 68.8282 272.997 84.6641 247C84.762 247.097 76.1476 347.869 96.3215 403.871Z" fill="url(#paint3_linear)"/>
<path id="Vector_6" d="M82.6433 400.644C79.9221 384.53 75.4959 360.643 70.2215 350.187C60.5546 331.002 44.9267 314.426 25.2319 306C25.2154 306.096 71.3222 360.315 82.6433 400.644Z" fill="url(#paint4_linear)"/>
<path id="Vector_7" d="M393.737 398.361C393.78 393.569 391.222 388.577 393.07 384.21C393.908 382.214 395.507 380.686 396.858 378.976C400.125 374.736 401.631 369.171 400.934 363.831C400.514 360.669 399.351 357.497 400.145 354.454C401.147 350.343 405.278 347.715 406.829 343.734C409.292 337.442 404.62 330.337 406.082 323.727C407.115 319.126 411.007 315.572 412.246 310.979C413.686 305.522 410.507 300.177 411.5 294.864C411.96 292.364 413.214 290.714 413.053 287.86C412.855 285.164 412.072 282.496 411.445 279.864C409.578 271.558 410.243 262.689 413.267 254.707C414.507 251.522 415.769 247.183 412.955 245.236C406.636 248.549 401.434 253.989 398.427 260.484C395.456 266.822 394.572 274.149 390.686 279.981C387.83 284.235 383.618 287.382 380.04 291.01C376.413 294.668 373.29 299.356 373.505 304.457C373.767 310.067 377.968 315.114 377.282 320.707C376.375 327.78 367.951 332.129 367.044 339.202C366.278 345.314 371.447 351.707 368.895 357.316C367.638 360.042 364.819 361.655 362.742 363.815C360.453 366.174 358.548 367.422 357.965 370.804C357.395 373.774 358.08 377.041 356.334 379.734C355.121 381.56 352.987 382.547 351.28 384.008C346.159 388.391 346.113 396.204 347.339 402.828C348.255 407.763 349.859 412.944 353.756 416.098C357.16 418.887 361.783 419.645 366.141 420.3C373.71 421.38 378.893 420.448 384.753 415.205C389.263 411.134 393.719 404.815 393.737 398.361Z" fill="url(#paint5_linear)"/>
<path id="Vector_8" d="M497.147 -69.0073C495.857 -64.3919 497.026 -58.9064 494.104 -55.1716C492.774 -53.4626 490.833 -52.404 489.083 -51.105C484.825 -47.8627 481.92 -42.8824 481.202 -37.5456C480.783 -34.3828 481.079 -31.0175 479.521 -28.287C477.482 -24.579 472.809 -23.1179 470.274 -19.6779C466.257 -14.2449 468.916 -6.16896 465.783 -0.167215C463.587 4.00505 458.903 6.42209 456.51 10.5341C453.698 15.4271 458.853 18.1283 456.51 22.9997C455.415 25.2934 451.587 28.2036 450.999 31.0002C450.488 33.6549 449.788 39.7956 449.707 42.4997C449.346 51.0052 448.498 53.0819 443.499 60.0002C441.472 62.7523 436.487 71.209 438.697 73.8217C445.661 72.2693 452.101 68.3729 456.696 62.8856C461.215 57.5403 474.249 55.363 479.521 50.7448C483.386 47.3821 485.599 45.0699 490 42.4997C494.455 39.9131 491.092 31.9057 492.214 26.9243C493.422 21.4403 490.682 15.4729 492.801 10.2517C495.52 3.65973 504.786 1.65538 507.504 -4.93662C509.836 -10.6384 506.512 -18.1576 510.437 -22.9078C512.361 -25.2119 515.502 -26.0348 518.07 -27.5791C520.895 -29.2599 523.06 -29.9687 524.504 -33.0816C525.828 -35.8013 526.017 -39.1336 528.405 -41.2789C530.052 -42.7256 532.37 -43.1228 534.398 -44.0885C540.484 -46.9853 542.564 -54.5174 543.106 -61.231C543.508 -66.2348 543.309 -71.6542 540.368 -75.715C537.808 -79.2949 533.542 -81.2316 529.506 -82.9987C522.48 -86.0134 517.233 -86.4647 510.209 -82.9293C504.795 -80.174 498.846 -75.2339 497.147 -69.0073Z" fill="url(#paint6_linear)"/>
<path id="Vector_9" d="M406.009 361.106C406.128 368.515 407.136 376.516 410.989 383.036C411.286 383.569 411.701 384.281 412.175 384.933C412.531 385.407 412.946 385.94 413.42 386.296C414.25 387.007 415.258 387.303 416.266 386.592C417.096 385.999 417.273 384.933 417.451 383.984C417.57 383.332 418.044 378.591 418.163 377.583C419.171 368.159 420.949 359.091 424.921 350.437C425.396 349.37 425.929 348.303 426.463 347.236C439.802 324.654 464.702 309.125 484.207 292.47C496.42 282.098 507.566 270.244 514.206 255.485C517.23 248.728 519.305 241.557 519.838 234.207C520.135 230.651 520.016 227.094 519.542 223.538C519.068 220.16 518.475 216.189 516.637 213.225C515.333 211.091 512.783 209.313 510.234 210.262C507.448 211.21 506.499 215.24 505.669 217.67C502.823 226.324 501.993 235.452 498.199 243.809C490.907 259.812 477.39 271.844 463.754 282.394C449.94 293.004 435.237 302.783 423.736 316.06C412.649 328.744 405.713 344.036 406.009 361.106Z" fill="url(#paint7_linear)"/>
<path id="Vector_10" d="M86.9899 177.472C86.8588 185.635 85.7449 194.45 81.4857 201.633C81.158 202.221 80.6993 203.004 80.1751 203.722C79.782 204.245 79.3233 204.832 78.7991 205.224C77.8817 206.008 76.7677 206.334 75.6538 205.551C74.7364 204.898 74.5398 203.722 74.3432 202.678C74.2122 201.959 73.688 196.735 73.5569 195.625C72.443 185.243 70.4772 175.252 66.0869 165.719C65.5627 164.543 64.9729 163.368 64.3832 162.193C49.6397 137.314 22.1185 120.206 0.560174 101.857C-12.9383 90.4297 -25.2573 77.3701 -32.5963 61.1108C-35.9382 53.6668 -38.2316 45.7657 -38.8214 37.6687C-39.149 33.7508 -39.018 29.8329 -38.4937 25.915C-37.9695 22.193 -37.3143 17.818 -35.2829 14.5531C-33.8413 12.2023 -31.0237 10.2434 -28.206 11.2881C-25.1263 12.3329 -24.0779 16.7732 -23.1605 19.4504C-20.0152 28.984 -19.0978 39.0399 -14.9041 48.247C-6.84435 65.8776 8.09575 79.1331 23.1669 90.7562C38.4346 102.445 54.6852 113.219 67.3974 127.846C79.6509 141.82 87.3175 158.667 86.9899 177.472Z" fill="url(#paint8_linear)"/>
<path id="horn" fill-rule="evenodd" clip-rule="evenodd" d="M275.371 164.826L277.024 164.041L282.264 174.674C285.534 174.652 288.643 176.437 290.152 179.535C290.748 180.758 291.032 182.06 291.035 183.347C291.065 185.323 290.43 187.268 289.242 188.836L294.458 199.421L292.805 200.206L292.799 200.193L275.357 197.544L272.154 199.106L274.577 204.282L273.394 206.283L277.229 214.999L278.471 217.943L271.815 221.186L265.518 208.37L259.773 207.707L258.436 205.794L257.057 206.466L256.382 205.095C255.179 205.696 253.684 205.142 253.143 203.951L252.798 203.254L250.49 204.393C249.275 204.945 247.839 204.504 247.286 203.288L245.187 199.09C244.635 197.875 245.077 196.438 246.292 195.886L248.593 194.749L248.281 194.118C247.624 192.913 248.162 191.383 249.355 190.818L248.617 189.318L267.036 180.068L275.417 164.918L275.371 164.826Z" fill="#8805A8"/>
<g id="lamp">
<path id="lamp-3" d="M329.946 142.92L342.993 130.301C343.775 129.543 344.793 129.551 345.536 130.32C346.28 131.088 346.254 132.105 345.471 132.863L332.424 145.482C331.641 146.24 330.624 146.232 329.88 145.463C329.137 144.695 329.163 143.678 329.946 142.92Z" fill="#418AD2"/>
<path id="lamp-2" d="M347.424 168.443C348.192 167.7 349.2 167.717 349.944 168.485C354.652 173.353 362.716 173.487 367.584 168.779C368.352 168.035 369.36 168.052 370.104 168.821C370.847 169.589 370.83 170.597 370.062 171.341C363.657 177.536 353.577 177.368 347.382 170.963C346.639 170.195 346.655 169.187 347.424 168.443Z" fill="#418AD2"/>
<path id="lamp-1" d="M325.163 132.672L332.909 125.179C334.717 123.431 338.278 122.979 341.269 126.071L346.503 131.482C348.996 134.059 352.53 135.13 356.341 134.935C364.479 134.047 371.788 136.953 377.271 142.622C386.485 152.664 385.958 168.137 376.653 177.637C371.746 182.382 365.354 185.074 358.756 184.972C352.159 184.869 345.607 182.228 340.871 177.332C335.637 171.921 332.975 164.519 334.125 156.923C334.704 152.871 333.253 148.788 330.761 146.211L325.028 140.284C323.034 138.223 323.097 134.67 325.163 132.672V132.672ZM373.902 175.31C382.165 167.317 382.407 153.615 374.689 145.12C369.953 140.224 363.401 137.583 356.786 138.495C351.702 138.924 347.162 137.33 343.921 133.98L338.687 128.569C338.188 128.053 336.693 126.507 335.402 127.756L327.655 135.249C326.88 135.999 326.862 137.013 327.61 137.786L333.343 143.713C336.583 147.063 338.265 152.419 337.668 157.486C336.795 163.817 338.967 170.196 343.453 174.835C347.441 178.958 352.729 181.324 358.819 181.419C364.401 181.506 369.77 179.306 373.902 175.31V175.31Z" fill="#418AD2"/>
</g>
<g id="graph">
<path id="Vector_11" d="M375.551 54.7166H385.602C386.525 54.7166 387.281 55.4874 387.281 56.4409V101.456C387.281 102.42 386.525 103.191 385.602 103.191H375.551C374.619 103.191 373.873 102.41 373.873 101.456V56.451C373.873 55.4874 374.629 54.7166 375.551 54.7166Z" fill="#8805A8"/>
<path id="Vector_12" d="M393.085 73.2812H403.135C404.058 73.2812 404.804 74.0645 404.814 75.0437V101.428C404.814 102.408 404.058 103.191 403.135 103.191H393.085C392.152 103.191 391.406 102.397 391.406 101.428V75.0437C391.406 74.0645 392.162 73.2812 393.085 73.2812Z" fill="#8805A8"/>
<path id="Vector_13" d="M358.018 68.1243H368.069C369.001 68.1243 369.747 68.9049 369.747 69.8807V101.434C369.747 102.41 368.992 103.191 368.069 103.191H358.018C357.086 103.191 356.34 102.4 356.34 101.434V69.8807C356.34 68.9049 357.095 68.1243 358.018 68.1243Z" fill="#8805A8"/>
</g>
<g id="globe">
<path id="Vector_14" d="M333.704 42.3404C331.46 46.2269 328.114 49.3606 324.089 51.3455C320.065 53.3303 315.542 54.0771 311.092 53.4913C306.643 52.9056 302.467 51.0136 299.093 48.0547C295.719 45.0958 293.299 41.2028 292.137 36.868C290.976 32.5333 291.126 27.9514 292.568 23.7019C294.011 19.4524 296.681 15.7261 300.241 12.9942C303.801 10.2623 308.092 8.64744 312.57 8.35394C317.048 8.06043 321.512 9.10141 325.399 11.3452C330.605 14.3592 334.403 19.315 335.96 25.1256C337.517 30.9363 336.706 37.1272 333.704 42.3404V42.3404ZM296.419 20.814C294.405 24.3018 293.471 28.3084 293.735 32.3272C293.998 36.346 295.447 40.1964 297.899 43.3915C300.351 46.5867 303.695 48.983 307.508 50.2776C311.322 51.5722 315.434 51.7068 319.324 50.6644C323.214 49.622 326.708 47.4495 329.364 44.4216C332.019 41.3936 333.717 37.6462 334.243 33.6533C334.768 29.6603 334.098 25.6012 332.317 21.9891C330.536 18.3771 327.723 15.3743 324.235 13.3606C319.557 10.6666 314.001 9.9384 308.786 11.3357C303.571 12.733 299.124 16.1417 296.419 20.814V20.814Z" fill="#418AD2"/>
<path id="Vector_15" d="M333.705 42.3406C330.369 48.1188 319.125 47.6613 308.106 41.2994C297.087 34.9374 291.068 25.4288 294.404 19.6506C297.74 13.8725 308.984 14.33 320.003 20.6919C331.023 27.0538 337.041 36.5625 333.705 42.3406ZM296.42 20.8142C293.826 25.3065 299.71 33.765 309.269 39.284C318.828 44.8029 329.096 45.6694 331.689 41.1771C334.283 36.6847 328.399 28.2262 318.84 22.7073C309.281 17.1884 299.014 16.3209 296.42 20.8142Z" fill="#418AD2"/>
<path id="Vector_16" d="M333.704 42.3393C333.55 42.6066 333.296 42.8016 332.997 42.8815C332.699 42.9613 332.382 42.9195 332.114 42.7652L294.83 21.2388C294.562 21.0845 294.367 20.8303 294.287 20.5322C294.208 20.2341 294.249 19.9165 294.404 19.6493C294.558 19.382 294.812 19.187 295.11 19.1071C295.408 19.0273 295.726 19.0691 295.993 19.2234L333.278 40.7498C333.545 40.9041 333.74 41.1583 333.82 41.4564C333.9 41.7544 333.858 42.0721 333.704 42.3393Z" fill="#418AD2"/>
<path id="Vector_17" d="M325.826 12.934L304.299 50.2189C304.145 50.4861 303.891 50.6812 303.593 50.761C303.295 50.8409 302.977 50.7991 302.71 50.6448C302.443 50.4905 302.248 50.2363 302.168 49.9382C302.088 49.6402 302.13 49.3225 302.284 49.0553L323.811 11.7704C323.965 11.5031 324.219 11.3081 324.517 11.2282C324.815 11.1484 325.133 11.1902 325.4 11.3445C325.667 11.4988 325.862 11.7529 325.942 12.051C326.022 12.3491 325.98 12.6667 325.826 12.934Z" fill="#418AD2"/>
<path id="Vector_18" d="M315.166 10.0529L296.478 42.4222C296.323 42.6895 296.069 42.8845 295.771 42.9644C295.473 43.0443 295.155 43.0025 294.888 42.8482C294.621 42.6939 294.426 42.4397 294.346 42.1416C294.266 41.8435 294.308 41.5259 294.462 41.2587L313.151 8.88931C313.305 8.62205 313.559 8.42703 313.857 8.34716C314.155 8.26729 314.473 8.3091 314.74 8.4634C315.007 8.6177 315.202 8.87185 315.282 9.16994C315.362 9.46803 315.32 9.78564 315.166 10.0529Z" fill="#418AD2"/>
<path id="Vector_19" d="M333.652 20.726L314.964 53.0953C314.809 53.3626 314.555 53.5576 314.257 53.6375C313.959 53.7174 313.641 53.6755 313.374 53.5212C313.107 53.3669 312.912 53.1128 312.832 52.8147C312.752 52.5166 312.794 52.199 312.948 51.9318L331.637 19.5624C331.791 19.2951 332.045 19.1001 332.343 19.0203C332.641 18.9404 332.959 18.9822 333.226 19.1365C333.493 19.2908 333.688 19.5449 333.768 19.843C333.848 20.1411 333.806 20.4587 333.652 20.726Z" fill="#418AD2"/>
</g>
<g id="packman">
<path id="Vector_20" d="M276.948 89.8281C271.856 78.193 258.711 72.6129 246.988 76.6496L256.698 98.7325L257.527 100.632L255.633 101.463L233.607 111.199C239.528 122.121 252.909 126.87 264.514 121.765C276.829 116.304 282.276 102.057 276.948 89.8281Z" fill="#8805A8"/>
<path id="Vector_21" d="M244.703 77.4065C232.73 82.8739 227.267 97.1366 232.498 109.379L254.234 99.6326L244.703 77.4065Z" fill="#418AD2"/>
</g>
<path id="whell" d="M182.039 171.611V164.52L172.633 162.697C172.033 159.86 170.832 157.024 169.231 154.593L174.634 146.49L169.632 141.425L161.627 146.895C159.226 145.274 156.424 144.261 153.622 143.451L152.021 134.132H145.017L143.216 143.653C140.415 144.261 137.613 145.477 135.212 147.097L127.207 141.627L122.404 146.692L127.807 154.796C126.206 157.227 125.206 160.063 124.405 162.899L115 164.52V171.611L124.405 173.434C125.006 176.27 126.206 179.107 127.807 181.538L122.404 189.641L127.407 194.706L135.412 189.236C137.813 190.857 140.615 191.87 143.416 192.68L145.217 202.202H152.222L154.023 192.68C156.824 192.072 159.626 190.857 162.027 189.236L170.032 194.706L175.035 189.641L169.632 181.538C171.233 179.107 172.233 176.27 173.034 173.434L182.039 171.611ZM148.619 183.361C140.215 183.361 133.411 176.473 133.411 167.964C133.411 159.455 140.215 152.567 148.619 152.567C157.024 152.567 163.828 159.455 163.828 167.964C163.628 176.473 156.824 183.361 148.619 183.361Z" fill="#418AD2"/>
<g id="lupa">
<path id="Vector_22" d="M155.911 56.7793H150.41C149.651 56.7793 149.035 57.4064 149.035 58.179V74.9755C149.035 75.7481 149.651 76.3752 150.41 76.3752H155.911C156.67 76.3752 157.286 75.7481 157.286 74.9755V58.179C157.286 57.4064 156.67 56.7793 155.911 56.7793Z" fill="#418AD2"/>
<path id="Vector_23" d="M144.394 65.0303H138.206C137.352 65.0303 136.659 65.6656 136.659 66.4484V74.9571C136.659 75.7399 137.352 76.3753 138.206 76.3753H144.394C145.248 76.3753 145.941 75.7399 145.941 74.9571V66.4484C145.941 65.6656 145.248 65.0303 144.394 65.0303Z" fill="#418AD2"/>
<path id="Vector_24" d="M167.256 47.4968H161.755C160.996 47.4968 160.38 48.1437 160.38 48.9408V74.9311C160.38 75.7282 160.996 76.3751 161.755 76.3751H167.256C168.015 76.3751 168.631 75.7282 168.631 74.9311V48.9408C168.631 48.1437 168.015 47.4968 167.256 47.4968Z" fill="#418AD2"/>
<path id="Vector_25" d="M194.589 98.2025L177.147 80.7599C181.273 75.7219 183.757 69.2872 183.757 62.2798C183.757 46.1668 170.648 33.0579 154.535 33.0579C138.423 33.0579 125.314 46.1668 125.314 62.2798C125.314 78.3929 138.422 91.5018 154.535 91.5018C161.543 91.5018 167.977 89.018 173.015 84.8918L190.458 102.334C191.027 102.904 191.775 103.191 192.524 103.191C193.272 103.191 194.02 102.904 194.59 102.334C195.732 101.192 195.732 99.3451 194.589 98.2025ZM154.535 85.6575C141.646 85.6575 131.158 75.1698 131.158 62.2798C131.158 49.3899 141.646 38.9022 154.535 38.9022C167.425 38.9022 177.913 49.3901 177.913 62.2798C177.913 75.1696 167.425 85.6575 154.535 85.6575Z" fill="#8805A8"/>
</g>
<g id="conversion">
<path id="Vector_26" d="M375.42 234.174H130.986C125.575 234.174 121.188 238.561 121.188 243.972C121.188 249.383 125.575 253.77 130.986 253.77H375.42C380.831 253.77 385.218 249.383 385.218 243.972C385.218 238.561 380.831 234.174 375.42 234.174Z" fill="#8805A8"/>
<path id="Vector_27" d="M136.512 253.254L204.918 353.388H301.491L369.897 253.254H136.512Z" fill="#8805A8"/>
<path id="Vector_28" d="M312.924 346.811C312.924 350.418 309.536 353.388 305.512 353.388H200.891C196.867 353.388 193.479 350.418 193.479 346.811C193.479 343.205 196.867 340.235 200.891 340.235H305.512C309.536 340.235 312.924 343.205 312.924 346.811Z" fill="#8805A8"/>
<path id="Vector_29" d="M301.489 353.388H204.916V359.965H301.489V353.388Z" fill="#6E0089"/>
</g>
</g>
</g>
<defs>
<linearGradient id="paint0_linear" x1="14.9067" y1="484.381" x2="-46.5258" y2="303.753" gradientUnits="userSpaceOnUse">
<stop offset="0.0468952" stop-color="#A69EC1"/>
<stop offset="1" stop-color="#ECEBEE"/>
</linearGradient>
<linearGradient id="paint1_linear" x1="327.083" y1="233.4" x2="483.145" y2="306.913" gradientUnits="userSpaceOnUse">
<stop offset="0.0468952" stop-color="#A69EC1"/>
<stop offset="1" stop-color="#ECEBEE"/>
</linearGradient>
<linearGradient id="paint2_linear" x1="194.755" y1="508.462" x2="262.502" y2="228.376" gradientUnits="userSpaceOnUse">
<stop offset="0.0468952" stop-color="#A69EC1"/>
<stop offset="1" stop-color="#ECEBEE"/>
</linearGradient>
<linearGradient id="paint3_linear" x1="60.2428" y1="497.154" x2="-86.2835" y2="340.775" gradientUnits="userSpaceOnUse">
<stop stop-color="#ECEBEE"/>
<stop offset="1" stop-color="#A69EC1"/>
</linearGradient>
<linearGradient id="paint4_linear" x1="141.427" y1="439.351" x2="161.491" y2="289.888" gradientUnits="userSpaceOnUse">
<stop offset="0.0468952" stop-color="#A69EC1"/>
<stop offset="1" stop-color="#ECEBEE"/>
</linearGradient>
<linearGradient id="paint5_linear" x1="163.258" y1="348.358" x2="293.165" y2="544.356" gradientUnits="userSpaceOnUse">
<stop offset="0.0468952" stop-color="#A69EC1"/>
<stop offset="1" stop-color="#ECEBEE"/>
</linearGradient>
<linearGradient id="paint6_linear" x1="420.999" y1="115" x2="465.499" y2="-0.999761" gradientUnits="userSpaceOnUse">
<stop offset="0.0468952" stop-color="#A69EC1"/>
<stop offset="1" stop-color="#F0F0F0"/>
</linearGradient>
<linearGradient id="paint7_linear" x1="304.834" y1="446.626" x2="321.202" y2="127.447" gradientUnits="userSpaceOnUse">
<stop stop-color="#A69EC1"/>
<stop offset="0.833333" stop-color="#ECEBEE"/>
</linearGradient>
<linearGradient id="paint8_linear" x1="198.815" y1="271.689" x2="180.84" y2="-79.9543" gradientUnits="userSpaceOnUse">
<stop offset="0.0468952" stop-color="#A69EC1"/>
<stop offset="1" stop-color="#ECEBEE"/>
</linearGradient>
</defs>
</svg>
