<svg width="675" height="665" viewBox="0 0 675 665" fill="none" xmlns="http://www.w3.org/2000/svg">
<style>
	* {
		transform-box: fill-box;
	}
	#whell-1 {
		transform-origin: center center;
		animation: whell-animation 25s linear infinite;
	}
	#whell-2 {
		transform-origin: center center;
		animation: whell-animation-2 18s linear infinite;
	}
	#whell-3 {
		transform-origin: center center;
		animation: whell-animation 15s linear infinite;
	}
	@keyframes whell-animation {
        0% {
            transform: rotate(0deg);
        }
        100% {
            transform: rotate(360deg);
        }
    }
	@keyframes whell-animation-2 {
        0% {
            transform: rotate(0deg);
        }
        100% {
            transform: rotate(-360deg);
        }
    }
</style>
<g id="worker">
<path id="fon" d="M33.3671 292.378C57.9743 234.402 -20.5821 176.657 10.4277 71.3211C41.4374 -34.015 163.916 -5.09899 244.83 71.3214C299.789 123.228 364.949 156.788 394.981 141.164C425.012 125.54 528.033 65.8964 554.309 100.098C623.963 185.183 539.294 209.374 643.565 260.451C700.601 311.25 608.336 377.386 600.722 441.888C597.433 491.328 646.485 549.303 642.115 644.129H293.042C261.617 634.301 236.489 630.635 236.489 630.635C-55.889 501.353 -8.75882 369.539 33.3671 292.378Z" fill="url(#paint0_linear)"/>
<path id="whell-3" fill-rule="evenodd" clip-rule="evenodd" d="M514.367 172.017L524.225 171.825C525.757 175.652 526.809 179.67 527.479 183.784L518.865 188.568C518.961 190.003 519.057 191.438 519.057 192.969C519.057 194.499 518.961 195.935 518.865 197.37L527.479 202.153C526.809 206.267 525.661 210.285 524.225 214.112L514.367 213.921C513.123 216.599 511.687 219.183 509.965 221.574L515.037 229.993C512.453 233.15 509.582 236.116 506.328 238.699L497.905 233.629C495.512 235.351 492.928 236.786 490.248 238.03L490.44 247.884C486.611 249.415 482.592 250.467 478.476 251.137L473.691 242.526C472.255 242.622 470.724 242.718 469.288 242.718C467.757 242.718 466.322 242.622 464.886 242.526L464.885 242.526L460.1 251.137C455.985 250.467 451.965 249.319 448.136 247.884L448.328 238.03C445.648 236.786 443.064 235.351 440.671 233.629L432.249 238.699C429.09 236.116 426.123 233.246 423.539 229.993L428.612 221.574C426.889 219.183 425.453 216.599 424.209 213.921L414.351 214.112C412.82 210.285 411.767 206.267 411.097 202.153L419.711 197.37C419.615 195.935 419.519 194.499 419.519 192.969C419.519 191.438 419.615 190.003 419.711 188.568L411.097 183.784C411.767 179.67 412.915 175.652 414.351 171.825L424.209 172.017C425.453 169.338 426.889 166.755 428.612 164.363L423.539 155.944C426.123 152.787 428.995 149.821 432.249 147.238L440.671 152.309C443.064 150.587 445.648 149.151 448.328 147.908L448.136 138.054C451.965 136.523 455.985 135.471 460.1 134.801L464.885 143.411C466.321 143.316 467.852 143.22 469.288 143.22C470.819 143.22 472.255 143.316 473.691 143.411L478.476 134.801C482.592 135.471 486.611 136.619 490.44 138.054L490.248 147.908C492.928 149.151 495.512 150.587 497.905 152.309L506.328 147.238C509.486 149.821 512.453 152.691 515.037 155.944L509.965 164.363C511.687 166.755 513.123 169.338 514.367 172.017ZM509.774 192.969C509.774 215.319 491.649 233.437 469.289 233.437C446.93 233.437 428.804 215.319 428.804 192.969C428.804 170.618 446.93 152.5 469.289 152.5C491.649 152.5 509.774 170.618 509.774 192.969Z" fill="#A79FC2"/>
<path id="whell-2" fill-rule="evenodd" clip-rule="evenodd" d="M555.321 152.983L574.135 152.617C577.057 159.921 579.067 167.589 580.345 175.441L563.906 184.57L563.906 184.57C564.089 187.309 564.271 190.048 564.271 192.969C564.271 195.89 564.089 198.628 563.906 201.367L563.906 201.368L580.345 210.497C579.067 218.348 576.875 226.017 574.135 233.32L555.321 232.955C553.243 237.428 550.886 241.762 548.127 245.833C547.732 246.415 547.33 246.991 546.919 247.562L556.6 263.629C551.976 269.278 546.871 274.605 541.134 279.311C540.751 279.625 540.366 279.936 539.978 280.244L523.904 270.567C519.338 273.854 514.406 276.593 509.291 278.966L509.657 297.772C502.35 300.694 494.679 302.702 486.824 303.98L477.692 287.548C475.294 287.707 472.757 287.867 470.325 287.905C469.977 287.91 469.632 287.913 469.289 287.913C466.732 287.913 464.315 287.773 461.915 287.616C461.676 287.6 461.437 287.584 461.198 287.568L460.887 287.548L451.754 303.98C444.882 302.862 438.149 301.045 431.679 298.773C430.754 298.448 429.835 298.115 428.922 297.772L429.287 278.966C424.173 276.593 419.241 273.854 414.675 270.567L398.601 280.244C392.573 275.314 386.911 269.837 381.979 263.629L391.66 247.562C388.577 243.282 385.977 238.682 383.707 233.911C383.556 233.593 383.406 233.274 383.257 232.955L364.444 233.32C361.521 226.017 359.512 218.348 358.233 210.497L374.672 201.368C374.49 198.629 374.307 195.89 374.307 192.969C374.307 190.413 374.447 187.996 374.604 185.597C374.627 185.255 374.65 184.912 374.672 184.57L358.233 175.441C359.512 167.589 361.704 159.921 364.444 152.617L383.257 152.983C385.335 148.509 387.693 144.176 390.452 140.104C390.846 139.523 391.249 138.946 391.66 138.376L381.979 122.308C386.911 116.283 392.39 110.623 398.601 105.693L414.675 115.37C419.241 112.084 424.173 109.345 429.287 106.971L428.922 88.1651C436.228 85.2437 443.9 83.2353 451.754 81.9572L460.887 98.3898C463.627 98.2073 466.549 98.0247 469.289 98.0247C471.846 98.0247 474.264 98.1645 476.664 98.3217C477.007 98.3442 477.349 98.367 477.692 98.3898L486.824 81.9572C494.679 83.2353 502.35 85.4263 509.657 88.1651L509.291 106.971C514.406 109.345 519.338 112.084 523.904 115.37L539.978 105.693C546.006 110.623 551.668 116.101 556.6 122.308L546.919 138.376C550.207 142.941 552.947 147.87 555.321 152.983ZM546.551 192.969C546.551 235.623 511.959 270.202 469.287 270.202C426.615 270.202 392.023 235.623 392.023 192.969C392.023 150.314 426.615 115.735 469.287 115.735C511.959 115.735 546.551 150.314 546.551 192.969Z" fill="#8805A8"/>
<path id="whell-1" fill-rule="evenodd" clip-rule="evenodd" d="M618.835 123.462L651.539 122.827C656.619 135.522 660.112 148.853 662.334 162.5L633.758 178.369C634.076 183.13 634.393 187.891 634.393 192.969C634.393 198.047 634.076 202.808 633.758 207.568L662.334 223.437C660.112 237.085 656.301 250.415 651.539 263.11L618.835 262.476C614.708 271.362 609.945 279.932 604.23 287.866L621.058 315.796C612.485 326.269 602.96 336.108 592.164 344.678L564.224 327.856C556.286 333.569 547.713 338.33 538.823 342.456L539.458 375.146C526.757 380.225 513.422 383.716 499.769 385.937L483.894 357.373C479.131 357.69 474.051 358.008 469.288 358.008C464.208 358.008 459.446 357.69 454.684 357.373L454.683 357.373L438.807 385.937C425.154 383.716 411.819 379.907 399.118 375.146L399.753 342.456C390.863 338.33 382.29 333.569 374.353 327.856L346.412 344.678C335.934 336.108 326.091 326.587 317.518 315.796L334.346 287.866C328.631 279.932 323.868 271.362 319.741 262.476L287.037 263.11C281.957 250.415 278.465 237.085 276.242 223.437L304.818 207.568C304.5 202.808 304.183 198.047 304.183 192.969C304.183 187.891 304.5 183.13 304.818 178.369L276.242 162.5C278.465 148.853 282.275 135.522 287.037 122.827L319.741 123.462C323.868 114.575 328.631 106.006 334.346 98.0713L317.518 70.1416C326.091 59.668 335.616 49.8291 346.412 41.2598L374.353 58.081C382.29 52.3682 390.863 47.6074 399.753 43.4814L399.118 10.791C411.819 5.71289 425.154 2.22168 438.807 0L454.683 28.5644C459.445 28.2471 464.525 27.9297 469.288 27.9297C474.368 27.9297 479.131 28.2471 483.894 28.5644L499.769 0C513.422 2.22168 526.757 6.03027 539.458 10.791L538.823 43.4814C547.713 47.6074 556.286 52.3682 564.224 58.081L592.164 41.2598C602.642 49.8291 612.485 59.3506 621.058 70.1416L604.23 98.0713C609.945 106.006 614.708 114.575 618.835 123.462ZM603.593 192.969C603.593 267.115 543.462 327.222 469.286 327.222C395.111 327.222 334.979 267.115 334.979 192.969C334.979 118.823 395.111 58.7158 469.286 58.7158C543.462 58.7158 603.593 118.823 603.593 192.969Z" fill="#4E9BDB"/>
<g id="flower">
<path id="Vector" d="M621.699 494.722C624.687 495.789 626.465 496.572 626.465 496.572C626.465 496.572 620.703 488.318 611.385 479.851C602.066 471.384 603.347 469.89 592.036 471.669C580.655 473.447 574.822 468.822 572.475 468.822C571.266 468.822 554.265 487.464 551.064 489.172C548.432 486.682 561.876 471.028 557.537 471.028C553.482 471.028 542.954 484.262 540.678 490.026C538.046 491.306 534.916 493.085 532.071 494.935C532 489.599 538.829 476.649 538.829 476.649C538.829 476.649 514.572 483.764 514.572 487.678C514.572 491.591 530.648 498.351 523.606 498.351C516.564 498.351 508.739 488.033 508.739 488.033C508.739 488.033 496.078 494.081 498.496 500.841C500.915 507.6 493.09 510.019 490.529 512.367C484.554 514.289 477.014 518.131 473.742 521.119C468.265 526.1 483.772 555.343 479.717 559.043C475.662 562.743 467.482 530.582 467.482 527.523C467.482 525.744 465.704 525.602 463.427 527.025C469.972 494.01 480.215 465.478 496.078 450.963C502.337 445.058 509.878 441.5 515.568 438.441C515.639 438.369 515.71 438.369 515.782 438.298C514.643 440.006 513.576 443.065 513.576 448.544C513.576 461.494 550.352 465.834 544.875 460.853C539.398 455.873 533.351 440.575 536.268 440.575C539.184 440.575 544.093 456.727 551.917 460.142C559.742 463.486 568.918 454.45 568.918 454.45C568.918 454.45 544.377 437.658 546.796 435.452C549.214 433.246 570.483 455.73 576.387 457.865C582.291 460 593.032 449.683 593.032 449.683C593.032 449.683 552.486 429.973 553.624 426.558C554.763 423.214 591.254 447.548 596.945 445.912C602.635 444.346 607.544 434.029 607.544 434.029C607.544 434.029 566.428 421.435 567.993 418.376C569.558 415.387 602.422 431.681 607.117 430.827C611.812 429.973 609.464 417.664 609.464 415.53C609.464 413.395 584.141 410.264 581.651 408.059C579.232 405.853 606.477 412.114 608.468 412.114C610.46 412.114 612.594 409.98 610.602 405.924C608.611 401.868 606.903 388.35 606.903 388.35C604.556 388.35 594.17 380.879 592.392 379.313C590.614 377.748 583.998 391.907 581.438 391.907C578.877 391.907 588.907 379.1 588.907 376.111C588.907 373.123 582.647 370.419 577.525 370.419C572.404 370.419 564.579 401.299 562.232 401.299C559.884 401.299 570.483 369.708 568.918 368.285C567.353 366.862 562.872 364.727 553.482 366.008C544.093 367.217 549.356 403.363 546.013 406.351C542.67 409.339 546.013 368.142 546.013 367.075C546.013 366.008 534.276 368.783 530.222 372.554C526.096 376.254 533.138 411.118 530.222 413.822C527.305 416.455 524.958 380.594 524.958 376.823C524.958 373.123 521.259 372.767 510.66 384.792C507.744 388.136 507.246 391.765 507.957 395.322C491.312 402.011 494.655 426.202 501.839 432.748C505.538 436.093 509.949 436.875 513.363 436.875C497.429 445.413 487.684 451.248 476.801 473.803C476.801 466.19 475.876 449.611 471.323 445.485C466.771 441.358 476.801 443.564 476.801 439.294C476.801 435.025 476.303 418.66 474.169 416.81C472.106 414.889 466.628 429.831 463.214 426.772C459.8 423.712 472.888 414.462 472.888 413.253C472.888 412.043 465.348 389.773 463.499 389.773C461.649 389.773 463.001 399.52 457.737 401.868C452.544 404.216 460.582 388.136 460.582 383.155C460.582 378.175 455.247 377.108 449.13 371.558C443.012 366.008 436.112 356.189 436.112 356.189C436.112 356.189 441.305 372.767 449.414 386.998C457.025 400.374 459.088 450.252 459.302 455.873C459.159 456.015 459.088 456.229 459.088 456.442C458.662 485.685 458.235 511.087 457.808 533.286C457.452 534.282 457.737 538.124 457.737 538.623C457.168 542.18 456.599 545.738 456.101 549.438C454.322 544.599 453.184 541.042 453.184 541.042C453.184 541.042 452.188 542.038 450.766 543.603C449.983 539.334 448.276 535.99 445.36 534.994C445.36 534.994 443.937 536.275 441.874 538.124C440.949 510.091 439.384 485.045 436.824 470.103C436.255 467.186 435.685 464.269 434.334 461.067C436.255 461.067 438.744 460.498 442.016 459.146C453.042 454.45 440.025 420.581 438.246 427.199C436.539 433.816 426.225 444.702 424.944 442.069C423.593 439.508 435.116 429.333 434.405 421.222C433.694 413.11 421.886 408.343 421.886 408.343C421.886 408.343 418.756 436.021 415.768 434.67C412.781 433.318 422.241 406.564 421.388 400.588C420.534 394.682 406.876 388.919 406.876 388.919C406.876 388.919 408.513 431.61 405.098 431.823C401.684 432.037 405.881 391.196 401.897 386.784C397.985 382.373 387.03 381.804 387.03 381.804C387.03 381.804 394.926 422.503 391.654 422.218C388.382 421.933 387.386 387.14 384.47 383.369C381.553 379.598 372.235 386.073 370.456 386.855C368.678 387.638 377.498 411.047 376.716 413.964C375.934 416.882 368.891 390.626 368.038 388.919C367.184 387.211 364.339 386.073 361.778 389.275C359.217 392.476 348.476 398.809 348.476 398.809C349.543 400.872 347.907 412.684 347.338 414.818C346.769 416.953 361.849 417.664 362.987 419.87C364.125 422.076 348.761 417.949 346.2 419.016C343.639 420.083 344.208 426.558 346.484 431.041C348.761 435.523 378.494 431.254 379.561 433.318C380.628 435.381 349.045 437.516 348.547 439.366C348.049 441.287 348.263 445.983 353.598 453.809C358.933 461.636 387.101 443.919 391.227 445.769C395.282 447.619 358.79 459.573 357.866 459.928C356.941 460.284 364.694 469.605 369.745 471.882C374.795 474.159 401.115 455.375 404.742 457.011C408.441 458.648 378.992 473.661 375.862 475.013C372.733 476.365 374.084 479.78 389.093 484.689C393.219 486.041 396.562 485.187 399.265 483.266C411.927 495.006 429.924 484.76 433.409 476.222C435.116 489.243 436.326 507.458 437.037 527.879C433.836 522.898 427.221 517.206 424.02 520.123C419.68 524.036 415.199 540.899 410.291 536.488C405.383 532.077 422.455 520.479 420.463 513.719C418.471 506.96 411.856 501.125 409.366 503.402C406.876 505.679 407.517 528.661 404.387 525.815C401.257 522.969 409.01 500.058 406.734 497.995C404.458 495.931 392.792 485.97 388.453 489.883C384.114 493.797 393.575 514.858 391.085 512.652C388.595 510.375 382.478 486.824 379.063 483.764C375.649 480.705 370.314 484.547 367.042 481.63C367.042 481.63 366.402 488.176 364.694 489.741C362.987 491.306 381.126 505.181 378.779 505.181C376.431 505.181 361.565 492.587 361.565 492.587C361.565 492.587 362.774 505.964 365.975 508.952C369.247 511.941 386.604 514.431 386.604 516.992C386.604 519.625 364.125 513.648 364.125 513.648C364.125 513.648 368.749 528.946 376.574 530.867C384.398 532.788 396.704 531.365 396.704 533.927C396.704 536.559 381.34 534.851 381.34 534.851C381.34 534.851 384.967 553.778 395.14 553.778C405.312 553.778 406.45 552.141 406.45 555.414C406.45 558.759 398.483 553.066 398.483 558.972C398.483 564.878 405.881 576.76 409.722 573.274C411.785 571.424 413.136 568.649 413.99 566.585C419.325 584.8 425.869 611.269 430.35 643.074H433.48C428.928 609.917 422.028 582.594 416.551 564.166C419.965 566.087 428.857 570.854 436.041 572.562C435.614 576.262 435.899 583.804 438.246 590.492C438.389 609.205 438.317 627.349 438.175 643.074H442.799C442.87 629.626 442.87 614.399 442.728 598.604C444.15 600.169 445.786 601.521 447.707 602.375C448.489 602.73 449.343 603.015 450.126 603.3C449.059 617.032 448.205 630.551 447.636 643.145H451.833C452.26 630.907 452.829 617.744 453.753 604.082C454.607 604.225 455.461 604.296 456.243 604.296C455.887 620.234 455.603 632.899 455.389 643.074H458.448C458.59 631.618 458.804 618.313 458.946 604.225C463.072 603.94 466.415 602.659 468.336 601.734C464.423 613.617 462.36 628.487 461.436 643.145H464.281C464.921 631.12 466.273 619.167 468.62 609.276C468.976 611.624 469.758 614.542 471.466 618.099C477.441 630.693 503.049 625.214 503.049 625.214C487.399 625.214 482.918 601.307 487.684 599.386C492.379 597.465 489.747 619.309 505.183 622.582C520.548 625.926 525.313 614.755 525.313 614.755C513.292 612.621 491.81 594.761 495.793 591.062C499.848 587.362 519.765 612.407 527.874 612.407C535.983 612.407 544.804 592.983 544.804 592.983C534.916 598.177 502.551 584.444 499.492 579.677C496.504 574.91 531.502 592.271 544.235 590.137C557.039 588.002 556.256 567.653 556.256 567.653C552.202 571.352 517.133 567.866 513.434 564.593C509.806 561.249 548.147 566.229 555.474 562.957C562.801 559.612 560.453 542.678 560.453 542.678C560.453 542.678 533.849 547.801 527.021 546.165C520.263 544.528 554.976 541.397 558.106 534.282C561.236 527.167 553.482 510.66 553.482 510.66C549.926 513.933 538.615 511.229 533.921 510.731C546.725 505.181 561.663 498.777 568.065 496.358C578.948 492.231 607.97 491.022 621.699 494.722ZM404.956 478.997C404.173 479.139 403.533 479.424 402.893 479.638C407.374 473.874 409.366 465.763 410.504 466.332C412.567 467.257 409.58 478.072 404.956 478.997ZM437.535 541.611C432.2 545.88 425.656 550.291 423.664 548.513C420.747 545.88 432.84 539.903 437.322 535.35C437.464 537.413 437.464 539.476 437.535 541.611ZM452.473 579.037C452.331 580.673 452.117 582.381 451.975 584.089C449.201 583.733 445.644 579.606 442.657 575.906C442.657 574.981 442.657 574.127 442.585 573.202C442.799 573.131 443.083 573.131 443.297 573.06C444.079 572.847 444.862 572.277 445.502 571.495C447.992 574.554 450.695 577.045 452.473 579.037ZM509.664 402.936C509.806 402.082 509.878 401.37 509.878 400.659C513.505 407.845 520.263 413.822 519.267 414.676C517.56 416.17 508.668 407.916 509.664 402.936ZM459.942 526.029C460.298 491.449 460.44 463.201 460.155 456.94C463.143 459.928 461.293 475.013 465.846 479.211C468.478 481.63 471.466 482.128 473.6 480.918C472.604 483.195 471.608 485.614 470.612 488.176C469.829 490.453 465.419 502.477 463.712 509.45C462.432 514.502 461.151 520.052 459.942 526.029ZM470.327 574.697C467.553 575.764 463.285 567.297 459.657 558.616C459.729 555.13 459.729 551.643 459.8 548.228C459.942 547.232 460.084 546.165 460.298 545.169C464.992 557.264 474.026 573.274 470.327 574.697ZM501.128 545.809C494.37 545.809 497.927 525.886 498.638 516.565C500.132 516.992 501.768 517.419 503.333 517.846C503.262 527.879 507.246 545.809 501.128 545.809ZM531.289 511.869C528.586 515.996 526.523 529.159 521.97 530.155C517.844 531.08 523.037 519.767 525.883 514.217C527.59 513.506 529.439 512.723 531.289 511.869Z" fill="url(#paint1_linear)"/>
</g>
<path id="POL" d="M663.168 641.621C663.168 654.463 514.785 664.836 331.584 664.836C234.378 664.836 125.96 664.836 54.2213 664.836C37.0913 663.52 27.6542 662.938 18.7689 660.665C-0.170078 655.822 0 648.987 0 641.621C0 628.779 148.51 627.298 331.584 627.298C514.785 627.298 663.168 628.779 663.168 641.621Z" fill="#A79FC2"/>
<g id="man">
<g id="Group">
<path id="Vector_2" d="M196.917 151.95C196.917 151.95 220.739 201.54 231.054 216.025C240.141 228.545 273.296 258.986 273.296 258.986L282.383 258.004C285.33 257.759 288.032 259.232 289.26 261.687L290.242 263.651C290.733 264.387 291.225 265.124 291.961 265.86L293.681 267.333C296.136 269.297 296.873 272.734 295.4 275.68L294.172 278.135C293.189 280.099 291.47 281.572 289.26 282.063L279.436 284.027C276.98 284.518 274.279 283.536 272.559 281.572L264.209 271.507C264.209 271.507 220.248 239.101 208.951 225.108C199.864 213.815 181.935 173.554 181.935 173.554L196.917 151.95Z" fill="#FFD48D"/>
<g id="Group_2">
<path id="Vector_3" d="M325.358 397.447C325.358 358.659 293.922 327.236 255.118 327.236C216.315 327.236 184.879 358.659 184.879 397.447H325.358Z" fill="#407BFF"/>
<path id="Vector_4" d="M325.358 397.939C325.358 359.15 293.922 327.482 255.118 327.482C216.315 327.482 184.879 359.641 184.879 398.43L325.358 397.939Z" fill="#731672"/>
</g>
<g id="Group_3">
<path id="Vector_5" d="M308.171 374.615C305.47 375.843 302.523 374.615 301.049 372.16C291.962 355.467 274.525 344.91 255.123 344.91C235.721 344.91 218.529 355.467 209.197 372.16C207.723 374.615 204.776 375.843 202.075 374.615C199.128 373.388 197.9 369.705 199.373 367.005C210.425 346.629 231.792 333.863 255.123 333.863C278.454 333.863 299.821 346.629 310.873 367.005C312.592 369.951 311.118 373.388 308.171 374.615Z" fill="#400D41"/>
</g>
<g id="Group_4">
<g id="Group_5">
<path id="Vector_6" d="M313.574 189.757C297.856 242.047 282.383 294.092 266.665 346.383C269.121 346.874 271.331 347.61 273.787 348.592C286.804 305.14 299.82 261.687 312.837 218.234C315.538 209.396 317.994 200.559 320.696 191.966C321.924 187.302 314.802 185.338 313.574 189.757Z" fill="#263238"/>
</g>
<g id="Group_6" opacity="0.5">
<path id="Vector_7" opacity="0.5" d="M313.574 189.757C297.856 242.047 282.383 294.092 266.665 346.383C269.121 346.874 271.331 347.61 273.787 348.592C286.804 305.14 299.82 261.687 312.837 218.234C315.538 209.396 317.994 200.559 320.696 191.966C321.924 187.302 314.802 185.338 313.574 189.757Z" fill="#BBAAC7"/>
</g>
</g>
<g id="Group_7">
<path id="Vector_8" d="M288.277 306.122C299.574 268.071 310.872 230.264 322.414 192.213C324.379 185.339 313.819 182.393 311.854 189.267C300.557 227.318 289.259 265.125 277.716 303.176C275.506 310.05 286.312 312.996 288.277 306.122Z" fill="#400D41"/>
</g>
<g id="Group_8">
<path id="Vector_9" d="M340.1 653.743H170.641V415.612C170.641 405.547 178.745 397.446 188.814 397.446H322.172C332.241 397.446 340.346 405.547 340.346 415.612V653.743H340.1Z" fill="#407BFF"/>
<path id="Vector_10" d="M340.1 653.743H170.641V415.612C170.641 405.547 178.745 397.446 188.814 397.446H322.172C332.241 397.446 340.346 405.547 340.346 415.612V653.743H340.1Z" fill="#903191"/>
</g>
<path id="Vector_11" d="M260.28 599.242L272.559 645.887L293.189 640.24L284.348 590.159L260.28 599.242Z" fill="#FCC179"/>
<g id="Group_9">
<path id="Vector_12" d="M289.26 622.074L270.103 627.475C269.121 627.72 268.63 628.457 268.63 629.439V660.126C268.63 661.844 270.349 663.317 272.068 663.317C272.314 663.317 272.559 663.317 272.805 663.317C281.401 660.862 287.049 660.126 297.856 657.18C310.626 653.743 308.662 655.707 323.643 651.779C339.607 643.677 333.467 638.768 329.537 639.259C311.609 641.713 305.469 640.486 295.891 636.067C292.207 634.84 291.225 621.583 289.26 622.074Z" fill="#340734"/>
</g>
<path id="Vector_13" d="M30.8953 587.952L11.0022 631.895L30.8953 640.488L55.2091 596.053L30.8953 587.952Z" fill="#FCC179"/>
<g id="Group_10">
<path id="Vector_14" d="M207.23 55.7167C207.23 55.7167 223.931 50.5613 219.756 42.951C216.072 36.3226 209.932 44.4239 209.932 44.4239L207.23 55.7167Z" fill="#263238"/>
<path id="Vector_15" d="M207.23 55.7167C207.23 55.7167 223.931 50.5613 219.756 42.951C216.072 36.3226 209.932 44.4239 209.932 44.4239L207.23 55.7167Z" fill="#3B0042"/>
</g>
<path id="Vector_16" d="M195.197 112.181L192.004 127.647L168.672 119.791L175.795 101.87L195.197 112.181Z" fill="#FFD48D"/>
<path id="Vector_17" d="M193.478 119.791C187.338 116.109 186.601 110.708 186.601 110.708L190.531 109.48L195.197 111.935L193.478 119.791Z" fill="#DBB37B"/>
<path id="Vector_18" d="M219.021 78.0562L225.407 86.403C225.898 86.894 225.652 87.6305 225.161 87.876C223.933 88.6125 221.232 89.5945 217.793 88.858C217.548 88.858 217.302 88.6125 217.302 88.367L218.039 78.3017C218.039 77.8107 218.776 77.5652 219.021 78.0562Z" fill="#FFD48D"/>
<path id="Vector_19" d="M165.236 71.1835C166.218 89.8411 165.973 97.697 175.551 107.517C190.041 117.582 212.881 117.337 217.793 98.9244C222.214 82.4763 220.003 54.7353 201.584 46.8794C188.322 41.233 173.095 46.8794 167.446 59.6452C165.727 63.3276 164.99 67.2555 165.236 71.1835Z" fill="#FFD48D"/>
<g id="Group_11">
<path id="Vector_20" d="M40.7187 619.374L22.2991 612.254C21.3168 612.009 20.3344 612.254 19.8432 612.991L1.42365 637.54C0.441278 639.013 0.686872 641.223 2.16044 642.205C2.40603 642.45 2.65162 642.45 2.89722 642.45C11.2474 645.641 16.1593 648.587 26.4742 652.515C38.7539 657.425 36.0524 657.916 50.2968 663.808C67.9796 667 66.0148 659.389 62.5765 657.425C46.6129 648.587 42.6834 643.923 37.5259 634.84C35.3156 631.403 42.4378 620.11 40.7187 619.374Z" fill="#340734"/>
</g>
<g id="Group_12">
<path id="Vector_21" d="M156.638 125.436L161.305 120.035C164.252 116.598 168.918 115.371 173.093 116.844L189.057 122.736C192.25 123.963 194.705 126.418 195.688 129.609L197.407 135.256L156.638 125.436Z" fill="#407BFF"/>
<path id="Vector_22" d="M156.638 125.436L161.305 120.035C164.252 116.598 168.918 115.371 173.093 116.844L189.057 122.736C192.25 123.963 194.705 126.418 195.688 129.609L197.407 135.256L156.638 125.436Z" fill="#009DDE"/>
</g>
<path id="Vector_23" d="M190.776 266.106C190.776 266.106 245.543 403.338 259.296 450.718C270.594 489.506 293.188 608.572 293.188 608.572L258.805 617.41C258.805 617.41 228.843 500.308 215.826 462.256C204.775 430.097 176.531 366.022 152.954 341.227C149.025 337.054 137.973 332.389 134.044 327.97C126.185 319.133 117.098 296.302 114.642 284.518C113.414 279.117 114.642 262.914 114.642 262.914L190.776 266.106Z" fill="#685886"/>
<path id="Vector_24" d="M190.775 266.106C190.775 266.106 177.758 307.594 171.864 321.097C168.917 328.216 161.058 342.209 158.111 349.329C144.112 383.207 121.763 454.155 108.747 488.033C95.9757 521.421 49.0673 617.41 49.0673 617.41L18.1224 603.662C18.1224 603.662 57.9086 507.182 68.9604 474.286C79.5209 442.126 95.2389 376.088 99.6596 342.7C100.888 332.389 100.396 311.277 101.379 300.966C102.361 291.392 107.027 262.914 107.027 262.914L190.775 266.106Z" fill="#685886"/>
<path id="Vector_25" d="M106.048 266.352L195.936 278.872L216.811 154.406C218.285 145.322 212.636 136.485 203.795 134.275L164.008 123.964C149.273 120.282 134.537 129.365 131.344 144.34L106.048 266.352Z" fill="#008BD6"/>
<path id="Vector_26" d="M208.703 203.259L212.632 179.446L196.177 165.453L208.703 203.259Z" fill="#0055A2"/>
<path id="Vector_27" d="M21.0697 596.789L14.1931 612.501L44.4012 627.721L52.2602 611.028L21.0697 596.789Z" fill="#685886"/>
<path id="Vector_28" d="M257.332 611.519L262.735 633.859L295.89 622.321L292.206 602.927L257.332 611.519Z" fill="#685886"/>
<path id="Vector_29" d="M205.019 83.2122C205.019 83.2122 209.931 76.8294 206.247 66.764C202.809 56.6987 223.438 35.3406 210.176 29.2032C202.072 25.2753 199.616 36.3226 199.616 36.3226C199.616 36.3226 194.704 28.4668 187.336 31.6582C183.161 33.6222 184.389 39.0231 184.389 39.0231C184.389 39.0231 156.146 44.9149 157.128 65.2911C157.374 67.9915 157.128 72.4104 157.865 75.3564C159.338 81.2483 161.549 93.523 171.618 103.343C171.618 103.343 179.477 107.271 191.02 104.816C191.511 104.816 192.494 93.523 205.019 83.2122Z" fill="#660070"/>
<path id="Vector_30" d="M203.546 76.3395C206.493 79.0399 208.212 82.4769 208.212 86.4048C208.458 91.5602 203.546 92.7877 199.371 90.3327C195.442 88.1233 190.775 82.9678 192.74 78.3034C194.459 73.639 200.108 73.148 203.546 76.3395Z" fill="#FFD48D"/>
<path id="Vector_31" d="M119.8 300.722C123.484 327.727 141.412 353.995 151.482 367.006C153.938 360.378 156.148 354.486 158.358 349.33C127.659 324.535 119.8 300.722 119.8 300.722Z" fill="#59447E"/>
<path id="Vector_32" d="M210.917 143.358C210.917 143.358 233.511 182.882 244.563 193.93C254.141 203.504 290.98 225.599 290.98 225.599L303.506 225.353C305.47 225.353 307.435 226.335 308.663 227.808C309.4 228.79 310.382 229.527 311.61 230.018L312.592 230.509C315.54 231.491 317.259 234.436 316.768 237.382L316.031 242.783C315.785 245.238 314.066 247.202 311.61 247.939L301.541 251.13C299.33 251.867 297.12 251.376 295.401 249.903L282.876 239.346C282.876 239.346 236.95 219.707 224.67 208.414C215.583 200.067 197.9 167.171 197.9 167.171L210.917 143.358Z" fill="#FFD48D"/>
<path id="Vector_33" d="M214.599 140.168L238.913 171.836L207.723 190.74L188.567 157.598C185.128 151.706 186.602 144.341 192.005 140.413L195.689 137.713C201.829 133.048 210.179 134.276 214.599 140.168Z" fill="#008BD6"/>
<path id="Vector_34" d="M200.108 80.7565C201.09 81.984 203.301 82.966 201.581 84.1935C200.845 84.6845 197.897 83.457 196.915 81.984C195.933 80.7565 196.424 79.2836 197.161 78.7926C198.634 77.8106 199.125 79.2836 200.108 80.7565Z" fill="#DBB37B"/>
<path id="Vector_35" d="M215.337 63.0809L215.583 65.0449C215.583 65.0449 212.144 64.5539 210.425 66.5179C208.46 68.4818 208.215 68.4818 208.215 68.4818C208.215 68.4818 209.197 64.0629 215.337 63.0809Z" fill="#46014B"/>
</g>
</g>
</g>
<defs>
<linearGradient id="paint0_linear" x1="14.3447" y1="12.512" x2="677.026" y2="674.916" gradientUnits="userSpaceOnUse">
<stop offset="0.0468952" stop-color="#A69EC1"/>
<stop offset="0.34779" stop-color="#CDC9DA"/>
<stop offset="1" stop-color="#F0F0F0"/>
</linearGradient>
<linearGradient id="paint1_linear" x1="559.031" y1="346.583" x2="340.63" y2="711.62" gradientUnits="userSpaceOnUse">
<stop offset="0.0468952" stop-color="#A69EC1"/>
<stop offset="1" stop-color="#ECEBEE"/>
</linearGradient>
</defs>
</svg>
