<?xml version="1.0" encoding="utf-8"?>
<!-- Generator: Adobe Illustrator 22.1.0, SVG Export Plug-In . SVG Version: 6.00 Build 0)  -->
<svg version="1.1" id="Слой_1" xmlns="http://www.w3.org/2000/svg" xmlns:xlink="http://www.w3.org/1999/xlink" x="0px" y="0px"
	 width="32px" height="32px" viewBox="0 0 32 32" style="enable-background:new 0 0 32 32;" xml:space="preserve">
<style type="text/css">
	.st0{fill:#242229;}
	.st1{fill:#FF0066;}
	.st2{fill:#FFFFFF;}
</style>
<g id="FullScreen">
	<path id="Shadow" class="st0" d="M0,28.4V24l17.4-12.8l-3-5.2L14,2l18,1v3.9L26.8,25l-4.4-6.4L11,24.7l3,1.3l-0.3,4L0,28.4z"/>
	<path id="Fullsize" class="st1" d="M0,24.4l3.4-12.9L7,16.3l10.4-9.1l-3-5.2L32,2.9L26.8,21l-4.4-6.4L11,20.7l2.8,5.3L0,24.4z"/>
	<polygon id="Light" class="st2" points="28,5 4,22 4,18 5,19 22,6 19,4 	"/>
</g>
</svg>
