<?xml version="1.0" encoding="utf-8"?>
<!-- Generator: Adobe Illustrator 21.0.0, SVG Export Plug-In . SVG Version: 6.00 Build 0)  -->
<svg version="1.1" id="Слой_1" xmlns="http://www.w3.org/2000/svg" xmlns:xlink="http://www.w3.org/1999/xlink" x="0px" y="0px"
	 width="32px" height="32px" viewBox="0 0 32 32" style="enable-background:new 0 0 32 32;" xml:space="preserve">
<style type="text/css">
	.st0{fill:#E0E0E0;}
	.st1{fill:#242229;}
</style>
<g id="Search_1_">
	<path id="Shadow" class="st0" d="M31,22.9l-7.3-4.6c0,0-0.1-0.1-0.1-0.1c1.3-1.9,2-4.1,2-6.4C25.7,5.3,20.1,0,13.3,0
		C6.5,0,1,5.3,1,11.7c0,6.5,5.5,11.7,12.3,11.7c2.5,0,4.8-0.7,6.8-1.9c0,0,0.1,0.1,0.1,0.1L28,30L31,22.9z M13.3,19.4
		c-4.5,0-8.1-3.4-8.1-7.7c0-4.2,3.6-7.7,8.1-7.7c4.5,0,8.1,3.4,8.1,7.7C21.4,16,17.8,19.4,13.3,19.4z"/>
	<path id="Search" class="st1" d="M32,24.9l-7.3-4.6c0,0-0.1-0.1-0.1-0.1c1.3-1.9,2-4.1,2-6.4C26.7,7.3,21.1,2,14.3,2
		C7.5,2,2,7.3,2,13.7c0,6.5,5.5,11.7,12.3,11.7c2.5,0,4.8-0.7,6.8-1.9c0,0,0.1,0.1,0.1,0.1L29,32L32,24.9z M14.3,21.4
		c-4.5,0-8.1-3.4-8.1-7.7c0-4.2,3.6-7.7,8.1-7.7c4.5,0,8.1,3.4,8.1,7.7C22.4,18,18.8,21.4,14.3,21.4z"/>
</g>
</svg>
