<?xml version="1.0" encoding="utf-8"?>
<!-- Generator: Adobe Illustrator 22.1.0, SVG Export Plug-In . SVG Version: 6.00 Build 0)  -->
<svg version="1.1" id="Слой_1" xmlns="http://www.w3.org/2000/svg" xmlns:xlink="http://www.w3.org/1999/xlink" x="0px" y="0px"
	 width="30px" height="30px" viewBox="0 0 30 30" style="enable-background:new 0 0 30 30;" xml:space="preserve">
<style type="text/css">
	.st0{fill:#242229;}
	.st1{fill:#FF0066;}
	.st2{fill:#FFFFFF;}
</style>
<g id="Plus_x5F_Normal">
	<path id="Shadow_2_" class="st0" d="M20,8l-1-4l-2-4L3,18l1,3l9-1l-2,6l2,4l9-3l-1-7l7-1l-1-8l-2-4L20,8z"/>
	<path id="Plus" class="st1" d="M17,0H9l1,9l-8,1l1,8l8-1v9l9-2l-1-8h7l-1-9h-7L17,0z"/>
	<path id="Light_2_" class="st2" d="M2.4,13.4L2.1,11l7.7-1l0.4,2.2L2.4,13.4z M17.2,1.3L9.9,1.5L9.4,4.4l8-1.2L17.2,1.3z M17.8,8.2
		v2.3l7-0.3l-0.2-2.4L17.8,8.2z"/>
</g>
</svg>
