<?xml version="1.0" encoding="utf-8"?>
<!-- Generator: Adobe Illustrator 21.0.0, SVG Export Plug-In . SVG Version: 6.00 Build 0)  -->
<svg version="1.1" id="New_1_" xmlns="http://www.w3.org/2000/svg" xmlns:xlink="http://www.w3.org/1999/xlink" x="0px" y="0px"
	 width="94px" height="54px" viewBox="0 0 94 54" style="enable-background:new 0 0 94 54;" xml:space="preserve">
<style type="text/css">
	.st0{fill-rule:evenodd;clip-rule:evenodd;fill:#242229;}
	.st1{fill-rule:evenodd;clip-rule:evenodd;fill:#33CC00;}
	.st2{fill-rule:evenodd;clip-rule:evenodd;fill:#FFFFFF;}
	.st3{fill:#FFFFFF;}
	.st4{fill:#242229;}
</style>
<path id="Shadow" class="st0" d="M68,32c-5.8-3.1-13.1-3.5-19.7-1C38.6,34.6,32.8,44.1,33,54L0.8,48.5L0,42l68-26V32z"/>
<path id="Ribbon_1_" class="st1" d="M68,32c-5.4-3.6-12.2-4.7-19-2.8c-10,2.7-16.8,11.5-17.5,21.5L0,42C0,32.2,15,0,48,0
	c20.3,0,38.8,12.4,46,32H68z"/>
<path id="Lig" class="st2" d="M61.9,6c-8.3-2.5-17.4-2.8-26.3-0.3c-18,4.9-30.9,19.3-34.9,36.5l4,1.1c4-17.2,16.9-31.7,34.9-36.6
	C47.1,4.7,54.8,4.6,61.9,6z"/>
<path id="Light" class="st3" d="M20.2,25.9c0,0.2,0.1,0.3,0.2,0.4c1.8,1.2,3.6,2.4,5.5,3.6c-3,0.1-6.2,0.6-9.6,1.5
	c-0.5,0.1-0.8,0.4-1.1,0.8c-0.9,1.4-1.7,2.9-2.4,4.5c-0.1,0.2-0.1,0.4-0.1,0.6c0.1,0.2,0.2,0.3,0.3,0.3c5.1,1.3,10.3,2.6,15.4,3.8
	c0.2,0,0.3,0,0.5,0c0.2-0.1,0.3-0.2,0.3-0.3c0.4-1.1,0.8-2.1,1.4-3.1c0.1-0.1,0.1-0.2,0-0.4c-0.1-0.1-0.2-0.2-0.3-0.3
	c-1.9-0.9-3.8-1.7-5.8-2.6c2.9-0.6,5.6-0.8,8.1-0.6c0.4,0,0.7-0.1,0.8-0.3c0.6-0.7,1.3-1.4,1.9-2.1c0.1-0.1,0.1-0.2,0.1-0.3
	c0-0.1-0.1-0.3-0.2-0.4c-3.3-3.2-6.5-6.4-9.8-9.5c-0.1-0.1-0.3-0.2-0.5-0.1c-0.2,0-0.4,0.1-0.6,0.2c-1.4,1.2-2.8,2.4-4.1,3.8
	C20.3,25.5,20.2,25.7,20.2,25.9z M38.9,23.1c2.2-1,4.5-1.8,6.9-2.2c0.2,0,0.3-0.1,0.4-0.2c0.1-0.1,0.1-0.2,0.1-0.4
	c-0.2-0.8-0.3-1.6-0.5-2.4c0-0.1-0.1-0.2-0.3-0.3c-0.1-0.1-0.3-0.1-0.5-0.1c-2.7,0.5-5.4,1.3-7.9,2.4c-0.2-0.4-0.4-0.7-0.6-1.1
	c3.1-1.3,6.3-2.2,9.6-2.6c0.2,0,0.3-0.1,0.5-0.2c0.1-0.1,0.2-0.2,0.2-0.4c-0.1-0.9-0.3-1.7-0.4-2.6c0-0.1-0.1-0.2-0.3-0.3
	c-0.2-0.1-0.4-0.1-0.6-0.1c-5.9,0.7-11.7,2.7-16.8,5.9c-0.2,0.1-0.3,0.3-0.4,0.4c-0.1,0.2,0,0.3,0.1,0.4c2.9,3.4,5.7,6.8,8.6,10.2
	c0.1,0.1,0.2,0.2,0.4,0.2c0.1,0,0.3,0,0.4-0.1c3-2.2,6.5-3.7,10.2-4.4c0.1,0,0.2-0.1,0.3-0.2c0.1-0.1,0.1-0.2,0.1-0.4
	c-0.1-0.9-0.2-1.7-0.4-2.6c0-0.1-0.1-0.2-0.2-0.3c-0.1-0.1-0.3-0.1-0.4-0.1c-2.7,0.4-5.4,1.2-7.9,2.4C39.3,23.9,39.1,23.5,38.9,23.1
	z M54.7,24.9c0.2-0.1,0.3-0.2,0.3-0.3c0.8-1.2,1.7-2.3,2.7-3.3c0.4,1.3,0.6,2.6,0.8,3.9c0,0.1,0.1,0.2,0.2,0.4
	c0.1,0.1,0.3,0.2,0.5,0.3c0.9,0.2,1.7,0.5,2.6,0.8c0.2,0.1,0.5,0.1,0.7,0.1c0.2,0,0.4-0.1,0.5-0.3c2.4-2.8,5.1-5.3,7.9-7.7
	c0,0,0,0,0,0c0.1-0.1,0.1-0.2,0-0.3c-0.1-0.1-0.2-0.2-0.3-0.3c-1.5-0.9-3.1-1.7-4.7-2.4c-0.4-0.2-0.7-0.2-1-0.2
	c-0.3,0-0.5,0.1-0.6,0.3c-1,1.5-1.9,3-2.8,4.5c-0.1-1-0.3-2-0.5-3c0-0.1-0.1-0.3-0.3-0.4c-0.2-0.2-0.4-0.3-0.7-0.4
	c-0.6-0.2-1.2-0.3-1.8-0.4c-0.3-0.1-0.6-0.1-0.8,0c-0.2,0.1-0.4,0.2-0.4,0.3c-0.7,0.8-1.3,1.7-1.9,2.5c0-1.8-0.1-3.6-0.2-5.4
	c0-0.2-0.1-0.4-0.4-0.6c-0.2-0.2-0.5-0.3-0.9-0.3c-1.7-0.1-3.3-0.2-5-0.1c-0.2,0-0.3,0.1-0.4,0.1C48,12.7,48,12.8,48,12.9
	c0,0,0,0,0,0.1c1.2,3.8,2.1,7.6,2.8,11.4c0,0.2,0.1,0.3,0.3,0.5c0.2,0.1,0.3,0.2,0.6,0.2c0.8,0,1.7,0,2.5,0
	C54.4,25,54.6,25,54.7,24.9z"/>
<path id="New" class="st4" d="M20.2,23.8c0,0.2,0.1,0.3,0.2,0.4c1.8,1.2,3.6,2.4,5.5,3.6c-3,0.1-6.2,0.6-9.6,1.5
	c-0.5,0.1-0.8,0.4-1.1,0.8c-0.9,1.4-1.7,2.9-2.4,4.5c-0.1,0.2-0.1,0.4-0.1,0.6c0.1,0.2,0.2,0.3,0.3,0.3c5.1,1.3,10.3,2.6,15.4,3.8
	c0.2,0,0.3,0,0.5,0c0.2-0.1,0.3-0.2,0.3-0.3c0.4-1.1,0.8-2.1,1.4-3.1c0.1-0.1,0.1-0.2,0-0.4c-0.1-0.1-0.2-0.2-0.3-0.3
	c-1.9-0.9-3.8-1.7-5.8-2.6c2.9-0.6,5.6-0.8,8.1-0.6c0.4,0,0.7-0.1,0.8-0.3c0.6-0.7,1.3-1.4,1.9-2.1c0.1-0.1,0.1-0.2,0.1-0.3
	c0-0.1-0.1-0.3-0.2-0.4c-3.3-3.2-6.5-6.4-9.8-9.5c-0.1-0.1-0.3-0.2-0.5-0.1c-0.2,0-0.4,0.1-0.6,0.2c-1.4,1.2-2.8,2.4-4.1,3.8
	C20.3,23.5,20.2,23.7,20.2,23.8z M38.9,21.1c2.2-1,4.5-1.8,6.9-2.2c0.2,0,0.3-0.1,0.4-0.2c0.1-0.1,0.1-0.2,0.1-0.4
	c-0.2-0.8-0.3-1.6-0.5-2.4c0-0.1-0.1-0.2-0.3-0.3c-0.1-0.1-0.3-0.1-0.5-0.1c-2.7,0.5-5.4,1.3-7.9,2.4c-0.2-0.4-0.4-0.7-0.6-1.1
	c3.1-1.3,6.3-2.2,9.6-2.6c0.2,0,0.3-0.1,0.5-0.2c0.1-0.1,0.2-0.2,0.2-0.4c-0.1-0.9-0.3-1.7-0.4-2.6c0-0.1-0.1-0.2-0.3-0.3
	c-0.2-0.1-0.4-0.1-0.6-0.1c-5.9,0.7-11.7,2.7-16.8,5.9c-0.2,0.1-0.3,0.3-0.4,0.4c-0.1,0.2,0,0.3,0.1,0.4c2.9,3.4,5.7,6.8,8.6,10.2
	c0.1,0.1,0.2,0.2,0.4,0.2c0.1,0,0.3,0,0.4-0.1c3-2.2,6.5-3.7,10.2-4.4c0.1,0,0.2-0.1,0.3-0.2c0.1-0.1,0.1-0.2,0.1-0.4
	c-0.1-0.9-0.2-1.7-0.4-2.6c0-0.1-0.1-0.2-0.2-0.3c-0.1-0.1-0.3-0.1-0.4-0.1c-2.7,0.4-5.4,1.2-7.9,2.4C39.3,21.8,39.1,21.5,38.9,21.1
	z M54.7,22.9c0.2-0.1,0.3-0.2,0.3-0.3c0.8-1.2,1.7-2.3,2.7-3.3c0.4,1.3,0.6,2.6,0.8,3.9c0,0.1,0.1,0.2,0.2,0.4
	c0.1,0.1,0.3,0.2,0.5,0.3c0.9,0.2,1.7,0.5,2.6,0.8c0.2,0.1,0.5,0.1,0.7,0.1c0.2,0,0.4-0.1,0.5-0.3c2.4-2.8,5.1-5.3,7.9-7.7
	c0,0,0,0,0,0c0.1-0.1,0.1-0.2,0-0.3c-0.1-0.1-0.2-0.2-0.3-0.3c-1.5-0.9-3.1-1.7-4.7-2.4c-0.4-0.2-0.7-0.2-1-0.2
	c-0.3,0-0.5,0.1-0.6,0.3c-1,1.5-1.9,3-2.8,4.5c-0.1-1-0.3-2-0.5-3c0-0.1-0.1-0.3-0.3-0.4c-0.2-0.2-0.4-0.3-0.7-0.4
	c-0.6-0.2-1.2-0.3-1.8-0.4c-0.3-0.1-0.6-0.1-0.8,0c-0.2,0.1-0.4,0.2-0.4,0.3c-0.7,0.8-1.3,1.7-1.9,2.5c0-1.8-0.1-3.6-0.2-5.4
	c0-0.2-0.1-0.4-0.4-0.6c-0.2-0.2-0.5-0.3-0.9-0.3c-1.7-0.1-3.3-0.2-5-0.1c-0.2,0-0.3,0.1-0.4,0.1C48,10.6,48,10.7,48,10.8
	c0,0,0,0,0,0.1c1.2,3.8,2.1,7.6,2.8,11.4c0,0.2,0.1,0.3,0.3,0.5c0.2,0.1,0.3,0.2,0.6,0.2c0.8,0,1.7,0,2.5,0
	C54.4,23,54.6,22.9,54.7,22.9z"/>
</svg>
