<?xml version="1.0" encoding="utf-8"?>
<!-- Generator: Adobe Illustrator 21.0.0, SVG Export Plug-In . SVG Version: 6.00 Build 0)  -->
<svg version="1.1" id="Слой_1" xmlns="http://www.w3.org/2000/svg" xmlns:xlink="http://www.w3.org/1999/xlink" x="0px" y="0px"
	 width="40px" height="40px" viewBox="0 0 40 40" style="enable-background:new 0 0 40 40;" xml:space="preserve">
<style type="text/css">
	.st0{fill:#242229;}
	.st1{fill:#FFCC00;}
	.st2{fill:#FFFFFF;}
</style>
<g>
	<path class="st0" d="M36,22C36,9,24,6,16,0l-4,1C8,8,0,10,0,22c0,13,13,13,13,13v4l16-2c0,0-1-4-1.1-4.1C29.8,32.7,36,28,36,22z"/>
	<path class="st1" d="M29.6,25c-3.6,3.4-8,1.8-10.4,0.4C22,30.8,26,31,26,31l-7.3,1l-7.3,1c0,0,3.8-1.3,4.9-7.2
		c-1.9,2-5.6,4.8-10.1,2.4C-0.3,24.9,1.3,16,7.3,10.4C13.3,4.9,14.2,1,14.2,1s1.9,3.5,9.3,7.2C30.9,11.9,34.8,20,29.6,25z"/>
	<path class="st2" d="M14,5c0,0,3.8,7.7-2,12c-4,3-5,9-5,9s-4-8,2-13C13.5,9.3,14,5,14,5z"/>
</g>
</svg>
