<!-- Generated by IcoMoon.io -->
<svg version="1.1" xmlns="http://www.w3.org/2000/svg" width="160" height="60" viewBox="0 0 160 60">
<title>iconPay_PaySafeCard</title>
<path fill="#09f" d="M60.559 33.642c0 0.394-0.43 0.848-1.004 0.848h-2.339c-0.585 0-0.884-0.363-0.884-1.090v-9.040h-3.313v10.115c0 1.74 1.049 3.437 3.252 3.437h4.288v0.818c0 0.461-0.537 0.833-0.944 0.833h-6.596v3.437h7.721c1.668 0 3.103-1.231 3.103-3.695v-14.946h-3.283v9.283z"></path>
<path fill="#09f" d="M72.705 29.417h-2.938c-0.766 0-1.019-0.301-1.019-0.803s0.16-0.818 1.019-0.818h5.787v-3.437h-6.836c-2.101 0-3.223 1.083-3.223 3.044v2.559c0 1.235 1.269 2.892 3.208 2.892h2.756c0.322 0 0.737 0.193 0.737 0.764s-0.3 0.872-0.737 0.872h-5.994l0.015 3.437h7.215c1.776 0 2.874-1.851 2.874-3.182v-2.315c-0.001-1.509-1.317-3.013-2.864-3.013z"></path>
<path fill="#09f" d="M35.535 24.359h-4.722c-1.885 0-2.968 1.283-2.968 3.589v15.037h3.298v-5.073h4.467c1.855 0 3.103-1.774 3.103-3.059v-7.041c0-2.216-1.095-3.453-3.178-3.453zM35.4 33.687c0 0.379-0.35 0.818-0.87 0.818h-2.354c-0.675-0.030-1.019-0.363-1.034-1.015v-4.679c0.015-0.636 0.33-0.984 0.944-1.015h2.579c0.48 0.015 0.735 0.288 0.75 0.818l-0.015 5.073z"></path>
<path fill="#09f" d="M133.282 28.13v9.782h0.795v-9.797c0-2.060 0.869-3.044 2.713-3.044h1.019v-0.803h-0.885c-2.472 0-3.642 1.259-3.642 3.862z"></path>
<path fill="#09f" d="M130.327 28.069c0-1.921-0.804-3.801-3.472-3.801h-7.292v0.803h7.363c2.065 0 2.636 1.661 2.636 2.832v0.909h-6.581c-2.264 0.045-3.418 1.242-3.448 3.574v2.059c0 1.969 1.301 3.468 3.493 3.468h3.958c2.099 0 3.343-1.335 3.343-3.373v-6.471zM127.014 37.109h-4.048c-1.434 0-2.638-0.941-2.638-2.404v-2.351c0-1.68 1.051-2.741 2.564-2.741h6.641l0.015 4.8c0 1.494-0.668 2.696-2.534 2.696z"></path>
<path fill="#09f" d="M84.49 24.359h-7.496v3.422h6.656c0.615 0 0.899 0.227 0.899 0.742v0.348h-4.407c-2.164 0-3.208 1.105-3.208 3.225v2.771c0 2.029 1.15 3.059 3.358 3.059h4.542c1.529 0 2.983-1.13 2.983-3.18v-7.176c0.001-2.127-1.135-3.211-3.327-3.211zM84.55 33.808c0 0.427-0.315 0.681-0.884 0.681h-2.549c-0.389 0-0.869-0.286-0.869-0.681v-0.848c0-0.613 0.161-0.893 0.87-0.893h2.519c0.615 0 0.914 0.257 0.914 0.787v0.954z"></path>
<path fill="#09f" d="M47.972 24.359h-7.496v3.422h6.656c0.615 0 0.899 0.227 0.899 0.742v0.348h-4.407c-2.164 0-3.208 1.105-3.208 3.225v2.771c0 2.029 1.15 3.059 3.358 3.059h4.542c1.529 0 2.983-1.13 2.983-3.18v-7.176c0.001-2.127-1.135-3.211-3.327-3.211zM48.032 33.808c0 0.427-0.315 0.681-0.884 0.681h-2.549c-0.389 0-0.869-0.286-0.869-0.681v-0.848c0-0.613 0.161-0.893 0.87-0.893h2.519c0.615 0 0.914 0.257 0.914 0.787v0.954z"></path>
<path fill="#09f" d="M149.205 19.847v4.437h-6.206c-2.615 0-3.898 1.287-3.928 3.907v5.83c0 2.393 0.933 3.907 3.745 3.907h3.121c2.665 0 3.988-1.211 4.063-3.801v-14.28h-0.795zM149.205 34.066c0 1.918-1.261 3.044-3.508 3.044h-2.743c-1.825 0-3.103-0.696-3.103-2.542v-6.499c0-1.853 1.166-2.997 2.967-2.997h6.388v8.994z"></path>
<path fill="#09f" d="M109.667 34.051v-6.405c0-2.243 1.532-2.589 2.848-2.589h4.947v-0.803h-5.128c-1.785 0-3.447 0.913-3.447 3.39 0 2.571 0 6.528 0 6.528 0 2.242 1.207 3.74 3.655 3.74h4.995v-0.803h-4.722c-1.809 0-3.148-0.772-3.148-3.058z"></path>
<path fill="#09f" d="M103.623 24.359h-4.467c-2.050 0-3.223 1.145-3.223 3.165v6.875c0 2 0.98 3.528 3.386 3.528h7.408v-3.437h-6.791c-0.642 0-0.645-1.166-0.645-1.166l7.466-2.968v-2.711c-0.001-2.172-1.098-3.286-3.134-3.286zM103.383 28.463l-4.153 1.575v-1.378c0-0.394 0.44-0.878 1.064-0.878h2.309c0.519 0 0.78 0.295 0.78 0.681z"></path>
<path fill="#09f" d="M89.304 22.406v15.521h3.313v-10.13h2.339v-3.437h-2.339v-0.908c0 0 0.068-0.833 1.064-0.833h1.274v-3.316h-2.099c-2.221-0.001-3.552 1.445-3.552 3.103z"></path>
<path fill="#f33" d="M17.106 17c0 0-6.746-0.004-6.746 7.511 0.749-0.694 1.844-0.924 1.844-0.924s0.843-4.028 4.902-4.028 4.932 4.028 4.932 4.028 1.178 0.183 1.829 0.924c0-7.523-6.761-7.511-6.761-7.511z"></path>
<path fill="#f33" d="M21.049 24.359h-8.080c-1.829 0-2.968 1.314-2.968 3.589v6.375c0 2.075 0.942 3.589 2.968 3.589h8.080c2.084 0 3.178-1.222 3.178-3.468v-6.632c0-2.216-1.072-3.453-3.178-3.453z"></path>
</svg>
