<!-- Generated by IcoMoon.io -->
<svg version="1.1" xmlns="http://www.w3.org/2000/svg" width="160" height="60" viewBox="0 0 160 60">
<title>iconPay_Qiwi</title>
<path fill="#f90" d="M100.079 17.992v21.041c0 0.316-0.254 0.572-0.567 0.572h-4.259c-0.313 0-0.567-0.256-0.567-0.572v-21.041c0-0.316 0.254-0.572 0.567-0.572h4.259c0.314 0 0.567 0.256 0.567 0.572zM133.266 17.42h-4.765c-0.249 0-0.469 0.163-0.542 0.402l-3.771 12.435-4.144-12.448c-0.077-0.232-0.294-0.388-0.538-0.388h-3.325c-0.244 0-0.46 0.156-0.538 0.388l-4.144 12.448-3.771-12.435c-0.073-0.239-0.293-0.402-0.542-0.402h-4.765c-0.719 0-0.595 0.574-0.537 0.747l6.999 21.053c0.077 0.232 0.294 0.388 0.537 0.388h3.782c0.244 0 0.46-0.156 0.537-0.388l4.104-12.3 4.104 12.3c0.077 0.231 0.294 0.388 0.537 0.388h3.782c0.244 0 0.46-0.156 0.537-0.388l6.999-21.053c0.059-0.173 0.154-0.747-0.536-0.747zM140.433 17.42h-4.259c-0.313 0-0.567 0.256-0.567 0.572v21.041c0 0.316 0.254 0.572 0.567 0.572h4.259c0.313 0 0.567-0.256 0.567-0.572v-21.041c0-0.316-0.254-0.572-0.567-0.572zM92.223 38.884c0.248 0.277 0.044 0.724-0.33 0.724h-5.219c-0.212 0-0.414-0.095-0.55-0.26l-0.885-1.074c-1.802 1.179-3.947 1.867-6.249 1.867-6.353 0-11.521-5.216-11.521-11.628s5.168-11.628 11.521-11.628c6.353 0 11.521 5.216 11.521 11.628 0 2.311-0.674 4.465-1.831 6.277l3.543 4.094zM81.879 34.194l-2.286-2.775c-0.24-0.291-0.035-0.732 0.34-0.732h4.782c0.228-0.684 0.357-1.415 0.357-2.174 0-3.476-2.564-6.473-6.082-6.473-3.519 0-6.082 2.997-6.082 6.473s2.564 6.431 6.082 6.431c1.066 0 2.043-0.275 2.889-0.75zM54.234 38.097c0.276 0.842 0.258 1.861-0.2 1.914-0.404 0.047-0.699-0.378-1.186-1.051-0.452-0.623-0.625-1.794-0.251-2.054 0.676-0.468 1.353 0.326 1.637 1.191zM50.322 40.689c0.882 0.753 1.198 1.687 0.684 2.279-0.879 1.011-2.183 0.352-2.533 0.044-0.802-0.707-1.050-1.865-0.514-2.506 0.691-0.828 1.927-0.19 2.363 0.183zM48.846 47.955c3.8 0 7.923 1.315 12.487 5.396 0.457 0.409 1.066-0.099 0.667-0.607-4.485-5.715-8.633-6.803-12.77-7.723-5.060-1.125-7.663-3.999-9.477-7.154-0.361-0.628-0.523-0.517-0.555 0.29-0.040 0.987 0.265 3.585-0.369 3.585-7.239 0-13.108-5.923-13.108-13.229s5.869-13.229 13.108-13.229c7.239 0 13.108 5.923 13.108 13.229 0 0.52-0.025 1.034-0.083 1.538-0.958-0.174-2.841-0.194-4.163-0.078-0.497 0.043-0.427 0.277-0.051 0.346 4.333 0.79 7.31 3.5 7.99 8.418 0.016 0.113 0.162 0.147 0.22 0.049 1.783-3.003 2.807-6.517 2.807-10.273 0-11.053-8.877-20.013-19.828-20.013s-19.829 8.96-19.829 20.012 8.878 20.013 19.829 20.013c2.905 0 5.787-0.57 10.017-0.57z"></path>
</svg>
