<!-- Generated by IcoMoon.io -->
<svg version="1.1" xmlns="http://www.w3.org/2000/svg" width="160" height="60" viewBox="0 0 160 60">
<title>iconPay_Poli</title>
<path fill="#999" d="M98.121 13.37v36.385h23.611v-11.306h-12.38v-25.079z"></path>
<path fill="#999" d="M123.769 13.37h11.231v9.793h-11.231v-9.793z"></path>
<path fill="#999" d="M123.769 25.521h11.231v24.234h-11.231v-24.234z"></path>
<path fill="#06c" d="M75.895 9l-0.466 2.292c-6.286 0-18.743 5.517-20.939 18.467-2.595 15.304 9.325 21.241 17.111 21.241 13.323 0 22.080-10.36 23.317-19.132 2.115-14.996-9.901-19.041-9.901-19.041s3.157 1.649 5.013 4.283c-2.088-2.174-5.352-3.269-5.352-3.269s3.033 1.556 4.845 4.228c-2.044-2.212-5.157-3.243-5.157-3.243s2.882 1.492 4.651 4.202c-2.001-2.25-4.963-3.217-4.963-3.217s2.731 1.428 4.456 4.176c-1.957-2.288-4.768-3.191-4.768-3.191s2.58 1.364 4.262 4.15c-1.914-2.326-4.574-3.165-4.574-3.165s2.429 1.3 4.067 4.124c-1.87-2.363-4.38-3.139-4.38-3.139s2.278 1.236 3.873 4.098c-1.827-2.401-4.185-3.113-4.185-3.113s2.127 1.172 3.678 4.072c-1.783-2.439-3.991-3.087-3.991-3.087s1.976 1.108 3.484 4.046c-1.74-2.477-3.795-3.117-3.795-3.117s5.394 3.535 3.648 10.878c-1.175 4.941-6.519 9.946-12.961 9.946-7.101 0-10.705-5.661-9.871-11.528 0.946-6.654 7.465-11.083 11.152-11.083l-0.388 2.059 9.624-5.361-7.49-7.576z"></path>
<path fill="#999" d="M40.856 13.37h-15.856v36.385h11.102v-11.177h4.754c3.252 0 12.027-1.305 12.027-12.785s-9.119-12.423-12.027-12.423zM37.595 31.868h-1.403v-11.788h1.403c3.068 0 4.095 1.079 4.095 5.712s-0.54 6.076-4.095 6.076z"></path>
</svg>
