<!-- Generated by IcoMoon.io -->
<svg version="1.1" xmlns="http://www.w3.org/2000/svg" width="160" height="60" viewBox="0 0 160 60">
<title>iconPay_Trustly</title>
<path fill="#999" d="M65.875 21.898h-15.112c-0.788 0-1.293 0.086-1.293 0.765v3.51c0 0.398 0 0.737 0.787 0.737h3.799c0.449 0 0.646 0.085 0.646 0.538v14.243c0 0.822 0.309 0.935 1.434 0.935h4.053c1.013 0 1.435-0.198 1.435-0.935v-14.243c0-0.453 0.197-0.538 0.646-0.538h4.11c0.788 0 0.788-0.339 0.788-0.737v-3.51c0.001-0.679-0.507-0.765-1.293-0.765z"></path>
<path fill="#999" d="M78.593 27.368h-6.162c-3.521 0-4.25 1.577-4.25 3.349v10.579c0 0.736 0.309 1.33 1.379 1.33h3.771c1.042 0 1.013-0.794 1.013-1.529v-6.769c0-1.289 0.425-2.548 4.25-2.548 0.478 0 0.646-0.312 0.646-0.651v-3.28c0-0.481-0.422-0.481-0.647-0.481z"></path>
<path fill="#999" d="M94.576 27.393h-3.77c-1.042 0-1.013 0.793-1.013 1.53v7.079c0 0.652-0.283 1.36-1.183 1.36-0.872 0-1.097-0.737-1.097-1.417v-7.362c0-0.708-0.675-1.19-1.379-1.19h-3.939c-0.788 0-1.097 0.737-1.097 1.53v9.202c0 3.624 2.135 4.531 4.077 4.531h7.28c1.069 0 3.499-0.588 3.499-4.576v-9.356c0.001-0.736-0.309-1.331-1.378-1.331z"></path>
<path fill="#999" d="M106.424 32.321c-0.843-0.396-1.379-0.708-1.379-0.962 0-0.481 0.422-0.651 1.379-0.651 0.928 0 2.645 0.31 3.153 0.339 0.758 0.028 1.321-3.54 0.787-3.738-0.423-0.17-1.294-0.481-4.248-0.481-3.714 0-7.569 1.359-7.569 4.785 0 3.342 2.842 4.445 4.671 5.239 0.846 0.369 1.52 0.651 1.52 1.047 0 0.595-0.703 0.765-1.942 0.765-2.337 0-3.377-0.369-3.996-0.51-0.845-0.199-0.591 3.823-0.309 3.964 0.619 0.313 3.705 0.907 6.275 0.907s6.641-0.565 6.641-4.983c-0.001-3.398-3.069-4.843-4.983-5.721z"></path>
<path fill="#999" d="M122.18 27.423h-1.773v-2.69c0-0.793 0-1.19-1.097-1.019l-3.236 0.537c-0.674 0.113-1.379 0.481-1.379 1.189v1.982h-1.040c-0.789 0-1.042 0.312-1.042 1.104v1.841c0 0.708 0.141 1.161 0.845 1.161h0.929c0 0 0 5.669 0 7.389 0 1.7 1.040 4.107 4.755 4.107 1.463 0 3.068-0.341 3.49-0.539 0.282-0.142-0.173-4.088-0.562-3.992-0.548 0.136-1.463-0.028-1.463-0.737v-6.146c0 0 1.161 0 1.717 0s0.756-0.262 0.756-1.186v-1.615c0-0.706-0.195-1.386-0.9-1.386z"></path>
<path fill="#999" d="M131.498 41.939c0 0.5-0.405 0.905-0.905 0.905h-4.353c-0.5 0-0.905-0.405-0.905-0.905v-19.472c0-0.5 0.405-0.905 0.905-0.905h4.353c0.5 0 0.905 0.405 0.905 0.905v19.472z"></path>
<path fill="#999" d="M148.999 27.391h-3.461c-0.562 0-1.096 0.567-1.322 1.133l-2.307 5.776-2.026-5.776c-0.197-0.566-0.76-1.133-1.323-1.133h-4.586c-0.872 0-1.125 0.341-0.872 0.992l5.572 13.876-2.111 5.039c-0.28 0.651-0.139 0.99 0.874 0.99h3.178c0.563 0 1.063-0.615 1.322-1.132l7.936-18.773c0.281-0.651 0.14-0.992-0.874-0.992z"></path>
<path fill="#0c0" d="M43.655 21.884l-4.621 0.013v-3.098c0-5.821-4.813-10.799-10.733-10.799s-10.705 4.978-10.705 10.799v3.098l-4.621-0.013c-2.969 0-3.375 1.522-2.567 4.21l3.049 13.739c0.549 2.135 1.299 2.779 3.768 2.779h22.18c2.469 0 3.219-0.644 3.768-2.779l3.049-13.739c0.808-2.688 0.401-4.21-2.567-4.21zM35.208 21.884h-13.786c0 0 0-1.384 0-3.399 0-3.45 2.734-6.941 6.893-6.95 4.159 0.009 6.893 3.5 6.893 6.95 0 2.015 0 3.399 0 3.399z"></path>
<path fill="#0c0" d="M25.389 47.724c0 2.366-1.918 4.284-4.284 4.284s-4.284-1.918-4.284-4.284c0-2.366 1.918-4.284 4.284-4.284s4.284 1.918 4.284 4.284z"></path>
<path fill="#0c0" d="M39.809 47.724c0 2.366-1.918 4.284-4.284 4.284s-4.284-1.918-4.284-4.284c0-2.366 1.918-4.284 4.284-4.284s4.284 1.918 4.284 4.284z"></path>
<path fill="#eee" d="M32.953 28.55c0 0.21 0 0.388-0.416 0.388h-2.162c-0.238 0-0.341 0.045-0.341 0.285v7.497c0 0.388-0.222 0.492-0.755 0.492h-2.135c-0.592 0-0.755-0.059-0.755-0.492v-7.497c0-0.24-0.104-0.285-0.34-0.285h-2.001c-0.414 0-0.414-0.178-0.414-0.388v-1.849c0-0.358 0.267-0.402 0.681-0.402h7.956c0.416 0 0.681 0.045 0.681 0.402l0.001 1.849z"></path>
</svg>
