<!-- Generated by IcoMoon.io -->
<svg version="1.1" xmlns="http://www.w3.org/2000/svg" width="160" height="60" viewBox="0 0 160 60">
<title>iconPay_Przelewy</title>
<path fill="#f33" d="M114.173 33.796l-5.494 10.738-1.941-10.738h-3.082l2.86 14.858-0.829 1.428c-0.517 0.831-1.256 0.96-2.808 0.78l-0.461 2.738c0 0 0.995 0.202 1.725 0.202 2.837 0 4.194-2.685 5.205-4.642l7.915-15.363h-3.090z"></path>
<path fill="#f33" d="M100.235 33.796l-4.467 10.376-1.059-10.376h-3.584l-4.466 10.376-1.026-10.376h-2.903l1.474 14.608h3.515l4.519-10.202 1.031 10.202h3.576l6.401-14.608z"></path>
<path fill="#f33" d="M66.558 28.141l-3.399 20.263h3.035l3.391-20.263z"></path>
<path fill="#f33" d="M53.077 42.1h9.866l0.572-3.617c0.293-2.641-0.356-4.922-5.895-4.922-5.155 0-6.567 2.567-6.991 4.819l-0.904 5.663c-0.308 2.383 0.726 4.639 5.418 4.639 6.687 0 6.983-3.050 7.59-5.23h-3.143c-0.364 1.478-0.567 2.401-3.578 2.401-3.399 0-3.362-0.739-3.159-2.364l0.224-1.389zM53.815 38.2c0.388-1.343 1.023-1.749 3.657-1.749s3.011 0.443 2.937 1.773l-0.102 1.049h-6.761l0.269-1.073z"></path>
<path fill="#f33" d="M71.698 42.1h9.866l0.572-3.617c0.293-2.641-0.356-4.922-5.895-4.922-5.155 0-6.567 2.567-6.991 4.819l-0.904 5.663c-0.308 2.383 0.726 4.639 5.418 4.639 6.687 0 6.983-3.050 7.59-5.23h-3.143c-0.364 1.478-0.567 2.401-3.578 2.401-3.399 0-3.362-0.739-3.159-2.364l0.224-1.389zM72.436 38.2c0.388-1.343 1.023-1.749 3.657-1.749s3.011 0.443 2.937 1.773l-0.102 1.049h-6.761l0.269-1.073z"></path>
<path fill="#f33" d="M50.89 33.796h-11.561l-0.462 2.883h7.393l-9.267 8.873-0.499 2.852h11.946l0.471-2.749h-8.111l9.667-9.229z"></path>
<path fill="#f33" d="M35.471 33.796c-1.22 0-2.371 0.481-3.356 1.020l0.173-1.020h-3.232l-2.588 14.608h3.234l1.434-8.093c0.299-1.642 1.521-3.632 3.919-3.632h1.672l0.503-2.883h-1.759z"></path>
<path fill="#f33" d="M22.195 28.146l-8.815-0.001-3.38 20.336 3.147 0.003 1.244-7.538h6.102c4.171 0 5.871-1.466 6.382-4.544l0.613-3.962c0.316-2.786-0.816-4.294-5.293-4.294zM24.26 32.903l-0.652 3.604c-0.2 1.015-0.973 1.462-3.598 1.462h-5.1l1.12-6.771h5.73c2.22 0 2.742 0.3 2.5 1.705z"></path>
<path fill="#999" d="M122.405 41.697l6.631-1.8c3.529-0.97 3.919-2.66 4.371-4.013s0.577-2.757 0.577-4.235c0-3.516-3.341-3.739-6.527-3.739-5.772 0-7.262 1.264-8.189 3.431-0.613 1.435-0.891 3.927-0.891 3.927l3.187 0.004 0.36-2.127c0.296-1.459 0.772-1.886 2.012-2.116s3.678-0.267 5.924 0.083c0.563 0.088 1.151 0.377 1.004 1.454l-0.264 1.94c-0.16 0.985-0.268 1.864-1.886 2.357l-6.788 1.886c-1.905 0.565-4.32 1.561-4.875 4.696l-0.878 4.959h15.236l0.509-2.952h-12.051l0.217-1.407c0.27-1.388 0.455-1.739 2.321-2.348z"></path>
<path fill="#999" d="M147.060 40.921l2.134-12.788h-3.78l-11.78 12.65-0.535 3.203h10.302l-0.754 4.419h3.16l0.746-4.419h2.919l0.528-3.065h-2.94zM143.913 40.921h-6.661l8.108-8.636-1.447 8.636z"></path>
<path fill="#999" d="M45.428 21.327c-4.489 2.609-8.559 5.461-12.133 8.485h9.24c2.435-2.196 5.133-4.224 8.061-6.044l-5.168-2.441z"></path>
<path fill="#999" d="M67.508 11.692c-6.449 2.027-12.48 4.525-17.975 7.38l4.235 2.857c4.476-2.42 9.412-4.369 14.707-5.722l-0.967-4.515z"></path>
<path fill="#999" d="M93.543 6.56c-5.924 0.485-12.048 1.462-18.252 2.968-1.45 0.352-2.882 0.728-4.297 1.126l0.848 4.783c6.527-1.314 12.961-1.591 19.027-0.955l2.674-7.922z"></path>
<path fill="#999" d="M128.018 10.001c-8.417-2.791-18.47-4.116-29.354-3.739l-4.314 8.692c5.401 0.9 10.45 2.543 14.941 4.833l18.727-9.786z"></path>
<path fill="#999" d="M135.366 13.020l-22.61 8.731c1.513 0.952 2.946 1.985 4.288 3.096h32.15c-3.023-4.803-7.784-8.79-13.828-11.827z"></path>
</svg>
