<?xml version="1.0" encoding="utf-8"?>
<!-- Generator: Adobe Illustrator 21.0.0, SVG Export Plug-In . SVG Version: 6.00 Build 0)  -->
<svg version="1.1" id="Social" xmlns="http://www.w3.org/2000/svg" xmlns:xlink="http://www.w3.org/1999/xlink" x="0px" y="0px"
	 width="70px" height="70px" viewBox="0 0 70 70" style="enable-background:new 0 0 70 70;" xml:space="preserve">
<style type="text/css">
	.st0{fill-rule:evenodd;clip-rule:evenodd;fill:#1165F5;}
	.st1{fill:#FD9E28;}
</style>
<g id="ico_x5F_Mailru">
	<circle id="_x30__4_" class="st0" cx="35" cy="35" r="35"/>
	<path id="logo_4_" class="st1" d="M42.4,35c0,4.1-3.3,7.4-7.4,7.4s-7.4-3.3-7.4-7.4s3.3-7.4,7.4-7.4S42.4,30.9,42.4,35 M35,10.5
		c-13.5,0-24.5,11-24.5,24.5s11,24.5,24.5,24.5c4.9,0,9.7-1.5,13.8-4.3l0.1,0l-3.3-3.8l-0.1,0c-3.1,2-6.8,3.1-10.5,3.1
		c-10.7,0-19.5-8.7-19.5-19.5S24.3,15.5,35,15.5S54.5,24.3,54.5,35c0,1.4-0.2,2.8-0.5,4.2c-0.6,2.5-2.4,3.3-3.7,3.2
		c-1.3-0.1-2.9-1.1-2.9-3.4v-1.9V35c0-6.8-5.6-12.4-12.4-12.4S22.6,28.2,22.6,35S28.2,47.4,35,47.4c3.3,0,6.4-1.3,8.8-3.7
		c1.4,2.1,3.6,3.5,6.1,3.7c0.2,0,0.4,0,0.7,0c1.8,0,3.5-0.6,5-1.7c1.5-1.1,2.6-2.7,3.2-4.7c0.1-0.3,0.3-1,0.3-1l0,0
		c0.4-1.6,0.5-3.1,0.5-5C59.5,21.5,48.5,10.5,35,10.5"/>
</g>
</svg>
