<?xml version="1.0" encoding="utf-8"?>
<!-- Generator: Adobe Illustrator 21.0.0, SVG Export Plug-In . SVG Version: 6.00 Build 0)  -->
<svg version="1.1" id="Social" xmlns="http://www.w3.org/2000/svg" xmlns:xlink="http://www.w3.org/1999/xlink" x="0px" y="0px"
	 width="70px" height="70px" viewBox="0 0 70 70" style="enable-background:new 0 0 70 70;" xml:space="preserve">
<style type="text/css">
	.st0{fill:#EC8225;}
	.st1{fill:#E8EBEF;}
</style>
<g id="ico_x5F_Ok">
	<circle id="_x30_" class="st0" cx="35" cy="35" r="35"/>
	<path id="logo_1_" class="st1" d="M26.2,26.2c0-4.9,3.9-8.8,8.8-8.8s8.8,3.9,8.8,8.8S39.9,35,35,35S26.2,31.1,26.2,26.2z
		 M39.4,26.2c0-2.4-1.9-4.4-4.4-4.4s-4.4,1.9-4.4,4.4s1.9,4.4,4.4,4.4S39.4,28.7,39.4,26.2z M42.9,39.5c-1.9,1.2-4.4,1.8-6.1,1.9
		l6.6,7c0.7,0.9,0.7,2.3,0,3c-0.7,0.7-2.1,1.2-3.1,0.2L35,46l-5.2,5.6c-1.1,1-2.3,0.5-3.1-0.2c-0.9-0.7-0.7-2.3,0-3
		c1.4-1.4,6.6-7,6.6-7c-1.8-0.2-4.2-0.7-6.1-1.9c-2.3-1.6-3.1-2.4-2.3-4.2c0.5-1.1,1.9-1.9,3.7-0.4c3,2.6,9.8,2.8,13,0
		c1.8-1.6,3.1-0.7,3.7,0.4C46,37.1,45.1,38,42.9,39.5z"/>
</g>
</svg>
