<?xml version="1.0" encoding="utf-8"?>
<!-- Generator: Adobe Illustrator 21.0.0, SVG Export Plug-In . SVG Version: 6.00 Build 0)  -->
<svg version="1.1" id="Social" xmlns="http://www.w3.org/2000/svg" xmlns:xlink="http://www.w3.org/1999/xlink" x="0px" y="0px"
	 width="70px" height="70px" viewBox="0 0 70 70" style="enable-background:new 0 0 70 70;" xml:space="preserve">
<style type="text/css">
	.st0{fill:#B5C0CB;}
	.st1{fill:#1074AE;}
</style>
<g id="ico_x5F_Linkedin">
	<circle id="_x30__16_" class="st0" cx="35" cy="35" r="35"/>
	<path id="logo_14_" class="st1" d="M52.1,15H17.9c-1.6,0-2.9,1.3-2.9,2.9v34.2c0,1.6,1.3,2.9,2.9,2.9h34.2c1.6,0,2.9-1.3,2.9-2.9
		V17.9C55,16.3,53.7,15,52.1,15z M29.2,45.2h-4.9V30.6h4.9V45.2z M26.8,28.6L26.8,28.6c-1.7,0-2.7-1.1-2.7-2.5
		c0-1.4,1.1-2.5,2.8-2.5s2.7,1.1,2.7,2.5C29.5,27.5,28.5,28.6,26.8,28.6z M46.8,45.2h-4.9v-7.8c0-2-0.7-3.3-2.5-3.3
		c-1.3,0-2.1,0.9-2.5,1.8c-0.1,0.3-0.2,0.8-0.2,1.2v8.2h-4.9c0,0,0.1-13.3,0-14.7h4.9v2.1c0.6-1,1.8-2.4,4.4-2.4
		c3.2,0,5.6,2.1,5.6,6.6V45.2z"/>
</g>
</svg>
