<?xml version="1.0" encoding="utf-8"?>
<!-- Generator: Adobe Illustrator 21.0.0, SVG Export Plug-In . SVG Version: 6.00 Build 0)  -->
<svg version="1.1" id="Social" xmlns="http://www.w3.org/2000/svg" xmlns:xlink="http://www.w3.org/1999/xlink" x="0px" y="0px"
	 width="70px" height="70px" viewBox="0 0 70 70" style="enable-background:new 0 0 70 70;" xml:space="preserve">
<style type="text/css">
	.st0{fill:#2CBDA5;}
	.st1{fill:#E8EBEF;}
</style>
<g id="ico_x5F_Whatsapp">
	<circle id="_x30__14_" class="st0" cx="35" cy="35" r="35"/>
	<path id="logo_15_" class="st1" d="M49.2,20.7c-3.8-3.8-8.8-5.8-14.1-5.8c-11,0-19.9,8.9-19.9,19.9c0,3.5,0.9,6.9,2.7,10L15,55.1
		l10.6-2.8c2.9,1.6,6.2,2.4,9.5,2.4h0c11,0,19.9-8.9,19.9-19.9C55,29.5,52.9,24.5,49.2,20.7z M35.1,51.4L35.1,51.4
		c-3,0-5.9-0.8-8.4-2.3L26,48.7l-6.3,1.6l1.7-6.1l-0.4-0.6c-1.7-2.6-2.5-5.7-2.5-8.8c0-9.1,7.4-16.6,16.6-16.6
		c4.4,0,8.6,1.7,11.7,4.9c3.1,3.1,4.8,7.3,4.8,11.7C51.6,44,44.2,51.4,35.1,51.4z M44.2,39c-0.5-0.2-2.9-1.5-3.4-1.6
		c-0.5-0.2-0.8-0.2-1.1,0.2c-0.3,0.5-1.3,1.6-1.6,2c-0.3,0.3-0.6,0.4-1.1,0.1c-0.5-0.2-2.1-0.8-4-2.5c-1.5-1.3-2.5-2.9-2.8-3.4
		c-0.3-0.5,0-0.7,0.2-1c0.5-0.7,1.1-1.4,1.2-1.7c0.2-0.3,0.1-0.6,0-0.9c-0.1-0.2-1.1-2.7-1.5-3.7c-0.4-1-0.8-0.8-1.1-0.9
		c-0.3,0-0.6,0-1,0c-0.3,0-0.9,0.1-1.3,0.6c-0.5,0.5-1.7,1.7-1.7,4.2s1.8,4.8,2,5.1s3.5,5.4,8.5,7.5c1.2,0.5,2.1,0.8,2.8,1
		c1.2,0.4,2.3,0.3,3.1,0.2c1-0.1,2.9-1.2,3.4-2.4c0.4-1.2,0.4-2.2,0.3-2.4C45,39.4,44.7,39.2,44.2,39z"/>
</g>
</svg>
