<?xml version="1.0" encoding="utf-8"?>
<!-- Generator: Adobe Illustrator 21.0.0, SVG Export Plug-In . SVG Version: 6.00 Build 0)  -->
<svg version="1.1" id="Social" xmlns="http://www.w3.org/2000/svg" xmlns:xlink="http://www.w3.org/1999/xlink" x="0px" y="0px"
	 width="70px" height="70px" viewBox="0 0 70 70" style="enable-background:new 0 0 70 70;" xml:space="preserve">
<style type="text/css">
	.st0{fill:#2188D6;}
	.st1{fill:#E8EBEF;}
</style>
<g id="ico_x5F_Skype">
	<circle id="_x30__8_" class="st0" cx="35" cy="35" r="35"/>
	<path id="logo_8_" class="st1" d="M54.3,37.9c0.2-0.9,0.3-2,0.3-3c0-10.7-8.7-19.5-19.6-19.5c-1.1,0-2.1,0.2-3,0.3
		c-1.7-1.1-3.9-1.7-6.2-1.7C19.4,14,14,19.2,14,25.8c0,2.2,0.6,4.4,1.7,6.1c-0.2,0.9-0.3,2-0.3,3c0,10.7,8.7,19.5,19.6,19.5
		c1.1,0,2.1-0.2,3-0.2c1.7,1.1,3.9,1.7,6.2,1.7C50.6,56,56,50.8,56,44.2C56,41.8,55.4,39.8,54.3,37.9z M44.3,43.7
		c-0.8,1.3-2.1,2-3.6,2.8c-1.6,0.6-3.5,0.9-5.7,0.9c-2.5,0-4.7-0.5-6.5-1.4c-1.3-0.6-2.2-1.6-3-2.7c-0.8-1.1-1.1-2.2-1.1-3.1
		c0-0.6,0.2-1.1,0.6-1.6s1.1-0.6,1.7-0.6s1.1,0.2,1.4,0.5c0.5,0.3,0.8,0.8,0.9,1.6c0.3,0.8,0.6,1.4,1.1,1.9c0.3,0.5,0.9,0.9,1.6,1.3
		c0.6,0.3,1.6,0.5,2.7,0.5c1.6,0,2.8-0.3,3.8-0.9c0.9-0.6,1.4-1.4,1.4-2.5c0-0.8-0.3-1.4-0.8-1.9c-0.5-0.5-1.3-0.9-2.1-1.1
		c-0.8-0.3-1.9-0.5-3.3-0.8c-1.9-0.5-3.5-0.9-4.7-1.4c-1.3-0.6-2.4-1.3-3-2.2c-0.8-0.9-1.1-2.2-1.1-3.6s0.5-2.5,1.3-3.6
		c0.8-1.1,1.9-1.9,3.5-2.4c1.6-0.6,3.3-0.8,5.4-0.8c1.6,0,3,0.2,4.3,0.6c1.1,0.3,2.2,0.9,3,1.4c0.8,0.6,1.4,1.3,1.7,1.9
		c0.3,0.6,0.5,1.4,0.5,2c0,0.6-0.2,1.1-0.6,1.6c-0.5,0.5-1.1,0.8-1.7,0.8c-0.6,0-1.1-0.2-1.4-0.5c-0.3-0.3-0.6-0.8-1.1-1.4
		c-0.5-0.9-1.1-1.6-1.7-2c-0.6-0.5-1.7-0.8-3.2-0.8c-1.4,0-2.5,0.3-3.3,0.8c-0.8,0.5-1.3,1.3-1.3,1.9c0,0.5,0.2,0.8,0.5,1.3
		c0.3,0.3,0.6,0.6,1.1,0.9c0.5,0.3,0.9,0.5,1.6,0.6c0.5,0.2,1.4,0.3,2.5,0.6c1.4,0.3,2.8,0.6,4.1,1.1c1.3,0.3,2.2,0.8,3,1.4
		c0.8,0.6,1.6,1.3,2.1,2.2c0.5,0.8,0.8,1.9,0.8,3.1C45.6,41.2,45.1,42.6,44.3,43.7z"/>
</g>
</svg>
