<?xml version="1.0" encoding="utf-8"?>
<!-- Generator: Adobe Illustrator 21.0.0, SVG Export Plug-In . SVG Version: 6.00 Build 0)  -->
<svg version="1.1" id="Social" xmlns="http://www.w3.org/2000/svg" xmlns:xlink="http://www.w3.org/1999/xlink" x="0px" y="0px"
	 width="70px" height="70px" viewBox="0 0 70 70" style="enable-background:new 0 0 70 70;" xml:space="preserve">
<style type="text/css">
	.st0{fill:#B5C0CB;}
	.st1{fill:#FBBB00;}
	.st2{fill:#518EF8;}
	.st3{fill:#28B446;}
	.st4{fill:#F14336;}
</style>
<g id="ico_x5F_Google">
	<circle id="_x30__7_" class="st0" cx="35" cy="35" r="35"/>
	<g id="logo_7_">
		<path class="st1" d="M22.3,39.7l-1.6,5.9L15,45.8c-1.7-3.2-2.7-6.9-2.7-10.8c0-3.8,0.9-7.3,2.5-10.5h0l5.2,0.9l2.3,5.1
			c-0.5,1.4-0.7,2.9-0.7,4.4C21.5,36.7,21.8,38.3,22.3,39.7z"/>
		<path class="st2" d="M57.4,30.8c0.3,1.4,0.4,2.8,0.4,4.2c0,1.6-0.2,3.2-0.5,4.8c-1.1,5.2-4,9.8-8,13l0,0l-6.5-0.3l-0.9-5.7
			c2.7-1.6,4.7-4,5.8-6.9H35.5v-9h12.3H57.4L57.4,30.8z"/>
		<path class="st3" d="M49.2,52.7L49.2,52.7c-3.9,3.1-8.9,5-14.2,5c-8.7,0-16.2-4.8-20-12l7.4-6c1.9,5.1,6.9,8.8,12.7,8.8
			c2.5,0,4.8-0.7,6.8-1.9L49.2,52.7z"/>
		<path class="st4" d="M49.5,17.5l-7.4,6c-2.1-1.3-4.5-2-7.2-2c-5.9,0-11,3.8-12.8,9.1l-7.4-6.1h0c3.8-7.3,11.4-12.3,20.2-12.3
			C40.5,12.2,45.6,14.2,49.5,17.5z"/>
	</g>
</g>
</svg>
