<?xml version="1.0" encoding="utf-8"?>
<!-- Generator: Adobe Illustrator 21.0.0, SVG Export Plug-In . SVG Version: 6.00 Build 0)  -->
<svg version="1.1" id="Social" xmlns="http://www.w3.org/2000/svg" xmlns:xlink="http://www.w3.org/1999/xlink" x="0px" y="0px"
	 width="70px" height="70px" viewBox="0 0 70 70" style="enable-background:new 0 0 70 70;" xml:space="preserve">
<style type="text/css">
	.st0{fill:#B5C0CB;}
	.st1{fill:#31373A;}
</style>
<g id="ico_x5F_Phone">
	<circle id="_x30__12_" class="st0" cx="35" cy="35" r="35"/>
	<path id="logo_12_" class="st1" d="M45.4,41.5c-1.3-1.3-2.9-1.3-4.3,0c-0.9,0.9-2,2-2.9,2.9c-0.3,0.3-0.5,0.3-0.8,0.1
		c-0.7-0.4-1.3-0.7-2-1.1c-2.9-1.9-5.3-4.1-7.5-6.8c-1.1-1.3-2-2.7-2.7-4.3c-0.1-0.3-0.1-0.5,0.1-0.8c0.9-0.9,2-2,2.9-2.9
		c1.3-1.3,1.3-2.9,0-4.4c-0.8-0.8-1.6-1.6-2.3-2.3c-0.8-0.8-1.6-1.6-2.4-2.4c-1.3-1.3-2.9-1.3-4.3,0c-0.9,0.9-2,2-2.9,2.9
		c-0.9,0.9-1.5,2-1.5,3.2c-0.1,2.1,0.4,4,1.1,6c1.5,4,3.7,7.5,6.4,10.7c3.6,4.4,8,7.7,13.1,10.3c2.3,1.1,4.7,2,7.3,2.1
		c1.7,0.1,3.3-0.4,4.5-1.7c0.8-0.9,1.9-1.9,2.7-2.7c1.3-1.3,1.3-2.9,0-4.3C48.6,44.7,47,43.1,45.4,41.5z M43.8,35l3.1-0.5
		C46.3,31.7,45,29.1,43,27c-2.1-2.1-4.8-3.5-7.9-3.9l-0.4,3.1c2.3,0.3,4.4,1.3,6,3.1C42.5,30.7,43.4,32.7,43.8,35z M48.6,21.7
		c-3.6-3.6-8-5.7-12.9-6.5l-0.4,3.1c4.3,0.5,8.1,2.5,11.2,5.6c2.9,2.9,4.8,6.5,5.5,10.7l3.1-0.5C54.2,29.3,51.9,25,48.6,21.7z"/>
</g>
</svg>
