<?xml version="1.0" encoding="utf-8"?>
<!-- Generator: Adobe Illustrator 21.0.0, SVG Export Plug-In . SVG Version: 6.00 Build 0)  -->
<svg version="1.1" id="Social" xmlns="http://www.w3.org/2000/svg" xmlns:xlink="http://www.w3.org/1999/xlink" x="0px" y="0px"
	 width="70px" height="70px" viewBox="0 0 70 70" style="enable-background:new 0 0 70 70;" xml:space="preserve">
<style type="text/css">
	.st0{fill:#B5C0CB;}
	.st1{fill:#31373A;}
</style>
<g id="ico_x5F_icq">
	<circle id="_x30__11_" class="st0" cx="35" cy="35" r="35"/>
	<path id="logo_11_" class="st1" d="M54.6,34.4c-1-2.3-2.2-3-3.7-4.1c-0.6-0.3-1-0.8-1.4-1.3c-0.2-0.3-0.3-0.6-0.3-0.9
		c0-0.4,0.1-0.8,0.2-1.1c0.5-1.5,0.8-3.1,0.8-4.7c0-2.2-0.9-5.8-3.6-5.8c-0.4,0-0.8,0-1.1,0.2c-0.7,0.3-1.2,0.7-1.6,1.2
		c-0.6,0.6-2.2,3.1-2.7,3.3c-0.1,0-0.3,0-0.3,0c-1.9-0.6-3.8-1-5.8-1c-2,0-3.9,0.3-5.8,1c-0.1,0-0.3,0-0.3,0
		c-0.6-0.2-2.2-2.7-2.7-3.3c-0.4-0.5-1-0.9-1.6-1.2c-0.4-0.1-0.8-0.2-1.2-0.2c-2.8,0-3.7,3.6-3.7,5.8c0,1.6,0.3,3.2,0.8,4.7
		c0.1,0.4,0.2,0.7,0.2,1.1c0,0.3-0.1,0.6-0.3,0.9c-0.4,0.5-0.9,1-1.4,1.3c-1.5,1.1-2.7,1.9-3.7,4.1c-0.3,0.7-0.4,1.4-0.4,2.1
		c0,1.2,0.4,2.3,1.1,3.5c1.4,2.8,4.2,6.1,6.1,7.7c3.7,3.3,8.3,5.6,12.4,5.8h0.9c4-0.3,8.7-2.6,12.4-5.8c1.9-1.7,4.7-4.9,6.1-7.7
		c0.6-1.3,1.1-2.3,1.1-3.5C55,35.8,54.9,35.1,54.6,34.4L54.6,34.4z M44.9,22c0.6-0.7,1.9-1.5,2.7-1c1,0.6,0.8,2.6,0.7,3.6
		c-0.1,0.6-0.3,1.2-0.6,1.8c-0.2,0.5-0.4,1-0.6,1.5c-1-0.7-1.9-1.6-2.6-2.6C43.8,24.1,44,22.9,44.9,22L44.9,22z M42.6,26.8
		c1.1,0.7,1.8,1.8,1.9,3.1c0,0.5-0.1,1-0.4,1.3c-0.2,0.2-0.4,0.3-0.7,0.3c0.7-0.9,0.6-2-0.1-2.9c-0.4-0.5-1-0.8-1.6-0.9
		c-1.6,0-2.6,1.2-2.6,2.7c-0.2-0.3-0.3-0.5-0.4-0.8c-0.3-1-0.2-2.3,0.5-2.9C40.1,26.1,41.7,26.3,42.6,26.8L42.6,26.8z M30.3,22.7
		c0.2-0.2,0.4-0.4,0.7-0.4c1.3-0.3,2.6-0.6,3.9-0.6h0.2c1.3,0,2.7,0.2,3.9,0.6c0.3,0,0.5,0.2,0.7,0.4c0,0.1,0,0.2,0,0.3
		c-0.3,0.4-0.8,0.8-1.2,1.1c-1.4,1.2-2.3,2.1-2.8,4c-0.3,1-0.2,2,0.1,2.9c0.5,1.5,1.6,2.4,2.1,3.8c0.3,0.7,0.3,1.4,0.1,2.1
		c-0.5,1-1.9,1.2-2.9,1.2H35c-1,0-2.4-0.2-2.9-1.2c-0.3-0.7-0.2-1.4,0.1-2.1c0.5-1.4,1.6-2.3,2.1-3.8c0.3-1,0.3-2,0.1-2.9
		c-0.5-1.9-1.4-2.8-2.8-4c-0.4-0.3-0.9-0.7-1.2-1.1C30.2,22.9,30.2,22.8,30.3,22.7L30.3,22.7z M27.4,26.8c0.9-0.6,2.5-0.7,3.4,0
		c0.8,0.7,0.9,1.9,0.5,2.9c-0.1,0.3-0.2,0.6-0.4,0.8c0-1.5-1-2.8-2.6-2.7c-0.7,0-1.3,0.3-1.6,0.9c-0.7,0.8-0.7,2-0.1,2.9
		c-0.3,0-0.5-0.1-0.7-0.3c-0.3-0.4-0.4-0.9-0.4-1.3C25.5,28.6,26.3,27.5,27.4,26.8z M22.4,21c0.9-0.5,2.2,0.3,2.7,1
		c0.9,1,1.1,2.2,0.4,3.3c-0.7,1-1.6,1.9-2.6,2.6c-0.2-0.6-0.4-1.1-0.6-1.5c-0.3-0.6-0.4-1.2-0.6-1.8C21.6,23.6,21.5,21.6,22.4,21
		L22.4,21z M53,37.4c-0.6,1.7-2.6,4.5-4.1,6.4c-1.6,2-3.6,3.7-5.8,5.1c-2.2,1.3-5.4,2.6-8.1,2.7c-2.6-0.1-5.9-1.4-8.1-2.7
		s-4.2-3-5.8-5.1c-1.6-1.9-3.5-4.6-4.1-6.4c-0.3-0.7-0.3-1.5,0-2.2c0.5-1.3,1.3-2.3,2.5-3.1c0.3-0.3,0.7-0.4,1.1-0.4
		c0.9,0.1,1.3,1.3,1.7,2c-0.2,0.2-0.5,0.4-0.7,0.7c-1.5,1.6-1.3,3.7-0.3,5.6c1.3,2.6,3.7,5.2,5.9,7.1c-1.5-3.6-1-8.2,2.8-10.4
		c-0.4,4.5,9.9,5.2,10.2,0c3.7,2.1,4.3,6.7,2.8,10.4c2.2-1.9,4.6-4.5,5.9-7.1c0.9-2,1.1-4-0.3-5.6c-0.2-0.3-0.5-0.4-0.7-0.7
		c0.3-0.7,0.8-1.9,1.7-2c0.4,0,0.8,0.1,1.1,0.4c1.1,0.8,2,1.9,2.5,3.1C53.2,35.9,53.2,36.7,53,37.4z M38.5,43.4
		c-0.4,0.1-0.9,0.2-1.3,0.2c-0.7,0-1.3-0.4-1.6-1c0-0.1-0.2-0.1-0.5-0.1h-0.2c-0.3,0-0.4,0-0.5,0.1c-0.3,0.6-1,1-1.6,1
		c-0.4,0-0.9,0-1.3-0.2c-1.5-0.5-1.6-0.7-3.2-0.7c1.5,3.5,3.9,6.2,6.7,6.2H35c2.7,0,5.1-2.6,6.7-6.2C40.1,42.7,40,42.9,38.5,43.4
		L38.5,43.4z M34.6,48.2c-0.3,0-0.6-0.1-0.8-0.2c-0.3,0-0.5-0.2-0.7-0.3c-0.1-0.1-0.2-0.2-0.3-0.3c-0.4-0.9-0.7-1.9-1-2.9
		c1,0.1,2-0.1,2.8-0.7L34.6,48.2z M37.2,47.3c0,0.1-0.2,0.3-0.3,0.3c-0.2,0.1-0.5,0.3-0.7,0.3c-0.3,0.1-0.6,0.2-0.8,0.2v-4.3
		c0.8,0.6,1.8,0.8,2.8,0.7C37.9,45.5,37.6,46.4,37.2,47.3z"/>
</g>
</svg>
