<?xml version="1.0" encoding="utf-8"?>
<!-- Generator: Adobe Illustrator 21.0.0, SVG Export Plug-In . SVG Version: 6.00 Build 0)  -->
<svg version="1.1" id="Social" xmlns="http://www.w3.org/2000/svg" xmlns:xlink="http://www.w3.org/1999/xlink" x="0px" y="0px"
	 width="70px" height="70px" viewBox="0 0 70 70" style="enable-background:new 0 0 70 70;" xml:space="preserve">
<style type="text/css">
	.st0{fill:#2AA3EF;}
	.st1{fill:#E8EBEF;}
</style>
<g id="ico_x5F_Twitter">
	<circle id="_x30__6_" class="st0" cx="35" cy="35" r="35"/>
	<path id="logo_6_" class="st1" d="M58.3,20.8c-1.7,0.7-3.6,1.3-5.5,1.5c2-1.2,3.5-3,4.2-5.2c-1.9,1.1-3.9,1.9-6.1,2.3
		c-1.7-1.8-4.2-3-7-3c-5.3,0-9.6,4.2-9.6,9.4c0,0.7,0.1,1.5,0.2,2.1c-8-0.4-15-4.1-19.7-9.9c-3.3,6.3,0.4,10.9,3,12.6
		c-1.6-0.1-3-0.5-4.3-1.2v0.1c0,4.6,3.3,8.4,7.7,9.2C20.4,39,19,39.4,16.9,39c1.2,3.7,4.8,6.5,8.9,6.5c-3.3,2.5-8.3,4.5-14.2,3.9
		c4.2,2.7,9.3,4.2,14.7,4.2c21.3,0,28.1-19.4,27.2-28C55.3,24.3,57.1,22.6,58.3,20.8z"/>
</g>
</svg>
