<?xml version="1.0" encoding="utf-8"?>
<!-- Generator: Adobe Illustrator 21.0.0, SVG Export Plug-In . SVG Version: 6.00 Build 0)  -->
<svg version="1.1" id="Social" xmlns="http://www.w3.org/2000/svg" xmlns:xlink="http://www.w3.org/1999/xlink" x="0px" y="0px"
	 width="70px" height="70px" viewBox="0 0 70 70" style="enable-background:new 0 0 70 70;" xml:space="preserve">
<style type="text/css">
	.st0{fill:#FC0D1B;}
	.st1{fill:#E8EBEF;}
</style>
<g id="ico_x5F_Youtube">
	<circle id="_x30__10_" class="st0" cx="35" cy="35" r="35"/>
	<path id="logo_10_" class="st1" d="M54.2,25.4c-0.5-1.7-1.8-3.1-3.5-3.5C47.5,21,35,21,35,21s-12.5,0-15.7,0.8
		c-1.7,0.5-3.1,1.8-3.5,3.6C15,28.5,15,35,15,35s0,6.5,0.8,9.6c0.5,1.7,1.8,3.1,3.5,3.5C22.5,49,35,49,35,49s12.5,0,15.7-0.8
		c1.7-0.5,3.1-1.8,3.5-3.5C55,41.5,55,35,55,35S55,28.5,54.2,25.4z M31,41V29l10.4,6L31,41z"/>
</g>
</svg>
