<?xml version="1.0" encoding="utf-8"?>
<!-- Generator: Adobe Illustrator 21.0.0, SVG Export Plug-In . SVG Version: 6.00 Build 0)  -->
<svg version="1.1" id="Social" xmlns="http://www.w3.org/2000/svg" xmlns:xlink="http://www.w3.org/1999/xlink" x="0px" y="0px"
	 width="70px" height="70px" viewBox="0 0 70 70" style="enable-background:new 0 0 70 70;" xml:space="preserve">
<style type="text/css">
	.st0{fill:#30A3E6;}
	.st1{fill:#E8EBEF;}
</style>
<g id="ico_x5F_Telegram">
	<circle id="_x30__1_" class="st0" cx="35" cy="35" r="35"/>
	<path id="logo" class="st1" d="M51.6,15.9L13.1,30.6c-1.2,0.5-1.2,2.3,0.2,2.6l9.8,2.8l3.7,11.4c0.4,1.2,1.9,1.6,2.8,0.7l5.1-5.1
		l10,7.2c1.2,0.9,3,0.2,3.3-1.2l6.3-31C54.6,16.6,53,15.4,51.6,15.9L51.6,15.9z M46.7,22.8L28.9,38.3c-0.2,0.2-0.4,0.3-0.4,0.5
		L27.8,45c0,0.2-0.3,0.2-0.3,0L24.7,36c-0.2-0.3,0-0.9,0.3-1L46,22C46.7,21.7,47.2,22.4,46.7,22.8L46.7,22.8z"/>
</g>
</svg>
