<?xml version="1.0" encoding="utf-8"?>
<!-- Generator: Adobe Illustrator 21.0.0, SVG Export Plug-In . SVG Version: 6.00 Build 0)  -->
<svg version="1.1" id="Social" xmlns="http://www.w3.org/2000/svg" xmlns:xlink="http://www.w3.org/1999/xlink" x="0px" y="0px"
	 width="70px" height="70px" viewBox="0 0 70 70" style="enable-background:new 0 0 70 70;" xml:space="preserve">
<style type="text/css">
	.st0{fill:#993399;}
	.st1{fill:#E8EBEF;}
</style>
<g id="ico_x5F_Instagram">
	<circle id="_x30__5_" class="st0" cx="35" cy="35" r="35"/>
	<path id="logo_5_" class="st1" d="M43.9,15.2H26.1c-5.9,0-11,4.9-11,11v17.9c0,5.9,4.9,11,11,11h17.8c6,0,11-4.9,11-11v-18
		C54.8,20.1,49.9,15.2,43.9,15.2z M51.3,43.9c0,4-3.3,7.3-7.4,7.3H26.1c-4,0-7.3-3.3-7.3-7.4V26.1c0-4,3.3-7.3,7.3-7.3h17.8
		c4,0,7.4,3.3,7.4,7.3V43.9L51.3,43.9z M35,24.9c-5.6,0-10.1,4.5-10.1,10.1S29.4,45.1,35,45.1S45.1,40.6,45.1,35S40.6,24.9,35,24.9z
		 M35,41.6c-3.7,0-6.6-3-6.6-6.6c0-3.7,3-6.6,6.6-6.6s6.6,3,6.6,6.6S38.7,41.6,35,41.6z M47.4,22.6c0.3,0.4,0.7,1.1,0.7,1.8
		c0,0.5-0.2,1.2-0.7,1.8c-0.3,0.4-1,0.7-1.8,0.7c-0.5,0-1.2-0.2-1.8-0.7c-0.3-0.3-0.7-1.1-0.7-1.8c0-0.5,0.2-1.2,0.7-1.8
		c0.4-0.3,1.1-0.7,1.8-0.7C46.4,21.9,47.1,22.1,47.4,22.6z"/>
</g>
</svg>
