<?xml version="1.0" encoding="utf-8"?>
<!-- Generator: Adobe Illustrator 21.0.0, SVG Export Plug-In . SVG Version: 6.00 Build 0)  -->
<svg version="1.1" id="Social" xmlns="http://www.w3.org/2000/svg" xmlns:xlink="http://www.w3.org/1999/xlink" x="0px" y="0px"
	 width="70px" height="70px" viewBox="0 0 70 70" style="enable-background:new 0 0 70 70;" xml:space="preserve">
<style type="text/css">
	.st0{fill:#4C77A6;}
	.st1{fill:#E8EBEF;}
</style>
<g id="ico_x5F_Vkontakte">
	<circle id="_x30__3_" class="st0" cx="35" cy="35" r="35"/>
	<path id="logo_3_" class="st1" d="M56.8,23.2c0.2-1.1,0-1.8-1.6-1.8h-5c-1.4,0-1.8,0.7-2.1,1.4c0,0-2.5,6.2-6.2,10.3
		c-1.1,1.1-1.6,1.6-2.3,1.6c-0.2,0-0.7-0.5-0.7-1.4V23.2c0-1.4-0.5-1.8-1.4-1.8h-7.8c-0.7,0-1.4,0.7-1.4,1.1c0,1.1,1.8,1.6,2.1,5
		v7.3c0,1.6-0.2,1.8-0.9,1.8c-1.6,0-5.7-6.2-8.2-13.5c-0.5-1.4-0.9-2.1-2.3-2.1h-5c-1.4,0-1.6,0.7-1.6,1.4c0,1.4,1.6,8,8,16.7
		c4.1,5.9,10.1,9.2,15.3,9.2c3.2,0,3.7-0.7,3.7-2.1v-4.6c0-1.4,0.2-1.8,1.4-1.8c0.7,0,2.1,0.5,5,3.2c3.4,3.4,3.9,5,5.9,5h5
		c1.4,0,2.1-0.7,1.8-2.1c-0.9-3-6.2-8-7.8-9.6c-0.7-0.9-0.5-1.4,0-2.3C49.9,34.9,56.1,26.2,56.8,23.2z"/>
</g>
</svg>
