<?xml version="1.0" encoding="utf-8"?>
<!-- Generator: Adobe Illustrator 21.0.0, SVG Export Plug-In . SVG Version: 6.00 Build 0)  -->
<svg version="1.1" id="Social" xmlns="http://www.w3.org/2000/svg" xmlns:xlink="http://www.w3.org/1999/xlink" x="0px" y="0px"
	 width="70px" height="70px" viewBox="0 0 70 70" style="enable-background:new 0 0 70 70;" xml:space="preserve">
<style type="text/css">
	.st0{fill:#665EAA;}
	.st1{fill:#E8EBEF;}
</style>
<g id="ico_x5F_Viber">
	<circle id="_x30__13_" class="st0" cx="35" cy="35" r="35"/>
	<path id="logo_13_" class="st1" d="M54.1,25.3L54.1,25.3c-1-3.9-5.3-8.1-9.3-9l0,0c-6.5-1.2-13-1.2-19.5,0l0,0
		c-4,0.9-8.3,5.1-9.3,9l0,0c-1.2,5.4-1.2,11,0,16.4l0,0c0.9,3.7,5,7.7,8.8,8.8v4.4c0,1.6,1.9,2.4,3,1.2l4.4-4.6
		c1,0.1,1.9,0.1,2.9,0.1c3.3,0,6.5-0.3,9.7-0.9l0,0c4-0.9,8.3-5.1,9.3-9l0,0C55.3,36.2,55.3,30.7,54.1,25.3z M50.6,40.9
		c-0.6,2.5-3.9,5.7-6.6,6.3c-3.4,0.7-6.9,0.9-10.4,0.8c-0.1,0-0.1,0-0.2,0.1c-0.5,0.5-3.2,3.3-3.2,3.3l-3.4,3.5
		c-0.3,0.3-0.7,0.1-0.7-0.3v-7.2c0-0.1-0.1-0.2-0.2-0.2c0,0,0,0,0,0c-2.6-0.6-5.9-3.7-6.6-6.3c-1.1-4.9-1.1-9.9,0-14.8
		c0.6-2.5,3.9-5.7,6.6-6.3c6-1.1,12.1-1.1,18.1,0c2.6,0.6,5.9,3.7,6.6,6.3C51.7,31,51.7,36,50.6,40.9z M40.7,44.2
		c-0.4-0.1-0.8-0.2-1.1-0.4c-3.7-1.5-7.1-3.5-9.8-6.6c-1.5-1.7-2.7-3.7-3.7-5.7c-0.5-1-0.9-2-1.3-3c-0.4-0.9,0.2-1.9,0.8-2.6
		c0.5-0.7,1.3-1.1,2-1.5c0.6-0.3,1.2-0.1,1.6,0.4c0.9,1.1,1.8,2.2,2.5,3.5c0.4,0.8,0.3,1.7-0.5,2.3c-0.2,0.1-0.4,0.3-0.5,0.4
		c-0.2,0.1-0.3,0.3-0.4,0.4c-0.2,0.3-0.2,0.7-0.1,1c1,2.6,2.6,4.7,5.3,5.8c0.4,0.2,0.9,0.4,1.3,0.3c0.8-0.1,1.1-1,1.7-1.5
		c0.6-0.5,1.3-0.5,1.9-0.1c0.6,0.4,1.2,0.8,1.8,1.2c0.6,0.4,1.1,0.8,1.7,1.3c0.5,0.4,0.7,1,0.4,1.6c-0.5,1.1-1.3,2-2.4,2.6
		C41.4,44.1,41.1,44.1,40.7,44.2C40.3,44.1,41.1,44.1,40.7,44.2z M35,23.2c4.8,0.1,8.8,3.3,9.7,8.1c0.1,0.8,0.2,1.6,0.3,2.5
		c0,0.3-0.2,0.7-0.5,0.7c-0.4,0-0.6-0.3-0.6-0.7c0-0.7-0.1-1.4-0.2-2.1c-0.5-3.6-3.4-6.6-7-7.2c-0.5-0.1-1.1-0.1-1.6-0.2
		c-0.3,0-0.8-0.1-0.9-0.5c-0.1-0.4,0.2-0.6,0.6-0.7C34.8,23.2,34.9,23.2,35,23.2C39.9,23.4,34.9,23.2,35,23.2z M42.4,32.8
		c0,0.1,0,0.2,0,0.3c-0.1,0.5-0.9,0.5-1,0.1c-0.1-0.1-0.1-0.3-0.1-0.5c0-1-0.2-2-0.7-2.9c-0.5-0.9-1.3-1.7-2.3-2.2
		c-0.6-0.3-1.2-0.5-1.8-0.6c-0.3,0-0.6-0.1-0.8-0.1c-0.3,0-0.5-0.3-0.5-0.6c0-0.3,0.2-0.5,0.6-0.5c1.1,0.1,2.2,0.3,3.2,0.8
		c2,1.1,3.2,2.7,3.5,5c0,0.1,0,0.2,0,0.3C42.3,32.2,42.3,32.4,42.4,32.8C42.4,32.8,42.3,32.4,42.4,32.8z M39.4,32.6
		c-0.4,0-0.6-0.2-0.7-0.6c0-0.3-0.1-0.5-0.1-0.8c-0.1-0.5-0.4-1-0.8-1.3c-0.2-0.1-0.4-0.2-0.7-0.3c-0.3-0.1-0.6-0.1-0.9-0.1
		c-0.3-0.1-0.5-0.3-0.4-0.6c0-0.3,0.3-0.5,0.6-0.5c1.9,0.1,3.2,1.1,3.4,3.3c0,0.2,0,0.3,0,0.5C39.7,32.5,39.5,32.6,39.4,32.6
		C39,32.6,39.5,32.6,39.4,32.6z"/>
</g>
</svg>
