<?xml version="1.0" encoding="utf-8"?>
<!-- Generator: Adobe Illustrator 21.0.0, SVG Export Plug-In . SVG Version: 6.00 Build 0)  -->
<svg version="1.1" id="Social" xmlns="http://www.w3.org/2000/svg" xmlns:xlink="http://www.w3.org/1999/xlink" x="0px" y="0px"
	 width="70px" height="70px" viewBox="0 0 70 70" style="enable-background:new 0 0 70 70;" xml:space="preserve">
<style type="text/css">
	.st0{fill:#7ABD31;}
	.st1{fill:#E8EBEF;}
</style>
<g id="ico_x5F_Email">
	<circle id="_x30__9_" class="st0" cx="35" cy="35" r="35"/>
	<path id="logo_9_" class="st1" d="M53.9,19.6L39.2,34.1l0,0l0,0l-4.2,4L16.1,19.6c0.5-0.2,1-0.4,1.6-0.4h34.6
		C52.9,19.2,53.4,19.4,53.9,19.6z M55.6,21.4L41.8,35l13.8,13.6c0.2-0.5,0.4-1,0.4-1.6V22.9C56,22.4,55.8,21.9,55.6,21.4z
		 M14.3,21.4c-0.2,0.5-0.3,1-0.3,1.6v24.2c0,0.5,0.2,1,0.3,1.6L28.2,35L14.3,21.4z M40.1,36.8l-4.2,4c-0.2,0.2-0.5,0.4-0.9,0.4
		s-0.7-0.2-0.9-0.4l-4.2-4L16.1,50.4c0.5,0.2,1,0.4,1.6,0.4h34.7c0.5,0,1-0.2,1.6-0.4L40.1,36.8z"/>
</g>
</svg>
