<svg xmlns="http://www.w3.org/2000/svg" version="1.1" xmlns:xlink="http://www.w3.org/1999/xlink" xmlns:svgjs="http://svgjs.com/svgjs" width="512" height="512" x="0" y="0" viewBox="0 0 64 64" style="enable-background:new 0 0 512 512" xml:space="preserve" class=""><g><path d="M35 59H10a5.006 5.006 0 0 1-5-5V16a1 1 0 0 0-2 0v38a7.008 7.008 0 0 0 7 7h25a1 1 0 0 0 0-2zM41 12a1 1 0 0 0-1-1H12a1 1 0 0 0-1 1v8a1 1 0 0 0 1 1h28a1 1 0 0 0 1-1zm-2 7H13v-6h26zM40 27H30a1 1 0 0 0 0 2h10a1 1 0 0 0 0-2zM40 43H30a1 1 0 0 0 0 2h10a1 1 0 0 0 0-2zM40 35H30a1 1 0 0 0 0 2h10a1 1 0 0 0 0-2z" fill="#007eff" data-original="#000000" class="" opacity="1"></path><path d="M11 44a1 1 0 0 0 1 1h12a1 1 0 0 0 1-1V28a1 1 0 0 0-1-1H12a1 1 0 0 0-1 1zm2-15h10v14H13z" fill="#007eff" data-original="#000000" class="" opacity="1"></path><path d="M60 13h-6a1 1 0 0 0 0 2h5v39a5 5 0 0 1-10 0V4a1 1 0 0 0-1-1H4a1 1 0 0 0-1 1v6a1 1 0 0 0 2 0V5h42v49a6.976 6.976 0 0 0 2.11 5H41a1 1 0 0 0 0 2h13a7.008 7.008 0 0 0 7-7V14a1 1 0 0 0-1-1z" fill="#007eff" data-original="#000000" class="" opacity="1"></path><path d="M12 53h28a1 1 0 0 0 0-2H12a1 1 0 0 0 0 2z" fill="#007eff" data-original="#000000" class="" opacity="1"></path></g></svg>