<svg xmlns="http://www.w3.org/2000/svg" version="1.1" xmlns:xlink="http://www.w3.org/1999/xlink" xmlns:svgjs="http://svgjs.com/svgjs" width="512" height="512" x="0" y="0" viewBox="0 0 512 512" style="enable-background:new 0 0 512 512" xml:space="preserve" class=""><g><path d="M316.323 200.6a8 8 0 0 0 8.729-.991L501.118 53.043a8 8 0 0 0-3.76-14.032L271.6.116a8 8 0 0 0-8.035 12.292l54.288 82.221-5.9 98.35a8 8 0 0 0 4.37 7.621zM287.105 19.023 477.56 51.836 329.028 175.479l4.609-76.8 71.7-19.212a8 8 0 1 0-4.14-15.455L329.5 83.226zM152 328v144a40.045 40.045 0 0 0 40 40h208a40.045 40.045 0 0 0 40-40V328a40.045 40.045 0 0 0-40-40H192a40.045 40.045 0 0 0-40 40zm248 168H192a24.028 24.028 0 0 1-24-24V342.706l106.27 68.763a40.064 40.064 0 0 0 43.46 0L424 342.706V472a24.028 24.028 0 0 1-24 24zm23.639-172.119-114.6 74.154a24.038 24.038 0 0 1-26.077 0l-114.6-74.154A24.035 24.035 0 0 1 192 304h208a24.034 24.034 0 0 1 23.639 19.881zM209.715 136.478a8 8 0 0 0 2.791-.5 771.946 771.946 0 0 1 21.5-7.648 8 8 0 1 0-5.139-15.152 787.64 787.64 0 0 0-21.95 7.806 8 8 0 0 0 2.794 15.5zM43.276 374.663a8 8 0 0 0 .4 11.307A112.626 112.626 0 0 0 63.5 400.724a8 8 0 0 0 8.083-13.809 96.536 96.536 0 0 1-17-12.653 8 8 0 0 0-11.307.401z" fill="#007eff" data-original="#000000" class="" opacity="1"></path><path d="M254.371 113.312a7.993 7.993 0 0 0 9.933 5.416c9.893-2.913 17.425-4.908 22-6.069a8 8 0 1 0-3.934-15.508c-4.71 1.2-12.451 3.245-22.584 6.227a8 8 0 0 0-5.415 9.934zM11.177 277.87a109.447 109.447 0 0 0-3.164 24.437 8 8 0 0 0 7.876 8.122h.126a8 8 0 0 0 8-7.877 93.418 93.418 0 0 1 2.7-20.859 8 8 0 0 0-15.536-3.824zM176.794 132.965a638.631 638.631 0 0 0-21.319 9.514 8 8 0 1 0 6.794 14.486 618.44 618.44 0 0 1 20.78-9.274 8 8 0 1 0-6.255-14.726zM110.335 183.718a7.96 7.96 0 0 0 4.188-1.19c6.2-3.817 12.783-7.63 19.573-11.332a8 8 0 0 0-7.659-14.048 443.635 443.635 0 0 0-20.3 11.757 8 8 0 0 0 4.2 14.813zM89.386 403.744a8 8 0 0 0 6.06 9.554A112.6 112.6 0 0 0 120 416a8 8 0 0 0 0-16 96.616 96.616 0 0 1-21.06-2.315 8 8 0 0 0-9.554 6.059zM79.021 187.311c-6.53 4.914-12.7 9.972-18.335 15.034a8 8 0 0 0 10.691 11.9c5.294-4.755 11.1-9.517 17.264-14.153a8 8 0 0 0-9.62-12.785zM48.954 225.173a8 8 0 0 0-11.247 1.221A155.234 155.234 0 0 0 24 246.341a8 8 0 1 0 13.878 7.959 139.463 139.463 0 0 1 12.3-17.881 8 8 0 0 0-1.224-11.246zM28.05 331.686a8 8 0 1 0-15.322 4.607 111.556 111.556 0 0 0 9.7 22.739 8 8 0 1 0 13.929-7.873 95.5 95.5 0 0 1-8.307-19.473z" fill="#007eff" data-original="#000000" class="" opacity="1"></path></g></svg>