<?xml version="1.0" encoding="utf-8"?>
<!-- Generator: Adobe Illustrator 17.0.0, SVG Export Plug-In . SVG Version: 6.00 Build 0)  -->
<!DOCTYPE svg PUBLIC "-//W3C//DTD SVG 1.1//EN" "http://www.w3.org/Graphics/SVG/1.1/DTD/svg11.dtd">
<svg version="1.1" id="Layer_1" xmlns="http://www.w3.org/2000/svg" xmlns:xlink="http://www.w3.org/1999/xlink" x="0px" y="0px"
	 width="180px" height="70px" viewBox="0 0 180 70" enable-background="new 0 0 180 70" xml:space="preserve">
<g id="Amatic_2_">
	<polygon id="Path_257_" fill="#0099FF" points="10,52.402 170,52.402 170,53.5 10,53.5 	"/>
	<path id="Path_256_" fill="#0099FF" d="M167.724,32.518c0,0-0.384-6.886-6.452-6.886c-4.377,0-6.952,3.794-6.952,12.35
		s3.435,10.778,7.402,10.778c4.573,0,6.702-4.765,6.702-4.765l0.6,0.299c0,0-2.056,5.738-8.353,5.738
		c-5.866,0-10.578-4.708-10.578-12.1s4.159-13.448,10.828-13.448c2.148,0,3.551,0.748,3.551,0.748
		c2.161,1.138,2.621,1.046,2.826-0.773h0.65l0.45,8.084L167.724,32.518z"/>
	<path id="Path_255_" fill="#0099FF" d="M141.191,25.582c-2.698,0-3.176,0.549-3.176,3.243v16.766c0,2.571,0.498,3.268,3.176,3.268
		v0.798h-9.903v-0.798c2.781,0,3.176-0.763,3.176-3.243V28.85c0-2.817-0.703-3.243-3.176-3.243v-0.674h9.903V25.582z"/>
	<path id="Path_254_" fill="#0099FF" d="M119.284,48.834v0.823h-10.253v-0.823c2.703,0,3.351-0.378,3.351-3.268V26.33h-2.676
		c-3.84,0-4.326,2.048-4.326,4.216h-0.6v-5.614h18.806v5.589h-0.6c0-1.975-0.253-4.192-4.326-4.192h-2.726v19.236
		C115.933,48.561,116.757,48.834,119.284,48.834z"/>
	<path id="Path_253_" fill="#0099FF" d="M87.099,48.834v0.823h-6.977v-0.823c2.273,0,2.71-1.351,3.351-3.393l6.602-21.032h0.6
		l7.102,21.032c0.992,2.874,1.367,3.368,3.376,3.368v0.848h-8.803V48.81c2.517,0,2.457-1.162,1.826-3.019l-1.425-4.192h-6.502
		l-1.475,4.74C84.3,48.009,84.768,48.834,87.099,48.834z M86.674,40.277h5.627L89.4,31.545L86.674,40.277z"/>
	<path id="Path_252_" fill="#0099FF" d="M59.465,43.021l6.627-18.088h6.027v0.624c-1.614,0-2.601,0.095-2.601,3.243v16.766
		c0,2.719,0.67,3.243,2.626,3.243v0.848h-9.128V48.81c2.174,0,3.101-0.189,3.101-3.268V29.075l-7.502,20.583H58.19l-7.477-20.134
		v16.042c0,2.658,0.545,3.268,3.026,3.268v0.823h-7.302v-0.823c2.595,0,2.901-0.827,2.901-3.293V28.775
		c0-3.049-0.98-3.243-2.901-3.243v-0.599h6.327L59.465,43.021z"/>
	<path id="Path_251_" fill="#0099FF" d="M21.329,48.834v0.823h-9.803v-0.823c2.944,0,3.65-1.251,4.726-4.491L25.505,16.5h0.85
		l9.903,27.893c1.344,3.708,1.676,4.466,4.751,4.466v0.798H28.706v-0.798c4.073,0,3.114-2.33,2.526-3.967l-2.001-5.564h-9.078
		l-2.051,6.262C17.572,47.182,17.128,48.834,21.329,48.834z M24.43,25.931l-3.701,11.552h7.877L24.43,25.931z"/>
</g>
</svg>
