<?xml version="1.0" encoding="utf-8"?>
<!-- Generator: Adobe Illustrator 21.0.0, SVG Export Plug-In . SVG Version: 6.00 Build 0)  -->
<svg version="1.1" id="Layer_1" xmlns="http://www.w3.org/2000/svg" xmlns:xlink="http://www.w3.org/1999/xlink" x="0px" y="0px"
	 viewBox="0 0 180 70" style="enable-background:new 0 0 180 70;" xml:space="preserve">
<style type="text/css">
	.st0{fill:#FF9900;}
	.st1{fill:#EEEEEE;}
</style>
<g id="Habanero_1_">
	<path class="st0" d="M27,13.6c0.5,0,1-0.5,1-1V9.6c0-0.5-0.5-1-1-1s-1,0.5-1,1v3.1C26,13.2,26.5,13.6,27,13.6z"/>
	<path class="st0" d="M23,16.3c0.5,0,1-0.5,1-1v-3.1c0-0.5-0.5-1-1-1s-1,0.5-1,1v3.1C22,15.9,22.5,16.3,23,16.3z"/>
	<path class="st0" d="M31,17c0.5,0,1-0.5,1-1v-0.4c0-0.5-0.5-1-1-1s-1,0.4-1,1V16C30,16.5,30.5,17,31,17z"/>
	<path class="st0" d="M23,9.8c0.5,0,1-0.5,1-1V8.5c0-0.5-0.5-1-1-1s-1,0.5-1,1v0.4C22,9.4,22.5,9.8,23,9.8z"/>
	<path class="st0" d="M39,24.1c-0.4,0-0.8,0.3-0.9,0.7l-0.1,0v0.3v1.5c0,0.5-0.5,1-1,1s-1-0.5-1-1v-3v-1.4c0-0.5-0.5-1-1-1
		s-1,0.5-1,1v0.2V24c0,0.5-0.5,1-1,1s-1-0.5-1-1v-2.8v-2.5c0-0.5-0.5-1-1-1s-1,0.5-1,1V20v0.8c0,0.5-0.5,1-1,1s-1-0.5-1-1v-2V16
		c0-0.5-0.5-1-1-1s-1,0.5-1,1v1.6v2.8c0,0.5-0.5,1-1,1s-1-0.5-1-1v-1v-0.7c0-0.5-0.5-1-1-1s-1,0.5-1,1v0.1v3.1c0,0.5-0.5,1-1,1
		s-1-0.5-1-1V20v-2.8c0-0.5-0.5-1-1-1s-1,0.5-1,1v4V24c0,0.5-0.5,1-1,1s-1-0.5-1-1v-1.6v-0.2c0-0.5-0.5-1-1-1s-1,0.5-1,1v1.4v3
		c0,0.5-0.5,1-1,1s-1-0.5-1-1v-1.5v-0.3l-0.1,0c-0.1-0.4-0.5-0.7-0.9-0.7c-0.5,0-1,0.5-1,1V26v14.7V44l15,9l15-9v-3.3V26v-0.9
		C40,24.6,39.5,24.1,39,24.1z"/>
	<polygon class="st1" points="27.8,29.9 27.8,33.9 22.8,33.9 22.8,29.9 17.3,29.9 17.3,41.9 22.8,41.9 22.8,37.9 27.8,37.9 
		27.8,41.9 33.3,41.9 33.3,29.9 	"/>
	<path id="Habanero" class="st1" d="M57.3,27.1v15.7h-3v-6.7H47v6.7h-3V27.1h3v6.5h7.3v-6.5H57.3z M70.7,39.8h-7l-1,3h-3.3l5.4-15.7
		h4.6L75,42.8h-3.2L70.7,39.8z M70,37.6l-2.8-8.2l-2.8,8.2H70z M76.7,27.1h8c3.5,0,4.9,0.8,4.9,4.2s-2.4,3.5-2.4,3.5
		s2.8,0.1,2.8,3.8c0,3.7-1.9,4.3-4.8,4.3h-8.5V27.1z M79.8,33.7h4.8c1.2,0,1.9-0.4,1.9-2.2s-0.7-1.9-1.9-1.9h-4.8V33.7z M79.8,40.3
		h4.8c1.6,0,2.2-0.3,2.2-2.1c0-1.9-0.6-2.2-2.2-2.2h-4.8L79.8,40.3z M102.4,39.8h-7.1l-1,3h-3.3l5.4-15.7h4.6l5.5,15.7h-3.2
		L102.4,39.8z M101.7,37.6l-2.8-8.2l-2.8,8.2H101.7z M123.5,42.8h-5.3l-6.8-13.2v13.2h-3.1V27.1h5.2l6.8,13.1V27.1h3.1V42.8z
		 M129.4,29.6v4.1h7.6V36h-7.6v4.4h8.1v2.5h-11.2V27.1h11.2v2.5H129.4z M140.2,42.8V27.1c0,0,4.2,0,8,0c3.8,0,5.3,1.1,5.3,4.7
		s-0.9,4-2.9,4.4v0.1c1.9,0,2.8,1,2.8,3c0,2.1,0,3.5,0,3.5h-3.1V40c0-1.6-0.5-2.4-2.5-2.4c-2,0-4.4,0-4.4,0v5.3H140.2z M147.9,35
		c1.8,0,2.4-0.6,2.4-2.7s-0.6-2.6-2.4-2.6s-4.6,0-4.6,0V35C143.3,35,146.1,35,147.9,35z M162.9,27c2.8,0,4.8,0.4,5.9,1.5
		c1.1,1.1,1.2,3.1,1.2,6.5s-0.3,5.5-1.3,6.5c-1,1-2.7,1.5-5.9,1.5s-5.4-0.5-6.4-1.5c-0.8-0.8-1-2.8-1-6.5s0.2-5.4,1.3-6.5
		C157.9,27.4,160.1,27,162.9,27z M166.8,35.1c0-2.4,0.1-4.1-0.6-4.7c-0.6-0.6-1.8-0.8-3.5-0.8c-1.7,0-2.9,0.2-3.5,0.8
		s-0.6,2-0.6,4.7s0,3.8,0.6,4.5c0.6,0.6,1.8,0.8,3.5,0.8c1.7,0,2.9-0.2,3.5-0.8C166.8,39,166.8,37.6,166.8,35.1z"/>
</g>
</svg>
