<?xml version="1.0" encoding="utf-8"?>
<!-- Generator: Adobe Illustrator 21.0.0, SVG Export Plug-In . SVG Version: 6.00 Build 0)  -->
<svg version="1.1" id="Layer_1" xmlns="http://www.w3.org/2000/svg" xmlns:xlink="http://www.w3.org/1999/xlink" x="0px" y="0px"
	 viewBox="0 0 180 70" style="enable-background:new 0 0 180 70;" xml:space="preserve">
<style type="text/css">
	.st0{fill:#EEEEEE;}
	.st1{fill:#FF3333;}
</style>
<g id="QTech">
	<g>
		<path class="st0" d="M57.8,24.2H47.4v27.1h-1.5V24.2H35.3v-1.5h22.5V24.2z"/>
		<path class="st0" d="M70.2,30.4c3.1,0,5.7,1,7.9,3.1l1.1,1.3c1.2,1.8,1.7,3.7,1.7,5.9v0.5H61.5v0.3c0,1.8,0.6,3.5,1.9,5.3
			c1.4,1.4,2.7,2.2,3.9,2.5c1.1,0.4,2.1,0.5,2.9,0.5c3.9,0,6.7-1.7,8.4-5c0.3-0.6,0.5-1.3,0.6-2.1h1.6v0.1c0,1-0.5,2.5-1.6,4.3
			c-1.2,1.6-2.8,2.8-4.8,3.6c-1.4,0.4-2.6,0.6-3.4,0.6h-1.1c-2,0-4-0.6-6-1.9c-1.6-1.5-2.6-2.6-2.9-3.5c-0.8-1.7-1.1-3.3-1.1-5.1
			c0-1.7,0.4-3.5,1.3-5.4c1.2-2,2.9-3.4,5.3-4.3C67.6,30.8,68.9,30.5,70.2,30.4z M61.6,39.6h17.6v-0.1c-0.3-1.7-0.7-2.9-1.4-3.8
			c-1-1.4-2.3-2.4-3.9-3c-1.3-0.5-2.5-0.7-3.5-0.7c-0.9,0-2.1,0.2-3.8,0.7c-1.1,0.5-2.1,1.3-3.2,2.3C62.2,36.7,61.6,38.2,61.6,39.6z
			"/>
		<path class="st0" d="M95.2,30.4h7.2V32h-7.7c-3,0-5,0.4-6.1,1.3c-1.6,0.8-2.8,2.4-3.7,4.9c-0.2,0.7-0.3,1.6-0.4,2.7
			c0.1,1.3,0.3,2.5,0.7,3.5c0.9,2.1,2.3,3.6,4.3,4.6c1.1,0.5,2.9,0.8,5.3,0.8h7.6v1.5h-9.5c-3.3,0-5.9-1.3-8.1-4
			c-0.7-1-1.2-2.2-1.6-3.7l-0.4-2.4c0-1.7,0.4-3.4,1.1-5.3l0.9-1.4c1.2-1.7,2.9-2.9,5.1-3.6C90.8,30.6,92.5,30.4,95.2,30.4z"/>
		<path class="st0" d="M105.9,35.1L105.9,35.1c1-1.7,2.6-3,4.7-3.9c1.2-0.6,2.8-0.9,4.6-0.9h0.3c1.9,0,3.9,0.7,6.1,2.1
			c1.6,1.3,2.6,2.7,3.1,4.1c0.5,0.9,0.8,2.5,0.8,4.7v10h-1.5V41c0-4.1-1.9-7-5.7-8.5c-0.8-0.3-1.9-0.5-3.3-0.5
			c-2.3,0-4.4,0.8-6.3,2.3l-0.7,0.7c-1.3,1.6-2,3.8-2,6.7v9.6h-1.5V22.6h1.5V35.1z"/>
	</g>
	<path class="st1" d="M21,22.2c2.5,0,4.4,0.6,6.5,1.7c2,1.3,3.3,2.8,3.9,4.4c0.4,0.7,0.7,1.9,1,3.5l0.1,1.3v6.5
		c0,2.8-0.9,5.3-2.7,7.4l2.7,2.7l-1.1,1L28.8,48h-0.1c-2.1,1.7-4.6,2.5-7.6,2.5H21c-3.5,0-6.3-1.3-8.6-3.9c-1.6-2.1-2.5-4.7-2.5-7.9
		v-4.9c0-3.2,0.9-5.9,2.7-8C13.8,24.6,17.1,22.2,21,22.2z M11.6,33.7v5.6c0,1.4,0.4,2.8,0.9,4.2c0.9,2,2.5,3.5,4.8,4.5
		c1.5,0.5,2.6,0.7,3.2,0.7h0.7c2.3,0,4.4-0.7,6.3-2L22,41.1l1.1-1l5.6,5.5c1.1-1.3,1.8-2.5,2.1-3.8L31,40v-6.5c0-3-1.3-5.6-3.9-7.7
		c-1.9-1.2-3.6-1.9-5.9-1.9c-1.4,0-2.3,0.2-3.8,0.7C13.6,26.1,11.7,29.2,11.6,33.7z"/>
	<path class="st1" d="M144.4,21c0.8,0.2,1.3-0.3,1.6-1.3c0.2-1.1-0.1-1.8-1-2.3c-0.4-0.4-0.3-0.9,0.2-1.7c-0.5,0.2-1.1,1-1.8,2.2
		C142.6,19.2,143,20.2,144.4,21 M155.6,22.6c-3.7,2-5.3,5.5-4.8,10.4c0.2,2.4,1.8,3.8,4.8,4.2c4.2-2,5.9-5.4,5-10.2
		C159.4,23.6,157.8,22.1,155.6,22.6 M139.4,29.9l-0.4,4.1c-0.1,1.5,1,2.6,3.5,3.3c1.8,0.1,3.6-0.3,5.3-1.2c1.6-0.6,2.1-2,1.6-4.3
		c-0.4-2.7-0.6-5.3-0.7-7.7c-0.5-1-1.1-1.6-1.9-1.7C143.7,21.6,141.3,24.2,139.4,29.9 M135.9,34.5c-1.4-1.4-2.6-1.4-3.6,0l-2.7,5.1
		c-0.2,1.6,0.5,3.3,2.1,5c1.3,1.1,2.6,1.9,3.8,2.4c0.4,0.1,0.8,0,1.3-0.4c1.3-1,2.4-2.4,3.4-4c1.1-2.1,0.9-3.7-0.5-4.8
		C137.6,35.3,136.4,34.2,135.9,34.5 M133.3,25.6v-1.5c-1.5,2.4-2,4.1-1.7,5.2c0.2,0.8,0.5,1.3,1,1.4c1,0.1,1.5-0.5,1.6-1.7
		C134.3,26.9,134,25.7,133.3,25.6 M156.7,18.5c0.2-2.2-0.4-3.8-1.6-4.6v0.4c0.1,1.5-0.2,2.7-0.9,3.4c-0.2,0.2-0.3,0.4-0.1,0.7
		c0.4,1,1.2,1.3,2.3,0.7C156.6,19,156.7,18.8,156.7,18.5 M162.7,51.6c0.8-1.1,1.1-2.5,0.9-4.2c-2.8-2.2-5.4-4.7-7.8-7.6
		c-0.6-0.7-1.2-1-1.9-0.9c-1.6-1.3-3.9-1.4-6.9-0.3c-1.5,0.2-2.6,0.8-3.3,1.8c-0.4,0.4-0.5,0.8-0.4,1.2c0,0.9-0.3,1.7-0.7,2.6
		c-0.9,2-2.3,3.8-4.1,5.3c-1,0.7-1.5,1.5-1.3,2.4c0.2,0.9,1.1,1.8,2.7,2.6c4.2,1.7,9.4,2,15.5,0.8C158.9,54.6,161.3,53.4,162.7,51.6
		 M168.7,29.5c-1.3-0.9-2.2-1-2.8-0.1c-0.1,0.5-2,3-5.7,7.3c-1.2,1.3-1.2,2.7,0,4.2c0.7,0.7,1.3,1.3,1.8,1.9
		c0.7,1.1,1.3,1.8,1.8,2.1c0,0,0,0,0,0L164,45c1.3,0.6,2.9-0.4,4.7-2.9c0.9-1.3,1.3-3.5,1.3-6.6C169.8,32.1,169.4,30.1,168.7,29.5
		 M165.8,20c0.4,0.9,0.6,1.5,0.4,1.6c-1,0.3-1.5,0.9-1.5,1.8c-0.3,0.9,0.1,1.6,1.3,2.1c1.1,0.2,1.7-0.4,2-1.7
		C167.9,22.1,167.2,20.9,165.8,20z"/>
</g>
</svg>
