<?xml version="1.0" encoding="utf-8"?>
<!-- Generator: Adobe Illustrator 21.0.0, SVG Export Plug-In . SVG Version: 6.00 Build 0)  -->
<svg version="1.1" id="Layer_1" xmlns="http://www.w3.org/2000/svg" xmlns:xlink="http://www.w3.org/1999/xlink" x="0px" y="0px"
	 viewBox="0 0 180 70" style="enable-background:new 0 0 180 70;" xml:space="preserve">
<style type="text/css">
	.st0{fill:#FF9900;}
</style>
<g id="Quickspin">
	<path id="XMLID_496_" class="st0" d="M12.5,28.7c1.3,0,2.4-1.1,2.4-2.4c0-2.1,1.8-3,3.6-3h0.1c1.8,0,3.6,0.9,3.6,3
		c0,1.3,1.1,2.4,2.4,2.4c1.3,0,2.4-1.1,2.4-2.4c0-4.5-3.5-7.8-8.4-7.8h-0.1c-4.9,0-8.5,3.3-8.5,7.8C10.1,27.6,11.1,28.7,12.5,28.7z"
		/>
	<path id="XMLID_634_" class="st0" d="M27.1,43.6c0-1.3-1.1-2.4-2.4-2.4s-2.4,1.1-2.4,2.4c0,2.1-1.8,3-3.6,3h-0.1
		c-1.8,0-3.6-0.9-3.6-3c0-1.3-1.1-2.4-2.4-2.4s-2.4,1.1-2.4,2.4c0,4.5,3.5,7.8,8.4,7.8h0.1c0.6,0,1.3-0.1,1.9-0.2l2.1,4.2
		c0.4,0.8,1.7,1,2.9,0.4l0,0c1.2-0.6,1.8-1.8,1.4-2.6l-2.1-4.2C26.3,47.7,27.1,45.8,27.1,43.6z"/>
	<path id="XMLID_635_" class="st0" d="M14.9,41.3V28.6c-0.6,0.6-1.4,1-2.4,1s-1.8-0.4-2.4-1.1v12.7c0.6-0.6,1.5-1.1,2.4-1.1
		C13.4,40.3,14.2,40.6,14.9,41.3z"/>
	<path id="XMLID_636_" class="st0" d="M22.2,28.6v12.7c0.6-0.6,1.5-1.1,2.4-1.1c0.9,0,1.8,0.4,2.4,1V28.6c-0.6,0.6-1.4,1-2.4,1
		C23.7,29.6,22.8,29.2,22.2,28.6z"/>
	<path id="XMLID_637_" class="st0" d="M64.5,28.7c1.3,0,2.4-1.1,2.4-2.4c0-2.1,1.8-3,3.6-3h0.1c1.8,0,3.6,0.9,3.6,3
		c0,1.3,1.1,2.4,2.4,2.4s2.4-1.1,2.4-2.4c0-4.5-3.5-7.8-8.4-7.8h-0.1c-4.9,0-8.4,3.3-8.4,7.8C62.1,27.6,63.2,28.7,64.5,28.7z"/>
	<path id="XMLID_638_" class="st0" d="M76.7,41.2c-1.3,0-2.4,1.1-2.4,2.4c0,2.1-1.8,3-3.6,3h-0.1c-1.8,0-3.6-0.9-3.6-3
		c0-1.3-1.1-2.4-2.4-2.4c-1.3,0-2.4,1.1-2.4,2.4c0,4.5,3.5,7.8,8.4,7.8h0.1c4.9,0,8.4-3.3,8.4-7.8C79.1,42.3,78,41.2,76.7,41.2z"/>
	<path id="XMLID_639_" class="st0" d="M66.9,41.3V28.6c-0.6,0.6-1.4,1-2.4,1c-1,0-1.8-0.4-2.4-1.1v12.7c0.6-0.6,1.5-1.1,2.4-1.1
		C65.4,40.3,66.3,40.6,66.9,41.3z"/>
	<path id="XMLID_640_" class="st0" d="M104.4,28.7c1.3,0,2.4-1.1,2.4-2.4c0-2.1,1.8-3,3.6-3h0.1c1.8,0,3.6,0.9,3.6,3
		c0,1.3,1.1,2.4,2.4,2.4s2.4-1.1,2.4-2.4c0-4.5-3.5-7.8-8.4-7.8h-0.1c-4.9,0-8.4,3.3-8.4,7.8C102,27.6,103.1,28.7,104.4,28.7z"/>
	<path id="XMLID_641_" class="st0" d="M106.3,29.6c-0.8,0.5-1.8,0.6-2.7,0.3l9.6,13c0.1-0.9,0.6-1.8,1.4-2.3
		c0.8-0.5,1.7-0.6,2.6-0.3l-9.5-12.9C107.5,28.2,107.1,29.1,106.3,29.6z"/>
	<path id="XMLID_642_" class="st0" d="M116.6,41.2c-1.3,0-2.4,1.1-2.4,2.4c0,2.1-1.8,3-3.6,3h-0.1c-1.8,0-3.6-0.9-3.6-3
		c0-1.3-1.1-2.4-2.4-2.4s-2.4,1.1-2.4,2.4c0,4.5,3.5,7.8,8.4,7.8h0.1c4.9,0,8.4-3.3,8.4-7.8C119,42.3,117.9,41.2,116.6,41.2z"/>
	<path id="XMLID_643_" class="st0" d="M45.9,41.2c-1.3,0-2.4,1.1-2.4,2.4c0,2.1-1.8,3-3.6,3h-0.1c-1.8,0-3.6-0.9-3.6-3
		c0-1.3-1.1-2.4-2.4-2.4s-2.4,1.1-2.4,2.4c0,4.5,3.5,7.8,8.4,7.8h0.1c4.9,0,8.4-3.3,8.4-7.8C48.3,42.3,47.2,41.2,45.9,41.2z"/>
	<path id="XMLID_644_" class="st0" d="M45.9,18.5c-1.3,0-2.4,1.1-2.4,2.4v6.6V30v11.2c0.6-0.6,1.5-1.1,2.4-1.1c0.9,0,1.8,0.4,2.4,1
		V29.9v-2.4v-6.7C48.3,19.5,47.2,18.5,45.9,18.5z"/>
	<path id="XMLID_645_" class="st0" d="M36.1,41.1V29.9v-2.4v-6.7c0-1.3-1.1-2.4-2.4-2.4c-1.3,0-2.4,1.1-2.4,2.4v6.6V30v11.2
		c0.6-0.6,1.5-1.1,2.4-1.1C34.7,40.1,35.5,40.5,36.1,41.1z"/>
	<path id="XMLID_646_" class="st0" d="M57.6,29.9v-2.4v-6.7c0-1.3-1.1-2.4-2.4-2.4c-1.3,0-2.4,1.1-2.4,2.4v6.6V30v10.3l0,0V49
		c0,1.3,1.1,2.4,2.4,2.4l0,0c1.3,0,2.4-1.1,2.4-2.4v-9.1l0,0V29.9z"/>
	<path id="XMLID_647_" class="st0" d="M147.4,30v-2.4v-6.7c0-1.3-1.1-2.4-2.4-2.4c-1.3,0-2.4,1.1-2.4,2.4v6.6V30v10.3l0,0V49
		c0,1.3,1.1,2.4,2.4,2.4l0,0c1.3,0,2.4-1.1,2.4-2.4v-9.1l0,0V30z"/>
	<path id="XMLID_648_" class="st0" d="M156.1,33.5l-1-2l-1.2-2.4l-2.7-5.4v3.8V30v10.3l0,0V49c0,1.3,1.1,2.4,2.4,2.4l0,0
		c1.3,0,2.4-1.1,2.4-2.4v-9.1l0,0V33.5z"/>
	<path id="XMLID_649_" class="st0" d="M165.2,38.8L165.2,38.8l-4.9-9.9l-1.2-2.4l-3.3-6.6c-0.6-1.3-2.2-1.9-3.3-1.3
		c-1.2,0.6-1.6,2.2-1,3.4l3.2,6.5l1.2,2.4l5,10.1l0,0l4.3,8.7c0.6,1.3,2.2,1.9,3.3,1.3l0,0c1.2-0.6,1.6-2.2,1-3.4L165.2,38.8z"/>
	<path id="XMLID_650_" class="st0" d="M170,39.9V30v-2.4v-6.7c0-1.3-1.1-2.4-2.4-2.4c-1.3,0-2.4,1.1-2.4,2.4v6.6V30v6.6l0.9,1.8
		l3.9,8V39.9L170,39.9z"/>
	<path id="XMLID_651_" class="st0" d="M86.6,31.8l-4.1,6c-0.6,0.9-0.2,2.3,0.9,3c1.1,0.7,2.5,0.6,3.1-0.3l4.2-6.1l0,0l4.7-6.8
		l1.1-1.6l3.1-4.5c0.6-0.9,0.2-2.3-0.9-3c-1.1-0.7-2.5-0.6-3.1,0.3l-3.1,4.5l-1.1,1.6L86.6,31.8L86.6,31.8z"/>
	<path id="XMLID_652_" class="st0" d="M97.4,43.2L97.4,43.2l-3.1-6.1l-0.7-1.5l-1.1-2.1l-0.9,1.3l-2.2,3.2l0.6,1.3l3.2,6.3l0,0
		L96,51c0.4,0.8,1.7,1,2.9,0.4l0,0c1.2-0.6,1.8-1.8,1.4-2.6L97.4,43.2z"/>
	<path id="XMLID_653_" class="st0" d="M87,29.5v-2.1v-6.7c0-1.3-1.1-2.4-2.4-2.4s-2.4,1.1-2.4,2.4v6.6v2.4v6.7l3.6-5.3L87,29.5z"/>
	<path id="XMLID_654_" class="st0" d="M82.8,41.5c-0.2-0.2-0.5-0.4-0.6-0.5v7.9c0,1.3,1.1,2.4,2.4,2.4l0,0c1.3,0,2.4-1.1,2.4-2.4
		v-7.5c-0.5,0.5-1.3,0.9-2.1,0.9C84.1,42.2,83.4,42,82.8,41.5z"/>
	<path id="XMLID_655_" class="st0" d="M133,18.2L133,18.2l-3.3,0h-2.1h-3c-1.2,0-2.1,0.9-2.1,2.5c0,1.5,1,2.5,2.1,2.5h3h2.2h2.7
		c1.7,0.1,2.4,2.5,2.4,4.5v0.2c0,2-0.8,4.7-2.4,4.8h-2.7h-2.1h-3c-1.2,0-2.1,0.9-2.1,2.5s1,2.5,2.1,2.5h3h2.2h3.4c0,0,0,0,0-0.1
		c3.6-0.5,6.1-4.4,6.1-9.8v-0.2C139.2,22.4,136.6,18.7,133,18.2z"/>
	<path id="XMLID_656_" class="st0" d="M127.3,38.6h-2.7c-0.8,0-1.6-0.3-2.1-0.9v2.4l0,0V49c0,1.3,1.1,2.4,2.4,2.4l0,0
		c1.3,0,2.4-1.1,2.4-2.4v-9.1l0,0L127.3,38.6L127.3,38.6z"/>
	<path id="XMLID_657_" class="st0" d="M127.3,31.7v-1.8v-2.4v-3.4h-2.7c-0.8,0-1.6-0.3-2.1-0.9v4.2V30v2.6c0.5-0.5,1.3-0.9,2.1-0.9
		H127.3z"/>
</g>
</svg>
