<?xml version="1.0" encoding="utf-8"?>
<!-- Generator: Adobe Illustrator 21.0.0, SVG Export Plug-In . SVG Version: 6.00 Build 0)  -->
<svg version="1.1" id="Layer_1" xmlns="http://www.w3.org/2000/svg" xmlns:xlink="http://www.w3.org/1999/xlink" x="0px" y="0px"
	 viewBox="0 0 180 70" style="enable-background:new 0 0 180 70;" xml:space="preserve">
<style type="text/css">
	.st0{fill:#EEEEEE;}
</style>
<g id="Splitrock">
	<g>
		<path class="st0" d="M75.7,30.3c0,1.3-0.5,2.3-1.4,3s-2.2,1.1-3.9,1.1c-1.5,0-2.9-0.3-4-0.9v-2.8c1,0.4,1.8,0.7,2.4,0.9
			s1.3,0.3,1.8,0.3c0.7,0,1.2-0.1,1.5-0.4s0.5-0.6,0.5-1.1c0-0.3-0.1-0.5-0.2-0.7s-0.4-0.4-0.7-0.6s-0.9-0.5-1.9-1
			c-0.9-0.4-1.5-0.8-2-1.2s-0.8-0.8-1-1.3s-0.4-1.1-0.4-1.8c0-1.3,0.4-2.3,1.3-3s2-1.1,3.5-1.1c0.7,0,1.5,0.1,2.1,0.3
			s1.4,0.4,2.1,0.7l-1,2.4c-0.8-0.3-1.4-0.5-1.9-0.7s-1-0.2-1.5-0.2c-0.6,0-1,0.1-1.3,0.4s-0.5,0.6-0.5,1c0,0.3,0.1,0.5,0.2,0.7
			s0.3,0.4,0.6,0.6s0.9,0.5,1.9,1c1.3,0.6,2.2,1.3,2.7,1.9S75.7,29.4,75.7,30.3z"/>
		<path class="st0" d="M87.6,24.5c0,1.5-0.5,2.7-1.4,3.5s-2.3,1.2-4.1,1.2h-1.3v5.1h-3V20h4.6c1.7,0,3,0.4,4,1.1S87.6,23,87.6,24.5z
			 M80.8,26.7h1c0.9,0,1.6-0.2,2.1-0.6s0.7-0.9,0.7-1.6c0-0.7-0.2-1.2-0.6-1.6s-1-0.5-1.8-0.5h-1.4V26.7z"/>
		<path class="st0" d="M89.8,34.3V20h3v11.8h5.8v2.5H89.8z"/>
		<path class="st0" d="M100.6,34.3V20h3v14.3H100.6z"/>
		<path class="st0" d="M112.2,34.3h-3V22.5h-3.9V20h10.8v2.5h-3.9V34.3z"/>
		<path class="st0" d="M120.8,28.8v5.5h-3V20h4.2c1.9,0,3.4,0.4,4.3,1.1s1.4,1.8,1.4,3.2c0,0.8-0.2,1.6-0.7,2.2s-1.1,1.2-2,1.5
			c2.1,3.2,3.5,5.3,4.2,6.2h-3.4l-3.4-5.5H120.8z M120.8,26.4h1c1,0,1.7-0.2,2.1-0.5s0.7-0.8,0.7-1.5c0-0.7-0.2-1.2-0.7-1.4
			s-1.2-0.4-2.2-0.4h-0.9V26.4z"/>
		<path class="st0" d="M143.5,27.1c0,2.4-0.6,4.2-1.8,5.4s-2.9,1.9-5,1.9s-3.9-0.6-5-1.9s-1.8-3.1-1.8-5.5s0.6-4.2,1.8-5.4
			s2.9-1.9,5.1-1.9s3.9,0.6,5,1.9S143.5,24.8,143.5,27.1z M133,27.1c0,1.6,0.3,2.8,0.9,3.6s1.5,1.2,2.7,1.2c2.4,0,3.6-1.6,3.6-4.8
			c0-3.2-1.2-4.8-3.6-4.8c-1.2,0-2.1,0.4-2.7,1.2S133,25.5,133,27.1z"/>
		<path class="st0" d="M152,22.3c-1.1,0-2,0.4-2.6,1.3s-0.9,2-0.9,3.6c0,3.2,1.2,4.8,3.6,4.8c1,0,2.2-0.3,3.6-0.8v2.5
			c-1.2,0.5-2.5,0.7-3.9,0.7c-2.1,0-3.7-0.6-4.8-1.9s-1.7-3.1-1.7-5.4c0-1.5,0.3-2.8,0.8-3.9s1.3-2,2.3-2.6s2.2-0.9,3.6-0.9
			c1.4,0,2.8,0.3,4.2,1l-1,2.5c-0.5-0.3-1.1-0.5-1.6-0.7S152.5,22.3,152,22.3z"/>
		<path class="st0" d="M169.7,34.3h-3.4l-3.7-6l-1.3,0.9v5.1h-3V20h3v6.5l1.2-1.7l3.9-4.9h3.4l-5,6.3L169.7,34.3z"/>
	</g>
	<g>
		<path class="st0" d="M92.3,43.9h4.2v5.7c-0.7,0.2-1.3,0.4-2,0.5s-1.3,0.1-2.1,0.1c-1.7,0-3.1-0.5-4-1.5s-1.4-2.5-1.4-4.3
			c0-1.8,0.5-3.3,1.6-4.3c1.1-1,2.5-1.6,4.4-1.6c1.2,0,2.3,0.2,3.4,0.7l-0.7,1.6c-0.9-0.4-1.9-0.6-2.8-0.6c-1.2,0-2.2,0.4-2.9,1.1
			C89.4,42,89,43,89,44.4c0,1.4,0.3,2.5,1,3.2c0.6,0.7,1.6,1.1,2.8,1.1c0.6,0,1.2-0.1,1.9-0.2v-2.9h-2.4V43.9z"/>
		<path class="st0" d="M106,50l-1.1-3.2h-4.4L99.3,50h-2l4.3-11.5h2l4.3,11.5H106z M104.3,45.3l-1.1-3.1c-0.1-0.2-0.2-0.5-0.3-1
			c-0.1-0.4-0.2-0.8-0.3-1c-0.1,0.6-0.3,1.3-0.6,2.1l-1,3H104.3z"/>
		<path class="st0" d="M114,50l-3.3-9.5h-0.1c0.1,1.4,0.1,2.7,0.1,4V50h-1.7V38.6h2.6l3.2,9.1h0l3.3-9.1h2.6V50H119v-5.6
			c0-0.6,0-1.3,0-2.2c0-0.9,0.1-1.5,0.1-1.7h-0.1l-3.4,9.5H114z"/>
		<path class="st0" d="M123.4,50V38.6h1.9V50H123.4z"/>
		<path class="st0" d="M137.4,50h-2.3l-5.6-9.1h-0.1l0,0.5c0.1,1,0.1,1.9,0.1,2.7V50h-1.7V38.6h2.3l5.6,9.1h0c0-0.1,0-0.6-0.1-1.3
			c0-0.8,0-1.3,0-1.8v-6h1.7V50z"/>
		<path class="st0" d="M144.7,43.9h4.2v5.7c-0.7,0.2-1.3,0.4-2,0.5s-1.3,0.1-2.1,0.1c-1.7,0-3.1-0.5-4-1.5s-1.4-2.5-1.4-4.3
			c0-1.8,0.5-3.3,1.6-4.3s2.5-1.6,4.4-1.6c1.2,0,2.3,0.2,3.4,0.7l-0.7,1.6c-0.9-0.4-1.9-0.6-2.8-0.6c-1.2,0-2.2,0.4-2.9,1.1
			s-1.1,1.8-1.1,3.1c0,1.4,0.3,2.5,1,3.2s1.6,1.1,2.8,1.1c0.6,0,1.2-0.1,1.9-0.2v-2.9h-2.4V43.9z"/>
	</g>
	<g>
		<path class="st0" d="M61.4,28.6c0-1.3-1.1-2.4-2.4-2.4c-1.3,0-2.4,1.1-2.4,2.4c0,1.1,0.8,2.1,1.9,2.4c0.2,1.3,0.4,2.7,0.4,4.1
			c0,12.6-10.2,22.8-22.8,22.8c-5.4,0-10.5-1.9-14.5-5.2h17.4c3.4,0,6.3-1.1,8.6-3.2c2.4-2.2,3.6-4.9,3.6-8c0.1-3.1-1.2-5.8-3.6-8
			c-2.3-2.2-5.2-3.3-8.5-3.3c0,0-0.1,0-0.1,0c-1.4,0-2.5,0-3.8,0c-0.8,0-1.5,0-2.4,0c-0.5,0-0.9-0.1-1.2-0.4c-0.3-0.3-0.5-0.6-0.5-1
			c0-0.4,0.1-0.7,0.5-1c0.3-0.3,0.7-0.4,1.2-0.4h14.2c0.4,0.8,1.2,1.3,2.2,1.3c1.3,0,2.4-1.1,2.4-2.4c0-1.3-1.1-2.4-2.4-2.4
			c-1,0-1.8,0.6-2.2,1.3l-14.2,0c-1.1-0.1-2,0.3-2.8,1c-0.7,0.7-1.1,1.6-1.1,2.6c0,1,0.4,1.9,1.2,2.6c0.7,0.7,1.6,1,2.7,1
			c0.8,0,1.6,0,2.4,0c1.2,0,2.4,0,3.7,0c2.8,0,5.2,0.9,7.1,2.7c2,1.8,2.9,3.8,2.9,6.4c0,2.5-0.9,4.6-2.9,6.4
			c-1.9,1.8-4.3,2.7-7.1,2.7H18.6v0c-0.3,0-0.5,0.1-0.8,0.3c-0.4,0.4-0.5,1.1,0,1.5c4.8,5,11.2,7.8,18.1,7.8c13.8,0,25-11.2,25-25
			c0-1.5-0.1-3.1-0.4-4.6C61,30,61.4,29.3,61.4,28.6z"/>
		<path class="st0" d="M13.5,39.3c-0.3-1.4-0.4-2.8-0.4-4.3c0-12.6,10.2-22.8,22.8-22.8c5.5,0,10.7,2,14.9,5.5l-19.8,0
			c-3.3,0.1-6.1,1.2-8.3,3.3c-2.3,2.1-3.5,4.7-3.5,7.7c0,3,1.2,5.6,3.5,7.8c2.3,2.1,5.1,3.2,8.4,3.2h6.9c0.6,0,1.1,0.2,1.5,0.6
			c0.4,0.3,0.6,0.7,0.6,1.2c0,0.5-0.2,0.9-0.5,1.2c-0.4,0.4-0.9,0.5-1.5,0.6H26.4c-0.4-0.8-1.2-1.3-2.2-1.3c-1.3,0-2.4,1.1-2.4,2.4
			c0,1.3,1.1,2.4,2.4,2.4c0.9,0,1.8-0.5,2.2-1.3l11.6,0c1.1-0.1,2.1-0.4,2.9-1.1c0.8-0.8,1.2-1.7,1.2-2.8c0-1.1-0.4-2.1-1.3-2.9
			c-0.8-0.8-1.8-1.1-3-1.1H31c-2.7,0-5-0.9-6.9-2.6c-1.9-1.7-2.8-3.8-2.8-6.2c0-2.4,0.9-4.4,2.8-6.1c1.9-1.7,4.2-2.6,6.9-2.7h22.4
			c0,0,0,0,0,0h0v0c0.3,0,0.5-0.1,0.7-0.3c0.4-0.4,0.5-1.1,0.1-1.5C49.6,12.9,42.9,10,35.9,10c-13.8,0-25,11.2-25,25
			c0,1.6,0.2,3.3,0.5,4.9c-0.5,0.4-0.8,1.1-0.8,1.8c0,1.3,1.1,2.4,2.4,2.4c1.3,0,2.4-1.1,2.4-2.4C15.5,40.5,14.6,39.5,13.5,39.3z"/>
	</g>
</g>
</svg>
