<?xml version="1.0" encoding="utf-8"?>
<!-- Generator: Adobe Illustrator 21.0.0, SVG Export Plug-In . SVG Version: 6.00 Build 0)  -->
<svg version="1.1" id="Слой_1" xmlns="http://www.w3.org/2000/svg" xmlns:xlink="http://www.w3.org/1999/xlink" x="0px" y="0px"
	 width="316px" height="58px" viewBox="0 0 316 58" style="enable-background:new 0 0 316 58;" xml:space="preserve">
<style type="text/css">
	.st0{fill:#191610;}
	.st1{fill:#2D2926;}
	.st2{fill:#231F1D;}
</style>
<g id="header_x5F_popular_x5F_smart">
	<g>
		<path d="M0,28h316v2l-28,28H28L0,30V28z"/>
	</g>
	<g>
		<polygon class="st0" points="28.4,55 1.4,28 28.4,1 287.6,1 314.6,28 287.6,55 		"/>
		<path class="st1" d="M287.2,2l26,26l-26,26H28.8l-26-26l26-26H287.2 M288,0H28L0,28l28,28h260l28-28L288,0L288,0z"/>
	</g>
	<g>
		<path class="st2" d="M278,0H38L10,28l28,28h240l28-28L278,0z M276,52H40L16,28L40,4h236l24,24L276,52z"/>
	</g>
	<g>
		<polygon class="st1" points="38,2 278,2 305,29 306,28 278,0 38,0 10,28 11,29 		"/>
	</g>
	<g>
		<polygon class="st1" points="40,54 276,54 300,30 299,29 276,52 40,52 17,29 16,30 		"/>
	</g>
</g>
</svg>
