<!-- Generated by IcoMoon.io -->
<svg version="1.1" xmlns="http://www.w3.org/2000/svg" width="85" height="32" viewBox="0 0 85 32">
<title>iconPay_Neteller</title>
<path fill="#0c0" d="M74.357 9.6h-4.943l-1.838 9.898h-6.476l0.416-2.245h3.901l0.462-2.522-3.899 0.005 0.418-2.236h4.018l0.534-2.899h-8.161l-1.745 9.388h-2.995l1.756-9.389h-4.266l-1.745 9.388h-2.917l1.758-9.388h-4.263l-1.84 9.898h-6.523l0.412-2.245h3.917l0.463-2.508-3.913-0.004 0.415-2.24h4.063l0.531-2.901h-25.429l-1.447 7.843-2.882-7.843h-4.426l-2.382 12.8h4.227l1.442-8.059 2.797 8.059h15.148l1.842-9.901h2.369l-1.842 9.901h39.857l1.156-6.25 1.869 6.25h4.229l-1.937-5.107c0 0 3.51-0.29 3.51-3.997 0-3.392-3.756-3.697-5.643-3.697zM18.799 19.498l0.418-2.245h4.058l0.46-2.529h-4.019l0.387-2.222h6.46l-1.296 6.997h-6.469zM73.266 15.625h-0.836l0.641-3.435h0.615c0.7 0 2.165 0.122 2.165 1.535 0 1.765-1.742 1.9-2.585 1.9z"></path>
</svg>
