<!-- Generated by IcoMoon.io -->
<svg version="1.1" xmlns="http://www.w3.org/2000/svg" width="85" height="32" viewBox="0 0 85 32">
<title>iconPay_GiroPay</title>
<path fill="#06c" d="M16 8.819c0-2.22 1.852-4.019 4.135-4.019h45.063c2.284 0 4.135 1.799 4.135 4.019v14.363c0 2.218-1.851 4.018-4.135 4.018h-45.063c-2.283 0-4.135-1.8-4.135-4.018v-14.363z"></path>
<path fill="#eee" d="M17.6 23.078c0 1.393 1.178 2.523 2.632 2.523h24.035v-19.2h-24.035c-1.453 0-2.632 1.13-2.632 2.523v14.154zM49.991 15.931c0 0.897-0.454 1.514-1.206 1.514-0.665 0-1.218-0.617-1.218-1.438 0-0.843 0.487-1.47 1.218-1.47 0.775-0.001 1.206 0.649 1.206 1.394zM45.576 21.076h1.931v-3.059c0.377 0.67 1.213 0.919 1.91 0.919 1.715 0 2.634-1.383 2.634-3.048 0-1.362-0.874-2.843-2.468-2.843-0.907 0-1.676 0.357-2.075 1.147v-1.015h-1.931v7.9zM54.77 17.022c0-0.54 0.531-0.745 1.206-0.745 0.299 0 0.587 0.020 0.841 0.032 0 0.659-0.476 1.329-1.229 1.329-0.465 0.001-0.819-0.226-0.819-0.617zM58.787 18.806c-0.088-0.443-0.11-3.426-0.11-3.426 0-1.718-1.272-2.335-2.745-2.335-0.852 0-1.593 0.119-2.302 0.401l0.034 1.319c0.551-0.303 1.195-0.422 1.836-0.422 0.718 0 1.305 0.206 1.317 0.973-0.254-0.043-0.609-0.077-0.93-0.077-1.061 0-2.977 0.206-2.977 1.924 0 1.222 1.018 1.772 2.157 1.772 0.819 0 1.373-0.313 1.826-1.016l0.067 0.886h1.826zM59.683 21.076c0.41 0.087 0.819 0.131 1.239 0.131 1.826 0 2.257-1.373 2.822-2.789l2.115-5.242h-1.993l-1.184 3.675-1.262-3.675h-2.146l2.334 5.761c-0.144 0.498-0.52 0.779-1.007 0.779-0.277 0-0.52-0.033-0.786-0.119l-0.132 1.48z"></path>
<path fill="#f33" d="M22.562 15.942c0-0.767 0.388-1.406 1.129-1.406 0.896 0 1.272 0.702 1.272 1.329 0 0.865-0.564 1.449-1.272 1.449-0.597 0.001-1.129-0.496-1.129-1.372zM26.889 13.175h-1.859v1.015c-0.422-0.692-1.074-1.147-1.925-1.147-1.793 0-2.601 1.255-2.601 2.93 0 1.665 0.985 2.831 2.566 2.831 0.798 0 1.484-0.303 1.959-0.962v0.303c0 1.102-0.62 1.631-1.77 1.631-0.83 0-1.34-0.173-1.948-0.465l-0.1 1.535c0.464 0.163 1.25 0.357 2.203 0.357 2.324 0 3.474-0.746 3.474-3.060v-4.972zM30.255 10.829h-1.992v1.427h1.992v-1.427zM28.265 18.806h1.991v-5.631h-1.991v5.631zM35.802 13.109c-0.199-0.032-0.443-0.065-0.675-0.065-0.863 0-1.323 0.454-1.667 1.168v-1.037h-1.875v5.631h1.875v-2.377c0-1.103 0.638-1.762 1.567-1.762 0.233 0 0.453 0 0.675 0.064l0.1-1.621zM39.231 17.574c-0.918 0-1.294-0.746-1.294-1.578 0-0.843 0.376-1.589 1.294-1.589 0.919 0 1.295 0.746 1.295 1.589 0.001 0.831-0.376 1.578-1.295 1.578zM39.231 18.935c1.903 0 3.354-1.080 3.354-2.939 0-1.87-1.45-2.952-3.354-2.952s-3.353 1.081-3.353 2.952c0.001 1.859 1.45 2.939 3.353 2.939z"></path>
</svg>
