<!-- Generated by IcoMoon.io -->
<svg version="1.1" xmlns="http://www.w3.org/2000/svg" width="85" height="32" viewBox="0 0 85 32">
<title>iconPay_EcoPayz</title>
<path fill="#0c0" d="M18.201 7.2c-7.114 0-12.868 3.359-12.868 7.529 0 1.766 1.041 3.388 2.805 4.691-0.868-1.071-1.359-2.259-1.359-3.533 0-4.315 5.639-7.818 12.579-7.818 4.482 0 8.415 1.448 10.641 3.649-1.995-2.665-6.535-4.518-11.798-4.518z"></path>
<path fill="#999" d="M17.069 16.857c1.043 0 1.819-0.474 1.819-1.387 0-1.797-1.712-4.405-5.054-4.405-3.361 0-5.207 2.558-5.207 5.029s1.89 4.96 5.36 4.96c1.069 0 2.562-0.156 3.902-1.107 0.773-0.548 0.879-1.448 0.629-1.813-0.413-0.601-1.122-0.607-1.66-0.387-0.742 0.303-1.775 0.792-2.718 0.792-2.254 0-2.335-1.682-2.335-1.682h5.265zM13.853 13.354c1.857 0 1.991 1.665 1.991 1.665h-4.078c0.001 0 0.23-1.665 2.087-1.665z"></path>
<path fill="#999" d="M24.363 21.037c0.931 0 1.713-0.132 2.335-0.416 1.014-0.462 1.65-1.201 1.111-2.114-0.404-0.685-1.281-0.592-1.934-0.331-0.367 0.147-0.772 0.208-1.206 0.208-0.74 0-2.259-0.297-2.259-2.358 0-2.563 2.293-2.597 3.379-2.159 0.678 0.274 1.639 0.375 2.029-0.316 0.572-1.016-0.106-1.769-1.062-2.121-0.626-0.23-1.359-0.347-2.202-0.347-2.812 0-5.322 1.608-5.322 4.995s2.625 4.959 5.131 4.959z"></path>
<path fill="#999" d="M33.341 21.089c3.935 0 5.226-3.048 5.226-5.012s-1.226-5.029-5.226-5.029-5.245 3.103-5.245 5.029 1.31 5.012 5.245 5.012zM33.341 13.7c2.072 0 2.049 2.358 2.049 2.358s-0.031 2.376-2.049 2.376c-2.017 0-2.049-2.376-2.049-2.376s-0.023-2.358 2.049-2.358z"></path>
<path fill="#0c0" d="M42.913 10.804h1.378c1.455 0 2.182 0.549 2.182 1.647 0 1.122-0.727 1.682-2.182 1.682h-1.378v-3.33zM42.913 16.753h2.144c1.249 0 4.862-0.317 4.862-4.301 0-3.84-3.582-4.301-5.111-4.301h-2.871c-1.834 0-2.202 0.699-2.202 2.027v8.729c0 1.363 0.53 2.044 1.589 2.044s1.589-0.679 1.589-2.038v-2.159z"></path>
<path fill="#0c0" d="M55.293 13.787c1.995 0 1.962 2.254 1.962 2.254s0.043 2.289-1.962 2.289c-2.005 0-2.001-2.289-2.001-2.289s0.005-2.254 2.001-2.254zM60.395 18.9v-5.646c0-1.355-0.51-2.033-1.532-2.033-0.626 0-1.117 0.295-1.474 0.884-0.626-0.67-1.455-1.006-2.489-1.006-2.69 0-4.805 2.195-4.805 4.978 0 2.744 2.027 4.943 4.69 4.943 1.098 0 1.965-0.353 2.604-1.058 0.306 0.659 0.797 0.989 1.474 0.989 0.995-0.001 1.532-0.684 1.532-2.051z"></path>
<path fill="#0c0" d="M65.679 16.805l-1.938-4.636c-0.359-0.575-0.376-0.934-1.551-0.934-1.236 0-1.546 1.319-1.299 1.9l3.235 6.858-1.275 2.513c-0.485 0.891-0.379 2.294 1.276 2.294 0.549 0 1.002-0.376 1.359-1.127l4.894-10.504c0.102-0.262 0.391-1.948-1.356-1.948-0.73 0-1.133 0.37-1.452 1.11l-1.895 4.474z"></path>
<path fill="#0c0" d="M75.014 18.21l4.109-4.784c0.419-0.486 0.628-0.897 0.628-1.233 0-0.589-0.154-0.851-1.953-0.851h-4.958c-1.315 0-1.972 0.422-1.972 1.266 0 0.856 0.651 1.283 1.953 1.283h2.661l-4.25 4.978c-0.306 0.358-0.459 0.717-0.459 1.075 0 0.578 0.542 0.867 1.627 0.867h5.647c1.302 0 1.953-0.428 1.953-1.283 0-0.878-0.643-1.318-1.93-1.318h-3.056z"></path>
</svg>
