<!-- Generated by IcoMoon.io -->
<svg version="1.1" xmlns="http://www.w3.org/2000/svg" width="85" height="32" viewBox="0 0 85 32">
<title>iconPay_Visa</title>
<path fill="#06c" d="M38.695 25.28h-4.874l3.046-18.549h4.875l-3.047 18.549zM25.074 19.489l-0.549-2.746-1.911-6.601-4.715-0.977 4.235 16.115h5.078l7.755-18.549h-5.246l-4.646 12.758zM68.058 25.28h4.476l-3.902-18.549h-3.918c-1.809 0-2.25 1.382-2.25 1.382l-7.27 17.166h5.081l1.016-2.755h6.196l0.571 2.755zM62.694 18.719l2.561-6.941 1.441 6.941h-4.002zM56.27 7.209c0 0-2.146-0.809-4.384-0.809-2.419 0-8.163 1.047-8.163 6.14 0 4.792 6.741 4.852 6.741 7.369s-6.047 2.066-8.043 0.479l-0.725 4.165c0 0 2.177 1.047 5.501 1.047 3.326 0 8.344-1.706 8.344-6.35 0-4.823-6.802-5.271-6.802-7.369s4.747-1.828 6.833-0.689l0.697-3.983z"></path>
<path fill="#f90" d="M24.524 16.742l-1.64-8.341c0 0-0.198-1.67-2.312-1.67h-7.682l-0.090 0.314c0 0 3.692 0.758 7.234 3.599 3.387 2.715 4.491 6.099 4.491 6.099z"></path>
</svg>
