<!-- Generated by IcoMoon.io -->
<svg version="1.1" xmlns="http://www.w3.org/2000/svg" width="85" height="32" viewBox="0 0 85 32">
<title>iconPay_Maestro</title>
<path fill="#09f" d="M42.667 25.487c2.679-2.433 4.203-5.877 4.196-9.487 0.006-3.61-1.517-7.054-4.196-9.487-2.266-2.059-5.271-3.313-8.569-3.313-7.050 0-12.765 5.731-12.765 12.8s5.715 12.8 12.765 12.8c3.298 0 6.303-1.254 8.569-3.313z"></path>
<path fill="#f33" d="M51.235 3.2c-3.298 0-6.303 1.254-8.569 3.313-0.462 0.42-0.893 0.873-1.289 1.355h2.577c0.354 0.43 0.679 0.883 0.974 1.355h-4.524c-0.273 0.437-0.518 0.89-0.736 1.355h5.994c0.206 0.441 0.387 0.893 0.542 1.355h-7.076c-0.148 0.445-0.272 0.897-0.371 1.355h7.818c0.191 0.891 0.287 1.799 0.287 2.71 0 1.421-0.231 2.788-0.658 4.066h-7.076c0.154 0.462 0.334 0.914 0.54 1.355h5.994c-0.218 0.466-0.463 0.919-0.735 1.355h-4.523c0.294 0.473 0.62 0.925 0.973 1.355h2.577c-0.396 0.482-0.826 0.935-1.288 1.355 2.265 2.060 5.271 3.314 8.569 3.314 7.050 0 12.765-5.731 12.765-12.8s-5.715-12.8-12.765-12.8v0z"></path>
<path fill="#eee" d="M30.915 19.187l0.944-4.989-2.174 4.989h-1.449l-0.265-4.96-0.947 4.96h-1.442l1.232-6.489h2.479l0.131 4.018 1.748-4.018h2.583l-1.252 6.489h-1.588zM49.116 19.294c-1.541 0-1.24-1.465-1.21-1.633l0.907-4.964h1.58l-0.229 1.212h0.811l-0.218 1.283h-0.814l-0.446 2.42c0 0-0.094 0.564 0.971 0.342l-0.211 1.167c0 0.001-0.567 0.172-1.141 0.172zM53.037 14.709l0.14-0.799h-1.439l-0.969 5.278h1.59c0.227-1.289 0.474-2.447 0.69-3.070 0.358-1.034 1.271-0.671 1.271-0.671l0.576-1.492c0.001 0-0.93-0.528-1.86 0.756zM43.96 15.577c0 0.667 0.375 1.126 1.224 1.471 0.651 0.265 0.751 0.343 0.751 0.582 0 0.329-0.287 0.477-0.923 0.477-0.48 0-0.926-0.065-1.441-0.209l-0.22 1.218c0 0 0.866 0.156 1.672 0.156 1.696 0 2.479-0.557 2.479-1.761 0-0.724-0.327-1.149-1.133-1.469-0.674-0.267-0.752-0.326-0.752-0.573 0-0.284 0.267-0.43 0.787-0.43 0.316 0 0.747 0.030 1.155 0.079l0.229-1.222c-0.416-0.057-1.047-0.103-1.414-0.103-1.797 0-2.42 0.811-2.414 1.785zM37.668 19.187h-1.32l0.031-0.547c0 0-0.478 0.638-1.667 0.638-0.861 0-1.452-0.588-1.452-1.442 0-1.286 1.054-1.798 1.822-1.947s1.616-0.048 1.616-0.048c0.060-0.351 0.318-0.809-0.956-0.823-0.742-0.008-1.683 0.237-1.683 0.237l0.22-1.187c0 0 0.933-0.281 1.902-0.281 2.527 0 2.107 1.707 1.958 2.594s-0.472 2.804-0.472 2.804zM34.871 17.26c-0.305 0.606 0.195 1.082 0.837 0.857 0.778-0.273 0.801-1.281 0.801-1.281s-1.34-0.169-1.637 0.424zM42.879 19.073c0 0-0.668 0.214-1.628 0.214-1.794 0-2.702-0.812-2.702-2.364 0-1.812 1.178-3.146 2.777-3.146 1.308 0 2.143 0.747 2.143 1.918 0 0.521-0.195 1.303-0.195 1.303h-3.159c0 0-0.291 1.090 1.378 1.090 0.906 0 1.65-0.334 1.65-0.334l-0.263 1.319zM42.034 15.933c0 0 0.208-0.949-0.738-0.949-0.845 0-1.013 0.946-1.013 0.946l1.751 0.003zM59.836 16.794c-0.241 1.755-1.46 2.534-3.086 2.534-1.797 0-2.523-1.093-2.523-2.433 0-1.87 1.229-3.138 3.128-3.138 1.836-0.001 2.728 1.233 2.481 3.036zM57.325 15.046c-0.811 0-1.313 0.961-1.313 1.809 0 0.716 0.345 1.196 0.912 1.186 0.584 0 1.126-0.691 1.241-1.402 0.102-0.623 0.118-1.593-0.84-1.593z"></path>
</svg>
