<!-- Generated by IcoMoon.io -->
<svg version="1.1" xmlns="http://www.w3.org/2000/svg" width="85" height="32" viewBox="0 0 85 32">
<title>iconPay_Euteller</title>
<path fill="#999" d="M63.898 9.964h1.528v11.875h-1.528v-11.875z"></path>
<path fill="#999" d="M60.049 9.964h1.528v11.875h-1.528v-11.875z"></path>
<path fill="#999" d="M48.051 19.605v-5.089h1.91v-1.527h-1.91v-1.866h-1.528v1.866h-1.797v1.527h1.797v5.471c0 1.272 1.189 1.852 2.179 1.852h1.372v-1.527h-1.146c-0.551 0-0.877-0.183-0.877-0.707z"></path>
<path fill="#999" d="M41.924 18.615c0 0.678-0.565 1.697-1.924 1.697-1.515 0-1.783-1.117-1.783-1.697s0-5.626 0-5.626h-1.528v6.305c0 1.513 1.542 2.545 3.325 2.545 1.486 0 1.91-0.848 1.91-0.848v0.848h1.528v-8.85h-1.528c-0.001 0-0.001 4.948-0.001 5.627z"></path>
<path fill="#999" d="M51.206 16.65c0 0.749 0 0 0 1.499 0 2.87 2.505 3.69 3.792 3.69s2.632-0.509 2.632-0.509l-0.34-1.357c0 0-0.581 0.339-2.335 0.339-2.278 0-2.221-2.134-2.221-2.134h5.066c0 0 0.17-0.763 0.17-1.527 0-0.608-0.311-3.661-3.41-3.661-3.098 0-3.353 2.912-3.353 3.661zM52.734 16.65c0 0 0-2.134 1.853-2.134s1.853 2.134 1.853 2.134h-3.707z"></path>
<path fill="#999" d="M67.336 16.65c0 0.749 0 0 0 1.499 0 2.87 2.505 3.69 3.792 3.69s2.632-0.509 2.632-0.509l-0.34-1.357c0 0-0.662 0.339-2.335 0.339-2.278 0-2.221-2.134-2.221-2.134h5.066c0 0 0.17-0.763 0.17-1.527 0-0.608-0.311-3.661-3.41-3.661-3.098 0-3.353 2.912-3.353 3.661zM68.865 16.65c0 0 0-2.134 1.853-2.134s1.853 2.134 1.853 2.134h-3.707z"></path>
<path fill="#999" d="M28.227 12.876c0 2.247 0 3.774 0 6.107s1.5 2.855 2.915 2.855 3.849 0 3.849 0v-1.527c0 0-3.17 0-3.849 0s-1.387-0.085-1.387-1.329c0-1.244 0-2.318 0-2.318h5.235v-1.527h-5.235c0 0 0-1.173 0-2.262s0.75-1.386 1.387-1.386 3.849 0 3.849 0v-1.527c0 0-2.349 0-3.849 0s-2.915 0.666-2.915 2.913z"></path>
<path fill="#999" d="M80 12.989c-1.571 0-2.547 0.615-2.547 0.615v-0.615h-1.528v8.85h1.528v-6.708c0 0 1.061-0.615 2.547-0.615v-1.527z"></path>
<path fill="#06c" d="M17.522 8.341c-1.115-0.537-2.365-0.837-3.685-0.837-4.696 0-8.503 3.804-8.503 8.496 0 1.068 0.199 2.089 0.559 3.030 4.896-2.276 8.965-6.030 11.63-10.689z"></path>
<path fill="#06c" d="M8.319 21.443c-0.345 0-0.688-0.009-1.030-0.022 1.56 1.879 3.914 3.076 6.548 3.076 4.212 0 7.707-3.061 8.383-7.077-4.020 2.547-8.788 4.023-13.901 4.023z"></path>
<path fill="#0c0" d="M6.784 20.503c0.735 0.059 1.478 0.092 2.228 0.092 4.795 0 9.305-1.217 13.238-3.359 0.059-0.403 0.091-0.815 0.091-1.235 0-1.17-0.237-2.285-0.666-3.3-4.035 3.898-9.168 6.668-14.891 7.802z"></path>
<path fill="#090" d="M17.947 8.561c-2.655 4.581-6.497 8.39-11.105 11.009 5.585-1.018 10.628-3.587 14.662-7.248-0.767-1.593-2.016-2.909-3.558-3.761z"></path>
<path fill="#f33" d="M15.535 6.571c-0.286 0-0.569 0.015-0.849 0.040 4.814 0.429 8.589 4.467 8.589 9.389s-3.774 8.96-8.589 9.389c0.28 0.025 0.563 0.040 0.849 0.040 5.212 0 9.438-4.221 9.438-9.429s-4.226-9.429-9.438-9.429z"></path>
</svg>
