<!-- Generated by IcoMoon.io -->
<svg version="1.1" xmlns="http://www.w3.org/2000/svg" width="85" height="32" viewBox="0 0 85 32">
<title>iconPay_VisaElectron</title>
<path fill="#06c" d="M20.267 21.042h5.327v1.574h-3.31l-0.022 1.453h3.299v1.508h-3.31l0.012 1.453h3.265v1.573h-5.259l-0.002-7.561zM26.932 20.407h1.939l0.007 8.196h-1.939l-0.007-8.196zM35.542 27.98c-0.658 0.546-1.66 0.82-2.553 0.82-2.039 0-2.965-1.42-2.965-2.83 0-1.661 1.27-3.070 3.020-3.070 2.14 0 2.809 1.486 2.809 3.377h-3.889c0 0.426 0.278 1.147 1.349 1.147 0.68 0 1.059-0.197 1.583-0.546l0.646 1.103zM34.115 25.161c0-0.568-0.279-1.082-0.925-1.082-0.613 0-1.081 0.535-1.204 1.082h2.129zM41.739 28.231c-0.535 0.327-1.415 0.568-2.062 0.568-1.783 0-3.065-1.005-3.065-2.819 0-1.858 1.27-3.082 3.188-3.082 0.669 0 1.471 0.207 1.906 0.481l-0.624 1.245c-0.29-0.12-0.602-0.219-0.914-0.219-0.97 0-1.616 0.569-1.616 1.475 0 0.787 0.624 1.41 1.449 1.41 0.367 0 0.735-0.164 1.047-0.317l0.691 1.257zM42.455 23.096h0.876l-0.006-1.869h1.873l-0.044 1.869h1.594l-0.034 1.377h-1.593c0 0.765-0.056 1.573-0.056 2.043 0 0.481 0.123 0.71 0.558 0.71 0.267 0 0.49-0.131 0.713-0.262l0.423 1.29c-0.57 0.339-1.26 0.547-1.918 0.547-1.572 0-1.649-0.972-1.649-2.24 0-0.678 0.055-1.355 0.055-2.087h-0.836l0.044-1.377zM49.678 23.096l0.022 0.776c0.29-0.47 0.669-0.929 1.427-0.929 0.212 0 0.434 0.022 0.635 0.066l-0.257 1.879c-0.189-0.055-0.402-0.109-0.691-0.109-0.646 0-1.148 0.535-1.148 0.645l-0.033 3.18h-1.939l0.044-5.508 1.939 0.001zM55.275 22.899c2.073 0 3.143 1.29 3.143 2.95s-1.070 2.95-3.143 2.95c-2.073 0-3.143-1.29-3.143-2.95s1.070-2.95 3.143-2.95v0zM55.275 27.357c0.925 0 1.203-0.787 1.203-1.508s-0.278-1.507-1.203-1.507c-0.925 0-1.204 0.786-1.204 1.507s0.279 1.508 1.204 1.508zM61.411 23.096v0.601c0.446-0.426 1.125-0.797 1.817-0.797 1.193 0 1.839 0.644 1.839 2.153 0 1.125-0.011 2.338-0.022 3.551h-1.94c0.011-1.060 0.022-2.131 0.022-3.267 0-0.448-0.123-0.797-0.702-0.797-0.312 0-0.758 0.262-1.014 0.502l-0.010 3.562h-1.974l0.045-5.508h1.939z"></path>
<path fill="#f90" d="M30.415 20.778c6.261-2.631 15.048-5.016 26.683-2.628l0.122-2.893c-12.277-1.315-21.086 2.519-26.806 5.236v0.286z"></path>
<path fill="#06c" d="M39.116 13.169h-2.601l1.625-9.794h2.601l-1.625 9.794zM34.327 3.375l-2.479 6.736-1.168-5.854c0 0-0.106-0.882-1.234-0.882h-4.099l-0.048 0.166c0 0 1.253 0.255 2.72 1.119l2.259 8.509h2.709l4.138-9.794-2.798-0.001zM57.17 13.169l-2.082-9.794h-2.091c-0.965 0-1.201 0.73-1.201 0.73l-3.878 9.064h2.711l0.542-1.455h3.306l0.305 1.455h2.388zM51.921 9.704l1.366-3.665 0.769 3.665h-2.135zM48.122 5.73l0.371-2.103c0 0-1.145-0.427-2.339-0.427-1.291 0-4.355 0.553-4.355 3.242 0 2.53 3.597 2.562 3.597 3.891s-3.226 1.091-4.291 0.253l-0.387 2.199c0 0 1.161 0.553 2.935 0.553s4.452-0.901 4.452-3.353c0-2.546-3.629-2.783-3.629-3.891 0.001-1.107 2.534-0.965 3.646-0.364v0z"></path>
</svg>
