<!-- Generated by IcoMoon.io -->
<svg version="1.1" xmlns="http://www.w3.org/2000/svg" width="85" height="32" viewBox="0 0 85 32">
<title>iconPay_Multibanco</title>
<path fill="#999" d="M57.584 15.465c0-0.979-0.818-2.598-2.682-2.598s-2.687 1.659-2.687 2.598v1.072c0 1.131 0.94 2.597 2.687 2.597s2.684-1.463 2.684-2.597l-0.002-1.072zM56.434 16.537c0 0.426-0.347 1.449-1.533 1.449s-1.535-0.999-1.535-1.449v-1.072c0-0.5 0.403-1.45 1.535-1.45s1.533 0.976 1.533 1.45v1.072z"></path>
<path fill="#999" d="M51.568 17.986c0.318 0 0.576 0.258 0.576 0.575s-0.258 0.573-0.576 0.573h-1.698c-1.427 0-2.27-1.199-2.27-2.267l-0.002-1.731c0-1.052 0.851-2.269 2.272-2.269h1.698c0.318 0 0.576 0.258 0.576 0.575s-0.258 0.575-0.576 0.575l-1.698-0.002c-0.868 0-1.121 0.811-1.121 1.121v1.731c0 0.428 0.342 1.119 1.121 1.119h1.698z"></path>
<path fill="#999" d="M42.571 18.559c0 0.317-0.258 0.575-0.576 0.575s-0.577-0.258-0.577-0.575v-4.757c0 0-0.044-0.505 0.497-0.748s0.961 0.249 0.961 0.249l3.066 3.903v-3.766c0-0.317 0.258-0.575 0.577-0.575s0.576 0.258 0.576 0.575v4.734c0 0 0.019 0.506-0.496 0.747s-0.934-0.214-0.934-0.214l-3.093-3.935v3.787z"></path>
<path fill="#999" d="M40.807 18.49c0.038 0.315-0.186 0.602-0.502 0.641s-0.602-0.186-0.641-0.501l-0.203-1.624h-1.996c-0.318 0-0.576-0.258-0.576-0.575s0.258-0.575 0.576-0.575h1.853l-0.050-0.428c-0.057-0.511-0.477-1.41-1.363-1.41s-1.282 0.82-1.349 1.41l-0.361 3.196c-0.035 0.315-0.319 0.543-0.635 0.508s-0.543-0.319-0.508-0.634l0.362-3.262c0.127-1.096 1.021-2.37 2.49-2.37s2.343 1.228 2.492 2.37l0.409 3.254z"></path>
<path fill="#999" d="M30.627 14.015v3.969h2.226c0 0 0.725-0.002 0.725-0.724s-0.725-0.721-0.725-0.721h-0.767c-0.318 0-0.576-0.258-0.576-0.575s0.258-0.575 0.576-0.575h0.262c0 0 0.636-0.049 0.636-0.688s-0.636-0.685-0.636-0.685h-1.721zM29.475 13.465c0-0.307 0.236-0.6 0.602-0.6h2.22c0.718 0 1.84 0.554 1.84 1.835 0 0.553-0.285 0.978-0.285 0.978s0.875 0.518 0.875 1.582c0 1.388-1.249 1.875-1.873 1.875h-2.802c-0.318 0-0.576-0.258-0.576-0.575v-5.094z"></path>
<path fill="#999" d="M28.991 18.559c0 0.317-0.258 0.575-0.576 0.575s-0.576-0.258-0.576-0.575v-5.119c0-0.317 0.258-0.575 0.576-0.575s0.576 0.258 0.576 0.575v5.119z"></path>
<path fill="#999" d="M25.398 18.559c0 0.317-0.258 0.575-0.576 0.575s-0.576-0.258-0.576-0.575v-4.544h-1.639c-0.318 0-0.576-0.258-0.576-0.575s0.258-0.575 0.576-0.575h4.43c0.318 0 0.576 0.258 0.576 0.575s-0.258 0.575-0.576 0.575h-1.639v4.544z"></path>
<path fill="#999" d="M22.882 17.987c0.318 0 0.576 0.255 0.576 0.573s-0.258 0.575-0.576 0.575h-1.591c-1.12 0-2.163-0.915-2.163-2.162l-0.002-3.533c0-0.317 0.258-0.575 0.576-0.575s0.576 0.258 0.576 0.575v3.533c0 0.404 0.324 1.013 1.013 1.013h1.591z"></path>
<path fill="#999" d="M17.438 13.442c0-0.317 0.258-0.575 0.576-0.575s0.577 0.258 0.577 0.575c0 0 0 1.415 0 3.11s-1.478 2.581-2.587 2.581-2.589-0.892-2.589-2.581c0-1.565 0-3.11 0-3.11 0-0.317 0.258-0.575 0.577-0.575s0.576 0.258 0.576 0.575c0 0-0.002 2.649-0.002 3.11s0.364 1.434 1.439 1.434 1.435-0.974 1.435-1.434-0.001-3.11-0.001-3.11z"></path>
<path fill="#999" d="M13.198 18.536c0.035 0.301-0.201 0.57-0.526 0.602s-0.616-0.186-0.651-0.486l-0.485-4.129-1.728 4.070c0 0-0.151 0.319-0.541 0.319s-0.538-0.319-0.538-0.319l-1.732-4.070-0.485 4.129c-0.035 0.301-0.326 0.518-0.651 0.486s-0.56-0.302-0.526-0.602l0.572-4.871c0 0 0.124-0.807 0.996-0.807 0.665 0 0.9 0.572 0.9 0.572l1.463 3.439 1.463-3.439c0 0 0.234-0.572 0.9-0.572 0.876 0 0.996 0.807 0.996 0.807l0.571 4.871z"></path>
<path fill="#06c" d="M78.237 25.431c1.856 0 1.875-1.97 1.685-2.942-0.103-0.653-1.215-0.648-1.338 0v0.759c0 0.347-0.284 0.63-0.631 0.63h-15.583c-0.347 0-0.631-0.284-0.631-0.63v-0.759c-0.123-0.648-1.235-0.653-1.338 0-0.189 0.972-0.171 2.942 1.685 2.942h16.151zM76.895 6.569c0.881 0 1.601 0.761 1.601 1.691v0.809c0 1.143-1.551 1.139-1.551 0.007v-0.442c0-0.281-0.23-0.51-0.511-0.51h-12.558c-0.282 0-0.511 0.23-0.511 0.51v0.433c0 1.137-1.478 1.129-1.478 0.025v-0.831c0-0.93 0.721-1.691 1.601-1.691h13.407z"></path>
<path fill="#999" d="M71.575 19.778c0.048 0.449-0.278 0.852-0.728 0.899s-0.853-0.277-0.901-0.726l-0.671-6.165-2.393 6.078c0 0-0.209 0.476-0.75 0.476s-0.745-0.476-0.745-0.476l-2.398-6.078-0.671 6.165c-0.048 0.449-0.451 0.774-0.901 0.726s-0.775-0.451-0.728-0.899l0.791-7.274c0 0 0.172-1.205 1.379-1.205 0.92 0 1.246 0.854 1.246 0.854l2.026 5.136 2.025-5.136c0 0 0.324-0.854 1.246-0.854 1.213 0 1.379 1.205 1.379 1.205l0.792 7.274z"></path>
<path fill="#999" d="M78.18 15.86c0.45-0.467 0.727-1.1 0.727-1.795 0-1.427-1.171-2.595-2.602-2.595h-3.399c-0.375 0-0.682 0.306-0.682 0.68v7.753c0 0.357 0.313 0.649 0.694 0.649h4.081c1.457 0 2.647-1.115 2.647-2.477 0-0.966-0.599-1.808-1.467-2.215zM76.943 19.202h-3.31v-6.434h2.61c0.678 0 1.233 0.554 1.233 1.23 0 0.613-0.455 1.14-1.046 1.23h-1.296c-0.394 0-0.715 0.322-0.715 0.714s0.322 0.714 0.715 0.714l1.809 0.003c0.7 0 1.273 0.572 1.273 1.27s-0.573 1.271-1.273 1.271z"></path>
</svg>
