<!-- Generated by IcoMoon.io -->
<svg version="1.1" xmlns="http://www.w3.org/2000/svg" width="85" height="32" viewBox="0 0 85 32">
<title>iconPay_Przelewy</title>
<path fill="#f33" d="M60.892 18.025l-2.93 5.727-1.035-5.727h-1.644l1.525 7.924-0.442 0.762c-0.276 0.443-0.67 0.512-1.498 0.416l-0.246 1.46c0 0 0.531 0.108 0.92 0.108 1.513 0 2.237-1.432 2.776-2.476l4.221-8.194h-1.648z"></path>
<path fill="#f33" d="M53.459 18.025l-2.382 5.534-0.565-5.534h-1.911l-2.382 5.534-0.547-5.534h-1.548l0.786 7.791h1.875l2.41-5.441 0.55 5.441h1.907l3.414-7.791z"></path>
<path fill="#f33" d="M35.498 15.009l-1.813 10.807h1.619l1.809-10.807z"></path>
<path fill="#f33" d="M28.308 22.453h5.262l0.305-1.929c0.156-1.409-0.19-2.625-3.144-2.625-2.749 0-3.502 1.369-3.729 2.57l-0.482 3.020c-0.164 1.271 0.387 2.474 2.89 2.474 3.566 0 3.724-1.627 4.048-2.789h-1.676c-0.194 0.788-0.302 1.281-1.908 1.281-1.813 0-1.793-0.394-1.685-1.261l0.119-0.741zM28.701 20.373c0.207-0.716 0.546-0.933 1.95-0.933s1.606 0.236 1.566 0.946l-0.054 0.559h-3.606l0.143-0.572z"></path>
<path fill="#f33" d="M38.239 22.453h5.262l0.305-1.929c0.156-1.409-0.19-2.625-3.144-2.625-2.749 0-3.502 1.369-3.729 2.57l-0.482 3.020c-0.164 1.271 0.387 2.474 2.89 2.474 3.566 0 3.724-1.627 4.048-2.789h-1.676c-0.194 0.788-0.302 1.281-1.908 1.281-1.813 0-1.793-0.394-1.685-1.261l0.119-0.741zM38.633 20.373c0.207-0.716 0.546-0.933 1.95-0.933s1.606 0.236 1.566 0.946l-0.054 0.559h-3.606l0.143-0.572z"></path>
<path fill="#f33" d="M27.141 18.025h-6.166l-0.246 1.538h3.943l-4.942 4.732-0.266 1.521h6.371l0.251-1.466h-4.326l5.156-4.922z"></path>
<path fill="#f33" d="M18.918 18.025c-0.651 0-1.265 0.257-1.79 0.544l0.092-0.544h-1.724l-1.38 7.791h1.725l0.765-4.316c0.159-0.876 0.811-1.937 2.090-1.937h0.892l0.268-1.538h-0.938z"></path>
<path fill="#f33" d="M11.837 15.011l-4.701-0.001-1.803 10.846 1.678 0.002 0.663-4.020h3.254c2.225 0 3.131-0.782 3.404-2.423l0.327-2.113c0.169-1.486-0.435-2.29-2.823-2.29zM12.939 17.548l-0.348 1.922c-0.107 0.541-0.519 0.78-1.919 0.78h-2.72l0.597-3.611h3.056c1.184 0 1.462 0.16 1.333 0.909z"></path>
<path fill="#999" d="M65.283 22.238l3.537-0.96c1.882-0.517 2.090-1.419 2.331-2.14s0.308-1.47 0.308-2.259c0-1.875-1.782-1.994-3.481-1.994-3.078 0-3.873 0.674-4.367 1.83-0.327 0.765-0.475 2.094-0.475 2.094l1.7 0.002 0.192-1.134c0.158-0.778 0.412-1.006 1.073-1.129s1.962-0.142 3.159 0.044c0.3 0.047 0.614 0.201 0.535 0.775l-0.141 1.035c-0.085 0.525-0.143 0.994-1.006 1.257l-3.62 1.006c-1.016 0.301-2.304 0.833-2.6 2.505l-0.468 2.645h8.126l0.271-1.574h-6.427l0.116-0.75c0.144-0.74 0.243-0.927 1.238-1.252z"></path>
<path fill="#999" d="M78.432 21.825l1.138-6.82h-2.016l-6.283 6.747-0.285 1.708h5.494l-0.402 2.357h1.685l0.398-2.357h1.557l0.282-1.635h-1.568zM76.754 21.825h-3.553l4.324-4.606-0.772 4.606z"></path>
<path fill="#999" d="M24.228 11.374c-2.394 1.391-4.565 2.913-6.471 4.525h4.928c1.299-1.171 2.738-2.253 4.299-3.223l-2.756-1.302z"></path>
<path fill="#999" d="M36.004 6.236c-3.439 1.081-6.656 2.413-9.587 3.936l2.259 1.524c2.387-1.291 5.020-2.33 7.844-3.052l-0.516-2.408z"></path>
<path fill="#999" d="M49.89 3.499c-3.159 0.259-6.426 0.78-9.734 1.583-0.773 0.188-1.537 0.388-2.292 0.601l0.452 2.551c3.481-0.701 6.913-0.849 10.148-0.509l1.426-4.225z"></path>
<path fill="#999" d="M68.276 5.334c-4.489-1.489-9.851-2.195-15.655-1.994l-2.301 4.636c2.881 0.48 5.573 1.356 7.969 2.578l9.988-5.219z"></path>
<path fill="#999" d="M72.195 6.944l-12.059 4.657c0.807 0.508 1.571 1.059 2.287 1.651h17.147c-1.612-2.562-4.151-4.688-7.375-6.308z"></path>
</svg>
