<!-- Generated by IcoMoon.io -->
<svg version="1.1" xmlns="http://www.w3.org/2000/svg" width="85" height="32" viewBox="0 0 85 32">
<title>iconPay_Bitcoin</title>
<path fill="#f90" d="M24.793 16c0 5.366-4.356 9.717-9.73 9.717s-9.73-4.35-9.73-9.717c0-5.366 4.356-9.717 9.73-9.717s9.73 4.35 9.73 9.717z"></path>
<path fill="#eee" d="M19.353 14.623c0.146-0.877-0.245-1.845-2.14-2.452l0.437-1.751-1.068-0.266-0.426 1.705c-0.284-0.070-0.57-0.137-0.855-0.201l0.429-1.716-1.067-0.266-0.437 1.751c-0.233-0.053-2.153-0.533-2.153-0.533l-0.284 1.139c0 0 0.792 0.181 0.775 0.193 0.433 0.108 0.51 0.394 0.498 0.62l-1.198 4.798c-0.053 0.131-0.187 0.328-0.49 0.253 0.011 0.015-0.775-0.194-0.775-0.194l-0.53 1.221c0 0 1.901 0.478 2.15 0.542l-0.442 1.772 1.066 0.266 0.437-1.753c0.291 0.079 0.574 0.152 0.851 0.221l-0.436 1.745 1.067 0.266 0.441-1.769c1.82 0.344 3.189 0.205 3.765-1.439 0.465-1.324-0.023-2.087-0.981-2.586 0.745-0.181 1.214-0.675 1.363-1.565zM16.914 18.039c-0.33 1.324-2.562 0.609-3.285 0.429l0.586-2.347c0.723 0.18 3.044 0.537 2.699 1.918zM17.244 14.604c-0.301 1.204-2.159 0.592-2.762 0.442l0.532-2.129c0.787 0.198 2.531 0.483 2.23 1.686z"></path>
<path fill="#999" d="M34.594 13.521c1.804 0.709 2.36 3.694 1.385 5.858-1.085 2.408-3.053 3.661-5.418 3.664s-3.679-0.695-3.679-0.695l3.089-12.963 2.767-0.428-1.106 4.6c-0.001-0.001 1.267-0.702 2.962-0.036zM31.595 20.724c0.763-0.263 1.542-1.030 1.964-2.139 0.576-1.512 0.060-2.812-0.356-2.99-1.182-0.506-2.126 0.298-2.126 0.298l-1.178 4.885c0.001 0 0.933 0.209 1.696-0.054zM39.302 22.794h-2.643l2.231-9.378h2.661l-2.25 9.378zM39.292 10.233c0.261-0.543 0.783-1.097 1.689-1.097 1.284 0 1.716 1.148 1.293 2.042-0.384 0.812-1.045 1.095-1.631 1.095-1.506 0-1.709-1.294-1.35-2.041zM68.699 10.233c0.261-0.543 0.783-1.097 1.689-1.097 1.284 0 1.716 1.148 1.293 2.042-0.384 0.812-1.045 1.095-1.631 1.095-1.506 0-1.709-1.294-1.35-2.041zM43.868 11.079l2.768-0.428-0.679 2.764h2.964l-0.535 2.175h-2.946l-0.785 3.281c-0.073 0.273-0.669 1.926 1.142 1.926 1.1 0 1.642-0.303 1.642-0.303l0.197 2.033c0 0-0.876 0.48-2.967 0.48-3.17 0-2.909-2.701-2.669-3.933 0.183-0.941 1.869-7.994 1.869-7.994v0zM49.196 16.767c1.474-3.52 4.375-3.61 5.231-3.602 1.635 0.014 2.59 0.553 2.59 0.553l-0.911 2.069c0 0-1.395-0.678-2.661-0.225-1.364 0.488-1.836 1.799-1.91 2.746-0.094 1.215 0.246 2.194 1.23 2.429 1.013 0.243 2.485-0.314 2.485-0.314l0.197 2.122c0 0-1.142 0.499-2.554 0.499-4.831 0.001-4.313-4.805-3.697-6.276zM60.543 23.043c-3.845 0-4.141-3.655-3.365-6.009 0.426-1.291 1.885-3.87 4.935-3.87 3.842 0 4.161 3.702 3.376 6.011-0.412 1.212-1.723 3.868-4.946 3.868zM61.863 15.412c-1.396 0-1.949 1.379-2.24 2.326s-0.439 3.059 1.17 3.059c1.188 0 1.979-1.179 2.242-2.327 0.285-1.242 0.38-3.058-1.171-3.058zM66.062 22.794l2.231-9.378h2.662l-2.249 9.378h-2.644zM72.86 13.843c0 0 2.556-0.935 4.853-0.537s2.562 2.467 2.092 4.423-1.215 5.063-1.215 5.063h-2.66l1.178-4.957c0 0 0.267-1.148 0.161-1.667-0.232-1.138-2.177-0.632-2.177-0.632l-1.732 7.256h-2.661l2.161-8.95z"></path>
</svg>
