<!-- Generated by IcoMoon.io -->
<svg version="1.1" xmlns="http://www.w3.org/2000/svg" width="85" height="32" viewBox="0 0 85 32">
<title>iconPay_Ideal</title>
<path fill="#333" d="M27.733 3.2h15.404c10.455 0 14.462 5.647 14.462 12.771 0 8.542-5.596 12.829-14.462 12.829h-15.404v-25.6z"></path>
<path fill="#eee" d="M29.227 27.324h13.911c8.398 0 12.968-3.871 12.968-11.353 0-7.689-4.954-11.295-12.968-11.295h-13.911v22.647z"></path>
<path fill="#333" d="M31.093 17.638h4.453v7.839h-4.453v-7.839z"></path>
<path fill="#333" d="M36.086 13.659c0 1.512-1.239 2.738-2.767 2.738s-2.767-1.226-2.767-2.738c0-1.512 1.239-2.738 2.767-2.738s2.767 1.226 2.767 2.738z"></path>
<path fill="#f36" d="M44.884 14.965v1.269h-3.173v-5.094h3.071v1.269h-1.789v0.59h1.692v1.269h-1.692v0.697h1.89zM46.993 11.139h1.825l1.552 5.097h-1.335l-0.291-0.986h-1.678l-0.292 0.986h-1.333l1.553-5.097zM47.441 13.981h0.929l-0.426-1.439h-0.078l-0.425 1.439zM52.299 11.139v3.826h1.9c0-4.343-3.377-8.443-10.527-8.443h-5.883v4.619h0.791c1.444 0 2.34 0.968 2.34 2.526 0 1.607-0.875 2.567-2.34 2.567h-0.791v9.243h5.35c8.156 0 11.098-3.919 11.098-9.243h-3.221v-5.095l1.283-0.001zM37.788 12.411v2.555h0.793c0.549 0 1.057-0.157 1.057-1.298 0-1.114-0.565-1.257-1.057-1.257h-0.793z"></path>
</svg>
