<!-- Generated by IcoMoon.io -->
<svg version="1.1" xmlns="http://www.w3.org/2000/svg" width="85" height="32" viewBox="0 0 85 32">
<title>iconPay_SafetyPay</title>
<path fill="#06c" d="M46.4 8.533c3.61 0 7.344 3.123 7.344 7.467h-2.028c0-3.146-2.818-5.417-5.316-5.417v-2.050zM44.91 12.927l3.88 3.073h-3.883l0.003-3.073z"></path>
<path fill="#09f" d="M46.4 21.417c2.499 0 5.316-2.271 5.316-5.417h2.028c0 4.343-3.734 7.467-7.344 7.467v-2.050zM44.908 16h3.883l-3.88 3.073-0.003-3.073z"></path>
<path fill="#09f" d="M71.757 11.678h1.598l1.263 6.71 3.631-6.71h1.75c0 0-3.862 6.592-5.794 9.887-0.531 0.898-1.276 1.63-2.319 1.845-0.774 0.154-1.466-0.092-2.129-0.476 0.23-0.37 0.465-0.737 0.706-1.1 0.479 0.222 0.934 0.369 1.452 0.156 0.859-0.337 1.236-1.292 1.721-2.015-0.606-2.771-1.879-8.297-1.879-8.297zM60.603 11.672c-1.94 0-2.878 1.524-2.878 1.524l0.337-1.51h-1.41l-2.244 11.767h1.519l0.844-4.616c0 0 0.624 1.418 2.377 1.418s3.79-1.362 4.329-4.136-0.933-4.447-2.873-4.447zM62.323 15.681c-0.152 1.163-1.049 3.167-3.312 3.167-1.368 0-2.044-1.396-1.655-3.167 0.215-0.983 1.284-2.653 3.108-2.653s1.977 1.761 1.86 2.653zM69.030 11.719c-1.305-0.173-2.563 0.173-3.704 0.8 0.133 0.417 0.272 0.833 0.407 1.249 0.844-0.455 1.47-0.753 2.649-0.753 0.667 0 1.573 0.185 1.147 1.92-1.513-0.016-3.335 0.134-4.619 1.032-1.017 0.677-1.522 2.198-0.834 3.281 0.583 0.883 1.914 1.205 2.877 0.884 0.861-0.234 1.53-0.815 2.026-1.55l-0.348 1.686h1.428l1.015-5.274c0.537-2.703-1.333-3.181-2.044-3.275zM66.869 18.943c-0.407 0-1.534-0.016-1.534-1.173 0-1.649 3.037-1.667 4.007-1.667-0.407 1.762-1.722 2.84-2.473 2.84z"></path>
<path fill="#06c" d="M23.745 8.579v1.349c-1.424 0-2.086 0.405-2.086 1.748h1.922v1.273h-1.922v7.313h-1.531v-7.313h-1.004v-1.273h1.004c0-2.214 0.909-3.097 3.617-3.097zM31.952 8.559h1.553v3.117h1.945v1.273h-1.945v4.101c0 1.443 0.862 1.799 2.093 1.799v1.406c-2.893 0-3.646-1.183-3.646-3.118v-4.187h-1.044v-1.273h1.044v-3.117zM11.145 12.559l-0.615 1.193c0 0-0.983-0.713-2.026-0.713s-1.314 0.673-1.314 0.91c0 0.57 0.584 0.968 1.314 1.231 1.29 0.465 2.841 1.067 2.841 2.811 0 0.873-0.86 2.278-2.841 2.278s-3.171-1.198-3.171-1.198l0.752-1.129c0 0 1.051 0.948 2.419 0.948 0.473 0 1.229-0.422 1.229-0.846 0-0.734-0.381-0.936-1.229-1.305s-2.901-0.935-2.901-2.775c0-1.284 1.142-2.282 2.901-2.282s2.641 0.877 2.641 0.877zM35.663 11.676h1.757l2.421 6.523 2.324-6.523h1.686l-3.545 9.039c-0.208 0.535-0.787 2.751-2.923 2.751-0.782 0-1.598-0.508-1.598-0.508l0.548-1.192c0 0 0.596 0.324 0.972 0.324 0.955 0 1.354-0.951 1.83-2.121l-3.473-8.294zM30.721 16.185v-1.127c0 0-0.137-3.375-3.486-3.375s-4.034 3.027-4.034 4.217c0 2.046 1.373 4.372 4.216 4.372 1.946 0 3.212-1.174 3.212-1.174l-0.638-1.153c0 0-1.099 0.942-2.554 0.942-2.429 0-2.654-2.702-2.654-2.702h5.938zM27.187 12.931c1.941 0 2.003 2.074 2.003 2.074h-4.359c0-0.001 0.414-2.074 2.356-2.074zM18.625 15.021c0-2.485-1.444-3.34-3.196-3.34s-3.031 0.957-3.031 0.957l0.642 1.146c0 0 1.241-0.766 2.074-0.766s1.974 0.105 1.974 1.921c-4.099 0-5.236 1.073-5.236 3.036 0 0.873 0.902 2.285 2.717 2.285s2.612-1.574 2.612-1.574l-0.012 1.575h1.457v-5.24zM14.913 18.973c-1.034 0-1.754-0.775-1.422-1.71 0.443-1.248 2.751-1.127 3.626-1.127 0 0.889-0.547 2.837-2.204 2.837z"></path>
</svg>
