<!-- Generated by IcoMoon.io -->
<svg version="1.1" xmlns="http://www.w3.org/2000/svg" width="85" height="32" viewBox="0 0 85 32">
<title>iconPay_Qiwi</title>
<path fill="#f90" d="M53.375 9.596v11.222c0 0.169-0.135 0.305-0.302 0.305h-2.271c-0.167 0-0.302-0.137-0.302-0.305v-11.222c0-0.169 0.135-0.305 0.302-0.305h2.271c0.167 0 0.302 0.137 0.302 0.305zM71.075 9.291h-2.541c-0.133 0-0.25 0.087-0.289 0.214l-2.011 6.632-2.21-6.639c-0.041-0.124-0.157-0.207-0.287-0.207h-1.773c-0.13 0-0.245 0.083-0.287 0.207l-2.21 6.639-2.011-6.632c-0.039-0.127-0.156-0.214-0.289-0.214h-2.541c-0.383 0-0.317 0.306-0.286 0.398l3.733 11.228c0.041 0.124 0.157 0.207 0.286 0.207h2.017c0.13 0 0.245-0.083 0.286-0.207l2.189-6.56 2.189 6.56c0.041 0.123 0.157 0.207 0.286 0.207h2.017c0.13 0 0.245-0.083 0.286-0.207l3.733-11.228c0.031-0.092 0.082-0.398-0.286-0.398zM74.898 9.291h-2.271c-0.167 0-0.302 0.137-0.302 0.305v11.222c0 0.169 0.135 0.305 0.302 0.305h2.271c0.167 0 0.302-0.137 0.302-0.305v-11.222c0-0.169-0.135-0.305-0.302-0.305zM49.186 20.738c0.132 0.148 0.023 0.386-0.176 0.386h-2.783c-0.113 0-0.221-0.051-0.293-0.139l-0.472-0.573c-0.961 0.629-2.105 0.996-3.333 0.996-3.388 0-6.145-2.782-6.145-6.202s2.756-6.202 6.145-6.202c3.388 0 6.145 2.782 6.145 6.202 0 1.233-0.359 2.381-0.977 3.348l1.89 2.183zM43.669 18.237l-1.219-1.48c-0.128-0.155-0.019-0.39 0.181-0.39h2.55c0.122-0.365 0.19-0.755 0.19-1.159 0-1.854-1.367-3.452-3.244-3.452s-3.244 1.598-3.244 3.452 1.367 3.43 3.244 3.43c0.569 0 1.090-0.147 1.541-0.4zM28.925 20.318c0.147 0.449 0.138 0.993-0.107 1.021-0.215 0.025-0.373-0.202-0.633-0.561-0.241-0.332-0.333-0.957-0.134-1.095 0.361-0.25 0.722 0.174 0.873 0.635zM26.838 21.701c0.47 0.402 0.639 0.9 0.365 1.215-0.469 0.539-1.164 0.188-1.351 0.023-0.428-0.377-0.56-0.995-0.274-1.337 0.369-0.442 1.028-0.101 1.26 0.098zM26.051 25.576c2.027 0 4.226 0.701 6.66 2.878 0.244 0.218 0.569-0.053 0.356-0.324-2.392-3.048-4.604-3.628-6.811-4.119-2.699-0.6-4.087-2.133-5.054-3.815-0.193-0.335-0.279-0.276-0.296 0.155-0.021 0.526 0.141 1.912-0.197 1.912-3.861 0-6.991-3.159-6.991-7.055s3.13-7.055 6.991-7.055c3.861 0 6.991 3.159 6.991 7.055 0 0.277-0.013 0.551-0.044 0.82-0.511-0.093-1.515-0.103-2.22-0.042-0.265 0.023-0.228 0.148-0.027 0.185 2.311 0.421 3.899 1.867 4.261 4.49 0.009 0.060 0.086 0.078 0.117 0.026 0.951-1.602 1.497-3.476 1.497-5.479 0-5.895-4.734-10.674-10.575-10.674s-10.575 4.779-10.575 10.673 4.735 10.674 10.575 10.674c1.549 0 3.086-0.304 5.342-0.304z"></path>
</svg>
