<!-- Generated by IcoMoon.io -->
<svg version="1.1" xmlns="http://www.w3.org/2000/svg" width="85" height="32" viewBox="0 0 85 32">
<title>iconPay_TrustPay</title>
<path fill="#09f" d="M5.337 10.271l0.51-2.403h10.855l-0.51 2.403h-3.898l-2.222 10.595h-2.878l2.222-10.595h-4.079z"></path>
<path fill="#09f" d="M18.187 11.454l-0.382 1.693 0.036 0.036c0.291-0.655 0.909-1.93 4.043-1.93l-0.528 2.512c0 0-3.381-0.426-4.134 2.931l-0.874 4.169h-2.568l1.949-9.412h2.459z"></path>
<path fill="#09f" d="M27.119 20.866l0.291-1.311h-0.036c-0.838 1.031-1.937 1.547-3.297 1.547-3.463 0-2.681-3.192-2.65-3.35s1.339-6.299 1.339-6.299h2.586l-1.308 6.419c-0.114 0.694 0.488 1.209 1.235 1.209 2.109 0 2.597-2.442 2.597-2.442l1.1-5.186h2.586l-1.967 9.412h-2.477z"></path>
<path fill="#09f" d="M36.276 12.929c-1.187 0-1.585 0.386-1.585 0.929 0 0.51 0.642 0.86 2.477 1.365 3.21 0.884 2.59 3.41 2.085 4.178s-1.602 1.702-4.089 1.702c-2.228 0-3.989-0.79-3.989-3.295h2.386c0 1.185 0.923 1.584 1.684 1.584 1.15 0 1.569-0.383 1.668-0.591s0.526-1.151-0.783-1.574c-2.649-0.856-4.025-0.947-4.025-3.040 0-1.419 1.262-2.986 4.171-2.986 1.555 0 3.861 0.255 3.861 3.004h-2.404c0.001-0.592-0.27-1.276-1.457-1.276z"></path>
<path fill="#09f" d="M47.521 11.454l-0.401 1.73h-1.839l-0.965 4.678c-0.214 1.030 0.253 1.129 0.802 1.129l0.929-0.054-0.437 1.985c0 0-0.761 0.091-2.082 0.091-1.636 0-2.194-1.106-1.962-2.303 0.186-0.955 1.147-5.525 1.147-5.525h-1.694l0.401-1.73h1.657l0.583-2.858h2.586l-0.582 2.858h1.858z"></path>
<path fill="#999" d="M56.407 7.868c0.755 0 4.517-0.166 4.517 3.787s-3.909 4.551-5.063 4.551h-3.533l-0.983 4.66h-2.841l2.695-12.998h5.209zM55.715 13.985c1.259 0 2.349-0.593 2.349-2.276s-1.633-1.62-2.022-1.62h-2.441l-0.802 3.896h2.915z"></path>
<path fill="#999" d="M65.738 11.199c4.738 0 3.985 2.723 3.715 4.060l-1.131 5.607h-2.33v-0.929c0 0-0.951 1.165-2.878 1.165s-2.587-0.988-2.859-1.52-0.366-2.214 0.756-3.122c0.895-0.724 1.742-0.97 3.55-1.112 2.368-0.187 2.687-0.488 2.687-1.273 0-0.463-0.289-1.147-1.639-1.147-1.766 0-1.913 1.383-1.913 1.383h-2.422c0.001 0 0.141-3.113 4.462-3.113zM62.72 17.807c-0.541 1.716 1.541 1.809 2.542 1.273 1.273-0.681 1.477-2.729 1.477-2.729-1.158 0.762-3.563 0.011-4.019 1.457z"></path>
<path fill="#999" d="M71.129 24.133c-1.452 0-2.144-0.063-2.144-0.063l0.437-2.148c1.679 0.413 2.138-0.074 2.75-1.147l-1.676-9.321h2.659l0.82 6.735h0.037l3.26-6.735h2.732l-5.992 10.723c0-0.001-0.844 1.956-2.883 1.956z"></path>
</svg>
