<?xml version="1.0" encoding="utf-8"?>
<!-- Generator: Adobe Illustrator 21.0.0, SVG Export Plug-In . SVG Version: 6.00 Build 0)  -->
<svg version="1.1" id="Слой_1" xmlns="http://www.w3.org/2000/svg" xmlns:xlink="http://www.w3.org/1999/xlink" x="0px" y="0px"
	 width="54px" height="44px" viewBox="0 0 54 44" style="enable-background:new 0 0 54 44;" xml:space="preserve">
<style type="text/css">
	.st0{fill-rule:evenodd;clip-rule:evenodd;fill:#12100C;}
</style>
<path id="ornament_x5F_footter" class="st0" d="M54,24.2c-0.4,0.7-0.8,1.4-1.2,2.1c-1.8,2.9-3.9,5.3-6.3,7.2c0,0-2.1,1.7-4.7,2.8
	c-0.2,0.1-0.4,0.2-0.6,0.3c-0.3,0.1-0.7,0.3-1,0.4c-0.2,0.1-0.4,0.2-0.5,0.3c-4.9,1.7-9.9,1.6-14.9-0.4c-8.2-3.3-11.8-11.9-8.4-19.8
	c2.6-6,9.1-8.9,14.6-6.5c3.4,1.5,5,5.1,3.6,8.6c-0.4,0.9-1.2,1.5-2.1,2.5c-0.6-4-2-5.6-4.4-5.8c-2.5-0.2-4.9,1.2-5.6,3.6
	c-0.7,2.4-0.3,4.7,1.1,6.7c3,4.2,10.2,4.9,14.7,1.5c6.1-4.6,7.2-14.1,2.6-20.6c-5.7-8.2-20-8.6-26.4-3.9c-4.4,3.2-7.7,7.3-10,12.2
	C3,18.1,1.6,21,0,23.8V44c12.7,0,25.5,0,38.2,0c0.9,0,1.9,0,2.8,0c1.9,0,6.7,0,13,0V24.2z M5.5,38.3c-1.5,0-2.6-1.1-2.7-2.6
	c0-1.4,1.1-2.5,2.5-2.6c1.5-0.1,2.7,1.1,2.8,2.5C8.2,37.1,6.9,38.3,5.5,38.3z M50.3,3.6c0-1.7,1.6-3.3,3.4-3.3c0.1,0,0.2,0,0.3,0
	v6.6c-0.1,0-0.2,0-0.3,0C51.8,7,50.4,5.5,50.3,3.6z M0,0.3C1.6,0.6,2.9,2,2.9,3.6C3,5.4,1.7,6.7,0,6.9V0.3z"/>
</svg>
