<?xml version="1.0" encoding="utf-8"?>
<!-- Generator: Adobe Illustrator 21.0.0, SVG Export Plug-In . SVG Version: 6.00 Build 0)  -->
<svg version="1.1" id="Слой_1" xmlns="http://www.w3.org/2000/svg" xmlns:xlink="http://www.w3.org/1999/xlink" x="0px" y="0px"
	 width="36px" height="42px" viewBox="0 0 36 42" style="enable-background:new 0 0 36 42;" xml:space="preserve">
<style type="text/css">
	.st0{fill-rule:evenodd;clip-rule:evenodd;}
	.st1{fill-rule:evenodd;clip-rule:evenodd;fill:#FFB400;}
	.st2{fill-rule:evenodd;clip-rule:evenodd;fill:#FF7E00;}
	.st3{fill-rule:evenodd;clip-rule:evenodd;fill:#FFFF00;}
</style>
<g id="bigarrow_x5F_left">
	<path class="st0" d="M0,22l0-2L36,0v2L14,24l22,16v2H20L0,22z"/>
	<path class="st1" d="M0,20L20,0l16,0L16,20l20,20H20L0,20z"/>
	<path class="st2" d="M16,15L31,0l5,0L18.5,17.5L16,15z M2.5,17.5L0,20l20,20h16l-5-5H20L2.5,17.5z"/>
	<path class="st3" d="M20,5L2.5,22.5L0,20L20,0l16,0l-5,5H20z M31,40h5L18.5,22.5L16,25L31,40z"/>
</g>
</svg>
