<svg id="Icon" xmlns="http://www.w3.org/2000/svg" xmlns:xlink="http://www.w3.org/1999/xlink" width="12.323" height="23.277" viewBox="0 0 12.323 23.277">
  <defs>
    <clipPath id="clip-path">
      <path id="Facebook" d="M8,23.277V12.66h3.632l.545-4.139H8V5.879c0-1.2.338-2.014,2.091-2.014h2.233V.162A30.858,30.858,0,0,0,9.069,0C5.848,0,3.643,1.928,3.643,5.469V8.521H0V12.66H3.643V23.277Z" fill="#212123"/>
    </clipPath>
  </defs>
  <path class="fill" id="Facebook-2" data-name="Facebook" d="M8,23.277V12.66h3.632l.545-4.139H8V5.879c0-1.2.338-2.014,2.091-2.014h2.233V.162A30.858,30.858,0,0,0,9.069,0C5.848,0,3.643,1.928,3.643,5.469V8.521H0V12.66H3.643V23.277Z" fill="#212123"/>
</svg>
