<svg id="Icon" xmlns="http://www.w3.org/2000/svg" xmlns:xlink="http://www.w3.org/1999/xlink" width="24.732" height="20.09" viewBox="0 0 24.732 20.09">
  <!-- <defs>
    <clipPath id="clip-path">
      <path id="Shape" d="M24.732,2.377a10.132,10.132,0,0,1-2.913.8A5.1,5.1,0,0,0,24.049.371,10.228,10.228,0,0,1,20.825,1.6,5.078,5.078,0,0,0,12.18,6.228,14.4,14.4,0,0,1,1.723.927,5.079,5.079,0,0,0,3.293,7.7,5.074,5.074,0,0,1,1,7.063v.063A5.079,5.079,0,0,0,5.064,12.1a5.139,5.139,0,0,1-1.337.178,4.87,4.87,0,0,1-.955-.094,5.076,5.076,0,0,0,4.738,3.524,10.179,10.179,0,0,1-6.3,2.168A10.783,10.783,0,0,1,0,17.807,14.341,14.341,0,0,0,7.777,20.09,14.335,14.335,0,0,0,22.212,5.655L22.195,5A10.132,10.132,0,0,0,24.732,2.377Z" fill="#212123"/>
    </clipPath>
  </defs> -->
  <path class="fill" id="Shape-2" data-name="Shape" d="M24.732,2.377a10.132,10.132,0,0,1-2.913.8A5.1,5.1,0,0,0,24.049.371,10.228,10.228,0,0,1,20.825,1.6,5.078,5.078,0,0,0,12.18,6.228,14.4,14.4,0,0,1,1.723.927,5.079,5.079,0,0,0,3.293,7.7,5.074,5.074,0,0,1,1,7.063v.063A5.079,5.079,0,0,0,5.064,12.1a5.139,5.139,0,0,1-1.337.178,4.87,4.87,0,0,1-.955-.094,5.076,5.076,0,0,0,4.738,3.524,10.179,10.179,0,0,1-6.3,2.168A10.783,10.783,0,0,1,0,17.807,14.341,14.341,0,0,0,7.777,20.09,14.335,14.335,0,0,0,22.212,5.655L22.195,5A10.132,10.132,0,0,0,24.732,2.377Z" fill="#212123"/>
</svg>
