<svg xmlns="http://www.w3.org/2000/svg" width="31" height="15" viewBox="0 0 31 15">
  <g id="Vector_Smart_Object" data-name="Vector Smart Object" transform="translate(0 -8.022)">
    <path id="Path_119" data-name="Path 119" d="M5.316,14.1H3.791a.681.681,0,1,0,0,1.362H5.316a.681.681,0,1,0,0-1.362Z" fill="#fff"/>
    <path id="Path_120" data-name="Path 120" d="M5.316,17.828H.682a.681.681,0,1,0,0,1.362H5.316a.681.681,0,1,0,0-1.362Z" fill="#fff"/>
    <path id="Path_121" data-name="Path 121" d="M5.316,10.063H1.363a.681.681,0,1,0,0,1.362H5.316a.681.681,0,1,0,0-1.362Z" fill="#fff"/>
    <path id="Path_122" data-name="Path 122" d="M31,20.826V11.233l-5.477,4.282Z" fill="#fff"/>
    <path id="Path_123" data-name="Path 123" d="M29.676,8.022H10.72A1.326,1.326,0,0,0,9.4,9.345V9.5L19.17,16.99a1.827,1.827,0,0,0,2.25,0L31,9.5V9.345A1.325,1.325,0,0,0,29.676,8.022Z" fill="#fff"/>
    <path id="Path_124" data-name="Path 124" d="M22.259,18.066a3.188,3.188,0,0,1-3.923,0l-2.223-1.7-6.48,6.088a1.324,1.324,0,0,0,1.087.569H29.676a1.323,1.323,0,0,0,1.069-.545l-6.305-6.114Z" fill="#fff"/>
    <path id="Path_125" data-name="Path 125" d="M9.4,11.22v9.587l5.622-5.281Z" fill="#fff"/>
  </g>
</svg>
