<svg xmlns="http://www.w3.org/2000/svg" width="162.006" height="33.015" viewBox="0 0 162.006 33.015">
  <g id="logo" transform="translate(-70 -20)">
    <path id="casino_copy_2" data-name="casino copy 2" d="M220.866,53.014a6.818,6.818,0,0,1-1.783-.2,2.691,2.691,0,0,1-1.2-.651,2.657,2.657,0,0,1-.678-1.174A6.228,6.228,0,0,1,217,49.235V46.774a6.146,6.146,0,0,1,.214-1.746,2.66,2.66,0,0,1,.678-1.167,2.745,2.745,0,0,1,1.2-.658,6.606,6.606,0,0,1,1.783-.208h7.27a6.678,6.678,0,0,1,1.789.208,2.752,2.752,0,0,1,1.2.658,2.6,2.6,0,0,1,.67,1.167,6.333,6.333,0,0,1,.208,1.746v2.461a6.418,6.418,0,0,1-.208,1.754,2.6,2.6,0,0,1-.67,1.174,2.7,2.7,0,0,1-1.2.651,6.892,6.892,0,0,1-1.789.2Zm-.809-7.937a1.157,1.157,0,0,0-.56.315,1.312,1.312,0,0,0-.3.6,4.172,4.172,0,0,0-.09.938v2.146a4.172,4.172,0,0,0,.09.938,1.308,1.308,0,0,0,.3.6,1.15,1.15,0,0,0,.56.315,3.572,3.572,0,0,0,.892.093h7.1a3.564,3.564,0,0,0,.891-.093,1.146,1.146,0,0,0,.56-.315,1.29,1.29,0,0,0,.3-.6,4.12,4.12,0,0,0,.09-.938V46.931a4.12,4.12,0,0,0-.09-.938,1.3,1.3,0,0,0-.3-.6,1.153,1.153,0,0,0-.56-.315,3.607,3.607,0,0,0-.891-.093h-7.1A3.615,3.615,0,0,0,220.057,45.077ZM210.5,53.014a4.375,4.375,0,0,1-.546-.029,1.211,1.211,0,0,1-.39-.114,1.316,1.316,0,0,1-.334-.25,4.218,4.218,0,0,1-.375-.451l-8.292-6.985a.243.243,0,0,0-.184-.1h-.128c-.076,0-.113.048-.113.143V52.7a.277.277,0,0,1-.312.315h-1.49a.283.283,0,0,1-.326-.315V44.483a1.674,1.674,0,0,1,.311-1.181,1.331,1.331,0,0,1,.965-.308h1.248a4.689,4.689,0,0,1,.567.029,1.146,1.146,0,0,1,.4.121,1.347,1.347,0,0,1,.326.258,4.406,4.406,0,0,1,.355.437l8.277,6.984a.193.193,0,0,0,.184.1h.128q.113,0,.113-.143V43.31a.277.277,0,0,1,.312-.315h1.49a.277.277,0,0,1,.312.315v8.216a1.671,1.671,0,0,1-.312,1.181,1.327,1.327,0,0,1-.965.308Zm-21.2,0q-.3,0-.3-.315V43.31q0-.315.3-.315h1.4q.285,0,.285.315V52.7q0,.315-.285.315Zm-20.989,0a.274.274,0,0,1-.305-.315V51.34a.274.274,0,0,1,.305-.315h11.958a.631.631,0,0,0,.544-.215.961.961,0,0,0,.158-.586v-.587q0-.8-.688-.8h-9.971a2.237,2.237,0,0,1-1.736-.637A2.605,2.605,0,0,1,168,46.373V45.329a2.456,2.456,0,0,1,.57-1.689,2.254,2.254,0,0,1,1.777-.644h12.025q.292,0,.292.315v1.36c0,.211-.1.315-.292.315H170.727a.636.636,0,0,0-.544.214.969.969,0,0,0-.159.588v.486q0,.8.689.8h9.97a2.241,2.241,0,0,1,1.737.636A2.609,2.609,0,0,1,183,49.536v1.145a2.455,2.455,0,0,1-.571,1.689,2.253,2.253,0,0,1-1.776.644Zm-6.739,0a.4.4,0,0,1-.39-.186l-1.2-1.846h-7.964l-1.169,1.846a.428.428,0,0,1-.39.186h-2.2c-.147,0-.235-.031-.263-.094a.257.257,0,0,1,.042-.236l5.558-8.6a2.555,2.555,0,0,1,.831-.866,1.952,1.952,0,0,1,.949-.222h1a2.023,2.023,0,0,1,1.949,1.088l5.609,8.6a.254.254,0,0,1,.042.236c-.028.062-.11.094-.246.094Zm-5.829-7.887-2.66,4.194h5.829l-2.695-4.194a.213.213,0,0,0-.186-.1h-.1A.213.213,0,0,0,155.747,45.128Zm-22.658,7.887a7.57,7.57,0,0,1-1.881-.2,2.9,2.9,0,0,1-1.262-.651,2.629,2.629,0,0,1-.714-1.174,5.916,5.916,0,0,1-.226-1.754V46.774a5.838,5.838,0,0,1,.226-1.746,2.632,2.632,0,0,1,.714-1.167,2.953,2.953,0,0,1,1.262-.658,7.333,7.333,0,0,1,1.881-.208h10.575a.281.281,0,0,1,.32.315v1.4a.286.286,0,0,1-.32.328H133.177a3.951,3.951,0,0,0-.941.094,1.218,1.218,0,0,0-.59.315,1.278,1.278,0,0,0-.314.594,3.931,3.931,0,0,0-.094.944v2.033a4.017,4.017,0,0,0,.094.951,1.282,1.282,0,0,0,.314.6,1.218,1.218,0,0,0,.59.315,3.951,3.951,0,0,0,.941.094h10.488a.28.28,0,0,1,.32.314v1.4a.281.281,0,0,1-.32.315Z" fill="#7abd31"/>
    <path id="netent_copy_4" data-name="netent copy 4" d="M222.145,38.008V24.06h-5.14V20.013h14.979V24.06h-5.112V38.008Zm-11.686,0L202.73,27.594V38.008h-4.714V20.013h4.851l7.4,9.9v-9.9h4.741V38.008Zm-28.444,0V20.013h13.992V24.06h-9.07v2.806h8.87v4.046h-8.87v3.049h9.07v4.046Z" fill="#7abd31"/>
    <path id="netent_copy_3" data-name="netent copy 3" d="M169.145,38.008V24.06h-5.14V20.013h14.979V24.06h-5.112V38.008Zm-21.129,0V20.013h13.991V24.06h-9.07v2.806h8.87v4.046h-8.87v3.049h9.07v4.046Zm-6.557,0L133.73,27.594V38.008h-4.713V20.013h4.85l7.4,9.9v-9.9h4.741V38.008Z" fill="#eee"/>
    <path id="all" d="M115,53V20h6V53Zm-10,0V20h6V53ZM77,53c-4.079,0-7-2.043-7-6V44c0-4.012,2.921-6,7-6H95V35c0-1.969-5.327-1.987-5.327-1.987L71,33V28H90c8.989,0,11,2.011,11,10V53Zm-2-8v1c0,1.867,1.027,2,3,2H95V43H78C75.946,43,75,43.086,75,45Z" fill="#eee"/>
  </g>
</svg>
