<!-- Generated by IcoMoon.io -->
<svg version="1.1" xmlns="http://www.w3.org/2000/svg" width="32" height="32" viewBox="0 0 100 100">
<title>FlagRussia</title>
<path fill="#eee" d="M100 50c0 27.614-22.386 50-50 50s-50-22.386-50-50c0-27.614 22.386-50 50-50s50 22.386 50 50z"></path>
<path fill="#06c" d="M96.89 67.391c2.010-5.417 3.11-11.275 3.11-17.391s-1.1-11.975-3.11-17.391h-93.78c-2.010 5.417-3.11 11.275-3.11 17.391s1.1 11.975 3.11 17.391l46.89 4.348 46.89-4.348z"></path>
<path fill="#c00" d="M50 100c21.498 0 39.825-13.569 46.89-32.609h-93.78c7.065 19.040 25.392 32.609 46.89 32.609z"></path>
</svg>
