<svg xmlns="http://www.w3.org/2000/svg" width="18.031" height="14.919" viewBox="0 0 18.031 14.919">
  <g id="Group_111" data-name="Group 111" transform="translate(-5.24 -6.772)">
    <path id="Path_127" data-name="Path 127" d="M22.125,6.825l-16.5,6.3A.587.587,0,0,0,5.7,14.25l4.2,1.2,1.575,4.875a.724.724,0,0,0,1.2.3L14.85,18.45l4.275,3.075A.932.932,0,0,0,20.55,21l2.7-13.275a.83.83,0,0,0-1.125-.9Zm-2.1,2.925-7.65,6.675c-.075.075-.15.15-.15.225l-.3,2.625c0,.075-.15.075-.15,0l-1.2-3.825a.361.361,0,0,1,.15-.45l9-5.55c.3-.15.525.15.3.3Z" fill="#e8ebef"/>
  </g>
</svg>
