<!-- Generated by IcoMoon.io -->
<svg version="1.1" xmlns="http://www.w3.org/2000/svg" width="32" height="32" viewBox="0 0 100 100">
<title>FlagTurkey</title>
<path fill="#c00" d="M100 50c0 27.614-22.386 50-50 50s-50-22.386-50-50c0-27.614 22.386-50 50-50s50 22.386 50 50z"></path>
<path fill="#eee" d="M47.953 40.857l4.103 5.653 6.644-2.154-4.109 5.648 4.102 5.653-6.642-2.163-4.109 5.648 0.004-6.984-6.642-2.163 6.644-2.154z"></path>
<path fill="#eee" d="M36.757 64.13c-7.804 0-14.13-6.327-14.13-14.13s6.327-14.13 14.13-14.13c2.433 0 4.723 0.615 6.721 1.698-3.136-3.067-7.424-4.959-12.156-4.959-9.605 0-17.391 7.786-17.391 17.391s7.786 17.391 17.391 17.391c4.732 0 9.021-1.893 12.156-4.959-1.999 1.083-4.288 1.698-6.721 1.698z"></path>
</svg>
