<?xml version="1.0" encoding="utf-8"?>
<!-- Generator: Adobe Illustrator 21.0.0, SVG Export Plug-In . SVG Version: 6.00 Build 0)  -->
<svg version="1.1" id="Слой_1" xmlns="http://www.w3.org/2000/svg" xmlns:xlink="http://www.w3.org/1999/xlink" x="0px" y="0px"
	 width="30px" height="24px" viewBox="0 0 30 24" style="enable-background:new 0 0 30 24;" xml:space="preserve">
<style type="text/css">
	.st0{fill:#9933FF;}
</style>
<path class="st0" d="M27,7V6c0-1.8-1.2-3-3-3H13l-3-3H3C1.2,0,0,1.2,0,3v18c0,1.8,1,3,3,3s19,0,21,0c3,0,3-3,3-3l3-14H27z M12,17
	l5-5l5,5H12z M25,7H7L4,22H3c-0.4,0-1-0.6-1-1V3c0-0.4,0.6-1,1-1h6l3,3h12c0.4,0,1,0.6,1,1V7z"/>
</svg>
