<?xml version="1.0" encoding="utf-8"?>
<!-- Generator: Adobe Illustrator 17.0.0, SVG Export Plug-In . SVG Version: 6.00 Build 0)  -->
<!DOCTYPE svg PUBLIC "-//W3C//DTD SVG 1.1//EN" "http://www.w3.org/Graphics/SVG/1.1/DTD/svg11.dtd">
<svg version="1.1" id="Layer_1" xmlns="http://www.w3.org/2000/svg" xmlns:xlink="http://www.w3.org/1999/xlink" x="0px" y="0px"
	 width="85px" height="50px" viewBox="0 0 170 100" enable-background="new 0 0 170 100" xml:space="preserve">
<g id="iViCasinoSmart">
	<path id="Path_2_" opacity="0.5" enable-background="new    " d="M168.142,34.375l-24.054,53.138c0,0-3.736,10.485-15.014,10.485
		c-13.627,0-19.303-15.238-14.306-23.155l31.29-49.576c0,0,4.063-7.267,11.036-7.267C167.822,18,170.661,28.81,168.142,34.375z"/>
	<path id="Path_1_" opacity="0.5" enable-background="new    " d="M12.905,18c6.973,0,11.036,7.267,11.036,7.267l31.29,49.576
		c4.997,7.917-0.679,23.155-14.306,23.155c-11.278,0-15.014-10.485-15.014-10.485L1.858,34.375C-0.661,28.81,2.178,18,12.905,18z"/>
	<path id="Path" fill="#EEEEEE" d="M117.047,2c-5.937,0-8.453,3.486-11.035,7.267L85,41.999L63.989,9.267
		C61.407,5.486,58.891,2,52.953,2c-8.747,0-14.593,9.226-11.316,16l24.378,50.4C69.653,76.083,75.351,82,85,82
		s15.347-5.917,18.985-13.6L128.363,18C131.64,11.226,125.794,2,117.047,2z"/>
</g>
</svg>
