<?xml version="1.0" encoding="utf-8"?>
<!-- Generator: Adobe Illustrator 17.0.0, SVG Export Plug-In . SVG Version: 6.00 Build 0)  -->
<!DOCTYPE svg PUBLIC "-//W3C//DTD SVG 1.1//EN" "http://www.w3.org/Graphics/SVG/1.1/DTD/svg11.dtd">
<svg version="1.1" id="Layer_1" xmlns="http://www.w3.org/2000/svg" xmlns:xlink="http://www.w3.org/1999/xlink" x="0px" y="0px"
	 width="250px" height="50px" viewBox="0 0 500 100" enable-background="new 0 0 500 100" xml:space="preserve">
<g id="iViCasino">
	<path id="Path_8_" fill="#EEEEEE" d="M469.249,28.731c-15.874,0-28.743,12.922-28.743,28.861v11.545
		c0,15.94,12.869,28.861,28.743,28.861s28.743-12.922,28.743-28.861V57.593C497.992,41.653,485.124,28.731,469.249,28.731z
		 M480.746,69.137c0,6.376-5.147,11.545-11.497,11.545c-6.35,0-11.497-5.169-11.497-11.545V57.593
		c0-6.376,5.147-11.545,11.497-11.545c6.35,0,11.497,5.169,11.497,11.545V69.137z"/>
	<path id="Path_3_" fill="#EEEEEE" d="M426.137,28.731c-4.763,0-8.622,3.877-8.622,8.658v26.815l-23.569-30.28
		c0,0-2.938-5.195-8.048-5.195c-8.533,0-8.622,8.658-8.622,8.658V89.34c0,4.782,3.861,8.658,8.622,8.658s8.622-3.877,8.622-8.658
		V62.525l23.569,30.28c0,0,3.03,5.195,8.048,5.195c8.619,0,8.622-8.658,8.622-8.658V37.39
		C434.759,32.608,430.898,28.731,426.137,28.731z"/>
	<path id="Path_5_" fill="#EEEEEE" d="M362.902,28.731c-4.763,0-8.622,3.877-8.622,8.658V89.34c0,4.782,3.861,8.658,8.622,8.658
		c4.761,0,8.622-3.877,8.622-8.658V37.39C371.526,32.608,367.665,28.731,362.902,28.731z"/>
	<path id="Path_4_" fill="#EEEEEE" d="M320.939,46.048c9.179,0,13.406,7.146,17.246,8.081c5.73,1.396,11.497-2.309,11.497-8.658
		c0-7.487-11.497-16.74-28.743-16.74c-17.246,0-28.743,9.235-28.743,23.089c0,11.545,11.497,20.203,22.994,20.203
		c1.749,0,9.806,0,11.498,0c2.856,0,5.174,0.397,5.174,2.886c0,5.772-5.174,5.772-10.923,5.772c-9.179,0-13.406-7.145-17.246-8.081
		c-5.73-1.397-11.497,2.309-11.497,8.658c0,7.487,11.497,16.74,28.743,16.74c17.246,0,28.743-9.235,28.743-23.089
		c0-11.545-11.497-20.203-22.994-20.203c-1.749,0-9.806,0-11.498,0c-2.856,0-5.174-0.397-5.174-2.886
		C310.016,46.048,315.19,46.048,320.939,46.048z"/>
	<path id="Path_7_" fill="#EEEEEE" d="M271.238,35.295c-0.933-3.768-4.316-6.566-8.358-6.566s-7.425,2.796-8.358,6.566
		l-19.809,50.582c0,0-4.223,12.121,8.047,12.121c6.532,0,8.366-6.591,8.366-6.591l0.801-2.067h21.909l0.801,2.067
		c0,0,1.746,6.591,8.366,6.591c12.249,0,8.044-12.121,8.044-12.121L271.238,35.295z M258.632,72.023l4.248-10.968l4.248,10.968
		H258.632z"/>
	<path id="Path_6_" fill="#EEEEEE" d="M217.872,75.729c0,0-3.398,4.951-9.604,4.951s-11.497-5.169-11.497-11.545V57.593
		c0-6.376,5.291-11.545,11.497-11.545s9.604,4.951,9.604,4.951s6.562,7.731,13.614,0.68c5.222-5.222-0.61-11.901-0.61-11.901
		s-7.64-11.047-22.607-11.047c-15.874,0-28.743,12.922-28.743,28.861v11.544c0,15.939,12.869,28.861,28.743,28.861
		c14.967,0,22.607-11.047,22.607-11.047s5.832-6.679,0.61-11.901C224.435,67.998,217.872,75.729,217.872,75.729z"/>
	<path id="Path_2_" opacity="0.5" enable-background="new    " d="M168.955,34.375l-24.026,53.138c0,0-3.732,10.485-14.996,10.485
		c-13.611,0-19.28-15.238-14.289-23.155l31.253-49.576c0,0,4.058-7.267,11.023-7.267C168.635,18,171.471,28.81,168.955,34.375z"/>
	<path id="Path_1_" opacity="0.5" enable-background="new    " d="M13.902,18c6.965,0,11.023,7.267,11.023,7.267l31.253,49.576
		c4.991,7.917-0.678,23.155-14.289,23.155c-11.264,0-14.996-10.485-14.996-10.485L2.867,34.375C0.351,28.81,3.187,18,13.902,18z"/>
	<path id="Path" fill="#EEEEEE" d="M117.92,2c-5.93,0-8.443,3.486-11.022,7.267L85.911,41.999L64.924,9.267
		C62.345,5.486,59.832,2,53.902,2c-8.737,0-14.576,9.226-11.303,16l24.349,50.4C70.582,76.083,76.274,82,85.911,82
		s15.329-5.917,18.963-13.6L129.223,18C132.495,11.226,126.656,2,117.92,2z"/>
</g>
</svg>
