<?xml version="1.0" encoding="utf-8"?>
<!-- Generator: Adobe Illustrator 21.0.0, SVG Export Plug-In . SVG Version: 6.00 Build 0)  -->
<svg version="1.1" id="ico70_x5F_Exit" xmlns="http://www.w3.org/2000/svg" xmlns:xlink="http://www.w3.org/1999/xlink" x="0px"
	 y="0px" viewBox="0 0 70 70" enable-background="new 0 0 70 70" xml:space="preserve">
<g id="ico70_x5F_Exit_1_">
	<path fill="#1796FF" d="M55.9,24.6l-12.3-7.3c0,0-0.3-0.2-0.9-0.2c-0.7,0-1.5,0.5-1.5,0.5l12.3,7.3c0,0,0.8-0.5,1.4-0.5
		C55.6,24.3,55.9,24.6,55.9,24.6z"/>
	<path fill="#0066CC" d="M26,66l-13-8c0,3,1,4,1,4l12,7V66z"/>
	<polygon fill="#0080FF" points="26,45 13,38 13.1,59.2 26,67 	"/>
	<polygon fill="#0080FF" points="41.3,17.5 16,33 29,41 55,25 	"/>
	<path fill="#1796FF" d="M31,40l-14-8c0,0-4,2-4,7l14,8C27,43,31,40,31,40z"/>
	<path fill="#0066CC" d="M56.9,26.8c0-2.2-1.5-3.1-3.4-2L28.7,39.5C26.8,40.6,25,43.8,25,46v21c0,1.4,1,2,2,2s4-2,4-2l23-13
		c1.9-1.1,3-4,3-6.2L56.9,26.8z"/>
	<polygon fill="#6C757C" points="44,9 39,9 39,23 44,26 	"/>
	<polygon fill="#B5C0CB" points="26,22 21,20 21,33 26,36 	"/>
	<path fill="#E8EBEF" d="M26,23l-5-2C21,9,28,1,37,1c2,0,5,1,5,1l5,4c0,0-7-5.2-15,3.7C26.3,16.2,26,23,26,23z"/>
	<path fill="#B5C0CB" d="M49,12c0-8-5.9-8.7-12-7c-7,2-11,8-11,17v14l5-3V22c0-4.3,1.7-8.9,6-11c4-2,7-1.3,7,3v12l5-3V12z"/>
	<path fill="#363C43" d="M44,45c1-1.3,1.7-3,1.7-4.5c0-2.3-1.6-3.3-3.6-2.1c-0.1,0.1-0.2,0.1-0.3,0.2c-1.8,1.2-3.2,3.7-3.3,5.8
		c-0.1,1.7,0.6,2.7,1.7,2.9l-1.3,7.2c-0.2,0.8,0.3,1.3,1,0.9l4.6-2.7c0.7-0.4,1.1-1.4,1-2.1L44,45z"/>
</g>
</svg>
