<?xml version="1.0" encoding="utf-8"?>
<!-- Generator: Adobe Illustrator 21.0.0, SVG Export Plug-In . SVG Version: 6.00 Build 0)  -->
<svg version="1.1" id="ico70_x5F_Hot" xmlns="http://www.w3.org/2000/svg" xmlns:xlink="http://www.w3.org/1999/xlink" x="0px"
	 y="0px" viewBox="0 0 70 70" enable-background="new 0 0 70 70" xml:space="preserve">
<g id="ico70_x5F_Hot_1_">
	<linearGradient id="SVGID_1_" gradientUnits="userSpaceOnUse" x1="7.8358" y1="44.1236" x2="52.1076" y2="28.01">
		<stop  offset="0.5" style="stop-color:#FF6600"/>
		<stop  offset="0.6883" style="stop-color:#FF9200"/>
		<stop  offset="0.8943" style="stop-color:#FFBC00"/>
		<stop  offset="1" style="stop-color:#FFCC00"/>
	</linearGradient>
	<path fill="url(#SVGID_1_)" d="M19.1,29C32.3,16.1,34.3,5.3,29.8,0c0,0,33.8,13.6,13.9,45.2C40.3,50.6,31.6,56.9,36,70
		c-7,0-25-2-25-22C11,43,14.8,34.2,19.1,29z"/>
	<linearGradient id="SVGID_2_" gradientUnits="userSpaceOnUse" x1="31.9247" y1="61.4571" x2="60.3445" y2="37.6102">
		<stop  offset="0.4" style="stop-color:#FF6600"/>
		<stop  offset="0.626" style="stop-color:#FF9200"/>
		<stop  offset="0.8732" style="stop-color:#FFBC00"/>
		<stop  offset="1" style="stop-color:#FFCC00"/>
	</linearGradient>
	<path fill="url(#SVGID_2_)" d="M39.1,70c-0.7-2.6-4-8.3,5.9-19.6c5.3-6,8-15.4,7.2-22.5c0,0,6.8,8.5,6.8,18.1
		C59,61,39.1,70,39.1,70z"/>
	<g>
		<linearGradient id="SVGID_3_" gradientUnits="userSpaceOnUse" x1="67.2577" y1="66.2154" x2="20.5221" y2="26.9996">
			<stop  offset="0.6" style="stop-color:#FF6600"/>
			<stop  offset="0.7507" style="stop-color:#FF9200"/>
			<stop  offset="0.9155" style="stop-color:#FFBC00"/>
			<stop  offset="1" style="stop-color:#FFCC00"/>
		</linearGradient>
		<path fill="url(#SVGID_3_)" d="M36,70c-5.6,0-9.4-2.2-11.5-3.7C18,61.7,18.3,55.1,20,48.4c0.8-3.2,2.8-7.3,3.1-10
			c0.3-2.3-0.6-4.3-1.3-5.8c0.8,1.4,1.8,2.6,3.2,3.5c2.8,2,5.5,0.5,6.2-2.4c1.2-5.5-2.3-11.4,0.4-18.3c1.5-3.8,3.7-6.2,7.9-8.3
			c-8.9,8.2-2.3,16.7,3,23.7C49,39.1,53,43,53,57C53,67,41.6,70,36,70z"/>
	</g>
	<g>
		<linearGradient id="SVGID_4_" gradientUnits="userSpaceOnUse" x1="34.7372" y1="31.7498" x2="36.857" y2="75.206">
			<stop  offset="0" style="stop-color:#FFFF00"/>
			<stop  offset="0.2" style="stop-color:#FFCC00"/>
			<stop  offset="1" style="stop-color:#FF6600"/>
		</linearGradient>
		<path fill="url(#SVGID_4_)" d="M33.8,50.2c-2.6-0.3-4.8-5.8-3.4-7.7c-1.8,1.3-3,3.7-2.7,6c0.3,2.2,2.1,3.8,3.4,5.6
			c1.3,1.9,0.9,4.4-1.1,5c-1.7,0.5-2.9-0.7-3.3-2.2c-0.4-1.5,0.1-3.2,1.1-4.2c-2.3,1.9-3,4.8-2.7,7.9c0.5,5.3,6.3,9.6,10.6,9.4
			c6.5,0.6,13.8-8.5,10.3-16.7c-1.3-3.1-4.1-7.2-6.1-9.9c-2.8-3.8-4.7-8.2-1.5-12.4c-4.3,2.5-7.1,8.3-7.1,12
			C31.2,45.6,31.9,47.9,33.8,50.2z"/>
	</g>
</g>
</svg>
