<?xml version="1.0" encoding="utf-8"?>
<!-- Generator: Adobe Illustrator 21.0.0, SVG Export Plug-In . SVG Version: 6.00 Build 0)  -->
<svg version="1.1" id="ico70_x5F_Other" xmlns="http://www.w3.org/2000/svg" xmlns:xlink="http://www.w3.org/1999/xlink" x="0px"
	 y="0px" viewBox="0 0 70 70" enable-background="new 0 0 70 70" xml:space="preserve">
<g id="ico70_x5F_Other_1_">
	<g>
		
			<radialGradient id="SVGID_1_" cx="-1135.3864" cy="424.3813" r="39.3358" gradientTransform="matrix(-0.784 0.6249 0.6145 0.7972 -1133.5752 405.1513)" gradientUnits="userSpaceOnUse">
			<stop  offset="0" style="stop-color:#FFFFFF"/>
			<stop  offset="0.28" style="stop-color:#E5E5E5"/>
			<stop  offset="0.4639" style="stop-color:#D1D1D1"/>
			<stop  offset="0.6229" style="stop-color:#CACACA"/>
			<stop  offset="0.8639" style="stop-color:#B5B5B5"/>
			<stop  offset="1" style="stop-color:#A6A6A6"/>
		</radialGradient>
		<path fill="url(#SVGID_1_)" d="M4.8,24.7c1.6-3,5.5-6.1,8.7-7l8.2-2.2c3.2-0.9,7.3,0.8,9,3.7l4.3,7.3c1.7,2.9,2.4,7.9,1.6,11.2
			l-2.1,8.1c-0.9,3.3-4.3,6-7.6,6.1l-8.4,0.2c-3.3,0.1-8-1.8-10.3-4.2l-5.9-6c-2.3-2.4-3-6.8-1.4-9.8L4.8,24.7z"/>
		
			<radialGradient id="SVGID_2_" cx="-1170.2219" cy="449.2451" r="39.378" gradientTransform="matrix(-0.784 0.6249 0.6145 0.7972 -1133.5752 405.1513)" gradientUnits="userSpaceOnUse">
			<stop  offset="0" style="stop-color:#FFFFFF"/>
			<stop  offset="0.28" style="stop-color:#E5E5E5"/>
			<stop  offset="0.4639" style="stop-color:#D1D1D1"/>
			<stop  offset="0.6229" style="stop-color:#CACACA"/>
			<stop  offset="0.8639" style="stop-color:#B5B5B5"/>
			<stop  offset="1" style="stop-color:#A6A6A6"/>
		</radialGradient>
		<path fill="url(#SVGID_2_)" d="M35.7,37.8c0.9-3.3,0.2-8.3-1.6-11.2L30.8,21c-1.7-2.9-4.1-2.7-5.4,0.4l-2.8,7
			c-1.2,3.1-0.6,7.9,1.5,10.6l4.6,6.1c2,2.7,4.4,2.2,5.3-1.1L35.7,37.8z"/>
		
			<radialGradient id="SVGID_3_" cx="-1137.0715" cy="407.5246" r="78.148" gradientTransform="matrix(-0.784 0.6249 0.6145 0.7972 -1133.5752 405.1513)" gradientUnits="userSpaceOnUse">
			<stop  offset="0" style="stop-color:#FFFFFF"/>
			<stop  offset="0.28" style="stop-color:#E5E5E5"/>
			<stop  offset="0.4639" style="stop-color:#D1D1D1"/>
			<stop  offset="0.6229" style="stop-color:#CACACA"/>
			<stop  offset="0.8639" style="stop-color:#B5B5B5"/>
			<stop  offset="1" style="stop-color:#A6A6A6"/>
		</radialGradient>
		<path fill="url(#SVGID_3_)" d="M24,20.9c1.2-3.1-0.4-5-3.6-4.1l-6.3,1.7c-3.2,0.9-7.1,4-8.7,7l-3,5.7c-1.6,3-0.2,5,3.1,4.5
			l7.6-1.1c3.3-0.5,7-3.4,8.2-6.6L24,20.9z"/>
		
			<radialGradient id="SVGID_4_" cx="-1121.0579" cy="436.6023" r="26.2731" gradientTransform="matrix(-0.784 0.6249 0.6145 0.7972 -1133.5752 405.1513)" gradientUnits="userSpaceOnUse">
			<stop  offset="0" style="stop-color:#FFFFFF"/>
			<stop  offset="0.28" style="stop-color:#E5E5E5"/>
			<stop  offset="0.4639" style="stop-color:#D1D1D1"/>
			<stop  offset="0.6229" style="stop-color:#CACACA"/>
			<stop  offset="0.8639" style="stop-color:#B5B5B5"/>
			<stop  offset="1" style="stop-color:#A6A6A6"/>
		</radialGradient>
		<path fill="url(#SVGID_4_)" d="M23,40.1c-2-2.7-6.4-4.5-9.7-4l-7.6,1.1c-3.3,0.5-4.1,2.8-1.7,5.2l4.5,4.7c2.3,2.4,7,4.3,10.3,4.2
			l6.5-0.2c3.3-0.1,4.4-2.3,2.3-5L23,40.1z"/>
		<path fill="#363C43" d="M7.9,29.9c0.5-0.9,0.2-1.6-0.7-1.5c-0.8,0.1-1.9,0.8-2.4,1.7c-0.5,0.9-0.3,1.7,0.5,1.6
			C6.2,31.8,7.4,30.9,7.9,29.9z"/>
		<path fill="#363C43" d="M16.5,29.4c0.4-1.1-0.3-1.8-1.4-1.7c-1.1,0.1-2.3,1-2.8,2c-0.5,1.1,0,1.9,1.2,1.9
			C14.8,31.5,16.1,30.5,16.5,29.4z"/>
		<path fill="#363C43" d="M10.5,25c0.4-0.7,0-1.2-0.8-1.1C9,24.1,8,24.7,7.6,25.4c-0.4,0.7-0.2,1.3,0.6,1.2
			C9.1,26.5,10.1,25.8,10.5,25z"/>
		<path fill="#363C43" d="M18.5,23.8c0.3-0.8-0.3-1.3-1.4-1.2c-1,0.2-2.1,0.9-2.4,1.7c-0.4,0.8,0.2,1.4,1.2,1.3
			C17,25.5,18.2,24.7,18.5,23.8z"/>
		<path fill="#363C43" d="M12.7,21c0.3-0.6,0-1-0.8-0.8c-0.7,0.2-1.6,0.8-2,1.4c-0.4,0.6-0.1,1,0.7,0.9C11.4,22.3,12.3,21.6,12.7,21
			z"/>
		<path fill="#363C43" d="M20.1,19.4c0.2-0.7-0.4-1-1.3-0.8c-0.9,0.2-1.9,0.9-2.2,1.5c-0.3,0.7,0.2,1.1,1.2,0.9
			C18.8,20.9,19.8,20.1,20.1,19.4z"/>
		<path fill="#363C43" d="M32.2,38.7c-0.6-0.6-1.3-0.4-1.6,0.6c-0.3,1,0,2.3,0.6,2.9c0.6,0.6,1.3,0.2,1.5-0.7
			C33,40.5,32.7,39.3,32.2,38.7z"/>
		<path fill="#363C43" d="M34.3,30.7c-0.5-0.6-1.1-0.6-1.3,0.2c-0.2,0.7,0,1.9,0.5,2.5c0.5,0.6,1.1,0.5,1.3-0.3
			C35.1,32.4,34.8,31.3,34.3,30.7z"/>
		<path fill="#363C43" d="M30.6,31.2c-0.6-0.7-1.3-0.6-1.6,0.2c-0.3,0.9,0,2.2,0.6,2.9c0.6,0.7,1.3,0.5,1.6-0.3
			C31.4,33.1,31.1,31.9,30.6,31.2z"/>
		<path fill="#363C43" d="M29,23.8c-0.6-0.8-1.4-0.9-1.7-0.2c-0.3,0.7-0.1,2,0.6,2.8c0.6,0.8,1.4,0.8,1.7,0
			C29.8,25.7,29.6,24.5,29,23.8z"/>
		<path fill="#363C43" d="M25.6,31.8c-0.8-0.8-1.7-0.7-2.2,0.3c-0.5,1-0.1,2.5,0.7,3.3c0.8,0.8,1.8,0.6,2.2-0.4
			C26.7,33.9,26.4,32.6,25.6,31.8z"/>
		<path fill="#363C43" d="M23.3,46.5c-0.7-1-2.1-1.6-3.3-1.3c-1.1,0.3-1.4,1.3-0.7,2.2c0.7,0.9,2.1,1.5,3.1,1.3
			C23.6,48.4,24,47.5,23.3,46.5z"/>
		<path fill="#363C43" d="M9.9,41.1c-0.8-1-2.2-1.6-3.1-1.2c-0.9,0.3-1,1.4-0.3,2.4c0.7,0.9,2.1,1.5,3,1.2
			C10.4,43.1,10.6,42.1,9.9,41.1z"/>
		<path fill="#E8EBEF" d="M7.7,29.4c0.1-0.2,0-0.3-0.1-0.3c-0.2,0-0.4,0.2-0.5,0.4c-0.1,0.2,0,0.3,0.1,0.3
			C7.4,29.8,7.6,29.6,7.7,29.4z"/>
		<path fill="#E8EBEF" d="M16.1,28.8c0.1-0.2-0.1-0.4-0.3-0.4c-0.2,0-0.5,0.2-0.6,0.4c-0.1,0.2,0,0.4,0.3,0.4
			C15.7,29.2,16,29,16.1,28.8z"/>
		<path fill="#E8EBEF" d="M10.3,24.6c0.1-0.2,0-0.3-0.2-0.2c-0.2,0-0.4,0.2-0.5,0.3c-0.1,0.2,0,0.3,0.2,0.2
			C10,24.9,10.2,24.8,10.3,24.6z"/>
		<path fill="#E8EBEF" d="M18.1,23.4c0.1-0.2-0.1-0.3-0.3-0.2c-0.2,0-0.4,0.2-0.5,0.4c-0.1,0.2,0.1,0.3,0.3,0.2
			C17.8,23.7,18,23.6,18.1,23.4z"/>
		<path fill="#E8EBEF" d="M12.4,20.7c0.1-0.1,0-0.2-0.2-0.2c-0.2,0-0.3,0.2-0.4,0.3c-0.1,0.1,0,0.2,0.2,0.2
			C12.2,21,12.4,20.9,12.4,20.7z"/>
		<path fill="#E8EBEF" d="M19.7,19.1c0-0.1-0.1-0.2-0.3-0.2c-0.2,0-0.4,0.2-0.5,0.3c-0.1,0.1,0.1,0.2,0.3,0.2
			C19.4,19.4,19.6,19.3,19.7,19.1z"/>
		<path fill="#E8EBEF" d="M31.7,38.8c-0.1-0.1-0.3-0.1-0.3,0.1c-0.1,0.2,0,0.5,0.1,0.6c0.1,0.1,0.3,0.1,0.3-0.1
			C31.8,39.2,31.8,39,31.7,38.8z"/>
		<path fill="#E8EBEF" d="M33.9,30.7c-0.1-0.1-0.2-0.1-0.3,0c0,0.1,0,0.4,0.1,0.5c0.1,0.1,0.2,0.1,0.3,0
			C34.1,31.1,34,30.9,33.9,30.7z"/>
		<path fill="#E8EBEF" d="M30,31.2c-0.1-0.1-0.3-0.1-0.3,0c-0.1,0.2,0,0.4,0.1,0.6c0.1,0.1,0.3,0.1,0.3,0
			C30.2,31.6,30.2,31.3,30,31.2z"/>
		<path fill="#E8EBEF" d="M28.4,23.7c-0.1-0.2-0.3-0.2-0.3,0c-0.1,0.1,0,0.4,0.1,0.6c0.1,0.2,0.3,0.2,0.3,0
			C28.6,24.1,28.6,23.8,28.4,23.7z"/>
		<path fill="#E8EBEF" d="M24.9,31.8c-0.2-0.2-0.4-0.1-0.4,0.1c-0.1,0.2,0,0.5,0.1,0.7c0.2,0.2,0.4,0.1,0.4-0.1
			C25.2,32.3,25.1,32,24.9,31.8z"/>
		<path fill="#E8EBEF" d="M22.3,46c-0.1-0.2-0.4-0.3-0.7-0.3c-0.2,0.1-0.3,0.3-0.2,0.5c0.1,0.2,0.4,0.3,0.7,0.3
			C22.3,46.4,22.4,46.2,22.3,46z"/>
		<path fill="#E8EBEF" d="M8.9,40.7c-0.2-0.2-0.4-0.3-0.6-0.3C8,40.5,8,40.7,8.2,40.9c0.2,0.2,0.4,0.3,0.6,0.3
			C9,41.1,9,40.9,8.9,40.7z"/>
	</g>
	<g>
		
			<radialGradient id="SVGID_5_" cx="-1485.8309" cy="-41.8293" r="45.1951" gradientTransform="matrix(-0.9774 -0.1204 -0.1093 1.0064 -1405.4521 -104.5438)" gradientUnits="userSpaceOnUse">
			<stop  offset="0" style="stop-color:#FFFFFF"/>
			<stop  offset="0.28" style="stop-color:#E5E5E5"/>
			<stop  offset="0.4639" style="stop-color:#D1D1D1"/>
			<stop  offset="0.6229" style="stop-color:#CACACA"/>
			<stop  offset="0.8639" style="stop-color:#B5B5B5"/>
			<stop  offset="1" style="stop-color:#A6A6A6"/>
		</radialGradient>
		<path fill="url(#SVGID_5_)" d="M47.6,17c3.2-1,8.1-0.4,11,1.4l7.3,4.4c2.9,1.7,4.6,5.8,3.9,9.2l-1.9,8.3c-0.8,3.3-3.7,7.4-6.6,9.2
			l-7.1,4.3c-2.9,1.7-7.2,1.2-9.6-1.2l-6.1-6C36,44.2,34,39.5,34,36l0-8.6c0-3.4,2.6-7,5.7-8L47.6,17z"/>
		
			<radialGradient id="SVGID_6_" cx="-1515.4194" cy="-16.4992" r="36.9451" gradientTransform="matrix(-0.9921 -0.1165 -0.1149 1.0062 -1427.239 -99.3371)" gradientUnits="userSpaceOnUse">
			<stop  offset="0" style="stop-color:#FFFFFF"/>
			<stop  offset="0.28" style="stop-color:#E5E5E5"/>
			<stop  offset="0.4639" style="stop-color:#D1D1D1"/>
			<stop  offset="0.6229" style="stop-color:#CACACA"/>
			<stop  offset="0.8639" style="stop-color:#B5B5B5"/>
			<stop  offset="1" style="stop-color:#A6A6A6"/>
		</radialGradient>
		<path fill="url(#SVGID_6_)" d="M60.6,48.5c2.9-1.7,5.9-5.8,6.7-9.1l1.5-6.4c0.8-3.3-1.1-4.9-4.1-3.5l-6.9,3
			c-3.1,1.4-5.9,5.2-6.3,8.6l-0.9,7.6c-0.4,3.4,1.6,4.7,4.5,3L60.6,48.5z"/>
		
			<radialGradient id="SVGID_7_" cx="-1485.7816" cy="-57.7953" r="60.4017" gradientTransform="matrix(-0.9921 -0.1165 -0.1149 1.0062 -1427.239 -99.3371)" gradientUnits="userSpaceOnUse">
			<stop  offset="0" style="stop-color:#FFFFFF"/>
			<stop  offset="0.28" style="stop-color:#E5E5E5"/>
			<stop  offset="0.4639" style="stop-color:#D1D1D1"/>
			<stop  offset="0.6229" style="stop-color:#CACACA"/>
			<stop  offset="0.8639" style="stop-color:#B5B5B5"/>
			<stop  offset="1" style="stop-color:#A6A6A6"/>
		</radialGradient>
		<path fill="url(#SVGID_7_)" d="M64,28.1c3.1-1.4,3.2-3.8,0.3-5.5l-5.7-3.3c-2.9-1.7-7.9-2.3-11.1-1.3l-6.1,1.9
			c-3.2,1-3.6,3.4-0.9,5.4l6.2,4.7c2.7,2,7.4,2.6,10.4,1.2L64,28.1z"/>
		
			<radialGradient id="SVGID_8_" cx="-1466.6786" cy="-24.6463" r="39.2189" gradientTransform="matrix(-0.9921 -0.1165 -0.1149 1.0062 -1427.239 -99.3371)" gradientUnits="userSpaceOnUse">
			<stop  offset="0" style="stop-color:#FFFFFF"/>
			<stop  offset="0.28" style="stop-color:#E5E5E5"/>
			<stop  offset="0.4639" style="stop-color:#D1D1D1"/>
			<stop  offset="0.6229" style="stop-color:#CACACA"/>
			<stop  offset="0.8639" style="stop-color:#B5B5B5"/>
			<stop  offset="1" style="stop-color:#A6A6A6"/>
		</radialGradient>
		<path fill="url(#SVGID_8_)" d="M50,41c0.4-3.4-1.5-7.8-4.1-9.8l-6.2-4.7c-2.7-2-4.9-0.9-4.9,2.5l0,6.6c0,3.4,2,8,4.4,10.4l4.8,4.6
			c2.4,2.3,4.7,1.5,5.1-1.9L50,41z"/>
		<path fill="#363C43" d="M63.2,25.4c0.8-0.4,0.7-1.2-0.2-1.8c-0.8-0.5-2-0.7-2.9-0.5c-1,0.2-1.3,1-0.6,1.7
			C60.4,25.6,62.2,25.9,63.2,25.4z"/>
		<path fill="#363C43" d="M54.3,24.3c0.8-0.4,0.7-1.2-0.2-1.8c-0.8-0.5-2-0.7-2.9-0.5c-1,0.2-1.3,1-0.6,1.7
			C51.5,24.5,53.3,24.8,54.3,24.3z"/>
		<path fill="#363C43" d="M45.3,23.3c0.8-0.4,0.7-1.2-0.2-1.8c-0.8-0.5-2-0.7-2.9-0.5c-1,0.2-1.3,1-0.6,1.7
			C42.6,23.5,44.3,23.8,45.3,23.3z"/>
		<path fill="#363C43" d="M62.2,40c0.1-1.2-0.5-1.9-1.5-1.5c-1.1,0.4-2.1,2-2.1,3.3c0,1.2,0.9,1.5,1.9,1C61.3,42.2,62.1,41,62.2,40z
			"/>
		<path fill="#363C43" d="M45.9,46.4c0.2-1-0.3-2.4-1.3-3.2c-0.9-0.7-1.8-0.5-2,0.4c-0.2,1,0.3,2.3,1.2,3.1
			C44.8,47.5,45.7,47.4,45.9,46.4z"/>
		<path fill="#363C43" d="M39.2,40.8c0.2-1-0.4-2.4-1.2-3c-0.8-0.7-1.6-0.4-1.8,0.6c-0.1,1,0.4,2.3,1.2,3
			C38.3,41.9,39.1,41.7,39.2,40.8z"/>
		<path fill="#363C43" d="M40.6,32.9c0.2-1.1-0.4-2.6-1.3-3.2c-0.9-0.7-1.7-0.3-1.9,0.8c-0.2,1.1,0.4,2.5,1.3,3.2
			C39.6,34.3,40.4,34,40.6,32.9z"/>
		<path fill="#363C43" d="M47.8,38.5c0.3-1.1-0.3-2.6-1.3-3.4c-1-0.7-1.9-0.4-2.2,0.7c-0.2,1.1,0.4,2.6,1.3,3.3
			C46.5,39.8,47.5,39.6,47.8,38.5z"/>
		<path fill="#E8EBEF" d="M63.1,24.8c0.2-0.1,0.1-0.2-0.1-0.4c-0.2-0.1-0.5-0.2-0.6-0.1c-0.2,0.1-0.2,0.2,0,0.4
			C62.6,24.8,62.9,24.8,63.1,24.8z"/>
		<path fill="#E8EBEF" d="M54.2,23.7c0.2-0.1,0.1-0.2-0.1-0.4c-0.2-0.1-0.5-0.2-0.6-0.1c-0.2,0.1-0.2,0.2,0,0.4
			C53.7,23.7,54.1,23.7,54.2,23.7z"/>
		<path fill="#E8EBEF" d="M45.3,22.7c0.2-0.1,0.1-0.2,0-0.4c-0.2-0.1-0.5-0.2-0.6-0.1c-0.2,0.1-0.2,0.2,0,0.4
			C44.8,22.7,45.1,22.8,45.3,22.7z"/>
		<path fill="#E8EBEF" d="M61.8,39.5c0-0.2-0.1-0.4-0.3-0.3c-0.2,0.1-0.4,0.4-0.4,0.6c0,0.2,0.1,0.4,0.3,0.3
			C61.6,40,61.8,39.7,61.8,39.5z"/>
		<path fill="#E8EBEF" d="M45.6,45.4c0-0.2-0.1-0.5-0.3-0.7c-0.2-0.2-0.4-0.1-0.4,0.1c0,0.2,0.1,0.5,0.3,0.6
			C45.3,45.6,45.5,45.6,45.6,45.4z"/>
		<path fill="#E8EBEF" d="M38.9,39.8c0-0.2-0.1-0.5-0.2-0.6c-0.2-0.1-0.3-0.1-0.4,0.1c0,0.2,0.1,0.5,0.2,0.6
			C38.7,40,38.8,40,38.9,39.8z"/>
		<path fill="#E8EBEF" d="M40.2,31.9c0-0.2-0.1-0.5-0.3-0.7c-0.2-0.1-0.4-0.1-0.4,0.2c0,0.2,0.1,0.5,0.3,0.7
			C40,32.2,40.2,32.1,40.2,31.9z"/>
		<path fill="#E8EBEF" d="M47.4,37.4c0.1-0.2-0.1-0.5-0.3-0.7c-0.2-0.2-0.4-0.1-0.5,0.1c-0.1,0.2,0.1,0.5,0.3,0.7
			C47.1,37.7,47.3,37.6,47.4,37.4z"/>
	</g>
</g>
</svg>
