<?xml version="1.0" encoding="utf-8"?>
<!-- Generator: Adobe Illustrator 21.0.0, SVG Export Plug-In . SVG Version: 6.00 Build 0)  -->
<svg version="1.1" id="ico70_x5F_Promo" xmlns="http://www.w3.org/2000/svg" xmlns:xlink="http://www.w3.org/1999/xlink" x="0px"
	 y="0px" viewBox="0 0 70 70" enable-background="new 0 0 70 70" xml:space="preserve">
<g id="ico70_x5F_Promo_1_">
	<g>
		<polygon fill-rule="evenodd" clip-rule="evenodd" fill="#0066CC" points="35,24 57,23 62,64 35,70 8,64 13,23 		"/>
		<polygon fill-rule="evenodd" clip-rule="evenodd" fill="#0080FF" points="35,27 35,70 8,64 13,23 		"/>
		<polygon fill-rule="evenodd" clip-rule="evenodd" fill="#0080FF" points="35,16 35,27 35,36 8,32 9,20 		"/>
		<polygon fill-rule="evenodd" clip-rule="evenodd" fill="#0066CC" points="61,20 35,24 35,36 62,32 		"/>
		<polygon fill-rule="evenodd" clip-rule="evenodd" fill="#1796FF" points="35,24 9.4,20.2 35,16 61,20 		"/>
		<polygon fill-rule="evenodd" clip-rule="evenodd" fill="#0059B2" points="58,34 58,32 35,36 35,39 		"/>
		<polygon fill-rule="evenodd" clip-rule="evenodd" fill="#0066CC" points="35,36 12,32 12,34 35,39 		"/>
		<polygon fill-rule="evenodd" clip-rule="evenodd" fill="#FF7F00" points="44,34 44,38 51,36 51,32 		"/>
		<polygon fill-rule="evenodd" clip-rule="evenodd" fill="#FF9900" points="19,36 26,38 26,34 19,32 		"/>
		<polygon fill-rule="evenodd" clip-rule="evenodd" fill="#FFCC00" points="26,23 35,20.9 44,23 51,22 35,18 19,22 		"/>
		<path fill-rule="evenodd" clip-rule="evenodd" fill="#FFCC00" d="M18,33l8,1V23l-7-1L18,33z M19,35l-3,31l8,2l2-31L19,35z"/>
		<path fill-rule="evenodd" clip-rule="evenodd" fill="#FF9900" d="M46,68l8-2l-3-31l-7,2L46,68z M44,34l8-1l-1-11l-7,1V34z"/>
	</g>
	<g>
		<path fill-rule="evenodd" clip-rule="evenodd" fill="#FF9900" d="M47.6,1.2L49,3c-0.1,6.2-5.7,14.3-11.8,17.3L37,17.2
			c3.5-1.8,10.5-7.8,5.5-11.4L44.6,2L47.6,1.2z"/>
		<path fill-rule="evenodd" clip-rule="evenodd" fill="#FFCC00" d="M34,20c0,0,2-16,5-19c0,0,1.1-1,4-1s5,1,5,1
			c-3.6,1.4-10.8,14.1-11,19H34z"/>
		<path fill-rule="evenodd" clip-rule="evenodd" fill="#FF7F00" d="M49,3c-0.1-1-1-2-1-2c-1.3,0.5-3.4,2.6-5,5.1
			c0.4,0.4,0.7,0.8,0.9,1.2C45,5.8,47.5,4.4,49,3z"/>
		<path fill-rule="evenodd" clip-rule="evenodd" fill="#FF9900" d="M57,13c-3.2,5.2-8.3,8-14,8c-2,0-4.8-0.1-7.1-0.8l2-2.4
			C41.7,18.8,51.1,19,50,13l4.1-1.1L57,13z"/>
		<polygon fill-rule="evenodd" clip-rule="evenodd" fill="#FF7F00" points="38,21 42,19 39,18 36,20 		"/>
		<path fill-rule="evenodd" clip-rule="evenodd" fill="#FFCC00" d="M35,18c0,0,12-10,16-10s5.7,3.5,6,5c-3.7-1.4-18.4,4.6-22,8V18z"
			/>
		<path fill-rule="evenodd" clip-rule="evenodd" fill="#FF7F00" d="M55,15c1,0,2-2,2-2c-4-1-7,1-7,1v1C50,15,52.9,15,55,15z"/>
	</g>
	<g>
		<path fill-rule="evenodd" clip-rule="evenodd" fill="#FF9900" d="M22.4,1.2L21,3c0.1,6.2,5.7,14.3,11.8,17.3l0.2-3.2
			c-3.5-1.8-10.5-7.8-5.5-11.4L25.4,2L22.4,1.2z"/>
		<path fill-rule="evenodd" clip-rule="evenodd" fill="#FFCC00" d="M36,20c0,0-2-16-5-19c0,0-1.1-1-4-1s-5,1-5,1
			c3.6,1.4,10.8,14.1,11,19H36z"/>
		<path fill-rule="evenodd" clip-rule="evenodd" fill="#FF7F00" d="M21,3c0.1-1,1-2,1-2c1.3,0.5,3.4,2.6,5,5.1
			c-0.4,0.4-0.7,0.8-0.9,1.2C25,5.8,22.5,4.4,21,3z"/>
		<path fill-rule="evenodd" clip-rule="evenodd" fill="#FF9900" d="M13,13c3.2,5.2,8.3,8,14,8c2,0,4.8-0.1,7.1-0.8l-2-2.4
			C28.3,18.8,18.9,19,20,13l-4.1-1.1L13,13z"/>
		<polygon fill-rule="evenodd" clip-rule="evenodd" fill="#FF7F00" points="32,21 28,19 31,18 34,20 		"/>
		<path fill-rule="evenodd" clip-rule="evenodd" fill="#FFCC00" d="M35,18c0,0-12-10-16-10s-5.7,3.5-6,5c3.7-1.4,18.4,4.6,22,8V18z"
			/>
		<path fill-rule="evenodd" clip-rule="evenodd" fill="#FF7F00" d="M15,15c-1,0-2-2-2-2c4-1,7,1,7,1v1C20,15,17.1,15,15,15z"/>
	</g>
</g>
</svg>
