<?xml version="1.0" encoding="utf-8"?>
<!-- Generator: Adobe Illustrator 21.0.0, SVG Export Plug-In . SVG Version: 6.00 Build 0)  -->
<svg version="1.1" id="ico70_x5F_Profile" xmlns="http://www.w3.org/2000/svg" xmlns:xlink="http://www.w3.org/1999/xlink" x="0px"
	 y="0px" viewBox="0 0 70 70" enable-background="new 0 0 70 70" xml:space="preserve">
<g id="ico70_x5F_Profile_1_">
	<g>
		<path fill="#6C757C" d="M66.3,20c0-0.5,0-1-0.1-1.5l2.8-1.3c-0.2-1-0.4-1.9-0.7-2.8l-3,0.3c-0.4-0.9-0.9-1.8-1.5-2.6l1.8-2.5
			c-0.6-0.7-1.3-1.4-2-2.1L61,9.3c-0.8-0.6-1.7-1.1-2.6-1.5l0.3-3c-0.9-0.3-1.8-0.6-2.8-0.8l-1.3,2.8c-0.5-0.1-1-0.1-1.5-0.1
			c-0.5,0-1,0-1.5,0.1L50.3,4c-1,0.2-1.9,0.4-2.8,0.7l0.3,3c-0.9,0.4-1.8,0.9-2.6,1.5l-2.5-1.8c-0.7,0.6-1.4,1.3-2.1,2l1.8,2.5
			c-0.6,0.8-1.1,1.7-1.5,2.6l-3-0.3c-0.3,0.9-0.6,1.8-0.8,2.8l2.8,1.3c-0.1,0.5-0.1,1-0.1,1.5c0,0.5,0,1,0.1,1.5L37,22.7
			c0.2,1,0.4,1.9,0.7,2.8l3-0.3c0.4,0.9,0.9,1.8,1.5,2.6l-1.8,2.5c0.6,0.7,1.3,1.4,2,2.1l2.5-1.8c0.8,0.6,1.7,1.1,2.6,1.5l-0.3,3
			c0.9,0.3,1.8,0.6,2.8,0.8l1.3-2.8c0.5,0.1,1,0.1,1.5,0.1c0.5,0,1,0,1.5-0.1l1.3,2.8c1-0.2,1.9-0.4,2.8-0.7l-0.3-3
			c0.9-0.4,1.8-0.9,2.6-1.5l2.5,1.8c0.7-0.6,1.4-1.3,2.1-2L63.7,28c0.6-0.8,1.1-1.7,1.5-2.6l3,0.3c0.3-0.9,0.6-1.8,0.8-2.8l-2.8-1.3
			C66.3,21.1,66.3,20.6,66.3,20z"/>
		<path fill="#E8EBEF" d="M67.3,19c0-0.5,0-1-0.1-1.5l2.8-1.3c-0.2-1-0.4-1.9-0.7-2.8l-3,0.3c-0.4-0.9-0.9-1.8-1.5-2.6l1.8-2.5
			c-0.6-0.7-1.3-1.4-2-2.1L62,8.3c-0.8-0.6-1.7-1.1-2.6-1.5l0.3-3c-0.9-0.3-1.8-0.6-2.8-0.8l-1.3,2.8c-0.5-0.1-1-0.1-1.5-0.1
			c-0.5,0-1,0-1.5,0.1L51.3,3c-1,0.2-1.9,0.4-2.8,0.7l0.3,3c-0.9,0.4-1.8,0.9-2.6,1.5l-2.5-1.8c-0.7,0.6-1.4,1.3-2.1,2l1.8,2.5
			c-0.6,0.8-1.1,1.7-1.5,2.6l-3-0.3c-0.3,0.9-0.6,1.8-0.8,2.8l2.8,1.3c-0.1,0.5-0.1,1-0.1,1.5c0,0.5,0,1,0.1,1.5L38,21.7
			c0.2,1,0.4,1.9,0.7,2.8l3-0.3c0.4,0.9,0.9,1.8,1.5,2.6l-1.8,2.5c0.6,0.7,1.3,1.4,2,2.1l2.5-1.8c0.8,0.6,1.7,1.1,2.6,1.5l-0.3,3
			c0.9,0.3,1.8,0.6,2.8,0.8l1.3-2.8c0.5,0.1,1,0.1,1.5,0.1c0.5,0,1,0,1.5-0.1l1.3,2.8c1-0.2,1.9-0.4,2.8-0.7l-0.3-3
			c0.9-0.4,1.8-0.9,2.6-1.5l2.5,1.8c0.7-0.6,1.4-1.3,2.1-2L64.7,27c0.6-0.8,1.1-1.7,1.5-2.6l3,0.3c0.3-0.9,0.6-1.8,0.8-2.8l-2.8-1.3
			C67.3,20.1,67.3,19.6,67.3,19z"/>
		<circle fill="#B5C0CB" cx="54" cy="19" r="10"/>
		<circle fill="#6C757C" cx="54" cy="20" r="6"/>
		<circle fill="#E8EBEF" cx="54" cy="19" r="6"/>
		<path fill="#6C757C" d="M54,10.1c5.4,0,9.9,4.3,10.2,9.7c0-0.2,0-0.4,0-0.6C64.2,13.6,59.7,9,54,9c-5.6,0-10.2,4.5-10.2,10.2
			c0,0.2,0,0.4,0,0.6C44.1,14.3,48.6,10.1,54,10.1z"/>
		<circle fill="#6C757C" cx="54" cy="19" r="3"/>
		<path fill="#E8EBEF" d="M55.8,19.9c0.4-0.7,0.2-1.7-0.4-2.3c-0.6-0.6-1.5-0.7-2.3-0.4L55.8,19.9z"/>
		<path fill="#E8EBEF" d="M52.2,18.1c-0.4,0.7-0.2,1.7,0.4,2.3c0.6,0.6,1.5,0.7,2.3,0.4L52.2,18.1z"/>
	</g>
	<g>
		<path fill="#6C757C" d="M43.1,44.1c0-0.7,0-1.5-0.1-2.2l4-1.8c-0.2-1.4-0.6-2.7-1.1-4l-4.4,0.4c-0.6-1.3-1.3-2.6-2.2-3.8l2.6-3.6
			c-0.9-1.1-1.9-2.1-2.9-3l-3.6,2.5c-1.2-0.9-2.4-1.6-3.8-2.2l0.4-4.4c-1.3-0.5-2.6-0.8-4-1.1l-1.8,4c-0.7-0.1-1.4-0.1-2.2-0.1
			c-0.7,0-1.5,0-2.2,0.1l-1.8-4c-1.4,0.2-2.7,0.6-4,1.1l0.4,4.4c-1.3,0.6-2.6,1.3-3.8,2.2L9.1,26C8,26.9,7,27.9,6.2,29l2.5,3.6
			c-0.9,1.2-1.6,2.4-2.2,3.8l-4.4-0.4c-0.5,1.3-0.8,2.6-1.1,4l4,1.8c-0.1,0.7-0.1,1.4-0.1,2.2c0,0.7,0,1.5,0.1,2.2l-4,1.8
			c0.2,1.4,0.6,2.7,1.1,4l4.4-0.4c0.6,1.3,1.3,2.6,2.2,3.8L6,58.9C6.9,60,7.9,61,9,61.8l3.6-2.5c1.2,0.9,2.4,1.6,3.8,2.2l-0.4,4.4
			c1.3,0.5,2.6,0.8,4,1.1l1.8-4c0.7,0.1,1.4,0.1,2.2,0.1c0.7,0,1.5,0,2.2-0.1l1.8,4c1.4-0.2,2.7-0.6,4-1.1l-0.4-4.4
			c1.3-0.6,2.6-1.3,3.8-2.2l3.6,2.6c1.1-0.9,2.1-1.9,3-2.9l-2.5-3.6c0.9-1.2,1.6-2.4,2.2-3.8l4.4,0.4c0.5-1.3,0.8-2.6,1.1-4l-4-1.8
			C43.1,45.5,43.1,44.8,43.1,44.1z"/>
		<path fill="#E8EBEF" d="M42.1,43.1c0-0.7,0-1.5-0.1-2.2l4-1.8c-0.2-1.4-0.6-2.7-1.1-4l-4.4,0.4c-0.6-1.3-1.3-2.6-2.2-3.8l2.6-3.6
			c-0.9-1.1-1.9-2.1-2.9-3l-3.6,2.5c-1.2-0.9-2.4-1.6-3.8-2.2l0.4-4.4c-1.3-0.5-2.6-0.8-4-1.1l-1.8,4c-0.7-0.1-1.4-0.1-2.2-0.1
			c-0.7,0-1.5,0-2.2,0.1l-1.8-4c-1.4,0.2-2.7,0.6-4,1.1l0.4,4.4c-1.3,0.6-2.6,1.3-3.8,2.2L8.1,25C7,25.9,6,26.9,5.2,28l2.5,3.6
			c-0.9,1.2-1.6,2.4-2.2,3.8l-4.4-0.4c-0.5,1.3-0.8,2.6-1.1,4l4,1.8c-0.1,0.7-0.1,1.4-0.1,2.2c0,0.7,0,1.5,0.1,2.2l-4,1.8
			c0.2,1.4,0.6,2.7,1.1,4l4.4-0.4c0.6,1.3,1.3,2.6,2.2,3.8L5,57.9C5.9,59,6.9,60,8,60.8l3.6-2.5c1.2,0.9,2.4,1.6,3.8,2.2l-0.4,4.4
			c1.3,0.5,2.6,0.8,4,1.1l1.8-4c0.7,0.1,1.4,0.1,2.2,0.1c0.7,0,1.5,0,2.2-0.1l1.8,4c1.4-0.2,2.7-0.6,4-1.1l-0.4-4.4
			c1.3-0.6,2.6-1.3,3.8-2.2l3.6,2.6c1.1-0.9,2.1-1.9,3-2.9l-2.5-3.6c0.9-1.2,1.6-2.4,2.2-3.8l4.4,0.4c0.5-1.3,0.8-2.6,1.1-4l-4-1.8
			C42.1,44.5,42.1,43.8,42.1,43.1z"/>
		<circle fill="#B5C0CB" cx="23" cy="43" r="14"/>
		<circle fill="#6C757C" cx="23" cy="44" r="8"/>
		<circle fill="#E8EBEF" cx="23" cy="43" r="8"/>
		<path fill="#6C757C" d="M23,30.4c7.6,0,13.7,6,14.1,13.4c0-0.3,0-0.5,0-0.8c0-7.8-6.3-14.2-14.1-14.2c-7.8,0-14.2,6.3-14.2,14.1
			c0,0.3,0,0.5,0,0.8C9.3,36.3,15.5,30.4,23,30.4z"/>
		<circle fill="#6C757C" cx="23" cy="43" r="4"/>
		<path fill="#E8EBEF" d="M24.3,40.3c-1.1-0.5-2.5-0.3-3.4,0.3s-1.1,2.3-0.6,3.4L24.3,40.3z"/>
		<path fill="#E8EBEF" d="M21.7,45.7c1.1,0.5,2.5,0.3,3.4-0.3s1.1-2.3,0.6-3.4L21.7,45.7z"/>
	</g>
</g>
</svg>
