<?xml version="1.0" encoding="utf-8"?>
<!-- Generator: Adobe Illustrator 21.0.0, SVG Export Plug-In . SVG Version: 6.00 Build 0)  -->
<svg version="1.1" id="ico70_x5F_New_1_" xmlns="http://www.w3.org/2000/svg" xmlns:xlink="http://www.w3.org/1999/xlink" x="0px"
	 y="0px" viewBox="0 0 70 70" enable-background="new 0 0 70 70" xml:space="preserve">
<g id="ico70_x5F_New">
	
		<linearGradient id="SVGID_1_" gradientUnits="userSpaceOnUse" x1="44.0597" y1="4.7414" x2="44.0597" y2="59.5413" gradientTransform="matrix(0.9117 0.4109 -0.4109 0.9117 11.717 -11.9649)">
		<stop  offset="0" style="stop-color:#006633"/>
		<stop  offset="0.3104" style="stop-color:#008933"/>
		<stop  offset="0.5" style="stop-color:#009933"/>
		<stop  offset="0.8104" style="stop-color:#23BC33"/>
		<stop  offset="1" style="stop-color:#33CC33"/>
	</linearGradient>
	<path fill="url(#SVGID_1_)" d="M33.5,3c44.5,45.4,5.9,62.4,5.9,62.4S-1.7,56,33.5,3z"/>
	
		<linearGradient id="SVGID_2_" gradientUnits="userSpaceOnUse" x1="44.8792" y1="59.1767" x2="44.8792" y2="4.7414" gradientTransform="matrix(0.9117 0.4109 -0.4109 0.9117 11.717 -11.9649)">
		<stop  offset="0.3" style="stop-color:#006633"/>
		<stop  offset="0.7" style="stop-color:#009933"/>
		<stop  offset="0.8863" style="stop-color:#23BC33"/>
		<stop  offset="1" style="stop-color:#33CC33"/>
	</linearGradient>
	<path fill="url(#SVGID_2_)" d="M33.5,3l5.9,62.4C39.4,65.4,78,48.5,33.5,3z"/>
	
		<linearGradient id="SVGID_3_" gradientUnits="userSpaceOnUse" x1="22.0015" y1="66.5034" x2="25.3525" y2="22.9246" gradientTransform="matrix(-0.9345 -0.2273 -7.186033e-02 0.8741 76.0507 14.5504)">
		<stop  offset="0.4" style="stop-color:#009933"/>
		<stop  offset="0.7725" style="stop-color:#23BC33"/>
		<stop  offset="1" style="stop-color:#33CC33"/>
	</linearGradient>
	<path fill="url(#SVGID_3_)" d="M66.3,31.5C19,37.1,39,65.1,39,65.1S70.5,78.9,66.3,31.5z"/>
	
		<linearGradient id="SVGID_4_" gradientUnits="userSpaceOnUse" x1="25.5589" y1="22.9405" x2="22.2593" y2="65.8515" gradientTransform="matrix(-0.9345 -0.2273 -7.186033e-02 0.8741 76.0507 14.5504)">
		<stop  offset="0.4" style="stop-color:#009933"/>
		<stop  offset="0.7725" style="stop-color:#23BC33"/>
		<stop  offset="1" style="stop-color:#33CC33"/>
	</linearGradient>
	<path fill="url(#SVGID_4_)" d="M66.3,31.5L39,65.1C39,65.1,19,37.1,66.3,31.5z"/>
	
		<linearGradient id="SVGID_5_" gradientUnits="userSpaceOnUse" x1="21.7945" y1="29.7026" x2="21.7945" y2="69.8548" gradientTransform="matrix(0.9605 -0.2782 0.2782 0.9605 -13.1423 6.5731)">
		<stop  offset="0.4" style="stop-color:#009933"/>
		<stop  offset="0.7725" style="stop-color:#23BC33"/>
		<stop  offset="1" style="stop-color:#33CC33"/>
	</linearGradient>
	<path fill="url(#SVGID_5_)" d="M3.4,32.7c46.4,4.2,32.9,32,32.9,32S8.9,79,3.4,32.7z"/>
	
		<linearGradient id="SVGID_6_" gradientUnits="userSpaceOnUse" x1="16.361" y1="65.2601" x2="25.2591" y2="34.5354" gradientTransform="matrix(0.9605 -0.2782 0.2782 0.9605 -13.1423 6.5731)">
		<stop  offset="0.4" style="stop-color:#009933"/>
		<stop  offset="0.7725" style="stop-color:#23BC33"/>
		<stop  offset="1" style="stop-color:#33CC33"/>
	</linearGradient>
	<path fill="url(#SVGID_6_)" d="M3.4,32.7l32.9,32C36.3,64.7,49.7,36.9,3.4,32.7z"/>
	<g>
		<path fill="#242527" d="M56.2,35.4c0,8.2-6.6,14.8-14.8,14.8c-8.2,0-14.8-6.6-14.8-14.8c0-7.9,6.4-14.8,14.8-14.8
			C49.6,20.6,56.2,27.3,56.2,35.4z"/>
		<linearGradient id="SVGID_7_" gradientUnits="userSpaceOnUse" x1="26.7968" y1="32.7563" x2="56.0661" y2="32.7563">
			<stop  offset="0" style="stop-color:#660000"/>
			<stop  offset="0.5" style="stop-color:#CC0000"/>
			<stop  offset="1" style="stop-color:#FF0000"/>
		</linearGradient>
		<path fill="url(#SVGID_7_)" d="M56,33c0.9,6.6-6.4,12-14.6,11.9c-7.7-0.1-14.8-4.1-14.5-10.8c0.3-7.2,6.5-13.4,14.5-13.4
			C49,20.6,55.1,26.5,56,33z"/>
		<path fill="#FF6666" d="M39.6,23.7c7.6,0,13.6,5.8,14.5,12.3c0,0.2,0,0.3,0,0.5c0.4-1.1,0.5-2.3,0.4-3.5
			c-0.8-5.9-6.3-11.2-13.2-11.2c-3.9,0-7.4,1.7-9.8,4.3C33.9,24.6,36.6,23.7,39.6,23.7z"/>
		<path fill="#242527" d="M38.9,52.7L38.9,52.7c-0.5,0-0.9-0.4-0.9-0.9v-3.1c0-0.5,0.4-0.9,0.9-0.9h0c0.5,0,0.9,0.4,0.9,0.9v3.1
			C39.8,52.3,39.4,52.7,38.9,52.7z"/>
		<path fill="#242527" d="M42.4,52.7L42.4,52.7c-0.5,0-0.9-0.4-0.9-0.9v-3.1c0-0.5,0.4-0.9,0.9-0.9l0,0c0.5,0,0.9,0.4,0.9,0.9v3.1
			C43.3,52.3,42.9,52.7,42.4,52.7z"/>
		<path fill="#242527" d="M46,52.7L46,52.7c-0.5,0-0.9-0.4-0.9-0.9v-3.1c0-0.5,0.4-0.9,0.9-0.9l0,0c0.5,0,0.9,0.4,0.9,0.9v3.1
			C46.9,52.3,46.5,52.7,46,52.7z"/>
		<path fill="#242527" d="M35.7,52.7L35.7,52.7c-0.5,0-0.9-0.4-0.9-0.9v-3.1c0-0.5,0.4-0.9,0.9-0.9l0,0c0.5,0,0.9,0.4,0.9,0.9v3.1
			C36.6,52.3,36.2,52.7,35.7,52.7z"/>
		<circle fill="#242527" cx="31.7" cy="43.4" r="6.4"/>
		<path display="none" fill="#E8EBEF" d="M35.4,42.1c0.6,2-0.4,4.1-2.3,4.8c-2,0.7-4.1-0.2-5-2.1L27.8,45c0.9,2,3.3,3,5.4,2.2
			c2.1-0.8,3.2-3.1,2.5-5.2L35.4,42.1z"/>
		<path fill="#E8EBEF" d="M34.9,42.6c0.5,1.5-0.3,3.1-1.8,3.6c-1.5,0.6-3.1-0.1-3.7-1.5l-0.6,0.2c0.8,1.8,2.9,2.7,4.7,2
			c1.9-0.7,2.8-2.7,2.2-4.6L34.9,42.6z"/>
		<circle fill="#242527" cx="49.2" cy="35.3" r="2.5"/>
		<circle fill="#242527" cx="43.7" cy="29.6" r="2.5"/>
		<circle fill="#242527" cx="35.7" cy="28.1" r="2.5"/>
		<path fill="#242527" d="M24.6,29.1c-0.2-0.8-0.8-1.3-1.7-1.3c-0.9,0-1.7,0.8-1.7,1.7c0,0.9,0.8,1.7,1.7,1.7c0.8,0,1.5-0.6,1.7-1.3
			c1.4,0.3,2.3,1.4,2.8,2.1c0.9,1.4,1.4,3.5,1.2,5.6l0.7,0.1c0.2-2.3-0.3-4.6-1.3-6.1C27.1,30.2,25.9,29.3,24.6,29.1z"/>
		<path fill="#242527" d="M30.3,30.5c-0.5-1.2-1.2-2.2-2.1-2.8c0.1-0.2,0.2-0.4,0.2-0.7c0.1-0.9-0.6-1.8-1.6-1.8
			c-0.9-0.1-1.8,0.6-1.8,1.6c-0.1,0.9,0.6,1.8,1.6,1.8c0.4,0,0.8-0.1,1.1-0.3c1.1,0.7,1.6,1.8,1.9,2.5c0.6,1.5,0.6,3.7-0.1,5.8
			l0.7,0.2C30.9,34.5,31,32.2,30.3,30.5z"/>
		<circle fill="#242527" cx="26.5" cy="37.9" r="3.7"/>
		<circle fill="#E8EBEF" cx="26.5" cy="37.9" r="3.2"/>
		<circle fill="#242527" cx="26.5" cy="37.9" r="1.2"/>
		<circle fill="#E8EBEF" cx="27.1" cy="37.3" r="0.4"/>
		<circle fill="#242527" cx="33.5" cy="37.9" r="3.7"/>
		<circle fill="#E8EBEF" cx="33.5" cy="37.9" r="3.2"/>
		<circle fill="#242527" cx="33.5" cy="37.9" r="1.2"/>
		<circle fill="#E8EBEF" cx="34.1" cy="37.4" r="0.4"/>
	</g>
</g>
</svg>
