<?xml version="1.0" encoding="utf-8"?>
<!-- Generator: Adobe Illustrator 21.0.0, SVG Export Plug-In . SVG Version: 6.00 Build 0)  -->
<svg version="1.1" id="ico70_x5F_Live_1_" xmlns="http://www.w3.org/2000/svg" xmlns:xlink="http://www.w3.org/1999/xlink" x="0px"
	 y="0px" viewBox="0 0 70 70" enable-background="new 0 0 70 70" xml:space="preserve">
<g id="ico70_x5F_Live">
	<linearGradient id="SVGID_1_" gradientUnits="userSpaceOnUse" x1="35" y1="70" x2="35" y2="40">
		<stop  offset="0" style="stop-color:#B5C0CB"/>
		<stop  offset="1" style="stop-color:#E8EBEF"/>
	</linearGradient>
	<path fill="url(#SVGID_1_)" d="M62.9,56.1l-1.8-9c-0.4-2-1.7-3.7-3.6-4.5L52.1,40l-34.4,0l-5.2,2.6c-1.9,0.9-3.2,2.5-3.6,4.5
		l-1.9,9.5c-0.3,1.4,0.2,2.8,1.3,3.7c2.8,2.4,6,4.4,9.4,5.9c0,0,5.2,3.7,17.2,3.7s17.1-3.9,17.1-3.9c3.5-1.7,6.7-3.8,9.6-6.3
		C62.7,58.9,63.2,57.5,62.9,56.1z"/>
	<polygon fill="#660000" points="44,43 41,60 41,45 	"/>
	<polygon fill="#660000" points="26,43 29,60 29,45 	"/>
	<linearGradient id="SVGID_2_" gradientUnits="userSpaceOnUse" x1="46" y1="70" x2="46" y2="36.0671">
		<stop  offset="0" style="stop-color:#660000"/>
		<stop  offset="0.5" style="stop-color:#CC0000"/>
		<stop  offset="1" style="stop-color:#FF0000"/>
	</linearGradient>
	<path fill="url(#SVGID_2_)" d="M43.4,36.1c0,0-1.7,29.3-6.4,33.9c5.6-0.2,10.2-0.8,15-3c0,0,0-8,0-14s3-12,3-12L43.4,36.1z"/>
	<linearGradient id="SVGID_3_" gradientUnits="userSpaceOnUse" x1="24" y1="70" x2="24" y2="36.0671">
		<stop  offset="0" style="stop-color:#660000"/>
		<stop  offset="0.5" style="stop-color:#CC0000"/>
		<stop  offset="1" style="stop-color:#FF0000"/>
	</linearGradient>
	<path fill="url(#SVGID_3_)" d="M26.6,36.1c0,0,1.7,29.3,6.4,33.9c-5.6-0.2-10.2-0.8-15-3c0,0,0-8,0-14s-3-12-3-12L26.6,36.1z"/>
	
		<radialGradient id="SVGID_4_" cx="35.2874" cy="35.4429" r="8.3677" gradientTransform="matrix(1.0723 0 0 1.0083 -2.6696 -0.583)" gradientUnits="userSpaceOnUse">
		<stop  offset="0" style="stop-color:#F0B799"/>
		<stop  offset="0.2604" style="stop-color:#EDB496"/>
		<stop  offset="0.4872" style="stop-color:#E6AC8B"/>
		<stop  offset="0.7014" style="stop-color:#D99F79"/>
		<stop  offset="0.9067" style="stop-color:#C68C60"/>
		<stop  offset="1" style="stop-color:#BC8152"/>
	</radialGradient>
	<path fill="url(#SVGID_4_)" d="M43,36.3c0,0-3.5,3.2-8.1,3.2c-4.6,0-7.9-3.2-7.9-3.2v-9.6h16V36.3z"/>
	<path fill="#BD6F48" d="M48.2,17c-0.3-0.3-0.7-0.5-1.2-0.5c-0.2,0-0.4,0-0.5,0.1C46,3.7,36.1,4.1,35,4.2
		c-1.1-0.1-11.1-0.5-11.5,12.6c-0.1,0-0.3,0-0.4,0c-0.6,0-1,0.2-1.4,0.5C21.2,17.8,21,18,21,20c0,2.9,2.3,4.4,3,4.8
		c0.5,1.1,2.7,5.6,6,8.2c0.2,0.2,0.4,0.3,0.6,0.5c1.1,0.9,1.8,1.5,4.5,1.5c2.7,0,3.4-0.6,4.4-1.5c0.2-0.1,0.4-0.3,0.6-0.5
		c3.3-2.6,5.6-7.2,6.1-8.3c0.6-0.4,2.9-2,2.9-4.9C49,18,48.8,17.6,48.2,17z"/>
	
		<radialGradient id="SVGID_5_" cx="35.1332" cy="19.8123" r="9.9864" gradientTransform="matrix(1.0316 0 0 1.632 -1.2432 -12.9398)" gradientUnits="userSpaceOnUse">
		<stop  offset="0" style="stop-color:#F0B799"/>
		<stop  offset="0.2633" style="stop-color:#EEB595"/>
		<stop  offset="0.5113" style="stop-color:#E9AD8A"/>
		<stop  offset="0.7531" style="stop-color:#DFA177"/>
		<stop  offset="0.9897" style="stop-color:#D3905C"/>
		<stop  offset="1" style="stop-color:#D28F5B"/>
	</radialGradient>
	<path fill="url(#SVGID_5_)" d="M35,34.3c-2.9,0-3.3-0.8-4.6-1.9c-3.2-2.6-5.2-7.1-5.6-8.1c-0.6-0.4-2.6-1.9-2.7-4.6
		c-0.2-3.4,1.8-2.8,2.3-2.8C24.6,3.9,34.1,4.4,35,4.5C35.9,4.4,45.4,3.9,45.7,17c0.6-0.4,2.5-0.7,2.3,2.8c-0.1,2.7-2.1,4.2-2.7,4.6
		c-0.4,1-2.5,5.5-5.7,8.2C38.2,33.6,37.9,34.3,35,34.3z"/>
	
		<linearGradient id="SVGID_6_" gradientUnits="userSpaceOnUse" x1="34.9999" y1="-0.2855" x2="34.9999" y2="19.1699" gradientTransform="matrix(1 -1.104963e-04 1.104963e-04 1 -1.078112e-03 3.871535e-03)">
		<stop  offset="0" style="stop-color:#472B28"/>
		<stop  offset="0.1465" style="stop-color:#582F29"/>
		<stop  offset="0.3374" style="stop-color:#663329"/>
		<stop  offset="0.5752" style="stop-color:#6E352A"/>
		<stop  offset="1" style="stop-color:#70362A"/>
	</linearGradient>
	<path fill="url(#SVGID_6_)" d="M45.5,4.3C42.3,0.6,38.3,0,36.2,0c-2.9,0-5.5,1-6.7,2.5c-0.2,0-0.6-0.1-1-0.1
		c-1.1,0-3.2,0.4-4.6,2.7c-1.8,3.3-2.4,7.6-1.5,11.5c0,0.2,0.2,0.3,0.3,0.2c0,0,0.3,0,0.7,0l0.2,2.3c0,0.2,0.1,0.3,0.3,0.3
		c0.2,0,0.3-0.1,0.3-0.2c0,0,0.8-3.3,2.3-5.9c0.7-1.2,2.3-2.9,2.9-3.5c0.6,0.6,2.3,2,5,3c1.2,0.4,2.3,0.6,3.4,0.6
		c1.9,0,3.3-0.7,4.1-1.1c0.4-0.2,0.8-0.4,0.9-0.4c0,0,0.2,0,0.3,0.5c0.5,2.2,1.8,6.7,1.8,6.8c0,0.1,0.2,0.2,0.3,0.2c0,0,0,0,0,0
		c0.2,0,0.3-0.1,0.3-0.3l0.1-2.3c0.1,0,0.3-0.1,0.6-0.1c0.2,0,0.4,0,0.5,0.1c0.1,0.1,0.2,0.1,0.3,0c0.1,0,0.2-0.1,0.2-0.2
		c0-0.2,0.4-1.7,0.4-4.7C48,9.5,47.4,6.5,45.5,4.3z"/>
	<path fill="#6E3E36" d="M30.6,3.3c0,0-0.5,4.4,2.5,6.4s7.1,1.9,9.1,1.4c1.9-0.5,3.5,0.8,3.5,0.8s-0.3-2.9-2.9-4.3
		c-2.6-1.5-6.1-3-5-3.5c1.1-0.5,3.6-1.1,4.7,0c0,0-2.5-2.7-6.1-2.7C32.8,1.4,30.6,3.3,30.6,3.3z"/>
	<path opacity="0.1" fill="#FFFFFF" d="M38.5,12.3c-0.5,0.1-1,0.1-1.4,0c-1.2-0.1-2.3-0.5-3.4-0.9c-1.4-0.5-2.7-1.2-4-2
		c0,0,1.7,2,5,3.1c4.3,1.5,6.6-0.3,7.7-0.8c-0.3,0.1-0.9,0-1.2,0.1C40.4,11.9,39.5,12.1,38.5,12.3z"/>
	<path opacity="0.2" fill="#FFFFFF" d="M31.8,7.2c0,0,0.1,0.1,0.2,0.2c0.2,0.1,0.4,0.3,0.7,0.6c0.1,0.1,0.3,0.2,0.5,0.4
		c0.2,0.1,0.3,0.3,0.5,0.4c0.2,0.1,0.4,0.3,0.6,0.4c0.2,0.1,0.4,0.3,0.6,0.4c0.2,0.1,0.4,0.2,0.6,0.3c0.2,0.1,0.4,0.2,0.6,0.3
		c0.2,0.1,0.4,0.2,0.6,0.2c0.2,0.1,0.4,0.1,0.6,0.2c0.2,0.1,0.3,0.1,0.5,0.2c0.1,0,0.3,0.1,0.4,0.1c0.2,0.1,0.3,0.1,0.3,0.1
		s-0.1,0-0.3,0c-0.1,0-0.2,0-0.4,0c-0.1,0-0.3-0.1-0.5-0.1c-0.1,0-0.2,0-0.3-0.1c-0.1,0-0.2-0.1-0.3-0.1c-0.2-0.1-0.4-0.1-0.6-0.2
		c-0.2-0.1-0.4-0.2-0.7-0.3c-0.2-0.1-0.4-0.2-0.7-0.3c-0.2-0.1-0.4-0.3-0.6-0.4c-0.2-0.1-0.4-0.3-0.6-0.4c-0.4-0.3-0.7-0.6-0.9-0.8
		c-0.3-0.3-0.4-0.5-0.6-0.7C31.8,7.3,31.8,7.2,31.8,7.2z"/>
	<path opacity="0.1" fill="#FFFFFF" d="M37.9,9.4c0,0,0.2,0.1,0.6,0.3c0.2,0.1,0.4,0.2,0.6,0.3c0.2,0.1,0.4,0.2,0.7,0.3
		c0.1,0.1,0.2,0.1,0.3,0.1c0.1,0,0.2,0.1,0.3,0.1c0.2,0.1,0.4,0.1,0.6,0.2c0.1,0,0.2,0,0.3,0.1c0.1,0,0.1,0,0.2,0c0.1,0,0.2,0,0.2,0
		s-0.1,0-0.2,0c-0.1,0-0.3,0-0.5,0c-0.1,0-0.2,0-0.3,0c-0.1,0-0.2,0-0.4-0.1c-0.2-0.1-0.5-0.2-0.7-0.3c-0.2-0.1-0.5-0.2-0.7-0.4
		c-0.2-0.1-0.4-0.3-0.5-0.4C38,9.6,37.9,9.4,37.9,9.4z"/>
	<path fill="#BD6F48" d="M45.7,21.6c0,0,0-1.7,0.4-2.8c0.4-1.1,0.7-0.8,0.9-0.6C47.2,18.4,46.1,19.5,45.7,21.6z"/>
	<path fill="#BD6F48" d="M23.7,21.6c0,0,0-1.7-0.4-2.8c-0.4-1.1-0.7-0.8-0.9-0.6C22.3,18.4,23.4,19.5,23.7,21.6z"/>
	<path opacity="0.2" fill="#FFFFFF" d="M25.9,18c0,0-0.1,0.8-0.1,2.1c0,0.3,0,0.6,0.1,1c0,0.4,0.1,0.7,0.2,1.1
		c0,0.2,0.1,0.4,0.1,0.6c0.1,0.2,0.1,0.4,0.2,0.6c0.1,0.2,0.1,0.4,0.2,0.6l0.2,0.6c0.2,0.4,0.3,0.8,0.5,1.2c0.2,0.4,0.3,0.7,0.5,1.1
		c0.3,0.7,0.6,1.4,0.9,2c0.5,1.2,0.9,1.9,0.9,1.9S29,30,28.4,28.9c-0.2-0.3-0.4-0.6-0.5-0.9c-0.2-0.3-0.4-0.7-0.6-1
		c-0.2-0.4-0.4-0.7-0.6-1.1c-0.2-0.4-0.4-0.8-0.5-1.2l-0.2-0.6c-0.1-0.2-0.1-0.4-0.2-0.6c-0.1-0.4-0.2-0.8-0.3-1.2
		c-0.1-0.4-0.1-0.8-0.1-1.2c0-0.4,0-0.7,0-1c0.1-0.6,0.2-1.2,0.3-1.5C25.8,18.2,25.9,18,25.9,18z"/>
	<path fill="#CE9775" d="M43.2,12.5C43.1,12,43,12,42.9,12c-0.2,0-0.5,0.2-0.9,0.4c-0.9,0.4-2.2,1.1-4,1.1c-1,0-2.2-0.2-3.3-0.6
		c-2.7-0.9-4.3-2.4-4.9-3c-0.6,0.6-2.2,2.3-2.8,3.5c-1,1.7-1.6,3.7-2,4.9c0,0,2.6-5.4,4.6-6c0,0,2.4,2.2,5.5,2.7s7.5-1.9,7.5-1.9
		l1.8,4.1C44,15.7,43.5,13.8,43.2,12.5z"/>
	<path fill="#FFFFFF" d="M43,34c0,0-2,4-8,6c0,0,11,3,14,7C49,47,49,39,43,34z"/>
	<path fill="#FFFFFF" d="M27,34c0,0,2,4,8,6c0,0-11,3-14,7C21,47,21,39,27,34z"/>
	<path fill="#6E3E36" d="M29,3.8c0,0-0.3,2.4,0.2,3.9c0,0-3.9,1.9-5.3,5.9C23.9,13.6,23.5,5.5,29,3.8z"/>
	<path fill="#6E3E36" d="M29.3,8c0,0-0.3,0.2-0.6,0.5c-0.2,0.2-0.4,0.3-0.6,0.6c-0.1,0.1-0.2,0.2-0.3,0.3c-0.1,0.1-0.2,0.2-0.3,0.3
		c-0.2,0.2-0.4,0.5-0.6,0.7c-0.2,0.2-0.3,0.5-0.5,0.6c-0.1,0.1-0.1,0.2-0.2,0.3c-0.1,0.1-0.1,0.1-0.1,0.2c-0.1,0.1-0.1,0.2-0.1,0.2
		s0-0.1,0.1-0.2c0-0.1,0.1-0.3,0.2-0.5c0.1-0.1,0.1-0.2,0.2-0.3c0.1-0.1,0.1-0.2,0.2-0.4c0.1-0.1,0.2-0.3,0.3-0.4
		c0.1-0.1,0.2-0.3,0.3-0.4c0.2-0.2,0.4-0.5,0.7-0.7c0.2-0.2,0.5-0.4,0.7-0.5c0.2-0.1,0.4-0.2,0.5-0.3C29.2,8,29.3,8,29.3,8z"/>
	<path fill="#242527" d="M43.4,39c-1.8,0-7.4,1.8-7.4,1.8v3c0,0,4.6,1.8,5.4,1.8S45.2,39,43.4,39z"/>
	<path fill="#363C43" d="M40.4,40c-1.8,0-4.4,1.8-4.4,1.8l1,1.2c0,0,2.2-1,3-1c0.8,0,1.3,0.7,2,0C43,41,42.2,40,40.4,40z"/>
	<path fill="#242527" d="M26.6,39c1.8,0,7.4,1.8,7.4,1.8v3c0,0-4.6,1.8-5.4,1.8C27.8,45.7,24.8,39,26.6,39z"/>
	<path fill="#363C43" d="M29.6,40c1.8,0,4.4,1.8,4.4,1.8L33,43c0,0-2.2-1-3-1s-1.3,0.7-2,0C27,41,27.8,40,29.6,40z"/>
	<path fill="#242527" d="M37.7,39.4c-0.2-0.2-0.5-0.4-0.9-0.4h-3.6c-0.3,0-0.7,0.1-0.9,0.4c-0.2,0.2-0.3,0.5-0.3,0.8l0.5,3.9
		c0.1,0.5,0.6,0.9,1.2,0.9h2.7c0.6,0,1.1-0.4,1.2-0.9l0.5-3.9C38,39.9,37.9,39.6,37.7,39.4z"/>
	<path fill="#525960" d="M36.8,40.2c-0.1-0.1-0.4-0.2-0.6-0.2h-2.4c-0.2,0-0.4,0.1-0.6,0.2c-0.1,0.1-0.2,0.3-0.2,0.4l0.3,1.9
		c0,0.3,0.4,0.5,0.8,0.5h1.8c0.4,0,0.7-0.2,0.8-0.5l0.3-1.9C37,40.4,36.9,40.3,36.8,40.2z"/>
	<path fill="#E8EBEF" d="M26,55h-6c-0.6,0-1-0.5-1-1l0,0c0-0.5,0.4-1,1-1h6c0.5,0,1,0.5,1,1l0,0C27,54.6,26.6,55,26,55z"/>
	<g>
		<g>
			<circle fill="#242527" cx="29.5" cy="21.5" r="1.5"/>
			<ellipse fill="#E8EBEF" cx="28.8" cy="20.8" rx="0.4" ry="0.4"/>
		</g>
		<linearGradient id="SVGID_7_" gradientUnits="userSpaceOnUse" x1="27" y1="17.0369" x2="32" y2="17.0369">
			<stop  offset="0" style="stop-color:#472B28"/>
			<stop  offset="0.1465" style="stop-color:#582F29"/>
			<stop  offset="0.3374" style="stop-color:#663329"/>
			<stop  offset="0.5752" style="stop-color:#6E352A"/>
			<stop  offset="1" style="stop-color:#70362A"/>
		</linearGradient>
		<path fill="url(#SVGID_7_)" d="M27.1,17.8c0.7,0.3,1.9-1.1,4.5,0.1c0.5,0.2,0.8-1.9-2.1-1.9C27.1,16.1,26.7,17.7,27.1,17.8z"/>
		<g>
			<circle fill="#242527" cx="40.5" cy="21.5" r="1.5"/>
			<ellipse fill="#E8EBEF" cx="39.8" cy="20.8" rx="0.4" ry="0.4"/>
		</g>
		<linearGradient id="SVGID_8_" gradientUnits="userSpaceOnUse" x1="38" y1="17.0369" x2="43" y2="17.0369">
			<stop  offset="0" style="stop-color:#472B28"/>
			<stop  offset="0.1465" style="stop-color:#582F29"/>
			<stop  offset="0.3374" style="stop-color:#663329"/>
			<stop  offset="0.5752" style="stop-color:#6E352A"/>
			<stop  offset="1" style="stop-color:#70362A"/>
		</linearGradient>
		<path fill="url(#SVGID_8_)" d="M42.9,17.8c-0.7,0.3-1.9-1.1-4.5,0.1c-0.5,0.2-0.8-1.9,2.1-1.9C42.9,16.1,43.3,17.7,42.9,17.8z"/>
	</g>
	<path fill="#BD6F48" d="M35,25.8c-1.2,0-2-1.3-2-0.7s0.4,1.8,2,1.8c1.6,0,2-1.2,2-1.8S36.2,25.8,35,25.8z"/>
	<path fill="#BD6F48" d="M35,32.1c-0.6,0-1-0.8-1-0.3s0.2,1.1,1,1.1s1-0.7,1-1.1S35.6,32.1,35,32.1z"/>
	<path fill="#BD6F48" d="M35,29.5c-1.9,0-3-0.8-3-0.6c0,0.2,0.5,1,3,1s3-0.8,3-1C38,28.7,36.9,29.5,35,29.5z"/>
	<g>
		<circle fill="#242527" cx="35" cy="49" r="1"/>
		<ellipse fill="#E8EBEF" cx="34.6" cy="48.6" rx="0.3" ry="0.3"/>
	</g>
	<g>
		<circle fill="#242527" cx="35" cy="54" r="1"/>
		<ellipse fill="#E8EBEF" cx="34.6" cy="53.6" rx="0.3" ry="0.3"/>
	</g>
	<g>
		<circle fill="#242527" cx="35" cy="59" r="1"/>
		<ellipse fill="#E8EBEF" cx="34.6" cy="58.6" rx="0.3" ry="0.3"/>
	</g>
</g>
</svg>
