<?xml version="1.0" encoding="utf-8"?>
<!-- Generator: Adobe Illustrator 21.0.0, SVG Export Plug-In . SVG Version: 6.00 Build 0)  -->
<svg version="1.1" id="ico70_x5F_Slot_1_" xmlns="http://www.w3.org/2000/svg" xmlns:xlink="http://www.w3.org/1999/xlink" x="0px"
	 y="0px" viewBox="0 0 70 70" enable-background="new 0 0 70 70" xml:space="preserve">
<g id="ico70_x5F_Slot">
	<g>
		<linearGradient id="SVGID_1_" gradientUnits="userSpaceOnUse" x1="61" y1="60" x2="61" y2="50">
			<stop  offset="0" style="stop-color:#363C43"/>
			<stop  offset="1" style="stop-color:#E8EBEF"/>
		</linearGradient>
		<path fill="url(#SVGID_1_)" d="M66,60H54V50h12c0,0,2,1.1,2,5.1S66,60,66,60z"/>
		<linearGradient id="SVGID_2_" gradientUnits="userSpaceOnUse" x1="63" y1="45.5" x2="66" y2="45.5">
			<stop  offset="0" style="stop-color:#363C43"/>
			<stop  offset="1" style="stop-color:#E8EBEF"/>
		</linearGradient>
		<path fill="url(#SVGID_2_)" d="M66,53c0,0,0,1-1.5,1S63,53,63,53V37h3V53z"/>
		<circle fill="#660000" cx="64.5" cy="35.5" r="5.5"/>
		<circle fill="#CC0000" cx="64.5" cy="34.5" r="4.5"/>
		<circle fill="#FF6666" cx="66" cy="34" r="3"/>
	</g>
	<g>
		<polygon fill="#363C43" points="54,66 51,68 11,68 8,66 0,51 62,51 		"/>
		<polygon fill="#6C757C" points="51,68 11,68 8,53 54,53 		"/>
		<polygon fill="#B5C0CB" points="58,16 4,16 11,12 51,12 		"/>
		<polygon fill="#B5C0CB" points="62,51 54,53 8,53 0,51 8,43 54,43 		"/>
		<polygon fill="#363C43" points="51,59 49,61 13,61 11,59 13,56 49,56 		"/>
		<polygon fill="#B5C0CB" points="50,62 48,64 14,64 12,62 11,59 51,59 		"/>
		<polygon fill="#6C757C" points="54,43 8,43 4,16 58,16 		"/>
		<polygon fill="#242527" points="52,41 10,41 7,18 55,18 		"/>
		<rect x="10" y="20" fill="#525960" width="42" height="21"/>
	</g>
	<g>
		<linearGradient id="SVGID_3_" gradientUnits="userSpaceOnUse" x1="46" y1="41" x2="46" y2="19">
			<stop  offset="0" style="stop-color:#363C43"/>
			<stop  offset="1" style="stop-color:#E8EBEF"/>
		</linearGradient>
		<path fill="url(#SVGID_3_)" d="M50,41h-8c-1.7,0-3-1.3-3-3V22c0-1.7,1.3-3,3-3h8c1.7,0,3,1.3,3,3v16C53,39.7,51.7,41,50,41z"/>
		<linearGradient id="SVGID_4_" gradientUnits="userSpaceOnUse" x1="46" y1="40" x2="46" y2="20">
			<stop  offset="0" style="stop-color:#E8EBEF"/>
			<stop  offset="0.4" style="stop-color:#525960"/>
			<stop  offset="0.7" style="stop-color:#E8EBEF"/>
			<stop  offset="1" style="stop-color:#525960"/>
		</linearGradient>
		<path fill="url(#SVGID_4_)" d="M50,40h-8c-1.7,0-3-1.3-3-3V23c0-1.7,1.3-3,3-3h8c1.7,0,3,1.3,3,3v14C53,38.7,51.7,40,50,40z"/>
		<linearGradient id="SVGID_5_" gradientUnits="userSpaceOnUse" x1="46" y1="39" x2="46" y2="21">
			<stop  offset="0" style="stop-color:#525960"/>
			<stop  offset="1" style="stop-color:#242527"/>
		</linearGradient>
		<path fill="url(#SVGID_5_)" d="M50,39h-8c-1.1,0-2-0.9-2-2V23c0-1.1,0.9-2,2-2h8c1.1,0,2,0.9,2,2v14C52,38.1,51.1,39,50,39z"/>
		<linearGradient id="SVGID_6_" gradientUnits="userSpaceOnUse" x1="46" y1="39" x2="46" y2="21">
			<stop  offset="0" style="stop-color:#525960"/>
			<stop  offset="1.682073e-03" style="stop-color:#535A61"/>
			<stop  offset="8.619326e-02" style="stop-color:#80868C"/>
			<stop  offset="0.1712" style="stop-color:#A6AAB0"/>
			<stop  offset="0.2555" style="stop-color:#C3C7CB"/>
			<stop  offset="0.3389" style="stop-color:#D7DBDF"/>
			<stop  offset="0.4209" style="stop-color:#E4E7EB"/>
			<stop  offset="0.5" style="stop-color:#E8EBEF"/>
			<stop  offset="0.705" style="stop-color:#E6E9ED"/>
			<stop  offset="0.7788" style="stop-color:#DFE3E7"/>
			<stop  offset="0.8314" style="stop-color:#D4D7DB"/>
			<stop  offset="0.874" style="stop-color:#C3C7CB"/>
			<stop  offset="0.9104" style="stop-color:#ADB1B6"/>
			<stop  offset="0.9427" style="stop-color:#91979C"/>
			<stop  offset="0.9712" style="stop-color:#72787E"/>
			<stop  offset="0.9944" style="stop-color:#525960"/>
		</linearGradient>
		<path fill="url(#SVGID_6_)" d="M50,39h-8c0,0-2-3-2-9s2-9,2-9h8c0,0,2,3.3,2,9S50,39,50,39z"/>
		<path fill="#242527" d="M50.9,27.5c-0.1-0.2-1.1-1.5-1.1-1.5s-0.1-0.2-0.5-0.3s-0.9,0.1-1.2,0.3c-0.9-1.1-2.3-1.1-3-0.7l-0.1-0.3
			c0,0-0.5-0.2-1.6-0.2c-0.7,0-1.4,0.6-1.4,0.3s-0.1,1,0,2.4s0.5,2.4,0.5,2.4s0.5,0.2,1.2,0.1c0.7,0,1.3-0.2,1.3-0.2
			s0.1-0.2,0.1-0.3s0.8-0.6,1.4-0.4c-0.4,0.4-1.4,1.3-2.2,2.4c-0.8,1.1-0.6,2.6-0.4,2.9c0.2,0.4,0.5,0.3,0.5,0.3h4.1
			c0,0,0.5,0,0.5-0.6c0-1.2-0.6-1.6-0.2-3.4c0.4-1.8,1.8-2.7,1.8-2.7s0.2-0.2,0.2-0.3s51,27.7,50.9,27.5z M49.3,26L49.3,26L49.3,26
			L49.3,26z"/>
		<linearGradient id="SVGID_7_" gradientUnits="userSpaceOnUse" x1="46.5087" y1="34.658" x2="46.5087" y2="25.3289">
			<stop  offset="0" style="stop-color:#FFCC00"/>
			<stop  offset="0.5" style="stop-color:#FF9900"/>
			<stop  offset="1" style="stop-color:#FF6600"/>
		</linearGradient>
		<path fill="url(#SVGID_7_)" d="M49.6,26.3c0-0.1-0.2-0.1-0.3-0.1c-0.4,0-0.9,0.1-1.2,0.4c-0.8-1-2.1-1.3-3.2-0.7
			c0-0.2-0.1-0.3-0.1-0.5c-0.8-0.2-1.7-0.3-2.4,0.3c-0.1,1.4,0,2.9,0.4,4.3c0.7,0.2,1.4,0.1,2.1-0.1c0-0.1,0-0.2,0-0.2
			c0.5-0.7,1.6-0.9,2.3-0.5c-1.4,1.6-3.6,2.8-2.9,5.2c0,0.1,0.1,0.2,0.3,0.2h4.1c0.1,0,0.2-0.1,0.2-0.2v-0.4c-0.8-2.3,0-4.8,1.8-6
			c0.1,0,0.1-0.2,0.1-0.3L49.6,26.3z"/>
		<path fill="#FFCC00" d="M49.3,28.7l0.9-0.9l-0.9-1.2c0,0-0.7,0-1.3,0.6c0,0-0.7-1.2-1.9-1.2c-0.8,0-1.5,0.6-1.5,0.6l-0.2-0.8
			c0,0-1-0.3-1.8,0.2c0,0.1,0,1.9,0,1.9s2-0.5,3.7-0.3C48.2,27.9,49.3,28.7,49.3,28.7z"/>
		<path fill="#FF6600" d="M44.7,32.7c-0.2,0.5-0.2,0.9-0.1,1.5h3.8c0,0-0.2-0.9-0.3-1.3C47,33.5,45.6,33.5,44.7,32.7z"/>
	</g>
	<g>
		<linearGradient id="SVGID_8_" gradientUnits="userSpaceOnUse" x1="31" y1="41" x2="31" y2="19">
			<stop  offset="0" style="stop-color:#363C43"/>
			<stop  offset="1" style="stop-color:#E8EBEF"/>
		</linearGradient>
		<path fill="url(#SVGID_8_)" d="M35,41h-8c-1.7,0-3-1.3-3-3V22c0-1.7,1.3-3,3-3h8c1.7,0,3,1.3,3,3v16C38,39.7,36.7,41,35,41z"/>
		<linearGradient id="SVGID_9_" gradientUnits="userSpaceOnUse" x1="31" y1="40" x2="31" y2="20">
			<stop  offset="0" style="stop-color:#E8EBEF"/>
			<stop  offset="0.4" style="stop-color:#525960"/>
			<stop  offset="0.7" style="stop-color:#E8EBEF"/>
			<stop  offset="1" style="stop-color:#525960"/>
		</linearGradient>
		<path fill="url(#SVGID_9_)" d="M35,40h-8c-1.7,0-3-1.3-3-3V23c0-1.7,1.3-3,3-3h8c1.7,0,3,1.3,3,3v14C38,38.7,36.7,40,35,40z"/>
		<linearGradient id="SVGID_10_" gradientUnits="userSpaceOnUse" x1="31" y1="39" x2="31" y2="21">
			<stop  offset="0" style="stop-color:#525960"/>
			<stop  offset="1" style="stop-color:#242527"/>
		</linearGradient>
		<path fill="url(#SVGID_10_)" d="M35,39h-8c-1.1,0-2-0.9-2-2V23c0-1.1,0.9-2,2-2h8c1.1,0,2,0.9,2,2v14C37,38.1,36.1,39,35,39z"/>
		<linearGradient id="SVGID_11_" gradientUnits="userSpaceOnUse" x1="31" y1="39" x2="31" y2="21">
			<stop  offset="0" style="stop-color:#525960"/>
			<stop  offset="1.682073e-03" style="stop-color:#535A61"/>
			<stop  offset="8.619326e-02" style="stop-color:#80868C"/>
			<stop  offset="0.1712" style="stop-color:#A6AAB0"/>
			<stop  offset="0.2555" style="stop-color:#C3C7CB"/>
			<stop  offset="0.3389" style="stop-color:#D7DBDF"/>
			<stop  offset="0.4209" style="stop-color:#E4E7EB"/>
			<stop  offset="0.5" style="stop-color:#E8EBEF"/>
			<stop  offset="0.705" style="stop-color:#E6E9ED"/>
			<stop  offset="0.7788" style="stop-color:#DFE3E7"/>
			<stop  offset="0.8314" style="stop-color:#D4D7DB"/>
			<stop  offset="0.874" style="stop-color:#C3C7CB"/>
			<stop  offset="0.9104" style="stop-color:#ADB1B6"/>
			<stop  offset="0.9427" style="stop-color:#91979C"/>
			<stop  offset="0.9712" style="stop-color:#72787E"/>
			<stop  offset="0.9944" style="stop-color:#525960"/>
		</linearGradient>
		<path fill="url(#SVGID_11_)" d="M35,39h-8c0,0-2-3-2-9s2-9,2-9h8c0,0,2,3.3,2,9S35,39,35,39z"/>
		<path fill="#242527" d="M35.9,27.5c-0.1-0.2-1.1-1.5-1.1-1.5s-0.1-0.2-0.5-0.3s-0.9,0.1-1.2,0.3c-0.9-1.1-2.3-1.1-3-0.7l-0.1-0.3
			c0,0-0.5-0.2-1.6-0.2c-0.7,0-1.4,0.6-1.4,0.3s-0.1,1,0,2.4c0.1,1.4,0.5,2.4,0.5,2.4s0.5,0.2,1.2,0.1c0.7,0,1.3-0.2,1.3-0.2
			s0.1-0.2,0.1-0.4c0-0.2,0.8-0.6,1.4-0.4c-0.4,0.4-1.4,1.3-2.2,2.4c-0.8,1.1-0.6,2.6-0.4,2.9c0.2,0.4,0.5,0.3,0.5,0.3h4.1
			c0,0,0.5,0,0.5-0.6c0-1.2-0.6-1.6-0.2-3.4c0.4-1.8,1.8-2.7,1.8-2.7s0.2-0.2,0.2-0.3s36,27.7,35.9,27.5z M34.3,26L34.3,26L34.3,26
			L34.3,26z"/>
		<linearGradient id="SVGID_12_" gradientUnits="userSpaceOnUse" x1="31.5087" y1="34.658" x2="31.5087" y2="25.3289">
			<stop  offset="0" style="stop-color:#FFCC00"/>
			<stop  offset="0.5" style="stop-color:#FF9900"/>
			<stop  offset="1" style="stop-color:#FF6600"/>
		</linearGradient>
		<path fill="url(#SVGID_12_)" d="M34.6,26.3c0-0.1-0.2-0.1-0.3-0.1c-0.4,0-0.9,0.1-1.2,0.4c-0.8-1-2.1-1.3-3.2-0.7
			c0-0.2-0.1-0.3-0.1-0.5c-0.8-0.2-1.7-0.3-2.4,0.3c-0.1,1.4,0,2.9,0.4,4.3c0.7,0.2,1.4,0.1,2.1-0.1c0-0.1,0-0.2,0-0.2
			c0.5-0.7,1.6-0.9,2.3-0.5c-1.4,1.6-3.6,2.8-2.9,5.2c0,0.1,0.1,0.2,0.3,0.2h4.1c0.1,0,0.2-0.1,0.2-0.2v-0.4c-0.8-2.3,0-4.8,1.8-6
			c0.1,0,0.1-0.2,0.1-0.3L34.6,26.3z"/>
		<path fill="#FFCC00" d="M34.3,28.7l0.9-0.9l-0.9-1.2c0,0-0.7,0-1.3,0.6c0,0-0.7-1.2-1.9-1.2c-0.8,0-1.5,0.6-1.5,0.6l-0.2-0.8
			c0,0-1-0.3-1.8,0.2c0,0.1,0,1.9,0,1.9s2-0.5,3.7-0.3C33.2,27.9,34.3,28.7,34.3,28.7z"/>
		<path fill="#FF6600" d="M29.7,32.7c-0.2,0.5-0.2,0.9-0.1,1.5h3.8c0,0-0.2-0.9-0.3-1.3C32,33.5,30.6,33.5,29.7,32.7z"/>
	</g>
	<g>
		<linearGradient id="SVGID_13_" gradientUnits="userSpaceOnUse" x1="16" y1="41" x2="16" y2="19">
			<stop  offset="0" style="stop-color:#363C43"/>
			<stop  offset="1" style="stop-color:#E8EBEF"/>
		</linearGradient>
		<path fill="url(#SVGID_13_)" d="M20,41h-8c-1.7,0-3-1.3-3-3V22c0-1.7,1.3-3,3-3h8c1.7,0,3,1.3,3,3v16C23,39.7,21.7,41,20,41z"/>
		<linearGradient id="SVGID_14_" gradientUnits="userSpaceOnUse" x1="16" y1="40" x2="16" y2="20">
			<stop  offset="0" style="stop-color:#E8EBEF"/>
			<stop  offset="0.4" style="stop-color:#525960"/>
			<stop  offset="0.7" style="stop-color:#E8EBEF"/>
			<stop  offset="1" style="stop-color:#525960"/>
		</linearGradient>
		<path fill="url(#SVGID_14_)" d="M20,40h-8c-1.7,0-3-1.3-3-3V23c0-1.7,1.3-3,3-3h8c1.7,0,3,1.3,3,3v14C23,38.7,21.7,40,20,40z"/>
		<linearGradient id="SVGID_15_" gradientUnits="userSpaceOnUse" x1="16" y1="39" x2="16" y2="21">
			<stop  offset="0" style="stop-color:#525960"/>
			<stop  offset="1" style="stop-color:#242527"/>
		</linearGradient>
		<path fill="url(#SVGID_15_)" d="M20,39h-8c-1.1,0-2-0.9-2-2V23c0-1.1,0.9-2,2-2h8c1.1,0,2,0.9,2,2v14C22,38.1,21.1,39,20,39z"/>
		<linearGradient id="SVGID_16_" gradientUnits="userSpaceOnUse" x1="16" y1="39" x2="16" y2="21">
			<stop  offset="0" style="stop-color:#525960"/>
			<stop  offset="1.682073e-03" style="stop-color:#535A61"/>
			<stop  offset="8.619326e-02" style="stop-color:#80868C"/>
			<stop  offset="0.1712" style="stop-color:#A6AAB0"/>
			<stop  offset="0.2555" style="stop-color:#C3C7CB"/>
			<stop  offset="0.3389" style="stop-color:#D7DBDF"/>
			<stop  offset="0.4209" style="stop-color:#E4E7EB"/>
			<stop  offset="0.5" style="stop-color:#E8EBEF"/>
			<stop  offset="0.705" style="stop-color:#E6E9ED"/>
			<stop  offset="0.7788" style="stop-color:#DFE3E7"/>
			<stop  offset="0.8314" style="stop-color:#D4D7DB"/>
			<stop  offset="0.874" style="stop-color:#C3C7CB"/>
			<stop  offset="0.9104" style="stop-color:#ADB1B6"/>
			<stop  offset="0.9427" style="stop-color:#91979C"/>
			<stop  offset="0.9712" style="stop-color:#72787E"/>
			<stop  offset="0.9944" style="stop-color:#525960"/>
		</linearGradient>
		<path fill="url(#SVGID_16_)" d="M20,39h-8c0,0-2-3-2-9s2-9,2-9h8c0,0,2,3.3,2,9S20,39,20,39z"/>
		<path fill="#242527" d="M20.9,27.5c-0.1-0.2-1.1-1.5-1.1-1.5s-0.1-0.2-0.5-0.3s-0.9,0.1-1.2,0.3c-0.9-1.1-2.3-1.1-3-0.7l-0.1-0.3
			c0,0-0.5-0.2-1.6-0.2c-0.7,0-1.4,0.6-1.4,0.3s-0.1,1,0,2.4c0.1,1.4,0.5,2.4,0.5,2.4s0.5,0.2,1.2,0.1c0.7,0,1.3-0.2,1.3-0.2
			s0.1-0.2,0.1-0.3s0.8-0.6,1.4-0.4c-0.4,0.4-1.4,1.3-2.2,2.4c-0.8,1.1-0.6,2.6-0.4,2.9c0.2,0.4,0.5,0.3,0.5,0.3h4.1
			c0,0,0.5,0,0.5-0.6c0-1.2-0.6-1.6-0.2-3.4c0.4-1.8,1.8-2.7,1.8-2.7s0.2-0.2,0.2-0.3s21,27.7,20.9,27.5z M19.3,26L19.3,26L19.3,26
			L19.3,26z"/>
		<linearGradient id="SVGID_17_" gradientUnits="userSpaceOnUse" x1="16.5087" y1="34.658" x2="16.5087" y2="25.3289">
			<stop  offset="0" style="stop-color:#FFCC00"/>
			<stop  offset="0.5" style="stop-color:#FF9900"/>
			<stop  offset="1" style="stop-color:#FF6600"/>
		</linearGradient>
		<path fill="url(#SVGID_17_)" d="M19.6,26.3c0-0.1-0.2-0.1-0.3-0.1c-0.4,0-0.9,0.1-1.2,0.4c-0.8-1-2.1-1.3-3.2-0.7
			c0-0.2-0.1-0.3-0.1-0.5c-0.8-0.2-1.7-0.3-2.4,0.3c-0.1,1.4,0,2.9,0.4,4.3c0.7,0.2,1.4,0.1,2.1-0.1c0-0.1,0-0.2,0-0.2
			c0.5-0.7,1.6-0.9,2.3-0.5c-1.4,1.6-3.6,2.8-2.9,5.2c0,0.1,0.1,0.2,0.3,0.2h4.1c0.1,0,0.2-0.1,0.2-0.2v-0.4c-0.8-2.3,0-4.8,1.8-6
			c0.1,0,0.1-0.2,0.1-0.3L19.6,26.3z"/>
		<path fill="#FFCC00" d="M19.3,28.7l0.9-0.9l-0.9-1.2c0,0-0.7,0-1.3,0.6c0,0-0.7-1.2-1.9-1.2c-0.8,0-1.5,0.6-1.5,0.6l-0.2-0.8
			c0,0-1-0.3-1.8,0.2c0,0.1,0,1.9,0,1.9s2-0.5,3.7-0.3C18.2,27.9,19.3,28.7,19.3,28.7z"/>
		<path fill="#FF6600" d="M14.7,32.7c-0.2,0.5-0.2,0.9-0.1,1.5h3.8c0,0-0.2-0.9-0.3-1.3C17,33.5,15.6,33.5,14.7,32.7z"/>
	</g>
	<g>
		<path fill="#242527" d="M9,45l-1,3.1c0,1.1,3.7,1.9,7,1.9s7-0.9,7-1.9L21,45H9z"/>
		<path fill="#660000" d="M9,44v3.1c0,1.1,2.7,1.9,6,1.9s6-0.9,6-1.9V44H9z"/>
		<ellipse fill="#CC0000" cx="15" cy="44" rx="6" ry="2"/>
		<ellipse fill="#FF6666" cx="15" cy="43.5" rx="5.1" ry="1.5"/>
	</g>
	<g>
		<path fill="#242527" d="M26.6,46L26,48.5c0,0.8,2.4,1.5,4.5,1.5s4.5-0.7,4.5-1.5L34.4,46H26.6z"/>
		<path fill="#006633" d="M26.6,45.5v2.2c0,0.7,1.7,1.3,3.9,1.3s3.9-0.6,3.9-1.3v-2.2H26.6z"/>
		<ellipse fill="#009933" cx="30.5" cy="45.5" rx="3.9" ry="1.5"/>
		<ellipse fill="#33CC33" cx="30.5" cy="45" rx="3.3" ry="1"/>
	</g>
	<g>
		<path fill="#242527" d="M36.6,46L36,48.5c0,0.8,2.4,1.5,4.5,1.5s4.5-0.7,4.5-1.5L44.4,46H36.6z"/>
		<path fill="#006633" d="M36.6,45.5v2.2c0,0.7,1.7,1.3,3.9,1.3s3.9-0.6,3.9-1.3v-2.2H36.6z"/>
		<ellipse fill="#009933" cx="40.5" cy="45.5" rx="3.9" ry="1.5"/>
		<ellipse fill="#33CC33" cx="40.5" cy="45" rx="3.3" ry="1"/>
	</g>
	<g>
		<path fill="#242527" d="M46.6,46L46,48.5c0,0.8,2.4,1.5,4.5,1.5s4.5-0.7,4.5-1.5L54.4,46H46.6z"/>
		<path fill="#006633" d="M46.6,45.5v2.2c0,0.7,1.7,1.3,3.9,1.3s3.9-0.6,3.9-1.3v-2.2H46.6z"/>
		<ellipse fill="#009933" cx="50.5" cy="45.5" rx="3.9" ry="1.5"/>
		<ellipse fill="#33CC33" cx="50.5" cy="45" rx="3.3" ry="1"/>
	</g>
	<g>
		<path fill="#242527" d="M36.9,12L36,13.9c0,0.6,3.2,1.1,6,1.1s6-0.5,6-1.1L47.1,12H36.9z"/>
		<path fill="#0066CC" d="M44.1,14h-4.2c-1.6,0-2.9-1.3-2.9-2.9V7c0-2.8,2.2-5,5-5h0c2.8,0,5,2.2,5,5v4.1C47,12.7,45.7,14,44.1,14z"
			/>
		<path fill="#E8EBEF" d="M42,2.9c-1.2,0-2.3,0.4-3.1,1.1c0.4-0.1,0.8-0.1,1.1-0.1h1c2.8,0,3,2.1,3,4.6v3c0.6-0.5,2-1.2,2-2v-2
			C46,5,44.8,2.9,42,2.9z"/>
		<path fill="#0080FF" d="M42,13.1h-2.5c-0.8,0-1.5-0.7-1.5-1.5V8.1c0-1.3,1.1-2.4,2.4-2.4H42V13.1z"/>
	</g>
</g>
</svg>
