<?xml version="1.0" encoding="utf-8"?>
<!-- Generator: Adobe Illustrator 21.0.0, SVG Export Plug-In . SVG Version: 6.00 Build 0)  -->
<svg version="1.1" id="ico70_x5F_Cashbox" xmlns="http://www.w3.org/2000/svg" xmlns:xlink="http://www.w3.org/1999/xlink" x="0px"
	 y="0px" viewBox="0 0 70 70" enable-background="new 0 0 70 70" xml:space="preserve">
<g id="ico70_x5F_Cashbox_1_">
	<g>
		<circle fill="#FFCC00" cx="20" cy="38" r="20"/>
		<circle fill="#FFBC00" cx="20" cy="38" r="16"/>
		<path fill="#FF9900" d="M25.8,35.6c-0.1-0.1-0.3-0.3-0.6-0.4c-0.3-0.2-0.6-0.3-1-0.5c-0.4-0.2-0.8-0.3-1.2-0.5
			c-0.4-0.1-0.9-0.2-1.4-0.3v4.3l0.6,0.1c0.9,0.2,1.6,0.5,2.3,0.7c0.7,0.3,1.3,0.6,1.8,1c0.5,0.4,0.9,0.9,1.1,1.4
			c0.3,0.6,0.4,1.2,0.4,2.1c0,0.9-0.2,1.7-0.5,2.3c-0.3,0.6-0.8,1.2-1.3,1.6c-0.6,0.4-1.2,0.7-1.9,0.9c-0.7,0.2-1.5,0.3-2.3,0.4v2.7
			h-1.5v-2.8c-1.2-0.1-2.3-0.3-3.4-0.7c-1.1-0.4-2.1-0.9-3-1.5l1.5-3c0.1,0.1,0.4,0.3,0.7,0.5c0.3,0.2,0.7,0.4,1.2,0.6
			c0.5,0.2,1,0.4,1.5,0.6c0.6,0.2,1.1,0.3,1.7,0.4v-4.3c-0.1,0-0.3-0.1-0.4-0.1c-0.1,0-0.3-0.1-0.4-0.1c-0.8-0.2-1.6-0.5-2.2-0.8
			c-0.6-0.3-1.1-0.6-1.6-1c-0.4-0.4-0.7-0.8-0.9-1.3c-0.2-0.5-0.3-1.1-0.3-1.8c0-0.8,0.1-1.6,0.4-2.2c0.3-0.7,0.7-1.2,1.2-1.7
			c0.5-0.5,1.1-0.8,1.8-1.1c0.7-0.3,1.4-0.4,2.2-0.5v-2.5h1.5v2.5c1.1,0.1,2.1,0.3,3,0.7c0.9,0.4,1.7,0.8,2.4,1.3L25.8,35.6z
			 M18.3,35.9c0,0.6,0.2,1,0.6,1.3c0.4,0.3,1,0.6,1.8,0.8v-4C19.1,34,18.3,34.7,18.3,35.9z M24.3,44c0-0.6-0.2-1-0.7-1.3
			c-0.5-0.3-1.1-0.6-1.9-0.9v4C23.4,45.7,24.3,45.1,24.3,44z"/>
		<path fill="#FFCC00" d="M24.8,33.6c-0.1-0.1-0.3-0.3-0.6-0.4c-0.3-0.2-0.6-0.3-1-0.5c-0.4-0.2-0.8-0.3-1.2-0.5
			c-0.4-0.1-0.9-0.2-1.4-0.3v4.3l0.6,0.1c0.9,0.2,1.6,0.5,2.3,0.7c0.7,0.3,1.3,0.6,1.8,1c0.5,0.4,0.9,0.9,1.1,1.4
			c0.3,0.6,0.4,1.2,0.4,2.1c0,0.9-0.2,1.7-0.5,2.3c-0.3,0.6-0.8,1.2-1.3,1.6c-0.6,0.4-1.2,0.7-1.9,0.9c-0.7,0.2-1.5,0.3-2.3,0.4v2.7
			h-1.5v-2.8c-1.2-0.1-2.3-0.3-3.4-0.7c-1.1-0.4-2.1-0.9-3-1.5l1.5-3c0.1,0.1,0.4,0.3,0.7,0.5c0.3,0.2,0.7,0.4,1.2,0.6
			c0.5,0.2,1,0.4,1.5,0.6c0.6,0.2,1.1,0.3,1.7,0.4v-4.3c-0.1,0-0.3-0.1-0.4-0.1c-0.1,0-0.3-0.1-0.4-0.1c-0.8-0.2-1.6-0.5-2.2-0.8
			c-0.6-0.3-1.1-0.6-1.6-1c-0.4-0.4-0.7-0.8-0.9-1.3c-0.2-0.5-0.3-1.1-0.3-1.8c0-0.8,0.1-1.6,0.4-2.2c0.3-0.7,0.7-1.2,1.2-1.7
			c0.5-0.5,1.1-0.8,1.8-1.1c0.7-0.3,1.4-0.4,2.2-0.5v-2.5h1.5v2.5c1.1,0.1,2.1,0.3,3,0.7c0.9,0.4,1.7,0.8,2.4,1.3L24.8,33.6z
			 M17.3,33.9c0,0.6,0.2,1,0.6,1.3c0.4,0.3,1,0.6,1.8,0.8v-4C18.1,32,17.3,32.7,17.3,33.9z M23.3,42c0-0.6-0.2-1-0.7-1.3
			c-0.5-0.3-1.1-0.6-1.9-0.9v4C22.4,43.7,23.3,43.1,23.3,42z"/>
		<path fill="#FF9900" d="M5.2,38.9c0-8.9,7.2-16,16-16c3.3,0,6.4,1,9,2.7C27.4,23.3,23.9,22,20,22c-8.9,0-16,7.2-16,16
			c0,5,2.3,9.5,5.9,12.4c-1.6-1.6-2.9-3.6-3.6-5.8C5.5,42.9,5.2,40.9,5.2,38.9z"/>
	</g>
	<g>
		<circle fill="#FFCC00" cx="45" cy="20" r="20"/>
		<circle fill="#FFBC00" cx="45" cy="20" r="16"/>
		<path fill="#FF9900" d="M50.8,17.6c-0.1-0.1-0.3-0.3-0.6-0.4c-0.3-0.2-0.6-0.3-1-0.5c-0.4-0.2-0.8-0.3-1.2-0.5
			c-0.4-0.1-0.9-0.2-1.4-0.3v4.3l0.6,0.1c0.9,0.2,1.6,0.5,2.3,0.7c0.7,0.3,1.3,0.6,1.8,1c0.5,0.4,0.9,0.9,1.1,1.4
			c0.3,0.6,0.4,1.2,0.4,2.1c0,0.9-0.2,1.7-0.5,2.3c-0.3,0.6-0.8,1.2-1.3,1.6c-0.6,0.4-1.2,0.7-1.9,0.9c-0.7,0.2-1.5,0.3-2.3,0.4v2.7
			h-1.5v-2.8c-1.2-0.1-2.3-0.3-3.4-0.7c-1.1-0.4-2.1-0.9-3-1.5l1.5-3c0.1,0.1,0.4,0.3,0.7,0.5c0.3,0.2,0.7,0.4,1.2,0.6
			c0.5,0.2,1,0.4,1.5,0.6c0.6,0.2,1.1,0.3,1.7,0.4v-4.3c-0.1,0-0.3-0.1-0.4-0.1c-0.1,0-0.3-0.1-0.4-0.1c-0.8-0.2-1.6-0.5-2.2-0.8
			c-0.6-0.3-1.1-0.6-1.6-1c-0.4-0.4-0.7-0.8-0.9-1.3c-0.2-0.5-0.3-1.1-0.3-1.8c0-0.8,0.1-1.6,0.4-2.2c0.3-0.7,0.7-1.2,1.2-1.7
			c0.5-0.5,1.1-0.8,1.8-1.1c0.7-0.3,1.4-0.4,2.2-0.5v-2.5h1.5v2.5c1.1,0.1,2.1,0.3,3,0.7c0.9,0.4,1.7,0.8,2.4,1.3L50.8,17.6z
			 M43.3,17.9c0,0.6,0.2,1,0.6,1.3c0.4,0.3,1,0.6,1.8,0.8v-4C44.1,16,43.3,16.7,43.3,17.9z M49.3,26c0-0.6-0.2-1-0.7-1.3
			c-0.5-0.3-1.1-0.6-1.9-0.9v4C48.4,27.7,49.3,27.1,49.3,26z"/>
		<path fill="#FFCC00" d="M49.8,15.6c-0.1-0.1-0.3-0.3-0.6-0.4c-0.3-0.2-0.6-0.3-1-0.5c-0.4-0.2-0.8-0.3-1.2-0.5
			c-0.4-0.1-0.9-0.2-1.4-0.3v4.3l0.6,0.1c0.9,0.2,1.6,0.5,2.3,0.7c0.7,0.3,1.3,0.6,1.8,1c0.5,0.4,0.9,0.9,1.1,1.4
			c0.3,0.6,0.4,1.2,0.4,2.1c0,0.9-0.2,1.7-0.5,2.3c-0.3,0.6-0.8,1.2-1.3,1.6c-0.6,0.4-1.2,0.7-1.9,0.9c-0.7,0.2-1.5,0.3-2.3,0.4v2.7
			h-1.5v-2.8c-1.2-0.1-2.3-0.3-3.4-0.7c-1.1-0.4-2.1-0.9-3-1.5l1.5-3c0.1,0.1,0.4,0.3,0.7,0.5c0.3,0.2,0.7,0.4,1.2,0.6
			c0.5,0.2,1,0.4,1.5,0.6c0.6,0.2,1.1,0.3,1.7,0.4v-4.3c-0.1,0-0.3-0.1-0.4-0.1c-0.1,0-0.3-0.1-0.4-0.1c-0.8-0.2-1.6-0.5-2.2-0.8
			c-0.6-0.3-1.1-0.6-1.6-1c-0.4-0.4-0.7-0.8-0.9-1.3c-0.2-0.5-0.3-1.1-0.3-1.8c0-0.8,0.1-1.6,0.4-2.2c0.3-0.7,0.7-1.2,1.2-1.7
			c0.5-0.5,1.1-0.8,1.8-1.1c0.7-0.3,1.4-0.4,2.2-0.5V8.4h1.5v2.5c1.1,0.1,2.1,0.3,3,0.7c0.9,0.4,1.7,0.8,2.4,1.3L49.8,15.6z
			 M42.3,15.9c0,0.6,0.2,1,0.6,1.3c0.4,0.3,1,0.6,1.8,0.8v-4C43.1,14,42.3,14.7,42.3,15.9z M48.3,24c0-0.6-0.2-1-0.7-1.3
			c-0.5-0.3-1.1-0.6-1.9-0.9v4C47.4,25.7,48.3,25.1,48.3,24z"/>
		<path fill="#FF9900" d="M30.2,20.9c0-8.9,7.2-16,16-16c3.3,0,6.4,1,9,2.7C52.4,5.3,48.9,4,45,4c-8.9,0-16,7.2-16,16
			c0,5,2.3,9.5,5.9,12.4c-1.6-1.6-2.9-3.6-3.6-5.8C30.5,24.9,30.2,22.9,30.2,20.9z"/>
	</g>
	<g>
		<circle fill="#FFCC00" cx="50" cy="50" r="20"/>
		<circle fill="#FFBC00" cx="50" cy="50" r="16"/>
		<path fill="#FF9900" d="M55.8,47.6c-0.1-0.1-0.3-0.3-0.6-0.4c-0.3-0.2-0.6-0.3-1-0.5c-0.4-0.2-0.8-0.3-1.2-0.5
			c-0.4-0.1-0.9-0.2-1.4-0.3v4.3l0.6,0.1c0.9,0.2,1.6,0.5,2.3,0.7c0.7,0.3,1.3,0.6,1.8,1c0.5,0.4,0.9,0.9,1.1,1.4
			c0.3,0.6,0.4,1.2,0.4,2.1c0,0.9-0.2,1.7-0.5,2.3c-0.3,0.6-0.8,1.2-1.3,1.6c-0.6,0.4-1.2,0.7-1.9,0.9c-0.7,0.2-1.5,0.3-2.3,0.4v2.7
			h-1.5v-2.8c-1.2-0.1-2.3-0.3-3.4-0.7c-1.1-0.4-2.1-0.9-3-1.5l1.5-3c0.1,0.1,0.4,0.3,0.7,0.5c0.3,0.2,0.7,0.4,1.2,0.6
			c0.5,0.2,1,0.4,1.5,0.6c0.6,0.2,1.1,0.3,1.7,0.4v-4.3c-0.1,0-0.3-0.1-0.4-0.1c-0.1,0-0.3-0.1-0.4-0.1c-0.8-0.2-1.6-0.5-2.2-0.8
			c-0.6-0.3-1.1-0.6-1.6-1c-0.4-0.4-0.7-0.8-0.9-1.3c-0.2-0.5-0.3-1.1-0.3-1.8c0-0.8,0.1-1.6,0.4-2.2c0.3-0.7,0.7-1.2,1.2-1.7
			c0.5-0.5,1.1-0.8,1.8-1.1c0.7-0.3,1.4-0.4,2.2-0.5v-2.5h1.5v2.5c1.1,0.1,2.1,0.3,3,0.7c0.9,0.4,1.7,0.8,2.4,1.3L55.8,47.6z
			 M48.3,47.9c0,0.6,0.2,1,0.6,1.3c0.4,0.3,1,0.6,1.8,0.8v-4C49.1,46,48.3,46.7,48.3,47.9z M54.3,56c0-0.6-0.2-1-0.7-1.3
			c-0.5-0.3-1.1-0.6-1.9-0.9v4C53.4,57.7,54.3,57.1,54.3,56z"/>
		<path fill="#FFCC00" d="M54.8,45.6c-0.1-0.1-0.3-0.3-0.6-0.4c-0.3-0.2-0.6-0.3-1-0.5c-0.4-0.2-0.8-0.3-1.2-0.5
			c-0.4-0.1-0.9-0.2-1.4-0.3v4.3l0.6,0.1c0.9,0.2,1.6,0.5,2.3,0.7c0.7,0.3,1.3,0.6,1.8,1c0.5,0.4,0.9,0.9,1.1,1.4
			c0.3,0.6,0.4,1.2,0.4,2.1c0,0.9-0.2,1.7-0.5,2.3c-0.3,0.6-0.8,1.2-1.3,1.6c-0.6,0.4-1.2,0.7-1.9,0.9c-0.7,0.2-1.5,0.3-2.3,0.4v2.7
			h-1.5v-2.8c-1.2-0.1-2.3-0.3-3.4-0.7c-1.1-0.4-2.1-0.9-3-1.5l1.5-3c0.1,0.1,0.4,0.3,0.7,0.5c0.3,0.2,0.7,0.4,1.2,0.6
			c0.5,0.2,1,0.4,1.5,0.6c0.6,0.2,1.1,0.3,1.7,0.4v-4.3c-0.1,0-0.3-0.1-0.4-0.1c-0.1,0-0.3-0.1-0.4-0.1c-0.8-0.2-1.6-0.5-2.2-0.8
			c-0.6-0.3-1.1-0.6-1.6-1c-0.4-0.4-0.7-0.8-0.9-1.3c-0.2-0.5-0.3-1.1-0.3-1.8c0-0.8,0.1-1.6,0.4-2.2c0.3-0.7,0.7-1.2,1.2-1.7
			c0.5-0.5,1.1-0.8,1.8-1.1c0.7-0.3,1.4-0.4,2.2-0.5v-2.5h1.5v2.5c1.1,0.1,2.1,0.3,3,0.7c0.9,0.4,1.7,0.8,2.4,1.3L54.8,45.6z
			 M47.3,45.9c0,0.6,0.2,1,0.6,1.3c0.4,0.3,1,0.6,1.8,0.8v-4C48.1,44,47.3,44.7,47.3,45.9z M53.3,54c0-0.6-0.2-1-0.7-1.3
			c-0.5-0.3-1.1-0.6-1.9-0.9v4C52.4,55.7,53.3,55.1,53.3,54z"/>
		<path fill="#FF9900" d="M35.2,50.9c0-8.9,7.2-16,16-16c3.3,0,6.4,1,9,2.7C57.4,35.3,53.9,34,50,34c-8.9,0-16,7.2-16,16
			c0,5,2.3,9.5,5.9,12.4c-1.6-1.6-2.9-3.6-3.6-5.8C35.5,54.9,35.2,52.9,35.2,50.9z"/>
	</g>
</g>
</svg>
