<?xml version="1.0" encoding="utf-8"?>
<!-- Generator: Adobe Illustrator 21.0.0, SVG Export Plug-In . SVG Version: 6.00 Build 0)  -->
<svg version="1.1" id="ico70_x5F_Table" xmlns="http://www.w3.org/2000/svg" xmlns:xlink="http://www.w3.org/1999/xlink" x="0px"
	 y="0px" viewBox="0 0 86 70" enable-background="new 0 0 86 70" xml:space="preserve">
<g id="ico70_x5F_Table_1_">
	<path fill="#B5C0CB" d="M29.5,54.4l-2.9-6.1c-2.1,1.1-4.9,2-7,1.2c-4.2-1.5-2.3-8.2,2.2-6.5c-3.3-1.2-2.8-4.9-0.7-6.2l-5-10.6
		l-4.8-1.7c-1.8-0.6-3.8,0.4-4.4,2.2L0.2,46.2c-0.5,1.3-0.1,2.9,0.9,3.8l0.2,0.2c0.3,0.3,0.7,0.5,1.2,0.7l33.2,11.8
		c1.9,0.6,3.9-0.3,4.5-2.2l3-8.8l-8.9,4.4C32.5,57,30.4,56.2,29.5,54.4z"/>
	<path fill="#CC0000" d="M21.8,43c-4.5-1.6-6.4,5-2.2,6.5c2.1,0.7,4.8-0.2,7-1.2l-5.4-11.5C19,38,18.5,41.8,21.8,43z"/>
	<path fill="#E8EBEF" d="M33.7,48.1c-1.9-0.6-2.8-2.8-2.2-4.7l1.4-4.2c-0.2,0.1-0.3,0.2-0.5,0.3c-2.3,1.1-5,0.1-6.2-2.2
		c-1.1-2.3-0.1-5.2,2.1-6.3c-1.1-2.3-0.1-5.2,2.1-6.3c2.3-1.1,5-0.1,6.2,2.2c0.1-0.1,0.3-0.1,0.5-0.2l4.1-11.9l-2.4-5.1
		c-0.1-0.2-0.2-0.3-0.3-0.5l-0.2-0.2l0.2,0.2c-1-1.4-2.9-2-4.5-1.2l-18.1,9.2c-1.8,0.9-2.5,3.1-1.7,4.9l2,4.2l5,10.6l5.4,11.5
		l2.9,6.1c0.9,1.8,3,2.5,4.8,1.7l8.9-4.4l0,0L43,51.3L33.7,48.1z"/>
	<path fill="#242527" d="M36.7,27c-1.1-2.3-3.9-3.4-6.2-2.2c-2.3,1.1-3.3,4-2.1,6.3c-2.3,1.1-3.3,4-2.1,6.3c1.1,2.3,3.9,3.4,6.2,2.2
		c0.2-0.1,0.3-0.2,0.5-0.3l4.2-12.4C37,26.9,36.9,27,36.7,27z"/>
	<path fill="#B5C0CB" d="M68.4,15.3c-0.4-0.6-1-1-1.7-1.3L47.6,7.2c-1.9-0.6-3.9,0.3-4.5,2.2l-1.2,3.4l-0.7,2l-4,12L33,39.3
		l-1.4,4.2c-0.6,1.9,0.3,4,2.2,4.7l9.2,3.2l-4.2-9c-0.9-1.8-0.1-4,1.7-4.9l5.7-2.8l-1.5-5.4c-0.1-0.2,0-0.4,0.2-0.5l7.7-5.7
		c0.2-0.2,0.6,0,0.7,0.2l1.9,6.9L67,24.4l2-5.8C69.3,17.5,69.1,16.3,68.4,15.3z"/>
	<path fill="#FF0000" d="M52.5,23.1l-7.7,5.7c-0.2,0.1-0.2,0.3-0.2,0.5l1.5,5.4l9-4.5l-1.9-6.9C53.1,23,52.8,22.9,52.5,23.1z"/>
	<path fill="#E8EBEF" d="M85.6,42.2l-8.8-18.7c-0.1-0.2-0.2-0.4-0.4-0.6c-0.5-0.6-1.1-1.1-1.8-1.3c-0.8-0.2-1.7-0.2-2.6,0.2
		l-5.2,2.5L55,30.1l-9,4.5l-5.7,2.8c-1.8,0.9-2.5,3.1-1.7,4.9l4.4,9.1l0.2,0.3l4.4,9.3c0.9,1.8,3,2.5,4.8,1.7L84,47.1
		C85.8,46.2,86.5,44,85.6,42.2z"/>
	<path fill="#363C43" d="M57.8,36.7c-2.9,1.4-2.3,5.3,0,6.3L57,43.4c-0.6,0.3-1.4,0-1.7-0.6c-0.1-0.2-0.4-0.3-0.6-0.2
		c-0.2,0.1-0.3,0.4-0.2,0.6l2.1,4.5c0.1,0.2,0.4,0.3,0.6,0.2c0.2-0.1,0.3-0.4,0.2-0.6c-0.3-0.6,0-1.4,0.6-1.7l0.7-0.3
		c-0.6,2.4,1.9,5.4,4.9,3.9c4-1.9,5.1-10.2,5.1-10.3s61.8,34.7,57.8,36.7z"/>
	<path fill="#CC0000" d="M8.3,45.6L7,49.5c-0.1,0.2-0.2,0.3-0.3,0.3c-0.2,0-0.3,0-0.4-0.1l-2.6-3.1c-0.2-0.2-0.1-0.7,0.3-0.7
		l3.9-0.8c0.2,0,0.3,0,0.4,0.1C8.3,45.3,8.3,45.5,8.3,45.6z"/>
	<path fill="#242527" d="M22,22.6l-3.6,1.7c-0.1,0.1-0.3,0.1-0.4,0c-0.1-0.1-0.2-0.2-0.2-0.4l0.3-4.1c0-0.3,0.4-0.5,0.7-0.3l3.2,2.2
		c0.1,0.1,0.2,0.2,0.2,0.3s22.1,22.5,22,22.6z"/>
	<path fill="#FF0000" d="M48.6,15.3c-0.1,0.1-0.3,0.1-0.4,0.1l-3.8-1.3c-0.2-0.1-0.3-0.2-0.3-0.3c0-0.2,0-0.3,0.1-0.4l3-2.7
		c0.2-0.2,0.7-0.1,0.7,0.3l0.7,4C48.8,15.1,48.7,15.2,48.6,15.3z"/>
	<path fill="#363C43" d="M54.2,59.1c-0.1,0.1-0.2,0.2-0.4,0.2l-4-0.3c-0.3,0-0.5-0.4-0.3-0.7l2.3-3.4c0.1-0.1,0.2-0.2,0.4-0.2
		c0.2,0,0.3,0.1,0.4,0.3l1.7,3.7C54.3,58.8,54.3,59,54.2,59.1z M74.5,26.5l-2.3,3.4C72.1,29.9,72,30,71.8,30c-0.2,0-0.3-0.1-0.4-0.3
		l-1.7-3.7c-0.1-0.1-0.1-0.3,0-0.4c0.1-0.1,0.2-0.2,0.4-0.2l4,0.3C74.5,25.7,74.7,26.3,74.5,26.5z"/>
</g>
</svg>
