<svg xmlns="http://www.w3.org/2000/svg" xmlns:xlink="http://www.w3.org/1999/xlink" width="20" height="20" viewBox="0 0 20 20">
  <defs>
    <clipPath id="clip-path">
      <rect id="crop" width="20" height="20" fill="none"/>
    </clipPath>
  </defs>
  <g id="ico_search" clip-path="url(#clip-path)">
    <path id="search_active" d="M13.5,2.306a7.873,7.873,0,0,0-11.184,0,7.779,7.779,0,0,0,0,11.128,7.969,7.969,0,0,0,10.076.9,2.011,2.011,0,0,0,.4.8l4.433,4.411a1.714,1.714,0,0,0,2.317,0,1.692,1.692,0,0,0,0-2.306l-4.433-4.411a1.246,1.246,0,0,0-.806-.4A7.862,7.862,0,0,0,13.5,2.306ZM11.99,11.93a5.8,5.8,0,0,1-8.262,0,5.912,5.912,0,0,1,0-8.221,5.8,5.8,0,0,1,8.262,0A5.729,5.729,0,0,1,11.99,11.93Z" fill="#eee"/>
  </g>
</svg>
