<svg xmlns="http://www.w3.org/2000/svg" width="22.111" height="21.667" viewBox="0 0 22.111 21.667">
  <g id="Group_11558" data-name="Group 11558" transform="translate(-422.5 -269)">
    <g id="Group_11553" data-name="Group 11553" transform="translate(0 -3.5)">
      <g id="magnifying-glass" transform="translate(422.5 272.5)">
        <path id="Path_13034" data-name="Path 13034" d="M32.84,31.128l-5.316-5.209a8.988,8.988,0,0,0,2.112-5.788,9.32,9.32,0,1,0-9.318,9.131,9.386,9.386,0,0,0,5.9-2.065l5.316,5.2a.934.934,0,0,0,1.3,0A.884.884,0,0,0,32.84,31.128ZM20.318,27.445a7.317,7.317,0,1,1,7.468-7.314A7.4,7.4,0,0,1,20.318,27.445Z" transform="translate(-11 -11)" fill="#707070"/>
      </g>
    </g>
  </g>
</svg>
