<svg xmlns="http://www.w3.org/2000/svg" width="21.712" height="20.985" viewBox="0 0 21.712 20.985">
  <g id="sort" transform="translate(0 -8.2)">
    <g id="Group_11651" data-name="Group 11651" transform="translate(0 8.2)">
      <path id="Path_13056" data-name="Path 13056" d="M280.084,28.878a.546.546,0,1,0,1.091,0V10.3l3.265,3.265a.544.544,0,1,0,.772-.768L281.02,8.6a.558.558,0,0,0-.768,0L276.06,12.8a.543.543,0,1,0,.768.768l3.265-3.265v18.58Z" transform="translate(-263.66 -8.439)"/>
      <path id="Path_13057" data-name="Path 13057" d="M9.312,24.061a.541.541,0,0,0-.768,0L5.279,27.326V8.746a.546.546,0,1,0-1.091,0v18.58L.927,24.061a.543.543,0,1,0-.768.768l4.193,4.193a.546.546,0,0,0,.772,0l4.193-4.193A.553.553,0,0,0,9.312,24.061Z" transform="translate(0 -8.2)"/>
    </g>
  </g>
</svg>
