<?xml version="1.0" encoding="utf-8"?>
<!-- Generator: Adobe Illustrator 21.0.0, SVG Export Plug-In . SVG Version: 6.00 Build 0)  -->
<svg version="1.1" id="Слой_1" xmlns="http://www.w3.org/2000/svg" xmlns:xlink="http://www.w3.org/1999/xlink" x="0px" y="0px"
	 width="330px" height="110px" viewBox="0 0 330 110" style="enable-background:new 0 0 330 110;" xml:space="preserve">
<style type="text/css">
	.st0{fill-rule:evenodd;clip-rule:evenodd;fill:#141414;}
</style>
<path id="bgFon" class="st0" d="M79,0h22c0,6.1-4.9,11-11,11S79,6.1,79,0z M79,110h22c0-6.1-4.9-11-11-11S79,103.9,79,110z M161,0
	h-27L79,55l55,55h27l-55-55L161,0z M212,55l-47,47l-47-47l47-47L212,55z M165,72l17-17l-17-17l-17,17L165,72z M196,0h-27l55,55
	l-55,55h27l55-55L196,0z M251,0l-22,0c0,6.1,4.9,11,11,11S251,6.1,251,0z M240,99c-6.1,0-11,4.9-11,11h22C251,103.9,246.1,99,240,99
	z"/>
</svg>
