<?xml version="1.0" encoding="utf-8"?>
<!-- Generator: Adobe Illustrator 21.0.0, SVG Export Plug-In . SVG Version: 6.00 Build 0)  -->
<svg version="1.1" id="Слой_1" xmlns="http://www.w3.org/2000/svg" xmlns:xlink="http://www.w3.org/1999/xlink" x="0px" y="0px"
	 width="100px" height="51px" viewBox="0 0 100 51" style="enable-background:new 0 0 100 51;" xml:space="preserve">
<style type="text/css">
	.st0{fill:#FFB416;}
</style>
<path id="bgFon" class="st0" d="M10,0h10.2c0,2.8-2.3,5.1-5.1,5.1S10,2.8,10,0z M10,51h10.2c0-2.8-2.3-5.1-5.1-5.1S10,48.2,10,51z
	 M48.1,0H35.6L10,25.5L35.6,51h12.6L22.6,25.5L48.1,0z M71.9,25.5L50,47.3L28.1,25.5L50,3.7L71.9,25.5z M50,33.4l7.9-7.9L50,17.6
	l-7.9,7.9L50,33.4z M64.4,0H51.9l25.6,25.5L51.9,51h12.6L90,25.5L64.4,0z M90,0H79.8c0,2.8,2.3,5.1,5.1,5.1S90,2.8,90,0z M84.9,45.9
	c-2.8,0-5.1,2.3-5.1,5.1H90C90,48.2,87.7,45.9,84.9,45.9z"/>
</svg>
