<?xml version="1.0" encoding="utf-8"?>
<!-- Generator: Adobe Illustrator 21.0.0, SVG Export Plug-In . SVG Version: 6.00 Build 0)  -->
<svg version="1.1" id="Слой_1" xmlns="http://www.w3.org/2000/svg" xmlns:xlink="http://www.w3.org/1999/xlink" x="0px" y="0px"
	 width="430px" height="70px" viewBox="0 0 430 70" style="enable-background:new 0 0 430 70;" xml:space="preserve">
<style type="text/css">
	.st0{fill:#42AF58;}
	.st1{fill:#E43633;}
	.st2{fill:#EEEEEE;}
</style>
<g>
	<polygon class="st0" points="381.5,49.6 390.3,40.7 402.4,43.8 393.1,11.1 372.2,16.9 	"/>
	<polygon class="st0" points="294.1,65.3 304.3,58 315.7,63.1 312.2,29.3 290.6,31.5 	"/>
	<polygon class="st1" points="263.5,67.7 273.9,60.7 285.1,66.4 283.1,32.1 261.4,33.4 	"/>
	<polygon class="st1" points="352.5,56.4 361.7,47.9 373.6,51.7 366,18.6 344.9,23.3 	"/>
	<polygon class="st2" points="233.5,68 244.3,61.7 255.2,68 255.2,33.6 233.5,33.6 	"/>
	<polygon class="st2" points="323.4,62.3 333.1,54.3 344.8,58.6 339,25.2 317.6,28.8 	"/>
	<polygon class="st2" points="409.3,40.8 417.7,31.6 430,34.3 419.6,2 398.9,8.5 	"/>
	<polygon class="st0" points="48.5,49.6 39.7,40.7 27.6,43.8 36.9,11.1 57.8,16.9 	"/>
	<polygon class="st0" points="135.9,65.3 125.7,58 114.3,63.1 117.8,29.3 139.4,31.5 	"/>
	<polygon class="st1" points="166.5,67.7 156.1,60.7 144.9,66.4 146.9,32.1 168.6,33.4 	"/>
	<polygon class="st1" points="77.5,56.4 68.3,47.9 56.4,51.7 64,18.6 85.1,23.3 	"/>
	<polygon class="st2" points="196.5,68 185.7,61.7 174.8,68 174.8,33.6 196.5,33.6 	"/>
	<polygon class="st2" points="106.6,62.3 96.9,54.3 85.2,58.6 91,25.2 112.4,28.8 	"/>
	<polygon class="st2" points="20.7,40.8 12.3,31.6 0,34.3 10.4,2 31.1,8.5 	"/>
	<polygon class="st0" points="225.9,67.5 215,61.2 204.1,67.5 204.1,33.2 225.9,33.2 	"/>
</g>
</svg>
