<?xml version="1.0" encoding="utf-8"?>
<!-- Generator: Adobe Illustrator 21.0.0, SVG Export Plug-In . SVG Version: 6.00 Build 0)  -->
<svg version="1.1" id="Social" xmlns="http://www.w3.org/2000/svg" xmlns:xlink="http://www.w3.org/1999/xlink" x="0px" y="0px"
	 width="40px" height="40px" viewBox="0 0 40 40" style="enable-background:new 0 0 40 40;" xml:space="preserve">
<style type="text/css">
	.st0{fill:#993399;}
	.st1{fill:#E8EBEF;}
</style>
<g id="instagram">
	<rect id="b" class="st0" width="40" height="40"/>
	<path id="i" class="st1" d="M24.9,9h-9.8C11.8,9,9,11.7,9,15.1v9.8c0,3.3,2.7,6.1,6.1,6.1h9.8c3.3,0,6.1-2.7,6.1-6.1V15
		C30.9,11.7,28.2,9,24.9,9z M29,24.9c0,2.2-1.8,4.1-4.1,4.1h-9.9c-2.2,0-4.1-1.8-4.1-4.1v-9.9c0-2.2,1.8-4.1,4.1-4.1h9.9
		c2.2,0,4.1,1.8,4.1,4.1V24.9L29,24.9z M20,14c-3.3,0-6,2.7-6,6s2.7,6,6,6s6-2.7,6-6S23.3,14,20,14z M20,24c-2.2,0-4-1.8-4-4
		s1.8-4,4-4s4,1.8,4,4S22.2,24,20,24z M26.6,13.4c0.2,0.2,0.4,0.6,0.4,1.1c0,0.3-0.1,0.8-0.4,1.1c-0.2,0.2-0.6,0.4-1.1,0.4
		c-0.3,0-0.8-0.1-1.1-0.4c-0.2-0.2-0.4-0.6-0.4-1.1c0-0.3,0.1-0.8,0.4-1.1c0.2-0.2,0.6-0.4,1.1-0.4S26.4,13.1,26.6,13.4z"/>
</g>
</svg>
