<?xml version="1.0" encoding="utf-8"?>
<!-- Generator: Adobe Illustrator 21.0.0, SVG Export Plug-In . SVG Version: 6.00 Build 0)  -->
<svg version="1.1" id="Слой_1" xmlns="http://www.w3.org/2000/svg" xmlns:xlink="http://www.w3.org/1999/xlink" x="0px" y="0px"
	 width="620px" height="100px" viewBox="0 0 620 100" style="enable-background:new 0 0 620 100;" xml:space="preserve">
<path id="banister_x5F_slider_x5F_right" d="M0,73h5c0,0-1,0-1,1s1,1,1,1s3,0.6,3,4c0,3.1-3,7.2-3,11s3,4.7,3,6c0,1.9-2.2,1.4-3,2
	s-1,2-1,2h12c0,0-0.2-1.4-1-2s-3-0.1-3-2c0-1.3,3-2.2,3-6s-3-7.9-3-11c0-3.4,3-4,3-4s1,0,1-1s-1-1-1-1h10c0,0-1,0-1,1s1,1,1,1
	s3,0.6,3,4c0,3.1-3,7.2-3,11s3,4.7,3,6c0,1.9-2.2,1.4-3,2s-1,2-1,2h12c0,0-0.2-1.4-1-2s-3-0.1-3-2c0-1.3,3-2.2,3-6s-3-7.9-3-11
	c0-3.4,3-4,3-4s1,0,1-1s-1-1-1-1h10c0,0-1,0-1,1s1,1,1,1s3,0.6,3,4c0,3.1-3,7.2-3,11s3,4.7,3,6c0,1.9-2.2,1.4-3,2s-1,2-1,2h12
	c0,0-0.2-1.4-1-2s-3-0.1-3-2c0-1.3,3-2.2,3-6s-3-7.9-3-11c0-3.4,3-4,3-4s1,0,1-1s-1-1-1-1h10c0,0-1,0-1,1s1,1,1,1s3,0.6,3,4
	c0,3.1-3,7.2-3,11s3,4.7,3,6c0,1.9-2.2,1.4-3,2s-1,2-1,2h12c0,0-0.2-1.4-1-2s-3-0.1-3-2c0-1.3,3-2.2,3-6s-3-7.9-3-11c0-3.4,3-4,3-4
	s1,0,1-1s-1-1-1-1h10c0,0-1,0-1,1s1,1,1,1s3,0.6,3,4c0,3.1-3,7.2-3,11s3,4.7,3,6c0,1.9-2.2,1.4-3,2s-1,2-1,2h12c0,0-0.2-1.4-1-2
	s-3-0.1-3-2c0-1.3,3-2.2,3-6s-3-7.9-3-11c0-3.4,3-4,3-4s1,0,1-1s-1-1-1-1h10c0,0-1,0-1,1s1,1,1,1s3,0.6,3,4c0,3.1-3,7.2-3,11
	s3,4.7,3,6c0,1.9-2.2,1.4-3,2s-1,2-1,2h12c0,0-0.2-1.4-1-2s-3-0.1-3-2c0-1.3,3-2.2,3-6s-3-7.9-3-11c0-3.4,3-4,3-4s1,0,1-1s-1-1-1-1
	h10c0,0-1,0-1,1s1,1,1,1s3,0.6,3,4c0,3.1-3,7.2-3,11s3,4.7,3,6c0,1.9-2.2,1.4-3,2s-1,2-1,2h12c0,0-0.2-1.4-1-2s-3-0.1-3-2
	c0-1.3,3-2.2,3-6s-3-7.9-3-11c0-3.4,3-4,3-4s1,0,1-1s-1-1-1-1h10v24l-2,2v1h34v-1l-2-2V73h10c0,0-1,0-1,1s1,1,1,1s3,0.6,3,4
	c0,3.1-3,7.2-3,11s3,4.7,3,6c0,1.9-2.2,1.4-3,2s-1,2-1,2h12c0,0-0.2-1.4-1-2s-3-0.1-3-2c0-1.3,3-2.2,3-6s-3-7.9-3-11c0-3.4,3-4,3-4
	s1,0,1-1s-1-1-1-1h10c0,0-1,0-1,1s1,1,1,1s3,0.6,3,4c0,3.1-3,7.2-3,11s3,4.7,3,6c0,1.9-2.2,1.4-3,2s-1,2-1,2h12c0,0-0.2-1.4-1-2
	s-3-0.1-3-2c0-1.3,3-2.2,3-6s-3-7.9-3-11c0-3.4,3-4,3-4s1,0,1-1s-1-1-1-1h10c0,0-1,0-1,1s1,1,1,1s3,0.6,3,4c0,3.1-3,7.2-3,11
	s3,4.7,3,6c0,1.9-2.2,1.4-3,2s-1,2-1,2h12c0,0-0.2-1.4-1-2s-3-0.1-3-2c0-1.3,3-2.2,3-6s-3-7.9-3-11c0-3.4,3-4,3-4s1,0,1-1s-1-1-1-1
	h10c0,0-1,0-1,1s1,1,1,1s3,0.6,3,4c0,3.1-3,7.2-3,11s3,4.7,3,6c0,1.9-2.2,1.4-3,2s-1,2-1,2h12c0,0-0.2-1.4-1-2s-3-0.1-3-2
	c0-1.3,3-2.2,3-6s-3-7.9-3-11c0-3.4,3-4,3-4s1,0,1-1s-1-1-1-1h10c0,0-1,0-1,1s1,1,1,1s3,0.6,3,4c0,3.1-3,7.2-3,11s3,4.7,3,6
	c0,1.9-2.2,1.4-3,2s-1,2-1,2h12c0,0-0.2-1.4-1-2s-3-0.1-3-2c0-1.3,3-2.2,3-6s-3-7.9-3-11c0-3.4,3-4,3-4s1,0,1-1s-1-1-1-1h10
	c0,0-1,0-1,1s1,1,1,1s3,0.6,3,4c0,3.1-3,7.2-3,11s3,4.7,3,6c0,1.9-2.2,1.4-3,2s-1,2-1,2h12c0,0-0.2-1.4-1-2s-3-0.1-3-2
	c0-1.3,3-2.2,3-6s-3-7.9-3-11c0-3.4,3-4,3-4s1,0,1-1s-1-1-1-1h10c0,0-1,0-1,1s1,1,1,1s3,0.6,3,4c0,3.1-3,7.2-3,11s3,4.7,3,6
	c0,1.9-2.2,1.4-3,2s-1,2-1,2h12c0,0-0.2-1.4-1-2s-3-0.1-3-2c0-1.3,3-2.2,3-6s-3-7.9-3-11c0-3.4,3-4,3-4s1,0,1-1s-1-1-1-1h10v24l-2,2
	v1h34v-1l-2-2V73h10c0,0-1,0-1,1s1,1,1,1s3,0.6,3,4c0,3.1-3,7.2-3,11s3,4.7,3,6c0,1.9-2.2,1.4-3,2s-1,2-1,2h12c0,0-0.2-1.4-1-2
	s-3-0.1-3-2c0-1.3,3-2.2,3-6s-3-7.9-3-11c0-3.4,3-4,3-4s1,0,1-1s-1-1-1-1h10c0,0-1,0-1,1s1,1,1,1s3,0.6,3,4c0,3.1-3,7.2-3,11
	s3,4.7,3,6c0,1.9-2.2,1.4-3,2s-1,2-1,2h12c0,0-0.2-1.4-1-2s-3-0.1-3-2c0-1.3,3-2.2,3-6s-3-7.9-3-11c0-3.4,3-4,3-4s1,0,1-1s-1-1-1-1
	h10c0,0-1,0-1,1s1,1,1,1s3,0.6,3,4c0,3.1-3,7.2-3,11s3,4.7,3,6c0,1.9-2.2,1.4-3,2s-1,2-1,2h12c0,0-0.2-1.4-1-2s-3-0.1-3-2
	c0-1.3,3-2.2,3-6s-3-7.9-3-11c0-3.4,3-4,3-4s1,0,1-1s-1-1-1-1h10c0,0-1,0-1,1s1,1,1,1s3,0.6,3,4c0,3.1-3,7.2-3,11s3,4.7,3,6
	c0,1.9-2.2,1.4-3,2s-1,2-1,2h12c0,0-0.2-1.4-1-2s-3-0.1-3-2c0-1.3,3-2.2,3-6s-3-7.9-3-11c0-3.4,3-4,3-4s1,0,1-1s-1-1-1-1h10
	c0,0-1,0-1,1s1,1,1,1s3,0.6,3,4c0,3.1-3,7.2-3,11s3,4.7,3,6c0,1.9-2.2,1.4-3,2s-1,2-1,2h12c0,0-0.2-1.4-1-2s-3-0.1-3-2
	c0-1.3,3-2.2,3-6s-3-7.9-3-11c0-3.4,3-4,3-4s1,0,1-1s-1-1-1-1h10c0,0-1,0-1,1s1,1,1,1s3,0.6,3,4c0,3.1-3,7.2-3,11s3,4.7,3,6
	c0,1.9-2.2,1.4-3,2s-1,2-1,2h12c0,0-0.2-1.4-1-2s-3-0.1-3-2c0-1.3,3-2.2,3-6s-3-7.9-3-11c0-3.4,3-4,3-4s1,0,1-1s-1-1-1-1h10
	c0,0-1,0-1,1s1,1,1,1s3,0.6,3,4c0,3.1-3,7.2-3,11s3,4.7,3,6c0,1.9-2.2,1.4-3,2s-1,2-1,2h12c0,0-0.2-1.4-1-2s-3-0.1-3-2
	c0-1.3,3-2.2,3-6s-3-7.9-3-11c0-3.4,3-4,3-4s1,0,1-1s-1-1-1-1h10v24l-2,2v1h34v-1l-2-2V73h10c0,0-1,0-1,1s1,1,1,1s3,0.6,3,4
	c0,3.1-3,7.2-3,11s3,4.7,3,6c0,1.9-2.2,1.4-3,2s-1,2-1,2h12c0,0-0.2-1.4-1-2s-3-0.1-3-2c0-1.3,3-2.2,3-6s-3-7.9-3-11c0-3.4,3-4,3-4
	s1,0,1-1s-1-1-1-1h10c0,0-1,0-1,1s1,1,1,1s3,0.6,3,4c0,3.1-3,7.2-3,11s3,4.7,3,6c0,1.9-2.2,1.4-3,2s-1,2-1,2h12c0,0-0.2-1.4-1-2
	s-3-0.1-3-2c0-1.3,3-2.2,3-6s-3-7.9-3-11c0-3.4,3-4,3-4s1,0,1-1s-1-1-1-1h10c0,0-1,0-1,1s1,1,1,1s3,0.6,3,4c0,3.1-3,7.2-3,11
	s3,4.7,3,6c0,1.9-2.2,1.4-3,2s-1,2-1,2h12c0,0-0.2-1.4-1-2s-3-0.1-3-2c0-1.3,3-2.2,3-6s-3-7.9-3-11c0-3.4,3-4,3-4s1,0,1-1s-1-1-1-1
	h10c0,0-1,0-1,1s1,1,1,1s3,0.6,3,4c0,3.1-3,7.2-3,11s3,4.7,3,6c0,1.9-2.2,1.4-3,2s-1,2-1,2h12c0,0-0.2-1.4-1-2s-3-0.1-3-2
	c0-1.3,3-2.2,3-6s-3-7.9-3-11c0-3.4,3-4,3-4s1,0,1-1s-1-1-1-1h5v-5h-85v-7l3-1l1-5h-10.4c0,0,0.4-0.1,0.4-1s-1-1-1-1h-2
	c0,0-4-3.6-4-6c0-0.9,1-1,1-1h1v-1h-1c0,0,0.3-2,5-2c0.8,0,1.5-0.4,2.1-1c4.7-0.1,9.9-1.2,9.9-6c0-1.1-0.9-2-2-2s-2,0.9-2,2
	c0,0.9,0.7,1.7,1.5,1.9c-1,0.9-3.6,1-5.8,1.1c0.2-0.6,0.3-1,0.3-1h-3c0,0,3.1-25,9-25c0.6,0,1,0,1,0s1,0.2,1-0.8s-1-1.2-1-1.2h-38
	c0,0-1,0.2-1,1.2s1,0.8,1,0.8s0.4,0,1,0c5.9,0,9,25,9,25h-3c0,0,0.1,0.4,0.3,1c-2.2,0-4.8-0.2-5.8-1.1c0.9-0.2,1.5-1,1.5-1.9
	c0-1.1-0.9-2-2-2s-2,0.9-2,2c0,4.8,5.2,5.9,9.9,6c0.6,0.6,1.2,1,2.1,1c4.7,0,5,2,5,2h-1v1h1c0,0,1,0.1,1,1c0,2.4-4,6-4,6h-2
	c0,0-1,0.1-1,1s0.4,1,0.4,1H501l1,5l3,1v7H355v-7l3-1l1-5h-8c0,0-0.4-2-2-2c-1.6,0-4-1.5-4-3s12-9.6,12-19c0-3-0.8-5.3-2-7
	c2.8,0,3-3,3-3v-1c0,0-1.4,2-3,2c-3.7,0,1-3.7,1-7c0-3-2.1-4-4-4c-0.9,0-1.6,0.1-2.2,0.3C350.3,9.4,351,9,351,9s1,0,1-1s-1-1-1-1h-5
	c0,0-0.7-1.3-4-1.8c0.6-0.5,1-1.3,1-2.2c0-1.7-1.3-3-3-3s-3,1.3-3,3c0,0.9,0.4,1.7,1,2.2c-3.3,0.5-4,1.8-4,1.8h-5c0,0-1,0-1,1
	s1,1,1,1s0.7,0.4,1.2,2.3c-0.6-0.2-1.4-0.3-2.2-0.3c-1.9,0-4,1-4,4c0,3.3,4.7,7,1,7c-1.6,0-3-2-3-2v1c0,0,0.2,3,3,3
	c-1.1,1.7-2,4-2,7c0,9.4,12,17.5,12,19s-2.4,3-4,3c-1.6,0-2,2-2,2h-8l1,5l3,1v7H175v-7l3-1l1-5h-10c0,0,1,0,1-1s-1-1-1-1s-5-0.7-5-2
	c0-0.6,0-2,0-2s10-7.4,10-20c0-5-3-7.3-3-8c0-4.9,5-7.9,5-12c0-1.9-1.6-4-4-4c-3.8,0-6,2-6,2c0-4,5-4,5-4V1h-22v2c0,0,5,0,5,4
	c0,0-2.2-2-6-2c-2.4,0-4,2.1-4,4c0,4.1,5,7.1,5,12c0,0.7-3,3-3,8c0,12.6,10,20,10,20s0,1.4,0,2c0,1.3-5,2-5,2s-1,0-1,1s1,1,1,1h-10
	l1,5l3,1v7H0L0,73z M155,16c0,0-2.4,1-4,3c-1.3-4.8-5-7.4-5-10c0-1.4,1.8-2,3-2s5.6,2.5,6,4C155.9,14.2,155,16,155,16z M165,11
	c0.4-1.5,4.8-4,6-4s3,0.6,3,2c0,2.6-3.7,5.2-5,10c-1.6-2-4-3-4-3S164.1,14.2,165,11z M331,18c0,0.6-1,1.2-2.2,2.2
	c-0.7-1.4-2.8-2.5-2.8-5.2c0-1.5,1-2,3-2c0.7,0,1.3,0.2,1.7,0.5C330.9,14.7,331,16.1,331,18z M349,18c0-1.8,0.1-3.3,0.3-4.5
	c0.4-0.3,1-0.5,1.7-0.5c2,0,3,0.5,3,2c0,2.7-2.1,3.8-2.8,5.2C349.9,19.3,349,18.6,349,18z"/>
</svg>
