<?xml version="1.0" encoding="utf-8"?>
<!-- Generator: Adobe Illustrator 21.0.0, SVG Export Plug-In . SVG Version: 6.00 Build 0)  -->
<svg version="1.1" id="Слой_1" xmlns="http://www.w3.org/2000/svg" xmlns:xlink="http://www.w3.org/1999/xlink" x="0px" y="0px"
	 width="21px" height="23px" viewBox="0 0 21 23" style="enable-background:new 0 0 21 23;" xml:space="preserve">
<style type="text/css">
	.st0{fill-rule:evenodd;clip-rule:evenodd;fill:#2D2926;}
	.st1{fill-rule:evenodd;clip-rule:evenodd;fill:#191610;}
	.st2{fill-rule:evenodd;clip-rule:evenodd;}
	.st3{fill-rule:evenodd;clip-rule:evenodd;fill:#C05F00;}
	.st4{fill-rule:evenodd;clip-rule:evenodd;fill:#8B4500;}
</style>
<g id="ornament_x5F_bottom_x5F_menu">
	<path class="st0" d="M0,22h21v1H0V22z"/>
	<path class="st1" d="M0,2h21v20H0V2z"/>
	<path class="st2" d="M0,1h21v1H0V1z"/>
	<path class="st0" d="M0,0h21v1H0V0z"/>
	<path class="st2" d="M21,21h-5V7H4v5h7v9H0v-2h9v-5H2V5h16v14h3V21z"/>
	<path class="st3" d="M21,20h-5V6H4v5h7v9H0v-2h9v-5H2V4h16v14h3V20z"/>
	<path class="st4" d="M16,20v-1h5v-1l0,0v2H16z M17,17V4h1v13H17z M10,19v-8h1v9H0v-1H10z M8,13H2v-1h6V13z M15,6H4v4H3V5h12V6z"/>
</g>
</svg>
