<!-- Generated by IcoMoon.io -->
<svg version="1.1" xmlns="http://www.w3.org/2000/svg" width="150" height="100" viewBox="0 0 150 100">
<title>FlagEngland_sq</title>
<path fill="#06c" d="M0 0h150v100h-150v-100z"></path>
<path fill="#eee" d="M150 0h-14.157l-47.912 31.942v-31.942h-25.862v31.942l-47.912-31.942h-14.157v9.438l41.106 27.404h-41.106v26.316h41.106l-41.106 27.404v9.438h14.157l47.912-31.942v31.942h25.862v-31.942l47.912 31.942h14.157v-9.438l-41.106-27.404h41.105v-26.316h-41.106l41.106-27.404v-9.438z"></path>
<path fill="#c00" d="M150 42.105h-67.241v-42.105h-15.517v42.105h-67.241v15.789h67.241v42.105h15.517v-42.105h67.241z"></path>
<path fill="#c00" d="M52.426 63.158l-52.426 34.624v2.219h6.148l55.778-36.842-9.5-0z"></path>
<path fill="#c00" d="M101.48 63.158h-9.5l55.778 36.842h2.242v-4.796l-48.52-32.047z"></path>
<path fill="#c00" d="M0 5.537l47.396 31.305h9.5l-55.771-36.842h-1.125v5.537z"></path>
<path fill="#c00" d="M97.431 36.842l52.568-34.717v-2.125h-6.292l-55.777 36.842h9.5z"></path>
</svg>
