<?xml version="1.0" encoding="utf-8"?>
<!-- Generator: Adobe Illustrator 21.0.0, SVG Export Plug-In . SVG Version: 6.00 Build 0)  -->
<svg version="1.1" id="Слой_1" xmlns="http://www.w3.org/2000/svg" xmlns:xlink="http://www.w3.org/1999/xlink" x="0px" y="0px"
	 width="21px" height="21px" viewBox="0 0 21 21" style="enable-background:new 0 0 21 21;" xml:space="preserve">
<style type="text/css">
	.st0{fill:#2787F5;}
</style>
<g id="ico_x5F_vkontakte">
	<path id="vk_1_" class="st0" d="M3.1,4H0.8C0.1,4,0,4.3,0,4.7c0,0.6,0.8,3.8,3.6,7.9c1.9,2.8,4.6,4.4,7,4.4c1.5,0,1.6-0.3,1.6-0.9
		v-2.1c0-0.7,0.1-0.8,0.6-0.8c0.3,0,0.9,0.2,2.3,1.5c1.6,1.6,1.8,2.4,2.7,2.4h2.3c0.7,0,1-0.3,0.8-1c-0.2-0.7-1-1.6-1.9-2.8
		c-0.5-0.7-1.3-1.4-1.6-1.7c-0.3-0.5-0.2-0.7,0-1.1c0,0,2.8-4.1,3.1-5.5c0.1-0.5,0-0.9-0.7-0.9h-2.3c-0.6,0-0.9,0.3-1,0.7
		c0,0-1.2,3-2.8,4.9c-0.5,0.6-0.8,0.7-1.1,0.7c-0.1,0-0.4-0.2-0.4-0.7V4.9c0-0.6-0.2-0.9-0.7-0.9H8C7.6,4,7.4,4.3,7.4,4.6
		c0,0.6,0.8,0.7,0.9,2.3v3.5c0,0.8-0.1,0.9-0.4,0.9c-0.8,0-2.7-3-3.8-6.4C3.9,4.3,3.7,4,3.1,4z"/>
</g>
</svg>
