<?xml version="1.0" encoding="utf-8"?>
<!-- Generator: Adobe Illustrator 21.0.0, SVG Export Plug-In . SVG Version: 6.00 Build 0)  -->
<svg version="1.1" id="Слой_1" xmlns="http://www.w3.org/2000/svg" xmlns:xlink="http://www.w3.org/1999/xlink" x="0px" y="0px"
	 width="70px" height="70px" viewBox="0 0 70 70" style="enable-background:new 0 0 70 70;" xml:space="preserve">
<style type="text/css">
	.st0{opacity:1;fill:#FFFFFF;enable-background:new    ;}
</style>
<path id="ico_x5F_lock" class="st0" d="M45.6,30h-2.6v-6c0-4.3-3.6-7.8-7.9-7.8s-7.9,3.5-7.9,7.8v6h-2.6C22,30,20,32,20,34.4v15
	c0,2.4,2,4.4,4.4,4.4h21.2c2.4,0,4.4-2,4.4-4.4v-15C50,32,48,30,45.6,30z M30,24c0-2.7,2.2-4.8,5-4.8s5,2.2,5,4.8v6H30V24L30,24z
	 M47.1,49.4c0,0.8-0.7,1.5-1.5,1.5H24.4c-0.8,0-1.5-0.7-1.5-1.5v-15c0-0.8,0.7-1.5,1.5-1.5h21.2c0.8,0,1.5,0.7,1.5,1.5V49.4z
	 M35,37.2c-1.5,0-2.7,1.2-2.7,2.7c0,1,0.5,1.8,1.2,2.3v3.2c0,0.8,0.7,1.5,1.5,1.5c0.8,0,1.5-0.7,1.5-1.5v-3.2
	c0.8-0.5,1.3-1.3,1.3-2.3C37.7,38.4,36.5,37.2,35,37.2z"/>
</svg>
