<?xml version="1.0" encoding="utf-8"?>
<!-- Generator: Adobe Illustrator 21.0.0, SVG Export Plug-In . SVG Version: 6.00 Build 0)  -->
<svg version="1.1" id="ico" xmlns="http://www.w3.org/2000/svg" xmlns:xlink="http://www.w3.org/1999/xlink" x="0px" y="0px"
	 width="18px" height="18px" viewBox="0 0 18 18" style="enable-background:new 0 0 18 18;" xml:space="preserve">
<style type="text/css">
	.st0{fill:#91250D;}
	.st1{fill:#CCCCCC;}
	.st2{fill:#DD4231;}
</style>
<g id="ico_x5F_bonus">
	<path class="st0" d="M16,11.6v4c0,0.8-0.7,1.4-1.5,1.4h-10C3.7,17,3,16.4,3,15.7V9.4C3,9.2,3.2,9,3.5,9H8L16,11.6z M16.1,6.6
		L5.5,2.7C4.7,2.5,3.9,2.8,3.7,3.6L3,5.3c-0.1,0.2,0,0.5,0.3,0.6l12.4,4.5c0.1,0,0.1,0,0.2,0c0.2,0,0.4-0.1,0.4-0.3l0.6-1.8
		C17.2,7.6,16.8,6.8,16.1,6.6z"/>
	<path class="st1" d="M10,8.9V16l-3,0V8L10,8.9z M14.1,2.8c-0.2-0.7-0.6-0.9-1.2-1.1c-0.6-0.2-1.3-0.1-1.8,0.4L9.8,3.7l-0.1-2
		C9.6,1,9.1,0,7.8,0C7.4,0,7,0.1,6.7,0.4c-0.3,0.2-1,1.4-1.1,1.8l2.8,1L7.2,6.7l3,1.1l1.3-3.5l1.9,0.7C13.5,4.6,14.2,3.4,14.1,2.8z"
		/>
	<path class="st2" d="M7,8v8H3.5C2.7,16,2,15.4,2,14.7V8.4C2,8.2,2.2,8,2.5,8H7z M10,8.9V16h3.5c0.8,0,1.5-0.6,1.5-1.4v-4L10,8.9z
		 M15.1,5.6l-3.6-1.3l-1.3,3.5l4.5,1.6c0.1,0,0.1,0,0.2,0c0.2,0,0.4-0.1,0.4-0.3l0.6-1.8C16.2,6.6,15.8,5.8,15.1,5.6z M4.5,1.7
		C3.7,1.5,2.9,1.8,2.7,2.6L2,4.3c-0.1,0.2,0,0.5,0.3,0.6l4.9,1.8l1.3-3.5L4.5,1.7z"/>
	<path class="st0" d="M7,8v8H3.5L7,8z M10,16h3.5c0.8,0,1.5-0.6,1.5-1.4v-4L10,16z M10.1,7.8l4.5,1.6c0.1,0,0.1,0,0.2,0
		c0.2,0,0.4-0.1,0.4-0.3l0.6-1.8L10.1,7.8z M2.3,4.9l4.9,1.8l1.3-3.5L2.3,4.9z"/>
</g>
</svg>
