<?xml version="1.0" encoding="utf-8"?>
<!-- Generator: Adobe Illustrator 21.0.0, SVG Export Plug-In . SVG Version: 6.00 Build 0)  -->
<svg version="1.1" id="Слой_1" xmlns="http://www.w3.org/2000/svg" xmlns:xlink="http://www.w3.org/1999/xlink" x="0px" y="0px"
	 width="17px" height="17px" viewBox="0 0 17 17" style="enable-background:new 0 0 17 17;" xml:space="preserve">
<style type="text/css">
	.st0{fill:#CCCCCC;}
</style>
<g id="ico_x5F_money_1_">
	<path id="m" class="st0" d="M0,5.5c0-0.2,0-0.4,0-0.6C1.4,5.6,3.3,6,5.5,6c0.9,0,1.8-0.1,2.6-0.2C7.1,6.3,6.4,7.1,5.8,8
		C5.7,8,5.6,8,5.5,8C2.5,8,0,6.9,0,5.5z M5,11c0-0.7,0.1-1.4,0.4-2C3.2,9,1.3,8.5,0,7.9c0,0.2,0,0.4,0,0.6C0,9.8,2.2,10.9,5,11z
		 M5.1,12c-2-0.1-3.8-0.5-5.1-1.1c0,0.2,0,0.4,0,0.6C0,12.9,2.5,14,5.5,14c0.1,0,0.2,0,0.3,0C5.5,13.4,5.2,12.7,5.1,12z M5.5,0
		C2.5,0,0,1.1,0,2.5S2.5,5,5.5,5S11,3.9,11,2.5S8.5,0,5.5,0z M11,6c-2.8,0-5,2.2-5,5s2.2,5,5,5s5-2.2,5-5S13.8,6,11,6z"/>
</g>
</svg>
