<?xml version="1.0" encoding="utf-8"?>
<!-- Generator: Adobe Illustrator 21.0.0, SVG Export Plug-In . SVG Version: 6.00 Build 0)  -->
<svg version="1.1" id="Слой_1" xmlns="http://www.w3.org/2000/svg" xmlns:xlink="http://www.w3.org/1999/xlink" x="0px" y="0px"
	 viewBox="0 0 270 40" style="enable-background:new 0 0 270 40;" xml:space="preserve">
<style type="text/css">
	.st0{fill:#212121;}
	.st1{fill:#F2BF66;}
</style>
<g id="logo">
	<path id="border" class="st0" d="M0,0v40h270V0H0z M2,2h126.5v36H2V2z M268,38H130.5V2H268V38z"/>
	<g id="text">
		<path class="st0" d="M240.7,10.4v18.8h1.8v-9h5.2c0.2,0,0.5,0,0.7,0h0.2l4.5,9h1.8l-4.5-9.3l0.4-0.1c0.9-0.3,1.8-0.7,2.4-1.4
			c0.8-0.9,1.2-2,1.2-3.2c0-3.8-3-4.8-6.3-4.8H240.7z M242.5,12.2h5.4c1.1,0,2.7,0,3.5,0.6c0.9,0.6,1.2,1.5,1.2,2.5
			c0,2.8-2.6,3.2-4.9,3.2h-5.3V12.2z"/>
		<polygon class="st1" points="229.6,20.7 229.6,19 221.7,19 221.7,20.7 		"/>
		<polygon class="st0" points="234.2,29.3 234.2,27.6 221.7,27.6 221.7,29.3 		"/>
		<polygon class="st0" points="234.2,12.2 234.2,10.5 221.7,10.5 221.7,12.2 		"/>
		<path class="st0" d="M200.5,10.4v18.8h5.1c2.2,0,4.4-0.5,6.1-2c2.2-1.8,2.8-5.1,2.8-7.8c0-2.3-0.5-4.7-2-6.5
			c-1.7-1.9-4.1-2.5-6.6-2.5H200.5z M202.2,12.2h3.5c4.9,0,7,2.5,7,7.3c0,2-0.5,4.7-1.8,6.2c-1.4,1.6-3.5,1.8-5.4,1.8h-3.3V12.2z"/>
		<polygon class="st0" points="182.5,10.4 181.1,10.4 181.1,29.3 182.9,29.3 182.9,14.3 192.2,29.3 193.9,29.3 193.9,10.4 
			192.1,10.4 192.1,25.7 		"/>
		<path class="st0" d="M141.7,10.4v18.8h1.8v-9h5.2c0.2,0,0.4,0,0.7,0h0.3l4.4,9h1.9l-4.5-9.3l0.4-0.1c0.9-0.3,1.8-0.7,2.4-1.4
			c0.8-0.9,1.2-2,1.2-3.2c0-3.8-3-4.8-6.3-4.8H141.7z M143.5,12.2h5.4c1.1,0,2.7,0,3.5,0.6c0.9,0.6,1.2,1.5,1.2,2.5
			c0,2.8-2.6,3.2-4.9,3.2h-5.3V12.2z"/>
		<polygon class="st1" points="170,20.7 170,19 162.1,19 162.1,20.7 		"/>
		<polygon class="st0" points="174.5,29.3 174.5,27.6 162.1,27.6 162.1,29.3 		"/>
		<polygon class="st0" points="174.5,12.2 174.5,10.5 162.1,10.5 162.1,12.2 		"/>
		<polygon class="st0" points="87.2,10.6 85.1,10.6 85.1,29.3 96.4,29.3 96.4,27.5 87.2,27.5 		"/>
		<path class="st0" d="M66.4,10.6v18.6h2.1v-8.1h3.9c1.6,0,3.3-0.3,4.6-1.2c1.4-1,1.9-2.4,1.9-4.1c0-1.4-0.4-2.7-1.4-3.7
			c-1.3-1.2-3.3-1.5-5-1.5H66.4z M68.5,12.5h3.9c2.3,0,4.3,0.7,4.3,3.4c0,2.8-2.1,3.5-4.5,3.5h-3.7V12.5z"/>
		<path class="st0" d="M49.4,29.3h2.4l5.7-16.1v16.1h2V10.6h-3.1l-4.1,11.7c-0.2,0.5-0.4,1.1-0.5,1.6l-1.2,3.3l-1.1-3.3
			c-0.2-0.5-0.4-1.1-0.6-1.7l-4-11.6h-3.1v18.6h1.9V13L49.4,29.3z"/>
		<polygon class="st0" points="35,10.6 33,10.6 33,29.3 35,29.3 		"/>
		<path class="st0" d="M25.9,14.9l-0.1-0.2c-1-2.8-3-4.3-6.1-4.3c-1.5,0-3,0.3-4.1,1.3c-1.1,0.9-1.7,2.2-1.7,3.6
			c0,1.1,0.3,2.2,1,3.1c1,1.2,2.9,1.8,4.4,2.2l0.6,0.2c1.1,0.3,2.5,0.7,3.3,1.4c0.7,0.6,0.9,1.5,0.9,2.4s-0.2,1.7-0.9,2.3
			c-0.9,0.9-2.2,1.1-3.4,1.1c-2.5,0-3.9-1.2-4.6-3.6L15.2,24l-2.1,0.8l0.1,0.2c0.4,1.3,1.1,2.5,2.2,3.3c1.3,1,2.8,1.4,4.4,1.4
			c1.6,0,3.2-0.3,4.5-1.3c1.3-1,1.9-2.4,1.9-4c0-1.1-0.2-2.3-1-3.2c-1.1-1.2-3.2-1.9-4.7-2.3l-0.7-0.2h0c-1-0.3-2.1-0.6-2.9-1.2
			c-0.7-0.6-0.9-1.4-0.9-2.3c0-0.8,0.3-1.5,0.9-2.1c0.8-0.7,1.8-0.9,2.9-0.9c2.2,0,3.4,1.2,4,3.2l0.1,0.2L25.9,14.9z"/>
		<polygon class="st1" points="110.3,20.7 110.3,19 102.5,19 102.5,20.7 		"/>
		<polygon class="st0" points="114.9,29.3 114.9,27.6 102.5,27.6 102.5,29.3 		"/>
		<polygon class="st0" points="114.9,12.2 114.9,10.5 102.5,10.5 102.5,12.2 		"/>
	</g>
</g>
</svg>
