<?xml version="1.0" encoding="utf-8"?>
<!-- Generator: Adobe Illustrator 17.0.0, SVG Export Plug-In . SVG Version: 6.00 Build 0)  -->
<!DOCTYPE svg PUBLIC "-//W3C//DTD SVG 1.1//EN" "http://www.w3.org/Graphics/SVG/1.1/DTD/svg11.dtd">
<svg version="1.1" id="Layer_1" xmlns="http://www.w3.org/2000/svg" xmlns:xlink="http://www.w3.org/1999/xlink" x="0px" y="0px"
	 width="180px" height="70px" viewBox="0 0 180 70" enable-background="new 0 0 180 70" xml:space="preserve">
<g id="Ainsworth">
	<polygon id="Path_167_" fill="#EEEEEE" points="155.137,28.333 158.852,28.333 158.852,32.111 166.284,32.111 166.284,28.333 
		170,28.333 170,39.444 166.284,39.444 166.284,35.222 158.852,35.222 158.852,39.444 155.137,39.444 	"/>
	<polygon id="Path_166_" fill="#EEEEEE" points="140.273,28.333 154.044,28.333 154.044,31 149.016,31 149.016,39.444 
		145.519,39.444 145.519,31 140.273,31 	"/>
	<path id="Path_165_" fill="#EEEEEE" d="M134.372,33.667c0.671,0,1.311-0.171,1.311-1.393c0-1.222-0.627-1.274-1.311-1.274h-5.92
		v2.667H134.372z M135.902,28.333c2.145,0,3.497,0.643,3.497,3.487s-0.769,2.862-1.967,3.18c1.336,0.258,1.967,0.931,1.967,2.444v2
		h-3.716v-1.333c0-0.794-0.205-1.556-1.53-1.556h-5.701v2.889h-3.698V28.333H135.902z"/>
	<path id="Path_164_" fill="#EEEEEE" d="M111.202,34.333c0,1.556,0.437,2.222,1.967,2.222h4.59c1.749,0,1.967-0.667,1.967-2.222
		v-1.111c0-1.333-0.437-2.222-2.186-2.222h-4.153c-1.967,0-2.186,0.889-2.186,2.222V34.333z M107.486,32.111
		c0-3.333,1.967-4,5.246-4h5.902c3.279,0,5.246,0.667,5.246,4v3.333c0,3.333-1.967,4-5.246,4h-5.902c-3.279,0-5.246-0.667-5.246-4
		V32.111z"/>
	<polygon id="Path_163_" fill="#EEEEEE" points="85.847,28.333 89.344,28.333 91.967,36.333 95.027,28.333 98.306,28.333 
		101.366,36.333 103.771,28.333 107.486,28.333 103.552,39.444 99.399,39.444 96.557,32.111 93.934,39.444 89.781,39.444 	"/>
	<path id="Path_162_" fill="#EEEEEE" d="M74.699,35.667c0,1.406,1.041,1.333,1.041,1.333h5.149c0,0,1.241,0.106,1.241-0.992
		S80.89,35,80.89,35h-4.892c-2.771,0-5.015-0.172-5.015-3.333s2.163-3.556,3.829-3.556h6.884c3.501,0,3.713,1.982,3.713,3.778
		h-3.716c0-1.15-1.044-1.111-1.044-1.111h-4.96c0,0-0.99-0.05-0.99,0.889s0.99,0.889,0.99,0.889h5.355
		c4.806,0,5.021,1.651,5.021,3.556s-0.009,3.333-4.403,3.333h-6.745c-3.107,0-3.934-1.345-3.934-3.778H74.699z"/>
	<polygon id="Path_161_" fill="#EEEEEE" points="53.497,28.333 59.18,28.333 65.956,36.333 65.956,28.333 69.672,28.333 
		69.672,39.444 63.989,39.444 57.213,31.222 57.213,39.444 53.497,39.444 	"/>
	<polygon id="Path_160_" fill="#EEEEEE" points="48.689,28.333 52.404,28.333 52.404,39.444 48.689,34.111 	"/>
	<path id="Path_159_" fill="#FF3333" d="M37.322,19l-10.71,15.556c0,0-8.935-0.193-16.612,2C17.994,37.365,23.552,39,23.552,39
		l-8.306,12h15.956l2.623-9.111C50.546,46.941,63.333,57,63.333,57L37.322,19z M35.355,36.111l1.53-5.556l3.634,7.028L35.355,36.111
		z"/>
</g>
</svg>
