<?xml version="1.0" encoding="utf-8"?>
<!-- Generator: Adobe Illustrator 17.0.0, SVG Export Plug-In . SVG Version: 6.00 Build 0)  -->
<!DOCTYPE svg PUBLIC "-//W3C//DTD SVG 1.1//EN" "http://www.w3.org/Graphics/SVG/1.1/DTD/svg11.dtd">
<svg version="1.1" id="Layer_1" xmlns="http://www.w3.org/2000/svg" xmlns:xlink="http://www.w3.org/1999/xlink" x="0px" y="0px"
	 width="180px" height="70px" viewBox="0 0 180 70" enable-background="new 0 0 180 70" xml:space="preserve">
<g id="Playson">
	<path id="Path_74_" fill-rule="evenodd" clip-rule="evenodd" fill="#FFFF00" d="M157.998,28.671L170,35.004l-12.002,6.333V28.671z"
		/>
	<path id="Path_73_" fill-rule="evenodd" clip-rule="evenodd" fill="#00CC00" d="M145.995,35.004l12.002,6.333l-12.002,6.333V35.004
		z"/>
	<path id="Path_72_" fill-rule="evenodd" clip-rule="evenodd" fill="#0099FF" d="M145.995,22.337l12.002,6.333l-12.002,6.333V22.337
		z"/>
	<path id="Path_71_" fill-rule="evenodd" clip-rule="evenodd" fill="#FF9900" d="M133.993,41.337l12.002,6.333l-12.002,6.333V41.337
		z"/>
	<path id="Path_70_" fill-rule="evenodd" clip-rule="evenodd" fill="#FF3333" d="M133.993,28.671l12.002,6.333l-12.002,6.333V28.671
		z"/>
	<path id="Path_69_" fill-rule="evenodd" clip-rule="evenodd" fill="#FF33FF" d="M133.993,16.004l12.002,6.333l-12.002,6.333V16.004
		z"/>
	<polygon id="Path_68_" fill="#EEEEEE" points="112.139,27 115.049,27 125.589,39.707 125.589,27 128.024,27 128.024,43 125.203,43 
		114.514,30.231 114.514,43 112.139,43 	"/>
	<g id="Path_67_">
		<g>
			<path fill="#EEEEEE" d="M108.132,27H97.296c-1.411,0-2.555,1.153-2.555,2.629v10.623c0,1.476,1.144,2.747,2.555,2.747h10.836
				c1.411,0,2.554-1.271,2.554-2.747V29.629C110.687,28.153,109.543,27,108.132,27z M108.241,40.064
				c0,0.288-0.223,0.521-0.498,0.521H97.685c-0.275,0-0.498-0.233-0.498-0.521V29.818c0-0.288,0.223-0.521,0.498-0.521h10.059
				c0.275,0,0.498,0.233,0.498,0.521V40.064z"/>
		</g>
	</g>
	<path id="Path_66_" fill="#EEEEEE" d="M77.489,29.299c0-1.089,1.044-2.299,2.702-2.299h10.516c1.686,0,2.653,1.778,2.653,2.66
		l-0.015,1.131H90.88v-0.832c0-0.359-0.11-0.566-0.534-0.566h-9.839c-0.371,0-0.642,0.133-0.642,0.656v3.005
		c0,0.389,0.099,0.72,0.67,0.72h10.226c1.403,0,2.583,1.508,2.583,2.827v3.542c0,1.94-1.395,2.858-3.095,2.858H80.28
		c-1.888,0-2.851-1.815-2.851-2.981l0.001-0.934h2.405l0,0.829c0,0.389,0.214,0.6,0.557,0.6h9.901c0.614,0,0.617-0.376,0.617-0.645
		v-2.99c0-0.613-0.203-0.715-0.674-0.715c0,0-8.992,0-9.985,0c-0.992,0-2.761-0.532-2.761-2.33L77.489,29.299z"/>
	<polygon id="Path_65_" fill="#EEEEEE" points="60.297,27 63.148,27 68.819,34.239 74.46,27 77.34,27 70.007,37.004 70.007,43 
		67.631,43 67.631,37.004 	"/>
	<path id="Path_64_" fill="#EEEEEE" d="M60.03,29.858c0-1.553-1.039-2.858-2.049-2.858H46.877c-1.487,0-2.702,1.274-2.702,2.765V43
		h2.375v-5.623h11.045V43H60L60.03,29.858z M57.595,34.953H46.55v-5.002c0,0-0.03-0.559,0.505-0.559H57.12
		c0.484,0,0.475,0.559,0.475,0.559V34.953z"/>
	<polygon id="Path_63_" fill="#EEEEEE" points="26.984,27 29.389,27 29.389,40.546 42.809,40.546 42.809,43 26.984,43 	"/>
	<path id="Path_62_" fill="#EEEEEE" d="M25.855,29.765c0-1.54-1.396-2.765-2.791-2.765H10v16h2.405v-5.779h10.54
		c1.514,0,2.91-1.223,2.91-2.796V29.765z M23.45,34.363c0,0.28-0.238,0.466-0.505,0.466H12.732c-0.129,0-0.327-0.191-0.327-0.466
		v-4.536c0-0.311,0.327-0.435,0.594-0.435h9.976c0.297,0,0.475,0.193,0.475,0.528V34.363z"/>
</g>
</svg>
