<?xml version="1.0" encoding="utf-8"?>
<!-- Generator: Adobe Illustrator 21.0.0, SVG Export Plug-In . SVG Version: 6.00 Build 0)  -->
<svg version="1.1" id="Layer_1" xmlns="http://www.w3.org/2000/svg" xmlns:xlink="http://www.w3.org/1999/xlink" x="0px" y="0px"
	 viewBox="0 0 180 70" style="enable-background:new 0 0 180 70;" xml:space="preserve">
<style type="text/css">
	.st0{fill:#FF3366;}
</style>
<g id="Realistic">
	<path class="st0" d="M13.5,45.1c0.6-0.3,0.9-0.6,0.9-0.9v-6.4c0-0.6,0.3-1.1,0.7-1.4c0.5-0.3,1-0.5,1.6-0.5
		c1.4,0.1,2.8-0.2,4.1-0.8c1-0.5,1.8-1.2,2.3-2.1c0.6-1,0.9-2,1.1-3.2c0-0.3,0.1-0.4,0.3-0.4c0.1,0,0.2,0.1,0.2,0.3
		c0,1.9-0.8,3.7-2.2,4.9c-1.6,1.3-3.7,1.9-5.7,1.8c-0.4,0-0.9,0.1-1.2,0.4c-0.4,0.2-0.6,0.5-0.6,0.9v6.6c0,0.4-0.4,0.8-1.2,1.3
		c-0.2-0.1-0.4-0.2-0.4-0.3C13.3,45.2,13.4,45.1,13.5,45.1 M16.4,26.7c0.6-0.4,1.3-0.6,2.1-0.6c1.3-0.1,2.6,0.6,3.3,1.7
		c0,0.1,0.1,0.2,0.1,0.3c0,0.1-0.1,0.3-0.2,0.3c-0.1,0-0.2,0-0.2-0.1c-0.4-0.4-0.8-0.8-1.3-1.1c-0.5-0.3-1.1-0.5-1.7-0.5
		c-0.5,0-1,0.1-1.5,0.4c-0.1,0.1-0.2,0.1-0.4,0.1c-0.2,0-0.3-0.1-0.3-0.2C16.3,26.8,16.3,26.7,16.4,26.7 M35.1,45.1l9,0.1
		c0.2,0,0.4-0.1,0.5-0.2c0.2-0.1,0.3-0.3,0.3-0.5c0-0.1,0.1-0.2,0.1-0.3c0.1-0.1,0.2-0.1,0.3-0.1c0.1,0,0.2,0.2,0.2,0.5
		c-0.1,0.4-0.3,0.7-0.6,0.9c-0.2,0.2-0.5,0.3-0.9,0.4h-9c-0.3,0-0.4-0.1-0.4-0.3S34.8,45.1,35.1,45.1 M37.3,27.4
		c0.1,0.1,0.2,0.3,0.2,0.4c0,0.2-0.1,0.2-0.2,0.2c-0.2,0-0.3-0.1-0.4-0.2l-1.1-0.9c-0.1-0.1-0.1-0.2-0.1-0.3c0-0.2,0.2-0.4,0.6-0.4
		h7c0.2,0,0.4-0.1,0.6-0.2c0.2-0.1,0.3-0.3,0.4-0.5c0-0.2,0.1-0.3,0.3-0.3c0.1,0,0.1,0,0.2,0.1c0.1,0,0.1,0.1,0.1,0.2
		c0,0.4-0.2,0.8-0.5,1c-0.3,0.3-0.7,0.4-1.2,0.4h-6.6L37.3,27.4z M36.3,41.7c0,0.5-0.1,0.8-0.3,0.8c-0.2,0-0.3-0.3-0.3-0.8v-4.7
		c0-0.5,0.2-1,0.6-1.4c0.4-0.4,0.8-0.6,1.3-0.6l4.9-0.1c0.2,0,0.5-0.1,0.6-0.3c0.2-0.2,0.3-0.4,0.4-0.7c0.1-0.2,0.2-0.3,0.3-0.3
		c0.2,0,0.3,0.2,0.3,0.5c0,0.4-0.2,0.7-0.5,1c-0.3,0.2-0.6,0.4-1,0.4h-4.7c-0.4,0-0.8,0.1-1.1,0.4c-0.4,0.3-0.6,0.7-0.5,1.1
		L36.3,41.7z M39.5,31.3c0.1,0.1,0.1,0.1,0.1,0.2c0,0.2-0.1,0.3-0.3,0.3c-0.1,0-0.3-0.1-0.4-0.2l-2.4-2c-0.1-0.1-0.2-0.2-0.2-0.4
		c0-0.2,0.1-0.3,0.3-0.3c0.1,0,0.2,0.1,0.3,0.2L39.5,31.3z M67.2,37.1c0-0.3,0.1-0.4,0.2-0.4c0.1,0,0.2,0.1,0.3,0.3
		c0,0.1,0.1,0.2,0.1,0.4c0,0.3-0.1,0.5-0.3,0.7c-0.2,0.2-0.4,0.3-0.6,0.3h-6.8c-0.4,0-0.5-0.1-0.5-0.3c0-0.2,0.2-0.3,0.5-0.3h6.8
		C67.1,37.8,67.2,37.5,67.2,37.1 M76.8,45.3h6.5c0.2,0,0.4-0.1,0.5-0.2c0.1-0.1,0.2-0.3,0.2-0.5c0-0.1,0.1-0.2,0.2-0.2
		c0.2,0,0.3,0.1,0.3,0.3c-0.1,0.3-0.2,0.6-0.5,0.8c-0.3,0.2-0.6,0.3-0.9,0.3h-6.5c-0.3,0-0.4-0.1-0.4-0.2
		C76.3,45.4,76.4,45.3,76.8,45.3 M77.1,26.2c0-0.4,0.1-0.6,0.4-0.6s0.3,0.2,0.3,0.7v15.9c0,0.3-0.1,0.5-0.3,0.5s-0.4-0.2-0.4-0.6
		V26.2z M93.3,26c0-0.4,0.1-0.7,0.4-0.7c0.2,0,0.3,0.2,0.3,0.6v17.9c0,0.5-0.1,1-0.4,1.4c-0.2,0.3-0.5,0.4-0.8,0.4
		c-0.3,0-0.5-0.1-0.5-0.4c0-0.1,0.1-0.2,0.3-0.2c0.2,0,0.4-0.1,0.5-0.3c0.1-0.2,0.2-0.5,0.2-0.7L93.3,26z M105.4,42.5
		c0.1,0.1,0.2,0.2,0.2,0.4c0,0.2-0.1,0.3-0.2,0.3c-0.1,0-0.3-0.1-0.4-0.2c-0.5-0.4-0.9-1-1.2-1.6c-0.2-0.6-0.3-1.3-0.3-2
		c0-0.3,0.1-0.7,0.2-1c0.2-0.4,0.4-0.9,0.6-1.3c0.3-0.5,0.5-0.9,0.6-1.2c0.1-0.2,0.2-0.5,0.2-0.8c0-0.3,0.1-0.5,0.2-0.5
		c0.2,0,0.4,0.2,0.5,0.5c0,0.3-0.1,0.6-0.2,0.9c-0.2,0.4-0.4,0.8-0.7,1.2c-0.2,0.4-0.4,0.8-0.6,1.2c-0.2,0.4-0.2,0.9-0.2,1.3
		C104,40.8,104.5,41.9,105.4,42.5 M105.7,28.9c0,0.5-0.1,0.7-0.3,0.7c-0.1,0-0.2-0.1-0.2-0.2c-0.1-0.2-0.1-0.3-0.1-0.5
		c0.1-0.9,0.5-1.7,1.1-2.3c0.6-0.5,1.5-0.8,2.3-0.8c0.4,0,0.8,0.1,1.3,0.2c0.2,0.1,0.5,0.2,1,0.4c0.5,0.2,0.8,0.3,1.1,0.4
		c0.2,0.1,0.4,0.1,0.5,0.1c0.2,0,0.5-0.1,0.5-0.4c0-0.1,0.1-0.1,0.1-0.1c0.2,0,0.3,0.1,0.3,0.4c-0.2,0.4-0.6,0.6-1,0.6
		c-0.5-0.1-0.9-0.2-1.4-0.4c-0.6-0.2-1-0.4-1.4-0.5c-0.4-0.1-0.9-0.2-1.3-0.2c-0.7,0-1.3,0.3-1.7,0.9
		C106,27.8,105.8,28.3,105.7,28.9 M106.5,45c0.6,0.1,1.2,0.2,1.7,0.2c1.1,0,2.2-0.3,3.2-0.8c1-0.5,1.8-1.2,2.4-2.1
		c0.7-1,1-2.2,1-3.5c0.1-1.5-0.6-3-1.9-3.9c-0.1,0-0.1-0.1-0.1-0.2c0-0.1,0.1-0.1,0.2-0.2c0.1-0.1,0.2-0.1,0.3-0.1
		c1.4,1,2.2,2.6,2.2,4.3c0,1.3-0.4,2.6-1.1,3.7c-0.6,1-1.5,1.9-2.6,2.4c-1.2,0.6-2.5,0.9-3.8,0.9c-0.6,0-1.2,0-1.7-0.2
		c-0.3,0-0.5-0.2-0.5-0.5C105.9,45.1,106.1,45,106.5,45 M125.1,30.6l-3.5-2.9c-0.1-0.1-0.2-0.2-0.2-0.3c0-0.2,0.1-0.3,0.3-0.3
		c0.1,0,0.1,0,0.2,0.1l3.6,3.1c0.2,0.1,0.3,0.3,0.3,0.4s-0.1,0.2-0.2,0.2C125.3,30.8,125.2,30.7,125.1,30.6 M125.1,26.2h7.3
		c0.6,0,0.9-0.2,0.9-0.7c0-0.1,0.1-0.2,0.2-0.2c0.2,0,0.3,0.1,0.3,0.3c0,0.3-0.1,0.7-0.4,0.9c-0.3,0.3-0.8,0.4-1.2,0.3H125
		c-0.3,0-0.4-0.1-0.4-0.3C124.6,26.3,124.8,26.2,125.1,26.2 M127.8,31.2c0-0.5,0.1-0.7,0.3-0.7c0.2,0,0.2,0.2,0.2,0.5v13.3
		c0,0.4-0.1,0.7-0.3,1c-0.2,0.3-0.5,0.5-0.8,0.5c-0.2,0-0.3-0.1-0.3-0.3c0-0.2,0-0.2,0.1-0.2c0.5,0,0.8-0.5,0.8-0.9L127.8,31.2z
		 M142.8,26c0-0.4,0.1-0.7,0.4-0.7c0.2,0,0.3,0.2,0.3,0.6v17.9c0,0.5-0.1,1-0.4,1.4c-0.2,0.3-0.5,0.4-0.8,0.4
		c-0.3,0-0.5-0.1-0.5-0.4c0-0.1,0.1-0.2,0.3-0.2c0.2,0,0.4-0.1,0.5-0.3c0.1-0.2,0.2-0.5,0.2-0.7L142.8,26z M156.3,41.2
		c0.2,0.1,0.3,0.3,0.3,0.5c0,0.1-0.1,0.2-0.2,0.2c-0.1,0-0.3-0.1-0.4-0.2c-2.2-1.9-3.2-4.1-3.2-6.6c0-1.7,0.5-3.4,1.4-4.8
		c0.5-0.9,1.1-1.6,1.9-2.2c0.9-0.7,1.9-1.2,2.9-1.6c1-0.4,2-0.6,3.1-0.6c0.6,0,1.2,0.1,1.8,0.3c0.3,0,0.5,0.1,0.5,0.3
		c0,0.1-0.1,0.2-0.3,0.2c-0.1,0-0.2,0-0.4-0.1c-0.5-0.2-1.1-0.3-1.7-0.3c-1.5,0-3,0.4-4.2,1.2c-1.3,0.7-2.4,1.7-3.1,2.9
		c-0.8,1.3-1.2,2.8-1.2,4.4C153.3,37.3,154.3,39.4,156.3,41.2 M157.6,45c-0.2-0.1-0.4-0.2-0.4-0.4c0-0.1,0.1-0.2,0.3-0.2
		c0.2,0,0.4,0.1,0.5,0.2c1.1,0.5,2.3,0.8,3.6,0.8c0.8,0,1.6-0.1,2.4-0.3c0.7-0.2,1.4-0.4,2-0.8c0.5-0.3,0.8-0.7,1-1.2
		c0.1-0.4,0.3-0.6,0.4-0.6c0.2,0,0.3,0.2,0.3,0.6c-0.1,0.6-0.4,1.1-0.9,1.4c-0.7,0.5-1.5,0.8-2.3,1c-1,0.3-1.9,0.4-2.9,0.4
		C160.1,46,158.8,45.7,157.6,45 M166.6,27.3c0.1,0,0.2,0.1,0.3,0.1c0.3,0,0.5-0.2,0.5-0.6c0-0.2-0.1-0.5-0.2-0.6
		c0-0.1-0.1-0.1-0.1-0.2c0-0.2,0.1-0.3,0.4-0.3c0.2,0,0.3,0.1,0.4,0.2c0.1,0.2,0.2,0.5,0.2,0.7c0,0.3-0.1,0.7-0.3,0.9
		c-0.2,0.2-0.5,0.4-0.8,0.4c-0.2,0-0.3,0-0.4-0.1c-0.2-0.1-0.3-0.3-0.3-0.4C166.1,27.4,166.3,27.3,166.6,27.3"/>
	<path class="st0" d="M19.6,38.1c0.6,0.9,1.2,2.1,2,3.5c0.8,1.4,1.3,2.3,1.7,2.9c0.4,0.5,0.7,0.8,1,0.8c0.1,0,0.2,0,0.2-0.1
		c0.2,0,0.3,0.1,0.3,0.2c0,0.1-0.1,0.2-0.2,0.3c-0.1,0.1-0.3,0.1-0.4,0.1c-0.4,0-0.8-0.3-1-0.6c-0.3-0.4-0.8-1.3-1.6-2.7
		c-0.8-1.4-1.5-2.6-2.2-3.7 M15.6,32.6l-3-5.3c0-0.1,0-0.2,0-0.3c0-0.1,0-0.2,0.1-0.2c0.2,0,0.3,0.1,0.4,0.3l3.2,5.5 M66.6,40.3
		l1.1,3.7c0,0.1,0.1,0.3,0.1,0.4c0,0.4-0.1,0.7-0.4,1c-0.2,0.3-0.6,0.4-0.9,0.4c-0.3,0-0.6-0.1-0.8-0.3L55.8,39
		c-0.3-0.2-0.5-0.4-0.5-0.5c0-0.1,0.1-0.2,0.3-0.2c0.2,0,0.3,0,0.5,0.1l9.8,6.6c0.2,0.1,0.4,0.2,0.6,0.1c0.5,0,0.7-0.2,0.7-0.7
		c0-0.2,0-0.4-0.1-0.6l-1.2-4.1 M64.4,35.1l-2.9-9.4c0-0.4,0.1-0.6,0.3-0.6c0.1,0,0.3,0.1,0.3,0.3l3.1,9.7 M56,40.6
		c-0.1,0-0.1-0.1-0.2-0.1l-1.6,4.5c-0.1,0.2-0.3,0.4-0.5,0.6c-0.2,0.2-0.5,0.2-0.8,0.2c-0.3,0-0.4-0.1-0.4-0.3
		c0-0.2,0.2-0.4,0.6-0.4c0.1,0,0.3-0.1,0.4-0.2c0.1-0.1,0.2-0.2,0.3-0.4l1.5-4.4 M57,35.1l2-6c0.1-0.2,0.2-0.3,0.4-0.3
		s0.3,0.2,0.3,0.5l-2,5.8 M104.7,33.2c0-0.1-0.1-0.2-0.1-0.2c-0.1-0.1-0.1-0.2-0.2-0.2c-0.1-0.1-0.1-0.1-0.2-0.2
		c0-0.3,0.1-0.4,0.3-0.4c0.1,0,0.2,0,0.3,0.1c0.6,0.7,1.3,1.3,2.1,1.7c0.9,0.5,1.9,0.9,2.9,1.3c0.2,0,0.3,0.1,0.3,0.2
		c0,0.2-0.1,0.3-0.2,0.3c0,0-0.1,0-0.1,0c-0.3-0.1-0.6-0.1-0.9-0.2c-0.2-0.1-0.6-0.2-1-0.4c-0.3-0.1-0.5-0.2-0.8-0.3L104.7,33.2z"/>
	<path class="st0" d="M19.4,38.9c0,0.4,0,0.8,0.1,1.2l3.4,5.7c0.3,0.4,0.8,0.7,1.3,0.6c0.5,0,1-0.2,1.4-0.5c0.4-0.3,0.7-0.7,0.7-1.2
		c0-0.4-0.1-0.7-0.3-1l-3.4-5.7c-0.3-0.4-0.8-0.7-1.3-0.6c-0.8,0-1.3,0.3-1.5,1L19.4,38.9z M18.7,28.8c0.2,0.3,0.3,0.5,0.4,0.7
		c0.1,0.2,0.3,0.5,0.4,0.7c0.1,0.2,0.3,0.5,0.4,0.7c0.1-0.2,0.2-0.4,0.2-0.7c0-0.4-0.2-0.8-0.5-1.1C19.5,28.9,19.1,28.8,18.7,28.8
		L18.7,28.8z M16.3,32.7c1,0,2-0.1,2.9-0.3c-0.3-0.5-0.7-1.3-1.3-2.3c-0.4-0.6-0.7-1.3-0.9-2c0-0.3,0.2-0.6,0.5-0.6
		c0.3-0.1,0.6-0.2,1-0.2c0.7,0,1.5,0.3,2,0.7c0.6,0.5,0.9,1.2,0.9,2c0,0.3,0,0.7-0.1,1c-0.2,0.8-0.7,1.5-1.5,1.9
		c-0.9,0.3-1.8,0.5-2.7,0.4H14c-0.5,0-1,0-1.5,0.1c-0.3,0.1-0.5,0.2-0.7,0.5c-0.2,0.4-0.2,0.8-0.2,1.2v9.3c0,0.5,0.1,0.9,0.5,1.3
		c0.3,0.3,0.7,0.5,1.2,0.4c0.5,0,1-0.2,1.3-0.5c0.4-0.3,0.6-0.7,0.6-1.2l-0.1-5.8c-0.1-0.5,0.1-1,0.5-1.3c0.3-0.3,0.8-0.4,1.2-0.4
		c0.5,0,0.8-0.1,1.1-0.1c1.4-0.1,2.8-0.5,4-1.3c1-0.7,1.8-1.6,2.3-2.6c0.5-1,0.7-2.1,0.7-3.2c0.1-1.3-0.3-2.6-1.1-3.6
		c-0.6-0.8-1.4-1.4-2.3-2c-0.9-0.5-1.8-0.7-2.8-0.7h-4.3c-0.7,0-1.5,0.2-2,0.7c-0.5,0.4-0.8,1.1-0.8,1.8c0,0.5,0.1,1,0.4,1.4l3,5.2
		H16.3L16.3,32.7z M12.9,31.9l-2.4-4.1c-0.4-0.6-0.5-1.3-0.5-2c0-1,0.4-1.9,1.1-2.7c0.9-0.8,2-1.2,3.2-1.1h5.2
		c1.4,0,2.8,0.4,3.9,1.1c1.1,0.7,2,1.8,2.6,3c0.6,1.2,0.9,2.6,0.9,3.9c0,1.3-0.3,2.5-0.8,3.7c-0.5,1.2-1.4,2.2-2.4,2.9l3.4,5.5
		c0.5,0.7,0.8,1.6,0.8,2.5c0,0.9-0.4,1.8-1.1,2.4c-0.7,0.6-1.6,0.9-2.5,0.9c-1.1,0.1-2.2-0.5-2.8-1.5c-2.6-4.3-4.1-6.8-4.4-7.4v5.4
		c0.1,1-0.3,1.9-1.1,2.5c-0.7,0.6-1.6,0.9-2.5,0.9c-0.8,0-1.7-0.3-2.3-0.8c-0.7-0.6-1-1.4-1-2.2V35c0-0.8,0.2-1.6,0.7-2.3
		C11.3,32.1,12.1,31.8,12.9,31.9L12.9,31.9z M34.8,46.3h9.3c0.5,0,1-0.2,1.4-0.6c0.3-0.4,0.5-0.8,0.5-1.3c0-0.5-0.2-1-0.5-1.3
		c-0.4-0.4-0.9-0.6-1.5-0.5h-5.6c-1.1,0-1.7-0.4-1.7-1.3v-3.5c0-1,0.5-1.5,1.4-1.5h4.3c0.6,0,1.2-0.2,1.6-0.7c0.4-0.4,0.7-1,0.7-1.6
		c0-0.8-0.4-1.5-1-1.9L38,27.3h4.9c0.7,0,1.3-0.2,1.9-0.6c0.4-0.3,0.7-0.8,0.7-1.4c0-0.5-0.2-0.9-0.6-1.2c-0.4-0.4-1-0.5-1.6-0.5
		h-8.6c-0.7,0-1.3,0.1-1.9,0.5c-0.4,0.3-0.7,0.8-0.6,1.3c0.1,0.9,0.5,1.8,1.3,2.3l5.7,4.8h-4.2c-0.5,0-1,0.2-1.3,0.6
		C33.1,33.5,33,34,33,34.5V44c0,0.6,0.1,1.1,0.3,1.7C33.5,46.1,34,46.3,34.8,46.3 M34.5,30.8l-2.8-2.5c-0.8-0.7-1.3-1.7-1.2-2.8
		c0-0.6,0.1-1.2,0.4-1.7c0.3-0.5,0.7-1,1.3-1.3c0.6-0.3,1.3-0.5,2.1-0.5h9.5c0.9,0,1.8,0.3,2.5,1c0.6,0.6,0.9,1.5,0.9,2.4
		c0,1-0.4,1.9-1.1,2.5c-0.9,0.8-2.1,1.1-3.3,1l2.9,2.7c0.7,0.6,1,1.5,1,2.5c0,0.9-0.3,1.9-1,2.6c-0.7,0.7-1.7,1.2-2.7,1.1h-4.5V41
		l6,0.1c0.9,0,1.7,0.3,2.3,1c0.6,0.7,0.9,1.5,0.8,2.4c0.1,1.8-1.4,3.4-3.2,3.4c-0.1,0-0.3,0-0.4,0h-9.5c-2.1,0-3.2-1.2-3.2-3.5V34.3
		c0-0.8,0.3-1.6,0.7-2.3C32.6,31.3,33.5,30.9,34.5,30.8 M59.8,33.4l-0.4,1.9h1L59.8,33.4z M65.9,40c-0.2-0.1-0.5-0.1-0.7-0.1
		c-0.7-0.1-1.4,0.4-1.6,1.1c-1.1-0.7-2.1-1.3-2.9-1.9h6.2c0.5,0,0.9-0.2,1.2-0.5c0.3-0.3,0.4-0.7,0.4-1.2c0-0.4-0.1-0.8-0.4-1.1
		c-0.3-0.3-0.7-0.5-1.1-0.5H55.8c-0.5,0-0.9,0.2-1.2,0.6c-0.3,0.3-0.5,0.8-0.5,1.3c0,0.6,0.3,1.1,0.8,1.4l10.3,7
		c0.4,0.3,0.8,0.4,1.2,0.4c0.5,0,1-0.3,1.3-0.7c0.3-0.3,0.5-0.7,0.5-1.1c-0.1-0.9-0.4-1.8-0.7-2.7c-0.3-1-0.7-1.5-1-1.5L65.9,40z
		 M65.6,35.2l-3.2-9.9c-0.2-0.5-0.5-0.9-1-1.2c-0.5-0.3-1-0.5-1.6-0.5c-0.5,0-1.1,0.2-1.5,0.5c-0.5,0.3-0.8,0.8-1,1.3l-6.2,18.1
		c-0.1,0.3-0.2,0.7-0.2,1.1c0,0.5,0.2,1,0.5,1.3c0.4,0.3,0.8,0.5,1.3,0.5c0.4,0,0.8-0.1,1.1-0.3c0.3-0.2,0.6-0.5,0.7-0.9l1.5-4.4
		c-0.1-0.1-0.1-0.1-0.2-0.2c-0.1,0-0.1-0.1-0.2-0.1l-0.5-0.3l-0.9-0.7c-0.6-0.4-1-1.1-0.9-1.8c0-0.6,0.2-1.2,0.6-1.7
		c0.4-0.5,1-0.7,1.7-0.7h2.3l1.8-5.2l1.6,5.2L65.6,35.2z M49.8,43.2l6.3-18.5c0.3-0.8,0.8-1.5,1.6-1.9c0.8-0.5,1.6-0.7,2.5-0.7
		c0.8,0,1.6,0.2,2.3,0.7c0.7,0.5,1.2,1.2,1.4,2l3.1,9.6c0.8,0,1.6,0.3,2.1,0.9c0.5,0.6,0.8,1.3,0.8,2.1c0,1-0.5,2-1.4,2.5l1.2,3.7
		c0.1,0.3,0.1,0.6,0.1,0.9c0,0.6-0.2,1.2-0.5,1.7c-0.3,0.5-0.8,1-1.4,1.3c-0.5,0.3-1.1,0.5-1.7,0.5c-0.5,0-1.1-0.1-1.5-0.4l-7.3-4.9
		l-1.2,3c-0.2,0.7-0.7,1.2-1.3,1.6c-1.4,0.8-3.1,0.7-4.3-0.3c-0.7-0.6-1.1-1.4-1-2.3C49.6,44.1,49.7,43.6,49.8,43.2L49.8,43.2z
		 M74.5,25.9v18.2c0,0.6,0.1,1.2,0.4,1.7c0.2,0.4,0.8,0.6,1.8,0.6h6.4c0.5,0,1-0.2,1.4-0.5c0.3-0.4,0.5-0.8,0.5-1.3
		c0-0.9-0.7-1.7-1.6-1.7c-0.1,0-0.1,0-0.2,0h-3.6c-0.6,0-1-0.2-1.1-0.5c-0.2-0.3-0.2-0.6-0.3-0.9V25.9c0-0.6-0.2-1.2-0.5-1.7
		c-0.3-0.4-0.8-0.6-1.3-0.6c-0.5,0-1,0.2-1.3,0.6C74.7,24.7,74.5,25.3,74.5,25.9L74.5,25.9z M72.9,26.1c0-0.8,0.1-1.5,0.5-2.2
		c0.3-0.6,0.8-1.1,1.3-1.4c1.3-0.8,3-0.6,4.1,0.5c0.7,0.8,1.1,1.8,1,2.8v14.5c0,0.5,0.3,0.8,0.9,0.8H83c1-0.1,2,0.3,2.7,1
		c0.6,0.7,1,1.5,0.9,2.4c0,0.9-0.3,1.7-0.9,2.3c-0.6,0.7-1.5,1-2.4,1h-7c-1,0-1.9-0.4-2.5-1.1c-0.6-0.7-0.9-1.6-0.9-2.5L72.9,26.1z
		 M90.6,25.9v17.9c0,0.7,0.2,1.4,0.5,1.9c0.3,0.4,0.8,0.7,1.3,0.7c0.5,0,1-0.3,1.3-0.7c0.4-0.5,0.6-1.1,0.6-1.7V25.9
		c0-0.6-0.2-1.2-0.5-1.7c-0.3-0.4-0.8-0.6-1.3-0.6c-0.5,0-1,0.2-1.4,0.6C90.8,24.6,90.6,25.2,90.6,25.9L90.6,25.9z M89.1,25.7
		c-0.1-1,0.3-2,1.1-2.7c0.7-0.6,1.6-1,2.5-1c0.9,0,1.7,0.3,2.4,0.9c0.7,0.7,1.1,1.7,1,2.6V44c0,0.7-0.1,1.5-0.5,2.2
		c-0.3,0.6-0.7,1-1.3,1.3c-0.5,0.3-1.1,0.4-1.7,0.4c-0.9,0-1.8-0.4-2.5-1.1c-0.7-0.8-1.1-1.8-1.1-2.9L89.1,25.7z M107.3,37.2
		c-0.6,0.7-1,1.6-1,2.5c0,0.6,0.3,1.1,0.7,1.4c1,0.6,2.2,0.5,3.1-0.1c0.4-0.3,0.7-0.8,0.7-1.4c0-0.6-0.4-1.2-1-1.5
		C109,37.7,108.2,37.4,107.3,37.2 M106.9,35.1c0,0.1,0.1,0.3,0.2,0.3c0.8,0.3,1.3,0.5,1.7,0.6c0.5,0.2,0.9,0.4,1.3,0.6
		c0.5,0.3,0.9,0.6,1.3,1c0.4,0.3,0.6,0.8,0.7,1.3c0.1,0.3,0.1,0.5,0.1,0.8c0,0.9-0.4,1.9-1.2,2.4c-0.7,0.6-1.6,0.9-2.5,1
		c-1,0-2-0.3-2.8-0.8c-0.8-0.4-1.4-1.3-1.3-2.3c0-0.7,0.2-1.3,0.5-1.9c0.2-0.3,0.4-0.7,0.6-1c0.2-0.3,0.4-0.6,0.6-1
		c0.1-0.2,0.1-0.5,0.1-0.7c0-0.4-0.1-0.7-0.3-1c-0.2-0.3-0.6-0.4-1-0.4c-0.6,0-1.2,0.3-1.7,0.7c-0.8,0.6-1.5,1.4-1.9,2.3
		c-0.4,0.9-0.6,1.9-0.6,2.9c0,1.1,0.2,2.1,0.7,3.1c0.4,0.9,1,1.6,1.9,2.1c1.4,0.9,3.1,1.4,4.8,1.4c1.2,0,2.5-0.3,3.6-0.8
		c1.1-0.5,2.1-1.2,2.8-2.1c0.7-0.9,1.2-1.9,1.4-3.1c0.1-0.4,0.1-0.9,0.1-1.3c0-2.8-1.4-4.8-4.3-5.9c-0.4-0.2-0.9-0.3-1.5-0.5
		c-0.6-0.2-1.1-0.4-1.5-0.6c-0.4-0.2-0.8-0.4-1.2-0.6c-0.9-0.4-1.4-1.3-1.4-2.3c0-0.6,0.2-1.2,0.7-1.6c0.6-0.5,1.3-0.7,2-0.6
		c0.9,0.2,1.8,0.5,2.6,1c0.2,0.1,0.4,0.1,0.6,0.1c0.5,0,1-0.2,1.3-0.5c0.4-0.3,0.6-0.7,0.6-1.2c0-0.7-0.5-1.4-1.5-2
		c-1.1-0.6-2.3-0.9-3.5-0.9c-1.2,0-2.4,0.3-3.5,0.8c-1,0.5-1.9,1.3-2.4,2.4c-0.4,0.8-0.6,1.8-0.6,2.7c0,1.5,0.6,2.9,1.8,3.9
		c0.1,0.1,0.2,0.1,0.3,0.1c0.6-0.1,1.3,0.1,1.8,0.4C106.7,34.2,106.9,34.6,106.9,35.1 M102.3,33.5c-0.9-1.2-1.4-2.6-1.4-4.1
		c0-1.4,0.5-2.7,1.2-3.9c0.7-1.2,1.8-2.1,3-2.6c1.3-0.6,2.7-0.9,4.1-0.9c0.6,0,1.2,0.1,1.8,0.2c1.3,0.2,2.5,0.8,3.5,1.7
		c0.7,0.6,1.1,1.5,1.1,2.4c0,0.8-0.4,1.6-1,2.2c-0.7,0.6-1.6,0.9-2.5,0.9c-0.9,0-1.9-0.3-2.7-0.7c-0.3-0.2-0.6-0.2-0.9-0.2
		c-0.6,0-0.9,0.3-0.9,0.7c0,0.4,0.3,0.8,0.6,0.9c0.5,0.3,1.1,0.6,1.7,0.8c0.7,0.2,1.4,0.5,2.1,0.8c0.7,0.2,1.3,0.5,1.9,0.9
		c1.2,0.6,2.1,1.6,2.8,2.8c0.6,1.1,0.9,2.3,0.9,3.6c0,1.1-0.2,2.3-0.6,3.3c-0.4,1-1,1.9-1.8,2.7c-0.9,0.9-2,1.7-3.3,2.1
		c-1.2,0.5-2.6,0.7-3.9,0.7c-1.8,0-3.7-0.4-5.3-1.3c-1.5-0.7-2.6-2-3.2-3.5c-0.3-1-0.5-2-0.5-3C99.1,37.5,100.3,35.1,102.3,33.5
		 M125.1,32.8v11.6c0,0.5,0.2,1.1,0.6,1.4c0.4,0.4,0.9,0.5,1.4,0.5c0.5,0,0.9-0.2,1.2-0.5c0.4-0.4,0.5-0.9,0.5-1.4V31.3
		c0-0.5-0.1-1-0.4-1.3c-0.5-0.5-0.9-0.9-1.5-1.3c-0.5-0.4-1-0.8-1.4-1.3h6.9c0.5,0,1.1-0.1,1.5-0.5c0.3-0.3,0.5-0.8,0.5-1.2
		c0-0.5-0.2-1-0.6-1.4c-0.5-0.4-1.1-0.6-1.8-0.6h-10.7c-0.5,0-0.9,0.2-1.2,0.6c-0.4,0.4-0.6,0.9-0.5,1.4c0,0.8,0.4,1.5,1,1.9
		c0.5,0.4,1,0.8,1.5,1.2c0.5,0.4,0.9,0.8,1.3,1.1c0.4,0.3,0.7,0.6,1,1C124.9,31.3,125.1,32.1,125.1,32.8 M123.5,44.4V34
		c0-0.6-0.1-1.3-0.3-1.8c-0.3-0.6-0.8-1.1-1.4-1.5c-0.4-0.3-0.6-0.5-0.9-0.7c-0.2-0.2-0.5-0.4-0.9-0.7s-0.7-0.6-0.9-0.8
		c-0.2-0.2-0.4-0.4-0.5-0.6c-0.5-0.7-0.8-1.5-0.8-2.4c0-0.9,0.3-1.8,0.9-2.5c0.7-0.7,1.6-1.1,2.6-1h10.7c0.7,0,1.5,0.2,2.1,0.5
		c0.6,0.3,1,0.8,1.3,1.4c0.3,0.5,0.5,1.2,0.5,1.8c0,0.9-0.3,1.7-0.9,2.4c-0.7,0.7-1.6,1-2.5,1h-2.9c0.3,0.2,0.6,0.5,0.6,0.8
		c0.1,0.6,0.2,1.2,0.1,1.8v12.9c0.1,0.9-0.3,1.8-0.9,2.5c-0.6,0.6-1.4,0.9-2.3,0.9c-0.6,0-1.2-0.1-1.8-0.4c-0.6-0.3-1-0.7-1.4-1.2
		C123.7,45.7,123.5,45,123.5,44.4 M140.1,25.9v17.9c0,0.7,0.2,1.4,0.5,1.9c0.3,0.4,0.8,0.7,1.3,0.7c0.5,0,1-0.3,1.4-0.7
		c0.4-0.5,0.6-1.1,0.6-1.7V25.9c0-0.6-0.2-1.2-0.5-1.7c-0.3-0.4-0.8-0.6-1.3-0.6c-0.5,0-1,0.2-1.4,0.6
		C140.3,24.6,140.1,25.2,140.1,25.9z M138.6,25.7c-0.1-1,0.3-2,1.1-2.7c0.7-0.6,1.6-1,2.5-1c0.9,0,1.7,0.3,2.4,0.9
		c0.7,0.7,1.1,1.7,1,2.6V44c0,0.7-0.1,1.5-0.5,2.2c-0.3,0.6-0.7,1-1.3,1.3c-0.5,0.3-1.1,0.4-1.7,0.4c-0.9,0-1.8-0.4-2.5-1.1
		c-0.7-0.8-1.1-1.8-1.1-2.9L138.6,25.7z M165.6,41.7c-1.3,0.7-2.7,1-4.1,1c-1.3,0-2.7-0.3-3.8-1c-2.3-1.4-3.7-3.8-3.8-6.5
		c0-1.4,0.4-2.7,1-3.9c0.7-1.2,1.6-2.3,2.8-3c1.2-0.8,2.6-1.1,4-1.1c1.6,0,3.1,0.4,4.4,1.2c0.2,0.1,0.5,0.2,0.7,0.2
		c0.4,0,0.8-0.2,1.1-0.5c0.3-0.3,0.5-0.8,0.5-1.2c0-1-0.6-1.7-1.8-2.2c-1.6-0.6-3.3-1-5-1c-1.6,0-3.2,0.3-4.6,1
		c-1.4,0.6-2.7,1.5-3.7,2.6c-1,1.1-1.9,2.4-2.4,3.8c-0.6,1.4-0.9,2.9-0.9,4.5c0,1.5,0.4,3,1,4.3c0.6,1.3,1.5,2.5,2.6,3.5
		c1.1,1,2.3,1.8,3.7,2.3c1.3,0.5,2.7,0.8,4.2,0.8c2,0,4-0.6,5.7-1.8c0.6-0.3,1-0.9,1-1.6c0-0.4-0.2-0.9-0.5-1.2
		c-0.3-0.3-0.8-0.5-1.2-0.5C166.2,41.4,165.9,41.5,165.6,41.7 M168.2,45.9c-2,1.4-4.4,2.1-6.8,2.1c-1.6,0-3.3-0.3-4.8-1
		c-1.5-0.6-2.9-1.6-4.1-2.7c-1.2-1.1-2.2-2.4-2.9-3.9c-0.7-1.4-1.1-3-1.1-4.6c0-2.4,0.6-4.7,1.8-6.8c1.1-2.1,2.8-3.8,4.8-5
		c2-1.2,4.3-1.9,6.6-1.9c1.9,0,3.8,0.4,5.6,1.2c0.8,0.3,1.5,0.9,2,1.6c0.4,0.6,0.7,1.3,0.7,2.1c0,0.8-0.3,1.6-0.8,2.2
		c-0.5,0.6-1.3,1-2.1,0.9c-0.7,0-1.3-0.2-1.9-0.5c-1.1-0.5-2.2-0.8-3.4-0.9c-1.2,0-2.3,0.3-3.3,1c-0.9,0.6-1.7,1.5-2.3,2.5
		c-0.5,0.9-0.8,1.9-0.8,3c0,1.1,0.3,2.1,0.8,3c0.6,0.9,1.3,1.7,2.3,2.3c1,0.6,2,0.9,3.2,0.9c1.2,0,2.4-0.3,3.5-0.9
		c0.5-0.3,1.1-0.5,1.7-0.5c0.8,0,1.6,0.3,2.1,1c0.5,0.6,0.8,1.4,0.8,2.3C169.8,44.2,169.2,45.3,168.2,45.9"/>
</g>
</svg>
