<?xml version="1.0" encoding="utf-8"?>
<!-- Generator: Adobe Illustrator 21.0.0, SVG Export Plug-In . SVG Version: 6.00 Build 0)  -->
<svg version="1.1" id="Слой_1" xmlns="http://www.w3.org/2000/svg" xmlns:xlink="http://www.w3.org/1999/xlink" x="0px" y="0px"
	 viewBox="0 0 140 50" style="enable-background:new 0 0 140 50;" xml:space="preserve">
<style type="text/css">
	.st0{fill:#FFCC00;}
	.st1{fill:#FF9900;}
	.st2{fill:#2D2926;}
	.st3{fill:#191610;}
	.st4{fill:#CCCCCC;}
</style>
<path class="st0" d="M41.2,0c0,0-1,2.4-2.9,3c-1.6,0.5-3.8-0.4-3.8-0.4s-1.4,2-3,2.4c-1.6,0.5-3.7-0.3-3.7-0.3s-1.4,2-2.9,2.4
	C23.1,7.6,21,6.7,21,6.7s-1.4,2-2.9,2.4c-1.7,0.6-3.8-0.3-3.8-0.3s-1.4,2-2.9,2.4c-1.6,0.5-3.8-0.4-3.8-0.4s-0.6,1.5-2.3,2.1
	C3.5,13.5,1,13,1,13s12.5,11.4,4.4,21.8h16.1C47.7,34.8,53.9,16.8,41.2,0z"/>
<path class="st1" d="M41.2,0c0,0-1,2.4-2.9,3c-1.6,0.5-3.8-0.4-3.8-0.4s-1.4,2-3,2.4c-1.6,0.5-3.7-0.3-3.7-0.3S39.3,19.5,5.4,34.8
	h16.1C47.7,34.8,53.9,16.8,41.2,0z"/>
<path class="st2" d="M50.6,43.8c-0.1,0-8.3-3.5-8.3-9.2c0-2.5,1.5-3.9,2.9-5.5c1.5-1.6,3.1-3.2,3.1-6.1v-0.5h-5.1
	c0,0,0.1,2.5-2.1,5.8C39.8,30.3,37.4,32,34,32H7c1.3-0.3,2.2-1.5,2.2-2.8c0-2.9-2.3-3.5-3.2-3.5c-1.7,0-3.2,1.5-3.5,3.5
	s0.1,3.4,0.5,4.5c1.2,3.4,3.6,5.1,4.7,5.8L2.1,49h4.5c0.7,0,1.1-0.8,1.2-1l6.5-10.8c0.1-0.1,0.2-0.2,0.2-0.2h2.2L9.5,49h4.1
	c0.7,0,1.1-0.8,1.2-1l6.5-10.8c0.1-0.1,0.2-0.2,0.2-0.2h2.2L16.5,49h4.1c0.7,0,1.1-0.8,1.2-1l6.5-10.9l0.1-0.1h2.2L25.3,46h25.6
	v-1.9L50.6,43.8z"/>
<path class="st3" d="M64.6,42.4l0.1,2.2c0,0.6-0.4,1.2-1.1,1.3C63.1,46,62.5,46,61.9,46c-4.4,0-6.8-2.6-7.4-3.3
	c-0.8-1-1.4-2-1.4-3.3c0-3.9,4.4-6.3,7.6-6.7c1-0.1,1.6,0.8,1.6,0.8s1.3,1.9,1.4,2.4l0.6,2.3c0.1,0.3,0,0.7-0.2,1
	c-0.2,0.3-1,0.6-1.1,0.6C63.9,40.8,64.6,41.7,64.6,42.4z M103.5,36.5c0-0.3-0.1-0.6-0.3-0.9c-0.4-0.6-1-1.8-1.3-2.1
	c-0.3-0.3-0.7-0.5-1.1-0.5h-3.1c-0.4,0-0.8,0.2-1.1,0.5c-0.3,0.3-0.5,0.7-0.4,1.1c0,0,0.1,1.9,0.1,3.9s-0.1,4.3-0.1,4.3
	c0,0.4,0.1,0.8,0.4,1.1c0.3,0.3,1.6,1.4,1.8,1.7c0.2,0.2,0.6,0.4,0.9,0.4h3.1c0.3,0,0.7-0.1,0.9-0.4c0.2-0.2,0.4-0.6,0.3-0.9
	c0,0-0.1-2-0.1-4.3C103.4,38.1,103.5,36.5,103.5,36.5z M134.9,34.8c-1.1-1.3-2.9-2-5.1-2c-4.6,0-7,3.1-7,6.2c0,0.8,0.2,1.7,0.6,2.4
	c0.5,0.8,3.2,3.4,3.9,3.8c0.9,0.5,2.1,0.8,3.4,0.8c5.3,0,6.7-3.8,6.7-5.8c0-0.8-0.1-1.5-0.4-2.1C136.8,37.6,135.4,35.3,134.9,34.8z
	 M74.4,33.3c-0.3-0.4-0.8-0.7-1.3-0.7h-0.3c-0.5,0-1,0.3-1.3,0.7l-5,7.8c-0.2,0.4-0.3,1-0.2,1.4c0.1,0.4,2.2,2.3,2.5,2.5l2.4,1.3
	c0.2,0.1,0.4,0.1,0.6,0.1c0.5,0,0.9-0.2,1.1-0.7l0.5-0.9c0,0,2.1-0.1,2.3-0.1l0.7,1.1c0.4,0.6,1.1,0.8,1.7,0.4l2.5-1.4
	c0.3-0.2,0.5-0.5,0.6-0.8s0-0.7-0.2-1L74.4,33.3z M118.7,33.5c-0.3-0.3-0.7-0.5-1.1-0.5l-2.7-0.1c-0.9,0-1.6,0.7-1.6,1.6v1l-3.4-2.4
	c-0.4-0.3-1-0.3-1.5-0.2c-0.5,0.1-1.1,0.7-1.1,1.4l-0.5,8.3c0,0.4,0.1,0.8,0.4,1.1c0.3,0.3,1.6,1.4,1.8,1.7c0.2,0.2,0.5,0.4,0.9,0.4
	l2.7,0.1c0.7,0,1.3-0.6,1.3-1.3v-1.5l3.2,2.2c0.2,0.1,0.8,0.7,1.5,0.7c0.8,0,1.3-0.7,1.4-1.2l0.5-8.4c0-0.3-0.1-0.6-0.3-0.9
	C119.8,35.2,119,33.8,118.7,33.5z M92.3,39.3c0.1-0.1,0.5-0.5,0.5-1.2c0-0.8-0.3-2.1-0.3-2.1c-0.1-0.6-1.3-2.2-1.3-2.2s-0.4-1-1.6-1
	c-4,0-6.8,2.1-6.8,4.6c0,1.3,1,2.3,1,2.3s-0.8,0.7-0.7,1.6l0.4,2.1c0,0.9,2.3,2.9,3.1,2.9c2.1,0,6.8-1.2,6.8-4.6
	C93.5,40.7,93.1,39.9,92.3,39.3z"/>
<path class="st3" d="M98.7,27.8l-4.5,3.4c-0.2,0.2-0.5,0.2-0.7,0.2c-0.1,0-0.1,0-0.2,0c-0.6,0-2.7-2.2-3-2.5l-2.2-3.2v3.7
	c0,0.3-0.1,0.7-0.4,0.9c-0.2,0.2-0.6,0.4-0.9,0.4h-5.8c-0.7,0-2-1.9-2.2-2l-4.4,2.5c-0.6,0.3-2.2,0.2-2.5-0.4l-2-3.1L65,28l-1.3,2.7
	c-0.2,0.3-0.4,0.5-0.7,0.6c-0.1,0-0.3,0.1-0.4,0.1c-0.2,0-0.4-0.1-0.6-0.2l-4.8-2.6c-0.3-0.2-2.8-2.2-2.8-2.9c0-0.4,0-0.9,0.2-1.2
	L64.7,8C65,7.5,65.5,7.2,66,7.2h0.2c0.5,0,1,0.3,1.3,0.7l10.5,15.8l-0.1-14c0-0.4,0.2-0.8,0.5-1.1c0.3-0.3,0.7-0.5,1.1-0.5
	c0.3,0,7,0.1,9.3,0.4c5.1,0.6,6.2,2.5,8.4,6.4c0.9-1.3,2.1-2.5,3.6-3.5c3.1-2.2,6.6-3.3,8.9-3.7c0.8-0.1,1.4,0.3,1.8,0.9
	c0.4,0.6,1.3,2,1.5,2.6L114,16c0.1,0.3,0.1,0.8,0.4,0c1.3-4.4,5.3-8.2,11.9-8.2c9.9,0,12.8,8.4,12.8,12.4c0,3.7-2.5,10.8-12.1,10.8
	c-7.1,0-10.9-5.8-11.2-6.1v4.3c0,0.6-0.4,1.1-1,1.2c-4.6,1-10.7,1-14.4-2c-0.4-0.4-0.8-0.8-1.2-1.2C99.1,27.4,98.9,27.6,98.7,27.8z
	 M124.7,21c0,0.4,0,0.8,0.1,1.1c0.2,0.1,0.4,0.1,0.6,0.1c0.8,0,1.4-0.2,1.8-0.6c0.7-0.7,1-1.8,1-3.4l0,0c0-0.6-0.1-1.1-0.2-1.5
	c-0.1,0-0.2,0-0.2,0C125.6,16.6,124.7,18.9,124.7,21z"/>
<path class="st4" d="M61.7,40.6c0,0-3.8,0.5-3.8-1.5c0-2,3.6-2.5,3.6-2.5l-0.6-2.3c-2.5,0.3-6.3,2.2-6.3,5.1c0,2.8,4,3.9,7.2,3.4
	L61.7,40.6z M70.3,43.2l0.8-1.6l3.7-0.2l1.1,1.8l2.5-1.4l-5.3-7.6h-0.3l-5,7.8L70.3,43.2z M71.9,39.8l1-2l1,1.9L71.9,39.8z M85.1,43
	c3.9-0.3,5.6-1.9,5.6-3.3c0-1.2-1.2-1.7-1.9-1.9c-0.8-0.3-1.3-0.5-1.3-0.8c0-0.5,0.8-0.6,2.6-0.6l-0.4-2.1c-3.3,0.2-5.4,1.6-5.4,3
	c0,1.1,1,1.7,1.8,2c1,0.5,1.3,0.6,1.3,0.9c0,0.6-1.4,0.8-2.8,0.8L85.1,43z M100.6,38.4c0-2.3,0.1-3.9,0.1-3.9h-3.1
	c0,0,0.1,1.9,0.1,3.9s-0.1,4.3-0.1,4.3h3.1C100.7,42.8,100.6,40.8,100.6,38.4z M111,42.9V39l5.9,4.1l0.2-0.1l0.5-8.4l-2.7-0.1v4
	l-5.9-4l-0.2,0.1l-0.5,8.3H111z M129.2,42.9c4.2,0,5.4-2.8,5.4-4.5c0-2.5-1.8-4.1-4.9-4.1c-3.7,0-5.4,2.4-5.4,4.6
	C124.5,40.9,125.9,42.9,129.2,42.9z M129.4,41.1c-1,0-1.8-0.7-1.8-2.3c0-1.4,0.8-2.6,2.1-2.6c1.2,0,1.8,0.8,1.8,2.3
	C131.5,40.2,130.7,41.1,129.4,41.1z"/>
<path class="st4" d="M42,42h-2c0,0,0-2.4-2.1-2.4S35.8,42,35.8,42H32v-0.5c0,0,2.1-3.5,5.5-3.5C40.9,38,42,42,42,42L42,42z"/>
<path class="st1" d="M55.9,26.3L66,9.8h0.2L76.8,26l-4.9,2.9l-2.3-3.8l-7.5,0.4l-1.7,3.4L55.9,26.3z M68.1,21.7L66,17.6L63.9,22
	L68.1,21.7z M85.1,28.2h-5.6l-0.1-17.4c0,0,6.9,0.1,9.1,0.3c3.7,0.5,5.7,1.8,5.7,4.1c0,3.2-3.2,4.9-3.2,4.9l5.2,5.4l-4.5,3.4
	L85.6,20c0,0,2.8-1.7,2.8-3.6c0-2.4-3.5-2.3-3.5-2.3L85.1,28.2z M112.7,28c-7.4,1.6-15.7-0.1-15.7-6.7c0-6.3,8.1-10.3,12.8-11
	l1.2,4.8c0,0-8.1,1.2-8.1,5.9c0,3.4,4.5,3.4,4.5,3.4v-4h5.4V28z M115.5,20.1c0-4.7,3.5-9.8,10.8-9.8c5.9,0,9.6,3.2,9.6,8.6
	c0,3.7-2.5,9.6-10.9,9.6C118.4,28.5,115.5,24.1,115.5,20.1z M129.7,19.1c0-3.2-1.5-5-3.9-5c-2.8,0-4.4,2.7-4.4,5.6
	c0,3.3,1.8,4.9,3.8,4.9C127.9,24.8,129.7,22.8,129.7,19.1z"/>
</svg>
