<?xml version="1.0" encoding="utf-8"?>
<!-- Generator: Adobe Illustrator 21.0.0, SVG Export Plug-In . SVG Version: 6.00 Build 0)  -->
<svg version="1.1" id="Слой_1" xmlns="http://www.w3.org/2000/svg" xmlns:xlink="http://www.w3.org/1999/xlink" x="0px" y="0px"
	 width="13px" height="20px" viewBox="0 0 13 20" style="enable-background:new 0 0 13 20;" xml:space="preserve">
<style type="text/css">
	.st0{fill:#FFA300;}
	.st1{fill:#FFCC00;}
</style>
<g id="arrow_x5F_left">
	<path class="st0" d="M12,0c0,0-5,7-12,10c7,3,12,10,12,10l1-1c0,0-2-6-6-9c4-3,6-9,6-9L12,0z"/>
	<path class="st1" d="M4,10c3.9-2.4,7-7.2,8.4-9.6L12,0c0,0-5,7-12,10c7,3,12,10,12,10l0.4-0.4C11,17.2,7.9,12.4,4,10z"/>
</g>
</svg>
