<?xml version="1.0" encoding="utf-8"?>
<!-- Generator: Adobe Illustrator 21.0.0, SVG Export Plug-In . SVG Version: 6.00 Build 0)  -->
<svg version="1.1" id="flag" xmlns="http://www.w3.org/2000/svg" xmlns:xlink="http://www.w3.org/1999/xlink" x="0px" y="0px"
	 width="26px" height="26px" viewBox="0 0 26 26" style="enable-background:new 0 0 26 26;" xml:space="preserve">
<style type="text/css">
	.st0{fill:#0052B4;}
	.st1{fill:#D80027;}
	.st2{fill:#FFDA44;}
</style>
<g id="flag_x5F_romania">
	<path id="b" class="st0" d="M8.5,0.8C3.5,2.6,0,7.4,0,13c0,5.6,3.5,10.4,8.5,12.2h3.8V0.8H8.5z"/>
	<path id="r" class="st1" d="M17.5,0.8l-3.8,0v24.4l3.8,0c5-1.8,8.5-6.6,8.5-12.2C26,7.4,22.5,2.6,17.5,0.8z"/>
	<path id="y" class="st2" d="M17.5,0.8C16.1,0.3,14.6,0,13,0c-1.6,0-3.1,0.3-4.5,0.8v24.4C9.9,25.7,11.4,26,13,26
		c1.6,0,3.1-0.3,4.5-0.8V0.8z"/>
</g>
</svg>
