<?xml version="1.0" encoding="utf-8"?>
<!-- Generator: Adobe Illustrator 21.0.0, SVG Export Plug-In . SVG Version: 6.00 Build 0)  -->
<svg version="1.1" id="Слой_1" xmlns="http://www.w3.org/2000/svg" xmlns:xlink="http://www.w3.org/1999/xlink" x="0px" y="0px"
	 width="640px" height="80px" viewBox="0 0 640 80" style="enable-background:new 0 0 640 80;" xml:space="preserve">
<style type="text/css">
	.st0{opacity:0.9;}
	.st1{fill-rule:evenodd;clip-rule:evenodd;fill:#191610;}
	.st2{fill:#2D2926;}
	.st3{fill-rule:evenodd;clip-rule:evenodd;fill:#2D2926;}
</style>
<g id="header_x5F_tournament">
	<g class="st0">
		<g>
			<polygon class="st1" points="40.4,79 1.4,40 40.4,1 599.6,1 638.6,40 599.6,79 			"/>
		</g>
		<g>
			<path class="st2" d="M599.2,2l38,38l-38,38H40.8l-38-38l38-38H599.2 M600,0H40L0,40l40,40h560l40-40L600,0L600,0z"/>
		</g>
	</g>
	<g>
		<path class="st3" d="M460,39l135-3l4,4l-4,4l-135-3V39z M440,31l152-8l-7,7l-145,2V31z M440,48l145,2l7,7l-152-8V48z M180,39
			L45,36l-4,4l4,4l135-3V39z M200,31L48,23l7,7l145,2V31z M200,48L55,50l-7,7l152-8V48z"/>
	</g>
</g>
</svg>
