<?xml version="1.0" encoding="utf-8"?><svg viewBox="0 0 512.01 512.01" xmlns="http://www.w3.org/2000/svg" xmlns:xlink="http://www.w3.org/1999/xlink"><style>:root>svg{display:none}:root>svg:target{display:block}</style><svg fill="none" viewBox="0 0 15 8" id="arrow" xmlns="http://www.w3.org/2000/svg"><path d="M.753 4.645h11.672l-2.64 2.253a.582.582 0 00-.003.912.844.844 0 001.065.002l3.932-3.355a.583.583 0 000-.914L10.847.188A.844.844 0 009.782.19a.582.582 0 00.003.912l2.64 2.253H.753C.337 3.355 0 3.644 0 4c0 .356.337.645.753.645z" fill="#8805A8"/></svg><svg fill="none" viewBox="0 0 12 6" id="arrow-down" xmlns="http://www.w3.org/2000/svg"><path d="M1 1l5 4 5-4" stroke="#333" stroke-width="2" stroke-linejoin="round"/></svg><svg fill="none" viewBox="0 0 206 200" id="chat" xmlns="http://www.w3.org/2000/svg"><path d="M29.212 154.072l.248-2.254-1.533-1.672C13.74 134.678 5 114.074 5 91.346 5 43.765 43.613 5 90.91 5c47.295 0 85.908 38.765 85.908 86.346 0 47.57-38.605 86.355-85.924 86.667-8.087-.001-15.599-1.202-23.192-3.339l-1.714-.482-1.633.71L25.05 191.98l4.163-37.908z" stroke="#8805A8" stroke-width="10"/><path d="M162.907 48.64c-36.833-16.806-80.103-.357-96.91 36.476-16.807 36.833-.357 80.103 36.476 96.91 18.952 8.583 39.336 8.225 57.216 1.073l30.652 15.197-2.044-35.938c4.291-5.006 7.867-10.728 10.728-17.165 16.807-36.475.715-79.745-36.118-96.552z" fill="#8805A8"/><path d="M164.789 125h-63.653v7.152h63.653V125zM164.789 107.955h-63.653v7.152h63.653v-7.152z" fill="#fff"/></svg><svg fill="none" viewBox="0 0 12 11" id="check" xmlns="http://www.w3.org/2000/svg"><path d="M12 1.313L10.54 0 4.781 7.617 1.184 4.47 0 6.08l5.053 4.42L12 1.313z" fill="#8805A8"/></svg><svg viewBox="0 0 496.124 496.124" id="checked-data" xmlns="http://www.w3.org/2000/svg"><g fill="#8805A8"><path d="M420.001 219.7c3.666 14.313 5.811 29.238 5.811 44.676 0 99.828-81.199 181.024-181.022 181.024-99.821 0-181.039-81.195-181.039-181.024 0-99.824 81.218-181.041 181.039-181.041 25.442 0 49.633 5.338 71.623 14.848l26.912-43.26c-29.949-14.15-63.27-22.307-98.535-22.307-127.793 0-231.764 103.971-231.764 231.76 0 127.779 103.971 231.748 231.764 231.748 127.774 0 231.743-103.969 231.743-231.748 0-35.516-8.271-69.062-22.599-99.178L420.001 219.7z"/><path d="M463.159 6.385c-19.811-12.32-45.882-6.279-58.217 13.533L236.88 289.985l-56.299-80.289c-13.389-19.104-39.775-23.729-58.879-10.338-19.1 13.408-23.742 39.756-10.336 58.877l93.002 132.633a42.306 42.306 0 0034.609 17.996c.379 0 .777 0 1.157-.018a42.276 42.276 0 0034.72-19.914L476.702 64.6c12.348-19.834 6.27-45.887-13.543-58.215z"/></g></svg><svg fill="none" viewBox="0 0 8 8" id="dot" xmlns="http://www.w3.org/2000/svg"><circle cx="4" cy="4" r="4" fill="#8805A8"/></svg><svg fill="none" viewBox="0 0 34 35" id="fb" xmlns="http://www.w3.org/2000/svg"><rect x=".365" y=".903" width="33.512" height="33.512" rx="16.756" fill="#418AD2"/><mask id="ga" maskUnits="userSpaceOnUse" x="0" y="0" width="34" height="35"><rect x=".365" y=".903" width="33.512" height="33.512" rx="16.756" fill="#8805A8"/></mask><g mask="url(#ga)"><path d="M24.727 11.126h2.447v-4.44c-.422-.061-1.874-.197-3.565-.197-3.529 0-5.946 2.312-5.946 6.561v3.911H13.77v4.964h3.893v12.49h4.774V21.926h3.736l.594-4.964h-4.33v-3.42c0-1.434.371-2.416 2.29-2.416z" fill="#F0F0F0"/></g></svg><svg fill="none" viewBox="0 0 22 21" id="feedback" xmlns="http://www.w3.org/2000/svg"><path d="M11 0C4.935 0 0 4.434 0 9.883c0 2.682 1.195 5.213 3.307 7.067l-.8 2.425c-.336 1.02.75 1.98 1.706 1.496l3.233-1.634c1.153.353 2.35.531 3.554.53 6.065 0 11-4.434 11-9.884S17.065 0 11 0zM6.111 11.118c-.242 0-.478-.072-.679-.208a1.248 1.248 0 01-.185-1.9 1.218 1.218 0 011.332-.268c.223.093.414.252.548.455a1.245 1.245 0 01-.152 1.56c-.229.231-.54.361-.864.361zm4.889 0c-.242 0-.478-.072-.679-.208a1.248 1.248 0 01-.185-1.9 1.218 1.218 0 011.332-.268c.223.093.414.252.548.455a1.245 1.245 0 01-.152 1.56c-.229.231-.54.361-.864.361zm4.889 0c-.242 0-.478-.072-.68-.208a1.248 1.248 0 01-.185-1.9 1.219 1.219 0 011.333-.268c.223.093.414.252.548.455a1.245 1.245 0 01-.152 1.56c-.23.231-.54.361-.864.361z" fill="#8805A8"/></svg><svg fill="none" viewBox="0 0 140 201" id="filler" xmlns="http://www.w3.org/2000/svg"><path d="M7.262 65.223h124.18l-50.108 71.721-.242 27.437-22.996-6.017.242-20.698L7.262 65.223zM15.492 0H0v58.003h15.492V0zM46.477 30.95H30.984v27.053h15.493V30.95zM139.432 36.15h-15.493v21.853h15.493V36.149zM108.445 23.683H92.953v34.32h15.492v-34.32zM77.461 15.789H61.97v42.214H77.46V15.789z" fill="#8805A8"/><path d="M116.096 150.758v-17.232l-9.151-3.129a49.534 49.534 0 00-6.1-14.536l4.357-8.472-12.345-12.082-8.52 4.188a50.558 50.558 0 00-26.386-7.413c-9.828 0-18.978 2.792-26.724 7.654L23.384 95.5 10.94 107.437l4.019 8.616a49.035 49.035 0 00-6.052 14.681L0 133.526v17.232l8.956 3.081c1.26 5.391 3.438 10.397 6.294 14.97l-4.212 7.942 12.2 12.226 8.424-4.043a51.126 51.126 0 0015.154 6.161l2.663 8.761 17.283.192 3.292-9.145c5.229-1.3 10.167-3.37 14.621-6.162l8.279 4.333 12.297-12.13-4.212-8.713c2.759-4.476 4.793-9.434 6.052-14.681l9.005-2.792zm-19.463-8.568c0 21.228-17.283 38.412-38.634 38.412-21.35 0-38.634-17.184-38.634-38.412 0-21.227 17.284-38.411 38.634-38.411 21.302 0 38.634 17.232 38.634 38.411z" fill="#8805A8"/></svg><svg fill="none" viewBox="0 0 211 200" id="graph" xmlns="http://www.w3.org/2000/svg"><path d="M196.855 199.676a1 1 0 001-1V75.568a1 1 0 00-1-1h-35.698a1 1 0 00-1 1v123.108a1 1 0 01-1 1h-10.428a1 1 0 01-1-1V125.28a1 1 0 00-1-1h-35.284a1 1 0 00-1 1v73.396a1 1 0 01-1 1H99.017a1 1 0 01-1-1v-98.252a1 1 0 00-1-1H61.733a1 1 0 00-1 1v98.252a1 1 0 01-1 1H49.305a1 1 0 01-1-1v-60.968a1 1 0 00-1-1H11.607a1 1 0 00-1 1v60.968a1 1 0 001 1h185.248z" fill="#8805A8"/><path d="M209.283 49.712a1 1 0 001-1V1a1 1 0 00-1-1h-48.126a1 1 0 00-1 1v10.428a1 1 0 001 1h25.485c.893 0 1.338 1.08.705 1.71l-57.553 57.155a1 1 0 01-1.411-.003L80.081 22.988a1 1 0 00-1.413-.001L.711 100.538a1 1 0 00-.002 1.416l7.373 7.372a1 1 0 001.412.002L78.668 40.56a1 1 0 011.412.002l48.302 48.302a1 1 0 001.412.002L196.15 22.91c.631-.627 1.705-.18 1.705.71v25.092a1 1 0 001 1h10.428z" fill="#8805A8"/></svg><svg viewBox="0 0 512.008 512.008" id="right-arrow" xmlns="http://www.w3.org/2000/svg"><path fill="#8805A8" d="M508.885 248.468L306.219 45.801c-21.803-21.803-57.28-21.803-79.083 0s-21.803 57.28 0 79.083l77.781 77.781H53.333C23.936 202.665 0 226.601 0 255.999s23.936 53.333 53.333 53.333h251.584l-77.781 77.781c-21.803 21.803-21.803 57.28 0 79.083 10.901 10.901 25.216 16.363 39.552 16.363s28.629-5.44 39.552-16.363l202.667-202.667c4.138-4.16 4.138-10.901-.022-15.061z"/></svg><svg version="1.1" id="social_facebook" x="0" y="0" xml:space="preserve" viewBox="0 0 30 30" xmlns="http://www.w3.org/2000/svg"><style>.lst0{fill:#fff}</style><path id="lsocial_x5F_facebook" class="lst0" d="M21.8 9.8l-.6 5.2h-4.1v15h-6V15H8.2V9.8H11V6.3C11 3.9 12.2 0 17.2 0h4.5v5.1h-3.3c-.6 0-1.2.3-1.2 1.5v3.2h4.6z"/></svg><svg viewBox="0 0 20 20" id="social_linkedin" xmlns="http://www.w3.org/2000/svg"><path d="M20 20h-4v-6.999c0-1.92-.847-2.991-2.366-2.991-1.653 0-2.634 1.116-2.634 2.991V20H7V7h4v1.462s1.255-2.202 4.083-2.202C17.912 6.26 20 7.986 20 11.558V20zM2.442 4.921A2.451 2.451 0 010 2.46 2.451 2.451 0 012.442 0a2.451 2.451 0 012.441 2.46 2.45 2.45 0 01-2.441 2.461zM0 20h5V7H0v13z" fill="#FFF" fill-rule="evenodd"/></svg><svg viewBox="0 0 20 20" id="social_skype" xmlns="http://www.w3.org/2000/svg"><path d="M11.897 16.37c3.929-.818 4.446-4.4 2.92-6.058-.73-.808-1.825-1.257-4.426-1.885-1.187-.276-3.434-.793-2.602-2.019.274-.45.959-.718 1.871-.763 3.144-.213 2.486 3.203 4.656 2.198 1.003-.493.912-2.109-.184-3.051-2.4-1.95-9.263-1.927-9.263 2.334 0 4.145 5.96 3.225 7.484 4.89.788.969-.055 2.53-2.556 2.425-2.842-.208-2.088-2.873-3.833-2.873-1.324 0-1.78 1.078-1.095 2.469 1.183 2.417 4.512 2.864 7.073 2.333h-.045zm1.232 3.455c-1.35-.441-1.284-.413-2.51-.359-4.831.226-8.565-2.801-9.766-6.91-.5-1.842.065-3.466-.501-5.25C-1.393 2.633 3.708-1.499 7.835.527c.366.18.594.225 2.009.225 1.278 0 1.78.044 2.418.225 2.875.717 5.203 2.557 6.434 5.115.776 1.57 1.05 3.187.868 5.026-.092.989-.092 1.078.136 1.661 1.424 4.114-2.471 8.11-6.526 7.046h-.045z" fill="#FFF" fill-rule="evenodd"/></svg><svg version="1.1" id="social_telegram" x="0" y="0" xml:space="preserve" viewBox="0 0 30 30" xmlns="http://www.w3.org/2000/svg"><style>.ost0{fill:#fff}</style><path id="osocial_x5F_telegram_1_" class="ost0" d="M28.1 2.7L.6 13.2c-.9.4-.9 1.6.1 1.9l7 2 2.6 8.1c.2.9 1.4 1.1 2 .5L16 22l7.1 5.1c.9.6 2.1.1 2.4-.9l4.5-22c.2-1-.9-1.9-1.9-1.5zm-3.5 4.8L11.9 18.7c-.1.1-.2.2-.2.4l-.5 4.4c0 .1-.2.1-.2 0l-2-6.4c-.1-.2 0-.6.2-.7l15-9.2c.4-.4.8.1.4.3z"/></svg><svg aria-hidden="true" data-prefix="fab" data-icon="twitter" class="psvg-inline--fa pfa-twitter pfa-w-16" viewBox="0 0 512 512" id="social_twitter" xmlns="http://www.w3.org/2000/svg"><path fill="#fff" d="M459.37 151.716c.325 4.548.325 9.097.325 13.645 0 138.72-105.583 298.558-298.558 298.558-59.452 0-114.68-17.219-161.137-47.106 8.447.974 16.568 1.299 25.34 1.299 49.055 0 94.213-16.568 130.274-44.832-46.132-.975-84.792-31.188-98.112-72.772 6.498.974 12.995 1.624 19.818 1.624 9.421 0 18.843-1.3 27.614-3.573-48.081-9.747-84.143-51.98-84.143-102.985v-1.299c13.969 7.797 30.214 12.67 47.431 13.319-28.264-18.843-46.781-51.005-46.781-87.391 0-19.492 5.197-37.36 14.294-52.954 51.655 63.675 129.3 105.258 216.365 109.807-1.624-7.797-2.599-15.918-2.599-24.04 0-57.828 46.782-104.934 104.934-104.934 30.213 0 57.502 12.67 76.67 33.137 23.715-4.548 46.456-13.32 66.599-25.34-7.798 24.366-24.366 44.833-46.132 57.827 21.117-2.273 41.584-8.122 60.426-16.243-14.292 20.791-32.161 39.308-52.628 54.253z"/></svg><svg version="1.1" id="social_viber" x="0" y="0" viewBox="0 0 32 32" xml:space="preserve" xmlns="http://www.w3.org/2000/svg"><style>.qst0{fill:none;stroke:#fff;stroke-width:2;stroke-linecap:round;stroke-linejoin:round;stroke-miterlimit:10}</style><g id="qPage-1_3_"><g id="qWhatsapp_1_" transform="translate(1 1)"><path id="qStroke-28_1_" class="qst0" d="M20.7 19.1c.3-.9.3-1.6.2-1.8-.1-.2-.3-.2-.7-.4-.4-.2-2.2-1.1-2.5-1.2-.3-.1-.7-.1-.9.3-.4.5-.7 1-1 1.3-.2.2-.6.3-.9.1-.4-.2-1.6-.6-3-1.8-1.1-1-1.8-2.2-2.1-2.6-.2-.4 0-.6.2-.8l.6-.6c.2-.2.3-.3.4-.6.1-.2 0-.5-.1-.7-.1-.2-.8-2-1.1-2.7-.2-.5-.4-.5-.8-.5-.1-.1-.3-.1-.4-.1-.5 0-1 .1-1.3.5-.4.4-1.3 1.3-1.3 3.1s1.3 3.6 1.5 3.8c.2.2 2.6 4 6.3 5.6 2.9 1.2 3.8 1.1 4.4 1 1-.3 2.2-1 2.5-1.9z"/></g></g><path class="qst0" d="M16 1C7.7 1 1 2.9 1 14c0 7.2 2.8 10.5 7 12v4.4c0 .6.7.9 1.2.5l3.9-3.9H16c8.3 0 15-1.9 15-13S24.3 1 16 1z"/><path id="q_Path_2" class="qst0" d="M15.5 11.2c1.3 0 2.3 1 2.3 2.3"/><path id="q_Path_3" class="qst0" d="M15.5 5c4.7 0 8.5 3.8 8.5 8.5"/><path id="q_Path_4" class="qst0" d="M15.5 8.1c3 0 5.4 2.4 5.4 5.4"/></svg><svg fill="none" viewBox="0 0 306 228" id="speaker" xmlns="http://www.w3.org/2000/svg"><mask id="ra" maskUnits="userSpaceOnUse" x="66" y="0" width="240" height="169"><path d="M220.656 168.601L78.043 131.544 66.254 2.406 296.454.16l9.545 167.318-85.343 1.123z" fill="#C4C4C4"/></mask><g mask="url(#ra)" fill="#8805A8"><path d="M238.67 135.259l-79.595 1.775 1.416 5.284c3.257 12.156 6.417 24.141-5.563 28.749l-2.613.871c-12.156 3.258-18.11-2.764-21.368-14.921l-5.354-19.983-28.078.599-10.953-40.878 123.43-68.521 28.678 107.025z"/><path d="M97.806 101.954l-13.715 7.613 3.712 14.064 15.224-.264-5.221-21.413z"/><ellipse cx="223.87" cy="82.012" rx="16.886" ry="17.851" transform="rotate(-15 223.87 82.012)"/></g><path stroke="#8805A8" stroke-width="7" d="M20.53 115.618l173.645 46.528-16.243 60.62L4.287 176.238z"/><ellipse cx="99.264" cy="169.06" rx="30.597" ry="30.103" transform="rotate(15 99.264 169.06)" fill="#8805A8"/><path d="M88.942 169.448l6.575 1.762-1.01 3.767a2.91 2.91 0 002.056 3.56l.96.257a2.91 2.91 0 002.679-4.986l-5.553-4.92a9.666 9.666 0 01-2.936-9.782c1.123-4.188 4.842-6.958 8.962-7.144l.867-3.238 6.575 1.761-.867 3.239c3.474 2.22 5.311 6.479 4.188 10.667l-.128.48-6.575-1.762.128-.48a2.908 2.908 0 00-2.055-3.559l-.96-.258a2.91 2.91 0 00-2.678 4.987l5.552 4.92a9.666 9.666 0 012.936 9.782c-1.123 4.188-4.842 6.958-8.962 7.144l-.867 3.238-3.288-.881-3.287-.881.867-3.238c-3.474-2.22-5.31-6.479-4.188-10.667l1.01-3.768z" fill="#fff"/><circle cx="55.024" cy="156.248" r="4.492" fill="#8805A8"/><circle cx="142.613" cy="183.199" r="4.492" fill="#8805A8"/></svg><svg fill="none" viewBox="0 0 35 35" id="telega" xmlns="http://www.w3.org/2000/svg"><rect x=".683" y=".903" width="33.512" height="33.512" rx="16.756" fill="#418AD2"/><path d="M14.356 20.502l-.388 4.99c.555 0 .796-.218 1.084-.48l2.603-2.274 5.393 3.61c.99.505 1.686.24 1.953-.831l3.54-15.167h.002c.313-1.338-.53-1.86-1.493-1.532L6.24 16.102c-1.42.504-1.399 1.227-.241 1.555l5.32 1.513 12.358-7.07c.581-.351 1.11-.156.675.196l-9.996 8.206z" fill="#F0F0F0"/></svg><svg fill="none" viewBox="0 0 34 35" id="vk" xmlns="http://www.w3.org/2000/svg"><rect y=".903" width="33.512" height="33.512" rx="16.756" fill="#418AD2"/><path d="M29.922 22.913c-.072-.106-.518-.955-2.663-2.7-2.245-1.826-1.943-1.53.761-4.688 1.647-1.924 2.306-3.098 2.1-3.6-.196-.48-1.408-.353-1.408-.353l-4.028.02s-.298-.035-.521.081c-.216.115-.355.38-.355.38s-.639 1.488-1.49 2.754c-1.795 2.671-2.514 2.812-2.807 2.646-.682-.386-.511-1.554-.511-2.382 0-2.589.447-3.668-.873-3.947-.44-.092-.761-.154-1.882-.164-1.438-.014-2.656.004-3.345.3-.459.196-.812.635-.596.66.266.03.87.142 1.19.524.413.492.398 1.6.398 1.6s.238 3.046-.554 3.425c-.545.26-1.29-.27-2.891-2.694-.82-1.241-1.44-2.614-1.44-2.614s-.118-.256-.331-.392c-.258-.166-.62-.22-.62-.22l-3.83.021s-.576.015-.787.234c-.187.195-.015.598-.015.598s3 6.148 6.395 9.248c3.115 2.841 6.65 2.655 6.65 2.655h1.602s.485-.047.731-.28c.228-.215.22-.617.22-.617s-.032-1.885.966-2.162c.984-.273 2.248 1.82 3.587 2.627 1.012.61 1.78.476 1.78.476l3.582-.044s1.873-.102.985-1.392z" fill="#F0F0F0"/></svg></svg>