<!-- Generated by IcoMoon.io -->
<svg version="1.1" xmlns="http://www.w3.org/2000/svg" width="40" height="40" viewBox="0 0 40 40">
<title>IronDog</title>
<path fill="#000" opacity="0.6" d="M40 20c0 11.046-8.954 20-20 20s-20-8.954-20-20c0-11.046 8.954-20 20-20s20 8.954 20 20z"></path>
<path fill="#eee" d="M8.067 30v-20h5.172v20h-5.172z"></path>
<path fill="#eee" d="M16.215 30v-20h8.38c6.285 0 10.804 3.778 10.804 9.985s-4.519 10.015-10.775 10.015h-8.41zM30.132 19.985c0-3.088-1.856-5.487-5.507-5.487h-3.262v11.004h3.232c3.502 0 5.537-2.549 5.537-5.517z"></path>
</svg>
