<!-- Generated by IcoMoon.io -->
<svg version="1.1" xmlns="http://www.w3.org/2000/svg" width="40" height="40" viewBox="0 0 40 40">
<title>Playson</title>
<path fill="#000" opacity="0.6" d="M40 20c0 11.046-8.954 20-20 20s-20-8.954-20-20c0-11.046 8.954-20 20-20s20 8.954 20 20z"></path>
<path fill="#ff0" d="M28.067 15.333l8.667 4.667-8.667 4.667v-9.333z"></path>
<path fill="#0c0" d="M19.4 20l8.667 4.667-8.667 4.667v-9.333z"></path>
<path fill="#09f" d="M19.4 10.667l8.667 4.667-8.667 4.667v-9.333z"></path>
<path fill="#f90" d="M10.733 24.667l8.667 4.667-8.667 4.667v-9.333z"></path>
<path fill="#f33" d="M10.733 15.333l8.667 4.667-8.667 4.667v-9.333z"></path>
<path fill="#f3f" d="M10.733 6l8.667 4.667-8.667 4.667v-9.333z"></path>
</svg>
