<?xml version="1.0" encoding="utf-8"?>
<!-- Generator: Adobe Illustrator 21.0.0, SVG Export Plug-In . SVG Version: 6.00 Build 0)  -->
<svg version="1.1" id="Слой_1" xmlns="http://www.w3.org/2000/svg" xmlns:xlink="http://www.w3.org/1999/xlink" x="0px" y="0px"
	 width="24px" height="18px" viewBox="0 0 24 18" style="enable-background:new 0 0 24 18;" xml:space="preserve">
<style type="text/css">
	.st0{fill:#CC0000;}
	.st1{fill:#EEEEEE;}
</style>
<g id="FlagTr">
	<rect class="st0" width="24" height="18"/>
	<polygon class="st1" points="12.9,7 14.1,8.5 16,8 14.8,9.5 16,11 14.1,10.5 12.9,12 12.9,10.1 11,9.5 12.9,8.9 	"/>
	<path class="st1" d="M10,13.1c-2.4,0-4.3-1.8-4.3-4.1S7.6,4.9,10,4.9c0.7,0,1.4,0.2,2,0.5C11,4.5,9.7,4,8.3,4C5.4,4,3,6.2,3,9
		s2.4,5,5.3,5c1.4,0,2.7-0.5,3.7-1.4C11.4,12.9,10.7,13.1,10,13.1z"/>
</g>
</svg>
