<svg width="24" height="24" viewBox="0 0 24 24" fill="none" xmlns="http://www.w3.org/2000/svg">
<path d="M18.2571 6.71444C18.0621 6.71069 17.8839 6.82694 17.8052 7.00507C17.7283 7.18507 17.7677 7.39319 17.9046 7.53194L21.7333 11.5201H0.971445C0.798945 11.5182 0.637695 11.6082 0.551445 11.7582C0.46332 11.9082 0.46332 12.0919 0.551445 12.2419C0.637695 12.3919 0.798945 12.4819 0.971445 12.4801H21.7333L17.9046 16.4682C17.7208 16.6594 17.7283 16.9632 17.9196 17.1469C18.1108 17.3307 18.4146 17.3251 18.5983 17.1319L23.5258 12.0001L18.5983 6.86819C18.5102 6.77257 18.3864 6.71819 18.2571 6.71444Z" fill="#392E40"/>
</svg>
