<svg width="22" height="22" viewBox="0 0 22 22" fill="none" xmlns="http://www.w3.org/2000/svg">
<path fill-rule="evenodd" clip-rule="evenodd" d="M11 22C17.0751 22 22 17.0751 22 11C22 4.92487 17.0751 0 11 0C4.92487 0 0 4.92487 0 11C0 17.0751 4.92487 22 11 22ZM8.34766 15.0469H4.4375V6.95312H8.23828C10.7351 6.95312 10.8223 8.35107 10.8223 8.96289C10.8223 10.0618 10.0942 10.4719 9.72852 10.6445C10.2258 10.7881 11.2051 11.2717 11.2051 12.6953C11.2051 14.9734 8.70996 15.0469 8.34766 15.0469ZM13.3516 8.44336V7.70508H16.373V8.44336H13.3516ZM7.88281 8.33398H6.21484V10.2207H8.01953C8.33398 10.2207 9.09961 10.1301 9.09961 9.26367C9.09961 8.30679 8.15498 8.32805 7.91722 8.33341C7.90317 8.33372 7.89159 8.33398 7.88281 8.33398ZM12.1758 11.957C12.1758 11.0974 12.6526 9.11328 14.9375 9.11328C16.9814 9.11328 17.6274 10.8359 17.5488 12.3125H13.666C13.666 12.7397 13.772 13.6934 14.9922 13.6934C15.7202 13.6934 16.103 13.1499 16.1543 12.9824H17.4668C17.2566 13.6318 16.7439 14.8008 14.9375 14.8008C14.2676 14.8008 12.1758 14.5085 12.1758 11.957ZM15.7305 10.5215C15.5544 10.3267 15.2605 10.2207 14.8965 10.2207C14.6606 10.2207 14.4658 10.2617 14.3086 10.3438C14.1548 10.4241 14.0215 10.5266 13.9258 10.6445C13.8301 10.7642 13.772 10.8923 13.7344 11.0273C13.6968 11.1589 13.6729 11.2786 13.666 11.3828H16.0723C16.0364 11.0051 15.9065 10.718 15.7305 10.5215ZM8.14258 11.4375H6.21484V13.666H8.11523H8.11608C8.29485 13.666 9.42773 13.666 9.42773 12.5996C9.42773 11.4973 8.52539 11.4375 8.14258 11.4375Z" fill="#FB4D01"/>
</svg>
