<svg width="24" height="24" viewBox="0 0 24 24" fill="none" xmlns="http://www.w3.org/2000/svg">
<path d="M12 0.959961C5.91218 0.959961 0.960022 5.9126 0.960022 12C0.960022 18.0873 5.91218 23.04 12 23.04C18.0879 23.04 23.04 18.0873 23.04 12C23.04 5.9126 18.0879 0.959961 12 0.959961ZM12.48 5.27996C13.6819 5.27996 14.4 7.9646 14.4 10.56C14.4 12.4718 13.9564 14.4457 13.1025 15.9131C13.3982 16.1896 13.6877 16.32 13.92 16.32C14.8541 16.32 15.4622 14.4962 15.8644 13.289C15.9484 13.037 16.2228 12.9032 16.4719 12.9853C16.7234 13.0693 16.8587 13.3403 16.7747 13.5918C16.2558 15.1485 15.5463 17.28 13.92 17.28C13.4981 17.28 13.0241 17.089 12.5681 16.695C11.8049 17.643 10.8106 18.24 9.60002 18.24C8.21282 18.24 6.72002 17.1888 6.72002 14.88C6.72002 12.2275 8.5301 11.52 9.60002 11.52C9.86018 11.52 10.2344 11.5898 10.606 11.7515C10.5757 11.3747 10.56 10.978 10.56 10.56C10.56 10.0195 10.6138 5.27996 12.48 5.27996ZM12.451 6.24371C12.115 6.33635 11.52 7.99724 11.52 10.56C11.52 11.3788 11.5831 12.1014 11.6906 12.7331C11.7002 12.7652 11.7061 12.7979 11.7085 12.8306C11.8827 13.7968 12.1623 14.545 12.4781 15.0965C13.1113 13.8298 13.44 12.1699 13.44 10.56C13.44 7.92764 12.7514 6.44387 12.451 6.24371ZM9.60002 12.48C9.27938 12.48 7.68002 12.5956 7.68002 14.88C7.68002 16.6512 8.71394 17.28 9.60002 17.28C10.5461 17.28 11.3273 16.7816 11.9316 15.9853C11.4405 15.2965 11.019 14.3253 10.7775 13.049C10.5164 12.6823 9.9293 12.48 9.60002 12.48Z" fill="#FB4D01"/>
</svg>
