<svg width="20" height="20" viewBox="0 0 20 20" fill="none" xmlns="http://www.w3.org/2000/svg">
<path d="M10.0752 0.820312C4.87263 0.820312 0.640625 5.05232 0.640625 10.2549C0.640625 15.4574 4.87263 19.6894 10.0752 19.6894C15.2777 19.6894 19.5097 15.4574 19.5097 10.2549C19.5097 5.05232 15.2777 0.820312 10.0752 0.820312ZM5.1528 6.56308H14.9975V7.04939C14.0704 7.85415 10.8972 10.6087 10.624 10.8469C10.3995 11.0419 10.1788 11.0752 10.0752 11.0752C9.97204 11.0752 9.75073 11.0425 9.52637 10.8469L9.52557 10.8461C9.26234 10.6173 6.31808 8.0726 5.1528 7.06541V6.56308ZM14.9975 8.13657V12.3828L12.4266 10.3686C13.423 9.50344 14.1162 8.90162 14.9975 8.13657ZM5.1528 8.15019C6.12086 8.98705 6.74885 9.53035 7.71813 10.3686L5.1528 12.3635V8.15019ZM8.35106 10.915C8.50655 11.0496 8.95103 11.434 8.98718 11.4654C9.37729 11.8055 9.79599 11.8956 10.0752 11.8956C10.3538 11.8956 10.7726 11.8063 11.1632 11.4662V11.4654C11.201 11.4324 11.6356 11.0553 11.7953 10.9166L14.9975 13.4243V13.9466H5.1528V13.4034L8.35106 10.915Z" fill="#392E40"/>
</svg>
