<svg width="76" height="76" viewBox="0 0 76 76" fill="none" xmlns="http://www.w3.org/2000/svg">
<path d="M37.9992 4.56006C25.4295 4.56006 15.1992 14.7904 15.1992 27.36C15.1992 36.7353 19.4327 41.2538 22.5142 44.555C24.4558 46.6391 25.8392 48.1353 25.8392 50.16V57.76H36.4792V35.5775L30.8267 29.9725C30.233 29.3788 30.233 28.3813 30.8267 27.7875C31.4205 27.1938 32.418 27.1938 33.0117 27.7875L37.9992 32.8225L42.9867 27.7875C43.5804 27.1938 44.5779 27.1938 45.1717 27.7875C45.7654 28.3813 45.7654 29.3788 45.1717 29.9725L39.5192 35.5775V57.76H50.1592V50.16C50.1592 47.2507 51.8395 45.4872 53.9592 43.2725C57.0111 40.0841 60.7992 36.1357 60.7992 27.36C60.7992 14.7904 50.5689 4.56006 37.9992 4.56006ZM25.8392 60.8V65.36C25.8392 67.8716 27.8876 69.92 30.3992 69.92H32.1567C32.8336 72.5384 35.173 74.48 37.9992 74.48C40.8255 74.48 43.1648 72.5384 43.8417 69.92H45.5992C48.1108 69.92 50.1592 67.8716 50.1592 65.36V60.8H25.8392Z" fill="#FE8E3F"/>
</svg>
