<svg width="81" height="80" viewBox="0 0 81 80" fill="none" xmlns="http://www.w3.org/2000/svg">
<g clip-path="url(#clip0_619_426)">
<path d="M40.4997 0C40.1453 0 39.7783 0.124261 39.4872 0.347932C38.9999 0.726929 27.5397 9.71725 27.5397 22.1185C27.5397 28.1142 29.4128 44.2992 30.5266 53.9792C30.7797 56.1973 30.9885 57.9928 31.1341 59.2976C31.4568 60.8695 32.7857 62.0313 34.3234 62.0313H46.6759C48.2137 62.0313 49.5299 60.8757 49.8653 59.1982C50.7006 52.9789 53.4597 29.2822 53.4597 22.1185C53.4597 9.71725 41.9995 0.726929 41.5122 0.347932C41.2211 0.124261 40.8541 0 40.4997 0ZM40.4997 17.496C43.1828 17.496 45.3597 19.6333 45.3597 22.2677C45.3597 24.902 43.1828 27.0393 40.4997 27.0393C37.8166 27.0393 35.6397 24.902 35.6397 22.2677C35.6397 19.6333 37.8166 17.496 40.4997 17.496ZM26.6791 48.8099L23.0847 53.0348C22.8379 53.3206 22.6797 53.7058 22.6797 54.0786V60.4408C22.6797 60.9565 22.9581 61.4349 23.3884 61.7331C23.6669 61.9257 23.9706 62.0313 24.2997 62.0313C24.4832 62.0313 24.6794 61.9941 24.8566 61.9319L28.1978 60.739C28.1092 60.4719 28.0016 60.2233 27.9447 59.9437V59.7946L27.8941 59.6455C27.7612 58.4588 27.6093 56.8745 27.3878 54.9236L27.2866 54.3271C27.0967 52.6558 26.9069 50.7795 26.6791 48.8099ZM54.3709 48.9093C53.8457 53.5443 53.3901 57.5206 53.1053 59.6455V59.7449L53.0547 59.8443C52.9914 60.1612 52.9028 60.4408 52.8016 60.739L56.1428 61.9319C56.32 61.9941 56.5162 62.0313 56.6997 62.0313C57.0288 62.0313 57.3325 61.9257 57.6109 61.7331C58.0413 61.4349 58.3197 60.9565 58.3197 60.4408V54.0786C58.3197 53.7058 58.2121 53.3206 57.9653 53.0348L54.3709 48.9093ZM34.8803 63.5722C34.8107 63.5846 34.7411 63.6032 34.6778 63.6219C34.1526 63.7275 33.7223 64.0817 33.5134 64.5663C33.0262 65.6784 32.3997 67.0204 32.3997 68.6918C32.3997 71.5311 34.3298 73.9294 36.0447 75.8492C37.7596 77.7691 39.4872 79.1794 39.4872 79.1794C40.082 79.6454 40.9173 79.6454 41.5122 79.1794C41.5122 79.1794 43.2398 77.7691 44.9547 75.8492C46.6696 73.9294 48.5997 71.5311 48.5997 68.6918C48.5997 67.1571 48.2137 65.6101 47.3341 64.3177C46.8278 63.5908 45.8216 63.3982 45.0813 63.8953C44.3409 64.3923 44.1447 65.3802 44.6509 66.1071C45.0686 66.716 45.3597 67.6852 45.3597 68.6918C45.3597 69.8287 44.0498 72.0592 42.5247 73.7616C41.5122 74.8924 41.0692 75.2031 40.4997 75.7001C39.9302 75.2031 39.4872 74.8924 38.4747 73.7616C36.9496 72.0592 35.6397 69.8287 35.6397 68.6918C35.6397 67.8157 36.013 66.9707 36.5003 65.8586C36.7598 65.3367 36.7155 64.7216 36.3801 64.2432C36.0384 63.771 35.4688 63.51 34.8803 63.5722Z" fill="#FE8E3F" stroke="#FE8E3F" stroke-width="3"/>
</g>
<defs>
<clipPath id="clip0_619_426">
<rect width="81" height="79.5273" fill="white"/>
</clipPath>
</defs>
</svg>
