<svg width="22" height="22" viewBox="0 0 22 22" fill="none" xmlns="http://www.w3.org/2000/svg">
<path d="M11.0752 1.35352C5.87304 1.35352 1.64062 5.58552 1.64062 10.7881C1.64062 15.9906 5.87304 20.2226 11.0752 20.2226C16.2773 20.2226 20.5097 15.9906 20.5097 10.7881C20.5097 5.58552 16.2773 1.35352 11.0752 1.35352ZM8.20378 14.89H6.56299V8.73707H8.20378V14.89ZM7.38339 7.50648C6.93012 7.50648 6.56299 7.13935 6.56299 6.68608C6.56299 6.23281 6.93012 5.86569 7.38339 5.86569C7.83666 5.86569 8.20378 6.23281 8.20378 6.68608C8.20378 7.13935 7.83666 7.50648 7.38339 7.50648ZM15.9975 14.89H14.3567V12.839V11.8136C14.3567 11.0239 13.7107 10.3779 12.9211 10.3779C12.1314 10.3779 11.4854 11.0239 11.4854 11.8136V14.89H9.84457V8.73707H11.4854V9.48199C11.9645 9.02175 12.6142 8.73707 13.3313 8.73707C14.8039 8.73707 15.9975 9.93075 15.9975 11.4034V14.89Z" fill="#392E40"/>
</svg>
