<svg width="53" height="53" viewBox="0 0 53 53" fill="none" xmlns="http://www.w3.org/2000/svg">
<path d="M10.7684 32.8203L9.13672 43.5839L19.9003 41.9522L10.7684 32.8203Z" stroke="#FC5F02" stroke-width="2.56716" stroke-miterlimit="10" stroke-linecap="round" stroke-linejoin="round"/>
<path d="M41.9522 19.9003L43.5839 9.13672L32.8203 10.7684L41.9522 19.9003Z" stroke="#FC5F02" stroke-width="2.56716" stroke-miterlimit="10" stroke-linecap="round" stroke-linejoin="round"/>
<path d="M41.9522 32.8203L32.8203 41.9522L43.5839 43.5839L41.9522 32.8203Z" stroke="#FC5F02" stroke-width="2.56716" stroke-miterlimit="10" stroke-linecap="round" stroke-linejoin="round"/>
<path d="M19.9003 10.7684L9.13672 9.13672L10.7684 19.9003L19.9003 10.7684Z" stroke="#FC5F02" stroke-width="2.56716" stroke-miterlimit="10" stroke-linecap="round" stroke-linejoin="round"/>
<path d="M41.9531 32.6875L50.7209 26.2307L41.9531 19.7739V32.6875Z" stroke="#FC5F02" stroke-width="2.56716" stroke-miterlimit="10" stroke-linecap="round" stroke-linejoin="round"/>
<path d="M32.8073 10.7678L26.3505 2L19.8867 10.7678H32.8073Z" stroke="#FC5F02" stroke-width="2.56716" stroke-miterlimit="10" stroke-linecap="round" stroke-linejoin="round"/>
<path d="M19.8867 41.9521L26.3505 50.7199L32.8073 41.9521H19.8867Z" stroke="#FC5F02" stroke-width="2.56716" stroke-miterlimit="10" stroke-linecap="round" stroke-linejoin="round"/>
<path d="M10.7678 19.7739L2 26.2307L10.7678 32.6875V19.7739Z" stroke="#FC5F02" stroke-width="2.56716" stroke-miterlimit="10" stroke-linecap="round" stroke-linejoin="round"/>
<path d="M10.6211 19.7739L19.3889 26.2307L10.6211 32.6875V19.7739Z" stroke="#FC5F02" stroke-width="2.56716" stroke-miterlimit="10" stroke-linecap="round" stroke-linejoin="round"/>
<path d="M42.0928 19.7739L33.332 26.2307L42.0928 32.6875V19.7739Z" stroke="#FC5F02" stroke-width="2.56716" stroke-miterlimit="10" stroke-linecap="round" stroke-linejoin="round"/>
<path d="M19.8867 42.0996L26.3505 33.3389L32.8073 42.0996H19.8867Z" stroke="#FC5F02" stroke-width="2.56716" stroke-miterlimit="10" stroke-linecap="round" stroke-linejoin="round"/>
<path d="M19.8867 10.6348L26.3505 19.3955L32.8073 10.6348H19.8867Z" stroke="#FC5F02" stroke-width="2.56716" stroke-miterlimit="10" stroke-linecap="round" stroke-linejoin="round"/>
<path d="M33.1421 19.4448H19.5703V33.0166H33.1421V19.4448Z" stroke="#FC5F02" stroke-width="2.56716" stroke-miterlimit="10" stroke-linecap="round" stroke-linejoin="round"/>
<path d="M32.9732 26.0767L26.3477 19.4512L19.7221 26.0767L26.3477 32.7022L32.9732 26.0767Z" stroke="#FC5F02" stroke-width="2.56716" stroke-miterlimit="10" stroke-linecap="round" stroke-linejoin="round"/>
<path d="M26.3494 32.6945C28.5554 30.6286 30.7683 28.2125 32.9743 26.1396C28.5554 26.1396 24.1435 26.1396 19.7246 26.1396C21.9306 28.2125 24.1365 30.6286 26.3494 32.6945Z" stroke="#FC5F02" stroke-width="2.56716" stroke-miterlimit="10" stroke-linecap="round" stroke-linejoin="round"/>
<path d="M26.3494 19.4941C24.1435 21.56 21.9306 23.9761 19.7246 26.0489C24.1435 26.0489 28.5554 26.0489 32.9743 26.0489C30.7613 23.9761 28.5554 21.56 26.3494 19.4941Z" stroke="#FC5F02" stroke-width="2.56716" stroke-miterlimit="10" stroke-linecap="round" stroke-linejoin="round"/>
<path d="M19.5723 19.4941L10.7695 19.7743L19.5093 26.091L19.5723 19.4941Z" stroke="#FC5F02" stroke-width="2.56716" stroke-miterlimit="10" stroke-linecap="round" stroke-linejoin="round"/>
<path d="M33.1289 19.438L42.0087 19.7881L33.1919 26.2449L33.1289 19.438Z" stroke="#FC5F02" stroke-width="2.56716" stroke-miterlimit="10" stroke-linecap="round" stroke-linejoin="round"/>
<path d="M10.7695 32.6872L19.5723 33.0164L19.6003 26.2305L10.7695 32.6872Z" stroke="#FC5F02" stroke-width="2.56716" stroke-miterlimit="10" stroke-linecap="round" stroke-linejoin="round"/>
<path d="M41.8475 32.6177L33.3179 33.0169L33.2969 26.231L41.8475 32.6177Z" stroke="#FC5F02" stroke-width="2.56716" stroke-miterlimit="10" stroke-linecap="round" stroke-linejoin="round"/>
</svg>
