<svg width="24" height="24" viewBox="0 0 24 24" fill="none" xmlns="http://www.w3.org/2000/svg">
<path d="M12 0.959961C5.9126 0.959961 0.960022 5.91254 0.960022 12C0.960022 16.7444 3.96846 20.7985 8.17748 22.3569C8.05625 21.2761 8.07527 19.5062 8.2753 18.6492C8.46263 17.8442 9.4855 13.5194 9.4855 13.5194C9.4855 13.5194 9.17671 12.901 9.17671 11.9877C9.17671 10.5524 10.0083 9.48148 11.0438 9.48148C11.9246 9.48148 12.3493 10.1427 12.3493 10.935C12.3493 11.821 11.7861 13.1443 11.4943 14.3708C11.251 15.3984 12.0095 16.2363 13.0225 16.2363C14.8567 16.2363 16.2666 14.3021 16.2666 11.5106C16.2666 9.03972 14.4915 7.3119 11.9564 7.3119C9.02032 7.3119 7.29688 9.51441 7.29688 11.7908C7.29688 12.6775 7.63824 13.6285 8.06492 14.1461C8.14907 14.2485 8.16137 14.3379 8.13638 14.4418C8.05819 14.7677 7.88434 15.4687 7.8498 15.6124C7.80494 15.8017 7.70015 15.841 7.50486 15.7501C6.21568 15.1499 5.40989 13.2658 5.40989 11.7519C5.40989 8.49673 7.77477 5.50669 12.229 5.50669C15.8093 5.50669 18.5913 8.05733 18.5913 11.4673C18.5913 15.0241 16.3483 17.8863 13.236 17.8863C12.1902 17.8863 11.2074 17.3429 10.8712 16.7011C10.8712 16.7011 10.3536 18.6714 10.2278 19.1545C10.0106 19.9899 9.08091 21.7206 8.61421 22.5067C9.68185 22.8516 10.8191 23.04 12 23.04C18.0877 23.04 23.04 18.0876 23.04 12C23.04 5.91254 18.0877 0.959961 12 0.959961Z" fill="#FB4D01"/>
</svg>
