<svg width="76" height="76" viewBox="0 0 76 76" fill="none" xmlns="http://www.w3.org/2000/svg">
<path d="M15.1041 0.807617L0.806641 15.1051L23.5116 37.7151L37.7616 23.4651L35.5766 21.2801L29.9716 26.9326L27.7866 24.7476L33.4391 19.1426L31.0166 16.7201L26.9316 20.8526L24.7466 18.6676L28.8791 14.5826L26.4566 12.1601L20.8516 17.8126L18.6666 15.6276L24.3191 10.0226L21.8966 7.60012L17.8116 11.7326L15.6266 9.54762L19.7591 5.46262L15.1041 0.807617ZM65.5491 3.04012C63.6551 3.04012 61.7669 3.7823 60.3241 5.22512L57.6166 7.88512L25.6491 39.8526L6.74414 58.8051C6.44133 59.007 6.22164 59.3098 6.12664 59.6601L3.08664 71.0601C2.95008 71.5826 3.10445 72.1348 3.48445 72.5148C3.86445 72.8948 4.41664 73.0492 4.93914 72.9126L16.3391 69.8726C16.5945 69.7895 16.826 69.6411 17.0041 69.4451L17.0991 69.3976C17.1704 69.3264 17.2357 69.2432 17.2891 69.1601L68.1141 18.3826V18.3351L69.1116 17.3376C69.8954 16.5539 70.7741 15.6751 70.7741 15.6751C73.6598 12.7836 73.6598 8.11074 70.7741 5.22512C69.3254 3.7823 67.4432 3.04012 65.5491 3.04012ZM65.5491 6.08012C66.7129 6.08012 67.8173 6.54324 68.6366 7.36262C70.3348 9.06074 70.3348 11.8395 68.6366 13.5376C68.4407 13.7336 68.2804 13.8939 68.1141 14.0601L61.9391 7.88512L62.4616 7.36262C63.2869 6.5373 64.3854 6.08012 65.5491 6.08012ZM53.8166 39.1876L49.7316 43.2726L48.4491 41.9901L38.2366 52.2026L60.8941 74.8601L75.1916 60.5626L72.0566 57.4276L67.9716 61.5126L65.7866 59.3751L69.9191 55.2426L67.4966 52.8676L61.8916 58.4726L59.7066 56.3351L65.3591 50.6826L62.9366 48.3076L58.8516 52.3926L56.6666 50.2551L60.7991 46.1226L58.3766 43.7476L52.7716 49.3526L50.5866 47.2151L56.2391 41.5626L53.8166 39.1876ZM8.40664 62.9851L13.0141 67.5926L6.69664 69.3026L8.40664 62.9851Z" fill="#FE8E3F"/>
</svg>
