<svg width="99" height="99" viewBox="0 0 99 99" fill="none" xmlns="http://www.w3.org/2000/svg">
<path d="M49.5 0C22.2061 0 0 22.2061 0 49.5C0 76.796 22.2061 99 49.5 99C76.796 99 99 76.796 99 49.5C99 22.2061 76.796 0 49.5 0ZM72.8016 31.34L48.0279 67.8473L28.6648 49.8788C27.7932 49.0717 27.7415 47.7094 28.5507 46.8378C29.3578 45.964 30.7223 45.9166 31.5918 46.7237L47.2811 61.281L69.2397 28.9209C69.9091 27.9374 71.2477 27.6834 72.2291 28.3484C73.2148 29.0156 73.4709 30.3543 72.8016 31.34Z" fill="url(#paint0_linear_755_1716)"/>
<defs>
<linearGradient id="paint0_linear_755_1716" x1="49.5" y1="0" x2="49.5" y2="99" gradientUnits="userSpaceOnUse">
<stop stop-color="#FC6403"/>
<stop offset="1" stop-color="#FD9243"/>
</linearGradient>
</defs>
</svg>
