<?xml version="1.0" encoding="utf-8"?>
<!-- Generator: Adobe Illustrator 21.0.0, SVG Export Plug-In . SVG Version: 6.00 Build 0)  -->
<svg version="1.1" id="mailru" xmlns="http://www.w3.org/2000/svg" xmlns:xlink="http://www.w3.org/1999/xlink" x="0px" y="0px"
	 width="30px" height="30px" viewBox="0 0 30 30" style="enable-background:new 0 0 30 30;" xml:space="preserve">
<style type="text/css">
	.st0{fill:#EEEEEE;}
</style>
<path id="social_x5F_mailru" class="st0" d="M18.9,15c0,2.2-1.8,3.9-3.9,3.9c-2.2,0-3.9-1.8-3.9-3.9c0-2.2,1.8-3.9,3.9-3.9
	C17.2,11.1,18.9,12.8,18.9,15 M15,2C7.8,2,2,7.8,2,15s5.8,13,13,13c2.6,0,5.2-0.8,7.3-2.3l0,0l-1.8-2l0,0c-1.7,1.1-3.6,1.6-5.6,1.6
	C9.3,25.3,4.7,20.7,4.7,15S9.3,4.7,15,4.7S25.3,9.3,25.3,15c0,0.7-0.1,1.5-0.2,2.2c-0.3,1.3-1.3,1.8-2,1.7c-0.7-0.1-1.5-0.6-1.5-1.8
	V15c0-3.6-2.9-6.6-6.6-6.6S8.4,11.4,8.4,15s2.9,6.6,6.6,6.6c1.8,0,3.4-0.7,4.7-1.9c0.7,1.1,1.9,1.8,3.2,1.9c1.1,0.1,2.1-0.2,3-0.9
	c0.8-0.6,1.4-1.4,1.7-2.5c0.1-0.2,0.1-0.5,0.1-0.5l0,0C27.9,16.8,28,16,28,15C28,7.8,22.2,2,15,2"/>
</svg>
