<?xml version="1.0" encoding="utf-8"?>
<!-- Generator: Adobe Illustrator 21.0.0, SVG Export Plug-In . SVG Version: 6.00 Build 0)  -->
<svg version="1.1" id="telegram" xmlns="http://www.w3.org/2000/svg" xmlns:xlink="http://www.w3.org/1999/xlink" x="0px" y="0px"
	 width="30px" height="30px" viewBox="0 0 30 30" style="enable-background:new 0 0 30 30;" xml:space="preserve">
<style type="text/css">
	.st0{fill:#EEEEEE;}
</style>
<path id="social_x5F_telegram_1_" class="st0" d="M28.1,2.7L0.6,13.2c-0.9,0.4-0.9,1.6,0.1,1.9l7,2l2.6,8.1c0.2,0.9,1.4,1.1,2,0.5
	L16,22l7.1,5.1c0.9,0.6,2.1,0.1,2.4-0.9L30,4.2C30.2,3.2,29.1,2.3,28.1,2.7L28.1,2.7z M24.6,7.5L11.9,18.7c-0.1,0.1-0.2,0.2-0.2,0.4
	l-0.5,4.4c0,0.1-0.2,0.1-0.2,0l-2-6.4c-0.1-0.2,0-0.6,0.2-0.7l15-9.2C24.6,6.8,25,7.3,24.6,7.5L24.6,7.5z"/>
</svg>
