<?xml version="1.0" encoding="utf-8"?>
<!-- Generator: Adobe Illustrator 21.0.0, SVG Export Plug-In . SVG Version: 6.00 Build 0)  -->
<svg version="1.1" id="Слой_1" xmlns="http://www.w3.org/2000/svg" xmlns:xlink="http://www.w3.org/1999/xlink" x="0px" y="0px"
	 width="71px" height="71px" viewBox="0 0 71 71" style="enable-background:new 0 0 71 71;" xml:space="preserve">
<style type="text/css">
	.st0{fill-rule:evenodd;clip-rule:evenodd;fill:#660000;}
	.st1{fill-rule:evenodd;clip-rule:evenodd;fill:#CC0000;}
	.st2{fill:#EEEEEE;}
</style>
<g id="new_x5F_en">
	<polygon class="st0" points="33,0 3,0 0,3 6,3 68,65 68,71 71,68 71,38 	"/>
	<path class="st1" d="M5,0h30l36,36v30L5,0z"/>
	<path id="newen" class="st2" d="M44.4,17.2l-1.7-1.7l-3.2,3.2c-0.9,0.9-1.8,2-2.7,3.2l3.8-8.4l-2.3-2.3L30.5,19l1.7,1.7l2.9-2.9
		c0.6-0.6,1.1-1.2,1.6-1.7c0.4-0.5,0.9-1.1,1.4-1.8l-3.8,8.3l2.4,2.4L44.4,17.2z M45.8,18.6L38,26.5l4.8,4.8l1.3-1.3l-3-3l2-2
		l2.4,2.4l1.3-1.3l-2.4-2.4l1.9-1.9l2.8,2.8l1.5-1.1L45.8,18.6z M58.7,31.6l-7.4,5.5l5.4-7.5l-1.9-1.9L47.3,33l5.7-7.2L51.1,24
		l-6.6,9.1l2.4,2.4l7-5l-5,7l2.4,2.4l9.2-6.5L58.7,31.6z"/>
</g>
</svg>
