<?xml version="1.0" encoding="utf-8"?>
<!-- Generator: Adobe Illustrator 21.0.0, SVG Export Plug-In . SVG Version: 6.00 Build 0)  -->
<svg version="1.1" id="Слой_1" xmlns="http://www.w3.org/2000/svg" xmlns:xlink="http://www.w3.org/1999/xlink" x="0px" y="0px"
	 width="71px" height="71px" viewBox="0 0 71 71" style="enable-background:new 0 0 71 71;" xml:space="preserve">
<style type="text/css">
	.st0{fill-rule:evenodd;clip-rule:evenodd;fill:#660000;}
	.st1{fill-rule:evenodd;clip-rule:evenodd;fill:#CC0000;}
	.st2{fill:#EEEEEE;}
</style>
<g id="new_x5F_ru">
	<polygon class="st0" points="33,0 3,0 0,3 6,3 68,65 68,71 71,68 71,38 	"/>
	<path class="st1" d="M5,0h30l36,36v30L5,0z"/>
	<path id="newru" class="st2" d="M28.9,14l5.9-5.9l-1.4-1.4L31.1,9l-1.8-1.8L31.6,5l-1.4-1.4l-5.9,5.9l1.4,1.4l2.5-2.5l1.8,1.8
		l-2.5,2.5L28.9,14z M38.4,11.5c-0.5-0.5-1.1-0.9-1.8-1c-0.6-0.1-1.3-0.1-2,0.2c-0.7,0.3-1.3,0.7-2,1.3c-0.7,0.7-1.1,1.3-1.3,2
		c-0.2,0.7-0.3,1.3-0.1,2c0.2,0.6,0.5,1.2,1.1,1.8c0.5,0.5,1.1,0.9,1.8,1.1c0.6,0.2,1.3,0.1,2-0.1c0.7-0.3,1.3-0.7,2-1.3
		c1-1,1.5-2,1.6-3C39.6,13.2,39.2,12.3,38.4,11.5L38.4,11.5z M37.4,12.5c0.4,0.4,0.5,0.9,0.4,1.4c-0.1,0.5-0.6,1.1-1.3,1.9
		c-0.7,0.7-1.4,1.2-1.9,1.3c-0.5,0.1-1,0-1.4-0.4c-0.4-0.4-0.5-0.9-0.4-1.4c0.1-0.5,0.6-1.2,1.3-1.9c0.7-0.7,1.3-1.2,1.9-1.3
		C36.5,12,37,12.1,37.4,12.5L37.4,12.5z M42.1,21c0.4,0.2,0.8,0.3,1.2,0.3c0.4,0,0.8-0.2,1.1-0.5c0.5-0.5,0.7-1.1,0.5-1.8
		c-0.2-0.7-0.7-1.4-1.5-2.2l-1.7-1.7L35.8,21l1.9,1.9c0.8,0.8,1.6,1.3,2.3,1.5c0.7,0.2,1.4,0,2-0.7c0.4-0.4,0.6-0.9,0.6-1.3
		C42.6,21.9,42.4,21.5,42.1,21L42.1,21z M42.5,17.9c0.3,0.3,0.5,0.6,0.6,0.9c0.1,0.3,0,0.5-0.3,0.7c-0.5,0.5-1,0.4-1.6-0.2l-0.5-0.5
		l1.4-1.4L42.5,17.9z M38.8,21.9l-0.5-0.5l1.6-1.6l0.6,0.6c0.7,0.7,0.7,1.3,0.2,1.8c-0.3,0.3-0.6,0.4-0.9,0.3
		C39.5,22.5,39.1,22.3,38.8,21.9L38.8,21.9z M51.5,24.9l-1.6-1.6L43.6,26c0.5-0.3,0.9-0.7,1.2-0.9c0.3-0.3,0.8-0.7,1.2-1.1l2.2-2.2
		L47,20.3l-5.9,5.9l1.7,1.7l6.2-2.8c-0.9,0.6-1.7,1.3-2.5,2.1l-2.2,2.2l1.4,1.4L51.5,24.9z M51.3,36.4l5.9-5.9l-1.4-1.4l-2.3,2.3
		l-1.8-1.8l2.3-2.3L52.6,26l-5.9,5.9l1.4,1.4l2.5-2.5l1.8,1.8L49.9,35L51.3,36.4z M61.5,34.9L58,36l-0.6-0.6l2.3-2.3l-1.4-1.4
		l-5.9,5.9l1.4,1.4l2.6-2.6l0.6,0.6l-1.3,3.8l1.5,1.5l1.6-4.8l4.1-1.2L61.5,34.9z M62.2,47.4l4.1-7.7L64.6,38L57,42.1l1.4,1.4l1.6-1
		l1.7,1.7l-1,1.6L62.2,47.4z M64.4,39.9l-2,3.2l-1.2-1.2L64.4,39.9z"/>
</g>
</svg>
