<?xml version="1.0" encoding="utf-8"?>
<!-- Generator: Adobe Illustrator 21.0.0, SVG Export Plug-In . SVG Version: 6.00 Build 0)  -->
<svg version="1.1" id="ico_x5F_WinCoins" xmlns="http://www.w3.org/2000/svg" xmlns:xlink="http://www.w3.org/1999/xlink" x="0px"
	 y="0px" viewBox="0 0 10 14" enable-background="new 0 0 10 14" xml:space="preserve">
<g id="ico_x5F_WinCoins_1_">
	<path fill="#FF9900" d="M0,11.7L0,11.7C0.3,13,2.4,14,5,14s4.7-1,5-2.3h0V11H0V11.7z"/>
	<ellipse fill="#FFCC00" cx="5" cy="11" rx="5" ry="2"/>
	<path fill="#FF9900" d="M0,9.7L0,9.7C0.3,11,2.4,12,5,12s4.7-1,5-2.3h0V9H0V9.7z"/>
	<ellipse fill="#FFCC00" cx="5" cy="9" rx="5" ry="2"/>
	<path fill="#FF9900" d="M0,7.7L0,7.7C0.3,9,2.4,10,5,10s4.7-1,5-2.3h0V7H0V7.7z"/>
	<ellipse fill="#FFCC00" cx="5" cy="7" rx="5" ry="2"/>
	<path fill="#FF9900" d="M0,5.7L0,5.7C0.3,7,2.4,8,5,8s4.7-1,5-2.3h0V5H0V5.7z"/>
	<ellipse fill="#FFCC00" cx="5" cy="5" rx="5" ry="2"/>
	<path fill="#FF9900" d="M0,3.7L0,3.7C0.3,5,2.4,6,5,6s4.7-1,5-2.3h0V3H0V3.7z"/>
	<ellipse fill="#FFCC00" cx="5" cy="3" rx="5" ry="2"/>
</g>
</svg>
