<?xml version="1.0" encoding="utf-8"?>
<!-- Generator: Adobe Illustrator 21.0.0, SVG Export Plug-In . SVG Version: 6.00 Build 0)  -->
<svg version="1.1" id="Hot" xmlns="http://www.w3.org/2000/svg" xmlns:xlink="http://www.w3.org/1999/xlink" x="0px" y="0px"
	 width="76px" height="30px" viewBox="0 0 76 30" style="enable-background:new 0 0 76 30;" xml:space="preserve">
<style type="text/css">
	.st0{fill-rule:evenodd;clip-rule:evenodd;fill:#242229;}
	.st1{fill-rule:evenodd;clip-rule:evenodd;fill:#FFCC00;}
	.st2{fill-rule:evenodd;clip-rule:evenodd;fill:#FFFFFF;}
	.st3{fill:#242229;}
</style>
<g id="Hot_1_">
	<path id="Shadow" class="st0" d="M16,9.4C21.5,4.2,33.7,0,41,0s21,5.6,25,9.4C70,13.1,76,30,76,30H6C6,30,10.5,14.5,16,9.4z"/>
	<path id="Bg" class="st1" d="M10,9.4C15.5,4.2,27.7,0,35,0s21,5.6,25,9.4C64,13.1,70,30,70,30H0C0,30,4.5,14.5,10,9.4z"/>
	<path id="Light" class="st2" d="M2.3,30h4.4c1.8-5,4.9-12.4,8.3-15.6C20.5,9.2,32.7,5,40,5c1.3,0,2.9,0.2,4.6,0.5
		C41.4,4.6,38.4,4,36,4c-7.3,0-19.5,4.2-25,9.4C7.3,16.8,4,25,2.3,30z"/>
	<path id="TxtHot" class="st3" d="M24.7,11.3c-0.1,0.1-0.1,0.3-0.1,0.4c0,1.4,0.1,2.8,0.1,4.1c-0.9,0.3-1.7,0.6-2.5,0.9
		c0-1.3-0.1-2.6-0.1-3.9c0-0.1,0-0.2-0.1-0.3c-0.1-0.1-0.1-0.1-0.2,0c-0.8,0.5-1.7,1-2.5,1.5c-0.1,0.1-0.2,0.2-0.2,0.3
		C19,14.6,19,14.7,19,14.8c0.1,3.6,0.2,7.2,0.3,10.8c0,0.1,0,0.2,0.1,0.3c0.1,0.1,0.1,0.1,0.2,0.1c0.9-0.1,1.7-0.2,2.6-0.4
		c0.1,0,0.2-0.1,0.2-0.2c0.1-0.1,0.1-0.2,0.1-0.4c0-1.3-0.1-2.7-0.1-4c0.8-0.2,1.7-0.4,2.5-0.6c0,1.4,0.1,2.9,0.1,4.3
		c0,0.1,0,0.3,0.1,0.4c0.1,0.1,0.2,0.1,0.2,0.1c0.9-0.1,1.8-0.2,2.6-0.2c0.1,0,0.2-0.1,0.2-0.2c0.1-0.1,0.1-0.3,0.1-0.4
		c-0.1-4.6-0.2-9.2-0.4-13.8c0-0.2,0-0.3-0.1-0.4c-0.1-0.1-0.2-0.1-0.3-0.1c-0.9,0.3-1.8,0.6-2.7,0.9C24.9,11.1,24.8,11.2,24.7,11.3
		z M39,10.8C38.1,9.6,36.9,9,35.4,9c-1.5,0-2.7,0.7-3.7,1.9c-0.9,1.2-1.3,2.9-1.3,5.1c0,0.8,0,1.7,0,2.5c0,1.5,0.3,2.7,0.7,3.7
		c0.5,1,1,1.6,1.7,2.1c0.7,0.4,1.5,0.6,2.5,0.6c1,0,1.8-0.2,2.5-0.6c0.7-0.4,1.3-1.1,1.7-2.1c0.4-1,0.7-2.2,0.7-3.7
		c0-0.9,0-1.8,0-2.6C40.4,13.7,40,12,39,10.8z M34.4,13.9c0.2-0.3,0.6-0.5,1-0.5c0.4,0,0.8,0.2,1,0.5c0.2,0.3,0.4,0.8,0.4,1.4
		c0,1.1,0,2.2,0,3.4c0,0.6-0.1,1-0.4,1.3c-0.2,0.3-0.6,0.5-1,0.5c-0.4,0-0.7-0.1-1-0.5c-0.2-0.3-0.4-0.7-0.4-1.3c0-1.1,0-2.3,0-3.4
		C34,14.7,34.1,14.2,34.4,13.9z M42.7,10c-0.1,0.1-0.1,0.2-0.1,0.4c0,1.2-0.1,2.3-0.1,3.5c0,0.2,0,0.3,0.1,0.4
		c0.1,0.1,0.2,0.2,0.2,0.2c0.9,0.2,1.9,0.4,2.8,0.7c-0.1,3.1-0.2,6.3-0.3,9.4c0,0.2,0,0.3,0.1,0.4c0.1,0.1,0.1,0.2,0.2,0.2
		c0.9,0.1,1.8,0.2,2.6,0.3c0.1,0,0.2,0,0.2-0.1c0.1-0.1,0.1-0.2,0.1-0.3c0.1-2.9,0.2-5.8,0.3-8.7c0.9,0.4,1.8,0.8,2.6,1.2
		c0.1,0,0.2,0,0.2,0c0.1-0.1,0.1-0.1,0.1-0.3c0-0.9,0-1.8,0.1-2.7c0-0.1,0-0.3-0.1-0.4c-0.1-0.1-0.1-0.2-0.2-0.3
		C49,12,46,10.7,42.9,9.9C42.8,9.9,42.8,9.9,42.7,10z"/>
</g>
</svg>
