<?xml version="1.0" encoding="utf-8"?>
<!-- Generator: Adobe Illustrator 21.0.0, SVG Export Plug-In . SVG Version: 6.00 Build 0)  -->
<svg version="1.1" id="Слой_1" xmlns="http://www.w3.org/2000/svg" xmlns:xlink="http://www.w3.org/1999/xlink" x="0px" y="0px"
	 width="48px" height="48px" viewBox="0 0 48 48" style="enable-background:new 0 0 48 48;" xml:space="preserve">
<style type="text/css">
	.st0{fill-rule:evenodd;clip-rule:evenodd;fill:#242229;}
	.st1{fill-rule:evenodd;clip-rule:evenodd;fill:#00CCFF;}
	.st2{fill-rule:evenodd;clip-rule:evenodd;fill:#FFFFFF;}
</style>
<g id="ArrowLeft_x5F_Normal">
	<path id="Shadow_2_" class="st0" d="M3,23l19,25V35c0,0,15.5,7.5,23-4v-8L3,18V23z"/>
	<path id="Arrow_2_" class="st1" d="M3,18l19,22V28c0,0,15.5,6.5,23-5c-0.5-7.7-4-15.8-9-21c-5.6,11.6-15,11-15,11L19,0L3,18z"/>
	<path id="Light_2_" class="st2" d="M44.7,23.4l-0.8,1.1C42.6,18.2,40.1,14.2,36,10c-5.6,11.6-15,11-15,11v-5c0,0,9.4,0.6,15-11
		C41,10.2,44.7,19.1,44.7,23.4z M19,3L4.3,19.5l2.2,2.5L19,8V3z"/>
</g>
</svg>
