<?xml version="1.0" encoding="utf-8"?>
<!-- Generator: Adobe Illustrator 21.0.0, SVG Export Plug-In . SVG Version: 6.00 Build 0)  -->
<svg version="1.1" id="Слой_1" xmlns="http://www.w3.org/2000/svg" xmlns:xlink="http://www.w3.org/1999/xlink" x="0px" y="0px"
	 width="34px" height="34px" viewBox="0 0 34 34" style="enable-background:new 0 0 34 34;" xml:space="preserve">
<style type="text/css">
	.st0{fill:#242229;}
	.st1{fill:#FF0066;}
	.st2{fill:#FFFFFF;}
	.st3{fill-rule:evenodd;clip-rule:evenodd;fill:#242229;}
	.st4{fill-rule:evenodd;clip-rule:evenodd;fill:#FFFFFF;}
</style>
<g id="Favorite_x5F_Delete">
	<path id="Shadow_1_" class="st0" d="M24,4c-7,0-10,8-10,8s-4-3-7-3s-7,1-7,7c0,11,17,18,22,18c1,0,2-1,2-2c0-8,8-11,8-19
		C32,9,31,4,24,4z"/>
	<path id="Heart" class="st1" d="M24,0c-7,0-10,8-10,8s-4-3-7-3s-7,1-7,7c0,11,17,18,22,18c1,0,2-1,2-2c0-8,8-11,8-19
		C32,5,31,0,24,0z"/>
	<path id="Light_1_" class="st2" d="M16,12l-1-2c0-3,5.1-8,9-8c2,0,4,1,4,1C21,2,18,8,16,12z M8,9c3,0,3.7,0.1,5,1
		c-1.4-2.1-3.3-3-6-3c-3.9,0-7,4-7,7c0,0,1.4,3.3,1.4,3.3S2,9,8,9z"/>
	<path id="Shadow" class="st3" d="M18,31l4,3l3.7-4.4l4.5,2.9L34,28v-4h-3l3-3v-4l-16,2.6v4l3,2.4h-3V31z"/>
	<path id="Light" class="st4" d="M18,26l3.9,4l3.8-4.4l4.5,2.9L34,24l-4.5-2.8L34,17l-5.1-3l-3.7,3.9L22,15.2l-4,4.4l3.6,3.2L18,26z
		"/>
</g>
</svg>
