<?xml version="1.0" encoding="utf-8"?>
<!-- Generator: Adobe Illustrator 21.0.0, SVG Export Plug-In . SVG Version: 6.00 Build 0)  -->
<svg version="1.1" id="Слой_1" xmlns="http://www.w3.org/2000/svg" xmlns:xlink="http://www.w3.org/1999/xlink" x="0px" y="0px"
	 width="32px" height="48px" viewBox="0 0 32 48" style="enable-background:new 0 0 32 48;" xml:space="preserve">
<style type="text/css">
	.st0{fill-rule:evenodd;clip-rule:evenodd;fill:#242229;}
	.st1{fill-rule:evenodd;clip-rule:evenodd;fill:#00CCFF;}
	.st2{fill-rule:evenodd;clip-rule:evenodd;fill:#FFFFFF;}
</style>
<g id="Refresh_1_">
	<path id="Shadow" class="st0" d="M16.9,26.5L6,37.2L16.9,48v-5.9c16.8,0,15.1-21.5,15.1-21.5l-4-1c0,0-1,12.7-11.1,12.7V26.5z
		 M15.2,25.5L26,14.8L15.2,4v5.9C-1.7,9.9,0.1,31.4,0.1,31.4l4,1c0,0,1-12.7,11.1-12.7V25.5z"/>
	<path id="Refresh" class="st1" d="M16.9,22.5L6,33.2L16.9,44v-5.9c16.8,0,15.1-21.5,15.1-21.5l-4-1c0,0-1,12.7-11.1,12.7V22.5z
		 M15.2,21.5L26,10.8L15.2,0v5.9C-1.7,5.9,0.1,27.4,0.1,27.4l4,1c0,0,1-12.7,11.1-12.7V21.5z"/>
	<path id="Light" class="st2" d="M16,4l6,6h-6c0,0-5,0-8,3s-5,6-5,6s0.7-3.2,3-6c4-5,10-6,10-6V4z M19,32c6,0,9-7,9-7s-2,3-5,4
		s-7,1-7,1v-3l-5,5C11,32,14.5,32,19,32z"/>
</g>
</svg>
