<?xml version="1.0" encoding="utf-8"?>
<!-- Generator: Adobe Illustrator 21.0.0, SVG Export Plug-In . SVG Version: 6.00 Build 0)  -->
<svg version="1.1" id="Слой_1" xmlns="http://www.w3.org/2000/svg" xmlns:xlink="http://www.w3.org/1999/xlink" x="0px" y="0px"
	 width="58px" height="80px" viewBox="0 0 58 80" style="enable-background:new 0 0 58 80;" xml:space="preserve">
<style type="text/css">
	.st0{fill:#ACACAC;}
	.st1{fill:#674AA3;}
	.st2{fill:#4D3284;}
	.st3{fill:#FF9900;}
	.st4{fill:#FFCC00;}
</style>
<g id="Gift">
	<polygon id="Shadow_1_" class="st0" points="8,71.2 0,73.9 38.2,80 58,69.8 51.9,68.8 	"/>
	<polygon id="_x34_" class="st1" points="38.7,18.4 1.1,25.5 2.3,34.4 3.7,35.4 8.2,73 38.2,76 51.7,70.8 55,37.1 56.1,36.2 
		57.7,29.2 	"/>
	<polygon id="_x33_" class="st2" points="38.7,18.4 38.8,28.8 38.3,30 38.2,76 51.7,70.8 55,37.1 56.1,36.2 57.7,29.2 	"/>
	<path id="_x32_" class="st3" d="M51.8,25.9l-0.9,8L50,35l-2.4,37.4l-4.1,1.6l2.2-40.7l0.7-1.2l0.6-8.7L51.8,25.9z M19.5,22l3.5-0.7
		c-4.4-4.2-7.5-9.5-7.5-9.5c1.5-3,7.7-5.1,7.7-5.1c2.9,3.3,3.8,10.6,4.1,13.8l2.2-0.4c0.8-13.7-3.7-20-3.7-20
		C14.6,2.4,8.7,9.8,8.7,9.8C12.1,17.3,16.8,20.6,19.5,22z M37.8,1.1c0,0-5.6,5.3-7.3,18.7l2.5-0.5c1.1-3.5,3.1-8.9,6.1-11.2
		c0,0,6.4,2.6,7.4,5.8c0,0-2.1,3.9-5.5,5.7l4,2.3c2.8-1.5,5.6-4.1,7.8-8C52.8,14,48.3,5.6,37.8,1.1z"/>
	<path id="_x31_" class="st4" d="M22.7,21.4l0.8,9.8l0.8,1.1l2.5,42.6l-8-0.8l-3.1-40.5l-0.7-1.1l-1-9.4L22.7,21.4z M23.2,6.7
		c2.9,3.3,3.8,10.6,4.1,13.8l2.2-0.4c0.8-13.7-3.7-20-3.7-20C14.6,2.4,8.7,9.8,8.7,9.8C14.1,5.4,23.2,6.7,23.2,6.7z M52.8,14
		c-6.9-5.7-13.7-5.8-13.7-5.8c-2.9,2.3-5,7.7-6.1,11.2l-2.5,0.5c1.7-13.4,7.3-18.7,7.3-18.7C48.3,5.6,52.8,14,52.8,14z"/>
	<polygon id="Shadow" class="st2" points="2.3,34.4 3.7,35.4 38.3,30 55,37.1 56.1,36.2 38.8,28.8 	"/>
</g>
</svg>
