<?xml version="1.0" encoding="utf-8"?>
<!-- Generator: Adobe Illustrator 21.0.0, SVG Export Plug-In . SVG Version: 6.00 Build 0)  -->
<svg version="1.1" id="Слой_1" xmlns="http://www.w3.org/2000/svg" xmlns:xlink="http://www.w3.org/1999/xlink" x="0px" y="0px"
	 width="30px" height="28px" viewBox="0 0 30 28" style="enable-background:new 0 0 30 28;" xml:space="preserve">
<style type="text/css">
	.st0{fill:#674AA3;}
</style>
<path id="Calendar" class="st0" d="M23.5,15c-3.6,0-6.5,2.9-6.5,6.5c0,3.6,2.9,6.5,6.5,6.5c3.6,0,6.5-2.9,6.5-6.5
	C30,17.9,27.1,15,23.5,15z M23.9,26.3v-0.6c0-0.2-0.2-0.4-0.4-0.4c-0.2,0-0.4,0.2-0.4,0.4v0.6c-2.3-0.2-4.2-2.1-4.4-4.4h0.6
	c0.2,0,0.4-0.2,0.4-0.4c0-0.2-0.2-0.4-0.4-0.4h-0.6c0.2-2.3,2.1-4.2,4.4-4.4v0.6c0,0.2,0.2,0.4,0.4,0.4c0.2,0,0.4-0.2,0.4-0.4v-0.6
	c2.3,0.2,4.2,2.1,4.4,4.4h-0.6c-0.2,0-0.4,0.2-0.4,0.4c0,0.2,0.2,0.4,0.4,0.4h0.6C28.1,24.2,26.3,26.1,23.9,26.3z M26.6,21.5
	c0,0.3-0.3,0.6-0.6,0.6h-1.5c-0.2,0.3-0.5,0.5-0.9,0.5c-0.6,0-1.1-0.5-1.1-1.1c0-0.1,0-0.3,0.1-0.4l-1.4-1.9
	c-0.2-0.3-0.1-0.7,0.1-0.9c0.3-0.2,0.7-0.1,0.9,0.1l1.4,1.9c0,0,0,0,0,0c0.4,0,0.7,0.2,0.9,0.5h1.5C26.3,20.9,26.6,21.2,26.6,21.5z
	 M4.2,6.5V2.1C4.2,0.9,5.1,0,6.2,0c1.1,0,2.1,0.9,2.1,2.1v4.5c0,1.1-0.9,2.1-2.1,2.1C5.1,8.6,4.2,7.7,4.2,6.5z M16.8,6.5V2.1
	c0-1.1,0.9-2.1,2.1-2.1c1.1,0,2.1,0.9,2.1,2.1v4.5c0,1.1-0.9,2.1-2.1,2.1C17.7,8.6,16.8,7.7,16.8,6.5z M9,16.3
	c0,0.6-0.5,1.1-1.1,1.1H6c-0.6,0-1.1-0.5-1.1-1.1v-2c0-0.6,0.5-1.1,1.1-1.1h2c0.6,0,1.1,0.5,1.1,1.1V16.3z M14.6,16.3
	c0,0.6-0.5,1.1-1.1,1.1h-2c-0.6,0-1.1-0.5-1.1-1.1v-2c0-0.6,0.5-1.1,1.1-1.1h2c0.6,0,1.1,0.5,1.1,1.1V16.3z M17.1,13.2h2
	c0.6,0,1.1,0.5,1.1,1.1v0.2c-1.3,0.6-2.4,1.6-3.2,2.8c-0.5-0.1-0.9-0.5-0.9-1v-2C16,13.7,16.5,13.2,17.1,13.2L17.1,13.2z M8,18.6
	C8.5,18.6,9,19,9,19.6v2c0,0.6-0.5,1.1-1.1,1.1H6c-0.6,0-1.1-0.5-1.1-1.1v-2c0-0.6,0.5-1.1,1.1-1.1H8z M14.6,19.6v2
	c0,0.6-0.5,1.1-1.1,1.1h-2c-0.6,0-1.1-0.5-1.1-1.1v-2c0-0.6,0.5-1.1,1.1-1.1h2C14.1,18.6,14.6,19,14.6,19.6z M19.1,28
	c-0.1,0-0.3,0-0.4,0H6.4C2.9,28,0,25.1,0,21.6V4h3v2.5c0,1.8,1.5,3.3,3.3,3.3c1.8,0,3.3-1.5,3.3-3.3V4h6v2.5c0,1.8,1.5,3.3,3.3,3.3
	c1.8,0,3.3-1.5,3.3-3.3V4h3v9.8c-0.5-0.1-1-0.2-1.5-0.2c-0.6,0-1.2,0.1-1.8,0.2v-2.7H3.3v10.4c0,1.7,1.4,3.1,3.1,3.1h10
	C17,26,17.9,27.1,19.1,28z"/>
</svg>
