<?xml version="1.0" encoding="utf-8"?>
<!-- Generator: Adobe Illustrator 22.1.0, SVG Export Plug-In . SVG Version: 6.00 Build 0)  -->
<svg version="1.1" id="Social" xmlns="http://www.w3.org/2000/svg" xmlns:xlink="http://www.w3.org/1999/xlink" x="0px" y="0px"
	 width="44px" height="44px" viewBox="0 0 44 44" style="enable-background:new 0 0 44 44;" xml:space="preserve">
<style type="text/css">
	.st0{fill:#232229;}
	.st1{fill:#164885;}
	.st2{fill:#F99E1C;}
</style>
<g id="Mailru_1_">
	<polygon id="Shadow_3_" class="st0" points="42,42 2,44 5,4 40,6 	"/>
	<polygon id="Color_3_" class="st1" points="42,38 2,40 5,0 40,2 	"/>
	<path id="Mailru" class="st2" d="M26.2,20c0,2.3-1.9,4.2-4.2,4.2s-4.2-1.9-4.2-4.2s1.9-4.2,4.2-4.2S26.2,17.7,26.2,20 M22,6
		C14.3,6,8,12.3,8,20s6.3,14,14,14c2.8,0,5.6-0.8,7.9-2.4l0,0L28,29.3l0,0c-1.8,1.2-3.9,1.8-6,1.8c-6.1,0-11.1-5-11.1-11.1
		S15.9,8.9,22,8.9s11.1,5,11.1,11.1c0,0.8-0.1,1.6-0.3,2.4c-0.4,1.4-1.4,1.9-2.1,1.8c-0.8-0.1-1.7-0.6-1.7-1.9v-1.1V20
		c0-3.9-3.2-7.1-7.1-7.1s-7.1,3.2-7.1,7.1s3.2,7.1,7.1,7.1c1.9,0,3.7-0.7,5-2.1c0.8,1.2,2.1,2,3.5,2.1c0.1,0,0.3,0,0.4,0
		c1,0,2-0.3,2.8-1c0.8-0.6,1.5-1.6,1.8-2.7c0.1-0.2,0.2-0.6,0.2-0.6l0,0C35.9,22,36,21.1,36,20C36,12.3,29.7,6,22,6"/>
</g>
</svg>
