<?xml version="1.0" encoding="utf-8"?>
<!-- Generator: Adobe Illustrator 21.0.0, SVG Export Plug-In . SVG Version: 6.00 Build 0)  -->
<svg version="1.1" id="Слой_1" xmlns="http://www.w3.org/2000/svg" xmlns:xlink="http://www.w3.org/1999/xlink" x="0px" y="0px"
	 width="40px" height="40px" viewBox="0 0 40 40" style="enable-background:new 0 0 40 40;" xml:space="preserve">
<style type="text/css">
	.st0{fill:#242229;}
	.st1{fill:#FFCC00;}
	.st2{fill:#FFFFFF;}
</style>
<g>
	<path class="st0" d="M27,0c-5,0-5.5,1.1-8.8,4.3C15,1,15,0,9,0S0,5,0,13c0,10,17.7,24.5,18.3,24.9l2.4,0.1C21.3,37.6,38,26,38,18
		C38,5,32,0,27,0z"/>
	<path class="st1" d="M33.7,13.8C31.9,22,17.5,32.3,17.5,32.3S3.6,21.2,2.2,13C0.7,4.7,9.4-3.7,18.1,7.3
		C27.3-3.2,35.6,5.7,33.7,13.8z"/>
	<path class="st2" d="M8,15c-2.3-0.7-4-2.9-4-5.4C4,6.5,6.5,4,9.7,4C11.4,4,13,4.8,14,6c-0.5-0.2-1.1-0.3-1.7-0.3
		c-3.1,0-5.7,2.5-5.7,5.6C6.6,12.8,7.1,14,8,15z M22.6,11.4c0-3.1,2.5-5.6,5.7-5.6c0.6,0,1.2,0.1,1.7,0.3c-1-1.2-2.6-2-4.3-2
		C22.5,4,20,6.5,20,9.6c0,2.5,1.7,4.7,4,5.4C23.1,14,22.6,12.8,22.6,11.4z"/>
</g>
</svg>
