<?xml version="1.0" encoding="utf-8"?>
<!-- Generator: Adobe Illustrator 21.0.0, SVG Export Plug-In . SVG Version: 6.00 Build 0)  -->
<svg version="1.1" id="Слой_1" xmlns="http://www.w3.org/2000/svg" xmlns:xlink="http://www.w3.org/1999/xlink" x="0px" y="0px"
	 width="40px" height="40px" viewBox="0 0 40 40" style="enable-background:new 0 0 40 40;" xml:space="preserve">
<style type="text/css">
	.st0{fill:#242229;}
	.st1{fill:#FFCC00;}
	.st2{fill:#FFFFFF;}
</style>
<g>
	<path class="st0" d="M35.9,20c0-5-3-9.6-3.8-10.6c-2.9-3.6-8.2-4.7-12.5-2.7c-0.3-1-0.9-2-1.6-2.9C16,1.3,14,0,9.9,0C3,0,0,5.5,0,8
		c0,6,2.9,9.1,3.6,10.1C2.7,19.2,2,21.5,2,23c0,9,4,13,11,13c3,0,7-1.7,7.1-1.8l0.9,1c-0.3,0.6-0.5,1-0.6,1L23,39l12.5-8.6l-2.7-5
		C34.5,24,35.9,22,35.9,20z"/>
	<path class="st1" d="M28.8,20.9c3.6-2.4,4.3-7.1,1.7-10.4c-2.6-3.3-7.7-4-11.2-1.5c-0.5,0.3-0.9,0.7-1.3,1.2
		c0.2-1.8-0.2-3.7-1.5-5.3c-2.6-3.3-7.7-4-11.2-1.5c-3.6,2.4-4.3,7.1-1.7,10.4c1.3,1.6,3.1,2.6,5.1,2.9C8.1,16.8,7.5,17,7,17.4
		c-3.6,2.4-4.3,7.1-1.7,10.4c2.6,3.3,7.7,4,11.2,1.5c2.2-1.5,3.3-3.9,3.2-6.2c3.7,7,0.1,10.7,0.1,10.7l6.3-4.3l6.3-4.3
		c0,0-4.8,2.1-11-3.2C23.8,22.7,26.6,22.4,28.8,20.9z"/>
	<path class="st2" d="M8,14c-2.3-0.7-4-2.9-4-5.4C4,5.5,6.5,3,9.7,3C11.4,3,13,3.8,14,5c-0.5-0.2-1.1-0.3-1.7-0.3
		c-3.1,0-5.7,2.5-5.7,5.6C6.6,11.8,7.1,13,8,14z M8.6,25.4c0-3.1,2.5-5.6,5.7-5.6c0.6,0,1.2,0.1,1.7,0.3c-1-1.2-2.6-2-4.3-2
		C8.5,18,6,20.5,6,23.6c0,2.5,1.7,4.7,4,5.4C9.1,28,8.6,26.8,8.6,25.4z M20.6,16.4c0-3.1,2.5-5.6,5.7-5.6c0.6,0,1.2,0.1,1.7,0.3
		c-1-1.2-2.6-2-4.3-2c-3.1,0-5.7,2.5-5.7,5.6c0,2.5,1.7,4.7,4,5.4C21.1,19,20.6,17.8,20.6,16.4z"/>
</g>
</svg>
