<svg xmlns="http://www.w3.org/2000/svg" width="18" height="17.109" viewBox="0 0 18 17.109">
  <g id="home_6_" data-name="home (6)" transform="translate(0 -12.675)">
    <g id="Group_12754" data-name="Group 12754" transform="translate(0 12.675)">
      <g id="Group_12753" data-name="Group 12753">
        <path id="Path_13737" data-name="Path 13737" d="M17.7,20.277,9.622,12.918a.919.919,0,0,0-1.243,0L.3,20.277a.923.923,0,0,0,.622,1.605h1.29v7.373a.529.529,0,0,0,.529.529H7.17a.529.529,0,0,0,.529-.529V24.778h2.6v4.477a.529.529,0,0,0,.529.529h4.426a.529.529,0,0,0,.529-.529V21.882h1.29a.923.923,0,0,0,.622-1.605Z" transform="translate(0 -12.675)"/>
      </g>
    </g>
    <g id="Group_12756" data-name="Group 12756" transform="translate(12.251 13.704)">
      <g id="Group_12755" data-name="Group 12755">
        <path id="Path_13738" data-name="Path 13738" d="M347.433,42.73h-3.46l3.975,3.614v-3.1A.515.515,0,0,0,347.433,42.73Z" transform="translate(-343.973 -42.73)"/>
      </g>
    </g>
  </g>
</svg>
