<svg id="login" xmlns="http://www.w3.org/2000/svg" width="28.788" height="28.788" viewBox="0 0 28.788 28.788">
  <path id="Path_14" data-name="Path 14" d="M15.893,28.8H3.3A3.3,3.3,0,0,1,0,25.5V3.307A3.3,3.3,0,0,1,3.3.008H15.893a3.3,3.3,0,0,1,3.3,3.3V9.9a.9.9,0,1,1-1.8,0v-6.6a1.5,1.5,0,0,0-1.5-1.5H3.3a1.5,1.5,0,0,0-1.5,1.5V25.5A1.5,1.5,0,0,0,3.3,27H15.893a1.5,1.5,0,0,0,1.5-1.5V18.9a.9.9,0,1,1,1.8,0v6.6A3.3,3.3,0,0,1,15.893,28.8Zm0,0" transform="translate(0 -0.008)" fill="#b5b5b5"/>
  <path id="Path_15" data-name="Path 15" d="M188.96,241.807H171.568a.9.9,0,0,1,0-1.8H188.96a.9.9,0,0,1,0,1.8Zm0,0" transform="translate(-161.072 -226.514)" fill="#b5b5b5"/>
  <path id="Path_16" data-name="Path 16" d="M395.571,166.034a.9.9,0,0,1-.636-1.537l4.162-4.162-4.162-4.162a.9.9,0,1,1,1.273-1.273l4.8,4.8a.9.9,0,0,1,0,1.273l-4.8,4.8A.893.893,0,0,1,395.571,166.034Zm0,0" transform="translate(-372.481 -145.943)" fill="#b5b5b5"/>
</svg>
