<svg xmlns="http://www.w3.org/2000/svg" width="18" height="18.001" viewBox="0 0 18 18.001">
  <g id="logout" transform="translate(-0.014)">
    <g id="Group_12752" data-name="Group 12752" transform="translate(0.014)">
      <g id="Group_12751" data-name="Group 12751" transform="translate(0)">
        <path id="Path_13735" data-name="Path 13735" d="M306.795,152.3a.826.826,0,0,0-.177-.267l-2.452-2.452a.818.818,0,0,0-1.156,1.156l1.057,1.057H299.5a.818.818,0,1,0,0,1.635h4.568l-1.057,1.057a.818.818,0,1,0,1.156,1.156l2.452-2.452a.809.809,0,0,0,.177-.267A.819.819,0,0,0,306.795,152.3Z" transform="translate(-288.857 -144.326)"/>
        <path id="Path_13736" data-name="Path 13736" d="M12.381,10.5a.739.739,0,0,0-.727.75V15H8.744V3a.748.748,0,0,0-.519-.719L5.7,1.5h5.955V5.25a.728.728,0,1,0,1.455,0V.75A.739.739,0,0,0,12.381,0H.741A.631.631,0,0,0,.667.014a.709.709,0,0,0-.1.018.721.721,0,0,0-.21.093C.342.136.322.136.307.148S.3.161.293.166A.738.738,0,0,0,.1.4a.626.626,0,0,0-.02.063A.727.727,0,0,0,.022.641a.481.481,0,0,0,0,.065c0,.015-.01.029-.01.043v15a.744.744,0,0,0,.585.735l7.275,1.5A.657.657,0,0,0,8.016,18a.713.713,0,0,0,.461-.17.76.76,0,0,0,.266-.58V16.5h3.637a.739.739,0,0,0,.727-.75v-4.5A.739.739,0,0,0,12.381,10.5Z" transform="translate(-0.014 0)"/>
      </g>
    </g>
  </g>
</svg>
