<?xml version="1.0" encoding="UTF-8"?>
<!DOCTYPE svg PUBLIC "-//W3C//DTD SVG 1.1//EN" "http://www.w3.org/Graphics/SVG/1.1/DTD/svg11.dtd">
<!-- Creator: CorelDRAW 2019 (64-Bit) -->
<svg xmlns="http://www.w3.org/2000/svg" xml:space="preserve" width="122.311mm" height="124.409mm" version="1.1" style="shape-rendering:geometricPrecision; text-rendering:geometricPrecision; image-rendering:optimizeQuality; fill-rule:evenodd; clip-rule:evenodd"
viewBox="0 0 3740.01 3804.14"
 xmlns:xlink="http://www.w3.org/1999/xlink"
 xmlns:xodm="http://www.corel.com/coreldraw/odm/2003">
 <defs>
  <style type="text/css">
   <![CDATA[
    .fil0 {fill:#FFFFFF}
   ]]>
  </style>
 </defs>
 <g id="Слой_x0020_1">
  <metadata id="CorelCorpID_0Corel-Layer"/>
  <path id="protect_x0020_imobil.cdr" class="fil0" d="M245.83 2434.97c4.71,11.41 7.41,24.69 7.41,38.87 0,42.51 -36.73,76.96 -54.14,76.96 -17.41,0 -54.14,-34.46 -54.14,-76.96 0,-14.18 2.7,-27.46 7.41,-38.87 4.1,7.98 10.38,13.45 22.01,13.45 11.63,0 24.73,-22.17 24.73,-35.83 0,13.66 13.1,35.83 24.73,35.83 11.63,0 17.91,-5.46 22.01,-13.45zm3339.03 0c4.71,11.41 7.41,24.69 7.41,38.87 0,42.51 -36.73,76.96 -54.14,76.96 -17.41,0 -54.14,-34.46 -54.14,-76.96 0,-14.18 2.7,-27.46 7.4,-38.87 4.1,7.98 10.39,13.45 22.01,13.45 11.62,0 24.73,-22.17 24.73,-35.82 0,13.66 13.1,35.82 24.73,35.82 11.63,0 17.91,-5.46 22.01,-13.45zm-3422.4 -407.89c12.1,-0.98 23.47,0.28 34.02,3.73 10.6,3.45 19.95,8.85 28.12,16.28 8.16,7.37 14.89,16.57 20.3,27.63 5.36,11.07 8.94,23.78 10.68,38.04 1.88,15.45 0.96,29.59 -2.77,42.32 -3.73,12.78 -9.91,23.93 -18.59,33.57 -8.63,9.58 -19.67,17.41 -33.07,23.5 -13.4,6.08 -28.74,10.21 -46.15,12.33l-12.52 1.52c-17.35,2.11 -33.3,1.68 -47.8,-1.23 -14.49,-2.91 -27.11,-8.04 -37.91,-15.36 -10.74,-7.33 -19.47,-16.67 -26.18,-28.01 -6.71,-11.29 -10.94,-24.36 -12.73,-39.06 -1.83,-15.02 -1.39,-28.61 1.43,-40.72 2.76,-12.11 7.37,-22.63 13.77,-31.55 6.45,-8.98 14.47,-16.34 24.1,-22.14 9.59,-5.79 20.3,-9.95 32.16,-12.44l6.76 55.58c-6.42,1 -12.07,2.57 -16.81,4.68 -4.8,2.18 -8.63,5.07 -11.53,8.78 -2.91,3.66 -4.84,8.13 -5.96,13.44 -1.06,5.3 -1.17,11.64 -0.27,19.07 0.84,6.89 2.87,12.69 6.03,17.48 3.17,4.79 7.69,8.53 13.58,11.23 5.94,2.74 13.35,4.37 22.34,4.98 8.93,0.57 19.55,0.1 31.8,-1.39l12.85 -1.56c12.31,-1.5 22.68,-3.53 31.18,-6.05 8.55,-2.53 15.36,-5.78 20.5,-9.65 5.19,-3.93 8.74,-8.66 10.65,-14.22 1.86,-5.56 2.38,-12.12 1.45,-19.76 -1.56,-12.8 -5.79,-22.24 -12.63,-28.29 -6.84,-6.05 -16.87,-8.45 -30.05,-7.3l-6.74 -55.41zm-27.87 -194.55l1.99 88.3 55.53 -1.26 -2.36 -104.29 43.19 -0.98 3.63 160.48 -232.94 5.27 -3.63 -160.81 43.36 -0.98 2.36 104.62 49.14 -1.11 -2 -88.3 41.72 -0.94zm123.56 -250.75l-7.2 55.41 -154.38 63.16 143.75 18.69 -7.25 55.73 -231.06 -30.03 7.24 -55.73 154.42 -62.98 -143.8 -18.69 7.23 -55.57 231.06 30.04zm-125.72 -274.2l-18.87 67.32 182.6 51.19 -15.17 54.12 -182.6 -51.19 -18.53 66.11 -41.76 -11.71 52.58 -187.54 41.76 11.71zm151.5 -97.59l-11.29 28.19 76.36 30.58 -20.89 52.17 -216.3 -86.62 34.09 -85.13c4.99,-12.47 10.94,-23.21 17.82,-32.16 6.88,-8.95 14.49,-15.91 22.83,-20.86 8.32,-4.91 17.36,-7.64 26.99,-8.19 9.65,-0.61 19.79,1.28 30.49,5.56 8.31,3.33 15.37,7.16 21.15,11.53 5.76,4.42 10.47,9.26 14.02,14.5 3.58,5.32 6.26,10.98 7.99,17.08 1.78,6.13 2.86,12.56 3.24,19.24l105.3 -10.25 2.23 0.89 -22.38 55.88 -91.65 7.6zm-51.55 12.07l13.2 -32.96c3.96,-9.89 4.36,-18.38 1.15,-25.49 -3.16,-7.09 -9.42,-12.48 -18.75,-16.22 -9.28,-3.72 -17.6,-4.1 -24.95,-1.17 -7.28,2.91 -12.95,9.29 -16.87,19.07l-13.2 32.96 59.42 23.8zm77.1 -386.85l131.82 76.12c11.82,6.83 21.14,14.73 28.03,23.76 6.85,9 11.37,18.74 13.51,29.24 2.11,10.43 1.96,21.51 -0.54,33.05 -2.5,11.55 -7.15,23.31 -14.04,35.23 -6.83,11.82 -14.67,21.68 -23.44,29.67 -8.78,7.99 -18.32,13.7 -28.44,17.13 -10.19,3.45 -20.92,4.45 -32.19,3.11 -11.32,-1.37 -22.85,-5.44 -34.67,-12.26l-131.82 -76.13 28.24 -48.91 131.82 76.13c12.44,7.18 23,9.75 31.6,7.65 8.62,-2.15 15.78,-8.1 21.49,-17.99 5.82,-10.07 7.42,-19.3 4.9,-27.7 -2.56,-8.35 -10.09,-16.17 -22.53,-23.35l-131.82 -76.13 28.08 -48.62zm234.49 4.95l60.48 -76.81 33.94 26.73 -95.26 120.97 -183.06 -144.15 34.77 -44.16 149.12 117.42zm245.86 -280.6c-2.38,-2.71 -4.92,-4.84 -7.6,-6.4 -2.73,-1.53 -6.01,-2.28 -9.99,-2.26 -3.99,0.02 -8.88,0.83 -14.56,2.48 -5.76,1.65 -12.85,4.25 -21.32,7.85 -9.94,4.24 -19.93,7.86 -29.83,10.91 -9.95,3.08 -19.66,4.86 -29.02,5.31 -9.43,0.44 -18.37,-0.79 -26.89,-3.76 -8.48,-2.94 -16.22,-8.35 -23.12,-16.18 -6.64,-7.54 -10.92,-15.78 -12.89,-24.81 -1.94,-8.98 -1.78,-18.3 0.49,-27.79 2.27,-9.57 6.48,-19.09 12.66,-28.61 6.14,-9.55 14.11,-18.61 23.79,-27.12 9.51,-8.37 19.4,-14.82 29.71,-19.31 10.23,-4.49 20.33,-6.91 30.26,-7.28 9.89,-0.34 19.42,1.39 28.57,5.27 9.12,3.83 17.33,9.85 24.58,18.09l-42.07 37.03c-2.88,-3.28 -6.05,-5.88 -9.45,-7.76 -3.48,-1.88 -7.05,-2.88 -10.83,-3.05 -3.74,-0.2 -7.65,0.48 -11.62,2.01 -3.97,1.53 -8.04,4.09 -12.1,7.67 -4.02,3.54 -7.15,7.09 -9.35,10.71 -2.24,3.57 -3.63,7.12 -4.23,10.56 -0.61,3.45 -0.54,6.66 0.31,9.7 0.85,3.03 2.3,5.76 4.43,8.18 2.31,2.62 5.14,4.35 8.49,5.19 3.35,0.83 7.25,0.97 11.66,0.43 4.42,-0.61 9.33,-1.81 14.71,-3.63 5.46,-1.82 11.33,-4.16 17.7,-6.92 11.91,-5.24 23.11,-9.21 33.55,-12.07 10.43,-2.78 20.23,-4.05 29.31,-3.82 9.08,0.23 17.51,2.12 25.3,5.68 7.74,3.59 14.86,9.04 21.32,16.37 6.93,7.87 11.51,16.21 13.84,25.07 2.31,8.82 2.43,17.8 0.49,26.93 -1.98,9.16 -6.01,18.31 -12.08,27.44 -6.08,9.21 -13.96,18.11 -23.72,26.7 -6.03,5.31 -12.44,10.01 -19.25,14.25 -6.77,4.21 -13.84,7.67 -21.05,10.31 -7.25,2.67 -14.6,4.49 -22.06,5.45 -7.49,0.99 -14.83,0.76 -22.13,-0.68 -7.27,-1.39 -14.37,-4.01 -21.29,-7.9 -6.91,-3.89 -13.34,-9.29 -19.4,-16.18l42.27 -37.21c4.51,5.12 8.96,8.85 13.42,11.11 4.42,2.29 8.92,3.35 13.46,3.22 4.54,-0.21 9.11,-1.47 13.72,-3.92 4.64,-2.41 9.43,-5.83 14.39,-10.19 3.98,-3.5 7.02,-6.98 9.02,-10.41 2.07,-3.43 3.33,-6.71 3.8,-9.9 0.43,-3.15 0.16,-6.18 -0.82,-9.03 -0.98,-2.77 -2.52,-5.34 -4.58,-7.68zm188.63 -178.34l-74.49 47.44 29.84 46.85 87.99 -56.03 23.21 36.44 -135.4 86.22 -125.15 -196.53 135.67 -86.4 23.29 36.58 -88.27 56.21 26.4 41.46 74.49 -47.44 22.41 35.2zm140.98 -57.32l-27.15 13.61 36.85 73.54 -50.25 25.18 -104.39 -208.31 81.99 -41.08c12.01,-6.02 23.58,-10.11 34.67,-12.24 11.09,-2.13 21.4,-2.29 30.92,-0.47 9.48,1.85 18.06,5.8 25.63,11.78 7.63,5.95 13.96,14.08 19.12,24.39 4.01,8.01 6.75,15.55 8.18,22.66 1.38,7.13 1.7,13.87 0.87,20.15 -0.85,6.35 -2.6,12.36 -5.36,18.08 -2.73,5.77 -6.2,11.29 -10.34,16.55l85.59 62.19 1.08 2.15 -53.81 26.97 -73.62 -55.11zm-46.58 -25.17l31.74 -15.91c9.52,-4.77 15.45,-10.86 17.77,-18.31 2.34,-7.4 1.23,-15.59 -3.27,-24.57 -4.48,-8.93 -10.45,-14.74 -17.9,-17.42 -7.38,-2.66 -15.85,-1.65 -25.28,3.08l-31.74 15.9 28.68 57.23zm276.92 -46.82l-11.78 -175.47 59.29 -20.57 2.25 245.84 -58.06 20.14 -149.83 -194.65 58.83 -20.4 99.3 145.12zm216.48 9.32l-54.55 12.59 -52.4 -227.03 54.55 -12.59 52.4 227.03zm236.27 -105.62c0.43,12.13 -1.34,23.44 -5.26,33.81 -3.92,10.43 -9.74,19.53 -17.53,27.35 -7.73,7.82 -17.22,14.13 -28.51,19.04 -11.3,4.86 -24.16,7.86 -38.49,8.96 -15.52,1.18 -29.61,-0.38 -42.15,-4.68 -12.59,-4.3 -23.46,-10.98 -32.7,-20.08 -9.18,-9.05 -16.51,-20.44 -21.99,-34.1 -5.48,-13.66 -8.9,-29.17 -10.23,-46.66l-0.96 -12.58c-1.33,-17.43 -0.18,-33.35 3.38,-47.7 3.57,-14.35 9.25,-26.72 17.05,-37.18 7.81,-10.4 17.53,-18.7 29.16,-24.9 11.58,-6.2 24.83,-9.83 39.59,-10.96 15.08,-1.15 28.64,-0.1 40.62,3.26 11.97,3.31 22.27,8.38 30.9,15.18 8.68,6.84 15.67,15.18 21.03,25.08 5.35,9.83 9.03,20.73 10.98,32.69l-55.82 4.25c-0.71,-6.46 -2.02,-12.17 -3.92,-17.01 -1.96,-4.89 -4.67,-8.85 -8.25,-11.92 -3.52,-3.07 -7.9,-5.2 -13.15,-6.56 -5.25,-1.3 -11.58,-1.69 -19.04,-1.13 -6.92,0.53 -12.81,2.29 -17.73,5.24 -4.93,2.95 -8.87,7.3 -11.82,13.06 -3.01,5.82 -4.97,13.14 -5.99,22.1 -0.97,8.89 -0.98,19.52 -0.04,31.83l0.98 12.91c0.94,12.36 2.5,22.81 4.64,31.42 2.14,8.66 5.08,15.61 8.71,20.92 3.69,5.36 8.25,9.12 13.73,11.28 5.47,2.1 12,2.92 19.68,2.34 12.85,-0.98 22.48,-4.78 28.83,-11.34 6.35,-6.56 9.21,-16.48 8.64,-29.69l55.66 -4.24zm108.77 78.99l-55.96 -1.72 7.17 -232.89 55.96 1.72 -7.17 232.89zm115 6.81l-55.82 -4.25 17.69 -232.33 55.82 4.25 -17.69 232.33zm118.47 -28.41l96.15 17.73 -7.83 42.49 -151.42 -27.92 42.24 -229.14 55.27 10.19 -34.41 186.65zm337.76 15.1c-4.95,17.11 -11.81,31.78 -20.58,44.03 -8.77,12.25 -18.83,21.84 -30.24,28.89 -11.42,7.05 -23.87,11.35 -37.25,13 -13.42,1.57 -27.23,0.37 -41.5,-3.76 -14.43,-4.17 -26.96,-10.58 -37.52,-19.1 -10.6,-8.58 -18.82,-18.86 -24.72,-30.92 -5.9,-12.05 -9.27,-25.54 -10.15,-40.57 -0.88,-15.04 1.15,-31.11 6.1,-48.22l2.62 -9.08c4.95,-17.11 11.81,-31.78 20.47,-44.06 8.71,-12.21 18.77,-21.86 30.19,-28.91 11.4,-6.99 23.86,-11.35 37.37,-13.02 13.44,-1.63 27.4,-0.38 41.83,3.8 14.27,4.13 26.64,10.49 37.13,19.04 10.53,8.62 18.74,18.95 24.65,30.95 5.9,12.05 9.31,25.61 10.2,40.59 0.94,15.05 -1.05,31.14 -5.99,48.25l-2.63 9.08zm-52.17 -25.27c6.42,-22.19 7.58,-40.16 3.47,-53.86 -4.06,-13.68 -13.04,-22.53 -26.89,-26.54 -14.43,-4.17 -26.91,-1.53 -37.33,7.97 -10.47,9.48 -18.93,25.34 -25.35,47.54l-2.72 9.39c-6.34,21.93 -7.59,39.82 -3.71,53.74 3.88,13.91 12.99,22.92 27.31,27.06 13.75,3.98 25.99,1.15 36.79,-8.46 10.73,-9.57 19.34,-25.39 25.71,-47.43l2.72 -9.39zm174.57 113.69l-27.71 -12.42 -33.64 75.06 -51.29 -22.98 95.28 -212.63 83.69 37.5c12.26,5.49 22.75,11.87 31.42,19.11 8.67,7.24 15.31,15.12 19.92,23.65 4.57,8.51 6.94,17.65 7.1,27.3 0.21,9.67 -2.07,19.72 -6.79,30.24 -3.66,8.17 -7.77,15.07 -12.37,20.67 -4.65,5.57 -9.67,10.09 -15.05,13.42 -5.46,3.36 -11.22,5.81 -17.39,7.29 -6.19,1.54 -12.66,2.35 -19.36,2.46l6 105.63 -0.98 2.19 -54.93 -24.61 -3.9 -91.88zm-9.98 -51.99l32.4 14.52c9.72,4.35 18.19,5.09 25.42,2.17 7.21,-2.87 12.85,-8.9 16.96,-18.07 4.09,-9.12 4.81,-17.42 2.17,-24.88 -2.61,-7.39 -8.76,-13.32 -18.37,-17.63l-32.4 -14.52 -26.17 58.42zm241.43 285.7l-45.42 -32.73 136.22 -189.03 45.42 32.73 -136.22 189.03zm264.03 -89.87l-74.59 153.03 149.57 -81.2 53.4 51.16 -161.18 168.25 -40.66 -38.95 37.63 -39.28 80.94 -76.68 -155.34 80.75 -26.82 -25.69 74 -158.89 -73.21 84.32 -37.63 39.28 -40.59 -38.88 161.18 -168.26 53.28 51.05zm211.31 416.56c-13.99,11.01 -28.12,18.94 -42.38,23.78 -14.26,4.84 -28.03,6.78 -41.42,5.85 -13.39,-0.93 -26.01,-4.69 -37.84,-11.15 -11.82,-6.54 -22.34,-15.57 -31.53,-27.24 -9.29,-11.8 -15.74,-24.31 -19.36,-37.38 -3.61,-13.15 -4.3,-26.3 -2.06,-39.53 2.24,-13.23 7.35,-26.16 15.4,-38.89 8.05,-12.73 19.07,-24.61 33.05,-35.62l7.42 -5.84c13.99,-11.02 28.12,-18.94 42.32,-23.87 14.19,-4.85 28,-6.82 41.38,-5.89 13.34,0.96 26.01,4.68 37.95,11.2 11.87,6.51 22.48,15.67 31.78,27.46 9.19,11.67 15.54,24.06 19.08,37.12 3.53,13.14 4.18,26.32 1.99,39.52 -2.24,13.23 -7.36,26.23 -15.37,38.93 -8.01,12.78 -19,24.69 -32.99,35.71l-7.42 5.85zm-27.66 -50.93c18.15,-14.3 29.57,-28.22 34.21,-41.75 4.68,-13.48 2.54,-25.91 -6.38,-37.24 -9.29,-11.8 -20.97,-16.92 -34.97,-15.28 -14.04,1.6 -30.15,9.56 -48.3,23.85l-7.68 6.05c-17.94,14.13 -29.38,27.93 -34.34,41.5 -4.96,13.57 -2.8,26.19 6.42,37.91 8.85,11.24 20.45,16.08 34.83,14.56 14.3,-1.53 30.52,-9.36 48.54,-23.55l7.68 -6.05zm-35.7 158.45l202.28 -115.65 41.53 72.64c7.16,12.52 12.42,24.36 15.78,35.52 3.36,11.16 4.68,21.49 4.01,30.99 -0.74,9.49 -3.57,18.08 -8.48,25.67 -4.96,7.61 -12.13,14.11 -21.56,19.5 -4.65,2.65 -9.4,4.68 -14.29,6.15 -4.91,1.42 -9.86,2.12 -14.96,2.01 -5.09,-0.11 -10.19,-1.09 -15.29,-2.96 -5.05,-1.9 -10.03,-4.9 -14.93,-8.95 1.88,6.92 2.5,13.29 1.9,19.17 -0.55,5.86 -2.09,11.2 -4.49,16.03 -2.42,4.79 -5.51,9.07 -9.37,12.78 -3.78,3.73 -8.05,6.93 -12.65,9.56 -20.01,11.44 -38.65,13.6 -55.9,6.54 -17.28,-7.11 -33.07,-23.18 -47.44,-48.31l-46.14 -80.7zm113.91 -0.39l-48.51 27.73 18.24 31.91c2.82,4.93 5.82,8.75 9.01,11.58 3.21,2.76 6.42,4.63 9.75,5.62 3.33,0.99 6.68,1.22 10.04,0.61 3.35,-0.53 6.68,-1.74 9.9,-3.59 3.89,-2.22 7.17,-4.73 9.76,-7.47 2.61,-2.69 4.45,-5.75 5.44,-8.96 1.02,-3.29 1.2,-6.92 0.55,-10.82 -0.64,-3.98 -2.27,-8.26 -4.9,-12.86l-19.3 -33.76zm31.91 -18.25l14.53 25.42c6.17,10.56 12.48,17.09 18.85,19.42 6.39,2.39 13.34,1.43 20.73,-2.79 8.53,-4.88 13.24,-10.84 14.17,-17.92 0.95,-7.02 -1.68,-16.03 -7.94,-26.98l-13.64 -23.85 -46.7 26.7zm-13.64 273.78l-23.47 -50.83 211.53 -97.7 23.47 50.82 -211.53 97.7zm79.27 90.83l31.55 92.54 -40.89 13.94 -49.68 -145.73 220.54 -75.18 18.13 53.2 -179.65 61.24zm11.79 204.23l-12.59 -54.55 227.03 -52.4 12.59 54.55 -227.03 52.4zm71.88 182.7l-9.92 -76.31 -44.9 -7.71 -7.74 -59.53 242.08 54.73 6.8 52.32 -219.95 115.45 -7.78 -59.85 41.41 -19.1zm34.82 -68.58l6.45 49.66 76.87 -35.33 -83.32 -14.34zm8.38 270.36l0.93 -30.35 -82.22 -2.51 1.72 -56.17 232.89 7.11 -2.8 91.66c-0.41,13.43 -2.31,25.56 -5.7,36.33 -3.39,10.77 -8.15,19.91 -14.28,27.43 -6.13,7.46 -13.68,13.14 -22.54,16.96 -8.86,3.88 -19.02,5.59 -30.54,5.24 -8.95,-0.28 -16.89,-1.45 -23.82,-3.57 -6.93,-2.18 -13.01,-5.1 -18.14,-8.81 -5.19,-3.76 -9.64,-8.16 -13.37,-13.3 -3.78,-5.14 -6.99,-10.81 -9.64,-16.96l-95.38 45.78 -2.4 -0.08 1.84 -60.16 83.47 -38.6zm44.27 -29.03l-1.09 35.48c-0.32,10.65 2.22,18.76 7.67,24.33 5.41,5.58 13.13,8.49 23.17,8.8 9.99,0.3 17.93,-2.19 23.84,-7.47 5.84,-5.23 8.98,-13.17 9.3,-23.7l1.08 -35.49 -63.98 -1.95zm-62.18 330.17l16.01 -86.86 -54.62 -10.07 -18.92 102.59 -42.48 -7.83 29.1 -157.86 229.14 42.24 -29.16 158.19 -42.65 -7.86 18.97 -102.91 -48.34 -8.91 -16.01 86.85 -41.04 -7.56zm-1698.72 -1829.21c408.36,0 778.06,165.52 1045.68,433.14 267.61,267.61 433.13,637.31 433.13,1045.68 0,408.36 -165.52,778.06 -433.13,1045.68 -267.61,267.61 -637.32,433.13 -1045.68,433.13 -408.36,0 -778.06,-165.52 -1045.68,-433.13 -267.61,-267.61 -433.13,-637.32 -433.13,-1045.68 0,-408.36 165.52,-778.06 433.13,-1045.68 267.61,-267.61 637.32,-433.14 1045.68,-433.14zm1018.96 459.86c-260.77,-260.77 -621.03,-422.06 -1018.96,-422.06 -397.93,0 -758.18,161.29 -1018.95,422.06 -260.77,260.77 -422.07,621.03 -422.07,1018.96 0,397.93 161.29,758.19 422.07,1018.96 260.77,260.77 621.03,422.07 1018.95,422.07 397.93,0 758.19,-161.29 1018.96,-422.07 260.77,-260.77 422.07,-621.03 422.07,-1018.96 0,-397.93 -161.29,-758.19 -422.07,-1018.96zm-2588.67 1957.63l-87.37 57.23 -40.7 -62.13 257.58 -168.73 67.32 102.77c10.13,15.46 17.09,30.83 20.79,46.09 3.76,15.23 4.55,29.73 2.43,43.36 -2.13,13.74 -7.06,26.37 -14.74,37.96 -7.64,11.65 -17.79,21.58 -30.41,29.84 -12.5,8.19 -25.29,13.29 -38.49,15.29 -13.15,2.05 -26.15,1.17 -39.05,-2.72 -12.86,-3.83 -25.36,-10.66 -37.45,-20.42 -12.03,-9.81 -23.16,-22.45 -33.29,-37.91l-26.62 -40.63zm47.94 -31.41l26.62 40.64c4.27,6.52 8.75,11.52 13.55,15.02 4.73,3.54 9.68,5.83 14.68,6.86 5.06,1 10.16,0.76 15.34,-0.56 5.14,-1.38 10.26,-3.7 15.21,-6.94 5.25,-3.44 9.85,-7.49 13.71,-12 3.82,-4.57 6.63,-9.52 8.27,-14.91 1.71,-5.43 2.07,-11.19 1.2,-17.27 -0.81,-6.12 -3.36,-12.38 -7.64,-18.9l-26.62 -40.63 -74.33 48.69zm172.67 318.82l-25.98 -30.59 -82.86 70.36 -48.08 -56.62 234.72 -199.31 78.44 92.38c11.49,13.54 20.37,27.11 26.59,40.68 6.22,13.56 9.65,26.75 10.29,39.55 0.6,12.75 -1.78,25 -7.08,36.6 -5.25,11.66 -13.7,22.34 -25.31,32.2 -9.02,7.66 -17.85,13.55 -26.53,17.6 -8.73,4 -17.28,6.53 -25.6,7.44 -8.42,0.9 -16.69,0.53 -24.89,-1.21 -8.26,-1.7 -16.44,-4.41 -24.48,-8.09l-53.01 129.38 -2.42 2.05 -51.49 -60.63 47.68 -111.79zm17.71 -67.69l30.37 35.76c9.11,10.73 18.79,16.43 29.08,17.07 10.24,0.68 20.4,-3.3 30.52,-11.9 10.07,-8.55 15.66,-18.03 16.76,-28.43 1.09,-10.3 -2.86,-20.87 -11.87,-31.49l-30.37 -35.76 -64.48 54.76zm352.83 340.48c-14.58,18.47 -30.29,33.01 -47.13,43.63 -16.84,10.62 -33.94,17.36 -51.42,20.29 -17.49,2.93 -34.86,2 -52.06,-2.66 -17.21,-4.76 -33.51,-13.12 -48.92,-25.28 -15.58,-12.3 -27.72,-26.39 -36.4,-42.07 -8.69,-15.78 -13.64,-32.47 -14.85,-50.16 -1.21,-17.69 1.38,-35.88 7.79,-54.72 6.42,-18.85 16.91,-37.5 31.49,-55.98l7.74 -9.8c14.58,-18.47 30.29,-33.01 47.02,-43.72 16.74,-10.6 33.87,-17.4 51.36,-20.33 17.44,-2.87 34.87,-1.99 52.22,2.69 17.26,4.7 33.72,13.2 49.31,25.5 15.41,12.16 27.38,26.12 35.96,41.82 8.59,15.79 13.49,32.53 14.74,50.17 1.21,17.69 -1.37,35.98 -7.74,54.77 -6.36,18.89 -16.8,37.59 -31.38,56.06l-7.74 9.8zm-51.26 -56.92c18.92,-23.96 29.3,-45.38 31.09,-64.2 1.85,-18.77 -4.73,-34.08 -19.69,-45.89 -15.58,-12.3 -32.17,-15.28 -49.66,-8.85 -17.54,6.38 -35.8,21.58 -54.72,45.55l-8.01 10.14c-18.7,23.68 -29.14,44.96 -31.33,63.92 -2.19,18.96 4.47,34.52 19.94,46.73 14.84,11.72 31.24,14.36 49.25,7.98 17.91,-6.37 36.33,-21.44 55.11,-45.24l8.01 -10.14zm351.95 99.42l-82.34 -41.91 -113.69 223.34 -66.19 -33.69 113.68 -223.34 -80.86 -41.16 26 -51.08 229.39 116.76 -26 51.08zm185.9 191.41l-111.27 -35.23 -22.16 69.99 131.43 41.62 -17.23 54.43 -202.24 -64.04 92.95 -293.56 202.66 64.17 -17.3 54.64 -131.85 -41.75 -19.61 61.93 111.27 35.23 -16.65 52.57zm326.47 96.64c-3.65,15.62 -9.83,29.43 -18.42,41.3 -8.61,11.95 -19.19,21.53 -31.83,28.81 -12.57,7.29 -26.86,12.05 -42.96,14.41 -16.09,2.28 -33.53,1.66 -52.18,-1.91 -20.2,-3.87 -37.63,-10.74 -52.13,-20.58 -14.58,-9.85 -26.11,-22.13 -34.74,-36.93 -8.57,-14.72 -13.97,-31.78 -16.22,-51.1 -2.25,-19.32 -1.24,-40.29 3.12,-63.05l3.14 -16.37c4.35,-22.69 11.32,-42.59 20.84,-59.65 9.52,-17.07 21.06,-30.87 34.63,-41.5 13.56,-10.56 28.83,-17.77 45.82,-21.65 16.92,-3.89 35.08,-3.94 54.29,-0.25 19.64,3.76 36.56,9.8 50.67,18.23 14.12,8.37 25.5,18.41 34.15,30.06 8.7,11.74 14.72,24.8 18.13,39.26 3.42,14.4 4.33,29.57 2.67,45.49l-72.66 -13.92c1.33,-8.49 1.64,-16.22 0.89,-23.05 -0.81,-6.92 -2.89,-12.9 -6.39,-18.06 -3.43,-5.14 -8.27,-9.38 -14.5,-12.92 -6.24,-3.47 -14.18,-6.17 -23.89,-8.03 -9,-1.72 -17.13,-1.52 -24.43,0.54 -7.3,2.06 -13.84,6.24 -19.6,12.56 -5.85,6.38 -10.89,15.04 -15.29,26.1 -4.31,11.01 -8.01,24.56 -11.08,40.58l-3.22 16.8c-3.08,16.09 -4.71,29.96 -4.97,41.67 -0.27,11.78 1.07,21.66 3.87,29.7 2.85,8.12 7.36,14.49 13.6,19.14 6.25,4.58 14.29,7.88 24.29,9.8 16.73,3.2 30.32,1.7 40.69,-4.47 10.37,-6.17 17.45,-17.82 21.31,-34.87l72.45 13.88zm296.31 -152.01l-92.32 3.55 9.64 250.43 -74.22 2.86 -9.64 -250.43 -90.67 3.49 -2.2 -57.27 257.21 -9.9 2.2 57.27zm331.11 198.1l-72.09 16.64 -69.25 -300.04 72.09 -16.64 69.25 300.04zm84.93 -347.04l140.19 175.97 -11.88 -224.6 91.39 -34.64 109.14 287.93 -69.59 26.38 -25.48 -67.23 -45.48 -140.15 8.06 231.22 -45.9 17.4 -147.51 -178.59 58.99 135.26 25.48 67.23 -69.45 26.33 -109.14 -287.93 91.19 -34.57zm556.32 -115.02c12.56,19.9 21.04,39.56 25.45,58.97 4.4,19.41 5.07,37.77 2.01,55.24 -3.06,17.47 -9.72,33.54 -19.84,48.21 -10.22,14.65 -23.53,27.23 -40.13,37.71 -16.78,10.6 -34.12,17.35 -51.79,20.32 -17.77,2.94 -35.16,2.05 -52.24,-2.7 -17.08,-4.75 -33.37,-13.24 -49.01,-25.57 -15.63,-12.32 -29.73,-28.44 -42.29,-48.33l-6.67 -10.56c-12.56,-19.9 -21.04,-39.55 -25.57,-58.89 -4.42,-19.32 -5.13,-37.74 -2.07,-55.2 3.1,-17.4 9.73,-33.54 19.93,-48.35 10.18,-14.7 23.67,-27.41 40.45,-38.01 16.6,-10.48 33.75,-17.12 51.4,-19.99 17.75,-2.84 35.17,-1.89 52.22,2.8 17.08,4.75 33.47,13.27 49.07,25.53 15.7,12.29 29.85,28.36 42.41,48.25l6.67 10.56zm-70.74 29.38c-16.3,-25.82 -33.04,-42.73 -50.18,-50.69 -17.08,-8 -33.71,-6.89 -49.82,3.29 -16.78,10.6 -25.12,25.25 -24.88,43.88 0.18,18.67 8.44,40.94 24.73,66.76l6.9 10.93c16.11,25.51 32.69,42.45 49.84,50.82 17.15,8.38 34.04,7.27 50.7,-3.24 15.99,-10.09 23.95,-24.68 23.92,-43.78 -0.05,-19 -8.12,-41.39 -24.31,-67.03l-6.9 -10.93zm218.79 33.17l-213.7 -221.7 79.62 -76.74c13.72,-13.22 27.19,-23.8 40.4,-31.72 13.22,-7.93 26.02,-12.95 38.41,-15.17 12.39,-2.12 24.32,-1.29 35.64,2.54 11.36,3.89 22,10.97 31.97,21.32 4.91,5.09 9.04,10.53 12.51,16.31 3.42,5.83 5.9,11.95 7.42,18.51 1.51,6.56 1.9,13.41 1.15,20.54 -0.79,7.08 -3.02,14.44 -6.63,22.03 8.25,-4.65 16.22,-7.51 23.95,-8.65 7.68,-1.19 15.03,-0.95 21.99,0.56 6.91,1.56 13.4,4.12 19.41,7.86 6.01,3.63 11.49,8.07 16.35,13.11 21.14,21.93 29.95,45.12 26.5,69.5 -3.51,24.44 -18.99,49.88 -46.53,76.43l-88.45 85.26zm-37.39 -145.82l51.24 53.17 34.98 -33.71c5.4,-5.21 9.33,-10.29 11.92,-15.3 2.49,-5.01 3.86,-9.73 4.04,-14.32 0.19,-4.59 -0.6,-8.95 -2.46,-13.06 -1.76,-4.12 -4.4,-7.99 -7.8,-11.53 -4.11,-4.26 -8.39,-7.66 -12.73,-10.08 -4.29,-2.48 -8.81,-3.84 -13.25,-4.07 -4.54,-0.24 -9.25,0.7 -14.04,2.8 -4.89,2.11 -9.86,5.59 -14.89,10.45l-37 35.67zm-33.72 -34.97l27.86 -26.85c11.54,-11.32 17.85,-21.52 18.78,-30.43 0.98,-8.97 -2.49,-17.55 -10.3,-25.66 -9.02,-9.35 -18.18,-13.45 -27.54,-12.35 -9.31,1.05 -19.99,7.34 -32,18.91l-26.14 25.2 49.34 51.19zm352.79 -119.66l-45.84 58.07 -241.7 -190.79 45.84 -58.07 241.69 190.79zm54.29 -178.02l68.97 -109.25 48.28 30.48 -108.63 172.06 -260.37 -164.38 39.65 -62.8 212.1 133.9zm-1625.3 -518.09l-47.15 25.14 0 -1341.44 -42.71 0 0 1364.23 -52.95 28.25 0 -1274.92 -42.71 0 0 1297.7 -56.37 30.07 0 -1099.59 -42.71 0 0 1122.37 -49.54 26.43 0 -1217.95 -42.7 0 0 1240.73 -56.37 30.07 0 -1132.51 -42.7 0 0 1155.29 -52.96 28.24 0 -941.52 -42.7 0 0 964.3 -52.96 28.25 0 -1061.7 -42.71 0 0 1084.48 -183.64 97.96 1780.01 0 -180.22 -94.31 0 -1085.05 0 -21.61 -21.36 0 -135.81 0 0 -382.89 0 -21.61 -21.36 0 -199.89 0 0 -264.26 0 -21.61 -21.36 0 -327.78 0 -21.35 0 0 21.61 0 1415.85zm-83.38 -1556.84l27.08 25.8 33.48 -16.38 -15.88 34.04 25.74 27.17 -36.89 -4.77 -17.58 33.17 -6.92 -36.98 -36.61 -6.67 32.61 -18.09 -5.05 -37.29zm-353.16 22.77l-18.84 60.84 49.43 39.53 -62.99 0.67 -21.88 59.79 -20.1 -60.42 -62.95 -2.59 50.58 -38.01 -17.02 -61.38 51.36 36.93 52.43 -35.35zm170.61 -71.85l13.12 48.54 49.49 4.94 -41.56 27.63 10.65 49.14 -38.81 -31.46 -42.9 25.44 17.57 -47.07 -37.17 -33.43 49.67 2.37 19.93 -46.11zm-346.99 227.35l9.48 76.77 74.25 18.46 -69.22 32.86 5.59 77.15 -52.27 -56.47 -70.79 29.23 36.92 -67.75 -49.34 -59.1 75.08 14.6 40.3 -65.75zm-51.44 264.8l53.25 72.7 86.13 -24.36 -51.88 73.72 49.51 75.36 -85.31 -27.14 -55.53 70.93 -0.85 -90.48 -83.83 -31.53 84.79 -28.78 3.72 -90.42zm1256.09 409.9l0 62.55 114.46 0 0 -62.55 -114.46 0zm0 105.77l0 52.69 114.46 0 0 -52.69 -114.46 0zm0 95.91l0 61.1 114.46 0 0 -61.1 -114.46 0zm0 104.32l0 52.69 114.46 0 0 -52.69 -114.46 0zm0 95.9l0 59.43 114.46 0 0 -59.43 -114.46 0zm0 102.64l0 54.23 114.46 0 0 -54.23 -114.46 0zm0 97.45l0 57.04 114.46 0 0 -57.04 -114.46 0zm0 100.26l0 57.05 114.46 0 0 -57.05 -114.46 0zm0 100.26l0 57.05 114.46 0 0 -57.05 -114.46 0zm0 100.27l0 63.96 114.46 0 0 -63.96 -114.46 0zm-42.71 56.08l0 -56.08 -107.17 0 107.17 56.08zm0 -99.3l0 -57.05 -298.78 0 109.03 57.05 189.75 0zm0 -100.27l0 -57.05 -490.39 0 109.02 57.05 381.37 0zm0 -100.26l0 -57.04 -506.33 0 0 57.04 506.33 0zm0 -100.26l0 -54.23 -506.33 0 0 54.23 506.33 0zm0 -97.45l0 -59.43 -506.33 0 0 59.43 506.33 0zm0 -102.64l0 -52.69 -506.33 0 0 52.69 506.33 0zm0 -95.9l0 -61.1 -506.33 0 0 61.1 506.33 0zm0 -104.32l0 -52.69 -506.33 0 0 52.69 506.33 0zm0 -95.91l0 -59.42 -506.33 0 0 59.42 506.33 0zm157.17 978.55l-59.52 -31.14 59.52 0 0 31.14zm-663.49 -1691.18l285.08 0 0 -40.29 -285.08 0 0 40.29zm285.08 43.22l-285.08 0 0 62.39 285.08 0 0 -62.39zm0 105.61l-285.08 0 0 53.53 285.08 0 0 -53.53zm0 96.75l-285.08 0 0 62.15 506.33 0 0 -62.15 -199.9 0 -21.35 0zm221.25 105.36l-506.33 0 0 56.94 506.33 0 0 -56.94zm0 100.15l-506.33 0 0 55.1 506.33 0 0 -55.1zm0 98.32l-506.33 0 0 60.58 506.33 0 0 -60.58z"/>
 </g>
</svg>
