<svg xmlns="http://www.w3.org/2000/svg" width="19.34" height="17.77" viewBox="0 0 19.34 17.77">
  <g id="survey" transform="translate(-23.4 -38.01)">
    <g id="Group_12764" data-name="Group 12764">
      <g id="Group_12763" data-name="Group 12763">
        <g id="Group_13075" data-name="Group 13075">
          <circle id="Ellipse_157" data-name="Ellipse 157" cx="0.64" cy="0.64" r="0.64" transform="translate(28.11 39.58)"/>
        </g>
        <g id="Group_13076" data-name="Group 13076">
          <path id="Path_14001" data-name="Path 14001" d="M42.23,43.24a1.71,1.71,0,0,0-1.06-.51v-2.9a1.82,1.82,0,0,0-1.82-1.82H25.22a1.82,1.82,0,0,0-1.82,1.82V53.96a1.827,1.827,0,0,0,1.82,1.82H39.35a1.827,1.827,0,0,0,1.82-1.82V46.77l1.06-1.06a1.75,1.75,0,0,0,0-2.47ZM24.69,39.83a.536.536,0,0,1,.53-.54H39.35a.536.536,0,0,1,.53.54v1.32H24.69ZM39.88,53.95a.536.536,0,0,1-.53.54H25.22a.536.536,0,0,1-.53-.54V42.43H39.88v.68c-.04.04-.09.08-.13.12l-2.51,2.51v-.02a.647.647,0,0,0-.64-.65H27.97a.645.645,0,1,0,0,1.29h8.65l-1.07,1.07H27.97a.64.64,0,1,0,0,1.28h6.75L34.4,50.3a.654.654,0,0,0,.5.76.692.692,0,0,0,.25-.01l1.97-.39a.591.591,0,0,0,.32-.17l2.44-2.44Zm-3.2-4.51-.83.17.16-.83,3.34-3.33.66.66Zm4.64-4.64-.4.4-.66-.66.39-.4a.46.46,0,0,1,.34-.12.431.431,0,0,1,.32.14A.476.476,0,0,1,41.32,44.8Z"/>
          <circle id="Ellipse_158" data-name="Ellipse 158" cx="0.64" cy="0.64" r="0.64" transform="translate(24.97 39.58)"/>
          <circle id="Ellipse_159" data-name="Ellipse 159" cx="0.64" cy="0.64" r="0.64" transform="translate(26.54 39.58)"/>
          <path id="Path_14002" data-name="Path 14002" d="M33.32,50.42a.649.649,0,0,1-.65.65h-4.7a.645.645,0,1,1,0-1.29h4.7A.647.647,0,0,1,33.32,50.42Z"/>
        </g>
      </g>
    </g>
  </g>
</svg>
