<?xml version="1.0" encoding="utf-8"?><svg viewBox="0 0 90 60" xmlns="http://www.w3.org/2000/svg" xmlns:xlink="http://www.w3.org/1999/xlink"><style>:root>svg{display:none}:root>svg:target{display:block}</style><svg version="1.1" id="Logo" x="0" y="0" xml:space="preserve" viewBox="0 0 90 60" xmlns="http://www.w3.org/2000/svg"><style>.aast0{fill-rule:evenodd;clip-rule:evenodd;fill:#06f}.aast1{fill:#e4e6eb}</style><g id="aaLogo_x5F_sim"><path id="aacat" class="aast0" d="M45 15.6C59.6 15.6 70.8 5 78.3 5c3.3 0 4.3 2.6 4.3 9.6 0 9.8 5.4 14.8 5.4 21.3C88 42.3 80.7 55 45 55 9.2 55 2 42.3 2 35.9c0-6.5 5.4-11.5 5.4-21.3 0-6.8 1-9.6 4.3-9.6C18.1 5 30.3 15.6 45 15.6z"/><path id="aasim" class="aast1" d="M24.5 34.6c-.1.6-1.1 1-3.4.4-2.7-.7-2.4-2.3-4.8-3.1-2.3-.7-3.6-.3-4.2.9-.7 1.5 1.5 4.9 7.7 6.5 7.3 1.8 11.5-.5 11.9-3.4.8-5.2-10-6.6-9.5-8.4.1-.5.9-.7 2.2-.4 2.1.5 2 2.1 4.3 2.6 2.2.4 3.3-.3 3.6-1.6.3-1.6-2-4.3-6.6-5.3-5.2-1.3-8.7-.1-9.9 2.8-2.5 5.3 9 7.8 8.7 9zm19.2-7c0-1.4-1.1-2.3-2.9-2.4-1.9-.1-3 .7-3.2 2.1-.4 4-.8 8.1-1.3 12.1-.2 1.4 1.1 2.5 3.5 2.6 2.4.1 3.7-.8 3.7-2.2.1-4.1.2-8.2.2-12.2zm19.4 11.2c2-.4 2.9-1.4 3.3-3.1.4-1.6.7-3.2 1-4.9.1 0 .2 0 .3-.1 1.1 1.8 2.2 3.7 3.3 5.5.8 1.3 2.4 1.8 4.5 1.2 2.1-.7 3-2 2.4-3.3-.4-.9-1.2-1.9-1.2-1.9-2-2.8-4-5.7-5.8-8.6-.9-1.5-2.6-2.1-4.8-1.5-1.9.5-2.9 1.8-3.2 3.7-.3 2-.8 3.9-1.2 5.9-.1 0-.2 0-.3.1-1.3-1.6-2.5-3.3-3.7-5-1.2-1.6-2.5-2.5-4.5-2.3-2.3.2-3.5 1.5-3.7 3.1-.4 3.3-1 6.6-1.6 9.9 0 0-.3 1.2-.2 2.1 0 1.4 1.4 2.3 3.6 2.2 2.2-.1 3.4-1.2 3.6-2.6.2-2.1.4-4.1.6-6.2h.3c1 1.4 2 2.8 3 4.1 1 1.4 2.3 2.1 4.3 1.7z"/></g></svg><svg version="1.1" id="flag_de" x="0" y="0" xml:space="preserve" viewBox="0 0 30 30" xmlns="http://www.w3.org/2000/svg"><style>.abst0{fill:#ffda44}.abst1{fill:#d80027}</style><g id="abde"><path class="abst0" d="M.9 20.2C3.1 25.9 8.6 30 15 30s11.9-4.1 14.1-9.8L15 18.9.9 20.2z"/><path d="M15 0C8.6 0 3.1 4.1.9 9.8L15 11.1l14.1-1.3C26.9 4.1 21.4 0 15 0z"/><path class="abst1" d="M.9 9.8C.3 11.4 0 13.2 0 15s.3 3.6.9 5.2H29c.6-1.6.9-3.4.9-5.2s-.3-3.6-.9-5.2H.9z"/></g></svg><svg version="1.1" id="flag_en" x="0" y="0" xml:space="preserve" viewBox="0 0 30 30" xmlns="http://www.w3.org/2000/svg"><style>.acst0{fill:#f0f0f0}.acst1{fill:#0052b4}.acst2{fill:#d80027}</style><g id="acen"><circle class="acst0" cx="15" cy="15" r="15"/><path class="acst1" d="M3.1 5.9C1.9 7.4 1 9.2.5 11.1h7.8L3.1 5.9zm26.4 5.2c-.5-1.9-1.4-3.7-2.6-5.2l-5.2 5.2h7.8zm-29 7.8c.5 1.9 1.4 3.7 2.6 5.2l5.2-5.2H.5zM24.1 3.1C22.6 1.9 20.8 1 18.9.5v7.8l5.2-5.2zM5.9 26.9c1.5 1.2 3.3 2.1 5.2 2.6v-7.8l-5.2 5.2zM11.1.5C9.2 1 7.4 1.9 5.9 3.1l5.2 5.2V.5zm7.8 29c1.9-.5 3.7-1.4 5.2-2.6l-5.2-5.2v7.8zm2.8-10.6l5.2 5.2c1.2-1.5 2.1-3.3 2.6-5.2h-7.8z"/><path class="acst2" d="M29.9 13H17V.1c-.7-.1-1.3-.1-2-.1s-1.3 0-2 .1V13H.1c-.1.7-.1 1.3-.1 2s0 1.3.1 2H13v12.9c.6.1 1.3.1 2 .1s1.3 0 2-.1V17h12.9c.1-.6.1-1.3.1-2s0-1.3-.1-2zm-11 5.9l6.7 6.7c.3-.3.6-.6.9-1l-5.7-5.7h-1.9zm-7.8 0l-6.7 6.7c.3.3.6.6 1 .9l5.7-5.7v-1.9zm0-7.8L4.4 4.4c-.3.3-.6.6-.9 1l5.7 5.7h1.9zm7.8 0l6.7-6.7c-.3-.3-.6-.6-1-.9l-5.7 5.7v1.9z"/></g></svg><svg version="1.1" id="flag_pl" x="0" y="0" xml:space="preserve" viewBox="0 0 30 30" xmlns="http://www.w3.org/2000/svg"><style>.adst0{fill:#f0f0f0}.adst1{fill:#d80027}</style><g id="adpl"><circle class="adst0" cx="15" cy="15" r="15"/><path class="adst1" d="M30 15c0 8.3-6.7 15-15 15S0 23.3 0 15"/></g></svg><svg version="1.1" id="flag_pt" x="0" y="0" xml:space="preserve" viewBox="0 0 30 30" xmlns="http://www.w3.org/2000/svg"><style>.aest0{fill:#c00}.aest1{fill:#093}.aest2{fill:#fc0}.aest3{fill:#eee}</style><g id="aept"><path class="aest0" d="M20.2.9C18.6.3 16.8 0 15 0s-3.6.3-5.2.9L8.5 15l1.3 14.1c1.6.6 3.4.9 5.2.9s3.6-.3 5.2-.9C25.9 26.9 30 21.5 30 15S25.9 3.1 20.2.9z"/><path class="aest1" d="M0 15c0 6.5 4.1 11.9 9.8 14.1V.9C4.1 3.1 0 8.5 0 15z"/><circle class="aest2" cx="9.8" cy="15" r="5.2"/><path class="aest0" d="M9.8 17.6c-1.4 0-2.6-1.2-2.6-2.6v-2.6h5.2V15c0 1.4-1.2 2.6-2.6 2.6z"/><path class="aest3" d="M9.8 16.3c-.8 0-1.3-.5-1.3-1.3v-1.3h2.6V15c0 .8-.5 1.3-1.3 1.3z"/></g></svg><svg version="1.1" id="flag_ru" x="0" y="0" xml:space="preserve" viewBox="0 0 30 30" xmlns="http://www.w3.org/2000/svg"><style>.afst0{fill:#f0f0f0}.afst1{fill:#0052b4}.afst2{fill:#d80027}</style><g id="afru"><circle class="afst0" cx="15" cy="15" r="15"/><path class="afst1" d="M29.1 20.2c.6-1.6.9-3.4.9-5.2s-.3-3.6-.9-5.2H.9C.3 11.4 0 13.2 0 15s.3 3.6.9 5.2L15 21.5l14.1-1.3z"/><path class="afst2" d="M15 30c6.4 0 11.9-4.1 14.1-9.8H.9C3.1 25.9 8.6 30 15 30z"/></g></svg><svg version="1.1" id="flag_sw" x="0" y="0" xml:space="preserve" viewBox="0 0 30 30" xmlns="http://www.w3.org/2000/svg"><style>.agst0{fill:#ffda44}.agst1{fill:#0052b4}</style><g id="agsw"><circle class="agst0" cx="15" cy="15" r="15"/><path class="agst1" d="M11.7 13h18.1C28.9 5.7 22.6 0 15 0c-1.1 0-2.2.1-3.3.4V13zM7.8 13V1.8C3.7 4.1.8 8.2.1 13h7.7zM7.8 17H.1c.6 4.9 3.6 9 7.7 11.2V17zM11.7 17v12.7c1 .2 2.1.4 3.3.4 7.6 0 13.9-5.7 14.9-13L11.7 17z"/></g></svg><svg version="1.1" id="flag_tr" x="0" y="0" xml:space="preserve" viewBox="0 0 30 30" xmlns="http://www.w3.org/2000/svg"><style>.ahst0{fill:#d80027}.ahst1{fill:#f0f0f0}</style><g id="ahtr"><circle class="ahst0" cx="15" cy="15" r="15"/><path class="ahst1" d="M14.4 12.3l1.2 1.7 2-.7-1.2 1.7 1.2 1.7-2-.7-1.2 1.7v-2.1l-2-.6 2-.6z"/><path class="ahst1" d="M11 19.2c-2.3 0-4.2-1.9-4.2-4.2s1.9-4.2 4.2-4.2c.7 0 1.4.2 2 .5-.9-.9-2.2-1.5-3.6-1.5-2.9 0-5.2 2.3-5.2 5.2s2.3 5.2 5.2 5.2c1.4 0 2.7-.6 3.6-1.5-.6.4-1.2.5-2 .5z"/></g></svg><svg viewBox="0 0 492.004 492.004" id="ico_arrow" xmlns="http://www.w3.org/2000/svg"><path d="M484.14 226.886L306.46 49.202c-5.072-5.072-11.832-7.856-19.04-7.856-7.216 0-13.972 2.788-19.044 7.856l-16.132 16.136c-5.068 5.064-7.86 11.828-7.86 19.04 0 7.208 2.792 14.2 7.86 19.264L355.9 207.526H26.58C11.732 207.526 0 219.15 0 234.002v22.812c0 14.852 11.732 27.648 26.58 27.648h330.496L252.248 388.926c-5.068 5.072-7.86 11.652-7.86 18.864 0 7.204 2.792 13.88 7.86 18.948l16.132 16.084c5.072 5.072 11.828 7.836 19.044 7.836 7.208 0 13.968-2.8 19.04-7.872l177.68-177.68c5.084-5.088 7.88-11.88 7.86-19.1.016-7.244-2.776-14.04-7.864-19.12z" fill="#262b33" data-original="#000000"/></svg><svg version="1.1" id="ico_browse" x="0" y="0" xml:space="preserve" viewBox="0 0 30 30" xmlns="http://www.w3.org/2000/svg"><style>.ajst0{fill:#262b33}</style><path class="ajst0" d="M29.9 11.6l-1 5.4c-1.2-3.7-4.7-6.3-8.8-6.3-5.2 0-9.3 4.2-9.3 9.3 0 1.7.5 3.4 1.3 4.8h-8c-2.3 0-4.1-1.9-4.1-4.1V4.1C0 1.9 1.9 0 4.1 0h5.5c.3 0 .5.1.8.2l3.8 2.5H22c2.3 0 4.1 1.9 4.1 4.1h-2.8c0-.8-.6-1.4-1.4-1.4h-8.3c-.3 0-.5-.1-.8-.2L9.2 2.8H4.1c-.8 0-1.4.6-1.4 1.4v16.5c0 .8.6 1.4 1.4 1.4h.2l2.1-10.5c.4-1.9 2.1-3.3 4-3.3h16.7c.8 0 1.6.4 2.1 1 .7.6.9 1.4.7 2.3zm.1 16.3L27.9 30l-3.8-3.8c-2.5 1.6-5.7 1.6-8.2 0-3.4-2.3-4.4-6.9-2.1-10.3 2.3-3.4 6.9-4.4 10.3-2.1 3.4 2.3 4.4 6.9 2.1 10.3l3.8 3.8zM24.5 20c0-2.5-2-4.5-4.5-4.5s-4.5 2-4.5 4.5 2 4.5 4.5 4.5 4.5-2 4.5-4.5z"/></svg><svg version="1.1" id="ico_close" x="0" y="0" xml:space="preserve" viewBox="0 0 16 16" xmlns="http://www.w3.org/2000/svg"><style>.akst0{fill-rule:evenodd;clip-rule:evenodd;fill:#e4e6eb}</style><path class="akst0" d="M14.4 3.1l-1.5-1.5-4.9 5-4.9-5-1.5 1.5 5 4.9-5 4.9 1.5 1.5 4.9-5 4.9 5 1.5-1.5-5-4.9z"/></svg><svg version="1.1" id="ico_menu" x="0" y="0" xml:space="preserve" viewBox="0 0 30 30" xmlns="http://www.w3.org/2000/svg"><style>.alst0{fill-rule:evenodd;clip-rule:evenodd;fill:#eee}</style><path class="alst0" d="M7 9h16v2H7V9zM7 14h16v2H7v-2zM7 19h16v2H7v-2z"/></svg><svg version="1.1" id="ico_resize" x="0" y="0" xml:space="preserve" viewBox="0 0 30 30" xmlns="http://www.w3.org/2000/svg"><style>.amst0{fill-rule:evenodd;clip-rule:evenodd;fill:#eee}</style><path class="amst0" d="M9 9v12h12V9H9zm10 10h-8v-8h8v8z"/></svg><svg version="1.1" id="ico_search" x="0" y="0" xml:space="preserve" viewBox="0 0 24 24" xmlns="http://www.w3.org/2000/svg"><style>.anst0{fill:#e4e6eb}</style><g id="anico_x5F_search"><path id="ans_4_" class="anst0" d="M24 21.3l-5.3-6.4c.8-1.5 1.3-3.1 1.3-4.9 0-5.5-4.5-10-10-10S0 4.5 0 10s4.5 10 10 10c1.7 0 3.5-.5 4.9-1.3l6.4 5.3 2.7-2.7zM2.7 10C2.7 5.9 6 2.7 10 2.7S17.3 6 17.3 10 14 17.3 10 17.3 2.7 14.1 2.7 10z"/></g></svg><svg version="1.1" id="ico_star" x="0" y="0" xml:space="preserve" viewBox="0 0 30 30" xmlns="http://www.w3.org/2000/svg"><style>.aost0{fill-rule:evenodd;clip-rule:evenodd;fill:#eee}</style><path class="aost0" d="M15 7.5l2.6 4.7 5.4 1-3.7 3.9.7 5.3-5-2.2-4.9 2.3.7-5.3-3.8-4 5.4-1L15 7.5"/></svg><svg version="1.1" id="ico_verify" x="0" y="0" xml:space="preserve" viewBox="0 0 30 30" xmlns="http://www.w3.org/2000/svg"><style>.apst0{fill:#262b33}</style><path class="apst0" d="M14.3 0C18.5 0 22 3.4 22 7.7s-3.4 7.7-7.7 7.7S6.6 12 6.6 7.7 10.1 0 14.3 0zm2 28.6C14.8 27.1 14 25 14 22.7c0-2.3.9-4.5 2.4-6-.7-.1-1.4-.1-2.1-.1-4.6 0-8.7 1.2-11.3 2.9-1.9 1.3-3 3-3 4.8v2c0 .6.2 1.2.7 1.7.4.4 1 .7 1.7.7h13.9zm6.4-13.2c-4 0-7.3 3.3-7.3 7.3s3.3 7.3 7.3 7.3 7.3-3.3 7.3-7.3-3.3-7.3-7.3-7.3zm3.5 6.3l-3.5 3.5c-.4.4-.9.4-1.3.1l-2.1-1.4c-.5-.3-.6-1-.3-1.5s1-.6 1.5-.3l1.4.9 2.9-2.9c.4-.4 1.1-.4 1.5 0 .3.5.3 1.2-.1 1.6z"/></svg><svg version="1.1" id="link_chat" x="0" y="0" xml:space="preserve" viewBox="0 0 30 30" xmlns="http://www.w3.org/2000/svg"><style>.aqst0{fill:#262b33}</style><path class="aqst0" d="M26.8 0h-15c-1.7 0-3.2 1.4-3.2 3.2v7H3.2c-1.7 0-3.2 1.4-3.2 3.2v9.8c0 1.4 1 2.7 2.3 3v3c0 .3.2.7.5.8h.4c.2 0 .4-.1.6-.2l4.1-3.5h7.5c1.7 0 3.2-1.4 3.2-3.2V18h2.9l4.4 4.1c.2.2.4.2.6.2.1 0 .2 0 .4-.1.3-.1.5-.5.5-.8v-3.5c1.5-.2 2.7-1.6 2.7-3.1V3.2C30 1.4 28.6 0 26.8 0zm1.4 14.8c0 .8-.6 1.4-1.4 1.4h-.4c-.5 0-.9.4-.9.9v2.3l-3.2-3c-.2-.2-.4-.2-.6-.2h-9.9c-.8 0-1.4-.6-1.4-1.4V3.2c0-.8.6-1.4 1.4-1.4h15c.8 0 1.4.6 1.4 1.4v11.6zm-2.8-5.9c0 .5-.4.9-.9.9H14.2c-.5 0-.9-.4-.9-.9s.4-.9.9-.9h10.3c.5.1.9.5.9.9zm0-3.7c0 .5-.4.9-.9.9H14.2c-.5 0-.9-.4-.9-.9s.4-.9.9-.9h10.3c.5 0 .9.4.9.9zm0 7.4c0 .5-.4.9-.9.9H14.2c-.5 0-.9-.4-.9-.9s.4-.9.9-.9h10.3c.5 0 .9.4.9.9z"/></svg><svg version="1.1" id="link_chat_contact" x="0" y="0" xml:space="preserve" viewBox="0 0 30 30" xmlns="http://www.w3.org/2000/svg"><style>.arst0{fill:#95a1b6}</style><path class="arst0" d="M26.8 0h-15c-1.7 0-3.2 1.4-3.2 3.2v7H3.2c-1.7 0-3.2 1.4-3.2 3.2v9.8c0 1.4 1 2.7 2.3 3v3c0 .3.2.7.5.8h.4c.2 0 .4-.1.6-.2l4.1-3.5h7.5c1.7 0 3.2-1.4 3.2-3.2V18h2.9l4.4 4.1c.2.2.4.2.6.2.1 0 .2 0 .4-.1.3-.1.5-.5.5-.8v-3.5c1.5-.2 2.7-1.6 2.7-3.1V3.2C30 1.4 28.6 0 26.8 0zm1.4 14.8c0 .8-.6 1.4-1.4 1.4h-.4c-.5 0-.9.4-.9.9v2.3l-3.2-3c-.2-.2-.4-.2-.6-.2h-9.9c-.8 0-1.4-.6-1.4-1.4V3.2c0-.8.6-1.4 1.4-1.4h15c.8 0 1.4.6 1.4 1.4v11.6zm-2.8-5.9c0 .5-.4.9-.9.9H14.2c-.5 0-.9-.4-.9-.9s.4-.9.9-.9h10.3c.5.1.9.5.9.9zm0-3.7c0 .5-.4.9-.9.9H14.2c-.5 0-.9-.4-.9-.9s.4-.9.9-.9h10.3c.5 0 .9.4.9.9zm0 7.4c0 .5-.4.9-.9.9H14.2c-.5 0-.9-.4-.9-.9s.4-.9.9-.9h10.3c.5 0 .9.4.9.9z"/></svg><svg version="1.1" id="link_insta" x="0" y="0" xml:space="preserve" viewBox="0 0 30 30" xmlns="http://www.w3.org/2000/svg"><style>.asst0{fill:#95a1b6}</style><path id="asinst" class="asst0" d="M21.7 0H8.3C3.8 0 0 3.7 0 8.3v13.4C0 26.2 3.7 30 8.3 30h13.4c4.5 0 8.3-3.7 8.3-8.3V8.2C29.9 3.7 26.2 0 21.7 0zm5.6 21.7c0 3-2.5 5.6-5.6 5.6H8.2c-3 0-5.6-2.5-5.6-5.6V8.2c0-3 2.5-5.6 5.6-5.6h13.5c3 0 5.6 2.5 5.6 5.6v13.5zM15 6.8c-4.5 0-8.2 3.7-8.2 8.2s3.7 8.2 8.2 8.2 8.2-3.7 8.2-8.2-3.7-8.2-8.2-8.2zm0 13.7c-3 0-5.5-2.5-5.5-5.5S12 9.5 15 9.5s5.5 2.5 5.5 5.5-2.5 5.5-5.5 5.5zM24 6c.3.3.5.8.5 1.5 0 .4-.1 1.1-.5 1.5-.3.3-.8.5-1.5.5-.4 0-1.1-.1-1.5-.5-.3-.3-.5-.8-.5-1.5 0-.4.1-1.1.5-1.5.3-.3.8-.5 1.5-.5s1.2.1 1.5.5z"/></svg><svg version="1.1" id="link_mail" x="0" y="0" xml:space="preserve" viewBox="0 0 30 30" xmlns="http://www.w3.org/2000/svg"><style>.atst0{fill:#95a1b6}</style><path id="atmail" class="atst0" d="M19.4 16.3l-2.5 2.6c-1.1 1.1-2.8 1.1-3.9 0l-2.5-2.6-9 9.2c.3.1.7.2 1.1.2h24.8c.4 0 .8-.1 1.1-.2l-9.1-9.2zm7.9-12H2.7c-.4 0-.7.1-1.1.2l9.6 9.9 3.1 3.2c.3.3 1.1.3 1.4 0l3.1-3.2 9.6-9.9c-.2-.1-.6-.2-1.1-.2zM.3 5.8C.1 6.1 0 6.5 0 7v16c0 .4.1.9.3 1.2l9-9.2-9-9.2zm29.4 0l-9 9.2 9 9.2c.2-.3.3-.8.3-1.2V7c0-.5-.1-.9-.3-1.2z"/></svg><svg version="1.1" id="link_phone" x="0" y="0" xml:space="preserve" viewBox="0 0 30 30" xmlns="http://www.w3.org/2000/svg"><style>.aust0{fill:#95a1b6}</style><path id="auphone" class="aust0" d="M27.3 26.5L24.5 29c-2.9 2.7-10.3-.3-16.8-6.8S-1.7 8.6 1 6l2.7-2.5c1-1 2.7-1 3.8 0l3.9 3.8c1.4 1.3.9 3.6-1 4.1-1.2.3-2.1 1.7-1.7 3 .7 2.8 4.5 6.5 7.2 7.1 1.2.3 2.7-.3 3.1-1.7.5-1.8 2.9-2.3 4.3-.8l3.9 3.8c1.1 1.1 1.1 2.7.1 3.7zm-10-21.4h-.9c-.5 0-.9-.3-1-.8 0-.5.3-.8.9-1h1c5 0 8.9 3.8 8.9 8.6v1c0 .5-.5.8-1 .8s-.9-.5-.9-1v-.8c.2-3.8-3-6.8-7-6.8zm5.3 6.8c0 .5-.3.8-.9.8s-.9-.3-.9-.8c0-1.8-1.5-3.5-3.6-3.5-.5 0-.9-.3-.9-.8s.3-.8.9-.8c3 0 5.4 2.3 5.4 5.1zm6.9 2.9c-.2.5-.7.8-1 .7-.5-.2-.7-.7-.7-1 .2-.8.3-1.5.3-2.3 0-5.6-4.8-10.3-10.6-10.3h-.9c-.5 0-.9-.3-1-.8 0-.5.3-.8.9-1h1C24.3 0 30 5.3 30 11.9c-.2 1-.3 1.9-.5 2.9z"/></svg><svg version="1.1" id="link_telegram" x="0" y="0" xml:space="preserve" viewBox="0 0 30 30" xmlns="http://www.w3.org/2000/svg"><style>.avst0{fill:#95a1b6}</style><path id="avtelegram" class="avst0" d="M28.1 2.8L.7 13.2c-.9.4-.9 1.6.1 1.9l7 2 2.6 8.1c.2.9 1.4 1.1 2 .5L16 22l7.1 5.1c.9.6 2.1.1 2.4-.9L30 4.3c.2-1-.9-1.9-1.9-1.5zm-3.5 4.7L11.9 18.7c-.1.1-.2.2-.2.4l-.5 4.4c0 .1-.2.1-.2 0l-2-6.4c-.1-.2 0-.6.2-.7l15-9.2c.4-.4.8.1.4.3z"/></svg><svg version="1.1" id="social_facebook" x="0" y="0" xml:space="preserve" viewBox="0 0 40 40" xmlns="http://www.w3.org/2000/svg"><style>.awst0{fill:#3c5999}.awst1{fill:#e8ebef}</style><g id="awico40_x5F_FbHover"><circle class="awst0" cx="20" cy="20" r="20" id="aw_x30__8_"/><path class="awst1" d="M24.5 16.5l-.4 3.5h-2.7v10h-4V20h-1.9v-3.5h1.9v-2.3c0-1.6.8-4.2 4.1-4.2h3v3.4h-2.2c-.4 0-.8.2-.8 1v2.1h3z" id="awFb_2_"/></g></svg><svg version="1.1" id="social_google" x="0" y="0" xml:space="preserve" viewBox="0 0 40 40" xmlns="http://www.w3.org/2000/svg"><style>.axst0{fill:#b5c0cb}.axst1{fill:#fbbb00}.axst2{fill:#518ef8}.axst3{fill:#28b446}.axst4{fill:#f14336}</style><g id="axico40_x5F_GoogleHover"><circle class="axst0" cx="20" cy="20" r="20" id="ax_x30__13_"/><g id="axGoogle"><path class="axst1" d="M12.8 22.7l-.9 3.4-3.3.1c-1-1.9-1.6-4-1.6-6.2s.5-4.2 1.5-6l2.9.5 1.3 2.9c-.3.8-.4 1.6-.4 2.5 0 1.1.1 2 .5 2.8z"/><path class="axst2" d="M32.8 17.6c.1.8.2 1.6.2 2.4 0 .9-.1 1.8-.3 2.7-.6 3-2.3 5.6-4.6 7.4l-3.7-.2-.5-3.3c1.5-.9 2.7-2.3 3.3-4h-7v-5.1h12.6v.1z"/><path class="axst3" d="M28.1 30.1c-2.2 1.8-5 2.9-8.1 2.9-5 0-9.3-2.8-11.5-6.8l4.2-3.4c1.1 2.9 3.9 5 7.2 5 1.4 0 2.8-.4 3.9-1.1l4.3 3.4z"/><path class="axst4" d="M28.3 10l-4.2 3.4c-1.2-.7-2.6-1.2-4.1-1.2-3.4 0-6.3 2.2-7.3 5.2L8.5 14C10.6 9.8 15 7 20 7c3.2 0 6 1.1 8.3 3z"/></g></g></svg><svg version="1.1" id="social_insta" x="0" y="0" xml:space="preserve" viewBox="0 0 40 40" xmlns="http://www.w3.org/2000/svg"><style>.ayst0{fill:#939}.ayst1{fill:#e8ebef}</style><g id="ayico40_x5F_InstHover"><circle id="ayinst_3_" class="ayst0" cx="20" cy="20" r="20"/><path id="ayinst_2_" class="ayst1" d="M25.1 8.7H14.9c-3.4 0-6.3 2.8-6.3 6.3v10.2c0 3.4 2.8 6.3 6.3 6.3h10.2c3.4 0 6.3-2.8 6.3-6.3V14.9c-.1-3.4-2.9-6.2-6.3-6.2zm4.2 16.4c0 2.3-1.9 4.2-4.2 4.2H14.9c-2.3 0-4.2-1.9-4.2-4.2V14.9c0-2.3 1.9-4.2 4.2-4.2h10.2c2.3 0 4.2 1.9 4.2 4.2v10.2z"/><path id="ayinst_1_" class="ayst1" d="M20 14.2c-3.2 0-5.8 2.6-5.8 5.8s2.6 5.8 5.8 5.8 5.8-2.6 5.8-5.8-2.6-5.8-5.8-5.8zm0 9.6c-2.1 0-3.8-1.7-3.8-3.8s1.7-3.8 3.8-3.8 3.8 1.7 3.8 3.8-1.7 3.8-3.8 3.8z"/><path id="ayinst" class="ayst1" d="M26.1 12.5c-.4 0-.8.2-1 .4-.3.3-.4.7-.4 1 0 .4.2.8.4 1 .3.3.7.4 1 .4.4 0 .8-.2 1-.4.3-.3.4-.7.4-1 0-.4-.2-.8-.4-1-.2-.3-.6-.4-1-.4z"/></g></svg><svg version="1.1" id="social_mailru" x="0" y="0" xml:space="preserve" viewBox="0 0 40 40" xmlns="http://www.w3.org/2000/svg"><style>.azst0{fill:#134785}.azst1{fill:#ff9e00}</style><g id="azico40_x5F_MailRuHover"><circle id="azmailru" class="azst0" cx="20" cy="20" r="20"/><path class="azst1" d="M24.2 20c0 2.3-1.9 4.2-4.2 4.2s-4.2-1.9-4.2-4.2 1.9-4.2 4.2-4.2 4.2 1.9 4.2 4.2M20 6C12.3 6 6 12.3 6 20s6.3 14 14 14c2.8 0 5.6-.8 7.9-2.4L26 29.3c-1.8 1.2-3.9 1.8-6 1.8-6.1 0-11.1-5-11.1-11.1S13.9 8.9 20 8.9s11.1 5 11.1 11.1c0 .8-.1 1.6-.3 2.4-.4 1.4-1.4 1.9-2.1 1.8-.8-.1-1.7-.6-1.7-1.9V20c0-3.9-3.2-7.1-7.1-7.1s-7.1 3.2-7.1 7.1 3.2 7.1 7.1 7.1c1.9 0 3.7-.7 5-2.1.8 1.2 2.1 2 3.5 2.1h.4c1 0 2-.3 2.8-1 .8-.6 1.5-1.6 1.8-2.7.1-.2.2-.6.2-.6.3-.8.4-1.7.4-2.8 0-7.7-6.3-14-14-14"/></g></svg><svg version="1.1" id="social_twitter" x="0" y="0" xml:space="preserve" viewBox="0 0 40 40" xmlns="http://www.w3.org/2000/svg"><style>.bast0{fill:#249ddb}.bast1{fill:#e8ebef}</style><g id="baico40_x5F_TwHover"><circle class="bast0" cx="20" cy="20" r="20" id="ba_x30__9_"/><path id="batw_1_" class="bast1" d="M33.3 11.9c-1 .4-2 .7-3.1.8 1.1-.7 2-1.7 2.4-3-1.1.6-2.2 1.1-3.5 1.3-1-1-2.4-1.7-4-1.7-3 0-5.5 2.4-5.5 5.4 0 .4 0 .8.1 1.2-4.5-.2-8.6-2.4-11.3-5.6-1.9 3.6.2 6.2 1.7 7.2-.9 0-1.7-.3-2.5-.7v.1c0 2.6 1.9 4.8 4.4 5.3-.5.1-1.3.3-2.5.1.7 2.1 2.7 3.7 5.1 3.7-1.9 1.4-4.7 2.6-8.1 2.2 2.4 1.5 5.3 2.4 8.4 2.4 12.2 0 16.1-11.1 15.5-16 1.2-.7 2.2-1.7 2.9-2.7z"/></g></svg><svg version="1.1" id="social_vkontakte" x="0" y="0" xml:space="preserve" viewBox="0 0 40 40" xmlns="http://www.w3.org/2000/svg"><style>.bbst0{fill:#4f80ba}.bbst1{fill:#e8ebef}</style><g id="bbico40_x5F_VkHover"><circle class="bbst0" cx="20" cy="20" r="20" id="bb_x30__4_"/><path class="bbst1" d="M29.6 14.8c.1-.5 0-.8-.7-.8h-2.2c-.6 0-.8.3-.9.6 0 0-1.1 2.7-2.7 4.5-.5.5-.7.7-1 .7-.1 0-.3-.2-.3-.6v-4.4c0-.6-.2-.8-.6-.8h-3.4c-.3 0-.6.3-.6.5 0 .5.8.7.9 2.2v3.2c0 .7-.1.8-.4.8-.7 0-2.5-2.7-3.6-5.9-.2-.6-.4-.9-1-.9h-2.2c-.6 0-.7.3-.7.6 0 .6.7 3.5 3.5 7.3 1.8 2.6 4.4 4 6.7 4 1.4 0 1.6-.3 1.6-.9v-2c0-.6.1-.8.6-.8.3 0 .9.2 2.2 1.4 1.5 1.5 1.7 2.2 2.6 2.2h2.2c.6 0 .9-.3.8-.9-.4-1.3-2.7-3.5-3.4-4.2-.3-.4-.2-.6 0-1-.4.3 2.3-3.5 2.6-4.8z" id="bbVk_1_"/></g></svg></svg>