<?xml version="1.0" encoding="utf-8"?>
<!-- Generator: Adobe Illustrator 21.0.0, SVG Export Plug-In . SVG Version: 6.00 Build 0)  -->
<svg version="1.1" id="Слой_1" xmlns="http://www.w3.org/2000/svg" xmlns:xlink="http://www.w3.org/1999/xlink" x="0px" y="0px"
	 width="90px" height="110px" viewBox="0 0 90 110" style="enable-background:new 0 0 90 110;" xml:space="preserve">
<style type="text/css">
	.st0{fill:#444447;}
	.st1{fill:#9CBBFF;}
	.st2{fill:#363638;}
	.st3{fill:#A90019;}
	.st4{fill:#D0D6D9;}
	.st5{fill:#515256;}
	.st6{fill:#87A9F2;}
	.st7{fill:#272729;}
	.st8{fill:#7395DE;}
	.st9{fill:#EBDFC9;}
	.st10{fill:#EB0116;}
	.st11{fill:#8CB01A;}
	.st12{fill:#71870B;}
	.st13{fill:#94959C;}
	.st14{fill:#F0F5F5;}
	.st15{fill:#DAE0E0;}
	.st16{fill:#A35AC5;}
	.st17{fill:#903FB5;}
	.st18{fill:#722994;}
	.st19{fill:#7E9612;}
	.st20{fill:url(#SVGID_1_);}
	.st21{fill:#FC3C2B;}
	.st22{fill:#FDFFE9;}
	.st23{clip-path:url(#SVGID_4_);}
	.st24{fill:url(#SVGID_5_);}
	.st25{fill:url(#SVGID_6_);}
	.st26{fill:#392A27;}
	.st27{fill:#68AD37;}
	.st28{fill:#FBFFF3;}
	.st29{fill:url(#SVGID_7_);}
	.st30{fill:#FFFFFF;}
	.st31{fill:url(#SVGID_8_);}
	.st32{fill:url(#SVGID_9_);}
	.st33{fill:url(#SVGID_10_);}
	.st34{fill:url(#SVGID_11_);}
	.st35{fill:url(#SVGID_12_);}
	.st36{fill:url(#SVGID_13_);}
	.st37{fill:url(#SVGID_14_);}
	.st38{fill:url(#SVGID_15_);}
	.st39{fill:url(#SVGID_16_);}
	.st40{fill:url(#SVGID_17_);}
	.st41{fill:url(#SVGID_18_);}
	.st42{fill:url(#SVGID_19_);}
	.st43{fill:url(#SVGID_20_);}
	.st44{fill:url(#SVGID_21_);}
	.st45{fill:url(#SVGID_22_);}
	.st46{fill:url(#SVGID_23_);}
	.st47{fill:url(#SVGID_24_);}
	.st48{fill:url(#SVGID_25_);}
	.st49{fill:url(#SVGID_26_);}
	.st50{fill:url(#SVGID_27_);}
	.st51{fill:url(#SVGID_28_);}
	.st52{opacity:0.4;fill:#FFFFFF;}
	.st53{opacity:0.7;fill:#A90019;}
	.st54{opacity:0.7;fill:#FFFFFF;}
	.st55{fill:#FFB424;}
	.st56{fill:#F7981B;}
	.st57{fill:#FFCE2B;}
	.st58{fill:#9DA2AB;}
	.st59{fill:#808591;}
	.st60{fill:url(#SVGID_29_);}
	.st61{fill:url(#SVGID_30_);}
	.st62{opacity:0.5;fill:url(#SVGID_31_);}
	.st63{fill:#ABB5B5;}
	.st64{fill:#F4F4F4;}
	.st65{fill:#CBD3D3;}
	.st66{fill:#42AF58;}
</style>
<g id="New">
	<g>
		<g>
			<polygon class="st0" points="30.7,110 4.6,94.8 4.5,69.4 30.6,84.6 			"/>
		</g>
		<polygon class="st1" points="4.6,92 4.5,69.4 4.5,69.4 4.6,94.8 30.7,110 30.7,107.2 		"/>
		<g>
			<polygon class="st2" points="30.6,84.6 4.5,69.4 0,58.4 26.1,73.6 			"/>
			<polygon class="st3" points="6,68.1 3.8,62.8 24.6,74.9 26.8,80.2 			"/>
			<polygon class="st4" points="18.2,73.6 17.5,72 23.7,75.6 24.3,77.1 			"/>
			<polygon class="st2" points="18.4,73.3 18.2,72.8 23.4,75.8 23.6,76.4 			"/>
		</g>
		<g>
			<polygon class="st1" points="26.1,73.6 0,58.4 10.8,47 36.9,62.2 			"/>
			<polygon class="st5" points="1.5,58.2 11,48.2 35.4,62.4 25.9,72.5 			"/>
		</g>
		<g>
			<polygon class="st0" points="36.9,62.2 10.8,47 20,17.5 46.1,32.6 			"/>
		</g>
		<g>
			<polygon class="st6" points="36.9,62.2 10.8,47 20,17.5 46.1,32.6 			"/>
			<polygon class="st0" points="11.9,46.6 20.5,18.8 45,33.1 36.4,60.8 			"/>
		</g>
		<g>
			<polygon class="st7" points="56,15.2 55.6,95.6 30.7,110 30.6,84.6 26.1,73.6 36.9,62.2 46.1,32.6 46,20.9 			"/>
		</g>
		<g>
			<polygon class="st8" points="55.6,92.8 30.7,107.2 30.7,110 55.6,95.6 			"/>
		</g>
		<g>
			<polygon class="st1" points="46.1,32.6 20,17.5 19.9,5.8 46,20.9 			"/>
			<polygon class="st2" points="20.9,16.9 20.9,7.4 45.1,21.5 45.1,31 			"/>
			<polygon class="st9" points="23.2,15.6 23.2,11.4 42.8,22.8 42.8,27 			"/>
			<polygon class="st9" points="23.7,15.3 23.6,12.2 42.3,23.1 42.3,26.2 			"/>
			<polygon class="st10" points="23.7,12.8 23.6,12.2 42.3,23.1 42.3,23.7 			"/>
			<polygon class="st10" points="23.7,13.9 23.6,13.3 42.3,24.2 42.3,24.8 			"/>
			<polygon class="st10" points="23.7,15.1 23.6,14.5 42.3,25.3 42.3,25.9 			"/>
		</g>
		<g>
			<polygon class="st5" points="46,20.9 19.9,5.8 29.9,0 56,15.2 			"/>
		</g>
		<g>
			<g>
				<g>
					<polygon class="st11" points="25.7,84.3 19.6,80.7 19.6,79.3 25.7,82.8 					"/>
				</g>
				<polygon class="st12" points="20.9,80 19.6,79.3 19.6,80.7 				"/>
				<path class="st13" d="M25.8,82.7l-6.3-3.7l0,1.8l6.3,3.7L25.8,82.7z M19.6,80.7l0-1.5l6.1,3.5l0,1.5L19.6,80.7z"/>
			</g>
			<path class="st6" d="M19.5,79.1l-0.2,0.1c-0.7,0.4-1.3,1.5-1.3,2.5l0,0l0-0.1l1.5-0.8V79.1L19.5,79.1L19.5,79.1z"/>
			<path class="st8" d="M19.5,80.8L18,81.7l0,0c0-1,0.6-2.1,1.3-2.5l0.2-0.1V80.8z"/>
			<polygon class="st6" points="18,81.7 24.3,85.4 24.3,85.3 18,81.6 			"/>
			<polygon class="st1" points="24.3,85.3 18,81.6 19.5,80.7 25.8,84.4 			"/>
			<path class="st6" d="M25.8,82.7l-0.2,0.1c-0.7,0.4-1.3,1.5-1.3,2.5l0,0l0-0.1l1.5-0.8V82.7L25.8,82.7L25.8,82.7z"/>
			<path class="st8" d="M25.8,84.5l-1.5,0.9l0,0c0-1,0.6-2.1,1.3-2.5l0.2-0.1V84.5z"/>
		</g>
	</g>
	<g>
		<polygon class="st2" points="24.8,68.7 5.3,57.4 11.3,51 30.9,62.4 		"/>
	</g>
	<g>
		<g>
			<g>
				<polygon class="st14" points="8.5,57.9 6.9,56.9 8.1,55.7 9.7,56.6 				"/>
			</g>
			<polygon class="st15" points="8.5,57.9 8.5,58.2 6.9,57.3 6.9,56.9 			"/>
			<polygon class="st4" points="9.7,56.6 9.7,57 8.5,58.2 8.5,57.9 			"/>
		</g>
		<g>
			<g>
				<polygon class="st14" points="11.1,59.4 9.5,58.5 10.7,57.2 12.3,58.2 				"/>
			</g>
			<polygon class="st15" points="11.1,59.4 11.1,59.7 9.5,58.8 9.5,58.5 			"/>
			<polygon class="st4" points="12.3,58.2 12.3,58.5 11.1,59.7 11.1,59.4 			"/>
		</g>
		<g>
			<g>
				<polygon class="st14" points="13.7,60.9 12.1,60 13.3,58.7 14.9,59.7 				"/>
			</g>
			<polygon class="st15" points="13.7,60.9 13.7,61.2 12.1,60.3 12.1,60 			"/>
			<polygon class="st4" points="14.9,59.7 14.9,60 13.7,61.2 13.7,60.9 			"/>
		</g>
		<g>
			<g>
				<polygon class="st14" points="16.3,62.4 14.7,61.5 15.9,60.2 17.5,61.2 				"/>
			</g>
			<polygon class="st15" points="16.3,62.4 16.3,62.8 14.7,61.8 14.7,61.5 			"/>
			<polygon class="st4" points="17.5,61.2 17.5,61.5 16.3,62.8 16.3,62.4 			"/>
		</g>
		<g>
			<g>
				<polygon class="st14" points="18.9,63.9 17.3,63 18.5,61.8 20.1,62.7 				"/>
			</g>
			<polygon class="st15" points="18.9,63.9 18.9,64.3 17.3,63.3 17.3,63 			"/>
			<polygon class="st4" points="20.1,62.7 20.1,63 18.9,64.3 18.9,63.9 			"/>
		</g>
		<g>
			<g>
				<polygon class="st14" points="10.3,56 8.7,55 9.9,53.8 11.5,54.7 				"/>
			</g>
			<polygon class="st15" points="10.3,56 10.3,56.3 8.7,55.4 8.7,55 			"/>
			<polygon class="st4" points="11.5,54.7 11.5,55.1 10.3,56.3 10.3,56 			"/>
		</g>
		<g>
			<g>
				<polygon class="st14" points="12.9,57.5 11.3,56.5 12.5,55.3 14.1,56.2 				"/>
			</g>
			<polygon class="st15" points="12.9,57.5 12.9,57.8 11.3,56.9 11.3,56.5 			"/>
			<polygon class="st4" points="14.1,56.2 14.1,56.6 12.9,57.8 12.9,57.5 			"/>
		</g>
		<g>
			<g>
				<polygon class="st14" points="15.5,59 13.9,58.1 15.1,56.8 16.7,57.8 				"/>
			</g>
			<polygon class="st15" points="15.5,59 15.5,59.3 13.9,58.4 13.9,58.1 			"/>
			<polygon class="st4" points="16.7,57.8 16.7,58.1 15.5,59.3 15.5,59 			"/>
		</g>
		<g>
			<g>
				<polygon class="st14" points="18.1,60.5 16.5,59.6 17.7,58.3 19.3,59.3 				"/>
			</g>
			<polygon class="st15" points="18.1,60.5 18.1,60.8 16.5,59.9 16.5,59.6 			"/>
			<polygon class="st4" points="19.3,59.3 19.3,59.6 18.1,60.8 18.1,60.5 			"/>
		</g>
		<g>
			<g>
				<polygon class="st14" points="20.7,62 19.1,61.1 20.3,59.8 21.9,60.8 				"/>
			</g>
			<polygon class="st15" points="20.7,62 20.7,62.4 19.1,61.4 19.1,61.1 			"/>
			<polygon class="st4" points="21.9,60.8 21.9,61.1 20.7,62.4 20.7,62 			"/>
		</g>
		<g>
			<g>
				<polygon class="st14" points="12.2,54.1 10.5,53.1 11.7,51.9 13.3,52.8 				"/>
			</g>
			<polygon class="st15" points="12.2,54.1 12.2,54.4 10.5,53.4 10.5,53.1 			"/>
			<polygon class="st4" points="13.3,52.8 13.3,53.1 12.2,54.4 12.2,54.1 			"/>
		</g>
		<g>
			<g>
				<polygon class="st14" points="14.8,55.6 13.1,54.6 14.3,53.4 15.9,54.3 				"/>
			</g>
			<polygon class="st15" points="14.8,55.6 14.8,55.9 13.1,55 13.1,54.6 			"/>
			<polygon class="st4" points="15.9,54.3 15.9,54.7 14.8,55.9 14.8,55.6 			"/>
		</g>
		<g>
			<g>
				<polygon class="st14" points="17.4,57.1 15.7,56.1 16.9,54.9 18.5,55.8 				"/>
			</g>
			<polygon class="st15" points="17.4,57.1 17.4,57.4 15.7,56.5 15.7,56.1 			"/>
			<polygon class="st4" points="18.5,55.8 18.5,56.2 17.4,57.4 17.4,57.1 			"/>
		</g>
		<g>
			<g>
				<polygon class="st14" points="19.9,58.6 18.3,57.7 19.5,56.4 21.1,57.4 				"/>
			</g>
			<polygon class="st15" points="19.9,58.6 19.9,58.9 18.3,58 18.3,57.7 			"/>
			<polygon class="st4" points="21.1,57.4 21.1,57.7 19.9,58.9 19.9,58.6 			"/>
		</g>
		<g>
			<g>
				<polygon class="st14" points="22.5,60.1 20.9,59.2 22.1,57.9 23.7,58.9 				"/>
			</g>
			<polygon class="st15" points="22.5,60.1 22.5,60.4 20.9,59.5 20.9,59.2 			"/>
			<polygon class="st4" points="23.7,58.9 23.7,59.2 22.5,60.4 22.5,60.1 			"/>
		</g>
		<g>
			<g>
				<polygon class="st16" points="25.1,61.6 23.5,60.7 24.7,59.4 26.3,60.4 				"/>
			</g>
			<polygon class="st17" points="25.1,61.6 25.1,62 23.5,61 23.5,60.7 			"/>
			<polygon class="st18" points="26.3,60.4 26.3,60.7 25.1,62 25.1,61.6 			"/>
		</g>
		<g>
			<g>
				<polygon class="st19" points="21.5,65.4 21.5,65.8 19.9,64.8 19.9,64.5 				"/>
				<polygon class="st12" points="22.7,64.2 22.7,64.5 21.5,65.8 21.5,65.4 				"/>
			</g>
			<g>
				<g>
					<polygon class="st11" points="23.3,63.5 21.7,62.6 22.9,61.3 24.5,62.3 					"/>
				</g>
				<polygon class="st15" points="23.3,63.5 23.3,63.9 21.7,62.9 21.7,62.6 				"/>
				<polygon class="st12" points="24.5,62.3 24.5,62.6 22.1,65.2 22.1,64.8 				"/>
			</g>
			<g>
				<polygon class="st11" points="21.5,65.4 19.9,64.5 21.9,62.4 23.3,63.5 				"/>
			</g>
		</g>
		<g>
			
				<linearGradient id="SVGID_1_" gradientUnits="userSpaceOnUse" x1="422.5501" y1="-15.186" x2="425.5169" y2="-15.186" gradientTransform="matrix(1 0 8.070000e-02 0.9836 -398.4083 80.8694)">
				<stop  offset="0" style="stop-color:#EB0116"/>
				<stop  offset="1" style="stop-color:#A90019"/>
			</linearGradient>
			<path class="st20" d="M25.9,65.6l0-0.2l-0.2-0.1l0-0.2c-0.1-0.1-0.2-0.1-0.3-0.2c-0.6-0.3-1.5-0.2-2.1,0.4
				c-0.2,0.2-0.3,0.3-0.3,0.5l-0.1,0l0,0.2c0,0.1,0,0.2,0,0.3l0,0h0c0.1,0.3,0.2,0.5,0.5,0.6c0.6,0.3,1.5,0.2,2.1-0.4
				C25.8,66.3,25.9,65.9,25.9,65.6z"/>
			<path class="st21" d="M25.5,66.2C25,66.8,24,67,23.4,66.6c-0.6-0.3-0.7-1.1-0.2-1.6c0.5-0.6,1.4-0.7,2.1-0.4
				C25.9,65,26,65.7,25.5,66.2z"/>
		</g>
	</g>
	<g>
		<polygon class="st7" points="34.9,55.5 15.1,44.1 21.4,24.6 41.2,36 		"/>
		<polygon class="st22" points="15.6,43.9 21.6,25.1 40.8,36.2 34.7,55 		"/>
		<g>
			<defs>
				<polygon id="SVGID_2_" points="40.8,36.2 21.6,25.1 15.6,43.9 34.7,55 				"/>
			</defs>
			<linearGradient id="SVGID_3_" gradientUnits="userSpaceOnUse" x1="28.194" y1="54.9734" x2="28.194" y2="25.1117">
				<stop  offset="0" style="stop-color:#664E2F"/>
				<stop  offset="3.708657e-02" style="stop-color:#857259"/>
				<stop  offset="9.410034e-02" style="stop-color:#B0A494"/>
				<stop  offset="0.1467" style="stop-color:#D2CBC2"/>
				<stop  offset="0.193" style="stop-color:#EBE7E3"/>
				<stop  offset="0.2314" style="stop-color:#FAF9F8"/>
				<stop  offset="0.2572" style="stop-color:#FFFFFF"/>
				<stop  offset="0.6316" style="stop-color:#FFFFFF"/>
				<stop  offset="0.6456" style="stop-color:#FFFFFF"/>
				<stop  offset="0.7203" style="stop-color:#FDFDFC"/>
				<stop  offset="0.7715" style="stop-color:#F6F5F3"/>
				<stop  offset="0.8155" style="stop-color:#EBE8E4"/>
				<stop  offset="0.8556" style="stop-color:#DBD6CE"/>
				<stop  offset="0.893" style="stop-color:#C7BEB2"/>
				<stop  offset="0.9283" style="stop-color:#ADA090"/>
				<stop  offset="0.9621" style="stop-color:#8F7E67"/>
				<stop  offset="0.9939" style="stop-color:#6D5639"/>
				<stop  offset="1" style="stop-color:#664E2F"/>
			</linearGradient>
			<use xlink:href="#SVGID_2_"  style="overflow:visible;opacity:0.7;fill:url(#SVGID_3_);"/>
			<clipPath id="SVGID_4_">
				<use xlink:href="#SVGID_2_"  style="overflow:visible;opacity:0.7;"/>
			</clipPath>
			<g class="st23">
				<g>
					
						<linearGradient id="SVGID_5_" gradientUnits="userSpaceOnUse" x1="-1865.1416" y1="2070.426" x2="-1865.1416" y2="2064.4143" gradientTransform="matrix(0.7642 0.4894 -0.383 1.142 2251.9583 -1404.7054)">
						<stop  offset="0" style="stop-color:#1A1312"/>
						<stop  offset="1" style="stop-color:#261F19"/>
					</linearGradient>
					<path class="st24" d="M34.2,39.5l0.1-0.2l-1-0.6l-1,3l0.9,0.5c0,0,0.3-0.8,0.7-0.6c0.4,0.2,0.8,0.7,1.1,0.9
						c0,0-1.1,0.3-1.7,1.1c-0.5,0.8-1,2.4-1,2.4l2.7,1.5c0,0,0.8-2.8,1.8-3.8c1-1,1.6-1.6,1.6-1.6l-0.5-0.9c0,0-0.4,0.4-1.2-0.3
						C36,40.2,34.9,39.3,34.2,39.5z"/>
					
						<linearGradient id="SVGID_6_" gradientUnits="userSpaceOnUse" x1="-1865.2355" y1="2070.0068" x2="-1865.2355" y2="2064.8667" gradientTransform="matrix(0.7642 0.4894 -0.383 1.142 2251.9583 -1404.7054)">
						<stop  offset="0" style="stop-color:#BD0700"/>
						<stop  offset="1" style="stop-color:#FF3016"/>
					</linearGradient>
					<path class="st25" d="M34.8,47l-2-1.2c0,0,0.5-2,1.8-2.5c1.2-0.5,1.4-0.6,1.5-0.7c0,0-0.5,0.2-1.4-0.7c-0.8-0.9-1.4-0.7-1.6,0
						l-0.4-0.2l0.7-2.2l0.4,0.2L33.7,40c0,0,0.5-0.4,1.4,0.1c0.9,0.5,1.2,1.2,1.7,1.4c0.5,0.2,0.8,0.2,0.8,0.2l0.1,0.3
						c0,0-1.6,1.5-2.2,2.7C35.1,46,34.8,47,34.8,47z"/>
				</g>
				<g>
					<path class="st26" d="M30.6,48.2c-0.4,0.4-1.1,1.6-1.2,2.6c0,1.1,0.1,2,0.2,2c0,0,1.1-0.6,1.5-1.7c0.3-1.2,0-2,0-2L30.6,48.2z"
						/>
					<path class="st27" d="M29.7,52.6c-0.1-0.3-0.1-1-0.1-1.7c0-0.9,0.6-2,1-2.4l0.4,0.7c0,0.1,0.2,0.9-0.1,1.9
						C30.7,51.9,30,52.4,29.7,52.6z"/>
					<g>
						<path class="st26" d="M33.1,51.1c-0.1-0.2-0.5-1-1-1.6c-0.5-0.5-1.2-0.9-1.3-1.1s0-0.4,0.2-0.4c0.2,0,1.6,0.8,2.5,2.5l0,0.5
							L33.1,51.1z"/>
						<path class="st27" d="M33.2,51c-0.2-0.3-0.6-1.2-1-1.7c-0.3-0.3-0.6-0.5-0.9-0.7c-0.2-0.1-0.3-0.2-0.4-0.3c0-0.1,0-0.1,0-0.1
							c0,0,0-0.1,0.1-0.1c0.1,0,0.7,0.4,1.3,1c0.4,0.4,0.7,0.9,1,1.5l0,0.3L33.2,51z"/>
						<path class="st28" d="M31.2,48.3c0,0,0,0,0.1,0.1c0.1,0,0.2,0.1,0.3,0.2c0.1,0.1,0.2,0.2,0.4,0.3c0.1,0.1,0.3,0.3,0.4,0.4
							c0.1,0.1,0.1,0.1,0.2,0.2c0.1,0.1,0.1,0.2,0.2,0.2c0.1,0.2,0.2,0.3,0.3,0.4c0.2,0.3,0.3,0.4,0.3,0.4c0,0,0,0,0,0.1
							c0,0,0,0,0,0l0,0c0,0-0.1-0.2-0.3-0.4c-0.1-0.1-0.2-0.3-0.3-0.4c-0.1-0.1-0.1-0.2-0.2-0.2c-0.1-0.1-0.1-0.2-0.2-0.2
							c-0.1-0.1-0.3-0.3-0.4-0.4c-0.1-0.1-0.3-0.2-0.4-0.3C31.5,48.5,31.4,48.4,31.2,48.3C31.3,48.3,31.2,48.3,31.2,48.3
							C31.2,48.3,31.2,48.3,31.2,48.3C31.2,48.3,31.2,48.3,31.2,48.3L31.2,48.3z"/>
						<path class="st26" d="M34.1,50.2c-0.5-0.1-0.7,0.3-0.8,0.6c-0.1,0.3-0.8,0.5-0.5,1.6c0.3,1.1,1.4,1,1.9,0.5
							C35.2,52.3,35.2,50.4,34.1,50.2z"/>
						
							<linearGradient id="SVGID_7_" gradientUnits="userSpaceOnUse" x1="-1863.1234" y1="2074.8374" x2="-1863.1234" y2="2072.6873" gradientTransform="matrix(0.7642 0.4894 -0.383 1.142 2251.9583 -1404.7054)">
							<stop  offset="0" style="stop-color:#BD0700"/>
							<stop  offset="1" style="stop-color:#FF3016"/>
						</linearGradient>
						<path class="st29" d="M34,50.4c-0.4-0.1-0.6,0.3-0.6,0.6c-0.1,0.3-0.7,0.4-0.5,1.3c0.3,0.9,1.2,0.9,1.6,0.4
							C35,52.2,35,50.6,34,50.4z"/>
						<path class="st30" d="M33.7,50.9c0,0.1,0.2,0.1,0.4,0.1c0.1,0.1,0.2,0.2,0.2,0.3c0.1,0.1,0.1,0.1,0.1,0.1
							c0-0.1,0.1-0.5-0.2-0.7C33.9,50.5,33.7,50.8,33.7,50.9z"/>
					</g>
					<g>
						<path class="st26" d="M31.8,52c0-0.2-0.1-1.3-0.4-2c-0.3-0.8-0.8-1.5-0.8-1.8c0-0.2,0.1-0.4,0.3-0.3c0.2,0.1,1.3,1.7,1.5,3.7
							l-0.2,0.4L31.8,52z"/>
						<path class="st27" d="M31.9,52.1c0-0.4-0.2-1.4-0.4-2.1c-0.1-0.4-0.4-0.8-0.6-1.2c-0.1-0.2-0.2-0.4-0.3-0.5c0-0.1,0-0.1,0-0.1
							c0,0,0.1,0,0.1,0c0.1,0.1,0.6,0.7,0.9,1.7c0.2,0.5,0.4,1.2,0.5,2L32.1,52L31.9,52.1z"/>
						<path class="st28" d="M31,48.4c0,0,0,0,0.1,0.1c0,0.1,0.1,0.2,0.2,0.3c0.1,0.1,0.2,0.3,0.2,0.5c0.1,0.2,0.2,0.4,0.2,0.6
							c0,0.1,0.1,0.2,0.1,0.3c0,0.1,0.1,0.2,0.1,0.3c0,0.2,0.1,0.4,0.1,0.6c0.1,0.3,0.1,0.6,0.1,0.6c0,0,0,0,0,0c0,0,0,0,0,0l0,0
							c0,0,0-0.2-0.1-0.5c0-0.2-0.1-0.4-0.1-0.6c0-0.1,0-0.2-0.1-0.3c0-0.1-0.1-0.2-0.1-0.3c-0.1-0.2-0.2-0.4-0.2-0.6
							c-0.1-0.2-0.2-0.4-0.2-0.5c-0.1-0.1-0.1-0.3-0.2-0.3C31,48.5,31,48.4,31,48.4C31,48.4,31,48.4,31,48.4
							C31,48.4,31,48.4,31,48.4L31,48.4z"/>
						<path class="st26" d="M33.1,51.7c-0.4-0.3-0.8-0.1-1,0.1c-0.2,0.3-1,0-1,1.2c0,1.2,1,1.7,1.6,1.5
							C33.4,54.3,34.1,52.6,33.1,51.7z"/>
						
							<linearGradient id="SVGID_8_" gradientUnits="userSpaceOnUse" x1="-1864.3483" y1="2076.5315" x2="-1864.3483" y2="2074.3699" gradientTransform="matrix(0.7642 0.4894 -0.383 1.142 2251.9583 -1404.7054)">
							<stop  offset="0" style="stop-color:#BD0700"/>
							<stop  offset="1" style="stop-color:#FF3016"/>
						</linearGradient>
						<path class="st31" d="M33,52c-0.4-0.3-0.6-0.1-0.8,0.1c-0.2,0.2-0.9-0.1-0.9,1c0,1,0.8,1.4,1.4,1.3C33.2,54.2,33.9,52.7,33,52
							z"/>
						<path class="st30" d="M32.5,52.2c0,0.1,0.2,0.2,0.3,0.3c0.1,0.2,0.1,0.3,0.1,0.4c0,0.1,0,0.2,0.1,0.1c0,0,0.3-0.4,0-0.8
							C32.8,52,32.5,52.1,32.5,52.2z"/>
					</g>
					<g>
						<path class="st28" d="M30,52.3C30,52.3,29.9,52.2,30,52.3c0-0.1-0.1-0.2-0.1-0.3c0,0,0,0,0-0.1c0,0,0,0,0,0
							C29.9,52,30,52.1,30,52.3C30,52.2,30,52.3,30,52.3C30,52.3,30,52.3,30,52.3z"/>
					</g>
					<g>
						<path class="st28" d="M30.3,52C30.3,52,30.3,51.9,30.3,52c0-0.2-0.1-0.4-0.2-0.5c0,0,0,0,0-0.1c0,0,0,0,0.1,0
							C30.3,51.5,30.3,51.8,30.3,52C30.4,51.9,30.3,52,30.3,52C30.3,52,30.3,52,30.3,52z"/>
					</g>
					<g>
						<path class="st28" d="M30.7,51.4C30.6,51.4,30.6,51.4,30.7,51.4c-0.1-0.3-0.4-0.4-0.4-0.4c0,0,0,0,0-0.1c0,0,0,0,0.1,0
							C30.3,50.9,30.6,51,30.7,51.4C30.7,51.4,30.7,51.4,30.7,51.4C30.7,51.4,30.7,51.4,30.7,51.4z"/>
					</g>
					<g>
						<path class="st28" d="M30.9,50.9C30.9,50.8,30.9,50.8,30.9,50.9c-0.1-0.2-0.2-0.4-0.4-0.5c0,0,0,0,0-0.1c0,0,0,0,0.1,0
							C30.7,50.4,30.9,50.6,30.9,50.9C30.9,50.8,30.9,50.8,30.9,50.9C30.9,50.9,30.9,50.9,30.9,50.9z"/>
					</g>
					<g>
						<path class="st28" d="M30.9,50.2C30.9,50.2,30.9,50.1,30.9,50.2c-0.1-0.2-0.2-0.4-0.3-0.4c0,0,0,0,0-0.1c0,0,0-0.1,0.1,0
							C30.7,49.7,31,49.9,30.9,50.2C31,50.1,31,50.2,30.9,50.2C30.9,50.2,30.9,50.2,30.9,50.2z"/>
					</g>
					<g>
						<path class="st28" d="M30.9,49.5C30.9,49.5,30.9,49.5,30.9,49.5c-0.1-0.2-0.2-0.3-0.2-0.3c0,0,0,0,0-0.1c0,0,0,0,0,0
							C30.7,49.1,30.9,49.2,30.9,49.5C31,49.5,31,49.5,30.9,49.5C30.9,49.5,30.9,49.5,30.9,49.5z"/>
					</g>
					<path class="st26" d="M30.6,48.4c0.1,0.4-0.1,2-0.6,3.3c0,0,0.8-1.6,0.8-3.3L30.6,48.4z"/>
				</g>
				<g>
					
						<linearGradient id="SVGID_9_" gradientUnits="userSpaceOnUse" x1="-32.422" y1="2062.031" x2="-32.422" y2="2059.0156" gradientTransform="matrix(0.7642 0.4894 5.820000e-02 1.4246 -57.8956 -2883.7107)">
						<stop  offset="0" style="stop-color:#BD0700"/>
						<stop  offset="1" style="stop-color:#FF3016"/>
					</linearGradient>
					<path class="st32" d="M39,38.8l-4.5-2.6c-0.2-0.1-0.3-0.5-0.2-0.8l0.7-2.1c0.1-0.3,0.4-0.5,0.6-0.3l4.5,2.6
						c0.2,0.1,0.3,0.5,0.2,0.8l-0.7,2.1C39.5,38.7,39.2,38.9,39,38.8z"/>
					<g>
						
							<linearGradient id="SVGID_10_" gradientUnits="userSpaceOnUse" x1="-1867.0522" y1="2061.6072" x2="-1867.0522" y2="2059.9978" gradientTransform="matrix(0.7642 0.4894 -0.383 1.142 2251.9583 -1404.7054)">
							<stop  offset="0" style="stop-color:#EBDFC9"/>
							<stop  offset="1" style="stop-color:#FDFCFA"/>
						</linearGradient>
						<path class="st33" d="M35.1,35.2l0.1,0.1l0.4-1.1l-0.1-0.1l0.1-0.3l0.7,0.4c0.3,0.2,0.4,0.4,0.3,0.7c-0.1,0.2-0.1,0.3-0.3,0.3
							c0.1,0.1,0.2,0.3,0.1,0.6c-0.1,0.4-0.3,0.4-0.7,0.2L35,35.5L35.1,35.2z M35.8,34.7l0.1,0.1c0.1,0.1,0.1,0,0.2-0.1
							c0-0.1,0-0.2-0.1-0.3l-0.1-0.1L35.8,34.7z M35.7,35.6c0.1,0,0.2,0,0.2-0.1c0-0.1,0-0.3-0.1-0.3L35.7,35l-0.1,0.5L35.7,35.6z"
							/>
						
							<linearGradient id="SVGID_11_" gradientUnits="userSpaceOnUse" x1="-1865.2867" y1="2061.5513" x2="-1865.2867" y2="2059.9285" gradientTransform="matrix(0.7642 0.4894 -0.383 1.142 2251.9583 -1404.7054)">
							<stop  offset="0" style="stop-color:#EBDFC9"/>
							<stop  offset="1" style="stop-color:#FDFCFA"/>
						</linearGradient>
						<path class="st34" d="M36.9,36.7l0.1-0.3l0.2,0.1l0-0.2L36.9,36l-0.1,0.2l0.1,0.1l-0.1,0.3l-0.6-0.3l0.1-0.3l0.1,0.1l0.6-1
							L37,35l0.1-0.3l0.7,0.4l-0.2,1.7l0.1,0.1l-0.1,0.3L36.9,36.7z M37.3,35.9l0.1-0.6L37,35.7L37.3,35.9z"/>
						
							<linearGradient id="SVGID_12_" gradientUnits="userSpaceOnUse" x1="-1863.4484" y1="2061.4827" x2="-1863.4484" y2="2059.877" gradientTransform="matrix(0.7642 0.4894 -0.383 1.142 2251.9583 -1404.7054)">
							<stop  offset="0" style="stop-color:#EBDFC9"/>
							<stop  offset="1" style="stop-color:#FDFCFA"/>
						</linearGradient>
						<path class="st35" d="M38.9,35.7c0.4,0.2,0.4,0.5,0.3,0.8c-0.1,0.2-0.2,0.3-0.4,0.2c0.1,0.1,0.2,0.3,0.1,0.5
							c0,0.1,0,0.2,0,0.2c0,0,0.1,0,0.1-0.1l0-0.1l0.1,0.1l0,0.1c-0.1,0.2-0.2,0.4-0.4,0.3c-0.2-0.1-0.3-0.4-0.2-0.7
							c0.1-0.2,0.1-0.3-0.1-0.4l-0.1,0.4l0.1,0.1l-0.1,0.3l-0.6-0.3l0.1-0.3l0.1,0.1l0.4-1.1l-0.1-0.1l0.1-0.3L38.9,35.7z
							 M38.6,36.4L38.6,36.4c0.2,0.1,0.3,0.1,0.3-0.1c0-0.2,0-0.3-0.1-0.3l-0.1-0.1L38.6,36.4z"/>
					</g>
				</g>
			</g>
			<g class="st23">
				<g>
					
						<linearGradient id="SVGID_13_" gradientUnits="userSpaceOnUse" x1="-1873.5181" y1="2069.3962" x2="-1873.5181" y2="2063.3811" gradientTransform="matrix(0.7642 0.4894 -0.383 1.142 2251.9583 -1404.7054)">
						<stop  offset="0" style="stop-color:#1A1312"/>
						<stop  offset="1" style="stop-color:#261F19"/>
					</linearGradient>
					<path class="st36" d="M28.2,34.2l0.1-0.2l-1-0.6l-1,3l0.9,0.5c0,0,0.3-0.8,0.7-0.6c0.4,0.2,0.8,0.7,1.1,0.9
						c0,0-1.1,0.3-1.7,1.1c-0.5,0.8-1,2.4-1,2.4l2.7,1.5c0,0,0.8-2.8,1.8-3.8c1-1,1.6-1.6,1.6-1.6L31.9,36c0,0-0.4,0.4-1.2-0.3
						C30,34.9,28.9,34,28.2,34.2z"/>
					
						<linearGradient id="SVGID_14_" gradientUnits="userSpaceOnUse" x1="-1873.6113" y1="2068.9768" x2="-1873.6113" y2="2063.834" gradientTransform="matrix(0.7642 0.4894 -0.383 1.142 2251.9583 -1404.7054)">
						<stop  offset="0" style="stop-color:#BD0700"/>
						<stop  offset="1" style="stop-color:#FF3016"/>
					</linearGradient>
					<path class="st37" d="M28.8,41.7l-2-1.2c0,0,0.5-2,1.8-2.5c1.2-0.5,1.4-0.6,1.5-0.7c0,0-0.5,0.2-1.4-0.7
						c-0.8-0.9-1.4-0.7-1.6,0l-0.4-0.2l0.7-2.2l0.4,0.2l-0.1,0.4c0,0,0.5-0.4,1.4,0.1c0.9,0.5,1.2,1.2,1.7,1.4
						c0.5,0.2,0.8,0.2,0.8,0.2l0.1,0.3c0,0-1.6,1.5-2.2,2.7C29.1,40.7,28.8,41.7,28.8,41.7z"/>
				</g>
				<g>
					<path class="st26" d="M24.6,42.9c-0.4,0.4-1.1,1.6-1.2,2.6c0,1.1,0.1,2,0.2,2c0,0,1.1-0.6,1.5-1.7c0.3-1.2,0-2,0-2L24.6,42.9z"
						/>
					<path class="st27" d="M23.7,47.3c-0.1-0.3-0.1-1-0.1-1.7c0-0.9,0.6-2,1-2.4l0.4,0.7c0,0.1,0.2,0.9-0.1,1.9
						C24.7,46.6,24,47.1,23.7,47.3z"/>
					<g>
						<path class="st26" d="M27.1,45.8c-0.1-0.2-0.5-1-1-1.6c-0.5-0.5-1.2-0.9-1.3-1.1c-0.1-0.2,0-0.4,0.1-0.4
							c0.2,0,1.6,0.8,2.5,2.5l0,0.5L27.1,45.8z"/>
						<path class="st27" d="M27.2,45.8c-0.2-0.3-0.6-1.2-1-1.7c-0.3-0.3-0.6-0.5-0.9-0.7c-0.2-0.1-0.3-0.2-0.4-0.3
							c0-0.1,0-0.1,0-0.1c0,0,0-0.1,0.1-0.1c0.1,0,0.7,0.4,1.3,1c0.4,0.4,0.7,0.9,1,1.5l0,0.3L27.2,45.8z"/>
						<path class="st28" d="M25.2,43c0,0,0,0,0.1,0.1c0.1,0,0.2,0.1,0.3,0.2c0.1,0.1,0.2,0.2,0.4,0.3c0.1,0.1,0.3,0.3,0.4,0.4
							c0.1,0.1,0.1,0.1,0.2,0.2c0.1,0.1,0.1,0.2,0.2,0.2c0.1,0.2,0.2,0.3,0.3,0.4c0.2,0.3,0.3,0.4,0.3,0.4c0,0,0,0,0,0.1
							c0,0,0,0,0,0l0,0c0,0-0.1-0.2-0.3-0.4c-0.1-0.1-0.2-0.3-0.3-0.4c-0.1-0.1-0.1-0.2-0.2-0.2c-0.1-0.1-0.1-0.2-0.2-0.2
							c-0.1-0.1-0.3-0.3-0.4-0.4c-0.1-0.1-0.3-0.2-0.4-0.3C25.5,43.2,25.4,43.2,25.2,43C25.3,43.1,25.2,43.1,25.2,43
							C25.2,43.1,25.2,43,25.2,43C25.2,43,25.2,43,25.2,43L25.2,43z"/>
						<path class="st26" d="M28.1,44.9c-0.5-0.1-0.7,0.3-0.8,0.6c-0.1,0.3-0.8,0.5-0.5,1.6c0.3,1.1,1.4,1,1.9,0.5
							C29.2,47,29.2,45.1,28.1,44.9z"/>
						
							<linearGradient id="SVGID_15_" gradientUnits="userSpaceOnUse" x1="-1871.4805" y1="2073.8101" x2="-1871.4805" y2="2071.6587" gradientTransform="matrix(0.7642 0.4894 -0.383 1.142 2251.9583 -1404.7054)">
							<stop  offset="0" style="stop-color:#BD0700"/>
							<stop  offset="1" style="stop-color:#FF3016"/>
						</linearGradient>
						<path class="st38" d="M28.1,45.1c-0.4-0.1-0.6,0.3-0.6,0.6C27.3,46,26.7,46.1,27,47c0.3,0.9,1.2,0.9,1.6,0.4
							C29,46.9,29.1,45.3,28.1,45.1z"/>
						<path class="st30" d="M27.7,45.6c0,0.1,0.2,0.1,0.4,0.1c0.1,0.1,0.2,0.2,0.2,0.3c0.1,0.1,0.1,0.1,0.1,0.1
							c0-0.1,0.1-0.5-0.2-0.7C27.9,45.3,27.7,45.5,27.7,45.6z"/>
					</g>
					<g>
						<path class="st26" d="M25.8,46.8c0-0.2-0.1-1.3-0.4-2c-0.3-0.8-0.9-1.5-0.8-1.8c0-0.2,0.1-0.4,0.3-0.3
							c0.2,0.1,1.3,1.7,1.5,3.7l-0.2,0.4L25.8,46.8z"/>
						<path class="st27" d="M25.9,46.8c0-0.4-0.2-1.4-0.4-2.1c-0.1-0.4-0.4-0.8-0.6-1.2c-0.1-0.2-0.2-0.4-0.3-0.5c0-0.1,0-0.1,0-0.1
							c0,0,0.1,0,0.1,0c0.1,0.1,0.6,0.7,0.9,1.7c0.2,0.5,0.4,1.2,0.5,2l-0.1,0.3L25.9,46.8z"/>
						<path class="st28" d="M25,43.2c0,0,0,0,0.1,0.1c0,0.1,0.1,0.2,0.2,0.3c0.1,0.1,0.2,0.3,0.2,0.5c0.1,0.2,0.2,0.4,0.3,0.6
							c0,0.1,0.1,0.2,0.1,0.3c0,0.1,0.1,0.2,0.1,0.3c0,0.2,0.1,0.4,0.1,0.6c0.1,0.3,0.1,0.6,0.1,0.6c0,0,0,0,0,0c0,0,0,0,0,0l0,0
							c0,0,0-0.2-0.1-0.6c0-0.2-0.1-0.4-0.1-0.6c0-0.1,0-0.2-0.1-0.3c0-0.1-0.1-0.2-0.1-0.3c-0.1-0.2-0.2-0.4-0.2-0.6
							c-0.1-0.2-0.2-0.4-0.2-0.5c-0.1-0.1-0.1-0.3-0.2-0.3C25,43.2,25,43.2,25,43.2C25,43.2,25,43.2,25,43.2
							C25,43.1,25,43.1,25,43.2L25,43.2z"/>
						<path class="st26" d="M27.1,46.5c-0.4-0.3-0.8-0.1-1,0.1c-0.2,0.3-1,0-1,1.2c0,1.2,1,1.7,1.6,1.5
							C27.4,49.1,28.1,47.3,27.1,46.5z"/>
						
							<linearGradient id="SVGID_16_" gradientUnits="userSpaceOnUse" x1="-1872.7028" y1="2075.5051" x2="-1872.7028" y2="2073.3423" gradientTransform="matrix(0.7642 0.4894 -0.383 1.142 2251.9583 -1404.7054)">
							<stop  offset="0" style="stop-color:#BD0700"/>
							<stop  offset="1" style="stop-color:#FF3016"/>
						</linearGradient>
						<path class="st39" d="M27,46.7c-0.4-0.3-0.6-0.1-0.8,0.1c-0.2,0.2-0.9-0.1-0.9,1c0,1,0.8,1.4,1.4,1.3
							C27.2,48.9,27.9,47.4,27,46.7z"/>
						<path class="st30" d="M26.5,47c0,0.1,0.2,0.2,0.3,0.3c0.1,0.2,0.1,0.3,0.1,0.4c0,0.1,0,0.2,0.1,0.1c0,0,0.3-0.4,0-0.8
							C26.8,46.7,26.5,46.9,26.5,47z"/>
					</g>
					<g>
						<path class="st28" d="M24,47C24,47,24,47,24,47c0-0.1-0.1-0.2-0.1-0.3c0,0,0,0,0-0.1c0,0,0,0,0,0C24,46.8,24,46.8,24,47
							C24,47,24,47,24,47C24,47,24,47,24,47z"/>
					</g>
					<g>
						<path class="st28" d="M24.3,46.7C24.3,46.7,24.3,46.7,24.3,46.7c0-0.2-0.1-0.4-0.2-0.5c0,0,0,0,0-0.1c0,0,0,0,0.1,0
							C24.3,46.3,24.3,46.5,24.3,46.7C24.4,46.7,24.4,46.7,24.3,46.7C24.3,46.7,24.3,46.7,24.3,46.7z"/>
					</g>
					<g>
						<path class="st28" d="M24.7,46.1C24.6,46.1,24.6,46.1,24.7,46.1c-0.1-0.3-0.4-0.4-0.4-0.4c0,0,0,0,0-0.1c0,0,0,0,0.1,0
							C24.3,45.6,24.6,45.7,24.7,46.1C24.7,46.1,24.7,46.1,24.7,46.1C24.7,46.1,24.7,46.1,24.7,46.1z"/>
					</g>
					<g>
						<path class="st28" d="M24.9,45.6C24.9,45.6,24.9,45.6,24.9,45.6c-0.1-0.2-0.2-0.4-0.4-0.5c0,0,0,0,0-0.1c0,0,0,0,0.1,0
							C24.8,45.1,24.9,45.3,24.9,45.6C25,45.5,24.9,45.6,24.9,45.6C24.9,45.6,24.9,45.6,24.9,45.6z"/>
					</g>
					<g>
						<path class="st28" d="M24.9,44.9C24.9,44.9,24.9,44.9,24.9,44.9c-0.1-0.2-0.2-0.4-0.3-0.4c0,0,0,0,0-0.1c0,0,0-0.1,0.1,0
							C24.7,44.4,25,44.6,24.9,44.9C25,44.9,25,44.9,24.9,44.9C24.9,44.9,24.9,44.9,24.9,44.9z"/>
					</g>
					<g>
						<path class="st28" d="M24.9,44.2C24.9,44.2,24.9,44.2,24.9,44.2c-0.1-0.2-0.2-0.3-0.2-0.3c0,0,0,0,0-0.1c0,0,0,0,0,0
							C24.7,43.8,24.9,43.9,24.9,44.2C25,44.2,25,44.2,24.9,44.2C24.9,44.2,24.9,44.2,24.9,44.2z"/>
					</g>
					<path class="st26" d="M24.6,43.1c0.1,0.4-0.1,2-0.6,3.3c0,0,0.8-1.6,0.7-3.3L24.6,43.1z"/>
				</g>
				<g>
					
						<linearGradient id="SVGID_17_" gradientUnits="userSpaceOnUse" x1="-40.209" y1="2060.9968" x2="-40.209" y2="2057.9797" gradientTransform="matrix(0.7642 0.4894 5.820000e-02 1.4246 -57.8956 -2883.7107)">
						<stop  offset="0" style="stop-color:#BD0700"/>
						<stop  offset="1" style="stop-color:#FF3016"/>
					</linearGradient>
					<path class="st40" d="M33,33.5l-4.5-2.6c-0.2-0.1-0.3-0.5-0.2-0.8l0.7-2.1c0.1-0.3,0.4-0.5,0.6-0.3l4.5,2.6
						c0.2,0.1,0.3,0.5,0.2,0.8l-0.7,2.1C33.4,33.4,33.2,33.6,33,33.5z"/>
					<g>
						
							<linearGradient id="SVGID_18_" gradientUnits="userSpaceOnUse" x1="-1875.4379" y1="2060.5725" x2="-1875.4379" y2="2058.9624" gradientTransform="matrix(0.7642 0.4894 -0.383 1.142 2251.9583 -1404.7054)">
							<stop  offset="0" style="stop-color:#EBDFC9"/>
							<stop  offset="1" style="stop-color:#FDFCFA"/>
						</linearGradient>
						<path class="st41" d="M29.1,29.9l0.1,0.1l0.4-1.1l-0.1-0.1l0.1-0.3l0.7,0.4c0.3,0.2,0.4,0.4,0.3,0.7c-0.1,0.2-0.1,0.3-0.3,0.3
							c0.1,0.1,0.2,0.3,0.1,0.6c-0.1,0.4-0.3,0.4-0.7,0.2L29,30.3L29.1,29.9z M29.8,29.5l0.1,0.1c0.1,0.1,0.1,0,0.2-0.1
							c0-0.1,0-0.2-0.1-0.3l-0.1-0.1L29.8,29.5z M29.7,30.3c0.1,0,0.2,0,0.2-0.1c0-0.1,0-0.3-0.1-0.3l-0.1-0.1l-0.1,0.5L29.7,30.3z"
							/>
						
							<linearGradient id="SVGID_19_" gradientUnits="userSpaceOnUse" x1="-1873.67" y1="2060.5166" x2="-1873.67" y2="2058.8931" gradientTransform="matrix(0.7642 0.4894 -0.383 1.142 2251.9583 -1404.7054)">
							<stop  offset="0" style="stop-color:#EBDFC9"/>
							<stop  offset="1" style="stop-color:#FDFCFA"/>
						</linearGradient>
						<path class="st42" d="M30.9,31.4L31,31l0.2,0.1l0-0.2l-0.4-0.2l-0.1,0.2l0.1,0.1l-0.1,0.3L30.2,31l0.1-0.3l0.1,0.1l0.6-1
							l-0.1,0l0.1-0.3l0.7,0.4l-0.2,1.7l0.1,0.1l-0.1,0.3L30.9,31.4z M31.3,30.6l0.1-0.6L31,30.5L31.3,30.6z"/>
						
							<linearGradient id="SVGID_20_" gradientUnits="userSpaceOnUse" x1="-1871.8329" y1="2060.448" x2="-1871.8329" y2="2058.8413" gradientTransform="matrix(0.7642 0.4894 -0.383 1.142 2251.9583 -1404.7054)">
							<stop  offset="0" style="stop-color:#EBDFC9"/>
							<stop  offset="1" style="stop-color:#FDFCFA"/>
						</linearGradient>
						<path class="st43" d="M32.9,30.4c0.4,0.2,0.4,0.5,0.3,0.8c-0.1,0.2-0.2,0.3-0.4,0.2c0.1,0.1,0.2,0.3,0.1,0.5
							c0,0.1,0,0.2,0,0.2c0,0,0.1,0,0.1-0.1l0-0.1l0.1,0.1l0,0.1c-0.1,0.2-0.2,0.4-0.4,0.3c-0.2-0.1-0.3-0.4-0.2-0.7
							c0.1-0.2,0.1-0.3-0.1-0.4l-0.1,0.4l0.1,0.1l-0.1,0.3l-0.6-0.3l0.1-0.3l0.1,0.1l0.4-1.1l-0.1-0.1l0.1-0.3L32.9,30.4z
							 M32.5,31.1L32.5,31.1c0.2,0.1,0.3,0.1,0.3-0.1c0-0.2,0-0.3-0.1-0.3l-0.1-0.1L32.5,31.1z"/>
					</g>
				</g>
			</g>
			<g class="st23">
				<g>
					
						<linearGradient id="SVGID_21_" gradientUnits="userSpaceOnUse" x1="-1881.8553" y1="2071.0122" x2="-1881.8553" y2="2065.0015" gradientTransform="matrix(0.7642 0.4894 -0.383 1.142 2251.9583 -1404.7054)">
						<stop  offset="0" style="stop-color:#1A1312"/>
						<stop  offset="1" style="stop-color:#261F19"/>
					</linearGradient>
					<path class="st44" d="M21.2,32l0.1-0.2l-1-0.6l-1,3l0.9,0.5c0,0,0.3-0.8,0.7-0.6c0.4,0.2,0.8,0.7,1.1,0.9c0,0-1.1,0.3-1.7,1.1
						c-0.5,0.8-1,2.4-1,2.4l2.7,1.5c0,0,0.8-2.8,1.8-3.8c1-1,1.6-1.6,1.6-1.6l-0.5-0.9c0,0-0.4,0.4-1.2-0.3
						C23,32.7,21.9,31.8,21.2,32z"/>
					
						<linearGradient id="SVGID_22_" gradientUnits="userSpaceOnUse" x1="-1881.9481" y1="2070.593" x2="-1881.9481" y2="2065.4539" gradientTransform="matrix(0.7642 0.4894 -0.383 1.142 2251.9583 -1404.7054)">
						<stop  offset="0" style="stop-color:#BD0700"/>
						<stop  offset="1" style="stop-color:#FF3016"/>
					</linearGradient>
					<path class="st45" d="M21.8,39.5l-2-1.2c0,0,0.5-2,1.8-2.5c1.2-0.5,1.4-0.6,1.5-0.7c0,0-0.5,0.2-1.4-0.7
						c-0.8-0.9-1.4-0.7-1.6,0l-0.4-0.2l0.7-2.2l0.4,0.2l-0.1,0.4c0,0,0.5-0.4,1.4,0.1c0.9,0.5,1.2,1.2,1.7,1.4
						c0.5,0.2,0.8,0.2,0.8,0.2l0.1,0.3c0,0-1.6,1.5-2.2,2.7C22.1,38.5,21.8,39.5,21.8,39.5z"/>
				</g>
				<g>
					<path class="st26" d="M17.6,40.7c-0.4,0.4-1.1,1.6-1.2,2.6c0,1.1,0.1,2,0.2,2c0,0,1.1-0.6,1.5-1.7c0.3-1.2,0-2,0-2L17.6,40.7z"
						/>
					<path class="st27" d="M16.7,45.1c-0.1-0.3-0.1-1-0.1-1.7c0-0.9,0.6-2,1-2.4l0.4,0.7c0,0.1,0.2,0.9,0,1.9
						C17.7,44.4,17,44.9,16.7,45.1z"/>
					<g>
						<path class="st26" d="M20.1,43.6c-0.1-0.2-0.5-1-1-1.6c-0.5-0.5-1.2-0.9-1.3-1.1c-0.1-0.2,0-0.4,0.1-0.4
							c0.2,0,1.6,0.8,2.5,2.5l0,0.5L20.1,43.6z"/>
						<path class="st27" d="M20.2,43.5c-0.2-0.3-0.6-1.2-1-1.7c-0.3-0.3-0.6-0.5-0.9-0.7c-0.2-0.1-0.3-0.2-0.4-0.3
							c0-0.1,0-0.1,0-0.1c0,0,0-0.1,0.1-0.1c0.1,0,0.7,0.4,1.3,1c0.4,0.4,0.7,0.9,1,1.5l0,0.3L20.2,43.5z"/>
						<path class="st28" d="M18.3,40.8c0,0,0,0,0.1,0.1c0.1,0,0.2,0.1,0.3,0.2s0.2,0.2,0.4,0.3c0.1,0.1,0.3,0.3,0.4,0.4
							c0.1,0.1,0.1,0.1,0.2,0.2c0.1,0.1,0.1,0.2,0.2,0.2c0.1,0.2,0.2,0.3,0.3,0.4c0.2,0.3,0.3,0.4,0.3,0.4c0,0,0,0,0,0.1
							c0,0,0,0,0,0l0,0c0,0-0.1-0.2-0.3-0.4c-0.1-0.1-0.2-0.3-0.3-0.4c-0.1-0.1-0.1-0.2-0.2-0.2c-0.1-0.1-0.1-0.2-0.2-0.2
							c-0.1-0.1-0.3-0.3-0.4-0.4c-0.1-0.1-0.3-0.2-0.4-0.3C18.5,41,18.4,40.9,18.3,40.8C18.3,40.8,18.2,40.8,18.3,40.8
							C18.2,40.8,18.2,40.8,18.3,40.8C18.2,40.8,18.2,40.8,18.3,40.8L18.3,40.8z"/>
						<path class="st26" d="M21.1,42.7c-0.5-0.1-0.7,0.3-0.8,0.6c-0.1,0.3-0.8,0.5-0.5,1.6c0.3,1.1,1.4,1,1.9,0.5
							C22.2,44.8,22.3,42.9,21.1,42.7z"/>
						
							<linearGradient id="SVGID_23_" gradientUnits="userSpaceOnUse" x1="-1879.8" y1="2075.4226" x2="-1879.8" y2="2073.2729" gradientTransform="matrix(0.7642 0.4894 -0.383 1.142 2251.9583 -1404.7054)">
							<stop  offset="0" style="stop-color:#BD0700"/>
							<stop  offset="1" style="stop-color:#FF3016"/>
						</linearGradient>
						<path class="st46" d="M21.1,42.9c-0.4-0.1-0.6,0.3-0.6,0.6c-0.1,0.3-0.7,0.4-0.4,1.3c0.3,0.9,1.2,0.9,1.6,0.4
							C22,44.7,22.1,43.1,21.1,42.9z"/>
						<path class="st30" d="M20.8,43.4c0,0.1,0.2,0.1,0.4,0.1c0.1,0.1,0.2,0.2,0.2,0.3c0.1,0.1,0.1,0.1,0.1,0.1
							c0-0.1,0.1-0.5-0.2-0.7C20.9,43,20.7,43.3,20.8,43.4z"/>
					</g>
					<g>
						<path class="st26" d="M18.8,44.5c0-0.2-0.1-1.3-0.4-2c-0.3-0.8-0.9-1.5-0.8-1.8c0-0.2,0.1-0.4,0.3-0.3
							c0.2,0.1,1.3,1.7,1.5,3.7l-0.2,0.4L18.8,44.5z"/>
						<path class="st27" d="M18.9,44.6c0-0.4-0.2-1.4-0.4-2.1c-0.1-0.4-0.4-0.8-0.6-1.2c-0.1-0.2-0.2-0.4-0.3-0.5c0-0.1,0-0.1,0-0.1
							c0,0,0.1,0,0.1,0c0.1,0.1,0.6,0.7,0.9,1.7c0.2,0.5,0.4,1.2,0.5,2l-0.1,0.3L18.9,44.6z"/>
						<path class="st28" d="M18,40.9c0,0,0,0,0.1,0.1c0,0.1,0.1,0.2,0.2,0.3c0.1,0.1,0.2,0.3,0.2,0.5c0.1,0.2,0.2,0.4,0.3,0.6
							c0,0.1,0.1,0.2,0.1,0.3c0,0.1,0.1,0.2,0.1,0.3c0.1,0.2,0.1,0.4,0.1,0.6c0.1,0.3,0.1,0.6,0.1,0.6c0,0,0,0,0,0c0,0,0,0,0,0l0,0
							c0,0,0-0.2-0.1-0.6c0-0.2-0.1-0.4-0.1-0.6c0-0.1,0-0.2-0.1-0.3c0-0.1-0.1-0.2-0.1-0.3c-0.1-0.2-0.2-0.4-0.2-0.6
							c-0.1-0.2-0.2-0.4-0.2-0.5c-0.1-0.1-0.1-0.3-0.2-0.3C18,41,18,40.9,18,40.9C18,40.9,18,40.9,18,40.9C18,40.9,18,40.9,18,40.9
							L18,40.9z"/>
						<path class="st26" d="M20.1,44.3c-0.4-0.3-0.8-0.1-1,0.1c-0.2,0.3-1,0-1,1.2c0,1.2,1,1.7,1.6,1.5
							C20.4,46.8,21.2,45.1,20.1,44.3z"/>
						
							<linearGradient id="SVGID_24_" gradientUnits="userSpaceOnUse" x1="-1881.0188" y1="2077.1165" x2="-1881.0188" y2="2074.9551" gradientTransform="matrix(0.7642 0.4894 -0.383 1.142 2251.9583 -1404.7054)">
							<stop  offset="0" style="stop-color:#BD0700"/>
							<stop  offset="1" style="stop-color:#FF3016"/>
						</linearGradient>
						<path class="st47" d="M20,44.5c-0.4-0.3-0.6-0.1-0.8,0.1c-0.2,0.2-0.9-0.1-0.9,1c0,1,0.8,1.4,1.4,1.3
							C20.3,46.7,20.9,45.2,20,44.5z"/>
						<path class="st30" d="M19.5,44.7c0,0.1,0.2,0.2,0.3,0.3c0.1,0.2,0.1,0.3,0.1,0.4c0,0.1,0,0.2,0.1,0.1c0,0,0.3-0.4,0-0.8
							C19.8,44.5,19.5,44.6,19.5,44.7z"/>
					</g>
					<g>
						<path class="st28" d="M17,44.8C17,44.8,17,44.8,17,44.8c0-0.1-0.1-0.2-0.1-0.3c0,0,0,0,0-0.1c0,0,0,0,0,0
							C17,44.5,17,44.6,17,44.8C17,44.8,17,44.8,17,44.8C17,44.8,17,44.8,17,44.8z"/>
					</g>
					<g>
						<path class="st28" d="M17.3,44.5C17.3,44.5,17.3,44.5,17.3,44.5c0-0.2-0.1-0.4-0.2-0.5c0,0,0,0,0-0.1c0,0,0,0,0.1,0
							C17.3,44,17.4,44.3,17.3,44.5C17.4,44.5,17.4,44.5,17.3,44.5C17.4,44.5,17.3,44.5,17.3,44.5z"/>
					</g>
					<g>
						<path class="st28" d="M17.7,43.9C17.7,43.9,17.7,43.9,17.7,43.9c-0.1-0.3-0.4-0.4-0.4-0.4c0,0,0,0,0-0.1c0,0,0,0,0.1,0
							C17.4,43.4,17.6,43.5,17.7,43.9C17.8,43.9,17.7,43.9,17.7,43.9C17.7,43.9,17.7,43.9,17.7,43.9z"/>
					</g>
					<g>
						<path class="st28" d="M17.9,43.4C17.9,43.4,17.9,43.3,17.9,43.4c-0.1-0.2-0.2-0.4-0.4-0.5c0,0,0,0,0-0.1c0,0,0,0,0.1,0
							C17.8,42.9,17.9,43.1,17.9,43.4C18,43.3,18,43.4,17.9,43.4C17.9,43.4,17.9,43.4,17.9,43.4z"/>
					</g>
					<g>
						<path class="st28" d="M18,42.7C17.9,42.7,17.9,42.6,18,42.7c-0.1-0.2-0.2-0.4-0.3-0.4c0,0,0,0,0-0.1c0,0,0-0.1,0.1,0
							C17.8,42.2,18,42.4,18,42.7C18,42.6,18,42.7,18,42.7C18,42.7,18,42.7,18,42.7z"/>
					</g>
					<g>
						<path class="st28" d="M18,42C17.9,42,17.9,42,18,42c-0.1-0.2-0.2-0.3-0.2-0.3c0,0,0,0,0-0.1c0,0,0,0,0,0
							C17.7,41.6,17.9,41.7,18,42C18,42,18,42,18,42C18,42,18,42,18,42z"/>
					</g>
					<path class="st26" d="M17.6,40.9c0.1,0.4-0.1,2-0.6,3.3c0,0,0.8-1.6,0.7-3.3L17.6,40.9z"/>
				</g>
				<g>
					
						<linearGradient id="SVGID_25_" gradientUnits="userSpaceOnUse" x1="-49.4914" y1="2062.6187" x2="-49.4914" y2="2059.6038" gradientTransform="matrix(0.7642 0.4894 5.820000e-02 1.4246 -57.8956 -2883.7107)">
						<stop  offset="0" style="stop-color:#BD0700"/>
						<stop  offset="1" style="stop-color:#FF3016"/>
					</linearGradient>
					<path class="st48" d="M26,31.2l-4.5-2.6c-0.2-0.1-0.3-0.5-0.2-0.8l0.7-2.1c0.1-0.3,0.4-0.5,0.6-0.3L27,28
						c0.2,0.1,0.3,0.5,0.2,0.8l-0.7,2.1C26.5,31.2,26.2,31.4,26,31.2z"/>
					<g>
						
							<linearGradient id="SVGID_26_" gradientUnits="userSpaceOnUse" x1="-1883.7831" y1="2062.1948" x2="-1883.7831" y2="2060.5859" gradientTransform="matrix(0.7642 0.4894 -0.383 1.142 2251.9583 -1404.7054)">
							<stop  offset="0" style="stop-color:#EBDFC9"/>
							<stop  offset="1" style="stop-color:#FDFCFA"/>
						</linearGradient>
						<path class="st49" d="M22.1,27.7l0.1,0.1l0.4-1.1l-0.1-0.1l0.1-0.3l0.7,0.4c0.3,0.2,0.4,0.4,0.3,0.7c-0.1,0.2-0.1,0.3-0.3,0.3
							c0.1,0.1,0.2,0.3,0.1,0.6c-0.1,0.4-0.3,0.4-0.7,0.2L22,28L22.1,27.7z M22.8,27.2l0.1,0.1c0.1,0.1,0.1,0,0.2-0.1
							c0-0.1,0-0.2-0.1-0.3l-0.1-0.1L22.8,27.2z M22.7,28.1c0.1,0,0.2,0,0.2-0.1c0-0.1,0-0.3-0.1-0.3l-0.1-0.1L22.6,28L22.7,28.1z"
							/>
						
							<linearGradient id="SVGID_27_" gradientUnits="userSpaceOnUse" x1="-1882.0143" y1="2062.1392" x2="-1882.0143" y2="2060.5166" gradientTransform="matrix(0.7642 0.4894 -0.383 1.142 2251.9583 -1404.7054)">
							<stop  offset="0" style="stop-color:#EBDFC9"/>
							<stop  offset="1" style="stop-color:#FDFCFA"/>
						</linearGradient>
						<path class="st50" d="M23.9,29.2l0.1-0.3l0.2,0.1l0-0.2l-0.4-0.2l-0.1,0.2l0.1,0.1l-0.1,0.3l-0.6-0.3l0.1-0.3l0.1,0.1l0.6-1
							l-0.1,0l0.1-0.3l0.7,0.4l-0.2,1.7l0.1,0.1l-0.1,0.3L23.9,29.2z M24.3,28.4l0.1-0.6L24,28.2L24.3,28.4z"/>
						
							<linearGradient id="SVGID_28_" gradientUnits="userSpaceOnUse" x1="-1880.1793" y1="2062.0703" x2="-1880.1793" y2="2060.4651" gradientTransform="matrix(0.7642 0.4894 -0.383 1.142 2251.9583 -1404.7054)">
							<stop  offset="0" style="stop-color:#EBDFC9"/>
							<stop  offset="1" style="stop-color:#FDFCFA"/>
						</linearGradient>
						<path class="st51" d="M25.9,28.2c0.4,0.2,0.4,0.5,0.3,0.8c-0.1,0.2-0.2,0.3-0.4,0.2c0.1,0.1,0.2,0.3,0.1,0.5
							c0,0.1,0,0.2,0,0.2c0,0,0.1,0,0.1-0.1l0-0.1l0.1,0.1l0,0.1c-0.1,0.2-0.2,0.4-0.4,0.3c-0.2-0.1-0.3-0.4-0.2-0.7
							c0.1-0.2,0.1-0.3-0.1-0.4l-0.1,0.4l0.1,0.1L25.3,30l-0.6-0.3l0.1-0.3l0.1,0.1l0.4-1.1l-0.1-0.1l0.1-0.3L25.9,28.2z M25.5,28.9
							L25.5,28.9c0.2,0.1,0.3,0.1,0.3-0.1c0-0.2,0-0.3-0.1-0.3l-0.1-0.1L25.5,28.9z"/>
					</g>
				</g>
			</g>
		</g>
		<path class="st52" d="M39.6,35.5l-23.3,6.4l1.2-3.8l18-4.9L39.6,35.5z M39.1,41.5l0.6-1.9l-21.5,5.9l2,1.2L39.1,41.5z"/>
		<polygon class="st7" points="28.1,51.6 28.4,51.8 34.7,32.2 34.4,32.1 		"/>
		<polygon class="st7" points="21.6,47.9 21.9,48 28.2,28.5 27.9,28.3 		"/>
	</g>
	<g>
		<g>
			<circle class="st10" cx="20.2" cy="17.1" r="0.6"/>
			<circle class="st53" cx="20.2" cy="17.1" r="0.6"/>
			<circle class="st10" cx="20.1" cy="17" r="0.4"/>
			<circle class="st21" cx="20" cy="16.9" r="0.2"/>
			<circle class="st54" cx="19.9" cy="16.9" r="0.1"/>
		</g>
		<g>
			<circle class="st10" cx="21.9" cy="18.1" r="0.6"/>
			<circle class="st53" cx="21.9" cy="18.1" r="0.6"/>
			<circle class="st10" cx="21.8" cy="18" r="0.4"/>
			<circle class="st21" cx="21.7" cy="17.9" r="0.2"/>
			<circle class="st54" cx="21.6" cy="17.8" r="0.1"/>
		</g>
		<g>
			<circle class="st10" cx="23.6" cy="19.1" r="0.6"/>
			<circle class="st53" cx="23.6" cy="19.1" r="0.6"/>
			<circle class="st10" cx="23.5" cy="19" r="0.4"/>
			<circle class="st21" cx="23.4" cy="18.9" r="0.2"/>
			<circle class="st54" cx="23.3" cy="18.8" r="0.1"/>
		</g>
		<g>
			<circle class="st10" cx="25.3" cy="20" r="0.6"/>
			<circle class="st53" cx="25.3" cy="20" r="0.6"/>
			<circle class="st10" cx="25.2" cy="19.9" r="0.4"/>
			<circle class="st21" cx="25.1" cy="19.8" r="0.2"/>
			<circle class="st54" cx="25" cy="19.8" r="0.1"/>
		</g>
		<g>
			<circle class="st10" cx="27" cy="21" r="0.6"/>
			<circle class="st53" cx="27" cy="21" r="0.6"/>
			<circle class="st10" cx="26.9" cy="20.9" r="0.4"/>
			<circle class="st21" cx="26.8" cy="20.8" r="0.2"/>
			<circle class="st54" cx="26.7" cy="20.8" r="0.1"/>
		</g>
		<g>
			<circle class="st10" cx="28.7" cy="22" r="0.6"/>
			<circle class="st53" cx="28.7" cy="22" r="0.6"/>
			<circle class="st10" cx="28.6" cy="21.9" r="0.4"/>
			<circle class="st21" cx="28.5" cy="21.8" r="0.2"/>
			<circle class="st54" cx="28.4" cy="21.7" r="0.1"/>
		</g>
		<g>
			<circle class="st10" cx="30.4" cy="23" r="0.6"/>
			<circle class="st53" cx="30.4" cy="23" r="0.6"/>
			<circle class="st10" cx="30.3" cy="22.9" r="0.4"/>
			<circle class="st21" cx="30.2" cy="22.8" r="0.2"/>
			<circle class="st54" cx="30.1" cy="22.7" r="0.1"/>
		</g>
		<g>
			<circle class="st10" cx="32.1" cy="23.9" r="0.6"/>
			<circle class="st53" cx="32.1" cy="23.9" r="0.6"/>
			<circle class="st10" cx="32" cy="23.8" r="0.4"/>
			<circle class="st21" cx="31.9" cy="23.7" r="0.2"/>
			<circle class="st54" cx="31.8" cy="23.7" r="0.1"/>
		</g>
		<g>
			<circle class="st10" cx="33.8" cy="24.9" r="0.6"/>
			<circle class="st53" cx="33.8" cy="24.9" r="0.6"/>
			<circle class="st10" cx="33.7" cy="24.8" r="0.4"/>
			<circle class="st21" cx="33.6" cy="24.7" r="0.2"/>
			<circle class="st54" cx="33.5" cy="24.7" r="0.1"/>
		</g>
		<g>
			<circle class="st10" cx="35.5" cy="25.9" r="0.6"/>
			<circle class="st53" cx="35.5" cy="25.9" r="0.6"/>
			<circle class="st10" cx="35.4" cy="25.8" r="0.4"/>
			<circle class="st21" cx="35.3" cy="25.7" r="0.2"/>
			<circle class="st54" cx="35.2" cy="25.6" r="0.1"/>
		</g>
		<g>
			<circle class="st10" cx="37.2" cy="26.9" r="0.6"/>
			<circle class="st53" cx="37.2" cy="26.9" r="0.6"/>
			<circle class="st10" cx="37.1" cy="26.8" r="0.4"/>
			<circle class="st21" cx="37" cy="26.7" r="0.2"/>
			<circle class="st54" cx="36.9" cy="26.6" r="0.1"/>
		</g>
		<g>
			<circle class="st10" cx="38.8" cy="27.8" r="0.6"/>
			<circle class="st53" cx="38.8" cy="27.8" r="0.6"/>
			<circle class="st10" cx="38.7" cy="27.7" r="0.4"/>
			<circle class="st21" cx="38.7" cy="27.6" r="0.2"/>
			<circle class="st54" cx="38.6" cy="27.6" r="0.1"/>
		</g>
		<g>
			<circle class="st10" cx="40.5" cy="28.8" r="0.6"/>
			<circle class="st53" cx="40.5" cy="28.8" r="0.6"/>
			<circle class="st10" cx="40.4" cy="28.7" r="0.4"/>
			<circle class="st21" cx="40.3" cy="28.6" r="0.2"/>
			<circle class="st54" cx="40.3" cy="28.6" r="0.1"/>
		</g>
		<g>
			<circle class="st10" cx="42.2" cy="29.8" r="0.6"/>
			<circle class="st53" cx="42.2" cy="29.8" r="0.6"/>
			<circle class="st10" cx="42.1" cy="29.7" r="0.4"/>
			<circle class="st21" cx="42" cy="29.6" r="0.2"/>
			<circle class="st54" cx="42" cy="29.5" r="0.1"/>
		</g>
		<g>
			<circle class="st10" cx="43.9" cy="30.8" r="0.6"/>
			<circle class="st53" cx="43.9" cy="30.8" r="0.6"/>
			<circle class="st10" cx="43.8" cy="30.7" r="0.4"/>
			<circle class="st21" cx="43.7" cy="30.6" r="0.2"/>
			<circle class="st54" cx="43.7" cy="30.5" r="0.1"/>
		</g>
		<g>
			<circle class="st10" cx="45.6" cy="31.7" r="0.6"/>
			<circle class="st53" cx="45.6" cy="31.7" r="0.6"/>
			<circle class="st10" cx="45.5" cy="31.6" r="0.4"/>
			<circle class="st21" cx="45.4" cy="31.5" r="0.2"/>
			<circle class="st54" cx="45.4" cy="31.5" r="0.1"/>
		</g>
		<g>
			<circle class="st10" cx="20.2" cy="6.7" r="0.6"/>
			<circle class="st53" cx="20.2" cy="6.7" r="0.6"/>
			<circle class="st10" cx="20.1" cy="6.5" r="0.4"/>
			<circle class="st21" cx="20" cy="6.5" r="0.2"/>
			<circle class="st54" cx="20" cy="6.4" r="0.1"/>
		</g>
		<g>
			<circle class="st10" cx="21.9" cy="7.6" r="0.6"/>
			<circle class="st53" cx="21.9" cy="7.6" r="0.6"/>
			<circle class="st10" cx="21.8" cy="7.5" r="0.4"/>
			<circle class="st21" cx="21.7" cy="7.4" r="0.2"/>
			<circle class="st54" cx="21.6" cy="7.4" r="0.1"/>
		</g>
		<g>
			<circle class="st10" cx="23.6" cy="8.6" r="0.6"/>
			<circle class="st53" cx="23.6" cy="8.6" r="0.6"/>
			<circle class="st10" cx="23.5" cy="8.5" r="0.4"/>
			<circle class="st21" cx="23.4" cy="8.4" r="0.2"/>
			<circle class="st54" cx="23.3" cy="8.3" r="0.1"/>
		</g>
		<g>
			<circle class="st10" cx="25.3" cy="9.6" r="0.6"/>
			<circle class="st53" cx="25.3" cy="9.6" r="0.6"/>
			<circle class="st10" cx="25.2" cy="9.5" r="0.4"/>
			<circle class="st21" cx="25.1" cy="9.4" r="0.2"/>
			<circle class="st54" cx="25" cy="9.3" r="0.1"/>
		</g>
		<g>
			<circle class="st10" cx="27" cy="10.6" r="0.6"/>
			<circle class="st53" cx="27" cy="10.6" r="0.6"/>
			<circle class="st10" cx="26.9" cy="10.4" r="0.4"/>
			<circle class="st21" cx="26.8" cy="10.4" r="0.2"/>
			<circle class="st54" cx="26.7" cy="10.3" r="0.1"/>
		</g>
		<g>
			<circle class="st10" cx="28.7" cy="11.5" r="0.6"/>
			<circle class="st53" cx="28.7" cy="11.5" r="0.6"/>
			<circle class="st10" cx="28.6" cy="11.4" r="0.4"/>
			<circle class="st21" cx="28.5" cy="11.3" r="0.2"/>
			<circle class="st54" cx="28.4" cy="11.3" r="0.1"/>
		</g>
		<g>
			<circle class="st10" cx="30.4" cy="12.5" r="0.6"/>
			<circle class="st53" cx="30.4" cy="12.5" r="0.6"/>
			<circle class="st10" cx="30.3" cy="12.4" r="0.4"/>
			<circle class="st21" cx="30.2" cy="12.3" r="0.2"/>
			<circle class="st54" cx="30.1" cy="12.2" r="0.1"/>
		</g>
		<g>
			<circle class="st10" cx="32.1" cy="13.5" r="0.6"/>
			<circle class="st53" cx="32.1" cy="13.5" r="0.6"/>
			<circle class="st10" cx="32" cy="13.4" r="0.4"/>
			<circle class="st21" cx="31.9" cy="13.3" r="0.2"/>
			<circle class="st54" cx="31.8" cy="13.2" r="0.1"/>
		</g>
		<g>
			<circle class="st10" cx="33.8" cy="14.5" r="0.6"/>
			<circle class="st53" cx="33.8" cy="14.5" r="0.6"/>
			<circle class="st10" cx="33.7" cy="14.4" r="0.4"/>
			<circle class="st21" cx="33.6" cy="14.3" r="0.2"/>
			<circle class="st54" cx="33.5" cy="14.2" r="0.1"/>
		</g>
		<g>
			<circle class="st10" cx="35.5" cy="15.4" r="0.6"/>
			<circle class="st53" cx="35.5" cy="15.4" r="0.6"/>
			<circle class="st10" cx="35.4" cy="15.3" r="0.4"/>
			<circle class="st21" cx="35.3" cy="15.2" r="0.2"/>
			<circle class="st54" cx="35.2" cy="15.2" r="0.1"/>
		</g>
		<g>
			<circle class="st10" cx="37.2" cy="16.4" r="0.6"/>
			<circle class="st53" cx="37.2" cy="16.4" r="0.6"/>
			<circle class="st10" cx="37.1" cy="16.3" r="0.4"/>
			<circle class="st21" cx="37" cy="16.2" r="0.2"/>
			<circle class="st54" cx="36.9" cy="16.1" r="0.1"/>
		</g>
		<g>
			<circle class="st10" cx="38.9" cy="17.4" r="0.6"/>
			<circle class="st53" cx="38.9" cy="17.4" r="0.6"/>
			<circle class="st10" cx="38.7" cy="17.3" r="0.4"/>
			<circle class="st21" cx="38.7" cy="17.2" r="0.2"/>
			<circle class="st54" cx="38.6" cy="17.1" r="0.1"/>
		</g>
		<g>
			<circle class="st10" cx="40.5" cy="18.4" r="0.6"/>
			<circle class="st53" cx="40.5" cy="18.4" r="0.6"/>
			<circle class="st10" cx="40.4" cy="18.3" r="0.4"/>
			<circle class="st21" cx="40.3" cy="18.2" r="0.2"/>
			<circle class="st54" cx="40.3" cy="18.1" r="0.1"/>
		</g>
		<g>
			<circle class="st10" cx="42.2" cy="19.3" r="0.6"/>
			<circle class="st53" cx="42.2" cy="19.3" r="0.6"/>
			<circle class="st10" cx="42.1" cy="19.2" r="0.4"/>
			<circle class="st21" cx="42" cy="19.1" r="0.2"/>
			<circle class="st54" cx="42" cy="19.1" r="0.1"/>
		</g>
		<g>
			<circle class="st10" cx="43.9" cy="20.3" r="0.6"/>
			<circle class="st53" cx="43.9" cy="20.3" r="0.6"/>
			<circle class="st10" cx="43.8" cy="20.2" r="0.4"/>
			<circle class="st21" cx="43.7" cy="20.1" r="0.2"/>
			<circle class="st54" cx="43.7" cy="20.1" r="0.1"/>
		</g>
		<g>
			<circle class="st10" cx="45.6" cy="21.3" r="0.6"/>
			<circle class="st53" cx="45.6" cy="21.3" r="0.6"/>
			<circle class="st10" cx="45.5" cy="21.2" r="0.4"/>
			<circle class="st21" cx="45.4" cy="21.1" r="0.2"/>
			<circle class="st54" cx="45.4" cy="21" r="0.1"/>
		</g>
		<g>
			<circle class="st10" cx="20.2" cy="15.3" r="0.6"/>
			<circle class="st53" cx="20.2" cy="15.3" r="0.6"/>
			<circle class="st10" cx="20.1" cy="15.2" r="0.4"/>
			<circle class="st21" cx="20" cy="15.1" r="0.2"/>
			<circle class="st54" cx="19.9" cy="15.1" r="0.1"/>
		</g>
		<g>
			<circle class="st10" cx="20.2" cy="13.6" r="0.6"/>
			<circle class="st53" cx="20.2" cy="13.6" r="0.6"/>
			<circle class="st10" cx="20.1" cy="13.5" r="0.4"/>
			<circle class="st21" cx="20" cy="13.4" r="0.2"/>
			<circle class="st54" cx="19.9" cy="13.4" r="0.1"/>
		</g>
		<g>
			<circle class="st10" cx="20.2" cy="11.9" r="0.6"/>
			<circle class="st53" cx="20.2" cy="11.9" r="0.6"/>
			<circle class="st10" cx="20.1" cy="11.8" r="0.4"/>
			<circle class="st21" cx="20" cy="11.7" r="0.2"/>
			<circle class="st54" cx="19.9" cy="11.6" r="0.1"/>
		</g>
		<g>
			<circle class="st10" cx="20.2" cy="10.2" r="0.6"/>
			<circle class="st53" cx="20.2" cy="10.2" r="0.6"/>
			<circle class="st10" cx="20.1" cy="10.1" r="0.4"/>
			<circle class="st21" cx="20" cy="10" r="0.2"/>
			<circle class="st54" cx="19.9" cy="9.9" r="0.1"/>
		</g>
		<g>
			<circle class="st10" cx="20.2" cy="8.4" r="0.6"/>
			<circle class="st53" cx="20.2" cy="8.4" r="0.6"/>
			<circle class="st10" cx="20.1" cy="8.3" r="0.4"/>
			<circle class="st21" cx="20" cy="8.2" r="0.2"/>
			<circle class="st54" cx="19.9" cy="8.2" r="0.1"/>
		</g>
		<g>
			<circle class="st10" cx="45.6" cy="30" r="0.6"/>
			<circle class="st53" cx="45.6" cy="30" r="0.6"/>
			<circle class="st10" cx="45.5" cy="29.9" r="0.4"/>
			<circle class="st21" cx="45.4" cy="29.8" r="0.2"/>
			<circle class="st54" cx="45.4" cy="29.7" r="0.1"/>
		</g>
		<g>
			<circle class="st10" cx="45.6" cy="28.2" r="0.6"/>
			<circle class="st53" cx="45.6" cy="28.2" r="0.6"/>
			<circle class="st10" cx="45.5" cy="28.1" r="0.4"/>
			<circle class="st21" cx="45.4" cy="28" r="0.2"/>
			<circle class="st54" cx="45.4" cy="28" r="0.1"/>
		</g>
		<g>
			<circle class="st10" cx="45.6" cy="26.5" r="0.6"/>
			<circle class="st53" cx="45.6" cy="26.5" r="0.6"/>
			<circle class="st10" cx="45.5" cy="26.4" r="0.4"/>
			<circle class="st21" cx="45.4" cy="26.3" r="0.2"/>
			<circle class="st54" cx="45.4" cy="26.3" r="0.1"/>
		</g>
		<g>
			<circle class="st10" cx="45.6" cy="24.8" r="0.6"/>
			<circle class="st53" cx="45.6" cy="24.8" r="0.6"/>
			<circle class="st10" cx="45.5" cy="24.7" r="0.4"/>
			<circle class="st21" cx="45.4" cy="24.6" r="0.2"/>
			<circle class="st54" cx="45.4" cy="24.5" r="0.1"/>
		</g>
		<g>
			<circle class="st10" cx="45.6" cy="23.1" r="0.6"/>
			<circle class="st53" cx="45.6" cy="23.1" r="0.6"/>
			<circle class="st10" cx="45.5" cy="23" r="0.4"/>
			<circle class="st21" cx="45.4" cy="22.9" r="0.2"/>
			<circle class="st54" cx="45.4" cy="22.8" r="0.1"/>
		</g>
		<g>
			<circle class="st55" cx="21.9" cy="7.6" r="0.6"/>
			<circle class="st56" cx="21.9" cy="7.6" r="0.6"/>
			<circle class="st55" cx="21.8" cy="7.5" r="0.4"/>
			<circle class="st57" cx="21.7" cy="7.4" r="0.2"/>
			<circle class="st54" cx="21.6" cy="7.4" r="0.1"/>
		</g>
		<g>
			<circle class="st55" cx="25.3" cy="9.6" r="0.6"/>
			<circle class="st56" cx="25.3" cy="9.6" r="0.6"/>
			<circle class="st55" cx="25.2" cy="9.5" r="0.4"/>
			<circle class="st57" cx="25.1" cy="9.4" r="0.2"/>
			<circle class="st54" cx="25" cy="9.3" r="0.1"/>
		</g>
		<g>
			<circle class="st55" cx="28.7" cy="11.5" r="0.6"/>
			<circle class="st56" cx="28.7" cy="11.5" r="0.6"/>
			<circle class="st55" cx="28.6" cy="11.4" r="0.4"/>
			<circle class="st57" cx="28.5" cy="11.3" r="0.2"/>
			<circle class="st54" cx="28.4" cy="11.3" r="0.1"/>
		</g>
		<g>
			<circle class="st55" cx="32.1" cy="13.5" r="0.6"/>
			<circle class="st56" cx="32.1" cy="13.5" r="0.6"/>
			<circle class="st55" cx="32" cy="13.4" r="0.4"/>
			<circle class="st57" cx="31.9" cy="13.3" r="0.2"/>
			<circle class="st54" cx="31.8" cy="13.2" r="0.1"/>
		</g>
		<g>
			<circle class="st55" cx="35.5" cy="15.4" r="0.6"/>
			<circle class="st56" cx="35.5" cy="15.4" r="0.6"/>
			<circle class="st55" cx="35.4" cy="15.3" r="0.4"/>
			<circle class="st57" cx="35.3" cy="15.2" r="0.2"/>
			<circle class="st54" cx="35.2" cy="15.2" r="0.1"/>
		</g>
		<g>
			<circle class="st55" cx="38.9" cy="17.4" r="0.6"/>
			<circle class="st56" cx="38.9" cy="17.4" r="0.6"/>
			<circle class="st55" cx="38.7" cy="17.3" r="0.4"/>
			<circle class="st57" cx="38.7" cy="17.2" r="0.2"/>
			<circle class="st54" cx="38.6" cy="17.1" r="0.1"/>
		</g>
		<g>
			<circle class="st55" cx="42.2" cy="19.3" r="0.6"/>
			<circle class="st56" cx="42.2" cy="19.3" r="0.6"/>
			<circle class="st55" cx="42.1" cy="19.2" r="0.4"/>
			<circle class="st57" cx="42" cy="19.1" r="0.2"/>
			<circle class="st54" cx="42" cy="19.1" r="0.1"/>
		</g>
		<g>
			<circle class="st55" cx="45.6" cy="21.3" r="0.6"/>
			<circle class="st56" cx="45.6" cy="21.3" r="0.6"/>
			<circle class="st55" cx="45.5" cy="21.2" r="0.4"/>
			<circle class="st57" cx="45.4" cy="21.1" r="0.2"/>
			<circle class="st54" cx="45.4" cy="21" r="0.1"/>
		</g>
		<g>
			<circle class="st55" cx="21.9" cy="18.1" r="0.6"/>
			<circle class="st56" cx="21.9" cy="18.1" r="0.6"/>
			<circle class="st55" cx="21.8" cy="18" r="0.4"/>
			<circle class="st57" cx="21.7" cy="17.9" r="0.2"/>
			<circle class="st54" cx="21.6" cy="17.8" r="0.1"/>
		</g>
		<g>
			<circle class="st55" cx="25.3" cy="20" r="0.6"/>
			<circle class="st56" cx="25.3" cy="20" r="0.6"/>
			<circle class="st55" cx="25.2" cy="19.9" r="0.4"/>
			<circle class="st57" cx="25.1" cy="19.8" r="0.2"/>
			<circle class="st54" cx="25" cy="19.8" r="0.1"/>
		</g>
		<g>
			<circle class="st55" cx="28.7" cy="22" r="0.6"/>
			<circle class="st56" cx="28.7" cy="22" r="0.6"/>
			<circle class="st55" cx="28.6" cy="21.9" r="0.4"/>
			<circle class="st57" cx="28.5" cy="21.8" r="0.2"/>
			<circle class="st54" cx="28.4" cy="21.7" r="0.1"/>
		</g>
		<g>
			<circle class="st55" cx="32.1" cy="23.9" r="0.6"/>
			<circle class="st56" cx="32.1" cy="23.9" r="0.6"/>
			<circle class="st55" cx="32" cy="23.8" r="0.4"/>
			<circle class="st57" cx="31.9" cy="23.7" r="0.2"/>
			<circle class="st54" cx="31.8" cy="23.7" r="0.1"/>
		</g>
		<g>
			<circle class="st55" cx="35.5" cy="25.9" r="0.6"/>
			<circle class="st56" cx="35.5" cy="25.9" r="0.6"/>
			<circle class="st55" cx="35.4" cy="25.8" r="0.4"/>
			<circle class="st57" cx="35.3" cy="25.7" r="0.2"/>
			<circle class="st54" cx="35.2" cy="25.6" r="0.1"/>
		</g>
		<g>
			<circle class="st55" cx="38.9" cy="27.8" r="0.6"/>
			<circle class="st56" cx="38.9" cy="27.8" r="0.6"/>
			<circle class="st55" cx="38.7" cy="27.7" r="0.4"/>
			<circle class="st57" cx="38.7" cy="27.6" r="0.2"/>
			<circle class="st54" cx="38.6" cy="27.6" r="0.1"/>
		</g>
		<g>
			<circle class="st55" cx="42.2" cy="29.8" r="0.6"/>
			<circle class="st56" cx="42.2" cy="29.8" r="0.6"/>
			<circle class="st55" cx="42.1" cy="29.7" r="0.4"/>
			<circle class="st57" cx="42" cy="29.6" r="0.2"/>
			<circle class="st54" cx="42" cy="29.5" r="0.1"/>
		</g>
		<g>
			<circle class="st55" cx="45.6" cy="31.7" r="0.6"/>
			<circle class="st56" cx="45.6" cy="31.7" r="0.6"/>
			<circle class="st55" cx="45.5" cy="31.6" r="0.4"/>
			<circle class="st57" cx="45.4" cy="31.5" r="0.2"/>
			<circle class="st54" cx="45.4" cy="31.5" r="0.1"/>
		</g>
		<g>
			<circle class="st55" cx="45.6" cy="28.2" r="0.6"/>
			<circle class="st56" cx="45.6" cy="28.2" r="0.6"/>
			<circle class="st55" cx="45.5" cy="28.1" r="0.4"/>
			<circle class="st57" cx="45.4" cy="28" r="0.2"/>
			<circle class="st54" cx="45.4" cy="28" r="0.1"/>
		</g>
		<g>
			<circle class="st55" cx="45.6" cy="24.8" r="0.6"/>
			<circle class="st56" cx="45.6" cy="24.8" r="0.6"/>
			<circle class="st55" cx="45.5" cy="24.7" r="0.4"/>
			<circle class="st57" cx="45.4" cy="24.6" r="0.2"/>
			<circle class="st54" cx="45.4" cy="24.5" r="0.1"/>
		</g>
		<g>
			<circle class="st55" cx="20.2" cy="8.4" r="0.6"/>
			<circle class="st56" cx="20.2" cy="8.4" r="0.6"/>
			<circle class="st55" cx="20.1" cy="8.3" r="0.4"/>
			<circle class="st57" cx="20" cy="8.2" r="0.2"/>
			<circle class="st54" cx="19.9" cy="8.2" r="0.1"/>
		</g>
		<g>
			<circle class="st55" cx="20.2" cy="15.3" r="0.6"/>
			<circle class="st56" cx="20.2" cy="15.3" r="0.6"/>
			<circle class="st55" cx="20.1" cy="15.2" r="0.4"/>
			<circle class="st57" cx="20" cy="15.1" r="0.2"/>
			<circle class="st54" cx="19.9" cy="15.1" r="0.1"/>
		</g>
		<g>
			<circle class="st55" cx="20.2" cy="11.9" r="0.6"/>
			<circle class="st56" cx="20.2" cy="11.9" r="0.6"/>
			<circle class="st55" cx="20.1" cy="11.8" r="0.4"/>
			<circle class="st57" cx="20" cy="11.7" r="0.2"/>
			<circle class="st54" cx="19.9" cy="11.6" r="0.1"/>
		</g>
	</g>
	<g>
		<g>
			<path class="st58" d="M43.3,62.5l-1.4-0.8c-0.3-0.2-0.8-0.2-1.3,0.1c-0.9,0.5-1.7,1.8-1.7,2.9c0,0.5,0.2,0.9,0.5,1.1l1.3,0.8
				l0.3-0.5c0,0,0.1,0,0.1,0c0.9-0.5,1.6-1.8,1.7-2.8L43.3,62.5z"/>
			<path class="st59" d="M43.7,63.5c0,1.1-0.8,2.4-1.7,2.9c-0.9,0.5-1.7,0.1-1.7-1c0-1.1,0.8-2.4,1.7-2.9
				C42.9,62,43.7,62.4,43.7,63.5z"/>
		</g>
		
			<linearGradient id="SVGID_29_" gradientUnits="userSpaceOnUse" x1="17.1383" y1="10.8404" x2="19.6449" y2="10.8404" gradientTransform="matrix(0.4758 -0.8796 0.8796 0.4758 15.5074 71.211)">
			<stop  offset="0" style="stop-color:#9DA2AB"/>
			<stop  offset="0.1334" style="stop-color:#B6BAC1"/>
			<stop  offset="0.3555" style="stop-color:#DDDFE3"/>
			<stop  offset="0.3838" style="stop-color:#D7D9DE"/>
			<stop  offset="0.6238" style="stop-color:#A8ACB4"/>
			<stop  offset="0.8078" style="stop-color:#8B909B"/>
			<stop  offset="0.9129" style="stop-color:#808591"/>
		</linearGradient>
		<path class="st60" d="M40.2,62.3c-4.2-1.8-8.8-3.8-12.7-5.4c-0.2,0.3-0.5,0.6-0.7,1c4.6,2,8.7,3.5,12.9,5.5c0,0,0.4,0.2,0.7,0
			c0.2-0.2,0.3-0.6,0.3-0.8C40.5,62.4,40.4,62.3,40.2,62.3z"/>
		<g>
			
				<radialGradient id="SVGID_30_" cx="16.7022" cy="6.3149" r="1.7438" gradientTransform="matrix(0.5292 -0.8484 0.848 0.5294 13.2077 68.4229)" gradientUnits="userSpaceOnUse">
				<stop  offset="0.1629" style="stop-color:#FC3C2B"/>
				<stop  offset="0.5647" style="stop-color:#EB0116"/>
				<stop  offset="1" style="stop-color:#A90019"/>
			</radialGradient>
			<circle class="st61" cx="27.9" cy="57.6" r="1.7"/>
			
				<radialGradient id="SVGID_31_" cx="16.4853" cy="6.1252" r="0.8298" gradientTransform="matrix(0.5292 -0.8484 0.848 0.5294 13.2077 68.4229)" gradientUnits="userSpaceOnUse">
				<stop  offset="0.2733" style="stop-color:#FCE3D4"/>
				<stop  offset="0.3425" style="stop-color:#F8E0D1"/>
				<stop  offset="0.4052" style="stop-color:#EDD6C8"/>
				<stop  offset="0.4655" style="stop-color:#DBC5B8"/>
				<stop  offset="0.5242" style="stop-color:#C1AEA2"/>
				<stop  offset="0.5818" style="stop-color:#9F9086"/>
				<stop  offset="0.6386" style="stop-color:#766B64"/>
				<stop  offset="0.6947" style="stop-color:#463F3B"/>
				<stop  offset="0.749" style="stop-color:#0F0D0C"/>
				<stop  offset="0.7622" style="stop-color:#000000"/>
			</radialGradient>
			<circle class="st62" cx="27.1" cy="57.7" r="0.8"/>
		</g>
	</g>
	<g>
		<polygon class="st63" points="41.2,108 39.7,107.1 39.6,82.1 41.1,83 		"/>
		<path class="st63" d="M35.6,80.2l0-14.7L34,64.7l0,14.7c0,1.6,0.6,2.8,1.5,3.3l1.5,0.9C36.2,83,35.6,81.8,35.6,80.2z"/>
		<path class="st64" d="M86.9,30.3c-1-0.5-2.3-0.5-3.7,0.4l-43.9,25c-2.9,1.6-5.2,5.6-5.2,8.9l1.5,0.9c0-3.3,2.3-7.3,5.2-8.9
			l43.9-25c1.5-0.8,2.8-0.9,3.7-0.4L86.9,30.3z"/>
		<path class="st65" d="M84.7,31.6c2.9-1.6,5.3-0.3,5.3,3l0,14.7c0,3.3-2.3,7.3-5.2,8.9L49.3,78.3L41.2,108l-0.1-25l-0.3,0.2
			c-2.9,1.6-5.3,0.3-5.3-3l0-14.7c0-3.3,2.3-7.3,5.2-8.9L84.7,31.6z"/>
		<path class="st66" d="M82.9,56.2L43.1,79c-2.3,1.3-4.1,0.5-4.1-1.7V64.9c0-2.3,1.8-5.1,4.1-6.5l39.8-22.8c2.3-1.3,4.1-0.5,4.1,1.7
			v12.4C87,52,85.2,54.9,82.9,56.2z"/>
		<path class="st64" d="M51.3,58.2v5.2l-3.6-3L45,62v11.5l3.1-1.9v-5.2l3.6,3l2.6-1.6V56.4L51.3,58.2z M59.8,61.7v-1.5l4-2.4V55
			l-4,2.4v-1.3l4.6-2.7v-2.9L56.7,55v11.5l7.9-4.7v-2.9L59.8,61.7z M78.9,41.8l-1.8,7.6l-1.7-5.6l-3,1.8l-1.8,7.6l-1.7-5.5l-3.3,2
			l3.1,9.6l3.5-2.1l1.6-7.1l1.5,5.2l3.5-2.1L81.9,40L78.9,41.8z"/>
	</g>
</g>
</svg>
