<?xml version="1.0" encoding="utf-8"?>
<!-- Generator: Adobe Illustrator 21.0.0, SVG Export Plug-In . SVG Version: 6.00 Build 0)  -->
<svg version="1.1" id="Слой_1" xmlns="http://www.w3.org/2000/svg" xmlns:xlink="http://www.w3.org/1999/xlink" x="0px" y="0px"
	 width="90px" height="110px" viewBox="0 0 90 110" style="enable-background:new 0 0 90 110;" xml:space="preserve">
<style type="text/css">
	.st0{fill:url(#XMLID_2_);}
	.st1{fill:url(#XMLID_3_);}
	.st2{fill:url(#XMLID_4_);}
	.st3{fill:#DBD9D7;}
	.st4{fill:#8D8A88;}
	.st5{fill:#BBB8B5;}
	.st6{fill:#9C9A99;}
	.st7{fill:#666360;}
	.st8{fill:#E7E5E3;}
	.st9{fill:#B8B6B4;}
	.st10{fill:#7C776A;}
	.st11{fill:url(#SVGID_1_);}
	.st12{fill:url(#SVGID_2_);}
	.st13{fill:#6A6B6B;}
	.st14{fill:#42AF58;}
	.st15{fill:#9C9792;}
	.st16{fill:#E7E5D1;}
	.st17{fill:#EB5050;}
	.st18{fill:#4A5154;}
	.st19{fill:#DD6A33;}
	.st20{fill:#366A33;}
	.st21{fill:#484949;}
	.st22{fill:#F1F1F1;}
	.st23{fill:#E6E1E4;}
	.st24{fill:#B2B3B3;}
	.st25{fill:#F19C23;}
</style>
<g id="Slots">
	<g>
		<g>
			<g id="XMLID_6610_">
				
					<linearGradient id="XMLID_2_" gradientUnits="userSpaceOnUse" x1="-118.7307" y1="63.5504" x2="-114.8518" y2="63.5504" gradientTransform="matrix(-0.9998 2.130000e-02 -2.130000e-02 -0.9998 -34.9934 92.3498)">
					<stop  offset="0" style="stop-color:#FAFAFA"/>
					<stop  offset="0.1159" style="stop-color:#E8E8E8"/>
					<stop  offset="0.2611" style="stop-color:#D7D7D7"/>
					<stop  offset="0.3709" style="stop-color:#D1D1D1"/>
					<stop  offset="0.3782" style="stop-color:#B8B8B8"/>
					<stop  offset="0.6036" style="stop-color:#B2B2B2"/>
					<stop  offset="0.6054" style="stop-color:#A9A9A9"/>
					<stop  offset="0.6109" style="stop-color:#939393"/>
					<stop  offset="0.7871" style="stop-color:#8A8A8A"/>
					<stop  offset="1" style="stop-color:#858585"/>
				</linearGradient>
				<path id="XMLID_6612_" class="st0" d="M78.4,6l3.5-0.1l0.5,39.8l0,0c0,0.3-0.2,0.5-0.5,0.7c-0.7,0.4-1.8,0.4-2.5,0.1
					c-0.3-0.2-0.5-0.4-0.5-0.7l0,0L78.4,6z"/>
				
					<linearGradient id="XMLID_3_" gradientUnits="userSpaceOnUse" x1="138.2613" y1="-207.1599" x2="146.1251" y2="-207.1599" gradientTransform="matrix(-0.4239 -0.9057 -0.9057 0.4239 -48.2478 260.745)">
					<stop  offset="0" style="stop-color:#858585"/>
					<stop  offset="0.2129" style="stop-color:#8A8A8A"/>
					<stop  offset="0.3891" style="stop-color:#939393"/>
					<stop  offset="0.3946" style="stop-color:#A9A9A9"/>
					<stop  offset="0.3964" style="stop-color:#B2B2B2"/>
					<stop  offset="0.6218" style="stop-color:#B8B8B8"/>
					<stop  offset="0.6291" style="stop-color:#D1D1D1"/>
					<stop  offset="0.7389" style="stop-color:#D7D7D7"/>
					<stop  offset="0.8841" style="stop-color:#E8E8E8"/>
					<stop  offset="1" style="stop-color:#FAFAFA"/>
				</linearGradient>
				<path id="XMLID_6711_" class="st1" d="M74.7,41.9l3.7,7l3.1-1.9l0,0c0.5-0.4,0.9-0.6,0.9-1.5c0.1-1.7-0.8-3.7-2.2-4.7
					c-0.7-0.5-0.8-0.8-1.4-0.6l-0.7,0.2L74.7,41.9z"/>
			</g>
			
				<radialGradient id="XMLID_4_" cx="-37.5442" cy="208.7824" r="4.0833" fx="-36.5013" fy="207.6213" gradientTransform="matrix(-0.7865 -0.6109 0.6096 -0.7882 -76.7348 146.7586)" gradientUnits="userSpaceOnUse">
				<stop  offset="7.843140e-02" style="stop-color:#FF9D8A"/>
				<stop  offset="0.2371" style="stop-color:#FF9A89"/>
				<stop  offset="0.344" style="stop-color:#FF9184"/>
				<stop  offset="0.4354" style="stop-color:#FF827C"/>
				<stop  offset="0.4902" style="stop-color:#FF7575"/>
				<stop  offset="0.4926" style="stop-color:#FF7070"/>
				<stop  offset="0.4956" style="stop-color:#FF6161"/>
				<stop  offset="0.498" style="stop-color:#FF4F4F"/>
				<stop  offset="0.4995" style="stop-color:#FF5350"/>
				<stop  offset="0.5009" style="stop-color:#FF5E54"/>
				<stop  offset="0.502" style="stop-color:#FF6D59"/>
				<stop  offset="0.6341" style="stop-color:#F25D4E"/>
				<stop  offset="0.891" style="stop-color:#CF3430"/>
				<stop  offset="0.9686" style="stop-color:#C42626"/>
				<stop  offset="0.985" style="stop-color:#AC0E0E"/>
			</radialGradient>
			<path id="XMLID_6605_" class="st2" d="M83.2,8.1C82,9.7,79.6,10,78,8.7s-1.9-3.6-0.7-5.2c1.3-1.6,3.6-1.9,5.2-0.7
				C84.2,4.1,84.5,6.4,83.2,8.1z"/>
			<path id="XMLID_19_" class="st3" d="M78.9,2.5c0.6-0.3,1.6-0.3,2.1,0s0.6,0.9,0,1.2s-1.6,0.3-2.1,0C78.3,3.4,78.3,2.8,78.9,2.5z"
				/>
		</g>
		<g>
			<g>
				<polygon class="st4" points="14.1,97.5 14.1,99.3 6,85.5 7.2,84.7 30.5,71.3 				"/>
				<polygon class="st4" points="7.4,85.3 6,85.5 11.5,67 36,52.9 				"/>
				<polygon class="st5" points="38.6,83.4 14.1,97.5 7.4,85.3 31.6,70.5 				"/>
				<polygon class="st6" points="46.5,87.9 38.6,83.4 13.6,79.3 10.6,83.4 14.7,98.3 22.7,102.5 				"/>
				<path class="st4" d="M57.8,95.9v0.6c0,1.7-0.9,3.3-2.4,4.2L42,108.4c-3.8,2.2-8.5,2.2-12.3,0l-4.3-2.5l0,0l0,0l-11.3-6.5v-1.8
					l2-0.1L57.8,95.9z"/>
				<path class="st7" d="M25.4,104.1v1.7l0,0l-11.3-6.5v-1.8l2-0.1C19.7,100,25.4,104.1,25.4,104.1z"/>
				<path class="st8" d="M56.6,98.1L41.1,107c-3.3,1.9-7.3,1.9-10.5,0l-16.5-9.5l24.5-14.2l18,10.4C58.2,94.7,58.2,97.1,56.6,98.1z"
					/>
				<polygon class="st9" points="50,90 25.4,104.1 14.1,97.5 38.6,83.4 				"/>
				<polygon class="st10" points="31.6,70.5 7.4,85.3 12.4,69 36.9,54.8 				"/>
				
					<linearGradient id="SVGID_1_" gradientUnits="userSpaceOnUse" x1="13.8754" y1="11.1198" x2="71.0997" y2="110.2352" gradientTransform="matrix(1 0 0 -1 0 110)">
					<stop  offset="0" style="stop-color:#7E7A76"/>
					<stop  offset="1.148689e-02" style="stop-color:#807C78"/>
					<stop  offset="1.562511e-02" style="stop-color:#86827F"/>
					<stop  offset="1.856300e-02" style="stop-color:#918E8A"/>
					<stop  offset="2.093361e-02" style="stop-color:#A19E9B"/>
					<stop  offset="2.145720e-02" style="stop-color:#A6A3A0"/>
					<stop  offset="0.4128" style="stop-color:#A6A3A0"/>
					<stop  offset="0.4165" style="stop-color:#AFACA9"/>
					<stop  offset="0.426" style="stop-color:#BFBDBA"/>
					<stop  offset="0.4378" style="stop-color:#CBC8C5"/>
					<stop  offset="0.4544" style="stop-color:#D1CFCC"/>
					<stop  offset="0.5005" style="stop-color:#D3D1CE"/>
					<stop  offset="0.5019" style="stop-color:#D1CFCC"/>
					<stop  offset="0.5025" style="stop-color:#CCCAC5"/>
					<stop  offset="0.6218" style="stop-color:#D9D7D5"/>
					<stop  offset="0.6291" style="stop-color:#E8E6E4"/>
					<stop  offset="0.8431" style="stop-color:#E8E8E6"/>
					<stop  offset="0.9644" style="stop-color:#E8E8E6"/>
					<stop  offset="0.9844" style="stop-color:#E8E8E6"/>
					<stop  offset="0.9908" style="stop-color:#E8E6E4"/>
				</linearGradient>
				<path class="st11" d="M67,0.7L13.9,31.4c-2.8,1.6-4.8,6.4-4.4,10.7L11,92.9c0.3,4.8,1.2,5.1,3.7,6.4c2.4,1.2,4.4,2.1,4.4,2.1
					l50.5-31.6c2.8-1.6,4.8-6.4,4.4-10.7L72.2,0.4c0,0-2.3-0.5-3.2-0.4C68.6,0.1,68,0.2,67,0.7z"/>
				
					<linearGradient id="SVGID_2_" gradientUnits="userSpaceOnUse" x1="1.5186" y1="18.254" x2="58.3412" y2="116.6735" gradientTransform="matrix(1 0 0 -1 0 110)">
					<stop  offset="0" style="stop-color:#666360"/>
					<stop  offset="1.154267e-02" style="stop-color:#686562"/>
					<stop  offset="1.570076e-02" style="stop-color:#6E6B69"/>
					<stop  offset="1.865399e-02" style="stop-color:#7A7774"/>
					<stop  offset="2.103551e-02" style="stop-color:#8A8785"/>
					<stop  offset="2.145720e-02" style="stop-color:#8E8B89"/>
					<stop  offset="0.4128" style="stop-color:#8E8B89"/>
					<stop  offset="0.4165" style="stop-color:#979492"/>
					<stop  offset="0.426" style="stop-color:#A7A5A3"/>
					<stop  offset="0.4378" style="stop-color:#B3B0AE"/>
					<stop  offset="0.4544" style="stop-color:#B9B7B5"/>
					<stop  offset="0.5005" style="stop-color:#BBB9B7"/>
					<stop  offset="0.5019" style="stop-color:#B9B7B5"/>
					<stop  offset="0.5025" style="stop-color:#B4B2AE"/>
					<stop  offset="0.6218" style="stop-color:#C1BFBD"/>
					<stop  offset="0.6291" style="stop-color:#D0CECC"/>
					<stop  offset="0.8431" style="stop-color:#D0D0CE"/>
					<stop  offset="0.9644" style="stop-color:#D0D0CE"/>
					<stop  offset="0.9844" style="stop-color:#D0D0CE"/>
					<stop  offset="0.9908" style="stop-color:#D0CECC"/>
				</linearGradient>
				<path class="st12" d="M15.7,99.3c-2.5-1.2-3.4-1.6-3.7-6.4l-1.5-50.7c-0.3-4.3,1.6-9.1,4.4-10.7L68.1,0.7
					c0.8-0.5,1.4-0.6,1.8-0.7c-0.3,0-0.6,0-0.8,0c-0.4,0-1.1,0.1-2,0.7L13.9,31.4c-2.8,1.6-4.8,6.4-4.4,10.7L11,92.9
					c0.3,4.8,1.2,5.1,3.7,6.4c2.4,1.2,4.4,2.1,4.4,2.1l0.5-0.3C18.7,100.7,17.3,100,15.7,99.3z"/>
				<path class="st13" d="M75.1,70.4L22,101.1c-2.8,1.6-5.3-0.6-5.7-4.9L16,91.6l-3.7-49.3c-0.3-4.3,1.6-9.1,4.4-10.7l8.1-4.7
					L63.1,4.7l6.6-3.8c2.8-1.6,5.3,0.6,5.7,4.9L75.6,9l3.8,50.6C79.8,64,77.8,68.8,75.1,70.4z"/>
				<polygon class="st14" points="71.8,4.9 16,37.2 19.8,86.6 75.5,54.3 				"/>
				<g>
					<g id="XMLID_7032_">
						<polygon id="XMLID_7049_" class="st15" points="28.1,69 26.9,47 37.5,40.8 38.6,62.9 						"/>
						<polygon id="XMLID_7046_" class="st16" points="36.5,42.6 37.5,62.3 29.1,67.2 28,47.5 						"/>
						<polygon id="XMLID_7042_" class="st15" points="39,62.7 37.8,40.6 49.6,33.8 50.8,55.8 						"/>
						<polygon id="XMLID_7039_" class="st16" points="48.7,35.5 49.7,55.2 40,60.9 38.9,41.2 						"/>
						<polygon id="XMLID_7036_" class="st15" points="51.2,55.6 50,33.6 61.2,27.1 62.4,49.1 						"/>
						<polygon id="XMLID_7033_" class="st16" points="60.2,28.8 61.3,48.5 52.2,53.8 51.1,34.1 						"/>
					</g>
					<polygon id="XMLID_6980_" class="st17" points="29.9,50.4 30,53.9 31.2,53 31.2,51.8 33.4,50.4 31.5,55.4 31.4,60.3 33.5,59.1 
						33.3,54.6 35.4,48.8 35.5,47 					"/>
					<polygon id="XMLID_6978_" class="st17" points="41.4,43.8 41.6,47.3 42.8,46.4 42.8,45.2 45,43.9 43.1,48.8 43,53.7 45.1,52.5 
						44.9,48.1 46.9,42.3 47,40.4 					"/>
					<polygon id="XMLID_6977_" class="st17" points="53.2,37.3 53.3,40.8 54.6,40 54.6,38.8 56.7,37.4 54.9,42.3 54.8,47.3 56.9,46 
						56.6,41.6 58.7,35.8 58.8,34 					"/>
					<polygon id="XMLID_6974_" class="st18" points="47.8,53.6 41.3,57.3 41.4,59.6 47.9,55.8 					"/>
					<path id="XMLID_6973_" class="st19" d="M58.2,47.4c0,0-1.4-0.1-2.9,2.2c-1.2,1.9-1.8,3.4-1.8,3.4l5.6-3.3
						C59.2,49.8,59.3,48.1,58.2,47.4z"/>
					<path id="XMLID_6949_" class="st17" d="M32,64.6c0,0-0.3-0.2-0.8,0.4c-0.4,0.6-0.6,1.4-0.6,1.4l2.2-1.3
						C32.8,65.1,33.1,63.6,32,64.6z"/>
					<path id="XMLID_6948_" class="st17" d="M34.6,63.1c0,0-0.3-0.2-0.8,0.4c-0.4,0.6-0.6,1.4-0.6,1.4l2.2-1.3
						C35.4,63.6,35.7,62,34.6,63.1z"/>
					<path id="XMLID_6848_" class="st20" d="M34.7,60.1c0,0-0.9,1-2.4,3.6c-0.6,1-0.6,1.2-0.6,1.2l0.2-0.1c0,0,1-1.9,2-3.4
						c0.6-0.9,0.9-1.3,0.9-1.3L34.7,60.1L34.7,60.1z"/>
					<path id="XMLID_6847_" class="st20" d="M34.7,60.1c0,0-0.6,1.5-0.5,2.6c0.1,0.7,0.2,0.8,0.2,0.8l0.2-0.3c0,0-0.4-0.4-0.1-2
						C34.7,60.3,35,60,35,60L34.7,60.1L34.7,60.1z"/>
				</g>
				<polygon class="st8" points="71.8,4.9 16,37.2 16.7,45.8 72.4,13.5 				"/>
				<polygon class="st21" points="71.8,4.9 71.4,5.2 75,53.9 19.7,85.9 19.8,86.6 75.5,54.3 				"/>
				<path class="st22" d="M75.1,70.4l-0.4,0.3l-11.9,6.9L56,81.5l-12.4,7.2l-5.4,3.1L26,98.9l-4,2.3c-2.8,1.6-5.3-0.6-5.7-4.9
					L16,91.9l12.1-7l12.8-7.4l4.8-2.8l13-7.5l6.2-3.6l12.5-7.2l1.8-1l0.3,4.3C79.8,64,77.8,68.8,75.1,70.4z"/>
				<polygon class="st23" points="42.3,77.5 39.9,89.9 29.3,96 31.1,84 				"/>
				<polygon class="st23" points="74,59.2 71.7,71.5 61.3,77.5 63.2,65.5 				"/>
			</g>
			<g>
				<g>
					<g>
						<polygon class="st24" points="18.6,40.9 22.8,38.4 22.8,37.7 18.5,40.1 						"/>
					</g>
					<g>
						<polygon class="st24" points="18.7,42.4 23,39.9 22.9,39.2 18.6,41.6 						"/>
					</g>
					<g>
						<polygon class="st24" points="18.5,39.4 22.7,37 22.7,36.2 18.4,38.6 						"/>
					</g>
				</g>
			</g>
			<g>
				<polygon class="st24" points="30.5,34.6 35.7,31.6 35.6,30.7 30.4,33.7 				"/>
				<polygon class="st24" points="40.1,29 45.3,26 45.3,25.1 40,28.1 				"/>
				<polygon class="st24" points="49.7,23.5 55,20.4 54.9,19.5 49.7,22.5 				"/>
				<polygon class="st24" points="59.4,17.9 64.6,14.8 64.6,13.9 59.3,16.9 				"/>
			</g>
		</g>
	</g>
	<g>
		<g>
			<g>
				<polygon class="st25" points="30.3,77.7 36.5,74.2 36,70.2 29.9,73.7 				"/>
			</g>
		</g>
	</g>
	<g>
		<g>
			<g>
				<polygon class="st25" points="39.8,72.3 45.9,68.8 45.5,64.7 39.3,68.3 				"/>
			</g>
		</g>
	</g>
	<g>
		<g>
			<g>
				<polygon class="st25" points="49.3,66.9 55.4,63.4 55,59.3 48.8,62.9 				"/>
			</g>
		</g>
	</g>
</g>
</svg>
