<?xml version="1.0" encoding="utf-8"?>
<!-- Generator: Adobe Illustrator 21.0.0, SVG Export Plug-In . SVG Version: 6.00 Build 0)  -->
<svg version="1.1" id="Слой_1" xmlns="http://www.w3.org/2000/svg" xmlns:xlink="http://www.w3.org/1999/xlink" x="0px" y="0px"
	 width="90px" height="110px" viewBox="0 0 90 110" style="enable-background:new 0 0 90 110;" xml:space="preserve">
<style type="text/css">
	.st0{fill:#1D1D1D;}
	.st1{fill:#42AF58;}
	.st2{opacity:0.6;fill:#407A13;}
	.st3{fill:url(#SVGID_1_);}
	.st4{fill:#F7F5F4;}
	.st5{fill:#2E2E2E;}
	.st6{fill:url(#SVGID_2_);}
	.st7{fill:#E24444;}
	.st8{fill:url(#SVGID_3_);}
	.st9{fill:url(#SVGID_4_);}
	.st10{enable-background:new    ;}
	.st11{fill:url(#SVGID_5_);}
	.st12{fill:url(#SVGID_6_);}
	.st13{fill:url(#SVGID_7_);}
	.st14{fill:url(#SVGID_8_);}
	.st15{fill:url(#SVGID_9_);}
	.st16{fill:url(#SVGID_10_);}
	.st17{fill:url(#SVGID_11_);}
	.st18{fill:url(#SVGID_12_);}
	.st19{fill:url(#SVGID_13_);}
	.st20{fill:url(#SVGID_14_);}
	.st21{fill:url(#SVGID_15_);}
	.st22{fill:url(#SVGID_16_);}
	.st23{fill:#202020;}
	.st24{fill:url(#SVGID_17_);}
	.st25{fill:url(#SVGID_18_);}
	.st26{fill:url(#SVGID_19_);}
	.st27{fill:url(#SVGID_20_);}
	.st28{fill:url(#SVGID_21_);}
	.st29{fill:url(#SVGID_22_);}
	.st30{fill:url(#SVGID_23_);}
</style>
<g id="Table">
	<path class="st0" d="M87.1,61L65.8,73.3c-3.8,2.2-10,2.2-13.8,0L2.9,44.8c-3.8-2.2-3.8-5.8,0-8l21.3-12.4c3.8-2.2,10-2.2,13.8,0
		l49.1,28.5C91,55.2,91,58.7,87.1,61z"/>
	<path class="st1" d="M87.1,58.2L65.8,70.6c-3.8,2.2-10,2.2-13.8,0L2.9,42.1c-3.8-2.2-3.8-5.8,0-8l21.3-12.4c3.8-2.2,10-2.2,13.8,0
		l49.1,28.5C91,52.4,91,56,87.1,58.2z"/>
	<g>
		<path class="st2" d="M52.4,61.3l10,5.8c0.6,0.4,1.6,0.4,2.3,0L81,57.5c0.6-0.4,0.6-1,0-1.3l-10-5.8c-0.6-0.4-1.6-0.4-2.3,0
			l-16.3,9.5C51.8,60.3,51.8,60.9,52.4,61.3z"/>
		<path class="st2" d="M8.3,35.6l10,5.8c0.6,0.4,1.6,0.4,2.3,0l16.3-9.5c0.6-0.4,0.6-1,0-1.3l-10-5.8c-0.6-0.4-1.6-0.4-2.3,0
			L8.3,34.3C7.6,34.7,7.6,35.2,8.3,35.6z"/>
		<path class="st2" d="M37.7,52.7l10,5.8c0.6,0.4,1.6,0.4,2.3,0L66.3,49c0.6-0.4,0.6-1,0-1.3l-10-5.8c-0.6-0.4-1.6-0.4-2.3,0
			l-16.3,9.5C37.1,51.8,37.1,52.3,37.7,52.7z"/>
		<path class="st2" d="M23,44.2l10,5.8c0.6,0.4,1.6,0.4,2.3,0l16.3-9.5c0.6-0.4,0.6-1,0-1.3l-10-5.8C41,33,40,33,39.3,33.3L23,42.8
			C22.4,43.2,22.4,43.8,23,44.2z"/>
	</g>
	<g>
		<g>
			
				<linearGradient id="SVGID_1_" gradientUnits="userSpaceOnUse" x1="-274.1732" y1="58.4632" x2="-278.5107" y2="58.4632" gradientTransform="matrix(-1 0 0 1 -211.8052 0)">
				<stop  offset="0" style="stop-color:#D3CDCA"/>
				<stop  offset="1" style="stop-color:#C2BDB8"/>
			</linearGradient>
			<path class="st3" d="M52.9,59.6l16.3-9.5c0.6-0.4,1.6-0.4,2.3,0l10,5.8c0.3,0.2,0.5,0.5,0.5,0.7c0,0.3-0.1,0.5-0.5,0.7l-16.3,9.5
				c-0.6,0.4-1.6,0.4-2.3,0l-10-5.8c-0.3-0.2-0.5-0.5-0.5-0.7C52.4,60.1,52.6,59.8,52.9,59.6z"/>
			<g>
				<path class="st4" d="M52.9,60.9l10,5.8c0.6,0.4,1.6,0.4,2.3,0l16.3-9.5c0.6-0.4,0.6-1,0-1.3l-10-5.8c-0.6-0.4-1.6-0.4-2.3,0
					l-16.3,9.5C52.3,60,52.3,60.6,52.9,60.9z"/>
			</g>
		</g>
		<g>
			<g>
				<g>
					<g>
						<path class="st5" d="M65.4,64.3c-0.3,0.1-0.4,0.3-0.2,0.5c0.2,0.1,0.7,0.1,0.8-0.1c0.2,0.1,0.5,0.1,0.7,0
							c0.3-0.2,0.1-0.5-0.4-0.5c0.1-0.1,0.4-0.1,0.6-0.1c-0.3-0.2-0.3-0.2-0.6-0.4c0.1,0.1,0,0.3-0.1,0.4c0.1-0.3-0.5-0.4-0.8-0.2
							C65.2,64,65.2,64.2,65.4,64.3z"/>
						<path class="st5" d="M64,64.6L64,64.6L62.9,66c0,0,0,0,0,0.1l0.3,0.2c0,0,0.1,0,0.2,0c0.1,0,0.1-0.1,0-0.1l-0.1-0.1l2.2-0.7
							l0.1,0c0.1,0,0.1,0,0.2,0c0.1,0,0.1-0.1,0-0.1l-0.3-0.2c-0.1,0-0.1,0-0.2,0c-0.1,0-0.1,0.1,0,0.1l0.1,0L65,65.4l-0.9-0.5
							l0.2-0.2l0.1,0c0.1,0,0.1,0,0.2,0c0.1,0,0.1-0.1,0-0.1l-0.4-0.2C64.2,64.4,64.1,64.4,64,64.6C64,64.5,64,64.5,64,64.6z
							 M64.8,65.5L63.1,66l0.9-1L64.8,65.5z"/>
					</g>
					<g>
						<path class="st5" d="M68.8,52.7c0.3-0.1,0.4-0.3,0.2-0.5c-0.2-0.1-0.7-0.1-0.8,0.1c-0.2-0.1-0.5-0.1-0.7,0
							c-0.3,0.2-0.1,0.5,0.4,0.5c-0.1,0.1-0.4,0.1-0.6,0.1c0.3,0.2,0.3,0.2,0.6,0.4c-0.1-0.1,0-0.3,0.1-0.4
							c-0.1,0.3,0.5,0.4,0.8,0.2C69.1,53,69.1,52.8,68.8,52.7z"/>
						<path class="st5" d="M70.2,52.4L70.2,52.4l1.2-1.5c0,0,0,0,0-0.1L71,50.7c0,0-0.1,0-0.2,0c-0.1,0-0.1,0.1,0,0.1l0.1,0.1
							l-2.2,0.7l-0.1,0c-0.1,0-0.1,0-0.2,0c-0.1,0-0.1,0.1,0,0.1l0.3,0.2c0.1,0,0.1,0,0.2,0c0.1,0,0.1-0.1,0-0.1l-0.1,0l0.4-0.1
							l0.9,0.5l-0.2,0.2l-0.1,0c-0.1,0-0.1,0-0.2,0c-0.1,0-0.1,0.1,0,0.1l0.4,0.2C70.1,52.6,70.1,52.6,70.2,52.4
							C70.2,52.5,70.2,52.5,70.2,52.4z M69.5,51.5l1.6-0.5l-0.9,1L69.5,51.5z"/>
					</g>
				</g>
			</g>
			<path class="st5" d="M64.8,58.4c-1.2,0.3-1.6,1.2-0.6,1.8c1,0.6,2.6,0.4,3.1-0.4c0.7,0.5,2,0.5,2.8,0.1c1.3-0.7,0.2-2-1.6-1.9
				c0.5-0.3,1.5-0.6,2.5-0.3c-1.3-0.7-1.2-0.7-2.5-1.4c0.3,0.4,0.1,1.1-0.6,1.4c0.2-1-1.9-1.7-3.2-0.9C63.9,57.2,64,58,64.8,58.4z"
				/>
		</g>
	</g>
	<g>
		<g>
			
				<linearGradient id="SVGID_2_" gradientUnits="userSpaceOnUse" x1="-229.9975" y1="32.8122" x2="-234.335" y2="32.8122" gradientTransform="matrix(-1 0 0 1 -211.8052 0)">
				<stop  offset="0" style="stop-color:#D3CDCA"/>
				<stop  offset="1" style="stop-color:#C2BDB8"/>
			</linearGradient>
			<path class="st6" d="M8.7,34l16.3-9.5c0.6-0.4,1.6-0.4,2.3,0l10,5.8c0.3,0.2,0.5,0.5,0.5,0.7c0,0.3-0.1,0.5-0.5,0.7l-16.3,9.5
				c-0.6,0.4-1.6,0.4-2.3,0l-10-5.8c-0.3-0.2-0.5-0.5-0.5-0.7C8.2,34.4,8.4,34.1,8.7,34z"/>
			<g>
				<path class="st4" d="M8.7,35.3l10,5.8c0.6,0.4,1.6,0.4,2.3,0l16.3-9.5c0.6-0.4,0.6-1,0-1.3l-10-5.8c-0.6-0.4-1.6-0.4-2.3,0
					L8.7,34C8.1,34.3,8.1,34.9,8.7,35.3z"/>
			</g>
		</g>
		<g>
			<g>
				<g>
					<g>
						<polygon class="st7" points="20.9,39 22.1,38.9 22.3,38.2 21.1,38.3 						"/>
						<path class="st7" d="M19.7,38.8L19.7,38.8l-1.2,1.5c0,0,0,0,0,0.1l0.3,0.2c0,0,0.1,0,0.2,0c0.1,0,0.1-0.1,0-0.1l-0.1-0.1
							l2.2-0.7l0.1,0c0.1,0,0.1,0,0.2,0c0.1,0,0.1-0.1,0-0.1l-0.3-0.2c-0.1,0-0.1,0-0.2,0c-0.1,0-0.1,0.1,0,0.1l0.1,0l-0.4,0.1
							l-0.9-0.5L20,39l0.1,0c0.1,0,0.1,0,0.2,0c0.1,0,0.1-0.1,0-0.1l-0.4-0.2C19.8,38.7,19.8,38.7,19.7,38.8
							C19.7,38.7,19.7,38.8,19.7,38.8z M20.4,39.8l-1.6,0.5l0.9-1L20.4,39.8z"/>
					</g>
					<g>
						<polygon class="st7" points="24.7,26.5 23.5,26.6 23.2,27.3 24.5,27.2 						"/>
						<path class="st7" d="M25.9,26.7L25.9,26.7l1.2-1.5c0,0,0,0,0-0.1L26.7,25c0,0-0.1,0-0.2,0c-0.1,0-0.1,0.1,0,0.1l0.1,0.1
							l-2.2,0.7l-0.1,0c-0.1,0-0.1,0-0.2,0c-0.1,0-0.1,0.1,0,0.1l0.3,0.2c0.1,0,0.1,0,0.2,0c0.1,0,0.1-0.1,0-0.1l-0.1,0l0.4-0.1
							l0.9,0.5l-0.2,0.2l-0.1,0c-0.1,0-0.1,0-0.2,0c-0.1,0-0.1,0.1,0,0.1l0.4,0.2C25.7,26.8,25.8,26.8,25.9,26.7
							C25.9,26.8,25.9,26.7,25.9,26.7z M25.1,25.8l1.6-0.5l-0.9,1L25.1,25.8z"/>
					</g>
				</g>
			</g>
			<polygon class="st7" points="20.1,34.3 24.7,33.9 25.5,31.2 20.9,31.6 			"/>
		</g>
	</g>
	<g>
		<g>
			
				<linearGradient id="SVGID_3_" gradientUnits="userSpaceOnUse" x1="-259.4479" y1="49.9128" x2="-263.7855" y2="49.9128" gradientTransform="matrix(-1 0 0 1 -211.8052 0)">
				<stop  offset="0" style="stop-color:#D3CDCA"/>
				<stop  offset="1" style="stop-color:#C2BDB8"/>
			</linearGradient>
			<path class="st8" d="M38.2,51.1l16.3-9.5c0.6-0.4,1.6-0.4,2.3,0l10,5.8c0.3,0.2,0.5,0.5,0.5,0.7c0,0.3-0.1,0.5-0.5,0.7l-16.3,9.5
				c-0.6,0.4-1.6,0.4-2.3,0l-10-5.8c-0.3-0.2-0.5-0.5-0.5-0.7C37.7,51.5,37.8,51.2,38.2,51.1z"/>
			<g>
				<path class="st4" d="M38.2,52.4l10,5.8c0.6,0.4,1.6,0.4,2.3,0l16.3-9.5c0.6-0.4,0.6-1,0-1.3l-10-5.8c-0.6-0.4-1.6-0.4-2.3,0
					l-16.3,9.5C37.5,51.4,37.5,52,38.2,52.4z"/>
			</g>
		</g>
		<g>
			<g>
				<g>
					<g>
						<path class="st7" d="M49.9,55.9c0.1,0.1,0.4,0.1,0.6,0c-0.1,0.1-0.1,0.3,0,0.3c0.2,0.1,0.5,0.1,0.7,0c0.5-0.3,0.4-1,0.4-1
							c0,0-1.2,0-1.6,0.2C49.8,55.6,49.8,55.8,49.9,55.9z"/>
						<path class="st7" d="M49,55.8L49,55.8l-1.2,1.5c0,0,0,0,0,0.1l0.3,0.2c0,0,0.1,0,0.2,0c0.1,0,0.1-0.1,0-0.1l-0.1-0.1l2.2-0.7
							l0.1,0c0.1,0,0.1,0,0.2,0c0.1,0,0.1-0.1,0-0.1l-0.3-0.2c-0.1,0-0.1,0-0.2,0c-0.1,0-0.1,0.1,0,0.1l0.1,0L50,56.7l-0.9-0.5
							l0.2-0.2l0.1,0c0.1,0,0.1,0,0.2,0c0.1,0,0.1-0.1,0-0.1l-0.4-0.2C49.1,55.7,49.1,55.7,49,55.8C49,55.8,49,55.8,49,55.8z
							 M49.8,56.8l-1.6,0.5l0.9-1L49.8,56.8z"/>
					</g>
					<g>
						<path class="st7" d="M54.3,43.7c-0.1-0.1-0.4-0.1-0.6,0c0.1-0.1,0.1-0.3,0-0.3c-0.2-0.1-0.5-0.1-0.7,0c-0.5,0.3-0.4,1-0.4,1
							c0,0,1.2,0,1.6-0.2C54.4,44,54.4,43.8,54.3,43.7z"/>
						<path class="st7" d="M55.2,43.7L55.2,43.7l1.2-1.5c0,0,0,0,0-0.1L56,42c0,0-0.1,0-0.2,0c-0.1,0-0.1,0.1,0,0.1l0.1,0.1
							l-2.2,0.7l-0.1,0c-0.1,0-0.1,0-0.2,0c-0.1,0-0.1,0.1,0,0.1l0.3,0.2c0.1,0,0.1,0,0.2,0c0.1,0,0.1-0.1,0-0.1l-0.1,0l0.4-0.1
							l0.9,0.5l-0.2,0.2l-0.1,0c-0.1,0-0.1,0-0.2,0c-0.1,0-0.1,0.1,0,0.1l0.4,0.2C55.1,43.9,55.1,43.9,55.2,43.7
							C55.2,43.8,55.2,43.8,55.2,43.7z M54.4,42.8l1.6-0.5l-0.9,1L54.4,42.8z"/>
					</g>
				</g>
			</g>
			<path class="st7" d="M48.6,50.7c0.6,0.3,1.5,0.3,2.2,0c-0.5,0.4-0.5,0.9,0.1,1.3c0.6,0.4,1.7,0.3,2.5-0.1
				c1.9-1.1,1.4-3.5,1.5-3.5c0,0-4.4-0.1-6.1,0.9C48,49.7,48,50.3,48.6,50.7z"/>
		</g>
	</g>
	<g>
		<g>
			
				<linearGradient id="SVGID_4_" gradientUnits="userSpaceOnUse" x1="-244.7227" y1="41.3625" x2="-249.0603" y2="41.3625" gradientTransform="matrix(-1 0 0 1 -211.8052 0)">
				<stop  offset="0" style="stop-color:#D3CDCA"/>
				<stop  offset="1" style="stop-color:#C2BDB8"/>
			</linearGradient>
			<path class="st9" d="M23.4,42.5L39.8,33c0.6-0.4,1.6-0.4,2.3,0l10,5.8c0.3,0.2,0.5,0.5,0.5,0.7c0,0.3-0.1,0.5-0.5,0.7l-16.3,9.5
				c-0.6,0.4-1.6,0.4-2.3,0l-10-5.8c-0.3-0.2-0.5-0.5-0.5-0.7C23,43,23.1,42.7,23.4,42.5z"/>
			<g>
				<path class="st4" d="M23.4,43.8l10,5.8c0.6,0.4,1.6,0.4,2.3,0L52,40.1c0.6-0.4,0.6-1,0-1.3l-10-5.8c-0.6-0.4-1.6-0.4-2.3,0
					l-16.3,9.5C22.8,42.9,22.8,43.5,23.4,43.8z"/>
			</g>
		</g>
		<g>
			<g>
				<g>
					<g>
						<path class="st5" d="M35.5,47.5c0,0,1.1,0.1,1.5-0.2c0.2-0.1,0.2-0.3,0-0.4c-0.1-0.1-0.2-0.1-0.3-0.1c0.1-0.1,0.3-0.1,0.5-0.1
							c-0.3-0.2-0.3-0.2-0.5-0.3c0.1,0.1,0,0.2-0.1,0.3c0-0.1,0-0.1-0.1-0.2c-0.2-0.1-0.4-0.1-0.6,0C35.4,46.8,35.5,47.5,35.5,47.5z
							"/>
						<path class="st5" d="M34.3,47.3L34.3,47.3l-1.2,1.5c0,0,0,0,0,0.1l0.3,0.2c0,0,0.1,0,0.2,0c0.1,0,0.1-0.1,0-0.1l-0.1-0.1
							l2.2-0.7l0.1,0c0.1,0,0.1,0,0.2,0c0.1,0,0.1-0.1,0-0.1l-0.3-0.2c-0.1,0-0.1,0-0.2,0c-0.1,0-0.1,0.1,0,0.1l0.1,0l-0.4,0.1
							l-0.9-0.5l0.2-0.2l0.1,0c0.1,0,0.1,0,0.2,0c0.1,0,0.1-0.1,0-0.1l-0.4-0.2C34.4,47.1,34.3,47.1,34.3,47.3
							C34.2,47.2,34.2,47.2,34.3,47.3z M35,48.2l-1.6,0.5l0.9-1L35,48.2z"/>
					</g>
					<g>
						<path class="st5" d="M39.2,34.9c0,0-1.1-0.1-1.5,0.2c-0.2,0.1-0.2,0.3,0,0.4c0.1,0.1,0.2,0.1,0.3,0.1
							c-0.1,0.1-0.3,0.1-0.5,0.1c0.3,0.2,0.3,0.2,0.5,0.3c-0.1-0.1,0-0.2,0.1-0.3c0,0.1,0,0.1,0.1,0.2c0.2,0.1,0.4,0.1,0.6,0
							C39.3,35.6,39.2,34.9,39.2,34.9z"/>
						<path class="st5" d="M40.4,35.2L40.4,35.2l1.2-1.5c0,0,0,0,0-0.1l-0.3-0.2c0,0-0.1,0-0.2,0c-0.1,0-0.1,0.1,0,0.1l0.1,0.1
							l-2.2,0.7l-0.1,0c-0.1,0-0.1,0-0.2,0c-0.1,0-0.1,0.1,0,0.1l0.3,0.2c0.1,0,0.1,0,0.2,0c0.1,0,0.1-0.1,0-0.1l-0.1,0l0.4-0.1
							l0.9,0.5L40.1,35l-0.1,0c-0.1,0-0.1,0-0.2,0c-0.1,0-0.1,0.1,0,0.1l0.4,0.2C40.3,35.3,40.4,35.3,40.4,35.2
							C40.5,35.2,40.5,35.2,40.4,35.2z M39.7,34.2l1.6-0.5l-0.9,1L39.7,34.2z"/>
					</g>
				</g>
			</g>
			<path class="st5" d="M34.5,42.8c0,0,4,0.3,5.7-0.6c0.6-0.4,0.7-1,0-1.4c-0.4-0.2-0.9-0.3-1.3-0.3c0.4-0.2,1.3-0.5,2.1-0.3
				c-1.1-0.6-1-0.6-2.1-1.2c0.3,0.4,0.1,1-0.5,1.2c0.1-0.3-0.1-0.6-0.5-0.8c-0.6-0.4-1.7-0.4-2.3,0C34.2,40.3,34.5,42.8,34.5,42.8z"
				/>
		</g>
	</g>
	<g id="_x36__1_">
		<g>
			<g>
				<g class="st10">
					<linearGradient id="SVGID_5_" gradientUnits="userSpaceOnUse" x1="39.4718" y1="85.7435" x2="46.7742" y2="98.3916">
						<stop  offset="0" style="stop-color:#E3DEDC"/>
						<stop  offset="1" style="stop-color:#DCD7D5"/>
					</linearGradient>
					<polygon class="st11" points="50.5,79.4 35.8,87.9 35.8,104.7 50.5,96.3 					"/>
					<polygon class="st4" points="35.7,71 21,79.5 35.8,87.9 50.5,79.4 					"/>
					<linearGradient id="SVGID_6_" gradientUnits="userSpaceOnUse" x1="32.0474" y1="85.7402" x2="24.7279" y2="98.418">
						<stop  offset="0" style="stop-color:#D4CFCB"/>
						<stop  offset="1" style="stop-color:#BFBBB7"/>
					</linearGradient>
					<polygon class="st12" points="35.8,87.9 21,79.5 21,96.3 35.8,104.7 					"/>
				</g>
			</g>
			<g>
				<g>
					<linearGradient id="SVGID_7_" gradientUnits="userSpaceOnUse" x1="33.7465" y1="74.4697" x2="37.6535" y2="74.4697">
						<stop  offset="0" style="stop-color:#444444"/>
						<stop  offset="1" style="stop-color:#3A3939"/>
					</linearGradient>
					<path class="st13" d="M37.1,73.7c0.8,0.4,0.8,1.1,0,1.6c-0.8,0.4-2,0.4-2.8,0c-0.8-0.4-0.8-1.1,0-1.6
						C35.1,73.2,36.3,73.2,37.1,73.7z"/>
				</g>
				<g>
					<linearGradient id="SVGID_8_" gradientUnits="userSpaceOnUse" x1="25.0421" y1="79.4726" x2="28.9524" y2="79.4726">
						<stop  offset="0" style="stop-color:#444444"/>
						<stop  offset="1" style="stop-color:#3A3939"/>
					</linearGradient>
					<path class="st14" d="M28.4,78.7c0.8,0.4,0.8,1.1,0,1.6c-0.8,0.4-2,0.4-2.8,0c-0.8-0.4-0.8-1.1,0-1.6
						C26.4,78.2,27.6,78.2,28.4,78.7z"/>
				</g>
				<g>
					<linearGradient id="SVGID_9_" gradientUnits="userSpaceOnUse" x1="42.5045" y1="79.4725" x2="46.4149" y2="79.4725">
						<stop  offset="0" style="stop-color:#444444"/>
						<stop  offset="1" style="stop-color:#3A3939"/>
					</linearGradient>
					<path class="st15" d="M45.8,78.7c0.8,0.4,0.8,1.1,0,1.6c-0.8,0.4-2,0.4-2.8,0c-0.8-0.4-0.8-1.1,0-1.6
						C43.8,78.2,45.1,78.2,45.8,78.7z"/>
				</g>
				<g>
					<linearGradient id="SVGID_10_" gradientUnits="userSpaceOnUse" x1="33.8001" y1="84.4753" x2="37.7138" y2="84.4753">
						<stop  offset="0" style="stop-color:#444444"/>
						<stop  offset="1" style="stop-color:#3A3939"/>
					</linearGradient>
					<path class="st16" d="M37.1,83.7c0.8,0.4,0.8,1.1,0,1.6c-0.8,0.4-2,0.4-2.8,0c-0.8-0.4-0.8-1.1,0-1.6
						C35.1,83.2,36.4,83.2,37.1,83.7z"/>
				</g>
			</g>
			<g>
				<g>
					<linearGradient id="SVGID_11_" gradientUnits="userSpaceOnUse" x1="37.3702" y1="99.7738" x2="40.1426" y2="99.7738">
						<stop  offset="0" style="stop-color:#3B3B3B"/>
						<stop  offset="1" style="stop-color:#272727"/>
					</linearGradient>
					<path class="st17" d="M38.8,98.2c0.8-0.4,1.4-0.1,1.4,0.8c0,0.9-0.6,1.9-1.4,2.4c-0.8,0.4-1.4,0.1-1.4-0.8
						C37.4,99.7,38,98.6,38.8,98.2z"/>
				</g>
				<g>
					<linearGradient id="SVGID_12_" gradientUnits="userSpaceOnUse" x1="46.1284" y1="94.7706" x2="48.9043" y2="94.7706">
						<stop  offset="0" style="stop-color:#3B3B3B"/>
						<stop  offset="1" style="stop-color:#272727"/>
					</linearGradient>
					<path class="st18" d="M47.5,93.2c0.8-0.4,1.4-0.1,1.4,0.8c0,0.9-0.6,1.9-1.4,2.4s-1.4,0.1-1.4-0.8
						C46.1,94.7,46.7,93.6,47.5,93.2z"/>
				</g>
				<g>
					<linearGradient id="SVGID_13_" gradientUnits="userSpaceOnUse" x1="37.3564" y1="94.9133" x2="40.1286" y2="94.9133">
						<stop  offset="0" style="stop-color:#3B3B3B"/>
						<stop  offset="1" style="stop-color:#272727"/>
					</linearGradient>
					<path class="st19" d="M38.7,93.3c0.8-0.4,1.4-0.1,1.4,0.8c0,0.9-0.6,1.9-1.4,2.4c-0.8,0.4-1.4,0.1-1.4-0.8
						C37.4,94.8,38,93.8,38.7,93.3z"/>
				</g>
				<g>
					<linearGradient id="SVGID_14_" gradientUnits="userSpaceOnUse" x1="46.1144" y1="89.9101" x2="48.8905" y2="89.9101">
						<stop  offset="0" style="stop-color:#3B3B3B"/>
						<stop  offset="1" style="stop-color:#272727"/>
					</linearGradient>
					<path class="st20" d="M47.5,88.3c0.8-0.4,1.4-0.1,1.4,0.8c0,0.9-0.6,1.9-1.4,2.4c-0.8,0.4-1.4,0.1-1.4-0.8
						C46.1,89.8,46.7,88.8,47.5,88.3z"/>
				</g>
				<g>
					<linearGradient id="SVGID_15_" gradientUnits="userSpaceOnUse" x1="37.3418" y1="89.8168" x2="40.114" y2="89.8168">
						<stop  offset="0" style="stop-color:#3B3B3B"/>
						<stop  offset="1" style="stop-color:#272727"/>
					</linearGradient>
					<path class="st21" d="M38.7,88.2c0.8-0.4,1.4-0.1,1.4,0.8c0,0.9-0.6,1.9-1.4,2.4c-0.8,0.4-1.4,0.1-1.4-0.8
						C37.3,89.7,38,88.7,38.7,88.2z"/>
				</g>
				<g>
					<linearGradient id="SVGID_16_" gradientUnits="userSpaceOnUse" x1="46.0999" y1="84.8135" x2="48.8758" y2="84.8135">
						<stop  offset="0" style="stop-color:#3B3B3B"/>
						<stop  offset="1" style="stop-color:#272727"/>
					</linearGradient>
					<path class="st22" d="M47.5,83.2c0.8-0.4,1.4-0.1,1.4,0.8c0,0.9-0.6,1.9-1.4,2.4c-0.8,0.4-1.4,0.1-1.4-0.8
						C46.1,84.7,46.7,83.7,47.5,83.2z"/>
				</g>
			</g>
			<g>
				<path class="st23" d="M28.1,90.2c-0.8-0.4-1.4-0.1-1.4,0.8c0,0.9,0.6,1.9,1.4,2.4c0.8,0.4,1.4,0.1,1.4-0.8
					C29.5,91.7,28.9,90.7,28.1,90.2z"/>
			</g>
		</g>
		<g>
			<g>
				<g class="st10">
					<linearGradient id="SVGID_17_" gradientUnits="userSpaceOnUse" x1="65.9883" y1="91.0394" x2="73.2907" y2="103.6875">
						<stop  offset="0" style="stop-color:#E3DEDC"/>
						<stop  offset="1" style="stop-color:#DCD7D5"/>
					</linearGradient>
					<polygon class="st24" points="77,84.7 62.3,93.2 62.3,110 77,101.5 					"/>
					<polygon class="st4" points="62.2,76.3 47.5,84.7 62.3,93.2 77,84.7 					"/>
					<linearGradient id="SVGID_18_" gradientUnits="userSpaceOnUse" x1="58.5639" y1="91.0361" x2="51.2443" y2="103.7139">
						<stop  offset="0" style="stop-color:#D4CFCB"/>
						<stop  offset="1" style="stop-color:#BFBBB7"/>
					</linearGradient>
					<polygon class="st25" points="62.3,93.2 47.5,84.7 47.5,101.6 62.3,110 					"/>
				</g>
			</g>
			<g>
				<g>
					<linearGradient id="SVGID_19_" gradientUnits="userSpaceOnUse" x1="60.3062" y1="79.7231" x2="64.2134" y2="79.7231">
						<stop  offset="0" style="stop-color:#444444"/>
						<stop  offset="1" style="stop-color:#3A3939"/>
					</linearGradient>
					<path class="st26" d="M63.6,78.9c0.8,0.4,0.8,1.1,0,1.6c-0.8,0.4-2,0.4-2.8,0c-0.8-0.4-0.8-1.1,0-1.6
						C61.6,78.5,62.9,78.5,63.6,78.9z"/>
				</g>
				<g>
					<linearGradient id="SVGID_20_" gradientUnits="userSpaceOnUse" x1="60.23" y1="84.6668" x2="64.1371" y2="84.6668">
						<stop  offset="0" style="stop-color:#444444"/>
						<stop  offset="1" style="stop-color:#3A3939"/>
					</linearGradient>
					<path class="st27" d="M63.6,83.9c0.8,0.4,0.8,1.1,0,1.6c-0.8,0.4-2,0.4-2.8,0c-0.8-0.4-0.8-1.1,0-1.6
						C61.6,83.4,62.8,83.4,63.6,83.9z"/>
				</g>
				<g>
					<linearGradient id="SVGID_21_" gradientUnits="userSpaceOnUse" x1="60.3599" y1="89.7287" x2="64.2736" y2="89.7287">
						<stop  offset="0" style="stop-color:#444444"/>
						<stop  offset="1" style="stop-color:#3A3939"/>
					</linearGradient>
					<path class="st28" d="M63.7,88.9c0.8,0.4,0.8,1.1,0,1.6c-0.8,0.4-2,0.4-2.8,0c-0.8-0.4-0.8-1.1,0-1.6
						C61.7,88.5,62.9,88.5,63.7,88.9z"/>
				</g>
			</g>
			<g>
				<g>
					<path class="st23" d="M59.1,103.4c-0.8-0.4-1.4-0.1-1.4,0.8c0,0.9,0.6,1.9,1.4,2.4c0.8,0.4,1.4,0.1,1.4-0.8
						C60.5,104.9,59.9,103.9,59.1,103.4z"/>
				</g>
				<g>
					<path class="st23" d="M50.4,98.4C49.6,98,49,98.3,49,99.2c0,0.9,0.6,1.9,1.4,2.4c0.8,0.4,1.4,0.1,1.4-0.8
						C51.8,99.9,51.1,98.9,50.4,98.4z"/>
				</g>
				<g>
					<path class="st23" d="M54.8,96.1c-0.8-0.4-1.4-0.1-1.4,0.8c0,0.9,0.6,1.9,1.4,2.4c0.8,0.4,1.4,0.1,1.4-0.8
						C56.1,97.6,55.5,96.5,54.8,96.1z"/>
				</g>
				<g>
					<path class="st23" d="M59.2,93.5c-0.8-0.4-1.4-0.1-1.4,0.8c0,0.9,0.6,1.9,1.4,2.4c0.8,0.4,1.4,0.1,1.4-0.8
						C60.5,95,59.9,93.9,59.2,93.5z"/>
				</g>
				<g>
					<path class="st23" d="M50.4,88.5C49.6,88,49,88.4,49,89.3c0,0.9,0.6,1.9,1.4,2.4c0.8,0.4,1.4,0.1,1.4-0.8
						C51.8,90,51.2,88.9,50.4,88.5z"/>
				</g>
			</g>
			<g>
				<g>
					<linearGradient id="SVGID_22_" gradientUnits="userSpaceOnUse" x1="63.9453" y1="104.6072" x2="66.7175" y2="104.6072">
						<stop  offset="0" style="stop-color:#3B3B3B"/>
						<stop  offset="1" style="stop-color:#272727"/>
					</linearGradient>
					<path class="st29" d="M65.3,103c0.8-0.4,1.4-0.1,1.4,0.8c0,0.9-0.6,1.9-1.4,2.4c-0.8,0.4-1.4,0.1-1.4-0.8
						C63.9,104.5,64.6,103.5,65.3,103z"/>
				</g>
				<g>
					<linearGradient id="SVGID_23_" gradientUnits="userSpaceOnUse" x1="72.675" y1="89.647" x2="75.4509" y2="89.647">
						<stop  offset="0" style="stop-color:#3B3B3B"/>
						<stop  offset="1" style="stop-color:#272727"/>
					</linearGradient>
					<path class="st30" d="M74.1,88.1c0.8-0.4,1.4-0.1,1.4,0.8c0,0.9-0.6,1.9-1.4,2.4c-0.8,0.4-1.4,0.1-1.4-0.8
						C72.7,89.6,73.3,88.5,74.1,88.1z"/>
				</g>
			</g>
		</g>
	</g>
</g>
</svg>
