<?xml version="1.0" encoding="utf-8"?>
<!-- Generator: Adobe Illustrator 21.0.0, SVG Export Plug-In . SVG Version: 6.00 Build 0)  -->
<svg version="1.1" id="Слой_1" xmlns="http://www.w3.org/2000/svg" xmlns:xlink="http://www.w3.org/1999/xlink" x="0px" y="0px"
	 width="90px" height="110px" viewBox="0 0 90 110" style="enable-background:new 0 0 90 110;" xml:space="preserve">
<style type="text/css">
	.st0{fill:#006633;}
	.st1{fill:#42AF58;}
	.st2{fill:#89C356;}
	.st3{fill:#E9ECED;}
	.st4{fill:#B4B9B9;}
	.st5{fill:#353538;}
	.st6{fill:#004E6E;}
	.st7{fill:#8FA1A8;}
	.st8{fill:#A9BFC7;}
	.st9{fill:#98ABB3;}
	.st10{fill:#889AA0;}
	.st11{fill:#A6EFFF;}
	.st12{fill:#4DADF2;}
	.st13{fill:#FFFFFF;}
	.st14{fill:#BF7000;}
	.st15{fill:#163E0D;}
	.st16{fill:#1F5A12;}
	.st17{fill:#17310B;}
	.st18{fill:#FFDD65;}
	.st19{fill:#FFBF00;}
	.st20{fill:#6DBD53;}
	.st21{fill:#DBC51F;}
	.st22{fill:#600080;}
	.st23{fill:#76009C;}
	.st24{fill:#430073;}
	.st25{fill:#FFFFCA;}
	.st26{fill:#FFF385;}
	.st27{fill:#C145FF;}
</style>
<g id="Jackpot">
	<g id="XMLID_18296_">
		<g id="XMLID_18345_">
			<polygon id="XMLID_18350_" class="st0" points="26.7,96.3 84.8,62.6 84.8,61.2 0,79.4 0,80.8 			"/>
			<polygon id="XMLID_18347_" class="st1" points="26.7,94.9 84.8,61.2 58.1,45.7 0,79.4 			"/>
			<polygon id="XMLID_18346_" class="st0" points="26.7,94.9 26.7,96.3 84.8,62.6 84.8,61.2 			"/>
		</g>
		<g id="XMLID_18339_">
			<polygon id="XMLID_18344_" class="st0" points="26.7,94.1 84.8,60.4 84.8,59 0,77.2 0,78.6 			"/>
			<polygon id="XMLID_18341_" class="st1" points="26.7,92.7 84.8,59 58.1,43.5 0,77.2 			"/>
			<polygon id="XMLID_18340_" class="st0" points="26.7,92.7 26.7,94.1 84.8,60.4 84.8,59 			"/>
		</g>
		<g id="XMLID_18333_">
			<polygon id="XMLID_18338_" class="st0" points="26.7,91.9 84.8,58.3 84.8,56.9 0,75 0,76.4 			"/>
			<polygon id="XMLID_18335_" class="st1" points="26.7,90.5 84.8,56.9 58.1,41.3 0,75 			"/>
			<polygon id="XMLID_18334_" class="st0" points="26.7,90.5 26.7,91.9 84.8,58.3 84.8,56.9 			"/>
		</g>
		<g id="XMLID_18327_">
			<polygon id="XMLID_18332_" class="st0" points="26.7,89.7 84.8,56.1 84.8,54.7 0,72.8 0,74.2 			"/>
			<polygon id="XMLID_18329_" class="st1" points="26.7,88.3 84.8,54.7 58.1,39.1 0,72.8 			"/>
			<polygon id="XMLID_18328_" class="st0" points="26.7,88.3 26.7,89.7 84.8,56.1 84.8,54.7 			"/>
		</g>
		<g id="XMLID_18321_">
			<polygon id="XMLID_18326_" class="st0" points="26.7,87.5 84.8,53.9 84.8,52.5 0,70.6 0,72 			"/>
			<polygon id="XMLID_18323_" class="st1" points="26.7,86.1 84.8,52.5 58.1,36.9 0,70.6 			"/>
			<polygon id="XMLID_18322_" class="st0" points="26.7,86.1 26.7,87.5 84.8,53.9 84.8,52.5 			"/>
		</g>
		<g id="XMLID_18315_">
			<polygon id="XMLID_18320_" class="st0" points="26.7,85.4 84.8,51.7 84.8,50.3 0,68.4 0,69.8 			"/>
			<polygon id="XMLID_18317_" class="st1" points="26.7,84 84.8,50.3 58.1,34.8 0,68.4 			"/>
			<polygon id="XMLID_18316_" class="st0" points="26.7,84 26.7,85.4 84.8,51.7 84.8,50.3 			"/>
		</g>
		<g id="XMLID_18309_">
			<polygon id="XMLID_18314_" class="st0" points="26.7,83.2 84.8,49.5 84.8,48.1 0,66.2 0,67.6 			"/>
			<polygon id="XMLID_18311_" class="st1" points="26.7,81.8 84.8,48.1 58.1,32.6 0,66.2 			"/>
			<polygon id="XMLID_18310_" class="st0" points="26.7,81.8 26.7,83.2 84.8,49.5 84.8,48.1 			"/>
		</g>
		<g id="XMLID_18303_">
			<polygon id="XMLID_18308_" class="st0" points="26.7,81 84.8,47.3 84.8,45.9 0,64 0,65.5 			"/>
			<polygon id="XMLID_18305_" class="st1" points="26.7,79.6 84.8,45.9 58.1,30.4 0,64 			"/>
			<polygon id="XMLID_18304_" class="st0" points="26.7,79.6 26.7,81 84.8,47.3 84.8,45.9 			"/>
		</g>
		<g id="XMLID_18297_">
			<polygon id="XMLID_18302_" class="st0" points="26.7,78.8 84.8,45.1 84.8,43.7 0,61.9 0,63.3 			"/>
			<polygon id="XMLID_18299_" class="st1" points="26.7,77.4 84.8,43.7 58.1,28.2 0,61.9 			"/>
			<polygon id="XMLID_18298_" class="st0" points="26.7,77.4 26.7,78.8 84.8,45.1 84.8,43.7 			"/>
		</g>
	</g>
	<g id="XMLID_18248_">
		<polygon id="XMLID_18295_" class="st0" points="26.7,76.6 84.8,42.9 84.8,41.5 0,59.7 0,61.1 		"/>
		<polygon id="XMLID_18294_" class="st2" points="26.7,75.2 84.8,41.5 58.1,26 0,59.7 		"/>
		<path id="XMLID_18291_" class="st1" d="M4.5,60.2l2.2,1.3c0,0,0,0,0,0L23.1,71l3,1.7c0,0,0,0,0,0c0.4,0,0.9,0,1.3-0.1c0,0,0,0,0,0
			l1.6-0.9c0,0,0,0,0,0L78.5,43l0,0l1.6-0.9h0c0.2-0.3,0.3-0.7,0.2-1l-2.6-1.5h0l-16.6-9.7l-2.2-1.3c-0.5-0.1-1.1-0.1-1.6,0
			l-2.2,1.3L6.6,58l-2,1.2C4.4,59.5,4.4,59.8,4.5,60.2z"/>
		<polygon id="XMLID_18288_" class="st1" points="26.7,71.6 78.6,41.5 58.1,29.6 6.2,59.7 		"/>
		<path id="XMLID_18287_" class="st1" d="M74.3,44L74,43.4c-0.8-1.3-0.8-2.6-0.1-3.9l0.3-0.5l-12.1-7l-0.2,0
			c-1.2,0.2-2.4,0.3-3.6,0.3c-1.3,0-2.7-0.1-3.9-0.4l-0.2,0L10.5,57.2l0.3,0.5c0.8,1.3,0.8,2.6,0.1,3.9l-0.3,0.5l12.1,7l0.2,0
			c1.2-0.2,2.4-0.3,3.6-0.3c1.3,0,2.7,0.1,3.9,0.4l0.2,0L74.3,44z"/>
		<path id="XMLID_18286_" class="st2" d="M11.3,57.4l42.9-24.9c2.5,0.5,5.3,0.5,7.8,0.1l11.3,6.6c-0.8,1.5-0.8,3.1,0.1,4.6
			L30.5,68.6c-2.5-0.5-5.3-0.5-7.8-0.1L11.4,62C12.3,60.5,12.2,58.9,11.3,57.4z"/>
		<path id="XMLID_18283_" class="st1" d="M55.3,38.4c2.1-1.2,5.6-1.2,7.8,0c2.2,1.3,2.2,3.3,0.1,4.5c-2.1,1.2-5.6,1.2-7.8,0
			C53.1,41.7,53.1,39.7,55.3,38.4z"/>
		<path id="XMLID_18279_" class="st2" d="M56.8,39.2c1.3-0.7,3.4-0.7,4.7,0c1.3,0.8,1.3,2,0,2.7c-1.3,0.7-3.4,0.7-4.7,0
			C55.6,41.1,55.5,39.9,56.8,39.2z"/>
		<g id="XMLID_18272_">
			<g>
				<path id="XMLID_90_" class="st1" d="M31.4,64.7l-1.7-1.1c-1.8,0.7-3.9,0.3-5.4-0.6c-1.5-1-1.8-1.9-0.9-3.3
					c0.6-1,0.7-1.5,0.2-1.8c-0.5-0.3-1.2-0.4-2,0c-0.9,0.5-1.2,1.1-1.3,1.5l-2.2-1c0.2-0.4,0.5-0.9,1.4-1.5l-1.4-0.9l1.3-0.7l1.6,1
					c1.8-0.6,3.7-0.3,5.1,0.6c1.6,1,1.5,2.1,0.6,3.3c-0.6,0.8-0.6,1.3,0,1.7c0.7,0.4,1.5,0.4,2.3-0.1c0.9-0.5,1.3-1.2,1.5-1.7l2.3,1
					c-0.1,0.5-0.7,1.2-1.5,1.8l1.6,1L31.4,64.7z"/>
			</g>
		</g>
		<path id="XMLID_18269_" class="st1" d="M34.1,45.2c4.7-2.7,12.3-2.7,17,0.1c4.7,2.8,4.8,7.2,0.1,9.9s-12.3,2.7-17-0.1
			C29.5,52.3,29.4,47.9,34.1,45.2z"/>
		<polygon id="XMLID_18266_" class="st1" points="41.7,60.9 38.2,58.8 57.7,47.5 61.2,49.6 		"/>
		<path id="XMLID_18265_" class="st1" d="M56,31.6c1.2,0.7,3.2,0.7,4.4,0c0.8-0.5,1.1-1.1,0.8-1.7c-0.1-0.3-0.4-0.6-0.8-0.8
			c-0.4-0.2-0.9-0.4-1.4-0.5c-0.5-0.1-1.1-0.1-1.6,0c-0.5,0.1-1,0.2-1.4,0.5c-0.4,0.2-0.7,0.5-0.8,0.8C54.9,30.4,55.2,31.1,56,31.6z
			"/>
		<path id="XMLID_18264_" class="st1" d="M75.1,42.6c0.9,0.5,2.3,0.7,3.4,0.4l0,0c0.3-0.1,0.7-0.2,0.9-0.4c0.3-0.2,0.5-0.3,0.6-0.6
			h0c0.2-0.3,0.3-0.7,0.2-1c-0.1-0.4-0.4-0.7-0.9-1c-0.5-0.3-1.1-0.5-1.7-0.5h0c-0.9-0.1-1.9,0.1-2.7,0.5
			C73.9,40.7,73.9,41.9,75.1,42.6z"/>
		<path id="XMLID_18263_" class="st1" d="M4.5,60.2C4.7,60.5,5,60.7,5.4,61c0.4,0.2,0.9,0.4,1.4,0.5c0,0,0,0,0,0c1,0.2,2.2,0,3-0.4
			c1.2-0.7,1.2-1.8,0-2.5C8.8,58,7.6,57.8,6.6,58c-0.5,0.1-0.9,0.2-1.2,0.4c-0.4,0.2-0.6,0.5-0.8,0.7C4.4,59.5,4.4,59.8,4.5,60.2z"
			/>
		<path id="XMLID_18262_" class="st1" d="M23.1,71c0,0.4,0.3,0.9,0.9,1.2c0.6,0.3,1.3,0.5,2.1,0.5c0,0,0,0,0,0c0.4,0,0.9,0,1.3-0.1
			c0,0,0,0,0,0c0.3-0.1,0.7-0.2,0.9-0.4c0.3-0.2,0.5-0.3,0.6-0.6c0,0,0,0,0,0c0.5-0.7,0.2-1.4-0.7-2c-1.2-0.7-3.1-0.7-4.3,0
			C23.4,70,23.1,70.5,23.1,71z"/>
		<polygon id="XMLID_18261_" class="st0" points="26.7,75.2 26.7,76.6 84.8,42.9 84.8,41.5 		"/>
		<g id="XMLID_18258_">
			<path id="XMLID_18259_" class="st2" d="M9.2,60.3l-0.6,0.4L5.6,59l0.6-0.3l1.1-0.2l0.4,0.4L6.9,59l0,0L9.2,60.3z"/>
		</g>
		<g id="XMLID_18255_">
			<path id="XMLID_18256_" class="st2" d="M28,71.6l-0.6,0.4l-2.9-1.7l0.6-0.3l1.1-0.2l0.4,0.4l-0.8,0.2l0,0L28,71.6z"/>
		</g>
		<g id="XMLID_18252_">
			<path id="XMLID_18253_" class="st2" d="M79,41.7l-0.6,0.4l-2.9-1.7l0.6-0.3l1.1-0.2l0.4,0.4l-0.8,0.2l0,0L79,41.7z"/>
		</g>
		<g id="XMLID_18249_">
			<path id="XMLID_18250_" class="st2" d="M59.9,30.8l-0.6,0.4l-2.9-1.7l0.6-0.3l1.1-0.2l0.4,0.4l-0.8,0.2l0,0L59.9,30.8z"/>
		</g>
	</g>
	<polygon id="XMLID_18245_" class="st3" points="54.3,59.4 62.4,54.7 34.4,38.5 26.3,43.2 	"/>
	<polygon id="XMLID_18242_" class="st4" points="62.4,77 54.3,81.8 54.3,59.4 62.4,54.7 	"/>
	<polygon id="XMLID_18239_" class="st5" points="54.3,59.4 53.1,59.9 26.3,44.4 26.3,43.2 	"/>
	<polygon id="XMLID_18236_" class="st5" points="53.1,59.9 54.3,59.4 54.3,81.8 53.1,81.1 	"/>
	<g>
		<g id="XMLID_62_">
			<g id="XMLID_743_">
				<path id="XMLID_758_" class="st6" d="M41,89.5c0.3,0.9,0.9,1.7,1.8,2.5c0.5,0.4,1,0.8,1.6,1.2c0.6,0.4,1.3,0.7,2,0.9
					c1.3,0.5,2.8,0.8,4.3,1c1.7,0.2,3.4,0.2,5.1,0c1.5-0.2,2.9-0.5,4.3-1c0.7-0.3,1.4-0.6,2-1c0.6-0.4,1.2-0.8,1.6-1.2
					c0.9-0.8,1.5-1.6,1.8-2.5c0.4-1.1,0.4-2.2-0.1-3.3v0c-0.5-1.2-1.6-2.4-3.2-3.3c-4.9-2.8-12.8-2.8-17.7,0c-2,1.2-3.2,2.7-3.6,4.2
					C40.6,87.8,40.7,88.6,41,89.5z"/>
				<path id="XMLID_757_" class="st7" d="M50.6,93.5l0,1.5c1.7,0.2,3.4,0.2,5.1,0v-1.5L50.6,93.5z"/>
				<path id="XMLID_756_" class="st8" d="M42.7,90.4l0,1.5c0.5,0.4,1,0.8,1.6,1.2c0.6,0.4,1.3,0.7,2,0.9v-1.5L42.7,90.4z"/>
				<path id="XMLID_755_" class="st8" d="M41,89.5v-1.5L40.8,87C40.6,87.8,40.7,88.6,41,89.5z"/>
				<path id="XMLID_754_" class="st9" d="M60,92.5V94c0.7-0.3,1.4-0.6,2-1c0.6-0.4,1.2-0.8,1.6-1.2l0-1.5L60,92.5z"/>
				<path id="XMLID_753_" class="st10" d="M65.3,86.1l0.1,1.8v1.5C65.8,88.3,65.8,87.2,65.3,86.1z"/>
				<g id="XMLID_745_">
					<path id="XMLID_752_" class="st11" d="M44.3,91.6c4.9,2.8,12.8,2.8,17.7,0s4.9-7.4,0.1-10.3c-4.9-2.8-12.8-2.8-17.7,0
						C39.5,84.2,39.5,88.7,44.3,91.6z"/>
					<path id="XMLID_751_" class="st12" d="M44.8,91.3c4.6,2.7,12.1,2.7,16.7,0c4.6-2.7,4.7-7,0.1-9.7c-4.6-2.7-12.1-2.7-16.7,0
						C40.2,84.3,40.2,88.6,44.8,91.3z"/>
					<path id="XMLID_750_" class="st13" d="M41,87.9c-0.3-1-0.3-2,0-3l6,0l-4.2-2.5c0.5-0.4,1-0.8,1.6-1.2c0.6-0.4,1.3-0.7,2-1
						l4.2,2.5l0-3.5c1.7-0.2,3.5-0.2,5.1,0l0,3.5l4.3-2.5c0.7,0.3,1.4,0.6,2,0.9c0.6,0.4,1.2,0.8,1.6,1.2l-4.3,2.5l6,0
						c0.4,1,0.3,2,0,3l-6,0l4.2,2.5c-0.5,0.4-1,0.8-1.6,1.2c-0.6,0.4-1.3,0.7-2,1L55.8,90l0,3.5c-1.7,0.2-3.5,0.2-5.1,0l0-3.5
						l-4.3,2.5c-0.7-0.3-1.4-0.6-2-0.9c-0.6-0.4-1.2-0.8-1.6-1.2l4.3-2.5L41,87.9z"/>
					<path id="XMLID_749_" class="st11" d="M47.5,89.7c3.1,1.8,8.3,1.8,11.4,0c3.2-1.8,3.2-4.8,0-6.6c-3.1-1.8-8.3-1.8-11.4,0
						C44.4,85,44.3,87.9,47.5,89.7z"/>
					<path id="XMLID_748_" class="st6" d="M58.9,83.7c-3.1-1.8-8.3-1.8-11.4,0c-1.5,0.8-2.2,1.9-2.4,3c-0.1-1.3,0.6-2.6,2.4-3.6
						c3.2-1.8,8.3-1.8,11.4,0c1.7,1,2.5,2.3,2.3,3.6C61.1,85.6,60.4,84.5,58.9,83.7z"/>
					<path id="XMLID_747_" class="st8" d="M48.4,84c2.7-1.6,7-1.6,9.7,0c2.7,1.6,2.7,4.1,0,5.6c-2.7,1.6-7,1.6-9.7,0
						C45.7,88.1,45.7,85.6,48.4,84z"/>
					<path id="XMLID_746_" class="st13" d="M48.4,83.4c2.7-1.6,7-1.6,9.7,0c2.7,1.5,2.7,4.1,0,5.6c-2.7,1.6-7,1.6-9.7,0
						C45.7,87.5,45.7,85,48.4,83.4z"/>
				</g>
				<path id="XMLID_744_" class="st12" d="M49,88.6c2.3,1.3,5.9,1.3,8.2,0c2.3-1.3,2.3-3.4,0-4.8c-2.3-1.3-5.9-1.3-8.2,0
					C46.8,85.2,46.8,87.3,49,88.6z"/>
			</g>
			<g id="XMLID_727_">
				<path id="XMLID_742_" class="st6" d="M41,87.6c0.3,0.9,0.9,1.7,1.8,2.5c0.5,0.4,1,0.8,1.6,1.2c0.6,0.4,1.3,0.7,2,0.9
					c1.3,0.5,2.8,0.8,4.3,1c1.7,0.2,3.4,0.2,5.1,0c1.5-0.2,2.9-0.5,4.3-1c0.7-0.3,1.4-0.6,2-1c0.6-0.4,1.2-0.8,1.6-1.2
					c0.9-0.8,1.5-1.6,1.8-2.5c0.4-1.1,0.4-2.2-0.1-3.3v0c-0.5-1.2-1.6-2.4-3.2-3.3c-4.9-2.8-12.8-2.8-17.7,0c-2,1.2-3.2,2.7-3.6,4.2
					C40.6,85.9,40.7,86.8,41,87.6z"/>
				<path id="XMLID_741_" class="st7" d="M50.6,91.6l0,1.5c1.7,0.2,3.4,0.2,5.1,0v-1.5L50.6,91.6z"/>
				<path id="XMLID_740_" class="st8" d="M42.7,88.5l0,1.5c0.5,0.4,1,0.8,1.6,1.2c0.6,0.4,1.3,0.7,2,0.9v-1.5L42.7,88.5z"/>
				<path id="XMLID_739_" class="st8" d="M41,87.6V86l-0.1-0.9C40.6,85.9,40.7,86.8,41,87.6z"/>
				<path id="XMLID_738_" class="st9" d="M60,90.6v1.5c0.7-0.3,1.4-0.6,2-1c0.6-0.4,1.2-0.8,1.6-1.2l0-1.5L60,90.6z"/>
				<path id="XMLID_737_" class="st10" d="M65.3,84.2l0.1,1.8v1.5C65.8,86.4,65.8,85.3,65.3,84.2z"/>
				<g id="XMLID_729_">
					<path id="XMLID_736_" class="st11" d="M44.3,89.7c4.9,2.8,12.8,2.8,17.7,0s4.9-7.4,0.1-10.3c-4.9-2.8-12.8-2.8-17.7,0
						C39.5,82.3,39.5,86.9,44.3,89.7z"/>
					<path id="XMLID_735_" class="st12" d="M44.8,89.4c4.6,2.7,12.1,2.7,16.7,0c4.6-2.7,4.7-7,0.1-9.7C57,77,49.5,77,44.9,79.7
						C40.2,82.4,40.2,86.7,44.8,89.4z"/>
					<path id="XMLID_734_" class="st13" d="M41,86c-0.3-1-0.3-2,0-3l6,0l-4.2-2.5c0.5-0.4,1-0.8,1.6-1.2c0.6-0.4,1.3-0.7,2-1
						l4.2,2.5l0-3.5c1.7-0.2,3.5-0.2,5.1,0l0,3.5l4.3-2.5c0.7,0.3,1.4,0.6,2,0.9c0.6,0.4,1.2,0.7,1.6,1.2L59.4,83l6,0
						c0.4,1,0.3,2,0,3l-6,0l4.2,2.5c-0.5,0.4-1,0.8-1.6,1.2c-0.6,0.4-1.3,0.7-2,1l-4.2-2.5l0,3.5c-1.7,0.2-3.5,0.2-5.1,0l0-3.5
						l-4.3,2.5c-0.7-0.3-1.4-0.6-2-0.9c-0.6-0.4-1.2-0.8-1.6-1.2L47,86L41,86z"/>
					<path id="XMLID_733_" class="st11" d="M47.5,87.9c3.1,1.8,8.3,1.8,11.4,0c3.2-1.8,3.2-4.8,0-6.6c-3.1-1.8-8.3-1.8-11.4,0
						C44.4,83.1,44.3,86,47.5,87.9z"/>
					<path id="XMLID_732_" class="st6" d="M58.9,81.8c-3.1-1.8-8.3-1.8-11.4,0c-1.5,0.8-2.2,1.9-2.4,3c-0.1-1.3,0.6-2.6,2.4-3.6
						c3.2-1.8,8.3-1.8,11.4,0c1.7,1,2.5,2.3,2.3,3.6C61.1,83.7,60.4,82.6,58.9,81.8z"/>
					<path id="XMLID_731_" class="st8" d="M48.4,82.1c2.7-1.6,7-1.6,9.7,0c2.7,1.6,2.7,4.1,0,5.6c-2.7,1.6-7,1.6-9.7,0
						C45.7,86.2,45.7,83.7,48.4,82.1z"/>
					<path id="XMLID_730_" class="st13" d="M48.4,81.5c2.7-1.6,7-1.6,9.7,0c2.7,1.5,2.7,4.1,0,5.6c-2.7,1.6-7,1.6-9.7,0
						C45.7,85.6,45.7,83.1,48.4,81.5z"/>
				</g>
				<path id="XMLID_728_" class="st12" d="M49,86.7c2.3,1.3,5.9,1.3,8.2,0c2.3-1.3,2.3-3.4,0-4.8c-2.3-1.3-5.9-1.3-8.2,0
					C46.8,83.3,46.8,85.4,49,86.7z"/>
			</g>
			<g id="XMLID_711_">
				<path id="XMLID_726_" class="st6" d="M41,85.7c0.3,0.9,0.9,1.7,1.8,2.5c0.5,0.4,1,0.8,1.6,1.2c0.6,0.4,1.3,0.7,2,0.9
					c1.3,0.5,2.8,0.8,4.3,1c1.7,0.2,3.4,0.2,5.1,0c1.5-0.2,2.9-0.5,4.3-1c0.7-0.3,1.4-0.6,2-1c0.6-0.4,1.2-0.8,1.6-1.2
					c0.9-0.8,1.5-1.6,1.8-2.5c0.4-1.1,0.4-2.2-0.1-3.3v0c-0.5-1.2-1.6-2.4-3.2-3.3c-4.9-2.8-12.8-2.8-17.7,0c-2,1.2-3.2,2.7-3.6,4.2
					C40.6,84,40.7,84.9,41,85.7z"/>
				<path id="XMLID_725_" class="st7" d="M50.6,89.7l0,1.5c1.7,0.2,3.4,0.2,5.1,0v-1.5L50.6,89.7z"/>
				<path id="XMLID_724_" class="st8" d="M42.7,86.6l0,1.5c0.5,0.4,1,0.8,1.6,1.2c0.6,0.4,1.3,0.7,2,0.9v-1.5L42.7,86.6z"/>
				<path id="XMLID_723_" class="st8" d="M41,85.7v-1.5l-0.1-0.9C40.6,84,40.7,84.9,41,85.7z"/>
				<path id="XMLID_722_" class="st9" d="M60,88.7v1.5c0.7-0.3,1.4-0.6,2-1c0.6-0.4,1.2-0.8,1.6-1.2l0-1.5L60,88.7z"/>
				<path id="XMLID_721_" class="st10" d="M65.3,82.3l0.1,1.8v1.5C65.8,84.5,65.8,83.4,65.3,82.3z"/>
				<g id="XMLID_713_">
					<path id="XMLID_720_" class="st11" d="M44.3,87.8c4.9,2.8,12.8,2.8,17.7,0s4.9-7.4,0.1-10.3c-4.9-2.8-12.8-2.8-17.7,0
						C39.5,80.4,39.5,85,44.3,87.8z"/>
					<path id="XMLID_719_" class="st12" d="M44.8,87.5c4.6,2.7,12.1,2.7,16.7,0c4.6-2.7,4.7-7,0.1-9.7c-4.6-2.7-12.1-2.7-16.7,0
						C40.2,80.5,40.2,84.8,44.8,87.5z"/>
					<path id="XMLID_718_" class="st13" d="M41,84.2c-0.3-1-0.3-2,0-3l6,0l-4.2-2.5c0.5-0.4,1-0.8,1.6-1.2c0.6-0.4,1.3-0.7,2-1
						l4.2,2.5l0-3.5c1.7-0.2,3.5-0.2,5.1,0l0,3.5l4.3-2.5c0.7,0.3,1.4,0.6,2,0.9c0.6,0.4,1.2,0.7,1.6,1.2l-4.3,2.5l6,0
						c0.4,1,0.3,2,0,3l-6,0l4.2,2.5c-0.5,0.4-1,0.8-1.6,1.2c-0.6,0.4-1.3,0.7-2,1l-4.2-2.5l0,3.5c-1.7,0.2-3.5,0.2-5.1,0l0-3.5
						l-4.3,2.5c-0.7-0.3-1.4-0.6-2-0.9c-0.6-0.4-1.2-0.8-1.6-1.2l4.3-2.5L41,84.2z"/>
					<path id="XMLID_717_" class="st11" d="M47.5,86c3.1,1.8,8.3,1.8,11.4,0c3.2-1.8,3.2-4.8,0-6.6c-3.1-1.8-8.3-1.8-11.4,0
						C44.4,81.2,44.3,84.1,47.5,86z"/>
					<path id="XMLID_716_" class="st6" d="M58.9,79.9c-3.1-1.8-8.3-1.8-11.4,0c-1.5,0.8-2.2,1.9-2.4,3c-0.1-1.3,0.6-2.6,2.4-3.6
						c3.2-1.8,8.3-1.8,11.4,0c1.7,1,2.5,2.3,2.3,3.6C61.1,81.8,60.4,80.7,58.9,79.9z"/>
					<path id="XMLID_715_" class="st8" d="M48.4,80.2c2.7-1.6,7-1.6,9.7,0c2.7,1.6,2.7,4.1,0,5.6c-2.7,1.6-7,1.6-9.7,0
						C45.7,84.3,45.7,81.8,48.4,80.2z"/>
					<path id="XMLID_714_" class="st13" d="M48.4,79.6c2.7-1.6,7-1.6,9.7,0c2.7,1.5,2.7,4.1,0,5.6c-2.7,1.6-7,1.6-9.7,0
						C45.7,83.7,45.7,81.2,48.4,79.6z"/>
				</g>
				<path id="XMLID_712_" class="st12" d="M49,84.8c2.3,1.3,5.9,1.3,8.2,0c2.3-1.3,2.3-3.4,0-4.8c-2.3-1.3-5.9-1.3-8.2,0
					C46.8,81.4,46.8,83.5,49,84.8z"/>
			</g>
			<g id="XMLID_695_">
				<path id="XMLID_710_" class="st6" d="M41,83.8c0.3,0.9,0.9,1.7,1.8,2.5c0.5,0.4,1,0.8,1.6,1.2c0.6,0.4,1.3,0.7,2,0.9
					c1.3,0.5,2.8,0.8,4.3,1c1.7,0.2,3.4,0.2,5.1,0c1.5-0.2,2.9-0.5,4.3-1c0.7-0.3,1.4-0.6,2-1c0.6-0.4,1.2-0.8,1.6-1.2
					c0.9-0.8,1.5-1.6,1.8-2.5c0.4-1.1,0.4-2.2-0.1-3.3v0c-0.5-1.2-1.6-2.4-3.2-3.3c-4.9-2.8-12.8-2.8-17.7,0c-2,1.2-3.2,2.7-3.6,4.2
					C40.6,82.1,40.7,83,41,83.8z"/>
				<path id="XMLID_709_" class="st7" d="M50.6,87.8l0,1.5c1.7,0.2,3.4,0.2,5.1,0v-1.5L50.6,87.8z"/>
				<path id="XMLID_708_" class="st8" d="M42.7,84.7l0,1.5c0.5,0.4,1,0.8,1.6,1.2c0.6,0.4,1.3,0.7,2,0.9v-1.5L42.7,84.7z"/>
				<path id="XMLID_707_" class="st8" d="M41,83.8v-1.5l-0.1-0.9C40.6,82.1,40.7,83,41,83.8z"/>
				<path id="XMLID_706_" class="st9" d="M60,86.8v1.5c0.7-0.3,1.4-0.6,2-1c0.6-0.4,1.2-0.8,1.6-1.2l0-1.5L60,86.8z"/>
				<path id="XMLID_705_" class="st10" d="M65.3,80.4l0.1,1.8v1.5C65.8,82.6,65.8,81.5,65.3,80.4z"/>
				<g id="XMLID_697_">
					<path id="XMLID_704_" class="st11" d="M44.3,85.9c4.9,2.8,12.8,2.8,17.7,0s4.9-7.4,0.1-10.3c-4.9-2.8-12.8-2.8-17.7,0
						C39.5,78.5,39.5,83.1,44.3,85.9z"/>
					<path id="XMLID_703_" class="st12" d="M44.8,85.6c4.6,2.7,12.1,2.7,16.7,0c4.6-2.7,4.7-7,0.1-9.7c-4.6-2.7-12.1-2.7-16.7,0
						C40.2,78.6,40.2,82.9,44.8,85.6z"/>
					<path id="XMLID_702_" class="st13" d="M41,82.3c-0.3-1-0.3-2,0-3l6,0l-4.2-2.5c0.5-0.4,1-0.8,1.6-1.2c0.6-0.4,1.3-0.7,2-1
						l4.2,2.5l0-3.5c1.7-0.2,3.5-0.2,5.1,0l0,3.5l4.3-2.5c0.7,0.3,1.4,0.6,2,0.9c0.6,0.4,1.2,0.7,1.6,1.2l-4.3,2.5l6,0
						c0.4,1,0.3,2,0,3l-6,0l4.2,2.5c-0.5,0.4-1,0.8-1.6,1.2c-0.6,0.4-1.3,0.7-2,1l-4.2-2.5l0,3.5c-1.7,0.2-3.5,0.2-5.1,0l0-3.5
						l-4.3,2.5c-0.7-0.3-1.4-0.6-2-0.9c-0.6-0.4-1.2-0.8-1.6-1.2l4.3-2.5L41,82.3z"/>
					<path id="XMLID_701_" class="st11" d="M47.5,84.1c3.1,1.8,8.3,1.8,11.4,0c3.2-1.8,3.2-4.8,0-6.6c-3.1-1.8-8.3-1.8-11.4,0
						C44.4,79.3,44.3,82.2,47.5,84.1z"/>
					<path id="XMLID_700_" class="st6" d="M58.9,78c-3.1-1.8-8.3-1.8-11.4,0c-1.5,0.8-2.2,1.9-2.4,3c-0.1-1.3,0.6-2.6,2.4-3.6
						c3.2-1.8,8.3-1.8,11.4,0c1.7,1,2.5,2.3,2.3,3.6C61.1,79.9,60.4,78.8,58.9,78z"/>
					<path id="XMLID_699_" class="st8" d="M48.4,78.3c2.7-1.6,7-1.6,9.7,0c2.7,1.5,2.7,4.1,0,5.6c-2.7,1.6-7,1.6-9.7,0
						C45.7,82.4,45.7,79.9,48.4,78.3z"/>
					<path id="XMLID_698_" class="st13" d="M48.4,77.7c2.7-1.6,7-1.6,9.7,0c2.7,1.5,2.7,4.1,0,5.6c-2.7,1.6-7,1.6-9.7,0
						C45.7,81.8,45.7,79.3,48.4,77.7z"/>
				</g>
				<path id="XMLID_696_" class="st12" d="M49,82.9c2.3,1.3,5.9,1.3,8.2,0c2.3-1.3,2.3-3.5,0-4.8c-2.3-1.3-5.9-1.3-8.2,0
					C46.8,79.5,46.8,81.6,49,82.9z"/>
			</g>
			<g id="XMLID_678_">
				<path id="XMLID_693_" class="st6" d="M41,81.9c0.3,0.9,0.9,1.7,1.8,2.5c0.5,0.4,1,0.8,1.6,1.2c0.6,0.4,1.3,0.7,2,0.9
					c1.3,0.5,2.8,0.8,4.3,1c1.7,0.2,3.4,0.2,5.1,0c1.5-0.2,2.9-0.5,4.3-1c0.7-0.3,1.4-0.6,2-1c0.6-0.4,1.2-0.8,1.6-1.2
					c0.9-0.8,1.5-1.6,1.8-2.5c0.4-1.1,0.4-2.2-0.1-3.3v0c-0.5-1.2-1.6-2.4-3.2-3.3c-4.9-2.8-12.8-2.8-17.7,0c-2,1.2-3.2,2.7-3.6,4.2
					C40.6,80.2,40.7,81.1,41,81.9z"/>
				<path id="XMLID_692_" class="st7" d="M50.6,85.9l0,1.5c1.7,0.2,3.4,0.2,5.1,0v-1.5L50.6,85.9z"/>
				<path id="XMLID_691_" class="st8" d="M42.7,82.8l0,1.5c0.5,0.4,1,0.8,1.6,1.2c0.6,0.4,1.3,0.7,2,0.9v-1.5L42.7,82.8z"/>
				<path id="XMLID_690_" class="st8" d="M41,81.9v-1.5l-0.1-0.9C40.6,80.2,40.7,81.1,41,81.9z"/>
				<path id="XMLID_689_" class="st9" d="M60,84.9v1.5c0.7-0.3,1.4-0.6,2-1c0.6-0.4,1.2-0.8,1.6-1.2l0-1.5L60,84.9z"/>
				<path id="XMLID_688_" class="st10" d="M65.3,78.5l0.1,1.8v1.5C65.8,80.7,65.8,79.6,65.3,78.5z"/>
				<g id="XMLID_680_">
					<path id="XMLID_687_" class="st11" d="M44.3,84c4.9,2.8,12.8,2.8,17.7,0s4.9-7.4,0.1-10.3c-4.9-2.8-12.8-2.8-17.7,0
						C39.5,76.6,39.5,81.2,44.3,84z"/>
					<path id="XMLID_686_" class="st12" d="M44.8,83.7c4.6,2.7,12.1,2.7,16.7,0c4.6-2.7,4.7-7,0.1-9.7c-4.6-2.7-12.1-2.7-16.7,0
						C40.2,76.7,40.2,81,44.8,83.7z"/>
					<path id="XMLID_685_" class="st13" d="M41,80.4c-0.3-1-0.3-2,0-3l6,0l-4.2-2.5c0.5-0.4,1-0.8,1.6-1.2c0.6-0.4,1.3-0.7,2-1
						l4.2,2.5l0-3.5c1.7-0.2,3.5-0.2,5.1,0l0,3.5l4.3-2.5c0.7,0.3,1.4,0.6,2,0.9c0.6,0.4,1.2,0.7,1.6,1.2l-4.3,2.5l6,0
						c0.4,1,0.3,2,0,3l-6,0l4.2,2.5c-0.5,0.4-1,0.8-1.6,1.2c-0.6,0.4-1.3,0.7-2,1l-4.2-2.5l0,3.5c-1.7,0.2-3.5,0.2-5.1,0l0-3.5
						l-4.3,2.5c-0.7-0.3-1.4-0.6-2-0.9c-0.6-0.4-1.2-0.8-1.6-1.2l4.3-2.5L41,80.4z"/>
					<path id="XMLID_684_" class="st11" d="M47.5,82.2c3.1,1.8,8.3,1.8,11.4,0c3.2-1.8,3.2-4.8,0-6.6c-3.1-1.8-8.3-1.8-11.4,0
						C44.4,77.4,44.3,80.3,47.5,82.2z"/>
					<path id="XMLID_683_" class="st6" d="M58.9,76.1c-3.1-1.8-8.3-1.8-11.4,0c-1.5,0.8-2.2,1.9-2.4,3c-0.1-1.3,0.6-2.6,2.4-3.6
						c3.2-1.8,8.3-1.8,11.4,0c1.7,1,2.5,2.3,2.3,3.6C61.1,78,60.4,76.9,58.9,76.1z"/>
					<path id="XMLID_682_" class="st8" d="M48.4,76.4c2.7-1.6,7-1.6,9.7,0c2.7,1.5,2.7,4.1,0,5.6c-2.7,1.6-7,1.6-9.7,0
						C45.7,80.5,45.7,78,48.4,76.4z"/>
					<path id="XMLID_681_" class="st13" d="M48.4,75.8c2.7-1.6,7-1.6,9.7,0c2.7,1.5,2.7,4.1,0,5.6c-2.7,1.6-7,1.6-9.7,0
						C45.7,79.9,45.7,77.4,48.4,75.8z"/>
				</g>
				<path id="XMLID_679_" class="st12" d="M49,81c2.3,1.3,5.9,1.3,8.2,0c2.3-1.3,2.3-3.5,0-4.8c-2.3-1.3-5.9-1.3-8.2,0
					C46.8,77.6,46.8,79.7,49,81z"/>
			</g>
			<g id="XMLID_661_">
				<path id="XMLID_677_" class="st6" d="M41,80c0.3,0.9,0.9,1.7,1.8,2.5c0.5,0.4,1,0.8,1.6,1.2c0.6,0.4,1.3,0.7,2,0.9
					c1.3,0.5,2.8,0.8,4.3,1c1.7,0.2,3.4,0.2,5.1,0c1.5-0.2,2.9-0.5,4.3-1c0.7-0.3,1.4-0.6,2-1c0.6-0.4,1.2-0.8,1.6-1.2
					c0.9-0.8,1.5-1.6,1.8-2.5c0.4-1.1,0.4-2.2-0.1-3.3v0c-0.5-1.2-1.6-2.4-3.2-3.3c-4.9-2.8-12.8-2.8-17.7,0c-2,1.2-3.2,2.7-3.6,4.2
					C40.6,78.3,40.7,79.2,41,80z"/>
				<path id="XMLID_676_" class="st7" d="M50.6,84.1l0,1.5c1.7,0.2,3.4,0.2,5.1,0V84L50.6,84.1z"/>
				<path id="XMLID_675_" class="st8" d="M42.7,80.9l0,1.5c0.5,0.4,1,0.8,1.6,1.2c0.6,0.4,1.3,0.7,2,0.9V83L42.7,80.9z"/>
				<path id="XMLID_674_" class="st8" d="M41,80v-1.5l-0.1-0.9C40.6,78.3,40.7,79.2,41,80z"/>
				<path id="XMLID_673_" class="st9" d="M60,83v1.5c0.7-0.3,1.4-0.6,2-1c0.6-0.4,1.2-0.8,1.6-1.2l0-1.5L60,83z"/>
				<path id="XMLID_672_" class="st10" d="M65.3,76.6l0.1,1.8v1.5C65.8,78.8,65.8,77.7,65.3,76.6z"/>
				<g id="XMLID_663_">
					<path id="XMLID_671_" class="st11" d="M44.3,82.1c4.9,2.8,12.8,2.8,17.7,0s4.9-7.4,0.1-10.3c-4.9-2.8-12.8-2.8-17.7,0
						C39.5,74.7,39.5,79.3,44.3,82.1z"/>
					<path id="XMLID_670_" class="st12" d="M44.8,81.8c4.6,2.7,12.1,2.7,16.7,0c4.6-2.7,4.7-7,0.1-9.7c-4.6-2.7-12.1-2.7-16.7,0
						C40.2,74.8,40.2,79.1,44.8,81.8z"/>
					<path id="XMLID_669_" class="st13" d="M41,78.5c-0.3-1-0.3-2,0-3l6,0L42.8,73c0.5-0.4,1-0.8,1.6-1.2c0.6-0.4,1.3-0.7,2-0.9
						l4.2,2.5l0-3.5c1.7-0.2,3.5-0.2,5.1,0l0,3.5l4.3-2.5c0.7,0.3,1.4,0.6,2,0.9c0.6,0.4,1.2,0.7,1.6,1.2l-4.3,2.5l6,0
						c0.4,1,0.3,2,0,3l-6,0l4.2,2.5c-0.5,0.4-1,0.8-1.6,1.2c-0.6,0.4-1.3,0.7-2,1l-4.2-2.5l0,3.5c-1.7,0.2-3.5,0.2-5.1,0l0-3.5
						L46.3,83c-0.7-0.3-1.4-0.6-2-0.9c-0.6-0.4-1.2-0.8-1.6-1.2l4.3-2.5L41,78.5z"/>
					<path id="XMLID_668_" class="st11" d="M47.5,80.3c3.1,1.8,8.3,1.8,11.4,0c3.2-1.8,3.2-4.8,0-6.6c-3.1-1.8-8.3-1.8-11.4,0
						C44.4,75.5,44.3,78.5,47.5,80.3z"/>
					<path id="XMLID_666_" class="st6" d="M58.9,74.2c-3.1-1.8-8.3-1.8-11.4,0c-1.5,0.8-2.2,1.9-2.4,3c-0.1-1.3,0.6-2.6,2.4-3.6
						c3.2-1.8,8.3-1.8,11.4,0c1.7,1,2.5,2.3,2.3,3.6C61.1,76.1,60.4,75,58.9,74.2z"/>
					<path id="XMLID_665_" class="st8" d="M48.4,74.5c2.7-1.6,7-1.6,9.7,0c2.7,1.5,2.7,4.1,0,5.6c-2.7,1.6-7,1.6-9.7,0
						C45.7,78.6,45.7,76.1,48.4,74.5z"/>
					<path id="XMLID_664_" class="st13" d="M48.4,73.9c2.7-1.6,7-1.6,9.7,0c2.7,1.5,2.7,4.1,0,5.6c-2.7,1.6-7,1.6-9.7,0
						C45.7,78,45.7,75.5,48.4,73.9z"/>
				</g>
				<path id="XMLID_662_" class="st12" d="M49,79.1c2.3,1.3,5.9,1.3,8.2,0c2.3-1.3,2.3-3.5,0-4.8c-2.3-1.3-5.9-1.3-8.2,0
					C46.8,75.7,46.8,77.8,49,79.1z"/>
			</g>
			<g id="XMLID_644_">
				<path id="XMLID_660_" class="st6" d="M41,78.1c0.3,0.9,0.9,1.7,1.8,2.5c0.5,0.4,1,0.8,1.6,1.2c0.6,0.4,1.3,0.7,2,0.9
					c1.3,0.5,2.8,0.8,4.3,1c1.7,0.2,3.4,0.2,5.1,0c1.5-0.2,2.9-0.5,4.3-1c0.7-0.3,1.4-0.6,2-1c0.6-0.4,1.2-0.8,1.6-1.2
					c0.9-0.8,1.5-1.6,1.8-2.5c0.4-1.1,0.4-2.2-0.1-3.3v0c-0.5-1.2-1.6-2.4-3.2-3.3c-4.9-2.8-12.8-2.8-17.7,0c-2,1.2-3.2,2.7-3.6,4.2
					C40.6,76.5,40.7,77.3,41,78.1z"/>
				<path id="XMLID_659_" class="st7" d="M50.6,82.2l0,1.5c1.7,0.2,3.4,0.2,5.1,0v-1.5L50.6,82.2z"/>
				<path id="XMLID_658_" class="st8" d="M42.7,79l0,1.5c0.5,0.4,1,0.8,1.6,1.2c0.6,0.4,1.3,0.7,2,0.9v-1.5L42.7,79z"/>
				<path id="XMLID_657_" class="st8" d="M41,78.1v-1.5l-0.1-0.9C40.6,76.5,40.7,77.3,41,78.1z"/>
				<path id="XMLID_656_" class="st9" d="M60,81.1v1.5c0.7-0.3,1.4-0.6,2-1c0.6-0.4,1.2-0.8,1.6-1.2l0-1.5L60,81.1z"/>
				<path id="XMLID_655_" class="st10" d="M65.3,74.7l0.1,1.8V78C65.8,76.9,65.8,75.8,65.3,74.7z"/>
				<g id="XMLID_646_">
					<path id="XMLID_654_" class="st11" d="M44.3,80.2c4.9,2.8,12.8,2.8,17.7,0c4.9-2.8,4.9-7.4,0.1-10.3c-4.9-2.8-12.8-2.8-17.7,0
						C39.5,72.8,39.5,77.4,44.3,80.2z"/>
					<path id="XMLID_652_" class="st12" d="M44.8,79.9c4.6,2.7,12.1,2.7,16.7,0s4.7-7,0.1-9.7c-4.6-2.7-12.1-2.7-16.7,0
						C40.2,72.9,40.2,77.3,44.8,79.9z"/>
					<path id="XMLID_651_" class="st13" d="M41,76.6c-0.3-1-0.3-2,0-3l6,0l-4.2-2.5c0.5-0.4,1-0.8,1.6-1.2c0.6-0.4,1.3-0.7,2-0.9
						l4.2,2.5l0-3.5c1.7-0.2,3.5-0.2,5.1,0l0,3.5l4.3-2.5c0.7,0.3,1.4,0.6,2,0.9c0.6,0.4,1.2,0.8,1.6,1.2l-4.3,2.5l6,0
						c0.4,1,0.3,2,0,3l-6,0l4.2,2.5c-0.5,0.4-1,0.8-1.6,1.2c-0.6,0.4-1.3,0.7-2,1l-4.2-2.5l0,3.5c-1.7,0.2-3.5,0.2-5.1,0l0-3.5
						l-4.3,2.5c-0.7-0.3-1.4-0.6-2-0.9c-0.6-0.4-1.2-0.8-1.6-1.2l4.3-2.5L41,76.6z"/>
					<path id="XMLID_650_" class="st11" d="M47.5,78.4c3.1,1.8,8.3,1.8,11.4,0c3.2-1.8,3.2-4.8,0-6.6c-3.1-1.8-8.3-1.8-11.4,0
						C44.4,73.6,44.3,76.6,47.5,78.4z"/>
					<path id="XMLID_649_" class="st6" d="M58.9,72.3c-3.1-1.8-8.3-1.8-11.4,0c-1.5,0.8-2.2,1.9-2.4,3c-0.1-1.3,0.6-2.6,2.4-3.6
						c3.2-1.8,8.3-1.8,11.4,0c1.7,1,2.5,2.3,2.3,3.6C61.1,74.2,60.4,73.2,58.9,72.3z"/>
					<path id="XMLID_648_" class="st8" d="M48.4,72.6c2.7-1.6,7-1.6,9.7,0c2.7,1.5,2.7,4.1,0,5.6c-2.7,1.6-7,1.6-9.7,0
						C45.7,76.7,45.7,74.2,48.4,72.6z"/>
					<path id="XMLID_647_" class="st13" d="M48.4,72c2.7-1.6,7-1.6,9.7,0s2.7,4.1,0,5.6c-2.7,1.6-7,1.6-9.7,0
						C45.7,76.1,45.7,73.6,48.4,72z"/>
				</g>
				<path id="XMLID_645_" class="st12" d="M49,77.2c2.3,1.3,5.9,1.3,8.2,0c2.3-1.3,2.3-3.5,0-4.8c-2.3-1.3-5.9-1.3-8.2,0
					C46.8,73.8,46.8,75.9,49,77.2z"/>
			</g>
			<g id="XMLID_441_">
				<g id="XMLID_609_">
					<path id="XMLID_643_" class="st14" d="M65.3,91L65.3,91c0.3,0.9,0.9,1.7,1.7,2.4c0.5,0.4,1,0.8,1.6,1.2c0.6,0.4,1.3,0.7,2,0.9
						c1.3,0.5,2.8,0.8,4.3,1c1.7,0.2,3.4,0.2,5.1,0c1.5-0.2,2.9-0.5,4.3-1c0.7-0.3,1.4-0.6,2-0.9c0.6-0.4,1.2-0.8,1.6-1.2
						c0.9-0.8,1.5-1.6,1.8-2.5c0.9-2.3-0.3-4.8-3.4-6.6c-4.9-2.8-12.8-2.8-17.7,0C65.6,86.2,64.4,88.7,65.3,91z"/>
					<path id="XMLID_642_" class="st15" d="M80,95.1v1.5c1.5-0.2,2.9-0.5,4.3-1v-1.5l-0.6-0.2L80,95.1z"/>
					<path id="XMLID_631_" class="st16" d="M70.6,94.1v1.5c1.3,0.5,2.8,0.8,4.3,1v-1.5l-0.8-1H70.6z"/>
					<path id="XMLID_630_" class="st16" d="M65.3,89.5l0,1.5v0c0.3,0.9,0.9,1.7,1.7,2.4V92L65.3,89.5z"/>
					<path id="XMLID_629_" class="st17" d="M87.9,91.9v1.5c0.9-0.8,1.5-1.6,1.8-2.5v-1.5L87.9,91.9z"/>
					<g id="XMLID_610_">
						<path id="XMLID_628_" class="st18" d="M68.6,93.1c4.9,2.8,12.8,2.8,17.7,0c4.9-2.8,4.9-7.4,0.1-10.3c-4.9-2.8-12.8-2.8-17.7,0
							C63.8,85.7,63.8,90.3,68.6,93.1z"/>
						<path id="XMLID_627_" class="st19" d="M69.2,83.2c4.6-2.7,12.1-2.7,16.7,0c4.6,2.7,4.6,7-0.1,9.7c-4.6,2.7-12.1,2.7-16.7,0
							C64.5,90.2,64.6,85.9,69.2,83.2z"/>
						<g id="XMLID_618_">
							<path id="XMLID_626_" class="st20" d="M80.1,84.4l0-3.5c1.5,0.2,2.9,0.5,4.3,1L80.1,84.4z"/>
							<path id="XMLID_625_" class="st20" d="M70.7,81.9c1.3-0.5,2.8-0.8,4.3-1l0,3.5L70.7,81.9z"/>
							<path id="XMLID_624_" class="st20" d="M67.1,84.1l4.2,2.5l-6,0C65.6,85.7,66.2,84.8,67.1,84.1z"/>
							<path id="XMLID_623_" class="st20" d="M83.7,86.5L88,84c0.9,0.8,1.4,1.6,1.7,2.5L83.7,86.5z"/>
							<path id="XMLID_622_" class="st20" d="M71.3,89.5L67,92c-0.9-0.8-1.4-1.6-1.7-2.5L71.3,89.5z"/>
							<path id="XMLID_621_" class="st20" d="M74.9,91.6l0,3.5c-1.5-0.2-2.9-0.5-4.3-1L74.9,91.6z"/>
							<path id="XMLID_620_" class="st20" d="M80.1,91.6l4.2,2.5c-1.3,0.5-2.8,0.8-4.3,1L80.1,91.6z"/>
							<path id="XMLID_619_" class="st20" d="M83.7,89.5l6,0c-0.3,0.9-0.9,1.7-1.8,2.5L83.7,89.5z"/>
						</g>
						<path id="XMLID_617_" class="st20" d="M71.6,91.4c3.2,1.9,8.5,1.9,11.7,0c3.2-1.9,3.3-4.9,0-6.8c-3.2-1.9-8.5-1.9-11.7,0
							C68.4,86.5,68.4,89.5,71.6,91.4z"/>
						<path id="XMLID_616_" class="st14" d="M72.5,91.5c2.8,1.6,7.2,1.6,10,0c2.8-1.6,2.8-4.2,0-5.8c-2.8-1.6-7.2-1.6-10,0
							C69.7,87.3,69.7,89.9,72.5,91.5z"/>
						<path id="XMLID_615_" class="st16" d="M83.4,85.1c-3.2-1.9-8.5-1.9-11.7,0c-1.5,0.9-2.3,2-2.4,3.2c-0.1-1.3,0.7-2.6,2.4-3.6
							c3.2-1.9,8.5-1.9,11.7,0c1.7,1,2.5,2.3,2.4,3.6C85.7,87.1,84.9,85.9,83.4,85.1z"/>
						<path id="XMLID_614_" class="st19" d="M73.4,90.4c2.2,1.3,5.9,1.3,8.1,0c2.2-1.3,2.3-3.4,0-4.7c-2.2-1.3-5.9-1.3-8.1,0
							C71.2,87,71.2,89.1,73.4,90.4z"/>
						<path id="XMLID_613_" class="st19" d="M72.5,90.9c2.8,1.6,7.2,1.6,10,0c2.8-1.6,2.8-4.2,0-5.8c-2.8-1.6-7.2-1.6-10,0
							C69.7,86.7,69.7,89.3,72.5,90.9z"/>
						<path id="XMLID_612_" class="st20" d="M73.4,90.4c2.3,1.3,5.9,1.3,8.2,0c2.3-1.3,2.3-3.5,0-4.8c-2.3-1.3-5.9-1.3-8.2,0
							C71.1,86.9,71.1,89.1,73.4,90.4z"/>
						<path id="XMLID_611_" class="st16" d="M81.6,86.4c-2.3-1.6-5.9-1.6-8.2,0c-0.9,0.6-1.4,1.4-1.6,2.2c-0.3-1.1,0.2-2.2,1.6-3
							c2.3-1.3,5.9-1.3,8.2,0c1.4,0.8,1.9,1.9,1.6,3C83,87.8,82.5,87,81.6,86.4z"/>
					</g>
				</g>
				<g id="XMLID_584_">
					<path id="XMLID_608_" class="st14" d="M65.3,89.3L65.3,89.3c0.3,0.9,0.9,1.7,1.7,2.4c0.5,0.4,1,0.8,1.6,1.2
						c0.6,0.4,1.3,0.7,2,0.9c1.3,0.5,2.8,0.8,4.3,1c1.7,0.2,3.4,0.2,5.1,0c1.5-0.2,2.9-0.5,4.3-1c0.7-0.3,1.4-0.6,2-1
						c0.6-0.4,1.2-0.8,1.6-1.2c0.9-0.8,1.5-1.6,1.8-2.5c0.9-2.3-0.3-4.8-3.4-6.6c-4.9-2.8-12.8-2.8-17.7,0
						C65.6,84.5,64.4,87,65.3,89.3z"/>
					<path id="XMLID_607_" class="st15" d="M80,93.4v1.5c1.5-0.2,2.9-0.5,4.3-1v-1.5l-0.6-0.2L80,93.4z"/>
					<path id="XMLID_606_" class="st16" d="M70.6,92.4v1.5c1.3,0.5,2.8,0.8,4.3,1v-1.5l-0.8-1H70.6z"/>
					<path id="XMLID_605_" class="st16" d="M65.3,87.8l0,1.5v0c0.3,0.9,0.9,1.7,1.7,2.4v-1.5L65.3,87.8z"/>
					<path id="XMLID_604_" class="st17" d="M87.9,90.2v1.5c0.9-0.8,1.5-1.6,1.8-2.5v-1.5L87.9,90.2z"/>
					<g id="XMLID_585_">
						<path id="XMLID_603_" class="st18" d="M68.6,91.4c4.9,2.8,12.8,2.8,17.7,0c4.9-2.8,4.9-7.4,0.1-10.3c-4.9-2.8-12.8-2.8-17.7,0
							C63.8,84,63.8,88.6,68.6,91.4z"/>
						<path id="XMLID_602_" class="st19" d="M69.2,81.5c4.6-2.7,12.1-2.7,16.7,0c4.6,2.7,4.6,7-0.1,9.7c-4.6,2.7-12.1,2.7-16.7,0
							C64.5,88.5,64.6,84.2,69.2,81.5z"/>
						<g id="XMLID_593_">
							<path id="XMLID_601_" class="st20" d="M80.1,82.7l0-3.5c1.5,0.2,2.9,0.5,4.3,1L80.1,82.7z"/>
							<path id="XMLID_600_" class="st20" d="M70.7,80.2c1.3-0.5,2.8-0.8,4.3-1l0,3.5L70.7,80.2z"/>
							<path id="XMLID_599_" class="st20" d="M67.1,82.3l4.2,2.5l-6,0C65.6,84,66.2,83.1,67.1,82.3z"/>
							<path id="XMLID_598_" class="st20" d="M83.7,84.8l4.3-2.5c0.9,0.8,1.4,1.6,1.7,2.5L83.7,84.8z"/>
							<path id="XMLID_597_" class="st20" d="M71.3,87.8L67,90.3c-0.9-0.8-1.4-1.6-1.7-2.5L71.3,87.8z"/>
							<path id="XMLID_596_" class="st20" d="M74.9,89.9l0,3.5c-1.5-0.2-2.9-0.5-4.3-1L74.9,89.9z"/>
							<path id="XMLID_595_" class="st20" d="M80.1,89.9l4.2,2.5c-1.3,0.5-2.8,0.8-4.3,1L80.1,89.9z"/>
							<path id="XMLID_594_" class="st20" d="M83.7,87.8l6,0c-0.3,0.9-0.9,1.7-1.8,2.5L83.7,87.8z"/>
						</g>
						<path id="XMLID_592_" class="st20" d="M71.6,89.7c3.2,1.9,8.5,1.9,11.7,0c3.2-1.9,3.3-4.9,0-6.8c-3.2-1.9-8.5-1.9-11.7,0
							C68.4,84.8,68.4,87.8,71.6,89.7z"/>
						<path id="XMLID_591_" class="st14" d="M72.5,89.8c2.8,1.6,7.2,1.6,10,0c2.8-1.6,2.8-4.2,0-5.8c-2.8-1.6-7.2-1.6-10,0
							C69.7,85.6,69.7,88.2,72.5,89.8z"/>
						<path id="XMLID_590_" class="st16" d="M83.4,83.3c-3.2-1.9-8.5-1.9-11.7,0c-1.5,0.9-2.3,2-2.4,3.2c-0.1-1.3,0.7-2.6,2.4-3.6
							c3.2-1.9,8.5-1.9,11.7,0c1.7,1,2.5,2.3,2.4,3.6C85.7,85.3,84.9,84.2,83.4,83.3z"/>
						<path id="XMLID_589_" class="st19" d="M73.4,88.7c2.2,1.3,5.9,1.3,8.1,0c2.2-1.3,2.3-3.4,0-4.7c-2.2-1.3-5.9-1.3-8.1,0
							C71.2,85.3,71.2,87.4,73.4,88.7z"/>
						<path id="XMLID_588_" class="st19" d="M72.5,89.2c2.8,1.6,7.2,1.6,10,0c2.8-1.6,2.8-4.2,0-5.8c-2.8-1.6-7.2-1.6-10,0
							C69.7,85,69.7,87.6,72.5,89.2z"/>
						<path id="XMLID_587_" class="st20" d="M73.4,88.7c2.3,1.3,5.9,1.3,8.2,0c2.3-1.3,2.3-3.4,0-4.8c-2.3-1.3-5.9-1.3-8.2,0
							C71.1,85.2,71.1,87.4,73.4,88.7z"/>
						<path id="XMLID_586_" class="st16" d="M81.6,84.7c-2.3-1.6-5.9-1.6-8.2,0c-0.9,0.6-1.4,1.4-1.6,2.2c-0.3-1.1,0.2-2.2,1.6-3
							c2.3-1.3,5.9-1.3,8.2,0c1.4,0.8,1.9,1.9,1.6,3C83,86.1,82.5,85.3,81.6,84.7z"/>
					</g>
				</g>
				<g id="XMLID_559_">
					<path id="XMLID_583_" class="st14" d="M65.3,87.6L65.3,87.6c0.3,0.9,0.9,1.7,1.7,2.4c0.5,0.4,1,0.8,1.6,1.2
						c0.6,0.4,1.3,0.7,2,0.9c1.3,0.5,2.8,0.8,4.3,1c1.7,0.2,3.4,0.2,5.1,0c1.5-0.2,2.9-0.5,4.3-1c0.7-0.3,1.4-0.6,2-1
						c0.6-0.4,1.2-0.8,1.6-1.2c0.9-0.8,1.5-1.6,1.8-2.5c0.9-2.3-0.3-4.8-3.4-6.6c-4.9-2.8-12.8-2.8-17.7,0
						C65.6,82.8,64.4,85.3,65.3,87.6z"/>
					<path id="XMLID_582_" class="st15" d="M80,91.7v1.5c1.5-0.2,2.9-0.5,4.3-1v-1.5l-0.6-0.2L80,91.7z"/>
					<path id="XMLID_581_" class="st16" d="M70.6,90.7v1.5c1.3,0.5,2.8,0.8,4.3,1v-1.5l-0.8-1H70.6z"/>
					<path id="XMLID_580_" class="st16" d="M65.3,86.1l0,1.5v0c0.3,0.9,0.9,1.7,1.7,2.4v-1.5L65.3,86.1z"/>
					<path id="XMLID_579_" class="st17" d="M87.9,88.5V90c0.9-0.8,1.5-1.6,1.8-2.5v-1.5L87.9,88.5z"/>
					<g id="XMLID_560_">
						<path id="XMLID_578_" class="st18" d="M68.6,89.7c4.9,2.8,12.8,2.8,17.7,0s4.9-7.4,0.1-10.3c-4.9-2.8-12.8-2.8-17.7,0
							C63.8,82.3,63.8,86.9,68.6,89.7z"/>
						<path id="XMLID_577_" class="st19" d="M69.2,79.8c4.6-2.7,12.1-2.7,16.7,0c4.6,2.7,4.6,7-0.1,9.7c-4.6,2.7-12.1,2.7-16.7,0
							C64.5,86.8,64.6,82.4,69.2,79.8z"/>
						<g id="XMLID_568_">
							<path id="XMLID_576_" class="st20" d="M80.1,81l0-3.5c1.5,0.2,2.9,0.5,4.3,1L80.1,81z"/>
							<path id="XMLID_575_" class="st20" d="M70.7,78.5c1.3-0.5,2.8-0.8,4.3-1l0,3.5L70.7,78.5z"/>
							<path id="XMLID_574_" class="st20" d="M67.1,80.6l4.2,2.5l-6,0C65.6,82.2,66.2,81.4,67.1,80.6z"/>
							<path id="XMLID_573_" class="st20" d="M83.7,83.1l4.3-2.5c0.9,0.8,1.4,1.6,1.7,2.5L83.7,83.1z"/>
							<path id="XMLID_572_" class="st20" d="M71.3,86.1L67,88.6c-0.9-0.8-1.4-1.6-1.7-2.5L71.3,86.1z"/>
							<path id="XMLID_571_" class="st20" d="M74.9,88.2l0,3.5c-1.5-0.2-2.9-0.5-4.3-1L74.9,88.2z"/>
							<path id="XMLID_570_" class="st20" d="M80.1,88.2l4.2,2.5c-1.3,0.5-2.8,0.8-4.3,1L80.1,88.2z"/>
							<path id="XMLID_569_" class="st20" d="M83.7,86.1l6,0c-0.3,0.9-0.9,1.7-1.8,2.5L83.7,86.1z"/>
						</g>
						<path id="XMLID_567_" class="st20" d="M71.6,88c3.2,1.9,8.5,1.9,11.7,0c3.2-1.9,3.3-4.9,0-6.8c-3.2-1.9-8.5-1.9-11.7,0
							C68.4,83.1,68.4,86.1,71.6,88z"/>
						<path id="XMLID_566_" class="st14" d="M72.5,88.1c2.8,1.6,7.2,1.6,10,0c2.8-1.6,2.8-4.2,0-5.8c-2.8-1.6-7.2-1.6-10,0
							C69.7,83.9,69.7,86.5,72.5,88.1z"/>
						<path id="XMLID_565_" class="st16" d="M83.4,81.6c-3.2-1.9-8.5-1.9-11.7,0c-1.5,0.9-2.3,2-2.4,3.2c-0.1-1.3,0.7-2.6,2.4-3.6
							c3.2-1.9,8.5-1.9,11.7,0c1.7,1,2.5,2.3,2.4,3.6C85.7,83.6,84.9,82.5,83.4,81.6z"/>
						<path id="XMLID_564_" class="st19" d="M73.4,86.9c2.2,1.3,5.9,1.3,8.1,0c2.2-1.3,2.3-3.4,0-4.7c-2.2-1.3-5.9-1.3-8.1,0
							C71.2,83.5,71.2,85.7,73.4,86.9z"/>
						<path id="XMLID_563_" class="st19" d="M72.5,87.5c2.8,1.6,7.2,1.6,10,0c2.8-1.6,2.8-4.2,0-5.8c-2.8-1.6-7.2-1.6-10,0
							C69.7,83.3,69.7,85.9,72.5,87.5z"/>
						<path id="XMLID_562_" class="st20" d="M73.4,87c2.3,1.3,5.9,1.3,8.2,0c2.3-1.3,2.3-3.4,0-4.8c-2.3-1.3-5.9-1.3-8.2,0
							C71.1,83.5,71.1,85.7,73.4,87z"/>
						<path id="XMLID_561_" class="st16" d="M81.6,83c-2.3-1.6-5.9-1.6-8.2,0c-0.9,0.6-1.4,1.4-1.6,2.2c-0.3-1.1,0.2-2.2,1.6-3
							c2.3-1.3,5.9-1.3,8.2,0c1.4,0.8,1.9,1.9,1.6,3C83,84.4,82.5,83.6,81.6,83z"/>
					</g>
				</g>
				<g id="XMLID_517_">
					<path id="XMLID_558_" class="st14" d="M65.3,85.9L65.3,85.9c0.3,0.9,0.9,1.7,1.7,2.4c0.5,0.4,1,0.8,1.6,1.2
						c0.6,0.4,1.3,0.7,2,0.9c1.3,0.5,2.8,0.8,4.3,1c1.7,0.2,3.4,0.2,5.1,0c1.5-0.2,2.9-0.5,4.3-1c0.7-0.3,1.4-0.6,2-0.9
						c0.6-0.4,1.2-0.8,1.6-1.2c0.9-0.8,1.5-1.6,1.8-2.5c0.9-2.3-0.3-4.8-3.4-6.6c-4.9-2.8-12.8-2.8-17.7,0
						C65.6,81.1,64.4,83.6,65.3,85.9z"/>
					<path id="XMLID_557_" class="st15" d="M80,90v1.5c1.5-0.2,2.9-0.5,4.3-1v-1.5l-0.6-0.2L80,90z"/>
					<path id="XMLID_556_" class="st16" d="M70.6,89v1.5c1.3,0.5,2.8,0.8,4.3,1V90l-0.8-1H70.6z"/>
					<path id="XMLID_555_" class="st16" d="M65.3,84.4l0,1.5v0c0.3,0.9,0.9,1.7,1.7,2.4v-1.5L65.3,84.4z"/>
					<path id="XMLID_554_" class="st17" d="M87.9,86.8v1.5c0.9-0.8,1.5-1.6,1.8-2.5v-1.5L87.9,86.8z"/>
					<g id="XMLID_518_">
						<path id="XMLID_553_" class="st18" d="M68.6,88c4.9,2.8,12.8,2.8,17.7,0s4.9-7.4,0.1-10.3c-4.9-2.8-12.8-2.8-17.7,0
							C63.8,80.6,63.8,85.2,68.6,88z"/>
						<path id="XMLID_552_" class="st19" d="M69.2,78.1c4.6-2.7,12.1-2.7,16.7,0c4.6,2.7,4.6,7-0.1,9.7c-4.6,2.7-12.1,2.7-16.7,0
							C64.5,85.1,64.6,80.7,69.2,78.1z"/>
						<g id="XMLID_543_">
							<path id="XMLID_551_" class="st20" d="M80.1,79.3l0-3.5c1.5,0.2,2.9,0.5,4.3,1L80.1,79.3z"/>
							<path id="XMLID_550_" class="st20" d="M70.7,76.8c1.3-0.5,2.8-0.8,4.3-1l0,3.5L70.7,76.8z"/>
							<path id="XMLID_549_" class="st20" d="M67.1,78.9l4.2,2.5l-6,0C65.6,80.5,66.2,79.7,67.1,78.9z"/>
							<path id="XMLID_548_" class="st20" d="M83.7,81.4l4.3-2.5c0.9,0.8,1.4,1.6,1.7,2.5L83.7,81.4z"/>
							<path id="XMLID_547_" class="st20" d="M71.3,84.4L67,86.9c-0.9-0.8-1.4-1.6-1.7-2.5L71.3,84.4z"/>
							<path id="XMLID_546_" class="st20" d="M74.9,86.5l0,3.5c-1.5-0.2-2.9-0.5-4.3-1L74.9,86.5z"/>
							<path id="XMLID_545_" class="st20" d="M80.1,86.5l4.2,2.5c-1.3,0.5-2.8,0.8-4.3,1L80.1,86.5z"/>
							<path id="XMLID_544_" class="st20" d="M83.7,84.4l6,0c-0.3,0.9-0.9,1.7-1.8,2.5L83.7,84.4z"/>
						</g>
						<path id="XMLID_540_" class="st20" d="M71.6,86.3c3.2,1.9,8.5,1.9,11.7,0c3.2-1.9,3.3-4.9,0-6.8c-3.2-1.9-8.5-1.9-11.7,0
							C68.4,81.4,68.4,84.4,71.6,86.3z"/>
						<path id="XMLID_539_" class="st14" d="M72.5,86.4c2.8,1.6,7.2,1.6,10,0c2.8-1.6,2.8-4.2,0-5.8c-2.8-1.6-7.2-1.6-10,0
							C69.7,82.2,69.7,84.8,72.5,86.4z"/>
						<path id="XMLID_538_" class="st16" d="M83.4,79.9c-3.2-1.9-8.5-1.9-11.7,0c-1.5,0.9-2.3,2-2.4,3.2c-0.1-1.3,0.7-2.6,2.4-3.6
							c3.2-1.9,8.5-1.9,11.7,0c1.7,1,2.5,2.3,2.4,3.6C85.7,81.9,84.9,80.8,83.4,79.9z"/>
						<path id="XMLID_522_" class="st19" d="M73.4,85.2c2.2,1.3,5.9,1.3,8.1,0c2.2-1.3,2.3-3.4,0-4.7c-2.2-1.3-5.9-1.3-8.1,0
							C71.2,81.8,71.2,83.9,73.4,85.2z"/>
						<path id="XMLID_521_" class="st19" d="M72.5,85.8c2.8,1.6,7.2,1.6,10,0c2.8-1.6,2.8-4.2,0-5.8c-2.8-1.6-7.2-1.6-10,0
							C69.7,81.6,69.7,84.2,72.5,85.8z"/>
						<path id="XMLID_520_" class="st20" d="M73.4,85.3c2.3,1.3,5.9,1.3,8.2,0c2.3-1.3,2.3-3.5,0-4.8c-2.3-1.3-5.9-1.3-8.2,0
							C71.1,81.8,71.1,84,73.4,85.3z"/>
						<path id="XMLID_519_" class="st16" d="M81.6,81.3c-2.3-1.6-5.9-1.6-8.2,0c-0.9,0.6-1.4,1.4-1.6,2.2c-0.3-1.1,0.2-2.2,1.6-3
							c2.3-1.3,5.9-1.3,8.2,0c1.4,0.8,1.9,1.9,1.6,3C83,82.7,82.5,81.9,81.6,81.3z"/>
					</g>
				</g>
				<g id="XMLID_492_">
					<path id="XMLID_516_" class="st14" d="M65.3,84.2L65.3,84.2c0.3,0.9,0.9,1.7,1.7,2.4c0.5,0.4,1,0.8,1.6,1.2
						c0.6,0.4,1.3,0.7,2,0.9c1.3,0.5,2.8,0.8,4.3,1c1.7,0.2,3.4,0.2,5.1,0c1.5-0.2,2.9-0.5,4.3-1c0.7-0.3,1.4-0.6,2-1
						c0.6-0.4,1.2-0.8,1.6-1.2c0.9-0.8,1.5-1.6,1.8-2.5c0.9-2.3-0.3-4.8-3.4-6.6c-4.9-2.8-12.8-2.8-17.7,0
						C65.6,79.4,64.4,81.9,65.3,84.2z"/>
					<path id="XMLID_515_" class="st15" d="M80,88.3v1.5c1.5-0.2,2.9-0.5,4.3-1v-1.5L83.7,87L80,88.3z"/>
					<path id="XMLID_514_" class="st16" d="M70.6,87.3v1.5c1.3,0.5,2.8,0.8,4.3,1v-1.5l-0.8-1H70.6z"/>
					<path id="XMLID_513_" class="st16" d="M65.3,82.7l0,1.5l0,0c0.3,0.9,0.9,1.7,1.7,2.4v-1.5L65.3,82.7z"/>
					<path id="XMLID_512_" class="st17" d="M87.9,85.1v1.5c0.9-0.8,1.5-1.6,1.8-2.5v-1.5L87.9,85.1z"/>
					<g id="XMLID_493_">
						<path id="XMLID_511_" class="st18" d="M68.6,86.3c4.9,2.8,12.8,2.8,17.7,0s4.9-7.4,0.1-10.3c-4.9-2.8-12.8-2.8-17.7,0
							C63.8,78.9,63.8,83.5,68.6,86.3z"/>
						<path id="XMLID_510_" class="st19" d="M69.2,76.3c4.6-2.7,12.1-2.7,16.7,0c4.6,2.7,4.6,7-0.1,9.7c-4.6,2.7-12.1,2.7-16.7,0
							C64.5,83.4,64.6,79,69.2,76.3z"/>
						<g id="XMLID_501_">
							<path id="XMLID_509_" class="st20" d="M80.1,77.6l0-3.5c1.5,0.2,2.9,0.5,4.3,1L80.1,77.6z"/>
							<path id="XMLID_508_" class="st20" d="M70.7,75.1c1.3-0.5,2.8-0.8,4.3-1l0,3.5L70.7,75.1z"/>
							<path id="XMLID_507_" class="st20" d="M67.1,77.2l4.2,2.5l-6,0C65.6,78.8,66.2,78,67.1,77.2z"/>
							<path id="XMLID_506_" class="st20" d="M83.7,79.7l4.3-2.5c0.9,0.8,1.4,1.6,1.7,2.5L83.7,79.7z"/>
							<path id="XMLID_505_" class="st20" d="M71.3,82.7L67,85.2c-0.9-0.8-1.4-1.6-1.7-2.5L71.3,82.7z"/>
							<path id="XMLID_504_" class="st20" d="M74.9,84.8l0,3.5c-1.5-0.2-2.9-0.5-4.3-1L74.9,84.8z"/>
							<path id="XMLID_503_" class="st20" d="M80.1,84.8l4.2,2.5c-1.3,0.5-2.8,0.8-4.3,1L80.1,84.8z"/>
							<path id="XMLID_502_" class="st20" d="M83.7,82.7l6,0c-0.3,0.9-0.9,1.7-1.8,2.5L83.7,82.7z"/>
						</g>
						<path id="XMLID_500_" class="st20" d="M71.6,84.6c3.2,1.9,8.5,1.9,11.7,0c3.2-1.9,3.3-4.9,0-6.8c-3.2-1.9-8.5-1.9-11.7,0
							C68.4,79.7,68.4,82.7,71.6,84.6z"/>
						<path id="XMLID_499_" class="st14" d="M72.5,84.7c2.8,1.6,7.2,1.6,10,0c2.8-1.6,2.8-4.2,0-5.8c-2.8-1.6-7.2-1.6-10,0
							C69.7,80.5,69.7,83.1,72.5,84.7z"/>
						<path id="XMLID_498_" class="st16" d="M83.4,78.2c-3.2-1.9-8.5-1.9-11.7,0c-1.5,0.9-2.3,2-2.4,3.2c-0.1-1.3,0.7-2.6,2.4-3.6
							c3.2-1.9,8.5-1.9,11.7,0c1.7,1,2.5,2.3,2.4,3.6C85.7,80.2,84.9,79.1,83.4,78.2z"/>
						<path id="XMLID_497_" class="st19" d="M73.4,83.5c2.2,1.3,5.9,1.3,8.1,0c2.2-1.3,2.3-3.4,0-4.7c-2.2-1.3-5.9-1.3-8.1,0
							C71.2,80.1,71.2,82.2,73.4,83.5z"/>
						<path id="XMLID_496_" class="st19" d="M72.5,84.1c2.8,1.6,7.2,1.6,10,0c2.8-1.6,2.8-4.2,0-5.8c-2.8-1.6-7.2-1.6-10,0
							C69.7,79.9,69.7,82.5,72.5,84.1z"/>
						<path id="XMLID_495_" class="st20" d="M73.4,83.6c2.3,1.3,5.9,1.3,8.2,0c2.3-1.3,2.3-3.4,0-4.8c-2.3-1.3-5.9-1.3-8.2,0
							C71.1,80.1,71.1,82.3,73.4,83.6z"/>
						<path id="XMLID_494_" class="st16" d="M81.6,79.6c-2.3-1.6-5.9-1.6-8.2,0c-0.9,0.6-1.4,1.4-1.6,2.2c-0.3-1.1,0.2-2.2,1.6-3
							c2.3-1.3,5.9-1.3,8.2,0c1.4,0.8,1.9,1.9,1.6,3C83,81,82.5,80.2,81.6,79.6z"/>
					</g>
				</g>
				<g id="XMLID_467_">
					<path id="XMLID_491_" class="st14" d="M65.3,82.5L65.3,82.5c0.3,0.9,0.9,1.7,1.7,2.4c0.5,0.4,1,0.8,1.6,1.2
						c0.6,0.4,1.3,0.7,2,0.9c1.3,0.5,2.8,0.8,4.3,1c1.7,0.2,3.4,0.2,5.1,0c1.5-0.2,2.9-0.5,4.3-1c0.7-0.3,1.4-0.6,2-0.9
						c0.6-0.4,1.2-0.8,1.6-1.2c0.9-0.8,1.5-1.6,1.8-2.5c0.9-2.3-0.3-4.8-3.4-6.6c-4.9-2.8-12.8-2.8-17.7,0
						C65.6,77.7,64.4,80.2,65.3,82.5z"/>
					<path id="XMLID_490_" class="st15" d="M80,86.6v1.5c1.5-0.2,2.9-0.5,4.3-1v-1.5l-0.6-0.2L80,86.6z"/>
					<path id="XMLID_489_" class="st16" d="M70.6,85.6v1.5c1.3,0.5,2.8,0.8,4.3,1v-1.5l-0.8-1H70.6z"/>
					<path id="XMLID_488_" class="st16" d="M65.3,81l0,1.5v0c0.3,0.9,0.9,1.7,1.7,2.4v-1.5L65.3,81z"/>
					<path id="XMLID_487_" class="st17" d="M87.9,83.4v1.5c0.9-0.8,1.5-1.6,1.8-2.5v-1.5L87.9,83.4z"/>
					<g id="XMLID_468_">
						<path id="XMLID_486_" class="st18" d="M68.6,84.6c4.9,2.8,12.8,2.8,17.7,0s4.9-7.4,0.1-10.3c-4.9-2.8-12.8-2.8-17.7,0
							C63.8,77.2,63.8,81.8,68.6,84.6z"/>
						<path id="XMLID_485_" class="st19" d="M69.2,74.6c4.6-2.7,12.1-2.7,16.7,0c4.6,2.7,4.6,7-0.1,9.7c-4.6,2.7-12.1,2.7-16.7,0
							C64.5,81.7,64.6,77.3,69.2,74.6z"/>
						<g id="XMLID_476_">
							<path id="XMLID_484_" class="st20" d="M80.1,75.9l0-3.5c1.5,0.2,2.9,0.5,4.3,1L80.1,75.9z"/>
							<path id="XMLID_483_" class="st20" d="M70.7,73.4c1.3-0.5,2.8-0.8,4.3-1l0,3.5L70.7,73.4z"/>
							<path id="XMLID_482_" class="st20" d="M67.1,75.5l4.2,2.5l-6,0C65.6,77.1,66.2,76.3,67.1,75.5z"/>
							<path id="XMLID_481_" class="st20" d="M83.7,78l4.3-2.5c0.9,0.8,1.4,1.6,1.7,2.5L83.7,78z"/>
							<path id="XMLID_480_" class="st20" d="M71.3,81L67,83.4c-0.9-0.8-1.4-1.6-1.7-2.5L71.3,81z"/>
							<path id="XMLID_479_" class="st20" d="M74.9,83.1l0,3.5c-1.5-0.2-2.9-0.5-4.3-1L74.9,83.1z"/>
							<path id="XMLID_478_" class="st20" d="M80.1,83.1l4.2,2.5c-1.3,0.5-2.8,0.8-4.3,1L80.1,83.1z"/>
							<path id="XMLID_477_" class="st20" d="M83.7,80.9l6,0c-0.3,0.9-0.9,1.7-1.8,2.5L83.7,80.9z"/>
						</g>
						<path id="XMLID_475_" class="st20" d="M71.6,82.9c3.2,1.9,8.5,1.9,11.7,0c3.2-1.9,3.3-4.9,0-6.8c-3.2-1.9-8.5-1.9-11.7,0
							C68.4,78,68.4,81,71.6,82.9z"/>
						<path id="XMLID_474_" class="st14" d="M72.5,83c2.8,1.6,7.2,1.6,10,0c2.8-1.6,2.8-4.2,0-5.8c-2.8-1.6-7.2-1.6-10,0
							C69.7,78.8,69.7,81.4,72.5,83z"/>
						<path id="XMLID_473_" class="st16" d="M83.4,76.5c-3.2-1.9-8.5-1.9-11.7,0c-1.5,0.9-2.3,2-2.4,3.2c-0.1-1.3,0.7-2.6,2.4-3.6
							c3.2-1.9,8.5-1.9,11.7,0c1.7,1,2.5,2.3,2.4,3.6C85.7,78.5,84.9,77.4,83.4,76.5z"/>
						<path id="XMLID_472_" class="st19" d="M73.4,81.8c2.2,1.3,5.9,1.3,8.1,0c2.2-1.3,2.3-3.4,0-4.7c-2.2-1.3-5.9-1.3-8.1,0
							C71.2,78.4,71.2,80.5,73.4,81.8z"/>
						<path id="XMLID_471_" class="st19" d="M72.5,82.4c2.8,1.6,7.2,1.6,10,0c2.8-1.6,2.8-4.2,0-5.8c-2.8-1.6-7.2-1.6-10,0
							C69.7,78.2,69.7,80.8,72.5,82.4z"/>
						<path id="XMLID_470_" class="st20" d="M73.4,81.9c2.3,1.3,5.9,1.3,8.2,0c2.3-1.3,2.3-3.5,0-4.8c-2.3-1.3-5.9-1.3-8.2,0
							C71.1,78.4,71.1,80.5,73.4,81.9z"/>
						<path id="XMLID_469_" class="st16" d="M81.6,77.9c-2.3-1.6-5.9-1.6-8.2,0c-0.9,0.6-1.4,1.4-1.6,2.2c-0.3-1.1,0.2-2.2,1.6-3
							c2.3-1.3,5.9-1.3,8.2,0c1.4,0.8,1.9,1.9,1.6,3C83,79.3,82.5,78.5,81.6,77.9z"/>
					</g>
				</g>
				<g id="XMLID_442_">
					<path id="XMLID_466_" class="st14" d="M65.3,80.8L65.3,80.8c0.3,0.9,0.9,1.7,1.7,2.4c0.5,0.4,1,0.8,1.6,1.2
						c0.6,0.4,1.3,0.7,2,0.9c1.3,0.5,2.8,0.8,4.3,1c1.7,0.2,3.4,0.2,5.1,0c1.5-0.2,2.9-0.5,4.3-1c0.7-0.3,1.4-0.6,2-1
						c0.6-0.4,1.2-0.8,1.6-1.2c0.9-0.8,1.5-1.6,1.8-2.5c0.9-2.3-0.3-4.8-3.4-6.6c-4.9-2.8-12.8-2.8-17.7,0
						C65.6,76,64.4,78.5,65.3,80.8z"/>
					<path id="XMLID_465_" class="st15" d="M80,84.8v1.5c1.5-0.2,2.9-0.5,4.3-1v-1.5l-0.6-0.2L80,84.8z"/>
					<path id="XMLID_464_" class="st16" d="M70.6,83.8v1.5c1.3,0.5,2.8,0.8,4.3,1v-1.5l-0.8-1H70.6z"/>
					<path id="XMLID_463_" class="st16" d="M65.3,79.3l0,1.5v0c0.3,0.9,0.9,1.7,1.7,2.4v-1.5L65.3,79.3z"/>
					<path id="XMLID_462_" class="st17" d="M87.9,81.7v1.5c0.9-0.8,1.5-1.6,1.8-2.5v-1.5L87.9,81.7z"/>
					<g id="XMLID_443_">
						<path id="XMLID_461_" class="st18" d="M68.6,82.9c4.9,2.8,12.8,2.8,17.7,0c4.9-2.8,4.9-7.4,0.1-10.3c-4.9-2.8-12.8-2.8-17.7,0
							C63.8,75.5,63.8,80.1,68.6,82.9z"/>
						<path id="XMLID_460_" class="st19" d="M69.2,72.9c4.6-2.7,12.1-2.7,16.7,0c4.6,2.7,4.6,7-0.1,9.7c-4.6,2.7-12.1,2.7-16.7,0
							C64.5,80,64.6,75.6,69.2,72.9z"/>
						<g id="XMLID_451_">
							<path id="XMLID_459_" class="st20" d="M80.1,74.2l0-3.5c1.5,0.2,2.9,0.5,4.3,1L80.1,74.2z"/>
							<path id="XMLID_458_" class="st20" d="M70.7,71.7c1.3-0.5,2.8-0.8,4.3-1l0,3.5L70.7,71.7z"/>
							<path id="XMLID_457_" class="st20" d="M67.1,73.8l4.2,2.5l-6,0C65.6,75.4,66.2,74.6,67.1,73.8z"/>
							<path id="XMLID_456_" class="st20" d="M83.7,76.3l4.3-2.5c0.9,0.8,1.4,1.6,1.7,2.5L83.7,76.3z"/>
							<path id="XMLID_455_" class="st20" d="M71.3,79.3L67,81.7c-0.9-0.8-1.4-1.6-1.7-2.5L71.3,79.3z"/>
							<path id="XMLID_454_" class="st20" d="M74.9,81.4l0,3.5c-1.5-0.2-2.9-0.5-4.3-1L74.9,81.4z"/>
							<path id="XMLID_453_" class="st20" d="M80.1,81.4l4.2,2.5c-1.3,0.5-2.8,0.8-4.3,1L80.1,81.4z"/>
							<path id="XMLID_452_" class="st20" d="M83.7,79.2l6,0c-0.3,0.9-0.9,1.7-1.8,2.5L83.7,79.2z"/>
						</g>
						<path id="XMLID_450_" class="st20" d="M71.6,81.2c3.2,1.9,8.5,1.9,11.7,0c3.2-1.9,3.3-4.9,0-6.8c-3.2-1.9-8.5-1.9-11.7,0
							C68.4,76.3,68.4,79.3,71.6,81.2z"/>
						<path id="XMLID_449_" class="st14" d="M72.5,81.3c2.8,1.6,7.2,1.6,10,0c2.8-1.6,2.8-4.2,0-5.8c-2.8-1.6-7.2-1.6-10,0
							C69.7,77.1,69.7,79.7,72.5,81.3z"/>
						<path id="XMLID_448_" class="st16" d="M83.4,74.8c-3.2-1.9-8.5-1.9-11.7,0c-1.5,0.9-2.3,2-2.4,3.2c-0.1-1.3,0.7-2.6,2.4-3.6
							c3.2-1.9,8.5-1.9,11.7,0c1.7,1,2.5,2.3,2.4,3.6C85.7,76.8,84.9,75.7,83.4,74.8z"/>
						<path id="XMLID_447_" class="st19" d="M73.4,80.1c2.2,1.3,5.9,1.3,8.1,0c2.2-1.3,2.3-3.4,0-4.7c-2.2-1.3-5.9-1.3-8.1,0
							C71.2,76.7,71.2,78.8,73.4,80.1z"/>
						<path id="XMLID_446_" class="st19" d="M72.5,80.7c2.8,1.6,7.2,1.6,10,0c2.8-1.6,2.8-4.2,0-5.8c-2.8-1.6-7.2-1.6-10,0
							C69.7,76.5,69.7,79.1,72.5,80.7z"/>
						<path id="XMLID_445_" class="st20" d="M73.4,80.1c2.3,1.3,5.9,1.3,8.2,0c2.3-1.3,2.3-3.4,0-4.8c-2.3-1.3-5.9-1.3-8.2,0
							C71.1,76.7,71.1,78.8,73.4,80.1z"/>
						<path id="XMLID_444_" class="st16" d="M81.6,76.2c-2.3-1.6-5.9-1.6-8.2,0c-0.9,0.6-1.4,1.4-1.6,2.2c-0.3-1.1,0.2-2.2,1.6-3
							c2.3-1.3,5.9-1.3,8.2,0c1.4,0.8,1.9,1.9,1.6,3C83,77.5,82.5,76.8,81.6,76.2z"/>
					</g>
				</g>
			</g>
			<g id="XMLID_416_">
				<path id="XMLID_440_" class="st21" d="M56.6,104.3L56.6,104.3c0.3,0.9,0.9,1.7,1.7,2.4c0.5,0.4,1,0.8,1.6,1.2
					c0.6,0.4,1.3,0.7,2,0.9c1.3,0.5,2.8,0.8,4.3,1c1.7,0.2,3.5,0.2,5.1,0c1.5-0.2,2.9-0.5,4.3-1c0.7-0.3,1.4-0.6,2-0.9
					c0.6-0.4,1.2-0.8,1.6-1.2c0.9-0.8,1.5-1.6,1.8-2.5c0.8-2.3-0.3-4.8-3.4-6.6c-4.9-2.8-12.8-2.8-17.7,0
					C56.9,99.4,55.8,102,56.6,104.3z"/>
				<path id="XMLID_439_" class="st22" d="M71.4,108.3v1.5c1.5-0.2,2.9-0.5,4.3-1v-1.5l-0.6-0.2L71.4,108.3z"/>
				<path id="XMLID_438_" class="st23" d="M62,107.3v1.5c1.3,0.5,2.8,0.8,4.3,1v-1.5l-0.8-1H62z"/>
				<path id="XMLID_437_" class="st23" d="M56.6,102.8l0,1.5v0c0.3,0.9,0.9,1.7,1.7,2.4v-1.5L56.6,102.8z"/>
				<path id="XMLID_436_" class="st24" d="M79.3,105.2v1.5c0.9-0.8,1.5-1.6,1.8-2.5v-1.5L79.3,105.2z"/>
				<g id="XMLID_417_">
					<path id="XMLID_435_" class="st25" d="M60,106.4c4.9,2.8,12.8,2.8,17.7,0c4.9-2.8,4.9-7.4,0.1-10.3c-4.9-2.8-12.8-2.8-17.7,0
						C55.2,99,55.1,103.6,60,106.4z"/>
					<path id="XMLID_434_" class="st26" d="M60.5,96.4c4.6-2.7,12.1-2.7,16.7,0c4.6,2.7,4.6,7-0.1,9.7c-4.6,2.7-12.1,2.7-16.7,0
						C55.9,103.4,55.9,99.1,60.5,96.4z"/>
					<g id="XMLID_425_">
						<path id="XMLID_433_" class="st27" d="M71.5,97.6l0-3.5c1.5,0.2,2.9,0.5,4.3,1L71.5,97.6z"/>
						<path id="XMLID_432_" class="st27" d="M62.1,95.2c1.3-0.5,2.8-0.8,4.3-1l0,3.5L62.1,95.2z"/>
						<path id="XMLID_431_" class="st27" d="M58.4,97.3l4.2,2.5l-6,0C57,98.9,57.6,98.1,58.4,97.3z"/>
						<path id="XMLID_430_" class="st27" d="M75.1,99.7l4.3-2.5c0.9,0.8,1.4,1.6,1.7,2.5L75.1,99.7z"/>
						<path id="XMLID_429_" class="st27" d="M62.6,102.7l-4.3,2.5c-0.9-0.8-1.4-1.6-1.7-2.5L62.6,102.7z"/>
						<path id="XMLID_428_" class="st27" d="M66.3,104.9l0,3.5c-1.5-0.2-2.9-0.5-4.3-1L66.3,104.9z"/>
						<path id="XMLID_427_" class="st27" d="M71.4,104.8l4.2,2.5c-1.3,0.5-2.8,0.8-4.3,1L71.4,104.8z"/>
						<path id="XMLID_426_" class="st27" d="M75.1,102.7l6,0c-0.3,0.9-0.9,1.7-1.8,2.5L75.1,102.7z"/>
					</g>
					<path id="XMLID_424_" class="st27" d="M63,104.6c3.2,1.9,8.5,1.9,11.7,0c3.2-1.9,3.3-4.9,0-6.8c-3.2-1.9-8.5-1.9-11.7,0
						C59.8,99.7,59.8,102.8,63,104.6z"/>
					<path id="XMLID_423_" class="st21" d="M63.8,104.7c2.8,1.6,7.2,1.6,10,0c2.8-1.6,2.8-4.2,0-5.8c-2.8-1.6-7.2-1.6-10,0
						C61.1,100.5,61.1,103.1,63.8,104.7z"/>
					<path id="XMLID_422_" class="st23" d="M74.7,98.3c-3.2-1.9-8.5-1.9-11.7,0c-1.5,0.9-2.3,2-2.4,3.2c-0.1-1.3,0.7-2.6,2.4-3.6
						c3.2-1.9,8.5-1.9,11.7,0c1.7,1,2.5,2.3,2.4,3.6C77,100.3,76.2,99.2,74.7,98.3z"/>
					<path id="XMLID_421_" class="st26" d="M64.8,103.6c2.2,1.3,5.9,1.3,8.1,0c2.2-1.3,2.3-3.4,0-4.7c-2.2-1.3-5.9-1.3-8.1,0
						C62.6,100.2,62.6,102.3,64.8,103.6z"/>
					<path id="XMLID_420_" class="st26" d="M63.8,104.2c2.8,1.6,7.2,1.6,10,0c2.8-1.6,2.8-4.2,0-5.8c-2.8-1.6-7.2-1.6-10,0
						C61.1,100,61.1,102.6,63.8,104.2z"/>
					<path id="XMLID_419_" class="st27" d="M64.8,103.6c2.3,1.3,5.9,1.3,8.2,0c2.3-1.3,2.3-3.5,0-4.8c-2.3-1.3-5.9-1.3-8.2,0
						C62.5,100.2,62.5,102.3,64.8,103.6z"/>
					<path id="XMLID_418_" class="st23" d="M73,99.7c-2.3-1.6-5.9-1.6-8.2,0c-0.9,0.6-1.4,1.4-1.6,2.2c-0.3-1.1,0.2-2.2,1.6-3
						c2.3-1.3,5.9-1.3,8.2,0c1.4,0.8,1.9,1.9,1.6,3C74.4,101,73.8,100.3,73,99.7z"/>
				</g>
			</g>
			<g id="XMLID_391_">
				<path id="XMLID_415_" class="st21" d="M56.6,102.2L56.6,102.2c0.3,0.9,0.9,1.7,1.7,2.4c0.5,0.4,1,0.8,1.6,1.2
					c0.6,0.4,1.3,0.7,2,0.9c1.3,0.5,2.8,0.8,4.3,1c1.7,0.2,3.5,0.2,5.1,0c1.5-0.2,2.9-0.5,4.3-1c0.7-0.3,1.4-0.6,2-1
					c0.6-0.4,1.2-0.8,1.6-1.2c0.9-0.8,1.5-1.6,1.8-2.5c0.8-2.3-0.3-4.8-3.4-6.6c-4.9-2.8-12.8-2.8-17.7,0
					C56.9,97.3,55.8,99.8,56.6,102.2z"/>
				<path id="XMLID_414_" class="st22" d="M71.4,106.2v1.5c1.5-0.2,2.9-0.5,4.3-1v-1.5l-0.6-0.2L71.4,106.2z"/>
				<path id="XMLID_413_" class="st23" d="M62,105.2v1.5c1.3,0.5,2.8,0.8,4.3,1v-1.5l-0.8-1H62z"/>
				<path id="XMLID_412_" class="st23" d="M56.6,100.6l0,1.5v0c0.3,0.9,0.9,1.7,1.7,2.4v-1.5L56.6,100.6z"/>
				<path id="XMLID_411_" class="st24" d="M79.3,103.1v1.5c0.9-0.8,1.5-1.6,1.8-2.5v-1.5L79.3,103.1z"/>
				<g id="XMLID_392_">
					<path id="XMLID_410_" class="st25" d="M60,104.3c4.9,2.8,12.8,2.8,17.7,0c4.9-2.8,4.9-7.4,0.1-10.3c-4.9-2.8-12.8-2.8-17.7,0
						C55.2,96.8,55.1,101.4,60,104.3z"/>
					<path id="XMLID_409_" class="st26" d="M60.5,94.3c4.6-2.7,12.1-2.7,16.7,0c4.6,2.7,4.6,7-0.1,9.7c-4.6,2.7-12.1,2.7-16.7,0
						C55.9,101.3,55.9,97,60.5,94.3z"/>
					<g id="XMLID_400_">
						<path id="XMLID_408_" class="st27" d="M71.5,95.5l0-3.5c1.5,0.2,2.9,0.5,4.3,1L71.5,95.5z"/>
						<path id="XMLID_407_" class="st27" d="M62.1,93.1c1.3-0.5,2.8-0.8,4.3-1l0,3.5L62.1,93.1z"/>
						<path id="XMLID_406_" class="st27" d="M58.4,95.2l4.2,2.5l-6,0C57,96.8,57.6,95.9,58.4,95.2z"/>
						<path id="XMLID_405_" class="st27" d="M75.1,97.6l4.3-2.5c0.9,0.8,1.4,1.6,1.7,2.5L75.1,97.6z"/>
						<path id="XMLID_404_" class="st27" d="M62.6,100.6l-4.3,2.5c-0.9-0.8-1.4-1.6-1.7-2.5L62.6,100.6z"/>
						<path id="XMLID_403_" class="st27" d="M66.3,102.7l0,3.5c-1.5-0.2-2.9-0.5-4.3-1L66.3,102.7z"/>
						<path id="XMLID_402_" class="st27" d="M71.4,102.7l4.2,2.5c-1.3,0.5-2.8,0.8-4.3,1L71.4,102.7z"/>
						<path id="XMLID_401_" class="st27" d="M75.1,100.6l6,0c-0.3,0.9-0.9,1.7-1.8,2.5L75.1,100.6z"/>
					</g>
					<path id="XMLID_399_" class="st27" d="M63,102.5c3.2,1.9,8.5,1.9,11.7,0c3.2-1.9,3.3-4.9,0-6.8c-3.2-1.9-8.5-1.9-11.7,0
						C59.8,97.6,59.8,100.7,63,102.5z"/>
					<path id="XMLID_398_" class="st21" d="M63.8,102.6c2.8,1.6,7.2,1.6,10,0c2.8-1.6,2.8-4.2,0-5.8c-2.8-1.6-7.2-1.6-10,0
						C61.1,98.4,61.1,101,63.8,102.6z"/>
					<path id="XMLID_397_" class="st23" d="M74.7,96.2c-3.2-1.9-8.5-1.9-11.7,0c-1.5,0.9-2.3,2-2.4,3.2c-0.1-1.3,0.7-2.6,2.4-3.6
						c3.2-1.9,8.5-1.9,11.7,0c1.7,1,2.5,2.3,2.4,3.6C77,98.2,76.2,97,74.7,96.2z"/>
					<path id="XMLID_396_" class="st26" d="M64.8,101.5c2.2,1.3,5.9,1.3,8.1,0c2.2-1.3,2.3-3.4,0-4.7c-2.2-1.3-5.9-1.3-8.1,0
						C62.6,98.1,62.6,100.2,64.8,101.5z"/>
					<path id="XMLID_395_" class="st26" d="M63.8,102c2.8,1.6,7.2,1.6,10,0c2.8-1.6,2.8-4.2,0-5.8c-2.8-1.6-7.2-1.6-10,0
						C61.1,97.8,61.1,100.4,63.8,102z"/>
					<path id="XMLID_394_" class="st27" d="M64.8,101.5c2.3,1.3,5.9,1.3,8.2,0c2.3-1.3,2.3-3.4,0-4.8c-2.3-1.3-5.9-1.3-8.2,0
						C62.5,98.1,62.5,100.2,64.8,101.5z"/>
					<path id="XMLID_393_" class="st23" d="M73,97.6c-2.3-1.6-5.9-1.6-8.2,0c-0.9,0.6-1.4,1.4-1.6,2.2c-0.3-1.1,0.2-2.2,1.6-3
						c2.3-1.3,5.9-1.3,8.2,0c1.4,0.8,1.9,1.9,1.6,3C74.4,98.9,73.8,98.2,73,97.6z"/>
				</g>
			</g>
			<g id="XMLID_366_">
				<path id="XMLID_390_" class="st21" d="M56.6,100L56.6,100c0.3,0.9,0.9,1.7,1.7,2.4c0.5,0.4,1,0.8,1.6,1.2c0.6,0.4,1.3,0.7,2,0.9
					c1.3,0.5,2.8,0.8,4.3,1c1.7,0.2,3.5,0.2,5.1,0c1.5-0.2,2.9-0.5,4.3-1c0.7-0.3,1.4-0.6,2-1c0.6-0.4,1.2-0.8,1.6-1.2
					c0.9-0.8,1.5-1.6,1.8-2.5c0.8-2.3-0.3-4.8-3.4-6.6c-4.9-2.8-12.8-2.8-17.7,0C56.9,95.2,55.8,97.7,56.6,100z"/>
				<path id="XMLID_389_" class="st22" d="M71.4,104.1v1.5c1.5-0.2,2.9-0.5,4.3-1v-1.5l-0.6-0.2L71.4,104.1z"/>
				<path id="XMLID_388_" class="st23" d="M62,103.1v1.5c1.3,0.5,2.8,0.8,4.3,1v-1.5l-0.8-1H62z"/>
				<path id="XMLID_387_" class="st23" d="M56.6,98.5l0,1.5l0,0c0.3,0.9,0.9,1.7,1.7,2.4V101L56.6,98.5z"/>
				<path id="XMLID_386_" class="st24" d="M79.3,100.9v1.5c0.9-0.8,1.5-1.6,1.8-2.5v-1.5L79.3,100.9z"/>
				<g id="XMLID_367_">
					<path id="XMLID_385_" class="st25" d="M60,102.1c4.9,2.8,12.8,2.8,17.7,0c4.9-2.8,4.9-7.4,0.1-10.3C72.9,89,65,89,60.1,91.9
						C55.2,94.7,55.1,99.3,60,102.1z"/>
					<path id="XMLID_384_" class="st26" d="M60.5,92.2c4.6-2.7,12.1-2.7,16.7,0c4.6,2.7,4.6,7-0.1,9.7c-4.6,2.7-12.1,2.7-16.7,0
						C55.9,99.2,55.9,94.8,60.5,92.2z"/>
					<g id="XMLID_375_">
						<path id="XMLID_383_" class="st27" d="M71.5,93.4l0-3.5c1.5,0.2,2.9,0.5,4.3,1L71.5,93.4z"/>
						<path id="XMLID_382_" class="st27" d="M62.1,90.9c1.3-0.5,2.8-0.8,4.3-1l0,3.5L62.1,90.9z"/>
						<path id="XMLID_381_" class="st27" d="M58.4,93.1l4.2,2.5l-6,0C57,94.7,57.6,93.8,58.4,93.1z"/>
						<path id="XMLID_380_" class="st27" d="M75.1,95.5l4.3-2.5c0.9,0.8,1.4,1.6,1.7,2.5L75.1,95.5z"/>
						<path id="XMLID_379_" class="st27" d="M62.6,98.5l-4.3,2.5c-0.9-0.8-1.4-1.6-1.7-2.5L62.6,98.5z"/>
						<path id="XMLID_378_" class="st27" d="M66.3,100.6l0,3.5c-1.5-0.2-2.9-0.5-4.3-1L66.3,100.6z"/>
						<path id="XMLID_377_" class="st27" d="M71.4,100.6l4.2,2.5c-1.3,0.5-2.8,0.8-4.3,1L71.4,100.6z"/>
						<path id="XMLID_376_" class="st27" d="M75.1,98.5l6,0c-0.3,0.9-0.9,1.7-1.8,2.5L75.1,98.5z"/>
					</g>
					<path id="XMLID_374_" class="st27" d="M63,100.4c3.2,1.9,8.5,1.9,11.7,0c3.2-1.9,3.3-4.9,0-6.8s-8.5-1.9-11.7,0
						C59.8,95.5,59.8,98.5,63,100.4z"/>
					<path id="XMLID_373_" class="st21" d="M63.8,100.5c2.8,1.6,7.2,1.6,10,0c2.8-1.6,2.8-4.2,0-5.8c-2.8-1.6-7.2-1.6-10,0
						C61.1,96.3,61.1,98.9,63.8,100.5z"/>
					<path id="XMLID_372_" class="st23" d="M74.7,94c-3.2-1.9-8.5-1.9-11.7,0c-1.5,0.9-2.3,2-2.4,3.2c-0.1-1.3,0.7-2.6,2.4-3.6
						c3.2-1.9,8.5-1.9,11.7,0c1.7,1,2.5,2.3,2.4,3.6C77,96,76.2,94.9,74.7,94z"/>
					<path id="XMLID_371_" class="st26" d="M64.8,99.4c2.2,1.3,5.9,1.3,8.1,0c2.2-1.3,2.3-3.4,0-4.7c-2.2-1.3-5.9-1.3-8.1,0
						C62.6,96,62.6,98.1,64.8,99.4z"/>
					<path id="XMLID_370_" class="st26" d="M63.8,99.9c2.8,1.6,7.2,1.6,10,0c2.8-1.6,2.8-4.2,0-5.8c-2.8-1.6-7.2-1.6-10,0
						C61.1,95.7,61.1,98.3,63.8,99.9z"/>
					<path id="XMLID_369_" class="st27" d="M64.8,99.4c2.3,1.3,5.9,1.3,8.2,0c2.3-1.3,2.3-3.4,0-4.8c-2.3-1.3-5.9-1.3-8.2,0
						C62.5,95.9,62.5,98.1,64.8,99.4z"/>
					<path id="XMLID_368_" class="st23" d="M73,95.4c-2.3-1.6-5.9-1.6-8.2,0c-0.9,0.6-1.4,1.4-1.6,2.2c-0.3-1.1,0.2-2.2,1.6-3
						c2.3-1.3,5.9-1.3,8.2,0c1.4,0.8,1.9,1.9,1.6,3C74.4,96.8,73.8,96,73,95.4z"/>
				</g>
			</g>
			<g id="XMLID_287_">
				<path id="XMLID_365_" class="st21" d="M56.6,97.9L56.6,97.9c0.3,0.9,0.9,1.7,1.7,2.4c0.5,0.4,1,0.8,1.6,1.2
					c0.6,0.4,1.3,0.7,2,0.9c1.3,0.5,2.8,0.8,4.3,1c1.7,0.2,3.5,0.2,5.1,0c1.5-0.2,2.9-0.5,4.3-1c0.7-0.3,1.4-0.6,2-1
					c0.6-0.4,1.2-0.8,1.6-1.2c0.9-0.8,1.5-1.6,1.8-2.5c0.8-2.3-0.3-4.8-3.4-6.6c-4.9-2.8-12.8-2.8-17.7,0
					C56.9,93.1,55.8,95.6,56.6,97.9z"/>
				<path id="XMLID_364_" class="st22" d="M71.4,102v1.5c1.5-0.2,2.9-0.5,4.3-1v-1.5l-0.6-0.2L71.4,102z"/>
				<path id="XMLID_363_" class="st23" d="M62,101v1.5c1.3,0.5,2.8,0.8,4.3,1V102l-0.8-1H62z"/>
				<path id="XMLID_362_" class="st23" d="M56.6,96.4l0,1.5v0c0.3,0.9,0.9,1.7,1.7,2.4v-1.5L56.6,96.4z"/>
				<path id="XMLID_361_" class="st24" d="M79.3,98.8v1.5c0.9-0.8,1.5-1.6,1.8-2.5v-1.5L79.3,98.8z"/>
				<g id="XMLID_288_">
					<path id="XMLID_360_" class="st25" d="M60,100c4.9,2.8,12.8,2.8,17.7,0c4.9-2.8,4.9-7.4,0.1-10.3c-4.9-2.8-12.8-2.8-17.7,0
						C55.2,92.6,55.1,97.2,60,100z"/>
					<path id="XMLID_359_" class="st26" d="M60.5,90c4.6-2.7,12.1-2.7,16.7,0c4.6,2.7,4.6,7-0.1,9.7c-4.6,2.7-12.1,2.7-16.7,0
						C55.9,97.1,55.9,92.7,60.5,90z"/>
					<g id="XMLID_296_">
						<path id="XMLID_304_" class="st27" d="M71.5,91.3l0-3.5c1.5,0.2,2.9,0.5,4.3,1L71.5,91.3z"/>
						<path id="XMLID_303_" class="st27" d="M62.1,88.8c1.3-0.5,2.8-0.8,4.3-1l0,3.5L62.1,88.8z"/>
						<path id="XMLID_302_" class="st27" d="M58.4,90.9l4.2,2.5l-6,0C57,92.5,57.6,91.7,58.4,90.9z"/>
						<path id="XMLID_301_" class="st27" d="M75.1,93.4l4.3-2.5c0.9,0.8,1.4,1.6,1.7,2.5L75.1,93.4z"/>
						<path id="XMLID_300_" class="st27" d="M62.6,96.4l-4.3,2.5c-0.9-0.8-1.4-1.6-1.7-2.5L62.6,96.4z"/>
						<path id="XMLID_299_" class="st27" d="M66.3,98.5l0,3.5c-1.5-0.2-2.9-0.5-4.3-1L66.3,98.5z"/>
						<path id="XMLID_298_" class="st27" d="M71.4,98.5l4.2,2.5c-1.3,0.5-2.8,0.8-4.3,1L71.4,98.5z"/>
						<path id="XMLID_297_" class="st27" d="M75.1,96.3l6,0c-0.3,0.9-0.9,1.7-1.8,2.5L75.1,96.3z"/>
					</g>
					<path id="XMLID_295_" class="st27" d="M63,98.3c3.2,1.9,8.5,1.9,11.7,0c3.2-1.9,3.3-4.9,0-6.8c-3.2-1.9-8.5-1.9-11.7,0
						C59.8,93.4,59.8,96.4,63,98.3z"/>
					<path id="XMLID_294_" class="st21" d="M63.8,98.4c2.8,1.6,7.2,1.6,10,0c2.8-1.6,2.8-4.2,0-5.8c-2.8-1.6-7.2-1.6-10,0
						C61.1,94.2,61.1,96.8,63.8,98.4z"/>
					<path id="XMLID_293_" class="st23" d="M74.7,91.9c-3.2-1.9-8.5-1.9-11.7,0c-1.5,0.9-2.3,2-2.4,3.2c-0.1-1.3,0.7-2.6,2.4-3.6
						c3.2-1.9,8.5-1.9,11.7,0c1.7,1,2.5,2.3,2.4,3.6C77,93.9,76.2,92.8,74.7,91.9z"/>
					<path id="XMLID_292_" class="st26" d="M64.8,97.2c2.2,1.3,5.9,1.3,8.1,0c2.2-1.3,2.3-3.4,0-4.7c-2.2-1.3-5.9-1.3-8.1,0
						C62.6,93.8,62.6,95.9,64.8,97.2z"/>
					<path id="XMLID_291_" class="st26" d="M63.8,97.8c2.8,1.6,7.2,1.6,10,0c2.8-1.6,2.8-4.2,0-5.8c-2.8-1.6-7.2-1.6-10,0
						C61.1,93.6,61.1,96.2,63.8,97.8z"/>
					<path id="XMLID_290_" class="st27" d="M64.8,97.3c2.3,1.3,5.9,1.3,8.2,0c2.3-1.3,2.3-3.4,0-4.8c-2.3-1.3-5.9-1.3-8.2,0
						C62.5,93.8,62.5,95.9,64.8,97.3z"/>
					<path id="XMLID_289_" class="st23" d="M73,93.3c-2.3-1.6-5.9-1.6-8.2,0c-0.9,0.6-1.4,1.4-1.6,2.2c-0.3-1.1,0.2-2.2,1.6-3
						c2.3-1.3,5.9-1.3,8.2,0c1.4,0.8,1.9,1.9,1.6,3C74.4,94.7,73.8,93.9,73,93.3z"/>
				</g>
			</g>
		</g>
	</g>
</g>
</svg>
