<?xml version="1.0" encoding="utf-8"?>
<!-- Generator: Adobe Illustrator 21.0.0, SVG Export Plug-In . SVG Version: 6.00 Build 0)  -->
<svg version="1.1" id="Слой_1" xmlns="http://www.w3.org/2000/svg" xmlns:xlink="http://www.w3.org/1999/xlink" x="0px" y="0px"
	 width="90px" height="110px" viewBox="0 0 90 110" style="enable-background:new 0 0 90 110;" xml:space="preserve">
<style type="text/css">
	.st0{enable-background:new    ;}
	.st1{fill:url(#SVGID_1_);}
	.st2{fill:#7D7F7F;}
	.st3{fill:url(#SVGID_2_);}
	.st4{fill:#B4B9B9;}
	.st5{fill:url(#SVGID_3_);}
	.st6{opacity:0.6;fill:#474747;}
	.st7{opacity:0.5;fill:#474747;}
	.st8{fill:#E9ECED;}
	.st9{fill:#919797;}
	.st10{opacity:0.4;fill:#B8C2C2;}
	.st11{fill:url(#SVGID_4_);}
	.st12{fill:#353538;}
	.st13{opacity:0.8;fill:url(#SVGID_5_);}
	.st14{clip-path:url(#SVGID_8_);}
	.st15{fill:url(#SVGID_9_);}
	.st16{fill:#0F0F0F;}
	.st17{fill:#CE3641;}
	.st18{fill:#592727;}
	.st19{fill:#FFBDC7;}
	.st20{fill:#FF623E;}
	.st21{fill:url(#SVGID_10_);}
	.st22{fill:#0E8021;}
	.st23{fill:url(#SVGID_11_);}
	.st24{fill:#898989;}
	.st25{fill:url(#SVGID_12_);}
	.st26{fill:#DAE1E3;}
	.st27{fill:url(#SVGID_13_);}
	.st28{opacity:0.5;fill:url(#SVGID_14_);}
	.st29{fill:#ABB5B5;}
	.st30{fill:#F4F4F4;}
	.st31{fill:#CBD3D3;}
	.st32{fill:#E43633;}
</style>
<g id="Hot">
	<g class="st0">
		<linearGradient id="SVGID_1_" gradientUnits="userSpaceOnUse" x1="59.0363" y1="57.6867" x2="62.4032" y2="63.5185">
			<stop  offset="0" style="stop-color:#CACFCF"/>
			<stop  offset="0.1214" style="stop-color:#D3D7D7"/>
			<stop  offset="0.3193" style="stop-color:#EBEEEE"/>
			<stop  offset="0.4048" style="stop-color:#F8FAFA"/>
			<stop  offset="0.5121" style="stop-color:#F4F7F7"/>
			<stop  offset="0.6286" style="stop-color:#E7EDEF"/>
			<stop  offset="0.639" style="stop-color:#E5ECEE"/>
			<stop  offset="0.829" style="stop-color:#C9CFD0"/>
			<stop  offset="1" style="stop-color:#B4B9B9"/>
		</linearGradient>
		<path class="st1" d="M62.9,60.1c-0.2-0.5-0.5-1-0.9-1.4c-0.3-0.4-0.7-0.7-1-0.9c-0.7-0.4-1.3-0.4-1.7-0.2l-2.1,1.2
			c0.4-0.3,1-0.2,1.7,0.2c0.4,0.2,0.7,0.5,1,0.9c0.4,0.4,0.7,0.9,0.9,1.4c0.3,0.6,0.4,1.2,0.4,1.8c0,0.8-0.3,1.3-0.7,1.5l2.1-1.2
			c0.4-0.2,0.7-0.8,0.7-1.5C63.3,61.3,63.2,60.7,62.9,60.1z"/>
		<g>
			<path class="st2" d="M58.8,59c1.3,0.8,2.4,2.6,2.4,4.1c0,1.5-1.1,2.1-2.4,1.4c-1.3-0.8-2.4-2.6-2.4-4.1
				C56.4,58.8,57.5,58.2,58.8,59z"/>
		</g>
	</g>
	<g>
		<g id="_x31_4_2_">
			<g>
				<g>
					<linearGradient id="SVGID_2_" gradientUnits="userSpaceOnUse" x1="34.189" y1="74.2182" x2="35.8113" y2="77.028">
						<stop  offset="0" style="stop-color:#CACFCF"/>
						<stop  offset="0.1214" style="stop-color:#D3D7D7"/>
						<stop  offset="0.3193" style="stop-color:#EBEEEE"/>
						<stop  offset="0.4048" style="stop-color:#F8FAFA"/>
						<stop  offset="0.6775" style="stop-color:#F4F7F7"/>
						<stop  offset="0.9736" style="stop-color:#E7EDEF"/>
						<stop  offset="1" style="stop-color:#E5ECEE"/>
					</linearGradient>
					<path class="st3" d="M59.6,61.6c-0.1-0.3-0.3-0.6-0.6-0.9c-0.2-0.2-0.4-0.4-0.7-0.5L9.8,88.5c0.2,0.1,0.5,0.3,0.7,0.5
						c0.2,0.3,0.4,0.6,0.6,0.9c0.2,0.4,0.2,0.7,0.2,1.1c0,0.1,0,0.2,0,0.2L59.9,63c0-0.1,0-0.2,0-0.2C59.9,62.4,59.8,62,59.6,61.6z"
						/>
					<polygon class="st4" points="0.6,49.7 49.2,21.5 58.4,60.2 9.8,88.5 					"/>
					<linearGradient id="SVGID_3_" gradientUnits="userSpaceOnUse" x1="48.5031" y1="24.828" x2="11.4089" y2="83.6922">
						<stop  offset="0" style="stop-color:#1F2121"/>
						<stop  offset="1" style="stop-color:#000000"/>
					</linearGradient>
					<polygon class="st5" points="1.8,50.2 48.5,23.1 57.2,59.7 10.5,86.8 					"/>
					<polygon class="st6" points="2.5,50.5 48.1,24 56.6,59.4 10.9,86 					"/>
					<polygon class="st7" points="47.8,24.8 47,25.2 54.9,58.6 11,84.1 11.3,85.1 55.9,59.2 					"/>
					<g>
						<polygon class="st8" points="0,49.6 48.6,21.3 49.2,21.5 0.6,49.7 						"/>
					</g>
					<g>
						<polygon class="st4" points="41.4,108.6 90,80.4 90,81.8 41.4,110 						"/>
					</g>
					<g>
						<polygon class="st8" points="11.3,91.2 59.9,63 90,80.4 41.4,108.6 						"/>
					</g>
					<g>
						<path class="st9" d="M0.6,49.7l9.2,38.8c0.8,0.5,1.5,1.6,1.5,2.5c0,0.1,0,0.2,0,0.2l30.1,17.4l0,1.4L9.8,91.7
							c-0.8-0.5-1.4-1.6-1.4-2.4c0-0.4,0.1-0.7,0.3-0.8L0,49.6L0.6,49.7z"/>
					</g>
				</g>
				<path class="st10" d="M21.2,91.2l-2,1.1c-0.2,0.1-0.5,0.1-0.7,0l-1.7-1c-0.2-0.1-0.2-0.3,0-0.4l2-1.1c0.2-0.1,0.5-0.1,0.7,0
					l1.7,1C21.4,90.9,21.4,91.1,21.2,91.2z M24.4,89l-1.7-1c-0.2-0.1-0.5-0.1-0.7,0l-2,1.1c-0.2,0.1-0.2,0.3,0,0.4l1.7,1
					c0.2,0.1,0.5,0.1,0.7,0l2-1.1C24.5,89.2,24.5,89.1,24.4,89z M27.5,87.1l-1.7-1c-0.2-0.1-0.5-0.1-0.7,0l-2,1.1
					c-0.2,0.1-0.2,0.3,0,0.4l1.7,1c0.2,0.1,0.5,0.1,0.7,0l2-1.1C27.7,87.4,27.7,87.2,27.5,87.1z M30.7,85.3l-1.7-1
					c-0.2-0.1-0.5-0.1-0.7,0l-2,1.1c-0.2,0.1-0.2,0.3,0,0.4l1.7,1c0.2,0.1,0.5,0.1,0.7,0l2-1.1C30.9,85.6,30.9,85.4,30.7,85.3z
					 M33.9,83.4l-1.7-1c-0.2-0.1-0.5-0.1-0.7,0l-2,1.1c-0.2,0.1-0.2,0.3,0,0.4l1.7,1c0.2,0.1,0.5,0.1,0.7,0l2-1.1
					C34.1,83.7,34.1,83.5,33.9,83.4z M37.1,81.6l-1.7-1c-0.2-0.1-0.5-0.1-0.7,0l-2,1.1c-0.2,0.1-0.2,0.3,0,0.4l1.7,1
					c0.2,0.1,0.5,0.1,0.7,0l2-1.1C37.3,81.9,37.3,81.7,37.1,81.6z M40.3,79.7l-1.7-1c-0.2-0.1-0.5-0.1-0.7,0l-2,1.1
					c-0.2,0.1-0.2,0.3,0,0.4l1.7,1c0.2,0.1,0.5,0.1,0.7,0l2-1.1C40.5,80,40.5,79.9,40.3,79.7z M43.5,77.9l-1.7-1
					c-0.2-0.1-0.5-0.1-0.7,0l-2,1.1c-0.2,0.1-0.2,0.3,0,0.4l1.7,1c0.2,0.1,0.5,0.1,0.7,0l2-1.1C43.7,78.2,43.7,78,43.5,77.9z
					 M46.7,76.1l-1.7-1c-0.2-0.1-0.5-0.1-0.7,0l-2,1.1c-0.2,0.1-0.2,0.3,0,0.4l1.7,1c0.2,0.1,0.5,0.1,0.7,0l2-1.1
					C46.9,76.3,46.9,76.2,46.7,76.1z M50.9,73.6l-1.7-1c-0.2-0.1-0.5-0.1-0.7,0l-3,1.7c-0.2,0.1-0.2,0.3,0,0.4l1.7,1
					c0.2,0.1,0.5,0.1,0.7,0l3-1.7C51.1,73.9,51.1,73.7,50.9,73.6z M64.6,75.8l-1.7-1c-0.2-0.1-0.5-0.1-0.7,0l-2,1.1
					c-0.2,0.1-0.2,0.3,0,0.4l1.7,1c0.2,0.1,0.5,0.1,0.7,0l2-1.1C64.8,76.1,64.8,75.9,64.6,75.8z M67.8,74l-1.7-1
					c-0.2-0.1-0.5-0.1-0.7,0l-2,1.1c-0.2,0.1-0.2,0.3,0,0.4l1.7,1c0.2,0.1,0.5,0.1,0.7,0l2-1.1C68,74.3,68,74.1,67.8,74z M71,72.1
					l-1.7-1c-0.2-0.1-0.5-0.1-0.7,0l-2,1.1c-0.2,0.1-0.2,0.3,0,0.4l1.7,1c0.2,0.1,0.5,0.1,0.7,0l2-1.1C71.2,72.4,71.2,72.2,71,72.1z
					 M67.5,77.5l-1.7-1c-0.2-0.1-0.5-0.1-0.7,0l-2,1.1c-0.2,0.1-0.2,0.3,0,0.4l1.7,1c0.2,0.1,0.5,0.1,0.7,0l2-1.1
					C67.7,77.8,67.7,77.6,67.5,77.5z M70.7,75.7l-1.7-1c-0.2-0.1-0.5-0.1-0.7,0l-2,1.1c-0.2,0.1-0.2,0.3,0,0.4l1.7,1
					c0.2,0.1,0.5,0.1,0.7,0l2-1.1C70.9,75.9,70.9,75.8,70.7,75.7z M73.9,73.8l-1.7-1c-0.2-0.1-0.5-0.1-0.7,0l-2,1.1
					c-0.2,0.1-0.2,0.3,0,0.4l1.7,1c0.2,0.1,0.5,0.1,0.7,0l2-1.1C74.1,74.1,74.1,73.9,73.9,73.8z M25.2,91.9l-1.7-1
					c-0.2-0.1-0.5-0.1-0.7,0l-3,1.7c-0.2,0.1-0.2,0.3,0,0.4l1.7,1c0.2,0.1,0.5,0.1,0.7,0l3-1.7C25.4,92.2,25.4,92,25.2,91.9z
					 M28.4,90l-1.7-1c-0.2-0.1-0.5-0.1-0.7,0l-2,1.1c-0.2,0.1-0.2,0.3,0,0.4l1.7,1c0.2,0.1,0.5,0.1,0.7,0l2-1.1
					C28.5,90.3,28.5,90.1,28.4,90z M31.5,88.2l-1.7-1c-0.2-0.1-0.5-0.1-0.7,0l-2,1.1c-0.2,0.1-0.2,0.3,0,0.4l1.7,1
					c0.2,0.1,0.5,0.1,0.7,0l2-1.1C31.7,88.5,31.7,88.3,31.5,88.2z M34.7,86.3l-1.7-1c-0.2-0.1-0.5-0.1-0.7,0l-2,1.1
					c-0.2,0.1-0.2,0.3,0,0.4l1.7,1c0.2,0.1,0.5,0.1,0.7,0l2-1.1C34.9,86.6,34.9,86.5,34.7,86.3z M37.9,84.5l-1.7-1
					c-0.2-0.1-0.5-0.1-0.7,0l-2,1.1c-0.2,0.1-0.2,0.3,0,0.4l1.7,1c0.2,0.1,0.5,0.1,0.7,0l2-1.1C38.1,84.8,38.1,84.6,37.9,84.5z
					 M41.1,82.7l-1.7-1c-0.2-0.1-0.5-0.1-0.7,0l-2,1.1c-0.2,0.1-0.2,0.3,0,0.4l1.7,1c0.2,0.1,0.5,0.1,0.7,0l2-1.1
					C41.3,82.9,41.3,82.8,41.1,82.7z M44.3,80.8l-1.7-1c-0.2-0.1-0.5-0.1-0.7,0L40,81c-0.2,0.1-0.2,0.3,0,0.4l1.7,1
					c0.2,0.1,0.5,0.1,0.7,0l2-1.1C44.5,81.1,44.5,80.9,44.3,80.8z M47.5,79l-1.7-1c-0.2-0.1-0.5-0.1-0.7,0l-2,1.1
					c-0.2,0.1-0.2,0.3,0,0.4l1.7,1c0.2,0.1,0.5,0.1,0.7,0l2-1.1C47.7,79.3,47.7,79.1,47.5,79z M50.7,77.1l-1.7-1
					c-0.2-0.1-0.5-0.1-0.7,0l-2,1.1c-0.2,0.1-0.2,0.3,0,0.4l1.7,1c0.2,0.1,0.5,0.1,0.7,0l2-1.1C50.9,77.4,50.9,77.2,50.7,77.1z
					 M53.9,75.3l-1.7-1c-0.2-0.1-0.5-0.1-0.7,0l-2,1.1c-0.2,0.1-0.2,0.3,0,0.4l1.7,1c0.2,0.1,0.5,0.1,0.7,0l2-1.1
					C54.1,75.6,54.1,75.4,53.9,75.3z M27,94.1l-1.7-1c-0.2-0.1-0.5-0.1-0.7,0l-2,1.1c-0.2,0.1-0.2,0.3,0,0.4l1.7,1
					c0.2,0.1,0.5,0.1,0.7,0l2-1.1C27.2,94.4,27.2,94.3,27,94.1z M30.2,92.3l-1.7-1c-0.2-0.1-0.5-0.1-0.7,0l-2,1.1
					c-0.2,0.1-0.2,0.3,0,0.4l1.7,1c0.2,0.1,0.5,0.1,0.7,0l2-1.1C30.3,92.6,30.3,92.4,30.2,92.3z M33.3,90.5l-1.7-1
					c-0.2-0.1-0.5-0.1-0.7,0l-2,1.1c-0.2,0.1-0.2,0.3,0,0.4l1.7,1c0.2,0.1,0.5,0.1,0.7,0l2-1.1C33.5,90.7,33.5,90.6,33.3,90.5z
					 M36.5,88.6l-1.7-1c-0.2-0.1-0.5-0.1-0.7,0l-2,1.1c-0.2,0.1-0.2,0.3,0,0.4l1.7,1c0.2,0.1,0.5,0.1,0.7,0l2-1.1
					C36.7,88.9,36.7,88.7,36.5,88.6z M32.7,97.5l-1.7-1c-0.2-0.1-0.5-0.1-0.7,0l-2,1.1c-0.2,0.1-0.2,0.3,0,0.4l1.7,1
					c0.2,0.1,0.5,0.1,0.7,0l2-1.1C32.9,97.8,32.9,97.6,32.7,97.5z M35.9,95.6l-1.7-1c-0.2-0.1-0.5-0.1-0.7,0l-2,1.1
					c-0.2,0.1-0.2,0.3,0,0.4l1.7,1c0.2,0.1,0.5,0.1,0.7,0l2-1.1C36.1,95.9,36.1,95.8,35.9,95.6z M39.1,93.8l-1.7-1
					c-0.2-0.1-0.5-0.1-0.7,0l-2,1.1c-0.2,0.1-0.2,0.3,0,0.4l1.7,1c0.2,0.1,0.5,0.1,0.7,0l2-1.1C39.3,94.1,39.3,93.9,39.1,93.8z
					 M42.3,92l-1.7-1c-0.2-0.1-0.5-0.1-0.7,0l-2,1.1c-0.2,0.1-0.2,0.3,0,0.4l1.7,1c0.2,0.1,0.5,0.1,0.7,0l2-1.1
					C42.5,92.2,42.5,92.1,42.3,92z M62.5,80.3l-1.7-1c-0.2-0.1-0.5-0.1-0.7,0l-3,1.7c-0.2,0.1-0.2,0.3,0,0.4l1.7,1
					c0.2,0.1,0.5,0.1,0.7,0l3-1.7C62.7,80.6,62.7,80.4,62.5,80.3z M39.7,86.8l-1.7-1c-0.2-0.1-0.5-0.1-0.7,0l-2,1.1
					c-0.2,0.1-0.2,0.3,0,0.4l1.7,1c0.2,0.1,0.5,0.1,0.7,0l2-1.1C39.9,87.1,39.9,86.9,39.7,86.8z M42.9,84.9l-1.7-1
					c-0.2-0.1-0.5-0.1-0.7,0l-2,1.1c-0.2,0.1-0.2,0.3,0,0.4l1.7,1c0.2,0.1,0.5,0.1,0.7,0l2-1.1C43.1,85.2,43.1,85,42.9,84.9z
					 M46.1,83.1l-1.7-1c-0.2-0.1-0.5-0.1-0.7,0l-2,1.1c-0.2,0.1-0.2,0.3,0,0.4l1.7,1c0.2,0.1,0.5,0.1,0.7,0l2-1.1
					C46.3,83.4,46.3,83.2,46.1,83.1z M49.3,81.2l-1.7-1c-0.2-0.1-0.5-0.1-0.7,0l-2,1.1c-0.2,0.1-0.2,0.3,0,0.4l1.7,1
					c0.2,0.1,0.5,0.1,0.7,0l2-1.1C49.5,81.5,49.5,81.4,49.3,81.2z M52.5,79.4l-1.7-1c-0.2-0.1-0.5-0.1-0.7,0l-2,1.1
					c-0.2,0.1-0.2,0.3,0,0.4l1.7,1c0.2,0.1,0.5,0.1,0.7,0l2-1.1C52.7,79.7,52.7,79.5,52.5,79.4z M56.7,77L55,76
					c-0.2-0.1-0.5-0.1-0.7,0l-3,1.7c-0.2,0.1-0.2,0.3,0,0.4l1.7,1c0.2,0.1,0.5,0.1,0.7,0l3-1.7C56.9,77.3,56.9,77.1,56.7,77z
					 M31,95.2l-1.7-1c-0.2-0.1-0.5-0.1-0.7,0l-3,1.7c-0.2,0.1-0.2,0.3,0,0.4l1.7,1c0.2,0.1,0.5,0.1,0.7,0l3-1.7
					C31.2,95.5,31.2,95.3,31,95.2z M34.2,93.4l-1.7-1c-0.2-0.1-0.5-0.1-0.7,0l-2,1.1c-0.2,0.1-0.2,0.3,0,0.4l1.7,1
					c0.2,0.1,0.5,0.1,0.7,0l2-1.1C34.3,93.7,34.3,93.5,34.2,93.4z M37.3,91.5l-1.7-1c-0.2-0.1-0.5-0.1-0.7,0l-2,1.1
					c-0.2,0.1-0.2,0.3,0,0.4l1.7,1c0.2,0.1,0.5,0.1,0.7,0l2-1.1C37.5,91.8,37.5,91.6,37.3,91.5z M40.5,89.7l-1.7-1
					c-0.2-0.1-0.5-0.1-0.7,0l-2,1.1c-0.2,0.1-0.2,0.3,0,0.4l1.7,1c0.2,0.1,0.5,0.1,0.7,0l2-1.1C40.7,90,40.7,89.8,40.5,89.7z
					 M43.7,87.8l-1.7-1c-0.2-0.1-0.5-0.1-0.7,0l-2,1.1c-0.2,0.1-0.2,0.3,0,0.4l1.7,1c0.2,0.1,0.5,0.1,0.7,0l2-1.1
					C43.9,88.1,43.9,88,43.7,87.8z M58.3,82.7l-1.7-1c-0.2-0.1-0.5-0.1-0.7,0l-14.8,8.5c-0.2,0.1-0.2,0.3,0,0.4l1.7,1
					c0.2,0.1,0.5,0.1,0.7,0l14.8-8.5C58.5,83,58.5,82.9,58.3,82.7z M46.9,86l-1.7-1c-0.2-0.1-0.5-0.1-0.7,0l-2,1.1
					c-0.2,0.1-0.2,0.3,0,0.4l1.7,1c0.2,0.1,0.5,0.1,0.7,0l2-1.1C47.1,86.3,47.1,86.1,46.9,86z M50.1,84.2l-1.7-1
					c-0.2-0.1-0.5-0.1-0.7,0l-2,1.1c-0.2,0.1-0.2,0.3,0,0.4l1.7,1c0.2,0.1,0.5,0.1,0.7,0l2-1.1C50.3,84.5,50.3,84.3,50.1,84.2z
					 M53.3,82.3l-1.7-1c-0.2-0.1-0.5-0.1-0.7,0l-2,1.1c-0.2,0.1-0.2,0.3,0,0.4l1.7,1c0.2,0.1,0.5,0.1,0.7,0l2-1.1
					C53.5,82.6,53.5,82.4,53.3,82.3z M56.5,80.5l-1.7-1c-0.2-0.1-0.5-0.1-0.7,0l-2,1.1c-0.2,0.1-0.2,0.3,0,0.4l1.7,1
					c0.2,0.1,0.5,0.1,0.7,0l2-1.1C56.7,80.8,56.7,80.6,56.5,80.5z M59.7,78.6l-1.7-1c-0.2-0.1-0.5-0.1-0.7,0l-2,1.1
					c-0.2,0.1-0.2,0.3,0,0.4l1.7,1c0.2,0.1,0.5,0.1,0.7,0l2-1.1C59.9,78.9,59.9,78.7,59.7,78.6z M55.9,70.8l-1.7-1
					c-0.2-0.1-0.5-0.1-0.7,0l-2,1.1c-0.2,0.1-0.2,0.3,0,0.4l1.7,1c0.2,0.1,0.5,0.1,0.7,0l2-1.1C56.1,71.1,56.1,70.9,55.9,70.8z
					 M59.1,68.9l-1.7-1c-0.2-0.1-0.5-0.1-0.7,0l-2,1.1c-0.2,0.1-0.2,0.3,0,0.4l1.7,1c0.2,0.1,0.5,0.1,0.7,0l2-1.1
					C59.3,69.2,59.3,69,59.1,68.9z M62.3,67.1l-1.7-1c-0.2-0.1-0.5-0.1-0.7,0l-2,1.1c-0.2,0.1-0.2,0.3,0,0.4l1.7,1
					c0.2,0.1,0.5,0.1,0.7,0l2-1.1C62.4,67.4,62.4,67.2,62.3,67.1z M65.2,68.8l-1.7-1c-0.2-0.1-0.5-0.1-0.7,0l-2,1.1
					c-0.2,0.1-0.2,0.3,0,0.4l1.7,1c0.2,0.1,0.5,0.1,0.7,0l2-1.1C65.4,69.1,65.4,68.9,65.2,68.8z M68,70.3l-1.6-0.9
					c-0.2-0.1-0.4-0.1-0.6,0L63,71c-0.1,0.1-0.4,0.1-0.5,0l-2.2-1.3c-0.2-0.1-0.6-0.1-0.9,0l-5,2.9c-0.2,0.1-0.2,0.4,0,0.5l4.4,2.5
					c0.2,0.1,0.6,0.1,0.9,0l8.3-4.8C68.2,70.7,68.2,70.5,68,70.3z"/>
				<linearGradient id="SVGID_4_" gradientUnits="userSpaceOnUse" x1="24.9499" y1="93.3483" x2="62.9205" y2="72.7459">
					<stop  offset="0" style="stop-color:#FFFFFF"/>
					<stop  offset="1" style="stop-color:#FFFFFF"/>
				</linearGradient>
				<path class="st11" d="M30.4,98.6c-0.1,0-0.2,0-0.2-0.1l-1.7-1l2-1.2c0.1,0,0.1-0.1,0.2-0.1c0.1,0,0.2,0,0.2,0.1l1.7,1l-2,1.2
					C30.6,98.6,30.5,98.6,30.4,98.6z M27.6,96.9c-0.1,0-0.2,0-0.2-0.1l-1.7-1l3-1.8c0.1,0,0.1-0.1,0.2-0.1s0.2,0,0.2,0.1l1.7,1
					l-3,1.8C27.8,96.9,27.7,96.9,27.6,96.9z M33.6,96.8c-0.1,0-0.2,0-0.2-0.1l-1.7-1l2-1.2c0.1,0,0.1-0.1,0.2-0.1
					c0.1,0,0.2,0,0.2,0.1l1.7,1l-2,1.2C33.8,96.7,33.7,96.8,33.6,96.8z M24.6,95.3c-0.1,0-0.2,0-0.2-0.1l-1.7-1l2-1.2
					c0.1,0,0.1-0.1,0.2-0.1s0.2,0,0.2,0.1l1.7,1l-2,1.2C24.8,95.2,24.7,95.3,24.6,95.3z M36.8,94.9c-0.1,0-0.2,0-0.2-0.1l-1.7-1
					l2-1.2c0.1,0,0.1-0.1,0.2-0.1c0.1,0,0.2,0,0.2,0.1l1.7,1l-2,1.2C37,94.9,36.9,94.9,36.8,94.9z M31.8,94.5c-0.1,0-0.2,0-0.2-0.1
					l-1.7-1l2-1.2c0.1,0,0.1-0.1,0.2-0.1c0.1,0,0.2,0,0.2,0.1l1.7,1l-2,1.2C32,94.5,31.9,94.5,31.8,94.5z M21.8,93.6
					c-0.1,0-0.2,0-0.2-0.1l-1.7-1l3-1.8c0.1,0,0.1-0.1,0.2-0.1c0.1,0,0.2,0,0.2,0.1l1.7,1l-3,1.8C22,93.6,21.9,93.6,21.8,93.6z
					 M27.8,93.4c-0.1,0-0.2,0-0.2-0.1l-1.7-1l2-1.2c0.1,0,0.1-0.1,0.2-0.1c0.1,0,0.2,0,0.2,0.1l1.7,1l-2,1.2
					C28,93.4,27.9,93.4,27.8,93.4z M40,93.1c-0.1,0-0.2,0-0.2-0.1l-1.7-1l2-1.2c0.1,0,0.1-0.1,0.2-0.1c0.1,0,0.2,0,0.2,0.1l1.7,1
					l-2,1.2C40.2,93.1,40.1,93.1,40,93.1z M35,92.7c-0.1,0-0.2,0-0.2-0.1l-1.7-1l2-1.2c0.1,0,0.1-0.1,0.2-0.1c0.1,0,0.2,0,0.2,0.1
					l1.7,1l-2,1.2C35.2,92.6,35.1,92.7,35,92.7z M18.8,91.9c-0.1,0-0.2,0-0.2-0.1l-1.7-1l2-1.2c0.1,0,0.1-0.1,0.2-0.1s0.2,0,0.2,0.1
					l1.7,1l-2,1.2C19,91.9,18.9,91.9,18.8,91.9z M31,91.6c-0.1,0-0.2,0-0.2-0.1l-1.7-1l2-1.2c0.1,0,0.1-0.1,0.2-0.1
					c0.1,0,0.2,0,0.2,0.1l1.7,1l-2,1.2C31.2,91.6,31.1,91.6,31,91.6z M43.2,91.3c-0.1,0-0.2,0-0.2-0.1l-1.7-1l14.8-8.6
					c0.1,0,0.1-0.1,0.2-0.1c0.1,0,0.2,0,0.2,0.1l1.7,1l-14.8,8.6C43.4,91.2,43.3,91.3,43.2,91.3z M26,91.1c-0.1,0-0.2,0-0.2-0.1
					l-1.7-1l2-1.2c0.1,0,0.1-0.1,0.2-0.1s0.2,0,0.2,0.1l1.7,1l-2,1.2C26.2,91.1,26.1,91.1,26,91.1z M38.2,90.8c-0.1,0-0.2,0-0.2-0.1
					l-1.7-1l2-1.2c0.1,0,0.1-0.1,0.2-0.1c0.1,0,0.2,0,0.2,0.1l1.7,1l-2,1.2C38.4,90.8,38.3,90.8,38.2,90.8z M22,90.1
					c-0.1,0-0.2,0-0.2-0.1l-1.7-1l2-1.2c0.1,0,0.1-0.1,0.2-0.1c0.1,0,0.2,0,0.2,0.1l1.7,1l-2,1.2C22.2,90.1,22.1,90.1,22,90.1z
					 M34.2,89.7c-0.1,0-0.2,0-0.2-0.1l-1.7-1l2-1.2c0.1,0,0.1-0.1,0.2-0.1c0.1,0,0.2,0,0.2,0.1l1.7,1l-2,1.2
					C34.4,89.7,34.3,89.7,34.2,89.7z M29.2,89.3c-0.1,0-0.2,0-0.2-0.1l-1.7-1l2-1.2c0.1,0,0.1-0.1,0.2-0.1s0.2,0,0.2,0.1l1.7,1
					l-2,1.2C29.4,89.3,29.3,89.3,29.2,89.3z M41.4,89c-0.1,0-0.2,0-0.2-0.1l-1.7-1l2-1.2c0.1,0,0.1-0.1,0.2-0.1c0.1,0,0.2,0,0.2,0.1
					l1.7,1l-2,1.2C41.6,88.9,41.5,89,41.4,89z M25.2,88.2c-0.1,0-0.2,0-0.2-0.1l-1.7-1l2-1.2c0.1,0,0.1-0.1,0.2-0.1
					c0.1,0,0.2,0,0.2,0.1l1.7,1l-2,1.2C25.4,88.2,25.3,88.2,25.2,88.2z M37.4,87.9c-0.1,0-0.2,0-0.2-0.1l-1.7-1l2-1.2
					c0.1,0,0.1-0.1,0.2-0.1c0.1,0,0.2,0,0.2,0.1l1.7,1l-2,1.2C37.6,87.9,37.5,87.9,37.4,87.9z M32.4,87.5c-0.1,0-0.2,0-0.2-0.1
					l-1.7-1l2-1.2c0.1,0,0.1-0.1,0.2-0.1c0.1,0,0.2,0,0.2,0.1l1.7,1l-2,1.2C32.6,87.4,32.5,87.5,32.4,87.5z M44.6,87.1
					c-0.1,0-0.2,0-0.2-0.1l-1.7-1l2-1.2c0.1,0,0.1-0.1,0.2-0.1c0.1,0,0.2,0,0.2,0.1l1.7,1l-2,1.2C44.8,87.1,44.7,87.1,44.6,87.1z
					 M28.4,86.4c-0.1,0-0.2,0-0.2-0.1l-1.7-1l2-1.2c0.1,0,0.1-0.1,0.2-0.1c0.1,0,0.2,0,0.2,0.1l1.7,1l-2,1.2
					C28.6,86.4,28.5,86.4,28.4,86.4z M40.6,86.1c-0.1,0-0.2,0-0.2-0.1l-1.7-1l2-1.2c0.1,0,0.1-0.1,0.2-0.1s0.2,0,0.2,0.1l1.7,1
					l-2,1.2C40.8,86,40.7,86.1,40.6,86.1z M35.6,85.6c-0.1,0-0.2,0-0.2-0.1l-1.7-1l2-1.2c0.1,0,0.1-0.1,0.2-0.1c0.1,0,0.2,0,0.2,0.1
					l1.7,1l-2,1.2C35.8,85.6,35.7,85.6,35.6,85.6z M47.8,85.3c-0.1,0-0.2,0-0.2-0.1l-1.7-1l2-1.2c0.1,0,0.1-0.1,0.2-0.1
					c0.1,0,0.2,0,0.2,0.1l1.7,1l-2,1.2C48,85.3,47.9,85.3,47.8,85.3z M31.6,84.5c-0.1,0-0.2,0-0.2-0.1l-1.7-1l2-1.2
					c0.1,0,0.1-0.1,0.2-0.1c0.1,0,0.2,0,0.2,0.1l1.7,1l-2,1.2C31.8,84.5,31.7,84.5,31.6,84.5z M43.8,84.2c-0.1,0-0.2,0-0.2-0.1
					l-1.7-1l2-1.2c0.1,0,0.1-0.1,0.2-0.1s0.2,0,0.2,0.1l1.7,1l-2,1.2C44,84.2,43.9,84.2,43.8,84.2z M38.8,83.8c-0.1,0-0.2,0-0.2-0.1
					l-1.7-1l2-1.2c0.1,0,0.1-0.1,0.2-0.1c0.1,0,0.2,0,0.2,0.1l1.7,1l-2,1.2C39,83.8,38.9,83.8,38.8,83.8z M51,83.4
					c-0.1,0-0.2,0-0.2-0.1l-1.7-1l2-1.2c0.1,0,0.1-0.1,0.2-0.1c0.1,0,0.2,0,0.2,0.1l1.7,1l-2,1.2C51.2,83.4,51.1,83.4,51,83.4z
					 M34.8,82.7c-0.1,0-0.2,0-0.2-0.1l-1.7-1l2-1.2c0.1,0,0.1-0.1,0.2-0.1c0.1,0,0.2,0,0.2,0.1l1.7,1l-2,1.2
					C35,82.7,34.9,82.7,34.8,82.7z M47,82.4c-0.1,0-0.2,0-0.2-0.1l-1.7-1l2-1.2c0.1,0,0.1-0.1,0.2-0.1c0.1,0,0.2,0,0.2,0.1l1.7,1
					l-2,1.2C47.2,82.3,47.1,82.4,47,82.4z M59.1,82c-0.1,0-0.2,0-0.2-0.1l-1.7-1l3-1.8c0.1,0,0.1-0.1,0.2-0.1c0.1,0,0.2,0,0.2,0.1
					l1.7,1l-3,1.8C59.3,82,59.2,82,59.1,82z M42,81.9c-0.1,0-0.2,0-0.2-0.1l-1.7-1l2-1.2c0.1,0,0.1-0.1,0.2-0.1c0.1,0,0.2,0,0.2,0.1
					l1.7,1l-2,1.2C42.2,81.9,42.1,81.9,42,81.9z M54.2,81.6c-0.1,0-0.2,0-0.2-0.1l-1.7-1l2-1.2c0.1,0,0.1-0.1,0.2-0.1
					c0.1,0,0.2,0,0.2,0.1l1.7,1l-2,1.2C54.3,81.6,54.3,81.6,54.2,81.6z M38,80.9c-0.1,0-0.2,0-0.2-0.1l-1.7-1l2-1.2
					c0.1,0,0.1-0.1,0.2-0.1c0.1,0,0.2,0,0.2,0.1l1.7,1l-2,1.2C38.2,80.8,38.1,80.9,38,80.9z M50.2,80.5c-0.1,0-0.2,0-0.2-0.1l-1.7-1
					l2-1.2c0.1,0,0.1-0.1,0.2-0.1c0.1,0,0.2,0,0.2,0.1l1.7,1l-2,1.2C50.3,80.5,50.3,80.5,50.2,80.5z M45.2,80.1
					c-0.1,0-0.2,0-0.2-0.1l-1.7-1l2-1.2c0.1,0,0.1-0.1,0.2-0.1c0.1,0,0.2,0,0.2,0.1l1.7,1l-2,1.2C45.4,80.1,45.3,80.1,45.2,80.1z
					 M57.4,79.8c-0.1,0-0.2,0-0.2-0.1l-1.7-1l2-1.2c0.1,0,0.1-0.1,0.2-0.1c0.1,0,0.2,0,0.2,0.1l1.7,1l-2,1.2
					C57.5,79.7,57.4,79.8,57.4,79.8z M41.2,79c-0.1,0-0.2,0-0.2-0.1l-1.7-1l2-1.2c0.1,0,0.1-0.1,0.2-0.1s0.2,0,0.2,0.1l1.7,1l-2,1.2
					C41.4,79,41.3,79,41.2,79z M53.4,78.7c-0.1,0-0.2,0-0.2-0.1l-1.7-1l3-1.8c0.1,0,0.1-0.1,0.2-0.1c0.1,0,0.2,0,0.2,0.1l1.7,1
					l-3,1.8C53.5,78.7,53.4,78.7,53.4,78.7z M65.2,78.6c-0.1,0-0.2,0-0.2-0.1l-1.7-1l2-1.2c0.1,0,0.1-0.1,0.2-0.1s0.2,0,0.2,0.1
					l1.7,1l-2,1.2C65.4,78.6,65.3,78.6,65.2,78.6z M48.4,78.3c-0.1,0-0.2,0-0.2-0.1l-1.7-1l2-1.2c0.1,0,0.1-0.1,0.2-0.1
					c0.1,0,0.2,0,0.2,0.1l1.7,1l-2,1.2C48.5,78.2,48.5,78.3,48.4,78.3z M44.4,77.2c-0.1,0-0.2,0-0.2-0.1l-1.7-1l2-1.2
					c0.1,0,0.1-0.1,0.2-0.1c0.1,0,0.2,0,0.2,0.1l1.7,1l-2,1.2C44.5,77.2,44.5,77.2,44.4,77.2z M62.3,76.9c-0.1,0-0.2,0-0.2-0.1
					l-1.7-1l2-1.2c0.1,0,0.1-0.1,0.2-0.1c0.1,0,0.2,0,0.2,0.1l1.7,1l-2,1.2C62.5,76.9,62.4,76.9,62.3,76.9z M68.4,76.8
					c-0.1,0-0.2,0-0.2-0.1l-1.7-1l2-1.2c0.1,0,0.1-0.1,0.2-0.1c0.1,0,0.2,0,0.2,0.1l1.7,1l-2,1.2C68.6,76.8,68.5,76.8,68.4,76.8z
					 M51.6,76.4c-0.1,0-0.2,0-0.2-0.1l-1.7-1l2-1.2c0.1,0,0.1-0.1,0.2-0.1c0.1,0,0.2,0,0.2,0.1l1.7,1l-2,1.2
					C51.7,76.4,51.7,76.4,51.6,76.4z M47.6,75.3c-0.1,0-0.2,0-0.2-0.1l-1.7-1l3-1.8c0.1,0,0.1-0.1,0.2-0.1c0.1,0,0.2,0,0.2,0.1
					l1.7,1l-3,1.8C47.7,75.3,47.6,75.3,47.6,75.3z M59.3,75.2c-0.1,0-0.2,0-0.3-0.1l-4.4-2.5v-0.1l5-2.9c0.1,0,0.2-0.1,0.3-0.1
					c0.1,0,0.2,0,0.3,0.1l2.2,1.3c0.1,0.1,0.2,0.1,0.3,0.1c0.1,0,0.2,0,0.3-0.1l2.8-1.6c0,0,0.1,0,0.2,0c0.1,0,0.1,0,0.2,0l1.6,0.9
					v0.1l-8.3,4.8C59.5,75.2,59.4,75.2,59.3,75.2z M65.5,75.1c-0.1,0-0.2,0-0.2-0.1l-1.7-1l2-1.2c0.1,0,0.1-0.1,0.2-0.1
					c0.1,0,0.2,0,0.2,0.1l1.7,1l-2,1.2C65.7,75.1,65.6,75.1,65.5,75.1z M71.6,74.9c-0.1,0-0.2,0-0.2-0.1l-1.7-1l2-1.2
					c0.1,0,0.1-0.1,0.2-0.1c0.1,0,0.2,0,0.2,0.1l1.7,1l-2,1.2C71.8,74.9,71.7,74.9,71.6,74.9z M68.7,73.3c-0.1,0-0.2,0-0.2-0.1
					l-1.7-1l2-1.2c0.1,0,0.1-0.1,0.2-0.1c0.1,0,0.2,0,0.2,0.1l1.7,1l-2,1.2C68.9,73.2,68.8,73.3,68.7,73.3z M53.6,71.9
					c-0.1,0-0.2,0-0.2-0.1l-1.7-1l2-1.2c0.1,0,0.1-0.1,0.2-0.1c0.1,0,0.2,0,0.2,0.1l1.7,1l-2,1.2C53.7,71.9,53.6,71.9,53.6,71.9z
					 M56.7,70.1c-0.1,0-0.2,0-0.2-0.1l-1.7-1l2-1.2c0.1,0,0.1-0.1,0.2-0.1s0.2,0,0.2,0.1l1.7,1L57,70C56.9,70,56.8,70.1,56.7,70.1z
					 M62.8,69.9c-0.1,0-0.2,0-0.2-0.1l-1.7-1l2-1.2c0.1,0,0.1-0.1,0.2-0.1c0.1,0,0.2,0,0.2,0.1l1.7,1l-2,1.2
					C63,69.9,62.9,69.9,62.8,69.9z M59.9,68.2c-0.1,0-0.2,0-0.2-0.1l-1.7-1l2-1.2c0.1,0,0.1-0.1,0.2-0.1s0.2,0,0.2,0.1l1.7,1l-2,1.2
					C60.1,68.2,60,68.2,59.9,68.2z"/>
				<path class="st10" d="M68.8,88.9l-12.1,7c0,0,0,0,0,0l-7.8-4.5c0,0,0,0,0,0l12.1-7c0,0,0,0,0,0L68.8,88.9
					C68.8,88.9,68.8,88.9,68.8,88.9z"/>
				<path class="st12" d="M9.8,89c-0.5-0.3-1-0.1-1,0.6c0,0.6,0.4,1.4,1,1.7c0.5,0.3,1,0.1,1-0.6C10.7,90,10.3,89.3,9.8,89z"/>
			</g>
			<g>
				<path class="st12" d="M33,104.9l-1.8-1.1c-0.1-0.1-0.2-0.2-0.2-0.3v-0.4c0-0.1,0.1-0.2,0.2-0.1L33,104c0.1,0.1,0.2,0.2,0.2,0.3
					v0.4C33.2,104.9,33.1,104.9,33,104.9z"/>
				<path class="st12" d="M36.5,106.9l-1.8-1.1c-0.1-0.1-0.2-0.2-0.2-0.3v-0.4c0-0.1,0.1-0.2,0.2-0.1l1.8,1.1
					c0.1,0.1,0.2,0.2,0.2,0.3v0.4C36.7,106.9,36.6,107,36.5,106.9z"/>
			</g>
			<path class="st10" d="M61,84.3C61,84.3,61,84.3,61,84.3l-12.1,7c0,0,0,0,0,0l0.5,0.3L61,85c0,0,0,0,0,0l7.3,4.2l0.5-0.3
				c0,0,0,0,0,0L61,84.3z"/>
			<linearGradient id="SVGID_5_" gradientUnits="userSpaceOnUse" x1="57.7488" y1="27.8405" x2="37.947" y2="51.3992">
				<stop  offset="0" style="stop-color:#000000"/>
				<stop  offset="0.3006" style="stop-color:#060606"/>
				<stop  offset="0.6983" style="stop-color:#151717"/>
				<stop  offset="1" style="stop-color:#262828"/>
			</linearGradient>
			<polygon class="st13" points="49.4,64.2 57.2,59.7 48.5,23.1 23.1,37.9 			"/>
		</g>
		<g>
			<g>
				<defs>
					<path id="SVGID_6_" d="M49.7,56.4L45,59.2c-1.1,0.6-2.5,0-2.8-1.2l-4.9-20.8c-0.2-0.8,0.2-1.7,0.9-2.1l4.7-2.7
						c1.1-0.6,2.5,0,2.8,1.2l4.9,20.8C50.8,55.2,50.5,56,49.7,56.4z M35.9,62.9L31,42.1c-0.3-1.2-1.7-1.8-2.8-1.2l-4.7,2.7
						c-0.7,0.4-1.1,1.3-0.9,2.1l4.9,20.8c0.3,1.2,1.7,1.8,2.8,1.2l4.7-2.7C35.7,64.5,36.1,63.7,35.9,62.9z M21.2,71.4l-4.9-20.8
						c-0.3-1.2-1.7-1.8-2.8-1.2l-4.7,2.7c-0.7,0.4-1.1,1.3-0.9,2.1l4.9,20.8c0.3,1.2,1.7,1.8,2.8,1.2l4.7-2.7
						C21,73,21.4,72.2,21.2,71.4z"/>
				</defs>
				<linearGradient id="SVGID_7_" gradientUnits="userSpaceOnUse" x1="7.8057" y1="54.2686" x2="50.682" y2="54.2686">
					<stop  offset="0" style="stop-color:#1F2121"/>
					<stop  offset="1" style="stop-color:#000000"/>
				</linearGradient>
				<use xlink:href="#SVGID_6_"  style="overflow:visible;fill:url(#SVGID_7_);"/>
				<clipPath id="SVGID_8_">
					<use xlink:href="#SVGID_6_"  style="overflow:visible;"/>
				</clipPath>
				<g class="st14">
					<g>
						<g>
							<g class="st0">
								<g class="st0">
									<linearGradient id="SVGID_9_" gradientUnits="userSpaceOnUse" x1="34.7479" y1="37.7639" x2="44.9756" y2="55.4787">
										<stop  offset="0" style="stop-color:#A1A1A1"/>
										<stop  offset="5.926923e-02" style="stop-color:#B3B3B3"/>
										<stop  offset="0.1864" style="stop-color:#D4D4D4"/>
										<stop  offset="0.3082" style="stop-color:#ECECEC"/>
										<stop  offset="0.4213" style="stop-color:#FAFAFA"/>
										<stop  offset="0.5171" style="stop-color:#FFFFFF"/>
										<stop  offset="0.6211" style="stop-color:#FBFBFB"/>
										<stop  offset="0.7194" style="stop-color:#F0F0F0"/>
										<stop  offset="0.8155" style="stop-color:#DDDDDD"/>
										<stop  offset="0.9097" style="stop-color:#C2C2C2"/>
										<stop  offset="1" style="stop-color:#A1A1A1"/>
									</linearGradient>
									<path class="st15" d="M46.9,44.8c-0.7-1.6-1.7-3.1-2.8-4.4c-1-1.1-2-2-3.2-2.7c-2-1.2-3.8-1.3-5.2-0.5L31,40
										c0.1,0.3,0.1,0.7,0.2,1c0.8,0.1,1.6,0.4,2.5,0.9c1.1,0.7,2.2,1.6,3.2,2.7c1.1,1.3,2.1,2.8,2.8,4.4c0.8,1.8,1.3,3.7,1.3,5.4
										c0,2.3-0.8,3.9-2.1,4.6l7.2-4.2c1.3-0.8,2.1-2.4,2.1-4.6C48.1,48.5,47.7,46.6,46.9,44.8z"/>
									<g>
										<path class="st16" d="M40.2,45.5c0,0-0.1,0-0.1,0c0,0,0,0,0,0c-0.1-0.1-0.2-0.2-0.2-0.4c0.1,0,0.2-0.1,0.3,0
											C40.1,45.1,40.3,45.3,40.2,45.5C40.2,45.4,40.2,45.5,40.2,45.5L40.2,45.5z M39.6,45.1C39.6,45.1,39.6,45.1,39.6,45.1
											c0.1,0.2,0.1,0.3,0.3,0.5c0.1,0.1,0.1,0.1,0.1,0.1c0.1,0,0.3,0,0.3-0.2c0-0.1-0.2-0.4-0.3-0.5
											C39.9,44.9,39.8,45,39.6,45.1L39.6,45.1z M39.5,44.7c-0.1-0.1-0.2-0.2-0.3-0.3c0-0.1,0.2-0.1,0.2-0.1c0,0,0.1,0,0.2,0.2
											C39.7,44.6,39.6,44.6,39.5,44.7L39.5,44.7z M39.3,44.2c-0.1,0.1-0.2,0.1-0.1,0.2c0,0,0,0,0.3,0.5c0.2-0.1,0.3-0.2,0.3-0.3
											c0-0.1-0.2-0.4-0.3-0.4C39.4,44.1,39.3,44.1,39.3,44.2L39.3,44.2z M38.8,44.3c0-0.2,0.4-0.4,0.7-0.5c0.1,0,0.2,0,0.2,0
											c0,0,0,0,0,0c0.1,0,0.1,0.1,0.2,0.1c0.1,0,0.1,0,0.2,0.1c0,0.1,0,0.1,0,0.1c0,0.1,0.1,0.1,0.1,0.2c0,0,0,0,0,0
											c0,0,0,0,0,0c0,0.1-0.1,0.2-0.1,0.2c0.3-0.1,0.4,0.1,0.6,0.2c0,0.2,0,0.2,0,0.3c0.1,0.2,0.1,0.3,0,0.4
											c-0.2,0.2-0.6,0.4-0.8,0.4c0,0.2-0.2,0.4-0.4,0.3c0.1-0.2,0-0.3-0.1-0.5c-0.2-0.3-0.4-0.3-0.4-0.3c0,0,0,0,0,0
											c0-0.3,0-0.3-0.2-0.5c-0.2-0.2-0.3-0.2-0.5-0.3C38.3,44.4,38.5,44.3,38.8,44.3L38.8,44.3z M39.1,43.9
											c-0.2,0.1-0.3,0.3-0.4,0.3c-0.3,0-0.6,0.1-0.4,0.4c0.2,0,0.3,0,0.5,0.3c0.1,0.2,0.1,0.2,0.1,0.3c0,0.1,0,0.2,0.1,0.2
											c0.1,0,0.2,0,0.2,0.1c0.1,0.1,0.2,0.3,0.2,0.3c0.1,0.2,0,0.2,0,0.4c0.2,0.1,0.5,0.1,0.6-0.2c0.3,0,0.7-0.2,0.9-0.5
											c0.1-0.1,0.1-0.2,0.1-0.3c0-0.1-0.1-0.1-0.1-0.2c0-0.1,0-0.1,0-0.2c0,0,0,0,0-0.1c0,0-0.5-0.3-0.5-0.3c0,0,0-0.1,0-0.1
											c0,0,0,0,0,0c0-0.1-0.1-0.1-0.1-0.2c0-0.1,0.1-0.1,0-0.2c0-0.1-0.1-0.1-0.2-0.1c-0.1,0-0.2-0.1-0.3-0.2
											C39.6,43.6,39.4,43.7,39.1,43.9L39.1,43.9z"/>
										<path class="st17" d="M40.3,45.6c-0.1,0.1-0.2,0.1-0.3,0c0,0-0.1-0.1-0.2-0.2c-0.1-0.1-0.1-0.2-0.2-0.3
											c0.2-0.1,0.3-0.1,0.4-0.1c0.1,0,0.3,0.3,0.3,0.5C40.3,45.5,40.3,45.5,40.3,45.6L40.3,45.6z M39.5,44.8
											C39.5,44.9,39.5,44.9,39.5,44.8c-0.4-0.4-0.4-0.4-0.4-0.5c0-0.1,0.2-0.2,0.3-0.2c0.2,0,0.3,0.4,0.3,0.4
											c0.1,0.1-0.1,0.2-0.1,0.3C39.6,44.8,39.6,44.8,39.5,44.8L39.5,44.8z M39.1,44c-0.2,0.1-0.3,0.2-0.4,0.4
											c-0.3-0.1-0.5,0.1-0.4,0.2c0.2,0,0.3,0,0.5,0.3C39,45,39,45,39,45.3c0,0,0,0,0,0c0.1,0,0.2,0,0.4,0.3
											c0.1,0.2,0.1,0.4,0.1,0.5c0.2,0,0.4-0.1,0.4-0.3c0.3,0.1,1.1-0.4,0.9-0.7c0,0-0.1-0.1,0-0.3c-0.2-0.1-0.2-0.1-0.2-0.1
											c-0.1,0-0.1-0.1-0.2-0.1c-0.1,0-0.2,0-0.2,0c0.1-0.1,0.1-0.3,0.1-0.3c0-0.1-0.1-0.1-0.1-0.2c0-0.1,0-0.1,0-0.1
											c0,0,0,0,0,0C40.1,44,40,44,40,44c-0.1,0-0.1-0.1-0.2-0.1c0,0-0.1,0-0.1,0C39.6,43.8,39.4,43.8,39.1,44L39.1,44z"/>
										<path class="st16" d="M41.1,43.6c0.1,0.2,0.1,0.3,0.2,0.5c0.1,0,0.2-0.1,0.2-0.1C41.3,43.9,41.2,43.8,41.1,43.6L41.1,43.6
											z M40.9,42.8c-0.1,0.1-0.2,0.1-0.2,0.2c-0.4,0-0.5,0.3-0.4,0.4c0.1,0,0.1,0,0.2,0.1c0,0,0.1,0.2,0.1,0.2
											c0,0.1,0.1,0.3,0.1,0.5c-0.1,0-0.1,0-0.2,0c-0.2,0.1,0,0.3,0.1,0.3c0,0.1,0.2,0.3,0.3,0.2C41,45,41,45,41,45.2
											c0,0.1,0,0.1,0,0.2c0.2,0.2,0.4,0,0.5-0.2c0,0,0,0,0,0c0.4,0.1,0.4-0.3,0.4-0.4c-0.2,0-0.3-0.1-0.4-0.5
											c0.1,0,0.1-0.1,0.2-0.1c0.4,0.3,0.3,0.3,0.3,0.5c0.4,0.3,0.6-0.2,0.6-0.2c0.2,0,0.4-0.1,0.5-0.2c0,0-0.1,0-0.1-0.1
											c0,0-0.1,0.2-0.5,0.1c0,0.2-0.2,0.3-0.4,0.3c0-0.3-0.1-0.4-0.4-0.6c-0.1,0.1-0.2,0.1-0.3,0.2c0.1,0.4,0.2,0.6,0.4,0.6
											c0,0.2-0.2,0.2-0.3,0.1c0,0.1-0.2,0.4-0.3,0.3c0.1-0.3,0.1-0.4,0-0.8c-0.1,0.1-0.1,0.1-0.1,0.1c-0.1,0-0.1-0.1,0-0.2
											c-0.2,0-0.2-0.1-0.2-0.1c0,0,0,0,0,0c0.1,0,0.2,0,0.3-0.1c-0.2-0.6-0.2-0.6-0.2-0.7c-0.1-0.1-0.2-0.2-0.2-0.2
											c-0.1,0-0.1,0-0.1-0.1c0-0.1,0.1-0.2,0.4-0.1c0-0.2,0.3-0.3,0.3-0.3c0,0,0,0,0,0c0,0.1,0.1,0.3,0.3,0.4
											c0.1,0.1,0.3,0.2,0.5,0.2c0,0,0,0,0,0c0,0.2,0.1,0.3,0.3,0.5c0.2,0.2,0.4,0.2,0.5,0.2c0,0,0-0.1,0-0.1
											c-0.1,0-0.3-0.1-0.5-0.2c0,0-0.2-0.2-0.2-0.3c0,0,0-0.1,0-0.2c0,0-0.1,0-0.1-0.1c-0.1,0-0.3,0-0.5-0.2
											c-0.1-0.1-0.2-0.2-0.2-0.3C41.2,42.8,41.1,42.7,40.9,42.8L40.9,42.8z"/>
										<path class="st17" d="M41.2,44.1c-0.1-0.2-0.1-0.3-0.2-0.5c0.1,0.1,0.3,0.2,0.4,0.3C41.4,44,41.3,44.1,41.2,44.1
											L41.2,44.1z M40.5,43.2c-0.1,0.1-0.1,0.1-0.1,0.1c0,0,0,0,0.1,0c0,0,0.1,0,0.1,0.1c0.1,0.1,0.1,0.1,0.4,0.9
											c-0.1,0-0.2,0.1-0.3,0.1c0,0.1,0,0.1,0.1,0.1c0,0,0,0,0,0c-0.1,0.1,0,0.2,0,0.2c0,0,0,0,0,0c0-0.1,0.1-0.1,0.1-0.1
											c0.1,0.5,0.2,0.6,0,0.8c0.1,0.1,0.3-0.1,0.3-0.3c0.1,0.1,0.3,0.1,0.3-0.1c-0.3-0.1-0.3-0.2-0.4-0.6
											c0.1-0.1,0.2-0.1,0.3-0.2c0.3,0.3,0.5,0.4,0.4,0.6c0.1,0.1,0.4,0,0.4-0.3c0.3,0.1,0.4-0.1,0.5-0.1c-0.1,0-0.1,0-0.1-0.1
											c-0.1,0-0.3-0.1-0.5-0.3c-0.3-0.2-0.2-0.4-0.2-0.4c0,0,0,0,0,0c-0.1,0-0.2,0-0.3-0.1c-0.1,0-0.2-0.1-0.3-0.2
											c-0.1-0.1-0.2-0.3-0.2-0.3c0-0.1-0.2-0.1-0.2,0c0,0-0.2,0.1-0.1,0.3C40.7,43.1,40.6,43.1,40.5,43.2L40.5,43.2z"/>
										<path class="st16" d="M42.9,42.7c-0.1-0.1-0.2-0.2-0.3-0.4c0,0,0.1-0.1,0.1-0.1c0.1,0.1,0.2,0.2,0.2,0.3
											C43,42.7,43,42.7,42.9,42.7L42.9,42.7z M42.6,42.2c-0.1,0-0.1,0.1-0.1,0.1c0.1,0.2,0.3,0.4,0.4,0.5
											c0.1-0.1,0.3-0.2,0.3-0.2c0,0,0-0.1-0.1-0.1c0,0-0.2-0.3-0.3-0.3C42.8,42.2,42.7,42.2,42.6,42.2L42.6,42.2z M42.2,42.3
											c0-0.2,0.7-0.6,1-0.4c0.1,0.1,0.1,0.1,0.3,0.2c0,0.2,0,0.2,0,0.2c0.1,0.2,0.1,0.2,0.1,0.2c0,0.1-0.1,0.2-0.1,0.2
											c0.5-0.1,0.6,0.6,1.1,0.6c-0.1,0.2-0.3,0.4-0.5,0.3c-0.2,0-0.3-0.2-0.6-0.5c-0.2-0.2-0.2-0.2-0.5,0
											c0.4,0.6,0.4,0.6,0.7,0.7c0,0.1-0.2,0.3-0.4,0.2c0,0.2-0.2,0.4-0.3,0.3c0.1-0.2,0-0.3-0.1-0.5c-0.1-0.2-0.1-0.2-0.5-0.3
											c0-0.1,0-0.2,0-0.2c0-0.1-0.1-0.2-0.2-0.3c-0.2-0.2-0.2-0.3-0.5-0.3C41.7,42.5,41.9,42.3,42.2,42.3L42.2,42.3z M42.4,41.9
											c-0.2,0.1-0.3,0.2-0.3,0.3c-0.3,0-0.6,0.1-0.4,0.4c0.2,0,0.3,0,0.4,0.3c0,0,0,0,0,0c0.1,0.2,0.1,0.2,0.1,0.3
											c0,0,0,0.1,0,0.1c0,0.1,0.1,0.1,0.2,0.1c0.2,0,0.3,0.2,0.3,0.3c0.1,0.2,0.1,0.2,0.1,0.4c0,0.2,0.2,0.2,0.2,0.2
											c0,0,0.2,0,0.3-0.3c0.3,0,0.6-0.1,0.4-0.4c-0.2-0.1-0.2-0.1-0.6-0.5c0.1-0.1,0.1-0.1,0.2,0c0.4,0.5,0.4,0.5,0.5,0.5
											c0.1,0.1,0.6,0.2,0.8-0.5c-0.3,0-0.4,0-0.6-0.2c-0.2-0.2-0.3-0.3-0.4-0.3c0-0.1,0-0.1,0-0.1L43.6,42
											c0-0.1-0.1-0.1-0.2-0.1C43.2,41.8,43,41.6,42.4,41.9L42.4,41.9z"/>
										<path class="st17" d="M42.9,42.9c-0.4-0.5-0.4-0.5-0.4-0.5c0-0.1,0.2-0.2,0.3-0.2c0.1,0,0.3,0.4,0.3,0.4
											c0,0.1-0.1,0.2-0.1,0.2C43,42.8,42.9,42.9,42.9,42.9L42.9,42.9z M42.5,42c-0.1,0.1-0.3,0.2-0.3,0.3
											c-0.3,0-0.5,0.1-0.5,0.2c0.3,0.1,0.3,0.1,0.5,0.3c0.1,0.1,0.1,0.2,0.2,0.3c0,0.1,0,0.2,0,0.2c0.3,0.2,0.3,0.2,0.5,0.3
											c0.1,0.2,0.1,0.4,0.1,0.5c0.1,0.1,0.3-0.1,0.3-0.3c0.2,0.1,0.5-0.1,0.4-0.2c-0.2-0.1-0.2-0.1-0.7-0.7
											c0.3-0.2,0.3-0.2,0.5,0c0.3,0.3,0.4,0.5,0.6,0.5c0.1,0,0.4-0.1,0.5-0.3c-0.5,0-0.5-0.7-1.1-0.6c0.2-0.2,0-0.4,0-0.6
											c0,0,0,0,0,0c-0.1,0-0.1,0-0.2-0.1c-0.2-0.2-0.2-0.2-0.3-0.2C42.9,41.8,42.7,41.9,42.5,42L42.5,42z"/>
										<path class="st16" d="M42.6,56.8c0.2-0.1,0.4-0.4,0.7-0.5c0,0,0.3-0.1,0.3-0.1c0,0,0,0,0,0c0,0-0.2,0.2-0.4,0.3L42.6,56.8
											L42.6,56.8z M42,57.2c0.2-0.2,0.5-0.4,0.7-0.6c0,0,0,0,0.1-0.1c0,0,0,0,0,0c0.1,0,0.2-0.1,0.2-0.1
											c-0.2,0.2-0.5,0.4-0.7,0.5L42,57.2L42,57.2z M42.8,56.5c-0.2,0.1-0.4,0.2-0.4,0.1c0,0,0.3-0.5,0.5-0.8
											c0.2-0.2,0.4-0.4,0.6-0.5C43.1,56.1,42.9,56.4,42.8,56.5L42.8,56.5z M43.3,56.2c-0.1,0.1-0.2,0.1-0.3,0.2
											c0.4-0.5,0.4-0.6,0.7-1.2c0.1-0.1,0.3-0.2,0.4-0.2C43.8,55.6,43.5,56.1,43.3,56.2L43.3,56.2z M41,57.8l0.3-0.2l0.1,0
											c0,0,0.1-0.1,0.2-0.1C41.4,57.5,41.2,57.6,41,57.8C41,57.8,41,57.8,41,57.8L41,57.8z M41.9,57.3l1.6-1l0,0
											C44,56,44,56,44,55.9c-0.1,0-0.2,0-0.5,0.2c0.3-0.4,0.5-0.7,0.8-1.3c0.1-0.1,0.5-0.3,0.4,0.1c0,0.1-0.1,0.2-0.1,0.2
											c0,0,0,0,0,0c0.6-0.3,0.5-0.7,0.4-0.8c-0.1-0.1-0.4,0.1-0.6,0.2c0-0.2,0.1-0.4,0.2-0.5c0,0,0,0,0,0c0,0,0,0-0.1,0
											c-0.1,0.1-0.1,0.1-0.2,0.6c-0.1,0.1-0.3,0.2-0.4,0.2l0.2-0.5c0,0,0,0,0,0c-0.1,0-0.1,0-0.3,0.7c-1.2,0.8-1.5,1.8-1.5,1.8
											c0.1,0,0.2,0,0.6-0.2C42.2,57.1,42.2,57.1,41.9,57.3L41.9,57.3z"/>
										<path class="st17" d="M36,40.6c-0.1,0-0.1,0-0.1,0.1l0.3-0.2C36.1,40.5,36.1,40.5,36,40.6C36,40.6,36,40.6,36,40.6
											L36,40.6z M37.1,41.3c0.4-0.2,0.5-0.5,0.5-0.6C37.3,40.6,37,40.3,37,40c-0.5,0.3-1.3,0.7-1.8,1.1l0.1,0.1
											C35.9,41.6,36.8,41.5,37.1,41.3L37.1,41.3z"/>
										<path class="st18" d="M37.2,41.4c-0.6,0.3-1.6,0.1-2.2-0.3l0.1-0.1c0.8,0.6,2.4,0.6,2.5-0.3c0.1,0,0.1,0.1,0.2,0.1
											C37.8,40.9,37.7,41.2,37.2,41.4L37.2,41.4z"/>
										<path class="st17" d="M38.2,39.9c-0.3,0.2-0.8,0.1-0.8-0.2l0.7-0.4c0.4,0,0.5,0.3,0.3,0.5C38.3,39.8,38.3,39.9,38.2,39.9
											C38.2,39.9,38.2,39.9,38.2,39.9L38.2,39.9z M39.4,40.8c0.8-0.3,0.6-1.2-0.2-1.5c-0.4-0.1-0.7-0.1-0.7-0.1
											c-0.4,0.1-0.9,0.5-1.2,0.7l0,0.1C37.2,40.7,38.6,41.1,39.4,40.8L39.4,40.8z"/>
										<path class="st18" d="M39.4,40.8c-0.8,0.4-2.2-0.2-2.2-0.9l1.2-0.7c1.3,0,1.8,0.9,1.3,1.5c0,0-0.1,0.1-0.2,0.1
											C39.4,40.8,39.4,40.8,39.4,40.8L39.4,40.8z M39.5,40.9c0.8-0.4,0.7-1.3-0.2-1.7c-0.3-0.1-0.7-0.1-0.7-0.1
											C38,39.2,37.4,39.7,37,40l0,0C37.2,40.8,38.6,41.3,39.5,40.9L39.5,40.9z"/>
										<path class="st19" d="M38.2,39.9c-0.3,0.2-0.8,0.1-0.8-0.2l0.7-0.4c0.4,0,0.5,0.3,0.3,0.5C38.3,39.8,38.3,39.9,38.2,39.9
											L38.2,39.9z"/>
										<path class="st16" d="M42.9,48.1c0-0.6,0.4-0.7,1-0.8c0.5-0.1,0.7-0.2,0.7-0.5c0.2-0.1,0.4-0.2,0.5-0.3
											c0.3,0.8,0.3,1.2,0.1,2.4C45,50,45,50.5,45,51.7c-0.2,0.1-0.5,0.3-0.7,0.4c-0.2,0.1-0.5,0.3-0.6,0.4c0-0.5,0-1.2,0.1-1.8
											c0.2-0.9,0.6-1.6,0.9-2.5c0,0,0,0,0,0c-0.2,0.4-0.4,0.5-0.8,0.6c-0.4,0.1-0.5,0.2-0.3,0.8c-0.2,0.1-0.5,0.3-0.7,0.4
											c0,0,0,0,0,0c-0.3-0.9-0.3-1-0.6-1.8c0.2-0.1,0.5-0.3,0.7-0.4c0,0,0,0,0,0L42.9,48.1L42.9,48.1z M43.2,47.2
											c-0.2,0.1-0.2,0.2-0.3,0.3l0,0c-0.2,0.1-0.5,0.3-0.7,0.4c-0.1,0.1-0.2,0.1-0.3,0.2c0.2,0.6,0.5,1.3,0.7,2.2
											c0.2-0.1,0.5-0.3,0.7-0.4c0.1-0.1,0.2-0.1,0.3-0.2c0-0.2-0.1-0.6-0.1-0.6c0.2-0.2,0.4-0.1,0.7-0.2
											c-0.7,2.2-0.7,2.2-0.7,3.9c0.6-0.3,1.1-0.6,1.7-1c0-1,0-1.6,0.2-2.7c0.2-1.4,0.3-1.8-0.1-2.9c-0.3,0.2-0.5,0.3-0.8,0.5
											c0,0.3,0,0.3-0.5,0.4C43.7,47.1,43.5,47.1,43.2,47.2L43.2,47.2z"/>
										<path class="st20" d="M43.3,47.4c-0.2,0.1-0.3,0.3-0.4,0.6l-0.1-0.3c-0.2,0.1-0.5,0.3-0.7,0.4c0,0,0,0,0,0
											c0.3,0.9,0.4,1,0.6,1.8c0.2-0.1,0.5-0.3,0.7-0.4c0,0,0,0,0,0c-0.2-0.7,0-0.8,0.3-0.8c0.3-0.1,0.6-0.2,0.8-0.6c0,0,0,0,0,0
											c-0.3,0.8-0.7,1.6-0.9,2.5c-0.1,0.6-0.1,1.3-0.1,1.8c0.5-0.3,0.9-0.5,1.4-0.8c0-1.2,0-1.7,0.2-2.9
											c0.2-1.2,0.2-1.6-0.1-2.4c-0.2,0.1-0.4,0.2-0.5,0.3c0,0.3-0.2,0.4-0.7,0.5C43.7,47.3,43.5,47.3,43.3,47.4L43.3,47.4z"/>
									</g>
								</g>
							</g>
							<g class="st0">
								<g class="st0">
									<linearGradient id="SVGID_10_" gradientUnits="userSpaceOnUse" x1="20.6183" y1="45.9219" x2="30.844" y2="63.6333">
										<stop  offset="0" style="stop-color:#A1A1A1"/>
										<stop  offset="5.926923e-02" style="stop-color:#B3B3B3"/>
										<stop  offset="0.1864" style="stop-color:#D4D4D4"/>
										<stop  offset="0.3082" style="stop-color:#ECECEC"/>
										<stop  offset="0.4213" style="stop-color:#FAFAFA"/>
										<stop  offset="0.5171" style="stop-color:#FFFFFF"/>
										<stop  offset="0.6211" style="stop-color:#FBFBFB"/>
										<stop  offset="0.7194" style="stop-color:#F0F0F0"/>
										<stop  offset="0.8155" style="stop-color:#DDDDDD"/>
										<stop  offset="0.9097" style="stop-color:#C2C2C2"/>
										<stop  offset="1" style="stop-color:#A1A1A1"/>
									</linearGradient>
									<path class="st21" d="M32.1,53.3c-0.7-1.6-1.7-3.1-2.8-4.4c-1-1.1-2-2-3.2-2.7c-2-1.2-3.8-1.3-5.2-0.5l-4.4,2.5
										c0,0.4,0.1,0.8,0.1,1.3c0.7,0.1,1.4,0.4,2.2,0.9c1.1,0.7,2.2,1.6,3.2,2.7c1.1,1.3,2.1,2.8,2.8,4.4c0.8,1.8,1.3,3.7,1.3,5.4
										c0,1.6-0.4,2.8-1.1,3.7c0,0.1,0.1,0.2,0.1,0.3l6-3.5c1.3-0.8,2.1-2.4,2.1-4.6C33.4,57,32.9,55.1,32.1,53.3z"/>
									<g>
										<path class="st16" d="M27.3,52.7c-0.6-0.9-0.7-0.9-1.3-1.7c0.3,0,0.7-0.1,1,0.2c0,0,0.8,0.8,0.5,1.3
											C27.5,52.6,27.5,52.6,27.3,52.7L27.3,52.7z M26.8,53.1c-0.5-0.8-0.8-1.2-1.4-1.9c0.2,0,0.3-0.1,0.5-0.1
											c0.7,0.9,0.7,0.9,1.3,1.8C27,52.9,26.9,53,26.8,53.1L26.8,53.1z M24.8,50.9c-0.4,0.1-0.7,0.1-1-0.1c0,0-0.5-0.4-0.7-0.7
											c-0.1-0.2-0.1-0.3,0-0.4c0.1-0.1,0.1-0.1,0.2-0.2C24.1,50.2,24.1,50.2,24.8,50.9L24.8,50.9z M25.5,50.7
											c-0.2,0-0.3,0.1-0.5,0.1c-0.8-0.8-0.8-0.8-1.6-1.4c0.1-0.1,0.3-0.2,0.4-0.2C24.5,49.7,24.9,50,25.5,50.7L25.5,50.7z
											 M23,48.5C23,48.5,23,48.5,23,48.5C23,48.5,23,48.5,23,48.5l0.6,0.5c-0.1,0.1-0.3,0.2-0.4,0.2c-0.7-0.5-0.7-0.5-0.8-0.3
											c0,0,0,0,0,0c0.2,0.1,0.4,0.3,0.6,0.4c-1.4,0.9,0.9,2,1.1,2c0.4,0.1,0.8,0,1-0.1c0.4,0.5,0.9,1.1,1.5,1.9
											c-0.5,0.2-0.8,0.1-1.2-0.4c-0.4-0.5-0.5,0-0.5,0c0.4,0.6,0.9,1.3,1.9,0.8c0.6,0.9,0.6,0.9,0.6,0.8c0,0,0-0.1,0-0.1
											c-0.1-0.2-0.3-0.6-0.5-0.8c0.1-0.1,0.3-0.2,0.4-0.2c0.2,0.3,0.3,0.6,0.5,0.8c0,0,0.1,0,0.2-0.1c0,0,0,0,0-0.1
											c-0.1-0.2-0.3-0.6-0.5-0.8c1.3-0.9-0.1-2.4-0.9-2.5c-0.4-0.1-0.7,0-1,0.1c-0.4-0.5-1-1-1.7-1.6c0.3-0.2,0.8-0.3,1.3,0.3
											c0.3,0.3,0.4-0.1,0.4-0.1c0,0-0.3-0.4-0.8-0.5c-0.6-0.2-1.1,0-1.3,0.1C23.1,48.4,23.1,48.4,23,48.5L23,48.5z"/>
										<path class="st22" d="M30.5,62.1c-0.3,0.6-0.3,0.6-0.9,1c-1,0.6-1,0.6-3,2.6c0.6-0.4,1.7-1.1,2.6-1.8
											c-0.6,0.6-1.1,1.1-1.8,1.7c0.3-0.2,1.5-1,2.4-2.1c-0.5,0.8-0.9,1.2-1.4,1.6c0.2-0.1,0.6-0.3,1.2-1.1
											c-0.1,0.2-0.2,0.5,0.3,0.2c0.9-0.4,1-0.8,0.8-0.8c-0.2-0.1-0.5,0.1-0.7,0c0.3-0.4,0.4-0.7,0.7-1.2L30.5,62.1L30.5,62.1z"
											/>
										<path class="st17" d="M26.4,66.2c-0.2,0.1-0.2,0.1-0.2,0.1c0.1-0.1,0.8-0.6,0.9-0.6c0,0,0,0,0,0
											C27,65.8,26.8,65.9,26.4,66.2L26.4,66.2z M25.4,66.8l1.8-1l0.1-0.1c0.1-0.1,0.2-0.1,0.2-0.1c0,0-0.1,0-0.6,0.3
											C26.4,66.1,25.9,66.5,25.4,66.8L25.4,66.8z"/>
										<path class="st18" d="M25.3,66.8c0.6-0.4,1.2-0.8,1.8-1.1c0.4-0.3,0.6-0.3,0.6-0.3c0,0,0,0-0.2,0.2c0.1,0,0.1-0.1,0.1-0.1
											c-0.2,0-1.1,0.6-1.4,0.8c-0.3,0.2-0.5,0.3-0.7,0.5L25.3,66.8L25.3,66.8z"/>
										<path class="st17" d="M27.7,65.5c0.1,0,0.2-0.1,0.2-0.1c0.3-0.2,0.5-0.3,0.6-0.3c0,0,0,0,0,0L27.7,65.5L27.7,65.5z
											 M27.4,65.6c0.4-0.2,0.7-0.4,1.1-0.6c0.1-0.1,0.3-0.2,0.4-0.3l0,0c-0.3,0.1-0.3,0.2-0.6,0.3C28,65.3,27.7,65.5,27.4,65.6
											L27.4,65.6z"/>
										<path class="st18" d="M27.4,65.6c0.5-0.3,1-0.6,1.5-0.9C28.4,65.1,27.9,65.3,27.4,65.6L27.4,65.6z M27.2,65.7
											c0.6-0.4,1.2-0.7,1.8-1.1l0,0c0,0-0.2,0.1-0.6,0.3C28,65.2,27.6,65.5,27.2,65.7L27.2,65.7z"/>
										<path class="st19" d="M27.7,65.5c0.2-0.1,0.4-0.2,0.6-0.4c0.2-0.1,0.2-0.1,0.2-0.1c0,0,0,0,0,0L27.7,65.5L27.7,65.5z"/>
										<path class="st19" d="M26.8,65.9c-0.3,0.2-0.7,0.4-0.7,0.5c0,0,0.9-0.5,0.9-0.6C27.1,65.8,27,65.8,26.8,65.9L26.8,65.9z"
											/>
										<path class="st16" d="M28.2,56.7c0.1-0.6,0.4-0.7,1-0.9c0.5-0.1,0.7-0.2,0.7-0.5c0.2-0.1,0.4-0.2,0.6-0.3
											c0.3,0.8,0.3,1.2,0.1,2.4c-0.2,1.3-0.3,1.7-0.2,3c-0.2,0.1-0.5,0.3-0.7,0.4c-0.2,0.1-0.5,0.3-0.7,0.4c0-0.5,0-1.2,0.1-1.8
											c0.2-0.9,0.6-1.7,0.9-2.5c0,0,0,0,0,0c-0.2,0.4-0.4,0.5-0.8,0.6c-0.4,0.1-0.6,0.2-0.4,0.9c-0.2,0.1-0.5,0.3-0.7,0.4
											c0,0,0,0-0.1,0c-0.3-0.9-0.3-1-0.6-1.9c0.3-0.2,0.5-0.3,0.8-0.5L28.2,56.7L28.2,56.7z M28.5,55.8
											c-0.2,0.1-0.2,0.2-0.3,0.3l0,0c-0.2,0.1-0.5,0.3-0.7,0.4c-0.1,0.1-0.3,0.1-0.4,0.2c0.3,0.7,0.5,1.3,0.7,2.3
											c0.4-0.2,0.7-0.4,1.1-0.6c0-0.2-0.1-0.6-0.1-0.7c0.2-0.3,0.5-0.1,0.7-0.2c-0.7,2.2-0.7,2.2-0.8,4c0.6-0.3,1.1-0.7,1.7-1
											c0-1.1,0-1.6,0.2-2.8c0.3-1.4,0.3-1.9-0.1-3c-0.3,0.2-0.5,0.3-0.8,0.5c0,0.3,0,0.3-0.5,0.4C28.9,55.6,28.7,55.7,28.5,55.8
											L28.5,55.8z"/>
										<path class="st20" d="M28.6,56c-0.2,0.1-0.3,0.3-0.4,0.7l-0.1-0.3c-0.3,0.2-0.5,0.3-0.8,0.5c0.3,0.9,0.4,1,0.6,1.9
											c0.3-0.2,0.5-0.3,0.8-0.5c-0.2-0.7,0-0.8,0.4-0.9c0.4-0.1,0.6-0.2,0.8-0.6c0,0,0,0,0,0c-0.3,0.9-0.7,1.7-0.9,2.5
											c-0.1,0.6-0.1,1.3-0.1,1.8c0.5-0.3,0.9-0.5,1.4-0.8c0-1.2,0-1.7,0.2-3c0.2-1.2,0.2-1.6-0.1-2.4c-0.2,0.1-0.4,0.2-0.6,0.3
											c0,0.3-0.2,0.4-0.7,0.5C29,55.9,28.7,55.9,28.6,56L28.6,56z"/>
									</g>
								</g>
							</g>
							<g class="st0">
								<g>
									<linearGradient id="SVGID_11_" gradientUnits="userSpaceOnUse" x1="5.271" y1="54.7831" x2="15.4986" y2="72.4979">
										<stop  offset="0" style="stop-color:#A1A1A1"/>
										<stop  offset="5.926923e-02" style="stop-color:#B3B3B3"/>
										<stop  offset="0.1864" style="stop-color:#D4D4D4"/>
										<stop  offset="0.3082" style="stop-color:#ECECEC"/>
										<stop  offset="0.4213" style="stop-color:#FAFAFA"/>
										<stop  offset="0.5171" style="stop-color:#FFFFFF"/>
										<stop  offset="0.6211" style="stop-color:#FBFBFB"/>
										<stop  offset="0.7194" style="stop-color:#F0F0F0"/>
										<stop  offset="0.8155" style="stop-color:#DDDDDD"/>
										<stop  offset="0.9097" style="stop-color:#C2C2C2"/>
										<stop  offset="1" style="stop-color:#A1A1A1"/>
									</linearGradient>
									<path class="st23" d="M17.4,61.8c-0.7-1.6-1.7-3.1-2.8-4.4c-1-1.1-2-2-3.2-2.7c-2-1.2-3.8-1.3-5.2-0.5l-7.2,4.2
										c1.3-0.8,3.1-0.7,5.2,0.5c1.1,0.7,2.2,1.6,3.2,2.7c1.1,1.3,2.1,2.8,2.8,4.4c0.8,1.8,1.3,3.7,1.3,5.4c0,2.3-0.8,3.9-2.1,4.6
										l7.2-4.2c1.3-0.8,2.1-2.4,2.1-4.6C18.7,65.5,18.2,63.6,17.4,61.8z"/>
									<path class="st22" d="M9.3,56.8c0.1,0.2,0.2,0.3,0.3,0.5c-0.4,0.4-1,0.5-1.2,1.1c-0.2,0.5-0.2,1.2-0.1,1.8
										c0.3-0.2,1.4-0.9,1.6-1.8c0,0.2,0,0.2,0.3,2c0.1,0,0.2,0,0.3,0c-0.3-1.9-0.3-1.9-0.4-2.5c0.3,0.4,0.3,0.4,1.8,2.2
										c0.1-0.1,0.1-0.1,0.2-0.1c0,0,0,0-1.3-1.5c1.2,0.8,2.7,0.9,3.4,1c-0.4-0.6-1.2-1.1-1.7-1.4c-0.3-0.1-0.3-0.1-2.2-0.2
										c-0.4-0.5-0.6-0.8-0.8-1.1L9.3,56.8L9.3,56.8z"/>
									<path class="st17" d="M10.5,61.5c-0.4,0.2-0.8-0.1-0.7-0.5c0.1-0.4,0.7-0.4,0.9,0C10.8,61.2,10.7,61.4,10.5,61.5L10.5,61.5
										z M9.9,60.6c-0.9,0.6-0.2,2,0.7,2.2c0.5,0.1,1-0.1,1.2-0.7c-0.2-0.2-0.4-0.7-0.4-1.2C10.8,60.3,10.2,60.5,9.9,60.6
										L9.9,60.6z"/>
									<path class="st18" d="M9.9,60.5c-1,0.7-0.2,2.2,0.8,2.4c0.5,0.1,1.1-0.1,1.3-0.7c0,0-0.1-0.1-0.1-0.1
										c-0.3,1.1-1.6,0.9-2.1,0c-0.5-0.9,0.1-1.8,1.1-1.5c0.3,0.1,0.5,0.3,0.6,0.4c0-0.1,0-0.1,0-0.2
										C10.8,60.2,10.1,60.3,9.9,60.5L9.9,60.5z"/>
									<path class="st17" d="M12.6,61.1c-0.4,0.2-0.8-0.2-0.7-0.5c0.1-0.4,0.7-0.4,0.9-0.1C12.9,60.7,12.8,60.9,12.6,61.1
										L12.6,61.1z M12,60.2c-1,0.7-0.1,2.1,0.8,2.2c0.9,0.1,1.5-1,0.8-1.9C13.2,60.1,12.5,60,12,60.2L12,60.2z"/>
									<path class="st18" d="M13.4,62.4c-1.1,0.5-2.1-0.8-1.8-1.7c0.3-0.9,1.6-0.8,2.1,0.1C14.1,61.4,13.9,62.1,13.4,62.4
										L13.4,62.4z M11.9,60.1c-1,0.6-0.3,2.3,0.8,2.5c1,0.2,1.7-1,1.1-2C13.4,60,12.5,59.8,11.9,60.1L11.9,60.1z"/>
									<path class="st19" d="M12.1,60.3c-0.4,0.2-0.2,0.7,0.2,0.8c0.4,0.1,0.7-0.3,0.5-0.7C12.6,60.3,12.3,60.2,12.1,60.3
										L12.1,60.3z"/>
									<path class="st19" d="M10,60.8c-0.4,0.3-0.2,0.7,0.2,0.8c0.4,0.1,0.7-0.3,0.5-0.6C10.6,60.7,10.2,60.7,10,60.8L10,60.8z"/>
									<path class="st16" d="M13.3,65.2c0-0.5,0.4-0.7,0.9-0.8c0.5-0.1,0.7-0.2,0.7-0.5c0.2-0.1,0.4-0.2,0.5-0.3
										c0.2,0.7,0.3,1.1,0.1,2.3c-0.2,1.2-0.2,1.7-0.2,2.8c-0.2,0.1-0.5,0.3-0.7,0.4c-0.2,0.1-0.4,0.2-0.6,0.4
										c0-0.5,0-1.2,0.1-1.7c0.2-0.8,0.6-1.6,0.8-2.4c0,0,0,0,0,0c-0.2,0.4-0.4,0.5-0.8,0.6c-0.4,0.1-0.5,0.2-0.3,0.8
										c-0.2,0.1-0.5,0.3-0.7,0.4c-0.3-0.9-0.3-1-0.6-1.8c0.2-0.1,0.5-0.3,0.7-0.4c0,0,0,0,0,0L13.3,65.2L13.3,65.2z M13.7,64.4
										c-0.2,0.1-0.2,0.2-0.3,0.3l0,0c-0.3,0.2-0.7,0.4-1,0.6c0.4,1,0.4,1.2,0.7,2.2c0.2-0.1,0.5-0.3,0.7-0.4
										c0.1-0.1,0.2-0.1,0.3-0.2c0-0.2-0.1-0.6-0.1-0.6c0.2-0.2,0.4-0.1,0.6-0.2c-0.7,2.1-0.7,2.1-0.7,3.8
										c0.4-0.2,0.7-0.4,1.1-0.6c0.2-0.1,0.4-0.2,0.5-0.3c0-1.4,0-1.8,0.2-2.9c0.2-1.2,0.1-1.7-0.2-2.5c-0.3,0.1-0.5,0.3-0.8,0.4
										c0,0.3,0,0.3-0.5,0.4C14.1,64.3,13.9,64.3,13.7,64.4L13.7,64.4z"/>
									<path class="st20" d="M13.7,64.6c-0.2,0.1-0.3,0.3-0.4,0.6L13.2,65c-0.2,0.1-0.5,0.3-0.7,0.4c0,0,0,0,0,0
										c0.3,0.9,0.4,1,0.6,1.8c0.2-0.1,0.5-0.3,0.7-0.4c0-0.2-0.1-0.4,0-0.6c0.1-0.1,0.2-0.2,0.4-0.2c0.3-0.1,0.6-0.2,0.7-0.6
										c0,0,0,0,0,0c-0.3,0.8-0.7,1.6-0.8,2.4C14,68.4,14,69.1,14,69.5c0.4-0.3,0.9-0.5,1.3-0.8c0-1.1,0-1.6,0.2-2.8
										c0.2-1.2,0.2-1.6-0.1-2.3c-0.2,0.1-0.4,0.2-0.5,0.3c0,0.3-0.2,0.4-0.6,0.5C14.1,64.5,13.9,64.5,13.7,64.6L13.7,64.6z"/>
									<path class="st16" d="M12.1,74.4l-0.2,0.1l-0.2,0.2c0.3-0.2,0.5-0.3,0.5-0.3C12.2,74.3,12.2,74.3,12.1,74.4L12.1,74.4z
										 M13.6,73.4L13.6,73.4l-0.4,0.3l0.2-0.1L13.6,73.4L13.6,73.4z M15.1,72.5l-0.2,0.1l-0.2,0.2c0.3-0.1,0.5-0.3,0.5-0.4
										c0,0,0,0,0,0C15.2,72.4,15.2,72.5,15.1,72.5L15.1,72.5z M12.4,74.1l-0.2,0.1L12,74.4C12.3,74.2,12.5,74.1,12.4,74.1
										C12.5,74,12.5,74,12.4,74.1C12.5,74,12.4,74,12.4,74.1L12.4,74.1z M13,73.1l-0.2,0.1l-0.1,0.3c0.3-0.2,0.3-0.2,0.3-0.2
										c0.2-0.1,0.1-0.2,0.1-0.2C13.1,73.1,13,73.1,13,73.1L13,73.1z M14.5,72L14.5,72l-0.3,0.5l0.2-0.1L14.5,72L14.5,72z
										 M16,71.1l-0.2,0.1l-0.1,0.3c0.3-0.2,0.3-0.2,0.4-0.3c0.1-0.1,0.1-0.2,0.1-0.2C16,71,16,71.1,16,71.1L16,71.1z M13.2,72.7
										L13,72.8L12.9,73c0.3-0.2,0.3-0.2,0.3-0.2C13.3,72.7,13.3,72.6,13.2,72.7C13.3,72.6,13.2,72.6,13.2,72.7L13.2,72.7z
										 M11,75.1c0.5-0.4,0.5-0.4,0.9-0.9c0.9-0.5,1-0.6,0.9-0.5c0,0-0.1,0.1-0.4,0.3c0.1,0,0.1,0,0.1,0c0,0.1-0.6,0.4-0.9,0.6
										C11.5,74.8,11.2,75,11,75.1L11,75.1z M12.2,74.4c0.6-0.4,0.9-0.6,1.5-1.2L14,73c-0.1,0.2-0.2,0.4-0.4,0.5
										c-0.1,0.1-0.3,0.2-0.4,0.2l0.1-0.1c-0.1,0.1-0.3,0.2-0.4,0.2l-0.3,0.2C12.5,74.2,12.3,74.3,12.2,74.4L12.2,74.4z
										 M13.8,73.5c0.5-0.4,0.5-0.4,0.9-0.9c0.9-0.5,1-0.6,1-0.5c0,0,0,0.2-0.7,0.6c0,0,0.1,0,0.1,0c-0.1,0.1-0.3,0.2-0.5,0.3
										c0,0,0,0,0,0l-0.1,0l-0.3,0.2C14.1,73.3,13.9,73.4,13.8,73.5L13.8,73.5z M12.1,74c0.4-0.6,0.4-0.6,0.6-1.3
										c0.7-0.4,0.7-0.4,0.8-0.5c0,0,0.2-0.1,0.2,0.1c0,0.2-0.2,0.3-0.3,0.4c0.2,0,0.1,0.2,0,0.3c-0.2,0.3-0.6,0.5-0.7,0.6
										C12.5,73.7,12.3,73.9,12.1,74L12.1,74z M13.3,73.3c0.5-0.6,0.7-0.9,1.1-1.6l0.4-0.2c0,0.4,0,0.6,0,1
										c-0.1,0.1-0.3,0.2-0.4,0.2l0-0.2c-0.1,0.1-0.3,0.2-0.4,0.2l-0.2,0.3C13.6,73.1,13.4,73.2,13.3,73.3L13.3,73.3z M14.9,72.4
										c0.4-0.6,0.4-0.6,0.6-1.3c0.8-0.4,0.8-0.4,0.9-0.5c0.1,0,0.2,0,0.2,0.2c0,0.1-0.2,0.4-0.5,0.7c0.1,0,0.1,0.1,0.2,0.2
										c-0.1,0.1-0.3,0.2-0.5,0.3c0,0-0.1-0.1-0.1-0.2l-0.1,0l-0.2,0.4C15.1,72.2,15,72.3,14.9,72.4L14.9,72.4z M10.1,75.6
										l5.4-3.2c0.5-0.3,1.5-1,1.9-2.8c-1.8,1.1-3.6,2.1-5.4,3.2C11.9,73.4,11.5,74.8,10.1,75.6L10.1,75.6z"/>
								</g>
								<g>
									<path class="st24" d="M4.3,58.9c4,2.3,7.2,7.9,7.2,12.5c0,4.6-3.3,6.5-7.3,4.1C0.2,73.2-3,67.6-3,63
										C-3,58.4,0.3,56.6,4.3,58.9z"/>
								</g>
							</g>
						</g>
					</g>
				</g>
			</g>
		</g>
	</g>
	<g class="st0">
		<linearGradient id="SVGID_12_" gradientUnits="userSpaceOnUse" x1="62.0343" y1="51.802" x2="64.1219" y2="52.421">
			<stop  offset="0" style="stop-color:#A1A4A4"/>
			<stop  offset="4.179103e-02" style="stop-color:#A5A8A8"/>
			<stop  offset="0.4976" style="stop-color:#CACFCF"/>
			<stop  offset="0.8696" style="stop-color:#D5D9D9"/>
			<stop  offset="1" style="stop-color:#DADEDE"/>
		</linearGradient>
		<path class="st25" d="M65.7,45.3c-0.4,0.2-0.9,0.1-1.2-0.2c-0.2-0.2-0.3-0.4-0.2-0.6l-4.2,14.1c-0.1,0.2,0,0.4,0.2,0.6
			c0.3,0.3,0.9,0.4,1.2,0.2c0.1-0.1,0.2-0.2,0.2-0.3L65.9,45C65.9,45.1,65.8,45.2,65.7,45.3z"/>
		<path class="st26" d="M65.7,44.3c-0.3-0.3-0.9-0.4-1.2-0.2c-0.4,0.2-0.4,0.6,0,0.9c0.3,0.3,0.9,0.4,1.2,0.2
			C66,45.1,66.1,44.6,65.7,44.3z"/>
	</g>
	<g>
		<radialGradient id="SVGID_13_" cx="65.7189" cy="42.398" r="5.4134" gradientUnits="userSpaceOnUse">
			<stop  offset="0" style="stop-color:#D63636"/>
			<stop  offset="0.21" style="stop-color:#CB3233"/>
			<stop  offset="0.5785" style="stop-color:#AE262A"/>
			<stop  offset="1" style="stop-color:#85151D"/>
		</radialGradient>
		<circle class="st27" cx="65.1" cy="44.7" r="2.7"/>
		<radialGradient id="SVGID_14_" cx="65.654" cy="42.1848" r="3.0361" gradientUnits="userSpaceOnUse">
			<stop  offset="0" style="stop-color:#CE3641"/>
			<stop  offset="1" style="stop-color:#85151D"/>
		</radialGradient>
		<path class="st28" d="M67.1,44.3c-0.3,0.8-1.3,1.2-2.3,0.8c-1-0.3-1.6-1.3-1.3-2.1c0.3-0.8,1.3-1.2,2.3-0.8
			C66.8,42.6,67.4,43.5,67.1,44.3z"/>
	</g>
	<g>
		<polygon class="st29" points="41.2,108 39.7,107.1 39.6,82.1 41.1,83 		"/>
		<path class="st29" d="M35.6,80.2l0-14.7L34,64.7l0,14.7c0,1.6,0.6,2.8,1.5,3.3l1.5,0.9C36.2,83,35.6,81.8,35.6,80.2z"/>
		<path class="st30" d="M86.9,30.3c-1-0.5-2.3-0.5-3.7,0.4l-43.9,25c-2.9,1.6-5.2,5.6-5.2,8.9l1.5,0.9c0-3.3,2.3-7.3,5.2-8.9
			l43.9-25c1.5-0.8,2.8-0.9,3.7-0.4L86.9,30.3z"/>
		<path class="st31" d="M84.7,31.6c2.9-1.6,5.3-0.3,5.3,3l0,14.7c0,3.3-2.3,7.3-5.2,8.9L49.3,78.3L41.2,108l-0.1-25l-0.3,0.2
			c-2.9,1.6-5.3,0.3-5.3-3l0-14.7c0-3.3,2.3-7.3,5.2-8.9L84.7,31.6z"/>
		<path class="st32" d="M82.9,56.2L43.1,79c-2.3,1.3-4.1,0.5-4.1-1.7V64.9c0-2.3,1.8-5.1,4.1-6.5l39.8-22.8c2.3-1.3,4.1-0.5,4.1,1.7
			v12.4C87,52,85.2,54.9,82.9,56.2z"/>
		<path class="st30" d="M52.2,57.5v4.6l-3.5,2.1v-4.6L45,61.8v13.1l3.7-2.2v-4.8l3.5-2.1v4.8l3.7-2.2V55.2L52.2,57.5z M64.3,63.6
			c1.2-0.7,2.3-1.7,3.2-2.8c1-1.2,1.7-2.4,2.2-3.8c0.5-1.4,0.8-2.7,0.8-4c0-1.3-0.3-2.3-0.8-3c-0.5-0.7-1.3-1.1-2.2-1.1
			c-1,0-2,0.3-3.2,1.1c-1.2,0.7-2.3,1.7-3.2,2.8s-1.7,2.4-2.2,3.8c-0.5,1.4-0.8,2.7-0.8,4c0,1.3,0.3,2.3,0.8,3
			c0.5,0.7,1.3,1.1,2.2,1.1C62.1,64.6,63.2,64.3,64.3,63.6L64.3,63.6z M64.3,60c-0.5,0.3-0.9,0.4-1.3,0.4c-0.4,0-0.7-0.2-0.9-0.6
			c-0.2-0.4-0.3-0.9-0.3-1.5c0-0.7,0.1-1.3,0.3-1.9c0.2-0.6,0.5-1.2,0.9-1.7c0.4-0.5,0.8-0.9,1.3-1.2c0.5-0.3,0.9-0.4,1.3-0.4
			c0.4,0,0.7,0.2,0.9,0.6c0.2,0.4,0.3,0.9,0.3,1.5c0,0.7-0.1,1.3-0.3,1.9c-0.2,0.6-0.5,1.2-0.9,1.7C65.2,59.3,64.8,59.7,64.3,60
			L64.3,60z M75,56.9l3.7-2.2v-9.7l3.2-2v-3.4l-10.2,6.1v3.4l3.2-2V56.9z"/>
	</g>
</g>
</svg>
