<?xml version="1.0" encoding="utf-8"?>
<!-- Generator: Adobe Illustrator 21.0.0, SVG Export Plug-In . SVG Version: 6.00 Build 0)  -->
<svg version="1.1" id="Слой_1" xmlns="http://www.w3.org/2000/svg" xmlns:xlink="http://www.w3.org/1999/xlink" x="0px" y="0px"
	 width="24px" height="18px" viewBox="0 0 24 18" style="enable-background:new 0 0 24 18;" xml:space="preserve">
<style type="text/css">
	.st0{fill:#CC0000;}
	.st1{fill:#FFCC00;}
</style>
<g id="FlagCh">
	<rect class="st0" width="24" height="18"/>
	<polygon class="st1" points="4.5,3.8 5.3,6.1 7.8,6.1 5.8,7.6 6.5,9.9 4.5,8.5 2.5,9.9 3.3,7.6 1.3,6.1 3.8,6.1 	"/>
	<polygon class="st1" points="10.2,12.1 9.6,11.4 8.7,11.7 9.2,10.9 8.6,10.2 9.5,10.5 10,9.7 10.1,10.6 11,10.8 10.1,11.2 	"/>
	<polygon class="st1" points="11.3,10 11.6,9.1 10.9,8.6 11.8,8.6 12.1,7.7 12.4,8.5 13.3,8.5 12.5,9.1 12.8,10 12.1,9.4 	"/>
	<polygon class="st1" points="12.9,4.9 12.5,5.7 13.2,6.4 12.2,6.2 11.8,7.1 11.7,6.1 10.8,6 11.6,5.6 11.4,4.7 12.1,5.3 	"/>
	<polygon class="st1" points="10.2,2.4 10.1,3.3 11,3.6 10.1,3.8 10,4.8 9.5,4 8.6,4.2 9.2,3.5 8.7,2.7 9.6,3.1 	"/>
</g>
</svg>
