<!-- Generated by IcoMoon.io -->
<svg version="1.1" xmlns="http://www.w3.org/2000/svg" width="160" height="60" viewBox="0 0 160 60">
<title>iconPay_GiroPay</title>
<path fill="#06c" d="M30 16.536c0-4.162 3.472-7.536 7.753-7.536h84.494c4.283 0 7.753 3.374 7.753 7.536v26.93c0 4.159-3.47 7.534-7.753 7.534h-84.494c-4.281 0-7.753-3.375-7.753-7.534v-26.93z"></path>
<path fill="#eee" d="M33 43.272c0 2.612 2.209 4.731 4.935 4.731h45.065v-36h-45.065c-2.725 0-4.935 2.118-4.935 4.731v26.538zM93.734 29.87c0 1.682-0.852 2.838-2.262 2.838-1.246 0-2.284-1.156-2.284-2.696 0-1.581 0.913-2.756 2.284-2.756 1.454-0.001 2.262 1.216 2.262 2.614zM85.455 39.517h3.621v-5.736c0.707 1.257 2.274 1.723 3.581 1.723 3.216 0 4.938-2.593 4.938-5.715 0-2.553-1.639-5.331-4.628-5.331-1.7 0-3.142 0.67-3.891 2.15v-1.904h-3.621v14.813zM102.693 31.916c0-1.012 0.995-1.396 2.262-1.396 0.56 0 1.1 0.038 1.577 0.060 0 1.236-0.892 2.492-2.304 2.492-0.871 0.001-1.535-0.424-1.535-1.156zM110.225 35.261c-0.165-0.83-0.207-6.424-0.207-6.424 0-3.222-2.385-4.379-5.146-4.379-1.597 0-2.987 0.223-4.316 0.751l0.064 2.474c1.034-0.569 2.24-0.792 3.443-0.792 1.347 0 2.447 0.386 2.469 1.825-0.477-0.081-1.142-0.144-1.744-0.144-1.99 0-5.581 0.386-5.581 3.608 0 2.291 1.908 3.323 4.045 3.323 1.535 0 2.574-0.586 3.424-1.905l0.125 1.662h3.424zM111.905 39.517c0.768 0.163 1.535 0.245 2.323 0.245 3.424 0 4.232-2.575 5.291-5.23l3.965-9.829h-3.736l-2.22 6.89-2.366-6.89h-4.024l4.377 10.801c-0.27 0.933-0.975 1.461-1.889 1.461-0.52 0-0.975-0.062-1.474-0.223l-0.247 2.775z"></path>
<path fill="#f33" d="M42.303 29.891c0-1.439 0.727-2.636 2.117-2.636 1.68 0 2.385 1.317 2.385 2.492 0 1.622-1.058 2.716-2.385 2.716-1.119 0.001-2.117-0.93-2.117-2.572zM50.417 24.703h-3.486v1.904c-0.791-1.298-2.014-2.15-3.61-2.15-3.361 0-4.876 2.353-4.876 5.494 0 3.121 1.847 5.309 4.812 5.309 1.496 0 2.783-0.569 3.674-1.804v0.569c0 2.066-1.162 3.059-3.318 3.059-1.557 0-2.513-0.324-3.653-0.871l-0.187 2.879c0.87 0.305 2.343 0.67 4.13 0.67 4.357 0 6.514-1.399 6.514-5.737v-9.322zM56.729 20.305h-3.735v2.675h3.735v-2.675zM52.996 35.261h3.734v-10.558h-3.734v10.558zM67.129 24.58c-0.374-0.060-0.831-0.122-1.265-0.122-1.619 0-2.481 0.852-3.125 2.19v-1.945h-3.515v10.558h3.515v-4.457c0-2.068 1.196-3.304 2.938-3.304 0.437 0 0.85 0 1.265 0.12l0.187-3.040zM73.559 32.951c-1.722 0-2.427-1.399-2.427-2.958 0-1.581 0.705-2.98 2.427-2.98 1.724 0 2.429 1.399 2.429 2.98 0.001 1.559-0.705 2.958-2.429 2.958zM73.559 35.503c3.569 0 6.288-2.025 6.288-5.511 0-3.507-2.719-5.535-6.288-5.535s-6.286 2.027-6.286 5.535c0.001 3.486 2.718 5.511 6.286 5.511z"></path>
</svg>
