<!-- Generated by IcoMoon.io -->
<svg version="1.1" xmlns="http://www.w3.org/2000/svg" width="160" height="60" viewBox="0 0 160 60">
<title>iconPay_TrustPay</title>
<path fill="#09f" d="M10.007 19.258l0.956-4.506h20.353l-0.956 4.506h-7.308l-4.166 19.866h-5.396l4.166-19.866h-7.649z"></path>
<path fill="#09f" d="M34.101 21.476l-0.717 3.174 0.068 0.068c0.546-1.229 1.705-3.618 7.581-3.618l-0.99 4.71c0 0-6.339-0.799-7.752 5.496l-1.639 7.817h-4.815l3.654-17.647h4.61z"></path>
<path fill="#09f" d="M50.849 39.123l0.546-2.458h-0.068c-1.571 1.934-3.632 2.901-6.181 2.901-6.494 0-5.026-5.985-4.969-6.281s2.51-11.81 2.51-11.81h4.849l-2.452 12.036c-0.213 1.301 0.915 2.266 2.316 2.266 3.955 0 4.87-4.579 4.87-4.579l2.062-9.723h4.849l-3.688 17.647h-4.644z"></path>
<path fill="#09f" d="M68.017 24.241c-2.225 0-2.971 0.724-2.971 1.741 0 0.956 1.204 1.613 4.644 2.56 6.019 1.657 4.856 6.393 3.91 7.834s-3.004 3.192-7.667 3.192c-4.178 0-7.479-1.482-7.479-6.178h4.474c0 2.222 1.73 2.97 3.157 2.97 2.156 0 2.941-0.718 3.127-1.109s0.986-2.159-1.468-2.952c-4.967-1.605-7.547-1.775-7.547-5.7 0-2.66 2.366-5.598 7.82-5.598 2.915 0 7.239 0.478 7.239 5.632h-4.508c0.001-1.11-0.506-2.392-2.731-2.392z"></path>
<path fill="#09f" d="M89.102 21.476l-0.751 3.243h-3.449l-1.81 8.772c-0.402 1.931 0.474 2.116 1.503 2.116l1.741-0.102-0.819 3.721c0 0-1.427 0.171-3.903 0.171-3.068 0-4.114-2.073-3.678-4.318 0.348-1.791 2.151-10.36 2.151-10.36h-3.176l0.751-3.243h3.107l1.093-5.359h4.849l-1.092 5.359h3.483z"></path>
<path fill="#999" d="M105.763 14.752c1.416 0 8.469-0.311 8.469 7.1s-7.33 8.533-9.493 8.533h-6.625l-1.844 8.738h-5.327l5.054-24.371h9.766zM104.466 26.221c2.361 0 4.405-1.111 4.405-4.267s-3.062-3.038-3.791-3.038h-4.576l-1.503 7.305h5.465z"></path>
<path fill="#999" d="M123.258 20.998c8.883 0 7.472 5.105 6.966 7.612l-2.12 10.513h-4.368v-1.741c0 0-1.784 2.185-5.396 2.185s-4.851-1.852-5.361-2.85-0.686-4.151 1.417-5.854c1.678-1.358 3.267-1.818 6.657-2.085 4.44-0.35 5.039-0.915 5.039-2.387 0-0.868-0.542-2.15-3.073-2.15-3.311 0-3.586 2.594-3.586 2.594h-4.542c0.001 0 0.265-5.837 8.367-5.837zM117.6 33.389c-1.014 3.217 2.89 3.391 4.767 2.386 2.386-1.276 2.769-5.117 2.769-5.117-2.172 1.429-6.681 0.020-7.536 2.731z"></path>
<path fill="#999" d="M133.367 45.25c-2.722 0-4.020-0.119-4.020-0.119l0.819-4.028c3.148 0.775 4.009-0.139 5.156-2.15l-3.142-17.476h4.986l1.537 12.629h0.069l6.113-12.629h5.122l-11.235 20.105c0-0.001-1.582 3.668-5.405 3.668z"></path>
</svg>
