<!-- Generated by IcoMoon.io -->
<svg version="1.1" xmlns="http://www.w3.org/2000/svg" width="160" height="60" viewBox="0 0 160 60">
<title>iconPay_Neteller</title>
<path fill="#0c0" d="M139.419 18h-9.269l-3.446 18.558h-12.143l0.78-4.21h7.315l0.867-4.729-7.31 0.010 0.783-4.192h7.534l1.002-5.436h-15.301l-3.271 17.603h-5.615l3.293-17.604h-7.998l-3.271 17.603h-5.47l3.296-17.603h-7.994l-3.45 18.558h-12.23l0.773-4.21h7.344l0.868-4.702-7.337-0.007 0.778-4.2h7.619l0.996-5.439h-47.68l-2.714 14.706-5.403-14.706h-8.298l-4.467 24h7.925l2.703-15.111 5.245 15.111h28.402l3.453-18.564h4.442l-3.453 18.564h74.732l2.167-11.718 3.505 11.718h7.929l-3.632-9.575c0 0 6.582-0.544 6.582-7.494 0-6.36-7.042-6.931-10.581-6.931zM35.248 36.558l0.784-4.21h7.609l0.863-4.742h-7.536l0.726-4.167h12.113l-2.43 13.119h-12.129zM137.374 29.297h-1.567l1.202-6.44h1.153c1.313 0 4.059 0.229 4.059 2.878 0 3.31-3.266 3.562-4.847 3.562z"></path>
</svg>
