<svg xmlns="http://www.w3.org/2000/svg" width="388.387" height="50.087" viewBox="0 0 388.387 50.087"><g transform="translate(-578.254 -190)"><g transform="translate(578.254 190)"><path d="M82.931,162.487a25.115,25.115,0,0,1-9.892-1.937,23.9,23.9,0,0,1-13.078-13.213,25.59,25.59,0,0,1-1.868-9.757v-.138a25.139,25.139,0,0,1,7.058-17.674,24.078,24.078,0,0,1,7.954-5.4,25.9,25.9,0,0,1,10.241-1.97,32.014,32.014,0,0,1,6.191.554,26.026,26.026,0,0,1,5.084,1.519,22.061,22.061,0,0,1,4.221,2.356,28.255,28.255,0,0,1,3.6,3.045l-6.781,7.816a25.625,25.625,0,0,0-5.776-4.013,14.709,14.709,0,0,0-6.607-1.453,13.49,13.49,0,0,0-5.638,1.176,13.353,13.353,0,0,0-4.465,3.252,15.2,15.2,0,0,0-2.9,4.807,16.322,16.322,0,0,0-1.038,5.845v.138a16.612,16.612,0,0,0,1.038,5.882,15.352,15.352,0,0,0,2.87,4.84,13.3,13.3,0,0,0,10.135,4.5,14.834,14.834,0,0,0,7.022-1.522,27.12,27.12,0,0,0,5.707-4.148l6.778,6.847a34.775,34.775,0,0,1-3.872,3.595A22.467,22.467,0,0,1,89.3,161.9a31.468,31.468,0,0,1-6.366.59" transform="translate(-58.093 -112.4)" fill="#040405" fill-rule="evenodd"/><path d="M74.239,112.652H84.893V151.46h24.143v9.618h-34.8Z" transform="translate(-21.037 -111.822)" fill="#040405" fill-rule="evenodd"/><path d="M87.235,112.652h36.459v9.476H97.751v9.824h22.83v9.478H97.751V151.6H124.04v9.479h-36.8Z" transform="translate(8.788 -111.822)" fill="#040405" fill-rule="evenodd"/><path d="M100.043,112.652H111.8l12.659,34.107,12.66-34.107h11.484l-19.577,48.77h-9.41Z" transform="translate(38.181 -111.822)" fill="#040405" fill-rule="evenodd"/><path d="M117.049,112.652h36.458v9.476H127.565v9.824h22.827v9.478H127.565V151.6h26.29v9.479H117.049Z" transform="translate(77.212 -111.822)" fill="#040405" fill-rule="evenodd"/><path d="M131.115,112.652h22.139q9.2,0,14.113,4.91,4.152,4.152,4.152,11.071v.138a15.193,15.193,0,0,1-2.87,9.579,16.646,16.646,0,0,1-7.509,5.433l11.829,17.3H160.52l-10.376-15.5h-8.373v15.5H131.115Zm21.447,23.52a8.845,8.845,0,0,0,6.053-1.868,6.324,6.324,0,0,0,2.112-4.979v-.142A6.177,6.177,0,0,0,158.513,124a9.784,9.784,0,0,0-6.158-1.73H141.771v13.9Z" transform="translate(109.493 -111.821)" fill="#040405" fill-rule="evenodd"/><path d="M162.9,112.651h9.824l22.692,29.816V112.651h10.516v48.427h-9.065L173.42,130.293v30.786H162.9Z" transform="translate(182.451 -111.822)" fill="#86b110" fill-rule="evenodd"/><path d="M193.965,116.752v20.116A24.215,24.215,0,1,1,169.75,112.65h24.215ZM183.49,136.868V123.125H169.75a13.744,13.744,0,1,0,13.74,13.743Z" transform="translate(142.572 -111.827)" fill="#86b110"/></g></g></svg>