<?xml version="1.0" encoding="utf-8"?>
<!-- Generator: Adobe Illustrator 21.0.0, SVG Export Plug-In . SVG Version: 6.00 Build 0)  -->
<svg version="1.1" id="Слой_1" xmlns="http://www.w3.org/2000/svg" xmlns:xlink="http://www.w3.org/1999/xlink" x="0px" y="0px"
	 width="39px" height="32px" viewBox="0 0 39 32" style="enable-background:new 0 0 39 32;" xml:space="preserve">
<style type="text/css">
	.st0{fill-rule:evenodd;clip-rule:evenodd;fill:#FFB200;}
</style>
<path id="ornament_x5F_menu_x5F_hover" class="st0" d="M0,14.4c0.3-0.5,0.6-1,0.9-1.5C2.2,10.8,3.7,9,5.4,7.7c0,0,1.5-1.2,3.4-2
	C9,5.5,9.1,5.5,9.3,5.4C9.5,5.3,9.7,5.2,10,5.2c0.2,0,0.3-0.1,0.4-0.2c3.6-1.3,7.2-1.1,10.8,0.3c5.9,2.4,8.5,8.7,6.1,14.4
	c-1.9,4.4-6.6,6.5-10.5,4.7c-2.5-1.1-3.6-3.7-2.6-6.2c0.3-0.6,0.9-1.1,1.5-1.9c0.4,2.9,1.4,4.1,3.2,4.2c1.8,0.2,3.5-0.9,4.1-2.7
	c0.5-1.7,0.2-3.4-0.8-4.9c-2.2-3.1-7.3-3.6-10.6-1.1C7,15.3,6.2,22.2,9.5,27c4.1,6,14.5,6.3,19.1,2.8c3.2-2.4,5.5-5.3,7.2-8.9
	c1-2.1,2-4.2,3.1-6.2V0c-9.2,0-18.4,0-27.6,0c-0.7,0-1.4,0-2,0C8,0,4.5,0,0,0V14.4z M35,4.1C36.1,4.1,36.9,5,37,6
	c0,1-0.8,1.8-1.8,1.9c-1.1,0-2-0.8-2-1.8C33.1,5,34,4.1,35,4.1z M2.7,29.3c0,1.3-1.2,2.4-2.4,2.4c-0.1,0-0.1,0-0.2,0v-4.8
	c0.1,0,0.2,0,0.2,0C1.6,26.9,2.6,28,2.7,29.3z M39,31.7c-1.2-0.2-2.1-1.2-2.1-2.4c0-1.3,0.9-2.3,2.1-2.4V31.7z"/>
</svg>
