<?xml version="1.0" encoding="utf-8"?>
<!-- Generator: Adobe Illustrator 21.0.0, SVG Export Plug-In . SVG Version: 6.00 Build 0)  -->
<svg version="1.1" id="Слой_1" xmlns="http://www.w3.org/2000/svg" xmlns:xlink="http://www.w3.org/1999/xlink" x="0px" y="0px"
	 width="18px" height="50px" viewBox="0 0 18 50" style="enable-background:new 0 0 18 50;" xml:space="preserve">
<style type="text/css">
	.st0{fill-rule:evenodd;clip-rule:evenodd;}
	.st1{fill-rule:evenodd;clip-rule:evenodd;fill:#FF7E00;}
	.st2{fill-rule:evenodd;clip-rule:evenodd;fill:#FFB400;}
	.st3{fill-rule:evenodd;clip-rule:evenodd;fill:#3A0000;}
	.st4{fill-rule:evenodd;clip-rule:evenodd;fill:#6F1A07;}
	.st5{fill-rule:evenodd;clip-rule:evenodd;fill:#91250D;}
	.st6{fill-rule:evenodd;clip-rule:evenodd;fill:#DD4231;}
</style>
<g id="sep_x5F_menu">
	<path class="st0" d="M9,0l3,23L9,50L6,23L9,0z"/>
	<path class="st0" d="M8,6h2l4,17l-4,17H8L4,23L8,6z"/>
	<path class="st0" d="M8,15h2l8,8l-8,8H8l-8-8L8,15z"/>
	<path class="st1" d="M9,6l3,17L9,40L9,6z"/>
	<path class="st2" d="M9,6L6,23l3,17L9,6z"/>
	<path class="st2" d="M1,23l7-7v14L1,23z"/>
	<path class="st1" d="M17,23l-7-7v14L17,23z"/>
	<path class="st3" d="M9,17l6,6l-6,6l-6-6L9,17z"/>
	<path class="st4" d="M9,28l5-5H4L9,28z"/>
	<path class="st5" d="M9,28v-5H4L9,28z"/>
	<path class="st5" d="M9,18l5,5H4L9,18z"/>
	<path class="st6" d="M9,18v5H4L9,18z"/>
</g>
</svg>
