<svg id="Icons" xmlns="http://www.w3.org/2000/svg" width="41.337" height="41.335" viewBox="0 0 41.337 41.335">
  <path id="Path" d="M25.836,27.556V24.112a9,9,0,0,0,3.224-5.084c.61-.047,1.568-.606,1.85-2.816a2.015,2.015,0,0,0-.817-2.063A9.113,9.113,0,0,0,31,10.334c0-4.182-1.641-7.751-5.167-7.751,0,0-1.225-2.584-5.167-2.584C13.362,0,10.334,4.687,10.334,10.334a10.266,10.266,0,0,0,.909,3.813,2.017,2.017,0,0,0-.816,2.063c.282,2.21,1.24,2.77,1.85,2.816A9,9,0,0,0,15.5,24.112v3.445C13.779,32.723,0,29.279,0,41.335H41.337C41.337,29.279,27.558,32.723,25.836,27.556Z" fill="#fff"/>
</svg>
