<?xml version="1.0" encoding="utf-8"?>
<!-- Generator: Adobe Illustrator 21.0.0, SVG Export Plug-In . SVG Version: 6.00 Build 0)  -->
<svg version="1.1" id="vkontakte" xmlns="http://www.w3.org/2000/svg" xmlns:xlink="http://www.w3.org/1999/xlink" x="0px" y="0px"
	 width="30px" height="30px" viewBox="0 0 30 30" style="enable-background:new 0 0 30 30;" xml:space="preserve">
<style type="text/css">
	.st0{fill:#EEEEEE;}
</style>
<path id="social_x5F_vkontakte" class="st0" d="M28.8,7.5c0.1-0.7,0-1.2-1-1.2h-3.3c-0.9,0-1.2,0.4-1.3,0.9c0,0-1.6,4-4,6.7
	c-0.7,0.7-1,1-1.5,1c-0.1,0-0.4-0.3-0.4-0.9V7.5c0-0.9-0.3-1.2-0.9-1.2h-5c-0.4,0-0.9,0.4-0.9,0.7c0,0.7,1.2,1,1.3,3.3v4.7
	c0,1-0.1,1.2-0.6,1.2c-1,0-3.7-4-5.3-8.8C5.5,6.6,5.2,6.2,4.3,6.2H1c-0.9,0-1,0.4-1,0.9C0,8,1,12.3,5.2,17.9
	c2.7,3.9,6.5,5.9,9.9,5.9c2.1,0,2.4-0.4,2.4-1.3v-3c0-0.9,0.1-1.2,0.9-1.2c0.4,0,1.3,0.3,3.3,2.1c2.2,2.2,2.5,3.3,3.9,3.3h3.3
	c0.9,0,1.3-0.4,1.2-1.3c-0.6-1.9-4-5.2-5-6.2c-0.4-0.6-0.3-0.9,0-1.5C24.3,15.1,28.3,9.4,28.8,7.5z"/>
</svg>
