<?xml version="1.0" encoding="utf-8"?>
<!-- Generator: Adobe Illustrator 21.0.0, SVG Export Plug-In . SVG Version: 6.00 Build 0)  -->
<svg version="1.1" id="instagram" xmlns="http://www.w3.org/2000/svg" xmlns:xlink="http://www.w3.org/1999/xlink" x="0px" y="0px"
	 width="30px" height="30px" viewBox="0 0 30 30" style="enable-background:new 0 0 30 30;" xml:space="preserve">
<style type="text/css">
	.st0{fill:#EEEEEE;}
</style>
<path id="social_x5F_instagram" class="st0" d="M20.8,2H9.2C5.3,2,2,5.2,2,9.2v11.6C2,24.7,5.2,28,9.2,28h11.6
	c3.9,0,7.2-3.2,7.2-7.2V9.1C27.9,5.2,24.7,2,20.8,2z M25.6,20.7c0,2.6-2.2,4.8-4.8,4.8H9.2c-2.6,0-4.8-2.2-4.8-4.8V9.1
	c0-2.6,2.2-4.8,4.8-4.8h11.6c2.6,0,4.8,2.2,4.8,4.8V20.7L25.6,20.7z M15,8.3c-3.6,0-6.6,3-6.6,6.6s3,6.6,6.6,6.6s6.6-3,6.6-6.6
	S18.6,8.3,15,8.3z M15,19.2c-2.4,0-4.3-1.9-4.3-4.3s1.9-4.3,4.3-4.3s4.3,1.9,4.3,4.3S17.4,19.2,15,19.2z M22,6.3
	c-0.5,0-0.9,0.2-1.1,0.5c-0.3,0.3-0.5,0.8-0.5,1.1c0,0.5,0.2,0.9,0.5,1.1c0.3,0.3,0.8,0.5,1.1,0.5c0.5,0,0.9-0.2,1.1-0.5
	c0.3-0.3,0.5-0.8,0.5-1.1c0-0.5-0.2-0.9-0.5-1.1C22.9,6.4,22.4,6.3,22,6.3z"/>
</svg>
