<?xml version="1.0" encoding="utf-8"?>
<!-- Generator: Adobe Illustrator 17.0.0, SVG Export Plug-In . SVG Version: 6.00 Build 0)  -->
<!DOCTYPE svg PUBLIC "-//W3C//DTD SVG 1.1//EN" "http://www.w3.org/Graphics/SVG/1.1/DTD/svg11.dtd">
<svg version="1.1" id="Layer_1" xmlns="http://www.w3.org/2000/svg" xmlns:xlink="http://www.w3.org/1999/xlink" x="0px" y="0px"
	 width="180px" height="70px" viewBox="0 0 180 70" enable-background="new 0 0 180 70" xml:space="preserve">
<g id="_x31_x2Gaming">
	<path id="Path_152_" fill="#EEEEEE" d="M159.717,36.384c0,4.838-2.15,7.528-6.952,7.528c-3.647,0-5.118-0.995-5.118-0.995
		l0.807-3.118c0,0,1.797,0.995,3.816,0.995c4.01,0,3.415-4.301,3.415-4.301s-1.219,1.693-3.602,1.693
		c-2.093,0-5.566-1.458-5.566-6.397s3.412-6.937,5.968-6.937c2.557,0,3.657,1.883,3.657,1.883l0.133-1.587h3.55
		C159.826,25.146,159.717,30.224,159.717,36.384z M155.631,30.496c0,0-0.097-2.553-2.285-2.553s-2.688,2.408-2.688,3.283
		c0,1.134,0.235,3.948,2.662,3.948c2.426,0,2.312-2.742,2.312-2.742V30.496z"/>
	<path id="Path_151_" fill="#EEEEEE" d="M133.426,25.146h3.548l0.188,1.829c0,0,1.344-2.125,4.141-2.125
		c4.909,0,4.704,5.673,4.704,5.673v7.769h-4.086v-7.462c0,0,0.235-2.673-2.071-2.673s-2.232,2.673-2.232,2.673v7.462h-4.086
		C133.533,38.293,133.709,30.418,133.426,25.146z"/>
	<rect id="Path_150_" x="128.184" y="25.147" fill="#EEEEEE" width="4.086" height="13.146"/>
	<path id="Path_149_" fill="#EEEEEE" d="M130.2,23.534c1.372,0,2.204-0.914,2.204-2.042c-0.026-1.157-0.833-2.044-2.151-2.044
		c-1.317,0-2.177,0.886-2.177,2.044C128.077,22.62,128.91,23.534,130.2,23.534z"/>
	<path id="Path_148_" fill="#EEEEEE" d="M106.974,25.146h3.467l0.18,1.775c0,0,1.335-2.097,4.042-2.097s3.602,2.258,3.602,2.258
		s1.479-2.258,4.274-2.258c4.713,0,4.436,5.725,4.436,5.725v7.743h-3.978v-7.462c0,0,0.251-2.699-1.935-2.699
		c-2.186,0-2.043,2.699-2.043,2.699v7.462h-3.978v-7.462c0,0,0.212-2.699-1.909-2.699c-2.121,0-2.071,2.699-2.071,2.699v7.462
		h-3.978C107.081,38.293,107.173,29.908,106.974,25.146z"/>
	<path id="Path_147_" fill="#EEEEEE" d="M105.845,35.121c0,1.999,0.214,3.172,0.214,3.172h-3.683l-0.277-1.442
		c0,0-1.02,1.737-3.808,1.737c-3.014,0-4.248-2.345-4.248-4.032c0-5.425,7.715-5.027,7.715-5.027s0.292-1.881-2.393-1.881
		c-2.001,0-3.629,0.994-3.629,0.994l-0.752-2.634c0,0,1.985-1.183,5.108-1.183c4.58,0,5.753,2.777,5.753,5.699V35.121z
		 M101.892,32.083c0,0-3.818-0.16-3.818,2.07c0,1.364,1.072,1.56,1.613,1.56c2.119,0,2.204-2.204,2.204-2.204V32.083z"/>
	<path id="Path_146_" fill="#EEEEEE" d="M93.639,36.384c0,4.838-2.15,7.528-6.952,7.528c-3.647,0-5.118-0.995-5.118-0.995
		l0.807-3.118c0,0,1.797,0.995,3.816,0.995c4.01,0,3.415-4.301,3.415-4.301s-1.219,1.693-3.602,1.693
		c-2.093,0-5.566-1.458-5.566-6.397s3.412-6.937,5.968-6.937s3.657,1.883,3.657,1.883l0.133-1.587h3.55
		C93.748,25.146,93.639,30.224,93.639,36.384z M89.553,30.496c0,0-0.097-2.553-2.285-2.553s-2.688,2.408-2.688,3.283
		c0,1.134,0.235,3.948,2.662,3.948s2.312-2.742,2.312-2.742V30.496z"/>
	<path id="Path_145_" fill="#EEEEEE" d="M61.141,15.886c5.445,4.752,9.034,11.769,9.034,19.265C70.174,48.875,59.122,60,45.49,60
		c-4.617,0-10.2-1.502-13.328-3.819l7.018-10.382l1.343,0.003l4.969-6.871L50.3,45.78c0.014,0.011,5.902,0.015,5.902,0.015
		L48.48,34.717l7.403-10.296l-1.107,0.006l6.051-8.809C61.128,15.861,61.141,15.886,61.141,15.886"/>
	<path id="Path_144_" fill="#00CC00" d="M29.208,54.114c-5.445-4.752-9.034-11.769-9.034-19.265C20.174,21.125,31.227,10,44.859,10
		c4.617,0,10.597,1.765,13.725,4.083l-7.415,10.119l-1.343-0.003l-4.969,6.871l-4.807-6.849c-0.014-0.011-5.902-0.015-5.902-0.015
		l7.722,11.078L34.466,45.58l1.107-0.006l-6.051,8.809C29.221,54.139,29.208,54.114,29.208,54.114"/>
	<path id="Path_143_" fill="#333333" d="M33.463,43.912h-5.476v-15.45c0-1.123-0.6-1.683-1.8-1.683h-1.172v-2.146h4.372
		c2.717,0,4.077,1.408,4.077,4.225V43.912z"/>
	<path id="Path_142_" fill="#333333" d="M67.566,43.933H56.038v-4.989c0-1.044,0.611-2.132,1.83-3.262l3.405-2.654
		c1.305-1.087,1.959-1.919,1.959-2.494v-2.271c0-0.809-0.494-1.215-1.478-1.215c-0.857,0-1.284,0.383-1.284,1.152l-0.024,1.721
		l-4.383,3.21l-0.025-3.781c0-3.09,1.905-4.636,5.716-4.636c3.874,0,5.812,1.194,5.812,3.581v2.847c0,0.981-0.621,1.993-1.863,3.037
		L62.3,36.8c-1.22,1.068-1.83,2.091-1.83,3.072l0.013,1.359l7.063,0.016L67.566,43.933z"/>
</g>
</svg>
