<?xml version="1.0" encoding="utf-8"?>
<!-- Generator: Adobe Illustrator 17.0.0, SVG Export Plug-In . SVG Version: 6.00 Build 0)  -->
<!DOCTYPE svg PUBLIC "-//W3C//DTD SVG 1.1//EN" "http://www.w3.org/Graphics/SVG/1.1/DTD/svg11.dtd">
<svg version="1.1" id="Layer_1" xmlns="http://www.w3.org/2000/svg" xmlns:xlink="http://www.w3.org/1999/xlink" x="0px" y="0px"
	 width="180px" height="70px" viewBox="0 0 180 70" enable-background="new 0 0 180 70" xml:space="preserve">
<g id="Elk_1_">
	<path id="Path_52_" fill-rule="evenodd" clip-rule="evenodd" fill="#EEEEEE" d="M136.397,34.812L158,17h-25.352l-9.864,7.48V17
		h-18.04v20.019H81.705V17H33.11c-8.457,0-11.104,6.732-11.104,11.466L22,41.908C22,46.863,25.797,53,33.11,53h89.674v-8.287
		L132.648,53H158L136.397,34.812z M120.66,40.175v10.703H33.11c-6.826,0-8.968-6.199-8.968-8.969l0.005-13.443
		c0-4.099,2.136-9.392,8.962-9.392h46.455v20.067h27.321V19.074h13.774v9.552l12.766-9.552h18.822L133.05,34.812l19.198,16.065
		h-18.822L120.66,40.175z"/>
	<polygon id="Path_51_" fill-rule="evenodd" clip-rule="evenodd" fill="#EEEEEE" points="134.204,21.245 146.364,21.245 
		129.705,34.812 146.364,48.748 134.204,48.748 118.509,35.636 118.509,48.748 109.027,48.748 109.027,21.245 118.509,21.245 
		118.509,32.771 	"/>
	<polygon id="Path_50_" fill-rule="evenodd" clip-rule="evenodd" fill="#EEEEEE" points="67.726,21.245 77.423,21.245 
		77.423,41.263 107.206,41.263 107.206,48.748 67.726,48.748 	"/>
	<path id="Path_49_" fill-rule="evenodd" clip-rule="evenodd" fill="#EEEEEE" d="M65.458,21.245v7.441H37.683
		c-1.69,0-1.644,1.739-1.644,1.739v1.021h29.419v7.271H36.039v0.996c0,0,0.106,1.604,1.644,1.604h27.774v7.431H33.719
		c-5.8,0-7.436-4.292-7.436-6.81c0-2.518,0-10.599,0-13.572s1.436-7.121,6.915-7.121H65.458z"/>
</g>
</svg>
