<?xml version="1.0" encoding="utf-8"?>
<!-- Generator: Adobe Illustrator 21.0.0, SVG Export Plug-In . SVG Version: 6.00 Build 0)  -->
<svg version="1.1" id="Layer_1" xmlns="http://www.w3.org/2000/svg" xmlns:xlink="http://www.w3.org/1999/xlink" x="0px" y="0px"
	 viewBox="0 0 180 70" style="enable-background:new 0 0 180 70;" xml:space="preserve">
<style type="text/css">
	.st0{fill:#FF9900;}
</style>
<g id="Gamefish">
	<path class="st0" d="M67.2,27.9c0,0-9.3-0.7-10.7-0.8c-0.2,0-0.4-0.1-0.5-0.3c-1.2-1.4-2.4-2.8-3.6-4.2c-1.4-1.7-3-3.2-4.7-4.5
		c-1.4-1-2.9-1.9-4.4-2.8c-2.5-1.4-5.1-2.6-7.8-3.5c-3.6-1.1-7.2-1.6-10.9-1.8C23.4,10,21.1,10,20.9,10c0.7,0.6,2.9,3.6,3.6,5
		c0.4,0.8,0.6,1.5,0.7,2.4c0.1,0.9-0.1,1.7-0.8,2.5c-1.3,1.5-2.5,3-3.6,4.7c-1.3,2.2-2.3,4.4-2.7,7c-0.2,1.3-0.3,2.6-0.1,3.9
		c0.2,1.3,0.6,2.6,1.2,3.8c1.1,2.4,2.7,4.3,4.6,6.1c1.8,1.6,3.8,3,5.9,4.1c2.6,1.4,5.3,2.6,8,3.6c1.7,0.6,3.3,1.3,5,1.7
		c0.2,0,0.2,0.1,0.2,0.3c0,0.4,0.2,4.4,0.2,4.4s0,0.6,0.5,0.6c0.4,0,0.6-0.6,0.6-0.6l0.5-17.2c0,0-0.1-0.9-1-0.9s-1,1-1,1L43,53.3
		c0,0-0.1,0.4-0.3,0.3c-0.7-0.2-1.5-0.4-2.2-0.7c-2.9-1.1-5.4-2.6-7.6-4.7c-1.5-1.4-2.7-3.1-3.5-5c-0.8-1.8-1-3.7-0.7-5.7
		c0.2-1.5,0.7-2.9,1.4-4.2c1.1-2,2.7-3.7,4.5-5.2c2.2-1.7,4.7-3,7.4-3.9c1.8-0.6,3.6-0.9,5.4-1c1-0.1,2,0,2.9-0.1
		c0.2,0,0.3,0.1,0.5,0.2c0.8,1,3.6,4.2,4.2,4.9c0.3,0.3,0.6,0.4,1,0.4c0.2,0,11.3-0.1,11.4-0.1c0.3,0,0.4-0.2,0.4-0.4
		C67.6,28.1,67.4,27.9,67.2,27.9z"/>
	<path class="st0" d="M44.4,25.5c-1.4,0-2.6,1.2-2.6,2.6c0,1.4,1.2,2.6,2.6,2.6c1.4,0,2.6-1.2,2.6-2.6C47,26.7,45.8,25.5,44.4,25.5z
		"/>
	<g>
		<path class="st0" d="M63.8,41.4V51H62l-0.2-1.7c-1.4,1.3-3,2-4.9,2c-1.8,0-3.1-0.7-4-2.1c-0.8-1.4-1.2-3.6-1.2-6.6
			c0-2.2,0.2-3.9,0.7-5.2c0.5-1.2,1.2-2.1,2.2-2.6c1-0.5,2.4-0.8,4.2-0.8c1.7,0,3.3,0.2,4.6,0.5l-0.2,1.8c-1.3-0.1-2.8-0.2-4.2-0.2
			c-0.8,0-1.4,0-1.8,0.1s-0.9,0.3-1.3,0.5c-0.4,0.3-0.7,0.6-0.9,1.1c-0.2,0.5-0.4,1.1-0.5,1.9c-0.1,0.8-0.2,1.7-0.2,2.9
			c0,2.4,0.2,4,0.7,5c0.5,0.9,1.3,1.4,2.6,1.4c1.2,0,2.5-0.5,3.9-1.5v-6.3H63.8z"/>
		<path class="st0" d="M76.2,46h-6.6L68,51h-2.4l5.2-15.9c0.1-0.4,0.4-0.6,0.9-0.6h2.4c0.5,0,0.8,0.2,0.9,0.6L80.2,51h-2.5L76.2,46z
			 M75.5,43.9l-1.9-6.3c0-0.1-0.1-0.4-0.2-0.7c-0.1-0.3-0.2-0.5-0.2-0.7h-0.6l-0.4,1.3l-1.9,6.3H75.5z"/>
		<path class="st0" d="M95.6,34.4h2.6c0.6,0,1,0.3,1,1L99.8,51h-2.4l-0.6-14.6h-0.5L93,48.2c-0.1,0.5-0.5,0.8-1,0.8h-2.1
			c-0.6,0-0.9-0.3-1.1-0.8l-3.4-11.8H85L84.5,51h-2.4l0.6-15.6c0-0.7,0.4-1,1-1h2.7c0.5,0,0.8,0.3,1,0.8l2.8,9.7
			c0.2,0.6,0.3,1.3,0.6,2.2h0.4c0.2-0.8,0.4-1.6,0.6-2.3l2.8-9.7C94.7,34.7,95,34.4,95.6,34.4z"/>
		<path class="st0" d="M113.7,49l0.1,1.8c-1.5,0.1-3.8,0.2-7.1,0.2c-1,0-1.8-0.3-2.4-0.8c-0.6-0.5-0.9-1.3-0.9-2.2V37.4
			c0-0.9,0.3-1.6,0.9-2.2c0.6-0.5,1.4-0.8,2.4-0.8c3.3,0,5.6,0.1,7.1,0.2l-0.1,1.9h-6.6c-0.5,0-0.8,0.1-1,0.3
			c-0.2,0.2-0.3,0.6-0.3,1.2v3.3h7v1.9h-7v4.2c0,0.6,0.1,1,0.3,1.2s0.5,0.3,1,0.3H113.7z"/>
		<path class="st0" d="M127.1,36.5h-6.1c-0.6,0-1,0.1-1.2,0.3c-0.2,0.2-0.3,0.6-0.3,1.2v3.6h6.8v1.9h-6.8V51H117V37.5
			c0-1,0.3-1.7,0.9-2.3c0.6-0.5,1.4-0.8,2.4-0.8c3.2,0,5.5,0.1,6.9,0.2L127.1,36.5z"/>
		<path class="st0" d="M132.4,51H130V34.4h2.4V51z"/>
		<path class="st0" d="M142.3,44.2l-3.4-0.9c-1.2-0.3-2-0.9-2.5-1.6c-0.5-0.8-0.8-1.8-0.8-3.1c0-0.9,0.1-1.7,0.3-2.3
			c0.2-0.6,0.5-1,1-1.3c0.5-0.3,1-0.5,1.7-0.6c0.6-0.1,1.4-0.1,2.4-0.1c2,0,3.6,0.2,5,0.5l-0.1,1.8c-2.3-0.1-3.9-0.1-4.8-0.1
			c-1.2,0-2.1,0.1-2.5,0.4c-0.4,0.2-0.6,0.9-0.6,1.9c0,0.8,0.1,1.4,0.4,1.7s0.8,0.6,1.5,0.8l3.3,0.9c1.2,0.3,2.1,0.9,2.6,1.6
			s0.8,1.8,0.8,3.1c0,1.8-0.4,3-1.2,3.6s-2.3,0.9-4.4,0.9c-1.8,0-3.5-0.2-5.2-0.5l0.2-1.8c2.5,0.1,4.2,0.1,5.1,0.1
			c1.2,0,2.1-0.2,2.5-0.5c0.4-0.3,0.6-1,0.6-2c0-0.8-0.1-1.4-0.4-1.8C143.6,44.6,143.1,44.4,142.3,44.2z"/>
		<path class="st0" d="M162,34.4V51h-2.4v-7.8h-7.2V51h-2.4V34.4h2.4v6.7h7.2v-6.7H162z"/>
	</g>
</g>
</svg>
