<?xml version="1.0" encoding="utf-8"?>
<!-- Generator: Adobe Illustrator 21.0.0, SVG Export Plug-In . SVG Version: 6.00 Build 0)  -->
<svg version="1.1" id="Layer_1" xmlns="http://www.w3.org/2000/svg" xmlns:xlink="http://www.w3.org/1999/xlink" x="0px" y="0px"
	 viewBox="0 0 180 70" enable-background="new 0 0 180 70" xml:space="preserve">
<g id="Snowborn_1_">
	<path fill="#EEEEEE" d="M94.4,32.2c0,2.9,0,5.8,0,8.7c0,8.3-7.4,10.5-12.8,7.8c-0.8-0.4-1.4-0.4-2.1,0C73.2,52,66.7,48.1,66.7,41
		c0-6.1,0-12.2,0-18.3c0-2.1,0.6-2.6,2.7-2.6c3.7,0,3.9,0.1,3.9,3.8c0,5.6,0,11.3,0,16.9c0,1.7,0.6,2.4,1.9,2.5
		c1.4,0,2.2-0.7,2.2-2.4c0-3.6,0-7.1,0-10.7c0-2.6,0-5.2,0-7.8c0-1.7,0.6-2.2,2.2-2.3c0.5,0,1.1,0,1.6,0c2,0,2.6,0.6,2.6,2.7
		c0,2.5,0,5,0,7.5c0,3.6,0,7.1,0,10.7c0,1.7,0.6,2.4,2,2.3c1.4,0,2-0.7,2-2.4c0-6.1,0-12.1,0-18.2c0-2.1,0.6-2.6,2.7-2.6
		c3.8,0,3.8,0.1,3.8,3.8C94.4,26.7,94.4,29.4,94.4,32.2z"/>
	<path fill="#EEEEEE" d="M35.6,38.4c0,2.8,0,5.5,0,8.3c0,2.6-0.5,3.1-3,3.1c-0.3,0-0.7,0-1,0c-1.9,0-2.5-0.6-2.5-2.5
		c0-8.3,0-16.5,0-24.8c0-1.9,0.6-2.4,2.5-2.4c3.4,0,3.4,0,4.6,3.1c1,2.5,2,5,2.9,7.5c0.1,0.3,0.2,0.6,0.6,0.8c0-1.6,0-3.3,0-4.9
		c0-1.5,0-3,0-4.5c0-1.3,0.6-2,1.8-2c1-0.1,2-0.1,3,0c1,0.1,1.6,0.7,1.7,1.7c0,0.4,0,0.7,0,1.1c0,8.1,0,16.1,0,24.2
		c0,2.3-0.5,2.8-2.7,2.8c-0.3,0-0.7,0-1,0c-1.9,0-2.2-0.2-2.9-1.9c-1.2-3.2-2.5-6.3-3.7-9.5C35.7,38.4,35.6,38.4,35.6,38.4z"/>
	<path fill="#EEEEEE" d="M159.5,38.4c0,2.9,0,5.9,0,8.8c0,2-0.6,2.6-2.6,2.6c-3.8,0-3.9-0.1-3.9-3.9c0-7.8,0-15.5,0-23.3
		c0-2,0.6-2.6,2.6-2.6c0.3,0,0.7,0,1,0c2,0,2.4,0.3,3.1,2.2c1.2,3.1,2.4,6.2,3.8,9.2c0-0.3,0.1-0.7,0.1-1c0-2.6,0-5.2,0-7.7
		c0-2.1,0.6-2.7,2.6-2.7c3.8,0,3.8,0,3.8,3.9c0,7.8,0,15.5,0,23.3c0,2.1-0.5,2.5-2.6,2.6c-0.3,0-0.6,0-0.9,0c-2.2,0-2.5-0.1-3.3-2.3
		c-1.2-3.1-2.4-6.2-3.6-9.2C159.6,38.3,159.5,38.4,159.5,38.4z"/>
	<path fill="#EEEEEE" d="M96.1,34.9c0-3.4,0-6.8,0-10.2c0-3.3,1.4-4.6,4.6-4.6c1.9,0,3.9-0.2,5.8,0.1c3.9,0.6,6.5,3.7,6.7,8.1
		c0.1,2-0.2,3.9-1.1,5.7c-0.2,0.3-0.2,1,0,1.3c1.6,3.5,1.6,7,0,10.4c-1.2,2.6-3.5,4-6.3,4.1c-1.8,0.1-3.6,0.1-5.4,0.1
		c-2.9,0-4.3-1.4-4.4-4.4C96.1,41.9,96.1,38.4,96.1,34.9z M102.6,37.8c0,0.4,0,0.7,0,1.1c0,1.1,0,2.2,0,3.3c0,0.3,0.2,0.7,0.4,0.9
		c1.1,0.9,3.6,0,3.7-1.4c0.2-2.9,0.1-4.1-3.3-3.9C103.3,37.8,103,37.8,102.6,37.8z M102.6,31.3c0.7,0,1.3,0,1.9,0
		c1.7,0,2.3-0.7,2.3-2.4c0-1.9-0.7-2.4-2.9-2.4c-0.8,0-1.2,0.4-1.2,1.2C102.6,28.9,102.6,30,102.6,31.3z"/>
	<path fill="#EEEEEE" d="M146,37.9c1.5,2.4,3,4.8,4.5,7.3c1.1,1.8,0.9,2.7-0.8,3.8c-0.3,0.2-0.6,0.4-0.9,0.6
		c-1.7,1.1-2.7,0.9-3.7-0.8c-1.5-2.4-3-4.9-4.7-7.3c0,1.8,0,3.7,0,5.5c0,2.6-0.3,2.9-3,2.9c-0.3,0-0.6,0-0.9,0
		c-2.1,0-2.7-0.6-2.7-2.7c0-7.5,0-14.9,0-22.4c0-3.3,1.4-4.7,4.7-4.7c1.4,0,2.8,0,4.2,0c4.6,0,7.9,3,8.2,7.6
		c0.2,2.6,0.2,5.3-1.6,7.5C148.4,36.2,147.2,36.9,146,37.9z M140.3,31.8c0.9,0,1.7,0.2,2.4-0.1c0.6-0.2,1.4-0.8,1.6-1.4
		c0.3-0.7,0.2-1.6,0-2.3c-0.2-1.1-1.3-1.6-3-1.4c-1.2,0.1-1,1-1,1.8C140.3,29.4,140.3,30.5,140.3,31.8z"/>
	<path fill="#EEEEEE" d="M132.1,35c0,2.2,0,4.4,0,6.6c0,3.1-1.1,5.9-4,7.4c-3.1,1.7-6.3,1.6-9.4-0.2c-2.5-1.5-3.6-3.9-3.7-6.7
		c-0.1-4.8-0.2-9.6,0-14.4c0.1-3.5,2.4-7.7,7.7-7.9c5.9-0.2,9.3,3,9.3,9C132.1,30.9,132.1,32.9,132.1,35z M121.6,34.9
		c0,2.2,0,4.4,0,6.6c0,1.3,0.7,2,2,2c1.3,0,2-0.7,2-2c0-4.4,0-8.9,0-13.3c0-1.3-0.8-2-2-2c-1.3,0-2,0.7-2,2
		C121.6,30.5,121.6,32.7,121.6,34.9z"/>
	<path fill="#EEEEEE" d="M65,35c0,2.2,0,4.4,0,6.6c0,3.1-1.1,5.9-4,7.4c-3.1,1.7-6.3,1.6-9.4-0.2c-2.5-1.5-3.6-3.9-3.7-6.7
		c-0.1-4.8-0.2-9.6,0-14.4c0.1-3.5,2.4-7.7,7.7-7.9c5.9-0.2,9.3,3,9.3,9C65,30.9,65,32.9,65,35z M54.5,34.9c0,2.2,0,4.4,0,6.6
		c0,1.3,0.7,2,2,2c1.3,0,2-0.7,2-2c0-4.4,0-8.9,0-13.3c0-1.3-0.8-2-2-2c-1.3,0-2,0.7-2,2C54.5,30.5,54.5,32.7,54.5,34.9z"/>
	<path fill="#EEEEEE" d="M18.1,19.8c4.5,0,7.9,2.3,8.8,5.9c0.2,0.8,0.3,1.6,0.3,2.3c0,1.7-0.7,2.4-2.4,2.5c-0.4,0-0.8,0-1.2,0
		c-2.1,0-2.6-0.4-3-2.5c-0.3-1.4-0.9-1.9-2.3-1.7c-1.4,0.2-2.2,1.7-1.3,2.9c0.4,0.6,1,1.1,1.6,1.5c2.1,1.8,4.4,3.4,6.4,5.3
		c4.5,4.4,1.5,11.7-2.3,13.3c-4.2,1.8-11.4,0.1-12.4-5.5c-0.2-1.4-0.7-3,0.5-4c1.3-1,2.9-0.7,4.4-0.3c1,0.2,1.2,1.1,1.4,2
		c0.1,1,0.4,1.9,1.5,1.9c0.7,0,1.9-0.2,2.1-0.7c0.3-0.7,0.3-1.9-0.1-2.5c-0.9-1.1-2.2-2-3.3-2.9c-1.7-1.4-3.5-2.5-5-4.1
		c-2.6-2.8-2.2-6-0.7-9.2C12.6,21.1,15,19.7,18.1,19.8z"/>
</g>
</svg>
