<?xml version="1.0" encoding="utf-8"?>
<!-- Generator: Adobe Illustrator 21.0.0, SVG Export Plug-In . SVG Version: 6.00 Build 0)  -->
<svg version="1.1" id="Layer_1" xmlns="http://www.w3.org/2000/svg" xmlns:xlink="http://www.w3.org/1999/xlink" x="0px" y="0px"
	 viewBox="0 0 180 70" enable-background="new 0 0 180 70" xml:space="preserve">
<g id="Wazdan">
	<g>
		<path fill="#EEEEEE" d="M75.3,44.1V26.4c0-0.2,0.1-0.3,0.2-0.4c0.1-0.1,0.5-0.1,1.3-0.1c0.7,0,1.4,0,2.6,0l-0.3,10.8l0.1,0.1
			l3.1-6.3c0.1-0.1,0.2-0.2,0.4-0.2h1.7l2.9,6.5l0.1-0.1l-0.2-10.3c0-0.2,0.1-0.3,0.2-0.4c0.2-0.1,0.3-0.1,0.9-0.1
			c0.7,0,1.6,0,2.7,0v17.8c0,0.2-0.1,0.4-0.2,0.4c-0.1,0.1-0.3,0.1-0.6,0.1h-3.2L83.1,36l-3.5,7.6c-0.1,0.2-0.2,0.3-0.3,0.4
			c-0.1,0.1-0.2,0.1-0.5,0.1H75.3z"/>
		<path fill="#EEEEEE" d="M108.5,44.1c-0.3,0.1-0.8,0.1-1.6,0.1c-0.9,0-1.7,0-2.4-0.1l-1.3-4.2h-5.1L97,43.6
			c-0.1,0.2-0.2,0.4-0.4,0.4s-0.7,0.1-1.5,0.1c-0.9,0-1.8,0-2.7-0.1l6.3-17.7c0.1-0.4,0.7-0.5,1.7-0.5c0.9,0,1.5,0,2,0.1l6.3,17.8
			C108.8,43.8,108.7,44,108.5,44.1z M102.4,37.4l-1.7-5.4l-1.8,5.4H102.4z"/>
		<path fill="#EEEEEE" d="M109.4,43c0-0.4,0.1-0.8,0.3-1.2l7.9-13.3h-7.7v-2.1c0-0.2,0.1-0.3,0.2-0.4c0.2-0.1,0.3-0.1,0.6-0.1H122
			c0.1,0.2,0.2,0.3,0.3,0.4c0.1,0.1,0.1,0.3,0.1,0.5c0,0.4-0.1,0.8-0.4,1.2l-8,13.3h8.5v2.3c0,0.2-0.1,0.3-0.2,0.4s-0.3,0.1-0.6,0.1
			h-11.7C109.6,43.8,109.4,43.5,109.4,43z"/>
		<path fill="#EEEEEE" d="M124.3,26.4c0-0.2,0.1-0.3,0.2-0.4c0.2-0.1,0.4-0.1,0.8-0.1h5.7c1.8,0,3.2,0.2,4.3,0.7
			c1.1,0.5,1.8,1.3,2.4,2.5c0.5,1.2,0.8,2.9,0.8,5.1c0,3.5-0.6,6.1-1.7,7.7c-1.1,1.6-3,2.4-5.5,2.4h-7V26.4z M131.4,41.4
			c0.5,0,0.9-0.2,1.2-0.6c0.3-0.4,0.6-1.1,0.8-2.2c0.2-1.1,0.3-2.7,0.3-4.8c0-1.5-0.1-2.6-0.3-3.4c-0.2-0.8-0.4-1.3-0.8-1.5
			c-0.3-0.3-0.8-0.4-1.3-0.4h-2.8v12.9H131.4z"/>
		<path fill="#EEEEEE" d="M154.4,44.1c-0.3,0.1-0.8,0.1-1.6,0.1c-0.9,0-1.7,0-2.4-0.1l-1.3-4.2H144l-1.1,3.7
			c-0.1,0.2-0.2,0.4-0.4,0.4s-0.7,0.1-1.5,0.1c-0.9,0-1.8,0-2.7-0.1l6.3-17.7c0.1-0.4,0.7-0.5,1.7-0.5c0.9,0,1.5,0,2,0.1l6.3,17.8
			C154.8,43.8,154.6,44,154.4,44.1z M148.3,37.4l-1.7-5.4l-1.8,5.4H148.3z"/>
		<path fill="#EEEEEE" d="M166,26c0.1-0.1,0.6-0.1,1.2-0.1c0.7,0,1.6,0,2.8,0v17.8c0,0.2-0.1,0.3-0.2,0.4c-0.1,0.1-0.3,0.1-0.6,0.1
			H166l-5.8-10.8v10.3c0,0.2-0.1,0.3-0.2,0.4c-0.1,0.1-0.5,0.1-1.2,0.1c-0.7,0-1.6,0-2.8,0V26.4c0-0.3,0.3-0.5,0.8-0.5h3.3l5.7,10.4
			v-9.9C165.8,26.2,165.9,26.1,166,26z"/>
	</g>
	<path fill="#EEEEEE" d="M48.4,41V27.1c0-0.7,0.6-1.3,1.3-1.3h13.9c1.1,0,1.7,1.4,0.9,2.2L50.5,41.9C49.7,42.7,48.4,42.1,48.4,41z"
		/>
	<path fill="#EEEEEE" d="M29.5,41V27.1c0-0.7,0.6-1.3,1.3-1.3h13.9c1.1,0,1.7,1.4,0.9,2.2L31.7,41.9C30.9,42.7,29.5,42.1,29.5,41z"
		/>
	<path fill="#EEEEEE" d="M26.4,41V27.1c0-0.7-0.6-1.3-1.3-1.3H11.3c-1.1,0-1.7,1.4-0.9,2.2l13.9,13.9C25,42.7,26.4,42.1,26.4,41z"/>
</g>
</svg>
