<!-- Generated by IcoMoon.io -->
<svg version="1.1" xmlns="http://www.w3.org/2000/svg" width="160" height="60" viewBox="0 0 160 60">
<title>iconPay_Sofort</title>
<path fill="#f90" d="M97.077 17c-7.539 0-12.761 6.583-15.136 13.201s-1.206 12.799 6.476 12.799 12.283-6.001 14.997-13.499c2.715-7.499 0.335-12.501-6.337-12.501zM34.598 17.36c-3.734 0-4.688 0.279-6.32 1.007-2.703 1.205-5.414 6.362-5.414 9.315 0 1.205 0.197 3.685 6.159 5.073 1.607 0.374 1.319 1.546 1.205 1.932-0.289 0.978-0.983 1.431-3.419 1.431h-14.515l-2.294 6.462h16.23c7.496 0 11.036-4.135 12.084-8.949s-1.756-6.028-5.928-7.088c-0.738-0.188-1.278-0.897-1.111-1.845s1.265-1.351 2.378-1.351h9.031c2.69-4.072 6.019-5.987 6.019-5.987h-14.105zM75.19 17.36c-4.019 0-7.011 2.085-8.423 5.987l-6.827 19.233h7.479l3.508-9.886 6.61 0.005 1.881-5.296-6.588-0.005 1.061-3.066c0.22-0.55 0.749-0.987 1.522-0.987l7.793 0.003c2.054-3.421 6.359-5.988 6.359-5.988h-14.375zM109.887 17.374l-8.957 25.222h7.607l3.255-8.878c0.159 0.366 2.080 8.878 2.080 8.878h7.998c0 0-1.378-6.843-3.47-10.767 2.259-0.861 5.533-2.709 6.889-6.453 0.833-2.302 1.995-8.001-7.123-8.001h-8.279zM125.491 17.374c0 0 2.749 1.96 2.263 5.989h4.53l-6.827 19.239h6.821l6.831-19.239h8.764l2.127-5.989h-24.509zM116.155 22.581c1.91 0 3.269 0.547 2.375 2.839-1.17 2.998-3.21 3.263-4.546 3.263l-1.291-0.001 2.207-6.1 1.255-0.001zM95.282 22.706c3.245 0 2.097 3.679 0.821 7.148s-2.492 7.405-5.945 7.405c-3.453 0-1.934-4.651-0.93-7.346s2.809-7.207 6.054-7.207zM56.323 17c-7.539 0-12.761 6.583-15.136 13.201s-1.205 12.799 6.477 12.799 12.283-6.001 14.997-13.499 0.334-12.501-6.338-12.501zM54.529 22.706c3.245 0 2.097 3.679 0.821 7.148s-2.492 7.405-5.945 7.405c-3.453 0-1.934-4.651-0.93-7.346s2.809-7.207 6.054-7.207z"></path>
</svg>
