<!-- Generated by IcoMoon.io -->
<svg version="1.1" xmlns="http://www.w3.org/2000/svg" width="160" height="60" viewBox="0 0 160 60">
<title>iconPay_Visa</title>
<path fill="#06c" d="M72.553 47.4h-9.139l5.712-34.779h9.14l-5.713 34.779zM47.013 36.542l-1.030-5.149-3.584-12.377-8.84-1.831 7.94 30.215h9.522l14.54-34.779h-9.836l-8.712 23.921zM127.608 47.4h8.392l-7.316-34.779h-7.346c-3.392 0-4.219 2.592-4.219 2.592l-13.631 32.187h9.527l1.905-5.166h11.618l1.070 5.166zM117.552 35.098l4.802-13.015 2.701 13.015h-7.503zM105.507 13.516c0 0-4.024-1.516-8.22-1.516-4.535 0-15.305 1.964-15.305 11.513 0 8.985 12.64 9.097 12.64 13.816s-11.338 3.874-15.080 0.898l-1.359 7.809c0 0 4.081 1.964 10.315 1.964 6.237 0 15.645-3.199 15.645-11.907 0-9.043-12.754-9.884-12.754-13.816s8.901-3.427 12.812-1.292l1.306-7.469z"></path>
<path fill="#f90" d="M45.983 31.392l-3.075-15.64c0 0-0.372-3.131-4.335-3.131h-14.404l-0.169 0.588c0 0 6.923 1.422 13.563 6.748 6.35 5.091 8.42 11.435 8.42 11.435z"></path>
</svg>
