<!-- Generated by IcoMoon.io -->
<svg version="1.1" xmlns="http://www.w3.org/2000/svg" width="160" height="60" viewBox="0 0 160 60">
<title>iconPay_Bitcoin</title>
<path fill="#f90" d="M46.486 30c0 10.062-8.168 18.219-18.243 18.219s-18.243-8.157-18.243-18.219c0-10.062 8.168-18.219 18.243-18.219s18.243 8.157 18.243 18.219z"></path>
<path fill="#eee" d="M36.287 27.419c0.274-1.645-0.46-3.46-4.012-4.597l0.82-3.284-2.002-0.498-0.798 3.197c-0.533-0.131-1.068-0.256-1.603-0.377l0.804-3.218-2.001-0.498-0.82 3.283c-0.436-0.099-4.036-0.999-4.036-0.999l-0.532 2.135c0 0 1.485 0.34 1.454 0.361 0.811 0.202 0.957 0.738 0.933 1.163l-2.246 8.996c-0.099 0.246-0.351 0.615-0.918 0.475 0.021 0.029-1.454-0.363-1.454-0.363l-0.994 2.289c0 0 3.564 0.897 4.032 1.016l-0.828 3.322 1.999 0.498 0.82-3.287c0.546 0.149 1.076 0.285 1.595 0.414l-0.818 3.271 2.001 0.498 0.827-3.316c3.413 0.645 5.98 0.385 7.060-2.698 0.871-2.482-0.043-3.914-1.839-4.848 1.397-0.339 2.277-1.266 2.556-2.935zM31.713 33.823c-0.619 2.482-4.804 1.141-6.16 0.804l1.099-4.4c1.356 0.338 5.707 1.007 5.061 3.596zM32.332 27.383c-0.564 2.257-4.048 1.11-5.178 0.829l0.997-3.991c1.476 0.372 4.745 0.905 4.181 3.162z"></path>
<path fill="#999" d="M64.863 25.351c3.383 1.329 4.425 6.926 2.597 10.983-2.034 4.515-5.724 6.865-10.158 6.87s-6.898-1.303-6.898-1.303l5.792-24.305 5.188-0.802-2.074 8.625c-0.001-0.001 2.376-1.316 5.553-0.068zM59.24 38.857c1.431-0.493 2.891-1.932 3.683-4.010 1.080-2.835 0.113-5.272-0.668-5.606-2.217-0.949-3.986 0.558-3.986 0.558l-2.209 9.159c0.001 0 1.749 0.392 3.18-0.101zM73.692 42.739h-4.955l4.184-17.584h4.989l-4.218 17.584zM73.673 19.187c0.49-1.018 1.468-2.057 3.166-2.057 2.407 0 3.217 2.153 2.424 3.829-0.72 1.522-1.96 2.054-3.059 2.054-2.824 0-3.204-2.427-2.531-3.826zM128.811 19.187c0.49-1.018 1.468-2.057 3.166-2.057 2.407 0 3.217 2.153 2.424 3.829-0.72 1.522-1.96 2.054-3.059 2.054-2.824 0-3.204-2.427-2.531-3.826zM82.252 20.774l5.19-0.803-1.274 5.183h5.558l-1.004 4.078h-5.524l-1.472 6.151c-0.136 0.512-1.255 3.611 2.141 3.611 2.062 0 3.079-0.568 3.079-0.568l0.37 3.812c0 0-1.642 0.9-5.563 0.9-5.944 0-5.454-5.065-5.005-7.375 0.343-1.764 3.504-14.989 3.504-14.989v0zM92.243 31.438c2.763-6.6 8.203-6.769 9.809-6.754 3.065 0.027 4.856 1.037 4.856 1.037l-1.708 3.88c0 0-2.616-1.271-4.99-0.422-2.558 0.915-3.443 3.374-3.581 5.148-0.177 2.278 0.462 4.113 2.306 4.555 1.9 0.456 4.659-0.589 4.659-0.589l0.37 3.978c0 0-2.141 0.935-4.789 0.935-9.059 0.001-8.087-9.010-6.932-11.768zM113.519 43.205c-7.21 0-7.765-6.853-6.31-11.267 0.798-2.42 3.534-7.256 9.253-7.256 7.204 0 7.802 6.942 6.33 11.27-0.773 2.272-3.231 7.253-9.273 7.253zM115.994 28.898c-2.617 0-3.655 2.586-4.2 4.362s-0.824 5.735 2.193 5.735c2.228 0 3.71-2.21 4.203-4.364 0.535-2.329 0.712-5.733-2.196-5.733zM123.866 42.739l4.184-17.584h4.991l-4.217 17.584h-4.958zM136.612 25.955c0 0 4.793-1.754 9.1-1.006s4.804 4.626 3.923 8.294-2.279 9.494-2.279 9.494h-4.987l2.209-9.295c0 0 0.5-2.152 0.301-3.126-0.435-2.133-4.082-1.185-4.082-1.185l-3.248 13.605h-4.989l4.052-16.781z"></path>
</svg>
