<!-- Generated by IcoMoon.io -->
<svg version="1.1" xmlns="http://www.w3.org/2000/svg" width="160" height="60" viewBox="0 0 160 60">
<title>iconPay_Neosurf</title>
<path fill="#f36" d="M150 15v6.229h-3.015c-1.211 0-2.023 0.418-2.023 2.673h3.856v6.237h-3.944v14.861h-6.846v-22.594c0-4.404 3.777-7.406 7.381-7.406h4.591zM100.774 23.903h6.846v11.827c0 2.392 2.38 2.392 2.38 2.392s2.38 0 2.38-2.392v-11.827h6.846v14.218c0 6.879-9.226 6.879-9.226 6.879s-9.226 0-9.226-6.879v-14.218zM122.464 23.903h6.846v3.389c0.538-2.101 1.974-3.389 5.425-3.389v6.237c-3.916 0-5.425 1.678-5.425 4.375s0 10.486 0 10.486h-6.846v-21.098zM69.239 23.659c-5.865 0-10.62 4.777-10.62 10.671s4.755 10.67 10.62 10.67 10.62-4.777 10.62-10.671-4.755-10.67-10.62-10.67zM69.239 38.572c-2.332 0-4.222-1.899-4.222-4.243s1.89-4.243 4.222-4.243c2.332 0 4.222 1.899 4.222 4.243s-1.89 4.243-4.222 4.243zM50.026 35.703c-0.568 1.669-2.143 2.869-3.996 2.869-2.332 0-4.222-1.899-4.222-4.243s1.89-4.243 4.222-4.243c0.582 0 1.136 0.118 1.641 0.332l-4.327 2.835 2.533 3.903 10.087-6.61c-1.519-4.027-5.394-6.889-9.933-6.889-5.865 0-10.62 4.777-10.62 10.671s4.754 10.672 10.619 10.672c4.662 0 8.622-3.018 10.051-7.216l-6.055-2.081zM89.668 31.518c-0.352 0-0.686-0.125-0.686-0.689 0-0.381 0.307-0.689 0.686-0.689h7.635v-6.237c0 0-6.43 0-7.635 0-3.807 0-6.893 3.101-6.893 6.926 0 6.568 8.237 6.555 8.556 6.555s0.686 0.164 0.686 0.689c0 0.381-0.307 0.689-0.686 0.689h-8.556v6.238c0 0 7.216 0 8.556 0 3.807 0 6.893-3.101 6.893-6.926 0.001-6.556-8.204-6.556-8.556-6.556zM25.153 15v15.427c0 0-7.627-13.045-7.903-13.534-0.618-1.093-2.49-1.893-3.827-1.893-1.89 0-3.423 1.54-3.423 3.439v26.561h6.846v-15.427c0 0 7.635 13.058 7.903 13.533 0.618 1.094 2.489 1.894 3.827 1.894 1.89 0 3.423-1.54 3.423-3.439v-26.561h-6.846z"></path>
</svg>
