<!-- Generated by IcoMoon.io -->
<svg version="1.1" xmlns="http://www.w3.org/2000/svg" width="160" height="60" viewBox="0 0 160 60">
<title>iconPay_MasterCard</title>
<path fill="#f33" d="M80 47.788c5.023-4.561 7.88-11.020 7.868-17.788 0.012-6.768-2.845-13.227-7.868-17.788-4.248-3.86-9.883-6.212-16.066-6.212-13.218 0-23.934 10.745-23.934 24s10.716 24 23.934 24c6.183 0 11.819-2.352 16.066-6.212z"></path>
<path fill="#f90" d="M96.066 6c-6.183 0-11.819 2.352-16.066 6.212-0.866 0.788-1.674 1.637-2.416 2.541h4.831c0.663 0.807 1.273 1.656 1.826 2.541h-8.482c-0.511 0.819-0.971 1.668-1.38 2.541h11.239c0.387 0.827 0.726 1.675 1.016 2.541h-13.268c-0.278 0.834-0.51 1.682-0.695 2.541h14.658c0.359 1.671 0.539 3.374 0.539 5.082 0 2.664-0.434 5.228-1.234 7.623h-13.268c0.289 0.866 0.627 1.714 1.013 2.541h11.239c-0.408 0.874-0.868 1.723-1.378 2.541h-8.481c0.552 0.886 1.162 1.734 1.824 2.541h4.832c-0.742 0.904-1.549 1.754-2.415 2.541 4.247 3.862 9.883 6.214 16.066 6.214 13.218 0 23.934-10.745 23.934-24s-10.716-24-23.934-24v0z"></path>
<path fill="#eee" d="M94.753 25.586l-0.423 2.502c0 0-1.252-0.625-2.151-0.625-1.806 0-3.073 1.798-3.073 4.339 0 1.759 0.845 2.814 2.267 2.814 0.955 0 2.036-0.586 2.036-0.586l-0.422 2.618c0 0-1.048 0.352-2.113 0.352-2.612 0-4.226-1.916-4.226-5.003 0-4.104 2.228-6.997 5.417-6.997 1.435 0 2.688 0.586 2.688 0.586zM84.764 28.83l0.231-1.446h-2.19l-1.498 9.381h2.421l0.98-5.346c0 0 0.277-1.575 1.44-1.376l0.922-2.697c-0.001-0.001-1.211-0.471-2.306 1.484zM104.576 28.83l0.231-1.446h-2.19l-1.498 9.381h2.421l0.98-5.346c0 0 0.277-1.575 1.44-1.376l0.922-2.697c-0.001-0.001-1.21-0.471-2.306 1.484zM73.084 36.648c-0.653 0.235-1.191 0.313-1.729 0.313-1.229 0-2.184-0.742-1.844-2.892 0.267-1.691 1.306-8.091 1.306-8.091h2.383l-0.269 1.407h1.229l-0.307 2.306h-1.229l-0.653 3.909c0 0-0.361 1.385 1.421 0.978l-0.308 2.070zM63.825 30.355c0 1.173 0.538 1.993 1.806 2.619 0.999 0.469 1.153 0.625 1.153 1.016 0 0.587-0.423 0.86-1.383 0.86-0.73 0-1.383-0.117-2.151-0.351l-0.346 2.149c0 0 1.173 0.274 2.497 0.274 2.553 0 3.727-0.978 3.727-3.127 0-1.29-0.499-2.033-1.69-2.619-1.037-0.469-1.153-0.586-1.153-1.016 0-0.508 0.423-0.742 1.191-0.742 0.461 0 1.114 0.039 1.729 0.117l0.345-2.15c-0.615-0.117-1.575-0.196-2.113-0.196-2.69 0-3.65 1.446-3.612 3.166v0zM113.156 36.765h-2.267l0.116-0.899c-0.653 0.703-1.345 1.016-2.229 1.016-1.767 0-2.92-1.524-2.92-3.869 0-3.127 1.806-5.785 3.919-5.785 0.961 0 1.652 0.43 2.306 1.29l0.538-3.283h2.381l-1.844 11.53zM111.504 31.41c0-1.212-0.423-1.837-1.268-1.837-1.076 0-1.882 1.29-1.882 3.127 0 1.251 0.498 1.876 1.267 1.876 1.113 0.001 1.883-1.329 1.883-3.166zM80.461 36.569c-0.846 0.274-1.614 0.391-2.497 0.391-2.69 0-4.073-1.446-4.073-4.221 0-3.205 1.768-5.589 4.188-5.589 1.998 0 4.093 1.522 2.958 5.746h-4.763c-0.289 1.651 1.508 2.636 4.572 1.329l-0.385 2.344zM79.116 30.98c0 0 0.306-1.681-1.153-1.681-0.768 0-1.306 0.587-1.537 1.681h2.69zM52.261 36.765l1.383-8.873-3.112 8.873h-1.652l-0.192-8.795-1.46 8.795h-2.228l1.882-11.531h3.458l0.115 7.153 2.305-7.153h3.765l-1.882 11.531h-2.382zM58.024 33.99c0 0.587 0.307 0.938 0.845 0.938 0.999 0 1.729-0.959 1.729-2.345-1.77-0.161-2.574 0.469-2.574 1.407zM60.367 36.765l0.038-0.978c-0.615 0.782-1.422 1.134-2.536 1.134-1.306 0-2.19-1.016-2.19-2.541 0-2.306 1.664-4.006 5.225-3.557 0.142-0.918 0.158-1.387-1.46-1.446-0.691-0.025-2.574 0.391-2.574 0.391l0.346-2.111c4.831-1.346 6.346 0.341 6.070 2.736-0.054 0.466-0.922 6.371-0.922 6.371l-1.997 0.001zM96.024 33.99c0 0.587 0.307 0.938 0.845 0.938 0.999 0 1.729-0.959 1.729-2.345-1.77-0.161-2.574 0.469-2.574 1.407zM98.367 36.765l0.038-0.978c-0.615 0.782-1.422 1.134-2.536 1.134-1.306 0-2.19-1.016-2.19-2.541 0-2.306 1.664-4.006 5.225-3.557 0.142-0.918 0.158-1.387-1.46-1.446-0.691-0.025-2.574 0.391-2.574 0.391l0.346-2.111c4.831-1.346 6.346 0.341 6.070 2.736-0.054 0.466-0.922 6.371-0.922 6.371l-1.997 0.001z"></path>
</svg>
