<!-- Generated by IcoMoon.io -->
<svg version="1.1" xmlns="http://www.w3.org/2000/svg" width="160" height="60" viewBox="0 0 160 60">
<title>iconPay_YandexMoney</title>
<path fill="#f33" d="M16.39 41.93v-9.711l-6.381-17.412h3.209l4.702 13.429 5.411-16.236h2.948l-6.941 20.333v9.597h-2.948z"></path>
<path fill="#999" d="M87.076 41.93h-1.53l1.157-27.123h2.052l4.628 20.169h0.075l4.776-20.169h2.089l1.157 27.123h-1.791l-0.859-23.81h-0.113l-4.626 19.562h-1.455l-4.553-19.524h-0.112l-0.895 23.772z"></path>
<path fill="#999" d="M102.841 32.485c0-6.373 2.501-10.053 5.747-10.053s5.746 3.262 5.746 9.825c0 6.335-2.5 10.053-5.746 10.053s-5.747-3.301-5.747-9.825zM112.581 32.371c0-5.994-1.791-8.459-3.993-8.459s-3.993 2.655-3.993 8.459c0 5.956 1.791 8.497 3.993 8.497s3.993-2.731 3.993-8.497z"></path>
<path fill="#999" d="M117.747 27.971v13.96h-1.755v-19.12h1.605l0.075 3.148h0.075c0.522-1.403 2.015-3.528 4.552-3.528 2.501 0 3.955 1.593 3.955 4.628v14.87h-1.754v-14.641c0-2.276-0.821-3.338-2.538-3.338-1.864-0.001-3.282 1.593-4.215 4.021z"></path>
<path fill="#999" d="M133.934 40.755c2.5 0 3.806-2.049 3.806-2.049l0.56 1.441c0 0-1.418 2.162-4.403 2.162-3.992 0-5.822-3.68-5.822-9.939s2.313-9.939 5.486-9.939c3.246 0 5.335 3.452 4.738 10.243h-8.508c0.076 5.235 1.419 8.081 4.143 8.081zM129.829 31.271h6.83c0.298-5.083-1.195-7.359-3.098-7.359-1.977 0-3.582 2.579-3.732 7.359z"></path>
<path fill="#999" d="M139.822 47.924l-0.186-1.669c2.88 0.871 3.53-1.973 4.030-3.793l-4.665-19.65h1.753l3.882 16.805 3.806-16.805h1.567l-4.814 20.106c-0.635 2.578-1.754 5.082-4.403 5.082-0.41 0-0.709-0.038-0.97-0.076z"></path>
<path fill="#999" d="M33.449 41.93h-2.463c-0.112-0.417-0.224-1.024-0.261-1.517h-0.187c-0.821 1.062-1.866 1.783-3.508 1.783-2.687 0-4.515-2.049-4.515-5.804 0-4.097 2.052-6.677 7.314-6.677h0.41v-1.138c0-2.504-0.821-3.566-2.463-3.566-1.492 0-2.761 0.797-3.731 1.669l-0.56-2.618c0.858-0.721 2.575-1.517 4.478-1.517 3.321 0 5.15 1.441 5.15 6.070v8.991c0.001 1.821 0.187 3.414 0.336 4.324zM30.24 31.954h-0.336c-3.62 0-4.403 1.631-4.403 4.097 0 2.2 0.709 3.642 2.201 3.642 1.008 0 2.015-0.683 2.538-1.518v-6.221zM37.469 41.93h-2.91v-19.157h2.91v1.669h0.187c0.523-0.721 1.94-1.897 3.694-1.897 2.463 0 3.769 1.403 3.769 4.324v15.060h-2.948v-14.793c0-1.442-0.635-1.935-1.754-1.935-1.231 0-2.276 0.949-2.948 1.897v14.832zM46.439 33.092c0-7.094 2.612-10.546 6.381-10.546 0.896 0 1.828 0.303 2.388 0.721v-8.459h2.911v27.122h-2.165l-0.224-1.517h-0.187c-0.821 1.062-1.866 1.783-3.395 1.783-3.694 0-5.709-3.187-5.709-9.104zM55.209 25.884c-0.597-0.607-1.231-0.911-2.201-0.911-2.351 0-3.471 3.604-3.471 7.511 0 4.476 0.821 7.208 2.948 7.208 1.455 0 2.239-0.721 2.724-1.48v-12.328zM66.057 42.196c-3.881 0-6.269-3.148-6.269-9.028 0-6.146 1.679-10.622 5.672-10.622 3.134 0 5.187 2.39 5.187 8.877v1.631h-7.837c0 4.324 1.194 6.601 3.508 6.601 1.642 0 2.836-0.759 3.582-1.29l0.672 2.276c-1.195 0.948-2.65 1.555-4.515 1.555zM62.847 30.626h4.814c0-3.262-0.523-5.652-2.202-5.652-1.791 0-2.425 2.238-2.612 5.652zM82.364 22.811l-3.508 8.953 3.918 10.167h-3.022l-2.911-7.891-2.836 7.891h-2.873l3.918-9.901-3.545-9.218h3.022l2.426 6.942 2.574-6.942h2.837z"></path>
</svg>
