<!-- Generated by IcoMoon.io -->
<svg version="1.1" xmlns="http://www.w3.org/2000/svg" width="160" height="60" viewBox="0 0 160 60">
<title>iconPay_WebMoney</title>
<path fill="#06c" d="M132.015 12.5c2.793 0 5.45 0.635 7.835 1.772 0.374 0.167 0.75 0.368 1.123 0.569l-1.635 1.438-2.451-2.507-4.224 3.677-2.487-2.641-7.767 6.854 4.972 5.382-1.941 1.671 4.906 5.382-1.941 1.67 7.017 7.656 4.153-3.744 3.612 4.013c-0.716 0.535-1.499 1.071-2.35 1.538-2.589 1.437-5.587 2.272-8.789 2.272-9.845 0-17.849-7.855-17.849-17.515-0.033-9.597 7.972-17.487 17.816-17.487zM128.745 28.914l4.258-3.744 3.816 4.179-4.259 3.744-3.815-4.179zM131.777 36.136l4.223-3.778 3.849 4.178-4.258 3.745-3.814-4.145zM125.715 21.794l4.257-3.744 3.815 4.179-4.258 3.744-3.814-4.179zM133.514 19.788l3.168-2.808 2.862 3.109-3.168 2.841-2.862-3.142zM139.169 32.658l3.167-2.808 2.862 3.142-3.168 2.81-2.861-3.144zM141.962 38.977l3.168-2.809 2.86 3.109-3.167 2.841-2.861-3.141zM143.256 24.535l2.112-1.872 1.907 2.073-2.111 1.872-1.908-2.073zM140.531 18.35l2.112-1.905 1.908 2.106-2.113 1.872-1.907-2.073zM145.947 30.72l2.112-1.872 1.941 2.073-2.145 1.872-1.908-2.073zM136.443 26.073l3.168-2.808 2.861 3.108-3.167 2.809-2.862-3.109z"></path>
<path fill="#06c" d="M59.329 32.995h-0.115l-4.975-12.74h-2.834v16.16h2.342v-11.442h0.205l4.662 11.442h1.461l4.302-11.716h0.206v11.716h2.539v-16.16h-2.834z"></path>
<path fill="#06c" d="M44.999 24.802c-1.234 0-2.399 0.48-3.082 0.844v-6.495l-2.377 0.569v15.906c1.371 0.731 3.244 1.118 4.456 1.118 3.311 0 5.367-2.074 5.367-6.336 0-3.646-1.531-5.606-4.364-5.606zM43.996 35.15c-0.572 0-1.372-0.047-2.103-0.366v-7.452c0.914-0.5 1.576-0.752 2.491-0.752 1.53 0 2.581 0.934 2.581 3.829-0.001 3.691-1.279 4.741-2.969 4.741z"></path>
<path fill="#06c" d="M23.615 32.322h-0.16l-3.176-12.057h-2.033l-2.969 12.057h-0.16l-2.559-12.057h-2.558l3.701 16.159h2.465l3.017-11.374h0.16l3.106 11.374h2.467l3.702-16.159h-2.673z"></path>
<path fill="#06c" d="M33.218 24.668c-3.427 0-5.185 2.507-5.185 5.973 0 3.601 1.576 5.971 5.413 5.971 1.646 0 3.016-0.456 4.043-1.049v-1.732c-1.255 0.751-2.398 1.184-3.631 1.184-2.354 0-3.472-1.208-3.472-3.942h7.447v-0.843c-0.001-3.715-1.761-5.562-4.615-5.562zM30.431 29.545c0.25-2.278 1.325-3.349 2.718-3.349 1.233 0 2.399 0.956 2.512 3.349h-5.23z"></path>
<path fill="#06c" d="M73.677 24.668c-3.014 0-5.208 1.982-5.208 5.972 0 3.896 2.079 5.971 5.208 5.971 3.13 0 5.209-2.075 5.209-5.971-0.001-3.99-2.193-5.972-5.209-5.972zM73.677 35.015c-1.621 0-2.81-1.252-2.81-4.375 0-3.076 1.303-4.375 2.81-4.375 1.553 0 2.809 1.298 2.809 4.375 0 3.123-1.188 4.375-2.809 4.375z"></path>
<path fill="#06c" d="M109.698 24.668l-2.603 8.387h-0.137l-2.924-8.387h-2.513l4.386 11.394c-0.55 1.688-1.507 2.919-3.062 2.919v1.868c2.627 0 4.018-1.641 5.162-4.787l4.135-11.394h-2.444z"></path>
<path fill="#06c" d="M96.668 24.668c-3.427 0-5.185 2.507-5.185 5.973 0 3.601 1.577 5.971 5.413 5.971 1.645 0 3.016-0.456 4.043-1.049v-1.732c-1.254 0.751-2.398 1.184-3.63 1.184-2.353 0-3.472-1.208-3.472-3.942h7.448v-0.843c-0.001-3.715-1.761-5.562-4.617-5.562zM93.881 29.545c0.252-2.278 1.325-3.349 2.718-3.349 1.234 0 2.4 0.956 2.512 3.349h-5.23z"></path>
<path fill="#06c" d="M86.159 24.668c-2.626 0-4.797 1.071-5.825 1.688v9.982h2.376v-9.025c0.708-0.41 1.874-0.821 2.787-0.821 1.166 0 2.056 0.319 2.056 2.119v7.727h2.374v-8.251c-0.001-2.348-1.027-3.419-3.768-3.419z"></path>
</svg>
