<!-- Generated by IcoMoon.io -->
<svg version="1.1" xmlns="http://www.w3.org/2000/svg" width="160" height="60" viewBox="0 0 160 60">
<title>iconPay_VisaElectron</title>
<path fill="#06c" d="M38 39.453h9.989v2.951h-6.206l-0.041 2.724h6.185v2.828h-6.207l0.022 2.724h6.121v2.95h-9.86l-0.003-14.177zM50.497 38.263h3.636l0.013 15.367h-3.636l-0.013-15.367zM66.641 52.463c-1.233 1.024-3.113 1.537-4.786 1.537-3.824 0-5.559-2.663-5.559-5.307 0-3.114 2.382-5.757 5.663-5.757 4.012 0 5.266 2.786 5.266 6.331h-7.292c0 0.799 0.522 2.151 2.529 2.151 1.275 0 1.985-0.369 2.968-1.024l1.211 2.069zM63.966 47.177c0-1.065-0.523-2.029-1.734-2.029-1.149 0-2.027 1.004-2.257 2.029h3.991zM78.26 52.934c-1.003 0.614-2.654 1.065-3.866 1.065-3.343 0-5.746-1.885-5.746-5.285 0-3.483 2.382-5.778 5.977-5.778 1.254 0 2.758 0.389 3.573 0.901l-1.17 2.335c-0.543-0.225-1.129-0.41-1.714-0.41-1.818 0-3.030 1.066-3.030 2.766 0 1.476 1.17 2.643 2.717 2.643 0.689 0 1.379-0.307 1.964-0.594l1.295 2.357zM79.604 43.305h1.643l-0.012-3.505h3.511l-0.083 3.504h2.989l-0.064 2.582h-2.987c0 1.434-0.105 2.95-0.105 3.831 0 0.901 0.23 1.331 1.046 1.331 0.501 0 0.919-0.246 1.337-0.491l0.794 2.418c-1.068 0.636-2.363 1.025-3.597 1.025-2.947 0-3.092-1.823-3.092-4.2 0-1.271 0.104-2.54 0.104-3.913h-1.567l0.083-2.582zM93.146 43.305l0.041 1.455c0.543-0.881 1.254-1.742 2.675-1.742 0.397 0 0.814 0.041 1.191 0.123l-0.481 3.524c-0.355-0.103-0.753-0.205-1.296-0.205-1.212 0-2.152 1.004-2.152 1.209l-0.062 5.962h-3.635l0.083-10.327 3.636 0.001zM103.641 42.936c3.886 0 5.893 2.418 5.893 5.531s-2.007 5.532-5.893 5.532c-3.887 0-5.894-2.418-5.894-5.532s2.007-5.531 5.894-5.531v0zM103.641 51.294c1.734 0 2.256-1.475 2.256-2.827s-0.522-2.826-2.256-2.826c-1.735 0-2.257 1.474-2.257 2.826s0.523 2.827 2.257 2.827zM115.146 43.305v1.127c0.836-0.798 2.11-1.495 3.407-1.495 2.236 0 3.448 1.208 3.448 4.036 0 2.11-0.020 4.384-0.041 6.659h-3.637c0.020-1.988 0.042-3.995 0.042-6.126 0-0.84-0.23-1.495-1.317-1.495-0.585 0-1.422 0.491-1.902 0.942l-0.019 6.679h-3.701l0.085-10.327h3.635z"></path>
<path fill="#f90" d="M57.029 38.958c11.74-4.934 28.215-9.405 50.031-4.928l0.229-5.425c-23.019-2.465-39.536 4.723-50.261 9.817v0.536z"></path>
<path fill="#06c" d="M73.342 24.691h-4.876l3.047-18.363h4.876l-3.047 18.363zM64.364 6.328l-4.649 12.63-2.19-10.977c0 0-0.198-1.653-2.313-1.653h-7.685l-0.090 0.311c0 0 2.35 0.479 5.1 2.099l4.236 15.954h5.080l7.758-18.363-5.247-0.001zM107.194 24.691l-3.904-18.363h-3.92c-1.81 0-2.251 1.368-2.251 1.368l-7.272 16.995h5.083l1.016-2.728h6.199l0.571 2.728h4.478zM97.351 18.195l2.562-6.872 1.441 6.872h-4.003zM90.228 10.744l0.696-3.943c0 0-2.147-0.801-4.386-0.801-2.42 0-8.166 1.037-8.166 6.079 0 4.744 6.744 4.803 6.744 7.295s-6.049 2.045-8.046 0.474l-0.725 4.123c0 0 2.177 1.037 5.504 1.037s8.347-1.689 8.347-6.287c0-4.774-6.805-5.219-6.805-7.295 0.002-2.076 4.751-1.809 6.837-0.682v0z"></path>
</svg>
