<svg xmlns="http://www.w3.org/2000/svg" xmlns:xlink="http://www.w3.org/1999/xlink" width="22" height="15" viewBox="0 0 22 15"><defs><path id="njdha" d="M1078 302h-22v-5h22z"/><path id="njdhb" d="M1078 312h-22v-5h22z"/><path id="njdhc" d="M1078 307h-22v-5h22z"/><path id="njdhd" d="M1067 308.38c-1.56 0-2.83-1.27-2.83-2.83v-3.42h5.66v3.42c0 1.56-1.27 2.83-2.83 2.83z"/><path id="njdhe" d="M1069.95 302h-5.91v3.545a2.954 2.954 0 1 0 5.91 0zm-.25.25v3.295a2.707 2.707 0 0 1-2.705 2.705 2.707 2.707 0 0 1-2.705-2.705v-3.295h5.41z"/><path id="njdhf" d="M1068.69 302.17h1.119v1.226h-1.119z"/><path id="njdhg" d="M1066.45 302.17h1.117v1.226h-1.117z"/><path id="njdhh" d="M1064.2 302.17h1.12v1.226h-1.12z"/><path id="njdhi" d="M1068.69 304.63h1.119v1.229h-1.119z"/><path id="njdhj" d="M1066.45 304.63h1.117v1.229h-1.117z"/><path id="njdhk" d="M1064.2 304.63h1.12v1.229h-1.12z"/><path id="njdhl" d="M1068.69 307.76c.367-.277.56-.563.635-.67h-.635z"/><path id="njdhm" d="M1065.323 307.76c-.367-.277-.559-.563-.633-.67h.633z"/><path id="njdhn" d="M1066.45 308.27s.2.054.56.054h.557v-1.234h-1.117z"/><path id="njdho" d="M1067.56 305.86h1.12v1.229h-1.12z"/><path id="njdhp" d="M1065.32 305.86h1.12v1.229h-1.12z"/><path id="njdhq" d="M1067.56 303.39h1.12v1.229h-1.12z"/><path id="njdhr" d="M1065.32 303.39h1.12v1.229h-1.12z"/><path id="njdhs" d="M1064.363 301.997l-.613-1.387.453-.74.813.303.373 1.466s-.578.15-1.026.358z"/><path id="njdht" d="M1066.451 301.465l-.12-1.511-.753-.434-.568.652.375 1.465c.002 0 .594-.144 1.066-.172z"/><path id="njdhu" d="M1067.55 301.465l.121-1.511.752-.434.566.652-.375 1.465s-.591-.144-1.064-.172z"/><path id="njdhv" d="M1067.543 301.46l.12-1.511-.665-.549-.668.549.121 1.512s.666-.053 1.092 0z"/><path id="njdhw" d="M1069.635 301.997l.614-1.387-.453-.74-.813.303-.373 1.466s.578.15 1.025.358z"/><path id="njdhx" d="M1065.114 300.54c.789-.176 1.035-.2 1.254-.215l-.03-.373-.002-.002c-.142.008-.63.047-1.316.22z"/><path id="njdhy" d="M1066.423 301.09l-.032-.38c-.457.023-1.052.162-1.191.197l.096.377c.472-.136.931-.18 1.127-.193z"/><path id="njdhz" d="M1068.71 301.27c.5.13.893.291 1.084.377l.236-.533a6.648 6.648 0 0 0-1.175-.414z"/><path id="njdhA" d="M1068.73 301.17c.148.032.553.138 1.1.386l.156-.352a7.68 7.68 0 0 0-1.162-.404z"/></defs><g><g transform="translate(-1056 -297)"><g><use fill="#f44336" xlink:href="#njdha"/></g><g><use fill="#0d47a1" xlink:href="#njdhb"/></g><g><use fill="#f5f5f5" xlink:href="#njdhc"/></g><g><use fill="#fff" xlink:href="#njdhd"/></g><g><use fill="#f44336" xlink:href="#njdhe"/></g><g><use fill="#f44336" xlink:href="#njdhf"/></g><g><use fill="#f44336" xlink:href="#njdhg"/></g><g><use fill="#f44336" xlink:href="#njdhh"/></g><g><use fill="#f44336" xlink:href="#njdhi"/></g><g><use fill="#f44336" xlink:href="#njdhj"/></g><g><use fill="#f44336" xlink:href="#njdhk"/></g><g><use fill="#f44336" xlink:href="#njdhl"/></g><g><use fill="#f44336" xlink:href="#njdhm"/></g><g><use fill="#f44336" xlink:href="#njdhn"/></g><g><use fill="#f44336" xlink:href="#njdho"/></g><g><use fill="#f44336" xlink:href="#njdhp"/></g><g><use fill="#f44336" xlink:href="#njdhq"/></g><g><use fill="#f44336" xlink:href="#njdhr"/></g><g><use fill="#4fc3f7" xlink:href="#njdhs"/></g><g><use fill="#3f51b5" xlink:href="#njdht"/></g><g><use fill="#3f51b5" xlink:href="#njdhu"/></g><g><use fill="#4fc3f7" xlink:href="#njdhv"/></g><g><use fill="#4fc3f7" xlink:href="#njdhw"/></g><g><use fill="#4fc3f7" xlink:href="#njdhw"/></g><g><use fill="#f44336" xlink:href="#njdhx"/></g><g><use fill="#f44336" xlink:href="#njdhy"/></g><g><use fill="#fff" xlink:href="#njdhz"/></g><g><use fill="#f44336" xlink:href="#njdhA"/></g></g></g></svg>