<svg xmlns="http://www.w3.org/2000/svg" xmlns:xlink="http://www.w3.org/1999/xlink" width="22" height="15" viewBox="0 0 22 15"><defs><path id="hptla" d="M864 307h22v5h-22z"/><path id="hptlb" d="M870.5 308c-1.205-.58-3-1.219-3-3.5V301h6v3.5c0 2.281-1.795 2.92-3 3.5"/><path id="hptlc" d="M873.5 304.5c0 2.281-1.795 2.92-3 3.5-1.205-.58-3-1.219-3-3.5V301h6v3.5zm-6.5-4v4c0 2.488 2.084 3.367 3.5 4 1.416-.633 3.5-1.512 3.5-4v-4z"/><path id="hptld" d="M864 297v5h3v-1.5h7v1.5h12v-5z"/><path id="hptle" d="M870.79 304.244c.364.006 1.075.02 1.71-.191 0 0-.016.226-.016.49s.016.49.016.49c-.582-.193-1.3-.197-1.71-.193v1.41h-.577v-1.408c-.412-.006-1.131-.002-1.713.193 0 0 .016-.226.016-.492 0-.264-.016-.49-.016-.49.635.213 1.348.199 1.713.191v-.885c-.334-.002-.67-.048-1.213.133v-.49-.492c.541.181.879.26 1.21.258-.017-.563-.18-1.268-.18-1.268s.337.025.47.025c.133 0 .47-.025.47-.025s-.163.705-.18 1.266c.333.002.669-.069 1.21-.248 0 0-.016.226-.016.49 0 .265.016.492.016.492-.541-.182-.879-.143-1.21-.14z"/><path id="hptlf" d="M867 304.5V302h-3v5h4.014c-.592-.592-1.014-1.383-1.014-2.5z"/><path id="hptlg" d="M874.004 302v2.5c0 1.117-.422 1.908-1.014 2.5h13.014v-5z"/><path id="hptlh" d="M871.418 306.324s-.319-.824-.914-.824c-.594 0-.914.824-.914.824s-.176-.39-.662-.39c-.3 0-.614.308-.768.554.633.782 1.633 1.17 2.344 1.512.71-.342 1.681-.695 2.314-1.477-.154-.246-.44-.59-.738-.59-.484 0-.662.391-.662.391z"/></defs><g><g transform="translate(-864 -297)"><g><use fill="#ff3d00" xlink:href="#hptla"/></g><g><use fill="#ff3d00" xlink:href="#hptlb"/></g><g><use fill="#eceff1" xlink:href="#hptlc"/></g><g><use fill="#eceff1" xlink:href="#hptld"/></g><g><use fill="#fff" xlink:href="#hptle"/></g><g><use fill="#1976d2" xlink:href="#hptlf"/></g><g><use fill="#1976d2" xlink:href="#hptlg"/></g><g><use fill="#1976d2" xlink:href="#hptlh"/></g></g></g></svg>