<?xml version="1.0" encoding="utf-8"?>
<!-- Generator: Adobe Illustrator 21.0.0, SVG Export Plug-In . SVG Version: 6.00 Build 0)  -->
<svg version="1.1" id="Режим_изоляции"
	 xmlns="http://www.w3.org/2000/svg" xmlns:xlink="http://www.w3.org/1999/xlink" x="0px" y="0px" width="26px" height="22px"
	 viewBox="0 0 26 22" style="enable-background:new 0 0 26 22;" xml:space="preserve">
<style type="text/css">
	.st0{fill:#FFFFFF;}
</style>
<path id="TelegramWhite" class="st0" d="M24.3,0.1L0.6,9.4c-0.8,0.3-0.8,1.4,0.1,1.7l6.1,1.8L9,20c0.2,0.8,1.2,1,1.7,0.4l3.1-3.2
	l6.2,4.5c0.8,0.6,1.8,0.1,2.1-0.8L26,1.4C26.2,0.5,25.2-0.3,24.3,0.1L24.3,0.1z M21.3,4.4l-11,9.8c-0.1,0.1-0.2,0.2-0.2,0.3
	l-0.4,3.9c0,0.1-0.2,0.1-0.2,0l-1.7-5.6c-0.1-0.2,0-0.6,0.2-0.7l13-8.2C21.3,3.7,21.6,4.2,21.3,4.4L21.3,4.4z"/>
</svg>
