<?xml version="1.0" encoding="utf-8"?>
<!-- Generator: Adobe Illustrator 21.0.0, SVG Export Plug-In . SVG Version: 6.00 Build 0)  -->
<svg version="1.1" id="Слой_1" xmlns="http://www.w3.org/2000/svg" xmlns:xlink="http://www.w3.org/1999/xlink" x="0px" y="0px"
	 width="12px" height="13px" viewBox="0 0 12 13" style="enable-background:new 0 0 12 13;" xml:space="preserve">
<style type="text/css">
	.st0{fill:#FFFFFF;}
</style>
<path id="spin" class="st0" d="M9.7,6.9c0,1-0.4,2-1.1,2.7c-0.7,0.7-1.6,1.1-2.6,1.1S4,10.3,3.3,9.6C2.6,8.9,2.2,7.9,2.2,6.9
	s0.4-2,1.1-2.7C4,3.5,5,3.1,5.9,3.1c0.6,0,1.2,0.2,1.8,0.5L6.3,5.4H12L10.6,0L9.1,1.8c-1-0.6-2.1-1-3.2-1c-1.6,0-3.1,0.6-4.2,1.8
	C0.6,3.7,0,5.3,0,6.9s0.6,3.2,1.7,4.3C2.9,12.4,4.4,13,5.9,13s3.1-0.6,4.2-1.8c1.1-1.2,1.7-2.7,1.7-4.3V6.5H9.7V6.9z"/>
</svg>
