<?xml version="1.0" encoding="utf-8"?>
<!-- Generator: Adobe Illustrator 21.0.0, SVG Export Plug-In . SVG Version: 6.00 Build 0)  -->
<svg version="1.1" id="Capa_1" xmlns="http://www.w3.org/2000/svg" xmlns:xlink="http://www.w3.org/1999/xlink" x="0px" y="0px"
	 width="40px" height="40px" viewBox="0 0 40 40" style="enable-background:new 0 0 40 40;" xml:space="preserve">
<style type="text/css">
	.st0{fill:#8C8B93;}
</style>
<path id="_x31_8" class="st0" d="M26.3,17.6c0-0.5,0.4-0.8,0.9-0.8c0.6,0,1,0.3,1,0.8c0,0.5-0.4,0.8-1,0.8
	C26.6,18.4,26.3,18.1,26.3,17.6z M27.2,20.4c-0.8,0-1.2,0.4-1.2,1c0,0.6,0.5,1,1.2,1s1.2-0.4,1.2-1S28,20.4,27.2,20.4z M20,4.8
	C11.6,4.8,4.8,11.6,4.8,20S11.6,35.2,20,35.2S35.2,28.4,35.2,20S28.4,4.8,20,4.8L20,4.8z M15.9,20.9h-2.2v2.2H11v-2.2H8.7v-2.6H11
	v-2.2h2.7v2.2h2.2L15.9,20.9L15.9,20.9z M22,24.3h-2.9v-7.2h-1.7v-2.3H22L22,24.3L22,24.3z M27.2,24.5c-2.5,0-4.1-1.2-4.1-3
	c0-0.9,0.4-1.6,1.2-2.2c-0.6-0.5-0.9-1.1-0.9-1.8c0-1.7,1.5-2.8,3.8-2.8s3.8,1.1,3.8,2.8c0,0.7-0.3,1.4-0.9,1.8
	c0.8,0.5,1.2,1.3,1.2,2.2C31.3,23.3,29.7,24.5,27.2,24.5z M34.1,5.9C30.4,2.1,25.3,0,20,0S9.6,2.1,5.9,5.9C2.1,9.6,0,14.7,0,20
	s2.1,10.4,5.9,14.1C9.6,37.9,14.7,40,20,40s10.4-2.1,14.1-5.9C37.9,30.4,40,25.3,40,20S37.9,9.6,34.1,5.9z M20,37.2
	c-9.5,0-17.2-7.7-17.2-17.2S10.5,2.8,20,2.8S37.2,10.5,37.2,20S29.5,37.2,20,37.2L20,37.2z"/>
</svg>
