<?xml version="1.0" encoding="utf-8"?>
<!-- Generator: Adobe Illustrator 21.0.0, SVG Export Plug-In . SVG Version: 6.00 Build 0)  -->
<svg version="1.1" id="Layer_1" xmlns="http://www.w3.org/2000/svg" xmlns:xlink="http://www.w3.org/1999/xlink" x="0px" y="0px"
	 width="30px" height="30px" viewBox="0 0 30 30" style="enable-background:new 0 0 30 30;" xml:space="preserve">
<style type="text/css">
	.st0{fill:#FFDA44;}
	.st1{fill:#D80027;}
</style>
<g id="de">
	<path class="st0" d="M0.9,20.2C3.1,25.9,8.6,30,15,30s11.9-4.1,14.1-9.8L15,18.9L0.9,20.2z"/>
	<path d="M15,0C8.6,0,3.1,4.1,0.9,9.8L15,11.1l14.1-1.3C26.9,4.1,21.4,0,15,0z"/>
	<path class="st1" d="M0.9,9.8C0.3,11.4,0,13.2,0,15s0.3,3.6,0.9,5.2h28.1c0.6-1.6,0.9-3.4,0.9-5.2s-0.3-3.6-0.9-5.2H0.9z"/>
</g>
</svg>
