<?xml version="1.0" encoding="utf-8"?>
<!-- Generator: Adobe Illustrator 21.0.0, SVG Export Plug-In . SVG Version: 6.00 Build 0)  -->
<svg version="1.1" id="Layer_1" xmlns="http://www.w3.org/2000/svg" xmlns:xlink="http://www.w3.org/1999/xlink" x="0px" y="0px"
	 width="30px" height="30px" viewBox="0 0 30 30" style="enable-background:new 0 0 30 30;" xml:space="preserve">
<style type="text/css">
	.st0{fill:#F0F0F0;}
	.st1{fill:#0052B4;}
	.st2{fill:#D80027;}
</style>
<g id="en">
	<circle class="st0" cx="15" cy="15" r="15"/>
	<path class="st1" d="M3.1,5.9C1.9,7.4,1,9.2,0.5,11.1h7.8L3.1,5.9z M29.5,11.1c-0.5-1.9-1.4-3.7-2.6-5.2l-5.2,5.2H29.5z M0.5,18.9
		c0.5,1.9,1.4,3.7,2.6,5.2l5.2-5.2H0.5L0.5,18.9z M24.1,3.1c-1.5-1.2-3.3-2.1-5.2-2.6v7.8L24.1,3.1z M5.9,26.9
		c1.5,1.2,3.3,2.1,5.2,2.6v-7.8L5.9,26.9z M11.1,0.5C9.2,1,7.4,1.9,5.9,3.1l5.2,5.2V0.5z M18.9,29.5c1.9-0.5,3.7-1.4,5.2-2.6
		l-5.2-5.2L18.9,29.5L18.9,29.5z M21.7,18.9l5.2,5.2c1.2-1.5,2.1-3.3,2.6-5.2H21.7z"/>
	<path class="st2" d="M29.9,13H17h0V0.1C16.3,0,15.7,0,15,0c-0.7,0-1.3,0-2,0.1V13v0H0.1C0,13.7,0,14.3,0,15c0,0.7,0,1.3,0.1,2H13h0
		v12.9c0.6,0.1,1.3,0.1,2,0.1c0.7,0,1.3,0,2-0.1V17v0h12.9c0.1-0.6,0.1-1.3,0.1-2C30,14.3,30,13.7,29.9,13z M18.9,18.9L18.9,18.9
		l6.7,6.7c0.3-0.3,0.6-0.6,0.9-1l-5.7-5.7L18.9,18.9L18.9,18.9L18.9,18.9z M11.1,18.9L11.1,18.9l-6.7,6.7c0.3,0.3,0.6,0.6,1,0.9
		l5.7-5.7L11.1,18.9L11.1,18.9z M11.1,11.1L11.1,11.1L4.4,4.4C4.1,4.7,3.8,5,3.5,5.4l5.7,5.7L11.1,11.1L11.1,11.1z M18.9,11.1
		L18.9,11.1l6.7-6.7c-0.3-0.3-0.6-0.6-1-0.9l-5.7,5.7V11.1z"/>
</g>
</svg>
