<?xml version="1.0" encoding="utf-8"?>
<!-- Generator: Adobe Illustrator 21.0.0, SVG Export Plug-In . SVG Version: 6.00 Build 0)  -->
<svg version="1.1" id="Layer_1" xmlns="http://www.w3.org/2000/svg" xmlns:xlink="http://www.w3.org/1999/xlink" x="0px" y="0px"
	 width="30px" height="30px" viewBox="0 0 30 30" style="enable-background:new 0 0 30 30;" xml:space="preserve">
<style type="text/css">
	.st0{fill:#FFDA44;}
	.st1{fill:#0052B4;}
</style>
<g id="sw">
	<circle class="st0" cx="15" cy="15" r="15"/>
	<path class="st1" d="M11.7,13h18.1C28.9,5.7,22.6,0,15,0c-1.1,0-2.2,0.1-3.3,0.4L11.7,13L11.7,13L11.7,13z"/>
	<path class="st1" d="M7.8,13V1.8C3.7,4.1,0.8,8.2,0.1,13L7.8,13L7.8,13z"/>
	<path class="st1" d="M7.8,17H0.1c0.6,4.9,3.6,9,7.7,11.2L7.8,17L7.8,17z"/>
	<path class="st1" d="M11.7,17v12.7c1,0.2,2.1,0.4,3.3,0.4c7.6,0,13.9-5.7,14.9-13L11.7,17L11.7,17z"/>
</g>
</svg>
