<?xml version="1.0" encoding="utf-8"?>
<!-- Generator: Adobe Illustrator 21.0.0, SVG Export Plug-In . SVG Version: 6.00 Build 0)  -->
<svg version="1.1" id="Layer_1" xmlns="http://www.w3.org/2000/svg" xmlns:xlink="http://www.w3.org/1999/xlink" x="0px" y="0px"
	 width="30px" height="30px" viewBox="0 0 30 30" style="enable-background:new 0 0 30 30;" xml:space="preserve">
<style type="text/css">
	.st0{fill:#CC0000;}
	.st1{fill:#009933;}
	.st2{fill:#FFCC00;}
	.st3{fill:#EEEEEE;}
</style>
<g id="pt">
	<path class="st0" d="M20.2,0.9L20.2,0.9C18.6,0.3,16.8,0,15,0s-3.6,0.3-5.2,0.9L8.5,15l1.3,14.1c1.6,0.6,3.4,0.9,5.2,0.9
		s3.6-0.3,5.2-0.9l0,0C25.9,26.9,30,21.5,30,15S25.9,3.1,20.2,0.9z"/>
	<path class="st1" d="M0,15c0,6.5,4.1,11.9,9.8,14.1V0.9C4.1,3.1,0,8.5,0,15z"/>
	<circle class="st2" cx="9.8" cy="15" r="5.2"/>
	<path class="st0" d="M9.8,17.6L9.8,17.6c-1.4,0-2.6-1.2-2.6-2.6v-2.6h5.2V15C12.4,16.4,11.2,17.6,9.8,17.6z"/>
	<path class="st3" d="M9.8,16.3L9.8,16.3c-0.8,0-1.3-0.5-1.3-1.3v-1.3h2.6V15C11.1,15.8,10.6,16.3,9.8,16.3z"/>
</g>
</svg>
