<?xml version="1.0" encoding="utf-8"?>
<!-- Generator: Adobe Illustrator 21.0.0, SVG Export Plug-In . SVG Version: 6.00 Build 0)  -->
<svg version="1.1" id="flag" xmlns="http://www.w3.org/2000/svg" xmlns:xlink="http://www.w3.org/1999/xlink" x="0px" y="0px"
	 width="26px" height="26px" viewBox="0 0 26 26" style="enable-background:new 0 0 26 26;" xml:space="preserve">
<style type="text/css">
	.st0{fill:#009933;}
	.st1{fill:#FFCC00;}
	.st2{fill:#0066CC;}
	.st3{fill:#FFFFFF;}
</style>
<g id="FlagBr">
	<circle class="st0" cx="13" cy="13" r="13"/>
	<path id="_x33_" class="st1" d="M3,13l10-8l10,8l-10,8L3,13z"/>
	<path id="_x32_" class="st2" d="M13,8c2.8,0,5,2.2,5,5s-2.2,5-5,5s-5-2.2-5-5S10.2,8,13,8z"/>
	<path id="_x31_" class="st3" d="M17.7,15.3c0.1-0.3,0.3-0.6,0.3-1c-1.1-2.5-3.5-4.3-6.4-4.3c-1.2,0-2.3,0.3-3.3,0.8
		c-0.1,0.3-0.2,0.5-0.3,0.8c1-0.5,2-0.8,3.2-0.8C14.1,10.8,16.6,12.7,17.7,15.3z"/>
</g>
</svg>
