<?xml version="1.0" encoding="utf-8"?>
<!-- Generator: Adobe Illustrator 21.0.0, SVG Export Plug-In . SVG Version: 6.00 Build 0)  -->
<svg version="1.1" id="flag" xmlns="http://www.w3.org/2000/svg" xmlns:xlink="http://www.w3.org/1999/xlink" x="0px" y="0px"
	 width="26px" height="26px" viewBox="0 0 26 26" style="enable-background:new 0 0 26 26;" xml:space="preserve">
<style type="text/css">
	.st0{fill:#CC0000;}
	.st1{fill:#FFCC00;}
</style>
<g id="FlagSP">
	<path class="st0" d="M13,0C8,0,3.6,2.8,1.5,7L13,11l11.5-4C22.4,2.8,18,0,13,0z"/>
	<path class="st0" d="M13,26c5,0,9.4-2.8,11.5-7L13,15L1.5,19C3.6,23.2,8,26,13,26z"/>
	<path class="st1" d="M24.5,7H1.5C0.5,8.8,0,10.8,0,13s0.5,4.2,1.5,6h23.1c0.9-1.8,1.5-3.8,1.5-6S25.5,8.8,24.5,7z"/>
	<path class="st0" d="M9.1,9C7.8,9,7.1,8,7.1,8S6.3,9,5,9C3.9,9,3.1,8.2,3.1,8.2v5.2c0,3.3,4,4.7,4,4.7s3.9-1.3,3.9-4.7V8.2
		C11,8.2,10.2,9,9.1,9z"/>
</g>
</svg>
