<?xml version="1.0" encoding="utf-8"?>
<!-- Generator: Adobe Illustrator 21.0.0, SVG Export Plug-In . SVG Version: 6.00 Build 0)  -->
<svg version="1.1" id="Social" xmlns="http://www.w3.org/2000/svg" xmlns:xlink="http://www.w3.org/1999/xlink" x="0px" y="0px"
	 width="40px" height="40px" viewBox="0 0 40 40" style="enable-background:new 0 0 40 40;" xml:space="preserve">
<style type="text/css">
	.st0{fill:#249DDB;}
	.st1{fill:#E8EBEF;}
</style>
<g id="twitter">
	<rect id="b" class="st0" width="40" height="40"/>
	<path id="tw_1_" class="st1" d="M33.3,11.9c-1,0.4-2,0.7-3.1,0.8c1.1-0.7,2-1.7,2.4-3c-1.1,0.6-2.2,1.1-3.5,1.3c-1-1-2.4-1.7-4-1.7
		c-3,0-5.5,2.4-5.5,5.4c0,0.4,0,0.8,0.1,1.2c-4.5-0.2-8.6-2.4-11.3-5.6c-1.9,3.6,0.2,6.2,1.7,7.2c-0.9,0-1.7-0.3-2.5-0.7v0.1
		c0,2.6,1.9,4.8,4.4,5.3c-0.5,0.1-1.3,0.3-2.5,0.1c0.7,2.1,2.7,3.7,5.1,3.7c-1.9,1.4-4.7,2.6-8.1,2.2c2.4,1.5,5.3,2.4,8.4,2.4
		c12.2,0,16.1-11.1,15.5-16C31.6,13.9,32.6,12.9,33.3,11.9z"/>
</g>
</svg>
