<!-- Generated by IcoMoon.io -->
<svg version="1.1" xmlns="http://www.w3.org/2000/svg" width="40" height="40" viewBox="0 0 40 40">
<title>BetSoft</title>
<path fill="#000" opacity="0.6" d="M40 20c0 11.046-8.954 20-20 20s-20-8.954-20-20c0-11.046 8.954-20 20-20s20 8.954 20 20z"></path>
<path fill="#eee" d="M10.485 7.068h11.963l-3.418 25.865h-11.963l3.418-25.865z"></path>
<path fill="#333" d="M16.654 8.937h-4.598l-3.297 22.129h4.792c3.047 0 4.807-1.481 5.515-5.977 0.575-3.655 0.122-5.087-1.403-5.814 1.466-0.727 2.269-1.98 2.749-5.247 0.523-3.558-0.599-5.090-3.756-5.090zM14.647 21.108c1.385 0 1.999 0.401 1.473 3.551-0.503 3.010-1.073 3.246-2.098 3.246h-1.745l1.013-6.797h1.357zM16.1 12.098c1.080 0 1.457 0.52 1.169 2.742-0.332 2.568-1.182 3.107-2.318 3.107h-1.191l0.871-5.848h1.468z"></path>
<path fill="#ff0" d="M24.24 14.376c-1.021 6.181 4.513 7.016 3.777 11.466-0.255 1.545-0.927 2.102-1.851 2.102-2.072 0-0.923-3.633-0.923-3.633h-2.73c0 0-2.012 6.755 3.216 6.755 2.849 0 4.653-1.978 5.225-5.44 1.021-6.181-4.513-7.016-3.778-11.466 0.255-1.545 0.88-2.133 1.803-2.133 1.867 0 0.933 3.015 0.933 3.015h2.73c0 0 1.796-6.106-3.232-6.106-2.823-0-4.6 1.978-5.172 5.439z"></path>
</svg>
