<!-- Generated by IcoMoon.io -->
<svg version="1.1" xmlns="http://www.w3.org/2000/svg" width="40" height="40" viewBox="0 0 40 40">
<title>BoomingGames</title>
<path fill="#000" opacity="0.6" d="M40 20c0 11.046-8.954 20-20 20s-20-8.954-20-20c0-11.046 8.954-20 20-20s20 8.954 20 20z"></path>
<path fill="#f33" d="M24.897 13.16c0-1.792 0.737-2.32 1.622-2.32 1.444 0 2.093 0.823 2.093 3.995h3.478v-1.351c0-3.172-1.828-5.816-5.483-5.816-3.596 0-5.365 2.438-5.365 5.435v8.186h3.655v-8.128z"></path>
<path fill="#f33" d="M26.283 21.288l0.001 2.877 2.328 0.001v2.058c0 2.115-0.531 2.938-2.004 2.938-1.268 0-1.71-0.882-1.71-2.233v-2.771h-3.655v2.742c0 3.378 2.005 5.435 4.893 5.435 1.71 0 2.594-0.587 3.685-1.88l0.678 1.586h1.768v-10.752h-5.984z"></path>
<path fill="#f33" d="M11.389 10.957h1.386c1.621 0 2.387 1.029 2.387 2.997 0 1.762-1.061 2.703-2.446 2.703h-1.327v-5.699zM11.389 19.652h1.179c1.539 0 2.393 0.553 2.768 1.635h3.708c-0.382-1.648-1.348-2.654-2.762-3.28 1.769-0.705 2.535-2.614 2.535-4.436 0-3.613-1.739-5.611-5.66-5.611h-5.424v13.327h3.655v-1.635z"></path>
<path fill="#f33" d="M19.23 24.157h-3.655c0 0 0 1.621 0 1.625 0 2.144-0.708 3.261-2.653 3.261h-1.533v-4.886h-3.655v7.883h5.778c4.156 0 5.719-2.644 5.719-6.14 0-0.047 0-1.743 0-1.743z"></path>
</svg>
