<!-- Generated by IcoMoon.io -->
<svg version="1.1" xmlns="http://www.w3.org/2000/svg" width="40" height="40" viewBox="0 0 40 40">
<title>Endorphina</title>
<path fill="#000" opacity="0.6" d="M40 20c0 11.046-8.954 20-20 20s-20-8.954-20-20c0-11.046 8.954-20 20-20s20 8.954 20 20z"></path>
<path fill="#f90" d="M32.333 30.078c-8.285 11.203-24.667 3.988-24.667 0 0-4.937 11.674-8.545 12.992-8.545-16.193 11.773 1.695 15.571 11.674 8.545z"></path>
<path fill="#09f" d="M32.333 9.922c-8.285-11.203-24.667-3.988-24.667 0 0 4.937 11.674 8.545 12.992 8.545-16.193-11.773 1.695-15.571 11.674-8.545z"></path>
<path fill="#f33" d="M7.667 10c0 3.922 5.524 5.294 5.524 10s-5.524 6.078-5.524 10c0-2.549 14.667-6.863 14.667-10s-14.667-7.451-14.667-10z"></path>
</svg>
