<!-- Generated by IcoMoon.io -->
<svg version="1.1" xmlns="http://www.w3.org/2000/svg" width="40" height="40" viewBox="0 0 40 40">
<title>Gamevy</title>
<path fill="#000" opacity="0.6" d="M40 20c0 11.046-8.954 20-20 20s-20-8.954-20-20c0-11.046 8.954-20 20-20s20 8.954 20 20z"></path>
<path fill="#f36" d="M19.333 33.533c4.7 0 10.333-1.733 10.333-8.933v-17.667h-5.067v2.4c-1.54-1.922-3.576-2.867-5.867-2.867-4.819 0-8.4 3.467-8.4 9.667 0 6.317 3.621 9.6 8.4 9.6 2.33 0 4.366-1.050 5.867-2.933v1.867c0 3.728-2.857 4.8-5.267 4.8s-4.393-0.646-5.933-2.333l-2.267 3.6c2.409 2.079 4.922 2.8 8.2 2.8zM20.333 21.333c-2.844 0-4.867-2.010-4.867-5.267s2.023-5.2 4.867-5.2c1.659 0 3.437 0.944 4.267 2.2v6.067c-0.829 1.216-2.608 2.2-4.267 2.2z"></path>
</svg>
