<!-- Generated by IcoMoon.io -->
<svg version="1.1" xmlns="http://www.w3.org/2000/svg" width="40" height="40" viewBox="0 0 40 40">
<title>x2Gaming</title>
<path fill="#000" opacity="0.6" d="M40 20c0 11.046-8.954 20-20 20s-20-8.954-20-20c0-11.046 8.954-20 20-20s20 8.954 20 20z"></path>
<path fill="#fff" d="M31.070 6.748c3.775 3.295 6.263 8.16 6.263 13.357 0 9.515-7.663 17.228-17.115 17.228-3.201 0-7.072-1.041-9.24-2.648l4.866-7.198 0.931 0.002 3.445-4.764 3.333 4.749c0.010 0.008 4.092 0.010 4.092 0.010l-5.354-7.681 5.133-7.139-0.768 0.004 4.196-6.107c0.209 0.169 0.218 0.186 0.218 0.186z"></path>
<path fill="#0c0" d="M8.93 33.252c-3.775-3.295-6.263-8.16-6.263-13.357 0-9.515 7.663-17.228 17.115-17.228 3.201 0 7.347 1.224 9.516 2.831l-5.141 7.016-0.931-0.002-3.445 4.764-3.333-4.749c-0.010-0.008-4.092-0.010-4.092-0.010l5.354 7.681-5.133 7.139 0.768-0.004-4.196 6.107c-0.209-0.169-0.218-0.186-0.218-0.186z"></path>
<path fill="#333" d="M11.88 26.179h-3.797v-10.712c0-0.779-0.416-1.167-1.248-1.167h-0.813v-1.488h3.031c1.884 0 2.827 0.976 2.827 2.93v10.437z"></path>
<path fill="#333" d="M35.525 26.193h-7.992v-3.459c0-0.724 0.424-1.478 1.269-2.262l2.36-1.84c0.905-0.754 1.358-1.331 1.358-1.729v-1.575c0-0.561-0.342-0.843-1.025-0.843-0.594 0-0.89 0.266-0.89 0.799l-0.017 1.193-3.039 2.226-0.017-2.622c0-2.143 1.321-3.214 3.963-3.214 2.686 0 4.030 0.828 4.030 2.483v1.974c0 0.68-0.431 1.382-1.291 2.106l-2.36 1.817c-0.846 0.74-1.269 1.449-1.269 2.13l0.009 0.942 4.897 0.011 0.014 1.862z"></path>
</svg>
