<?xml version="1.0" encoding="utf-8"?>
<!-- Generator: Adobe Illustrator 21.0.0, SVG Export Plug-In . SVG Version: 6.00 Build 0)  -->
<svg version="1.1" id="Слой_1" xmlns="http://www.w3.org/2000/svg" xmlns:xlink="http://www.w3.org/1999/xlink" x="0px" y="0px"
	 width="32px" height="32px" viewBox="0 0 32 32" style="enable-background:new 0 0 32 32;" xml:space="preserve">
<style type="text/css">
	.st0{fill:#91250D;}
	.st1{fill:#FFB400;}
</style>
<g id="ico_x5F_replace">
	<path id="r_1_" class="st0" d="M8,2l-6,9h4v6.3l17,9V32h5v-8.3l-17-9V11h4L9,2H8z M26,2h-1l-6,9h4v3.7l-4.1,2.2l5,2.6l4.2-2.2V11h4
		L26,2z M10.2,21.5L6,23.7V32h5v-5.7l4.1-2.2L10.2,21.5z"/>
	<path id="r" class="st1" d="M7,1l-6,9h4v6.3l17,9V31h5v-8.3l-17-9V10h4L8,1H7z M25,1h-1l-6,9h4v3.7l-4.1,2.2l5,2.6l4.2-2.2V10h4
		L25,1z M9.2,20.5L5,22.7V31h5v-5.7l4.1-2.2L9.2,20.5z"/>
</g>
</svg>
