<?xml version="1.0" encoding="utf-8"?>
<!-- Generator: Adobe Illustrator 21.0.0, SVG Export Plug-In . SVG Version: 6.00 Build 0)  -->
<svg version="1.1" id="Слой_1" xmlns="http://www.w3.org/2000/svg" xmlns:xlink="http://www.w3.org/1999/xlink" x="0px" y="0px"
	 width="32px" height="32px" viewBox="0 0 32 32" style="enable-background:new 0 0 32 32;" xml:space="preserve">
<style type="text/css">
	.st0{fill:#91250D;}
	.st1{fill:#FFB400;}
</style>
<g id="ico_x5F_combine">
	<path id="c_6_" class="st0" d="M23,11V2H2v21h9v9h21V11H23z M11,20H5V5h15v6h-9V20z M12,15h3v-3h2v3h3v2h-3v3h-2v-3h-3V15z M29,29
		H14v-6h9v-9h6V29z"/>
	<path id="c_5_" class="st1" d="M22,10V1H1v21h9v9h21V10H22z M10,19H4V4h15v6h-9V19z M12,15h3v-3h2v3h3v2h-3v3h-2v-3h-3V15z M28,28
		H13v-6h9v-9h6V28z"/>
</g>
</svg>
