<svg xmlns="http://www.w3.org/2000/svg" xmlns:xlink="http://www.w3.org/1999/xlink" width="264" height="56" viewBox="0 0 264 56"><defs><path id="1z11a" d="M160.602 48.102c-1.102.893-2.458.891-3.864 1.345 3.733.628 6.835-.408 9.625-2.533 4.16-3.168 10.151-2.09 13.138 2.162 2.464 3.506 2.537 7.379 2.333 11.364-.035.681-.368 1.248-1.035 1.61-8.735 4.736-17.487 9.438-27.01 12.428-2.584.811-5.21 1.53-7.942 1.598-2.673.068-2.754-.048-3.446-2.66-.103-.388.033-.915-.518-1.208-1.07 1.38-1.5 2.929-.636 4.456.865 1.53 2.533 1.644 4.103 1.573 6.51-.298 12.335-2.977 18.178-5.498 6.882-2.97 13.619-6.257 20.084-10.078 1.078-.637 1.807-.231 2.365.685.629 1.034-.107 1.44-.882 1.92-7.04 4.362-14.175 8.558-21.683 12.054-6.185 2.88-12.446 5.59-19.195 6.91-2.021.396-4.049.504-6.077.215-2.148-.305-3.432-2.32-3.083-4.562.545-3.5 2.324-6.382 4.57-8.958 1.295-1.486 1.668-2.847 1.017-4.765-1.097-3.232-1.648-6.604-1.387-10.043.298-3.93 1.577-7.476 4.908-9.799 2.75-1.917 5.827-1.39 8.771-.377 2.508.864 4.901 2.101 7.666 2.161"/><path id="1z11b" d="M179.305 71.83c-.287 2.915-.524 5.568-.814 8.215-.406 3.7-.82 7.399-1.292 11.09-.34 2.663-.942 5.265-2.246 7.646-1.45 2.647-3.14 2.809-4.931.427-1.552-2.063-2.34-4.535-3.452-6.832-1.064-2.197-1.803-4.578-3.6-6.357-1.647-1.63-2.828-1.592-4.289.228-.95 1.183-1.441 2.634-2.132 3.967-1.459 2.816-2.638 5.782-4.48 8.39-.287.407-.557.836-.9 1.193-1.591 1.655-3.098 1.563-4.43-.273-1.41-1.943-1.915-4.249-2.438-6.525-.323-1.402-.44-2.852-.667-4.278-.165-1.035.108-1.608 1.252-1.904 11.35-2.936 21.833-7.922 31.93-13.808a37.89 37.89 0 0 1 1.605-.883c.187-.098.404-.139.884-.296"/><path id="1z11c" d="M186.455 60.033c1.986.784 3.045-.73 4.355-1.405.679-.35.058-.696-.253-.982-.858-.79-1.728-1.57-2.549-2.397-.261-.264-.912-.491-.452-1.04.32-.38.806-.32 1.236-.124 1.363.62 2.758 1.18 4.069 1.896.925.506 1.673.604 2.554-.076.697-.537 1.508-.933 2.294-1.342.67-.348 1.459-.547 1.966.153.55.757-.051 1.345-.585 1.863-.08.077-.162.175-.26.205-3.713 1.14-3.531 4.25-3.615 7.23-.008.278-.003.56-.036.835-.051.432-.285.736-.727.792-.52.066-.666-.376-.76-.73a60.579 60.579 0 0 1-.797-3.408c-.1-.492-.21-1.006-.8-.591-1.2.84-3.051.984-3.237 2.961-.041.442-.33.723-.753.772-.57.066-.798-.345-.849-.818-.102-.96-.661-1.62-1.295-2.27-.276-.283-.868-.536-.508-1.066.248-.365.704-.529 1.002-.458"/><path id="1z11d" d="M160.553 48.067c-1.11.89-2.475.889-3.89 1.342 3.758.626 6.88-.408 9.69-2.528 4.186-3.162 10.219-2.086 13.226 2.157 2.48 3.5 2.554 7.365 2.348 11.343-.035.68-.37 1.245-1.042 1.606-8.793 4.728-17.604 9.421-27.19 12.405-2.602.81-5.245 1.526-7.996 1.595-2.69.068-2.773-.048-3.47-2.655-.103-.387-1.113-5.328-1.768-7.242-1.105-3.226-1.66-6.592-1.397-10.024.3-3.922 1.588-7.462 4.941-9.78 2.769-1.914 5.866-1.388 8.83-.376 2.525.862 4.935 2.096 7.718 2.157"/></defs><g><g clip-path="url(#clip-CD5CBB41-B8F3-46DB-B202-DC9CCF89D27E)" transform="translate(-135 -45)"><use fill="#fff" xlink:href="#1z11a"/></g><g transform="translate(-135 -45)"><use fill="#fff" xlink:href="#1z11b"/></g><g clip-path="url(#clip-940B81B8-2BB5-4684-A000-5EDF8C3C613E)" transform="translate(-135 -45)"><use fill="#fff" xlink:href="#1z11c"/></g><g clip-path="url(#clip-DD368030-9609-4C83-AD6D-7BE066510335)" transform="translate(-135 -45)"><use fill="#fff" xlink:href="#1z11d"/></g><g transform="translate(-135 -45)"/></g></svg>