<?xml version="1.0" encoding="utf-8"?>
<!-- Generator: Adobe Illustrator 21.0.0, SVG Export Plug-In . SVG Version: 6.00 Build 0)  -->
<svg version="1.1" id="Слой_1" xmlns="http://www.w3.org/2000/svg" xmlns:xlink="http://www.w3.org/1999/xlink" x="0px" y="0px"
	 width="41px" height="36px" viewBox="0 0 41 36" style="enable-background:new 0 0 41 36;" xml:space="preserve">
<style type="text/css">
	.st0{fill:#FFCC00;}
	.st1{fill:#333333;}
</style>
<g id="ico_x5F_LiveChat">
	<path class="st0" d="M41,36h-2l-4-4H15l-3-3v-4h13l7-7v-8h3l6,6V36z M28,1H6L1,6v22h2l5-5h15l7-7V3L28,1z M23,16H8v-2h15V16z
		 M23,10H8V8h15V10z"/>
	<path class="st1" d="M40,35h-2l-4-4H14l-3-3v-4h13l7-7V9h3l6,6V35z M27,0H5L0,5v22h2l5-5h15l7-7V2L27,0z M22,15H7v-2h15V15z M22,9
		H7V7h15V9z"/>
</g>
</svg>
