<?xml version="1.0" encoding="utf-8"?>
<!-- Generator: Adobe Illustrator 21.0.0, SVG Export Plug-In . SVG Version: 6.00 Build 0)  -->
<svg version="1.1" id="Слой_1" xmlns="http://www.w3.org/2000/svg" xmlns:xlink="http://www.w3.org/1999/xlink" x="0px" y="0px"
	 width="130px" height="40px" viewBox="0 0 130 40" style="enable-background:new 0 0 130 40;" xml:space="preserve">
<style type="text/css">
	.st0{fill:#FFB400;}
</style>
<path id="_x31_8" class="st0" d="M17.9,17.6c0-0.5,0.4-0.8,0.9-0.8c0.6,0,1,0.3,1,0.8s-0.4,0.8-1,0.8C18.2,18.4,17.9,18.1,17.9,17.6
	z M35.2,20c0,8.4-6.8,15.2-15.2,15.2S4.8,28.4,4.8,20c0-8.4,6.8-15.2,15.2-15.2S35.2,11.6,35.2,20z M13.6,14.8H9v2.3h1.7v7.2h2.9
	V14.8z M22.9,21.5c0-0.9-0.4-1.7-1.2-2.2c0.6-0.4,0.9-1.1,0.9-1.8c0-1.7-1.5-2.8-3.8-2.8S15,15.8,15,17.5c0,0.7,0.3,1.3,0.9,1.8
	c-0.8,0.6-1.2,1.3-1.2,2.2c0,1.8,1.6,3,4.1,3S22.9,23.3,22.9,21.5z M31.4,20.9v-2.6h-2.2v-2.2h-2.7v2.2h-2.3v2.6h2.3v2.2h2.7v-2.2
	H31.4z M18.8,20.4c-0.8,0-1.2,0.4-1.2,1c0,0.6,0.5,1,1.2,1s1.2-0.4,1.2-1C20,20.8,19.6,20.4,18.8,20.4z M130,7v26c0,3.9-3.1,7-7,7
	H20c-5.3,0-10.4-2.1-14.1-5.9C2.1,30.4,0,25.3,0,20S2.1,9.6,5.9,5.9C9.6,2.1,14.7,0,20,0h103C126.9,0,130,3.1,130,7z M20,37.2
	c9.5,0,17.2-7.7,17.2-17.2S29.5,2.8,20,2.8S2.8,10.5,2.8,20S10.5,37.2,20,37.2z M128,7c0-2.8-2.2-5-5-5L28.6,2c2,1,3.9,2.3,5.5,3.9
	C37.9,9.6,40,14.7,40,20s-2.1,10.4-5.9,14.1c-1.6,1.6-3.4,2.9-5.5,3.9H123c2.8,0,5-2.2,5-5V7z M47.2,17.7h-2.3V8H48
	c1.3,0,2.3,0.3,3,0.8c0.7,0.5,1.1,1.3,1.1,2.4c0,1.1-0.3,1.9-1,2.5s-1.6,0.8-2.8,0.8h-1V17.7z M47.2,12.8h0.9c0.5,0,1-0.1,1.2-0.4
	c0.3-0.3,0.4-0.7,0.4-1.3c0-1-0.6-1.5-1.7-1.5h-0.8V12.8z M55.1,17.9c0.5,0,0.9-0.1,1.3-0.3L56,16.1c-0.1,0-0.2,0.1-0.4,0.1
	c-0.3,0-0.4-0.2-0.4-0.5V7l-2.2,0.2v8.5c0,0.7,0.2,1.2,0.5,1.6S54.5,17.9,55.1,17.9z M57.4,17.3c-0.4-0.4-0.7-1-0.7-1.7
	c0-0.8,0.3-1.4,0.9-1.9c0.6-0.4,1.5-0.6,2.6-0.6H61v-0.3c0-0.4-0.1-0.7-0.3-0.9s-0.5-0.2-1-0.2c-0.2,0-0.5,0-0.9,0.1
	s-0.7,0.2-1.1,0.3l-0.5-1.5c0.5-0.2,0.9-0.3,1.4-0.4C59.2,10,59.6,10,60,10c1.1,0,1.8,0.2,2.3,0.7c0.5,0.4,0.7,1.1,0.7,2v2.9
	c0,0.3,0,0.5,0.1,0.6c0.1,0.1,0.2,0.2,0.4,0.3l-0.5,1.4c-0.5,0-0.8-0.1-1.1-0.3c-0.3-0.2-0.5-0.4-0.7-0.8c-0.5,0.7-1.2,1.1-2.2,1.1
	C58.4,17.9,57.8,17.7,57.4,17.3z M58.9,15.4c0,0.3,0.1,0.5,0.2,0.7s0.4,0.2,0.6,0.2c0.5,0,0.9-0.2,1.2-0.7v-1.3h-0.5
	c-0.5,0-0.9,0.1-1.1,0.3C59,14.7,58.9,15,58.9,15.4z M68.8,17.7l2.4-7.4h-2.3l-1.5,6l-1.3-6h-2.4l2.3,7.4h0.8
	c-0.2,0.5-0.5,0.9-0.8,1.1c-0.3,0.2-0.9,0.4-1.6,0.5l0.2,1.6c1.1-0.1,2-0.4,2.7-0.9S68.5,18.6,68.8,17.7z M50.2,27.5l2.5,4.1h-2.6
	l-2-3.7h-0.9v3.7h-2.3V22h3.2c1.3,0,2.3,0.2,3,0.7c0.7,0.5,1,1.2,1,2.2c0,0.6-0.1,1.1-0.4,1.6C51.3,26.9,50.9,27.2,50.2,27.5z
	 M49.7,24.9c0-0.5-0.1-0.8-0.4-1c-0.3-0.2-0.7-0.3-1.3-0.3h-0.8v2.8h1c0.5,0,0.9-0.1,1.2-0.4C49.6,25.8,49.7,25.4,49.7,24.9z
	 M58.9,25c0.6,0.7,0.9,1.6,0.9,2.8c0,0.3,0,0.6,0,0.8h-4.6c0.1,0.6,0.3,1.1,0.5,1.3c0.3,0.3,0.7,0.4,1.2,0.4c0.3,0,0.6-0.1,0.9-0.2
	c0.3-0.1,0.6-0.3,0.9-0.5l0.9,1.2c-0.9,0.7-1.8,1-2.9,1c-1.2,0-2.1-0.4-2.8-1.1c-0.6-0.7-1-1.7-1-2.9c0-0.8,0.1-1.4,0.4-2
	c0.3-0.6,0.7-1.1,1.2-1.4s1.1-0.5,1.9-0.5C57.4,24,58.3,24.3,58.9,25z M57.6,27.2c0-1.1-0.4-1.7-1.2-1.7c-0.4,0-0.7,0.1-0.9,0.4
	c-0.2,0.3-0.3,0.7-0.4,1.4L57.6,27.2L57.6,27.2z M64.4,27.1c-0.4-0.1-0.8-0.2-1-0.3s-0.4-0.2-0.4-0.3c-0.1-0.1-0.1-0.2-0.1-0.3
	c0-0.2,0.1-0.3,0.2-0.4c0.2-0.1,0.4-0.1,0.7-0.1c0.6,0,1.2,0.2,1.8,0.6l0.8-1.2c-0.4-0.3-0.8-0.5-1.2-0.7c-0.5-0.2-1-0.2-1.5-0.2
	c-0.6,0-1.1,0.1-1.6,0.3s-0.8,0.5-1.1,0.8c-0.2,0.3-0.4,0.7-0.4,1.2c0,0.6,0.2,1,0.5,1.4c0.4,0.4,0.9,0.7,1.7,0.9
	c0.5,0.1,0.8,0.2,1,0.3c0.2,0.1,0.4,0.2,0.4,0.3c0.1,0.1,0.1,0.2,0.1,0.4c0,0.2-0.1,0.4-0.3,0.5s-0.5,0.2-0.8,0.2
	c-0.7,0-1.3-0.2-2-0.7l-1.1,1.2c0.4,0.3,0.8,0.6,1.4,0.8c0.5,0.2,1.1,0.3,1.7,0.3c0.6,0,1.2-0.1,1.7-0.3s0.9-0.5,1.2-0.8
	c0.3-0.4,0.4-0.8,0.4-1.3c0-0.6-0.2-1.1-0.6-1.5C65.7,27.6,65.1,27.3,64.4,27.1z M74.1,25c0.5,0.7,0.7,1.7,0.7,2.9
	c0,0.8-0.1,1.4-0.4,2.1c-0.2,0.6-0.6,1.1-1,1.4s-1,0.5-1.6,0.5c-0.7,0-1.3-0.3-1.8-0.8v3.4l-2.2,0.2V24.2h1.9l0.1,0.8
	c0.3-0.4,0.6-0.6,1-0.8c0.4-0.2,0.8-0.3,1.1-0.3C72.9,24,73.6,24.3,74.1,25z M72.5,28c0-0.9-0.1-1.5-0.3-1.8
	c-0.2-0.3-0.5-0.5-0.9-0.5c-0.3,0-0.5,0.1-0.7,0.2c-0.2,0.1-0.4,0.4-0.6,0.6v3.1c0.3,0.4,0.7,0.7,1.1,0.7C72,30.3,72.5,29.5,72.5,28
	z M82,25c0.6,0.7,1,1.7,1,2.9c0,0.8-0.1,1.5-0.4,2.1c-0.3,0.6-0.7,1.1-1.3,1.4c-0.5,0.3-1.2,0.5-1.9,0.5c-1.1,0-2-0.3-2.7-1
	s-1-1.7-1-2.9c0-0.8,0.1-1.5,0.4-2.1c0.3-0.6,0.7-1.1,1.3-1.4c0.5-0.3,1.2-0.5,1.9-0.5C80.5,24,81.4,24.3,82,25z M80.7,28
	c0-0.8-0.1-1.4-0.3-1.8c-0.2-0.4-0.6-0.6-1-0.6c-0.4,0-0.8,0.2-1,0.6s-0.3,1-0.3,1.8c0,0.8,0.1,1.4,0.3,1.8c0.2,0.4,0.6,0.6,1,0.6
	c0.4,0,0.8-0.2,1-0.6C80.6,29.3,80.7,28.8,80.7,28z M88.7,24c-0.5,0-0.9,0.1-1.2,0.3c-0.4,0.2-0.7,0.5-1,0.8l-0.2-0.9h-1.9v7.4h2.2
	v-5.1c0.4-0.6,0.8-1,1.3-1c0.2,0,0.4,0.1,0.5,0.2c0.1,0.1,0.2,0.4,0.2,0.8v5.1h2.2v-5.4c0-0.7-0.2-1.3-0.5-1.7
	C89.8,24.2,89.3,24,88.7,24z M95.7,27.1c-0.4-0.1-0.8-0.2-1-0.3s-0.4-0.2-0.4-0.3c-0.1-0.1-0.1-0.2-0.1-0.3c0-0.2,0.1-0.3,0.2-0.4
	c0.2-0.1,0.4-0.1,0.7-0.1c0.6,0,1.2,0.2,1.8,0.6l0.8-1.2c-0.4-0.3-0.8-0.5-1.2-0.7C96,24.1,95.5,24,95,24c-0.6,0-1.1,0.1-1.6,0.3
	s-0.8,0.5-1.1,0.8c-0.2,0.3-0.4,0.7-0.4,1.2c0,0.6,0.2,1,0.5,1.4c0.4,0.4,0.9,0.7,1.7,0.9c0.5,0.1,0.8,0.2,1,0.3
	c0.2,0.1,0.4,0.2,0.4,0.3c0.1,0.1,0.1,0.2,0.1,0.4c0,0.2-0.1,0.4-0.3,0.5s-0.5,0.2-0.8,0.2c-0.7,0-1.3-0.2-2-0.7l-1.1,1.2
	c0.4,0.3,0.8,0.6,1.4,0.8c0.5,0.2,1.1,0.3,1.7,0.3c0.6,0,1.2-0.1,1.7-0.3s0.9-0.5,1.2-0.8c0.3-0.4,0.4-0.8,0.4-1.3
	c0-0.6-0.2-1.1-0.6-1.5C97.1,27.6,96.5,27.3,95.7,27.1z M100.3,20.3c-0.4,0-0.7,0.1-0.9,0.4c-0.2,0.2-0.4,0.5-0.4,0.9
	c0,0.4,0.1,0.7,0.4,0.9c0.2,0.2,0.6,0.4,0.9,0.4s0.7-0.1,0.9-0.4c0.2-0.2,0.4-0.5,0.4-0.9c0-0.4-0.1-0.7-0.4-0.9
	C100.9,20.4,100.6,20.3,100.3,20.3z M99.2,31.7h2.2v-7.4h-2.2V31.7z M109.4,25c0.5,0.7,0.7,1.7,0.7,2.9c0,0.8-0.1,1.4-0.4,2
	c-0.2,0.6-0.6,1.1-1,1.4s-1,0.5-1.6,0.5c-0.4,0-0.8-0.1-1.1-0.3s-0.6-0.4-0.8-0.7l-0.1,0.7h-2V21.3l2.2-0.2V25
	c0.2-0.3,0.5-0.6,0.9-0.7c0.3-0.2,0.7-0.3,1.1-0.3C108.2,24,108.9,24.3,109.4,25z M107.8,28c0-0.9-0.1-1.5-0.3-1.8
	c-0.2-0.3-0.5-0.5-0.9-0.5c-0.5,0-0.9,0.3-1.3,0.9v3.1c0.1,0.2,0.3,0.4,0.5,0.5c0.2,0.1,0.4,0.2,0.7,0.2
	C107.3,30.3,107.8,29.5,107.8,28z M114,30.2c-0.3,0-0.4-0.2-0.4-0.5V21l-2.2,0.2v8.5c0,0.7,0.2,1.2,0.5,1.6s0.9,0.6,1.5,0.6
	c0.5,0,0.9-0.1,1.3-0.3l-0.4-1.6C114.2,30.1,114.1,30.2,114,30.2z M118.2,30.3l-1.3-6h-2.4l2.3,7.4h0.8c-0.2,0.5-0.5,0.9-0.8,1.1
	c-0.3,0.2-0.9,0.4-1.6,0.5l0.2,1.6c1.1-0.1,2-0.4,2.7-0.9s1.2-1.3,1.5-2.2l2.4-7.4h-2.3L118.2,30.3z"/>
</svg>
