<?xml version="1.0" encoding="utf-8"?>
<!-- Generator: Adobe Illustrator 21.0.0, SVG Export Plug-In . SVG Version: 6.00 Build 0)  -->
<svg version="1.1" id="Logo" xmlns="http://www.w3.org/2000/svg" xmlns:xlink="http://www.w3.org/1999/xlink" x="0px" y="0px"
	 width="108px" height="80px" viewBox="0 0 108 80" style="enable-background:new 0 0 108 80;" xml:space="preserve">
<style type="text/css">
	.st0{fill:#19162B;}
	.st1{fill:#EEEEEE;}
	.st2{fill:#D1D1D1;}
	.st3{fill:#FF9900;}
	.st4{fill:#FF7900;}
	.st5{fill:#FFCC00;}
	.st6{fill:#FFAA00;}
</style>
<g id="LogoZigZag777_1_">
	<path id="zt" class="st0" d="M106.9,20l-3-2.2l-2.8,3.1L94.3,19l-3.4,5.3l-2.5-1.8l-8.5,0.1l-2.4,8l-10.1,6c0,0,8.6-11.2,13.8-17
		c4.6-5,13.2-10.8,13.2-10.8V2.3L91.1,0l-4.9,6.1L55.9,22.9l-2.6,4.4l3,2.3l16.9-8.9L49,48.4l3,2.3l3.3,0.8c0,0,10.7-12,27.7-17.1
		c0.8,0.5,4,0.4,4.7-0.1c0.4-0.4,1-2.1,1-2.1s1.7,0.4,2.3,0.1c1-0.7,2.1-2.8,2.1-2.8l3.4,1.3L89,44.5l3,2.3h4.4c0,0,2.1-9,5.3-15.5
		c2.6-5.4,6.3-9,6.3-9L106.9,20z M53.9,38.9l-1.3-2.3l-3-2.3l-2.2,3l-8.3-1.7c-1-1-3.6-3.8-5-4.7c4.7-4.4,11.2-8.8,11.2-8.8v-6.4
		l-3-2.3l-5,6.1L7,36.3l-2.7,4.4l3,2.3L24,34L0,61.9l3,2.3L6.3,65c0,0,10.3-11.5,26.6-16.7c1.3,0.9,4.4,1.1,4.4,1.1l2.4-3l3,1.2
		l-7.5,13.6l3,2.3h4.4c0,0,2.1-9,5.3-15.5C50.2,42.5,53.9,38.9,53.9,38.9z M30,43.5l-11.8,6.4c0,0,8.4-11.1,13.8-16.9
		c-0.6,1.2-1.1,2.3-1.1,2.3l3.2,2.4L30,43.5z"/>
	<path id="zigzag_1_" class="st1" d="M33,30.5c0.9,0,3.1,2.8,3.1,2.8l-1.3,2.9l-3.9-0.8C30.8,35.3,32.1,30.5,33,30.5z M50.9,36.6
		c0,0-3.7,3.6-6.2,9c-3.1,6.5-5.3,15.5-5.3,15.5H35c0,0,1.6-7.8,4.4-15.9c-0.9,0.1-2.5-0.3-3-1.2c-1.6,2.3-2.4,3-2.4,3
		s-3-0.1-4.4-1.1C13.5,51.2,3.3,62.7,3.3,62.7L0,61.9c0,0,7.2-12.3,26.7-33.1c-11.5,5-22.3,11.9-22.3,11.9v-5.5c0,0,5-3.3,19.6-10.3
		c10.7-5.1,18.3-11.5,18.3-11.5v6.4c0,0-8.6,5.8-13.2,10.8c-5.3,5.7-13.9,17-13.9,17s5.4-3.1,13-5c0.1-3.1,2.1-5.9,2.1-5.9l3.9,0.8
		c0,0-0.9,3-0.8,4.4c0.7-0.7,2.1-2.5,2.3-2.7c0.3-0.7,2.4-5,3.8-5.3c1.1-0.1,3.3,1,3.3,1s1.7-1,2.4-0.9c0.4,0.1,2.4,1.9,2.4,1.9
		l1.9-1.6L50.9,36.6z M43.8,37.3c0,0-2.8-1-3.3-0.4c-1.5,1.6-2.4,4.2-2.1,5.1c0.1,0.5,2.3,0.7,2.3,0.7S41.6,40.2,43.8,37.3z
		 M103.9,17.7l-1.9,1.6c0,0-1.9-1.9-2.4-1.9c-0.7-0.1-2.4,0.9-2.4,0.9s-2.3-1.2-3.3-1c-1.3,0.3-3.8,5.3-3.9,5.5
		c-0.4,0.5-2.8,2.8-2.8,2.8s1.3-3.2,1.3-3.3c-0.7-0.7-1.6-1.3-2.1-1.5c-0.7-0.1-2,0.7-2,0.7s-2.1-1-4-0.7c-0.9,0.1-4.4,5.6-4,8.5
		C69.2,31.2,64.3,34,64.3,34s8.6-11.2,13.8-17c4.6-5,13.2-10.8,13.2-10.8V0c0,0-7.7,6.4-18.3,11.5c-14.4,6.9-19.5,10.3-19.5,10.3
		v5.5c0,0,10.9-6.9,22.3-12C56.2,36.2,49,48.4,49,48.4l3.3,0.8c0,0,10.7-12,27.7-17.1c0.8,0.5,4,0.4,4.7-0.1c0.4-0.4,1-2.1,1-2.1
		s1.7,0.4,2.3,0.1c1-0.7,1.8-2.3,2.1-2.8c1.2,1.3,2.6,1.6,3.4,1.3c-3,8.2-4.5,16-4.5,16h4.4c0,0,2.1-9,5.3-15.5c2.5-5.3,6.2-9,6.2-9
		L103.9,17.7z M82.2,29.3c0,0-2.6,0-2.7-0.5c-0.4-1.3,0.4-3.6,1.9-5.1c0.4-0.4,2.8,0.1,2.8,0.1L82.2,29.3z M94.8,26.2
		c0,0-2.1-0.1-2.3-0.7c-0.3-0.9,0.7-3.5,2.1-5.1c0.4-0.4,3.3,0.4,3.3,0.4C95.9,23.7,94.8,26.2,94.8,26.2z"/>
	<path id="lz" class="st2" d="M36.1,33.3l-0.6,1.3c-0.7-0.8-1.9-2.1-2.5-2.1c-0.5,0-1.1,1.6-1.6,3l-0.6-0.1c0,0,1.3-4.9,2.1-4.9
		C33.9,30.5,36.1,33.3,36.1,33.3z M88.3,24.5c-0.2,0.6-1.2,3.2-1.2,3.2s2.4-2.3,2.8-2.8c0.1-0.2,2.6-5.3,3.9-5.5c1-0.1,3.3,1,3.3,1
		s1.7-1,2.4-0.9c0.4,0,2.4,1.9,2.4,1.9l1.9-1.6l0.4,0.9c0.4-0.4,0.6-0.7,0.6-0.7l-1-2.2l-1.9,1.6c0,0-1.9-1.9-2.4-1.9
		c-0.7-0.1-2.4,0.9-2.4,0.9s-2.3-1.2-3.3-1c-1.3,0.3-3.8,5.3-3.9,5.5C89.7,23.1,89,23.8,88.3,24.5z M28.3,44.5
		c0.1-3.1,2.1-5.9,2.1-5.9l3.4,0.7c0.1-0.5,0.2-0.9,0.3-1.3l-3.3-0.7c0,0,0.1-0.2,0.2-0.6l-0.6-0.1c0,0-2,2.8-2.1,5.9
		c-4.5,1.1-8.2,2.7-10.5,3.7c-1.5,2-2.5,3.3-2.5,3.3S20.6,46.4,28.3,44.5z M38.8,47.3c-2.4,7.3-3.7,13.9-3.7,13.9h0.4
		c0.6-2.8,2-8.3,4-13.9C39.3,47.3,39.1,47.3,38.8,47.3z M38.4,44c0.1,0.5,2.3,0.7,2.3,0.7s1-2.5,3.1-5.4c0,0-0.5-0.2-1.1-0.4
		c-1.4,2.1-2,3.8-2,3.8s-1.5-0.2-2.1-0.5C38.4,43,38.3,43.6,38.4,44z M92.7,30.7C90.3,38,89,44.5,89,44.5h0.4c0.6-2.8,2-8.3,4-13.9
		C93.2,30.7,93,30.7,92.7,30.7z M72.5,18.8C55.4,37.5,49,48.4,49,48.4l1.1,0.3c2.7-4.1,10.4-15.1,25.6-31.4
		C74.6,17.8,73.5,18.3,72.5,18.8z M42.3,15.4v-2c0,0-7.7,6.4-18.3,11.5C9.4,31.9,4.4,35.2,4.4,35.2v2c0,0,5-3.3,19.6-10.3
		C34.6,21.8,42.3,15.4,42.3,15.4z M91.1,2V0c0,0-7.7,6.4-18.3,11.5c-14.4,6.9-19.5,10.3-19.5,10.3v2c0,0,5.1-3.4,19.5-10.3
		C83.4,8.4,91.1,2,91.1,2z M35.8,39.1c-0.2,0.2-1.3,1.6-2,2.4c-0.2,0.8-0.3,1.7-0.3,2.3c0.7-0.7,2.1-2.5,2.3-2.7
		c0.3-0.7,2.4-5,3.8-5.3c1.1-0.1,3.3,1,3.3,1s1.7-1,2.4-0.9c0.4,0.1,2.4,1.9,2.4,1.9l1.9-1.6l0.6,1c0.4-0.5,0.7-0.7,0.7-0.7
		l-1.3-2.3l-1.9,1.6c0,0-1.9-1.8-2.4-1.9c-0.7-0.1-2.4,0.9-2.4,0.9s-2.2-1.2-3.3-1C38.2,34.1,36.1,38.4,35.8,39.1z M86.2,20.9
		c-0.7-0.1-2,0.7-2,0.7s-2.1-1-4-0.7c-0.9,0.1-4.4,5.6-4,8.5c-4.1,1.1-7.4,2.4-9.5,3.4c-1.5,2-2.6,3.3-2.6,3.3s4.8-2.8,12.1-4.7
		c-0.4-2.9,3.1-8.4,4-8.5c1.8-0.3,4,0.7,4,0.7s1.3-0.9,2-0.7c0.5,0.2,1,0.5,1.6,1c0.3-0.7,0.6-1.5,0.5-1.5
		C87.6,21.6,86.8,21.1,86.2,20.9z M26.7,30.8c-1.1,0.5-2.1,0.9-3.2,1.4C6.5,51,0,61.9,0,61.9l1.1,0.3C3.8,58.1,11.5,47.1,26.7,30.8z
		 M79.5,28.9c-0.2,0.7-0.2,1.4-0.1,1.9s2.7,0.5,2.7,0.5l2-5.5c0,0-0.3-0.1-0.7-0.1l-1.3,3.6C82.2,29.3,80,29.3,79.5,28.9z
		 M92.5,27.4c0.2,0.6,2.3,0.7,2.3,0.7s1.1-2.4,3.1-5.4c0,0-0.5-0.2-1.1-0.3c-1.3,2.1-2,3.7-2,3.7s-1.5-0.1-2-0.5
		C92.5,26.4,92.4,27.1,92.5,27.4z"/>
	<polygon id="tt" class="st0" points="107,48 104,44 79,48 77,48 74,44 47,49 50,52 71,52 51,72 54,75 60,76 78.2,52 101,52 78,76 
		80,79 88,78 108,51 	"/>
	<path id="_x37_7" class="st3" d="M86,75l20-27l-2-4H79l-2,5h21L78,76L86,75z M58,73l18-25l-2-4H49l-2,5h21L51,72L58,73z"/>
	<path id="_x37_7l" class="st4" d="M53,72l17-23h-2L51,72H53z M76,48l-2-4H49l-1,2h25L76,48z M81,75l19-26h-2L78,76L81,75z M106,48
		l-2-4H79l-1,2h25L106,48z"/>
	<polygon id="t" class="st0" points="73,80 89,59 88,55 84,52 57,57 60,60 81,60 64,76 67,79 	"/>
	<polygon id="_x37_" class="st5" points="71,77 86,56 84,52 59,52 57,57 78,57 64,76 	"/>
	<path id="l1" class="st6" d="M66,76l14-19h-2L64,76H66z M86,56l-2-4H59l-1,2h25L86,56z"/>
</g>
</svg>
