<?xml version="1.0" encoding="utf-8"?>
<!-- Generator: Adobe Illustrator 21.0.0, SVG Export Plug-In . SVG Version: 6.00 Build 0)  -->
<svg version="1.1" id="Logo" xmlns="http://www.w3.org/2000/svg" xmlns:xlink="http://www.w3.org/1999/xlink" x="0px" y="0px"
	 width="146px" height="108px" viewBox="0 0 146 108" style="enable-background:new 0 0 146 108;" xml:space="preserve">
<style type="text/css">
	.st0{fill:#333366;}
	.st1{fill:#EEEEEE;}
	.st2{fill:#FFCC00;}
</style>
<g id="LogoZigZag777">
	<g>
		<path class="st0" d="M144.5,27l-4.1-3.1l-3.8,4.3l-9.2-2.6l-4.6,7.1l-3.4-2.5l-11.5,0.2l-3.2,10.8L91,49.3c0,0,11.6-15.2,18.7-23
			c6.2-6.8,17.8-14.6,17.8-14.6V3.1L123.4,0l-6.8,8.3l-41,22.7l-3.5,5.9l4.1,3.1l22.9-12.1L66.2,65.5l4.1,3.1l4.4,1.1
			c0,0,14.5-16.2,37.5-23.1c1.1,0.7,5.4,0.5,6.4-0.1c0.6-0.5,1.3-2.8,1.3-2.8s2.3,0.6,3.1,0.1c1.3-0.9,2.8-3.8,2.8-3.8l4.6,1.8
			l-10.1,18.4l4.1,3.1h6c0,0,2.9-12.2,7.1-21C141,35,146,30.1,146,30.1L144.5,27z"/>
	</g>
	<g>
		<path class="st0" d="M72.9,52.6l-1.8-3.1L67,46.4l-2.9,4l-11.2-2.3c-1.3-1.4-4.8-5.1-6.7-6.4c6.4-6,15.2-11.9,15.2-11.9v-8.6
			l-4.1-3.1l-6.8,8.3l-41,22.7L5.9,55l4.1,3.1L32.5,46L0,83.7l4.1,3.1l4.4,1.1c0,0,13.9-15.6,35.9-22.6c1.8,1.2,5.9,1.5,5.9,1.5
			l3.2-4.1l4,1.6L47.4,82.7l4.1,3.1h5.9c0,0,2.9-12.2,7.1-21C67.9,57.5,72.9,52.6,72.9,52.6z M40.6,58.8l-16,8.7
			c0,0,11.4-15,18.6-22.8c-0.8,1.6-1.6,3.1-1.6,3.1l4.4,3.3L40.6,58.8z"/>
	</g>
	<path id="zigzag" class="st1" d="M44.6,41.2c1.2,0,4.2,3.8,4.2,3.8l-1.8,3.9l-5.3-1.1C41.8,47.8,43.4,41.2,44.6,41.2z M68.8,49.5
		c0,0-5,4.9-8.4,12.2c-4.2,8.8-7.1,21-7.1,21h-5.9c0,0,2.1-10.6,6-21.5c-1.2,0.2-3.4-0.4-4-1.6c-2.2,3.1-3.2,4.1-3.2,4.1
		s-4-0.2-5.9-1.5c-22,7-35.9,22.6-35.9,22.6L0,83.7c0,0,9.8-16.6,36.1-44.8C20.5,45.7,5.9,55,5.9,55v-7.4c0,0,6.8-4.5,26.5-13.9
		c14.4-6.9,24.8-15.6,24.8-15.6v8.6c0,0-11.6,7.9-17.8,14.6c-7.2,7.7-18.8,23-18.8,23s7.3-4.2,17.6-6.8c0.2-4.2,2.9-8,2.9-8l5.3,1.1
		c0,0-1.2,4.1-1.1,6c0.9-1,2.8-3.4,3.1-3.7c0.4-1,3.3-6.8,5.1-7.1c1.5-0.2,4.5,1.4,4.5,1.4s2.3-1.4,3.3-1.2c0.6,0.1,3.2,2.6,3.2,2.6
		l2.6-2.2L68.8,49.5z M59.2,50.5c0,0-3.8-1.4-4.4-0.6c-2,2.2-3.3,5.7-2.9,6.9c0.2,0.7,3.1,1,3.1,1S56.3,54.4,59.2,50.5z M140.4,24
		l-2.6,2.2c0,0-2.6-2.6-3.2-2.6c-1-0.1-3.3,1.2-3.3,1.2s-3.1-1.6-4.5-1.4c-1.8,0.4-5.1,7.2-5.3,7.5c-0.5,0.7-3.8,3.8-3.8,3.8
		s1.8-4.3,1.7-4.5c-1-1-2.1-1.7-2.9-2c-1-0.2-2.7,1-2.7,1s-2.9-1.4-5.4-1c-1.2,0.1-6,7.6-5.4,11.5c-9.8,2.6-16.3,6.4-16.3,6.4
		s11.6-15.2,18.7-23c6.2-6.8,17.8-14.6,17.8-14.6V0c0,0-10.4,8.7-24.8,15.6C79,24.9,72.1,29.5,72.1,29.5v7.4c0,0,14.7-9.3,30.2-16.2
		C76,48.9,66.2,65.5,66.2,65.5l4.4,1.1c0,0,14.5-16.2,37.5-23.1c1.1,0.7,5.4,0.5,6.4-0.1c0.6-0.5,1.3-2.8,1.3-2.8s2.3,0.6,3.1,0.1
		c1.3-0.9,2.4-3.1,2.8-3.8c1.6,1.7,3.5,2.1,4.6,1.8c-3.9,10.9-6,21.5-6,21.5h6c0,0,2.9-12.2,7.1-21c3.4-7.2,8.4-12.2,8.4-12.2
		L140.4,24z M111.1,39.6c0,0-3.5,0-3.7-0.7c-0.5-1.8,0.6-4.9,2.6-6.9c0.6-0.6,3.8,0.2,3.8,0.2L111.1,39.6z M128.2,35.4
		c0,0-2.8-0.2-3.1-1c-0.4-1.2,1-4.7,2.9-6.9c0.6-0.6,4.4,0.6,4.4,0.6C129.7,32.1,128.2,35.4,128.2,35.4z"/>
	<g>
		<polygon class="st0" points="118.2,104.3 145.2,68.7 143.2,63.3 139.3,59.3 102.1,65.7 106,69.7 135.3,69.8 102.5,103.6 
			106.5,107.6 		"/>
	</g>
	<g>
		<polygon class="st0" points="78.9,102.4 104.5,68.7 102.5,63.3 98.5,59.3 61.3,65.7 65.3,69.7 94.6,69.8 67.4,96.2 71.4,100.2 		
			"/>
	</g>
	<polygon class="st2" points="114.2,100.3 141.2,64.7 139.3,59.3 105,59.3 102.1,65.7 131.3,65.8 102.5,103.6 	"/>
	<polygon class="st2" points="74.9,98.3 100.5,64.7 98.5,59.3 64.3,59.3 61.3,65.7 90.6,65.8 67.4,96.2 	"/>
	<g>
		<polygon class="st0" points="96.6,108 117.7,80.3 115.7,74.9 111.7,70.9 74.5,77.3 78.5,81.3 107.8,81.3 85.1,101.9 89.1,105.9 		
			"/>
	</g>
	<polygon class="st2" points="92.7,104 113.7,76.3 111.7,70.9 77.5,70.9 74.5,77.3 103.8,77.3 85.1,101.9 	"/>
</g>
</svg>
