<?xml version="1.0" encoding="utf-8"?>
<!-- Generator: Adobe Illustrator 22.1.0, SVG Export Plug-In . SVG Version: 6.00 Build 0)  -->
<svg version="1.1" id="Social" xmlns="http://www.w3.org/2000/svg" xmlns:xlink="http://www.w3.org/1999/xlink" x="0px" y="0px"
	 width="44px" height="44px" viewBox="0 0 44 44" style="enable-background:new 0 0 44 44;" xml:space="preserve">
<style type="text/css">
	.st0{fill:#000000;}
	.st1{fill:#F8991D;}
	.st2{fill:#E9EBEE;}
</style>
<g id="Ok_1_">
	<polygon id="Shadow_5_" class="st0" points="42,42 2,44 5,4 40,6 	"/>
	<polygon id="Color_5_" class="st1" points="42,38 2,40 5,0 40,2 	"/>
	<path id="Ok" class="st2" d="M15,13c0-3.9,3.1-7,7-7s7,3.1,7,7s-3.1,7-7,7S15,16.9,15,13z M26,13c0-2.2-1.8-4-4-4s-4,1.8-4,4
		s1.8,4,4,4S26,15.2,26,13z M28.4,23.8c-1.6,1-3.5,1.4-5,1.6l5.4,5.6c0.6,0.7,0.6,1.8,0,2.4s-1.7,1-2.6,0.1L22,29l-4.3,4.5
		c-0.9,0.8-1.8,0.4-2.6-0.1c-0.7-0.6-0.6-1.8,0-2.4c1.1-1.1,5.4-5.6,5.4-5.6c-1.4-0.1-3.4-0.6-5-1.6c-1.8-1.3-2.6-2-1.8-3.4
		c0.4-0.8,1.6-1.6,3-0.3c2.4,2.1,7.9,2.3,10.5,0c1.4-1.3,2.6-0.6,3,0.3C30.9,21.8,30.2,22.5,28.4,23.8z"/>
</g>
</svg>
