<?xml version="1.0" encoding="utf-8"?>
<!-- Generator: Adobe Illustrator 22.1.0, SVG Export Plug-In . SVG Version: 6.00 Build 0)  -->
<svg version="1.1" id="Social" xmlns="http://www.w3.org/2000/svg" xmlns:xlink="http://www.w3.org/1999/xlink" x="0px" y="0px"
	 width="44px" height="44px" viewBox="0 0 44 44" style="enable-background:new 0 0 44 44;" xml:space="preserve">
<style type="text/css">
	.st0{fill:#000000;}
	.st1{fill:#2B9CD8;}
	.st2{fill:#E9EBEE;}
</style>
<g id="Twitter">
	<polygon id="Shadow_7_" class="st0" points="42,42 2,44 5,4 40,6 	"/>
	<polygon id="Color_7_" class="st1" points="42,38 2,40 5,0 40,2 	"/>
	<path id="Twitter_1_" class="st2" d="M35,11.7c-1,0.4-1.9,0.7-3,0.8c1.1-0.7,1.9-1.8,2.3-3.1c-1.1,0.6-2.1,1.1-3.4,1.3
		C30,9.7,28.6,9,27,9c-2.9,0-5.3,2.5-5.3,5.6c0,0.4,0,0.8,0.1,1.2c-4.4-0.2-8.3-2.5-11-5.8c-1.8,3.7,0.2,6.4,1.6,7.4
		c-0.9,0-1.6-0.3-2.4-0.7v0.1c0,2.7,1.8,5,4.3,5.5c-0.5,0.1-1.3,0.3-2.4,0.1c0.7,2.2,2.6,3.8,4.9,3.8c-1.8,1.4-4.6,2.7-7.9,2.3
		c2.3,1.5,5.1,2.5,8.1,2.5c11.8,0,15.6-11.5,15-16.5C33.4,13.8,34.3,12.7,35,11.7z"/>
</g>
</svg>
