<?xml version="1.0" encoding="utf-8"?>
<!-- Generator: Adobe Illustrator 22.1.0, SVG Export Plug-In . SVG Version: 6.00 Build 0)  -->
<svg version="1.1" id="Social" xmlns="http://www.w3.org/2000/svg" xmlns:xlink="http://www.w3.org/1999/xlink" x="0px" y="0px"
	 width="44px" height="44px" viewBox="0 0 44 44" style="enable-background:new 0 0 44 44;" xml:space="preserve">
<style type="text/css">
	.st0{fill:#000000;}
	.st1{fill:#C6C5C7;}
	.st2{fill:#F9BB16;}
	.st3{fill:#6287C5;}
	.st4{fill:#2FB44A;}
	.st5{fill:#EF4438;}
</style>
<g id="Google_1_">
	<polygon id="Shadow_2_" class="st0" points="42,42 2,44 5,4 40,6 	"/>
	<polygon id="Color_2_" class="st1" points="42,38 2,40 5,0 40,2 	"/>
	<g id="Google">
		<path class="st2" d="M14.8,22.7l-0.9,3.4l-3.3,0.1c-1-1.9-1.6-4-1.6-6.2s0.5-4.2,1.5-6l0,0l2.9,0.5l1.3,2.9
			c-0.3,0.8-0.4,1.6-0.4,2.5C14.3,21,14.4,21.9,14.8,22.7z"/>
		<path class="st3" d="M34.8,17.6c0.1,0.8,0.2,1.6,0.2,2.4c0,0.9-0.1,1.8-0.3,2.7c-0.6,3-2.3,5.6-4.6,7.4l0,0l-3.7-0.2l-0.5-3.3
			c1.5-0.9,2.7-2.3,3.3-4h-7v-5.1h7.1h5.5V17.6z"/>
		<path class="st4" d="M30.1,30.1L30.1,30.1c-2.2,1.8-5,2.9-8.1,2.9c-5,0-9.3-2.8-11.5-6.8l4.2-3.4c1.1,2.9,3.9,5,7.2,5
			c1.4,0,2.8-0.4,3.9-1.1L30.1,30.1z"/>
		<path class="st5" d="M30.3,10l-4.2,3.4c-1.2-0.7-2.6-1.2-4.1-1.2c-3.4,0-6.3,2.2-7.3,5.2L10.5,14l0,0C12.6,9.8,17,7,22,7
			C25.2,7,28,8.1,30.3,10z"/>
	</g>
</g>
</svg>
