<?xml version="1.0" encoding="utf-8"?>
<!-- Generator: Adobe Illustrator 22.1.0, SVG Export Plug-In . SVG Version: 6.00 Build 0)  -->
<svg version="1.1" id="Social" xmlns="http://www.w3.org/2000/svg" xmlns:xlink="http://www.w3.org/1999/xlink" x="0px" y="0px"
	 width="44px" height="44px" viewBox="0 0 44 44" style="enable-background:new 0 0 44 44;" xml:space="preserve">
<style type="text/css">
	.st0{fill:#000000;}
	.st1{fill:#2B9CD8;}
	.st2{fill:#E9EBEE;}
</style>
<g id="Telegram_1_">
	<polygon id="Shadow_6_" class="st0" points="42,42 2,44 5,4 40,6 	"/>
	<polygon id="Color_6_" class="st1" points="42,38 2,40 5,0 40,2 	"/>
	<path id="Telegram" class="st2" d="M33.3,9.1L9.6,18.4c-0.8,0.3-0.8,1.4,0.1,1.7l6.1,1.8L18,29c0.2,0.8,1.2,1,1.7,0.4l3.1-3.2
		l6.2,4.5c0.8,0.6,1.8,0.1,2.1-0.8L35,10.4C35.2,9.5,34.2,8.7,33.3,9.1L33.3,9.1z M30.3,13.4l-11,9.8c-0.1,0.1-0.2,0.2-0.2,0.3
		l-0.4,3.9c0,0.1-0.2,0.1-0.2,0l-1.7-5.6c-0.1-0.2,0-0.6,0.2-0.7l13-8.2C30.3,12.7,30.6,13.2,30.3,13.4L30.3,13.4z"/>
</g>
</svg>
