<?xml version="1.0" encoding="utf-8"?><svg viewBox="0 0 74 84" xmlns="http://www.w3.org/2000/svg" xmlns:xlink="http://www.w3.org/1999/xlink"><style>:root>svg{display:none}:root>svg:target{display:block}</style><svg version="1.1" id="icon_bonus" x="0" y="0" xml:space="preserve" viewBox="0 0 74 84" xmlns="http://www.w3.org/2000/svg"><style>.aast0{fill:#e0e0f5}.aast1{fill:#fff}.aast2{clip-path:url(#aaSVGID_2_)}.aast3{fill:#57b3fe}.aast4{fill:#1d2943}.aast5{fill:#a3d14a}.aast6{fill:#ffa845}.aast7{fill:#f6c505}.aast8{fill:#f34b58}</style><path class="aast0" d="M31.7 81.8L2.2 52.3c-2.9-2.9-2.9-7.6 0-10.5l29.5-29.5c2.9-2.9 7.6-2.9 10.5 0l29.5 29.5c2.9 2.9 2.9 7.6 0 10.5L42.3 81.8c-2.9 2.9-7.7 2.9-10.6 0z"/><path class="aast1" d="M31.7 71.8L2.2 42.3c-2.9-2.9-2.9-7.6 0-10.5L31.7 2.2c2.9-2.9 7.6-2.9 10.5 0l29.5 29.5c2.9 2.9 2.9 7.6 0 10.5L42.3 71.8c-2.9 2.9-7.7 2.9-10.6 0z"/><defs><path id="aaSVGID_1_" d="M14.6 13.1H63v48.4H14.6z"/></defs><clipPath id="aaSVGID_2_"><use xlink:href="#aaSVGID_1_" overflow="visible"/></clipPath><g class="aast2"><path class="aast3" d="M26.7 499.3c0-.8-1.1-2.7-1.7-3.8-.2-.3-.6-.3-.8 0-.6 1-1.7 3-1.7 3.8 0 1.1.9 2.1 2.1 2.1 1.2-.1 2.1-1 2.1-2.1" transform="matrix(1.33333 0 0 -1.33333 0 682.667)"/><path class="aast4" d="M24.6 501.3c-.5 0-.9-.2-1.3-.4.7-.1 1.3-.7 1.6-1.4.2-.8-.2-2.9-.5-4.1v-.1c.2-.1.5-.1.6.2.6 1 1.7 3 1.7 3.8 0 1.1-.9 2-2.1 2" transform="matrix(1.33333 0 0 -1.33333 0 682.667)"/><path class="aast3" d="M29.4 496.2c-.6-.6-2.7-1.2-3.8-1.5-.3-.1-.7.2-.6.6.3 1.1.9 3.3 1.5 3.8.8.8 2.1.8 2.9 0s.8-2.1 0-2.9M19.9 496.2c.6-.6 2.7-1.2 3.8-1.5.3-.1.7.2.6.6-.3 1.1-.9 3.3-1.5 3.8-.8.8-2.1.8-2.9 0s-.8-2.1 0-2.9" transform="matrix(1.33333 0 0 -1.33333 0 682.667)"/><path class="aast4" d="M29.4 499.1c-.2.2-.5.4-.9.5.2-.5.2-1.2-.1-1.8-.4-.7-2.2-1.9-3.2-2.5-.1 0-.1-.1-.2-.1-.1-.3.2-.7.6-.6 1.1.3 3.3.9 3.8 1.5.8.9.8 2.2 0 3M24.3 495.2c-.3 1.1-.9 3.3-1.5 3.8-.8.8-2.1.8-2.9 0-.1-.1-.2-.3-.3-.4.4 0 .8 0 1.2-.2.7-.4 1.9-2.3 2.5-3.3.1-.1.1-.2 0-.4.1 0 .3-.1.4-.1.4 0 .7.3.6.6" transform="matrix(1.33333 0 0 -1.33333 0 682.667)"/><path class="aast5" d="M35.7 479.5H13.5c-.4 0-.7.3-.7.7v5.8l.4 1.6-.4 1.7v5.9c0 .4.3.7.7.7H23l1.6-1.1 1.6 1.1h9.5c.4 0 .7-.3.7-.7v-5.9l-.4-.9.4-.8v-7.4c0-.3-.3-.7-.7-.7" transform="matrix(1.33333 0 0 -1.33333 0 682.667)"/><path class="aast3" d="M12.8 489.3h23.6V486H12.8v3.3z" transform="matrix(1.33333 0 0 -1.33333 0 682.667)"/><path class="aast3" d="M23 495.9h3.3v-16.3H23v16.3z" transform="matrix(1.33333 0 0 -1.33333 0 682.667)"/><path class="aast6" d="M29.3 480.1c0-4.8-3.9-8.6-8.6-8.6s-8.6 3.9-8.6 8.6 3.9 8.6 8.6 8.6 8.6-3.8 8.6-8.6" transform="matrix(1.33333 0 0 -1.33333 0 682.667)"/><path class="aast7" d="M20.6 487.7c-4.2 0-7.5-3.4-7.5-7.5 0-4.2 3.4-7.5 7.5-7.5 4.2 0 7.5 3.4 7.5 7.5.1 4.1-3.3 7.5-7.5 7.5m0-17.3c-5.4 0-9.7 4.4-9.7 9.7 0 5.4 4.4 9.7 9.7 9.7 5.4 0 9.7-4.4 9.7-9.7.1-5.3-4.3-9.7-9.7-9.7" transform="matrix(1.33333 0 0 -1.33333 0 682.667)"/><path class="aast1" d="M21.6 480.9c-.2.1-.3.1-.5.2v2.6c.4-.1.6-.3.7-.3.2-.2.6-.2.8 0 .2.2.2.6 0 .8 0 0-.6.5-1.4.6v.5c0 .3-.2.5-.5.5s-.5-.2-.5-.5v-.6c-.1 0-.2 0-.2-.1-.8-.2-1.4-.9-1.5-1.7-.1-.8.1-1.5.6-1.9.3-.2.6-.4 1.1-.6v-3.2c-.4 0-.7.1-1.2.4-.2.2-.6.1-.7-.2-.2-.2-.1-.6.2-.8.7-.5 1.2-.6 1.8-.6v-.6c0-.3.2-.5.5-.5s.5.2.5.5v.6c1.2.2 1.9 1.2 2.1 2.2 0 1.2-.6 2.3-1.8 2.7zm-2 .9c-.2.2-.3.5-.2.9.1.3.3.7.7.9v-2c-.2 0-.3.1-.5.2zm2.6-3.4c-.1-.5-.4-1-1-1.2v2.7h.1c1-.4.9-1.2.9-1.5z" transform="matrix(1.33333 0 0 -1.33333 0 682.667)"/><path class="aast8" d="M47 480.8L33.2 467c-.4-.4-1-.2-1.2.3l-1.9 5.3c-.1.2-.2.4-.4.4l-5.3 1.9c-.5.2-.6.8-.3 1.2l13.8 13.8c.4.4 1 .2 1.2-.3l1.9-5.3c.1-.2.2-.4.4-.4l5.3-1.9c.5-.2.7-.8.3-1.2" transform="matrix(1.33333 0 0 -1.33333 0 682.667)"/><path class="aast1" d="M36.9 473.9c-.2 0-.4.1-.5.3l-3.1 7.6c-.1.3 0 .6.3.7.3.1.6 0 .7-.3l3.1-7.6c.1-.3 0-.6-.3-.7h-.2M31.8 479.4c-.2 0-.4-.1-.5-.2-.2-.2-.2-.4-.2-.6 0-.3.2-.6.4-.8.2-.2.5-.3.8-.4.2 0 .5.1.6.2.2.2.2.4.2.6 0 .3-.2.6-.4.8-.3.3-.5.4-.9.4.1 0 0 0 0 0m.5-3h-.2c-.5 0-1.1.3-1.5.7-.4.4-.6.9-.7 1.5 0 .6.1 1.1.5 1.5.4.4.9.6 1.5.5.5 0 1.1-.3 1.5-.7.4-.4.6-.9.7-1.5 0-.6-.1-1.1-.5-1.5-.4-.3-.8-.5-1.3-.5M38.5 478.8c-.2 0-.4-.1-.5-.2-.3-.3-.3-1 .2-1.4.2-.2.5-.3.8-.4.2 0 .5.1.6.2.3.3.3 1-.2 1.4-.3.3-.6.4-.9.4m.5-3h-.2c-.5 0-1.1.3-1.5.7-.8.8-.9 2.2-.2 2.9.8.8 2.1.7 2.9-.2.8-.8.9-2.2.2-2.9-.2-.4-.7-.5-1.2-.5" transform="matrix(1.33333 0 0 -1.33333 0 682.667)"/></g></svg><svg version="1.1" id="icon_casino" x="0" y="0" xml:space="preserve" viewBox="0 0 60 60" xmlns="http://www.w3.org/2000/svg"><style>.abst0{fill:#336}</style><path class="abst0" d="M58.2 30.6L57 28.5c1-1.2 1.5-2.7 1.4-4.3-.1-1.6-.9-3-2.1-4L53 17.5l.1-.2c.5-1.5.5-3.1-.2-4.5s-1.9-2.5-3.3-3.1l-7.1-2.6v-.2c0-3.3-2.7-5.9-5.9-5.9H15.8c-3.3 0-5.9 2.7-5.9 5.9v25.7c-5.2 2-8.9 7-8.9 12.8C1 52.9 7.1 59 14.6 59c4.1 0 7.8-1.8 10.3-4.7.7.2 1.3.4 2 .4 1 0 2-.3 3-.8l.8-.5c.4.2.9.3 1.4.4h.1c.4 0 .8-.3.8-.7.1-.5-.2-.9-.7-1-.5-.1-.9-.2-1.3-.4-.2-.1-.5-.3-.7-.5L27.7 49c.2-.7.3-1.5.4-2.3l7 2.6c.6.2 1.3.3 1.9.4l-.8 1c-.3.4-.7.7-1.2 1-.4.2-.6.7-.3 1.2.2.3.4.4.7.4.1 0 .3 0 .4-.1.6-.4 1.2-.8 1.7-1.4l2.3-2.7c1-.5 1.9-1.3 2.5-2.4l13.7-8c2.9-1.6 3.8-5.2 2.2-8.1zm-3-9.1c.9.7 1.4 1.7 1.5 2.9.1 1.1-.2 2.2-1 3.1L44.6 40.7l7.8-21.5 2.8 2.3zM25.3 50.6l-3-1.7c.4-.8.6-1.7.7-2.6h3.4c-.1 1.5-.5 3-1.1 4.3zm-11.6 3.2v3.4c-1.5-.1-3-.5-4.3-1.2l1.7-3c.8.5 1.7.8 2.6.8zm1.7 0c.9-.1 1.8-.3 2.6-.7l1.7 3c-1.3.6-2.8 1.1-4.3 1.2v-3.5zm-.8-1.6c-3.7 0-6.8-3-6.8-6.8 0-3.7 3-6.8 6.8-6.8s6.8 3 6.8 6.8c0 3.7-3.1 6.8-6.8 6.8zm-8.4-7.6H2.7c.1-1.5.5-3 1.2-4.3l3 1.7c-.4.7-.7 1.6-.7 2.6zm0 1.7c.1.9.3 1.8.7 2.6l-3 1.7c-.6-1.3-1.1-2.8-1.2-4.3h3.5zm20.3-1.7H23c-.1-.9-.3-1.8-.7-2.6l3-1.7c.6 1.2 1 2.7 1.2 4.3zm-5-4.1c-.5-.7-1.2-1.4-1.9-1.9l1.7-3c1.3.8 2.3 1.9 3.2 3.2l-3 1.7zm-3.4-2.8c-.8-.4-1.7-.6-2.6-.7v-3.4c1.5.1 3 .5 4.3 1.2l-1.7 2.9zm-4.4-.7c-.9.1-1.8.3-2.6.7l-1.7-3c1.3-.6 2.8-1.1 4.3-1.2V37zm-5.8-1.4l1.7 3c-.7.5-1.4 1.2-1.9 1.9l-3-1.7c.9-1.3 2-2.4 3.2-3.2zM4.7 52.1l3-1.7c.5.7 1.2 1.4 1.9 1.9l-1.7 3c-1.2-.9-2.3-2-3.2-3.2zm16.6 3.2l-1.7-3c.7-.5 1.4-1.2 1.9-1.9l3 1.7c-.9 1.2-2 2.3-3.2 3.2zm7.8-3c-1 .6-2.1.7-3.1.5.4-.7.8-1.4 1.1-2.1l2 1.6zm-.9-7.4c0-.6-.1-1.2-.2-1.8h8.5c3.3 0 5.9-2.7 5.9-5.9V14.7c0-.5-.4-.8-.8-.8-.5 0-.8.4-.8.8v22.5c0 2.3-1.9 4.2-4.2 4.2h-8.9c-1.7-5.5-6.9-9.6-13-9.6-1 0-2 .1-3 .3V6.9c0-2.3 1.9-4.2 4.2-4.2h20.7c2.3 0 4.2 1.9 4.2 4.2v4.3c0 .5.4.8.8.8.5 0 .8-.4.8-.8V8.9l6.6 2.4c1.1.4 1.9 1.2 2.4 2.2.5 1 .5 2.2.1 3.2L41.4 44.6l-.2.5c-.8 2.2-3.2 3.3-5.4 2.5l-7.6-2.7zm27-7.7l-10.6 6.1 11.3-13.5.9 1.5c1.1 2.2.4 4.8-1.6 5.9zm-21-15.6l-7.4-10.7c-.2-.2-.4-.4-.7-.4-.3 0-.5.1-.7.4L18 21.6c-.2.3-.2.7 0 1l7.4 10.7c.2.2.4.4.7.4.3 0 .5-.1.7-.4l7.4-10.7c.2-.4.2-.8 0-1zm-8.1 9.7L19.8 22l6.3-9.2 6.3 9.2-6.3 9.3zm18.8-16.9c.2-.4.6-.7 1.1-.5l2.9 1c.4.2.7.6.5 1.1-.1.3-.5.6-.8.6-.1 0-.2 0-.3-.1l-.6-.2-.8 2.1c-.1.3-.5.6-.8.6-.1 0-.2 0-.3-.1-.4-.2-.7-.6-.5-1.1l.8-2.1-.6-.2c-.6-.2-.8-.7-.6-1.1zM17.5 6.9h-.7v2.2c0 .5-.4.8-.8.8s-.8-.4-.8-.8V6.9h-.7c-.5 0-.8-.4-.8-.8 0-.5.4-.8.8-.8h3.1c.5 0 .8.4.8.8-.1.4-.5.8-.9.8zm21.3 31.2c0 .5-.4.8-.8.8h-3.1c-.5 0-.8-.4-.8-.8s.4-.8.8-.8h.7V35c0-.5.4-.8.8-.8.5 0 .8.4.8.8v2.2h.7c.5 0 .9.4.9.9zm-26.5 4.4v5.8c0 .5-.4.8-.8.8-.5 0-.8-.4-.8-.8v-5.8c0-.5.4-.8.8-.8s.8.4.8.8zm3.7-1.1c-1.5 0-2.6 1.7-2.6 4s1.1 4 2.6 4 2.6-1.7 2.6-4-1.1-4-2.6-4zm0 6.3c-.3 0-.9-.9-.9-2.3s.6-2.3.9-2.3c.3 0 .9.9.9 2.3s-.6 2.3-.9 2.3z"/></svg><svg version="1.1" id="icon_checkbox" x="0" y="0" xml:space="preserve" viewBox="0 0 52 46" xmlns="http://www.w3.org/2000/svg"><style>.acst0{fill:#e0e0f5}</style><path id="acok" class="acst0" d="M45.2 25.3c-.1-.1-.3-.1-.4-.1-.3 0-.5.1-.7.3L42 27v10c0 1.4-.8 2.3-1.8 3.3S38.5 42 37 42H9c-1.4 0-2.3-.7-3.3-1.7S4 38.5 4 37V9c0-1.4.7-2.3 1.7-3.3S7.6 4 9 4h27c.5 0 1.5.2 2 .4.1 0 .2.1.3.1.3 0 .5-.1.7-.3l1.6-1.6c.3-.3.4-.6.3-.9-.1-.3-.3-.6-.6-.8-1.2-.6-2.4-.9-3.8-.9H9.4C6.8 0 4.6.9 2.8 2.8.9 4.6 0 6.8 0 9.4v27.2c0 2.6.9 4.8 2.8 6.6C4.6 45 6.8 46 9.4 46H36c2.6 0 5.3-.9 7.1-2.8C45 41.4 46 39.6 46 37l-.1-10.8c0-.5-.2-.8-.7-.9zm6-17.2l-3.5-3.5c-.5-.5-1.1-.8-1.8-.8s-1.3.3-1.8.8L23.5 25.2l-8.4-8.4c-.5-.5-1.1-.8-1.8-.8s-1.3.3-1.8.8L8 20.3c-.5.5-.8 1.1-.8 1.8s.3 1.3.8 1.8l13.7 13.7c.5.5 1.1.8 1.8.8s1.3-.3 1.8-.8l25.9-26c.5-.5.8-1 .8-1.7 0-.6-.3-1.3-.8-1.8z"/></svg><svg version="1.1" id="icon_clients" x="0" y="0" xml:space="preserve" viewBox="0 0 74 84" xmlns="http://www.w3.org/2000/svg"><style>.adst0{fill:#e0e0f5}.adst1{fill:#fff}.adst2{fill:#dbae79}.adst3{fill:#f9d7aa}.adst4{fill:#1d2943}.adst5{fill:#78e75a}.adst6{fill:#57b3fe}.adst7{fill:#f34b58}</style><path class="adst0" d="M31.7 81.8L2.2 52.3c-2.9-2.9-2.9-7.6 0-10.5l29.5-29.5c2.9-2.9 7.6-2.9 10.5 0l29.5 29.5c2.9 2.9 2.9 7.6 0 10.5L42.3 81.8c-2.9 2.9-7.7 2.9-10.6 0z"/><path class="adst1" d="M31.7 71.8L2.2 42.3c-2.9-2.9-2.9-7.6 0-10.5L31.7 2.2c2.9-2.9 7.6-2.9 10.5 0l29.5 29.5c2.9 2.9 2.9 7.6 0 10.5L42.3 71.8c-2.9 2.9-7.7 2.9-10.6 0z"/><path class="adst2" d="M58.5 39.3c0-.1-.1-.1-.1-.2-.7-1.2-2.2-1.2-3.3-.5-1.6 1.1-4.9 2.5-7.9 3.6v7.9l10.6-7.9c.9-.5 1.2-1.8.7-2.9z"/><path class="adst3" d="M61.3 40.4c-.6-1.2-2.1-1.4-3.2-.7-1.7 1-5.1 2.3-8.2 3.1 0 0 .2-1.2-.4-2-.8-1.1-2.3-1.5-3.5-1.1L35.8 42c-.8.3-3.5-.1-4.4-.3-3.1-.8-6.3-.6-9.1.7v14.4c2.9-2 10.4-1.5 14.9-1.1 2.5.3 5-.3 7.1-1.7l16.2-10.5c1-.6 1.4-1.8.8-3.1z"/><path class="adst2" d="M60.2 39.5c.5 1.1 0 2.3-.9 2.9l-13.6 8.8c-1.7 1.1-3.8 1.7-5.8 1.8-16.7.7-17.6 3.8-17.6 3.8 2.9-2 10.4-1.5 14.9-1.1 2.5.3 5-.3 7.1-1.7l16.2-10.5c1.6-.9 1.4-3.5-.3-4z"/><path class="adst1" d="M48.6 41.1c-.5-.7-1.4-.9-2.1-.7l-1.8.6c-.3 1.6 0 2.9 1.1 3.7l2.1-1c1.1-.3 1.4-1.7.7-2.6z"/><path class="adst2" d="M49.8 42.9c-.5 2.1-3 2.6-4.8 3.4-3.2 1.2-6.7 2.2-10.1 3 2.2-.8 4.5-1.5 6.7-2.3l3.3-1.1c1.8-.7 4.1-1.1 4.9-3z"/><path class="adst1" d="M23.9 38.9h-5.6c-.6 0-1.1.5-1.1 1.1v17c0 .6.5 1.1 1.1 1.1h5.6c.6 0 1.1-.5 1.1-1.1V40c-.2-.6-.6-1.1-1.1-1.1z"/><path class="adst4" d="M21.2 37.2h-7c-.6 0-1.1.5-1.1 1.1v20.5c0 .5.5 1 1.1 1h7c.6 0 1.1-.5 1.1-1.1V38.3c0-.7-.5-1.1-1.1-1.1z"/><circle class="adst1" cx="17.7" cy="41.2" r="1.9"/><path class="adst4" d="M32.9 26.8v-5.4c0-1.1-.5-2.1-1.2-2.9-.8-.8-1.7-1.2-2.9-1.2-2.3 0-4.1 1.8-4.1 4.1v5.4c2.9.7 5.7.7 8.2 0z"/><path class="adst5" d="M35.4 32.2c0 3-13.2 3-13.2 0 0-2.1 1.7-3.8 3.8-3.8h.4c0 1.4 1.1 2.5 2.5 2.5s2.5-1.1 2.5-2.5h.2c2 0 3.8 1.7 3.8 3.8z"/><path class="adst1" d="M31.3 28.4c0 1.4-1.1 2.5-2.5 2.5s-2.5-1.1-2.5-2.5h5z"/><path class="adst3" d="M30.4 26.8v1.7c0 .9-.8 1.7-1.7 1.7s-1.7-.8-1.7-1.7v-1.7h3.4z"/><path class="adst2" d="M30.4 27.1v1c-2.7.2-3.3-.8-3.3-.8v-.2h3.3z"/><path class="adst3" d="M31.9 22.3v2.3c0 1.6-1.2 3-2.8 3.2-1.8.2-3.3-1.3-3.3-3v-2.4c0-1.8 6.1-1.8 6.1-.1z"/><path class="adst1" d="M27.9 25.9c-.1 0-.2.2-.2.2.2.4.5.6 1 .6s.8-.2 1-.6c.1-.1 0-.2-.2-.2h-1.6z"/><path class="adst2" d="M29.2 24.9c-.1.2-.2.3-.4.3s-.4-.2-.4-.3h.8z"/><path class="adst4" d="M27.6 23.7c0 .2-.2.4-.4.4s-.3-.2-.3-.4.2-.3.3-.3c.3 0 .4.2.4.3zm2.9 0c0 .2-.2.4-.4.4s-.3-.2-.3-.4.2-.3.3-.3c.3 0 .4.2.4.3zm-2.4-.7c0 .1-.1.2-.2.2h-1.3c-.1 0-.2-.1-.2-.2s.1-.2.2-.2h1.3c.1 0 .2.1.2.2zm2.9 0c0 .1-.1.2-.2.2h-1.3c-.1 0-.2-.1-.2-.2s.1-.2.2-.2h1.3c.1 0 .2.1.2.2z"/><path class="adst3" d="M33 23.4c0 .6-.5 1.1-1.1 1.1v-2.3c.6.1 1.1.6 1.1 1.2zM24.6 23.4c0 .6.5 1.1 1.1 1.1v-2.3c-.5.1-1.1.6-1.1 1.2z"/><path class="adst4" d="M55.6 21.5v8.2h-8.1v-8.2c0-2.3 1.8-4.1 4.1-4.1 1.1 0 2.1.5 2.9 1.2.7.8 1.1 1.8 1.1 2.9z"/><path class="adst6" d="M58.1 32.2c0 3-13.2 3-13.2 0 0-2.1 1.7-3.8 3.8-3.8h.3c0 1.4 1.1 2.5 2.5 2.5s2.5-1.1 2.5-2.5h.2c2.2 0 3.9 1.7 3.9 3.8z"/><path class="adst1" d="M54.1 28.4c0 1.4-1.1 2.5-2.5 2.5s-2.5-1.1-2.5-2.5h5z"/><path class="adst3" d="M53.3 26.8v1.7c0 .9-.8 1.7-1.7 1.7-.9 0-1.7-.8-1.7-1.7v-1.7h3.4z"/><path class="adst2" d="M53.3 27.1v1c-2.7.2-3.3-.8-3.3-.8v-.2h3.3z"/><path class="adst3" d="M54.6 22.3v2.3c0 1.6-1.2 3-2.8 3.2-1.8.2-3.3-1.3-3.3-3v-2.4c0-1.8 6.1-1.8 6.1-.1z"/><path class="adst1" d="M50.7 25.9c-.1 0-.2.2-.2.2.2.4.5.6 1 .6s.8-.2 1-.6c.1-.1 0-.2-.2-.2h-1.6z"/><path class="adst2" d="M51.9 24.9c-.1.2-.2.3-.4.3s-.4-.2-.4-.3h.8z"/><path class="adst4" d="M50.5 23.7c0 .2-.2.4-.4.4s-.3-.2-.3-.4.2-.3.3-.3c.2 0 .4.2.4.3zm2.8 0c0 .2-.2.4-.4.4s-.3-.2-.3-.4.2-.3.3-.3c.2 0 .4.2.4.3zm-2.5-.7c0 .1-.1.2-.2.2h-1.2c-.1 0-.2-.1-.2-.2s.1-.2.2-.2h1.3c.1 0 .1.1.1.2zm2.9 0c0 .1-.1.2-.2.2h-1.3c-.1 0-.2-.1-.2-.2s.1-.2.2-.2h1.3c.1 0 .2.1.2.2z"/><path class="adst3" d="M55.8 23.4c0 .6-.5 1.1-1.1 1.1v-2.3c.5.1 1.1.6 1.1 1.2zM47.4 23.4c0 .6.5 1.1 1.1 1.1v-2.3c-.6.1-1.1.6-1.1 1.2z"/><path class="adst7" d="M48.4 35.8c0 2.1-4.5 2.8-6.5 2.9-2.9.3-11.1 0-11.1-2.9 0-1.4.6-2.6 1.5-3.6.4-.4.8-.7 1.2-.9.7-.4 1.5-.6 2.4-.6h7.4c.3 0 .7 0 1 .1.2 0 .3.1.5.2 2 .6 3.6 2.6 3.6 4.8z"/><path class="adst1" d="M36.3 30.8l.8 3.3c.2.6.8.8 1.1.5l1.5-1.4-2.1-2.6-1.3.2zm6.8 0l-.9 3.6c-.1.5-.7.6-1 .3l-1.5-1.4 2.1-2.6 1.3.1z"/><path class="adst3" d="M41.8 28.9V31c0 1.1-1 2.1-2.1 2.1s-2.1-1-2.1-2.1v-2.1h4.2z"/><path class="adst2" d="M41.8 29.4v1.2c-3.4.2-4.2-1.1-4.2-1.1v-.2l4.2.1z"/><path class="adst3" d="M43.5 21.6v4.8c0 2.1-1.7 3.9-3.9 3.9-2.1 0-3.9-1.7-3.9-3.9v-4.8h7.8zM44.8 25.1c0 .7-.5 1.3-1.3 1.3v-2.5c.7-.1 1.3.4 1.3 1.2z"/><path class="adst3" d="M34.5 25.1c0 .7.5 1.3 1.3 1.3v-2.5c-.7-.1-1.3.4-1.3 1.2z"/><path class="adst1" d="M38.5 27.7c-.2 0-.2.2-.2.3.2.5.7.8 1.2.8s1.1-.3 1.2-.8c.1-.2 0-.3-.2-.3h-2z"/><path class="adst2" d="M40.1 26.5c-.1.2-.3.4-.5.4s-.5-.2-.5-.4h1z"/><path class="adst4" d="M38.2 25.1c0 .2-.2.5-.5.5s-.5-.2-.5-.5.2-.5.5-.5c.3.1.5.3.5.5zm3.6 0c0 .2-.2.5-.5.5-.2 0-.5-.2-.5-.5s.2-.5.5-.5c.3.1.5.3.5.5zm-3-1c0 .1-.1.2-.2.2H37c-.1 0-.2-.1-.2-.2s.1-.1.2-.1h1.6c.1 0 .2 0 .2.1zm3.6 0c0 .1-.1.2-.2.2h-1.6c-.1 0-.2-.1-.2-.2s.1-.2.2-.2h1.6c.1.1.2.1.2.2z"/><path class="adst4" d="M43.7 25.4c-.3-.8-.6-2.2-.9-3.7-2.5 1-5.4.8-7-.3-1.4-1-1.2-2.5-.1-3.2 1.4-1.1 4.2-1.2 6.1.4 0 0 2.6-1 1.7 1.5 1.7-.6 1.1 2.1.2 5.3z"/><path class="adst4" d="M35.6 20c1.6-.5 1.1 2.1.1 5.4-.3-.8-.6-2.2-.9-3.7-.1 0-.3-1.7.8-1.7z"/></svg><svg version="1.1" id="icon_cms" x="0" y="0" xml:space="preserve" viewBox="0 0 60 60" xmlns="http://www.w3.org/2000/svg"><style>.aest0{fill:#336}</style><path class="aest0" d="M56.1 1H3.9C2.3 1 1 2.3 1 3.9v42.5c0 1.6 1.3 2.9 2.9 2.9h19.2c-.6 3.1-3.8 3.8-4 3.9-2.1.1-3.7 1.8-3.7 3.8 0 1.1.9 1.9 1.9 1.9h25.1c1.1 0 1.9-.9 1.9-1.9 0-2.1-1.6-3.7-3.7-3.8-.2 0-3.4-.7-4-3.9h19.2c1.6 0 2.9-1.3 2.9-2.9V3.9c.3-1.6-1-2.9-2.6-2.9zM3.9 2.9h52.2c.5 0 1 .4 1 1v37.7H2.9V3.9c0-.5.5-1 1-1zm38.7 54.2H17.4c0-1.1.9-1.9 1.9-1.9h21.3c1.1-.1 2 .8 2 1.9zm-5.8-3.9H23.2c1.1-1 1.8-2.4 1.9-3.9h9.8c.2 1.5.9 2.9 1.9 3.9zm19.3-5.8H3.9c-.5 0-1-.4-1-1v-2.9H57v2.9c.1.6-.4 1-.9 1zM6.8 39.7h46.4c1.1 0 1.9-.9 1.9-1.9v-31c0-1.1-.9-1.9-1.9-1.9H6.8c-1.1 0-1.9.9-1.9 1.9v30.9c0 1.1.8 2 1.9 2zm11.8-8.8l-1.2-2.8c.3-.4.6-.7.9-1 .3-.3.7-.7 1.1-.9l2.8 1.2c.3.1.6.1.9-.1 1.1-.7 2.4-1.2 3.7-1.5.3-.1.6-.3.7-.6l1.2-2.8c.9-.1 1.9-.1 2.8 0l1.1 2.8c.1.3.4.5.7.6 1.3.3 2.5.8 3.7 1.5.3.2.6.2.9.1l2.8-1.2c.4.3.7.6 1 .9.3.3.7.7.9 1.1L41.4 31c-.1.3-.1.6.1.9.7 1.1 1.2 2.4 1.5 3.7.1.3.3.6.6.7l2.8 1.2v.4h-4.8c-.5-6.4-6.1-11.1-12.5-10.6-5.7.5-10.1 5-10.6 10.6h-4.8c0-.2 0-.3.1-.5l2.8-1.1c.3-.1.5-.4.6-.7.3-1.3.8-2.5 1.5-3.7 0-.3 0-.7-.1-1zm21 6.8H20.4c.5-5.3 5.3-9.2 10.6-8.7 4.5.5 8.2 4.2 8.6 8.7zM6.8 6.8h46.4v30.9h-4.9v-.6c-.1-.7-.6-1.4-1.2-1.6l-2.3-.9c-.3-1.1-.8-2.2-1.4-3.3l1-2.3c.3-.7.2-1.5-.3-2-.3-.4-.7-.8-1.1-1.2-.4-.4-.8-.7-1.2-1-.6-.5-1.4-.6-2.1-.3l-2.3 1c-1-.6-2.1-1-3.3-1.4l-.9-2.4c-.3-.7-.9-1.2-1.6-1.2-1.1-.1-2.1-.1-3.2 0-.7.1-1.4.6-1.6 1.2l-1 2.3c-1.1.3-2.2.8-3.3 1.4l-2.3-1c-.7-.3-1.5-.2-2 .3-.4.3-.7.6-1.2 1.1-.4.4-.7.8-1 1.2-.5.6-.6 1.4-.3 2.1l1 2.3c-.6 1-1 2.1-1.4 3.3l-2.4.9c-.7.3-1.2.9-1.2 1.6v.6H6.8v-31zm14.5 11.6c1.6 0 2.9-1.3 2.9-2.9 0-.5-.4-1-1-1s-1 .4-1 1c0 .5-.4 1-1 1-.5 0-1-.4-1-1v-3.9c0-.5.4-1 1-1 .5 0 1 .4 1 1s.4 1 1 1 1-.4 1-1c0-1.6-1.3-2.9-2.9-2.9-1.6 0-2.9 1.3-2.9 2.9v3.9c0 1.6 1.3 2.9 2.9 2.9zm5.8 0c.5 0 1-.4 1-1v-5.8l.8 1c.5.6 1.5.7 2.1.2.1-.1.2-.1.2-.2l.8-1v5.8c0 .5.4 1 1 1s1-.4 1-1v-7.2c0-.8-.6-1.5-1.4-1.5-.5 0-.9.2-1.2.6L30 11l-1.3-1.7c-.5-.6-1.4-.8-2-.3-.4.3-.6.7-.6 1.2v7.2c0 .6.5 1 1 1zm11.6-3.9c.5 0 1 .4 1 1 0 .5-.4 1-1 1-.3 0-.7-.2-.8-.5-.3-.5-.9-.6-1.3-.3s-.6.8-.3 1.3c.8 1.4 2.6 1.9 4 1.1 1.4-.8 1.9-2.6 1.1-4-.5-.9-1.5-1.5-2.5-1.4-.5 0-1-.4-1-1 0-.5.4-1 1-1 .3 0 .7.2.8.5.3.5.9.6 1.3.3s.6-.8.3-1.3c-.8-1.4-2.6-1.9-4-1.1s-1.9 2.6-1.1 4c.5.9 1.5 1.4 2.5 1.4zm-24.2 3.9c.5 0 1-.4 1-1 0-.5-.4-1-1-1h-3.9c-.5 0-1 .4-1 1 0 .5.4 1 1 1h3.9zm31 0h3.9c.5 0 1-.4 1-1 0-.5-.4-1-1-1h-3.9c-.5 0-1 .4-1 1s.4 1 1 1z"/></svg><svg version="1.1" id="icon_device" x="0" y="0" xml:space="preserve" viewBox="0 0 74 84" xmlns="http://www.w3.org/2000/svg"><style>.afst0{fill:#e0e0f5}.afst1{fill:#fff}.afst2{fill:#1d2943}.afst3{fill:#f34b58}.afst4{fill:#57b3fe}.afst5{fill:#a3d14a}</style><path class="afst0" d="M31.7 81.8L2.2 52.3c-2.9-2.9-2.9-7.6 0-10.5l29.5-29.5c2.9-2.9 7.6-2.9 10.5 0l29.5 29.5c2.9 2.9 2.9 7.6 0 10.5L42.3 81.8c-2.9 2.9-7.7 2.9-10.6 0z"/><path class="afst1" d="M31.7 71.8L2.2 42.3c-2.9-2.9-2.9-7.6 0-10.5L31.7 2.2c2.9-2.9 7.6-2.9 10.5 0l29.5 29.5c2.9 2.9 2.9 7.6 0 10.5L42.3 71.8c-2.9 2.9-7.7 2.9-10.6 0z"/><path class="afst2" d="M45.3 55.5H33.9l1.4-7h8.5l1.5 7zM30.8 55.5h17.5v.9H30.8v-.9z"/><path class="afst2" d="M18.8 19.5c-.6 0-1.1.5-1.1 1.1v26.8c0 .6.5 1.1 1.1 1.1h41.5c.6 0 1.1-.5 1.1-1.1V20.6c0-.6-.5-1.1-1.1-1.1H18.8z"/><path class="afst1" d="M20 21.7h39.2v24.5H20V21.7z"/><path class="afst3" d="M21.6 23.1h10.9v3.3H21.6v-3.3z"/><path class="afst4" d="M34.1 23.1h23.7v3.3H34.1v-3.3zM21.3 41.5h36.5v1.1H21.3v-1.1zm0 2.3h36.5v1.1H21.3v-1.1z"/><path class="afst5" d="M21.3 34h10.9v6.2H21.3V34zm12.8 0H45v6.2H34.1V34zM47 34h10.9v6.2H47V34z"/><path class="afst4" d="M21.3 27.6h36.5v5.1H21.3v-5.1z"/><path class="afst2" d="M14.4 56.3c-.9 0-1.6-.7-1.6-1.6V35.1c0-.9.7-1.6 1.6-1.6h9.3c.9 0 1.6.7 1.6 1.6v19.7c0 .9-.7 1.6-1.6 1.6l-9.3-.1z"/><path class="afst1" d="M13.8 36.9h10.6v16H13.8v-16z"/><path class="afst3" d="M14.6 37.7h9v1.4h-9v-1.4z"/><path class="afst4" d="M14.6 50.6h9v.5h-9v-.5zm0 1h9v.5h-9v-.5z"/><path class="afst5" d="M14.6 43h9v7h-9v-7z"/><path class="afst4" d="M14.6 39.7h9v2.8h-9v-2.8z"/></svg><svg version="1.1" id="icon_facebook" x="0" y="0" xml:space="preserve" viewBox="0 0 46 46" xmlns="http://www.w3.org/2000/svg"><style>.agst0{fill:#333}</style><path class="agst0" d="M37.1 3H8.9C5.6 3 3 5.6 3 8.9v28.3C3 40.4 5.6 43 8.9 43h11.8V28.9H16v-7h4.7v-4.8c0-3.9 3.2-7 7-7h7.1v7h-7.1v4.8h7.1l-1.2 7h-5.9V43h9.5c3.2 0 5.9-2.6 5.9-5.9V8.9C43 5.6 40.4 3 37.1 3z"/></svg><svg version="1.1" id="icon_faq" x="0" y="0" xml:space="preserve" viewBox="0 0 60 60" xmlns="http://www.w3.org/2000/svg"><style>.ahst0{fill:#007eff}</style><path id="ahfaq" class="ahst0" d="M50.7 41.7c1.3-2.3 2-5 2-7.7 0-8.6-6.9-15.7-15.5-16-1.3-2.3-3.2-4.2-5.4-5.6-2.5-1.6-5.5-2.4-8.5-2.4-8.8 0-16 7.2-16 16 0 2.7.7 5.3 2 7.7l-1 5.8c-.1.4.1.9.4 1.2.3.3.7.4 1.1.3l5.8-1c2.2 1.2 4.6 1.9 7.1 1.9 1.3 2.3 3.2 4.2 5.4 5.6 2.5 1.6 5.5 2.4 8.5 2.4 2.7 0 5.3-.7 7.7-2l5.8 1c.4.1.9-.1 1.2-.4.3-.3.4-.7.4-1.2l-1-5.6zm-34.8-4.4h-.2l-4.5.7.7-4.5c.1-.3 0-.6-.2-.9-1.2-2-1.8-4.4-1.8-6.7 0-7.4 6-13.3 13.3-13.3 5 0 9.6 2.8 11.9 7.3 1 1.9 1.5 3.9 1.5 6.1 0 3.5-1.4 6.8-3.8 9.4l-.2.2c-.2.2-.5.4-.7.6l-.1.1c-2.2 1.9-5 2.9-8 3.1h-.5c-2.4 0-4.7-.6-6.7-1.8-.2-.2-.5-.3-.7-.3zM48 41.6l.7 4.5-4.5-.7c-.3-.1-.6 0-.9.2-2 1.2-4.4 1.8-6.7 1.8-4.4 0-8.3-2.1-10.8-5.5 0 0 .9-.1 1.8-.4 1-.3 1.4-.5 1.4-.5.2.1.4.2.7.2h13.9c.7 0 1.3-.6 1.3-1.3 0-.7-.6-1.3-1.3-1.3H33.3c.1-.1 1.3-1.2 1.4-1.3.6-.6 1.1-1.2 1.6-1.9h7.3c.7 0 1.3-.6 1.3-1.3 0-.7-.6-1.3-1.3-1.3h-5.7c.5-1 .8-2.1 1.1-3.2h4.7c.7 0 1.3-.6 1.3-1.3 0-.7-.6-1.3-1.3-1.3h-4.3s.1-1.1-.1-3-.7-3.1-.7-3.1C45 21.7 50 27.2 50 34c0 2.4-.6 4.7-1.8 6.7-.2.3-.2.6-.2.9zM25.3 21.8c0-1.1-.9-2-2-2s-2 .9-2 2c0 .7-.6 1.3-1.3 1.3s-1.3-.6-1.3-1.3c0-2.6 2.1-4.7 4.7-4.7s4.7 2.1 4.7 4.7c0 2.1-1.4 3.9-3.3 4.5v2.8c0 .7-.6 1.3-1.3 1.3s-1.5-.6-1.5-1.3v-3.9c0-.7.6-1.3 1.3-1.3 1.1-.1 2-1 2-2.1zm-2 13c-.7 0-1.3-.6-1.3-1.3 0-.7.6-1.3 1.3-1.3.7 0 1.3.6 1.3 1.3.1.7-.6 1.3-1.3 1.3z"/></svg><svg version="1.1" id="icon_gamewarning" x="0" y="0" xml:space="preserve" viewBox="0 0 60 60" xmlns="http://www.w3.org/2000/svg"><style>.aist0{fill:#336}</style><path class="aist0" d="M55.1 6.8c0-3.2-2.6-5.8-5.8-5.8H10.7C7.5 1 4.9 3.6 4.9 6.8v30.6c-.1.1-.2.2-.4.3C2.1 40.2.9 43.5 1 46.9c.3 6.6 5.7 11.9 12.3 12.1 4.2.1 8.2-1.9 10.6-5.4.2-.2.5-.4.8-.4h10.7c.3 0 .6.1.8.4C38.4 57 42.3 59 46.4 59h.3c6.6-.2 11.9-5.5 12.3-12.1.1-3.4-1.1-6.7-3.5-9.2-.1-.1-.2-.2-.4-.3V6.8zM10.7 2.9h38.7c2.1 0 3.9 1.7 3.9 3.9v5.8H6.8V6.8c0-2.1 1.7-3.9 3.9-3.9zm46.4 43.9c-.3 5.6-4.8 10-10.4 10.2-3.6.1-7-1.6-9-4.6-.5-.8-1.4-1.2-2.4-1.2H24.7c-.9 0-1.8.4-2.4 1.2-2 3-5.4 4.7-9 4.6-5.6-.1-10.1-4.6-10.4-10.2-.2-5.8 4.4-10.8 10.3-11h33.3c5.9 0 10.6 4.8 10.6 10.6v.4zM20.5 33.3c-.2-.3-.2-.7 0-1l8.8-13.6c.2-.4.7-.5 1.1-.2.1.1.2.1.2.2l8.8 13.6c.2.3.2.7 0 1-.2.3-.5.5-.9.5H21.3c-.3.1-.7-.1-.8-.5zm25.9.6h-5c.3-.8.2-1.8-.3-2.5l-8.8-13.6c-.8-1.3-2.5-1.6-3.8-.8-.3.2-.6.5-.8.8l-8.8 13.6c-.5.8-.6 1.7-.3 2.5h-5c-2.4 0-4.7.7-6.8 2V14.5h46.4v21.3c-2-1.3-4.4-1.9-6.8-1.9zM11.6 10.7c1.6 0 2.9-1.3 2.9-2.9s-1.3-2.9-2.9-2.9-2.9 1.3-2.9 2.9 1.3 2.9 2.9 2.9zm0-3.9c.5 0 1 .4 1 1s-.4 1-1 1-1-.4-1-1 .5-1 1-1zm7.8 3.9c1.6 0 2.9-1.3 2.9-2.9S21 4.9 19.4 4.9c-1.6 0-2.9 1.3-2.9 2.9s1.3 2.9 2.9 2.9zm0-3.9c.5 0 1 .4 1 1s-.4 1-1 1c-.5 0-1-.4-1-1s.4-1 1-1zm7.7 3.9c1.6 0 2.9-1.3 2.9-2.9s-1.3-2.9-2.9-2.9c-1.6 0-2.9 1.3-2.9 2.9s1.3 2.9 2.9 2.9zm0-3.9c.5 0 1 .4 1 1s-.4 1-1 1-1-.4-1-1 .5-1 1-1zm15.5 3.9h5.8c1.6 0 2.9-1.3 2.9-2.9S50 4.9 48.4 4.9h-5.8c-1.6 0-2.9 1.3-2.9 2.9s1.3 2.9 2.9 2.9zm0-3.9h5.8c.5 0 1 .4 1 1s-.4 1-1 1h-5.8c-.5 0-1-.4-1-1s.4-1 1-1zm3.8 36.7c1.6 0 2.9-1.3 2.9-2.9s-1.3-2.9-2.9-2.9c-1.6 0-2.9 1.3-2.9 2.9s1.3 2.9 2.9 2.9zm0-3.8c.5 0 1 .4 1 1s-.4 1-1 1-1-.4-1-1 .5-1 1-1zm2.9 6.7c0 1.6 1.3 2.9 2.9 2.9 1.6 0 2.9-1.3 2.9-2.9 0-1.6-1.3-2.9-2.9-2.9-1.6 0-2.9 1.3-2.9 2.9zm3.9 0c0 .5-.4 1-1 1s-1-.4-1-1 .4-1 1-1 1 .5 1 1zm-12.6-2.9c-1.6 0-2.9 1.3-2.9 2.9 0 1.6 1.3 2.9 2.9 2.9s2.9-1.3 2.9-2.9c0-1.6-1.3-2.9-2.9-2.9zm0 3.9c-.5 0-1-.4-1-1s.4-1 1-1 1 .4 1 1-.4 1-1 1zm5.8 1.9c-1.6 0-2.9 1.3-2.9 2.9 0 1.6 1.3 2.9 2.9 2.9 1.6 0 2.9-1.3 2.9-2.9 0-1.6-1.3-2.9-2.9-2.9zm0 3.9c-.5 0-1-.4-1-1s.4-1 1-1 1 .4 1 1-.4 1-1 1zm-27-9.7h-2.9v-2.9c0-.8-.3-1.5-.8-2-.6-.6-1.4-.9-2.3-.9-1.5.2-2.7 1.5-2.6 3v2.8h-3c-.8 0-1.5.3-2 .8-.6.6-.9 1.4-.9 2.3.2 1.5 1.5 2.7 3 2.6h2.8v2.9c0 1.6 1.3 2.9 2.9 2.9h.5c1.4-.3 2.4-1.5 2.4-3v-2.8h2.8c1.4 0 2.7-1 3-2.4.1-.8-.1-1.7-.6-2.4-.7-.5-1.5-.9-2.3-.9zm.9 3.1c-.1.5-.6.8-1.1.8h-2.8c-1.1 0-1.9.9-1.9 1.9v2.8c0 .5-.3.9-.8 1.1-.3.1-.6 0-.8-.2-.2-.2-.3-.5-.3-.7v-2.9c0-1.1-.9-1.9-1.9-1.9H7.9c-.5 0-1-.4-1.1-.9 0-.3.1-.6.3-.8.2-.2.4-.3.7-.3h2.9c1.1 0 1.9-.9 1.9-1.9v-2.8c0-.5.4-1 .9-1.1.3 0 .6.1.8.3.2.2.3.4.3.7v2.9c0 1.1.9 1.9 1.9 1.9h2.9c.5 0 1 .4 1 1-.1 0-.1 0-.1.1zM30 30c.5 0 1 .4 1 1s-.4 1-1 1c-.5 0-1-.4-1-1s.5-1 1-1zm0-7.7c-.5 0-1 .4-1 1v3.9c0 .5.4 1 1 1s1-.4 1-1v-3.9c0-.6-.5-1-1-1z"/></svg><svg version="1.1" id="icon_info" x="0" y="0" xml:space="preserve" viewBox="0 0 74 84" xmlns="http://www.w3.org/2000/svg"><style>.ajst0{fill:#e0e0f5}.ajst1{fill:#fff}.ajst2{fill:#dbae79}.ajst3{fill:#f9d7aa}.ajst4{fill:#1d2943}.ajst5{fill:#57b3fe}</style><path class="ajst0" d="M31.7 81.8L2.2 52.3c-2.9-2.9-2.9-7.6 0-10.5l29.5-29.5c2.9-2.9 7.6-2.9 10.5 0l29.5 29.5c2.9 2.9 2.9 7.6 0 10.5L42.3 81.8c-2.9 2.9-7.7 2.9-10.6 0z"/><path class="ajst1" d="M31.7 71.8L2.2 42.3c-2.9-2.9-2.9-7.6 0-10.5L31.7 2.2c2.9-2.9 7.6-2.9 10.5 0l29.5 29.5c2.9 2.9 2.9 7.6 0 10.5L42.3 71.8c-2.9 2.9-7.7 2.9-10.6 0z"/><path class="ajst2" d="M58.1 38.1c0-.1-.1-.1-.1-.2-.7-1.2-2.2-1.2-3.3-.5-1.6 1.1-4.9 2.5-7.9 3.6v8l10.6-7.9c.9-.7 1.2-2 .7-3z"/><path class="ajst3" d="M60.9 39.2c-.6-1.2-2.1-1.4-3.2-.7-1.7 1-5.1 2.3-8.2 3.1 0 0 .2-1.2-.4-2-.8-1.1-2.3-1.5-3.5-1.1l-10.2 2.3c-.8.3-3.5-.1-4.4-.3-3.1-.8-6.3-.6-9.1.7v14.4c2.9-2 10.4-1.5 14.9-1.1 2.5.3 5-.3 7.1-1.7l16.2-10.5c1-.6 1.4-1.9.8-3.1z"/><path class="ajst2" d="M59.8 38.2c.5 1.1 0 2.3-.9 2.9L45.3 50c-1.7 1.1-3.8 1.7-5.8 1.8-16.7.7-17.6 3.8-17.6 3.8 2.9-2 10.4-1.5 14.9-1.1 2.5.3 5-.3 7.1-1.7l16.2-10.5c1.6-1 1.4-3.5-.3-4.1z"/><path class="ajst1" d="M48.2 39.9c-.5-.7-1.4-.9-2.1-.7l-1.7.6c-.3 1.6 0 2.9 1.1 3.7l2.1-1c1-.3 1.3-1.7.6-2.6z"/><path class="ajst2" d="M49.4 41.6c-.5 2.1-3 2.6-4.8 3.4-3.2 1.2-6.7 2.2-10.1 3 2.2-.8 4.5-1.5 6.7-2.3l3.3-1.1c1.8-.6 4.1-1 4.9-3z"/><path class="ajst1" d="M23.5 37.7h-5.6c-.6 0-1.1.5-1.1 1.1v17c0 .6.5 1.1 1.1 1.1h5.6c.6 0 1.1-.5 1.1-1.1v-17c-.2-.6-.6-1.1-1.1-1.1z"/><path class="ajst4" d="M20.8 36h-7c-.6 0-1.1.5-1.1 1.1v20.5c0 .5.5 1 1.1 1h7c.6 0 1.1-.5 1.1-1.1V37c0-.6-.5-1-1.1-1z"/><circle class="ajst1" cx="17.3" cy="40" r="1.9"/><path class="ajst5" d="M50.1 24.6c0 6.3-5.1 11.5-11.5 11.5-1.9 0-3.7-.5-5.4-1.3-1.1.6-2.3 1-3.6 1.3-.4.1-.7-.1-.8-.5v-.4c.4-1 .7-2.1.9-3.2-4.1-4.9-3.4-12.1 1.5-16.2s12.1-3.4 16.2 1.5c1.7 2 2.7 4.6 2.7 7.3z"/><path class="ajst1" d="M40.7 30.3l.4.1c.2.1.3.2.3.4v.5c0 .2-.2.4-.4.4h-4.7c-.2 0-.4-.2-.4-.4v-.5c0-.2.1-.3.3-.4l.4-.1c.3-.1.5-.4.5-.7v-5.7c0-.3-.2-.6-.5-.7l-.4-.1c-.2-.1-.3-.2-.3-.4v-.5c0-.2.2-.4.4-.4h3.6c.2 0 .4.2.4.4v7.4c-.1.3.1.6.4.7z"/><circle class="ajst1" cx="38.6" cy="18.2" r="1.6"/></svg><svg version="1.1" id="icon_instagram" x="0" y="0" xml:space="preserve" viewBox="0 0 46 46" xmlns="http://www.w3.org/2000/svg"><style>.akst0{fill:#333}</style><path class="akst0" d="M33 3H13C7.4 3 3 7.4 3 13v20c0 5.6 4.4 10 10 10h20c5.6 0 10-4.4 10-10V13c0-5.6-4.4-10-10-10zm6 30c0 3.4-2.6 6-6 6H13c-3.4 0-6-2.6-6-6V13c0-3.4 2.6-6 6-6h20c3.4 0 6 2.6 6 6v20zM23 13c-5.6 0-10 4.4-10 10s4.4 10 10 10 10-4.4 10-10-4.4-10-10-10zm0 16c-3.4 0-6-2.6-6-6s2.6-6 6-6 6 2.6 6 6-2.6 6-6 6zm10-18c1.1 0 2 .9 2 2s-.9 2-2 2-2-.9-2-2 .9-2 2-2z"/></svg><svg version="1.1" id="icon_linkedin" x="0" y="0" xml:space="preserve" viewBox="0 0 46 46" xmlns="http://www.w3.org/2000/svg"><style>.alst0{fill:#333}</style><path class="alst0" d="M42 42V28.1c0-6.8-1.5-12.1-9.5-12.1-3.8 0-6.4 2.1-7.5 4.1v-3.5h-7.6V42h7.9V29.4c0-3.3.6-6.5 4.7-6.5 4 0 4.1 3.8 4.1 6.7V42H42zM4.6 16.6h7.9V42H4.6V16.6zM8.6 4C6 4 4 6 4 8.6s2 4.6 4.6 4.6 4.6-2.1 4.6-4.6S11.1 4 8.6 4z"/></svg><svg version="1.1" id="icon_mail" x="0" y="0" xml:space="preserve" viewBox="0 0 46 46" xmlns="http://www.w3.org/2000/svg"><style>.amst0{fill:#333}</style><path class="amst0" d="M28.9 24.7L25.6 28c-1.4 1.4-3.7 1.4-5.1 0l-3.4-3.3-12 12c.4.2.9.3 1.4.3h33c.5 0 1-.1 1.5-.3l-12.1-12zM39.5 9h-33c-.5 0-1 .1-1.5.3l12.9 12.8 4.2 4.2c.4.4 1.4.4 1.8 0l4.2-4.2L41 9.3c-.5-.2-1-.3-1.5-.3zM3.4 11c-.2.5-.4 1-.4 1.5v21c0 .6.1 1.1.4 1.5l12.1-12L3.4 11zm39.2 0l-12 12 12.1 12c.2-.5.4-1 .4-1.5v-21c-.1-.6-.2-1.1-.5-1.5z"/></svg><svg version="1.1" id="icon_pay" x="0" y="0" xml:space="preserve" viewBox="0 0 74 84" xmlns="http://www.w3.org/2000/svg"><style>.anst0{fill:#e0e0f5}.anst1{fill:#fff}.anst2{fill:#1d2943}.anst3{fill:#57b3fe}.anst4{fill:#f34b58}</style><path class="anst0" d="M31.7 81.8L2.2 52.3c-2.9-2.9-2.9-7.6 0-10.5l29.5-29.5c2.9-2.9 7.6-2.9 10.5 0l29.5 29.5c2.9 2.9 2.9 7.6 0 10.5L42.3 81.8c-2.9 2.9-7.7 2.9-10.6 0z"/><path class="anst1" d="M31.7 71.8L2.2 42.3c-2.9-2.9-2.9-7.6 0-10.5L31.7 2.2c2.9-2.9 7.6-2.9 10.5 0l29.5 29.5c2.9 2.9 2.9 7.6 0 10.5L42.3 71.8c-2.9 2.9-7.7 2.9-10.6 0z"/><path class="anst2" d="M40.8 61.8H19.5c-2.2 0-4-1.8-4-4V16.5c0-2.2 1.8-4 4-4h21.2c2.2 0 4 1.8 4 4v41.4c0 2.2-1.7 3.9-3.9 3.9z"/><path class="anst1" d="M42.2 16.5v41.4c0 .8-.6 1.4-1.4 1.4H19.5c-.8 0-1.4-.6-1.4-1.4V16.5c0-.8.6-1.4 1.4-1.4h4c.2 0 .4.1.5.4l.5 1.5c.1.2.3.4.5.4h10.2c.2 0 .4-.1.5-.4l.5-1.5c.1-.2.3-.4.5-.4h4c.8 0 1.5.6 1.5 1.4z"/><path class="anst3" d="M34 52.9h-7.7c-1.2 0-2.1-.9-2.1-2.1 0-1.2.9-2.1 2.1-2.1H34c1.2 0 2.1.9 2.1 2.1 0 1.1-.9 2.1-2.1 2.1zm24.5-8.7H24.3c-1.1 0-1.9-.9-1.9-1.9V22.4c0-1.1.9-1.9 1.9-1.9h34.2c1.1 0 1.9.9 1.9 1.9v19.9c0 1.1-.8 1.9-1.9 1.9z"/><path class="anst1" d="M50.4 34.9c-.1-.3-.4-.5-.8-.5-.3 0-.7.2-.8.5l-2.2 5.7c-.1.4 0 .8.4.9.4.1.8 0 .9-.4l.4-.9h2.5l.4.9c.1.4.6.6.9.4.4-.1.6-.6.4-.9l-2.1-5.7zm-1.5 3.8l.7-1.8.7 1.8h-1.4zm7.9-4.2c-.3-.2-.8-.1-1 .2l-1.2 1.9-1.2-1.9c-.2-.3-.7-.4-1-.2-.3.2-.4.7-.2 1l1.7 2.6v2.7c0 .4.3.7.7.7.4 0 .7-.3.7-.7v-2.7l1.7-2.6c.2-.3.1-.8-.2-1zm-12-.1h-1.6c-.4 0-.7.3-.7.7v5.7c0 .4.3.7.7.7s.7-.3.7-.7V39h.9c1.3 0 2.4-1.1 2.4-2.3-.1-1.3-1.1-2.3-2.4-2.3zm0 3.2h-.9v-.9-.9h.9c.5 0 .9.4.9.9s-.4.9-.9.9zM33.5 29.4h-6.2c-.3 0-.6-.3-.6-.6v-4c0-.3.3-.6.6-.6h6.2c.3 0 .6.3.6.6v4c0 .4-.2.6-.6.6z"/><path class="anst4" d="M31.1 40.5h-8.7v-5.2h8.7c1.4 0 2.6 1.2 2.6 2.6-.1 1.5-1.2 2.6-2.6 2.6z"/><path class="anst1" d="M40.5 25.4c-.4 0-.7.3-.7.7v1.2c0 .4.3.7.7.7s.7-.3.7-.7v-1.2c0-.4-.3-.7-.7-.7zm12.3 0c-.4 0-.7.3-.7.7v1.2c0 .4.3.7.7.7s.7-.3.7-.7v-1.2c0-.4-.3-.7-.7-.7zm2.6 0c-.4 0-.7.3-.7.7v1.2c0 .4.3.7.7.7.4 0 .7-.3.7-.7v-1.2c.1-.4-.3-.7-.7-.7zm-11 0c-.4 0-.7.3-.7.7v1.2c0 .4.3.7.7.7.4 0 .7-.3.7-.7v-1.2c0-.4-.3-.7-.7-.7zm2.8 0c-.4 0-.7.3-.7.7v1.2c0 .4.3.7.7.7.4 0 .7-.3.7-.7v-1.2c0-.4-.3-.7-.7-.7z"/></svg><svg version="1.1" id="icon_payments" x="0" y="0" xml:space="preserve" viewBox="0 0 60 60" xmlns="http://www.w3.org/2000/svg"><style>.aost0{fill:#336}</style><path class="aost0" d="M49.3 11.2V5.8c0-2.7-2.2-4.8-4.8-4.8H5.8C3.2 1 1 3.2 1 5.8v21.3c0 2.5 1.9 4.5 4.3 4.8L9 41.3c1 2.5 3.8 3.7 6.2 2.8l22.7-8.7c-1.6 4.1-1.1 8.7 1.2 12.4l.6.9V58c0 .5.4 1 1 1H58c.5 0 1-.4 1-1V26.1c0-3.3-1.3-6.5-3.7-8.9l-6-6zm0 5.8l2.9 7.6c.6 1.5-.2 3.2-1.7 3.7l-1.6.7c.3-.6.4-1.3.4-1.9V17zM2.9 27.1V5.8c0-1.6 1.3-2.9 2.9-2.9h38.7c1.6 0 2.9 1.3 2.9 2.9v21.3c0 .2 0 .3-.1.5l-8.9-8.9c-2-1.9-5.2-2-7.2 0-2 1.9-2.1 5.1-.3 7.2l3.8 4.1h-29c-1.5 0-2.8-1.3-2.8-2.9zm12.4 4.8l-6.9 2.6-1-2.6h7.9zm-.8 10.4c-1.5.6-3.2-.2-3.7-1.7l-1.6-4.2L20.7 32h15.9l1.3 1.4-23.4 8.9zm42.6 14.8H41.6v-7.7h15.5v7.7zm0-9.7H41.2l-.4-.7c-2.4-3.8-2.5-8.5-.2-12.4.2-.4.2-.8-.1-1.1l-7.9-8.6c-1.2-1.3-1.1-3.3.1-4.5 1.3-1.2 3.3-1.2 4.5 0l15.4 15.4 1.4-1.4-3.6-3.6 1-.4c2.5-1 3.7-3.8 2.8-6.2l-3.3-8.5 3.1 3.1c2 2 3.1 4.7 3.1 7.5v21.4zM12 14.5c1.4 0 2.5-1.1 2.5-2.5V7.4c0-1.4-1.1-2.5-2.5-2.5H7.4C6 4.9 4.9 6 4.9 7.4V12c0 1.4 1.1 2.5 2.5 2.5H12zM6.8 12v-1.4h1.9V8.7H6.8V7.4c0-.3.3-.6.6-.6H12c.3 0 .6.3.6.6v1.4h-1.9v1.9h1.9V12c0 .3-.3.6-.6.6H7.4c-.3 0-.6-.3-.6-.6zm-1 5.4h3.9v1.9H5.8v-1.9zm0 5.8h3.9v1.9H5.8v-1.9zm17.4 0h3.9v1.9h-3.9v-1.9zm-11.6-5.8h3.9v1.9h-3.9v-1.9zm5.8 0h3.9v1.9h-3.9v-1.9zm5.8 0h3.9v1.9h-3.9v-1.9zM41.6 5.8h1.9v2.9h-1.9V5.8zm-3.9 0h1.9v2.9h-1.9V5.8zm-3.8 0h1.9v2.9h-1.9V5.8zm-3.9 0h1.9v2.9H30V5.8zm13.5 45.5h1.9v1.9h-1.9v-1.9z"/></svg><svg version="1.1" id="icon_phone" x="0" y="0" xml:space="preserve" viewBox="0 0 46 46" xmlns="http://www.w3.org/2000/svg"><style>.apst0{fill:#333}</style><path class="apst0" d="M32.2 2H13.8C12.3 2 11 3.3 11 4.8v36.3c0 1.6 1.3 2.8 2.8 2.8h18.4c1.5 0 2.8-1.3 2.8-2.8V4.8C35 3.3 33.7 2 32.2 2zM20.3 4h5.4c.2 0 .3.2.3.5s-.1.5-.3.5h-5.4c-.2 0-.3-.2-.3-.5s.1-.5.3-.5zM23 43c-1.1 0-2-.7-2-1.6s.9-1.6 2-1.6 2 .7 2 1.6-.9 1.6-2 1.6zm10-4H13V6h20v33z"/></svg><svg version="1.1" id="icon_phone2" x="0" y="0" xml:space="preserve" viewBox="0 0 46 46" xmlns="http://www.w3.org/2000/svg"><style>.aqst0{fill:#333}</style><path id="aqphone" class="aqst0" d="M23 4.1c.6 0 1.2.2 1.6.7l16.7 16.7c.4.4.7 1 .7 1.6s-.2 1.2-.7 1.6L24.6 41.3c-.4.4-1 .7-1.6.7s-1.2-.2-1.6-.7L4.7 24.6c-.4-.4-.7-1-.7-1.6s.2-1.2.7-1.6L21.4 4.7c.4-.4 1-.6 1.6-.6m0-3c-1.3 0-2.7.5-3.7 1.5L2.6 19.3c-2 2-2 5.4 0 7.4l16.7 16.7c1 1 2.4 1.5 3.7 1.5s2.7-.5 3.7-1.5l16.7-16.7c2-2 2-5.4 0-7.4L26.7 2.6c-1-1-2.4-1.5-3.7-1.5zM20 26c-1.9-1.9-2.3-3.8-2.4-4.5 0-.2 0-.4.2-.6l1.5-1.5c.2-.2.3-.6.1-.8L17 14.7c-.2-.3-.6-.4-.9-.2l-3.9 1.8c-.3.1-.4.4-.4.7.2 1.9 1.1 6.7 5.8 11.5S27.1 34 29 34.2c.3 0 .6-.1.7-.4l1.8-3.9c.2-.3 0-.7-.2-.9l-3.8-2.4c-.3-.2-.6-.1-.8.1l-1.5 1.5c-.1.2-.4.2-.6.2-.8-.1-2.7-.5-4.6-2.4zm7.5-1c-.4 0-.7-.3-.7-.7 0-2.8-2.3-5.1-5.1-5.1-.4 0-.7-.3-.7-.7s.3-.7.7-.7c3.6 0 6.5 2.9 6.5 6.5 0 .4-.3.7-.7.7zm3.5 0c-.4 0-.7-.3-.7-.7 0-4.7-3.8-8.5-8.6-8.6-.4 0-.7-.3-.7-.7s.3-.7.7-.7c5.5 0 9.9 4.4 9.9 9.9 0 .5-.3.8-.6.8z"/></svg><svg version="1.1" id="icon_police" x="0" y="0" xml:space="preserve" viewBox="0 0 74 84" xmlns="http://www.w3.org/2000/svg"><style>.arst0{fill:#e0e0f5}.arst1{fill:#fff}.arst2{fill:#240703}.arst3{fill:#f9d7aa}.arst4{fill:#e8ac6b}.arst5{fill:#e4e9ed}.arst6{fill:#181921}.arst7{fill:#24272d}.arst8{fill:#f6c505}.arst9{fill:#1d1d1d}.arst10{fill:#111}.arst11{fill:#d4d6d8}.arst12{fill:#3e3e3f}</style><path class="arst0" d="M31.7 81.8L2.2 52.3c-2.9-2.9-2.9-7.6 0-10.5l29.5-29.5c2.9-2.9 7.6-2.9 10.5 0l29.5 29.5c2.9 2.9 2.9 7.6 0 10.5L42.3 81.8c-2.9 2.9-7.7 2.9-10.6 0z"/><path class="arst1" d="M31.7 71.8L2.2 42.3c-2.9-2.9-2.9-7.6 0-10.5L31.7 2.2c2.9-2.9 7.6-2.9 10.5 0l29.5 29.5c2.9 2.9 2.9 7.6 0 10.5L42.3 71.8c-2.9 2.9-7.7 2.9-10.6 0z"/><path class="arst2" d="M44.9 22.5c-3.3-2.2-6.8-1.2-7.8-.8-1-.3-4.5-1.4-7.8.8-2.8 1.9-6.9 12.4-2.8 18.4 3.2 4.9 6.5 5.9 10.6 5.9s7.4-1 10.6-5.9c4.1-6 0-16.6-2.8-18.4z"/><path class="arst3" d="M32.2 39.5h9.6v11.4h-9.6V39.5z"/><path class="arst4" d="M32.2 40v4.4c1.2 1.3 3.3 3 6.1 2.5 1.5-.2 2.6-.9 3.5-1.6V40h-9.6z"/><path class="arst5" d="M56.5 57.2c-.5-5.3-1.7-6.1-4.9-7.6s-8.9-3.1-9.7-3.3c-.7 1.5-3.2 3.5-4.8 3.7-1.6-.2-4.1-2.3-4.8-3.7-.9.2-6.5 1.8-9.7 3.3s-4.4 2.3-4.9 7.6c.5.3 8.4 2.8 19.3 2.8s18.8-2.5 19.5-2.8z"/><path class="arst3" d="M45.5 32.5l.7-2.3s1.3-.4 1.9 1c.7 1.4-1.1 4.2-2.6 4.4-.4-1.1 0-3.1 0-3.1zm-16.9 0l-.7-2.3s-1.3-.4-1.9 1c-.7 1.4 1.1 4.2 2.6 4.4.3-1.1 0-3.1 0-3.1z"/><path class="arst3" d="M46.2 33.4v-.3c0-6.1 1.8-13.1-9-13.2H37h-.2c-10.7.1-9 7-9 13.2v.3c0 .1.8 4.4 1.5 5.5.7 1.1 3.8 6.6 7.5 6.6h.4c3.7 0 7-5.7 7.6-6.8.7-1.2 1.4-5.3 1.4-5.3z"/><path class="arst2" d="M36.3 18.3c.9-.7 2.8-2.3 5.6-.4 1.8 1.3 4.1 1.5 5.2 3.7 1.1 2.2 1 3.1.5 4.3s-.1 1.5.5 1.9c.8.4.7 2.1-.5 2.6-.5-.2-.6-.4-1-.2-.2.2-.5 1-.5 1-.1.2-.6.2-.6-.3.1-.4 0-1.4-.8-2s-1.2-1.4-.6-2.3c.7-1.1-1.4-6.7-8.1-4.7-.6-.8-.7-2.7-.7-2.7l1-.9z"/><path class="arst2" d="M38.4 17.7c-.4-.5-1.8-2.1-4.9-1.5-3.1.6-3.9 2.4-4.2 3.4-.4.8-1.9 1.1-2.7 1.6-.9.5-1.1 2.1-.7 3.2.5 1.1 1.3 3.3.6 3.3-.7 0-1.3 2.1-.3 3.2.4-.2 1.1-1.1 1.4.7 0 .3.5.3.7 0 .1-.3.2-.9 0-1.5s-.3-3.3 1.8-4.4 5.6-.2 8.5-4.1c-.1-1.5-.2-3.9-.2-3.9z"/><path class="arst6" d="M51.4 24c-.6-.9-1.4-2-2-3.4-.6-1.3-1-2.8-1.4-3.1-.4-.4-3.7-.9-5.2-1.4-1.5-.5-4.9-1.9-5.7-2-.8.1-4.2 1.5-5.7 2s-4.8 1.1-5.2 1.4c-.4.4-.8 1.8-1.4 3.1-.6 1.3-1.4 2.5-2 3.4s-.3 1.4 0 1.7c.3.3 3.9 3.4 4.6 3.5.9.1 9.7.4 9.7.4s8.8-.3 9.7-.4c.7-.1 4.3-3.2 4.6-3.5.3-.4.6-.9 0-1.7z"/><path class="arst7" d="M46.3 26.8c-.1-.4-3.6-3.8-9.4-3.5-5.8-.3-9.3 3.1-9.4 3.5l-.4 1.8 1.7.9 8.1-.7 8.1.7 1.7-.9-.4-1.8z"/><path class="arst8" d="M39.1 19.8c-.2-.6 0-.9.2-1.1.2-.2.1-.4 0-.5-.2-.1-.3-.3-.4-.5-.1-.2-.2-.2-.4-.1-.5.2-1.3 0-1.5-.1-.2.1-1 .3-1.5.1-.2-.1-.3-.1-.4.1-.1.2-.3.4-.4.5-.1.1-.2.3 0 .5s.5.5.2 1.1c-.2.6-.8 1.5-.8 2.5 0 .7.3 1.1 1.1 1.4.9.3 1.5.3 1.8.6.3-.3 1-.4 1.8-.6.9-.3 1.1-.7 1.1-1.4.1-1-.5-1.9-.8-2.5z"/><path class="arst9" d="M43.3 28c-2.6-.6-6.3-.1-6.3-.1s-3.8-.5-6.3.1c-2.6.6-3.2 1-3.4 1.4 0 0 1.5 2.9 9.7 2.8 8.3.1 9.7-2.8 9.7-2.8-.2-.4-.9-.8-3.4-1.4z"/><path class="arst10" d="M37 26.9s-5.2-.5-9.8 1.7v.8s3.1-1.5 9.7-1.5c6.7 0 9.7 1.5 9.7 1.5v-.8c-4.5-2.2-9.6-1.7-9.6-1.7z"/><path class="arst9" d="M37.8 51.9l-.8-.5-.9.4-1.3 6.8.6 1.3h3.3l.5-1.2-1.4-6.8z"/><path class="arst10" d="M37 49c-.6 0-2 .3-1.9 1.8.1.3.8 1.3 1.9 1.6h.1c1-.3 1.7-1.3 1.9-1.6 0-1.4-1.5-1.8-2-1.8z"/><path class="arst11" d="M32.2 45.4s1 2.4 4.8 3.6c-.5.9-1.9 2.9-2.1 3.2-.2.3-.6.9-1.3.5-.6-.4-3.3-4-4.2-5.7.8-.4 1.9-1 2.8-1.6zm9.6 0s-1 2.4-4.8 3.6c.5.9 1.9 2.9 2.1 3.2.2.3.6.9 1.3.5.6-.4 3.3-4 4.2-5.7-.8-.4-1.9-1-2.8-1.6z"/><path class="arst9" d="M52.5 50.1c-.3-.2-.7-.3-1-.5-1.8-.8-4.4-1.7-6.5-2.3-.4.8-1.7 3.1-3 5.8H31.9c-1.3-2.7-2.5-5-3-5.7-2.1.6-4.7 1.5-6.5 2.3-.3.1-.7.3-1 .5.4 2 .9 5.4.7 8.4 3 .6 7.2 1.3 12.3 1.5H37.1c3.6 0 9.7-.7 9.7-.7 1.9-.3 3.6-.6 5-.9-.1-3 .4-6.5.7-8.4z"/><path class="arst12" d="M25 48.1c-2.6 1-3.2 1.4-3.6 1.6s-.6 1.3.4 1.6c.6.1 2 .1 4.2-.7 2.1-.8 3.2-1.9 3.4-2.3.3-.6-.3-1.3-.8-1.2-.5 0-3.6 1-3.6 1zm24 0c2.6 1 3.2 1.4 3.6 1.6s.6 1.3-.4 1.6c-.6.1-2 .1-4.2-.7-2.1-.8-3.2-1.9-3.4-2.3-.3-.6.3-1.3.8-1.2.5 0 3.6 1 3.6 1z"/><path class="arst10" d="M53.2 48.8c0 .3-.3.6-.6.6h-.2c-.3 0-.6-.3-.6-.6v-2.3c0-.3.3-.6.6-.6h.2c.3 0 .6.3.6.6v2.3z"/><path class="arst10" d="M53.8 55.3c0 .3-.3.6-.6.6h-4.5c-.3 0-.6-.3-.6-.6v-7.1c0-.3.3-.6.6-.6h4.5c.3 0 .6.3.6.6v7.1z"/><path class="arst11" d="M49.4 48.7h3.3V51h-3.3v-2.3z"/><path class="arst12" d="M37 60c3.3 0 6.6-.2 9.8-.7l-1.5-2.1H28.7l-1.5 2.1c3.2.4 6.5.7 9.8.7z"/></svg><svg version="1.1" id="icon_risk" x="0" y="0" xml:space="preserve" viewBox="0 0 60 60" xmlns="http://www.w3.org/2000/svg"><style>.asst0{fill:#336}</style><path class="asst0" d="M1.9 34.7L28.2 37l-8.7 15.6c-.3.5-.1 1 .4 1.3.1.1.3.1.5.1h19.3c.5 0 1-.4 1-1 0-.2 0-.3-.1-.5l-8.5-15.2 25.5 2.2h.1c.5 0 .9-.4 1-.9l.3-3.8c0-.2 0-.3-.1-.5l-9.3-20.1c-.2-.5-.8-.7-1.3-.5-.1.1-.3.2-.4.3L34.5 31.8l-10.7-.9c3.4-2.5 4.2-7.3 1.6-10.7-1.7-2.3-4.6-3.5-7.5-3V17l1.9.2h.1c.5 0 .9-.4 1-.9l.3-3.8c0-.5-.3-1-.9-1l-1.9-.2.3-2.9c0-.5-.3-1-.9-1L4.4 6c-.5 0-1 .3-1 .9L3 10.7c0 .5.3 1 .9 1l1.9.2-.2 1.9-1.9-.2c-.5 0-1 .3-1 .9l-.3 3.8c0 .5.3 1 .9 1l1 .1-.3 2-1-.1c-.5 0-1 .3-1 .9L1.7 26c0 .5.3 1 .9 1l1 .1-.2 1.9-1-.1c-.5 0-1 .3-1 .9L1 33.7c0 .5.3 1 .9 1zm36.2 17.4h-16l8-14.4 8 14.4zm10.4-35.6l8 17.1L36.8 32l11.7-15.5zm-29.3 2.4h.5c3.2.3 5.5 3.1 5.3 6.2-.3 3-2.8 5.3-5.8 5.3h-.5c-3.2-.3-5.5-3.1-5.3-6.2.3-3 2.8-5.3 5.8-5.3zm-7 9c.4.8.8 1.4 1.4 2.1l-8.4-.7.2-1.9 6.8.5zm-.3-5.8l-6-.5.2-1.9 6.8.6c-.4.5-.7 1.1-1 1.8zm5.5-9.2l1.9.2-.2 1.9-1.9-.2-9.6-.8.2-1.9 9.6.8zM5 9.9L5.2 8l11.5 1-.2 1.9L5 9.9zm-.5 5.8l11.5 1-.1 1c-.5.2-.9.5-1.3.8l-10.2-.9.1-1.9zm-.6 7.6l7.7.7c-.1.6 0 1.3.1 1.9l-7.9-.7.1-1.9zM3.2 31L57 35.7l-.2 1.9L3 32.9l.2-1.9zM18 27.4c0 .5.3 1 .9 1h.1c.5 0 .9-.4 1-.9v-.3c.2-.1.3-.2.4-.3.8-.7.9-1.9.2-2.7-.3-.4-.8-.6-1.3-.7l1 .1c.5 0 1-.3 1-.9 0-.5-.3-1-.9-1 0-.5-.3-1-.9-1-.5 0-1 .3-1 .9v.3c-1 .4-1.4 1.6-.9 2.6.3.6.9 1 1.6 1.1l-1-.1c-.5 0-1 .3-1 .9-.1.5.3 1 .8 1zm29.5-5.1c-.5 0-1 .3-1 .9l-.4 3.8c0 .5.3 1 .9 1h.1c.5 0 .9-.4 1-.9l.3-3.8c0-.5-.4-1-.9-1zm-.7 7.7c-.5 0-1 .3-1 .9 0 .5.3 1 .9 1 .5 0 1-.3 1-.9.1-.5-.3-1-.9-1z"/></svg><svg version="1.1" id="icon_security" x="0" y="0" xml:space="preserve" viewBox="0 0 74 84" xmlns="http://www.w3.org/2000/svg"><style>.atst0{fill:#e0e0f5}.atst1{fill:#fff}.atst2{fill:#57b3fe}.atst3{fill:#f34b58}.atst4{fill:#a3d14a}.atst5{fill:#1d2943}</style><path class="atst0" d="M31.7 81.8L2.2 52.3c-2.9-2.9-2.9-7.6 0-10.5l29.5-29.5c2.9-2.9 7.6-2.9 10.5 0l29.5 29.5c2.9 2.9 2.9 7.6 0 10.5L42.3 81.8c-2.9 2.9-7.7 2.9-10.6 0z"/><path class="atst1" d="M31.7 71.8L2.2 42.3c-2.9-2.9-2.9-7.6 0-10.5L31.7 2.2c2.9-2.9 7.6-2.9 10.5 0l29.5 29.5c2.9 2.9 2.9 7.6 0 10.5L42.3 71.8c-2.9 2.9-7.7 2.9-10.6 0z"/><path class="atst2" d="M56.9 36.1h-4.5c0-1.3-.3-2.5-.6-3.7h1.3c1.3 0 2.3-1 2.3-2.3v-1.9c0-.3-.2-.6-.6-.6s-.6.2-.6.6v1.9c0 .7-.5 1.2-1.2 1.2h-1.7c-1.5-4-4.7-7.3-8.8-8.8v-1.7c0-.7.5-1.2 1.2-1.2h1.9c.3 0 .6-.2.6-.6 0-.3-.2-.6-.6-.6h-1.9c-1.3 0-2.3 1-2.3 2.3V22c-1.2-.3-2.4-.6-3.7-.6v-4c.9-.2 1.5-1 1.5-2 0-1.1-.9-2-2-2s-2 .9-2 2c0 .9.6 1.7 1.5 2v4c-1.3 0-2.5.2-3.7.6v-1.3c0-1.3-1-2.3-2.3-2.3h-1.9c-.3 0-.6.2-.6.6 0 .3.2.6.6.6h1.9c.7 0 1.2.5 1.2 1.2v1.7c-4 1.5-7.3 4.8-8.8 8.8h-1.7c-.7 0-1.2-.5-1.2-1.2v-1.9c0-.3-.2-.6-.6-.6-.3 0-.6.2-.6.6v1.9c0 1.3 1 2.3 2.3 2.3h1.3c-.4 1.2-.6 2.4-.6 3.7h-4.5c-.3 0-.6.2-.6.6 0 .3.2.6.6.6H22c0 1.3.2 2.5.6 3.7h-1.3C20 41 19 42 19 43.3v1.4c-.9.2-1.5 1-1.5 2 0 1.1.9 2 2 2s2-.9 2-2c0-.9-.6-1.7-1.5-2v-1.4c0-.7.5-1.2 1.2-1.2h1.7c1.5 4 4.8 7.3 8.8 8.8v1.7c0 .7-.5 1.2-1.2 1.2h-1.9c-.3 0-.6.3-.6.6s.2.6.6.6h1.9c1.3 0 2.3-1 2.3-2.3v-1.3c1.2.4 2.4.6 3.7.6v4c-.9.2-1.5 1-1.5 2 0 1.1.9 2 2 2s2-.9 2-2c0-.9-.6-1.7-1.5-2v-4c1.3 0 2.5-.2 3.7-.6v1.3c0 1.3 1 2.3 2.3 2.3h.7c.3 0 .6-.2.6-.6s-.3-.6-.6-.6h-.7c-.7 0-1.2-.5-1.2-1.2v-1.7l1.5-.6c.3-.2.4-.6.2-.9l7-9.1c.3.2.7 0 .8-.4.2-.9.3-1.8.3-2.7h4.5c.3 0 .6-.3.6-.6.3-.2 0-.5-.3-.5z"/><path class="atst3" d="M27.3 21.1c-1.1 0-2-.9-2-2s.9-2 2-2 2 .9 2 2-.9 2-2 2z"/><path class="atst4" d="M47.2 21.1c-1.1 0-2-.9-2-2s.9-2 2-2 2 .9 2 2-.8 2-2 2z"/><path class="atst3" d="M54.9 28.7c-1.1 0-2-.9-2-2s.9-2 2-2 2 .9 2 2-.9 2-2 2z"/><path class="atst4" d="M58.4 38.7c-1.1 0-2-.9-2-2s.9-2 2-2 2 .9 2 2-.9 2-2 2z"/><path class="atst3" d="M27.3 56.3c-1.1 0-2-.9-2-2s.9-2 2-2 2 .9 2 2-.9 2-2 2zM19.6 28.7c-1.1 0-2-.9-2-2s.9-2 2-2 2 .9 2 2-.8 2-2 2z"/><path class="atst4" d="M16.1 38.7c-1.1 0-2-.9-2-2s.9-2 2-2 2 .9 2 2-.9 2-2 2z"/><path class="atst5" d="M43.6 33.5v-1c0-3.4-2.6-6.2-5.8-6.2h-1.1c-3.2 0-5.8 2.8-5.8 6.2v.9c-.8.2-1.3 1-1.3 1.8v5.3c0 3.5 2.9 6.4 6.4 6.4h2.6c3.5 0 6.4-2.9 6.4-6.4v-5.3c0-.7-.6-1.4-1.4-1.7zM32 33.4v-.9c0-2.8 2.1-5.1 4.7-5.1h1.1c2.6 0 4.7 2.3 4.7 5.1v.9H32z"/><path class="atst1" d="M39.5 39.2c0-1.2-1-2.2-2.2-2.2-1.2 0-2.2 1-2.2 2.2 0 1 .7 1.9 1.7 2.1V43c0 .3.3.6.6.6s.6-.2.6-.6v-1.7c.8-.3 1.5-1.1 1.5-2.1z"/><path class="atst5" d="M51.6 60.9h-.2c-2.2-.6-4.2-2-5.7-3.8-1.5-1.8-2.4-3.9-2.4-6v-6.7c0-.2.1-.4.4-.5 2.4-1 5.7-2.8 7.5-4.5.2-.2.6-.2.8 0 1.9 1.7 5.1 3.5 7.5 4.5.2.1.4.3.4.5v6.7c0 4.4-3.9 8.5-8.1 9.8h-.2z"/><path class="atst4" d="M51.6 58.3h-.2c-3.1-1-5.9-4-5.9-7.3v-5c0-.2.1-.4.3-.5 1.3-.6 3.6-1.7 5.4-3.2.2-.2.5-.2.7 0 1.8 1.4 4.1 2.6 5.4 3.2.2.1.3.3.3.5v5c0 3.3-2.8 6.2-5.9 7.3 0-.1-.1 0-.1 0z"/><path class="atst1" d="M49.6 53c-.2 0-.5-.2-.6-.4l-.8-2.4c-.1-.3.1-.6.4-.7.3-.1.6.1.7.4l.5 1.6 4.3-3.4c.3-.2.6-.2.8.1.2.3.2.6-.1.8l-4.9 3.9c-.1.1-.2.1-.3.1z"/></svg><svg version="1.1" id="icon_share" x="0" y="0" xml:space="preserve" viewBox="0 0 30 30" xmlns="http://www.w3.org/2000/svg"><style>.aust0{fill:#fff}</style><path class="aust0" d="M21.5 15c-1.9 0-3.7.9-4.9 2.2l-4.1-2.5c.2-.6.3-1.2.3-1.8 0-.4-.1-.8-.2-1.2l5.5-2.5c.8 1 2 1.6 3.3 1.6 2.4 0 4.3-1.9 4.3-4.3S23.9 2 21.5 2c-2.4 0-4.3 1.9-4.3 4.3 0 .3 0 .5.1.8l-5.5 2.5c-1-1.3-2.6-2.2-4.3-2.2-3 0-5.4 2.4-5.4 5.4s2.4 5.4 5.4 5.4c1.6 0 3-.7 3.9-1.7l4.1 2.5c-.3.8-.5 1.6-.5 2.4 0 3.6 2.9 6.5 6.5 6.5S28 25 28 21.4 25.1 15 21.5 15z"/></svg><svg version="1.1" id="icon_skype" x="0" y="0" xml:space="preserve" viewBox="0 0 46 46" xmlns="http://www.w3.org/2000/svg"><style>.avst0{fill:#333}</style><path class="avst0" d="M41.8 27.2c.3-1.3.4-2.7.4-4 0-10.4-8.5-18.8-19.1-18.8-1.1 0-2.2.1-3.3.3C18.2 3.6 16.2 3 14.1 3 8 3 3 7.9 3 13.9c0 2 .6 3.9 1.5 5.5-.3 1.2-.4 2.5-.4 3.8C4.1 33.6 12.7 42 23.2 42c1.2 0 2.4-.1 3.5-.3 1.6.8 3.3 1.3 5.2 1.3C38 43 43 38.1 43 32.1c0-1.7-.4-3.4-1.2-4.9zm-8.8 5c-.9 1.2-2.2 2.2-3.9 2.9-1.7.7-3.7 1-6 1-2.7 0-5-.5-6.8-1.4C15 34 14 33.1 13.2 32c-.8-1.1-1.2-2.3-1.2-3.4 0-.7.3-1.3.8-1.8s1.2-.7 2-.7c.7 0 1.2.2 1.7.6.4.4.8.9 1.1 1.6.3.8.7 1.4 1.1 1.9.4.5.9.9 1.6 1.2.7.3 1.6.5 2.8.5 1.6 0 2.9-.3 3.8-1 1-.6 1.4-1.4 1.4-2.3 0-.7-.2-1.3-.7-1.8-.5-.5-1.2-.9-2-1.1-.9-.3-2-.6-3.5-.9-2-.4-3.7-.9-5-1.5-1.4-.6-2.5-1.4-3.3-2.4-.8-1-1.2-2.3-1.2-3.8 0-1.4.4-2.7 1.3-3.8.9-1.1 2.1-2 3.7-2.5 1.6-.6 3.5-.9 5.6-.9 1.7 0 3.2.2 4.5.6 1.3.4 2.3.9 3.1 1.5.8.6 1.5 1.3 1.9 2.1.4.7.6 1.4.6 2.1 0 .7-.3 1.3-.8 1.8s-1.2.8-2 .8c-.7 0-1.3-.2-1.6-.5-.4-.3-.7-.8-1.1-1.5-.5-.9-1.1-1.6-1.7-2.1-.6-.5-1.7-.7-3.2-.7-1.4 0-2.5.3-3.3.8-.8.5-1.2 1.1-1.2 1.8 0 .4.1.8.4 1.1.3.3.7.6 1.1.9l1.5.6c.5.1 1.4.4 2.6.6 1.5.3 3 .7 4.2 1.1 1.3.4 2.4.9 3.3 1.5.9.6 1.6 1.3 2.2 2.2.5.9.8 2 .8 3.3-.2 1.6-.6 3.1-1.5 4.3z"/></svg><svg version="1.1" id="icon_slot" x="0" y="0" xml:space="preserve" viewBox="0 0 74 84" xmlns="http://www.w3.org/2000/svg"><style>.awst0{fill:#e0e0f5}.awst1{fill:#fff}.awst2{fill:#f34b58}.awst3{fill:#e1e6ea}.awst4{fill:#1d2943}.awst5{fill:#f6c505}</style><path class="awst0" d="M31.7 81.8L2.2 52.3c-2.9-2.9-2.9-7.6 0-10.5l29.5-29.5c2.9-2.9 7.6-2.9 10.5 0l29.5 29.5c2.9 2.9 2.9 7.6 0 10.5L42.3 81.8c-2.9 2.9-7.7 2.9-10.6 0z"/><path class="awst1" d="M31.7 71.8L2.2 42.3c-2.9-2.9-2.9-7.6 0-10.5L31.7 2.2c2.9-2.9 7.6-2.9 10.5 0l29.5 29.5c2.9 2.9 2.9 7.6 0 10.5L42.3 71.8c-2.9 2.9-7.7 2.9-10.6 0z"/><path class="awst2" d="M53.4 51.5H18.2V33.9c0-9.7 7.9-17.6 17.6-17.6s17.6 7.9 17.6 17.6v17.6z"/><path class="awst1" d="M20.9 37.3H29v10.8h-8.1V37.3z"/><path class="awst3" d="M31.7 37.3h8.1v10.8h-8.1V37.3z"/><path class="awst1" d="M42.5 37.3h8.1v10.8h-8.1V37.3z"/><path class="awst4" d="M18.2 51.5h35.1v4.1H18.2v-4.1z"/><path class="awst5" d="M35.8 19.1c-8.2 0-14.9 6.7-14.9 14.9v.7h29.7V34c.1-8.3-6.6-14.9-14.8-14.9z"/><path class="awst1" d="M35.8 22.4l-.7 2.7-2.7.7 2.7.7.7 2.7.7-2.7 2.7-.7-2.7-.7-.7-2.7zm-8.1 5.4l.7-1.4.7 1.4 1.4.7-1.5.7-.7 1.4-.7-1.4-1.4-.7 1.5-.7zm14.2 0l.7-1.4.7 1.4 1.4.7-1.4.7-.7 1.4-.7-1.4-1.4-.7 1.4-.7z"/><path class="awst4" d="M24.3 46.1c-.4 0-.7-.3-.7-.7v-.7c0-1.3.9-2.3 2-2.6v-1.4h-2c-.4 0-.7-.3-.7-.7s.3-.7.7-.7h2.7c.4 0 .7.3.7.7v2.7c0 .4-.3.7-.7.7-.7 0-1.4.6-1.4 1.4v.7c.1.3-.2.6-.6.6z"/><path class="awst1" d="M31.7 40h8.1v8.1h-8.1V40z"/><path class="awst4" d="M53.4 19.1h2.7v19.6h-2.7V19.1zM37.8 42.7v2.7c0 .4-.3.7-.7.7-.7 0-1.4.6-1.4 1.4v.7h-1.4v-.7c0-1.3.9-2.3 2-2.6v-1.4h-2c-.4 0-.7-.3-.7-.7 0-.4.3-.7.7-.7H37c.5-.1.8.2.8.6zm8.1 3.4c-.4 0-.7-.3-.7-.7v-.7c0-1.3.9-2.3 2-2.6v-1.4h-2c-.4 0-.7-.3-.7-.7s.3-.7.7-.7H48c.4 0 .7.3.7.7v2.7c0 .4-.3.7-.7.7-.7 0-1.4.6-1.4 1.4v.7c0 .3-.3.6-.7.6z"/><path class="awst2" d="M53.4 38.6h4.1v9.5h-4.1v-9.5z"/><circle class="awst2" cx="54.7" cy="19.1" r="2.7"/></svg><svg version="1.1" id="icon_soft" x="0" y="0" xml:space="preserve" viewBox="0 0 74 84" xmlns="http://www.w3.org/2000/svg"><style>.axst0{fill:#e0e0f5}.axst1{fill:#fff}.axst2{fill:#57b3fe}.axst3{fill:#1d2943}.axst4{fill:#f34b58}</style><path class="axst0" d="M31.7 81.8L2.2 52.3c-2.9-2.9-2.9-7.6 0-10.5l29.5-29.5c2.9-2.9 7.6-2.9 10.5 0l29.5 29.5c2.9 2.9 2.9 7.6 0 10.5L42.3 81.8c-2.9 2.9-7.7 2.9-10.6 0z"/><path class="axst1" d="M31.7 71.8L2.2 42.3c-2.9-2.9-2.9-7.6 0-10.5L31.7 2.2c2.9-2.9 7.6-2.9 10.5 0l29.5 29.5c2.9 2.9 2.9 7.6 0 10.5L42.3 71.8c-2.9 2.9-7.7 2.9-10.6 0z"/><path class="axst0" d="M57.1 55.4H16.9c-1 0-1.9-.8-1.9-1.9V18.4c0-1 .8-1.9 1.9-1.9h40.2c1 0 1.9.8 1.9 1.9v35.1c0 1.1-.9 1.9-1.9 1.9z"/><path class="axst2" d="M57.1 16.6H16.9c-1 0-1.9.8-1.9 1.9v6.1h44v-6.1c0-1.1-.9-1.9-1.9-1.9z"/><circle class="axst1" cx="53.1" cy="20.5" r="1.6"/><circle class="axst1" cx="46.6" cy="20.5" r="1.6"/><path class="axst1" d="M41.3 21.2H19.2c-.4 0-.7-.3-.7-.7 0-.4.3-.7.7-.7h22.1c.4 0 .7.3.7.7 0 .4-.3.7-.7.7z"/><path class="axst3" d="M35.9 38.4h-.5c-.3 0-.5-.2-.5-.4-.2-.7-.5-1.4-.8-2-.1-.2-.1-.5.1-.7l.3-.3c.2-.2.2-.6 0-.8l-1.1-1.1c-.2-.2-.6-.2-.8 0l-.3.3c-.2.2-.5.2-.7.1-.6-.4-1.3-.7-2-.8-.2-.1-.4-.3-.4-.5v-.5c0-.3-.2-.5-.5-.5h-1.6c-.3 0-.5.2-.5.5v.5c0 .3-.2.5-.4.5-.7.2-1.4.5-2 .8-.2.1-.5.1-.7-.1l-.3-.3c-.2-.2-.6-.2-.8 0L21 34.2c-.2.2-.2.6 0 .8l.3.3c.2.2.2.5.1.7-.4.6-.7 1.3-.8 2-.1.2-.3.4-.5.4h-.5c-.3 0-.5.2-.5.5v1.6c0 .3.2.5.5.5h.4c.3 0 .5.2.5.4.2.7.5 1.4.8 2 .1.2.1.5-.1.7l-.2.5c-.2.2-.2.6 0 .8l1.1 1.1c.2.2.6.2.8 0l.3-.3c.2-.2.5-.2.7-.1.6.4 1.3.7 2 .8.2.1.4.3.4.5v.6c0 .3.2.5.5.5h1.6c.3 0 .5-.2.5-.5v-.5c0-.3.2-.5.4-.5.7-.2 1.4-.5 2-.8.2-.1.5-.1.7.1l.3.3c.2.2.6.2.8 0l1.1-1.1c.2-.2.2-.6 0-.8l-.3-.3c-.2-.2-.2-.5-.1-.7.4-.6.7-1.3.8-2 .1-.2.3-.4.5-.4h.5c.3 0 .5-.2.5-.5V39c.3-.3.1-.6-.2-.6zM27.7 44c-2.3 0-4.2-1.9-4.2-4.2s1.9-4.2 4.2-4.2 4.2 1.9 4.2 4.2c0 2.3-1.9 4.2-4.2 4.2zM55 33.7H41c-.4 0-.7-.3-.7-.7 0-.4.3-.7.7-.7h14c.4 0 .7.3.7.7 0 .4-.3.7-.7.7zm0 6.8H41c-.4 0-.7-.3-.7-.7 0-.4.3-.7.7-.7h14c.4 0 .7.3.7.7 0 .4-.3.7-.7.7zm0 6.8H41c-.4 0-.7-.3-.7-.7 0-.4.3-.7.7-.7h14c.4 0 .7.3.7.7 0 .4-.3.7-.7.7z"/><path class="axst4" d="M44.1 34.9c-.7 0-1.3-.6-1.3-1.3v-1.3c0-.7.6-1.3 1.3-1.3.7 0 1.3.6 1.3 1.3v1.3c0 .7-.5 1.3-1.3 1.3zm7.7 6.8c-.7 0-1.3-.6-1.3-1.3v-1.3c0-.7.6-1.3 1.3-1.3.7 0 1.3.6 1.3 1.3v1.3c0 .8-.5 1.3-1.3 1.3zm-7.7 6.8c-.7 0-1.3-.6-1.3-1.3V46c0-.7.6-1.3 1.3-1.3.7 0 1.3.6 1.3 1.3v1.3c0 .6-.5 1.2-1.3 1.2z"/></svg><svg version="1.1" id="icon_sql" x="0" y="0" xml:space="preserve" viewBox="0 0 74 84" xmlns="http://www.w3.org/2000/svg"><style>.ayst0{fill:#e0e0f5}.ayst1{fill:#fff}.ayst2{fill:#1d2943}.ayst3{fill:#f34b58}.ayst4{fill:#f6c505}</style><path class="ayst0" d="M31.7 81.8L2.2 52.3c-2.9-2.9-2.9-7.6 0-10.5l29.5-29.5c2.9-2.9 7.6-2.9 10.5 0l29.5 29.5c2.9 2.9 2.9 7.6 0 10.5L42.3 81.8c-2.9 2.9-7.7 2.9-10.6 0z"/><path class="ayst1" d="M31.7 71.8L2.2 42.3c-2.9-2.9-2.9-7.6 0-10.5L31.7 2.2c2.9-2.9 7.6-2.9 10.5 0l29.5 29.5c2.9 2.9 2.9 7.6 0 10.5L42.3 71.8c-2.9 2.9-7.7 2.9-10.6 0z"/><path class="ayst2" d="M42.2 37.9c.4 0 .8-.4.8-.8s-.4-.8-.8-.8h-4v-13c0-.4.4-.8.8-.8h3.2c.4 0 .8-.4.8-.8s-.4-.8-.8-.8H39c-1.3 0-2.4 1.1-2.4 2.4v12.9h-4c-.4 0-.8.4-.8.8s.4.8.8.8h4v12.9c0 1.3 1.1 2.4 2.4 2.4h3.2c.4 0 .8-.4.8-.8s-.4-.8-.8-.8H39c-.4 0-.8-.4-.8-.8V37.9h4z"/><path class="ayst3" d="M13.1 27.4v19.4c0 1.8 4.3 3.2 9.7 3.2s9.7-1.4 9.7-3.2V27.4H13.1z"/><path class="ayst2" d="M13.1 40.3c0 1.8 4.3 3.2 9.7 3.2s9.7-1.4 9.7-3.2v-6.5c0 1.8-4.3 3.2-9.7 3.2s-9.7-1.4-9.7-3.2v6.5z"/><circle class="ayst1" cx="16.3" cy="33" r=".8"/><circle class="ayst1" cx="16.3" cy="39.5" r=".8"/><circle class="ayst1" cx="16.3" cy="45.9" r=".8"/><ellipse class="ayst2" cx="22.8" cy="26.9" rx="9.7" ry="3.6"/><path class="ayst4" d="M60 18.5V25c0 .9-.7 1.6-1.6 1.6H43.8c-.9 0-1.6-.7-1.6-1.6v-9.7c0-.9.7-1.6 1.6-1.6h4.8c.9 0 1.6.7 1.6 1.6s.7 1.6 1.6 1.6h6.5c.9-.1 1.7.7 1.7 1.6zm0 16.9v6.5c0 .9-.7 1.6-1.6 1.6H43.8c-.9 0-1.6-.7-1.6-1.6v-9.7c0-.9.7-1.6 1.6-1.6h4.8c.9 0 1.6.7 1.6 1.6s.7 1.6 1.6 1.6h6.5c.9 0 1.7.7 1.7 1.6zm0 17v6.5c0 .9-.7 1.6-1.6 1.6H43.8c-.9 0-1.6-.7-1.6-1.6v-9.7c0-.9.7-1.6 1.6-1.6h4.8c.9 0 1.6.7 1.6 1.6s.7 1.6 1.6 1.6h6.5c.9 0 1.7.7 1.7 1.6z"/></svg><svg version="1.1" id="icon_support" x="0" y="0" xml:space="preserve" viewBox="0 0 60 60" xmlns="http://www.w3.org/2000/svg"><style>.azst0{fill:#336}</style><path class="azst0" d="M34.1 32.4l-11-4v-2c1.4-1.3 2.6-3.3 3.4-5.7.6-.8 3.2-4.9 2.3-8.1-.4-1.4-1.4-2.5-3-3.1-1.2-2.6-3.4-4-6.2-4.1-4-.1-8.3 2.6-10.1 6.3-1.5 3.1-1 6.3 1.3 9.1.8 2.4 1.9 4.3 3.2 5.6v2.1l-11 4c-.7.3-1.2 1-1.2 1.9v9.3c0 1.5 1.2 2.7 2.7 2.7h27.9c1.5 0 2.7-1.2 2.7-2.7v-9.3c.1-1-.3-1.7-1-2zm-.6 1.9v5.1h-3.3v-3.7c0-.5-.4-.9-.9-.9s-.9.4-.9.9v8.9h-9V33.2c1.9-.2 3.1-1.3 3.5-2.9l10.5 3.8c.1 0 .1.1.1.2zM11.1 12.4c1.5-3 5.1-5.3 8.3-5.3h.2c1.6 0 3.7.7 4.8 3.4.1.2.3.4.5.5 1.2.4 1.9 1.1 2.2 2.1.3 1.2 0 2.6-.5 3.9-.6-3.5-2.9-4.4-3-4.5-3.5-1.4-6.5-1.4-8.7 0-2.2 1.4-3.2 3.8-3.7 5.5-1.2-2.2-.8-4.2-.1-5.6zm1.4 7.8c.1-.8.6-4.6 3.2-6.3 1.8-1.1 4.2-1.1 7.2.1 0 0 2.6 1.1 1.9 6-.8 2.3-1.8 4.1-3.1 5.2-.1 0-.1.1-.1.1-.9.7-1.9 1.1-2.9 1.1-1.1 0-2.1-.4-3.1-1.3l-.1-.1c-1.3-.8-2.3-2.6-3-4.8zm6.1 8.2c.9 0 1.8-.2 2.7-.7V29c0 1.6-.9 2.4-2.8 2.4s-2.8-.8-2.8-2.4V27.6c1 .5 1.9.8 2.9.8zM3.7 34.1l10.5-3.8c.4 1.6 1.6 2.6 3.5 2.9v11.5h-9v-8.9c0-.5-.4-.9-.9-.9s-.9.4-.9.9v3.7H3.6v-5.1c0-.2 0-.3.1-.3zm-.1 9.5v-2.4H7v3.4H4.6c-.5 0-1-.4-1-1zm28.9 1h-2.4v-3.4h3.3v2.4c.1.6-.4 1-.9 1zM32.4 29h22.7c1.6 0 3-1.3 3-2.9 0-.8-.3-1.5-.8-2 .6-.5.9-1.3.9-2.2 0-.8-.4-1.5-.9-2 .5-.5.8-1.2.8-2s-.3-1.5-.8-2c.5-.5.8-1.2.8-1.9 0-1.5-1.2-2.7-2.7-2.7h-4.5c0-.1.1-.2.2-.3 0-.1.1-.1.1-.2 1.1-2.4 1-4.7.6-6.2-.3-1.2-1-2.3-2.1-3-.8-.5-1.5-.7-2.2-.3-.7.3-1.1 1.2-1.2 2.5-.1 1.4-.4 2.8-1 4.1-2.4 5.5-5.9 5.3-6.1 5.3h-6.8c-.5 0-.9.4-.9.9v14.2c.1.3.5.7.9.7zM46.9 8.4c.6-1.5 1-3.1 1.1-4.7 0-.6.2-.9.2-1 .1 0 .3.1.4.2.7.5 1.2 1.2 1.3 2 .3 1.2.4 3.1-.5 5v.1c-.6 1.1-.6 2 0 2.6.2.1.4.2.6.2h5.2c.5 0 1 .4 1 1 0 .5-.4 1-1 1H50c-.5 0-.9.4-.9.9s.4.9.9.9h5c.7 0 1.2.5 1.2 1.2s-.4 1.2-1 1.2h-4.8c-.5 0-.9.4-.9.9s.4.9.9.9H55.3c.7 0 1.2.6 1.2 1.2 0 .7-.6 1.2-1.2 1.2h-4.8c-.5 0-.9.4-.9.9s.4.9.9.9h4.8c.7 0 1.2.5 1.2 1.2s-.5 1.2-1.2 1.2H40V14.7c1.6-.2 4.7-1.2 6.9-6.3zm-13.6 6.4h4.9v12.5h-4.9V14.8zm3.4 4.2v2.4c0 .5-.4.9-.9.9s-.9-.4-.9-.9V19c0-.5.4-.9.9-.9s.9.4.9.9zm-26 33.3l-2.4-.7-1.4-2c-.1-.1-.1-.2-.2-.2-.4-.3-.9-.2-1.2.2l-1.4 2-2.4.7c-.1 0-.2.1-.3.1-.4.3-.5.8-.2 1.2l1.5 2v2.8c.2.5.7.7 1.1.5l2.4-.8 2.3.9h.3c.5 0 .9-.4.9-.9v-2.5l1.5-2c.1-.1.1-.2.1-.3.1-.4-.2-.9-.6-1zM8 54.8c-.1.2-.2.3-.2.5v1.5l-1.5-.5h-.6l-1.5.5v-1.5c0-.2-.1-.4-.2-.5l-.9-1.2 1.5-.4c.4-.1.6-.2.7-.4l.9-1.2.8 1.2c.1.2.3.3.5.3l1.5.5-1 1.2zm14.6-2.5l-2.4-.7-1.4-2c-.1-.1-.1-.2-.2-.2-.4-.3-.9-.2-1.2.2l-1.4 2-2.4.7c-.1 0-.2.1-.3.1-.4.3-.5.8-.2 1.2l1.5 2v2.8c.2.5.7.7 1.1.5l2.4-.8 2.3.8h.3c.5 0 .9-.4.9-.9v-2.5l1.5-2c.1-.1.1-.2.1-.3.1-.3-.1-.8-.6-.9zM20 54.8c-.1.2-.2.3-.2.5v1.5l-1.5-.5h-.6l-1.5.5v-1.5c0-.2-.1-.4-.2-.5l-.9-1.2 1.5-.4c.2-.1.4-.2.5-.3l.9-1.2.9 1.2c.1.2.3.3.5.3l1.5.4-.9 1.2zm14.5-2.5l-2.4-.7-1.4-2c-.1-.1-.1-.2-.2-.2-.4-.3-.9-.2-1.2.2l-1.4 2-2.4.7c-.1 0-.2.1-.3.1-.4.3-.5.8-.2 1.2l1.5 2v2.5c0 .5.4.9.9.9h.3l2.4-.8 2.4.8h.3c.5 0 .9-.4.9-.9v-2.5l1.5-2c.1-.1.1-.2.1-.3 0-.4-.3-.9-.8-1zm-2.6 2.5c-.1.2-.2.3-.2.5v1.5l-1.5-.5c-.2-.1-.4-.1-.6 0l-1.5.5v-1.5c0-.2-.1-.4-.2-.5l-.9-1.2 1.5-.4c.2-.1.3-.2.5-.3l.9-1.2.9 1.2c.1.2.3.3.5.3l1.5.4-.9 1.2zm14.6-2.5l-2.4-.7-1.4-2c-.1-.1-.1-.2-.2-.2-.4-.3-.9-.2-1.2.2l-1.4 2-2.4.7c-.1 0-.2.1-.3.1-.4.3-.5.8-.2 1.2l1.5 2v2.8c.2.5.7.7 1.1.5l2.4-.8 2.4.8h.3c.5 0 .9-.4.9-.9v-2.5l1.5-2c.1-.1.1-.2.1-.3 0-.3-.3-.8-.7-.9zm-2.7 2.5c-.1.2-.2.3-.2.5v1.5l-1.5-.5h-.6l-1.5.5v-1.5c0-.2-.1-.4-.2-.5l-.9-1.2 1.5-.4c.2-.1.3-.2.5-.3l.9-1.2.9 1.2c.1.2.3.3.5.3l1.5.4-.9 1.2zm14.6-2.5l-2.4-.7-1.4-2c-.2-.2-.4-.4-.7-.4-.3 0-.6.1-.7.4l-1.4 2-2.4.7c-.1 0-.2.1-.3.1-.4.3-.5.8-.2 1.2l1.5 2v2.5c0 .5.4.9.9.9h.3l2.4-.8 2.4.8h.3c.5 0 .9-.4.9-.9v-2.5l1.5-2c.1-.1.1-.2.1-.3-.1-.4-.4-.9-.8-1zm-2.7 2.5c-.1.2-.2.3-.2.5v1.5l-1.5-.5h-.6l-1.5.5v-1.5c0-.2-.1-.4-.2-.5l-.7-1.2 1.5-.4c.2-.1.4-.2.5-.3l.9-1.2.9 1.2c.1.2.3.3.5.3l1.5.4-1.1 1.2zm-5.3-11.2c.5 0 .9.4.9.9s-.4.9-.9.9H38.9c-.5 0-.9-.4-.9-.9s.4-.9.9-.9h11.5zm8.6-3c0 .5-.4.9-.9.9H38.9c-.5 0-.9-.4-.9-.9s.4-.9.9-.9h19.2c.5 0 .9.4.9.9zm-21-4c0-.5.4-.9.9-.9h11.6c.5 0 .9.4.9.9s-.4.9-.9.9H38.9c-.5 0-.9-.4-.9-.9zm20.1-4.8c.5 0 .9.4.9.9s-.4.9-.9.9H38.9c-.5 0-.9-.4-.9-.9s.4-.9.9-.9h19.2zm.9 12.7c0 .5-.4.9-.9.9h-3.8c-.5 0-.9-.4-.9-.9s.4-.9.9-.9h3.8c.5 0 .9.4.9.9zm0-7.9c0 .5-.4.9-.9.9h-3.8c-.5 0-.9-.4-.9-.9s.4-.9.9-.9h3.8c.5.1.9.4.9.9z"/></svg><svg version="1.1" id="icon_telegram" x="0" y="0" xml:space="preserve" viewBox="0 0 46 46" xmlns="http://www.w3.org/2000/svg"><style>.bast0{fill:#333}</style><path class="bast0" d="M18.5 28.7l-.7 10.1c1 0 1.4-.4 1.9-1l4.7-4.6 9.7 7.3c1.8 1 3 .5 3.5-1.7l6.3-30.5c.6-2.7-.9-3.7-2.7-3.1L3.9 19.9c-2.5 1-2.5 2.5-.4 3.1l9.5 3 22.1-14.2c1-.7 2-.3 1.2.4L18.5 28.7z"/></svg><svg version="1.1" id="icon_tools" x="0" y="0" xml:space="preserve" viewBox="0 0 74 84" xmlns="http://www.w3.org/2000/svg"><style>.bbst0{fill:#e0e0f5}.bbst1{fill:#fff}.bbst2{fill:#ffa845}.bbst3{fill:#f6c505}.bbst4{fill:#1d2943}</style><path class="bbst0" d="M31.7 81.8L2.2 52.3c-2.9-2.9-2.9-7.6 0-10.5l29.5-29.5c2.9-2.9 7.6-2.9 10.5 0l29.5 29.5c2.9 2.9 2.9 7.6 0 10.5L42.3 81.8c-2.9 2.9-7.7 2.9-10.6 0z"/><path class="bbst1" d="M31.7 71.8L2.2 42.3c-2.9-2.9-2.9-7.6 0-10.5L31.7 2.2c2.9-2.9 7.6-2.9 10.5 0l29.5 29.5c2.9 2.9 2.9 7.6 0 10.5L42.3 71.8c-2.9 2.9-7.7 2.9-10.6 0z"/><path class="bbst2" d="M57.5 34.5L39.1 17.2c-1.2-1.1-2.9-1.1-4.1 0L16.5 34.5v9h41.1v-9z"/><path class="bbst1" d="M23.5 54V20.9c0-.8.7-1.5 1.5-1.5h24c.8 0 1.5.7 1.5 1.5V54h-27z"/><path class="bbst3" d="M16 58.5c0 1.7 1.3 3 3 3h36c1.7 0 3-1.3 3-3V35.6c0-.4-.2-.8-.5-1.1L39.1 51.7c-1.2 1.1-2.9 1.1-4.1 0l-4-3.8-14.5-13.4c-.3.3-.5.7-.5 1.1v22.9z"/><path class="bbst1" d="M53.5 58.5c.8 0 1.5-.7 1.5-1.5s-.7-1.5-1.5-1.5h-6c-.8 0-1.5.7-1.5 1.5s.7 1.5 1.5 1.5h6z"/><path class="bbst4" d="M49.2 41.8l-1.7-.3c-.2 0-.4-.2-.4-.4-.2-.6-.5-1.3-.8-1.8-.1-.2-.1-.4 0-.6l1-1.4c.2-.3.2-.7-.1-.9L44.9 34c-.3-.3-.6-.3-.9-.1l-1.4 1c-.2.1-.4.1-.6 0-.6-.3-1.2-.6-1.8-.8-.2-.1-.3-.2-.4-.4l-.4-1.7c-.1-.4-.4-.6-.7-.6h-3.3c-.4 0-.7.3-.7.6l-.3 1.7c0 .2-.2.4-.4.4-.6.2-1.3.5-1.8.8-.2.1-.4.1-.6 0l-1.4-1c-.3-.2-.7-.2-.9.1L27 36.3c-.3.3-.3.6-.1.9l1 1.4c.1.2.1.4 0 .6-.3.6-.6 1.2-.8 1.8-.1.2-.2.3-.4.4l-1.7.3c-.4.1-.6.4-.6.7v3.3c0 .4.3.7.6.7l1.7.3c.2 0 .4.2.4.4.2.6.5 1.3.8 1.8.1.2.1.4 0 .6l-1 1.4c-.2.3-.2.7.1.9l2.3 2.3c.3.3.6.3.9.1l1.4-1c.2-.1.4-.1.6 0 .6.3 1.2.6 1.8.8.2.1.3.2.4.4l.3 1.7c.1.4.4.6.7.6h3.3c.4 0 .7-.3.7-.6l.3-1.7c0-.2.2-.4.4-.4.6-.2 1.3-.5 1.8-.8.2-.1.4-.1.6 0l1.4 1c.3.2.7.2.9-.1l2.3-2.3c.3-.3.3-.6.1-.9l-1-1.4c-.1-.2-.1-.4 0-.6.3-.6.6-1.2.8-1.8.1-.2.2-.3.4-.4l1.7-.3c.4-.1.6-.4.6-.7v-3.3c.1-.2-.2-.5-.5-.6zM37 47.9c-2.1 0-3.7-1.7-3.7-3.7 0-2.1 1.7-3.7 3.7-3.7 2.1 0 3.7 1.7 3.7 3.7s-1.6 3.7-3.7 3.7z"/><path class="bbst3" d="M37 38.2c-3.3 0-6 2.7-6 6s2.7 6 6 6 6-2.7 6-6-2.7-6-6-6zm0 9c-1.7 0-3-1.3-3-3s1.3-3 3-3 3 1.3 3 3-1.3 3-3 3z"/></svg><svg version="1.1" id="icon_twitter" x="0" y="0" xml:space="preserve" viewBox="0 0 46 46" xmlns="http://www.w3.org/2000/svg"><style>.bcst0{fill:#333}</style><path class="bcst0" d="M44 10c-1.6.7-3.2 1.1-5 1.4 1.8-1.1 3.1-2.7 3.8-4.7-1.7 1-3.5 1.7-5.5 2.1C35.8 7 33.5 6 31.1 6c-4.8 0-8.6 3.9-8.6 8.6 0 .7.1 1.3.2 2-7.2-.3-13.5-3.8-17.7-9-.7 1.3-1.2 2.8-1.2 4.3 0 3 1.5 5.6 3.8 7.1-1.4 0-2.7-.4-3.9-1.1v.1c0 4.2 3 7.6 6.9 8.4-.7.2-1.5.3-2.3.3-.6 0-1.1 0-1.6-.1 1.1 3.4 4.3 5.9 8 6-2.9 2.3-6.6 3.7-10.7 3.7-.7 0-1.4 0-2.1-.1 3.8 2.5 8.3 3.8 13.2 3.8 15.8 0 24.5-13.1 24.5-24.4v-1.1c1.8-1.2 3.2-2.7 4.4-4.5z"/></svg><svg version="1.1" id="icon_viber" x="0" y="0" xml:space="preserve" viewBox="0 0 46 46" xmlns="http://www.w3.org/2000/svg"><style>.bdst0{fill:#333}</style><path class="bdst0" d="M42.6 26.5c1.3-11-.6-18-4.1-21.2-5.6-5.4-24.6-6.2-31.3.3C4.2 8.7 3.1 13.3 3 19c-.1 5.7-.3 16.4 9.6 19.3v4.4s-.1 1.8 1.1 2.2c1.3.4 1.9-.4 5.9-5.3 6.8.6 12-.8 12.6-1 1.4-.4 9.1-1.4 10.4-12.1zm-22.3 10s-4.3 5.4-5.6 6.8c-.4.5-.9.4-.9-.5v-7.4C5.5 33 6 23.9 6 19.1c.1-4.8 1-8.7 3.5-11.3 5.9-5.6 22.5-4.3 26.7-.3 5.2 4.6 3.3 17.7 3.3 18.1-1.1 8.9-7.3 9.5-8.5 9.9-.3.2-4.9 1.4-10.7 1zm2.4-27.6c-.7 0-.7 1.1 0 1.1 5.4 0 9.9 3.9 10 10.9 0 .7 1.1.7 1.1 0-.1-7.6-5-12-11.1-12zm7.2 10.8c0 .7 1.1.8 1.1 0 .1-4.2-2.5-7.6-7.2-7.9-.7-.1-.8 1.1-.1 1.1 4.1.3 6.2 3.2 6.2 6.8zm-1.2 4.7c-.9-.5-1.8-.2-2.2.3l-.8 1c-.4.5-1.2.5-1.2.5-5.5-1.5-6.9-7.2-6.9-7.2s-.1-.8.4-1.2l1-.8c.5-.4.8-1.3.3-2.3-1.3-2.4-2.2-3.3-2.7-3.9-.5-.6-1.2-.7-2-.3-1.6.9-3.3 2.7-2.7 4.4.9 1.9 2.7 7.9 8.2 12.4 2.6 2.1 6.7 4.3 8.4 4.9 1.7.6 3.4-1.2 4.3-2.9.4-.8.3-1.5-.3-2-1-1.1-2.6-2.2-3.8-2.9zm-4.3-8.5c1.7.1 2.6 1 2.7 2.9 0 .7 1.1.7 1.1-.1-.1-2.5-1.4-3.8-3.7-4-.7 0-.8 1.1-.1 1.2z"/></svg><svg version="1.1" id="icon_whatsapp" x="0" y="0" xml:space="preserve" viewBox="0 0 46 46" xmlns="http://www.w3.org/2000/svg"><style>.best0{fill:#333}</style><path class="best0" d="M37.9 8.1C33.9 4.2 28.7 2 23.1 2 11.6 2 2.2 11.3 2.2 22.8c0 3.7 1 7.2 2.8 10.4L2 44l11.1-2.9c3.1 1.7 6.5 2.5 10 2.5 11.5 0 20.9-9.3 20.9-20.8 0-5.5-2.2-10.8-6.1-14.7zm-14.8 32c-3.1 0-6.2-.8-8.9-2.4l-.6-.4L7 39.1l1.8-6.4-.4-.7c-1.7-2.8-2.7-5.9-2.7-9.2 0-9.5 7.8-17.3 17.4-17.3 4.6 0 9 1.8 12.3 5.1 3.3 3.3 5.1 7.6 5.1 12.2 0 9.6-7.8 17.3-17.4 17.3zm9.5-12.9c-.5-.3-3.1-1.5-3.6-1.7-.5-.2-.8-.3-1.2.3-.3.5-1.3 1.7-1.7 2-.3.3-.6.4-1.1.1-.5-.3-2.2-.8-4.2-2.6-1.6-1.4-2.6-3.1-2.9-3.6-.3-.5 0-.8.2-1.1.6-.7 1.1-1.4 1.3-1.8.2-.3.1-.7 0-.9-.1-.3-1.2-2.8-1.6-3.9-.4-1-.9-.9-1.2-.9h-1c-.3 0-.9.1-1.4.7-.5.5-1.8 1.8-1.8 4.3s1.9 5 2.1 5.4c.3.3 3.7 5.6 8.9 7.9 1.2.5 2.2.9 3 1.1 1.3.4 2.4.3 3.3.2 1-.1 3.1-1.3 3.5-2.5.4-1.2.4-2.3.3-2.5 0-.1-.4-.3-.9-.5z"/></svg><svg version="1.1" id="icon_youtube" x="0" y="0" xml:space="preserve" viewBox="0 0 46 46" xmlns="http://www.w3.org/2000/svg"><style>.bfst0{fill:#333}</style><path class="bfst0" d="M23 39c-1.3 0-13.1-.1-16.4-1-2.3-.6-4.2-2.5-4.8-4.8C.9 29.9 1 23.5 1 23s-.1-6.9.8-10.2c.6-2.3 2.5-4.2 4.8-4.8 3.3-.9 15-1 16.4-1 1.3 0 13.1.1 16.4 1 2.3.6 4.2 2.5 4.8 4.8.9 3.3.8 9.7.8 10.3 0 .5.1 6.8-.8 10.1-.6 2.3-2.5 4.2-4.8 4.8-3.3.9-15.1 1-16.4 1zM5.1 13.7c-.7 3-.7 9.3-.7 9.3 0 1.7.1 6.8.7 9.2.3 1.1 1.2 2.1 2.4 2.4 2.5.7 12 .9 15.5.9s13.1-.2 15.5-.9c1.1-.3 2-1.2 2.4-2.4.6-2.4.7-7.5.7-9.2v-.1c0-1.8 0-6.9-.7-9.3-.3-1.2-1.2-2.1-2.4-2.4-2.4-.7-12-.9-15.5-.9s-13.1.2-15.5.9c-1.1.4-2.1 1.4-2.4 2.5zm37.4 19zM18.6 30V16l12 7-12 7z"/></svg></svg>