<!-- Generated by IcoMoon.io -->
<svg version="1.1" xmlns="http://www.w3.org/2000/svg" width="40" height="40" viewBox="0 0 40 40">
<title>Amanet</title>
<path fill="#000" opacity="0.6" d="M40 20c0 11.046-8.954 20-20 20s-20-8.954-20-20c0-11.046 8.954-20 20-20s20 8.954 20 20z"></path>
<path fill="#09f" d="M15.233 22.889h8.089l1.452 3.409c0 0 1.868 4.893 6.331 4.893s6.228-5.101 6.228-11.243-4.152-17.281-17.022-17.281-17.645 10.306-17.645 17.385 5.293 17.281 16.192 17.281c9.756 0 13.804-4.789 13.804-4.789s-2.18 0.416-4.359-0.312c0 0-2.699 3.019-9.549 3.019-8.719 0-14.842-7.495-14.842-15.303 0-8.537 5.19-16.657 16.399-16.657s15.257 9.89 15.257 16.553-3.737 12.597-7.992 5.309l-7.071-18.948h-0.722l-7.464 20.717c0 0-1.027 3.188-2.792 3.188v0.65h6.139v-0.65c-3.114 0-1.79-3.084-1.79-3.084l1.357-4.138zM19.273 11.359l3.543 9.941h-7.078l3.535-9.941z"></path>
</svg>
