<!-- Generated by IcoMoon.io -->
<svg version="1.1" xmlns="http://www.w3.org/2000/svg" width="40" height="40" viewBox="0 0 40 40">
<title>SideCity</title>
<path fill="#000" opacity="0.6" d="M40 20c0 11.046-8.954 20-20 20s-20-8.954-20-20c0-11.046 8.954-20 20-20s20 8.954 20 20z"></path>
<path fill="#f90" d="M24.361 29.937c0-2.243-2.863-4.084-5.611-5.435-4.914-2.416-5.78-5.435-5.78-5.435s-1.889 5.437 0.443 9.662c3.19 5.78 8.72 1.639 8.72 1.639v2.502c0-0.001 2.228-0.69 2.228-2.933z"></path>
<path fill="#f90" d="M29.067 24.502v-20.102h-16.667v9.404l1.048-0.69c0 0 2.752-6.384 13.886-3.020 0 1.984 0 4.055 0 4.055s-1.133-1.294-5.2-1.294v2.502c0 0-2.944-2.502-4.322-0.69-0.703 0.923-0.61 2.416 0.251 3.537s3.96 2.416 7.062 4.572c2.14 1.488 3.962 3.623 3.962 6.557 0 1.898-1.035 6.125-5.528 7.334 5.269-0.605 7.112-4.832 7.112-7.679s-1.603-4.486-1.603-4.486z"></path>
<path fill="#09f" d="M12.794 14.839c0 0-5.949 5.349-2.242 14.321 1.636 3.959 7.76 5.953 10.346 2.933-0.862 0.259-5.863 2.588-8.794-3.537-2.815-5.881 0.517-11.302 0.517-11.302l0.172-2.416z"></path>
<path fill="#eee" d="M15.859 15.867c0-3.533 4.866-5.667 9.931-3.933-3.533-2.8-11.731-1.867-11.731 4.333 0 7.933 11.664 7.6 11.664 13.4 0 5.533-7.465 5.867-11.998 4.667 1.6 1.6 13.997 4.133 13.997-5.067 0-7.4-11.864-6.667-11.864-13.4z"></path>
</svg>
