<!-- Generated by IcoMoon.io -->
<svg version="1.1" xmlns="http://www.w3.org/2000/svg" width="40" height="40" viewBox="0 0 40 40">
<title>Spinomenal</title>
<path fill="#000" opacity="0.6" d="M40 20c0 11.046-8.954 20-20 20s-20-8.954-20-20c0-11.046 8.954-20 20-20s20 8.954 20 20z"></path>
<path fill="#09f" d="M28.257 16.133h-13.124v-1.667h11.944c2.359 0 5.056 1.84 5.056 1.84 0-2.526-7.078-9.107-11.459-9.107h-12.807v12.8c0 0 0 3.867 3.876 3.867h13.124v1.667h-11.944c-2.359 0-5.056-1.84-5.056-1.84 0 2.526 7.078 9.107 11.459 9.107h12.807v-12.8c0 0 0-3.867-3.876-3.867z"></path>
</svg>
