<?xml version="1.0" encoding="utf-8"?>
<!-- Generator: Adobe Illustrator 17.0.0, SVG Export Plug-In . SVG Version: 6.00 Build 0)  -->
<!DOCTYPE svg PUBLIC "-//W3C//DTD SVG 1.1//EN" "http://www.w3.org/Graphics/SVG/1.1/DTD/svg11.dtd">
<svg version="1.1" id="Layer_1" xmlns="http://www.w3.org/2000/svg" xmlns:xlink="http://www.w3.org/1999/xlink" x="0px" y="0px"
	 width="180px" height="70px" viewBox="0 0 180 70" enable-background="new 0 0 180 70" xml:space="preserve">
<g id="BetSoft">
	<polygon id="Path_76_" fill="#333333" points="38.011,14 34.051,30.71 29.299,25.789 25,43.586 32.128,38.665 28.055,56 
		145.383,56 155,14 	"/>
	<path id="Path_109_" fill="#EEEEEE" d="M79.365,16.175L75.122,34.03h3.789l-0.453,1.488h-3.675l-4.299,18.141h72.467l8.768-37.484
		H79.365z M140.744,51.312h-51.14l3.862-15.795h-3.634l0.396-1.488h3.602l3.75-15.337h51.084L140.744,51.312z"/>
	<polygon id="Path_110_" fill="#EEEEEE" points="71.804,35.517 72.2,34.03 74.16,34.03 78.46,16.175 59.678,16.175 55.492,34.03 
		57.848,34.03 57.395,35.517 55.096,35.517 50.796,53.658 69.465,53.658 73.821,35.517 	"/>
	<polygon id="Path_111_" fill="#EEEEEE" points="52.061,35.517 51.501,34.52 52.287,34.03 54.417,34.03 58.716,16.175 
		39.935,16.175 35.635,34.03 38.369,34.03 37.973,35.517 35.239,35.517 30.883,53.658 49.665,53.658 54.021,35.517 	"/>
	<path id="Path_112_" fill="#FFFF00" d="M27.546,39.981l2.602-10.53l4.809,5.093L27.546,39.981z M94.017,34.888l4.695,5.494
		l2.772-11.102L94.017,34.888z M111.101,43.873c0,0-1.418,5.494,3.225,5.494c4.642,0,6.11-5.494,6.11-5.494l4.299-17.569
		c0,0,1.579-5.723-3.451-5.723c-4.29,0-5.601,5.208-5.601,5.208L111.101,43.873z M117.154,44.502c0,0-0.42,1.717-2.206,1.717
		c-1.191,0-0.849-1.717-0.849-1.717l4.639-18.885c0,0,0.64-1.831,2.037-1.831c1.397,0,1.018,1.66,1.018,1.66L117.154,44.502z
		 M135.909,20.638h-8.233l-7.128,28.785h3.225l3.168-12.762h4.865l0.792-3.205h-4.865l2.263-9.671h5.091L135.909,20.638z
		 M142.328,23.729h2.772c0,0,0.735-3.033,0.792-3.09h-8.995l-0.849,3.09h3.168l-6.336,25.581h3.168L142.328,23.729z M103.25,44.886
		l0.554-2.445h-3.225L99.9,45.189c0,0-0.629,4.349,3.507,4.349c4.525,0,5.77-4.349,5.77-4.349l1.531-6.46
		c0,0,0.46-2.928-2.291-5.088c-2.168-1.703-1.333-4.417-1.333-4.417l1.189-4.244c0,0,0.208-1.136,1.729-1.136
		c1.392,0,1.048,1.41,1.048,1.41l-0.629,2.309h3.111l0.806-2.959c0,0,1.197-4.023-3.578-4.023c-4.771,0-5.581,4.023-5.581,4.023
		l-1.547,5.877c0,0-0.832,3.286,1.733,5.326c2.339,1.86,2.001,3.945,2.001,3.945l-1.279,5.028c0,0-0.422,1.42-1.913,1.42
		C102.916,46.2,103.25,44.886,103.25,44.886z"/>
	<path id="Path_113_" fill="#333333" d="M82.363,49.366h-3.111l6.336-26.096h-3.168l0.849-3.09h8.995c0,0.057-0.792,3.09-0.792,3.09
		h-2.772L82.363,49.366z M66.58,23.214l-2.319,9.843h5.035l-0.735,3.262h-5.148l-2.376,9.786h5.035l-0.792,3.09h-8.09l7.071-29.186
		h8.203l-0.735,3.205H66.58z M50.287,31.454c0,0-0.713,2.587-1.927,3.065c1.129,0.823,0.682,3.058,0.682,3.058l-1.245,5.551
		c-0.349,1.372-1.222,6.123-6.845,6.123h-4.13l6.958-29.186h5.035c2.141,0,3.658,1.944,3.168,4.12L50.287,31.454z M40.67,46.104
		h1.131c1.401,0,2.214-0.29,2.546-1.545l1.641-7.268c0.054-0.292-0.296-1.03-1.018-1.03h-1.754L40.67,46.104z M43.951,32.942
		c0,0,0.632,0,1.424,0s1.558-0.699,1.744-1.488l1.641-6.924c0.198-0.869-0.803-1.431-1.358-1.431h-1.131L43.951,32.942z"/>
</g>
</svg>
