<?xml version="1.0" encoding="utf-8"?>
<!-- Generator: Adobe Illustrator 21.0.0, SVG Export Plug-In . SVG Version: 6.00 Build 0)  -->
<svg version="1.1" id="Layer_1" xmlns="http://www.w3.org/2000/svg" xmlns:xlink="http://www.w3.org/1999/xlink" x="0px" y="0px"
	 viewBox="0 0 180 70" style="enable-background:new 0 0 180 70;" xml:space="preserve">
<style type="text/css">
	.st0{fill:#0099FF;}
</style>
<g id="Boomerang">
	<path class="st0" d="M11,35.3c0,6.3,12.2,16.9,22.5,24c1,0.7,2.8,0.9,3.2,0.3c0.4-0.6,0.5-1.9-1.2-3.6
		C16.4,37.5,19.5,22.5,19.5,22.5S11,30.6,11,35.3z"/>
	<path class="st0" d="M21.4,20.7c0,0-0.9,6.9,0.6,11.7c3.8-8.1,13.3-18.8,13.6-19.7c0.3-0.9,0.4-1.6,0-2.2c-0.4-0.6-1.3-0.6-1.9-0.2
		C28.5,13.4,21.4,20.7,21.4,20.7z"/>
	<g>
		<path class="st0" d="M33.3,23.4c0,0,1.3,0.1,4.7,0c0,0-0.1,2.8-0.2,7.1c0.9-1.4,2.2-2.2,3.9-2.2c3.4,0,5.3,2.9,5.3,7.6
			c0,4.9-2.4,7.5-5.8,7.5c-1.9,0-3.3-0.7-4.1-2c0,0.7,0.1,1.4,0.1,2.2c0,0-1.9,0-3.9,0C33.3,43.6,33.4,37.3,33.3,23.4z M42.2,35.8
			c0-2.6-0.7-4.5-2.2-4.5c-1.4,0-2.2,1.7-2.2,4.5c0,3.2,0.7,4.8,2.2,4.8C41.4,40.6,42.2,38.9,42.2,35.8z"/>
		<path class="st0" d="M62.4,36.3c0,4.5-2.8,7.2-7,7.2c-4.5,0-7.1-2.9-7.1-7.4c0-4.8,2.8-7.5,7.1-7.5C59.5,28.6,62.4,31,62.4,36.3z
			 M53.2,36.2c0,2.9,0.8,4.2,2.2,4.2s2.2-1.2,2.2-4.1c0-3.2-0.8-4.6-2.2-4.6C54,31.7,53.2,33.2,53.2,36.2z"/>
		<path class="st0" d="M63.7,35.7c0-4.5,2.7-7.4,7-7.4c4.5,0,7,3,7,7.6c0,5.4-3,7.7-7,7.7C66.1,43.5,63.7,40.7,63.7,35.7z
			 M72.8,35.8c0-2.8-0.7-4.4-2.1-4.4c-1.4,0-2.2,1.4-2.2,4.3c0,3.4,0.7,4.8,2.2,4.8C72,40.4,72.8,39.1,72.8,35.8z"/>
		<path class="st0" d="M79.3,28.9c0,0,1.6,0.1,3.7,0c0,0-0.1,1-0.1,2.4c0.9-1.8,2.6-3.1,4.6-3.1c2.2,0,3.4,1.2,3.9,3
			c0.9-1.5,2.5-2.5,4.3-2.5c3,0,4,2.2,4.1,4.9c0.1,4.4,0,10,0,10s-1.7-0.1-4.6,0c0,0,0.1-4.8-0.1-8.8c-0.1-1.4-0.4-2.2-1.4-2.2
			c-1.2,0-1.9,1.3-1.9,3c-0.1,3,0,6.7,0,6.7s-2.1,0-4.7,0c0,0,0.2-4.4,0.1-7.9c0-1.3-0.4-2.1-1.4-2.1c-1.1,0-2,1.3-2,3.2
			c-0.1,3.1,0,7.2,0,7.2s-2.1,0-4.6,0C79.4,42.7,79.4,37,79.3,28.9z"/>
		<path class="st0" d="M101.4,35.8c0-4.5,2.5-7.6,6.9-7.6c5.4,0,7.1,3.6,6.9,8.8c0,0-3.2,0-9,0.1c0.2,2.3,0.9,3.4,2.2,3.4
			c1,0,1.7-0.8,2-2.3c0,0,1.8,0.1,4.8,0.1c-0.8,3.5-3.3,5.3-6.7,5.3C103.2,43.6,101.4,40.3,101.4,35.8z M106.2,34.9
			c1.1,0,2.5-0.1,4.2-0.1c0-2.3-0.7-3.5-2-3.5C107,31.2,106.3,32.4,106.2,34.9z"/>
		<path class="st0" d="M116.8,28.8c0,0,1.2,0,3.8,0c0,0-0.1,1.1-0.1,2.6c0.9-2,3-3.2,5.4-3.1c0,0-0.1,1.5-0.1,4.4
			c-3.2,0.2-4.3,1.6-4.4,5c-0.1,2.2,0.1,5.4,0.1,5.4s-1.6,0-4.7,0C116.8,43.2,116.8,35.9,116.8,28.8z"/>
		<path class="st0" d="M126.3,39.4c0-3.2,2.6-5.2,8.3-5c0,0,0-0.4,0-0.7c-0.1-1.6-0.6-2.4-1.7-2.4c-1.1,0-1.7,0.9-1.8,2.4
			c0,0-1.7,0-4.3-0.1c0.1-3.2,2.4-5.4,6.2-5.4c4.3,0,6.2,2.2,6.3,6.1c0.1,4.8,0,9.2,0,9.2s-1.4,0-3.8,0c0,0,0.1-0.9,0.1-2.3
			c-0.9,1.6-2.7,2.3-4.5,2.3C128.3,43.6,126.3,42,126.3,39.4z M134.8,36.7c-2.9-0.1-3.9,1-3.9,2.3c0,1,0.6,1.6,1.7,1.6
			c1.2,0,2.2-0.8,2.2-3.4V36.7z"/>
		<path class="st0" d="M149.3,34.4c0-1.3-0.3-2.1-1.4-2.1c-1.3,0-2,1.3-2.1,3c-0.1,2.1,0,7.5,0,7.5s-2.5-0.1-4.7,0
			c0,0,0.1-5.5,0-13.8c0,0,1.9,0.1,3.7,0c0,0-0.1,1.2,0,2.3c0.8-1.7,2.5-3,4.8-3c2.8,0,4.2,1.8,4.3,4.9c0.1,2.1,0.1,10.5,0.1,10.5
			c-1.4,0-4.7,0-4.7,0S149.3,38.8,149.3,34.4z"/>
		<path class="st0" d="M154.9,47.5c0-1.4,1.1-2.6,3-3.1c-1.2-0.5-1.9-1.4-1.9-2.3c0-1.1,0.8-1.9,2.1-2.6c-1.8-0.9-2.9-2.7-2.9-5.4
			c0-3.8,2.6-6.1,6.5-6.1c0.4,0,0.8,0,1.2,0.1c0.2-1,0.6-2.7,1-5.1c0,0,1.7,0.7,4.5,1.6c0,0-1.2,1.7-2.8,4.5c1.6,1,2.5,2.8,2.5,5.1
			c0,4.3-2.9,6.1-6.3,6.1c-0.5,0-1,0-1.5-0.1c-0.2,0.2-0.3,0.4-0.3,0.6c0,0.4,0.5,0.8,2.8,1c4.4,0.4,6.1,1.8,6.1,4.3
			c0,3.4-3.7,5-7.5,5C157.6,51,154.9,49.8,154.9,47.5z M160.7,45.4c-0.8,0.4-1.2,1-1.2,1.6c0,0.9,1,1.4,2.5,1.4
			c1.6,0,2.6-0.6,2.6-1.4S163.7,45.5,160.7,45.4z M163.6,34.3c0-1.9-0.6-3.2-1.9-3.2s-1.9,1.2-1.9,3.2c0,2.2,0.7,3.2,1.9,3.2
			C162.8,37.6,163.6,36.6,163.6,34.3z"/>
	</g>
</g>
</svg>
