<?xml version="1.0" encoding="utf-8"?>
<!-- Generator: Adobe Illustrator 17.0.0, SVG Export Plug-In . SVG Version: 6.00 Build 0)  -->
<!DOCTYPE svg PUBLIC "-//W3C//DTD SVG 1.1//EN" "http://www.w3.org/Graphics/SVG/1.1/DTD/svg11.dtd">
<svg version="1.1" id="Layer_1" xmlns="http://www.w3.org/2000/svg" xmlns:xlink="http://www.w3.org/1999/xlink" x="0px" y="0px"
	 width="180px" height="70px" viewBox="0 0 180 70" enable-background="new 0 0 180 70" xml:space="preserve">
<g id="Digitain">
	<path id="_x3C_Path_x3E__79_" fill="#00CCCC" d="M59.105,27.609H47.538V42.56h11.567c4.126,0,7.47-3.347,7.47-7.476
		S63.231,27.609,59.105,27.609z M59.105,38.46h-7.47v-6.752h7.47c1.863,0,3.374,1.512,3.374,3.376S60.968,38.46,59.105,38.46z"/>
	<rect x="69.565" y="27.609" fill="#00CCCC" width="4.097" height="14.951"/>
	<rect x="99.664" y="27.609" fill="#00CCCC" width="4.097" height="14.951"/>
	<rect x="145.3" y="27.609" fill="#00CCCC" width="4.097" height="14.951"/>
	<path fill="#00CCCC" d="M165.903,27.609v8.785l-9.317-8.124c0,0-0.711-0.66-1.658-0.66c-1.326,0-2.401,1.067-2.42,2.389h-0.002
		v0.034l0,0c0,0,0,0,0,0V42.56h4.097v-8.84l9.074,7.915c0,0,1.129,0.925,1.901,0.925c1.337,0,2.421-1.085,2.421-2.423V27.609
		H165.903z"/>
	<polygon fill="#00CCCC" points="121.383,27.609 106.442,27.609 106.442,31.708 111.864,31.708 111.864,42.56 115.961,42.56 
		115.961,31.708 121.383,31.708 	"/>
	<path fill="#00CCCC" d="M77.124,35.084c0,4.129,3.345,7.476,7.47,7.476h11.567v-8.794h-4.097v4.695h-7.47v0
		c-1.863,0-3.374-1.512-3.374-3.376s1.51-3.376,3.374-3.376v0h11.567v-4.1H84.594C80.468,27.609,77.124,30.956,77.124,35.084z"/>
	<path id="_x3C_Path_x3E__78_" fill="#00CCCC" d="M130.999,27.44c-1.501,0-2.3,1.25-2.3,1.25l-10.119,13.87h5.072l1.287-1.764h12.12
		l1.287,1.764h5.072l-10.119-13.87C133.299,28.69,132.5,27.44,130.999,27.44z M127.929,36.697l3.069-4.207l3.069,4.207H127.929z"/>
	<path fill="#00CCCC" d="M16.22,28.664c3.449-1.052,3.564-0.58,7.205-0.593c2.95-0.011,8.56-0.27,8.721-1.699
		c0.162-1.429-1.536-4.396-3.827-4.423c-2.291-0.027-3.422,0.809-4.743,0.863c-1.32,0.054-4.066-0.821-6.036-0.27
		C15.034,23.243,13.153,29.599,16.22,28.664z"/>
	<path fill="#00CCCC" d="M34.14,47.19c0.404-0.755,1.127-1.652,1.455-5.501c0.443-5.201-1.051-0.89-6.096-4.056
		c-1.912-1.2-6.752-2.28-7.56-0.177c-0.808,2.103,2.387,3.249,3.793,3.936c1.406,0.687,3.934,1.699,4.716,4.827
		C31.23,49.347,33.736,47.945,34.14,47.19z"/>
	<path fill="#00CCCC" d="M27.646,44.601c-1.024-1.429-2.776-2.049-3.961-1.753c-1.186,0.297-1.877,1.942-0.916,4.18
		c0.961,2.238,6.333,3.263,7.842,1.807C29.182,47.918,28.67,46.03,27.646,44.601z"/>
	<path fill="#00CCCC" d="M18.376,44.898c2.991-0.62,2.596-3.667,2.587-4.557c-0.027-2.643-2.856-6.688-5.47-6.391
		c-3.188,0.362-3.118,3.584-4.069,4.288c-0.62,0.458-1.374-2.049-1.374-2.049L10,35.999c0.135,2.198,0.71,4.277,1.64,6.148
		C13.742,41.717,15.385,45.518,18.376,44.898z"/>
	<path fill="#00CCCC" d="M13.094,27.828c0.808-1.213,0.431-1.807,1.644-3.209c1.202-1.39,0.979-1.926,0.975-1.935
		c-1.963,1.648-3.526,3.757-4.523,6.161l0.018,0.008C11.208,28.853,12.286,29.041,13.094,27.828z"/>
	<path fill="#00CCCC" d="M36.08,27.99c-3.686-0.304-7.33,2.454-11.156,2.13c-3.827-0.324-6.521-0.27-7.033,0.216
		c-0.512,0.485-0.269,1.348,0.243,1.969c0.512,0.62,1.869,2.292,5.147,1.942c6.306-0.674,6.551,2.314,10.968,2.4
		c4.417,0.086,5.767-2.966,5.901-4.315c0.134-1.344,1.155-2.277,1.162-2.283c-0.45-1.391-0.86-2.35-1.65-3.546
		C39.726,26.625,39.454,28.268,36.08,27.99z"/>
	<path fill="#00CCCC" d="M11.208,35.513c0.377-0.297,0.755-2.373,1.671-3.182c0.916-0.809,1.401-0.566,2.129-1.456
		c0.728-0.89,0.081-1.294-0.539-1.402c-0.62-0.108-2.237,0.62-2.91,0.89c-0.674,0.27-0.808-0.243-0.808-0.243l-0.019-0.024
		c-0.283,0.885-0.492,1.804-0.618,2.748c0.022,0.497,0.088,1.627,0.233,2.103C10.534,35.567,10.831,35.81,11.208,35.513z"/>
	<path fill="#00CCCC" d="M35.622,47.486c-0.458,0.351-2.391,1.483-5.093,2.184c-2.91,0.755-5.443,0.054-6.629-0.351
		c-1.186-0.404-1.347,0.054-1.401,0.351s0.485,0.647,1.078,0.836c0.216,0.069,1.483,0.38,2.594,0.565
		c3.714-0.032,7.128-1.326,9.833-3.474C35.996,47.446,35.934,47.248,35.622,47.486z"/>
	<path fill="#00CCCC" d="M31.769,22.569c0,0,1.671,1.753,2.021,2.562c0.35,0.809,1.186,1.348,1.859,1.213
		c0.674-0.135,1.589-0.066,2.021-0.135c1.139-0.182,0.77-1.404,0.768-1.413c-1.229-1.496-2.723-2.765-4.411-3.737l0,0
		c0,0-1.854-0.352-2.663,0.079C30.556,21.572,31.769,22.569,31.769,22.569z"/>
	<path fill="#00CCCC" d="M41.911,32.603c-0.005-0.006-0.604-0.7-0.765-0.11c-0.162,0.593-0.41,4-3.288,5.609
		c-0.916,0.512,0.227,3.617-2.237,8.252c-0.668,1.256,1.259,0.476,1.293,0.462c3.181-2.937,5.174-7.143,5.174-11.815
		C42.089,34.186,42.028,33.385,41.911,32.603z"/>
	<path fill="#00CCCC" d="M21.475,49.536c-0.916-0.431-1.805-0.027-1.913-0.593c-0.108-0.566,2.452-0.027,2.237-0.998
		c-0.216-0.971-0.728-1.402-1.482-1.591c-0.755-0.189-1.428,0.378-2.264,0.189c-0.835-0.189-2.722-1.969-3.422-1.834
		c-0.7,0.135-0.533,0.585-0.587,0.989c2.397,2.687,5.682,4.563,9.394,5.166l-0.13-0.06C23.307,50.803,22.391,49.967,21.475,49.536z"
		/>
	<path fill="#00CCCC" d="M19.155,21.464c1.347-0.243,3.937,0,6.039-0.404c2.102-0.404,5.147-0.485,6.063-0.458
		c0.89,0.026,0.519-0.585,0.497-0.62c-1.778-0.679-3.708-1.052-5.725-1.052c-2.604,0-5.063,0.621-7.239,1.722
		C18.765,20.678,17.825,21.703,19.155,21.464z"/>
</g>
</svg>
