<?xml version="1.0" encoding="utf-8"?>
<!-- Generator: Adobe Illustrator 21.0.0, SVG Export Plug-In . SVG Version: 6.00 Build 0)  -->
<svg version="1.1" id="Layer_1" xmlns="http://www.w3.org/2000/svg" xmlns:xlink="http://www.w3.org/1999/xlink" x="0px" y="0px"
	 viewBox="0 0 180 70" style="enable-background:new 0 0 180 70;" xml:space="preserve">
<style type="text/css">
	.st0{fill:#FF3333;}
	.st1{display:none;fill:#FF3333;}
</style>
<g id="Egt">
	<path class="st0" d="M94.6,3.8c23.4,6.1,38.5,15.9,38.5,27c0,18.4-41.8,33.3-93.4,33.3c-5,0-9.9-0.1-14.8-0.4
		c11.2,1.7,23.6,2.6,36.6,2.6c51.6,0,93.4-14.5,93.4-32.3C155,20.2,129.9,8.4,94.6,3.8z"/>
	<path class="st1" d="M102,5.9c-0.1,0-0.2,0-0.2-0.1C99.9,5.1,98,4.7,96.1,4c0.5,0,1.1,0,1.6,0c0.1,0.3,0.3,0.3,0.5,0.3
		c6.2,1,12.3,2.1,18.4,3.7c7.7,1.9,15.2,4.3,22.3,7.9c4.1,2,8,4.4,11.3,7.7c1.7,1.7,3.1,3.6,4,5.8c1.5,3.9,0.9,7.5-1.3,10.9
		c-0.9,1.4-2,2.5-3.2,3.7c-3.8,3.7-8.4,6.2-13.1,8.4c-5.1,2.4-10.4,4.1-15.8,5.7c-5,1.4-10.1,2.6-15.3,3.5
		c-4.9,0.9-9.7,1.7-14.6,2.2c-4.6,0.6-9.1,1-13.7,1.3c-8.7,0.6-17.3,0.8-26,0.6c-7.4-0.2-14.9-0.6-22.3-1.4C28,64.2,27,64.2,26.3,64
		c5,0.1,10.2,0.2,15.4,0.1c6.6-0.2,13.3-0.5,19.9-1.2c5-0.5,10-1.1,15-1.9c8.9-1.4,17.7-3.4,26.3-6.2c6.3-2.1,12.3-4.6,17.9-8.1
		c3.7-2.3,7-4.9,9.5-8.5c1.9-2.8,2.9-5.8,2.5-9.2c-0.3-2.7-1.5-5-3.1-7.1c-1.3-1.7-2.9-3.3-4.6-4.7c-3.6-2.8-7.5-5.1-11.6-6.9
		c-1.5-0.7-3-1.3-4.4-1.9c-0.2-0.1-0.4-0.2-0.7-0.2l0,0c-2-0.9-4.1-1.6-6.3-2.3c0,0,0,0,0,0C102.2,5.9,102.1,5.9,102,5.9z"/>
	<path id="Path_51_3_" class="st0" d="M54.4,23.7h-9.2l-1.6,5.2h8l-1.5,4.8h-8l-1.6,5.2h9.7l-1.5,5H33.2l7.6-24.9h15L54.4,23.7z"/>
	<path id="Path_53_3_" class="st0" d="M89.7,43.6H84l6.2-20.2h-5.7l1.5-4.8h16.8l-1.5,4.8h-5.4L89.7,43.6z"/>
	<path class="st0" d="M68.8,31l-1.4,4.5h6.9c-2.1,2.1-5.1,3.6-8,3.6c-4.6,0-7.2-3.6-5.8-8c1.4-4.4,6.2-8,10.7-8c2,0,3.7,0.7,4.8,1.9
		l5-3c-1.7-2.4-4.6-3.8-8.3-3.8c-7.4,0-15.1,5.8-17.3,12.9c-2.2,7.1,2,12.9,9.4,12.9c7.4,0,15.1-5.8,17.3-12.9H68.8z"/>
	<circle class="st0" cx="118.8" cy="30.5" r="11.4"/>
</g>
</svg>
