<?xml version="1.0" encoding="utf-8"?>
<!-- Generator: Adobe Illustrator 21.0.0, SVG Export Plug-In . SVG Version: 6.00 Build 0)  -->
<svg version="1.1" id="Layer_1" xmlns="http://www.w3.org/2000/svg" xmlns:xlink="http://www.w3.org/1999/xlink" x="0px" y="0px"
	 viewBox="0 0 180 70" style="enable-background:new 0 0 180 70;" xml:space="preserve">
<style type="text/css">
	.st0{fill:#EEEEEE;}
	.st1{fill:#00CC00;}
</style>
<g id="Kiron">
	<path class="st0" d="M62.7,36.9v15.5h-7.4V36.9H62.7z"/>
	<path class="st0" d="M62.7,28.1v6.5h-7.4v-6.5H62.7z"/>
	<path class="st1" d="M170,45.4v7h-7v-7H170z"/>
	<path class="st0" d="M86,28.1c2.1,0,4.4,0,5.9,1.4c1.5,1.4,1.7,3.7,1.7,5.6c0,1.8-0.4,3.9-1.7,5.2c-1.3,1.3-3.2,1.2-3.2,1.2
		c3.4,0,5.2,3.4,5.2,4.8c0,1.4,0,6.1,0,6.1h-7.2c0,0,0-2.7,0-4.6c0-1.8-1.2-3.1-3.4-3.1c-2.4,0-11,0-11,0v7.6h-6.7V28.1H86z
		 M72.4,39.8l12.3,0c0.7,0,1.3-0.2,1.7-0.6c0.4-0.4,0.7-1.6,0.7-2.9c0-1.3-0.2-2.1-0.7-2.5c-0.4-0.4-1-0.6-1.7-0.6H72.4V39.8z"/>
	<path class="st0" d="M119.9,28.1c2,0,3.6,0.6,5,1.9c1.4,1.2,2,2.7,2,4.5v11.5c0,1.8-0.7,3.3-2,4.5c-1.4,1.2-3,1.9-5,1.9h-17.1
		c-1.9,0-3.6-0.6-5-1.9c-1.4-1.2-2-2.7-2-4.5V34.5c0-1.8,0.7-3.3,2-4.5c1.4-1.2,3-1.9,5-1.9H119.9z M103.5,34.4
		c-0.5,0.4-0.7,1-0.7,1.6v6.3c0,0.6,0.2,3.4,0.7,3.8c0.5,0.4,1.1,0.6,1.8,0.7h12.2c0.7,0,1.3-0.3,1.8-0.7c0.5-0.5,0.7-3.2,0.7-3.8
		V36c0-0.7-0.2-1.2-0.7-1.6c-0.5-0.5-1.1-0.7-1.8-0.7h-12.2C104.6,33.7,104,33.9,103.5,34.4z"/>
	<path class="st0" d="M140.8,28.1l12.9,17.8V28.1h6.7v24.3h-11.3l-13-17.8v17.8h-6.3V28.1H140.8z"/>
	<polygon class="st0" points="53.1,28.1 53.1,34.7 41.9,39.6 53.1,44.4 53.1,52.4 33.7,42.2 36.5,36.3 	"/>
	<polygon class="st1" points="17.2,52.4 10,52.4 27.4,17.6 34.6,17.6 	"/>
	<polygon class="st0" points="27.2,52.4 20,52.4 37.4,17.6 44.6,17.6 	"/>
</g>
</svg>
