<?xml version="1.0" encoding="utf-8"?>
<!-- Generator: Adobe Illustrator 21.0.0, SVG Export Plug-In . SVG Version: 6.00 Build 0)  -->
<svg version="1.1" id="Layer_1" xmlns="http://www.w3.org/2000/svg" xmlns:xlink="http://www.w3.org/1999/xlink" x="0px" y="0px"
	 width="180px" height="70px" viewBox="0 0 180 70" style="enable-background:new 0 0 180 70;" xml:space="preserve">
<style type="text/css">
	.st0{fill:#EEEEEE;}
	.st1{fill:#FFCC00;}
</style>
<g id="NolimitCity">
	<path id="City" class="st0" d="M50,46c-1,0-1.8,0.4-2.4,1.2c-0.6,0.8-0.8,1.8-0.8,3.2c0,2.9,1.1,4.3,3.2,4.3c0.9,0,2-0.2,3.3-0.7
		v2.3c-1.1,0.4-2.2,0.7-3.5,0.7c-1.9,0-3.3-0.6-4.3-1.7c-1-1.1-1.5-2.8-1.5-4.9c0-1.3,0.2-2.5,0.7-3.5s1.2-1.8,2.1-2.3
		c0.9-0.5,2-0.8,3.2-0.8c1.2,0,2.5,0.3,3.8,0.9l-0.9,2.2c-0.5-0.2-1-0.4-1.5-0.6S50.5,46,50,46z M74,56.8V43.9h2.7v12.8H74z
		 M102.9,56.8h-2.7V46.2h-3.5v-2.3h9.7v2.3h-3.5V56.8z M130.4,49.2l2.7-5.3h2.9l-4.3,7.8v5h-2.7v-4.9l-4.3-7.9h3L130.4,49.2z"/>
	<path id="Nolimit" class="st1" d="M37.3,23.9c0.2-1.5,0.7-2.9,1.4-4.1c1.1-1.9,2.6-3.4,4.5-4.5c1.9-1.1,4.1-1.6,6.6-1.6
		c2.4,0,4.6,0.5,6.5,1.6c1.9,1.1,3.4,2.6,4.5,4.5c0.7,1.3,1.2,2.6,1.4,4.1h-4.6c-0.2-0.7-0.4-1.3-0.7-2c-0.7-1.3-1.7-2.3-2.9-3.1
		c-1.2-0.7-2.6-1.1-4.2-1.1s-3,0.4-4.2,1.1c-1.2,0.7-2.2,1.8-2.9,3.1c-0.3,0.6-0.6,1.3-0.8,2H37.3z M15.5,23.9v-6.1c0,0,3.9,0,5.5,0
		c1.6,0,2.8,0.5,3.7,1.4s1.4,2.4,1.4,4.3v0.4h4.7v-0.4c0-6.4-4.6-10.5-9.8-10.5c-4.1,0-10.2,0-10.2,0v10.9H15.5z M10.8,26V39h2.3
		h2.3V26H10.8z M73.3,23.9V13h-4.6v10.9H73.3z M94.3,23.9V13h-4.7v10.9H94.3z M158.8,23.9h4.7v-6.3h5.7V13h-16v4.7h5.7V23.9z
		 M146.9,23.9V13h-4.7v10.9H146.9z M105.2,23.9v-0.4c0-1.9,0.5-3.3,1.4-4.3s2.2-1.4,3.7-1.4c1.6,0,2.9,0.6,3.9,1.7s1.5,2.5,1.5,4.2
		v0.2h4.7v-0.2c0-1.7,0.5-3.1,1.5-4.2s2.3-1.7,3.9-1.7c1.6,0,2.8,0.5,3.7,1.4s1.4,2.4,1.4,4.3v0.4h4.7v-0.4c0-6.4-4.6-10.4-9.8-10.4
		c-4.1,0-6.8,2.6-7.8,3.7c-1-1.1-3.7-3.7-7.8-3.7c-5.3,0-9.8,4-9.8,10.4v0.4H105.2z M57.9,26c0,0.2,0,0.3,0,0.5c0,1.7-0.3,3.1-1,4.4
		c-0.7,1.3-1.7,2.3-2.9,3.1c-1.2,0.7-2.6,1.1-4.2,1.1s-3-0.4-4.2-1.1c-1.2-0.7-2.2-1.8-2.9-3.1c-0.7-1.3-1.1-2.8-1.1-4.4
		c0-0.2,0-0.3,0-0.5h-4.5c0,0.2,0,0.3,0,0.5c0,2.5,0.5,4.6,1.6,6.6c1.1,1.9,2.6,3.4,4.5,4.5c1.9,1.1,4.1,1.6,6.6,1.6
		c2.5,0,4.6-0.5,6.6-1.6c1.9-1.1,3.4-2.6,4.5-4.5c1.1-1.9,1.6-4.1,1.6-6.6c0-0.2,0-0.3,0-0.5H57.9z M115.9,26V39h2.3h2.3V26H115.9z
		 M131.2,26V39h4.7V26H131.2z M142.2,26V39h4.7V26H142.2z M158.8,26V39h4.7V26H158.8z M26.1,26V39h4.7V26H26.1z M73.3,26h-4.6V39
		h14.6v-4.6l-10,0.1V26z M100.6,26V39h4.7V26H100.6z M89.6,26V39h4.7V26H89.6z"/>
</g>
</svg>
