<?xml version="1.0" encoding="utf-8"?>
<!-- Generator: Adobe Illustrator 21.0.0, SVG Export Plug-In . SVG Version: 6.00 Build 0)  -->
<svg version="1.1" id="Layer_1" xmlns="http://www.w3.org/2000/svg" xmlns:xlink="http://www.w3.org/1999/xlink" x="0px" y="0px"
	 viewBox="0 0 180 70" style="enable-background:new 0 0 180 70;" xml:space="preserve">
<style type="text/css">
	.st0{fill:#0099FF;}
	.st1{fill:#333333;}
	.st2{fill:#FF3333;}
	.st3{fill:#FFFFFF;}
</style>
<g id="PlaynGo">
	<path id="XMLID_222_" class="st0" d="M158,47.1H16.3c-3.5,0-5.2-1.8-6-3.8c-0.4-1.2-0.4-2.6-0.1-3.9l2.6-9.5
		c0.8-2.6,2.9-6.8,8.3-6.8c0,0,106.8,0,142.4,0c4.9,0,7.1,3.4,6.3,7.2c-0.6,2.8-2.8,10-2.8,10C166.2,44.3,162.8,47.1,158,47.1z"/>
	<path id="XMLID_223_" class="st1" d="M137.8,57c-9.5,0-28.3,0-37.7,0c-5.7,0-11.1-5.2-10.4-10.8c0.8-6,4.2-15.4,6.1-21.2
		c2.3-6.9,9-11.9,14.7-11.9c9.7-0.1,29.3-0.2,39.1,0c8.2,0.2,11.7,7.8,10,13.1c-1.8,5.8-4.7,15-6.5,20.3
		C151.5,51.5,143.5,57,137.8,57z"/>
	<path class="st2" d="M150.2,16.4c0,0-6.2,0-8.5,0c-6.1-0.1-11.3,4.1-12.9,9l-4.3,13.7C119.6,51,125.7,53,130,53c2.6,0,5.1,0,7.1,0
		c5.2,0,11-3.8,12.5-8.6l5.9-18.8C157.2,21.2,154.6,16.4,150.2,16.4z M140.6,44.1h-8.3l5.7-18.2h8.3L140.6,44.1z M111.9,30.5h12.8
		l-3.9,13.7c-1.5,4.8-6.1,8.9-12.5,8.9c-2,0-4.6,0-7.1,0c-3.9,0-11-1.2-5.6-13.9l4.3-13.7c1.1-3.9,6.1-8.6,12.3-8.5
		c2.3,0,16.4,0,16.4,0l-2.5,8.7l-0.1,0.3h-17l-1.4,4.6l-2.9,9.1l0,0l-0.2,0.7l0,0l-1.2,3.9h8.9l1.4-4.6H109L111.9,30.5z"/>
	<path class="st3" d="M82.2,41.6l1.9-6.6h-3.5l-1.9,6.6h-3.9l2.1-6.8c0.6-1.8,2.5-3.5,5-3.5c0.9,0,3.6,0,3.6,0c2,0,3,1.7,2.6,3.6
		L86,41.7L82.2,41.6z M79.1,27.4h-5l-1.5,4.3h5L79.1,27.4z M66,34.3h-3.4l2.3-7.3H61l-2.3,7.6c-0.4,1.9,0.6,3.6,2.6,3.6l0,0
		l-1.1,3.5h3.7l1.1-3.5c2.3-0.1,4.1-1.7,4.8-3.5l2.4-7.7h-3.7L66,34.3z M58.4,30.7l-3.7,11H51l1-3.6h-3.4l-1.2,3.6h-3.8l3.7-11.1
		c0.6-1.8,2.5-3.5,5-3.5c0.9,0,3.6,0,3.6,0C57.9,27.1,58.9,28.7,58.4,30.7z M54.5,30.7h-3.6l-1.2,3.6h3.6L54.5,30.7z M35.7,27.1
		l-4.6,14.6h11.1l2.3-7.3h-3.7L39.7,38h-3.5l3.4-10.9C39.7,27.1,35.7,27.1,35.7,27.1z M33.2,30.7c0,0-0.9,2.8-1.3,3.9
		c-1.4,3.6-4.9,3.5-4.9,3.5h-3.4l-1.2,3.6h-3.8l4.7-14.6h7.2C32.5,27.1,33.8,28.5,33.2,30.7z M29.4,30.7h-3.6l-1.2,3.6h3.6
		L29.4,30.7z"/>
</g>
</svg>
