<?xml version="1.0" encoding="utf-8"?>
<!-- Generator: Adobe Illustrator 17.0.0, SVG Export Plug-In . SVG Version: 6.00 Build 0)  -->
<!DOCTYPE svg PUBLIC "-//W3C//DTD SVG 1.1//EN" "http://www.w3.org/Graphics/SVG/1.1/DTD/svg11.dtd">
<svg version="1.1" id="Layer_1" xmlns="http://www.w3.org/2000/svg" xmlns:xlink="http://www.w3.org/1999/xlink" x="0px" y="0px"
	 width="180px" height="70px" viewBox="0 0 180 70" enable-background="new 0 0 180 70" xml:space="preserve">
<g id="Pragmaticplay">
	<path id="Path_9_" fill-rule="evenodd" clip-rule="evenodd" fill="#EEEEEE" d="M158.288,37.659l-0.415-2.623l-0.822,2.623h-0.649
		l-0.815-2.623l-0.425,2.623h-0.718l0.67-4.154h0.717l0.897,2.897l0.905-2.897h0.717L159,37.659H158.288z M153.529,37.659h-0.747
		v-3.374h-0.686v-0.78h2.138v0.78h-0.705V37.659z"/>
	<path id="Path_10_" fill="#EEEEEE" d="M138.047,33.487h2.239l2.044,4.019l2.034-4.019h2.211l-3.206,6.334v4.838h-2.1v-4.838
		L138.047,33.487z"/>
	<path id="Path_11_" fill="#EEEEEE" d="M133.252,33.487h2.115l4.213,11.172h-2.167l-0.857-2.301h-4.47l-0.891,2.301h-2.167
		L133.252,33.487z M134.323,36.449l-1.47,3.835h2.931L134.323,36.449z"/>
	<path id="Path_12_" fill="#EEEEEE" d="M122.699,33.487h2.085v9.144h3.038v2.028h-5.124V33.487z"/>
	<path id="Path_13_" fill="#EEEEEE" d="M114.846,33.487h3.076c1.188,0,3.433,0.45,3.433,3.239c0,2.79-2.37,3.201-3.433,3.201h-0.991
		v4.731h-2.085V33.487z M116.931,37.854h0.944c0,0,1.462,0.083,1.462-1.128c0-1.21-1.462-1.166-1.462-1.166h-0.944V37.854z"/>
	<path id="Path_8_" fill="#FF9900" d="M133.655,23.723c-6.535,0.402-3.601,8.814,3.624,8.371
		C144.345,31.659,140.62,23.295,133.655,23.723z"/>
	<path id="Path_7_" fill="#FF9900" d="M130.025,18.149c-11.444,0-20.722,9.369-20.722,20.926c0,11.557,9.278,20.925,20.722,20.925
		s20.722-9.369,20.722-20.925C150.747,27.518,141.47,18.149,130.025,18.149z M130.025,57.23c-9.92,0-17.962-8.129-17.962-18.156
		c0-10.027,8.042-18.156,17.962-18.156s17.962,8.129,17.962,18.156C147.987,49.102,139.945,57.23,130.025,57.23z"/>
	<path id="Path_6_" fill="#FF9900" d="M130.044,3.634c-5.167,3.849-4.841,7.929-4.841,7.929S122.526,5.078,118.31,0
		c-0.57,6.537,0.939,13.378,0.939,13.378s-2.07-3.548-8.541-3.849c5.367,3.044,7.448,8.517,7.925,9.986
		c3.107-1.888,6.731-3.028,10.614-3.165C128.823,14.981,127.318,9.217,130.044,3.634z"/>
	<path id="Path_14_" fill="#EEEEEE" d="M105.208,41.184c-0.641,0.928-1.69,1.538-2.882,1.538c-1.953,0-3.537-1.626-3.537-3.632
		c0-2.006,1.583-3.632,3.537-3.632c1.199,0,2.254,0.616,2.894,1.552l1.357-1.399c-0.997-1.283-2.529-2.107-4.251-2.107
		c-3.004,0-5.439,2.5-5.439,5.585c0,3.084,2.435,5.585,5.439,5.585c1.711,0,3.235-0.813,4.232-2.081L105.208,41.184z"/>
	<path id="Path_15_" fill="#EEEEEE" d="M93.436,33.48h2.087v11.179h-2.087V33.48z"/>
	<path id="Path_16_" fill="#EEEEEE" d="M85.688,33.48h6.103v2.097h-2.012v9.081h-2.132v-9.081h-1.959V33.48z"/>
	<path id="Path_17_" fill="#EEEEEE" d="M79.534,33.48h2.132l4.247,11.179h-2.184l-0.864-2.303h-4.506l-0.899,2.303h-2.184
		L79.534,33.48z M80.613,36.444l-1.482,3.838h2.954L80.613,36.444z"/>
	<path id="Path_18_" fill="#EEEEEE" d="M62.915,33.48h2.048l2.56,7.797l2.583-7.797h2.047l1.853,11.179h-2.033l-1.184-7.06
		l-2.346,7.06h-1.852l-2.325-7.06l-1.212,7.06h-2.05L62.915,33.48z"/>
	<path id="Path_21_" fill="#EEEEEE" d="M54.283,39.09v1.825h3.085c-0.614,1.076-1.739,1.806-3.041,1.806
		c-1.953,0-3.537-1.626-3.537-3.632c0-2.006,1.583-3.632,3.537-3.632c1.225,0,2.303,0.64,2.938,1.611v-0.001l1.394-1.345
		c-0.993-1.345-2.561-2.218-4.332-2.218c-3.004,0-5.439,2.5-5.439,5.585c0,3.084,2.435,5.585,5.439,5.585
		c3.004,0,5.439-2.5,5.439-5.585H54.283z"/>
	<path id="Path_20_" fill="#EEEEEE" d="M41.883,33.48h2.132l4.247,11.179h-2.185l-0.864-2.303h-4.506l-0.898,2.303h-2.184
		L41.883,33.48z M42.963,36.444l-1.481,3.838h2.954L42.963,36.444z"/>
	<path id="Path_19_" fill="#EEEEEE" d="M36.36,44.658l-2.602-4.962c1.006-0.335,2.035-1.131,2.035-2.97
		c0-2.79-2.245-3.239-3.433-3.239h-3.076v11.172h2.085v-4.731h0.22l2.472,4.731H36.36z M31.37,35.56h0.944
		c0,0,1.462-0.044,1.462,1.166s-1.462,1.128-1.462,1.128H31.37V35.56z"/>
	<path id="Path_40_" fill="#EEEEEE" d="M21.027,33.487h3.076c1.188,0,3.433,0.45,3.433,3.239c0,2.79-2.37,3.201-3.433,3.201h-0.991
		v4.731h-2.085V33.487z M23.112,37.854h0.944c0,0,1.462,0.083,1.462-1.128c0-1.21-1.462-1.166-1.462-1.166h-0.944V37.854z"/>
</g>
</svg>
