<?xml version="1.0" encoding="utf-8"?>
<!-- Generator: Adobe Illustrator 17.0.0, SVG Export Plug-In . SVG Version: 6.00 Build 0)  -->
<!DOCTYPE svg PUBLIC "-//W3C//DTD SVG 1.1//EN" "http://www.w3.org/Graphics/SVG/1.1/DTD/svg11.dtd">
<svg version="1.1" id="Layer_1" xmlns="http://www.w3.org/2000/svg" xmlns:xlink="http://www.w3.org/1999/xlink" x="0px" y="0px"
	 width="180px" height="70px" viewBox="0 0 180 70" enable-background="new 0 0 180 70" xml:space="preserve">
<g id="Thunderkick">
	<path id="Path_170_" fill="#0099FF" d="M64.29,29.432l-9.532,0.238c-0.506,0-0.626,0.56-0.626,0.56l0.17,2.174
		c0,0,0.022,0.47,0.626,0.47h2.608l0.565,10.194c0,0,0.093,0.464,0.674,0.464l2.955-0.136c0.537,0,0.565-0.521,0.565-0.521
		l-0.34-10.042h2.608c0.658,0,0.626-0.515,0.626-0.515l-0.17-2.309C65.019,30.01,64.82,29.432,64.29,29.432z M75.47,30.089
		l-2.894-0.136c-0.546,0-0.626,0.47-0.626,0.47v5.326l-1.253,0.243l-0.34-6.04c0,0,0.011-0.47-0.626-0.47l-2.894,0.045
		c-0.622,0-0.626,0.515-0.626,0.515l0.511,13.398c0,0,0.117,0.521,0.62,0.521l2.894-0.051c0.636,0,0.62-0.515,0.62-0.515
		l-0.286-4.483l1.137,0.051l0.17,4.008c0,0-0.003,0.515,0.626,0.515l3.057,0.187c0.495,0,0.565-0.47,0.565-0.47v-12.6
		C76.123,30.604,76.137,30.089,75.47,30.089z M86.247,28.963l-2.608,0.187c-0.596,0-0.565,0.521-0.565,0.521v9.481
		c0,0,0.095,1.794-0.797,1.794c-0.892,0-0.797-1.704-0.797-1.704l0.116-9.057c0,0-0.087-0.521-0.565-0.521l-3.009-0.289
		c-0.584,0-0.681,0.515-0.681,0.515l0.116,10.194c0.042,0.739,0.569,3.487,4.541,3.487c4.51,0,4.54-2.886,4.65-4.104l0.286-10.002
		C86.935,29.466,86.95,28.963,86.247,28.963z M97.876,29.523l-2.723,0.102c-0.463,0-0.565,0.56-0.565,0.56l0.456,6.317l-2.839-6.504
		c0,0-0.154-0.334-0.626-0.334l-2.723,0.232c-0.493,0-0.565,0.521-0.565,0.521l0.456,12.402c0,0,0.139,0.521,0.565,0.521
		l2.723,0.187c0.621,0,0.626-0.509,0.626-0.509l-0.449-5.474l2.383,5.66c0,0,0.176,0.328,0.565,0.328h2.948
		c0.529,0,0.565-0.509,0.565-0.509l-0.225-12.974C98.448,30.049,98.411,29.523,97.876,29.523z M101.966,29.246h-1.02
		c-0.502,0-0.565,0.47-0.565,0.47l-0.511,12.923c0,0,0.044,0.521,0.565,0.521h1.619c2.005,0,4.637-0.653,5.649-1.462
		c1.012-0.81,1.93-1.962,1.93-6.008c0-3.307-0.752-4.071-1.618-4.829C107.149,30.102,105.13,29.246,101.966,29.246z M105.883,35.739
		c0,4.547-2.329,4.59-2.329,4.59l0.402-8.117C103.956,32.212,105.883,32.081,105.883,35.739z M118.417,40.895l-3.574,0.238
		l-0.17-2.83l2.328-0.102c0.468,0,0.572-0.47,0.572-0.47l0.225-1.698c0,0,0.025-0.56-0.62-0.56l-2.553,0.091v-3.017h3.745
		c0.622,0,0.626-0.521,0.626-0.521l-0.225-1.885c0,0-0.011-0.47-0.626-0.47l-6.808,0.142c-0.571,0-0.565,0.521-0.565,0.521
		l0.225,12.781c0,0,0.098,0.521,0.626,0.521h6.924c0.565,0,0.62-0.475,0.62-0.475l0.061-1.647
		C119.227,41.512,119.165,40.895,118.417,40.895z M129.596,33.395c0-1.727-1.174-4.185-4.985-4.185
		c-2.306,0-3.633,0.208-4.152,0.319c-0.519,0.11-0.511,0.521-0.511,0.521l0.225,12.504c0,0,0.006,0.428,0.572,0.521l2.151,0.136
		c0.569,0.007,0.62-0.515,0.62-0.515v-4.008l1.076-0.051l1.253,4.296c0,0,0.152,0.403,0.626,0.419l2.206-0.136
		c0.649-0.074,0.572-0.611,0.572-0.611s-1.517-4.743-1.539-4.811C129.146,36.703,129.596,36.353,129.596,33.395z M123.639,35.846
		v-3.679c0,0,2.403-0.449,2.553,1.743C126.328,35.889,123.639,35.846,123.639,35.846z M137.821,37.074
		c3.438-3.427,2.9-7.177,2.9-7.177s-0.016-0.47-0.681-0.47c0,0-1.955,0.083-2.553,0.142c-0.598,0.058-0.565,0.566-0.565,0.566
		s0.148,2.21-2.104,5.004l0.17-4.857c0,0-0.036-0.523-0.62-0.515l-3.302,0.045c-0.566,0-0.613,0.515-0.613,0.515l0.34,12.923
		c0,0,0.09,0.547,0.674,0.47l2.553-0.283c0.547-0.094,0.572-0.521,0.572-0.521l0.054-3.775c1.895,1.484,2.328,3.917,2.328,3.917
		s0.165,0.464,0.626,0.464h2.778c0.546,0,0.572-0.509,0.572-0.509S140.144,38.607,137.821,37.074z M145.481,29.149
		c-0.586,0.061-2.456,0.254-2.955,0.334c-0.499,0.08-0.565,0.521-0.565,0.521v12.685c0,0-0.02,0.553,0.62,0.515
		c0.64-0.038,2.664-0.136,3.18-0.187s0.565-0.521,0.565-0.521L146.1,29.71C146.1,29.71,146.066,29.088,145.481,29.149z
		 M152.483,29.47c-3.811,0-4.502,2.075-4.789,4.072c-0.288,1.997-0.274,3.675-0.266,5.341c0.008,1.666,0.621,4.656,4.97,4.656
		c4.499,0,5.057-2.213,4.82-4.104c-0.019-0.15-0.02-0.627-0.626-0.606c-0.735,0.025-2.26,0.091-2.26,0.091
		c-0.643,0-0.572,0.617-0.572,0.617s0.319,1.692-1.021,1.692c-1.34,0-1.325-1.319-1.4-1.87c-0.075-0.551,0.182-5.495,0.325-6.236
		c0.142-0.741,0.278-1.042,1.167-1.042s1.128,0.342,1.046,1.042c0,0-0.024,0.611,0.565,0.611c0.589,0,2.191,0.045,2.723,0.045
		s0.626-0.47,0.626-0.47C157.877,31.743,156.294,29.47,152.483,29.47z M169.991,42.451c0,0-1.207-3.882-3.629-5.847
		c3.989-2.619,2.778-6.934,2.778-6.934s-0.041-0.482-0.681-0.425c-0.64,0.057-2.617,0.235-3.18,0.283
		c-0.563,0.048-0.511,0.56-0.511,0.56s0.761,2.944-1.825,4.862l0.061-5.14c0,0-0.029-0.507-0.681-0.515c0,0-2.604,0.25-3.18,0.334
		c-0.575,0.084-0.558,0.515-0.558,0.515l0.395,12.832c0,0,0.138,0.518,0.626,0.475c0.489-0.043,2.191-0.176,2.723-0.238
		c0.532-0.061,0.572-0.47,0.572-0.47l0.225-4.013c2.176,1.992,2.499,4.149,2.499,4.149s0.146,0.516,0.681,0.47
		c0.535-0.047,2.556-0.207,3.18-0.277C170.11,43.004,169.991,42.451,169.991,42.451z"/>
	<path id="Path_169_" fill="#0099FF" d="M49.895,43.262l1.401-9.63l-5.822-12.094l-3.958,1.318l-5.153-5.459l-9.116-4.934
		l-1.998,7.298l-1.401-3.82l-7.012,6.777l-3.891,6.815l-0.172,7.019L10,35.267l1.893,11.26l4.278,7.261l10.062,3.441l8.236,0.309
		l14.197-5.138l4.106-10.043L49.895,43.262z"/>
	<path id="Path_168_" fill="#EEEEEE" d="M43.724,37.911l-8.064,0.204l-0.278,8.967l-0.425,5.317l-7.008-0.075V47.22l-0.597-8.929
		l-8.413,0.346l-0.278-8.62l12.409-0.071l12.83-0.346l0.215,1.147L43.724,37.911z"/>
</g>
</svg>
