<svg width="817" height="701" viewBox="0 0 817 701" fill="none" xmlns="http://www.w3.org/2000/svg">
<style>
	* {
		transform-box: fill-box;
	}
	#arm-bag {
		transform-origin: top right;
		animation: arm-animation 0.6s linear infinite alternate;
	}
	@keyframes arm-animation {
        0% {
            transform: rotate(0deg);
        }
        100% {
            transform: rotate(5deg);
        }
    }
	#dunamic {
		transform-origin: center right;
		animation: dunamic-animation 0.8s linear infinite alternate;
	}
	@keyframes dunamic-animation {
        0% {
            transform: scale(0.8);
        }
        51%, 100% {
            transform: scale(1.1);
        }
    }
	#sound {
		transform-origin: center right;
		animation: sound-animation 1.6s linear infinite;
	}
	@keyframes sound-animation {
		0% {
			opacity: 0;
			transform: translateX(100%) scale(0.5);
		}
        10% {
            opacity: 1;
        }
        51%, 90% {
			opacity: 1;
            transform: translateX(0) scale(1);
        }
		100% {
			opacity: 0;
		}
    }
</style>
<g id="marketing">
<path id="Vector" d="M109.504 655.327C138.524 680.67 184.004 695.694 213.164 697.456C307.004 703.127 331.504 701.081 468.083 673.372C620.575 642.433 727.662 698.715 788.059 667.337C795.555 663.388 797.375 653.075 791.593 646.822C769.212 622.685 679.794 574.303 322.016 572.986C97.0039 572.158 61.5289 613.527 109.504 655.327Z" fill="#A69CC1"/>
<g id="Group">
<path id="Vector_2" d="M519.374 339.843L522.152 619.99C522.152 634.442 526.596 642.779 547.148 645.558C573.256 648.894 581.033 644.447 584.921 637.221C592.142 623.88 662.689 355.963 674.354 337.62C686.019 319.833 519.374 339.843 519.374 339.843Z" fill="#52195D"/>
<path id="Vector_3" d="M781.564 243.127C796.007 243.127 809.338 253.132 812.671 267.584C814.338 275.922 816.004 287.038 816.004 300.379C816.004 316.498 814.893 326.504 811.005 335.397C806.006 345.958 795.451 352.628 783.786 353.184C727.127 355.408 522.155 363.189 479.383 373.195C429.389 384.867 263.3 458.795 263.3 458.795L294.963 84.1548C294.963 84.1548 447.72 208.108 544.929 227.563C620.475 242.015 734.904 243.683 781.564 243.127Z" fill="#B5A9C5"/>
<path id="Vector_4" d="M677.69 357.631C656.582 358.742 634.363 359.854 612.699 360.966C626.031 317.054 621.031 267.028 613.81 237.012C635.474 239.236 657.693 240.347 678.801 241.459C688.8 283.703 687.133 323.724 677.69 357.631Z" fill="#3A1442"/>
<path id="Vector_5" d="M100.545 258.69C99.9891 394.317 164.425 504.93 244.97 505.486C325.515 506.042 391.617 396.54 392.728 261.47C393.839 125.843 329.403 15.2298 248.858 14.674C168.313 14.1181 101.656 123.064 100.545 258.69Z" fill="#A39AB2"/>
<path id="Vector_6" d="M111.653 258.69C110.542 373.751 165.535 467.688 234.415 468.244C302.739 469.356 358.843 375.974 359.954 260.914C361.064 145.854 306.072 51.9158 237.748 51.3599C168.868 50.8041 112.764 143.63 111.653 258.69Z" fill="#52195D"/>
<path id="dunamic" d="M262.186 280.368C259.409 239.236 286.072 203.661 322.178 200.882C334.399 199.771 346.064 203.106 356.618 209.22C358.84 225.895 360.506 242.571 359.951 260.358C359.951 290.929 355.507 319.833 348.286 345.958C343.286 347.625 338.287 349.293 332.732 349.293C296.626 352.628 264.963 320.945 262.186 280.368Z" fill="#418AD2"/>
</g>
<g id="Group_2">
<g id="arm-bag">
<path id="arm-5" d="M478.829 130.289C479.384 125.843 479.384 121.952 477.162 117.505C479.384 118.061 482.161 118.061 482.161 116.949C482.161 115.281 481.606 113.058 482.717 113.058C483.828 113.058 484.939 114.17 486.05 114.726C488.272 116.393 490.494 116.393 493.271 116.393C494.382 119.172 496.604 123.619 494.937 126.954C494.382 128.622 489.938 128.066 487.716 128.622C484.939 129.733 481.606 129.733 478.829 130.289Z" fill="#EDC07D"/>
<path id="arm-1" d="M489.934 130.29V113.059C489.934 113.059 542.149 113.615 563.813 106.944C585.476 100.83 614.917 74.7053 626.582 79.1521C638.247 83.043 645.468 95.2716 631.026 106.389C616.583 117.505 582.144 127.511 567.146 129.734C557.702 131.957 498.266 130.29 489.934 130.29Z" fill="#BD63D4"/>
<path id="arm-2" d="M577.144 119.728C595.475 111.946 612.695 95.2707 627.693 79.707C638.803 84.1538 645.468 95.8266 631.026 106.943C616.583 118.06 582.143 128.066 567.145 130.289C562.146 130.845 544.926 131.401 528.262 130.845C545.482 129.177 562.146 125.842 577.144 119.728Z" fill="#8805A8"/>
<path id="arm-4" d="M484.378 117.505C483.823 117.505 483.267 116.949 482.712 116.949C482.712 115.282 476.046 114.726 474.935 114.17C470.491 111.947 472.158 109.167 474.38 109.723C475.491 110.279 478.823 110.835 479.934 111.391C481.045 111.947 483.267 111.947 484.378 111.947C485.489 111.947 488.822 115.282 489.933 115.838C491.044 117.505 486.6 118.617 484.378 117.505Z" fill="#EDC07D"/>
<g id="bag">
<path id="Vector_7" d="M487.158 127.511C487.158 127.511 478.27 129.734 472.16 134.737C465.494 139.739 458.828 154.191 457.717 164.752C456.606 175.313 453.829 183.095 457.717 188.654C461.606 194.212 474.382 195.324 485.491 195.88C496.601 196.991 511.599 194.212 514.932 190.321C518.265 186.43 517.709 157.526 512.154 146.409C506.044 135.848 496.045 126.955 487.158 127.511Z" fill="#4E9BDB"/>
<path id="Vector_8" d="M502.156 189.766C499.934 189.21 497.712 188.098 496.045 186.987C492.157 183.652 489.935 182.54 484.936 183.096C480.492 183.096 476.048 183.096 472.16 180.316C468.827 178.093 466.605 173.09 467.716 169.2C468.271 166.42 469.382 164.197 471.049 161.418C473.826 158.083 473.826 155.859 473.271 151.412C472.16 146.41 472.16 141.963 473.271 136.96C473.826 134.181 476.048 132.514 477.715 130.846C476.048 131.958 474.382 133.07 472.715 134.181C466.049 139.184 459.384 153.636 458.273 164.197C457.162 174.758 454.384 182.54 458.273 188.098C462.161 193.657 474.937 194.768 486.047 195.324C497.156 196.436 512.154 193.657 515.487 189.766C516.043 189.21 516.598 187.542 516.598 184.763C512.71 189.21 507.711 191.433 502.156 189.766Z" fill="#418AD2"/>
<path id="Vector_9" d="M486.049 129.733C486.049 129.733 476.606 127.51 475.495 120.284C474.384 113.058 477.717 110.834 480.495 112.502C483.272 114.17 483.828 113.058 485.494 111.946C487.716 110.834 490.493 112.502 491.604 114.725C493.271 116.949 493.271 114.17 496.604 114.17C499.936 114.17 501.047 116.949 499.381 121.396C498.826 125.286 497.159 129.733 486.049 129.733Z" fill="#4E9BDB"/>
<g id="Group_3">
<g id="Group_4">
<path id="Vector_10" d="M496.043 125.286C493.821 125.842 494.932 123.063 494.932 121.951C494.376 121.951 493.821 123.063 493.821 123.618C493.265 124.73 492.154 125.286 491.043 125.286C489.377 125.286 489.377 123.618 488.821 122.507C488.821 121.951 488.266 121.951 488.266 122.507C488.266 123.063 488.266 123.618 487.71 124.174C486.599 124.73 484.933 124.174 484.377 123.618C483.822 123.063 483.266 121.951 482.156 120.839V121.395C482.156 122.507 482.156 124.174 480.489 124.174C478.823 123.618 478.267 121.395 477.712 120.283C477.156 119.172 476.601 117.504 476.601 115.837C476.601 115.281 476.601 114.725 476.601 114.169C476.601 113.613 476.601 113.057 477.156 112.501C476.045 113.613 474.934 116.392 475.49 119.727C476.601 125.842 483.266 128.065 485.488 128.621C486.044 128.621 486.044 128.621 486.599 128.621C494.932 128.621 497.709 125.842 499.375 122.507C499.375 123.063 497.154 125.286 496.043 125.286Z" fill="#418AD2"/>
</g>
</g>
<g id="Group_5">
<g id="Group_6">
<path id="Vector_11" d="M489.93 150.3C494.374 150.856 498.818 152.524 498.262 157.526H490.486C490.486 155.859 488.819 155.303 487.708 155.303C487.153 155.303 484.931 155.303 484.931 156.415C484.931 159.75 498.818 156.415 498.818 165.308C498.818 170.311 494.374 172.534 489.375 172.534V178.093H484.931L485.486 172.534C481.042 171.978 476.598 169.755 476.598 164.752H484.375C484.375 166.976 486.597 167.532 487.708 167.532C488.819 167.532 491.041 167.532 491.041 165.864C491.041 162.529 477.154 165.308 477.154 156.97C477.154 151.968 481.042 150.3 486.042 149.744V144.186H490.486L489.93 150.3Z" fill="#F4F4F4"/>
</g>
</g>
<path id="Vector_12" d="M479.381 126.398L478.27 130.845C478.27 130.845 480.492 133.068 487.158 133.068C493.823 133.068 497.156 130.845 497.156 130.845L496.601 126.954C497.156 126.398 488.269 128.621 479.381 126.398Z" fill="#2B6095"/>
</g>
<path id="arm-3" d="M471.044 118.062C469.933 119.729 472.71 126.399 475.488 128.623C477.71 130.846 479.931 130.29 481.598 129.178C483.82 128.067 486.042 127.511 486.597 126.399C487.153 121.397 482.709 125.288 480.487 125.843C480.487 125.843 486.042 123.064 486.042 120.841C486.042 116.394 479.376 121.397 477.154 122.508C478.821 121.952 482.153 119.729 482.153 119.173C483.264 118.062 482.709 116.95 482.153 116.394C480.487 115.282 474.932 119.173 474.932 119.173C476.043 118.617 479.931 116.95 478.265 114.727C477.154 113.615 475.488 114.727 474.377 114.727C473.266 115.282 471.599 116.95 471.044 118.062Z" fill="#FFD290"/>
</g>
<path id="Vector_13" d="M577.705 333.173C577.705 333.173 587.703 349.849 586.592 353.74C584.926 357.631 549.931 378.197 544.931 376.529C539.932 374.862 539.377 369.303 545.487 363.745C551.042 358.742 556.596 357.075 560.485 352.072C563.818 347.625 560.485 336.508 560.485 336.508L577.705 333.173Z" fill="#301036"/>
<path id="Vector_14" d="M637.139 193.655C637.139 193.655 629.918 199.214 622.697 198.658C615.475 197.546 542.152 205.328 534.931 211.442C527.709 217.557 558.261 340.954 558.261 340.954L583.813 336.508C583.813 336.508 574.925 246.46 576.036 245.349C577.703 244.793 616.031 244.793 681.022 244.793C697.131 244.793 714.907 211.442 694.354 188.097L637.139 193.655Z" fill="#54467A"/>
<path id="Vector_15" d="M626.028 55.8076C628.806 54.6959 631.028 53.0284 632.694 51.3608C633.805 59.1427 636.583 72.483 644.359 79.709C644.359 79.709 628.806 86.3791 615.474 83.5999C615.474 83.5999 617.141 65.8128 614.363 57.4751C618.252 58.031 622.14 57.4751 626.028 55.8076Z" fill="#FFD290"/>
<path id="Vector_16" d="M633.805 77.4856C631.583 69.7037 623.251 64.7011 615.474 64.7011C615.474 61.9219 614.919 59.6985 614.363 57.4751C618.252 57.4751 622.14 57.4751 626.028 55.8076C628.806 54.6959 631.028 53.0284 632.694 51.3608C633.805 59.1427 636.583 72.483 644.359 79.709C644.359 79.709 640.471 81.3765 634.916 82.4882C634.916 81.3765 634.361 79.1531 633.805 77.4856Z" fill="#EDC07D"/>
<path id="Vector_17" d="M630.471 13.0064C630.471 13.0064 611.559 6.43672 606.004 10.3276C599.894 14.2186 595.476 26.3467 596.587 33.0169C597.697 39.687 589.921 47.4689 589.365 50.2481C589.365 52.4715 595.476 53.5832 595.476 54.139C595.476 54.6949 596.031 67.4793 604.363 69.1469C616.028 71.9261 631.582 63.0326 636.581 55.8066C641.58 49.1364 648.246 17.4532 630.471 13.0064Z" fill="#FFD290"/>
<path id="Vector_18" d="M592.505 17.3276C593.104 14.3276 593.948 11.9393 594.504 10.8276C595.253 9.32764 596.893 7.43933 598.004 6.32764C600.226 3.54841 607.313 0.827675 612.313 0.327675C621.813 -0.622428 627.142 0.38091 633.252 4.82768C635.474 6.49521 638.534 8.42812 641.004 11.3279C642.115 12.4281 642.559 14.2718 642.004 14.8276C641.448 15.9393 638.059 16.2718 637.504 16.8276C635.837 17.9393 634.919 18.0088 633.252 19.1205C624.92 25.7907 611.589 33.5725 602.145 24.1231C601.034 23.0114 599.923 21.3439 598.812 20.2322C597.146 24.1231 596.035 28.5699 596.035 32.4608C596.035 32.4608 593.061 31.2186 592.505 27.3276C591.505 23.3276 592.005 19.8276 592.505 17.3276Z" fill="#58006D"/>
<path id="Vector_19" d="M635.468 13.5618C637.689 12.4501 640.504 11.8271 644.355 13.0059C649.693 14.6397 652.448 17.8245 653.004 22.8271C653.559 25.6064 653.798 28.5696 653.798 31.3488C653.798 36.3514 653.243 39.6865 651.576 44.6891C649.91 49.1359 647.688 53.5827 643.8 56.9177C640.467 59.697 633.801 63.5879 630.468 61.9203C629.357 61.3645 627.135 52.471 627.691 50.2476C628.246 48.0242 629.357 48.0242 631.024 46.9125C633.801 45.245 637.134 41.9099 634.912 38.019C631.579 33.0164 626.024 35.2397 623.802 42.4657C623.802 42.4657 621.58 46.3567 620.47 45.8008C619.359 45.245 613.248 25.2345 635.468 13.5618Z" fill="#58006D"/>
<path id="Vector_20" d="M632.694 39.1312C632.694 39.1312 629.361 38.0195 627.139 40.7988C624.917 43.578 626.028 47.4689 628.25 45.8014C630.472 44.1338 629.361 43.0221 629.916 41.3546C630.472 40.2429 632.138 39.1312 632.694 39.1312Z" fill="#EDC07D"/>
<path id="Vector_21" d="M703.24 186.431C703.24 186.431 676.577 206.997 622.14 197.548C622.14 197.548 622.14 181.984 617.696 166.421C613.252 150.857 606.031 120.841 606.031 105.278C606.031 87.4904 615.474 79.1528 615.474 79.1528C615.474 79.1528 626.029 88.6021 641.027 76.3735C641.027 76.3735 669.912 83.0437 683.799 116.394C697.686 149.745 703.24 186.431 703.24 186.431Z" fill="#BD63D4"/>
<path id="Vector_22" d="M637.697 102.497C651.584 118.061 638.253 155.302 620.477 176.425C619.922 173.09 619.366 170.31 618.255 166.975C616.033 158.638 612.7 146.965 610.479 134.736C615.478 131.957 619.366 127.51 622.144 120.84C627.143 107.5 630.476 98.6062 637.697 102.497Z" fill="#8805A8"/>
<path id="Vector_23" d="M522.705 207.552C520.483 209.219 518.816 210.887 516.039 210.887C514.928 210.887 513.817 210.887 512.706 211.999C511.595 212.554 509.929 213.11 508.818 213.11C507.707 213.666 506.04 213.666 505.485 214.778C504.374 215.889 506.596 216.445 507.707 216.445C509.373 216.445 513.262 213.666 514.373 214.778C515.484 215.889 510.484 218.669 509.373 219.225C507.151 220.336 504.929 219.225 502.708 219.78C501.041 219.78 500.486 220.336 501.597 221.448C502.152 222.56 503.819 222.56 504.929 222.56C507.151 222.56 509.929 222.56 512.151 221.448C510.484 222.56 507.151 223.115 505.485 223.115C504.374 223.115 498.264 222.56 498.264 224.783C498.264 229.23 511.04 226.45 512.706 224.783C510.484 225.895 508.262 226.451 506.04 227.006C504.929 227.562 501.597 228.118 503.263 229.786C506.04 232.565 512.151 228.118 514.928 226.45C513.262 228.118 511.595 228.674 509.373 229.786C506.596 230.897 508.818 232.565 511.595 231.453C512.706 230.897 514.928 229.786 515.484 229.786C520.483 227.006 522.705 224.227 525.482 219.225C526.593 217.557 530.482 215.334 529.926 213.666C529.926 210.887 525.482 209.219 522.705 207.552Z" fill="#FFD290"/>
<path id="Vector_24" d="M518.824 205.33L529.378 219.782C529.378 219.782 597.147 190.322 603.257 182.54C609.368 174.758 629.365 146.41 632.698 138.628C639.919 120.841 648.807 100.275 632.698 96.384C623.81 94.1606 618.255 96.3839 612.701 109.724C605.479 127.511 589.37 155.304 582.705 164.197C580.483 167.532 518.824 205.33 518.824 205.33Z" fill="#BD63D4"/>
</g>
<g id="sound">
<path id="Vector_25" d="M9.44307 167.532C7.77662 171.423 20.5527 179.761 37.7726 185.875C54.9925 191.99 69.9905 194.213 71.1015 190.322C72.7679 186.431 59.9919 178.094 42.7719 171.979C25.552 165.865 11.1095 164.197 9.44307 167.532Z" fill="#4E9BDB"/>
<path id="Vector_26" d="M40.5544 90.8258C38.888 94.7167 51.1086 103.61 67.773 110.836C84.4375 118.062 99.4355 120.841 101.102 116.951C102.768 113.06 90.5477 104.166 73.8833 96.9401C56.6634 90.2699 42.2209 87.4907 40.5544 90.8258Z" fill="#4E9BDB"/>
<path id="Vector_27" d="M17.2171 372.638C18.328 376.529 33.326 375.417 50.5459 369.859C67.7659 364.3 81.0974 357.074 79.9864 353.183C78.8755 349.292 63.8775 350.404 46.6576 355.963C29.4376 360.965 16.1061 368.747 17.2171 372.638Z" fill="#4E9BDB"/>
<path id="Vector_28" d="M48.8826 455.46C50.5491 459.351 65.5471 456.572 82.2115 449.902C98.8759 443.232 111.652 434.338 109.986 431.003C108.319 427.112 93.3211 429.891 76.6567 436.561C59.9923 443.232 47.2162 452.125 48.8826 455.46Z" fill="#4E9BDB"/>
<path id="Vector_29" d="M0 270.919C0 274.81 14.998 277.59 33.3289 276.478C51.6598 275.366 66.1023 271.475 65.5468 267.584C65.5468 263.693 50.5488 260.914 32.2179 262.026C14.4425 263.138 0 267.028 0 270.919Z" fill="#4E9BDB"/>
</g>
</g>
</svg>
