<svg width="762" height="925" viewBox="0 0 762 925" fill="none" xmlns="http://www.w3.org/2000/svg">
<style>
	* {
		transform-box: fill-box;
	}
	#arm-fist {
		transform-origin: center bottom;
		animation: arm-animation 0.5s linear infinite alternate;
	}
	#arm {
		transform-origin: left bottom;
		animation: arm-animation 0.9s linear infinite alternate;
	}
	@keyframes arm-animation {
        0% {
            transform: rotate(0deg);
        }
        100% {
            transform: rotate(-3deg);
        }
    }
</style>
<g id="profi">
<ellipse id="Ellipse 7" cx="344" cy="870.5" rx="344" ry="54.5" fill="#B0A6CB"/>
<g id="Group 9">
<g id="Group">
<path id="Vector" d="M62.5191 490H724.482C745.118 490 762.001 474.087 762.001 454.637V35.3631C762.001 15.9134 745.118 0 724.482 0H62.5191C41.884 0 25.0008 15.9134 25.0008 35.3631V454.637C25.0008 474.087 41.884 490 62.5191 490Z" fill="#8805A8"/>
</g>
<g id="Group_2">
<path id="Vector_2" d="M51.5457 434.861L730.626 434.861V24.7394L51.5457 24.7394V434.861Z" fill="#F1F1F1"/>
<g id="Mask Group">
<mask id="mask0" mask-type="alpha" maskUnits="userSpaceOnUse" x="51" y="24" width="680" height="411">
<path id="Vector_3" d="M51.5449 434.861L730.625 434.861V24.7394L51.5449 24.7394V434.861Z" fill="white"/>
</mask>
<g mask="url(#mask0)">
<g id="Group_3">
<g id="Group_4">
<path id="Vector_4" d="M215.421 346.392C216.18 348.956 219.599 372.031 244.954 397.481C270.403 422.931 286.357 426.539 289.491 423.215C292.624 419.892 286.452 399.38 271.163 381.717C255.969 364.149 221.878 340.694 221.878 340.694L215.421 346.392Z" fill="#660070"/>
<path id="Vector_5" opacity="0.68" d="M229.855 346.392C225.202 342.498 221.878 340.694 221.878 340.694L215.421 346.297C215.705 347.246 215.99 350.95 218.079 356.078C221.973 352.849 225.866 349.62 229.855 346.392Z" fill="#3B0042"/>
<path id="Vector_6" opacity="0.68" d="M265.656 415.239C268.315 417.138 270.878 418.657 273.158 419.892C276.861 414.479 281.039 409.446 286.167 405.363C285.313 403.368 284.268 401.279 283.129 399.095C275.911 402.989 269.549 408.022 265.656 415.239Z" fill="#3B0042"/>
<path id="Vector_7" opacity="0.23" d="M217.795 344.207L215.326 346.296C216.086 348.86 219.504 371.936 244.859 397.386C270.309 422.835 286.262 426.444 289.396 423.12C290.346 422.171 290.441 419.607 289.681 416.093C283.129 410.49 232.039 365.194 217.795 344.207Z" fill="#660070"/>
<path id="Vector_8" d="M215.419 346.391C208.962 347.341 203.264 348.48 199.466 343.258C194.813 336.895 200.035 333.382 199.561 328.254C198.896 321.511 194.623 322.271 192.249 321.321C190.539 320.657 201.555 312.3 214.28 320.562C227.194 328.918 222.446 341.168 222.446 341.168L215.419 346.391Z" fill="#333333"/>
<path id="Vector_9" opacity="0.21" d="M218.555 328.349C219.599 331.008 220.264 333.761 220.549 336.705C220.739 338.414 220.739 340.314 221.024 342.118L222.353 341.168C222.353 341.168 227.101 328.918 214.186 320.562C213.902 320.372 213.712 320.277 213.427 320.087C215.611 322.556 217.32 325.31 218.555 328.349Z" fill="#333333"/>
<path id="Vector_10" opacity="0.21" d="M198.707 325.025C205.354 327.304 209.248 333.572 210.862 341.358C211.242 343.163 211.527 345.062 211.717 346.866C212.856 346.676 214.091 346.486 215.325 346.296C215.23 346.012 215.135 345.727 215.04 345.442C213.141 338.794 214.186 332.242 209.912 326.165C206.019 320.657 201.081 318.758 195.193 318.473C192.724 319.612 191.585 320.942 192.155 321.227C194.054 321.986 197.282 321.701 198.707 325.025Z" fill="#333333"/>
<path id="Vector_11" opacity="0.21" d="M198.803 332.527C197.758 335.661 196.239 338.699 199.467 343.163C201.082 345.442 203.076 346.486 205.26 346.961C204.405 341.168 202.886 335.376 198.803 332.527Z" fill="#333333"/>
</g>
</g>
<g id="Group_5">
<g id="paint-1">
<path id="Vector_12" d="M136.927 142.93C138.067 154.8 139.017 165.531 129.995 175.691C120.974 185.852 108.819 190.695 114.422 199.527C120.024 208.263 131.325 193.544 135.408 197.343C139.491 201.141 121.069 227.066 137.307 237.606C153.546 248.052 163.612 211.682 168.455 193.924C173.298 176.166 175.577 147.488 174.817 137.232C174.057 126.881 136.453 138.182 136.927 142.93Z" fill="#59447E"/>
</g>
<g id="paint-3">
<path id="Vector_13" d="M240.512 257.59C239.373 270.695 239.278 295.1 249.628 313.807C259.979 332.515 271.375 337.263 279.636 339.067C287.898 340.872 290.842 337.643 287.423 331.66C283.91 325.678 263.208 299.373 265.487 295.29C267.671 291.207 271.47 295.1 278.877 298.329C286.284 301.557 297.014 302.127 298.629 294.91C300.243 287.693 288.088 283.895 278.212 280.856C268.336 277.817 264.727 272.119 272.609 261.958C280.491 251.418 241.082 250.468 240.512 257.59Z" fill="url(#paint0_linear)"/>
</g>
<g id="paint-2">
<path id="Vector_14" d="M306.395 177.169C309.528 169.952 302.881 166.629 301.551 153.429C300.222 140.229 296.519 130.733 289.586 135.196C282.559 139.755 288.637 145.832 282.844 149.915C277.051 153.999 272.493 141.274 268.22 130.638C263.947 120.003 260.338 113.64 252.646 117.913C244.954 122.187 244.29 138.52 253.216 147.826C262.142 157.228 267.935 158.842 267.365 166.344C266.891 172.611 249.513 169.573 250.652 179.638C252.171 192.838 262.427 190.084 276.672 188.185C290.916 186.191 301.267 189.04 306.395 177.169Z" fill="#0054A6"/>
</g>
</g>
<g id="Group_6">
<g id="Group_7">
<path id="Vector_15" d="M712.338 -15.8871C711.958 -7.81541 714.522 1.58579 698.474 4.90944C682.425 8.2331 656.121 8.13814 646.245 24.7564C636.369 41.3747 651.183 61.3166 662.104 53.5298C673.024 45.648 682.425 27.9851 692.776 35.582C703.127 43.084 691.732 55.0492 703.982 57.803C716.232 60.6519 712.908 45.3631 728.007 28.4599C747.094 6.9986 713.003 -32.5054 712.338 -15.8871Z" fill="#8805A8"/>
</g>
<g id="Group_8">
<path id="Vector_16" d="M57.3163 446.371C64.2485 441.149 69.5663 424.055 86.2795 414.939C102.993 405.823 123.694 401.265 122.65 388.35C121.605 375.53 110.78 376.86 100.904 383.602C91.0276 390.344 84.1904 395.662 78.0179 389.489C71.9403 383.317 87.8939 374.201 81.1516 365.654C74.4093 357.013 61.5895 355.018 50.0042 383.697C38.3239 412.28 35.3801 462.99 57.3163 446.371Z" fill="#4E9BDB"/>
</g>
<g id="Group_9">
<path id="Vector_17" d="M58.8283 -8.19513C53.0356 0.0665288 38.0317 17.4445 40.2158 41.0899C42.3049 64.7354 51.1364 71.2877 58.8283 69.0086C66.5201 66.8245 63.1015 47.0725 74.8768 45.2682C86.652 43.464 92.1598 72.7121 104.79 66.1598C117.42 59.6074 101.846 47.8322 107.354 39.6655C112.861 31.4988 133.373 46.8826 138.026 31.9736C142.679 17.0647 116.375 6.90376 114.381 -8.29009C112.577 -23.4839 71.5531 -26.3328 58.8283 -8.19513Z" fill="#333333"/>
</g>
<g id="Group_10">
<path id="Vector_18" d="M572.193 444.715C562.982 436.548 547.123 415.657 541.425 404.261C535.728 392.961 540.571 385.459 550.732 389.637C560.892 393.816 574.187 408.82 582.069 403.407C589.951 397.994 585.487 386.693 581.974 372.544C578.365 358.395 585.013 351.463 593.274 352.032C601.536 352.602 602.106 364.947 604.955 374.443C607.803 383.94 612.457 382.135 618.059 376.722C623.662 371.31 629.455 372.734 630.879 380.426C632.304 388.118 613.406 405.306 617.869 421.734C622.238 438.163 632.683 443.196 630.974 449.083C629.265 454.971 587.956 458.769 572.193 444.715Z" fill="#52195D"/>
</g>
<g id="Group_11">
<path id="Vector_19" d="M320.733 50.4912C316.175 54.0048 321.872 59.7975 325.386 56.2839C328.995 52.7703 324.152 47.9273 320.733 50.4912Z" fill="#4E9BDB"/>
<path id="Vector_20" d="M199.373 124.277C199.278 126.081 209.723 130.924 212.382 128.74C213.997 127.411 212.002 117.25 210.103 116.11C208.299 114.971 199.562 122.378 199.373 124.277Z" fill="#660070"/>
<path id="Vector_21" d="M455.199 37.7666C457.003 37.5767 460.042 26.4662 457.383 24.1871C455.769 22.8577 446.178 26.4662 445.323 28.5554C444.468 30.5496 453.3 38.0515 455.199 37.7666Z" fill="#660070"/>
<path id="Vector_22" d="M327.951 395.392C327.951 394.062 319.879 391.024 318.075 392.828C316.935 393.872 319.024 401.279 320.449 402.039C321.968 402.894 328.046 396.816 327.951 395.392Z" fill="#8805A8"/>
<path id="Vector_23" d="M85.6587 181.408C82.5249 186.535 91.4513 191.948 94.3002 186.63C97.244 181.218 89.1722 175.71 85.6587 181.408Z" fill="#3B0042"/>
<path id="Vector_24" d="M554.659 167.408C551.525 172.535 560.451 177.948 563.3 172.63C566.244 167.218 558.172 161.71 554.659 167.408Z" fill="#4E9BDB"/>
<path id="Vector_25" d="M473.051 404.888C472.956 406.313 480.078 411.251 481.503 410.966C482.832 410.681 487.296 404.508 487.296 403.179C487.296 401.47 480.363 396.912 478.654 397.291C476.945 397.576 473.051 403.464 473.051 404.888Z" fill="#FDBA55"/>
<path id="Vector_26" d="M591.563 203.76C592.418 204.519 599.255 202.43 599.825 201.386C600.3 200.341 598.59 194.358 597.736 193.694C596.596 192.839 590.139 195.023 589.474 196.258C588.809 197.492 590.709 203 591.563 203.76Z" fill="#FDBA55"/>
<path id="Vector_27" d="M417.214 145.928C417.593 146.308 421.012 145.738 421.297 145.263C421.582 144.789 421.107 141.75 420.727 141.37C420.252 140.895 417.024 141.56 416.644 142.13C416.264 142.794 416.834 145.548 417.214 145.928Z" fill="#F899F0"/>
<path id="Vector_28" d="M411.897 369.657C407.909 372.696 412.847 377.824 415.981 374.69C419.114 371.651 414.841 367.378 411.897 369.657Z" fill="#FBBDF5"/>
<path id="Vector_29" d="M627.679 71.1279C625.97 71.1279 625.02 69.8934 624.356 68.9438C623.596 67.8992 623.121 67.3295 622.077 67.3295C621.032 67.3295 620.557 67.9942 619.797 68.9438C619.133 69.8934 618.183 71.1279 616.474 71.1279C614.764 71.1279 613.815 69.8934 613.15 68.9438C612.39 67.8992 611.916 67.3295 610.871 67.3295C609.826 67.3295 609.352 67.9942 608.592 68.9438C607.927 69.8934 606.978 71.1279 605.268 71.1279C603.559 71.1279 602.609 69.8934 601.945 68.9438C601.185 67.8992 600.71 67.3295 599.666 67.3295C599.286 67.3295 599.001 67.0446 599.001 66.6647C599.001 66.2849 599.286 66 599.666 66C601.375 66 602.325 67.2345 602.989 68.1841C603.749 69.2287 604.224 69.7985 605.268 69.7985C606.313 69.7985 606.788 69.1337 607.547 68.1841C608.212 67.2345 609.162 66 610.871 66C612.58 66 613.53 67.2345 614.195 68.1841C614.954 69.2287 615.429 69.7985 616.474 69.7985C617.518 69.7985 617.993 69.1337 618.753 68.1841C619.418 67.2345 620.367 66 622.077 66C623.786 66 624.735 67.2345 625.4 68.1841C626.16 69.2287 626.635 69.7985 627.679 69.7985C628.724 69.7985 629.199 69.1337 629.958 68.1841C630.623 67.2345 631.573 66 633.282 66C633.662 66 633.947 66.2849 633.947 66.6647C633.947 67.0446 633.662 67.3295 633.282 67.3295C632.237 67.3295 631.763 67.9942 631.003 68.9438C630.338 69.8934 629.389 71.1279 627.679 71.1279Z" fill="#4E9BDB"/>
<path id="Vector_30" d="M171.359 255.419C169.65 255.419 168.7 254.184 168.035 253.235C167.276 252.19 166.801 251.62 165.756 251.62C164.712 251.62 164.237 252.285 163.477 253.235C162.812 254.184 161.863 255.419 160.153 255.419C158.444 255.419 157.495 254.184 156.83 253.235C156.07 252.19 155.595 251.62 154.551 251.62C153.506 251.62 153.031 252.285 152.272 253.235C151.607 254.184 150.657 255.419 148.948 255.419C147.239 255.419 146.289 254.184 145.624 253.235C144.865 252.19 144.39 251.62 143.345 251.62C142.965 251.62 142.681 251.336 142.681 250.956C142.681 250.576 142.965 250.291 143.345 250.291C145.055 250.291 146.004 251.526 146.669 252.475C147.429 253.52 147.903 254.089 148.948 254.089C149.993 254.089 150.467 253.425 151.227 252.475C151.892 251.526 152.841 250.291 154.551 250.291C156.26 250.291 157.21 251.526 157.874 252.475C158.634 253.52 159.109 254.089 160.153 254.089C161.198 254.089 161.673 253.425 162.433 252.475C163.097 251.526 164.047 250.291 165.756 250.291C167.466 250.291 168.415 251.526 169.08 252.475C169.84 253.52 170.314 254.089 171.359 254.089C172.404 254.089 172.878 253.425 173.638 252.475C174.303 251.526 175.252 250.291 176.962 250.291C177.342 250.291 177.626 250.576 177.626 250.956C177.626 251.336 177.342 251.62 176.962 251.62C175.917 251.62 175.442 252.285 174.683 253.235C173.923 254.279 173.068 255.419 171.359 255.419Z" fill="#A69DC1"/>
<path id="Vector_31" d="M440.289 419.512C438.58 419.512 437.63 418.278 436.966 417.328C436.206 416.283 435.731 415.714 434.687 415.714C433.642 415.714 433.167 416.378 432.408 417.328C431.743 418.278 430.793 419.512 429.084 419.512C427.375 419.512 426.425 418.278 425.76 417.328C425.001 416.283 424.526 415.714 423.481 415.714C422.437 415.714 421.962 416.378 421.202 417.328C420.537 418.278 419.588 419.512 417.878 419.512C416.169 419.512 415.22 418.278 414.555 417.328C413.795 416.283 413.32 415.714 412.276 415.714C411.896 415.714 411.611 415.429 411.611 415.049C411.611 414.669 411.896 414.384 412.276 414.384C413.985 414.384 414.935 415.619 415.599 416.568C416.359 417.613 416.834 418.183 417.878 418.183C418.923 418.183 419.398 417.518 420.158 416.568C420.822 415.619 421.772 414.384 423.481 414.384C425.19 414.384 426.14 415.619 426.805 416.568C427.565 417.613 428.039 418.183 429.084 418.183C430.128 418.183 430.603 417.518 431.363 416.568C432.028 415.619 432.977 414.384 434.687 414.384C436.396 414.384 437.346 415.619 438.01 416.568C438.77 417.613 439.245 418.183 440.289 418.183C441.334 418.183 441.809 417.518 442.568 416.568C443.233 415.619 444.183 414.384 445.892 414.384C446.272 414.384 446.557 414.669 446.557 415.049C446.557 415.429 446.272 415.714 445.892 415.714C444.848 415.714 444.373 416.378 443.613 417.328C442.853 418.278 441.999 419.512 440.289 419.512Z" fill="#F784ED"/>
<path id="Vector_32" d="M677.464 309.946C677.084 309.946 676.799 309.661 676.799 309.281C676.799 308.237 676.135 307.762 675.185 307.002C674.235 306.337 673.001 305.388 673.001 303.678C673.001 301.969 674.235 301.019 675.185 300.355C676.23 299.595 676.799 299.12 676.799 298.076C676.799 297.031 676.135 296.556 675.185 295.797C674.235 295.132 673.001 294.182 673.001 292.473C673.001 290.764 674.235 289.814 675.185 289.149C676.23 288.39 676.799 287.915 676.799 286.87C676.799 285.826 676.135 285.351 675.185 284.591C674.235 283.926 673.001 282.977 673.001 281.267C673.001 279.558 674.235 278.609 675.185 277.944C676.23 277.184 676.799 276.709 676.799 275.665C676.799 275.285 677.084 275 677.464 275C677.844 275 678.129 275.285 678.129 275.665C678.129 277.374 676.894 278.324 675.945 278.988C674.9 279.748 674.33 280.223 674.33 281.267C674.33 282.312 674.995 282.787 675.945 283.547C676.894 284.211 678.129 285.161 678.129 286.87C678.129 288.58 676.894 289.529 675.945 290.194C674.9 290.954 674.33 291.428 674.33 292.473C674.33 293.518 674.995 293.992 675.945 294.752C676.894 295.417 678.129 296.366 678.129 298.076C678.129 299.785 676.894 300.735 675.945 301.399C674.9 302.159 674.33 302.634 674.33 303.678C674.33 304.723 674.995 305.198 675.945 305.957C676.894 306.622 678.129 307.572 678.129 309.281C678.129 309.661 677.844 309.946 677.464 309.946Z" fill="#8805A8"/>
</g>
</g>
</g>
</g>
</g>
</g>
<g id="Group_12">
<g id="Group_13">
<g id="Group_14">
<path id="Vector_33" d="M352.96 240.765C352.96 240.765 353.191 253.216 358.961 251.371C363.808 249.757 362.192 243.302 362.192 243.302C362.192 243.302 355.499 231.081 362.192 229.698C363.115 229.467 368.424 237.768 370.962 241.918C371.886 243.532 372.347 245.377 371.886 246.991L367.962 266.358C367.27 270.047 365.423 273.275 363.115 276.042L359.423 280.192L361.961 290.107L335.881 299.099L334.035 266.128L331.265 246.53C331.496 244.454 332.881 242.61 334.727 241.457L337.035 240.304L337.266 237.537C337.266 235.923 338.42 234.54 339.805 233.848L341.19 233.157L344.882 231.312C346.267 230.62 345.113 213.328 346.498 213.789C346.498 213.789 349.498 212.175 350.191 214.711" fill="#FFD48D"/>
</g>
<g id="Group_15">
<g id="Group_16">
<g id="Group_17">
<path id="Vector_34" d="M335.189 248.374C335.189 248.374 334.958 247.913 335.189 246.991C335.42 246.299 335.882 245.146 337.036 244.685H337.266V244.455C337.266 244.224 337.266 244.224 337.266 243.994C337.266 241.227 337.266 238.69 337.266 238.69C337.036 238.69 337.036 240.996 336.805 243.994C336.805 244.224 336.805 244.224 336.805 244.455L337.036 244.224C335.651 244.916 334.958 246.069 334.958 246.991C334.728 247.913 335.189 248.605 335.189 248.374Z" fill="#FCC179"/>
</g>
</g>
</g>
<g id="Group_18">
<g id="Group_19">
<path id="Vector_35" d="M346.499 230.62C346.499 230.62 345.345 231.312 344.653 233.387C343.96 235.231 343.729 238.229 343.96 241.457C343.96 242.148 343.96 243.071 343.96 243.993C343.729 244.915 343.268 245.607 343.037 246.068C342.114 247.221 341.652 248.374 341.652 249.296C341.652 251.371 342.576 252.293 342.576 252.524C342.576 252.524 341.422 251.602 341.191 249.296C341.191 248.143 341.652 246.76 342.345 245.607C342.806 244.915 343.037 244.454 343.268 243.762C343.499 243.071 343.268 242.379 343.268 241.457C343.037 238.229 343.499 235.231 344.191 233.156C344.883 231.081 346.499 230.62 346.499 230.62Z" fill="#FCC179"/>
</g>
</g>
</g>
<g id="Group_20">
<path id="Vector_36" d="M518.903 862.838L516.134 795.512L476.898 796.434L479.898 868.833L519.134 867.911L518.903 862.838Z" fill="#340734"/>
<g id="Group_21" opacity="0.3">
<g id="Group_22" opacity="0.3">
<g id="Group_23" opacity="0.3">
<path id="Vector_37" opacity="0.3" d="M517.057 816.033L517.288 824.103L478.052 824.794L477.822 818.8L517.057 816.033Z" fill="black"/>
</g>
</g>
</g>
</g>
<g id="Group_24">
<g id="Group_25">
<g id="Group_26">
<g id="Group_27">
<g id="Group_28">
<g id="Group_29">
<g id="Group_30">
<path id="Vector_38" d="M412.735 841.165C414.351 841.626 415.505 843.47 415.274 845.084C414.812 846.698 412.966 848.082 411.35 847.621C409.735 847.159 408.119 845.084 408.811 843.47C409.273 841.856 411.581 840.473 413.197 841.395" fill="#E0E0E0"/>
</g>
</g>
</g>
</g>
<path id="Vector_39" d="M427.737 869.064V868.833L427.507 800.354L384.809 800.816L386.655 844.854C386.655 844.854 354.501 859.255 351.501 860.755C348.501 862.255 346.501 863.755 345.001 864.755C343.501 865.755 340.958 866.989 341.419 869.755H342.112L427.737 869.064Z" fill="#340734"/>
</g>
<g id="Group_31">
<g id="Group_32">
<g id="Group_33">
<g id="Group_34">
<path id="Vector_40" d="M385.27 825.486C385.27 825.717 386.885 825.948 389.655 825.486C391.04 825.256 392.424 824.795 394.271 824.103C395.194 823.642 395.886 823.181 396.81 822.72C397.271 822.489 397.733 822.258 398.194 821.797C398.656 821.336 398.887 820.183 398.425 819.492C397.963 818.8 397.271 818.569 396.579 818.569C395.886 818.569 395.425 818.8 394.963 818.8C394.04 819.03 393.117 819.261 392.194 819.722C390.578 820.414 389.193 821.336 388.27 822.258C386.193 824.103 385.5 825.717 385.731 825.717C385.962 825.948 386.885 824.564 388.962 822.95C389.886 822.258 391.27 821.336 392.886 820.644C393.578 820.414 394.502 819.953 395.425 819.953C396.348 819.722 397.04 819.722 397.271 820.183C397.271 820.414 397.271 820.414 397.271 820.644C397.04 820.875 396.809 821.106 396.348 821.336C395.655 821.797 394.732 822.258 394.04 822.72C392.655 823.411 391.04 824.103 389.886 824.334C386.885 825.025 385.27 825.256 385.27 825.486Z" fill="#263238"/>
</g>
</g>
</g>
</g>
<g id="Group_35">
<g id="Group_36">
<g id="Group_37">
<g id="Group_38">
<path id="Vector_41" d="M385.731 826.178C385.962 826.178 386.654 824.795 386.885 822.028C386.885 820.644 386.885 819.031 386.193 817.417C385.962 816.494 385.5 815.572 385.039 814.88C384.577 813.958 383.885 812.805 382.269 812.805C381.346 812.805 380.654 813.497 380.423 813.958C380.192 814.65 380.192 815.111 379.961 815.572C379.73 816.494 379.73 817.647 379.961 818.569C380.192 820.414 381.115 822.028 381.808 822.95C383.423 825.256 385.27 825.717 385.27 825.486C385.5 825.256 383.885 824.564 382.731 822.258C382.038 821.106 381.577 819.722 381.346 818.108C381.346 817.417 381.346 816.494 381.346 815.572C381.577 814.65 381.808 813.958 382.269 813.958C382.731 813.958 383.423 814.65 383.885 815.341C384.346 816.033 384.577 816.955 385.039 817.647C385.5 819.261 385.731 820.644 385.962 822.028C385.962 824.334 385.5 825.948 385.731 826.178Z" fill="#263238"/>
</g>
</g>
</g>
</g>
</g>
<g id="Group_39" opacity="0.3">
<g id="Group_40" opacity="0.3">
<g id="Group_41" opacity="0.3">
<path id="Vector_42" opacity="0.3" d="M427.736 826.87V833.556H386.424V827.331L427.736 826.87Z" fill="black"/>
</g>
</g>
</g>
<g id="Group_42" opacity="0.3">
<g id="Group_43" opacity="0.3">
<g id="Group_44" opacity="0.3">
<path id="Vector_43" opacity="0.3" d="M517.288 825.255L517.749 832.864H478.514L478.052 825.486L517.288 825.255Z" fill="black"/>
</g>
</g>
</g>
</g>
<g id="Group_45">
<g id="Group_46">
<g id="Group_47">
<g id="Group_48">
<g id="Group_49">
<g id="Group_50">
<g id="Group_51">
<g id="Group_52">
<g id="Group_53">
<path id="Vector_44" d="M422.198 235.693L474.128 235.001L468.358 190.732C468.358 190.732 471.82 190.04 472.05 170.673C472.281 151.535 473.204 118.795 473.204 118.795C450.817 109.341 425.199 112.569 406.042 127.326L403.273 129.631L422.198 235.693Z" fill="#FFD48D"/>
</g>
</g>
</g>
</g>
</g>
</g>
</g>
</g>
<g id="Group_54">
<g id="Group_55">
<g id="Group_56">
<g id="Group_57">
<g id="Group_58">
<g id="Group_59">
<path id="Vector_45" d="M409.275 153.15C409.044 152.92 396.12 149.23 396.581 162.373C397.043 175.515 410.198 172.287 410.198 172.057C409.967 171.826 409.275 153.15 409.275 153.15Z" fill="#FFD48D"/>
</g>
</g>
</g>
</g>
</g>
</g>
<g id="Group_60">
<g id="Group_61">
<g id="Group_62">
<g id="Group_63">
<g id="Group_64">
<g id="Group_65">
<path id="Vector_46" d="M471.127 150.383C471.358 150.153 483.129 147.155 482.667 160.298C482.206 173.44 469.05 170.212 469.05 169.982C469.281 169.521 471.127 150.383 471.127 150.383Z" fill="#FFD48D"/>
</g>
</g>
</g>
</g>
</g>
</g>
<g id="Group_66">
<g id="Group_67">
<path id="Vector_47" d="M405.12 149.691C405.12 149.922 405.12 150.152 405.12 150.383C406.967 161.219 406.505 168.598 408.352 175.976C411.814 189.81 419.43 199.955 434.201 205.489C443.433 208.947 453.819 206.641 461.204 200.185C467.436 194.652 471.821 188.426 472.744 180.126C473.667 171.826 474.59 157.3 474.59 148.999C474.59 134.012 475.744 119.717 475.744 119.717L433.047 111.878L408.582 126.404L405.12 149.691Z" fill="#3B0042"/>
</g>
</g>
<g id="Group_68">
<g id="Group_69">
<path id="Vector_48" d="M407.66 171.595C406.506 160.298 405.121 146.464 403.275 134.474C402.582 130.093 400.967 123.637 401.429 119.026C401.89 114.415 402.352 109.803 404.198 105.884C406.737 100.811 411.584 96.8914 417.354 95.7386C422.893 94.5857 428.893 96.1997 433.279 99.8888C436.51 95.2774 442.51 92.7412 448.05 94.1246C453.589 95.2774 457.974 100.35 458.666 105.884C461.667 102.886 466.744 102.425 470.437 104.731C474.13 106.806 475.976 111.648 474.822 115.567C477.822 116.029 480.592 118.334 481.977 121.101C483.131 123.868 482.9 127.326 481.284 130.093C479.207 133.091 475.745 134.935 473.437 137.702C470.899 141.16 470.668 146.002 472.745 149.461" fill="#3B0042"/>
</g>
</g>
</g>
<g id="Group_70">
<g id="Group_71">
<g id="Group_72">
<path id="Vector_49" d="M451.51 520.906L464.204 642.415L473.205 825.717H521.673L523.057 435.826L384.348 445.51L355.729 650.255L380.655 829.175H433.739L421.276 659.016L451.51 520.906Z" fill="#59447E"/>
</g>
</g>
</g>
<g id="Group_73">
<path id="Vector_50" d="M354.807 278.81L335.65 285.727L315.109 345.444L356.884 310.167L354.807 278.81Z" fill="#660070"/>
<g id="Group_74">
<g id="Group_75">
<path id="Vector_51" d="M378.117 239.843C378.117 239.843 368.193 246.069 362.423 259.672C358.269 269.587 332.188 314.086 317.417 339.91C312.109 349.363 311.647 365.733 319.033 373.573C328.034 383.026 338.882 379.337 351.806 374.956C357.807 373.112 384.118 332.532 384.118 332.532L378.117 239.843Z" fill="#660070"/>
</g>
</g>
<g id="Group_76">
<g id="Group_77">
<path id="Vector_52" d="M390.349 415.998L374.193 276.966L378.117 239.844L419.429 222.321L472.744 218.862L523.519 224.396L511.518 367.118L524.673 447.586L382.271 454.042L390.349 415.998Z" fill="#660070"/>
</g>
</g>
<path id="Vector_53" d="M493.977 230.39C492.592 224.396 488.899 219.093 485.437 214.251C482.899 210.792 479.898 207.103 475.744 207.103C472.282 207.103 469.512 209.409 466.743 211.253C451.972 221.859 434.893 220.707 418.506 213.328L418.045 211.023C416.429 209.87 410.197 215.634 409.043 218.631C407.889 221.859 408.12 225.318 408.813 228.776C411.351 241.227 418.275 252.986 428.43 260.825C438.586 268.434 452.203 271.893 464.666 269.356C477.129 266.59 488.207 257.597 492.592 245.377C494.208 240.535 494.9 235.463 493.977 230.39Z" fill="#660070"/>
<g id="Group_78" opacity="0.3">
<path id="Vector_54" opacity="0.3" d="M471.36 208.025C475.283 216.787 478.284 224.857 474.36 233.618C470.898 241.227 462.128 245.608 453.819 245.377C445.51 244.916 437.663 240.536 431.663 234.771C425.662 229.007 421.046 221.859 416.43 214.712L417.815 211.484L418.276 213.098C418.276 213.098 438.125 222.551 451.973 217.709C466.975 212.637 471.36 208.025 471.36 208.025Z" fill="#660070"/>
</g>
</g>
<g id="arm">
<g id="arm-fist">
<g id="Group_79">
<g id="Group_80">
<g id="Group_81">
<path id="Vector_55" d="M644.689 73.1423L651.613 74.9868L649.305 84.9013C649.305 84.9013 644.459 96.6602 639.612 93.6628C635.227 90.896 638.458 84.9013 638.458 84.9013C638.458 84.9013 647.921 74.5257 641.689 71.7589C640.766 71.2977 633.611 77.9842 630.149 81.4427C628.764 82.5956 628.072 84.4401 628.072 86.2847L627.149 106.114C626.918 109.803 627.841 113.492 629.457 116.72L632.226 121.562L627.38 130.554L650.459 145.541L660.384 113.953L667.769 95.5074C668 93.4323 667.077 91.1266 665.461 89.7432L663.384 88.1292L663.846 85.5929C664.076 83.979 663.615 82.365 662.23 81.4427L661.076 80.5205L662.23 76.3702C662.461 74.5257 664.769 67.3781 651.152 67.8392C651.152 67.8392 644.228 67.6086 643.535 69.9143C642.843 71.2977 643.074 72.6811 644.689 73.1423Z" fill="#FFD68B"/>
</g>
</g>
<g id="Group_82">
<g id="Group_83">
<g id="Group_84">
<path id="Vector_56" d="M658.307 96.1991C658.307 96.1991 658.769 95.2769 659.23 93.8935C659.692 92.2795 659.692 90.2044 658.538 87.8987C658.769 85.3624 659.461 83.2873 659.923 81.6734C660.384 80.0594 661.077 79.3677 661.077 79.3677C661.077 79.3677 660.615 80.2899 660.153 81.9039C659.692 83.2873 659.23 85.593 658.999 87.8987C659.23 88.3598 659.461 89.0515 659.461 89.5127C659.692 89.9738 659.692 90.6655 659.692 91.1266C659.692 92.2795 659.692 93.2018 659.461 93.8935C659.23 94.5852 658.999 95.2769 658.769 95.738C658.538 95.9686 658.307 96.1991 658.307 96.1991Z" fill="#FCC179"/>
</g>
</g>
</g>
<g id="Group_85">
<g id="Group_86">
<g id="Group_87">
<path id="Vector_57" d="M662.923 96.4301C662.923 96.4301 663.154 95.9689 663.154 95.0466C663.154 94.3549 662.923 92.9715 661.769 92.2798V92.0493C661.769 91.8187 661.769 91.8187 661.769 91.5881C662.461 88.8213 662.923 86.5156 663.154 86.5156C663.385 86.5156 662.923 88.8213 662.231 91.5881C662.231 91.8187 662.231 91.8187 662.231 92.0493V91.8187C663.385 92.741 663.615 94.1244 663.615 95.0466C663.615 95.9689 663.154 96.4301 662.923 96.4301Z" fill="#FCC179"/>
</g>
</g>
</g>
</g>
<g id="Group_88">
<path id="Vector_58" d="M639.382 64.1502L667.77 119.025C668.462 120.409 668.001 122.023 666.616 122.945C665.231 123.637 663.615 123.176 662.692 121.792L634.304 66.6865L634.073 60L639.382 64.1502Z" fill="#4E9BDB"/>
</g>
<path id="Vector_59" d="M627.38 96.1988L628.072 82.5953L641.228 71.0669C641.228 71.0669 644.459 73.3726 644.228 75.6783C643.766 77.9839 638.227 84.901 638.227 84.901C638.227 84.901 635.688 88.1289 637.535 91.3569" fill="#FFD68B"/>
</g>
<g id="arm-main">
<g id="Group_89">
<path id="Vector_60" d="M622.764 123.868L585.144 183.354L524.675 215.173C524.675 215.173 514.981 209.639 510.365 210.561C505.749 211.484 501.595 216.326 501.595 216.326L510.827 294.027L533.676 277.195L611.685 233.618L657.383 147.155L622.764 123.868Z" fill="#660070"/>
</g>
</g>
</g>
</g>
</g>
<defs>
<linearGradient id="paint0_linear" x1="280.102" y1="325.951" x2="258.023" y2="251.511" gradientUnits="userSpaceOnUse">
<stop stop-color="#5C64DC"/>
<stop offset="1" stop-color="#3C37BE"/>
</linearGradient>
</defs>
</svg>
