<?xml version="1.0" encoding="utf-8"?>
<!-- Generator: Adobe Illustrator 21.0.0, SVG Export Plug-In . SVG Version: 6.00 Build 0)  -->
<svg version="1.1" id="Слой_1" xmlns="http://www.w3.org/2000/svg" xmlns:xlink="http://www.w3.org/1999/xlink" x="0px" y="0px"
	 width="200px" height="86px" viewBox="0 0 200 86" style="enable-background:new 0 0 200 86;" xml:space="preserve">
<style type="text/css">
	.st0-logo{fill:#FF9929;}
	.st1-logo{fill:#66B957;}
	.st2-logo{fill:#FFC33F;}
	.st3-logo{fill:#FB433A;}
	.st4-logo{fill:#1C1C1C;}
	.st5-logo{fill:#DCDCDC;}
	.st6-logo{fill:#FFFFFF;}
</style>
<g>
	<path class="st0-logo" d="M103.7,34.4c0.3-1,0.6-2.3,0.9-3.6c-8,0.4-21.9-1.4-29.6-3.9c-0.5,1.1-0.9,2.2-1.3,3.4
		C83.2,31.9,93.8,33.4,103.7,34.4z"/>
	<path class="st1-logo" d="M105.2,28.1c-7.5,0.5-21-1.1-29.1-3.4c-0.2,0.4-0.4,0.9-0.6,1.3c7.7,2.5,21.6,4.2,29.4,3.8
		C105,29.2,105.1,28.7,105.2,28.1z"/>
	<path class="st0-logo" d="M104.2,8.9c-4.9-3.8-18.7-2.4-27.6,14.8c8.2,2.3,21.7,3.9,28.9,3.3C106.8,20.1,107.6,11.8,104.2,8.9z"/>
	<path class="st2-logo" d="M120.6,35.7c-3.7-1-7.4-2-11.1-2.6c5,0.4,10.1,1.4,15,2.7c1.9,0,3.6,0,5.1-0.1c-9.4-3-14.8-4.3-19.1-5.1
		c7.1,0.6,15.9,2.7,22.1,4.8c1-0.1,1.8-0.3,2.4-0.5c-4.6-1.7-15.5-5.2-24.3-6.8c7,0.6,15.9,2.7,22,4.7c-6.3-3.1-18.5-5.9-24.1-7
		c-0.5,3.3-1.2,6.5-1.9,9.1C111.7,35.2,116.4,35.5,120.6,35.7z"/>
	<path class="st2-logo" d="M46.4,23.1c0.3,0.3,0.8,0.6,1.5,0.9c7-0.5,16.5-0.3,23.5,0.9c-6.5-0.5-14.3-0.3-20.8,0.1
		c1.2,0.4,2.6,0.8,4.2,1.3c5.3,0,10.8,0.3,15.9,1.2c-2.8-0.2-5.6-0.4-12.2-0.2c4,1,8.7,1.9,13.8,2.8c1.2-3.6,2.6-6.7,4.2-9.4
		c-6-0.5-26.8-2-30.2,1.3c3.2-0.3,14.9-1.4,26.3,0.7C64,21.9,51.5,22.5,46.4,23.1z"/>
	<path class="st3-logo" d="M111.9,47.8l-6.1-7.8L96,46.6l-5.5-8.8l-8.8,6.8l-6.1-9.7l-10.4,6.2L58,31.2l-9,6.5c0.5,1,0.9,1.6,1.2,1.8
		c18.1,7.1,73.8,11.4,74.9,10.7c0.4-0.2,1-0.9,1.7-1.7l-5.2-7.3L111.9,47.8z"/>
	<path class="st2-logo" d="M45.7,23.8c-0.2,4.3,1.5,9.7,2.9,12.9l9.6-6.9l7.2,9.9l10.5-6.2l6.1,9.6l8.8-6.8l5.5,8.9l9.8-6.6l6.1,7.8
		l9.8-6.7l5.6,7.9c2-2.5,4.6-6.4,6.6-9.6C117.2,40.6,52.4,29.1,45.7,23.8z"/>
	<g>
		<path class="st2-logo" d="M102.6,11.5c-3.6,8.7-13.6,12.8-22.3,9.1c-0.5-0.2-1-0.5-1.5-0.7c8.5-13,19.9-14.3,24.7-11.4
			C103.3,9.5,103,10.5,102.6,11.5z"/>
	</g>
	<g>
		<g>
			<path class="st0-logo" d="M106.7,34.7c2.1,0.2,4.1,0.4,6,0.5c0.1-0.5,0.3-1,0.4-1.5c-1.2-0.3-2.4-0.5-3.6-0.7c1.2,0.1,2.4,0.2,3.7,0.4
				c0.1-0.8,0.3-1.5,0.3-2.3c-1.1-0.2-2.1-0.4-3-0.6c1,0.1,2,0.2,3.1,0.3c0.1-0.8,0.1-1.6,0-2.3c-1-0.2-1.9-0.4-2.9-0.6
				c0.9,0.1,1.9,0.2,2.9,0.3c0-0.5-0.1-1.1-0.2-1.6c-1.9-0.4-3.5-0.8-4.8-1.1C108.1,29,107.3,32.2,106.7,34.7z"/>
		</g>
	</g>
	<g>
		<path class="st3-logo" d="M111.9,47.8l-6.1-7.8l-9.5,6.4c-0.3,0.5-0.7,1-1,1.6c15.8,1.8,29.3,2.6,29.9,2.2c0.4-0.2,1-0.9,1.7-1.7
			l-5.2-7.3L111.9,47.8z"/>
	</g>
	<g>
		<path class="st0-logo" d="M101.8,36.2c-1.2,2.7-2.6,5.4-4.2,8.1l8.5-5.7l6.1,7.8l9.8-6.7l5.6,7.9c2-2.5,4.6-6.4,6.6-9.6
			C128,38.9,115.5,38,101.8,36.2z"/>
	</g>
	<path class="st4-logo" d="M90.4,49.4c14.7,1.9,34.5,3.8,35.7,3.4c-0.1,0,0.1,0,0.1,0c3-1.2,10.5-12.6,12.5-17c0.6-1.2,0.2-2.6-1.6-3.8
		c-4.4-2.9-21.4-6.7-28.3-8.1c0.9-7.2,0.6-14.6-3.9-17.4c0,0-0.1,0-0.1,0c-7.4-3.8-19.4-0.7-27.7,12.8c-5.2-0.4-32.3-2.2-32.3,3.1
		c-0.7,4.3,0.6,10.1,2.2,14.2c1.6,4.2,2.7,4.3,2.7,4.3C53.3,43.1,66.9,46.4,90.4,49.4z M132.7,32.7c-6-2-14.9-4.1-22-4.7
		c8.9,1.6,19.7,5.1,24.3,6.8c-0.7,0.2-1.5,0.4-2.4,0.5c-6.2-2-15-4.2-22.1-4.8c4.3,0.8,9.8,2,19.1,5.1c-1.5,0.1-3.2,0.1-5.1,0.1
		c-4.9-1.3-10-2.3-15-2.7c3.6,0.7,7.4,1.6,11.1,2.6c-4.2-0.1-8.9-0.5-13.9-0.9c0.6-2.6,1.4-5.8,1.9-9.1
		C114.2,26.8,126.4,29.6,132.7,32.7z M103.7,34.4c-9.8-1-20.5-2.5-30-4.1c0.4-1.2,0.9-2.3,1.3-3.4c7.7,2.5,21.5,4.2,29.6,3.9
		C104.3,32.2,104,33.4,103.7,34.4z M104.2,8.9c3.4,2.8,2.6,11.2,1.3,18.2c-7.2,0.6-20.7-1-28.9-3.3C85.5,6.5,99.3,5.2,104.2,8.9z
		 M76.1,24.7c8.1,2.3,21.6,3.9,29.1,3.4c-0.1,0.6-0.2,1.1-0.4,1.6C97,30.2,83.1,28.5,75.4,26C75.6,25.6,75.8,25.1,76.1,24.7z
		 M76.4,20.6c-1.6,2.7-3,5.9-4.2,9.4c-5.1-0.9-9.8-1.9-13.8-2.8c6.6-0.2,9.4,0,12.2,0.2c-5.1-0.9-10.6-1.2-15.9-1.2
		c-1.6-0.4-3-0.9-4.2-1.3c6.6-0.4,14.3-0.6,20.8-0.1c-7-1.2-16.4-1.4-23.5-0.9c-0.6-0.3-1.1-0.6-1.5-0.9c5.1-0.5,17.6-1.2,26.1-0.5
		c-11.4-2-23.2-0.9-26.3-0.7C49.6,18.6,70.4,20,76.4,20.6z M45.7,23.8c6.7,5.3,71.5,16.8,88.4,14.2c-1.9,3.2-4.6,7.1-6.6,9.6
		l-5.6-7.9l-9.8,6.7l-6.1-7.8l-9.8,6.6l-5.5-8.9L82,43.1l-6.1-9.6l-10.5,6.2l-7.2-9.9l-9.6,6.9C47.2,33.5,45.5,28.1,45.7,23.8z
		 M50.3,39.5c-0.3-0.2-0.7-0.9-1.2-1.8l9-6.5l7.1,9.9l10.4-6.2l6.1,9.7l8.8-6.8l5.5,8.8l9.9-6.6l6.1,7.8l9.8-6.6l5.2,7.3
		c-0.7,0.9-1.3,1.5-1.7,1.7C124.1,50.9,68.4,46.6,50.3,39.5z"/>
</g>
<g>
	<g>
		<path class="st3-logo" d="M14.2,77.5c1.2,0.7,2.6,1.3,4.4,2c0,0,0.1,0,0.2,0c0.2,0,0.3,0,0.5-0.1c0.2-0.1,0.3-0.2,0.3-0.4
			c0.8-1.3,1.6-2.5,2.3-3.8c0.7-1.2,1.4-2.5,2.2-3.9l1.6,0.1c0.5,0,1,0,1.6,0c0.6,0,1.2,0,1.7,0c0.5,0,0.9,0,1.2,0c0.3,0,0.7,0,1,0
			c0.3,0,0.7,0,1.2,0c0.5,0,1,0,1.8,0c0.2,0,0.5,0,0.7,0c0.3,0,0.5,0,0.8,0.1c0.2,0,0.4,0.1,0.6,0.2c0.2,0.1,0.3,0.1,0.3,0.2
			c0,0.8,0.1,1.5,0.2,2.1c0.1,0.6,0.2,1.1,0.3,1.6c0.1,0.5,0.2,1,0.3,1.5c0.1,0.5,0.2,1.1,0.3,1.7c0,0.2,0.1,0.3,0.1,0.5
			c0.1,0.2,0.3,0.2,0.5,0.2h0.2c0.1,0,0.4,0,0.7-0.1c0.3-0.1,0.7-0.2,1.2-0.3c0.4-0.1,0.9-0.3,1.4-0.5c0.5-0.2,1-0.3,1.5-0.5l6.6-2
			c0.4-0.1,0.6-0.2,0.6-0.3c0-0.1,0-0.2-0.1-0.3c-0.1-0.1-0.2-0.3-0.3-0.5c-0.1-0.2-0.2-0.5-0.3-1c-0.1-0.4-0.2-1-0.2-1.6
			c-0.3-1.6-0.5-3.2-0.8-4.8c-0.3-1.5-0.5-3.1-0.8-4.6c-0.2-1.5-0.5-3.1-0.7-4.7c-0.2-1.6-0.5-3.3-0.7-5.1c-0.4-3.4-0.9-6.5-1.4-9.3
			c-0.6-2.8-1.1-5.4-1.6-7.8c0-0.4-0.2-0.7-0.4-0.9c-0.3-0.1-0.5-0.2-0.8-0.2h-0.5c-0.4,0-0.9,0.1-1.6,0.2c-0.7,0.1-1.3,0.3-2,0.5
			c-0.7,0.2-1.3,0.3-1.8,0.5c-0.5,0.2-0.8,0.2-0.9,0.3c-0.1,0-0.3,0.1-0.5,0.2c-0.2,0.1-0.4,0.2-0.7,0.3c-0.2,0.1-0.5,0.3-0.7,0.4
			c-0.2,0.2-0.4,0.3-0.5,0.5c-0.9,1.6-2,3.2-3.1,5.1c-1.1,1.8-2.2,3.9-3.5,6.3c-0.6,1.3-1.3,2.5-1.9,3.6c-0.6,1.1-1.2,2.2-1.8,3.3
			C22,56.9,21.4,58,20.8,59c-0.6,1-1.2,2.1-1.9,3.3c-0.6,0-1.1,0-1.6,0c-0.5,0-0.9,0-1.5,0c-0.5,0-1,0-1.5,0c-0.5,0-0.8,0-1.1,0.1
			c-0.3,0-0.5,0.1-0.5,0.1c-0.1,0.6-0.1,1.2-0.1,1.8c0.1,0.6,0.2,1.3,0.4,1.9c0.2,0.6,0.4,1.3,0.6,1.9c0.2,0.6,0.5,1.2,0.8,1.7
			l-1.1,1.9c-0.4,0.7-0.7,1.4-1.1,2c-0.4,0.6-0.7,1.2-1.1,1.7l0,0C12.1,76.2,13,76.8,14.2,77.5z M35.2,53.6c0,1.2,0,2.4,0.1,3.4
			c0,1.1,0.1,2.1,0.2,3c0.1,1,0.1,1.9,0.2,2.9h-6.9c0,0,0-0.1,0.1-0.2l0-0.3c0.2-0.4,0.5-1,0.9-1.7c0.4-0.7,0.9-1.7,1.4-2.7
			c0.6-1.1,1.2-2.3,1.9-3.7c0.7-1.4,1.4-3,2.2-4.7C35.2,51.1,35.2,52.4,35.2,53.6z"/>
		<path class="st3-logo" d="M87,49.5l-10.2-0.4l-8.4,12.7l-3.9-12.7l-10.3,0.4c-1,5.3-1.9,10.2-2.7,14.8c-0.8,4.6-1.4,9-1.8,13.2l8.7,0.5
			c0.7-6.3,1.3-10.9,1.8-14l5.3,14.4l10.4-14.4c-1.3,6.4-2.3,11.1-3.1,14l8.9-0.5c1.1-4.2,2.1-8.6,2.9-13.2
			C85.3,59.8,86.1,54.9,87,49.5L87,49.5z"/>
		<path class="st3-logo" d="M90.6,49C89,55.9,87.8,61.6,87,66.1c-0.8,4.5-1.4,8.7-1.8,12.4l9.1-0.3c0.4-2.9,1-6.8,1.9-11.9
			c0.9-5.1,2.1-10.8,3.7-17L90.6,49z"/>
		<path class="st3-logo" d="M131.1,60.3l-17.4,1.4l-0.8,7.1c3.3-0.2,5.7-0.4,7.2-0.4c-2.2,1.8-4.3,2.7-6.4,2.7c-1.7,0-2.9-0.4-3.9-1.3
			c-0.9-0.9-1.2-2.1-1-3.8c0.5-2.6,1.9-4.7,4.2-6.1c2-1.3,4.4-1.9,7.1-1.9c1.1,0,2.7,0.3,4.9,0.9l3.5-9.9c-2-0.8-4.7-1.2-8.2-1.2
			c-4.9,0-9.5,1.7-13.7,5c-4.3,3.4-6.9,7.6-7.7,12.5c-0.8,4.3,0,7.8,2.4,10.5c2.3,2.7,5.7,4,10,4c4.7,0,8.9-1.6,12.8-4.8
			c3.9-3.2,6.2-7.2,7-11.8C131.2,62.1,131.2,61.2,131.1,60.3L131.1,60.3z"/>
		<path class="st3-logo" d="M160.7,51.9c-2.4-3.2-5.7-4.8-10.1-4.8c-4.3,0-8.2,1.6-11.7,4.8c-3.5,3.2-5.6,6.9-6.4,11.3
			c-0.8,4.4,0,8.1,2.4,11.3c2.4,3.2,5.8,4.9,10.1,4.9c4.3,0,8.3-1.6,11.8-4.9c3.5-3.1,5.6-6.9,6.3-11.3
			C163.8,58.8,163,55,160.7,51.9z M151.3,68.2c-1.4,1.6-3.1,2.4-4.9,2.4c-1.8,0-3.1-0.8-4-2.4c-0.8-1.5-1.1-3.2-0.7-5.1
			c0.3-1.9,1.2-3.5,2.5-5c1.5-1.7,3.1-2.5,4.9-2.5c1.8,0,3.2,0.8,4,2.5c0.8,1.5,1.1,3.2,0.7,5C153.5,65.1,152.7,66.8,151.3,68.2
			L151.3,68.2z"/>
		<path class="st3-logo" d="M186.5,48.1c-2.4-1.1-4.9-1.6-7.5-1.6c-3.1,0-6,0.8-8.8,2.5c-3.2,1.9-5,4.3-5.5,7.3c-0.5,2.7,0.6,5,3.2,6.8
			c1.3,1,3.8,2.2,7.5,3.7c2.7,1.1,4.1,2,3.9,2.7c-0.1,0.8-1,1.2-2.4,1.2c-1.5,0-3.1-0.6-4.8-1.7c-1.4-1-2.6-2.1-3.6-3.4l-6.7,6.9
			c3.7,5,7.9,7.5,12.5,7.5c3.2,0,6.2-0.9,8.8-2.8c2.8-2,4.5-4.6,5.1-7.8c0.4-2.3-0.6-4.3-2.9-6.1c-1.2-0.9-3.5-2.2-6.8-3.7
			c-2.4-1.1-3.6-1.9-3.5-2.5c0.1-0.7,1.1-1.1,2.9-1.1c2.9,0,5.4,1.1,7.6,3.4l6.6-6.7C190.9,50.7,189,49.2,186.5,48.1L186.5,48.1z"/>
	</g>
	<g>
		<path class="st4-logo" d="M12.5,75.8c1.2,0.7,2.6,1.3,4.4,2c0,0,0.1,0,0.2,0c0.2,0,0.3,0,0.5-0.1c0.2-0.1,0.3-0.2,0.3-0.4
			c0.8-1.3,1.6-2.5,2.3-3.8c0.7-1.2,1.4-2.5,2.2-3.9c0,0,4.4,0.1,4.9,0.1c0.5,0,6.4,0,6.7,0c0.2,0,0.2,4.8,0.3,5.3
			c0.1,0.5,1.6,2.4,1.7,2.5c0.1,0.2,0.3,0.2,0.5,0.2h0.2c0.1,0,0.4,0,0.7-0.1c0.3-0.1,0.7-0.2,1.2-0.3c0.4-0.1,0.9-0.3,1.4-0.5
			c0.5-0.2,1-0.3,1.5-0.5l6.6-2c0.4-0.1,0.6-0.2,0.6-0.3c0-0.1,0-0.2-0.1-0.3c-0.1-0.1-0.2-0.3-0.3-0.5c-0.1-0.2-0.2-0.5-0.3-1
			c-0.1-0.4-0.2-1-0.2-1.6c-0.3-1.6-0.5-3.2-0.8-4.8c-0.3-1.5-0.5-3.1-0.8-4.6c-0.2-1.5-0.5-3.1-0.7-4.7c-0.2-1.6-0.5-3.3-0.7-5.1
			c-0.4-3.4-0.9-6.5-1.4-9.3c-0.6-2.8-1.1-5.4-1.6-7.8c0-0.4-1.8-3.4-2.1-3.4L28.2,41.1L11.7,70.1l-3.9,1.2l1.7,2.5l0,0
			C10.4,74.5,11.4,75.1,12.5,75.8z M33.5,51.9c0,1.2,0,2.4,0.1,3.4c0,1.1,0.1,2.1,0.2,3c0.1,1,0.1,1.9,0.2,2.9H27c0,0,0-0.1,0.1-0.2
			l0-0.3c0.2-0.4,0.5-1,0.9-1.7c0.4-0.7,0.9-1.7,1.4-2.7c0.6-1.1,1.2-2.3,1.9-3.7c0.7-1.4,1.4-3,2.2-4.7
			C33.5,49.4,33.5,50.7,33.5,51.9z"/>
		<path class="st4-logo" d="M85.3,47.8l-1.7-2.5L66.8,60.2l-3.9-12.7l-1.7-2.5L46.4,73.3l1.7,2.5l8.7,0.5c0.7-6.3,1.3-10.9,1.8-14
			l3.6,11.9l1.7,2.5l10.4-14.4l-4.8,11.5l1.7,2.5l8.9-0.5c1.1-4.2,2.1-8.6,2.9-13.2C83.6,58.1,84.5,53.2,85.3,47.8L85.3,47.8z"/>
		<path class="st4-logo" d="M96.4,45.1L81.8,74.3l1.7,2.5l9.1-0.3c0.4-2.9,1-6.8,1.9-11.9c0.9-5.1,2.1-10.8,3.7-17L96.4,45.1z"/>
		<path class="st4-logo" d="M129.4,58.6l-1.7-2.5l-18.2,8.5l1.7,2.5c3.3-0.2,5.7-0.4,7.2-0.4c-2.2,1.8-4.3,2.7-6.4,2.7
			c-1.7,0-2.9-0.4-3.9-1.3c-0.9-0.9-1.2-2.1-1-3.8c0.5-2.6,1.9-4.7,4.2-6.1c2-1.3,4.4-1.9,7.1-1.9c1.1,0,2.7,0.3,4.9,0.9l3.5-9.9
			l-1.7-2.5l-20.1,6.3c0,0-9.3,9.6-9.3,14.6c0,2.5,1.6,5.7,3.9,8.3c2.3,2.7,5.7,4,10,4c4.7,0,8.9-1.6,12.8-4.8
			c3.9-3.2,6.2-7.2,7-11.8C129.5,60.4,129.5,59.5,129.4,58.6L129.4,58.6z"/>
		<path class="st4-logo" d="M159,50.2c-2.4-3.2-5.7-4.8-10.1-4.8c-4.3,0-8.2,1.6-11.7,4.8c-3.5,3.2-5.6,6.9-6.4,11.3
			c-0.8,4.4,0,8.1,2.4,11.3c2.4,3.2,5.8,4.9,10.1,4.9c4.3,0,8.3-1.6,11.8-4.9c3.5-3.1,5.6-6.9,6.3-11.3
			C162.2,57.1,161.3,53.3,159,50.2z M149.6,66.6c-1.4,1.6-3.1,2.4-4.9,2.4c-1.8,0-3.1-0.8-4-2.4c-0.8-1.5-1.1-3.2-0.7-5.1
			c0.3-1.9,1.2-3.5,2.5-5c1.5-1.7,3.1-2.5,4.9-2.5c1.8,0,3.2,0.8,4,2.5c0.8,1.5,1.1,3.2,0.7,5C151.8,63.4,151,65.1,149.6,66.6
			L149.6,66.6z"/>
		<path class="st4-logo" d="M168.6,47.3c0,0-5,4.3-5.5,7.3c-0.5,2.7,0.6,5,3.2,6.8c1.3,1,3.8,2.2,7.5,3.7c2.7,1.1,4.1,2,3.9,2.7
			c-0.1,0.8-19.2,0.5-19.2,0.5l1.7,2.5c3.7,5,7.9,7.5,12.5,7.5c3.2,0,6.2-0.9,8.8-2.8c2.8-2,4.5-4.6,5.1-7.8
			c0.4-2.3-0.6-4.3-2.9-6.1c-1.2-0.9-3.5-2.2-6.8-3.7c-2.4-1.1-3.6-1.9-3.5-2.5c0.1-0.7,1.1-1.1,2.9-1.1c2.9,0,5.4,1.1,7.6,3.4
			l6.6-6.7c-1.2-1.9-1.7-2.5-1.7-2.5L168.6,47.3z"/>
	</g>
	<g>
		<path class="st5-logo" d="M10.8,73.2c1.2,0.7,2.6,1.3,4.4,2c0,0,0.1,0,0.2,0c0.2,0,0.3,0,0.5-0.1c0.2-0.1,0.3-0.2,0.3-0.4
			c0.8-1.3,1.6-2.5,2.3-3.8c0.7-1.2,1.4-2.5,2.2-3.9l1.6,0.1c0.5,0,1,0,1.6,0c0.6,0,1.2,0,1.7,0c0.5,0,0.9,0,1.2,0c0.3,0,0.7,0,1,0
			c0.3,0,0.7,0,1.2,0c0.5,0,1,0,1.8,0c0.2,0,0.5,0,0.7,0c0.3,0,0.5,0,0.8,0.1c0.2,0,0.4,0.1,0.6,0.2c0.2,0.1,0.3,0.1,0.3,0.2
			c0,0.8,0.1,1.5,0.2,2.1c0.1,0.6,0.2,1.1,0.3,1.6c0.1,0.5,0.2,1,0.3,1.5c0.1,0.5,0.2,1.1,0.3,1.7c0,0.2,0.1,0.3,0.1,0.5
			c0.1,0.2,0.3,0.2,0.5,0.2H35c0.1,0,0.4,0,0.7-0.1c0.3-0.1,0.7-0.2,1.2-0.3c0.4-0.1,0.9-0.3,1.4-0.5c0.5-0.2,1-0.3,1.5-0.5l6.6-2
			c0.4-0.1,0.6-0.2,0.6-0.3c0-0.1,0-0.2-0.1-0.3c-0.1-0.1-0.2-0.3-0.3-0.5c-0.1-0.2-0.2-0.5-0.3-1c-0.1-0.4-0.2-1-0.2-1.6
			c-0.3-1.6-0.5-3.2-0.8-4.8c-0.3-1.5-0.5-3.1-0.8-4.6c-0.2-1.5-0.5-3.1-0.7-4.7c-0.2-1.6-0.5-3.3-0.7-5.1c-0.4-3.4-0.9-6.5-1.4-9.3
			c-0.6-2.8-1.1-5.4-1.6-7.8c0-0.4-0.2-0.7-0.4-0.9c-0.3-0.1-0.5-0.2-0.8-0.2h-0.5c-0.4,0-0.9,0.1-1.6,0.2c-0.7,0.1-1.3,0.3-2,0.5
			c-0.7,0.2-1.3,0.3-1.8,0.5c-0.5,0.2-0.8,0.2-0.9,0.3c-0.1,0-0.3,0.1-0.5,0.2c-0.2,0.1-0.4,0.2-0.7,0.3c-0.2,0.1-0.5,0.3-0.7,0.4
			c-0.2,0.2-0.4,0.3-0.5,0.5c-0.9,1.6-2,3.2-3.1,5.1c-1.1,1.8-2.2,3.9-3.5,6.3c-0.6,1.3-1.3,2.5-1.9,3.6c-0.6,1.1-1.2,2.2-1.8,3.3
			c-0.6,1.1-1.2,2.1-1.8,3.1c-0.6,1-1.2,2.1-1.9,3.3c-0.6,0-1.1,0-1.6,0c-0.5,0-0.9,0-1.5,0c-0.5,0-1,0-1.5,0c-0.5,0-0.8,0-1.1,0.1
			c-0.3,0-0.5,0.1-0.5,0.1c-0.1,0.6-0.1,1.2-0.1,1.8c0.1,0.6,0.2,1.3,0.4,1.9c0.2,0.6,0.4,1.3,0.6,1.9c0.2,0.6,0.5,1.2,0.8,1.7
			L10,67.6c-0.4,0.7-0.7,1.4-1.1,2c-0.4,0.6-0.7,1.2-1.1,1.7l0,0C8.7,72,9.7,72.6,10.8,73.2z M31.8,49.4c0,1.2,0,2.4,0.1,3.4
			c0,1.1,0.1,2.1,0.2,3c0.1,1,0.1,1.9,0.2,2.9h-6.9c0,0,0-0.1,0.1-0.2l0-0.3c0.2-0.4,0.5-1,0.9-1.7c0.4-0.7,0.9-1.7,1.4-2.7
			c0.6-1.1,1.2-2.3,1.9-3.7c0.7-1.4,1.4-3,2.2-4.7C31.8,46.8,31.8,48.2,31.8,49.4z"/>
		<path class="st5-logo" d="M83.6,45.3l-10.2-0.4l-8.4,12.7l-3.9-12.7l-10.3,0.4c-1,5.3-1.9,10.2-2.7,14.8c-0.8,4.6-1.4,9-1.8,13.2
			l8.7,0.5c0.7-6.3,1.3-10.9,1.8-14l5.3,14.4l10.4-14.4c-1.3,6.4-2.3,11.1-3.1,14l8.9-0.5c1.1-4.2,2.1-8.6,2.9-13.2
			C81.9,55.6,82.8,50.6,83.6,45.3L83.6,45.3z"/>
		<path class="st5-logo" d="M87.2,44.8c-1.6,6.9-2.8,12.6-3.6,17.1c-0.8,4.5-1.4,8.7-1.8,12.4l9.1-0.3c0.4-2.9,1-6.8,1.9-11.9
			c0.9-5.1,2.1-10.8,3.7-17L87.2,44.8z"/>
		<path class="st5-logo" d="M127.7,56.1l-17.4,1.4l-0.8,7.1c3.3-0.2,5.7-0.4,7.2-0.4c-2.2,1.8-4.3,2.7-6.4,2.7c-1.7,0-2.9-0.4-3.9-1.3
			c-0.9-0.9-1.2-2.1-1-3.8c0.5-2.6,1.9-4.7,4.2-6.1c2-1.3,4.4-1.9,7.1-1.9c1.1,0,2.7,0.3,4.9,0.9l3.5-9.9c-2-0.8-4.7-1.2-8.2-1.2
			c-4.9,0-9.5,1.7-13.7,5c-4.3,3.4-6.9,7.6-7.7,12.5c-0.8,4.3,0,7.8,2.4,10.5c2.3,2.7,5.7,4,10,4c4.7,0,8.9-1.6,12.8-4.8
			c3.9-3.2,6.2-7.2,7-11.8C127.8,57.9,127.8,57,127.7,56.1L127.7,56.1z"/>
		<path class="st5-logo" d="M157.3,47.6c-2.4-3.2-5.7-4.8-10.1-4.8c-4.3,0-8.2,1.6-11.7,4.8c-3.5,3.2-5.6,6.9-6.4,11.3
			c-0.8,4.4,0,8.1,2.4,11.3c2.4,3.2,5.8,4.9,10.1,4.9c4.3,0,8.3-1.6,11.8-4.9c3.5-3.1,5.6-6.9,6.3-11.3
			C160.5,54.6,159.7,50.8,157.3,47.6z M147.9,64c-1.4,1.6-3.1,2.4-4.9,2.4c-1.8,0-3.1-0.8-4-2.4c-0.8-1.5-1.1-3.2-0.7-5.1
			c0.3-1.9,1.2-3.5,2.5-5c1.5-1.7,3.1-2.5,4.9-2.5c1.8,0,3.2,0.8,4,2.5c0.8,1.5,1.1,3.2,0.7,5C150.1,60.8,149.3,62.5,147.9,64
			L147.9,64z"/>
		<path class="st5-logo" d="M183.1,43.9c-2.4-1.1-4.9-1.6-7.5-1.6c-3.1,0-6,0.8-8.8,2.5c-3.2,1.9-5,4.3-5.5,7.3c-0.5,2.7,0.6,5,3.2,6.8
			c1.3,1,3.8,2.2,7.5,3.7c2.7,1.1,4.1,2,3.9,2.7c-0.1,0.8-1,1.2-2.4,1.2c-1.5,0-3.1-0.6-4.8-1.7c-1.4-1-2.6-2.1-3.6-3.4l-6.7,6.9
			c3.7,5,7.9,7.5,12.5,7.5c3.2,0,6.2-0.9,8.8-2.8c2.8-2,4.5-4.6,5.1-7.8c0.4-2.3-0.6-4.3-2.9-6.1c-1.2-0.9-3.5-2.2-6.8-3.7
			c-2.4-1.1-3.6-1.9-3.5-2.5c0.1-0.7,1.1-1.1,2.9-1.1c2.9,0,5.4,1.1,7.6,3.4l6.6-6.7C187.5,46.5,185.7,45,183.1,43.9L183.1,43.9z"/>
	</g>
	<g>
		<path class="st6-logo" d="M163,55.4c0.5-2.9,2.4-5.4,5.5-7.3c2.8-1.7,5.7-2.5,8.8-2.5c2.6,0,5.1,0.5,7.5,1.6c1.2,0.5,2.3,1.2,3.2,1.9
			l0.7-0.7c-1.2-1.9-3.1-3.4-5.6-4.6c-2.4-1.1-4.9-1.6-7.5-1.6c-3.1,0-6,0.8-8.8,2.5c-3.2,1.9-5,4.3-5.5,7.3
			c-0.4,2.1,0.2,3.9,1.7,5.5C162.9,56.8,162.9,56.1,163,55.4z"/>
		<path class="st6-logo" d="M129.4,59.4c0.1,0.9,0.1,1.8,0,2.8c-0.1,0.6-0.3,1.2-0.4,1.8c0.3,2.1,1,4,2.2,5.7c-0.7-2.2-0.8-4.7-0.4-7.4
			c0.8-4.4,2.9-8.1,6.4-11.3c3.5-3.2,7.4-4.8,11.7-4.8c4.3,0,7.7,1.6,10.1,4.8c0.1,0.2,0.2,0.3,0.3,0.5c-0.5-1.4-1.1-2.7-2-3.9
			c-2.4-3.2-5.7-4.8-10.1-4.8c-4.3,0-8.2,1.6-11.7,4.8c-3.5,3.2-5.6,6.9-6.4,11.3c0,0.2,0,0.3-0.1,0.5L129.4,59.4z"/>
		<path class="st6-logo" d="M110.3,57.5l-0.8,7.1c0.7-0.1,1.4-0.1,2.1-0.1l0.4-3.6l15.6-1.3c0.1-0.2,0.1-0.5,0.2-0.7
			c0.2-0.9,0.2-1.9,0-2.8L110.3,57.5z"/>
		<path class="st6-logo" d="M66.8,61.1l8.4-12.7l7.9,0.3c0.2-1.1,0.4-2.2,0.5-3.3l-10.2-0.4l-7.9,12L66.8,61.1z"/>
		<path class="st6-logo" d="M170.5,68.1c1.7,1.1,3.3,1.7,4.8,1.7c1.5,0,2.3-0.4,2.4-1.2c0.1-0.6-0.9-1.4-3-2.3c-0.3,0.1-0.7,0.1-1.2,0.1
			c-1.5,0-3.1-0.6-4.8-1.7c-1.3-0.9-2.4-1.9-3.2-3.1c-0.1-0.1-0.2-0.2-0.4-0.3l-5,5.2c-0.3,0.8-0.7,1.5-1.1,2.3
			c0.6,0.8,1.2,1.5,1.9,2.1l6.1-6.3C167.9,66,169,67.1,170.5,68.1z"/>
		<path class="st6-logo" d="M144.7,69.8c1.8,0,3.5-0.8,4.9-2.4c1.3-1.5,2.2-3.2,2.5-5.1c0.3-1.9,0.1-3.5-0.7-5c-0.3-0.5-0.6-0.9-0.9-1.3
			c0.2,0.9,0.2,1.9,0,2.9c-0.3,1.9-1.2,3.6-2.5,5.1c-1.4,1.6-3.1,2.4-4.9,2.4c-1.3,0-2.3-0.4-3.1-1.2c0.1,0.8,0.4,1.5,0.8,2.1
			C141.6,69,143,69.8,144.7,69.8z"/>
		<path class="st6-logo" d="M182,59c-1.2-0.9-3.5-2.2-6.8-3.7c-0.1,0-0.2-0.1-0.3-0.1c-0.9,0.2-1.5,0.5-1.6,1c-0.1,0.6,1.1,1.4,3.5,2.5
			c3.3,1.5,5.5,2.7,6.8,3.7c0.5,0.4,0.9,0.8,1.3,1.2C184.8,61.9,183.8,60.4,182,59z"/>
		<path class="st6-logo" d="M85.3,65.3c0.8-4.5,2-10.2,3.6-17.1l6.7,0.3c0.3-1.1,0.5-2.2,0.8-3.3l-9.2-0.4c-1.6,6.9-2.8,12.6-3.6,17.1
			c-0.8,4.5-1.4,8.7-1.8,12.4l2.1-0.1C84.3,71.4,84.8,68.5,85.3,65.3z"/>
		<path class="st6-logo" d="M74.2,63.1l-3.4,4.7c-0.5,2.5-1,4.5-1.5,6l2.6-0.1C72.6,70.9,73.4,67.4,74.2,63.1z"/>
		<path class="st6-logo" d="M97.2,64.4c0.9-4.9,3.4-9.1,7.7-12.5c4.2-3.3,8.7-5,13.7-5c2.1,0,4,0.2,5.5,0.5l0.9-2.6
			c-2-0.8-4.7-1.2-8.2-1.2c-4.9,0-9.5,1.7-13.7,5c-4.3,3.4-6.9,7.6-7.7,12.5c-0.7,4-0.1,7.2,1.9,9.8C96.8,69,96.7,66.8,97.2,64.4z"
			/>
		<path class="st6-logo" d="M33.8,59.2c-0.1-1-0.1-2-0.2-3c0-1.1-0.1-2.2-0.1-3.4c0-1.2-0.2-8-0.2-8l-1.4,0.6c0,0,0,7.3,0,7.4
			c0,1.1,0.1,2.1,0.2,3c0.1,1,0.1,1.9,0.2,2.9h-3.6c-0.2,0.4-0.4,0.8-0.6,1.2c-0.4,0.7-0.7,1.3-0.9,1.7l0,0.3c0,0.1,0,0.2-0.1,0.2
			H34C33.9,61.1,33.9,60.2,33.8,59.2z"/>
		<path class="st6-logo" d="M10.6,73c0.4-0.6,0.8-1.3,1.1-2l1.1-1.9c-0.3-0.5-0.5-1.1-0.8-1.7c-0.2-0.6-0.5-1.2-0.6-1.9
			c-0.2-0.6-0.3-1.3-0.4-1.9C11,63,11,62.4,11.1,61.8c0,0,0.2-0.1,0.5-0.1c0.3,0,0.7-0.1,1.1-0.1c0.5,0,0.9,0,1.5,0c0.5,0,1,0,1.5,0
			c0.5,0,1,0,1.6,0c0.6-1.2,1.3-2.3,1.9-3.3c0.6-1,1.2-2.1,1.8-3.1c0.6-1.1,1.2-2.1,1.8-3.3c0.6-1.1,1.3-2.3,1.9-3.6
			c1.2-2.4,2.4-4.5,3.5-6.3c1.1-1.8,2.1-3.5,3.1-5.1c0.1-0.2,0.3-0.4,0.5-0.5c0.2-0.2,0.4-0.3,0.7-0.4c0.2-0.1,0.5-0.2,0.7-0.3
			c0.2-0.1,0.4-0.1,0.5-0.2c0.1,0,0.4-0.1,0.9-0.3c0.5-0.2,1.1-0.3,1.8-0.5c0.7-0.2,1.4-0.3,2-0.5C39,34.1,39.6,34,40,34h0.5
			c0,0,0,0,0.1,0c-0.2-0.8-0.3-1.6-0.5-2.3c0-0.4-0.2-0.7-0.4-0.9c-0.3-0.1-0.5-0.2-0.8-0.2h-0.5c-0.4,0-0.9,0.1-1.6,0.2
			c-0.7,0.1-1.3,0.3-2,0.5c-0.7,0.2-1.3,0.3-1.8,0.5c-0.5,0.2-0.8,0.2-0.9,0.3c-0.1,0-0.3,0.1-0.5,0.2c-0.2,0.1-0.4,0.2-0.7,0.3
			c-0.2,0.1-0.5,0.3-0.7,0.4c-0.2,0.2-0.4,0.3-0.5,0.5c-0.9,1.6-2,3.2-3.1,5.1c-1.1,1.8-2.2,3.9-3.5,6.3c-0.6,1.3-1.3,2.5-1.9,3.6
			c-0.6,1.1-1.2,2.2-1.8,3.3c-0.6,1.1-1.2,2.1-1.8,3.1c-0.6,1-1.2,2.1-1.9,3.3c-0.6,0-1.1,0-1.6,0c-0.5,0-0.9,0-1.5,0
			c-0.5,0-1,0-1.5,0c-0.5,0-0.8,0-1.1,0.1c-0.3,0-0.5,0.1-0.5,0.1c-0.1,0.6-0.1,1.2-0.1,1.8c0.1,0.6,0.2,1.3,0.4,1.9
			c0.2,0.6,0.4,1.3,0.6,1.9c0.2,0.6,0.5,1.2,0.8,1.7L10,67.6c-0.4,0.7-0.7,1.4-1.1,2c-0.4,0.6-0.7,1.2-1.1,1.7
			C8.6,71.9,9.5,72.5,10.6,73C10.6,73.1,10.6,73.1,10.6,73z"/>
		<path class="st6-logo" d="M46.4,73.3l2,0.1c0,0,0.8-6.5,1.4-10c0.8-4.6,1.7-9.5,2.7-14.8l9.7-0.3l-1-3.4l-10.3,0.4
			c-1,5.3-1.9,10.2-2.7,14.8C46.7,68.3,46.4,73.3,46.4,73.3z"/>
	</g>
</g>
</svg>
