<?xml version="1.0" encoding="utf-8"?>
<!-- Generator: Adobe Illustrator 17.0.1, SVG Export Plug-In . SVG Version: 6.00 Build 0)  -->
<!DOCTYPE svg PUBLIC "-//W3C//DTD SVG 1.1//EN" "http://www.w3.org/Graphics/SVG/1.1/DTD/svg11.dtd">
<svg version="1.1" xmlns="http://www.w3.org/2000/svg" xmlns:xlink="http://www.w3.org/1999/xlink" x="0px" y="0px"
	 width="143.325px" height="40px" viewBox="45.751 5 143.325 40" enable-background="new 45.751 5 143.325 40" xml:space="preserve"
	>
<g id="Layer_1">
	<path d="M45.762,33.916l0.28,0.197l0.548,0.386l14.748,10.386L61.516,45l14.899-10.501l0.548-0.386l0.28-0.197v0.197h0.004v-0.2
		l0.007-0.005l-0.007-0.01V16.102l0.007-0.01l-0.007-0.005v-0.2h-0.004v0.197l-0.28-0.197l-0.548-0.386L61.668,5.115L61.49,5
		l-14.9,10.501l-0.828,0.583v-0.197h-0.011v0.205v0.001v17.815v0.205h0.011V33.916z M77.244,16.108v0.607V16.108z M77.244,33.284
		v0.607V33.284z M62.335,7.731l13.241,9.324v15.43l-13.241-7.733V7.731z M62.335,26.688l12.095,7.064l-12.095,8.517V26.688z
		 M60.664,7.736v16.041l-12.452-7.272L60.664,7.736z M47.423,17.98l13.241,7.733v16.552L47.423,32.94V17.98z M45.762,16.108v0.607
		V16.108z M45.762,33.285v0.607V33.285z M159.997,28.37h0.404v4.154H150.7v-0.357l1.43-0.255V19.518l-1.43-0.239v-0.375h9.36v3.898
		h-0.42l-1.197-3.473h-4.602v6.128h2.021l0.917-2.468h0.404v5.379h-0.404l-0.933-2.502h-2.006v6.247h4.882L159.997,28.37z
		 M143.061,19.28l1.446,0.664v9.243l-6.701-10.282h-2.892v0.375l1.446,0.664v11.541l-1.446,0.681v0.357h3.327v-0.357l-1.493-0.681
		V20.59l7.758,11.932h0.388V19.943l1.477-0.664v-0.375h-3.311V19.28z M164.71,22.701h0.451l1.182-3.371h2.565V31.91l-1.43,0.255
		v0.357h4.571v-0.357l-1.43-0.255V19.33h2.581l1.166,3.371h0.466v-3.796H164.71V22.701z M178.953,18.905v3.796h0.451l1.182-3.371
		h2.566V31.91l-1.43,0.255v0.357h4.571v-0.357l-1.43-0.255V19.33h2.581l1.166,3.371h0.466v-3.796H178.953z M98.918,26.427
		c0.638,0.579,0.956,1.385,0.956,2.418c0,1.248-0.417,2.173-1.251,2.775c-0.834,0.602-1.962,0.903-3.381,0.903h-5.488v-0.357
		l1.43-0.255V19.517l-1.43-0.239v-0.375h4.742c1.12,0,2.012,0.114,2.675,0.341c0.663,0.228,1.145,0.571,1.446,1.03
		c0.301,0.46,0.451,1.064,0.451,1.813c0,1.635-0.943,2.679-2.829,3.132v0.086C97.386,25.476,98.28,25.85,98.918,26.427z
		 M92.894,25.169h1.724c0.83,0,1.466-0.256,1.912-0.766c0.446-0.511,0.669-1.237,0.669-2.179v-0.102
		c0-1.861-0.902-2.791-2.705-2.791h-1.601V25.169z M98.024,28.676c0-1.033-0.241-1.805-0.722-2.315
		c-0.482-0.511-1.169-0.766-2.06-0.766h-2.347v6.519h2.347c0.881,0,1.566-0.28,2.052-0.842c0.487-0.562,0.73-1.365,0.73-2.409
		V28.676z M127.228,19.28l1.446,0.664v9.243l-6.701-10.282h-2.892v0.375l1.446,0.664v11.541l-1.446,0.681v0.357h3.327v-0.357
		l-1.493-0.681V20.59l7.758,11.932h0.388V19.943l1.477-0.664v-0.375h-3.311V19.28z M112.814,32.114h-4.882v-6.247h2.006l0.933,2.502
		h0.404V22.99h-0.404l-0.917,2.468h-2.021V19.33h4.602l1.198,3.473h0.42v-3.898h-9.36v0.375l1.43,0.239v12.393l-1.43,0.255v0.357
		h9.701V28.37h-0.404L112.814,32.114z"/>
</g>
<g id="Layer_2">
</g>
</svg>
