<?xml version="1.0" encoding="utf-8"?>
<!-- Generator: Adobe Illustrator 17.0.1, SVG Export Plug-In . SVG Version: 6.00 Build 0)  -->
<!DOCTYPE svg PUBLIC "-//W3C//DTD SVG 1.1//EN" "http://www.w3.org/Graphics/SVG/1.1/DTD/svg11.dtd">
<svg version="1.1" id="Layer_1" xmlns="http://www.w3.org/2000/svg" xmlns:xlink="http://www.w3.org/1999/xlink" x="0px" y="0px"
	 width="102.01px" height="81.141px" viewBox="0 0 102.01 81.141" enable-background="new 0 0 102.01 81.141" xml:space="preserve">
<path d="M6.659,73.728V73.64c1.937-0.466,2.906-1.538,2.906-3.217c0-0.769-0.154-1.39-0.463-1.862
	c-0.309-0.472-0.804-0.824-1.485-1.058c-0.681-0.233-1.597-0.35-2.747-0.35H0v0.385l1.469,0.245v12.728L0,80.773v0.367h5.637
	c1.458,0,2.616-0.309,3.473-0.927c0.857-0.618,1.285-1.568,1.285-2.85c0-1.06-0.327-1.888-0.982-2.483
	C8.758,74.287,7.84,73.903,6.659,73.728z M3.226,67.591H4.87c1.852,0,2.778,0.956,2.778,2.867v0.105
	c0,0.968-0.229,1.713-0.687,2.238c-0.458,0.524-1.112,0.787-1.964,0.787H3.226V67.591z M8.495,77.382c0,1.072-0.25,1.897-0.75,2.474
	c-0.5,0.577-1.203,0.865-2.108,0.865H3.226v-6.696h2.411c0.915,0,1.621,0.262,2.116,0.787c0.495,0.524,0.742,1.317,0.742,2.378
	V77.382z M70.837,80.721h-5.014v-6.416h2.06l0.958,2.57h0.415V71.35h-0.415l-0.942,2.535h-2.076v-6.294h4.727l1.229,3.567h0.431
	v-4.004h-9.613v0.385l1.469,0.245v12.728l-1.469,0.262v0.367h9.964v-4.266h-0.415L70.837,80.721z M31.997,34.893L31.997,34.893
	l0,0.248h0.013v-0.238l0.338,0.238l0.662,0.466l17.801,12.536l0.215,0.139L69.01,35.607l0.662-0.466l0.338-0.238v0.238h0.005v-0.242
	l0.009-0.006l-0.009-0.012v-21.48l0.009-0.012l-0.009-0.006v-0.242H70.01v0.238l-0.338-0.238l-0.662-0.466L51.209,0.139L50.995,0
	L33.01,12.675l-1,0.704v-0.238h-0.013v0.247l0,0l0,0.001L31.997,34.893L31.997,34.893z M70.01,34.873v-0.733 M70.01,13.408v0.733
	 M52.015,3.296l15.982,11.255v18.625l-15.982-9.334V3.296z M52.015,26.179l14.599,8.526L52.015,44.985V26.179z M49.997,3.302v19.362
	l-15.03-8.778L49.997,3.302z M34.015,15.667l15.982,9.334V44.98L34.015,33.725V15.667z M32.01,13.408v0.733 M32.01,34.141v0.733
	 M76.986,71.053h0.463l1.214-3.462h2.635v12.92l-1.469,0.262v0.367h4.695v-0.367l-1.469-0.262v-12.92h2.651l1.198,3.462h0.479
	v-3.899H76.986V71.053z M23.685,80.721h-5.014v-6.416h2.06l0.958,2.57h0.415V71.35h-0.415l-0.942,2.535h-2.076v-6.294h4.727
	l1.23,3.567h0.431v-4.004h-9.613v0.385l1.469,0.245v12.728l-1.469,0.262v0.367h9.964v-4.266h-0.415L23.685,80.721z M38.489,67.539
	l1.485,0.682v9.493l-6.882-10.56h-2.97v0.385l1.485,0.682v11.853l-1.485,0.699v0.367h3.417v-0.367l-1.533-0.699V68.885l7.968,12.255
	h0.399v-12.92l1.517-0.682v-0.385h-3.401V67.539z M54.751,67.539l1.485,0.682v9.493l-6.882-10.56h-2.97v0.385l1.485,0.682v11.853
	l-1.485,0.699v0.367h3.417v-0.367l-1.533-0.699V68.885l7.968,12.255h0.399v-12.92l1.517-0.682v-0.385h-3.401V67.539z M91.615,67.154
	v3.899h0.463l1.214-3.462h2.635v12.92l-1.469,0.262v0.367h4.695v-0.367l-1.469-0.262v-12.92h2.651l1.198,3.462h0.479v-3.899H91.615z
	"/>
</svg>
