<?xml version="1.0" encoding="utf-8"?>
<!-- Generator: Adobe Illustrator 21.0.0, SVG Export Plug-In . SVG Version: 6.00 Build 0)  -->
<svg version="1.1" id="Слой_1" xmlns="http://www.w3.org/2000/svg" xmlns:xlink="http://www.w3.org/1999/xlink" x="0px" y="0px"
	 width="36px" height="42px" viewBox="0 0 36 42" style="enable-background:new 0 0 36 42;" xml:space="preserve">
<style type="text/css">
	.st0{fill-rule:evenodd;clip-rule:evenodd;}
	.st1{fill-rule:evenodd;clip-rule:evenodd;fill:#FFB400;}
	.st2{fill-rule:evenodd;clip-rule:evenodd;fill:#FF7E00;}
	.st3{fill-rule:evenodd;clip-rule:evenodd;fill:#FFFF00;}
</style>
<g id="bigarrow_x5F_right">
	<path class="st0" d="M16,42H0v-2l22-16L0,2V0l36,20l0,2L16,42z"/>
	<path class="st1" d="M16,40H0l20-20L0,0h16l20,20L16,40z"/>
	<path class="st2" d="M17.5,17.5L0,0h5l15,15L17.5,17.5z M16,35H5l-5,5h16l20-20l-2.5-2.5L16,35z"/>
	<path class="st3" d="M5,5L0,0h16l20,20l-2.5,2.5L16,5H5z M20,25l-2.5-2.5L0,40h5L20,25z"/>
</g>
</svg>
