<?xml version="1.0" encoding="utf-8"?>
<!-- Generator: Adobe Illustrator 21.0.0, SVG Export Plug-In . SVG Version: 6.00 Build 0)  -->
<svg version="1.1" id="Слой_1" xmlns="http://www.w3.org/2000/svg" xmlns:xlink="http://www.w3.org/1999/xlink" x="0px" y="0px"
	 width="24px" height="18px" viewBox="0 0 24 18" style="enable-background:new 0 0 24 18;" xml:space="preserve">
<style type="text/css">
	.st0{fill:#0066CC;}
	.st1{fill:#EEEEEE;}
	.st2{fill:#CC0000;}
</style>
<g id="FlagEn">
	<rect class="st0" width="24" height="18"/>
	<path class="st1" d="M24,0h-2l-8,6V0h-4v6L2,0H0v1.7L7,7H0v4h7l-7,5v2h2l8-6v6h4v-6l8,6h2v-2l-7-5h7V7h-7l7-5V0z"/>
	<path class="st2" d="M24,8H13V0h-2v8H0v2h11v8h2v-8h11V8z M0,17v1h1l9-7H8L0,17z M16,11h-2l9,7h1v-1L16,11z M0,1l8,6h2L1,0H0V1z
		 M16,7l8-6V0h-1l-9,7H16z"/>
</g>
</svg>
