<?xml version="1.0" encoding="utf-8"?>
<!-- Generator: Adobe Illustrator 21.0.0, SVG Export Plug-In . SVG Version: 6.00 Build 0)  -->
<svg version="1.1" id="Слой_1" xmlns="http://www.w3.org/2000/svg" xmlns:xlink="http://www.w3.org/1999/xlink" x="0px" y="0px"
	 width="60px" height="26px" viewBox="0 0 60 26" style="enable-background:new 0 0 60 26;" xml:space="preserve">
<style type="text/css">
	.st0{fill-rule:evenodd;clip-rule:evenodd;fill:#12100C;}
	.st1{fill-rule:evenodd;clip-rule:evenodd;fill:#231F1D;}
	.st2{fill-rule:evenodd;clip-rule:evenodd;fill:#2D2926;}
	.st3{fill-rule:evenodd;clip-rule:evenodd;fill:#91250D;}
	.st4{fill-rule:evenodd;clip-rule:evenodd;fill:#6F1A07;}
	.st5{fill-rule:evenodd;clip-rule:evenodd;fill:#DD4231;}
</style>
<g id="ornament_x5F_line02">
	<rect class="st0" width="60" height="26"/>
	<path class="st1" d="M1,4v8h6V8H5v2H3V6h6v14H3v-4h2v2h2v-4H1v8h18v-8h-6v4h2v-2h2v4h-6V6h6v4h-2V8h-2v4h6V4H1z M41,4v8h6V8h-2v2
		h-2V6h6v14h-6v-4h2v2h2v-4h-6v8h18v-8h-6v4h2v-2h2v4h-6V6h6v4h-2V8h-2v4h6V4H41z M60,2H0V1h60V2z M60,26H0v-1h60V26z M30,24L19,13
		L30,2l11,11L30,24z M22,13l8,8l8-8l-8-8L22,13z"/>
	<path class="st2" d="M19,4v1H2v7H1V4H19z M6,9h1V8H5v2H4v1h2V9z M9,20H4v1h6V7H9V20z M7,14H1v8h1v-7h5V14z M6,18v-1H5v1H6z M14,9h1
		V8h-2v4h1V9z M18,7h-1v3h-1v1h2V7z M13,14v4h1v-3h5v-1H13z M17,20h-5v1h6v-5h-1V20z M59,4v1H42v7h-1V4H59z M46,9h1V8h-2v2h-1v1h2V9
		z M49,20h-5v1h6V7h-1V20z M47,14h-6v8h1v-7h5V14z M46,18v-1h-1v1H46z M54,9h1V8h-2v4h1V9z M58,7h-1v3h-1v1h2V7z M53,14v4h1v-3h5v-1
		H53z M57,20h-5v1h6v-5h-1V20z M60,0H0v1h60V0z M60,24H0v1h60V24z M20,14L31,3l-1-1L19,13L20,14z M39,14l-1-1l-8,8l1,1L39,14z"/>
	<path class="st3" d="M26,13l4,4l4-4l-4-4L26,13z"/>
	<path class="st4" d="M34,13l-4,0v4L34,13z"/>
	<path class="st5" d="M26,13l4,0V9L26,13z"/>
</g>
</svg>
