<?xml version="1.0" encoding="utf-8"?>
<!-- Generator: Adobe Illustrator 21.0.0, SVG Export Plug-In . SVG Version: 6.00 Build 0)  -->
<svg version="1.1" id="Слой_1" xmlns="http://www.w3.org/2000/svg" xmlns:xlink="http://www.w3.org/1999/xlink" x="0px" y="0px"
	 viewBox="0 0 20 20" style="enable-background:new 0 0 20 20;" xml:space="preserve">
<style type="text/css">
	.st0{fill:#33CC33;}
</style>
<path id="Casino_1_" class="st0" d="M2.9,2.9C-1,6.8-1,13.2,2.9,17.1s10.2,3.9,14.1,0s3.9-10.2,0-14.1C13.2-1,6.8-1,2.9,2.9z
	 M17.9,11L17.9,11L17.9,11c-0.2,1.4-0.7,2.7-1.6,3.8l0,0c-1.7,2.3-4.5,3.4-7.4,3.1l0,0l0,0c-1.4-0.2-2.7-0.7-3.8-1.6l0,0l0,0
	c-0.3-0.2-0.6-0.5-0.8-0.7C2.6,13.9,1.8,11.4,2.1,9l0,0l0,0c0.2-1.4,0.7-2.7,1.6-3.8l0,0c0.4-0.6,0.9-1.1,1.5-1.5l0,0
	C6.8,2.4,8.9,1.8,11,2.1l0,0l0,0c1.4,0.2,2.7,0.7,3.8,1.6l0,0l0,0c0.3,0.2,0.6,0.5,0.8,0.7C17.4,6.1,18.2,8.5,17.9,11z M9.2,9.2
	c0.4-0.4,1.1-0.4,1.5,0c0.4,0.4,0.4,1.1,0,1.5c-0.4,0.4-1.1,0.4-1.5,0C8.8,10.3,8.8,9.7,9.2,9.2z M15.6,7.7
	C15.6,7.7,15.6,7.7,15.6,7.7c-1.3-3.1-4.7-4.6-7.8-3.3l0,0c-3.1,1.3-4.5,4.7-3.3,7.8l0,0c1.2,3.1,4.7,4.5,7.8,3.3l0,0
	C15.3,14.3,16.8,10.8,15.6,7.7z M12,9.7c0,0.2,0,0.4,0,0.6l1.7,1.7c0.5,0.5,0.5,1.2,0,1.7s-1.2,0.5-1.7,0L10.3,12
	c-0.2,0-0.4,0-0.6,0L8,13.7c-0.5,0.5-1.2,0.5-1.7,0c-0.5-0.5-0.5-1.2,0-1.7L8,10.3c0-0.2,0-0.4,0-0.6L6.3,8c-0.5-0.5-0.5-1.2,0-1.7
	c0.5-0.5,1.2-0.5,1.7,0L9.7,8c0.2,0,0.4,0,0.6,0L12,6.3c0.5-0.5,1.2-0.5,1.7,0c0.5,0.5,0.5,1.2,0,1.7L12,9.7L12,9.7z"/>
</svg>
