<?xml version="1.0" encoding="utf-8"?>
<!-- Generator: Adobe Illustrator 21.0.0, SVG Export Plug-In . SVG Version: 6.00 Build 0)  -->
<svg version="1.1" id="Слой_1" xmlns="http://www.w3.org/2000/svg" xmlns:xlink="http://www.w3.org/1999/xlink" x="0px" y="0px"
	 viewBox="0 0 20 20" style="enable-background:new 0 0 20 20;" xml:space="preserve">
<style type="text/css">
	.st0{fill:#33CC33;}
</style>
<path id="Esport" class="st0" d="M20,12.9c-0.1-2.5-0.8-5.6-1.7-7.4c-2.2-4.3-4.8-1.8-8.1-1.5H9.8C6.5,3.7,3.9,1.2,1.7,5.5
	C0.8,7.3,0.1,10.4,0,12.9c-0.3,6,2.9,4.4,5.8,1.4c1.8-1.9,6.5-1.9,8.4,0C17.1,17.3,20.2,19,20,12.9z M8,9H7v1c0,0.7-0.3,1-1,1
	c-0.7,0-1-0.3-1-1V9H4C3.3,9,3,8.7,3,8c0-0.7,0.3-1,1-1h1V6c0-0.7,0.3-1,1-1c0.7,0,1,0.3,1,1v1h1c0.7,0,1,0.3,1,1C9,8.7,8.7,9,8,9z
	 M12,9c-0.6,0-1-0.4-1-1s0.4-1,1-1c0.6,0,1,0.4,1,1S12.6,9,12,9z M14,11c-0.6,0-1-0.4-1-1c0-0.6,0.4-1,1-1c0.6,0,1,0.4,1,1
	C15,10.6,14.6,11,14,11z M14,7c-0.6,0-1-0.4-1-1c0-0.5,0.4-1,1-1c0.6,0,1,0.4,1,1S14.6,7,14,7z M16,9c-0.6,0-1-0.4-1-1s0.4-1,1-1
	c0.6,0,1,0.4,1,1S16.6,9,16,9z"/>
</svg>
