<?xml version="1.0" encoding="utf-8"?>
<!-- Generator: Adobe Illustrator 21.0.0, SVG Export Plug-In . SVG Version: 6.00 Build 0)  -->
<svg version="1.1" id="Слой_1" xmlns="http://www.w3.org/2000/svg" xmlns:xlink="http://www.w3.org/1999/xlink" x="0px" y="0px"
	 viewBox="0 0 20 20" style="enable-background:new 0 0 20 20;" xml:space="preserve">
<style type="text/css">
	.st0{fill:#33CC33;}
</style>
<path id="Info" class="st0" d="M17.1,2.9C15.2,1,12.7,0,10,0S4.8,1,2.9,2.9S0,7.3,0,10s1,5.2,2.9,7.1S7.3,20,10,20s5.2-1,7.1-2.9
	S20,12.7,20,10S19,4.8,17.1,2.9z M10,17.7c-4.2,0-7.7-3.4-7.7-7.7S5.8,2.3,10,2.3s7.7,3.4,7.7,7.7S14.2,17.7,10,17.7z M10,4
	c1.1,0,2,0.9,2,2s-0.9,2-2,2S8,7.1,8,6S8.9,4,10,4z M12.5,16h-5v-1h1.1v-5H7.5V9h3.9v6h1.1V16z"/>
</svg>
