<?xml version="1.0" encoding="utf-8"?>
<!-- Generator: Adobe Illustrator 21.0.0, SVG Export Plug-In . SVG Version: 6.00 Build 0)  -->
<svg version="1.1" id="Слой_1" xmlns="http://www.w3.org/2000/svg" xmlns:xlink="http://www.w3.org/1999/xlink" x="0px" y="0px"
	 viewBox="0 0 20 20" style="enable-background:new 0 0 20 20;" xml:space="preserve">
<style type="text/css">
	.st0{fill:#33CC33;}
</style>
<path id="Popular" class="st0" d="M10,0C4.5,0,0,4.5,0,10s4.5,10,10,10s10-4.5,10-10S15.5,0,10,0z M15.4,8.9L13.2,11l0.5,3.1
	c0,0.2-0.1,0.5-0.3,0.6c-0.2,0.1-0.5,0.2-0.7,0L10,13.3l-2.8,1.5c-0.2,0.1-0.5,0.1-0.7,0c-0.2-0.1-0.3-0.4-0.3-0.6L6.8,11L4.6,8.9
	C4.4,8.7,4.3,8.4,4.4,8.2C4.5,8,4.7,7.8,4.9,7.7L8,7.3l1.4-2.8C9.5,4.3,9.8,4.1,10,4.1c0.2,0,0.5,0.1,0.6,0.4L12,7.3l3.1,0.4
	c0.2,0,0.4,0.2,0.5,0.4C15.7,8.4,15.6,8.7,15.4,8.9z"/>
</svg>
