<?xml version="1.0" encoding="utf-8"?>
<!-- Generator: Adobe Illustrator 21.0.0, SVG Export Plug-In . SVG Version: 6.00 Build 0)  -->
<svg version="1.1" id="Слой_1" xmlns="http://www.w3.org/2000/svg" xmlns:xlink="http://www.w3.org/1999/xlink" x="0px" y="0px"
	 viewBox="0 0 20 20" style="enable-background:new 0 0 20 20;" xml:space="preserve">
<style type="text/css">
	.st0{fill:#33CC33;}
</style>
<path id="Slot" class="st0" d="M15,4.9H0.6C0.3,4.9,0,5.2,0,5.5v7.7c0,0.3,0.3,0.6,0.6,0.6H15c0.3,0,0.6-0.3,0.6-0.6V5.5
	C15.6,5.2,15.3,4.9,15,4.9z M13.1,11.9c0,0.3-0.3,0.6-0.6,0.6H3.1c-0.3,0-0.6-0.3-0.6-0.6v-5c0-0.3,0.3-0.6,0.6-0.6h9.4
	c0.3,0,0.6,0.3,0.6,0.6V11.9z M10,7.4h2v3.8h-2V7.4z M6.8,7.4h2v3.8h-2V7.4z M3.7,7.4h2v3.8h-2V7.4z M1.3,19.4
	c0,0.3,0.3,0.6,0.6,0.6h11.9c0.3,0,0.6-0.3,0.6-0.6V15H1.3V19.4z M10,16.3h1.3c0.3,0,0.6,0.3,0.6,0.6c0,0.3-0.3,0.6-0.6,0.6H10
	c-0.3,0-0.6-0.3-0.6-0.6C9.4,16.6,9.7,16.3,10,16.3z M14.4,3.1C14.4,1.4,13,0,11.3,0H4.4C2.6,0,1.3,1.4,1.3,3.1v0.7h13.1V3.1z
	 M17.6,5.4v3.4h-0.8V10h1.4c0.3,0,0.6-0.3,0.6-0.6V5.4c-0.2,0-0.4,0.1-0.6,0.1C18,5.5,17.8,5.5,17.6,5.4z M18.2,0.6
	c-1,0-1.8,0.8-1.8,1.8s0.8,1.8,1.8,1.8S20,3.5,20,2.5S19.2,0.6,18.2,0.6z"/>
</svg>
