<?xml version="1.0" encoding="utf-8"?>
<!-- Generator: Adobe Illustrator 21.0.0, SVG Export Plug-In . SVG Version: 6.00 Build 0)  -->
<svg version="1.1" id="Слой_1" xmlns="http://www.w3.org/2000/svg" xmlns:xlink="http://www.w3.org/1999/xlink" x="0px" y="0px"
	 viewBox="0 0 20 20" style="enable-background:new 0 0 20 20;" xml:space="preserve">
<style type="text/css">
	.st0{fill:#33CC33;}
</style>
<path id="Virtual" class="st0" d="M8.8,17.5h2.5V20H8.8V17.5z M8.8,0h2.5v2.5H8.8V0z M13.7,10.6c-0.3,1.8-1.8,3.1-3.7,3.1
	s-3.4-1.4-3.7-3.1H2.5v8.8c0,0.3,0.3,0.6,0.6,0.6h4.4v-3.1c0-0.3,0.3-0.6,0.6-0.6h3.8c0.3,0,0.6,0.3,0.6,0.6V20h4.4
	c0.3,0,0.6-0.3,0.6-0.6v-8.8H13.7z M7.6,10.6c0.3,1.1,1.2,1.9,2.4,1.9s2.1-0.8,2.4-1.9H7.6z M16.9,0h-4.4v3.1c0,0.3-0.3,0.6-0.6,0.6
	H8.1c-0.3,0-0.6-0.3-0.6-0.6V0H3.1C2.8,0,2.5,0.3,2.5,0.6v8.8h3.8C6.6,7.6,8.1,6.2,10,6.2s3.4,1.4,3.7,3.1h3.8V0.6
	C17.5,0.3,17.2,0,16.9,0z M10,7.5c-1.2,0-2.1,0.8-2.4,1.9h4.8C12.1,8.3,11.2,7.5,10,7.5z"/>
</svg>
