<?xml version="1.0" encoding="utf-8"?>
<!-- Generator: Adobe Illustrator 21.0.0, SVG Export Plug-In . SVG Version: 6.00 Build 0)  -->
<svg version="1.1" id="Social" xmlns="http://www.w3.org/2000/svg" xmlns:xlink="http://www.w3.org/1999/xlink" x="0px" y="0px"
	 viewBox="0 0 40 40" enable-background="new 0 0 40 40" xml:space="preserve">
<g id="ico40_x5F_OkNormal">
	<g id="_x30__2_">
		<circle fill="#E8EBEF" cx="20" cy="20" r="20"/>
	</g>
	<path id="Ok_1_" fill="#B5C0CB" d="M15,15c0-2.8,2.2-5,5-5s5,2.2,5,5s-2.2,5-5,5S15,17.8,15,15z M22.5,15c0-1.4-1.1-2.5-2.5-2.5
		c-1.4,0-2.5,1.1-2.5,2.5s1.1,2.5,2.5,2.5C21.4,17.5,22.5,16.4,22.5,15z M24.5,22.6c-1.1,0.7-2.5,1-3.5,1.1l3.8,4
		c0.4,0.5,0.4,1.3,0,1.7c-0.4,0.4-1.2,0.7-1.8,0.1l-3-3.2l-3,3.2c-0.6,0.6-1.3,0.3-1.8-0.1s-0.4-1.3,0-1.7c0.8-0.8,3.8-4,3.8-4
		c-1-0.1-2.4-0.4-3.5-1.1c-1.3-0.9-1.8-1.4-1.3-2.4c0.3-0.6,1.1-1.1,2.1-0.2c1.7,1.5,5.6,1.6,7.4,0c1-0.9,1.8-0.4,2.1,0.2
		C26.3,21.2,25.8,21.7,24.5,22.6z"/>
</g>
</svg>
