<?xml version="1.0" encoding="utf-8"?>
<!-- Generator: Adobe Illustrator 21.0.0, SVG Export Plug-In . SVG Version: 6.00 Build 0)  -->
<svg version="1.1" id="Social" xmlns="http://www.w3.org/2000/svg" xmlns:xlink="http://www.w3.org/1999/xlink" x="0px" y="0px"
	 viewBox="0 0 40 40" enable-background="new 0 0 40 40" xml:space="preserve">
<g id="ico40_x5F_VkHover">
	<g id="_x30__4_">
		<circle fill="#0080FF" cx="20" cy="20" r="20"/>
	</g>
	<g id="Vk_1_">
		<path fill="#E8EBEF" d="M29.6,14.8c0.1-0.5,0-0.8-0.7-0.8h-2.2c-0.6,0-0.8,0.3-0.9,0.6c0,0-1.1,2.7-2.7,4.5
			c-0.5,0.5-0.7,0.7-1,0.7c-0.1,0-0.3-0.2-0.3-0.6v-4.4c0-0.6-0.2-0.8-0.6-0.8h-3.4c-0.3,0-0.6,0.3-0.6,0.5c0,0.5,0.8,0.7,0.9,2.2
			v3.2c0,0.7-0.1,0.8-0.4,0.8c-0.7,0-2.5-2.7-3.6-5.9c-0.2-0.6-0.4-0.9-1-0.9h-2.2c-0.6,0-0.7,0.3-0.7,0.6c0,0.6,0.7,3.5,3.5,7.3
			c1.8,2.6,4.4,4,6.7,4c1.4,0,1.6-0.3,1.6-0.9v-2c0-0.6,0.1-0.8,0.6-0.8c0.3,0,0.9,0.2,2.2,1.4c1.5,1.5,1.7,2.2,2.6,2.2h2.2
			c0.6,0,0.9-0.3,0.8-0.9c-0.4-1.3-2.7-3.5-3.4-4.2c-0.3-0.4-0.2-0.6,0-1C26.6,19.9,29.3,16.1,29.6,14.8z"/>
	</g>
</g>
</svg>
