<?xml version="1.0" encoding="utf-8"?>
<!-- Generator: Adobe Illustrator 21.0.0, SVG Export Plug-In . SVG Version: 6.00 Build 0)  -->
<svg version="1.1" id="Слой_1" xmlns="http://www.w3.org/2000/svg" xmlns:xlink="http://www.w3.org/1999/xlink" x="0px" y="0px"
	 width="70px" height="70px" viewBox="0 0 70 70" style="enable-background:new 0 0 70 70;" xml:space="preserve">
<style type="text/css">
	.st0{opacity:0.4;fill:#FFFFFF;}
</style>
<path id="popapico_x5F_error" class="st0" d="M35,48c-2,0-3.6,1.6-3.6,3.6c0,2,1.6,3.6,3.6,3.6c1.9,0,3.6-1.6,3.5-3.5
	C38.6,49.6,37,48,35,48z M68.3,60.7c2.3-3.9,2.3-8.5,0-12.4l-22.5-39C43.6,5.3,39.5,3,35,3c-4.5,0-8.5,2.3-10.8,6.2L1.7,48.3
	c-2.2,3.9-2.2,8.6,0,12.5C4,64.7,8,67,12.5,67h45C62,67,66,64.7,68.3,60.7z M63.4,57.9c-1.3,2.2-3.5,3.4-5.9,3.4h-45
	c-2.4,0-4.6-1.3-5.9-3.4c-1.2-2.1-1.3-4.7,0-6.9l22.6-39.1c1.2-2.1,3.4-3.4,5.9-3.4c2.5,0,4.7,1.3,5.9,3.4l22.5,39.1
	C64.7,53.2,64.6,55.8,63.4,57.9z M34.1,22.7c-1.7,0.5-2.8,2-2.8,3.9c0.1,1.1,0.2,2.3,0.2,3.4c0.2,4.3,0.5,8.6,0.7,12.9
	c0.1,1.5,1.2,2.5,2.7,2.5c1.5,0,2.6-1.1,2.7-2.6c0-0.9,0-1.7,0.1-2.6c0.2-2.8,0.3-5.6,0.5-8.3c0.1-1.8,0.2-3.6,0.3-5.4
	c0-0.6-0.1-1.2-0.3-1.8C37.5,23.1,35.8,22.3,34.1,22.7z"/>
</svg>
