<?xml version="1.0" encoding="utf-8"?>
<!-- Generator: Adobe Illustrator 21.0.0, SVG Export Plug-In . SVG Version: 6.00 Build 0)  -->
<svg version="1.1" id="Logo" xmlns="http://www.w3.org/2000/svg" xmlns:xlink="http://www.w3.org/1999/xlink" x="0px" y="0px"
	 width="100px" height="100px" viewBox="0 0 100 100" style="enable-background:new 0 0 100 100;" xml:space="preserve">
<style type="text/css">
	.st0{fill:#333333;}
	.st1{fill:#33CC33;}
	.st2{fill:#EEEEEE;}
</style>
<g id="Logo_x5F_ZigZagSport">
	<path class="st0" d="M98.5,65c-0.7-0.9-1.8-1.5-3-1.5h-8.1c0.8-0.6,1.4-1.6,1.6-3c1.1-5.8,1.6-7.3,3.3-10.9c1.1-2.2,4.4-7.5,6-10
		c1-1.7-0.3-4.6-2.1-6.4c-0.6-0.6-1.4-0.7-2.2-0.7c-0.5,0.1-0.9,0.2-1.4,0.5c-0.5-0.3-1.2-0.8-2.5-0.8s-2.3,0.5-2.3,0.5
		c-1-0.3-2.1-0.4-3.3-0.1C83,33,81.7,34.8,81,36.4c-1.1-0.6-3.2-0.8-4.1-0.4c-0.2-0.1-0.4-0.1-0.6-0.2c1.8-1.8,3.3-3.3,4.4-4.2
		c0,0,3.4-2.1,5.2-3.8c1.9-1.9,2.4-4.6,2-6.3c-0.2-0.7-2-4.7-3.6-4.7c-1.7,0-2.3,0.5-3.3,1.4c-1.3,1.2-4.1,3.8-8.9,6.3
		c-2,1-4.6,2.3-7.4,3.5c-9.3,4.3-15.1,7.2-16.7,9.7c-0.9,1.3-1.1,3.5-0.6,5c0.3,0.9,3,3.8,3.8,4c1.2,0.4,2-0.2,3.2-1.1
		c0.4-0.3,0.8-0.6,1.4-1c-2.1,2.4-3.9,4.8-5.4,6.9c-0.2-0.3-1.4-2.9-2.2-3.5c-0.6-0.5-1.4-0.7-2.2-0.7c-0.5,0.1-0.9,0.2-1.4,0.5
		c-0.5-0.3-1-0.5-1.2-0.5c-0.5-0.2-2-0.6-3.4,0.2c-0.1,0-0.1,0.1-0.2,0.1c-1-0.3-2.1-0.4-3.3-0.1c0,0,0,0,0,0c0,0,0,0-0.1,0h0
		c-0.1-0.1-0.2-0.1-0.3-0.2c0-0.9-0.3-1.6-0.9-2.2c0.6-0.6,1.2-1.1,1.7-1.5l0.3-0.2c1.2-0.8,3.1-1.9,4.9-3.6c1.9-1.9,2.4-4.6,2-6.3
		c-0.2-0.7-1.8-4.4-3.6-4.7c-1.4-0.2-2.3,0.5-3.3,1.4c-1.3,1.2-4.1,3.8-8.9,6.3c-2,1-4.6,2.3-7.4,3.5c-9.3,4.3-15.1,7.2-16.7,9.7
		c-0.9,1.3-1.1,3.5-0.6,5c0.3,0.9,3,3.8,3.8,4c1.2,0.4,2-0.2,3.2-1.1c0.4-0.3,0.8-0.6,1.4-1c-2.7,3.2-5.1,6.2-6.7,8.6
		C2.3,67.4,0,71,0,73.8c0,2.7,2.7,5,3.6,5.4c0.3,0.2,0.7,0.2,1.1,0.2c0.7,0,1.3-0.3,2-0.8c0.2-0.2,0.4-0.4,0.8-0.7
		c1.3-1.3,4.5-4.2,10.7-8.4c4.4-3,8.4-5,11.9-6.1c1.1,0.6,2.5,0.8,3.6,0.7c-1,3.5-2.1,7.2-2.5,8.4c-0.4,1.5,0,2.5,0.5,3.1
		c0.3,0.4,2.8,3.4,4.7,3.4c0.6,0,1.1-0.1,1.6-0.2c0.3,1.6,1.2,2.5,1.4,2.8c0.7,0.9,1.8,1.5,3,1.5h51.4c1.7,0,3.2-1.2,3.7-2.9
		l2.7-10.7C100.3,67.4,98.9,65.4,98.5,65z M61.9,57.6c5-3.3,9.4-5.5,13.1-6.4c0.1,0,1,0,1.5,0c1.4,0,2.7-0.7,3.5-1.7
		c0.6,0.1,1.2,0.1,1.7,0.1c-1.1,3.6-2.1,7-2.4,8.1c-0.4,1.5,0,2.5,0.5,3.1c0.2,0.3,1.6,1.7,2.9,2.6H54C55.8,62,58.4,60,61.9,57.6z"
		/>
	<path class="st1" d="M60.8,70.3c0.1,0.2,0.1,0.4,0.1,0.8c-0.1,0.5-0.2,0.8-0.3,1c-0.2,0.1-0.4,0.2-0.8,0.2h-1l0.3-2.2h1.1
		C60.5,70.1,60.7,70.1,60.8,70.3z M77.4,70.1h-1.2L76,72H77c0.4,0,0.7-0.1,0.9-0.2c0.2-0.2,0.3-0.4,0.4-0.9c0-0.4,0-0.6-0.1-0.7
		C78,70.2,77.8,70.1,77.4,70.1z M68.5,70.1c-0.5,0-0.9,0.2-1.1,0.5c-0.2,0.4-0.4,1.1-0.6,2.1c-0.2,1-0.2,1.6,0,2
		c0.1,0.3,0.4,0.5,0.9,0.5c0.5,0,0.9-0.2,1.1-0.5c0.2-0.4,0.4-1.1,0.5-2.1c0.2-1,0.2-1.6,0-2C69.3,70.3,69,70.1,68.5,70.1z
		 M97.9,67.9l-2.7,10.7c-0.3,1.1-1.2,1.8-2.3,1.8H41.5c-1.5,0-2.7-1.5-2.3-3l2.7-10.7c0.3-1.1,1.2-1.8,2.3-1.8h51.4
		C97.1,64.9,98.3,66.4,97.9,67.9z M54.8,68.8C54,68.6,53,68.4,52,68.4c-1.1,0-1.9,0.2-2.4,0.5c-0.5,0.3-0.8,0.9-0.9,1.8
		c-0.1,0.6,0,1.1,0.2,1.5c0.2,0.4,0.6,0.7,1.3,1l1.5,0.7C51.8,73.9,52,74,52,74c0,0.1,0.1,0.2,0,0.4c0,0.2-0.2,0.4-0.3,0.5
		C51.6,75,51.3,75,50.9,75c-0.2,0-1.1,0-2.7-0.1L48,76.5c1,0.2,2,0.4,3,0.4c1.1,0,2-0.2,2.4-0.5c0.5-0.3,0.7-0.9,0.9-1.8
		c0.1-0.6,0-1.1-0.2-1.5c-0.2-0.4-0.6-0.7-1.3-1l-1.4-0.6c-0.3-0.1-0.4-0.2-0.5-0.3c-0.1-0.1-0.1-0.2-0.1-0.4c0-0.2,0.1-0.4,0.3-0.4
		c0.2,0,0.4-0.1,0.8-0.1c0.4,0,1.3,0,2.7,0L54.8,68.8z M62.6,69.1c-0.4-0.4-1.3-0.6-2.4-0.6c-1.3,0-2.4,0-3.1,0.1l-1.1,8.1v0h2.2
		l0.4-2.9c0.5,0,0.9,0.1,1.4,0.1c1,0,1.8-0.2,2.2-0.5c0.4-0.4,0.7-1.1,0.9-2.1C63.2,70.2,63,69.5,62.6,69.1z M71.3,69.4
		c-0.5-0.6-1.5-0.9-2.8-0.9c-1.3,0-2.2,0.3-2.8,0.9c-0.6,0.6-1,1.6-1.2,3.3c-0.2,1.6-0.1,2.7,0.4,3.4c0.5,0.6,1.4,0.9,2.8,0.9
		c0.7,0,1.2-0.1,1.6-0.2c0.4-0.1,0.8-0.4,1.1-0.7c0.3-0.3,0.6-0.7,0.8-1.3c0.2-0.5,0.4-1.2,0.5-2C72,71.1,71.8,70,71.3,69.4z
		 M79.8,69.1c-0.5-0.4-1.3-0.6-2.4-0.6c-1.3,0-2.4,0-3.1,0.1l-1.1,8.1h2.1l0.4-3.1h1.1c0.2,0,0.4,0,0.4,0.1c0.1,0.1,0.2,0.2,0.2,0.5
		l0.3,2.5H80l-0.4-2.5c-0.1-0.7-0.4-1.1-1-1.3v-0.1c0.6-0.1,1-0.3,1.3-0.6c0.3-0.3,0.4-0.7,0.5-1.3C80.5,70.1,80.3,69.5,79.8,69.1z
		 M89.1,68.6h-6.9L82,70.3h2.3l-0.9,6.4h2.2l0.9-6.4h2.3L89.1,68.6z"/>
	<path class="st2" d="M33.7,46c0.8,0.6,0.6,1.3,0.5,1.8l0,0.1c-0.1,0.6-0.6,1.5-1,2c-0.4,0.6-0.9,0.8-1.5,0.8c-0.1,0-0.2,0-0.2,0
		c-0.7-0.1-1.2-0.2-1.7-0.6c-0.7-0.5-0.6-1.3-0.5-1.7l0-0.1c0.1-0.5,0.3-1.3,0.6-1.9c0.5-0.9,1.2-1,1.8-0.9
		C32.4,45.3,33.1,45.6,33.7,46z M95.4,36.4c-1.6,2.5-4.9,7.9-6.1,10.2c-1.8,3.6-2.3,5.3-3.4,11.2c-0.4,2-1.2,2.7-3.2,2.7
		c-0.7,0-1.2-0.2-1.5-0.6c-0.3-0.4-0.4-0.9-0.2-1.6c0.5-1.8,3.2-10.8,4.2-14.2c-0.3,0-0.7,0-1.1-0.1c-0.5-0.1-0.9-0.3-1.3-0.6
		c-0.4,0.8-0.8,1.4-1.1,1.8c-0.6,0.6-2,1.1-4,0.5c-0.9,1.1-1.6,1.8-3,1.8c-0.5,0-1,0-1.4-0.1c-0.1,0.1-0.2,0.1-0.4,0.1
		c-3.9,1-8.4,3.2-13.6,6.6c-6.3,4.2-9.5,7.2-10.8,8.5c-0.3,0.3-0.5,0.5-0.7,0.6c-0.4,0.3-0.7,0.5-1.1,0.5c-0.2,0-0.3,0-0.5-0.1
		c-0.7-0.3-0.7-1.3-0.7-1.7c0-2,1.9-5.4,4.7-7.3c3.5-5.5,11.7-14.8,19.1-22.3c-2.2,1-5.1,2.4-8.4,4.1c-5.1,2.6-7.9,4.8-9.3,5.8
		c-1,0.8-1.4,1-1.9,0.9c-0.3-0.1-0.6-0.3-0.8-0.8c-0.3-0.9-0.1-2.6,0.5-3.4c1.5-2.3,8.9-5.8,16-9.1c2.8-1.3,5.4-2.5,7.4-3.6
		c5.1-2.6,7.9-5.3,9.3-6.5c0.9-0.8,1.2-1.1,1.7-1c0.2,0,0.6,0.2,0.8,0.9c0.3,1.1,0,3.3-1.6,4.9c-1.7,1.6-3.4,2.7-4.6,3.4
		c-0.1,0.1-0.3,0.2-0.4,0.2c-4.7,3.9-15.5,16-20.9,22.3c4.3-2.5,8.1-4.3,12-5.4c0.3-0.1,0.6-0.1,0.9-0.2C70,43.5,70.4,42,71,40.8
		c0.9-1.8,1.7-3.4,3.5-3.5c0.9,0,1.7,0.2,2.3,0.5c0.2-0.2,0.4-0.3,0.8-0.4c0.7-0.1,1.9,0.1,2.6,0.5c0.9,0.6,0.7,1.7,0.6,2.2l0,0.1
		c0,0,0,0.1,0,0.1c0.3-0.4,0.6-0.8,0.9-1.3c0.4-1.2,1.8-4.4,3.2-4.7c1.2-0.3,2.3-0.1,3.3,0.5c0.2-0.3,0.4-0.5,0.7-0.7
		c0.7-0.4,1.4-0.2,2,0c0.5,0.2,1.2,0.5,1.5,1.1c0.1,0.2,0.1,0.3,0.1,0.5c0.3-0.4,0.5-0.7,0.6-0.8c0.1-0.2,0.5-0.6,1.1-0.6
		c0.3,0,0.7,0.1,0.9,0.3C95.7,35,95.8,35.8,95.4,36.4z M76.6,39.7c-0.3-0.7-1-0.3-1.4,0.1c-1.5,1.5-1.9,3.8-1.6,5.1
		c0.2,0.7,1.2,0.4,2-0.6C77,42.5,77,40.7,76.6,39.7z M87.8,36.4c-0.3-0.7-1-0.3-1.4,0.1c-1.5,1.5-1.9,3.8-1.6,5.1
		c0.2,0.7,1.2,0.4,2-0.6C88.2,39.3,88.2,37.5,87.8,36.4z M47.2,51.2c-1.6,2.5-4.9,7.9-6.1,10.2c-1.8,3.6-2.3,5.3-3.4,11.2
		c-0.4,2-1.2,2.7-3.2,2.7c-0.7,0-1.2-0.2-1.5-0.6c-0.3-0.4-0.4-0.9-0.2-1.6c0.5-1.8,3.2-10.8,4.2-14.2c-0.3,0-0.7,0-1.1-0.1
		c-0.6-0.2-1.2-0.5-1.6-0.9c-1.4,2-1.9,2.2-2.1,2.3c-0.9,0.4-2.6,0.2-3.8-0.7c-3.7,1-8.1,3.2-12.8,6.4c-6.3,4.2-9.5,7.2-10.8,8.5
		C4.4,74.8,4.2,75,4,75.1c-0.4,0.3-0.7,0.5-1.1,0.5c-0.2,0-0.3,0-0.5-0.1c-0.7-0.3-0.7-1.3-0.7-1.7c0-2,1.9-5.4,4.7-7.3
		C10,61,18.2,51.7,25.6,44.2c-2.2,1-5.1,2.4-8.4,4.1c-5.1,2.6-7.9,4.8-9.3,5.8c-1,0.8-1.4,1-1.9,0.9c-0.3-0.1-0.6-0.3-0.8-0.8
		c-0.3-0.9-0.1-2.6,0.5-3.4c1.5-2.3,8.9-5.8,16-9.1c2.8-1.3,5.4-2.5,7.4-3.6c5.1-2.6,7.9-5.3,9.3-6.5c0.9-0.8,1.2-1.1,1.7-1
		c0.2,0,0.6,0.2,0.8,0.9c0.3,1.1,0,3.3-1.6,4.9c-1.7,1.6-3.4,2.7-4.6,3.4c-0.1,0.1-0.3,0.2-0.4,0.2c-4.7,3.9-15.5,16-20.9,22.3
		c4.3-2.5,8.1-4.3,12-5.4c0.5-0.1,1.1-0.2,1.5-0.2c0-0.4,0-0.9,0.1-1.4c0.2-1.3,0.6-2.5,0.8-2.9c0.5-1,1.2-1,1.9-1
		c0.4,0,1.3,0.2,1.8,0.7c0.7,0.6,0.5,1.6,0.4,2.3c-0.1,0.5-0.2,1-0.3,1.4c0,0.1,0,0.2-0.1,0.2c0.7-0.7,1.5-1.7,2-2.5
		c0.2-0.6,1.5-4,3.1-4.3c1.2-0.3,2.3-0.1,3.3,0.5c0.2-0.3,0.4-0.5,0.7-0.7c0.7-0.4,1.4-0.2,2,0c0.5,0.2,1.2,0.5,1.5,1.1
		c0.1,0.2,0.1,0.3,0.1,0.5c0.3-0.4,0.5-0.7,0.6-0.8c0.1-0.2,0.5-0.6,1.1-0.6c0.3,0,0.7,0.1,0.9,0.3h0C47.5,49.8,47.6,50.6,47.2,51.2
		z M39.5,51.2c-0.3-0.7-1-0.3-1.4,0.1c-1.5,1.5-1.9,3.8-1.6,5.1c0.2,0.7,1.2,0.4,2-0.6C39.9,54.1,39.9,52.3,39.5,51.2z"/>
</g>
</svg>
