<?xml version="1.0" encoding="utf-8"?>
<!-- Generator: Adobe Illustrator 21.0.0, SVG Export Plug-In . SVG Version: 6.00 Build 0)  -->
<svg version="1.1" id="Logo" xmlns="http://www.w3.org/2000/svg" xmlns:xlink="http://www.w3.org/1999/xlink" x="0px" y="0px"
	 width="100px" height="100px" viewBox="0 0 100 100" style="enable-background:new 0 0 100 100;" xml:space="preserve">
<style type="text/css">
	.st0{fill:#333333;}
	.st1{fill:#EEEEEE;}
	.st2{fill:#D1571B;}
	.st3{fill:#BD390E;}
	.st4{fill:#FF9900;}
	.st5{fill:#FFCC00;}
</style>
<g id="Logo_x5F_Explosino">
	<path id="_x34_4" class="st0" d="M100,41.4c0-2.5-1.2-4.9-2-6.3c-0.4-0.6-1.5-2.6-1.9-3.2c-0.8-1.3-1.8-2.5-3.1-3.4
		c-1.2-0.8-2.6-1.5-4.2-1.8c-1.5-0.4-3.1-0.4-4.7-0.1c-1.6,0.2-3.2,0.7-4.6,1.5c-0.9,0.5-1.8,1.1-2.5,1.8l0.1-5
		c0-0.6-2.1-4.2-2.5-4.6c-0.4-0.4-0.9-0.6-1.4-0.5L66,20.5c-1,0.1-1.8,0.9-1.8,1.9l0.1,10.9c-0.4-1-1-1.9-1.6-2.7
		c-0.9-1.1-2-2-3.2-2.7c-1.3-0.7-2.8-1.1-4.4-1.1c-0.9,0-1.8,0.1-2.5,0.4l8-9.6c0.6-0.7,0.4-1.7,0-2.5c-0.8-1.3-1.3-2.5-1.9-3.2
		c-0.4-0.4-0.8-0.6-1.4-0.6c-0.4,0-0.7,0.1-1,0.3L31.5,27.1l-13-4.7c-0.8-0.3-1.5-0.1-2.1,0.6c-0.5,0.6-0.6,1.5-0.2,2.1l2.1,3.7
		c-0.1,0-0.1-0.1-0.1-0.1c-1.9-1.3-4.1-2-6.6-2c-1.5,0-3,0.3-4.4,0.8S4.5,28.9,3.5,30c-1.1,1.1-1.9,2.3-2.5,3.9
		c-0.6,1.4-0.9,3.2-0.9,5c0,1.3,0.4,3,0.9,4.3C1.4,44.3,4.2,49,5.3,50c1.1,1.1,2.3,1.8,3.7,2.5c1.4,0.6,3,0.9,4.7,0.9
		c1.1,0,2-0.1,3-0.2c0,0.9,2.3,2,3,1.5c0,0-1.3,1.5-2.2,1.3c-0.3-0.1-0.6-0.1-1.1-0.2c-0.4-0.1-0.8-0.1-1.3-0.2
		c-0.5-0.1-1.1-0.1-1.6-0.2c-0.6-0.1-1.1-0.1-1.7-0.1c-1.5,0-3,0.2-4.1,0.6c-1.2,0.4-2.2,1-3,1.7C4,58.3,3.4,59.2,3,60.1
		c-0.4,0.9-0.6,1.8-0.6,2.7c0,1.3,0.2,2.5,0.7,3.4c0.1,0.6,0.6,1.2,1.1,1.7c-0.4,0-0.7,0.1-1,0.4c-0.5,0.4-0.8,0.9-0.8,1.5v5.8
		c0,0.8,2,4.2,3.2,4.9c0.8,0.4,2,0.6,2.9,0.7c0.9,0.1,1.8,0.1,2.8,0.1c1.2,0,2.4-0.1,3.6-0.3c1.3-0.2,3.5-1.3,3.7-1.3
		c0,0-0.3,1.7-0.3,2.4c0,3.5,2.6,5.1,3.6,5.7c1.1,0.7,2.7,0.9,4.6,0.9c1.3,0,2.8-0.3,3.8-0.6c3.2-1.3,6.5-3.1,6.3-6.3l1.3-9.4
		l0.5,3.6c0,1,2.7,4.9,3.7,5l6.6,0.4c0.5,0.1,1.1-0.1,1.4-0.5c0,0,1.1,0.6,1.5,0.6c0.1,0,0.1,0,0.1,0l6.8-0.6c1-0.1,1.8-0.9,1.8-1.9
		v-1.2c0.5,0.6,1.1,1.1,1.7,1.5c1.2,0.8,2.6,1.4,4.1,1.8c1.5,0.4,3,0.4,4.6,0.1c1.6-0.2,3.1-0.7,4.4-1.4s2.5-1.7,3.4-2.8
		c0.9-1.1,1.6-2.5,2-3.9c0.4-1.5,0.5-3.1,0.3-4.8l0,0c-0.3-1.7-0.8-3.2-1.5-4.5c-0.4-0.6-1.5-2.6-1.9-3.2c-0.8-1.3-1.8-2.4-3-3.2
		c-1.2-0.8-2.5-1.4-4.1-1.8c-1.5-0.3-3-0.4-4.6-0.1c-1.6,0.2-3.1,0.7-4.4,1.4c-1.3,0.7-2.5,1.7-3.5,2.9c-0.1,0.1-0.1,0.1-0.1,0.2
		c-0.3-0.6-0.6-1.1-1.1-1.6c-0.6-0.7-1.2-1.2-2-1.6l-0.1-3.2c0.8,0.1,1.5,0.3,2.2,0.3c1.6,0,3.1-0.4,4.4-1.1
		c1.3-0.7,2.5-1.5,3.4-2.7c0.1-0.1,0.2-0.3,0.4-0.4c0.1,0.1,1.8,3.2,2.2,3.5c0.4,0.4,0.9,0.5,1.4,0.5l6.8-0.6c1-0.1,1.7-0.9,1.8-1.8
		l0.1-3.7c0.1,0.2,0.2,0.4,0.4,0.6c0.8,1.3,1.8,2.5,3.1,3.3c1.2,0.8,2.6,1.5,4.2,1.8c1.5,0.4,3.1,0.4,4.7,0.1
		c1.7-0.2,3.2-0.7,4.6-1.5c1.4-0.8,2.5-1.7,3.5-2.9C98.2,47.6,100,45.2,100,41.4z"/>
	<path id="_x34_" class="st1" d="M29.9,45.5l1.9,0.6L31.1,55L28,54.3L29.9,45.5z M4.4,69.8v5.8c0.8,0.2,1.7,0.4,2.5,0.5
		c0.8,0.1,1.7,0.1,2.6,0.1c1.1,0,2.2-0.1,3.2-0.3c1.1-0.2,2-0.5,2.7-0.9c0.8-0.4,1.5-1.1,1.9-1.8c0.5-0.8,0.7-1.7,0.7-2.8
		c0-1.1-0.1-1.9-0.5-2.5c-0.4-0.6-0.8-1.1-1.3-1.5c-0.5-0.4-1.1-0.7-1.6-0.9c-0.6-0.2-1.1-0.4-1.6-0.5c-0.5-0.1-0.9-0.3-1.2-0.5
		c-0.4-0.1-0.5-0.4-0.5-0.8c0-0.2,0.1-0.4,0.3-0.5c0.2-0.1,0.4-0.2,0.7-0.3c0.3-0.1,0.6-0.1,0.8-0.1c0.3,0,0.5,0,0.6,0
		c0.6,0,1.1,0.1,1.6,0.1c0.5,0.1,1,0.2,1.5,0.4v-5.5c-0.3-0.1-0.6-0.1-1-0.2c-0.4-0.1-0.8-0.1-1.3-0.2c-0.5-0.1-1-0.1-1.5-0.1
		c-0.5-0.1-1.1-0.1-1.5-0.1c-1.3,0-2.5,0.1-3.5,0.5c-1,0.4-1.8,0.8-2.3,1.3c-0.6,0.6-1.1,1.1-1.3,1.8c-0.3,0.6-0.4,1.3-0.4,2
		c0,1.1,0.1,1.9,0.5,2.5s0.7,1.1,1.2,1.5c0.5,0.4,1,0.7,1.5,0.8c0.6,0.2,1.1,0.4,1.5,0.5c0.5,0.1,0.8,0.3,1.2,0.4
		c0.4,0.1,0.5,0.4,0.5,0.7c0,0.2-0.1,0.4-0.3,0.6c-0.1,0.1-0.4,0.2-0.6,0.3c-0.2,0-0.5,0.1-0.8,0.1s-0.6,0-0.9,0
		c-0.6,0-1.3-0.1-1.8-0.1C5.5,70.1,4.9,70,4.4,69.8L4.4,69.8z M46.3,57.6l-6.5,0.5l0.3,17.8l6.6,0.4L46.6,65c0-0.4,0.1-0.8,0.5-1
		c0.4-0.2,0.7-0.4,1.1-0.4c0.4,0,0.8,0.1,1.1,0.4c0.3,0.3,0.4,0.6,0.4,0.9l-0.1,11.4l6.8-0.6V63.7c0-0.8-0.1-1.7-0.4-2.5
		s-0.6-1.4-1.1-2c-0.5-0.6-1.1-1-1.7-1.3c-0.6-0.3-1.4-0.5-2.3-0.5c-0.8,0-1.6,0.1-2.3,0.5c-0.7,0.4-1.4,1-2.1,1.9h-0.1
		C46.3,59.8,46.3,57.6,46.3,57.6z M75.6,61.4c-0.6-1.1-1.5-2-2.5-2.7c-1-0.7-2.1-1.2-3.4-1.5s-2.6-0.3-3.9-0.1
		c-1.4,0.2-2.7,0.6-3.8,1.2c-1.1,0.6-2.1,1.4-2.8,2.4c-0.8,1-1.3,2-1.6,3.3c-0.4,1.3-0.4,2.6-0.2,4c0.2,1.4,0.6,2.7,1.3,3.8
		c0.6,1.1,1.5,2,2.5,2.7c1,0.7,2.1,1.2,3.4,1.5c1.3,0.3,2.6,0.3,4,0.1c1.4-0.2,2.7-0.6,3.8-1.2c1.1-0.6,2.1-1.4,2.8-2.3
		c0.8-0.9,1.3-2,1.6-3.3c0.4-1.3,0.4-2.6,0.2-4C76.6,63.8,76.2,62.6,75.6,61.4z M63.8,65.7c0.4-0.7,1.1-1.3,2-1.7
		c1-0.4,1.8-0.5,2.6-0.2c0.8,0.3,1.3,0.8,1.7,1.5c0.4,0.8,0.4,1.5-0.1,2.3c-0.4,0.7-1.1,1.3-2,1.7c-1,0.4-1.8,0.5-2.6,0.2
		c-0.8-0.3-1.3-0.8-1.7-1.6C63.5,67.1,63.5,66.4,63.8,65.7z M17.4,40.5c-0.6,0.5-1.2,0.9-1.8,1.3c-0.7,0.4-1.5,0.5-2.5,0.5
		c-0.4,0-0.7,0-1.1-0.1c-0.4-0.1-0.7-0.1-0.9-0.3l9.6-7.3c-0.8-1.8-2-3.3-3.5-4.4c-1.5-1.1-3.5-1.6-5.6-1.6c-1.3,0-2.6,0.2-3.7,0.7
		c-1.2,0.5-2.2,1.1-3.1,2c-0.8,0.8-1.5,2-2.1,3.2c-0.5,1.3-0.8,2.7-0.8,4.3c0,1.3,0.3,2.5,0.8,3.7c0.5,1.1,1.2,2.2,2,3
		s1.9,1.5,3.1,2s2.5,0.8,4,0.8c1.8,0,3.4-0.2,4.7-0.6c1.3-0.4,2.7-1.1,4-2L17.4,40.5z M8.9,38.8c-0.1-0.1-0.1-0.4-0.2-0.5
		s-0.1-0.4-0.1-0.8s0.1-0.8,0.2-1.2c0.1-0.4,0.4-0.7,0.6-1.1c0.3-0.3,0.6-0.6,0.9-0.8c0.4-0.2,0.8-0.3,1.2-0.3
		c0.4,0,0.8,0.1,1.2,0.2s0.7,0.4,1,0.8L8.9,38.8z M43.5,29.4L43.9,54l6.8-0.6l-0.2-6.4c0.6,0.6,1.3,1,2,1.1c0.8,0.2,1.5,0.3,2.1,0.3
		c1.3,0,2.5-0.3,3.6-0.8c1.1-0.6,2-1.3,2.8-2.3c0.8-0.9,1.4-2,1.8-3.2c0.4-1.2,0.6-2.4,0.6-3.7c0-1.2-0.2-2.4-0.6-3.6
		s-1-2.2-1.7-3.1c-0.7-0.8-1.6-1.5-2.7-2.1s-2.3-0.8-3.5-0.8c-1.1,0-1.9,0.2-2.7,0.6c-0.7,0.4-1.5,0.9-2.1,1.7v-2.3L43.5,29.4z
		 M53.1,41.7c-0.5,0.1-0.9,0-1.3-0.1c-0.4-0.1-0.8-0.3-1.1-0.6c-0.3-0.2-0.6-0.6-0.7-0.9c-0.4-0.7-0.4-1.5,0-2.3
		c0.4-0.8,1-1.5,2-1.9c1-0.4,1.8-0.6,2.7-0.3c0.8,0.2,1.4,0.7,1.8,1.5c0.4,0.7,0.4,1.5,0,2.3c-0.4,0.8-1,1.5-2,1.9
		C54,41.5,53.5,41.7,53.1,41.7z M66.3,48.3l6.8-0.6l0.3-25.9l-7.3,0.6L66.3,48.3z M94.4,33.1c-0.7-1.1-1.5-2-2.5-2.7
		c-1.1-0.7-2.2-1.2-3.5-1.5c-1.3-0.3-2.7-0.4-4.1-0.1c-1.4,0.2-2.7,0.6-3.9,1.3c-1.2,0.6-2.1,1.5-3,2.5c-0.8,1-1.3,2.1-1.7,3.4
		c-0.4,1.3-0.4,2.7-0.2,4.2c0.2,1.5,0.6,2.7,1.3,3.9c0.7,1.1,1.5,2,2.6,2.7c1.1,0.7,2.2,1.2,3.5,1.5s2.7,0.4,4.1,0.1
		c1.4-0.2,2.7-0.6,3.9-1.3c1.2-0.6,2.1-1.4,3-2.4c0.8-1,1.3-2.1,1.7-3.4s0.4-2.7,0.2-4.2C95.6,35.5,95.1,34.2,94.4,33.1z M82.4,37.4
		c0.4-0.8,1.1-1.3,2-1.8s1.9-0.5,2.7-0.2c0.8,0.3,1.3,0.8,1.7,1.6c0.4,0.8,0.4,1.6-0.1,2.4c-0.4,0.8-1.1,1.3-2,1.8s-1.9,0.5-2.7,0.3
		c-0.8-0.3-1.3-0.8-1.8-1.6C82,38.9,82,38.1,82.4,37.4z"/>
	<path id="_x32_2" class="st2" d="M24.9,54.4c0,0,1.9-1.5,4.4-1.9s5.6,0.6,5.6,0.6l-2.2,25.5l-12.6,3.2L24.9,54.4z"/>
	<path id="_x32_" class="st3" d="M34.9,53.1l-2.2-0.5l-2.9,24.1c-1.3-0.2-2.8-0.1-4.3,0.1c-3.2,0.7-5.7,3-5.4,4.9
		c0.3,1.8,3.3,2.5,6.5,1.8s6.3-3,6.1-4.9L34.9,53.1z"/>
	<path id="_x31_2" class="st4" d="M38.7,35.5l6.9,16.4l-15.1-12L16.7,50l7.5-14.5L18,24.1l13.8,5.1l25.5-16.1L38.7,35.5z"/>
	<path id="_x31__1_" class="st5" d="M36.2,35.5L42,49L28.9,38.6l-10.3,7.5l5.6-10.7L18,24.1l13.8,5.1l18.7-11.8L36.2,35.5z"/>
</g>
</svg>
