<?xml version="1.0" encoding="utf-8"?>
<!-- Generator: Adobe Illustrator 21.0.0, SVG Export Plug-In . SVG Version: 6.00 Build 0)  -->
<svg version="1.1" id="Logo" xmlns="http://www.w3.org/2000/svg" xmlns:xlink="http://www.w3.org/1999/xlink" x="0px" y="0px"
	 width="100px" height="100px" viewBox="0 0 100 100" style="enable-background:new 0 0 100 100;" xml:space="preserve">
<style type="text/css">
	.st0{fill:#333333;}
	.st1{fill:#EEEEEE;}
	.st2{fill:#FFE000;}
	.st3{fill:#FFCC00;}
</style>
<g id="Logo_x5F_ArgoCasino">
	<path class="st0" d="M18.4,96.1l0.1,2.2c0,0.6-0.4,1.2-1.1,1.3c-0.5,0.1-1.1,0.1-1.7,0.1c-4.4,0-6.8-2.6-7.4-3.3
		c-0.8-1-1.4-2-1.4-3.3c0-3.9,4.4-6.3,7.6-6.7c1-0.1,1.6,0.8,1.6,0.8s1.3,1.9,1.4,2.4l0.6,2.3c0.1,0.3,0,0.7-0.2,1
		c-0.2,0.3-1,0.6-1.1,0.6C17.7,94.5,18.4,95.4,18.4,96.1z M77.7,54v2.2H47.9l6.2-10.3h-2c0,0-0.1,0.1-0.1,0.1v0l-7.6,12.6
		c-0.1,0.2-0.6,1.1-1.4,1.1h-5.3l8.3-13.8h-2c0,0-0.1,0.1-0.2,0.2l-7.5,12.5c-0.1,0.2-0.6,1.1-1.4,1.1h-5.3l8.3-13.8h-2
		c0,0-0.1,0.1-0.2,0.2l-7.5,12.5c-0.1,0.2-0.6,1.1-1.4,1.1H21l6.5-10.9c-1.3-0.8-4.1-2.8-5.5-6.7c-0.5-1.3-1-2.8-0.6-5.2
		c0.4-2.4,2.1-4.1,4.1-4.1c1,0,2,0.5,2.6,1.2c2.8-3.6,3-7.8,0.6-12.4c-1.9-3.7-4.7-6.2-4.7-6.2c-0.5-0.5-0.7-1.2-0.3-1.9
		s1-1,1.7-0.8c0.8,0.2,2.3,0.3,3.1,0c0.9-0.3,1.3-1.2,1.3-1.2c0.3-0.8,1.2-1.1,2-0.8c0.5,0.2,1.9,0.6,2.6,0.3c0.8-0.2,1.7-1.3,2-1.7
		c0.4-0.6,1.2-0.8,1.9-0.6c0.5,0.2,1.9,0.6,2.6,0.3c0.8-0.2,1.7-1.3,2-1.8c0.4-0.6,1.2-0.8,1.9-0.6c0.5,0.2,1.9,0.6,2.6,0.3
		c0.8-0.2,1.7-1.3,2-1.8c0.4-0.6,1.2-0.8,1.9-0.6c0.5,0.2,1.9,0.6,2.6,0.3c0.8-0.2,1.7-1.3,2-1.8c0.4-0.6,1.2-0.8,1.9-0.6
		C58.6,2.9,60,3.2,60.7,3c0.9-0.3,1.7-1.6,1.9-2.1c0.2-0.5,0.7-0.9,1.3-0.9c0.6-0.1,1.1,0.2,1.4,0.6C66.2,1.8,67,3,67.7,4.2
		c5.4,8,6.7,16.1,3.5,22.5c-0.4,0.8-0.9,1.6-1.6,2.5h5.1v0.6c0,3.3-1.9,5.2-3.6,7c-1.7,1.8-3.4,3.4-3.4,6.3c0,6.5,9.5,10.6,9.6,10.6
		L77.7,54z M68.6,30.5c-3.4,3.7-9.8,7.5-22,7.5H31c-0.3,0-1.1-0.6-1.8-1.2c-0.2,1.5-1.3,2.7-2.8,3l31.7,0
		C65.5,39.8,68.2,33.4,68.6,30.5z M57.5,90.2c0-0.3-0.1-0.6-0.3-0.9c-0.4-0.6-1-1.8-1.3-2.1c-0.3-0.3-0.7-0.5-1.1-0.5h-3.1
		c-0.4,0-0.8,0.2-1.1,0.5c-0.3,0.3-0.5,0.7-0.4,1.1c0,0,0.1,1.9,0.1,3.9c0,2-0.1,4.3-0.1,4.3c0,0.4,0.1,0.8,0.4,1.1
		c0.3,0.3,1.6,1.4,1.8,1.7c0.2,0.2,0.6,0.4,0.9,0.4h3.1c0.3,0,0.7-0.1,0.9-0.4c0.2-0.2,0.4-0.6,0.3-0.9c0,0-0.1-2-0.1-4.3
		C57.4,91.8,57.5,90.2,57.5,90.2z M89,88.5c-1.1-1.3-2.9-2-5.1-2c-4.6,0-7,3.1-7,6.2c0,0.8,0.2,1.7,0.6,2.4c0.5,0.8,3.2,3.4,3.9,3.8
		c0.9,0.5,2.1,0.8,3.4,0.8c5.3,0,6.7-3.8,6.7-5.8c0-0.8-0.1-1.5-0.4-2.1C90.9,91.3,89.5,89,89,88.5z M28.3,87
		c-0.3-0.4-0.8-0.7-1.3-0.7h-0.3c-0.5,0-1,0.3-1.3,0.7l-5,7.8c-0.2,0.4-0.3,1-0.2,1.4c0.1,0.4,2.2,2.3,2.5,2.5l2.4,1.3
		c0.2,0.1,0.4,0.1,0.6,0.1c0.5,0,0.9-0.2,1.1-0.7l0.5-0.9c0,0,2.1-0.1,2.3-0.1l0.7,1.1c0.4,0.6,1.1,0.8,1.7,0.4l2.5-1.4
		c0.3-0.2,0.5-0.5,0.6-0.8s0-0.7-0.2-1L28.3,87z M72.7,87.2c-0.3-0.3-0.7-0.5-1.1-0.5l-2.7-0.1c-0.9,0-1.6,0.7-1.6,1.6v1l-3.4-2.4
		c-0.4-0.3-1-0.3-1.5-0.2c-0.5,0.1-1.1,0.7-1.1,1.4l-0.5,8.3c0,0.4,0.1,0.8,0.4,1.1c0.3,0.3,1.6,1.4,1.8,1.7
		c0.2,0.2,0.5,0.4,0.9,0.4l2.7,0.1c0.7,0,1.3-0.6,1.3-1.3v-1.5l3.2,2.2c0.2,0.1,0.8,0.7,1.5,0.7c0.8,0,1.3-0.7,1.4-1.2l0.5-8.4
		c0-0.3-0.1-0.6-0.3-0.9C73.8,88.9,73,87.5,72.7,87.2z M52.7,81.6l-4.5,3.4c-0.2,0.2-0.5,0.2-0.7,0.2c-0.1,0-0.1,0-0.2,0
		c-0.6,0-2.7-2.2-3-2.5l-2.2-3.2l0,3.7c0,0.3-0.1,0.7-0.4,0.9c-0.2,0.2-0.6,0.4-0.9,0.4H35c-0.7,0-2-1.9-2.2-2L28.4,85
		c-0.6,0.3-2.2,0.2-2.5-0.4l-2-3.1l-5.1,0.3l-1.3,2.7c-0.2,0.3-0.4,0.5-0.7,0.6c-0.1,0-0.3,0.1-0.4,0.1c-0.2,0-0.4-0.1-0.6-0.2
		L11,82.4c-0.3-0.2-2.8-2.2-2.8-2.9c0-0.4,0-0.9,0.2-1.2l10.1-16.5c0.3-0.5,0.8-0.8,1.3-0.8H20c0.5,0,1,0.3,1.3,0.7l10.5,15.8
		l-0.1-14c0-0.4,0.2-0.8,0.5-1.1c0.3-0.3,0.7-0.5,1.1-0.5c0.3,0,7,0.1,9.3,0.4c5.1,0.6,6.2,2.5,8.4,6.4c0.9-1.3,2.1-2.5,3.6-3.5
		c3.1-2.2,6.6-3.3,8.9-3.7c0.8-0.1,1.4,0.3,1.8,0.9s1.3,2,1.5,2.6l1.2,4.8c0.1,0.3,0.1,0.8,0.4,0c1.3-4.4,5.3-8.2,11.9-8.2
		c9.9,0,12.8,8.4,12.8,12.4c0,3.7-2.5,10.8-12.1,10.8c-7.1,0-10.9-5.8-11.2-6.1l0,4.3c0,0.6-0.4,1.1-1,1.2c-4.6,1-10.7,1-14.5-2
		c-0.4-0.4-0.8-0.8-1.2-1.2C53.1,81.2,52.9,81.4,52.7,81.6z M78.7,74.8c0,0.4,0,0.8,0.1,1.1c0.2,0.1,0.4,0.1,0.6,0.1
		c0.8,0,1.4-0.2,1.8-0.6c0.7-0.7,1-1.8,1-3.4c0,0,0,0,0,0c0-0.6-0.1-1.1-0.2-1.5c-0.1,0-0.2,0-0.2,0C79.7,70.4,78.7,72.7,78.7,74.8z
		 M46.2,93c0.1-0.1,0.5-0.5,0.5-1.2c0-0.8-0.3-2.1-0.3-2.1c-0.1-0.6-1.3-2.2-1.3-2.2s-0.4-1-1.6-1c-4,0-6.8,2.1-6.8,4.6
		c0,1.3,1,2.3,1,2.3s-0.8,0.7-0.7,1.6l0.4,2.1c0,0.9,2.3,2.9,3.1,2.9c2.1,0,6.8-1.2,6.8-4.6C47.4,94.4,47,93.6,46.2,93z"/>
	<path class="st1" d="M65.6,51.6h-1.9c0,0,0-2.1-2-2.1c-2,0-2.1,2.1-2.1,2.1h-3.7v-0.4c0,0,2-3.1,5.3-3.1S65.6,51.6,65.6,51.6
		L65.6,51.6z M15.5,94.3c0,0-3.8,0.5-3.8-1.5s3.6-2.5,3.6-2.5l-0.6-2.3c-2.5,0.3-6.3,2.2-6.3,5.1c0,2.8,4,3.9,7.2,3.4L15.5,94.3z
		 M24.2,96.9l0.8-1.6l3.7-0.2l1.1,1.8l2.5-1.4L27,87.9h-0.3l-5,7.8L24.2,96.9z M25.8,93.5l1-2l1,1.9L25.8,93.5z M39,96.7
		c3.9-0.3,5.6-1.9,5.6-3.3c0-1.2-1.2-1.7-1.9-1.9c-0.8-0.3-1.3-0.5-1.3-0.8c0-0.5,0.8-0.6,2.6-0.6L43.6,88c-3.3,0.2-5.4,1.6-5.4,3
		c0,1.1,1,1.7,1.8,2c1,0.5,1.3,0.6,1.3,0.9c0,0.6-1.4,0.8-2.8,0.8L39,96.7z M54.6,92.1c0-2.3,0.1-3.9,0.1-3.9h-3.1
		c0,0,0.1,1.9,0.1,3.9s-0.1,4.3-0.1,4.3h3.1C54.7,96.5,54.6,94.5,54.6,92.1z M65,96.6v-3.9l5.9,4.1l0.2-0.1l0.5-8.4l-2.7-0.1v4
		l-5.9-4l-0.2,0.1l-0.5,8.3L65,96.6z M83.3,96.6c4.2,0,5.4-2.8,5.4-4.5c0-2.5-1.8-4.1-4.9-4.1c-3.7,0-5.4,2.4-5.4,4.6
		C78.5,94.6,80,96.6,83.3,96.6z M83.5,94.8c-1,0-1.8-0.7-1.8-2.3c0-1.4,0.8-2.6,2.1-2.6c1.2,0,1.8,0.8,1.8,2.3
		C85.6,93.9,84.8,94.8,83.5,94.8z"/>
	<path class="st2" d="M64,1.6c0,0-1,2.3-2.8,2.9c-1.5,0.5-3.7-0.4-3.7-0.4S56.2,6,54.6,6.4C53.1,6.9,51,6.1,51,6.1s-1.3,1.9-2.8,2.3
		C46.6,8.9,44.5,8,44.5,8s-1.3,1.9-2.8,2.3C40.1,10.9,38,10,38,10s-1.3,1.9-2.8,2.3c-1.5,0.5-3.7-0.4-3.7-0.4s-0.6,1.4-2.2,2
		c-1.6,0.6-4,0.1-4,0.1s12,10.9,4.2,20.8H45C70.2,34.9,76.2,17.7,64,1.6z"/>
	<path class="st3" d="M64,1.6c0,0-1,2.3-2.8,2.9c-1.5,0.5-3.7-0.4-3.7-0.4S56.2,6,54.6,6.4C53.1,6.9,51,6.1,51,6.1
		s11.1,14.1-21.5,28.8H45C70.2,34.9,76.2,17.7,64,1.6z"/>
	<path class="st2" d="M9.7,79.1l10.1-16.5H20l10.7,16.2l-4.9,2.9l-2.3-3.8l-7.5,0.4l-1.7,3.4L9.7,79.1z M21.9,74.5l-2.1-4.1
		l-2.1,4.4L21.9,74.5z M39,81h-5.6l-0.1-17.4c0,0,6.9,0.1,9.1,0.3c3.7,0.5,5.7,1.8,5.7,4.1c0,3.2-3.2,4.9-3.2,4.9l5.2,5.4l-4.5,3.4
		l-6.1-8.9c0,0,2.8-1.7,2.8-3.6c0-2.4-3.5-2.3-3.5-2.3L39,81z M66.7,80.8c-7.4,1.6-15.8-0.1-15.8-6.7c0-6.3,8.1-10.3,12.8-11
		l1.2,4.8c0,0-8.1,1.2-8.1,5.9c0,3.4,4.5,3.4,4.5,3.4l0-4h5.4L66.7,80.8z M69.5,72.9c0-4.7,3.5-9.8,10.8-9.8c5.9,0,9.6,3.2,9.6,8.6
		c0,3.7-2.5,9.6-10.9,9.6C72.4,81.3,69.5,76.9,69.5,72.9z M83.8,71.9c0-3.2-1.5-5-3.9-5c-2.8,0-4.4,2.7-4.4,5.6
		c0,3.3,1.8,4.9,3.8,4.9C82,77.6,83.8,75.6,83.8,71.9z"/>
</g>
</svg>
