<?xml version="1.0" encoding="utf-8"?>
<!-- Generator: Adobe Illustrator 21.0.0, SVG Export Plug-In . SVG Version: 6.00 Build 0)  -->
<svg version="1.1" id="Logo" xmlns="http://www.w3.org/2000/svg" xmlns:xlink="http://www.w3.org/1999/xlink" x="0px" y="0px"
	 width="100px" height="100px" viewBox="0 0 100 100" style="enable-background:new 0 0 100 100;" xml:space="preserve">
<style type="text/css">
	.st0{fill:#333333;}
	.st1{fill:#FFCC00;}
	.st2{fill:#EEEEEE;}
</style>
<g id="Logo_x5F_ZigZag777">
	<path class="st0" d="M85.1,61.1c0.2,0.1,0.3,0.1,0.5,0.1c2.8,0,4.2-1.2,4.7-3.8c1.1-5.9,1.6-7.4,3.3-11c1.1-2.3,4.5-7.6,6-10.1
		c1-1.7-0.3-4.7-2.1-6.5c-0.6-0.6-1.4-0.8-2.2-0.7c-0.5,0.1-1,0.2-1.4,0.5c-0.5-0.3-1.2-0.8-2.5-0.8c-1.3,0-2.3,0.5-2.3,0.6
		c-1-0.3-2.1-0.4-3.3-0.1c-1.7,0.4-2.9,2.2-3.7,3.8c-1.1-0.6-3.2-0.8-4.2-0.4c-0.2-0.1-0.4-0.1-0.6-0.2c1.8-1.8,3.4-3.3,4.5-4.3
		c0,0,3.4-2.1,5.2-3.8c1.9-1.9,2.5-4.7,2-6.3c-0.2-0.8-2-4.7-3.6-4.7c-1.7,0-2.3,0.5-3.3,1.4c-1.3,1.2-4.1,3.8-9,6.3
		c-2.1,1.1-4.7,2.3-7.5,3.6c-9.4,4.4-15.3,7.3-16.9,9.9c-0.9,1.4-1.2,3.6-0.6,5c0.3,1,3,3.8,3.8,4.1c1.2,0.4,2.1-0.2,3.2-1.1
		c0.4-0.3,0.8-0.6,1.4-1c-2.1,2.5-4,4.9-5.5,6.9c-0.2-0.3-1.5-2.9-2.2-3.6c-0.6-0.5-1.4-0.8-2.2-0.7c-0.5,0.1-1,0.2-1.4,0.5
		c-0.5-0.3-1-0.5-1.2-0.6c-0.6-0.2-2-0.6-3.5,0.2c-0.1,0-0.1,0.1-0.2,0.1c-1-0.3-2.2-0.4-3.3-0.1c0,0,0,0,0,0c0,0,0,0-0.1,0h0
		c-0.1-0.1-0.2-0.2-0.3-0.2c0-0.9-0.3-1.6-0.9-2.2c0.6-0.6,1.2-1.1,1.7-1.5l0.3-0.2c1.3-0.8,3.1-1.9,4.9-3.7c1.9-1.9,2.5-4.7,2-6.3
		c-0.2-0.8-1.8-4.4-3.6-4.7c-1.4-0.2-2.3,0.5-3.3,1.4c-1.3,1.2-4.1,3.8-9,6.3c-2.1,1.1-4.7,2.3-7.5,3.6c-9.4,4.4-15.3,7.3-16.9,9.9
		c-0.9,1.4-1.2,3.6-0.6,5c0.3,1,3,3.8,3.8,4.1c1.2,0.4,2.1-0.2,3.2-1.1c0.4-0.3,0.8-0.6,1.4-1c-2.7,3.2-5.1,6.3-6.7,8.7
		C2.3,64.3,0,68,0,70.8c0,2.7,2.7,5,3.7,5.5c0.3,0.2,0.7,0.2,1.1,0.2c0.7,0,1.3-0.3,2-0.8c0.2-0.2,0.4-0.4,0.8-0.7
		c1.4-1.3,4.5-4.3,10.8-8.5c4.5-3,8.5-5.1,12-6.1c1.1,0.6,2.5,0.9,3.7,0.7c-1,3.5-2.2,7.3-2.5,8.5c-0.4,1.5,0,2.5,0.5,3.1
		c0.3,0.4,2.8,3.5,4.7,3.5c2.8,0,4.2-1.2,4.7-3.8c1.1-5.9,1.6-7.4,3.3-11c0.1-0.1,0.1-0.3,0.2-0.4c0.3,0.5,2.2,2.8,3.2,3.3
		c0.3,0.2,0.7,0.2,1.1,0.2c0.7,0,1.3-0.3,2-0.8c0.2-0.2,0.4-0.4,0.8-0.7c0.6-0.5,1.4-1.4,2.7-2.4v4.7c-0.8-0.2-1.6-0.4-2.3-0.4
		c-0.9,0-1.7,0.2-2.4,0.5v-0.5h-6.6v9.4l2.1,2.1h1.8c-0.5,1.2-0.7,2.5-0.7,3.6c0,2.7,3.1,7,7.5,7c3.5,0,5.4-2.2,5.4-4.3
		c0-1-0.4-1.8-0.6-2.3c-0.2-0.4-0.3-0.7-0.3-0.9c0-0.2,0.2-0.7,1.1-1.7c0,0.2,0,0.3,0,0.5c0,1.1,0.2,2.1,0.7,2.9
		c1,2.7,4.3,5.7,8.9,5.7c4.4,0,7-2.4,7.5-5c0.4,0.8,2.6,5,7,5c3.5,0,5.4-2.2,5.4-4.3c0-1-0.4-1.8-0.6-2.3c-0.2-0.4-0.3-0.7-0.3-0.9
		c0-0.3,0.7-1.8,4-4.3c1.9-1.5,2.3-4.3,2.3-5.1l0-2.4l-1.4-2.9H87l-0.2,1.2c-0.3-0.1-2-0.6-2.4-0.8c0.5-1.5,0.7-2.9,0.7-3.4
		L85.1,61.1z M62.7,54.4c5-3.4,9.5-5.6,13.3-6.5c0.1,0,1,0,1.5,0c1.5,0,2.7-0.7,3.6-1.7c0.6,0.1,1.2,0.1,1.8,0.1
		c-1.1,3.6-2.1,7.1-2.4,8.2c-0.2,0.5-0.2,1-0.2,1.4h-2.8l-1.5-0.1l-0.2,1.5c-0.1,0.5-0.5,0.5-0.6,0.5c-0.4,0-1.6-0.4-2.5-0.7
		c-1.6-0.5-3.4-1.2-5-1.2c-1.7,0-3.4,0.6-4.7,1.2V56h-2.3C61.2,55.5,61.9,55,62.7,54.4z M76.4,78.8c-0.1-0.3-0.3-0.6-0.4-0.9
		c-0.3-0.6-0.5-1.1-0.5-1.6H77C76.7,77.1,76.5,78,76.4,78.8z"/>
	<path class="st1" d="M55.4,77c0,1.1,0.9,1.9,0.9,3.2c0,1.4-1.5,2.9-4,2.9c-2.9,0-3.9-1.6-3.9-3.1c0-2,0.9-5,3.1-6.3
		c1.8-1,2.7-1.5,3.4-1.9c0.6-0.3,0.5-0.7,0.1-0.7c-3.4,0-3.3-1.1-4.4-1.1c-1.8,0-2.1,2.4-2.1,2.4h-3.4v-5.9h3v0.9c0,0,0,0.2,0.2,0.2
		c0.7,0,2.4-1.1,4-1.1c0.7,0,1.5,0.2,2.3,0.5v1.5h6.9c-0.2,1-0.7,2.2-1.6,3C58.5,72.7,55.4,75.3,55.4,77z M88.5,66.5
		c0,0-0.2,1.2-1.5,1.2c-1.1,0-3.4-1.2-4.9-1.2c-0.6,0-1.3,0.2-1.9,0.4c-2.9,2.3-4.5,4.1-5.3,5.2v0.2h3.4c0,0,0.3-2.4,2.1-2.4
		c1.1,0,1,1.1,4.4,1.1c0.4,0,0.4,0.4-0.1,0.7c-0.7,0.4-1.6,0.8-3.4,1.9c-2.2,1.2-3.1,4.3-3.1,6.3c0,1.5,1,3.1,3.9,3.1
		c2.5,0,4-1.4,4-2.9c0-1.3-0.9-2.1-0.9-3.2c0-1.7,3.1-4.3,4.5-5.5c1.4-1.1,1.8-3.3,1.8-4l0-1H88.5z M64.9,63c-2.8,0-3.1,3.7-3.1,3.7
		h-5.3v-9H61v1.4c0,0,0,0.3,0.3,0.3c1.1,0,3.7-1.7,6.1-1.7c2.4,0,5.9,1.9,7.6,1.9c2,0,2.4-1.9,2.4-1.9h4.5l0,1.5
		c0,1-0.6,4.5-2.7,6.1c-2.2,1.8-6.9,5.8-6.9,8.4c0,1.8,1.4,2.9,1.4,4.9c0,2.2-2.2,4.4-6.1,4.4c-4.5,0-6-2.5-6-4.7
		c0-3,1.4-7.7,4.8-9.6c2.7-1.5,4.1-2.3,5.2-2.8c0.9-0.5,0.8-1.1,0.2-1.1C66.4,64.7,66.5,63,64.9,63z"/>
	<path class="st2" d="M34.1,42.7c0.8,0.6,0.6,1.3,0.5,1.8l0,0.1c-0.1,0.6-0.6,1.5-1,2c-0.4,0.6-0.9,0.8-1.5,0.8c-0.1,0-0.2,0-0.2,0
		c-0.7-0.1-1.2-0.2-1.7-0.6c-0.7-0.5-0.6-1.3-0.5-1.8l0-0.1c0.1-0.5,0.3-1.3,0.7-2c0.5-0.9,1.2-1,1.9-1
		C32.9,41.9,33.6,42.2,34.1,42.7z M96.7,32.9c-1.6,2.5-5,8-6.1,10.3c-1.8,3.7-2.3,5.4-3.5,11.4c-0.4,2-1.2,2.7-3.3,2.7
		c-0.7,0-1.2-0.2-1.5-0.6c-0.3-0.4-0.4-0.9-0.2-1.6c0.5-1.9,3.2-11,4.2-14.4c-0.3,0-0.7,0-1.1-0.1c-0.5-0.1-0.9-0.3-1.3-0.6
		c-0.4,0.8-0.8,1.4-1.1,1.8c-0.6,0.6-2,1.1-4,0.5c-0.9,1.1-1.6,1.9-3,1.9c-0.5,0-1,0-1.4-0.1C74.1,44,74,44,73.9,44.1
		c-3.9,1-8.6,3.2-13.7,6.7c-6.4,4.3-9.6,7.3-11,8.6c-0.3,0.3-0.5,0.5-0.7,0.6c-0.4,0.3-0.7,0.5-1.1,0.5c-0.2,0-0.3,0-0.5-0.1
		c-0.7-0.3-0.7-1.3-0.7-1.7c0-2,1.9-5.4,4.8-7.4c3.6-5.6,11.9-15,19.3-22.6c-2.3,1-5.2,2.4-8.5,4.1c-5.1,2.6-8,4.8-9.4,5.9
		c-1,0.8-1.4,1.1-1.9,0.9c-0.3-0.1-0.6-0.3-0.8-0.8c-0.3-0.9-0.1-2.6,0.5-3.5c1.5-2.4,9-5.9,16.2-9.2c2.8-1.3,5.4-2.5,7.5-3.6
		c5.1-2.6,8-5.3,9.4-6.6c0.9-0.8,1.2-1.1,1.7-1c0.2,0,0.6,0.2,0.8,0.9c0.3,1.1,0,3.3-1.6,4.9c-1.7,1.6-3.5,2.7-4.7,3.5
		c-0.1,0.1-0.3,0.2-0.4,0.2C74.4,28.2,63.4,40.5,58,46.9c4.4-2.5,8.2-4.3,12.2-5.4c0.3-0.1,0.6-0.1,0.9-0.2
		c-0.2-1.2,0.3-2.7,0.9-3.9c0.9-1.8,1.7-3.4,3.6-3.5c0.9,0,1.8,0.2,2.4,0.5c0.2-0.2,0.4-0.3,0.8-0.4c0.7-0.1,2,0.1,2.7,0.5
		c0.9,0.6,0.7,1.8,0.6,2.2l0,0.1c0,0,0,0.1,0,0.1c0.3-0.4,0.6-0.8,0.9-1.3c0.4-1.3,1.8-4.5,3.3-4.8c1.2-0.3,2.3-0.1,3.3,0.5
		c0.2-0.3,0.4-0.5,0.7-0.7c0.7-0.4,1.4-0.2,2,0c0.6,0.2,1.2,0.5,1.5,1.1c0.1,0.2,0.1,0.3,0.1,0.5c0.3-0.4,0.5-0.7,0.6-0.9
		c0.1-0.2,0.5-0.6,1.1-0.7c0.3,0,0.7,0.1,0.9,0.3C97,31.5,97.1,32.2,96.7,32.9z M77.6,36.2c-0.3-0.7-1-0.3-1.4,0.1
		c-1.6,1.5-2,3.8-1.6,5.2c0.2,0.7,1.2,0.4,2-0.6C78,39.1,78,37.3,77.6,36.2z M89,32.9c-0.3-0.7-1-0.3-1.4,0.1
		c-1.6,1.5-2,3.8-1.6,5.2c0.2,0.7,1.2,0.4,2-0.6C89.4,35.8,89.4,34,89,32.9z M47.8,47.9c-1.6,2.5-5,8-6.1,10.3
		c-1.8,3.7-2.3,5.4-3.5,11.4c-0.4,2-1.2,2.7-3.3,2.7c-0.7,0-1.2-0.2-1.5-0.6c-0.3-0.4-0.4-0.9-0.2-1.6c0.5-1.9,3.2-11,4.2-14.4
		c-0.3,0-0.7,0-1.1-0.1c-0.6-0.2-1.2-0.5-1.6-0.9c-1.4,2-1.9,2.3-2.1,2.4c-0.9,0.4-2.7,0.2-3.9-0.7c-3.8,1.1-8.2,3.2-13,6.5
		c-6.4,4.3-9.6,7.3-11,8.6C4.4,71.8,4.2,72,4,72.1c-0.4,0.3-0.7,0.5-1.1,0.5c-0.2,0-0.3,0-0.5-0.1c-0.7-0.3-0.7-1.3-0.7-1.7
		c0-2,1.9-5.4,4.8-7.4c3.6-5.6,11.9-15,19.3-22.6c-2.3,1-5.2,2.4-8.5,4.1c-5.1,2.6-8,4.8-9.4,5.9c-1,0.8-1.4,1.1-1.9,0.9
		c-0.3-0.1-0.6-0.3-0.8-0.8c-0.3-0.9-0.1-2.6,0.5-3.5c1.5-2.4,9-5.9,16.2-9.2c2.8-1.3,5.4-2.5,7.5-3.6c5.1-2.6,8-5.3,9.4-6.6
		c0.9-0.8,1.2-1.1,1.7-1c0.2,0,0.6,0.2,0.8,0.9c0.3,1.1,0,3.3-1.6,4.9c-1.7,1.6-3.5,2.7-4.7,3.5c-0.1,0.1-0.3,0.2-0.4,0.2
		C30,40.3,19,52.6,13.6,59c4.4-2.5,8.2-4.3,12.2-5.4c0.6-0.1,1.1-0.2,1.6-0.2c0-0.4,0-0.9,0.1-1.4c0.2-1.3,0.6-2.5,0.8-3
		c0.5-1,1.2-1,1.9-1c0.4,0,1.3,0.2,1.9,0.7c0.7,0.7,0.6,1.6,0.4,2.3c-0.1,0.5-0.2,1-0.3,1.5c0,0.1,0,0.2-0.1,0.2
		c0.7-0.7,1.5-1.7,2-2.5c0.2-0.6,1.6-4.1,3.2-4.4c1.2-0.3,2.3-0.1,3.3,0.5c0.2-0.3,0.4-0.5,0.7-0.7c0.7-0.4,1.4-0.2,2,0
		c0.6,0.2,1.2,0.5,1.5,1.1c0.1,0.2,0.1,0.3,0.1,0.5c0.3-0.4,0.5-0.7,0.6-0.9c0.1-0.2,0.5-0.6,1.1-0.7c0.3,0,0.7,0.1,0.9,0.3h0
		C48.1,46.5,48.2,47.2,47.8,47.9z M40.1,47.9c-0.3-0.7-1-0.3-1.4,0.1c-1.6,1.5-2,3.8-1.6,5.2c0.2,0.7,1.2,0.4,2-0.6
		C40.5,50.8,40.5,49,40.1,47.9z"/>
</g>
</svg>
