<?xml version="1.0" encoding="utf-8"?>
<!-- Generator: Adobe Illustrator 21.0.0, SVG Export Plug-In . SVG Version: 6.00 Build 0)  -->
<svg version="1.1" id="Logo" xmlns="http://www.w3.org/2000/svg" xmlns:xlink="http://www.w3.org/1999/xlink" x="0px" y="0px"
	 width="100px" height="100px" viewBox="0 0 100 100" style="enable-background:new 0 0 100 100;" xml:space="preserve">
<style type="text/css">
	.st0{fill:#333333;}
	.st1{fill:#EEEEEE;}
	.st2{fill:#663399;}
</style>
<g id="Logo_x5F_EgoCasino">
	<path class="st0" d="M96.9,57.1c-0.1-0.1-0.2-0.2-0.4-0.3c2.1-1.8,3.4-4.5,3.4-7.5c0-2.1-0.5-4.7-2.1-7.8c-1.8-3.2-5.2-5.3-9.3-5.3
		c-4,0-7.4,2.1-9.2,5.2c-0.3-1.2-1.1-2.1-1.9-2.9l-0.1-0.1c-1.6-1.3-4-2.1-6.4-2.1c-3.9,0-7.3,2-9.1,5c-1.5-3-4.6-5-8.3-5
		c-2.3,0-4.3,0.7-6,2c-0.2-1.2-0.6-2.3-1-3.4c-1.8-8-8.6-15.1-18.9-15.1c-7.4-0.1-14.5,2.8-19.7,7.9C2.8,32.6,0,39.4,0,46.6
		c0,16.7,9.2,30.4,28.4,30.4c7.8,0,12.2-2,15.4-3.4c1.6-0.7,2.9-1.3,3.9-1.3c0.9,0,1.7,0.3,2.3,0.8c0,1.1-0.5,7.1,6,7.1
		c3.8,0,6-2.6,6.7-7.6c0.3,0,0.5,0.1,0.7,0.1c0.9,0,1.8-0.3,2.4-0.9c1,0.5,2.2,0.9,3.3,0.9c1.3,0,2.5-0.4,3.5-1.1
		c0.7,0.7,1.6,1.1,2.6,1.1c0.8,0,1.6-0.3,2.2-0.7c0.7,0.4,1.4,0.7,2.2,0.7c1,0,1.9-0.4,2.6-1c0.5,0.5,1.4,0.9,2.5,0.9
		c1.2,0,2.4-0.6,3-1.5c1.3,1,2.8,1.5,4.5,1.5c4.1,0,7.3-3.2,7.3-7.4C99.9,63.3,100,60.5,96.9,57.1z"/>
	<path class="st1" d="M88.6,55c5,0,8.9-3.8,8.9-8.5s-3.9-8.5-8.9-8.5c-4.9,0-8.8,3.8-8.8,8.5C79.7,51.2,83.6,55,88.6,55z M88.6,41.8
		c2.6,0,4.5,1.9,4.5,4.6S91.2,51,88.6,51c-2.7,0-4.5-1.8-4.5-4.6C84.1,43.7,85.9,41.8,88.6,41.8z M70.9,55c2.9,0,5.9-1.4,7.5-3.6
		c0.5-0.7,0.6-1.3,0.6-2.2v-1.8c0-1.2-0.9-2.2-2.2-2.2h-4.3c-1.1,0-1.9,0.8-1.9,1.8s0.8,1.8,1.9,1.8h2.2v0.8
		c-0.8,0.9-2.1,1.5-3.6,1.5c-2.9,0-4.7-1.8-4.7-4.7c0-2.8,1.8-4.6,4.5-4.6c1.3,0,2.4,0.5,3.3,1.4c0.6,0.6,1.1,0.9,1.8,0.9
		c1,0,1.9-0.9,1.9-1.9c0-0.8-0.5-1.5-1.5-2.5c-1.3-1.1-3.4-1.8-5.4-1.8c-5.1,0-8.9,3.7-8.9,8.5C61.9,51.3,65.8,55,70.9,55z M53.9,55
		c1.9,0,3.7-0.5,5.2-1.5c0.8-0.5,1.1-1,1.1-1.8c0-1-0.8-1.8-1.8-1.8c-0.3,0-0.6,0.1-0.9,0.3c-0.9,0.6-2.2,0.9-3.4,0.9
		c-2.4,0-4-1.2-4.6-3.2h9.3c1.4,0,2.5-0.9,2.5-2.2v-0.1c0-4.5-3.3-7.7-7.7-7.7c-4.8,0-8.5,3.7-8.5,8.5C44.9,51.3,48.7,55,53.9,55z
		 M53.3,41.5c2.1,0,3.5,1.4,3.5,3.3h-7.5C49.9,42.7,51.4,41.5,53.3,41.5z M91.6,56.5c-2.2,0-4,1.2-5.1,2.9v-0.3
		c0-1.4-1.1-2.6-2.5-2.6c-1.2,0-2.2,0.8-2.4,2.1L81,57.7c-0.3-0.4-0.9-1.2-2.1-1.2c-1,0-1.8,0.6-2.2,1.6c-0.4-0.9-1.2-1.6-2.2-1.6
		c-1.2,0-2.1,0.8-2.4,2c-0.1-0.1-0.2-0.3-0.3-0.5c-0.3-0.5-1.4-1.5-3.4-1.5c0,0,0,0-0.1,0c-2.5,0-4.3,1.7-4.3,4
		c0,0.9,0.3,1.8,0.9,2.5c-0.2,0.1-0.4,0.3-0.5,0.5l-2.1-5.5c-0.4-1-1.3-1.6-2.3-1.6s-1.9,0.6-2.3,1.6l-0.1,0.4
		c-1.8-1.8-4.4-2.9-7.3-2.9c-6.6,0-14.7,5.5-22.6,5.5s-15.1-5.9-15.1-15.1C12.4,31.6,28,30,28.4,31c0.4,0.9-3,3-1.8,5.5
		c1.8-1.8,4.9-2.9,4.9-1.8s-3.4,3.7,0.5,8.2c1.5,1.7,3.3,1.9,4.2,1.9c0.4,0,0.7,0.3,0.5,0.7c-0.3,1-0.9,2.8-2.5,4
		c-2.1,1.6-5.1,2.3-7.6,0.9c-2.5-1.4-5.1,0.6-5.1,2.8c0,2,1.1,3.4,3.3,3.8c8.6,1.2,20.3-4.7,20.3-17.8c0-8-5.9-17.8-17.8-17.8
		C13.5,21.2,1.6,32.1,1.6,46.6s11.7,26.1,25.7,26.1c11.8,0,15.5-4.7,19.3-4.7c2.7,0,5,2.1,5,4.9c0.1,1.6,1.3,3,3.4,3
		c3.3,0,5.3-2.5,5.5-8.6c0.5,0.7,1.2,1.1,2,1.1c0.9,0,1.8-0.5,2.2-1.4l0,0l0,0c0.8,0.8,2.2,1.4,3.5,1.4c1.6,0,2.9-0.7,3.8-1.8
		c0.3,1.1,1.2,1.8,2.3,1.8c1,0,1.9-0.6,2.2-1.6c0.3,0.9,1.2,1.6,2.2,1.6c1.2,0,2.2-0.8,2.4-2.1l0.6,0.8c0.3,0.4,0.9,1.2,2.1,1.2
		c1.4,0,2.5-1.2,2.5-2.6v-0.3c1,1.7,2.9,2.9,5.1,2.9c3.3,0,5.9-2.6,5.9-5.9C97.4,59.1,94.9,56.5,91.6,56.5z M91.6,63.4
		c-0.6,0-0.9-0.3-0.9-0.9c0-0.4,0.1-0.9,0.9-0.9c0.5,0,0.9,0.3,0.9,0.9C92.5,62.8,92.3,63.4,91.6,63.4z"/>
	<path class="st2" d="M15.2,51.7c-1.6-10.2,4.9-14.4,9.6-15.9c-0.8,3.8,2.6,6,2.6,6l1.4-1.5l0,0c0.5,3,3.5,6.7,6.2,6.4
		c-2.6,2.8-5.4,3.3-7.5,2.2c-1.6-0.9-3.4-0.9-4.9,0C21,49.8,20,51.4,20,53.1c0,1.5,0.5,2.8,1.3,3.7c0.1,0.6,0.2,1.1,0.5,1.6
		C18.7,57,16.4,54.5,15.2,51.7z M42.4,55.6c0.9-0.9,1.8-2,2.6-3.3c0.3,0.8,0.6,1.6,1,2.2C44.8,54.8,43.6,55.2,42.4,55.6z M88.6,49.4
		c-0.8,0-1.4-0.2-1.9-0.6c0.3-1.6,1.3-2.6,3-2.6c0.7,0,1.3,0.2,1.8,0.5C91.3,48.3,90.2,49.4,88.6,49.4z M46.3,62.5
		c0-2.5,2-4.5,4.5-4.5c1.3,0,2.5,0.5,3.2,1.4c0.2,0.2,0.3,0.5,0.3,0.8c0,0.5-0.4,1-1,1c-0.3,0-0.5-0.1-0.8-0.4
		c-0.5-0.5-1-0.8-1.7-0.8c-1.3,0-2.2,1-2.2,2.5c0,1.4,0.9,2.4,2.2,2.4c0.7,0,1.2-0.3,1.7-0.8c0.3-0.3,0.5-0.4,0.8-0.4
		c0.5,0,1,0.5,1,1c0,0.3-0.1,0.5-0.3,0.8c-0.8,0.9-1.9,1.4-3.2,1.4C48.2,67,46.3,65,46.3,62.5z M63.5,65.9c0,0.6-0.5,1.1-1.1,1.1
		c-0.5,0-0.8-0.3-1-0.8l-0.1-0.5h-2.9l-0.2,0.5c-0.2,0.5-0.5,0.8-1,0.8c-0.6,0-1.1-0.5-1.1-1.1c0-0.1,0.1-0.3,0.1-0.5l2.6-6.6
		c0.2-0.5,0.5-0.8,1-0.8s0.8,0.3,1,0.8l2.6,6.6C63.5,65.6,63.5,65.8,63.5,65.9z M58.9,63.9h1.7l-0.8-2.5L58.9,63.9z M65.6,66
		c-0.3-0.3-0.4-0.5-0.4-0.9c0-0.6,0.5-1,0.9-1c0.1,0,0.3,0.1,0.5,0.1c0.2,0.1,0.7,0.8,1.6,0.8c0.5,0,0.8-0.2,0.8-0.6
		s-0.3-0.5-0.8-0.8l-0.8-0.4c-1.3-0.6-2.1-1.4-2.1-2.6c0-1.6,1.2-2.5,2.9-2.5c1.4,0,2.2,0.8,2.4,1c0.2,0.2,0.3,0.5,0.3,0.7
		c0,0.5-0.5,1-0.9,1c-0.2,0-0.3-0.1-0.5-0.2c-0.3-0.2-0.5-0.5-1.1-0.5c-0.4,0-0.8,0.1-0.8,0.5c0,0.3,0.2,0.5,0.7,0.7l0.9,0.4
		c1.4,0.6,2.1,1.4,2.1,2.6c0,1.7-1.3,2.8-3,2.8C67.3,67,66.2,66.6,65.6,66z M73.2,65.8v-6.7c0-0.7,0.5-1.2,1.1-1.2s1.1,0.5,1.1,1.2
		v6.7c0,0.7-0.5,1.2-1.1,1.2S73.2,66.5,73.2,65.8z M85.1,59.1v6.7c0,0.6-0.5,1.2-1,1.2c-0.6,0-0.8-0.3-1.1-0.8l-3-3.9v3.5
		c0,0.7-0.5,1.2-1.1,1.2c-0.6,0-1.1-0.5-1.1-1.2v-6.7c0-0.6,0.5-1.2,1-1.2c0.6,0,0.8,0.3,1.1,0.8l3,3.9v-3.5c0-0.7,0.5-1.2,1.1-1.2
		C84.6,58,85.1,58.4,85.1,59.1z M96.1,62.5c0,2.5-2,4.5-4.5,4.5c-2.5,0-4.5-2-4.5-4.5c0-2.5,2-4.5,4.5-4.5
		C94.1,58,96.1,60,96.1,62.5z M89.3,62.5c0,1.4,0.9,2.4,2.2,2.4c1.3,0,2.2-1,2.2-2.4c0-1.4-0.9-2.4-2.2-2.4S89.3,61,89.3,62.5z"/>
</g>
</svg>
