<!-- Generated by IcoMoon.io -->
<svg version="1.1" xmlns="http://www.w3.org/2000/svg" width="40" height="40" viewBox="0 0 40 40">
<title>Ainsworth</title>
<path fill="#000" opacity="0.6" d="M40 20c0 11.046-8.954 20-20 20s-20-8.954-20-20c0-11.046 8.954-20 20-20s20 8.954 20 20z"></path>
<path fill="#f33" d="M17.4 20.867l-1.6 6.467h-10.267l5.267-8.467c0 0-4.768-1.318-8.467-1.6 4.513-1.552 10.333-1.333 10.333-1.333l6.8-10.933c0 0 7.499 11.592 16.4 26.267-10.907-8.184-18.467-10.4-18.467-10.4zM19.267 13.133l-0.933 3.8 3.267 1.133-2.333-4.933z"></path>
</svg>
