<!-- Generated by IcoMoon.io -->
<svg version="1.1" xmlns="http://www.w3.org/2000/svg" width="40" height="40" viewBox="0 0 40 40">
<title>Elk</title>
<path fill="#000" opacity="0.6" d="M40 20c0 11.046-8.954 20-20 20s-20-8.954-20-20c0-11.046 8.954-20 20-20s20 8.954 20 20z"></path>
<path fill="#eee" d="M10.4 9.333c-2.872 0-5.267 2.271-5.267 5.155v10.89c0 2.884 2.395 5.288 5.267 5.288h23.133v-21.333h-23.133zM32.533 29.667h-21.628c-2.602 0-4.772-2.179-4.772-4.792v-9.869c0-2.613 2.17-4.672 4.772-4.672h21.628v19.333z"></path>
<path fill="#eee" d="M7.2 15.556v8.78c0 2.325 1.93 4.264 4.245 4.264h20.088v-4.733h-16.55c-1.028 0-1.888-0.844-1.916-1.867h18.465v-4h-18.467c0.001-1.044 0.872-1.867 1.917-1.867h16.55v-4.733h-20.088c-2.315 0-4.245 1.831-4.245 4.156z"></path>
</svg>
