<?xml version="1.0" encoding="utf-8"?>
<!-- Generator: Adobe Illustrator 21.0.0, SVG Export Plug-In . SVG Version: 6.00 Build 0)  -->
<svg version="1.1" id="Слой_1" xmlns="http://www.w3.org/2000/svg" xmlns:xlink="http://www.w3.org/1999/xlink" x="0px" y="0px"
	 width="100px" height="100px" viewBox="0 0 100 100" style="enable-background:new 0 0 100 100;" xml:space="preserve">
<style type="text/css">
	.st0{fill:#333333;}
	.st1{fill:#00CC33;}
</style>
<path id="r2" class="st0" d="M35.8,13.2L33.2,5C28.3,6.8,24,9.3,20,12.5l5.7,6.5C28.7,16.5,32.2,14.5,35.8,13.2z M64.5,86.7l2.7,8.2
	c4.8-1.8,9.2-4.3,13-7.5l-5.7-6.5C71.5,83.3,68.2,85.2,64.5,86.7z M89,44.2c0.3,2,0.5,3.8,0.5,5.8s-0.2,3.8-0.5,5.8l8.5,1.7
	c0.3-2.5,0.5-5,0.7-7.5c0-2.5-0.3-5-0.7-7.5L89,44.2z M80.3,12.7c-4-3.2-8.3-5.7-13-7.5l-2.8,8.2c3.7,1.3,7,3.3,10.2,5.8L80.3,12.7z
	 M19.7,87.3c4,3.2,8.3,5.7,13,7.5l2.8-8.2c-3.7-1.3-7-3.3-10.2-5.8L19.7,87.3z M74.7,21.8c-3.7-3.2-8-5.7-12.7-7.3l4-11.8
	c6.3,2.2,12.2,5.5,17,9.8L74.7,21.8z M25.5,21.8l-8.2-9.5c5-4.3,10.8-7.7,17.2-9.8l3.8,11.8C33.5,16,29.2,18.5,25.5,21.8z M12.5,50
	c0,2.5,0.3,5,0.8,7.3L1,59.8c-0.7-3.2-1-6.5-1-9.8s0.3-6.7,1-9.8l12.2,2.5C12.8,45,12.5,47.5,12.5,50z M10.5,50c0-2,0.2-3.8,0.5-5.8
	l-8.5-1.7C2,45,1.8,47.5,1.8,50s0.3,5,0.7,7.5l8.5-1.7C10.7,53.8,10.5,52,10.5,50z M25.3,78.2c3.7,3.2,8,5.7,12.7,7.3l-4,11.8
	c-6.3-2.2-12.2-5.5-17-9.8L25.3,78.2z M100,50c0,3.3-0.3,6.7-1,9.8l-12.3-2.5c0.3-2.3,0.7-4.8,0.7-7.3s-0.2-5-0.7-7.3L99,40.2
	C99.7,43.3,100,46.7,100,50z M83.8,50c0,18.7-15.2,33.8-33.8,33.8S16.2,68.7,16.2,50S31.4,16.2,50,16.2S83.8,31.3,83.8,50z M81.5,50
	c0-17.3-14.2-31.5-31.5-31.5S18.5,32.7,18.5,50S32.7,81.5,50,81.5S81.5,67.3,81.5,50z M74.8,78.2l8.2,9.3c-5,4.3-10.7,7.7-17,9.8
	l-4-11.8C66.8,84,71,81.3,74.8,78.2z M64,60.2c-0.5,0-1.2,0.2-1.7,0.3l-6-8.5c0.2-0.7,0.3-1.3,0.3-2s-0.2-1.3-0.2-1.8l6-8.5
	c0.5,0.2,1,0.3,1.7,0.3c2.3,0,4.2-1.8,4.2-4.2s-1.7-4-4-4c-2.3,0-4.2,1.8-4.2,4.2c0,0.5,0.2,1.2,0.3,1.7l-8.5,6
	c-0.7-0.2-1.3-0.3-2-0.3s-1.3,0.2-2,0.3l-8.5-6c0.2-0.5,0.3-1.2,0.3-1.7c0-2.3-1.8-4.2-4.2-4.2c-2.3,0-4,1.7-4,4s1.8,4.2,4.2,4.2
	c0.7,0,1.2-0.2,1.7-0.3l6,8.5c0,0.5-0.2,1.2-0.2,1.8c0,0.7,0.2,1.3,0.3,2l-6,8.5c-0.5-0.2-1.2-0.3-1.7-0.3c-2.3,0-4.2,1.8-4.2,4.2
	s1.8,4.2,4.2,4.2s4.2-1.8,4.2-4.2c0-0.7-0.2-1.2-0.3-1.7l8.5-6c0.6,0.1,1.1,0.3,1.7,0.3c0.6,0,1.1-0.2,1.7-0.3l8.5,6
	c-0.2,0.5-0.3,1-0.3,1.7c0,2.3,1.8,4.2,4.2,4.2c2.4,0,4.2-1.8,4.2-4.2S66.3,60.2,64,60.2z"/>
<path id="r1" class="st1" d="M2.7,66c2.2,6.3,5.5,12,9.8,17l9.3-8.2c-3.2-3.7-5.8-8-7.3-12.7L2.7,66z M12.7,80.2
	c-3.2-4-5.7-8.3-7.5-13l8.2-2.7c1.5,3.7,3.3,7,5.8,10L12.7,80.2z M97.3,34c-2.2-6.3-5.5-12-9.8-17l-9.3,8.3c3.2,3.7,5.8,8,7.3,12.7
	L97.3,34z M87.3,19.8c3.2,4,5.7,8.3,7.5,13l-8.2,2.7c-1.5-3.7-3.3-7-5.8-10L87.3,19.8z M2.7,34l11.8,4c1.7-4.7,4.2-9,7.3-12.7
	L12.5,17C8.2,21.8,4.8,27.7,2.7,34z M19.2,25.5c-2.5,3-4.3,6.5-5.8,10l-8.2-2.8c1.8-4.7,4.3-9,7.5-13L19.2,25.5z M78.2,74.7l9.3,8.2
	c4.3-4.8,7.7-10.7,9.8-17l-11.8-4C84,66.8,81.3,71,78.2,74.7z M94.8,67.2c-1.8,4.7-4.3,9-7.5,13l-6.5-5.7c2.5-3,4.3-6.5,5.8-10
	L94.8,67.2z M50,87.5c-2.5,0-5-0.3-7.3-0.7l-2.5,12.3c3.2,0.5,6.5,0.8,9.8,0.8s6.7-0.3,9.8-1l-2.5-12.3C55,87.2,52.5,87.5,50,87.5z
	 M50,98c-2.5,0-5-0.2-7.5-0.7l1.7-8.5c2,0.3,3.8,0.5,5.8,0.5s3.8-0.2,5.8-0.5l1.7,8.5C55,97.8,52.5,98,50,98z M40.2,1l2.5,12.3
	c2.3-0.5,4.8-0.8,7.3-0.8s5,0.3,7.3,0.7l2.5-12.3C56.7,0.3,53.3,0,50,0S43.3,0.3,40.2,1z"/>
</svg>
