<?xml version="1.0" encoding="utf-8"?>
<!-- Generator: Adobe Illustrator 21.0.0, SVG Export Plug-In . SVG Version: 6.00 Build 0)  -->
<svg version="1.1" id="Слой_1" xmlns="http://www.w3.org/2000/svg" xmlns:xlink="http://www.w3.org/1999/xlink" x="0px" y="0px"
	 width="160px" height="60px" viewBox="0 0 160 60" style="enable-background:new 0 0 160 60;" xml:space="preserve">
<style type="text/css">
	.st0{fill:#333333;}
	.st1{fill:#00CC33;}
</style>
<g id="GameRevenue_1_">
	<path id="r2" class="st0" d="M49.8,7.5c-2.9-2.6-6.4-4.6-10.2-5.9l-2.4,7.1c2.8,1,5.4,2.5,7.6,4.4L49.8,7.5z M38.7,8l1.7-4.9
		c2.8,1.1,5.4,2.6,7.8,4.5l-3.4,3.9C42.9,10,40.9,8.8,38.7,8z M23,8.6l-2.3-7.1c-3.8,1.3-7.3,3.3-10.3,5.9l4.9,5.7
		C17.5,11.1,20.1,9.6,23,8.6z M19.9,3l1.6,4.9c-2.2,0.8-4.3,2-6.1,3.5L12,7.5C14.4,5.6,17,4.1,19.9,3z M59.4,24.1l-7.4,1.5
		c0.3,1.4,0.4,2.9,0.4,4.4c0,1.5-0.2,3-0.4,4.4l7.4,1.5C59.8,34,60,32,60,30C60,28,59.8,26,59.4,24.1z M58.5,34.5l-5.1-1
		c0.2-1.2,0.3-2.3,0.3-3.5c0-1.2-0.1-2.3-0.3-3.5l5.1-1c0.2,1.5,0.4,3,0.4,4.5C58.8,31.5,58.7,33,58.5,34.5z M37.2,51.3l2.4,7.1
		c3.8-1.3,7.2-3.3,10.2-5.9l-4.9-5.6C42.6,48.8,40.1,50.4,37.2,51.3z M40.3,56.9L38.7,52c2.2-0.9,4.2-2,6-3.5l3.4,3.9
		C45.8,54.3,43.2,55.8,40.3,56.9z M0.6,24.1C0.2,26,0,28,0,30c0,2,0.2,4,0.6,5.9l7.4-1.5C7.7,33,7.5,31.5,7.5,30s0.2-3,0.4-4.4
		L0.6,24.1z M6.6,33.5l-5.1,1c-0.2-1.5-0.4-3-0.4-4.5c0-1.5,0.1-3,0.4-4.5l5.1,1c-0.2,1.2-0.3,2.3-0.3,3.5
		C6.3,31.2,6.4,32.3,6.6,33.5z M10.2,52.5c2.9,2.6,6.4,4.6,10.2,5.9l2.4-7.1c-2.8-1-5.4-2.5-7.6-4.4L10.2,52.5z M21.3,52l-1.7,4.9
		c-2.8-1.1-5.4-2.6-7.8-4.5l3.4-3.9C17.1,50,19.1,51.2,21.3,52z M30,9.7C18.8,9.7,9.7,18.8,9.7,30c0,11.2,9.1,20.3,20.3,20.3
		S50.3,41.2,50.3,30C50.3,18.8,41.2,9.7,30,9.7z M30,48.9c-10.4,0-18.9-8.5-18.9-18.9S19.6,11.1,30,11.1S48.9,19.6,48.9,30
		S40.4,48.9,30,48.9z M38.5,24c1.4,0,2.5-1.1,2.5-2.5S39.9,19,38.5,19c-1.4,0-2.5,1.1-2.5,2.5c0,0.4,0.1,0.7,0.2,1l-5.1,3.6
		C30.8,26.1,30.4,26,30,26c-0.4,0-0.8,0.1-1.2,0.2l-5.1-3.6c0.1-0.3,0.2-0.7,0.2-1c0-1.4-1.1-2.5-2.5-2.5S19,20.1,19,21.5
		c0,1.4,1.1,2.5,2.5,2.5c0.4,0,0.7-0.1,1-0.2l3.6,5.1C26.1,29.2,26,29.6,26,30c0,0.4,0.1,0.8,0.2,1.2l-3.6,5.1
		c-0.3-0.1-0.7-0.2-1-0.2c-1.4,0-2.5,1.1-2.5,2.5c0,1.4,1.1,2.5,2.5,2.5s2.5-1.1,2.5-2.5c0-0.4-0.1-0.7-0.2-1l5.1-3.6
		c0.4,0.1,0.8,0.2,1.2,0.2c0.4,0,0.8-0.1,1.2-0.2l5.1,3.6c-0.1,0.3-0.2,0.7-0.2,1c0,1.4,1.1,2.5,2.5,2.5c1.4,0,2.5-1.1,2.5-2.5
		c0-1.4-1.1-2.5-2.5-2.5c-0.4,0-0.7,0.1-1,0.2l-3.6-5.1c0.1-0.4,0.2-0.8,0.2-1.2s-0.1-0.8-0.2-1.2l3.6-5.1
		C37.8,23.9,38.1,24,38.5,24z"/>
	<path id="r1" class="st1" d="M1.6,39.6c1.3,3.8,3.3,7.2,5.9,10.2l5.6-4.9c-1.9-2.2-3.5-4.8-4.4-7.6L1.6,39.6z M7.6,48.1
		c-1.9-2.4-3.4-5-4.5-7.8L8,38.7c0.9,2.2,2,4.2,3.5,6L7.6,48.1z M58.4,20.4c-1.3-3.8-3.3-7.2-5.9-10.2l-5.6,5
		c1.9,2.2,3.5,4.8,4.4,7.6L58.4,20.4z M52.4,11.9c1.9,2.4,3.4,5,4.5,7.8L52,21.3c-0.9-2.2-2-4.2-3.5-6L52.4,11.9z M1.6,20.4l7.1,2.4
		c1-2.8,2.5-5.4,4.4-7.6l-5.6-5C4.9,13.1,2.9,16.6,1.6,20.4z M11.5,15.3c-1.5,1.8-2.6,3.9-3.5,6l-4.9-1.7c1.1-2.8,2.6-5.4,4.5-7.8
		L11.5,15.3z M46.9,44.8l5.6,4.9c2.6-2.9,4.6-6.4,5.9-10.2l-7.1-2.4C50.4,40.1,48.8,42.6,46.9,44.8z M56.9,40.3
		c-1.1,2.8-2.6,5.4-4.5,7.8l-3.9-3.4c1.5-1.8,2.6-3.9,3.5-6L56.9,40.3z M30,52.5c-1.5,0-3-0.2-4.4-0.4l-1.5,7.4C26,59.8,28,60,30,60
		c2,0,4-0.2,5.9-0.6l-1.5-7.4C33,52.3,31.5,52.5,30,52.5z M30,58.8c-1.5,0-3-0.1-4.5-0.4l1-5.1c1.2,0.2,2.3,0.3,3.5,0.3
		c1.2,0,2.3-0.1,3.5-0.3l1,5.1C33,58.7,31.5,58.8,30,58.8z M24.1,0.6l1.5,7.4C27,7.7,28.5,7.5,30,7.5s3,0.2,4.4,0.4l1.5-7.4
		C34,0.2,32,0,30,0C28,0,26,0.2,24.1,0.6z"/>
	<path id="revenue" class="st1" d="M146.3,39.4c-3.1,0-5.7,2.5-5.7,5.7c0,3.1,2.5,5.7,5.7,5.7c1.6,0,3-0.7,4-1.7l-2-1.4
		c-0.6,0.4-1.3,0.7-2.1,0.7c-1.4,0-2.6-0.9-3.1-2.1h8.6c0.1-0.4,0.1-0.8,0.1-1.2C152,42,149.5,39.4,146.3,39.4z M146.3,41.8
		c1.4,0,2.6,0.9,3.1,2.1h-6.2C143.7,42.7,144.9,41.8,146.3,41.8z M137.4,39.4v5.7c0,1.8-1.5,3.3-3.3,3.3s-3.3-1.5-3.3-3.3v-5.7h-2.4
		v5.7c0,3.1,2.5,5.7,5.7,5.7s5.7-2.5,5.7-5.7v-5.7H137.4z M121.8,39.4c-1.2,0-2.4,0.4-3.3,1.1v-1.1h-2.4v11.3h2.4v-5.7
		c0-1.8,1.5-3.3,3.3-3.3c1.8,0,3.3,1.5,3.3,3.3v5.7h2.4v-5.7C127.5,42,125,39.4,121.8,39.4z M109.6,39.4c-3.1,0-5.7,2.5-5.7,5.7
		c0,3.1,2.5,5.7,5.7,5.7c1.6,0,3-0.7,4-1.7l-2-1.4c-0.6,0.4-1.3,0.7-2.1,0.7c-1.4,0-2.6-0.9-3.1-2.1h8.6c0.1-0.4,0.1-0.8,0.1-1.2
		C115.2,42,112.7,39.4,109.6,39.4z M109.6,41.8c1.4,0,2.6,0.9,3.1,2.1h-6.2C107,42.7,108.2,41.8,109.6,41.8z M99.5,50.7l4.9-11.3
		h-2.6l-3.6,8.4l-3.6-8.4H92l4.9,11.3H99.5z M86.8,39.4c-3.1,0-5.7,2.5-5.7,5.7c0,3.1,2.5,5.7,5.7,5.7c1.6,0,3-0.7,4-1.7l-2-1.4
		c-0.6,0.4-1.3,0.7-2.1,0.7c-1.4,0-2.6-0.9-3.1-2.1h8.6c0.1-0.4,0.1-0.8,0.1-1.2C92.4,42,89.9,39.4,86.8,39.4z M86.8,41.8
		c1.4,0,2.6,0.9,3.1,2.1h-6.2C84.2,42.7,85.4,41.8,86.8,41.8z M76.9,40.5v-1.1h-2.4v11.3h2.4v-5.7c0-1.8,1.5-3.3,3.3-3.3v-2.4
		C78.9,39.4,77.8,39.8,76.9,40.5z"/>
	<path id="Game" class="st0" d="M150.6,32.4c-3.9,0-7.1-3.2-7.1-7.1h14.1h1h1.4c0-5.2-4.2-9.4-9.4-9.4c-5.2,0-9.4,4.2-9.4,9.4
		c0,5.2,4.2,9.4,9.4,9.4c3.7,0,6.9-2.1,8.4-5.3l-2.1-1C155.8,30.7,153.4,32.4,150.6,32.4z M150.6,18.2c3.1,0,5.7,2,6.7,4.7h-13.3
		C144.9,20.2,147.5,18.2,150.6,18.2z M132.7,15.9c-2.5,0-4.6,1.3-5.9,3.2c-1.3-1.9-3.4-3.2-5.9-3.2c-1.8,0-3.5,0.7-4.7,1.8v-1.8
		h-2.4v18.9h2.4V22.9c0-2.6,2.1-4.7,4.7-4.7s4.7,2.1,4.7,4.7v11.8h2.4V22.9c0-2.6,2.1-4.7,4.7-4.7s4.7,2.1,4.7,4.7v11.8h2.4V22.9
		C139.7,19,136.6,15.9,132.7,15.9z M109.6,15.9v3.2c-1.7-2-4.3-3.2-7.1-3.2c-5.2,0-9.4,4.2-9.4,9.4c0,5.2,4.2,9.4,9.4,9.4
		c2.8,0,5.3-1.2,7.1-3.2v3.2h2.4V15.9C111.9,15.9,109.6,15.9,109.6,15.9z M102.5,32.4c-3.9,0-7.1-3.2-7.1-7.1c0-3.9,3.2-7.1,7.1-7.1
		s7.1,3.2,7.1,7.1S106.4,32.4,102.5,32.4z M78.9,22v2.4H89c-1.1,4.6-5.2,8-10.1,8c-5.7,0-10.4-4.6-10.4-10.4s4.6-10.4,10.4-10.4
		c3.3,0,6.3,1.6,8.2,4l1.9-1.5c-2.3-3-5.9-4.9-10-4.9c-7,0-12.7,5.7-12.7,12.7c0,7,5.7,12.7,12.7,12.7c7,0,12.7-5.7,12.7-12.7H78.9z
		"/>
</g>
</svg>
