<?xml version="1.0" encoding="utf-8"?>
<!-- Generator: Adobe Illustrator 21.0.0, SVG Export Plug-In . SVG Version: 6.00 Build 0)  -->
<svg version="1.1" id="Слой_1" xmlns="http://www.w3.org/2000/svg" xmlns:xlink="http://www.w3.org/1999/xlink" x="0px" y="0px"
	 viewBox="0 0 240 240" style="enable-background:new 0 0 240 240;" xml:space="preserve">
<style type="text/css">
	.st0{fill:#DE7828;}
	.st1{fill:#76553D;}
	.st2{fill:#6B4735;}
	.st3{fill:#4B3521;}
	.st4{fill:#422316;}
	.st5{fill:#ED7C30;}
	.st6{fill:#EC9D4F;}
	.st7{fill:#F27121;}
	.st8{fill:#D2631C;}
	.st9{fill:#D56C26;}
	.st10{fill:#661C09;}
	.st11{fill:#FDBF20;}
	.st12{fill:#FFF100;}
</style>
<g>
	<g>
		<path class="st0" d="M62.7,70.7c11.2-5.9,27.9-6.8,34.9-0.7c1.5,1.3,2.8,2.8,4.5,3.8c1.9-1.9,3.4-4.1,5.4-5.7
			c7.4-5.8,21.5-6.1,29.3-1c1.5,1,4.3,6.1,5.9,5.8c1.2-0.2,2.1-1.2,3.1-1.8c8.8-5.1,19.3-5.6,28.8-2.1c9.9,3.6,23.3,15.5,23.2,26.9
			c-0.1,10.6-10.5,14.6-19.2,16.7c-21.1,4.9-42,4-63.5,2c-18.1-1.7-39-1.1-54.3-12.6C49.2,93.2,48.7,78.2,62.7,70.7z"/>
		<path class="st1" d="M128.6,16.9c4.3,0.4,5.5,8.6,6.5,12.1c1.7,5.9,3.2,12.4,2.9,18.6c-0.2,4.4-2.9,8.8-2.7,13.2
			c0.3,5.3,4.4,5.6,8.2,7.6c5.1,2.7,7.6,9.2,10.4,14c0.4,0.7,1.5,2.2,1.4,3c-5.5,0.7-11.6,1.8-17.1,2.9c-3.5,0.7-6.9,1.6-10.5,2
			c-6.2,0.6-45.5,2.7-40.6-11.6c1.5-4.4,9.3-4.2,12.5-7.1c2.3-2.1,4-4.8,6.9-6.2c2.8-1.4,6.2-0.9,8.9-2.8c0.8-0.5,1.7-0.9,2.5-1.5
			c0.6-0.4,1-1.2,1.6-1.7c5.7-4.3,7.4-11.7,6.3-18.4c-0.7-4.2-4.4-16.6-10.3-15.7C115.5,25.2,118,15.9,128.6,16.9z"/>
		<path class="st2" d="M154,82.3c-2.5-4.4-4.9-10.3-9.2-13.2c-0.4,0.7-0.7,1.3-1,1.8c-0.7,1-1.7,2.5-3.1,2.4
			c-1.8-0.2-2.9-2.6-3.6-4.1c-0.3,0.5-0.7,0.9-1,1.4c-0.1,0.2-0.4,0.2-0.5,0.1c-2.2-2.2-5.1-3.7-6.7-6.5c-0.2,0-0.3-0.1-0.3-0.3
			v-0.3c0-0.2,0.3-0.4,0.5-0.3c6-6.8,5.8-16.6,4.9-25c-0.5-4.7-0.9-9.3-2.8-13.7c-1.1-2.5-2.2-5-2.8-7.6
			c-10.4-0.8-12.8,8.3-12.8,8.3c5.9-1,9.6,11.4,10.3,15.7c1.1,6.8-0.6,14.1-6.3,18.4c-0.6,0.5-1,1.2-1.6,1.7
			c-0.7,0.5-1.7,0.9-2.5,1.5c-2.7,1.9-6.1,1.4-8.9,2.8c-2.8,1.4-4.6,4.1-6.9,6.2c-3.1,2.9-11,2.7-12.5,7.1
			c-5,14.3,34.4,12.2,40.6,11.6c3.6-0.4,7-1.3,10.5-2c5.5-1,11.7-2.2,17.1-2.9C155.5,84.5,154.4,83,154,82.3z"/>
		<path class="st3" d="M154,82.3c-2.8-4.8-5.3-11.3-10.4-14c-0.7-0.4-1.5-0.7-2.2-1c0.1,0.8,0.2,1.6,0.3,2.4
			c0.1,0.1,0.1,0.1,0.1,0.2v0.4c0,0.1-0.1,0.2-0.2,0.3c-0.7,2.4-1.3,4.8-2.9,6.9c-0.1,0.2-0.4,0.2-0.5,0.1
			c-3.2-3.1-6.8-5.6-11.4-5.8c-4.4-0.2-8.9,0.5-13.3,0.7c-0.2,0-0.3-0.2-0.3-0.3c-0.2-2,0.2-3.7,2.4-4.1c1.8-0.3,4.5,0.6,6-0.8
			c2.1-2.1,3.7-4.8,5.2-7.4c1.7-2.9,3.3-5.9,4.1-9.2c1.1-4.5,1-9.1,0-13.6c-0.4-2-1-4-1.6-5.9c-0.4-1.1-0.7-2.2-1.1-3.2
			c-0.3-0.8-0.3-0.7-1-1c-3.4-1.1-4-5.8-3.9-9.4c-5.9,1.9-7.5,7.8-7.5,7.8c5.9-1,9.6,11.4,10.3,15.7c1.1,6.8-0.6,14.1-6.3,18.4
			c-0.6,0.5-1,1.2-1.6,1.7c-0.7,0.5-1.7,0.9-2.5,1.5c-2.7,1.9-6.1,1.4-8.9,2.8c-2.8,1.4-4.6,4.1-6.9,6.2c-3.1,2.9-11,2.7-12.5,7.1
			c-5,14.3,34.4,12.2,40.6,11.6c3.6-0.4,7-1.3,10.5-2c5.5-1,11.7-2.2,17.1-2.9C155.5,84.5,154.4,83,154,82.3z"/>
		<path class="st4" d="M130.1,77.5c-2.1-0.4-4.7-0.4-6.6-1.5c-2.2-1.3-3.8-2.2-6.5-1.3c-1.8,0.6-3.4,0.6-5.4,0.3
			c-2.6-0.4-4.7-0.3-7,1.2c-0.2,0.1-0.5,0-0.5-0.3c-0.7-9.3,11.7-10.7,17-15.6c1.9-1.8,2.8-3.9,4-6.2c1.3-2.5,3.2-5.5,3.3-8.5
			c0.1-3.7-2.3-6.6-4.1-9.7c0.6,2,1.1,3.8,1.2,5c1.1,6.8-0.6,14.1-6.3,18.4c-0.6,0.5-1,1.2-1.6,1.7c-0.7,0.5-1.7,0.9-2.5,1.5
			c-2.7,1.9-6.1,1.4-8.9,2.8c-2.8,1.4-4.6,4.1-6.9,6.2c-3.1,2.9-11,2.7-12.5,7.1c-5,14.3,34.4,12.2,40.6,11.6c3.6-0.4,7-1.3,10.5-2
			c1.5-0.3,3-0.5,4.5-0.8C139.9,82.5,136.2,78.5,130.1,77.5z"/>
		<g>
			<path class="st5" d="M193.7,83.8c14.8,6.4,21.5,26.6,24.3,40.1c3.4,16.2,2.1,33.8-2.5,49.7c-3.7,13-15.1,40.1-35.9,40.9
				c-15.7,0.7-18-14.9-22.1-25.6c-2.5-6.5-5.6-14.1-6.3-21.1c-1.5-13.3-1.1-27.3,0.3-40.7c2.1-20.4,9.1-51.8,38.9-44.5
				C191.6,83,192.7,83.4,193.7,83.8z"/>
			<path class="st6" d="M199.2,111.5c-0.5-4.4-4.2-10.3-6.5-14c-2.7-4.5-6.3-8.7-10.8-11.5c-2.1-1.3-4.5-2.5-7-3.3
				c4.3-1.3,9.5-1.5,15.6,0c1.1,0.3,2.2,0.7,3.3,1.1c14.1,6.1,20.8,24.6,23.9,38c-0.5-1.1-0.9-2.3-1.4-3.4c-1.8-4-4-7.8-6.5-11.4
				c-2.3-3.2-4.8-6.5-7.8-9c-0.9-0.7-2.4-2.1-3.6-1.3c-1,0.7-0.9,2.7-0.8,3.7C197.7,104.2,198.8,107.8,199.2,111.5z"/>
			<path class="st7" d="M163.1,91.1c4.3,3,8.4,6.3,12.2,10.1c5.1,5.1,9.4,11,12.6,17.4c3.6,7.3,6.3,15.6,6.6,23.8
				c0.5,9.6-1.7,18.9-3.5,28.3c-1.6,8.3-3.2,16.9-1.9,25.4c0,0.2,0.2,0.3,0.4,0.2c4-0.9,7.6-3,10.6-5.8c8.7-8.2,13.4-20.5,16.3-31.9
				c1.7-6.9,3.1-14.1,3.5-21.4c0.7,12.2-0.9,24.7-4.2,36.4c-3.7,13-15.1,40.1-35.9,40.9c-15.7,0.7-18-14.9-22.1-25.6
				c-2.5-6.5-5.6-14.1-6.3-21.1c-1.5-13.3-1.1-27.3,0.3-40.7C152.8,115.7,155.5,100.7,163.1,91.1z"/>
			<path class="st8" d="M167.2,204.5c6.3,2.3,9.3-6.3,12.5-11.2c0.9,3,4.2,10.4,7.1,11.8c3.3,1.6,7.2-0.1,10.1-1.9
				c3.9-2.5,7.6-6,10.6-9.9c-6.1,10.7-15.2,20.8-27.7,21.3c-10.9,0.5-15.4-6.9-18.4-15.1C162.8,201.7,164.7,203.6,167.2,204.5z"/>
		</g>
		<g>
			<path class="st5" d="M46.2,80.2c-14.8,6.4-21.5,26.6-24.3,40.1c-3.4,16.2-2.1,33.8,2.5,49.7c3.7,13,15.1,40.1,35.9,40.9
				c15.7,0.7,18-14.9,22.1-25.6c2.5-6.5,5.6-14.2,6.3-21.1c1.5-13.3,1.1-27.3-0.3-40.7c-2.1-20.4-9.1-51.8-38.9-44.5
				C48.3,79.4,47.2,79.7,46.2,80.2z"/>
			<path class="st6" d="M40.8,107.9c0.5-4.4,4.2-10.3,6.5-14c2.7-4.5,6.3-8.7,10.8-11.5c2.1-1.3,4.5-2.5,7-3.3
				c-4.3-1.3-9.5-1.5-15.6,0c-1.1,0.3-2.2,0.7-3.3,1.1c-14.1,6.1-20.8,24.6-23.9,38c0.5-1.1,0.9-2.3,1.4-3.4c1.8-4,4-7.8,6.5-11.4
				c2.3-3.2,4.8-6.5,7.8-9c0.9-0.7,2.4-2.1,3.6-1.3c1,0.7,0.9,2.7,0.8,3.7C42.2,100.6,41.1,104.2,40.8,107.9z"/>
			<path class="st7" d="M76.9,87.5c-4.3,3-8.4,6.3-12.2,10.1c-5.1,5.1-9.4,11-12.6,17.4c-3.6,7.3-6.3,15.6-6.6,23.8
				c-0.5,9.6,1.7,19,3.5,28.3c1.6,8.3,3.2,16.9,1.9,25.4c0,0.2-0.2,0.3-0.4,0.2c-4-0.9-7.6-3-10.6-5.8c-8.7-8.2-13.4-20.5-16.3-31.9
				c-1.7-6.9-3.1-14.1-3.5-21.4c-0.7,12.2,0.9,24.7,4.2,36.4c3.7,13,15.1,40.1,35.9,40.9c15.7,0.7,18-14.9,22.1-25.6
				c2.5-6.5,5.6-14.2,6.3-21.1c1.5-13.3,1.1-27.3-0.3-40.7C87.2,112.1,84.4,97.1,76.9,87.5z"/>
			<path class="st8" d="M72.7,200.9c-6.3,2.3-9.3-6.3-12.5-11.2c-0.9,3-4.2,10.4-7.1,11.8c-3.3,1.6-7.2-0.1-10.1-1.9
				c-3.9-2.5-7.6-6-10.6-9.9c6.1,10.7,15.2,20.8,27.7,21.3c10.9,0.5,15.4-6.9,18.4-15.1C77.2,198.1,75.3,200,72.7,200.9z"/>
		</g>
		<g>
			<path class="st5" d="M100.5,81.1c-3.3-2.1-7.3-3.4-12.3-3.5C60.5,77,52,116,51.4,136.8c-0.5,15,0.5,33.5,5.4,47.9
				c6,17.4,16.1,28.4,33.5,33.3c0,0,0,0,0,0c16.1,4.4,24.6-16.3,26.2-27.8c3-21,1.8-42.3-0.8-63.3C114,112.5,113.8,89.8,100.5,81.1z
				"/>
			<path class="st6" d="M60.3,112c2.3-2.5,5.5-5.8,9.1-6.1c3.2-0.2,6.6,5.3,7.3,8c0-14.7,3.2-22.3,9.8-28.9c3-2.9,6.9-5.2,13.3-3.7
				c0.3,0.1,0.7,0,1.1,0c-0.1-0.1-0.2-0.2-0.3-0.2c-3.3-2.1-7.3-3.4-12.3-3.5c-22.6-0.5-32.4,25.4-35.6,46.3
				C54.6,119.6,57.1,115.5,60.3,112z"/>
			<path class="st7" d="M112.2,100.5c-1.5,0.7-2.9,1.5-4.2,2.4C100,108,93.6,115.3,89,123.5c-3.9,6.9-6.2,1.9-6.9,17.9
				c-0.3,6.7,1,26.1,2.7,35c1.4,7,3.2,12.3-0.2,18.9c-1.6,3.2-4.4,4.8-7.8,3.3c-4.1-1.9-7.2-5.9-9.8-9.4c-3.1-4.2-5.8-8.8-8-13.6
				c-6.9-14.9-6.9-31.9-6.9-47.9c-0.4,3.3-0.6,6.5-0.7,9.3c-0.5,15,0.5,33.5,5.4,47.9c6,17.4,16.1,28.4,33.5,33.3c0,0,0,0,0,0
				c16.1,4.4,24.6-16.3,26.2-27.8c3-21,1.8-42.3-0.8-63.3C114.9,119.3,114.4,109.5,112.2,100.5z"/>
			<path class="st8" d="M105.9,206.6c-2.2,0.5-7.2-7.5-11-11.7c-0.9,3.1-5.9,11.9-9,13.3c-3.3,1.4-7-0.6-9.8-2.3
				c-4.7-2.9-9-6.5-12.6-10.6c-2.6-3.1-5.1-6.5-6.4-10.4c-0.2-0.4-0.5-0.8-0.7-1.1c0.1,0.3,0.2,0.6,0.3,0.9
				c6,17.4,16.1,28.4,33.5,33.3c0,0,0,0,0,0c12.4,3.4,20.2-8,23.9-18.7C112.1,202.4,109.7,205.8,105.9,206.6z"/>
		</g>
		<g>
			<path class="st5" d="M145.3,81.1c3.3-2.1,7.3-3.4,12.3-3.5c27.7-0.6,36.1,38.4,36.8,59.2c0.5,15-0.5,33.5-5.4,47.9
				c-6,17.4-16.1,28.4-33.5,33.3c0,0,0,0,0,0c-16.1,4.4-24.6-16.3-26.2-27.8c-3-21-1.8-42.3,0.8-63.3
				C131.8,112.5,132,89.8,145.3,81.1z"/>
			<path class="st6" d="M185.5,112c-2.3-2.5-5.5-5.8-9.1-6.1c-3.2-0.2-6.6,5.3-7.3,8c0-14.7-3.2-22.3-9.8-28.9
				c-3-2.9-6.9-5.2-13.3-3.7c-0.3,0.1-0.7,0-1,0c0.1-0.1,0.2-0.2,0.3-0.2c3.3-2.1,7.3-3.4,12.3-3.5c22.6-0.5,32.4,25.4,35.6,46.3
				C191.3,119.6,188.7,115.5,185.5,112z"/>
			<path class="st7" d="M133.7,100.5c1.5,0.7,2.9,1.5,4.2,2.4c7.9,5.1,14.3,12.4,18.9,20.6c3.9,6.9,6.2,1.9,6.9,17.9
				c0.3,6.7-1,26.1-2.7,35c-1.4,7-3.2,12.3,0.2,18.9c1.6,3.2,4.4,4.8,7.8,3.3c4.1-1.9,7.2-5.9,9.8-9.4c3.1-4.2,5.8-8.8,8-13.6
				c6.9-14.9,6.9-31.9,6.9-47.9c0.4,3.3,0.6,6.5,0.7,9.3c0.5,15-0.5,33.5-5.4,47.9c-6,17.4-16.1,28.4-33.5,33.3c0,0,0,0,0,0
				c-16.1,4.4-24.6-16.3-26.2-27.8c-3-21-1.8-42.3,0.8-63.3C131,119.3,131.5,109.5,133.7,100.5z"/>
			<path class="st8" d="M140,206.6c2.2,0.5,7.2-7.5,11-11.7c0.9,3.1,5.9,11.9,9,13.3c3.3,1.4,7-0.6,9.8-2.3c4.7-2.9,9-6.5,12.5-10.6
				c2.6-3.1,5.1-6.5,6.4-10.4c0.2-0.4,0.5-0.8,0.7-1.1c-0.1,0.3-0.2,0.6-0.3,0.9c-6,17.4-16.1,28.4-33.5,33.3c0,0,0,0,0,0
				c-12.4,3.4-20.2-8-23.9-18.7C133.7,202.4,136.2,205.8,140,206.6z"/>
		</g>
		<path class="st5" d="M159.4,130.8C156.1,75,121.3,75,121.3,75s-34.8,0-38.1,55.8c0,0-3.6,87.3,38.1,90.5
			C163,218,159.4,130.8,159.4,130.8z"/>
		<path class="st6" d="M107.3,93.3c7.7,2.7,12.4,10.3,15.2,17.7c0.7-5,2.7-10.1,7.1-12.8c4.4-2.8,10-2.4,14.4,0.2
			c6,3.6,9.9,10.1,12.3,16.5c1.1,2.8,1.9,5.6,2.6,8.5C153,75,121.3,75,121.3,75s-19.1,0-30.4,22.8C95.5,93.8,101.2,91.1,107.3,93.3z
			"/>
		<g>
			<path class="st9" d="M41.3,108.4c0,0-0.4,0.9-1,2.4c-0.2,0.4-0.4,0.8-0.6,1.3c-0.2,0.5-0.4,1-0.6,1.5c-0.2,0.5-0.4,1.1-0.6,1.7
				c-0.2,0.6-0.4,1.3-0.6,1.9c-0.2,0.7-0.4,1.4-0.6,2.1c-0.2,0.7-0.4,1.5-0.6,2.3c-0.1,0.4-0.2,0.8-0.3,1.2
				c-0.1,0.4-0.2,0.8-0.2,1.2c-0.2,0.8-0.3,1.7-0.5,2.5c-0.2,1.7-0.5,3.5-0.7,5.4c-0.2,1.8-0.2,3.7-0.3,5.6c0,1.9-0.1,3.7,0,5.6
				c0,1.8,0.2,3.7,0.3,5.4c0.1,0.9,0.2,1.7,0.2,2.6c0.1,0.8,0.1,1.7,0.2,2.5c0.2,1.6,0.4,3.1,0.6,4.5c0.2,1.4,0.4,2.7,0.5,3.8
				c0.2,1.1,0.3,2.1,0.4,3c0.3,1.6,0.4,2.6,0.4,2.6c0,0-0.3-0.9-0.8-2.5c-0.2-0.8-0.5-1.8-0.8-2.9c-0.1-0.6-0.3-1.2-0.5-1.8
				c-0.2-0.6-0.3-1.3-0.4-2c-0.2-0.7-0.3-1.4-0.5-2.2c-0.1-0.8-0.3-1.5-0.4-2.3c-0.3-1.6-0.5-3.3-0.8-5.1c-0.2-1.8-0.4-3.6-0.5-5.5
				c-0.1-1.9-0.1-3.8-0.1-5.7c0.1-1.9,0.2-3.8,0.4-5.7c0.1-1.9,0.6-3.7,0.8-5.5c0.2-0.9,0.4-1.7,0.6-2.6c0.1-0.4,0.2-0.8,0.3-1.2
				c0.1-0.4,0.3-0.8,0.4-1.2c0.3-0.8,0.5-1.5,0.7-2.3c0.3-0.7,0.6-1.4,0.8-2.1c0.3-0.7,0.5-1.3,0.8-1.9c0.3-0.6,0.6-1.1,0.8-1.7
				c0.3-0.5,0.5-1,0.7-1.5c0.3-0.4,0.5-0.8,0.7-1.2C40.8,109.2,41.3,108.4,41.3,108.4z"/>
			<path class="st9" d="M71.5,118.9c0,0-0.2,1-0.6,2.8c-0.2,0.9-0.4,2-0.6,3.3c-0.1,0.6-0.2,1.3-0.3,2c-0.1,0.7-0.2,1.5-0.3,2.2
				c-0.2,1.5-0.4,3.2-0.6,5c-0.1,0.9-0.1,1.8-0.2,2.7c0,0.9-0.2,1.9-0.2,2.9c0,1-0.1,2-0.1,3c0,0.5,0,1,0,1.5c0,0.5,0,1,0,1.5
				c0,2,0.1,4.1,0.2,6.2c0.2,2.1,0.3,4.2,0.5,6.2c0.1,0.5,0.1,1,0.2,1.5c0,0.5,0.1,1,0.2,1.5c0.2,1,0.3,2,0.5,2.9
				c0.1,1,0.4,1.9,0.5,2.8c0.2,0.9,0.3,1.8,0.6,2.7c0.4,1.7,0.8,3.4,1.3,4.9c0.2,0.8,0.4,1.5,0.6,2.2c0.2,0.7,0.5,1.3,0.7,1.9
				c0.4,1.2,0.8,2.3,1.1,3.1c0.7,1.7,1.1,2.7,1.1,2.7s-0.5-0.9-1.4-2.5c-0.5-0.8-0.9-1.8-1.5-3c-0.3-0.6-0.6-1.2-0.9-1.9
				c-0.3-0.7-0.5-1.4-0.8-2.1c-0.3-0.7-0.6-1.5-0.8-2.3c-0.3-0.8-0.5-1.7-0.8-2.5c-0.3-0.9-0.5-1.8-0.7-2.7
				c-0.2-0.9-0.5-1.9-0.7-2.9c-0.4-2-0.8-4-1-6c-0.3-2.1-0.4-4.2-0.6-6.3c-0.1-2.1-0.2-4.2-0.1-6.3c0-2.1,0.2-4.1,0.3-6.1
				c0.1-1,0.2-2,0.3-2.9c0.1-0.9,0.2-1.9,0.4-2.8c0.3-1.8,0.5-3.5,0.9-5c0.2-0.8,0.3-1.5,0.5-2.2c0.2-0.7,0.4-1.4,0.5-2
				c0.3-1.2,0.6-2.3,0.9-3.2C71.1,119.8,71.5,118.9,71.5,118.9z"/>
			<path class="st9" d="M203.9,113.6c0,0,0.5,0.8,1.4,2.2c0.2,0.4,0.5,0.7,0.7,1.2c0.2,0.4,0.5,0.9,0.7,1.5c0.3,0.5,0.5,1.1,0.8,1.7
				c0.3,0.6,0.5,1.2,0.8,1.9c0.3,0.7,0.6,1.4,0.8,2.1c0.2,0.7,0.5,1.5,0.7,2.3c0.1,0.4,0.3,0.8,0.4,1.2c0.1,0.4,0.2,0.8,0.3,1.2
				c0.2,0.8,0.4,1.7,0.6,2.6c0.3,1.8,0.7,3.6,0.8,5.5c0.2,1.9,0.3,3.8,0.4,5.7c0,1.9,0,3.8-0.1,5.7c0,1.9-0.3,3.7-0.5,5.5
				c-0.2,1.8-0.4,3.5-0.8,5.1c-0.1,0.8-0.3,1.6-0.4,2.3c-0.1,0.8-0.3,1.5-0.5,2.2c-0.2,0.7-0.3,1.4-0.4,2c-0.2,0.6-0.3,1.2-0.5,1.8
				c-0.3,1.1-0.6,2.1-0.8,2.9c-0.5,1.6-0.8,2.5-0.8,2.5c0,0,0.1-0.9,0.4-2.6c0.1-0.8,0.3-1.8,0.4-3c0.2-1.1,0.4-2.4,0.5-3.8
				c0.2-1.4,0.4-2.9,0.6-4.5c0.1-0.8,0.2-1.6,0.2-2.5c0.1-0.8,0.2-1.7,0.2-2.6c0.1-1.8,0.2-3.6,0.3-5.4c0.1-1.8,0-3.7,0-5.6
				c-0.1-1.9-0.1-3.7-0.3-5.6c-0.1-1.8-0.4-3.6-0.7-5.4c-0.2-0.9-0.3-1.7-0.5-2.5c-0.1-0.4-0.2-0.8-0.2-1.2
				c-0.1-0.4-0.2-0.8-0.3-1.2c-0.2-0.8-0.4-1.5-0.6-2.3c-0.2-0.7-0.4-1.4-0.6-2.1c-0.2-0.7-0.4-1.3-0.6-1.9
				c-0.2-0.6-0.4-1.2-0.6-1.7c-0.2-0.5-0.4-1-0.6-1.5c-0.2-0.5-0.4-0.9-0.6-1.3C204.3,114.5,203.9,113.6,203.9,113.6z"/>
			<path class="st9" d="M173.7,124.1c0,0,0.3,1,0.9,2.7c0.3,0.9,0.6,1.9,0.9,3.2c0.2,0.6,0.3,1.3,0.5,2c0.2,0.7,0.3,1.4,0.5,2.2
				c0.4,1.5,0.6,3.2,0.9,5c0.2,0.9,0.2,1.8,0.4,2.8c0.1,0.9,0.2,1.9,0.3,2.9c0.1,2,0.3,4,0.3,6.1c0.1,2.1-0.1,4.2-0.1,6.3
				c-0.2,2.1-0.3,4.2-0.6,6.3c-0.2,2.1-0.6,4.1-1,6c-0.2,1-0.4,1.9-0.7,2.9c-0.2,0.9-0.4,1.8-0.7,2.7c-0.3,0.9-0.5,1.7-0.8,2.5
				c-0.2,0.8-0.6,1.6-0.8,2.3c-0.3,0.7-0.6,1.5-0.8,2.1c-0.3,0.7-0.6,1.3-0.9,1.9c-0.5,1.2-1,2.2-1.5,3c-0.9,1.6-1.4,2.5-1.4,2.5
				s0.4-1,1.1-2.7c0.4-0.8,0.7-1.9,1.1-3.1c0.2-0.6,0.4-1.2,0.7-1.9c0.2-0.7,0.4-1.4,0.6-2.2c0.5-1.5,0.8-3.1,1.3-4.9
				c0.2-0.9,0.4-1.8,0.6-2.7c0.2-0.9,0.4-1.9,0.5-2.8c0.1-1,0.3-1.9,0.5-2.9c0.1-0.5,0.1-1,0.2-1.5c0.1-0.5,0.1-1,0.2-1.5
				c0.3-2,0.4-4.1,0.5-6.2c0.1-2.1,0.2-4.2,0.2-6.2c0-0.5,0-1,0-1.5c0-0.5,0-1,0-1.5c0-1-0.1-2-0.1-3c0-1-0.1-1.9-0.2-2.9
				c-0.1-0.9-0.1-1.9-0.2-2.8c-0.2-1.8-0.3-3.5-0.6-5c-0.1-0.8-0.2-1.5-0.3-2.2c-0.1-0.7-0.2-1.4-0.3-2c-0.2-1.3-0.4-2.4-0.6-3.3
				C173.9,125.1,173.7,124.1,173.7,124.1z"/>
			<path class="st9" d="M106.9,112.3c0,0-0.2,1-0.6,2.8c-0.2,0.9-0.4,2-0.6,3.2c-0.2,1.2-0.4,2.6-0.6,4.2c0,0.4-0.1,0.8-0.1,1.2
				c0,0.4-0.1,0.8-0.1,1.2c-0.1,0.8-0.1,1.7-0.2,2.6c0,0.9-0.1,1.8-0.1,2.7c0,0.5,0,0.9-0.1,1.4c0,0.5,0,0.9,0,1.4c0,1,0,1.9,0,2.9
				c0,1,0.1,2,0.1,3c0,1,0.1,2,0.2,3c0.1,1,0.1,2,0.2,3.1c0.1,1,0.2,2,0.3,3.1c0.1,1,0.2,2,0.4,3c0.3,2,0.5,4,0.8,5.9
				c0.3,1.9,0.6,3.7,1,5.5c0.2,0.9,0.3,1.7,0.5,2.5c0.2,0.8,0.3,1.6,0.5,2.4c0.3,1.5,0.6,2.9,0.9,4.1c0.3,1.2,0.5,2.3,0.7,3.2
				c0.4,1.8,0.6,2.8,0.6,2.8s-0.4-1-1-2.7c-0.3-0.8-0.7-1.9-1.1-3.1c-0.4-1.2-0.9-2.5-1.3-4c-0.2-0.7-0.4-1.5-0.7-2.3
				c-0.2-0.8-0.4-1.7-0.6-2.5c-0.5-1.7-0.8-3.6-1.2-5.5c-0.2-1-0.4-1.9-0.5-2.9c-0.2-1-0.4-2-0.5-3c-0.1-1-0.3-2-0.4-3.1
				c-0.1-1-0.2-2.1-0.3-3.1c-0.1-1-0.2-2.1-0.2-3.1c-0.1-1-0.1-2.1-0.1-3.1c0-1,0-2,0-3c0-1,0.1-2,0.1-3c0-0.5,0-1,0-1.5
				c0-0.5,0.1-1,0.1-1.4c0.1-0.9,0.2-1.8,0.2-2.7c0.1-0.9,0.2-1.7,0.4-2.6c0.1-0.4,0.1-0.8,0.2-1.2c0.1-0.4,0.2-0.8,0.2-1.2
				c0.2-0.8,0.3-1.5,0.4-2.2c0.1-0.7,0.3-1.3,0.5-2c0.3-1.2,0.6-2.3,0.9-3.1C106.5,113.3,106.9,112.3,106.9,112.3z"/>
			<path class="st9" d="M135.1,112.3c0,0,0.3,1,0.9,2.7c0.3,0.9,0.6,1.9,1,3.1c0.1,0.3,0.2,0.6,0.3,0.9c0.1,0.3,0.2,0.7,0.2,1
				c0.2,0.7,0.3,1.4,0.5,2.2c0.2,0.8,0.3,1.5,0.5,2.3c0.2,0.8,0.4,1.7,0.5,2.5c0.2,1.7,0.5,3.6,0.7,5.5c0.1,0.5,0.1,1,0.2,1.4
				c0,0.5,0.1,1,0.1,1.5c0.1,1,0.1,2,0.1,3c0,1,0.1,2,0.1,3c0,1,0,2-0.1,3.1c0,1-0.1,2-0.1,3.1c-0.1,1,0,2-0.2,3
				c-0.2,2-0.5,4-0.7,5.9c-0.1,0.5-0.1,0.9-0.2,1.4c0,0.2-0.1,0.5-0.1,0.7c0,0.2-0.1,0.5-0.1,0.7c-0.2,0.9-0.4,1.8-0.5,2.7
				c-0.3,1.7-0.7,3.4-1,4.9c-0.3,1.5-0.8,2.8-1.1,4c-0.4,1.2-0.7,2.2-0.9,3.1c-0.5,1.7-0.8,2.7-0.8,2.7s0.2-1,0.5-2.8
				c0.2-0.9,0.3-1.9,0.6-3.2c0.1-0.6,0.2-1.3,0.4-1.9c0.1-0.7,0.3-1.4,0.4-2.2c0.2-1.5,0.4-3.1,0.6-4.9c0.1-0.9,0.2-1.7,0.4-2.6
				c0.1-0.9,0.2-1.8,0.3-2.8c0.2-1.9,0.3-3.8,0.5-5.8c0.1-2,0.1-4,0.2-6c0-1,0.1-2,0.1-3c0-1-0.1-2-0.1-3c0-1-0.1-2-0.1-3
				c0-0.5,0-1,0-1.5c0-0.5-0.1-1-0.1-1.4c-0.2-1.9-0.3-3.7-0.5-5.4c0-0.9-0.2-1.7-0.3-2.5c-0.1-0.8-0.2-1.6-0.3-2.3
				c-0.1-0.8-0.2-1.5-0.3-2.2c0-0.3-0.1-0.7-0.1-1c-0.1-0.3-0.1-0.6-0.2-0.9c-0.2-1.2-0.4-2.3-0.6-3.2
				C135.3,113.3,135.1,112.3,135.1,112.3z"/>
		</g>
		<path class="st7" d="M157,168.4c-1.9,7.2-4.8,14.9-9.9,20.5c-2.5,2.8-5.7,5.4-9.4,6.1c-3.7,0.8-7.4-0.1-10.4-2.3
			c-4.4-3.2-4.9-8.8-5.7-13.9c-0.2,3.7-0.9,7.5-2.2,10.9c-1.3,3.5-3.3,7.4-6.8,9.1c-3.9,1.8-8.1-0.8-10.8-3.6
			c-4.3-4.4-6.8-10.3-8.4-16.2c-2-7.8-2.7-15.8-3.9-23.7c-1.2-8-2.2-16.1-2.4-24.3c-0.4-13.9,1.2-28.5,8.2-40.6
			c-6,8.2-10.9,20.9-12.1,40.3c0,0-3.6,87.3,38.1,90.5c23.2-1.8,32.4-29.7,35.9-54.1C157.1,167.6,157.1,168,157,168.4z"/>
		<path class="st8" d="M145.5,201c-3.5,3.5-7.9,5.9-12.9,6.4c-2.2,0.2-4.4,0.1-6.3-1.2c-1.6-1.1-2.5-2.9-3.2-4.6
			c-2,2.7-4.2,6.1-7.3,7.6c-3.3,1.6-6.8,0.4-9.9-1.3c-5.2-2.9-10.1-7.3-13.5-12.6c5.6,13.9,14.6,24.9,28.8,26
			c14.4-1.1,23.4-12.3,29-26.4C148.9,197.1,147.4,199.1,145.5,201z"/>
	</g>
	<g>
		<g>
			<g>
				<path class="st10" d="M83.1,101.2c0,0,1.4,26.4,24.6,33c0,0-7.3,4.3-7,17.4c0,0-44.5-8.8-43.8-26.8
					C57,124.8,56.8,103.1,83.1,101.2z"/>
				<path class="st11" d="M65.8,122.8c0,0-0.1-15.6,15.9-21.5C56.8,103.9,57,124.8,57,124.8c-0.7,18,43.8,26.8,43.8,26.8
					c0-1.5,0-2.8,0.2-4.1C88,143.9,65.3,135.7,65.8,122.8z"/>
			</g>
			<g>
				<path class="st10" d="M159,101.2c0,0-1.4,26.4-24.6,33c0,0,7.3,4.3,7,17.4c0,0,44.5-8.8,43.8-26.8
					C185.1,124.8,185.3,103.1,159,101.2z"/>
				<path class="st11" d="M176.2,122.8c0,0,0.1-15.6-15.9-21.5c24.9,2.5,24.7,23.5,24.7,23.5c0.7,18-43.8,26.8-43.8,26.8
					c0-1.5,0-2.8-0.2-4.1C154.1,143.9,176.7,135.7,176.2,122.8z"/>
			</g>
		</g>
		<path class="st10" d="M125,143.7l-4,3l-3.5-3l-5.7,18.4l6.4-5.3c1.8-1.5,2.8-1.3,2.8-1.3s1.1-0.2,2.8,1.3l6.4,5.3L125,143.7z"/>
		<g>
			<path class="st10" d="M93.9,186.3l2.6,9.6c5.3,2.5,11.7,4.4,19.3,5.2l4.6-10l5.5,10.2c3.2-0.3,8.2-1.1,13.8-3.1l1.9-8.6l5.7,5.2
				c3.5-1.9,7-4.4,10.2-7.6l-0.2-9.2l5.9,2c3.3-5.2,5.7-11.7,6.7-19.7c-6.2,2.5-12.3,4.5-18.3,6l-3.7,11.7l-8-9.4
				c-3.8,0.6-7.6,1-11.3,1.3l-5.9,10.6l-5.6-10.1c-2.3,0-4.6-0.1-6.7-0.2l-5.3,11.5l-5.7-12.4c-2.5-0.3-4.8-0.6-7-1l-6.5,7.9l-3-9.7
				c-7.9-1.8-12.5-3.5-12.5-3.5s3,16.9,18.7,28.3L93.9,186.3z"/>
			<path class="st11" d="M147.8,178.1l3.7-11.7c6-1.5,12.2-3.4,18.3-6c-0.2,1.6-0.5,3.2-0.8,4.7c0,0-5.7,2.6-14.8,5.3l-4.1,10
				L147.8,178.1z"/>
			<path class="st11" d="M122.6,180.6l5.9-10.6c3.7-0.3,7.4-0.7,11.3-1.3l2,2.3l-11.5,1.3l-6,10.6L122.6,180.6z"/>
			<path class="st11" d="M110.2,170.3c2.2,0.1,4.4,0.2,6.7,0.2l1.4,2.6l-6.5-0.1l-5.9,12.6l-1-4L110.2,170.3z"/>
			<path class="st11" d="M86.3,179.8l7.2-8.5l7.3,1.5l-1.6-3.4c-2.5-0.3-4.8-0.6-7-1l-6.5,7.9L86.3,179.8z"/>
			<path class="st11" d="M91.8,188.4l-2.9,3c-15.8-11.4-18.7-28.3-18.7-28.3s1.3,0.5,3.7,1.2C73.8,164.3,81,182.1,91.8,188.4z"/>
			<path class="st11" d="M99.7,195.5l-2.1-8.9l-3.8-0.3l2.6,9.6c5.3,2.5,11.7,4.4,19.3,5.2l0.7-1.6
				C116.5,199.5,107.6,198.4,99.7,195.5z"/>
			<path class="st11" d="M140.3,195.5l-0.6,2.7c-5.6,2-10.6,2.8-13.8,3.1l-5.5-10.2l3.5-1.1l4.4,9.1
				C128.3,199.1,136.7,197.8,140.3,195.5z"/>
			<path class="st11" d="M149.7,193.5c-1.2,0.8-1.2,0.7-2.4,1.4l-5.7-5.2l3.5-0.8L149.7,193.5z"/>
			<path class="st11" d="M157.3,178.1l5.9,2c0,0,0.8-1.1,1.5-2.6l-4.6-1.4L157.3,178.1z"/>
		</g>
	</g>
	<g>
		<circle class="st12" cx="152.6" cy="131.6" r="3.5"/>
		<circle class="st12" cx="89.5" cy="131.6" r="3.5"/>
	</g>
</g>
</svg>
