<!-- Generated by IcoMoon.io -->
<svg version="1.1" xmlns="http://www.w3.org/2000/svg" width="40" height="40" viewBox="0 0 40 40">
<title>Thunderkick</title>
<path fill="#000" opacity="0.6" d="M40 20c0 11.046-8.954 20-20 20s-20-8.954-20-20c0-11.046 8.954-20 20-20s20 8.954 20 20z"></path>
<path fill="#09f" d="M35.086 23.697h2.247l-2.9 8.819-15.065 4.817-12.117-5.8-4.585-13.067h4.446l1.667-9.133 8.687-4.903v6.106l8.557-7.87 2.827 11.194 3.549-5.26 4.168 7.467-1.483 7.631z"></path>
<path fill="#eee" d="M29.201 16.198l-18.402 0.271 0.279 5.902 6.064-0.271 0.488 9.701h5.088l0.488-9.905 5.785-0.068 0.209-5.631z"></path>
</svg>
