<?xml version="1.0" encoding="utf-8"?>
<!-- Generator: Adobe Illustrator 21.0.0, SVG Export Plug-In . SVG Version: 6.00 Build 0)  -->
<svg version="1.1" id="GiftBox_1_" xmlns="http://www.w3.org/2000/svg" xmlns:xlink="http://www.w3.org/1999/xlink" x="0px" y="0px"
	 width="42px" height="40px" viewBox="0 0 42 40" style="enable-background:new 0 0 42 40;" xml:space="preserve">
<style type="text/css">
	.st0{fill:#CC0066;}
	.st1{fill:#FFFFFF;}
	.st2{fill:#B5B3CC;}
</style>
<g id="BigGiftBox">
	<path id="_x34_" class="st0" d="M34,4l-3-3c-0.4-0.4-1.2-1-2-1c-0.8,0-1.6,0.6-2,1l-6,6l-6-6c-0.4-0.4-1.2-1-2-1
		c-0.8,0-1.6,0.6-2,1L8,4C7.2,4.8,7.2,7.2,8,8l9,9h8l9-9C34.8,7.2,34.8,4.8,34,4z"/>
	<polygon id="_x33_" class="st1" points="42,8 0,8 0,16 2,16 2,40 40,40 40,16 42,16 	"/>
	<rect id="_x32_" x="2" y="16" class="st2" width="38" height="2"/>
	<rect id="_x31_" x="17" y="7" class="st0" width="8" height="33"/>
</g>
</svg>
