<?xml version="1.0" encoding="utf-8"?>
<!-- Generator: Adobe Illustrator 21.0.0, SVG Export Plug-In . SVG Version: 6.00 Build 0)  -->
<svg version="1.1" id="ico_x5F_search" xmlns="http://www.w3.org/2000/svg" xmlns:xlink="http://www.w3.org/1999/xlink" x="0px"
	 y="0px" width="24px" height="24px" viewBox="0 0 24 24" style="enable-background:new 0 0 24 24;" xml:space="preserve">
<style type="text/css">
	.st0{fill:#0099FF;}
</style>
<path id="ico_x5F_search_x5F_active" class="st0" d="M24,20.3c0,0.5-0.2,0.9-0.5,1.2l-1.9,1.9c-0.3,0.3-0.7,0.5-1.1,0.5
	c-0.5,0-0.9-0.2-1.2-0.6L14.6,18c-0.1-0.2-0.2-0.3-0.2-0.5c0-0.2,0.1-0.4,0.3-0.5c0.9-0.6,1.6-1.4,2.3-2.3c0.1-0.2,0.3-0.3,0.6-0.3
	c0.2,0,0.3,0.1,0.4,0.2l5.4,4.6C23.8,19.5,24,19.9,24,20.3z M0,8.8C0,3.9,3.9,0,8.8,0c4.9,0,8.8,3.9,8.8,8.8c0,2.4-0.9,4.6-2.6,6.2
	c-1.7,1.7-3.9,2.6-6.2,2.6C3.9,17.6,0,13.7,0,8.8z M8.8,15.2c1.7,0,3.3-0.7,4.5-1.9c1.2-1.2,1.9-2.8,1.9-4.5c0-3.5-2.9-6.4-6.4-6.4
	c-3.5,0-6.4,2.9-6.4,6.4C2.4,12.3,5.3,15.2,8.8,15.2z"/>
</svg>
