<?xml version="1.0" encoding="utf-8"?>
<!-- Generator: Adobe Illustrator 21.0.0, SVG Export Plug-In . SVG Version: 6.00 Build 0)  -->
<svg version="1.1" id="coins" xmlns="http://www.w3.org/2000/svg" xmlns:xlink="http://www.w3.org/1999/xlink" x="0px" y="0px"
	 width="14px" height="12px" viewBox="0 0 14 12" style="enable-background:new 0 0 14 12;" xml:space="preserve">
<style type="text/css">
	.st0{fill:#FFCC00;}
</style>
<path id="ico_x5F_coins" class="st0" d="M0,5.2V4.8C0,3.8,1.8,3,4.1,3c0.4,0,0.8,0,1.1,0.1v3.8C4.8,6.9,4.5,7,4.1,7
	C1.8,7,0,6.2,0,5.2z M4.1,8.9c0.4,0,0.8,0,1.1-0.1v-1c-0.4,0-0.7,0.1-1.1,0.1c-2,0-3.6-0.6-4-1.4C0,6.5,0,6.7,0,6.8v0.4
	C0,8.1,1.8,8.9,4.1,8.9z M5.2,9.8L5.2,9.8c-0.4,0-0.7,0-1.1,0c-2,0-3.6-0.6-4-1.4C0,8.5,0,8.6,0,8.8v0.4c0,1,1.8,1.8,4.1,1.8
	c0.4,0,0.9,0,1.3-0.1c-0.1-0.2-0.2-0.4-0.2-0.6V9.8z M9.8,0c-2.2,0-4,0.8-4,1.8v0.4c0,1,1.8,1.8,4.1,1.8C12.1,4,14,3.2,14,2.2V1.8
	C13.9,0.8,12.1,0,9.8,0z M9.8,4.8c-2,0-3.6-0.6-4-1.4c0,0.1,0,0.2,0,0.4v0.4c0,1,1.8,1.8,4.1,1.8C12.1,6,14,5.2,14,4.2V3.8
	c0-0.1,0-0.2-0.1-0.4C13.4,4.2,11.8,4.8,9.8,4.8z M9.8,6.8c-2,0-3.6-0.6-4-1.4c0,0.1,0,0.2,0,0.4v0.4c0,1,1.8,1.8,4.1,1.8
	C12.1,8,14,7.2,14,6.2V5.8c0-0.1,0-0.2-0.1-0.4C13.4,6.2,11.8,6.8,9.8,6.8z M9.8,8.9c-2,0-3.6-0.6-4-1.4c0,0.1,0,0.2,0,0.3v0.4
	c0,1,1.8,1.8,4.1,1.8c2.2,0,4.1-0.8,4.1-1.8V7.8c0-0.1,0-0.2-0.1-0.4C13.4,8.3,11.8,8.9,9.8,8.9z M9.8,10.9c-2,0-3.6-0.6-4-1.4
	c0,0.1,0,0.2,0,0.3v0.4c0,1,1.8,1.8,4.1,1.8c2.2,0,4.1-0.8,4.1-1.8V9.8c0-0.1,0-0.2-0.1-0.4C13.4,10.3,11.8,10.9,9.8,10.9z"/>
</svg>
