<?xml version="1.0" encoding="utf-8"?>
<!-- Generator: Adobe Illustrator 21.0.0, SVG Export Plug-In . SVG Version: 6.00 Build 0)  -->
<svg version="1.1" id="ico_x5F_info" xmlns="http://www.w3.org/2000/svg" xmlns:xlink="http://www.w3.org/1999/xlink" x="0px"
	 y="0px" width="24px" height="24px" viewBox="0 0 24 24" style="enable-background:new 0 0 24 24;" xml:space="preserve">
<style type="text/css">
	.st0{fill-rule:evenodd;clip-rule:evenodd;fill:#0099FF;}
</style>
<path id="ico_x5F_info_1_" class="st0" d="M12,0C5.4,0,0,5.4,0,12s5.4,12,12,12c6.6,0,12-5.4,12-12S18.6,0,12,0z M14,18.5
	c-0.4,0.4-1,0.6-1.7,0.6c-0.7,0-1.3-0.2-1.7-0.6c-0.4-0.4-0.7-0.9-0.7-1.5c0-0.6,0.2-1.1,0.7-1.5c0.4-0.4,1-0.6,1.7-0.6
	c0.7,0,1.3,0.2,1.7,0.6c0.4,0.4,0.7,0.9,0.7,1.5C14.7,17.6,14.5,18.1,14,18.5z M16.8,10.9c-0.2,0.4-0.4,0.7-0.6,1
	c-0.2,0.3-0.5,0.5-0.9,0.9c-0.4,0.3-0.7,0.6-0.8,0.8c-0.2,0.2-0.3,0.4-0.3,0.7h-3.7c0-0.6,0.1-1,0.4-1.4c0.3-0.4,0.6-0.8,1.1-1.2
	c0.3-0.3,0.5-0.5,0.7-0.7c0.1-0.2,0.2-0.4,0.2-0.6c0-0.3-0.1-0.5-0.3-0.6c-0.2-0.1-0.5-0.2-0.9-0.2c-0.4,0-0.7,0.1-1.1,0.3
	c-0.3,0.2-0.6,0.5-0.8,0.9L6.5,9C7,8.1,7.7,7.4,8.6,6.9c0.9-0.5,2.1-0.8,3.5-0.8c1.5,0,2.7,0.3,3.6,0.9c0.9,0.6,1.4,1.4,1.4,2.5
	C17.1,10,17,10.5,16.8,10.9z"/>
</svg>
