<?xml version="1.0" encoding="utf-8"?>
<!-- Generator: Adobe Illustrator 21.0.0, SVG Export Plug-In . SVG Version: 6.00 Build 0)  -->
<svg version="1.1" id="Слой_1" xmlns="http://www.w3.org/2000/svg" xmlns:xlink="http://www.w3.org/1999/xlink" x="0px" y="0px"
	 width="30px" height="30px" viewBox="0 0 30 30" style="enable-background:new 0 0 30 30;" xml:space="preserve">
<style type="text/css">
	.st0{fill:#CC0066;}
	.st1{fill:#FFFFFF;}
	.st2{fill:#B5B3CC;}
</style>
<g id="icoBonus">
	<path id="_x34_" class="st0" d="M21.7,7.3l-1.9-2c-0.4-0.4-1.1-0.4-1.5,0L15,8.9l-3.3-3.6c-0.4-0.4-1.1-0.4-1.5,0l-1.9,2
		c-0.4,0.4-0.4,1.2,0,1.6l4.8,5.1h3.8l4.8-5.1C22.1,8.5,22.1,7.8,21.7,7.3z"/>
	<polygon id="_x33_" class="st1" points="25,9 5,9 5,13 6,13 6,25 24,25 24,13 25,13 	"/>
	<rect id="_x32_" x="6" y="13" class="st2" width="18" height="1"/>
	<rect id="_x31_" x="13" y="9" class="st0" width="4" height="16"/>
</g>
</svg>
