<?xml version="1.0" encoding="utf-8"?>
<!-- Generator: Adobe Illustrator 21.0.0, SVG Export Plug-In . SVG Version: 6.00 Build 0)  -->
<svg version="1.1" id="Cards" xmlns="http://www.w3.org/2000/svg" xmlns:xlink="http://www.w3.org/1999/xlink" x="0px" y="0px"
	 width="50px" height="50px" viewBox="0 0 50 50" style="enable-background:new 0 0 50 50;" xml:space="preserve">
<style type="text/css">
	.st0{fill:#4B4A75;}
	.st1{fill:#EEEEEE;}
	.st2{fill:#CC0066;}
</style>
<g id="icoCatalog_x5F_Cards">
	<path class="st0" d="M21,49h24c2.2,0,4-1.8,4-4V8c0-2.2-1.8-4-4-4H21c-2.2,0-4,1.8-4,4v37C17,47.2,18.8,49,21,49z"/>
	<path class="st1" d="M9.6,46.9L1.1,10.5c-0.5-2.2,0.8-4.3,3-4.9l23.5-5.5c2.2-0.5,4.3,0.8,4.8,3l8.4,36.4c0.5,2.2-0.8,4.3-3,4.9
		l-23.5,5.5C12.2,50.4,10.1,49,9.6,46.9z"/>
	<path class="st2" d="M11.4,13.9L8.2,8.5C8.1,8.2,7.7,8.1,7.3,8.2C7,8.3,6.7,8.5,6.6,8.8l-0.4,6.3c0,0,0,0.1,0,0.1
		c0.1,0.3,0.6,0.4,0.9,0.3c0.2,0,0.3-0.2,0.4-0.3l0.1-1.3l2.1-0.5l0.6,1.2c0.1,0.2,0.3,0.2,0.5,0.1C11.1,14.6,11.5,14.3,11.4,13.9
		C11.4,14,11.4,13.9,11.4,13.9z M7.6,12.9l0.1-3.1l1.5,2.7L7.6,12.9z"/>
	<path class="st2" d="M23.3,36.1c4.5-5.2,6.4-9.5,7-12.5c0.7-3.6-1.5-7.2-5.1-7.8c-4.2-0.6-5.9,3.6-5.9,3.6s-3.4-3-6.9-0.5
		c-3,2.1-3.3,6.4-1,9.2C13.3,30.5,16.9,33.4,23.3,36.1z"/>
</g>
</svg>
