<?xml version="1.0" encoding="utf-8"?>
<!-- Generator: Adobe Illustrator 21.0.0, SVG Export Plug-In . SVG Version: 6.00 Build 0)  -->
<svg version="1.1" id="Слой_1" xmlns="http://www.w3.org/2000/svg" xmlns:xlink="http://www.w3.org/1999/xlink" x="0px" y="0px"
	 width="30px" height="30px" viewBox="0 0 30 30" style="enable-background:new 0 0 30 30;" xml:space="preserve">
<style type="text/css">
	.st0{fill:#339933;}
	.st1{fill:#66CC33;}
	.st2{fill:#FF9900;}
	.st3{fill:#FFCC00;}
</style>
<g id="icoCashier">
	<path id="b" class="st0" d="M25.9,18H4.1C3.5,18,3,17.5,3,16.9V5.1C3,4.5,3.5,4,4.1,4h21.8C26.5,4,27,4.5,27,5.1v11.8
		C27,17.5,26.5,18,25.9,18z"/>
	<path id="s" class="st1" d="M18,12.3c0,1.1-1,2-2.2,2c0,0.4-0.3,0.7-0.8,0.7c-0.4,0-0.8-0.3-0.8-0.7h-0.7c-0.4,0-0.8-0.3-0.8-0.7
		c0.1-0.3,0.3-0.6,0.8-0.6h2.2c0.4,0,0.8-0.3,0.8-0.7c0-0.4-0.3-0.7-0.8-0.7h-1.5C13,11.7,12,10.8,12,9.7s1-2,2.2-2
		C14.2,7.3,14.5,7,15,7c0.4,0,0.8,0.3,0.8,0.7h0.7c0.4,0,0.8,0.3,0.8,0.7C17.2,8.7,17,9,16.5,9h-2.2c-0.4,0-0.8,0.3-0.8,0.7
		c0,0.4,0.3,0.7,0.8,0.7h1.5C17,10.3,18,11.2,18,12.3z M26,7.2v7.6c-1.2,0-2.2,1-2.2,2.2H6.2c0-1.2-1-2.2-2.2-2.2V7.2
		c1.2,0,2.2-1,2.2-2.2h17.6C23.8,6.2,24.8,7.2,26,7.2z M8,11c0-0.6-0.4-1-1-1s-1,0.4-1,1s0.4,1,1,1S8,11.6,8,11z M20,11
		c0-2.8-2.2-5-5-5s-5,2.2-5,5s2.2,5,5,5S20,13.8,20,11z M24,11c0-0.6-0.4-1-1-1s-1,0.4-1,1s0.4,1,1,1S24,11.6,24,11z"/>
	<circle id="s3" class="st2" cx="23" cy="17" r="4"/>
	<path id="c3" class="st3" d="M22.5,14c-1.9,0-3.5,1.6-3.5,3.5s1.6,3.5,3.5,3.5s3.5-1.6,3.5-3.5S24.4,14,22.5,14z M23,19h-1v-3h1V19
		z"/>
	<circle id="s2" class="st2" cx="17" cy="18" r="4"/>
	<path id="c2" class="st3" d="M16.5,15c-1.9,0-3.5,1.6-3.5,3.5s1.6,3.5,3.5,3.5s3.5-1.6,3.5-3.5S18.4,15,16.5,15z M17,20h-1v-3h1V20
		z"/>
	<circle id="s1" class="st2" cx="22" cy="22" r="4"/>
	<path id="c1" class="st3" d="M21.5,19c-1.9,0-3.5,1.6-3.5,3.5s1.6,3.5,3.5,3.5s3.5-1.6,3.5-3.5S23.4,19,21.5,19z M22,24h-1v-3h1V24
		z"/>
</g>
</svg>
