<?xml version="1.0" encoding="utf-8"?>
<!-- Generator: Adobe Illustrator 21.0.0, SVG Export Plug-In . SVG Version: 6.00 Build 0)  -->
<svg version="1.1" id="Jackpot" xmlns="http://www.w3.org/2000/svg" xmlns:xlink="http://www.w3.org/1999/xlink" x="0px" y="0px"
	 width="50px" height="50px" viewBox="0 0 50 50" style="enable-background:new 0 0 50 50;" xml:space="preserve">
<style type="text/css">
	.st0{fill:#FF9900;}
	.st1{fill:#FFCC00;}
	.st2{fill:#13121F;}
	.st3{fill:#4B4A75;}
	.st4{fill:#EEEEEE;}
	.st5{fill:#CCCCCC;}
	.st6{fill:#CC0066;}
	.st7{fill:#66CC33;}
</style>
<g id="icoCatalog_x5F_Jackpot">
	<g id="Coin">
		<path class="st0" d="M48,27v2c0,0.6-0.4,1-1,1H36v-3H48z M36,31v3h13c0.6,0,1-0.4,1-1v-2H36z M36,35v3h11c0.6,0,1-0.4,1-1v-2H36z
			 M36,39v3h13c0.6,0,1-0.4,1-1v-2H36z M36,43v3h11c0.6,0,1-0.4,1-1v-2H36z M36,47v3h13c0.6,0,1-0.4,1-1v-2H36z"/>
		<path class="st1" d="M48,27v1h-2v-1h-3v1h-7v-2h11C47.6,26,48,26.4,48,27z M49,30H36v2h9v-1h3v1h2v-1C50,30.4,49.6,30,49,30z
			 M47,34H36v2h7v-1h3v1h2v-1C48,34.4,47.6,34,47,34z M49,38H36v2h9v-1h3v1h2v-1C50,38.4,49.6,38,49,38z M47,42H36v2h7v-1h3v1h2v-1
			C48,42.4,47.6,42,47,42z M49,46H36v2h3v-1h3v1h3v-1h3v1h2v-1C50,46.4,49.6,46,49,46z"/>
	</g>
	<g id="Bag">
		<path class="st2" d="M35,0l-6,6l-6-2c0,0,5-4,8-4S35,0,35,0z"/>
		<path class="st3" d="M35,50H15c0,0-8,0-8-15s13-22,13-22V9l-4-7c0,0,2-2,5-2s4,4,7,4s7-4,7-4l-5,9v4c0,0,11,7,11,22S35,50,35,50z"
			/>
		<path class="st2" d="M30,13h-0.9c3.8,3.4,8.9,9.6,8.9,19c0,15-8,15-8,15H10l0,0c2.3,3,5,3,5,3h20c0,0,8,0,8-15S30,13,30,13z"/>
		<path class="st0" d="M29,13h-8c-0.5,0-1-0.4-1-1v0c0-0.5,0.4-1,1-1h8c0.5,0,1,0.4,1,1v0C30,12.6,29.6,13,29,13z"/>
		<path class="st1" d="M29,11h-8c-0.5,0-1-0.4-1-1v0c0-0.5,0.4-1,1-1h8c0.5,0,1,0.4,1,1v0C30,10.6,29.6,11,29,11z"/>
		<circle class="st4" cx="25" cy="32" r="8"/>
		<path class="st5" d="M30.9,26.6C30.9,27,31,27.5,31,28c0,4.4-3.6,8-8,8c-2.3,0-4.4-1-5.9-2.6c0.7,3.7,3.9,6.6,7.9,6.6
			c4.4,0,8-3.6,8-8C33,29.9,32.2,28,30.9,26.6z"/>
		<path class="st3" d="M25,31.2c-0.7,0-1.4-0.6-1.4-1.3c0-0.7,0.6-1.3,1.4-1.3s1.4,0.6,1.4,1.3c0,0.4,0.4,0.8,0.8,0.8S28,30.4,28,30
			c0-1.2-0.9-2.3-2.2-2.7v-0.6c0-0.4-0.4-0.7-0.8-0.7s-0.8,0.3-0.8,0.7v0.6C22.9,27.6,22,28.7,22,30c0,1.5,1.4,2.8,3,2.8
			c0.7,0,1.4,0.6,1.4,1.3c0,0.7-0.6,1.3-1.4,1.3l0,0c-0.7,0-1.4-0.6-1.4-1.3c0-0.4-0.4-0.8-0.8-0.8S22,33.6,22,34
			c0,1.3,0.9,2.3,2.2,2.7v0.6c0,0.4,0.4,0.8,0.8,0.8c0.5,0,0.8-0.3,0.8-0.8v-0.6c1.6-0.4,2.5-2,2-3.4C27.5,32.1,26.3,31.2,25,31.2z"
			/>
		<path class="st2" d="M29.9,17.6c0.2,0.5,0,1.1-0.4,1.3C29.3,19,29.2,19,29,19c-0.4,0-0.7-0.2-0.9-0.6L25.4,13h2.2L29.9,17.6z
			 M22.4,13l-2.3,4.6c-0.2,0.5,0,1.1,0.4,1.3C20.7,19,20.8,19,21,19c0.4,0,0.7-0.2,0.9-0.6l2.7-5.4H22.4z"/>
	</g>
	<g id="Chips">
		<path class="st6" d="M14,31v2c0,0.6-0.4,1-1,1H1c-0.6,0-1-0.4-1-1v-2H14z M0,47v2c0,0.6,0.4,1,1,1h12c0.6,0,1-0.4,1-1v-2H0z M0,39
			v2c0,0.6,0.4,1,1,1h12c0.6,0,1-0.4,1-1v-2H0z"/>
		<path class="st7" d="M16,35v2c0,0.6-0.4,1-1,1H3c-0.6,0-1-0.4-1-1v-2H16z M2,43v2c0,0.6,0.4,1,1,1h12c0.6,0,1-0.4,1-1v-2H2z"/>
		<path class="st4" d="M14,31v1h-3v-1H8v1H5v-1H2v1H0v-1c0-0.6,0.4-1,1-1h12C13.6,30,14,30.4,14,31z M13,46H1c-0.6,0-1,0.4-1,1v1h2
			v-1h3v1h3v-1h3v1h3v-1C14,46.4,13.6,46,13,46z M15,34H3c-0.6,0-1,0.4-1,1v1h2v-1h3v1h3v-1h3v1h3v-1C16,34.4,15.6,34,15,34z M13,38
			H1c-0.6,0-1,0.4-1,1v1h2v-1h3v1h3v-1h3v1h3v-1C14,38.4,13.6,38,13,38z M15,42H3c-0.6,0-1,0.4-1,1v1h2v-1h3v1h3v-1h3v1h3v-1
			C16,42.4,15.6,42,15,42z"/>
	</g>
</g>
</svg>
