<?xml version="1.0" encoding="utf-8"?>
<!-- Generator: Adobe Illustrator 21.0.0, SVG Export Plug-In . SVG Version: 6.00 Build 0)  -->
<svg version="1.1" id="New" xmlns="http://www.w3.org/2000/svg" xmlns:xlink="http://www.w3.org/1999/xlink" x="0px" y="0px"
	 width="50px" height="50px" viewBox="0 0 50 50" style="enable-background:new 0 0 50 50;" xml:space="preserve">
<style type="text/css">
	.st0{fill:#66CC33;}
	.st1{fill:#339933;}
</style>
<g id="icoCatalog_x5F_New">
	<path class="st0" d="M26.2,50c-0.3,0-0.6-0.1-0.7-0.4c-3.1-5.4-4-12.8-2.9-21.9c0.6-4.6,1.6-8.3,1.6-8.4c0.1-0.4,0.6-0.7,1-0.6
		c0.4,0.1,0.7,0.6,0.6,1c0,0-1,3.8-1.6,8.2c-1.1,8.8-0.2,15.8,2.7,21c0.2,0.4,0.1,0.9-0.3,1.1C26.5,50,26.3,50,26.2,50z"/>
	<path class="st0" d="M44.7,12.3c-0.5-1.6-1.6-2.7-2.9-3.4C41.3,8.7,41,8.2,41,7.7c-0.2-1.4-0.9-2.8-2.3-3.8
		c-1.2-0.9-2.6-1.3-4.1-1.1c-5.4,0.7-8,8.8-9,13.5c0.7-4.7,1.1-13.2-3.7-15.7c-1.3-0.7-2.8-0.8-4.2-0.3c-1.6,0.5-2.8,1.6-3.5,2.8
		c-0.2,0.5-0.7,0.8-1.2,0.8C11.5,4.1,10,4.8,9,6.1c-0.9,1.1-1.3,2.6-1.1,4c0.7,5.3,9.1,7.8,13.9,8.8c-4.8-0.7-13.6-1.1-16.1,3.6
		c-0.7,1.3-0.8,2.8-0.3,4.1c0.5,1.6,1.6,2.7,2.9,3.4C8.7,30.2,9,30.7,9,31.2c0.2,1.4,0.9,2.8,2.3,3.8c1.2,0.9,2.6,1.3,4.1,1.1
		c5.4-0.7,8-8.8,9-13.5c-0.7,4.7-1.1,13.2,3.7,15.7c1.3,0.7,2.8,0.8,4.2,0.3c1.6-0.5,2.8-1.6,3.5-2.8c0.2-0.5,0.7-0.8,1.2-0.8
		c1.4-0.2,2.9-0.9,3.9-2.2c0.9-1.1,1.3-2.6,1.1-4c-0.7-5.3-9.1-7.8-13.9-8.8c4.8,0.7,13.6,1.1,16.1-3.6
		C45.1,15.1,45.2,13.6,44.7,12.3z"/>
	<path class="st1" d="M5.6,22.5c-0.7,1.3-0.8,2.8-0.3,4.1c0.5,1.6,1.6,2.7,2.9,3.4c0.2,0.1,0.5,0.3,0.6,0.5L25,19.4
		C25,19.4,9.2,15.9,5.6,22.5z"/>
	<path class="st1" d="M44.4,16.4c0.7-1.3,0.8-2.8,0.3-4.1c-0.5-1.6-1.6-2.7-2.9-3.4c-0.2-0.1-0.4-0.3-0.6-0.5L25,19.4l0,0
		C25,19.4,40.8,23,44.4,16.4z"/>
	<path class="st1" d="M25,19.4C28,3,21.8,0.6,21.8,0.6S21,0,19,0s-4.2,1.8-4.9,3.1c-0.1,0.2-0.3,0.4-0.5,0.6C13.6,3.7,24,19,25,19.4
		z"/>
	<path class="st1" d="M25,19.4L25,19.4c0,0-3.7,15.4,3.2,18.9c1.3,0.7,2.8,0.8,4.2,0.3c1.6-0.5,2.8-1.6,3.5-2.8
		c0.1-0.2,0.3-0.4,0.5-0.6L25,19.4z"/>
</g>
</svg>
