<?xml version="1.0" encoding="utf-8"?>
<!-- Generator: Adobe Illustrator 21.0.0, SVG Export Plug-In . SVG Version: 6.00 Build 0)  -->
<svg version="1.1" id="Favorit" xmlns="http://www.w3.org/2000/svg" xmlns:xlink="http://www.w3.org/1999/xlink" x="0px" y="0px"
	 width="40px" height="40px" viewBox="0 0 40 40" style="enable-background:new 0 0 40 40;" xml:space="preserve">
<style type="text/css">
	.st0{fill:#FFCC00;}
	.st1{fill:#181727;}
</style>
<g id="icoFavorit_x5F_active">
	<g>
		<circle class="st0" cx="20" cy="20" r="20"/>
	</g>
	<path class="st1" d="M31.4,15.6L24,14.4l-3.3-7.1c-0.2-0.5-1.1-0.5-1.4,0L16,14.4l-7.4,1.1c-0.6,0.1-0.8,0.8-0.4,1.3l5.4,5.5
		l-1.3,7.8c-0.1,0.6,0.6,1.1,1.1,0.8l6.6-3.6l6.6,3.6c0.5,0.3,1.2-0.2,1.1-0.8l-1.3-7.8l5.4-5.5C32.2,16.4,32,15.7,31.4,15.6
		L31.4,15.6z"/>
</g>
</svg>
