<?xml version="1.0" encoding="utf-8"?>
<!-- Generator: Adobe Illustrator 21.0.0, SVG Export Plug-In . SVG Version: 6.00 Build 0)  -->
<svg version="1.1" id="Слой_1" xmlns="http://www.w3.org/2000/svg" xmlns:xlink="http://www.w3.org/1999/xlink" x="0px" y="0px"
	 width="30px" height="30px" viewBox="0 0 30 30" style="enable-background:new 0 0 30 30;" xml:space="preserve">
<style type="text/css">
	.st0{fill:#FFCC00;}
	.st1{fill:#FF6600;}
	.st2{fill:#FFFF00;}
	.st3{fill:#FF9900;}
</style>
<g id="icoFavorit">
	<circle class="st0" cx="15" cy="15" r="12"/>
	<path class="st1" d="M21.8,11.9l-4.4-0.7l-2-4c-0.1-0.3-0.7-0.3-0.8,0l-2,4l-4.4,0.6c-0.4,0.1-0.5,0.5-0.2,0.7l3.2,3.1l-0.8,4.4
		c-0.1,0.3,0.4,0.6,0.7,0.5l4-2l4,2c0.3,0.2,0.7-0.1,0.7-0.5l-0.8-4.4l3.2-3.1C22.3,12.4,22.2,12,21.8,11.9L21.8,11.9z"/>
	<path class="st2" d="M21.8,14.1l-4.4-0.7l-2-4.1c-0.1-0.3-0.7-0.3-0.8,0l-2,4.1l-4.4,0.6c-0.4,0.1-0.5,0.5-0.2,0.7l3.2,3.2
		l-0.8,4.5c-0.1,0.3,0.4,0.6,0.7,0.5l4-2.1l4,2.1c0.3,0.2,0.7-0.1,0.7-0.5L18.8,18l3.2-3.2C22.3,14.6,22.2,14.2,21.8,14.1L21.8,14.1
		z"/>
	<path class="st3" d="M21.8,12.9l-4.4-0.7l-2-4c-0.1-0.3-0.7-0.3-0.8,0l-2,4l-4.4,0.6c-0.4,0.1-0.5,0.5-0.2,0.7l3.2,3.1l-0.8,4.4
		c-0.1,0.3,0.4,0.6,0.7,0.5l4-2l4,2c0.3,0.2,0.7-0.1,0.7-0.5l-0.8-4.4l3.2-3.1C22.3,13.4,22.2,13,21.8,12.9L21.8,12.9z"/>
</g>
</svg>
