<?xml version="1.0" encoding="utf-8"?>
<!-- Generator: Adobe Illustrator 21.0.0, SVG Export Plug-In . SVG Version: 6.00 Build 0)  -->
<svg version="1.1" id="Слой_1" xmlns="http://www.w3.org/2000/svg" xmlns:xlink="http://www.w3.org/1999/xlink" x="0px" y="0px"
	 width="30px" height="30px" viewBox="0 0 30 30" style="enable-background:new 0 0 30 30;" xml:space="preserve">
<style type="text/css">
	.st0{fill:#0066CC;}
	.st1{fill:#0099FF;}
	.st2{fill:#00CCFF;}
</style>
<g id="icoLogout">
	<path class="st0" d="M21.9,13H21v-2c0-3.3-2.7-6-6-6s-6,2.7-6,6v2H8.1C6.4,13,5,14.4,5,16.1v7.9C5,25.6,6.4,27,8.1,27h13.9
		c1.7,0,3.1-1.4,3.1-3.1v-7.9C25,14.4,23.6,13,21.9,13z M11.2,11c0-2.1,1.7-3.8,3.8-3.8s3.8,1.7,3.8,3.8v2h-7.5V11z"/>
	<path class="st1" d="M23,13.2V11c0-4.4-3.6-8-8-8s-8,3.6-8,8v2.2c-1.2,0.4-2,1.5-2,2.9v6.9C5,24.6,6.4,26,8.1,26h13.9
		c1.7,0,3.1-1.4,3.1-3.1v-6.9C25,14.7,24.2,13.6,23,13.2z M15,6c2.8,0,5,2.2,5,5v2H10v-2C10,8.2,12.2,6,15,6z"/>
	<path class="st2" d="M16.2,19.3V18c0-0.6-0.6-1-1.2-1s-1.2,0.4-1.2,1v1.3c-0.7,0.3-1.2,1-1.2,1.7c0,1.1,1.1,2,2.5,2s2.5-0.9,2.5-2
		C17.5,20.3,17,19.6,16.2,19.3z"/>
	<path class="st0" d="M16.2,18.3V17c0-0.6-0.6-1-1.2-1s-1.2,0.4-1.2,1v1.3c-0.7,0.3-1.2,1-1.2,1.7c0,1.1,1.1,2,2.5,2s2.5-0.9,2.5-2
		C17.5,19.3,17,18.6,16.2,18.3z"/>
</g>
</svg>
