<?xml version="1.0" encoding="utf-8"?>
<!-- Generator: Adobe Illustrator 21.0.0, SVG Export Plug-In . SVG Version: 6.00 Build 0)  -->
<svg version="1.1" id="Слой_1" xmlns="http://www.w3.org/2000/svg" xmlns:xlink="http://www.w3.org/1999/xlink" x="0px" y="0px"
	 width="30px" height="30px" viewBox="0 0 30 30" style="enable-background:new 0 0 30 30;" xml:space="preserve">
<style type="text/css">
	.st0{fill:#CCCCCC;}
	.st1{fill:#EEEEEE;}
	.st2{fill:#FFFFFF;}
	.st3{fill:#0099FF;}
</style>
<g id="icoProfile" transform="translate(0 -1028.4)">
	<path class="st0" d="M25,1052.4H5c-1.1,0-2-0.9-2-2v-13c0-1.1,0.9-2,2-2h20c1.1,0,2,0.9,2,2v13C27,1051.5,26.1,1052.4,25,1052.4z"
		/>
	<path class="st1" d="M25,1051.4H5c-1.1,0-2-0.9-2-2v-13c0-1.1,0.9-2,2-2h20c1.1,0,2,0.9,2,2v13C27,1050.5,26.1,1051.4,25,1051.4z"
		/>
	<path class="st0" d="M17,1039.4v1h4v-1H17z M17,1041.4v1h7v-1H17z M17,1043.4v1h7v-1H17z"/>
	<path class="st2" d="M13.2,1049.4H6.8c-1,0-1.8-0.8-1.8-1.8v-8.4c0-1,0.8-1.8,1.8-1.8h6.4c1,0,1.8,0.8,1.8,1.8v8.4
		C15,1048.6,14.2,1049.4,13.2,1049.4z"/>
	<path class="st3" d="M10,1038.4c-0.8,0-1.6,0.4-2.2,0.9c-0.5,0.6-0.8,1.1-0.9,1.8c-0.5,0.4-0.5,1.1-0.1,1.6c0.4,0.4,0.4,1,0.7,1.6
		c0.1,0.4,0.9,0.8,0.9,1.2c0.2,0.8-0.9,0.6-1.4,0.8c-0.7,0.2-1.6,0.4-2,0.9c0,0.7-0.1,1.3,0.2,1.9c0.2,0.4,0.9,0.4,1.4,0.4h7.7
		c0.6-0.2,0.8-0.9,0.7-1.3v-1.1c-0.9-0.3-1.7-0.8-2.7-1c-0.6,0-0.8-0.3-0.9-0.8c0.8-0.6,1.2-1.4,1.5-2.3c0.4-0.3,0.8-1.2,0.2-1.7
		c-0.3-0.4-0.3-1-0.7-1.6C11.9,1039,11,1038.4,10,1038.4L10,1038.4z"/>
</g>
</svg>
