<?xml version="1.0" encoding="utf-8"?>
<!-- Generator: Adobe Illustrator 21.0.0, SVG Export Plug-In . SVG Version: 6.00 Build 0)  -->
<svg version="1.1" id="ico" xmlns="http://www.w3.org/2000/svg" xmlns:xlink="http://www.w3.org/1999/xlink" x="0px" y="0px"
	 width="27px" height="24px" viewBox="0 0 27 24" style="enable-background:new 0 0 27 24;" xml:space="preserve">
<style type="text/css">
	.st0{fill:#66CC33;}
</style>
<path id="icoTop_x5F_VirtualSport" class="st0" d="M0,3v18h27V3H0z M26,20H1V4h25V20z M15.5,12c0,1.1-0.9,2-2,2s-2-0.9-2-2
	s0.9-2,2-2S15.5,10.9,15.5,12z M5,8v8H2v-2h1v-4H2V8H5z M24,10v4h1v2h-3V8h3v2H24z M25,7h-4v3c-1.1,0-2,0.9-2,2c0,1.1,0.9,2,2,2v3h4
	v2H14v-4.1c1.4-0.2,2.5-1.5,2.5-2.9S15.4,9.3,14,9.1V5h11V7z M10.5,12c0,1.5,1.1,2.7,2.5,2.9V19H2v-2h4v-3c1.1,0,2-0.9,2-2
	c0-1.1-0.9-2-2-2V7H2V5h11v4.1C11.6,9.3,10.5,10.5,10.5,12z M7,12c0,0.7-0.4,1.2-1,1.4v-2.8C6.6,10.8,7,11.3,7,12z M20,12
	c0-0.7,0.4-1.2,1-1.4v2.8C20.4,13.2,20,12.7,20,12z"/>
</svg>
