<?xml version="1.0" encoding="utf-8"?>
<!-- Generator: Adobe Illustrator 21.0.0, SVG Export Plug-In . SVG Version: 6.00 Build 0)  -->
<svg version="1.1" id="ico" xmlns="http://www.w3.org/2000/svg" xmlns:xlink="http://www.w3.org/1999/xlink" x="0px" y="0px"
	 width="24px" height="24px" viewBox="0 0 24 24" style="enable-background:new 0 0 24 24;" xml:space="preserve">
<style type="text/css">
	.st0{fill:#FFCC00;}
</style>
<path id="icoTop_x5F_Tournament" class="st0" d="M23,2h-3c0-0.3,0-0.7,0-1c0-0.4-0.6-1-1-1H5C4.6,0,4,0.6,4,1c0,0.3,0,0.7,0,1H1
	C0.6,2,0,2.6,0,3c0,3.1,0.8,5.6,2.3,7.8C3.8,13,8.8,16,10,16v5H8l-2,1v1H5v1h14v-1h-1v-1l-2-1h-2v-5c1.2,0,6.2-3,7.7-5.2
	C23.2,8.6,24,6.1,24,3C24,2.6,23.4,2,23,2z M3.5,10C2.3,8.2,2.1,6.6,2,4h2c0.3,3.2,0.9,5.3,2,7.7c0.2,0.4,0.7,1,1,1.3
	C5.8,12.6,4.4,11.4,3.5,10z M14.5,7.7l0.6,3.3L12,9.5L8.9,11l0.6-3.3L7,5.4L10.5,5L12,2l1.5,3L17,5.4L14.5,7.7z M20.5,10
	c-0.9,1.3-2.3,2.5-3.5,3c0.2-0.3,0.8-1,1-1.3c1.2-2.4,1.8-4.5,2-7.7h2C21.9,6.6,21.7,8.2,20.5,10z"/>
</svg>
