<?xml version="1.0" encoding="utf-8"?>
<!-- Generator: Adobe Illustrator 21.0.0, SVG Export Plug-In . SVG Version: 6.00 Build 0)  -->
<svg version="1.1" id="ico" xmlns="http://www.w3.org/2000/svg" xmlns:xlink="http://www.w3.org/1999/xlink" x="0px" y="0px"
	 width="24px" height="24px" viewBox="0 0 24 24" style="enable-background:new 0 0 24 24;" xml:space="preserve">
<style type="text/css">
	.st0{fill:#CC0066;}
</style>
<path id="icoTop_x5F_Live" class="st0" d="M21,1v8l-3-2V3L21,1z M17,3v4c0,1.1-0.9,2-2,2H5C3.9,9,3,8.1,3,7V3c0-1.1,0.9-2,2-2h10
	C16.1,1,17,1.9,17,3z M14,6c0-0.6-0.4-1-1-1H7C6.4,5,6,5.4,6,6s0.4,1,1,1h6C13.6,7,14,6.6,14,6z M24,13.5v7.1c0,1.4-1,2.5-2.3,2.5
	H2.3C1,23,0,21.9,0,20.5v-7.1C0,12.1,1,11,2.3,11h19.4C23,11,24,12.1,24,13.5z M6,19.8C6,19.3,5.6,19,5.2,19l0,0c-0.4,0-0.8,0-1.1,0
	v-4.7c0-0.5-0.4-0.8-0.8-0.8s-0.8,0.4-0.8,0.8v5.5c0,0.4,0.3,0.8,0.7,0.8c0.1,0,0.1,0,0.7,0c0.3,0,0.7,0,1.4,0
	C5.6,20.6,6,20.2,6,19.8z M9.2,14.2c0-0.5-0.4-0.8-0.8-0.8c-0.5,0-0.8,0.4-0.8,0.8v5.5c0,0.5,0.4,0.8,0.8,0.8c0.5,0,0.8-0.4,0.8-0.8
	V14.2z M16.2,13.5c-0.5-0.1-1,0.1-1.1,0.5l-1.2,3.5L12.5,14c-0.2-0.4-0.7-0.7-1.1-0.5c-0.5,0.2-0.7,0.6-0.5,1.1l2,5.5l0,0
	c0.1,0.4,0.5,0.6,1,0.6l0,0c0.4,0,0.8-0.3,1-0.6l0,0l1.9-5.4C16.9,14.1,16.7,13.6,16.2,13.5z M19.5,16.2v-1.1h1.4
	c0.4,0,0.7-0.4,0.7-0.8s-0.3-0.8-0.7-0.8h-2.1c-0.4,0-0.7,0.4-0.7,0.8v5.5c0,0.5,0.3,0.8,0.7,0.8h2.1c0.4,0,0.7-0.4,0.7-0.8
	c0-0.5-0.3-0.8-0.7-0.8h-1.4v-1.1h1.2c0.4,0,0.7-0.4,0.7-0.8s-0.3-0.8-0.7-0.8h-1.2V16.2z"/>
</svg>
