<?xml version="1.0" encoding="utf-8"?>
<!-- Generator: Adobe Illustrator 21.0.0, SVG Export Plug-In . SVG Version: 6.00 Build 0)  -->
<svg version="1.1" id="ico" xmlns="http://www.w3.org/2000/svg" xmlns:xlink="http://www.w3.org/1999/xlink" x="0px" y="0px"
	 width="22px" height="24px" viewBox="0 0 22 24" style="enable-background:new 0 0 22 24;" xml:space="preserve">
<style type="text/css">
	.st0{fill:#FFCC00;}
</style>
<path id="icoTop_x5F_Bonus" class="st0" d="M16,6c0,0,2.6-1,3-2s1-4-3-4s-5,4-5,4s-1-4-5-4S2.6,3,3,4s3,2,3,2H0v5h10V7h1h1v4h10V6
	H16z M5,3c0-1,0-1.5,1.4-1.5S10,4,10,6C8,6,5,4,5,3z M15.6,1.5C17,1.5,17,2,17,3s-3,3-5,3C12,4,14.2,1.5,15.6,1.5z M16,12h5v12h-9
	V12l3,6l1-2h2L16,12z M7,18l3-6v12H1V12h5l-2,4h2L7,18z"/>
</svg>
