<?xml version="1.0" encoding="utf-8"?>
<!-- Generator: Adobe Illustrator 21.0.0, SVG Export Plug-In . SVG Version: 6.00 Build 0)  -->
<svg version="1.1" id="_x31_8_1_" xmlns="http://www.w3.org/2000/svg" xmlns:xlink="http://www.w3.org/1999/xlink" x="0px" y="0px"
	 width="50px" height="50px" viewBox="0 0 50 50" style="enable-background:new 0 0 50 50;" xml:space="preserve">
<style type="text/css">
	.st0{fill:#666699;}
</style>
<path id="_x31_8" class="st0" d="M45.6,22l-2.9,16.3c-0.6,3.3-3.5,5.7-6.8,5.7h-26c-2.1,0-4-0.9-5.3-2.5c-1.3-1.6-1.9-3.6-1.5-5.7
	l4.3-24.1C7.9,8.4,10.8,6,14.1,6h14.7l-0.7,4h-14c-1.4,0-2.6,1-2.9,2.4L7,36.5c-0.2,0.9,0.1,1.7,0.6,2.4C8.2,39.6,9,40,9.9,40h26
	c1.4,0,2.6-1,2.9-2.4L41.5,22H45.6z M13.7,18.3L13,21.9h3l-2.5,12.7H18l3.2-16.3H13.7z M33.5,26.4c0.8-0.4,1.4-1,1.8-1.7
	c0.4-0.7,0.6-1.5,0.6-2.4c0-0.9-0.3-1.6-0.8-2.3c-0.5-0.7-1.2-1.2-2.2-1.5S31,18,29.8,18c-1.3,0-2.4,0.2-3.4,0.6
	c-1,0.4-1.8,1-2.3,1.8c-0.6,0.8-0.8,1.7-0.8,2.7s0.4,1.9,1.2,2.6c-1,0.4-1.8,1-2.3,1.8c-0.5,0.8-0.8,1.7-0.8,2.7
	c0,0.9,0.3,1.7,0.8,2.5c0.6,0.7,1.3,1.3,2.4,1.6c1,0.4,2.2,0.6,3.5,0.6c1.4,0,2.6-0.2,3.7-0.7c1.1-0.4,1.9-1.1,2.5-1.9
	c0.6-0.8,0.9-1.8,0.9-2.9C35.2,28.2,34.6,27.2,33.5,26.4z M28.1,31.7c-0.7,0-1.2-0.2-1.6-0.5c-0.4-0.3-0.6-0.8-0.6-1.4
	c0-0.7,0.2-1.2,0.7-1.6c0.5-0.4,1.1-0.6,1.9-0.6c0.7,0,1.2,0.2,1.6,0.5c0.4,0.3,0.6,0.8,0.6,1.4c0,0.7-0.2,1.2-0.7,1.6
	C29.5,31.5,28.8,31.7,28.1,31.7z M29.7,21.2c0.5,0,1,0.1,1.3,0.4c0.3,0.3,0.5,0.6,0.5,1.1c0,0.6-0.2,1-0.6,1.4
	c-0.4,0.3-0.9,0.5-1.5,0.5c-0.5,0-1-0.1-1.3-0.4c-0.3-0.3-0.5-0.6-0.5-1.1c0-0.6,0.2-1,0.5-1.4C28.6,21.4,29.1,21.2,29.7,21.2z
	 M46,10.2h-4.2L42.6,6h-3.8l-0.8,4.2h-4.2L33,13.8h4.2L36.4,18h3.8l0.8-4.2h4.2L46,10.2z"/>
</svg>
