<?xml version="1.0" encoding="utf-8"?>
<!-- Generator: Adobe Illustrator 21.0.0, SVG Export Plug-In . SVG Version: 6.00 Build 0)  -->
<svg version="1.1" id="ssl" xmlns="http://www.w3.org/2000/svg" xmlns:xlink="http://www.w3.org/1999/xlink" x="0px" y="0px"
	 width="50px" height="50px" viewBox="0 0 50 50" style="enable-background:new 0 0 50 50;" xml:space="preserve">
<style type="text/css">
	.st0{fill:#666699;}
</style>
<path id="ssl_1_" class="st0" d="M43.4,19.5c-1-1.2-2.5-2.1-4-2.3l0.5-3c0.4-2-0.2-4.1-1.5-5.7C37.1,6.9,35.2,6,33.1,6h-13
	c-3.4,0-6.3,2.4-6.8,5.7L12.4,17h-0.2c-3.4,0-6.3,2.4-6.8,5.7L3.1,35.9c-0.4,2,0.2,4.1,1.5,5.7C5.9,43.1,7.8,44,9.9,44h26
	c3.4,0,6.2-2.4,6.8-5.7l2.3-13.1C45.3,23.1,44.8,21.1,43.4,19.5z M17.2,12.4c0.2-1.4,1.5-2.4,2.9-2.4h13c0.9,0,1.7,0.4,2.3,1.1
	c0.6,0.7,0.8,1.5,0.6,2.4L35.4,17H16.4L17.2,12.4z M41,24.5l-2.3,13.1C38.5,39,37.3,40,35.9,40h-26c-0.9,0-1.7-0.4-2.3-1.1
	c-0.6-0.7-0.8-1.5-0.6-2.4l2.3-13.1C9.5,22,10.7,21,12.1,21h26c0.9,0,1.7,0.4,2.3,1.1C40.9,22.7,41.2,23.6,41,24.5z M12,35.7
	c-0.8-0.2-1.4-0.5-1.9-0.8l1.2-2.2c0.5,0.3,1.1,0.6,1.7,0.8c0.6,0.2,1.2,0.3,1.8,0.3c0.6,0,1-0.1,1.3-0.2c0.3-0.2,0.5-0.4,0.5-0.7
	c0-0.3-0.1-0.4-0.4-0.6c-0.3-0.1-0.7-0.3-1.3-0.5c-0.7-0.2-1.2-0.4-1.7-0.6c-0.4-0.2-0.8-0.5-1.1-0.9c-0.3-0.4-0.5-0.9-0.5-1.5
	c0-0.8,0.2-1.4,0.6-2c0.4-0.6,1-1,1.7-1.3c0.7-0.3,1.6-0.5,2.6-0.5c0.7,0,1.4,0.1,2.1,0.2c0.6,0.2,1.2,0.4,1.7,0.7l-1.1,2.2
	c-0.4-0.3-0.8-0.5-1.3-0.6c-0.5-0.1-1-0.2-1.5-0.2c-0.6,0-1,0.1-1.4,0.3c-0.3,0.2-0.5,0.4-0.5,0.7c0,0.3,0.1,0.5,0.4,0.6
	c0.3,0.1,0.7,0.3,1.3,0.5c0.7,0.2,1.2,0.3,1.7,0.5c0.4,0.2,0.8,0.5,1.1,0.8c0.3,0.4,0.5,0.9,0.5,1.5c0,0.7-0.2,1.4-0.6,2
	c-0.4,0.6-1,1-1.7,1.3c-0.8,0.3-1.6,0.5-2.6,0.5C13.6,36,12.8,35.9,12,35.7z M21.5,35.7c-0.8-0.2-1.4-0.5-1.9-0.8l1.2-2.2
	c0.5,0.3,1.1,0.6,1.7,0.8c0.6,0.2,1.2,0.3,1.8,0.3c0.6,0,1-0.1,1.3-0.2c0.3-0.2,0.5-0.4,0.5-0.7c0-0.3-0.1-0.4-0.4-0.6
	c-0.3-0.1-0.7-0.3-1.3-0.5c-0.7-0.2-1.2-0.4-1.7-0.6c-0.4-0.2-0.8-0.5-1.1-0.9c-0.3-0.4-0.5-0.9-0.5-1.5c0-0.8,0.2-1.4,0.6-2
	c0.4-0.6,1-1,1.7-1.3C24.1,25.2,25,25,26,25c0.7,0,1.4,0.1,2.1,0.2c0.6,0.2,1.2,0.4,1.7,0.7l-1.1,2.2c-0.4-0.3-0.8-0.5-1.3-0.6
	c-0.5-0.1-1-0.2-1.5-0.2c-0.6,0-1,0.1-1.4,0.3c-0.3,0.2-0.5,0.4-0.5,0.7c0,0.3,0.1,0.5,0.4,0.6c0.3,0.1,0.7,0.3,1.3,0.5
	c0.7,0.2,1.2,0.3,1.7,0.5c0.4,0.2,0.8,0.5,1.1,0.8c0.3,0.4,0.5,0.9,0.5,1.5c0,0.7-0.2,1.4-0.6,2c-0.4,0.6-1,1-1.7,1.3
	C25.8,35.8,25,36,24,36C23.1,36,22.3,35.9,21.5,35.7z M31.7,25.2h2.9l-1.6,8.2H38l-0.5,2.4h-7.9L31.7,25.2z"/>
</svg>
