<?xml version="1.0" encoding="utf-8"?>
<!-- Generator: Adobe Illustrator 21.0.0, SVG Export Plug-In . SVG Version: 6.00 Build 0)  -->
<svg version="1.1" id="GiftBox" xmlns="http://www.w3.org/2000/svg" xmlns:xlink="http://www.w3.org/1999/xlink" x="0px" y="0px"
	 width="20px" height="20px" viewBox="0 0 20 20" style="enable-background:new 0 0 20 20;" xml:space="preserve">
<style type="text/css">
	.st0{fill:#CC0066;}
	.st1{fill:#FFFFFF;}
	.st2{fill:#B5B3CC;}
</style>
<g id="SmalGiftBox">
	<path id="_x34_" class="st0" d="M16.7,2.3l-1.9-2c-0.4-0.4-1.1-0.4-1.5,0L10,3.9L6.7,0.3c-0.4-0.4-1.1-0.4-1.5,0l-1.9,2
		c-0.4,0.4-0.4,1.2,0,1.6L8.1,9h3.8l4.8-5.1C17.1,3.5,17.1,2.8,16.7,2.3z"/>
	<polygon id="_x33_" class="st1" points="20,4 0,4 0,8 1,8 1,20 19,20 19,8 20,8 	"/>
	<rect id="_x32_" x="1" y="8" class="st2" width="18" height="1"/>
	<rect id="_x31_" x="8" y="4" class="st0" width="4" height="16"/>
</g>
</svg>
