<?xml version="1.0" encoding="utf-8"?>
<!-- Generator: Adobe Illustrator 21.0.0, SVG Export Plug-In . SVG Version: 6.00 Build 0)  -->
<svg version="1.1" id="Money" xmlns="http://www.w3.org/2000/svg" xmlns:xlink="http://www.w3.org/1999/xlink" x="0px" y="0px"
	 width="24px" height="22px" viewBox="0 0 24 22" style="enable-background:new 0 0 24 22;" xml:space="preserve">
<style type="text/css">
	.st0{fill:#339933;}
	.st1{fill:#66CC33;}
	.st2{fill:#FF9900;}
	.st3{fill:#FFCC00;}
</style>
<g id="SmalMoney">
	<path id="b" class="st0" d="M22.9,14H1.1C0.5,14,0,13.5,0,12.9V1.1C0,0.5,0.5,0,1.1,0h21.8C23.5,0,24,0.5,24,1.1v11.8
		C24,13.5,23.5,14,22.9,14z"/>
	<path id="s" class="st1" d="M15,8.3c0,1.1-1,2-2.2,2c0,0.4-0.3,0.7-0.8,0.7c-0.4,0-0.8-0.3-0.8-0.7h-0.7c-0.4,0-0.8-0.3-0.8-0.7
		C9.8,9.3,10,9,10.5,9h2.2c0.4,0,0.8-0.3,0.8-0.7c0-0.4-0.3-0.7-0.8-0.7h-1.5C10,7.7,9,6.8,9,5.7s1-2,2.2-2C11.2,3.3,11.5,3,12,3
		c0.4,0,0.8,0.3,0.8,0.7h0.7c0.4,0,0.8,0.3,0.8,0.7C14.2,4.7,14,5,13.5,5h-2.2c-0.4,0-0.8,0.3-0.8,0.7c0,0.4,0.3,0.7,0.8,0.7h1.5
		C14,6.3,15,7.2,15,8.3z M23,3.2v7.6c-1.2,0-2.2,1-2.2,2.2H3.2c0-1.2-1-2.2-2.2-2.2V3.2c1.2,0,2.2-1,2.2-2.2h17.6
		C20.8,2.2,21.8,3.2,23,3.2z M5,7c0-0.6-0.4-1-1-1S3,6.4,3,7c0,0.6,0.4,1,1,1S5,7.6,5,7z M17,7c0-2.8-2.2-5-5-5S7,4.2,7,7s2.2,5,5,5
		S17,9.8,17,7z M21,7c0-0.6-0.4-1-1-1s-1,0.4-1,1c0,0.6,0.4,1,1,1S21,7.6,21,7z"/>
	<circle id="s3" class="st2" cx="20" cy="13" r="4"/>
	<path id="c3" class="st3" d="M19.5,10c-1.9,0-3.5,1.6-3.5,3.5s1.6,3.5,3.5,3.5s3.5-1.6,3.5-3.5S21.4,10,19.5,10z M20,15h-1v-3h1V15
		z"/>
	<circle id="s2" class="st2" cx="14" cy="14" r="4"/>
	<path id="c2" class="st3" d="M13.5,11c-1.9,0-3.5,1.6-3.5,3.5s1.6,3.5,3.5,3.5s3.5-1.6,3.5-3.5S15.4,11,13.5,11z M14,16h-1v-3h1V16
		z"/>
	<circle id="s1" class="st2" cx="19" cy="18" r="4"/>
	<path id="c1" class="st3" d="M18.5,15c-1.9,0-3.5,1.6-3.5,3.5s1.6,3.5,3.5,3.5s3.5-1.6,3.5-3.5S20.4,15,18.5,15z M19,20h-1v-3h1V20
		z"/>
</g>
</svg>
