<?xml version="1.0" encoding="utf-8"?>
<!-- Generator: Adobe Illustrator 21.0.0, SVG Export Plug-In . SVG Version: 6.00 Build 0)  -->
<svg version="1.1" id="Слой_1" xmlns="http://www.w3.org/2000/svg" xmlns:xlink="http://www.w3.org/1999/xlink" x="0px" y="0px"
	 width="56px" height="56px" viewBox="0 0 56 56" style="enable-background:new 0 0 56 56;" xml:space="preserve">
<style type="text/css">
	.st0{fill-rule:evenodd;clip-rule:evenodd;fill:#FFFFFF;}
	.st1{fill-rule:evenodd;clip-rule:evenodd;fill:#242229;}
</style>
<path class="st0" d="M49,46L38,56l-21-1L8,44l2-22l5,0.1V18c0-8.3,6.7-15,15-15c8.3,0,15,6.7,15,15v4.9l5,0.1L49,46z M26,39v5
	c0,1.7,1.3,3,3,3s3-1.3,3-3v-5c1.2-0.9,2-2.3,2-4c0-2.8-2.2-5-5-5c-2.8,0-5,2.2-5,5C24,36.6,24.8,38.1,26,39z M39,18c0-5-4-9-9-9
	c-5,0-9,4-9,9v4.3l18,0.4V18z"/>
<path class="st1" d="M47,43L36,53l-21-1L6,41l2-22l5,0.1V15c0-8.3,6.7-15,15-15c8.3,0,15,6.7,15,15v4.9l5,0.1L47,43z M24,36v5
	c0,1.7,1.3,3,3,3s3-1.3,3-3v-5c1.2-0.9,2-2.3,2-4c0-2.8-2.2-5-5-5c-2.8,0-5,2.2-5,5C22,33.6,22.8,35.1,24,36z M37,15c0-5-4-9-9-9
	c-5,0-9,4-9,9v4.3l18,0.4V15z"/>
</svg>
