<?xml version="1.0" encoding="utf-8"?>
<!-- Generator: Adobe Illustrator 21.0.0, SVG Export Plug-In . SVG Version: 6.00 Build 0)  -->
<svg version="1.1" id="Слой_1" xmlns="http://www.w3.org/2000/svg" xmlns:xlink="http://www.w3.org/1999/xlink" x="0px" y="0px"
	 width="24px" height="24px" viewBox="0 0 24 24" style="enable-background:new 0 0 24 24;" xml:space="preserve">
<style type="text/css">
	.st0{fill:#3CCA3F;}
</style>
<path id="Bonus" class="st0" d="M22.3,10c0.6,0.5,0.6,1.4,0,2c-0.6,0.5-1.5,0.5-2.1,0l-9.7-9.4c-0.6-0.5-0.6-1.4,0-2
	c0.6-0.5,1.5-0.5,2.1,0L22.3,10z M9.7,4.2C9.2,6.7,7.9,9.1,6.2,11l5.3,5.1c2-1.6,4.4-2.9,7-3.4l0.4-0.1L9.8,3.9L9.7,4.2z M10.4,17
	l-3.6,3.5c-0.9,0.8-2.2,0.8-3.1,0l-2.1-2c-0.9-0.8-0.9-2.2,0-3L5.3,12L10.4,17z M6.8,16.5c0.3-0.3,0.3-0.7,0-1s-0.7-0.3-1,0l-1,1
	c-0.3,0.3-0.3,0.7,0,1c0.3,0.3,0.7,0.3,1,0L6.8,16.5z M14.5,16.9l-0.7-0.7c-0.4,0.3-0.8,0.6-1.2,0.9l0.9,0.8c0.3,0.3,0.3,0.7,0,1
	l-1,1l-1.5-1.4l-2.1,2l3.3,3.1c0.6,0.5,1.5,0.5,2.1,0c0.6-0.5,0.6-1.4,0-2l-0.8-0.7l1-1C15.3,19.1,15.3,17.8,14.5,16.9z M16.4,2.8
	c0.4,0,0.7-0.3,0.7-0.7V0.7c0-0.4-0.3-0.7-0.7-0.7c-0.4,0-0.7,0.3-0.7,0.7v1.4C15.7,2.5,16,2.8,16.4,2.8z M22.3,5.6h-1.5
	c-0.4,0-0.7,0.3-0.7,0.7c0,0.4,0.3,0.7,0.7,0.7h1.5C22.7,7,23,6.7,23,6.3C23,5.9,22.7,5.6,22.3,5.6z M19.9,4l1.5-1.4
	c0.3-0.3,0.3-0.7,0-1c-0.3-0.3-0.7-0.3-1,0L18.8,3c-0.3,0.3-0.3,0.7,0,1C19.1,4.3,19.6,4.3,19.9,4z"/>
</svg>
