<?xml version="1.0" encoding="utf-8"?>
<!-- Generator: Adobe Illustrator 21.0.0, SVG Export Plug-In . SVG Version: 6.00 Build 0)  -->
<svg version="1.1" id="Слой_1" xmlns="http://www.w3.org/2000/svg" xmlns:xlink="http://www.w3.org/1999/xlink" x="0px" y="0px"
	 width="34px" height="34px" viewBox="0 0 34 34" style="enable-background:new 0 0 34 34;" xml:space="preserve">
<style type="text/css">
	.st0{fill:#242229;}
	.st1{fill:#FF0066;}
	.st2{fill:#FFFFFF;}
</style>
<g id="Favorite_x5F_Normal">
	<path id="Shadow_2_" class="st0" d="M24,4c-7,0-10,8-10,8s-4-3-7-3s-7,1-7,7c0,11,17,18,22,18c1,0,2-1,2-2c0-8,8-11,8-19
		C32,9,31,4,24,4z"/>
	<path id="Heart_1_" class="st1" d="M24,0c-7,0-10,8-10,8s-4-3-7-3s-7,1-7,7c0,11,17,18,22,18c1,0,2-1,2-2c0-8,8-11,8-19
		C32,5,31,0,24,0z"/>
	<path id="Light_2_" class="st2" d="M16,12l-1-2c0-3,5.1-8,9-8c2,0,4,1,4,1C21,2,18,8,16,12z M8,9c3,0,3.7,0.1,5,1
		c-1.4-2.1-3.3-3-6-3c-3.9,0-7,4-7,7c0,0,1.4,3.3,1.4,3.3S2,9,8,9z"/>
</g>
</svg>
