<?xml version="1.0" encoding="utf-8"?>
<!-- Generator: Adobe Illustrator 21.0.0, SVG Export Plug-In . SVG Version: 6.00 Build 0)  -->
<svg version="1.1" id="Слой_1" xmlns="http://www.w3.org/2000/svg" xmlns:xlink="http://www.w3.org/1999/xlink" x="0px" y="0px"
	 width="48px" height="48px" viewBox="0 0 48 48" style="enable-background:new 0 0 48 48;" xml:space="preserve">
<style type="text/css">
	.st0{fill-rule:evenodd;clip-rule:evenodd;fill:#242229;}
	.st1{fill-rule:evenodd;clip-rule:evenodd;fill:#00CCFF;}
	.st2{fill-rule:evenodd;clip-rule:evenodd;fill:#FFFFFF;}
</style>
<g id="ArrowRight_x5F_Normal">
	<path id="Shadow_3_" class="st0" d="M45,27v-5L3,17v8c0.5,7.7,4,15.8,9,21c5.6-11.6,13-12,13-12l3,14L45,27z"/>
	<path id="Arrow_3_" class="st1" d="M45,22L26,0v12c0,0-15.5-6.5-23,5c0.5,7.7,4,15.8,9,21c5.6-11.6,15-11,15-11l2,13L45,22z"/>
	<path id="Light_3_" class="st2" d="M6,23c7.5-11.5,22-5,22-5V8l14,13l-1-2L27,4v11c0,0-16.2-6.5-23.6,5C3.4,24,7,31,7,31L6,23z"/>
</g>
</svg>
