<?xml version="1.0" encoding="utf-8"?>
<!-- Generator: Adobe Illustrator 21.0.0, SVG Export Plug-In . SVG Version: 6.00 Build 0)  -->
<svg version="1.1" id="Слой_1" xmlns="http://www.w3.org/2000/svg" xmlns:xlink="http://www.w3.org/1999/xlink" x="0px" y="0px"
	 width="36px" height="30px" viewBox="0 0 36 30" style="enable-background:new 0 0 36 30;" xml:space="preserve">
<style type="text/css">
	.st0{fill:#3CCA3F;}
</style>
<path id="Folder" class="st0" d="M32,9V8c0-2.2-1.8-4-4-4H16l-4-4H4C1.8,0,0,1.8,0,4V26c0,2.2,1.8,4,4,4c0,0,24,0,24,0
	c2,0,4.2-1.7,4.3-3.8L36,9H32z M29,10H8L5,27H4c-0.5,0-1-0.5-1-1V4c0-0.5,0.5-1,1-1h6l4,4h14c0.5,0,1,0.5,1,1V10z"/>
</svg>
