<!-- Generated by IcoMoon.io -->
<svg version="1.1" xmlns="http://www.w3.org/2000/svg" width="85" height="32" viewBox="0 0 85 32">
<title>iconPay_MasterCard</title>
<path fill="#f33" d="M42.667 25.487c2.679-2.433 4.203-5.877 4.196-9.487 0.006-3.61-1.517-7.054-4.196-9.487-2.266-2.059-5.271-3.313-8.569-3.313-7.050 0-12.765 5.731-12.765 12.8s5.715 12.8 12.765 12.8c3.298 0 6.303-1.254 8.569-3.313z"></path>
<path fill="#f90" d="M51.235 3.2c-3.298 0-6.303 1.254-8.569 3.313-0.462 0.42-0.893 0.873-1.289 1.355h2.577c0.354 0.43 0.679 0.883 0.974 1.355h-4.524c-0.273 0.437-0.518 0.89-0.736 1.355h5.994c0.206 0.441 0.387 0.893 0.542 1.355h-7.076c-0.148 0.445-0.272 0.897-0.371 1.355h7.818c0.191 0.891 0.287 1.799 0.287 2.71 0 1.421-0.231 2.788-0.658 4.066h-7.076c0.154 0.462 0.334 0.914 0.54 1.355h5.994c-0.218 0.466-0.463 0.919-0.735 1.355h-4.523c0.294 0.473 0.62 0.925 0.973 1.355h2.577c-0.396 0.482-0.826 0.935-1.288 1.355 2.265 2.060 5.271 3.314 8.569 3.314 7.050 0 12.765-5.731 12.765-12.8s-5.715-12.8-12.765-12.8v0z"></path>
<path fill="#eee" d="M50.535 13.646l-0.226 1.334c0 0-0.668-0.333-1.147-0.333-0.963 0-1.639 0.959-1.639 2.314 0 0.938 0.451 1.501 1.209 1.501 0.509 0 1.086-0.313 1.086-0.313l-0.225 1.396c0 0-0.559 0.188-1.127 0.188-1.393 0-2.254-1.022-2.254-2.668 0-2.189 1.188-3.732 2.889-3.732 0.765 0 1.434 0.313 1.434 0.313zM45.207 15.376l0.123-0.771h-1.168l-0.799 5.003h1.291l0.523-2.851c0 0 0.148-0.84 0.768-0.734l0.492-1.438c-0.001-0.001-0.646-0.251-1.23 0.791zM55.774 15.376l0.123-0.771h-1.168l-0.799 5.003h1.291l0.523-2.851c0 0 0.148-0.84 0.768-0.734l0.492-1.438c-0.001-0.001-0.645-0.251-1.23 0.791zM38.978 19.546c-0.348 0.125-0.635 0.167-0.922 0.167-0.655 0-1.165-0.396-0.983-1.542 0.142-0.902 0.697-4.315 0.697-4.315h1.271l-0.143 0.75h0.655l-0.164 1.23h-0.655l-0.348 2.085c0 0-0.193 0.739 0.758 0.522l-0.164 1.104zM34.040 16.189c0 0.626 0.287 1.063 0.963 1.397 0.533 0.25 0.615 0.333 0.615 0.542 0 0.313-0.226 0.459-0.738 0.459-0.389 0-0.738-0.062-1.147-0.187l-0.185 1.146c0 0 0.626 0.146 1.332 0.146 1.362 0 1.988-0.522 1.988-1.668 0-0.688-0.266-1.084-0.901-1.397-0.553-0.25-0.615-0.313-0.615-0.542 0-0.271 0.226-0.396 0.635-0.396 0.246 0 0.594 0.021 0.922 0.062l0.184-1.147c-0.328-0.062-0.84-0.105-1.127-0.105-1.435 0-1.947 0.771-1.926 1.689v0zM60.35 19.608h-1.209l0.062-0.479c-0.348 0.375-0.717 0.542-1.189 0.542-0.942 0-1.557-0.813-1.557-2.063 0-1.668 0.963-3.085 2.090-3.085 0.513 0 0.881 0.229 1.23 0.688l0.287-1.751h1.27l-0.983 6.149zM59.469 16.752c0-0.646-0.226-0.98-0.676-0.98-0.574 0-1.004 0.688-1.004 1.668 0 0.667 0.266 1.001 0.676 1.001 0.594 0.001 1.004-0.709 1.004-1.689zM42.913 19.503c-0.451 0.146-0.861 0.209-1.332 0.209-1.435 0-2.172-0.771-2.172-2.251 0-1.709 0.943-2.981 2.234-2.981 1.066 0 2.183 0.812 1.578 3.065h-2.54c-0.154 0.881 0.804 1.406 2.438 0.709l-0.205 1.25zM42.195 16.523c0 0 0.163-0.897-0.615-0.897-0.41 0-0.697 0.313-0.82 0.897h1.435zM27.873 19.608l0.738-4.732-1.66 4.732h-0.881l-0.102-4.691-0.779 4.691h-1.188l1.004-6.15h1.844l0.061 3.815 1.229-3.815h2.008l-1.004 6.15h-1.27zM30.946 18.128c0 0.313 0.164 0.5 0.451 0.5 0.533 0 0.922-0.511 0.922-1.251-0.944-0.086-1.373 0.25-1.373 0.75zM32.196 19.608l0.020-0.522c-0.328 0.417-0.758 0.605-1.353 0.605-0.697 0-1.168-0.542-1.168-1.355 0-1.23 0.887-2.137 2.787-1.897 0.076-0.49 0.084-0.74-0.779-0.771-0.369-0.013-1.373 0.209-1.373 0.209l0.185-1.126c2.577-0.718 3.385 0.182 3.237 1.459-0.029 0.249-0.492 3.398-0.492 3.398l-1.065 0.001zM51.213 18.128c0 0.313 0.164 0.5 0.451 0.5 0.533 0 0.922-0.511 0.922-1.251-0.944-0.086-1.373 0.25-1.373 0.75zM52.462 19.608l0.020-0.522c-0.328 0.417-0.758 0.605-1.353 0.605-0.697 0-1.168-0.542-1.168-1.355 0-1.23 0.887-2.137 2.787-1.897 0.076-0.49 0.084-0.74-0.779-0.771-0.369-0.013-1.373 0.209-1.373 0.209l0.185-1.126c2.577-0.718 3.385 0.182 3.237 1.459-0.029 0.249-0.492 3.398-0.492 3.398l-1.065 0.001z"></path>
</svg>
