<!-- Generated by IcoMoon.io -->
<svg version="1.1" xmlns="http://www.w3.org/2000/svg" width="85" height="32" viewBox="0 0 85 32">
<title>iconPay_Neosurf</title>
<path fill="#f36" d="M80 8v3.322h-1.608c-0.646 0-1.079 0.223-1.079 1.426h2.057v3.326h-2.103v7.926h-3.651v-12.050c0-2.349 2.014-3.95 3.937-3.95h2.449zM53.746 12.748h3.651v6.308c0 1.276 1.269 1.276 1.269 1.276s1.269 0 1.269-1.276v-6.308h3.651v7.583c0 3.669-4.921 3.669-4.921 3.669s-4.921 0-4.921-3.669v-7.583zM65.314 12.748h3.651v1.807c0.287-1.121 1.053-1.807 2.893-1.807v3.326c-2.089 0-2.893 0.895-2.893 2.333s0 5.593 0 5.593h-3.651v-11.252zM36.927 12.618c-3.128 0-5.664 2.548-5.664 5.691s2.536 5.691 5.664 5.691 5.664-2.548 5.664-5.691-2.536-5.691-5.664-5.691zM36.927 20.572c-1.244 0-2.252-1.013-2.252-2.263s1.008-2.263 2.252-2.263c1.244 0 2.252 1.013 2.252 2.263s-1.008 2.263-2.252 2.263zM26.681 19.042c-0.303 0.89-1.143 1.53-2.131 1.53-1.244 0-2.252-1.013-2.252-2.263s1.008-2.263 2.252-2.263c0.31 0 0.606 0.063 0.875 0.177l-2.308 1.512 1.351 2.082 5.38-3.525c-0.81-2.148-2.877-3.674-5.298-3.674-3.128 0-5.664 2.548-5.664 5.691s2.535 5.692 5.663 5.692c2.486 0 4.598-1.61 5.361-3.849l-3.229-1.11zM47.823 16.81c-0.188 0-0.366-0.067-0.366-0.367 0-0.203 0.164-0.367 0.366-0.367h4.072v-3.326c0 0-3.429 0-4.072 0-2.030 0-3.676 1.654-3.676 3.694 0 3.503 4.393 3.496 4.563 3.496s0.366 0.087 0.366 0.367c0 0.203-0.164 0.367-0.366 0.367h-4.563v3.327c0 0 3.849 0 4.563 0 2.030 0 3.676-1.654 3.676-3.694 0.001-3.497-4.375-3.497-4.563-3.497zM13.415 8v8.228c0 0-4.068-6.957-4.215-7.218-0.33-0.583-1.328-1.010-2.041-1.010-1.008 0-1.826 0.821-1.826 1.834v14.166h3.651v-8.228c0 0 4.072 6.964 4.215 7.218 0.33 0.583 1.327 1.010 2.041 1.010 1.008 0 1.826-0.821 1.826-1.834v-14.166h-3.651z"></path>
</svg>
