<!-- Generated by IcoMoon.io -->
<svg version="1.1" xmlns="http://www.w3.org/2000/svg" width="85" height="32" viewBox="0 0 85 32">
<title>iconPay_PayAnyWay</title>
<path fill="#0c0" d="M70.644 12.118v0.639l4.138 2.375v4.841l0.54 0.365 0.54-0.365v-4.841l4.138-2.375v-0.639l-0.54-0.274-4.138 2.375-4.138-2.375-0.54 0.274z"></path>
<path fill="#999" d="M68.125 11.753h-0.63l-3.778 8.038 0.36 0.457h0.63l0.81-1.827h4.498l0.81 1.827h0.63l0.27-0.457-3.599-8.038zM65.876 17.507l1.889-4.019 1.799 4.019h-3.689z"></path>
<path fill="#999" d="M52.022 12.301l3.689 8.038h0.54l1.979-4.293 2.069 4.293h0.54l3.689-8.038-0.27-0.548h-0.63l-3.059 6.668-3.059-6.577h-0.63l-0.27 0.457 1.079 2.558-1.709 3.654-3.059-6.668-0.63-0.091-0.27 0.548z"></path>
<path fill="#f36" d="M41.857 12.118v0.639l4.138 2.375v4.841l0.54 0.365 0.54-0.365v-4.841l4.138-2.375v-0.639l-0.54-0.274-4.138 2.375-4.138-2.375-0.54 0.274z"></path>
<path fill="#999" d="M34.211 11.753v8.221l0.54 0.365 0.54-0.365v-6.028l4.858 6.394h0.719v-8.221l-0.54-0.365-0.54 0.365v5.938l-4.768-6.303h-0.81z"></path>
<path fill="#999" d="M29.713 11.753h-0.63l-3.778 8.038 0.36 0.457h0.63l0.81-1.827h4.498l0.81 1.827h0.63l0.27-0.457-3.599-8.038zM27.463 17.507l1.889-4.019 1.799 4.019h-3.689z"></path>
<path fill="#f90" d="M16.758 12.118v0.639l4.138 2.375v4.841l0.54 0.365 0.54-0.365v-4.841l4.138-2.375v-0.639l-0.54-0.274-4.138 2.375-4.138-2.375-0.54 0.274z"></path>
<path fill="#999" d="M14.419 11.753h-0.63l-3.778 8.038 0.36 0.457h0.63l0.81-1.827h4.498l0.81 1.827h0.63l0.27-0.457-3.599-8.038zM12.17 17.507l1.889-4.019 1.799 4.019h-3.689z"></path>
<path fill="#999" d="M7.942 11.661h-2.609v8.404l0.54 0.274 0.54-0.274v-2.923h1.529c0 0 2.519-0.198 2.519-2.74s-2.518-2.74-2.518-2.74zM7.852 16.137h-1.439v-3.471h1.439c0 0 1.529 0.183 1.529 1.735s-1.529 1.735-1.529 1.735z"></path>
</svg>
