<!-- Generated by IcoMoon.io -->
<svg version="1.1" xmlns="http://www.w3.org/2000/svg" width="85" height="32" viewBox="0 0 85 32">
<title>iconPay_WebMoney</title>
<path fill="#06c" d="M70.408 6.667c1.49 0 2.907 0.339 4.179 0.945 0.199 0.089 0.4 0.196 0.599 0.303l-0.872 0.767-1.307-1.337-2.253 1.961-1.326-1.409-4.142 3.655 2.652 2.87-1.035 0.891 2.617 2.87-1.035 0.891 3.742 4.083 2.215-1.997 1.926 2.14c-0.382 0.285-0.799 0.571-1.253 0.82-1.381 0.766-2.98 1.212-4.687 1.212-5.251 0-9.519-4.189-9.519-9.341-0.018-5.118 4.252-9.326 9.502-9.326zM68.664 15.421l2.271-1.997 2.035 2.229-2.271 1.997-2.035-2.229zM70.281 19.273l2.252-2.015 2.053 2.228-2.271 1.997-2.034-2.211zM67.048 11.623l2.27-1.997 2.035 2.229-2.271 1.997-2.034-2.229zM71.207 10.554l1.69-1.498 1.526 1.658-1.69 1.515-1.526-1.676zM74.223 17.418l1.689-1.498 1.526 1.676-1.69 1.499-1.526-1.677zM75.713 20.788l1.69-1.498 1.525 1.658-1.689 1.515-1.526-1.675zM76.403 13.085l1.126-0.998 1.017 1.106-1.126 0.998-1.018-1.106zM74.95 9.787l1.126-1.016 1.018 1.123-1.127 0.998-1.017-1.106zM77.838 16.384l1.126-0.998 1.035 1.106-1.144 0.998-1.018-1.106zM72.77 13.906l1.69-1.498 1.526 1.658-1.689 1.498-1.526-1.658z"></path>
<path fill="#06c" d="M31.642 17.597h-0.061l-2.653-6.795h-1.511v8.619h1.249v-6.102h0.109l2.486 6.102h0.779l2.294-6.249h0.11v6.249h1.354v-8.619h-1.511z"></path>
<path fill="#06c" d="M23.999 13.228c-0.658 0-1.279 0.256-1.644 0.45v-3.464l-1.268 0.303v8.483c0.731 0.39 1.73 0.596 2.377 0.596 1.766 0 2.862-1.106 2.862-3.379 0-1.945-0.817-2.99-2.327-2.99zM23.465 18.747c-0.305 0-0.732-0.025-1.122-0.195v-3.974c0.487-0.267 0.841-0.401 1.329-0.401 0.816 0 1.377 0.498 1.377 2.042-0.001 1.969-0.682 2.529-1.583 2.529z"></path>
<path fill="#06c" d="M12.595 17.238h-0.085l-1.694-6.43h-1.084l-1.583 6.43h-0.085l-1.365-6.43h-1.364l1.974 8.618h1.315l1.609-6.066h0.085l1.657 6.066h1.316l1.974-8.618h-1.426z"></path>
<path fill="#06c" d="M17.716 13.156c-1.828 0-2.765 1.337-2.765 3.186 0 1.921 0.841 3.185 2.887 3.185 0.878 0 1.609-0.243 2.156-0.559v-0.924c-0.669 0.401-1.279 0.631-1.937 0.631-1.255 0-1.852-0.644-1.852-2.102h3.972v-0.45c-0.001-1.981-0.939-2.966-2.461-2.966zM16.23 15.757c0.133-1.215 0.707-1.786 1.45-1.786 0.658 0 1.279 0.51 1.34 1.786h-2.789z"></path>
<path fill="#06c" d="M39.294 13.156c-1.607 0-2.778 1.057-2.778 3.185 0 2.078 1.109 3.185 2.778 3.185s2.778-1.107 2.778-3.185c-0.001-2.128-1.17-3.185-2.778-3.185zM39.294 18.675c-0.865 0-1.499-0.668-1.499-2.333 0-1.641 0.695-2.333 1.499-2.333 0.828 0 1.498 0.692 1.498 2.333 0 1.666-0.634 2.333-1.498 2.333z"></path>
<path fill="#06c" d="M58.506 13.156l-1.388 4.473h-0.073l-1.559-4.473h-1.34l2.339 6.077c-0.293 0.9-0.804 1.557-1.633 1.557v0.996c1.401 0 2.143-0.875 2.753-2.553l2.205-6.077h-1.303z"></path>
<path fill="#06c" d="M51.556 13.156c-1.828 0-2.765 1.337-2.765 3.186 0 1.921 0.841 3.185 2.887 3.185 0.877 0 1.609-0.243 2.156-0.559v-0.924c-0.669 0.401-1.279 0.631-1.936 0.631-1.255 0-1.852-0.644-1.852-2.102h3.972v-0.45c-0.001-1.981-0.939-2.966-2.462-2.966zM50.070 15.757c0.134-1.215 0.707-1.786 1.45-1.786 0.658 0 1.28 0.51 1.34 1.786h-2.789z"></path>
<path fill="#06c" d="M45.951 13.156c-1.401 0-2.558 0.571-3.107 0.9v5.324h1.267v-4.813c0.378-0.219 0.999-0.438 1.486-0.438 0.622 0 1.097 0.17 1.097 1.13v4.121h1.266v-4.401c-0.001-1.252-0.548-1.823-2.010-1.823z"></path>
</svg>
