<!-- Generated by IcoMoon.io -->
<svg version="1.1" xmlns="http://www.w3.org/2000/svg" width="85" height="32" viewBox="0 0 85 32">
<title>iconPay_PaySafeCard</title>
<path fill="#09f" d="M32.298 17.942c0 0.21-0.229 0.452-0.535 0.452h-1.247c-0.312 0-0.471-0.194-0.471-0.581v-4.821h-1.767v5.395c0 0.928 0.559 1.833 1.734 1.833h2.287v0.436c0 0.246-0.286 0.444-0.503 0.444h-3.518v1.833h4.118c0.89 0 1.655-0.657 1.655-1.971v-7.971h-1.751v4.951z"></path>
<path fill="#09f" d="M38.776 15.689h-1.567c-0.409 0-0.543-0.161-0.543-0.428s0.085-0.436 0.543-0.436h3.086v-1.833h-3.646c-1.121 0-1.719 0.578-1.719 1.623v1.365c0 0.659 0.677 1.542 1.711 1.542h1.47c0.172 0 0.393 0.103 0.393 0.407s-0.16 0.465-0.393 0.465h-3.197l0.008 1.833h3.848c0.947 0 1.533-0.987 1.533-1.697v-1.235c-0.001-0.805-0.702-1.607-1.527-1.607z"></path>
<path fill="#09f" d="M18.952 12.991h-2.518c-1.005 0-1.583 0.684-1.583 1.914v8.020h1.759v-2.706h2.382c0.989 0 1.655-0.946 1.655-1.631v-3.755c0-1.182-0.584-1.842-1.695-1.842zM18.88 17.966c0 0.202-0.187 0.436-0.464 0.436h-1.255c-0.36-0.016-0.543-0.194-0.551-0.541v-2.495c0.008-0.339 0.176-0.525 0.503-0.541h1.375c0.256 0.008 0.392 0.154 0.4 0.436l-0.008 2.706z"></path>
<path fill="#09f" d="M71.084 15.003v5.217h0.424v-5.225c0-1.099 0.463-1.623 1.447-1.623h0.543v-0.428h-0.472c-1.318 0-1.942 0.671-1.942 2.060z"></path>
<path fill="#09f" d="M69.508 14.97c0-1.025-0.429-2.027-1.852-2.027h-3.889v0.428h3.927c1.101 0 1.406 0.886 1.406 1.51v0.485h-3.51c-1.207 0.024-1.823 0.662-1.839 1.906v1.098c0 1.050 0.694 1.85 1.863 1.85h2.111c1.119 0 1.783-0.712 1.783-1.799v-3.451zM67.741 19.791h-2.159c-0.765 0-1.407-0.502-1.407-1.282v-1.254c0-0.896 0.561-1.462 1.367-1.462h3.542l0.008 2.56c0 0.797-0.356 1.438-1.351 1.438z"></path>
<path fill="#09f" d="M45.061 12.991h-3.998v1.825h3.55c0.328 0 0.479 0.121 0.479 0.396v0.186h-2.35c-1.154 0-1.711 0.589-1.711 1.72v1.478c0 1.082 0.613 1.631 1.791 1.631h2.422c0.815 0 1.591-0.603 1.591-1.696v-3.827c0.001-1.134-0.605-1.713-1.774-1.713zM45.093 18.031c0 0.228-0.168 0.363-0.471 0.363h-1.359c-0.207 0-0.463-0.153-0.463-0.363v-0.452c0-0.327 0.086-0.476 0.464-0.476h1.343c0.328 0 0.487 0.137 0.487 0.42v0.509z"></path>
<path fill="#09f" d="M25.585 12.991h-3.998v1.825h3.55c0.328 0 0.479 0.121 0.479 0.396v0.186h-2.35c-1.154 0-1.711 0.589-1.711 1.72v1.478c0 1.082 0.613 1.631 1.791 1.631h2.422c0.815 0 1.591-0.603 1.591-1.696v-3.827c0.001-1.134-0.605-1.713-1.774-1.713zM25.617 18.031c0 0.228-0.168 0.363-0.471 0.363h-1.359c-0.207 0-0.463-0.153-0.463-0.363v-0.452c0-0.327 0.086-0.476 0.464-0.476h1.343c0.328 0 0.487 0.137 0.487 0.42v0.509z"></path>
<path fill="#09f" d="M79.576 10.585v2.366h-3.31c-1.395 0-2.079 0.686-2.095 2.084v3.109c0 1.276 0.498 2.084 1.997 2.084h1.665c1.421 0 2.127-0.646 2.167-2.027v-7.616h-0.424zM79.576 18.169c0 1.023-0.673 1.623-1.871 1.623h-1.463c-0.973 0-1.655-0.371-1.655-1.356v-3.466c0-0.988 0.622-1.598 1.582-1.598h3.407v4.797z"></path>
<path fill="#09f" d="M58.489 18.161v-3.416c0-1.196 0.817-1.381 1.519-1.381h2.638v-0.428h-2.735c-0.952 0-1.838 0.487-1.838 1.808 0 1.371 0 3.482 0 3.482 0 1.196 0.644 1.995 1.949 1.995h2.664v-0.428h-2.518c-0.965 0-1.679-0.412-1.679-1.631z"></path>
<path fill="#09f" d="M55.266 12.991h-2.382c-1.093 0-1.719 0.611-1.719 1.688v3.667c0 1.067 0.523 1.882 1.806 1.882h3.951v-1.833h-3.622c-0.342 0-0.344-0.622-0.344-0.622l3.982-1.583v-1.446c-0.001-1.158-0.586-1.753-1.671-1.753zM55.138 15.18l-2.215 0.84v-0.735c0-0.21 0.235-0.468 0.567-0.468h1.231c0.277 0 0.416 0.157 0.416 0.363z"></path>
<path fill="#09f" d="M47.629 11.95v8.278h1.767v-5.403h1.247v-1.833h-1.247v-0.484c0 0 0.036-0.444 0.567-0.444h0.679v-1.769h-1.119c-1.185-0.001-1.894 0.771-1.894 1.655z"></path>
<path fill="#f33" d="M9.123 9.067c0 0-3.598-0.002-3.598 4.006 0.399-0.37 0.983-0.493 0.983-0.493s0.45-2.148 2.614-2.148 2.63 2.148 2.63 2.148 0.628 0.098 0.975 0.493c0-4.012-3.606-4.006-3.606-4.006z"></path>
<path fill="#f33" d="M11.226 12.991h-4.309c-0.975 0-1.583 0.701-1.583 1.914v3.4c0 1.107 0.502 1.914 1.583 1.914h4.309c1.111 0 1.695-0.652 1.695-1.85v-3.537c0-1.182-0.572-1.842-1.695-1.842z"></path>
</svg>
