<!-- Generated by IcoMoon.io -->
<svg version="1.1" xmlns="http://www.w3.org/2000/svg" width="85" height="32" viewBox="0 0 85 32">
<title>iconPay_YandexMoney</title>
<path fill="#f33" d="M8.741 22.363v-5.179l-3.403-9.286h1.711l2.508 7.162 2.886-8.659h1.572l-3.702 10.844v5.118h-1.572z"></path>
<path fill="#999" d="M46.441 22.363h-0.816l0.617-14.466h1.094l2.468 10.757h0.040l2.547-10.757h1.114l0.617 14.466h-0.955l-0.458-12.699h-0.060l-2.467 10.433h-0.776l-2.428-10.413h-0.060l-0.477 12.678z"></path>
<path fill="#999" d="M54.849 17.325c0-3.399 1.334-5.362 3.065-5.362s3.065 1.74 3.065 5.24c0 3.379-1.333 5.362-3.065 5.362s-3.065-1.761-3.065-5.24zM60.043 17.265c0-3.197-0.955-4.511-2.13-4.511s-2.13 1.416-2.13 4.511c0 3.177 0.955 4.532 2.13 4.532s2.13-1.457 2.13-4.532z"></path>
<path fill="#999" d="M62.798 14.918v7.445h-0.936v-10.197h0.856l0.040 1.679h0.040c0.278-0.748 1.075-1.882 2.428-1.882 1.334 0 2.109 0.85 2.109 2.468v7.931h-0.935v-7.809c0-1.214-0.438-1.78-1.354-1.78-0.994-0.001-1.75 0.85-2.248 2.145z"></path>
<path fill="#999" d="M71.431 21.736c1.333 0 2.030-1.093 2.030-1.093l0.299 0.769c0 0-0.756 1.153-2.348 1.153-2.129 0-3.105-1.963-3.105-5.301s1.234-5.301 2.926-5.301c1.731 0 2.845 1.841 2.527 5.463h-4.538c0.041 2.792 0.757 4.31 2.21 4.31zM69.242 16.678h3.643c0.159-2.711-0.637-3.925-1.652-3.925-1.054 0-1.91 1.375-1.99 3.925z"></path>
<path fill="#999" d="M74.572 25.559l-0.099-0.89c1.536 0.465 1.883-1.052 2.149-2.023l-2.488-10.48h0.935l2.070 8.963 2.030-8.963h0.836l-2.567 10.723c-0.339 1.375-0.935 2.71-2.348 2.71-0.219 0-0.378-0.020-0.517-0.041z"></path>
<path fill="#999" d="M17.839 22.363h-1.314c-0.060-0.222-0.119-0.546-0.139-0.809h-0.1c-0.438 0.566-0.995 0.951-1.871 0.951-1.433 0-2.408-1.093-2.408-3.095 0-2.185 1.094-3.561 3.901-3.561h0.219v-0.607c0-1.335-0.438-1.902-1.314-1.902-0.796 0-1.473 0.425-1.99 0.89l-0.299-1.396c0.458-0.385 1.373-0.809 2.388-0.809 1.771 0 2.747 0.769 2.747 3.237v4.795c0.001 0.971 0.1 1.821 0.179 2.306zM16.128 17.042h-0.179c-1.931 0-2.348 0.87-2.348 2.185 0 1.173 0.378 1.942 1.174 1.942 0.538 0 1.075-0.364 1.354-0.81v-3.318zM19.983 22.363h-1.552v-10.217h1.552v0.89h0.1c0.279-0.385 1.035-1.012 1.97-1.012 1.314 0 2.010 0.748 2.010 2.306v8.032h-1.572v-7.89c0-0.769-0.339-1.032-0.935-1.032-0.657 0-1.214 0.506-1.572 1.012v7.91zM24.767 17.649c0-3.783 1.393-5.625 3.403-5.625 0.478 0 0.975 0.162 1.274 0.385v-4.511h1.553v14.465h-1.155l-0.119-0.809h-0.1c-0.438 0.566-0.995 0.951-1.811 0.951-1.97 0-3.045-1.7-3.045-4.855zM29.445 13.805c-0.318-0.324-0.657-0.486-1.174-0.486-1.254 0-1.851 1.922-1.851 4.006 0 2.387 0.438 3.844 1.572 3.844 0.776 0 1.194-0.385 1.453-0.789v-6.575zM35.23 22.505c-2.070 0-3.343-1.679-3.343-4.815 0-3.278 0.895-5.665 3.025-5.665 1.671 0 2.766 1.275 2.766 4.734v0.87h-4.18c0 2.306 0.637 3.521 1.871 3.521 0.876 0 1.513-0.405 1.91-0.688l0.358 1.214c-0.637 0.506-1.413 0.829-2.408 0.829zM33.518 16.334h2.567c0-1.74-0.279-3.014-1.174-3.014-0.955 0-1.293 1.194-1.393 3.014zM43.927 12.166l-1.871 4.775 2.090 5.422h-1.612l-1.553-4.209-1.513 4.209h-1.532l2.090-5.281-1.891-4.916h1.612l1.294 3.702 1.373-3.702h1.513z"></path>
</svg>
