<!-- Generated by IcoMoon.io -->
<svg version="1.1" xmlns="http://www.w3.org/2000/svg" width="85" height="32" viewBox="0 0 85 32">
<title>iconPay_Skrill</title>
<path fill="#93c" d="M55.474 10.736c1.33 0 2.408-1.090 2.408-2.434s-1.078-2.436-2.408-2.436c-1.329 0-2.406 1.091-2.406 2.436 0 1.343 1.077 2.434 2.406 2.434v0zM34.25 16.876v-9.901l-5.039 1.007v17.947h5.039v-5.548c1.46 2.214 2.18 5.548 2.18 5.548h6.036c-0.597-2.51-3.209-7.14-3.209-7.14 2.344-3.006 3.374-6.209 3.538-6.739h-5.763c0-0.001-0.891 2.51-2.782 4.826zM50.281 11.863c-4.514 0.147-6.805 2.195-6.805 6.266v7.8h4.924v-6.361c0-2.438 0.316-3.483 3.176-3.583v-4.051c-0.481-0.103-1.295-0.071-1.295-0.071zM18.712 12.59c0-1.57 2.058-1.57 2.829-1.57 1.357 0 3.114 0.405 4.369 0.785l1.351 0.521v-4.3c0 0-2.394-1.051-6.472-1.051-5.506 0.001-7.457 3.244-7.457 6.023 0 1.602 0.679 5.372 6.983 5.806 0.534 0.033 1.953 0.116 1.953 1.461 0 1.11-1.161 1.765-3.115 1.765-2.14 0-4.217-0.552-5.478-1.076v4.429c1.888 0.501 4.017 0.751 6.511 0.751 5.383 0 7.794-3.069 7.794-6.11 0-3.449-2.698-5.69-7.224-5.996 0-0.001-2.046 0.027-2.046-1.436zM53.033 25.929h4.885v-13.863h-4.885v13.863zM67.115 25.929h4.885v-18.955l-4.885 0.884v18.071zM64.867 6.975v18.955h-4.881v-18.071l4.881-0.884z"></path>
</svg>
