<!-- Generated by IcoMoon.io -->
<svg version="1.1" xmlns="http://www.w3.org/2000/svg" width="85" height="32" viewBox="0 0 85 32">
<title>iconPay_Trustly</title>
<path fill="#999" d="M35.133 11.679h-8.060c-0.42 0-0.69 0.046-0.69 0.408v1.872c0 0.212 0 0.393 0.42 0.393h2.026c0.239 0 0.345 0.045 0.345 0.287v7.596c0 0.438 0.165 0.499 0.765 0.499h2.162c0.54 0 0.765-0.106 0.765-0.499v-7.596c0-0.242 0.105-0.287 0.345-0.287h2.192c0.42 0 0.42-0.181 0.42-0.393v-1.872c0.001-0.362-0.27-0.408-0.69-0.408z"></path>
<path fill="#999" d="M41.916 14.596h-3.286c-1.878 0-2.267 0.841-2.267 1.786v5.642c0 0.393 0.165 0.709 0.735 0.709h2.011c0.556 0 0.54-0.423 0.54-0.815v-3.61c0-0.687 0.227-1.359 2.267-1.359 0.255 0 0.345-0.166 0.345-0.347v-1.749c0-0.257-0.225-0.257-0.345-0.257z"></path>
<path fill="#999" d="M50.441 14.61h-2.011c-0.556 0-0.54 0.423-0.54 0.816v3.775c0 0.348-0.151 0.725-0.631 0.725-0.465 0-0.585-0.393-0.585-0.756v-3.926c0-0.378-0.36-0.635-0.735-0.635h-2.101c-0.42 0-0.585 0.393-0.585 0.816v4.908c0 1.933 1.139 2.417 2.174 2.417h3.883c0.57 0 1.866-0.314 1.866-2.441v-4.99c0.001-0.393-0.165-0.71-0.735-0.71z"></path>
<path fill="#999" d="M56.759 17.238c-0.45-0.211-0.735-0.378-0.735-0.513 0-0.257 0.225-0.347 0.735-0.347 0.495 0 1.411 0.165 1.682 0.181 0.404 0.015 0.705-1.888 0.42-1.994-0.226-0.091-0.69-0.257-2.266-0.257-1.981 0-4.037 0.725-4.037 2.552 0 1.782 1.516 2.371 2.491 2.794 0.451 0.197 0.811 0.347 0.811 0.558 0 0.317-0.375 0.408-1.036 0.408-1.246 0-1.801-0.197-2.131-0.272-0.451-0.106-0.315 2.039-0.165 2.114 0.33 0.167 1.976 0.484 3.347 0.484s3.542-0.301 3.542-2.658c-0.001-1.812-1.637-2.583-2.658-3.051z"></path>
<path fill="#999" d="M65.163 14.626h-0.946v-1.435c0-0.423 0-0.635-0.585-0.543l-1.726 0.286c-0.359 0.060-0.735 0.257-0.735 0.634v1.057h-0.555c-0.421 0-0.556 0.166-0.556 0.589v0.982c0 0.378 0.075 0.619 0.451 0.619h0.495c0 0 0 3.023 0 3.941 0 0.907 0.555 2.19 2.536 2.19 0.78 0 1.636-0.182 1.861-0.287 0.15-0.076-0.092-2.18-0.3-2.129-0.292 0.073-0.78-0.015-0.78-0.393v-3.278c0 0 0.619 0 0.916 0s0.403-0.14 0.403-0.633v-0.861c0-0.377-0.104-0.739-0.48-0.739z"></path>
<path fill="#999" d="M70.132 22.367c0 0.267-0.216 0.483-0.483 0.483h-2.322c-0.267 0-0.483-0.216-0.483-0.483v-10.385c0-0.267 0.216-0.483 0.483-0.483h2.322c0.267 0 0.483 0.216 0.483 0.483v10.385z"></path>
<path fill="#999" d="M79.466 14.609h-1.846c-0.3 0-0.585 0.302-0.705 0.604l-1.23 3.081-1.081-3.081c-0.105-0.302-0.405-0.604-0.706-0.604h-2.446c-0.465 0-0.6 0.182-0.465 0.529l2.972 7.401-1.126 2.687c-0.149 0.347-0.074 0.528 0.466 0.528h1.695c0.3 0 0.567-0.328 0.705-0.604l4.233-10.012c0.15-0.347 0.075-0.529-0.466-0.529z"></path>
<path fill="#0c0" d="M23.283 11.671l-2.465 0.007v-1.652c0-3.105-2.567-5.759-5.724-5.759s-5.709 2.655-5.709 5.759v1.652l-2.465-0.007c-1.583 0-1.8 0.812-1.369 2.245l1.626 7.327c0.293 1.139 0.693 1.482 2.010 1.482h11.829c1.317 0 1.717-0.343 2.010-1.482l1.626-7.327c0.431-1.434 0.214-2.245-1.369-2.245zM18.778 11.671h-7.353c0 0 0-0.738 0-1.813 0-1.84 1.458-3.702 3.676-3.707 2.218 0.005 3.676 1.867 3.676 3.707 0 1.075 0 1.813 0 1.813z"></path>
<path fill="#0c0" d="M13.541 25.453c0 1.262-1.023 2.285-2.285 2.285s-2.285-1.023-2.285-2.285c0-1.262 1.023-2.285 2.285-2.285s2.285 1.023 2.285 2.285z"></path>
<path fill="#0c0" d="M21.231 25.453c0 1.262-1.023 2.285-2.285 2.285s-2.285-1.023-2.285-2.285c0-1.262 1.023-2.285 2.285-2.285s2.285 1.023 2.285 2.285z"></path>
<path fill="#eee" d="M17.575 15.227c0 0.112 0 0.207-0.222 0.207h-1.153c-0.127 0-0.182 0.024-0.182 0.152v3.998c0 0.207-0.118 0.262-0.403 0.262h-1.139c-0.316 0-0.403-0.031-0.403-0.262v-3.998c0-0.128-0.055-0.152-0.181-0.152h-1.067c-0.221 0-0.221-0.095-0.221-0.207v-0.986c0-0.191 0.142-0.214 0.363-0.214h4.243c0.222 0 0.363 0.024 0.363 0.214l0.001 0.986z"></path>
</svg>
