<!-- Generated by IcoMoon.io -->
<svg version="1.1" xmlns="http://www.w3.org/2000/svg" width="85" height="32" viewBox="0 0 85 32">
<title>iconPay_Poli</title>
<path fill="#999" d="M52.331 7.131v19.405h12.593v-6.030h-6.603v-13.375z"></path>
<path fill="#999" d="M66.010 7.131h5.99v5.223h-5.99v-5.223z"></path>
<path fill="#999" d="M66.010 13.611h5.99v12.925h-5.99v-12.925z"></path>
<path fill="#06c" d="M40.477 4.8l-0.249 1.222c-3.353 0-9.996 2.942-11.167 9.849-1.384 8.162 4.973 11.329 9.126 11.329 7.106 0 11.776-5.525 12.436-10.204 1.128-7.998-5.281-10.155-5.281-10.155s1.684 0.879 2.674 2.284c-1.114-1.159-2.854-1.743-2.854-1.743s1.618 0.83 2.584 2.255c-1.090-1.18-2.75-1.73-2.75-1.73s1.537 0.796 2.481 2.241c-1.067-1.2-2.647-1.716-2.647-1.716s1.457 0.762 2.377 2.227c-1.044-1.22-2.543-1.702-2.543-1.702s1.376 0.727 2.273 2.213c-1.021-1.241-2.439-1.688-2.439-1.688s1.295 0.693 2.169 2.199c-0.997-1.26-2.336-1.674-2.336-1.674s1.215 0.659 2.066 2.186c-0.974-1.281-2.232-1.66-2.232-1.66s1.134 0.625 1.962 2.172c-0.951-1.301-2.129-1.646-2.129-1.646s1.054 0.591 1.858 2.158c-0.928-1.321-2.024-1.662-2.024-1.662s2.877 1.885 1.946 5.802c-0.627 2.635-3.477 5.305-6.913 5.305-3.787 0-5.709-3.019-5.265-6.148 0.505-3.549 3.981-5.911 5.948-5.911l-0.207 1.098 5.133-2.859-3.995-4.041z"></path>
<path fill="#999" d="M21.79 7.131h-8.457v19.405h5.921v-5.961h2.535c1.734 0 6.414-0.696 6.414-6.819s-4.863-6.626-6.414-6.626zM20.051 16.996h-0.748v-6.287h0.748c1.636 0 2.184 0.575 2.184 3.046s-0.288 3.241-2.184 3.241z"></path>
</svg>
