<?xml version="1.0" encoding="utf-8"?>
<!-- Generator: Adobe Illustrator 21.0.0, SVG Export Plug-In . SVG Version: 6.00 Build 0)  -->
<svg version="1.1" id="Слой_1" xmlns="http://www.w3.org/2000/svg" xmlns:xlink="http://www.w3.org/1999/xlink" x="0px" y="0px"
	 width="7px" height="10px" viewBox="0 0 7 10" style="enable-background:new 0 0 7 10;" xml:space="preserve">
<style type="text/css">
	.st0{fill-rule:evenodd;clip-rule:evenodd;fill:#FFB400;}
	.st1{fill-rule:evenodd;clip-rule:evenodd;fill:#FF7E00;}
	.st2{fill-rule:evenodd;clip-rule:evenodd;fill:#FFFF00;}
</style>
<g id="pbar_x5F_on">
	<path class="st0" d="M3,0h2c1.1,0,2,0.9,2,2v6c0,1.1-0.9,2-2,2H3c-1.1,0-2-0.9-2-2V2C1,0.9,1.9,0,3,0z"/>
	<path class="st1" d="M5,8H3C1.9,8,1,7.1,1,6v2c0,1.1,0.9,2,2,2h2c1.1,0,2-0.9,2-2V6C7,7.1,6.1,8,5,8z"/>
	<path class="st2" d="M5,0H3C1.9,0,1,0.9,1,2v2c0-1.1,0.9-2,2-2h2c1.1,0,2,0.9,2,2V2C7,0.9,6.1,0,5,0z"/>
</g>
</svg>
