<?xml version="1.0" encoding="utf-8"?>
<!-- Generator: Adobe Illustrator 21.0.0, SVG Export Plug-In . SVG Version: 6.00 Build 0)  -->
<svg version="1.1" id="Слой_1" xmlns="http://www.w3.org/2000/svg" xmlns:xlink="http://www.w3.org/1999/xlink" x="0px" y="0px"
	 width="28px" height="16px" viewBox="0 0 28 16" style="enable-background:new 0 0 28 16;" xml:space="preserve">
<style type="text/css">
	.st0{fill-rule:evenodd;clip-rule:evenodd;fill:#12100C;}
	.st1{fill-rule:evenodd;clip-rule:evenodd;}
	.st2{fill-rule:evenodd;clip-rule:evenodd;fill:#231F1D;}
	.st3{fill-rule:evenodd;clip-rule:evenodd;fill:#2D2926;}
</style>
<g id="ornament_x5F_line03">
	<rect class="st0" width="28" height="16"/>
	<path class="st1" d="M13,16L0,16v-2h11V8H5V6h8V16z M28,16l-13,0l0-10h8v2h-6v6h11V16z M27,12h-8v-2h6V4H3v6h6v2H1V2h26L27,12z"/>
	<path class="st2" d="M13,15L0,15v-2h11V7H5V5h8V15z M28,15l-13,0l0-10h8v2h-6v6h11V15z M27,11h-8V9h6V3H3v6h6v2H1V1h26L27,11z"/>
	<path class="st3" d="M27,2H1V1h26V2z M13,5H5v1h8V5z M23,5h-8v1h8V5z M25,9h-6v1h6V9z M9,9H3v1h6V9z M0,14h11v-1H0V14z M28,13H17v1
		h11V13z"/>
</g>
</svg>
