<?xml version="1.0" encoding="utf-8"?>
<!-- Generator: Adobe Illustrator 21.0.0, SVG Export Plug-In . SVG Version: 6.00 Build 0)  -->
<svg version="1.1" id="Layer_1__x28_копия_x29_"
	 xmlns="http://www.w3.org/2000/svg" xmlns:xlink="http://www.w3.org/1999/xlink" x="0px" y="0px" width="122px" height="77px"
	 viewBox="0 0 122 77" style="enable-background:new 0 0 122 77;" xml:space="preserve">
<style type="text/css">
	.st0{fill:#33CC33;}
	.st1{fill:#26253E;}
	.st2{fill:#D1D1D4;}
</style>
<g id="Logo">
	<path id="line" class="st0" d="M113.8,77H46.3c-0.7,0-1.2-0.7-0.9-1.3l5.8-17.3c0.3-0.8,1-1.4,1.9-1.4h67.5c0.7,0,1.2,0.7,0.9,1.3
		l-5.8,17.3C115.4,76.4,114.7,77,113.8,77z"/>
	<path id="sport" class="st1" d="M62.8,68L61,67.2c0,0-2-0.6-1.2-3.1c0.9-2.6,2.5-3,5.1-3s3.5,0,3.5,0l-0.6,2.3H64
		c0,0-1.2-0.1-1.4,0.7c-0.2,0.6,0.7,0.9,0.7,0.9l1.7,0.8c0,0,2.1,0.6,1.2,3.2c-1,2.9-3.1,3.1-5.1,3.1s-3.7,0-3.7,0l0.7-2.5h3.8
		c0,0,1.2,0.1,1.4-0.6C63.5,68.2,62.8,68,62.8,68z M67.2,72l3.6-11c0,0,1.4,0,4.5,0s3.1,1.5,2.4,3.6c-0.7,2.1-1.5,3.6-4.8,3.6
		c-0.8,0-1.7-0.1-1.7-0.1L70,72H67.2z M71.9,66.1h1.6c0,0,0.9-0.1,1.4-1.5c0.5-1.4-0.4-1.5-0.4-1.5h-1.6L71.9,66.1z M85.3,61
		c4.1,0,3.6,2.6,2.7,5.5c-1,2.9-2.1,5.5-6.3,5.5S78,69.5,79,66.5C80,63.5,81.2,61,85.3,61z M84.6,63.2c-1.5,0-2,1.3-2.7,3.3
		s-1,3.3,0.5,3.3c1.5,0,2.1-1.3,2.7-3.3C85.8,64.5,86.1,63.2,84.6,63.2z M96.3,72h-2.7l0.4-3.3c0,0,0.2-0.8-0.6-0.8h-1.2L90.9,72
		h-2.5l3.6-11c0,0,1.3,0,3.8,0c2.5,0,3.7,0.6,2.8,3.3s-2.7,2.6-2.7,2.6l0,0.1c1.1,0,0.9,1.7,0.9,1.7L96.3,72z M92.9,65.8h1.2
		c0.7,0,1.3,0,1.7-1.3c0.4-1.3-0.2-1.3-0.9-1.3h-1.2L92.9,65.8z M108.7,63.3H106l-2.9,8.7h-2.6l2.9-8.7h-2.7l0.8-2.3h8L108.7,63.3z"
		/>
	<path id="zigzag" class="st2" d="M36.7,33.7c1,0,3.4,3.1,3.4,3.1l-1.5,3.2l-4.3-0.9C34.4,39.1,35.7,33.7,36.7,33.7z M56.5,40.5
		c0,0-4.1,4-6.9,9.9c-3.4,7.2-5.8,17.1-5.8,17.1H39c0,0,1.7-8.6,4.9-17.5c-1,0.2-2.8-0.3-3.3-1.3C38.8,51.2,38,52,38,52
		s-3.3-0.2-4.8-1.2C15.2,56.5,3.8,69.2,3.8,69.2l-3.6-0.9c0,0,8-13.5,29.5-36.5C17,37.4,5,45,5,45v-6c0,0,5.6-3.7,21.7-11.3
		C38.5,22.1,47,15,47,15v7c0,0-9.5,6.4-14.6,11.9C26.5,40.2,17,52.6,17,52.6s6-3.4,14.4-5.5c0.2-3.4,2.4-6.5,2.4-6.5l4.3,0.9
		c0,0-1,3.3-0.9,4.9c0.7-0.8,2.3-2.8,2.5-3c0.3-0.8,2.7-5.5,4.2-5.8c1.2-0.2,3.7,1.1,3.7,1.1s1.9-1.1,2.7-1c0.5,0.1,2.6,2.1,2.6,2.1
		l2.1-1.8L56.5,40.5z M48.6,41.3c0,0-3.1-1.1-3.6-0.5c-1.6,1.8-2.7,4.6-2.4,5.6c0.2,0.6,2.5,0.8,2.5,0.8S46.3,44.5,48.6,41.3z
		 M115.1,19.7l-2.1,1.8c0,0-2.1-2.1-2.6-2.1c-0.8-0.1-2.7,1-2.7,1s-2.5-1.3-3.7-1.1c-1.5,0.3-4.2,5.9-4.3,6.1
		c-0.4,0.6-3.1,3.1-3.1,3.1s1.5-3.5,1.4-3.7c-0.8-0.8-1.7-1.4-2.4-1.6C94.8,23,93.4,24,93.4,24S91,22.9,89,23.2
		c-1,0.1-4.9,6.2-4.4,9.4c-8,2.1-13.3,5.2-13.3,5.2s9.5-12.4,15.3-18.7c5.1-5.5,14.6-11.9,14.6-11.9v-7c0,0-8.5,7.1-20.3,12.7
		c-16.1,7.6-21.7,11.3-21.7,11.3v6c0,0,12-7.6,24.7-13.2c-21.5,23-29.5,36.5-29.5,36.5l3.6,0.9c0,0,11.9-13.2,30.7-18.8
		c0.9,0.6,4.4,0.4,5.2-0.1c0.5-0.4,1.1-2.3,1.1-2.3s1.9,0.5,2.5,0.1c1.1-0.7,2-2.5,2.3-3.1c1.3,1.4,2.9,1.7,3.8,1.5
		c-3.2,8.9-4.9,17.5-4.9,17.5h4.9c0,0,2.4-9.9,5.8-17.1c2.8-5.9,6.9-9.9,6.9-9.9L115.1,19.7z M91.1,32.4c0,0-2.9,0-3-0.6
		c-0.4-1.5,0.5-4,2.1-5.6c0.5-0.5,3.1,0.2,3.1,0.2L91.1,32.4z M105.1,29c0,0-2.3-0.2-2.5-0.8c-0.3-1,0.8-3.8,2.4-5.6
		c0.5-0.5,3.6,0.5,3.6,0.5C106.3,26.3,105.1,29,105.1,29z"/>
</g>
</svg>
