<?xml version="1.0" encoding="utf-8"?>
<!-- Generator: Adobe Illustrator 21.0.0, SVG Export Plug-In . SVG Version: 6.00 Build 0)  -->
<svg version="1.1" id="Layer_1" xmlns="http://www.w3.org/2000/svg" xmlns:xlink="http://www.w3.org/1999/xlink" x="0px" y="0px"
	 viewBox="0 0 180 70" style="enable-background:new 0 0 180 70;" xml:space="preserve">
<style type="text/css">
	.st0{fill:#EEEEEE;}
	.st1{fill:#0099FF;}
</style>
<g id="Betradar" transform="translate(620.000000, 1151.000000)">
	<path id="Fill-1" class="st0" d="M-610-1126.9h2.3v7.6h0.1c0.5-1.4,1.8-2.1,4.4-2.1h3.5c5.6,0,7.3,1.6,7.3,6v2.4
		c0,4.7-2.9,5.8-7.2,5.8h-3.2c-2.4,0-4.3-0.7-5-2.4h-0.1v2.2h-2.2V-1126.9z M-594.7-1115.6c0-3.2-1.6-3.8-4.8-3.8h-3.1
		c-3.1,0-5,0.5-5,3.8v2.6c0,2.5,1.1,4,4.6,4h3.8c3.8,0,4.6-1.3,4.6-3.9V-1115.6z"/>
	<path id="Fill-3" class="st0" d="M-561.2-1119.2h-3v-1.9h3v-3.3h2.3v3.3h9.2v1.9h-9.2v6.9c0,2.6,0.9,3.3,3.4,3.3h0.7
		c3.1,0,3.6-0.6,3.6-3.5v-1h1.9v1.5c0,2.8-0.3,4.9-5.3,4.9h-1.3c-4.3,0-5.4-2.1-5.4-4.3V-1119.2z"/>
	<path id="Fill-5" class="st0" d="M-546.3-1121.1h4.9v2.6h0.1c0.6-2.2,2.7-2.8,5-2.8c3.8,0,5.3,1.6,5.3,5.4c0,0.4,0,0.7-0.1,1.2
		h-4.5c0-1.8-0.4-2.6-2.5-2.6c-1.8,0-3,0.7-3,2.3v7.6h-5.2V-1121.1z"/>
	<path id="Fill-7" class="st0" d="M-529.2-1112.1c0-3.8,2.6-4,7.6-4c2.8,0,4.4,0.1,5.4,1.1v-1.2c0-1.3-0.4-1.8-2.4-1.8h-3
		c-1.5,0-1.9,0.1-2,1.1h-5c0-3.7,1.8-4.3,6.2-4.3h6c3.6,0,5.5,1.7,5.5,4.9v9h-4.9v-1.6c-1.4,1.5-2,1.8-4.6,1.8h-3.5
		c-3.2,0-5.2-0.7-5.2-3.9V-1112.1z M-520-1110.3c3.6,0,3.9-0.5,3.9-1.5c0-1-0.3-1.4-3.2-1.4h-2.3c-2.2,0-2.6,0.5-2.6,1.6
		c0,0.9,0.7,1.2,2.7,1.2H-520z"/>
	<path id="Fill-9" class="st0" d="M-508.4-1115.4c0-3.5,0.8-5.9,7.4-5.9h1.5c2.1,0,4.3,0.6,4.6,2.8h0.1v-8.3h5.2v19.5h-4.9v-2.5
		h-0.1c-0.6,1.7-1.9,2.8-5,2.8h-1.5c-6.6,0-7.4-2.3-7.4-5.9V-1115.4z M-503.4-1113.4c0,1.5,0.2,2.4,2.7,2.4h3c2.1,0,3.1-0.5,3.1-2.5
		v-1.3c0-2.1-1.1-2.5-3.1-2.5h-3c-2.5,0-2.7,0.9-2.7,2.4V-1113.4z"/>
	<path id="Fill-11" class="st0" d="M-486.7-1112.1c0-3.8,2.6-4,7.6-4c2.8,0,4.4,0.1,5.4,1.1v-1.2c0-1.3-0.4-1.8-2.4-1.8h-3
		c-1.5,0-1.9,0.1-2,1.1h-5c0-3.7,1.8-4.3,6.2-4.3h6c3.6,0,5.5,1.7,5.5,4.9v9h-4.9v-1.6c-1.4,1.5-2,1.8-4.6,1.8h-3.5
		c-3.2,0-5.2-0.7-5.2-3.9V-1112.1z M-477.5-1110.3c3.6,0,3.9-0.5,3.9-1.5c0-1-0.3-1.4-3.2-1.4h-2.3c-2.2,0-2.6,0.5-2.6,1.6
		c0,0.9,0.7,1.2,2.7,1.2H-477.5z"/>
	<path id="Fill-13" class="st0" d="M-465.2-1121.1h4.9v2.6h0.1c0.6-2.2,2.7-2.8,5-2.8c3.8,0,5.3,1.6,5.3,5.4c0,0.4,0,0.7-0.1,1.2
		h-4.5c0-1.8-0.4-2.6-2.5-2.6c-1.8,0-3,0.7-3,2.3v7.6h-5.2V-1121.1z"/>
	<path id="Fill-15" class="st1" d="M-576.4-1119.4h-3.4c-3.7,0-4.5,0.6-4.7,3.7h13v-0.9C-571.6-1118-572.6-1119.4-576.4-1119.4"/>
	<path id="Fill-17" class="st1" d="M-575.9-1123.3h-4.2c-5.6,0-9.7,1.3-9.7,7.1v3.9c0,5.8,4.1,7.1,9.7,7.1h4.2
		c5.6,0,9.7-1.3,9.7-7.1v-3.9C-566.2-1122-570.3-1123.3-575.9-1123.3L-575.9-1123.3z M-569.3-1113.8h-15.3v0.9
		c0,3.1,1.5,3.9,5.6,3.9h3.2c2.9,0,4.1-0.4,4.2-2.5h2.3v0.3c0,3.2-2.6,4.1-6.9,4.1h-4.2c-3,0-6.5-0.6-6.5-5.6v-3
		c0-5,3.5-5.6,6.7-5.6h3.7c4.2,0,7.2,1.1,7.2,6V-1113.8z"/>
</g>
</svg>
