<?xml version="1.0" encoding="utf-8"?>
<!-- Generator: Adobe Illustrator 17.0.0, SVG Export Plug-In . SVG Version: 6.00 Build 0)  -->
<!DOCTYPE svg PUBLIC "-//W3C//DTD SVG 1.1//EN" "http://www.w3.org/Graphics/SVG/1.1/DTD/svg11.dtd">
<svg version="1.1" id="Layer_1" xmlns="http://www.w3.org/2000/svg" xmlns:xlink="http://www.w3.org/1999/xlink" x="0px" y="0px"
	 width="180px" height="70px" viewBox="0 0 180 70" enable-background="new 0 0 180 70" xml:space="preserve">
<g id="BigTimeGaming">
	<path id="Path_141_" fill="#EEEEEE" d="M161.87,45.979l1.362-1.68c0,0,1.06,1.034,2.517,1.034c0.767,0,2.138-0.224,2.138-1.034
		s-1.147-0.948-2.414-0.732c-1.267,0.215-3.302,0.181-3.302-1.508c0-0.982,1.233-1.542,1.233-1.542s-1.578-0.87-1.578-2.903
		c0-2.137,1.862-3.42,3.759-3.42c1.31,0,2.078,0.465,2.078,0.465l0.845-0.982L170,35.028l-1.026,0.75c0,0,0.535,0.629,0.535,1.913
		c0,2.524-2.009,3.455-3.061,3.455c-0.616,0-1.276-0.086-1.276-0.086s-1.037,0.253-0.879,0.672c0.207,0.551,1.288-0.034,2.793-0.034
		c1.793,0,2.914,0.896,2.914,2.542c0,1.611-1.517,2.99-4.208,2.99C163.275,47.228,161.87,45.979,161.87,45.979z M164.025,37.622
		c0,0.991,0.681,1.809,1.673,1.809s1.595-0.818,1.595-1.809c0-0.991-0.69-1.663-1.595-1.663
		C164.793,35.959,164.025,36.631,164.025,37.622z"/>
	<path id="Path_140_" fill="#EEEEEE" d="M158.741,43.609v-5.333c0-0.939-0.121-2.266-1.931-2.266c-1.069,0-1.854,0.93-1.854,0.93
		v6.668H152.8v-9.227h1.552l0.397,0.862c0,0,0.629-1.034,2.595-1.034c3.052,0,3.552,2.369,3.552,3.739v5.66H158.741z"/>
	<path id="Path_139_" fill="#EEEEEE" d="M149.585,43.609v-7.461h-1.181v-1.766h3.362v9.227H149.585z"/>
	<path id="Path_138_" fill="#FF3333" d="M148.404,32.978v-1.99h3.362v1.99H148.404z"/>
	<path id="Path_137_" fill="#EEEEEE" d="M145.731,43.609v-5.781c0,0,0.164-1.818-1.629-1.818c-1.017,0-1.56,0.939-1.56,0.939v6.66
		h-2.155v-6.117c0,0,0.043-1.482-1.612-1.482c-0.897,0-1.578,0.965-1.578,0.965v6.634h-2.155v-9.227h1.483l0.44,0.81
		c0,0,0.707-0.982,2.319-0.982c2.112,0,2.767,0.999,2.767,0.999s0.793-0.999,2.578-0.999c3.259,0,3.259,3.162,3.259,3.162v6.238
		H145.731z"/>
	<path id="Path_136_" fill="#EEEEEE" d="M131.842,42.687c0,0-0.664,1.094-2.543,1.094c-1.276,0-3.199-0.482-3.199-2.86
		c0-2.654,2.509-3.412,4.212-3.412c1.052,0,1.306,0.129,1.306,0.129s0.164-1.628-2.061-1.628c-1.293,0-2.035,0.405-2.035,0.405
		l-0.466-1.671c0,0,0.862-0.534,2.647-0.534c3.888,0,4.078,2.455,4.078,4.601v1.973c0,1.947,0.741,2.318,0.741,2.318
		s-0.259,0.681-1.345,0.681C132.247,43.782,131.842,42.687,131.842,42.687z M131.635,39.267c-2.371-0.358-3.38,0.465-3.38,1.559
		s1.112,1.37,1.803,1.241C131.515,41.795,131.635,41.266,131.635,39.267z"/>
	<path id="Path_135_" fill="#FF3333" d="M124.833,32.013l-0.94,1.801c0,0-1.414-1.051-2.647-1.051c-1.854,0-4.018,1.215-4.018,4.644
		s2.302,4.428,3.931,4.428c1.216,0,1.974-0.655,1.974-0.655v-2.481h-1.75v-1.913h3.992v5.652c0,0-1.621,1.387-4.578,1.387
		c-3.664,0-5.897-2.628-5.897-6.479c0-4.282,2.854-6.574,6.397-6.574C123.548,30.772,124.833,32.013,124.833,32.013z"/>
	<path id="Path_134_" fill="#EEEEEE" d="M113.401,39.655h-6.595c0.04,0.736,0.468,2.326,2.638,2.326
		c1.517,0,2.242-0.767,2.242-0.767l0.836,1.646c0,0-0.922,0.922-3.397,0.922c-2.474,0-4.569-1.43-4.569-4.687
		c0-2.619,1.767-4.885,4.587-4.885c3.492,0,4.44,2.645,4.44,4.247C113.582,38.94,113.401,39.655,113.401,39.655z M106.883,38.035
		h4.535c0,0-0.026-2.025-2.242-2.025C107.168,36.01,106.883,38.035,106.883,38.035z"/>
	<path id="Path_133_" fill="#EEEEEE" d="M101.538,43.609v-5.781c0,0,0.164-1.818-1.629-1.818c-1.017,0-1.56,0.939-1.56,0.939v6.66
		h-2.155v-6.117c0,0,0.043-1.482-1.612-1.482c-0.897,0-1.578,0.965-1.578,0.965v6.634h-2.155v-9.227h1.483l0.44,0.81
		c0,0,0.707-0.982,2.319-0.982c2.112,0,2.767,0.999,2.767,0.999s0.793-0.999,2.578-0.999c3.259,0,3.259,3.162,3.259,3.162v6.238
		H101.538z"/>
	<path id="Path_132_" fill="#EEEEEE" d="M87.666,43.609v-7.461h-1.181v-1.766h3.362v9.227H87.666z"/>
	<path id="Path_131_" fill="#FF3333" d="M86.485,32.978v-1.99h3.362v1.99H86.485z"/>
	<path id="Path_130_" fill="#FF3333" d="M82.347,32.978v10.631h-2.242V32.978h-4.018v-1.99h9.742v1.99H82.347z"/>
	<path id="Path_129_" fill="#EEEEEE" d="M67.751,45.979l1.362-1.68c0,0,1.06,1.034,2.517,1.034c0.767,0,2.138-0.224,2.138-1.034
		s-1.147-0.948-2.414-0.732c-1.267,0.215-3.302,0.181-3.302-1.508c0-0.982,1.233-1.542,1.233-1.542s-1.578-0.87-1.578-2.903
		c0-2.137,1.862-3.42,3.759-3.42c1.31,0,2.078,0.465,2.078,0.465l0.845-0.982l1.491,1.353l-1.026,0.75c0,0,0.535,0.629,0.535,1.913
		c0,2.524-2.009,3.455-3.061,3.455c-0.616,0-1.276-0.086-1.276-0.086s-1.037,0.253-0.879,0.672c0.207,0.551,1.288-0.034,2.793-0.034
		c1.793,0,2.914,0.896,2.914,2.542c0,1.611-1.517,2.99-4.208,2.99C69.156,47.228,67.751,45.979,67.751,45.979z M69.906,37.622
		c0,0.991,0.681,1.809,1.673,1.809s1.595-0.818,1.595-1.809c0-0.991-0.69-1.663-1.595-1.663S69.906,36.631,69.906,37.622z"/>
	<path id="Path_128_" fill="#EEEEEE" d="M64.802,43.609v-7.461h-1.181v-1.766h3.362v9.227H64.802z"/>
	<path id="Path_127_" fill="#FF3333" d="M63.621,32.978v-1.99h3.362v1.99H63.621z"/>
	<path id="Path_126_" fill="#FF3333" d="M58.683,43.609h-4.105V30.996c0,0,2.224-0.121,3.578-0.121c3.302,0,4.181,1.723,4.181,3.239
		c0,1.637-1.586,2.369-1.586,2.369s2.354,0.543,2.354,3.377C63.104,43.609,58.683,43.609,58.683,43.609z M56.819,32.788v3.024
		c0,0,0.776,0.043,1.431,0.026c0.655-0.017,1.845-0.327,1.845-1.637c0-1.275-1.086-1.413-1.707-1.447
		C57.924,32.728,56.819,32.788,56.819,32.788z M56.819,37.561v4.17c0,0,1.173,0.138,1.862,0.034c0.69-0.103,2.095-0.345,2.095-2.171
		s-1.423-1.93-2.009-2.033C58.181,37.458,56.819,37.561,56.819,37.561z"/>
	<path id="Path_125_" fill="#FF3333" d="M30.008,15C18.951,15,10,23.981,10,35.048c0,4.436,1.436,8.525,3.865,11.847
		c1.233-0.516,3.853-1.487,6.342-1.583c3.279-0.12,6.474,0.312,9.178,0.695c4.571,0.635,11.775,2.326,17.579-0.3
		c1.939-3.094,3.063-6.739,3.063-10.659C50.015,23.981,41.053,15,30.008,15z"/>
	<path id="Path_124_" fill="#FF3333" d="M17.611,50.803c3.256,2.509,6.399,3.744,10.303,4.197
		C24.354,52.312,21.445,50.891,17.611,50.803z"/>
	<path id="Path_123_" fill="#FF3333" d="M24.826,46.331c5.828,1.341,12.005,4.748,18.093,4.053c1.745-1.384,3.363-3.645,3.363-3.645
		c-3.072,1.418-7.872,1.34-11.296,0.98C31.076,47.308,26.902,46.331,24.826,46.331z"/>
	<path id="Path_122_" fill="#FF3333" d="M20.949,47.53c4.984,1.454,10.3,5.517,13.366,7.098c3.391-0.706,5.852-2.314,5.852-2.314
		C33.782,51.953,26.761,47.734,20.949,47.53z"/>
	<polygon id="Path_121_" fill="#EEEEEE" points="44.343,26.99 44.954,27.95 45.037,26.799 46.15,26.523 45.097,26.091 
		45.169,24.952 44.439,25.827 43.374,25.408 43.984,26.367 43.242,27.266 	"/>
	<polygon id="Path_120_" fill="#EEEEEE" points="14.942,26.799 15.026,27.95 15.636,26.99 16.737,27.266 15.995,26.367 
		16.605,25.408 15.54,25.827 14.81,24.952 14.882,26.091 13.829,26.523 	"/>
	<polygon id="Path_119_" fill="#EEEEEE" points="26.837,25.408 29.996,23.141 33.155,25.408 31.958,21.643 35.105,19.376 
		31.216,19.341 29.996,15.647 28.775,19.341 24.874,19.388 28.033,21.643 	"/>
	<polygon id="Path_118_" fill="#EEEEEE" points="19.968,25.432 21.368,24.137 23.043,25.036 22.23,23.273 23.63,21.978 
		21.739,22.206 20.913,20.492 20.542,22.362 18.64,22.626 20.315,23.525 	"/>
	<polygon id="Path_117_" fill="#EEEEEE" points="36.912,25.036 38.588,24.137 39.988,25.432 39.641,23.525 41.316,22.626 
		39.425,22.362 39.054,20.492 38.229,22.206 36.338,21.99 37.726,23.273 	"/>
	<path id="Path_116_" fill="#EEEEEE" d="M40.287,37.242h1.939v2.742c0,0-0.606,0.492-2.142,0.492c-2.443,0-4.033-1.62-4.033-4.972
		c0-2.481,1.272-5.024,4.087-5.024c2.243,0,3.524,1.439,3.524,1.439l1.484-2.746c0,0-1.795-1.667-4.403-1.667
		c-2.958,0-8.161,1.235-8.161,7.938c0,6.48,4.335,7.95,7.405,7.95c3.413,0,5.662-1.331,5.662-1.331v-7.794h-5.361V37.242z"/>
	<path id="Path_115_" fill="#EEEEEE" d="M36.969,27.506H23.373c2.628,0.784,2.757,3.309,2.757,3.309h1.962v12.578h3.231l0-12.578
		h1.672C32.996,30.815,34.046,28.513,36.969,27.506z"/>
	<path id="Path_114_" fill="#EEEEEE" d="M23.994,34.564c1.066-0.397,1.61-1.638,1.61-2.838c0-1.199-0.752-4.221-5.221-4.221
		c-4.747,0-5.597,2.506-5.597,2.506V41.87c0,0,1.398,1.523,5.469,1.523c5.917,0,6.437-3.293,6.437-4.988
		S25.552,35.168,23.994,34.564z M18.424,31.739c0,0,0.401-1.187,1.705-1.187s1.811,0.74,1.811,1.63s-0.507,1.368-2.192,1.368h-1.324
		V31.739z M20.526,40.429c-1.431,0-2.102-0.418-2.102-0.418v-3.825h1.831c1.528,0,2.577,0.619,2.577,2.224
		S21.958,40.429,20.526,40.429z"/>
</g>
</svg>
