<?xml version="1.0" encoding="utf-8"?>
<!-- Generator: Adobe Illustrator 21.0.0, SVG Export Plug-In . SVG Version: 6.00 Build 0)  -->
<svg version="1.1" id="Layer_1" xmlns="http://www.w3.org/2000/svg" xmlns:xlink="http://www.w3.org/1999/xlink" x="0px" y="0px"
	 viewBox="0 0 180 70" style="enable-background:new 0 0 180 70;" xml:space="preserve">
<style type="text/css">
	.st0{fill:#00CC00;}
</style>
<g id="Egt_2_">
	<path id="Path_50_2_" class="st0" d="M23.9,35.7c0-6.4,6.1-14.7,16.6-19.2c18.2-8.1,28.6-0.7,31.5,6.4c2.6,6.4-2.4,17.8-11.1,26.3
		c5.5-3.8,10.4-8.6,14.7-13.8c4.7-6.1,6.6-12.1,4.7-16.7c-2.6-6.7-12.7-9-25.6-7.1c-10.6,1.2-21.1,4.3-30.7,9
		c-8.8,4.5-13.5,10-13.9,15.9c-1,8.8,8.6,20.8,30.1,22.3c11.4,0.7,22.3,1,43.3-4.1C80.9,55,23.7,62.1,23.9,35.7z"/>
	<path id="Path_51_2_" class="st0" d="M107,26.4H92.4v6.1h13.3v5.7H92.4v6.1h15.1v5.9H85.8V20.6H107V26.4z"/>
	<path id="Path_52_2_" class="st0" d="M141.4,35.1v10.4c-3.1,3.3-6.8,4.9-12.3,4.9c-5.5,0-15.4-3.2-15.4-15.2s11.1-15.7,15.4-15.7
		c4.3,0,8,1.4,11.1,4.3l-3.3,4.9c-1.2-1-3.1-3.1-7.1-3.1s-9,2.5-9,9.5s6,9.2,8.6,9.2c2.5,0,4.1-0.4,5.7-1.2l-0.2-8.3h6.6V35.1z"/>
	<path id="Path_53_2_" class="st0" d="M161.8,50h-6.6V26h-8.6v-5.7H170V26h-8.2V50z"/>
	<path id="Path_65_2_" class="st0" d="M45,46.2c6.9,0,12.3-5.5,12.3-12.4S52,21.5,45,21.5s-12.3,5.7-12.3,12.4S38,46.2,45,46.2z"/>
</g>
</svg>
