<?xml version="1.0" encoding="utf-8"?>
<!-- Generator: Adobe Illustrator 17.0.0, SVG Export Plug-In . SVG Version: 6.00 Build 0)  -->
<!DOCTYPE svg PUBLIC "-//W3C//DTD SVG 1.1//EN" "http://www.w3.org/Graphics/SVG/1.1/DTD/svg11.dtd">
<svg version="1.1" id="Layer_1" xmlns="http://www.w3.org/2000/svg" xmlns:xlink="http://www.w3.org/1999/xlink" x="0px" y="0px"
	 width="180px" height="70px" viewBox="0 0 180 70" enable-background="new 0 0 180 70" xml:space="preserve">
<g id="Endorphina">
	<path id="Path_61_" fill="#EEEEEE" d="M166.305,33.268c0,0,0.111-1.392-2.467-1.392c-2.341,0-5.08,0.457-5.08,0.457
		c0-2.422,0.568-3.542,4.258-3.542c6.335,0,6.984,3.397,6.984,6.461c0,3.063-0.828,6.082-6.353,6.082s-5.43-3.781-5.43-4.901
		c0-1.992,1.204-2.742,4.094-2.713C165.738,33.751,166.305,33.268,166.305,33.268z M166.418,35.607c0,0-0.891,0.476-2.872,0.457
		c-1.455-0.014-1.904,0.67-1.904,1.259s1.399,1.713,3.424,1.047C166.94,37.754,166.418,35.607,166.418,35.607z"/>
	<path id="Path_60_" fill="#EEEEEE" d="M155.622,33.379v8.109c-2.267,0-3.379-0.165-3.379-2.072v-5.971
		c0-1.298-2.145-1.717-4.709-1.025l0.068,6.995c0,1.857-1.079,2.072-3.379,2.072V30.639c0-0.638,0.819-1.559,5.158-1.559
		C155.119,29.079,155.622,31.876,155.622,33.379z"/>
	<path id="Path_48_" fill="#EEEEEE" d="M141.47,31.352c0-0.747-0.179-2.05-1.183-2.05c-1.763,0-2.197-0.401-2.197-0.401v12.587
		c2.364,0,3.379-0.237,3.379-2.072V31.352z M141.616,26.573c0,0.982-0.805,1.779-1.799,1.779c-0.993,0-1.799-0.796-1.799-1.779
		s0.805-1.779,1.799-1.779C140.811,24.794,141.616,25.59,141.616,26.573z"/>
	<path id="Path_47_" fill="#EEEEEE" d="M127.456,29.547c0,0,0.71-0.446,3.695-0.446c3.258,0,4.326,2.061,4.326,4.119v8.268
		c-2.16,0-3.379-0.203-3.379-2.072V34.22c0-1.571-0.831-2.066-2.433-2.066c-1.37,0-2.208,0.401-2.208,0.401v6.862
		c0,1.847-1.207,2.072-3.379,2.072V24.111c0,0,0.133,0.412,2.029,0.412c0.906,0,1.35,0.608,1.35,2.038V29.547z"/>
	<path id="Path_46_" fill="#EEEEEE" d="M112.814,46c-0.572-0.54-2.034-0.213-2.759-0.575c-0.636-0.317-0.62-1.876-0.62-1.876V30.405
		c0.585-0.746,1.247-1.738,5.475-1.738c5.136,0,6.488,2.535,6.488,6.058c0,5.166-3.168,6.396-6.105,6.396
		c-1.778,0-2.478-0.535-2.478-0.535V46z M112.814,38.024c0,0,0.696,0.245,2.174,0.245c1.121,0,2.94-0.6,2.94-3.431
		c0-2.462-1.734-3.13-2.94-3.13c-1.559,0-2.174,0.212-2.174,0.212V38.024z"/>
	<path id="Path_45_" fill="#EEEEEE" d="M106.728,28.768c0,2.063-0.215,3.097-1.802,3.097c-2.411,0-3.064,0.33-3.064,2.495v7.129
		c0,0-0.508-0.475-1.851-0.635c-1.528-0.182-1.528-1.861-1.528-1.861v-6.338c0-1.883,1.442-3.888,4.303-3.888H106.728z"/>
	<path id="Path_44_" fill="#EEEEEE" d="M83.094,35.161c0-4.008,2.254-6.193,6.563-6.193s6.155,2.318,6.155,6.193
		s-1.219,6.171-6.155,6.171C84.721,41.332,83.094,39.169,83.094,35.161z M89.657,38.347c2.375,0,2.899-1.728,2.899-3.186
		c0-1.458-0.27-3.186-2.899-3.186c-2.629,0-3.206,1.491-3.206,3.186C86.451,36.857,87.282,38.347,89.657,38.347z"/>
	<path id="Path_43_" fill="#EEEEEE" d="M76.965,24c0.572,0.54,2.034,0.213,2.759,0.575c0.636,0.317,0.62,1.876,0.62,1.876v13.144
		c-0.585,0.746-1.247,1.738-5.475,1.738c-5.136,0-6.488-2.535-6.488-6.058c0-5.166,3.168-6.396,6.105-6.396
		c1.778,0,2.478,0.535,2.478,0.535V24z M76.965,31.976c0,0-0.696-0.245-2.174-0.245c-1.121,0-2.94,0.6-2.94,3.431
		c0,2.462,1.734,3.13,2.94,3.13c1.559,0,2.174-0.212,2.174-0.212V31.976z"/>
	<path id="Path_42_" fill="#EEEEEE" d="M65.632,33.379v8.109c-2.267,0-3.379-0.165-3.379-2.072v-5.971
		c0-1.298-2.145-1.717-4.709-1.025l0.068,6.995c0,1.857-1.079,2.072-3.379,2.072V30.639c0-0.638,0.819-1.559,5.158-1.559
		C65.129,29.079,65.632,31.876,65.632,33.379z"/>
	<path id="Path_41_" fill="#EEEEEE" d="M43.396,36.854c0,0-0.111,1.392,2.467,1.392c2.341,0,5.08-0.457,5.08-0.457
		c0,2.422-0.568,3.542-4.258,3.542c-6.335,0-6.984-3.397-6.984-6.461c0-3.063,0.828-6.082,6.353-6.082s5.43,3.781,5.43,4.901
		c0,1.992-1.204,2.742-4.094,2.713C43.963,36.371,43.396,36.854,43.396,36.854z M43.283,34.515c0,0,0.891-0.476,2.872-0.457
		c1.455,0.014,1.904-0.67,1.904-1.259s-1.399-1.713-3.424-1.047C42.76,32.369,43.283,34.515,43.283,34.515z"/>
	<path id="Path_39_" fill="#0099FF" d="M17.304,25.682l12.023,5.57c-0.283-0.188-6-4.017-7.765-7.043
		c-1.81-3.103-1.681-5.399-0.148-7.621s5.32-3.617,11.083-3.25c5.763,0.367,12.104,2.107,16.858,6.36c0,0-4.057-7.168-14.383-9.17
		s-18.269,2.038-22.85,6.188c-1.214,1.1-1.838,2.15-2.044,3.151C10.171,22.92,17.304,25.682,17.304,25.682z"/>
	<path id="Path_38_" fill="#FF9900" d="M21.414,53.412c-1.533-2.222-1.663-4.517,0.148-7.621c1.81-3.103,7.777-7.051,7.777-7.051
		l-12.035,5.576c0,0-7.135,2.763-7.225,5.816c0.205,1.001,0.829,2.051,2.044,3.151c4.581,4.15,12.524,8.19,22.85,6.188
		c10.326-2.002,14.383-9.17,14.383-9.17c-4.754,4.253-11.095,5.993-16.858,6.36C26.734,57.029,22.947,55.634,21.414,53.412z"/>
	<path id="Path_37_" fill="#FF3333" d="M17.304,44.316l12.035-5.576c0,0,3.417-1.818,3.417-3.617c0-0.041-0.002-0.082-0.004-0.123
		c0.002-0.041,0.004-0.081,0.004-0.123c0-1.8-3.417-3.617-3.417-3.617s-0.005-0.003-0.012-0.008l-12.023-5.57
		c0,0-7.132-2.762-7.225-5.814c-0.57,2.775,2.075,5.173,4.26,7.224c2.92,2.741,4.219,5.464,4.195,7.908
		c0.024,2.445-1.274,5.168-4.195,7.908c-2.185,2.051-4.83,4.449-4.26,7.224C10.169,47.079,17.304,44.316,17.304,44.316z"/>
</g>
</svg>
