<?xml version="1.0" encoding="utf-8"?>
<!-- Generator: Adobe Illustrator 21.0.0, SVG Export Plug-In . SVG Version: 6.00 Build 0)  -->
<svg version="1.1" id="Layer_1" xmlns="http://www.w3.org/2000/svg" xmlns:xlink="http://www.w3.org/1999/xlink" x="0px" y="0px"
	 viewBox="0 0 180 70" style="enable-background:new 0 0 180 70;" xml:space="preserve">
<style type="text/css">
	.st0{fill:#EEEEEE;}
	.st1{fill:#D1D1D1;}
</style>
<g id="EvolutionGaming">
	<path class="st0" d="M49.7,10.3h16.6l0.4,5.6h-1c-0.4-2.3-0.4-2.8-1.3-3.7c-0.8-0.9-2.5-0.8-3.9-0.8h-4.2c-0.3,0-0.6,0.1-0.8,0.3
		c-0.2,0.2-0.3,0.5-0.3,0.8v7.1h1.8c0.9,0,1.8-0.4,2.4-1.1c0.7-0.9,1-2.1,1-3.3h1v10h-1c0-1.7-0.4-2.9-1-3.6
		c-0.6-0.7-1.6-1.1-2.6-1.1h-1.7v8.1c0,0.3,0.1,0.5,0.3,0.7c0.3,0.2,0.7,0.3,1,0.3H60c3.6,0,5.7-1.2,6.3-5.8h1.1l-0.4,6.9H49.7v-1.1
		h0.9c0.4,0,0.9-0.1,1.2-0.3c0.2-0.2,0.4-0.5,0.4-0.9v-16c0-0.3-0.1-0.6-0.3-0.8c-0.3-0.2-0.6-0.3-1-0.3h-1.2L49.7,10.3z"/>
	<path class="st0" d="M66,17.1h7.5v1c-0.6,0-1.2,0-1.7,0.2c-0.2,0.1-0.4,0.4-0.4,0.6c0,0.2,0.1,0.4,0.1,0.6l3.6,8.1l3.3-7.9
		c0-0.1,0.1-0.3,0.1-0.4c0-0.7-0.7-1.2-2.1-1.3v-1h5.7v1c-0.5,0-1,0.2-1.4,0.5c-0.4,0.3-0.6,0.6-0.8,1l-5,11.7h-0.8l-5.4-12
		c-0.1-0.4-0.4-0.7-0.7-0.9C67.4,18.1,66.7,18,66,18L66,17.1z"/>
	<path class="st0" d="M87.4,16.7c1.8,0,3.5,0.7,4.7,2c1.3,1.4,2,3.3,1.9,5.3c0,1.3-0.3,2.7-0.8,3.8c-0.5,1-1.4,1.9-2.4,2.5
		c-1,0.6-2.2,0.9-3.4,0.9c-1.7,0-3.4-0.7-4.5-2c-2.5-3.1-2.5-7.4,0-10.5C84,17.4,85.7,16.6,87.4,16.7z M87.4,17.7
		c-1.1,0-2.1,0.6-2.7,1.5c-0.7,1-1.1,2.6-1.1,4.7c0,2.1,0.4,3.7,1.1,4.8c0.6,0.9,1.6,1.5,2.7,1.5c1.1,0,2.2-0.6,2.8-1.5
		c0.7-1,1.1-2.6,1.1-4.9c0-2.1-0.4-3.7-1.1-4.6C89.6,18.2,88.5,17.7,87.4,17.7L87.4,17.7z"/>
	<path class="st0" d="M98.5,10v18.8c0,0.2,0.1,0.5,0.3,0.6c0.3,0.2,0.6,0.3,0.9,0.3h0.9v1.1h-6.7v-1.1h0.8c0.4,0,0.7-0.1,1-0.3
		c0.2-0.2,0.4-0.6,0.3-0.9V12.9c0-0.4-0.1-0.8-0.4-1.1c-0.4-0.3-0.8-0.5-1.3-0.5h-1.2v-1.1L98.5,10z"/>
	<path class="st0" d="M105.5,16.8v9.1c-0.1,0.9,0.2,1.9,0.8,2.6c0.6,0.6,1.4,0.9,2.2,0.9c1.1,0,2.1-0.5,2.8-1.3
		c0.8-0.9,1.2-2.1,1.1-3.3v-5.1c0-0.4-0.2-0.8-0.5-1.1c-0.6-0.3-1.3-0.5-1.9-0.4v-1l4.8-0.2v11.3c0,0.4,0.1,0.9,0.4,1.2
		c0.3,0.3,0.8,0.4,1.2,0.4h0.9v1l-4.6,0.1l-0.3-2.7c-0.7,0.9-1.5,1.6-2.5,2.2c-0.8,0.5-1.6,0.7-2.5,0.7c-1.2,0-2.3-0.4-3.1-1.2
		c-0.8-0.8-1.3-2.2-1.3-4.2v-6c0-0.5-0.2-1-0.6-1.2c-0.6-0.3-1.2-0.4-1.8-0.3v-1L105.5,16.8z"/>
	<path class="st0" d="M120.1,11.5h1v5.6h8.4v1.3h-8.4v8.8c0,0.6,0.1,1.3,0.5,1.8c0.3,0.4,0.8,0.6,1.4,0.6c0.7,0,1.3-0.4,1.7-0.9
		c0.6-0.9,0.8-2,0.8-3.1h1c-0.1,1.8-0.5,3.2-1.2,4.1c-0.7,0.9-1.9,1.4-3,1.3c-1,0.1-1.9-0.3-2.7-0.9c-0.7-0.6-1-1.5-1-2.5v-9.2h-2.4
		v-1c1-0.1,1.8-0.6,2.5-1.4C119.7,14.7,120.1,13.1,120.1,11.5z"/>
	<path class="st0" d="M126.5,17.1l5.5-0.2v11.8c0,0.3,0.1,0.5,0.2,0.7c0.2,0.2,0.5,0.3,0.8,0.3h1v1.1h-6.7v-1.1h0.9
		c0.3,0,0.7-0.1,0.9-0.3c0.2-0.3,0.3-0.6,0.3-0.9v-8.4c0-0.5-0.1-0.9-0.5-1.2c-0.4-0.3-0.9-0.5-1.4-0.4h-1.1V17.1z M130.3,10.6
		c0.4,0,0.9,0.2,1.2,0.5c0.3,0.3,0.5,0.7,0.5,1.2c0,0.4-0.2,0.8-0.5,1.1c-0.6,0.6-1.7,0.6-2.3,0c-0.6-0.6-0.6-1.7,0-2.3
		C129.5,10.8,129.9,10.6,130.3,10.6L130.3,10.6z"/>
	<path class="st0" d="M140.9,16.7c1.8,0,3.5,0.7,4.7,2c1.3,1.4,2,3.3,1.9,5.3c0,1.3-0.3,2.7-0.8,3.8c-0.5,1-1.4,1.9-2.4,2.5
		c-1,0.6-2.2,0.9-3.4,0.9c-1.7,0-3.4-0.7-4.5-2c-2.5-3.1-2.5-7.4,0-10.5C137.5,17.4,139.2,16.6,140.9,16.7z M140.9,17.7
		c-1.1,0-2.1,0.6-2.7,1.5c-0.7,1-1.1,2.6-1.1,4.7c0,2.1,0.4,3.7,1.1,4.8c0.6,0.9,1.6,1.5,2.7,1.5c1.1,0,2.2-0.6,2.8-1.5
		c0.7-1,1.1-2.6,1.1-4.9c0-2.1-0.4-3.7-1.1-4.6C143.1,18.2,142.1,17.7,140.9,17.7L140.9,17.7z"/>
	<path class="st0" d="M147.2,17.1l4.6-0.3c0.2,1,0.3,2,0.4,3c0.5-0.9,1.3-1.7,2.2-2.2c0.9-0.5,1.8-0.8,2.8-0.7
		c0.8,0,1.6,0.2,2.3,0.5c0.7,0.4,1.2,1,1.5,1.7c0.4,0.8,0.6,1.7,0.6,2.6v6.7c0,0.4,0.1,0.8,0.3,1.1c0.3,0.2,0.7,0.4,1.1,0.3h0.4v1.1
		h-6.1v-1.1h0.1c0.5,0,0.9-0.1,1.4-0.3c0.3-0.2,0.4-0.6,0.4-0.9v-5.9c0.1-1-0.2-2-0.6-2.8c-0.5-0.9-1.5-1.4-2.5-1.3
		c-1.1,0-2.1,0.5-2.8,1.3c-0.8,1-1.2,2.2-1.1,3.5v5.1c0,0.4,0.1,0.8,0.3,1.1c0.3,0.2,0.7,0.4,1.1,0.3h0.4v1.1h-6.1v-1.1h0.4
		c0.4,0,0.8-0.1,1.1-0.3c0.2-0.2,0.4-0.4,0.4-0.7v-8.9c0-0.5-0.1-1-0.5-1.3c-0.4-0.3-0.9-0.5-1.4-0.5h-0.7L147.2,17.1z"/>
	<path class="st0" d="M72.9,35.3l1.2-2.2h1l0.5,8.6h-1c-0.7-2.5-1.6-4.3-2.6-5.4c-1.1-1.3-2.7-2.1-4.4-2.1c-1.2,0-2.4,0.4-3.4,1.1
		c-1.1,0.8-1.9,1.9-2.3,3.2c-0.6,1.7-0.9,3.6-0.8,5.5c-0.1,1.8,0.2,3.6,0.8,5.3c0.4,1.2,1.2,2.3,2.2,3.1c1,0.7,2.1,1,3.3,1
		c1.5,0.1,2.9-0.4,4-1.4c0.9-1,1.4-2.3,1.4-3.7v-2c0-0.3-0.1-0.6-0.4-0.7c-0.4-0.2-0.8-0.3-1.2-0.3h-1.8v-1h8.5v1h-0.7
		c-0.4,0-0.8,0.1-1.2,0.3c-0.2,0.2-0.4,0.5-0.4,0.8v8.2h-1c-0.4-1.3-0.7-2.5-1.1-3.7c-0.6,1.1-1.5,2-2.6,2.7c-1,0.6-2.2,0.9-3.4,0.9
		c-1.8,0-3.5-0.5-5.1-1.4c-4.9-3.1-6.5-9.4-3.7-14.4c0.9-1.7,2.1-3.1,3.7-4.1c1.4-1,3.1-1.5,4.8-1.5c0.9,0,1.8,0.2,2.6,0.5
		C71,34,72,34.6,72.9,35.3z"/>
	<path class="st0" d="M92.5,53.1l0.2,0.4c0,0.8-0.9,0.7-1.8,0.7c-0.7,0-2,0-2.5-0.4c-0.5-0.3-0.6-0.7-1-1.7c-0.7,0.8-1.5,1.5-2.5,2
		c-0.8,0.3-1.7,0.5-2.5,0.5c-1.1,0.1-2.3-0.2-3.2-0.9c-0.7-0.6-1.1-1.4-1.1-2.3c0-1.4,0.8-2.6,2.5-3.6c2.1-1.1,4.4-1.7,6.7-1.9v-2.1
		c0-0.7-0.3-1.4-0.9-1.9c-0.6-0.5-1.4-0.8-2.3-0.8c-0.8,0-1.5,0.2-2.2,0.5c-0.4,0.3-0.7,0.5-0.7,0.8c0.1,0.3,0.2,0.5,0.4,0.7
		c0.2,0.3,0.4,0.7,0.4,1c0,0.4-0.1,0.8-0.4,1.1c-0.3,0.3-0.7,0.4-1.1,0.4c-0.5,0-0.9-0.2-1.2-0.5c-0.3-0.3-0.5-0.8-0.5-1.3
		c0-1,0.5-1.9,1.6-2.7c1.3-0.9,2.8-1.3,4.3-1.2c1.3-0.1,2.7,0.3,3.7,1.1c0.8,0.6,1.3,1.6,1.3,2.6v7.5c0,0.5,0.1,0.9,0.3,1.3
		c0.2,0.3,0.5,0.5,0.8,0.5C91.5,53,92,53.1,92.5,53.1z M87.4,46.9c-2.5,0.3-4.2,0.9-5.3,1.7c-0.8,0.6-1.2,1.5-1.2,2.5
		c0,0.6,0.2,1.3,0.6,1.8c0.4,0.4,1,0.6,1.6,0.6c1.1,0,2.2-0.5,3-1.3c0.8-0.9,1.3-2.1,1.3-3.3L87.4,46.9z"/>
	<path class="st0" d="M92,40.4l3.9-0.3c0.2,1,0.3,1.9,0.4,2.9c0.6-0.9,1.3-1.7,2.2-2.3c0.7-0.4,1.6-0.7,2.5-0.7
		c0.8,0,1.7,0.2,2.3,0.7c0.7,0.6,1.2,1.5,1.4,2.4c0.5-0.9,1.3-1.8,2.2-2.4c0.8-0.5,1.7-0.8,2.6-0.8c1.1-0.1,2.1,0.3,2.8,1.1
		c0.8,1.1,1.3,2.4,1.2,3.8v6.8c0,0.3,0.1,0.6,0.3,0.8c0.4,0.3,0.8,0.4,1.2,0.3h0.6v1.1h-6.9v-1.1h0.7c0.4,0,0.9-0.1,1.2-0.3
		c0.2-0.2,0.4-0.6,0.4-0.9v-6.8c0.1-0.9-0.2-1.7-0.7-2.4c-0.5-0.6-1.2-0.9-2-0.8c-0.6,0-1.2,0.2-1.7,0.5c-0.5,0.3-0.9,0.8-1.2,1.4
		c-0.4,0.7-0.6,1.4-0.6,2.2v5.9c0,0.3,0.1,0.7,0.3,0.9c0.3,0.2,0.6,0.3,1,0.3h0.9v1.1h-7v-1.1h0.8c0.4,0,0.8-0.1,1.1-0.3
		c0.2-0.2,0.4-0.5,0.4-0.7v-6.3c0.1-1-0.2-2-0.7-2.9c-0.5-0.6-1.2-0.9-1.9-0.9c-0.9-0.1-1.8,0.3-2.4,1.1c-0.8,1-1.2,2.2-1.2,3.5v5.5
		c0,0.3,0.1,0.6,0.3,0.9c0.4,0.2,0.8,0.3,1.2,0.3h0.7v1.1h-6.9v-1.1h1c0.3,0,0.7-0.1,0.9-0.3c0.2-0.2,0.3-0.5,0.3-0.7v-9
		c0-0.4-0.1-0.8-0.4-1.1c-0.4-0.3-1-0.5-1.5-0.5V40.4z"/>
	<path class="st0" d="M116.1,40.4l4.9-0.2v11.8c0,0.3,0.1,0.5,0.2,0.7c0.2,0.2,0.5,0.3,0.8,0.3h1.6v1.1h-8.4v-1.1h2
		c0.3,0,0.7-0.1,0.9-0.3c0.2-0.3,0.3-0.6,0.3-0.9v-8.6c0-0.5-0.1-0.9-0.5-1.2c-0.4-0.3-0.9-0.5-1.4-0.4h-0.6L116.1,40.4z
		 M119.4,33.9c0.4,0,0.9,0.2,1.2,0.5c0.3,0.3,0.5,0.7,0.5,1.2c0,0.4-0.2,0.8-0.5,1.1c-0.6,0.6-1.7,0.6-2.3,0c-0.6-0.6-0.6-1.7,0-2.3
		C118.6,34.1,119,33.9,119.4,33.9L119.4,33.9z"/>
	<path class="st0" d="M123.3,40.4l4.6-0.3c0.2,1,0.3,2,0.4,3c0.5-0.9,1.3-1.7,2.2-2.2c0.9-0.5,1.8-0.8,2.8-0.7
		c0.8,0,1.6,0.2,2.3,0.5c0.7,0.4,1.2,1,1.5,1.7c0.4,0.8,0.6,1.7,0.6,2.6v6.7c0,0.4,0.1,0.8,0.3,1.1c0.3,0.2,0.7,0.4,1.1,0.3h0.4v1.1
		h-6.1v-1.1h0.1c0.5,0,0.9-0.1,1.4-0.3c0.3-0.2,0.4-0.6,0.4-0.9v-5.9c0.1-1-0.2-2-0.6-2.8c-0.5-0.9-1.5-1.4-2.5-1.3
		c-1.1,0-2.1,0.5-2.8,1.3c-0.8,1-1.2,2.2-1.1,3.5v5.1c0,0.4,0.1,0.8,0.3,1.1c0.3,0.2,0.7,0.4,1.1,0.3h0.4v1.1h-6.7v-1.1h1
		c0.4,0,0.8-0.1,1.1-0.3c0.2-0.2,0.4-0.4,0.4-0.7v-8.9c0-0.5-0.1-1-0.5-1.3c-0.4-0.3-0.9-0.5-1.4-0.5h-0.7L123.3,40.4z"/>
	<path class="st0" d="M156.1,39.3c-0.2-0.2-0.4-0.3-0.6-0.4c-0.3-0.2-0.7-0.2-1.1-0.2c-0.9,0-3.6,1.5-4.6,2.5
		c-0.6-0.4-1.2-0.7-1.8-0.9c-0.6-0.2-1.3-0.3-2-0.3c-1.5-0.1-2.9,0.4-4.1,1.3c-1,0.8-1.6,2-1.6,3.3c0,0.8,0.2,1.6,0.6,2.2
		c0.5,0.7,1.1,1.3,1.9,1.7c-0.8,0.2-1.5,0.6-2.1,1.2c-0.4,0.5-0.6,1-0.6,1.6c0,0.6,0.3,1.3,0.7,1.7c0.6,0.5,1.4,0.9,2.2,1
		c-0.9,0.1-1.8,0.5-2.6,1.1c-0.5,0.4-0.8,1-0.8,1.6c0,0.8,0.5,1.6,1.2,2c1,0.8,2.6,1.2,4.7,1.2c2.5,0,4.4-0.6,5.7-1.7
		c0.9-0.7,1.4-1.8,1.4-3c0-1-0.4-1.9-1.2-2.5c-0.8-0.6-2.1-0.9-3.9-0.9L144,52c-0.6,0.1-1.2-0.1-1.7-0.3c-0.3-0.2-0.5-0.5-0.5-0.9
		c0-0.4,0.2-0.8,0.6-1.1c0.7-0.3,1.5-0.4,2.3-0.4h1.6c1,0,1.9-0.3,2.7-0.7c0.8-0.4,1.5-1,2-1.7c0.4-0.7,0.6-1.5,0.6-2.2
		c0-0.5-0.1-0.9-0.2-1.4c-0.2-0.5-0.5-1-0.9-1.5c0.7-0.6,1.5-1.1,2.4-1.4c0.2,0,0.3,0.1,0.4,0.4c0.1,0.4,0.3,0.6,0.5,0.8
		c0.6,0.6,1.6,0.6,2.3,0c0.3-0.3,0.5-0.7,0.5-1.1C156.6,40,156.4,39.6,156.1,39.3z M146.9,54.2L146.9,54.2c0.9,0,1.7,0.1,2.5,0.3
		c0.5,0.1,0.9,0.4,1.3,0.8c0.3,0.3,0.4,0.7,0.4,1.1c0,0.7-0.4,1.3-1.3,1.8c-1.2,0.6-2.5,0.9-3.8,0.8c-1.1,0.1-2.3-0.2-3.3-0.8
		c-0.5-0.3-0.9-0.9-0.9-1.6c0-0.8,0.5-1.5,1.1-1.8C143.8,54.4,145.1,54.2,146.9,54.2z M148.2,47.5c-0.1,0.1-0.2,0.2-0.3,0.3
		c-1.2,1-3,0.9-4-0.3c-0.6-0.8-0.9-1.8-0.8-2.9c-0.1-1,0.2-1.9,0.8-2.7c0.5-0.6,1.3-1,2.2-1h0c0.8,0,1.6,0.3,2.2,1
		c0.6,0.8,0.9,1.7,0.9,2.7C149.1,45.6,148.8,46.6,148.2,47.5z"/>
	<path class="st0" d="M16.7,13.8c12.9-6.9,29.5,0.4,30.8,17.9C23.6,33.5,20.7,22.8,16.7,13.8z"/>
	<path class="st1" d="M16.7,51.3c12.9,6.9,29.5-0.4,30.8-17.9C23.6,31.5,20.7,42.3,16.7,51.3z"/>
</g>
</svg>
