<?xml version="1.0" encoding="utf-8"?>
<!-- Generator: Adobe Illustrator 21.0.0, SVG Export Plug-In . SVG Version: 6.00 Build 0)  -->
<svg version="1.1" id="Layer_1" xmlns="http://www.w3.org/2000/svg" xmlns:xlink="http://www.w3.org/1999/xlink" x="0px" y="0px"
	 viewBox="0 0 180 70" style="enable-background:new 0 0 180 70;" xml:space="preserve">
<style type="text/css">
	.st0{fill:#0099FF;}
</style>
<g id="Igrosoft">
	<path class="st0" d="M26.3,45l0.3-1.4c0,0,3.2,0.5,3.8-2.3L34.6,19c0.4-2.1-2.9-2.4-2.9-2.4l0.3-1.4h12.2l-0.3,1.4
		c-1.5,0-3.4,0.2-3.8,2.4l-4.3,22.7c-0.3,1.5,1.9,1.8,2.9,1.9L38.5,45H26.3z"/>
	<path class="st0" d="M50.5,43c0,0-2.3,2.4-5,2.4c-4.6,0-6.9-4.7-4.9-12.2c1.2-4.4,4.8-7.7,8.6-7.7c3.1,0,4.3,1.5,4.3,1.5l4.7-1.2
		l0.2,0.3l-2.6,15.6c0,0-0.7,6-4.3,9.4c-1.7,1.7-3.4,2.4-6.5,2.4s-6-0.7-6-3.7c0-1.3,0.7-2.8,2.4-2.8c2.8,0,4.1,5,4.1,5
		C49.3,51.9,50.5,43,50.5,43z M52.6,30.5c0,0,0-3-2.4-3s-3.9,4-4.4,6.7c-1.2,7.3,0.8,8.3,2.2,8.3c1.5,0,2.8-1.8,2.8-1.8L52.6,30.5z"
		/>
	<path class="st0" d="M75.9,29.6c0,1.9-0.8,4.3-3.1,4.3c-4.3,0-1.7-5.5-1.7-5.5s-1.9,0.9-3.2,3.1L65.4,45h-5.1l2.1-11.8
		c0,0,0.8-3.7,0-4.3C61.3,28,59.2,29,59.2,29l0.3-1.7c0,0,2.7-1.5,4.6-1.5c3.7,0,3.9,3.4,3.9,3.4s2.9-3.6,5-3.6S75.9,27.6,75.9,29.6
		z"/>
	<path class="st0" d="M99.7,45.6c-5.4,0-6.6-2.5-6.6-4c0-1.3,0.7-2.8,2.5-2.8c2.9,0,3.6,5.4,3.6,5.4s3.6,0.2,3.6-3.5
		c0-3.1-3.6-2.3-6.5-5.5c-0.7-0.8-1.7-3.3-0.6-5.8s4-4,7.5-4s5.6,1.6,5.6,3.8s-1.9,2.6-2.3,2.6c-2.8,0-3.4-5-3.4-5s-2.9,0.3-2.9,3.2
		c0,2.1,1.5,2.6,3.3,3.3s4.2,2.1,4.2,5.6C107.7,42.9,105.1,45.6,99.7,45.6z"/>
	<path class="st0" d="M127,33.5c0,6.3-3.8,12.1-10.7,12.1c-5.5,0-7.4-4.5-7.4-8.1c0-6.4,3.9-12,10.6-12
		C124.9,25.5,127,29.4,127,33.5z M119.2,27c-2.7,0-4.1,4.7-4.6,8.7c-0.4,4-0.5,8.3,2.2,8.3s4-4.5,4.5-8.5
		C121.8,31.7,121.9,27,119.2,27z"/>
	<path class="st0" d="M93.8,33.5c0,6.3-3.8,12.1-10.7,12.1c-5.5,0-7.4-4.5-7.4-8.1c0-6.4,3.9-12,10.6-12
		C91.6,25.5,93.8,29.4,93.8,33.5z M85.9,27c-2.7,0-4.1,4.7-4.6,8.7S80.8,44,83.5,44s4-4.5,4.5-8.5S88.6,27,85.9,27z"/>
	<path class="st0" d="M135.9,28.4l-4.7,26.4h-8.3v-0.9c1.5,0,1.8-1.3,1.8-1.3l6.1-24.1h-3l0.4-2c0,0,2,0,3,0
		c0.8-4.3,3.2-11.1,9.3-11.1c3.5,0,4.4,1.8,4.4,3.6c0,1.2-0.6,2.9-2.4,2.9c-2.6,0-3.7-5-3.7-5c-1.3,1.3-2.6,9.6-2.6,9.6h3.9l-0.4,2
		L135.9,28.4L135.9,28.4z"/>
	<path class="st0" d="M145.8,45.5c-4.9,0-4-5.3-4-5.3l2.2-11.8h-2.8l0.4-2h2.9l2.1-10.8h5l-2.1,10.8h4.2l-0.4,2h-4.2l-1.9,10.2
		c0,0-0.7,2.8,0.2,3.8s4-0.2,4-0.2l-0.3,1.7C151.1,43.9,148.5,45.5,145.8,45.5z"/>
</g>
</svg>
