<?xml version="1.0" encoding="utf-8"?>
<!-- Generator: Adobe Illustrator 17.0.0, SVG Export Plug-In . SVG Version: 6.00 Build 0)  -->
<!DOCTYPE svg PUBLIC "-//W3C//DTD SVG 1.1//EN" "http://www.w3.org/Graphics/SVG/1.1/DTD/svg11.dtd">
<svg version="1.1" id="Layer_1" xmlns="http://www.w3.org/2000/svg" xmlns:xlink="http://www.w3.org/1999/xlink" x="0px" y="0px"
	 width="180px" height="70px" viewBox="0 0 180 70" enable-background="new 0 0 180 70" xml:space="preserve">
<g id="IronDog">
	<path id="Path_79_" fill="#EEEEEE" d="M154,34v5h8.764c-1.579,3-4.721,5.112-8.346,5.112c-5.208,0-9.428-4.159-9.428-9.344
		s4.223-9.367,9.432-9.367c3.327,0,6.249,1.728,7.928,4.318l5.695-2.726c0,0-2.966-7.995-13.334-7.995
		c-10.368,0-13.134,5.971-13.134,5.971s-3.041-5.969-13.357-5.969s-13.507,6.318-13.507,6.318S111.144,20,102.11,20H91v30h11.34
		c8.281,0,12.277-5.579,12.277-5.579s4.006,6.193,13.603,6.193s13.367-5.978,13.367-5.978s3.114,6.327,13.123,6.327
		c15.664,0,15.277-16.963,15.277-16.963H154z M101.141,44H99V25h2.141c5.208,0,9.43,4.315,9.43,9.5S106.349,44,101.141,44z
		 M128.091,44.202c-5.208,0-9.43-4.204-9.43-9.389s4.222-9.389,9.43-9.389c5.208,0,9.43,4.204,9.43,9.389
		S133.299,44.202,128.091,44.202z"/>
	<path id="Path_78_" fill="#EEEEEE" d="M83,20v17.903l-13.2-14.5c0,0-3.943-4.402-11.77-4.402c-10.772,0-16.582,7.822-16.582,15.929
		c0,7.71,5.722,15.702,16.593,15.702c13.515,0,16.047-11.924,16.047-11.924L83.974,50H89V20H83z M57.978,44.202
		c-5.208,0-9.43-4.204-9.43-9.389s4.222-9.389,9.43-9.389s9.43,4.204,9.43,9.389S63.186,44.202,57.978,44.202z"/>
	<path id="Path_77_" fill="#EEEEEE" d="M41.048,29.281c0-7.264-5.566-9.281-10.393-9.281H19v30h7V24h2.65
		c1.723,0,5.287,0.584,5.287,4.481S30.079,33,28.605,33H27v5.066L35.214,50h8.569l-9.344-12.311
		C34.439,37.689,41.048,36.546,41.048,29.281z"/>
	<rect id="Path_75_" x="10" y="20" fill="#EEEEEE" width="7" height="30"/>
</g>
</svg>
