<?xml version="1.0" encoding="utf-8"?>
<!-- Generator: Adobe Illustrator 17.0.0, SVG Export Plug-In . SVG Version: 6.00 Build 0)  -->
<!DOCTYPE svg PUBLIC "-//W3C//DTD SVG 1.1//EN" "http://www.w3.org/Graphics/SVG/1.1/DTD/svg11.dtd">
<svg version="1.1" id="Layer_1" xmlns="http://www.w3.org/2000/svg" xmlns:xlink="http://www.w3.org/1999/xlink" x="0px" y="0px"
	 width="180px" height="70px" viewBox="0 0 180 70" enable-background="new 0 0 180 70" xml:space="preserve">
<g id="Microgaming_2_">
	<path id="Path_26_" fill="#00CC00" d="M162.357,44.85c0.688,0.073,1.594,0.109,2.608,0.109c2.825,0,3.187-0.761,3.224-3.735
		c-0.833,0.471-1.992,1.015-3.187,1.051c-4.093,0.073-4.346-2.139-4.346-5.62c0-3.481,0.217-5.801,4.165-5.801
		c1.34,0,2.572,0.616,3.55,1.233l0.181-1.015H170v9.935c0,4.025-0.906,5.257-4.6,5.257c-1.087,0-2.173-0.109-3.224-0.254
		L162.357,44.85z M168.189,33.102c-0.797-0.508-1.811-1.015-2.789-1.015c-2.717,0-2.898,1.523-2.898,4.568
		c0,2.973,0.181,4.387,2.898,4.387c0.978,0,2.028-0.544,2.789-0.943V33.102z"/>
	<path id="Path_22_" fill="#00CC00" d="M151.02,32.015c0,0,1.808-1.16,3.589-1.16c3.922,0,4.162,1.849,4.162,4.568v6.816h-1.847
		v-6.708c0-2.32-0.181-3.444-2.898-3.444c-1.121,0-2.789,0.979-2.789,0.979v9.209h-1.847v-11.24h1.449L151.02,32.015z"/>
	<path id="Path_23_" fill="#00CC00" d="M145.225,29.622v-1.885h1.883v1.885H145.225z M145.261,42.239V31.036h1.847v11.204H145.261z"
		/>
	<path id="Path_24_" fill="#00CC00" d="M129.071,32.015c0,0,1.617-1.16,3.351-1.16c2.77,0,3.132,1.233,3.132,1.233
		s1.43-1.233,3.758-1.233c3.266,0,3.631,1.849,3.631,4.568v6.816h-1.847v-6.708c0-2.32-0.145-3.444-2.644-3.444
		c-0.906,0-1.847,0.544-2.608,1.015c0.265,0.898,0.217,2.466,0.217,2.466v6.708h-1.594v-6.744c0-2.32-0.145-3.444-2.644-3.444
		c-0.869,0-1.811,0.544-2.535,0.943v9.209h-1.847V31.036h1.449L129.071,32.015z"/>
	<path id="Path_25_" fill="#00CC00" d="M123.746,42.239l-0.181-1.015c-0.906,0.58-2.101,1.233-3.405,1.233
		c-4.093,0.073-4.346-2.248-4.346-5.801s0.217-5.801,4.274-5.801c1.34,0,2.535,0.616,3.441,1.16l0.181-0.979h1.449v11.204H123.746z
		 M123.384,33.03c-0.761-0.435-1.811-0.943-2.789-0.943c-2.717,0-2.898,1.523-2.898,4.568c0,3.046,0.181,4.568,2.898,4.568
		c0.978,0,1.992-0.544,2.789-1.015V33.03z"/>
	<path id="Path_27_" fill="#00CC00" d="M106.071,44.85c0.688,0.073,1.594,0.109,2.608,0.109c2.825,0,3.187-0.761,3.224-3.735
		c-0.833,0.471-1.992,1.015-3.187,1.051c-4.093,0.073-4.346-2.139-4.346-5.62c0-3.481,0.217-5.801,4.165-5.801
		c1.34,0,2.572,0.616,3.55,1.233l0.181-1.015h1.449v9.935c0,4.025-0.906,5.257-4.6,5.257c-1.087,0-2.173-0.109-3.224-0.254
		L106.071,44.85z M111.902,33.102c-0.797-0.508-1.811-1.015-2.789-1.015c-2.717,0-2.898,1.523-2.898,4.568
		c0,2.973,0.181,4.387,2.898,4.387c0.978,0,2.028-0.544,2.789-0.943V33.102z"/>
	<path id="Path_28_" fill="#00CC00" d="M102.702,36.656c0,3.191-0.254,5.801-4.89,5.801s-4.89-2.611-4.89-5.801
		c0-3.191,0.254-5.801,4.89-5.801S102.702,33.465,102.702,36.656z M97.813,41.224c2.898,0,3.043-1.487,3.043-4.568
		c0-3.082-0.145-4.568-3.043-4.568s-3.043,1.568-3.043,4.568S94.915,41.224,97.813,41.224z"/>
	<path id="Path_29_" fill="#00CC00" d="M87.78,32.232c0,0,1.83-1.342,3.377-1.342c0.375,0,1.187,0.036,1.187,0.036l-0.145,1.342
		c0,0-0.37-0.034-1.167-0.034c-1.344,0-3.107,1.231-3.107,1.231v8.811h-1.847v-11.24h1.449L87.78,32.232z"/>
	<path id="Path_30_" fill="#00CC00" d="M84.194,38.505c0,2.175-0.722,3.916-4.455,3.916c-4.564,0-4.817-2.611-4.817-5.801
		s0.254-5.801,4.817-5.801c3.622,0,4.455,1.668,4.455,3.843h-1.739c0-1.777-0.616-2.647-2.717-2.647c-2.825,0-2.97,1.523-2.97,4.568
		c0,3.046,0.145,4.568,2.97,4.568c2.101,0,2.717-0.87,2.717-2.647H84.194z"/>
	<path id="Path_31_" fill="#00CC00" d="M71.118,29.622v-1.885h1.883v1.885H71.118z M71.154,42.239V31.036h1.847v11.204H71.154z"/>
	<path id="Path_32_" fill="#00CC00" d="M66.844,29.114h-0.326l-4.202,13.125h-1.05l-4.202-13.125h-0.326v13.125H55V27.736h3.079
		l3.731,11.53l3.658-11.53h3.115v14.503h-1.739V29.114z"/>
	<path id="Path_33_" fill="#00CC00" d="M29.994,15C17.752,15,10,25.23,10,35.069c0,3.471,0.88,5.807,0.88,5.807
		s6.556-9.115,12.51-20.767c0.335-0.656,1.191-1.494,2.421-0.845c1.231,0.649,1.027,1.838,1.027,1.838
		c-1.44,13.82,0.172,23.014,1.504,23.266c2.098,0.397,9.428-16.136,9.428-16.136s0.741-1.699,2.348-0.992
		c1.399,0.615,1.174,2.169,1.174,2.169c0.758,8.023,3.852,11.799,3.852,11.799s0.229,0.442-0.073,0.662c-0.303,0.22-0.587,0-0.587,0
		s-2.307-1.459-5.246-8.049c-4.55,9.536-6.97,12.019-6.97,12.019s-1.466,2.095-3.883,2.095s-3.784-2.61-3.784-2.61
		s-2.077-2.57-1.908-15.437c-4.183,8.274-9.428,16.062-9.428,16.062S18.226,55,30.297,55S50,44.464,50,34.897S42.236,15,29.994,15z"
		/>
</g>
</svg>
