<svg xmlns="http://www.w3.org/2000/svg" width="52.961" height="74" viewBox="0 0 52.961 74">
  <path id="Anwesenheit_von_Personen" data-name="Anwesenheitvon Personen" d="M90.573,96.625a17.769,17.769,0,0,0,18.676,0c.588-.349,1.176-.787,1.176-.787a17.938,17.938,0,1,0-21.008,0C89.945,96.247,90.573,96.625,90.573,96.625Zm-2.113-.149a27.156,27.156,0,0,0-10.613,4.275c-2.462,1.844-3.926,4.156-3.926,6.976V132.5a3.847,3.847,0,0,0,1.126,2.721h0a3.847,3.847,0,0,0,2.721,1.136h44.268a3.837,3.837,0,0,0,2.721-1.136h0a3.887,3.887,0,0,0,1.126-2.731V107.7h0c0-2.79-1.465-5.112-3.917-6.976a27.276,27.276,0,0,0-10.594-4.3s-.379-.259-1.146.807a11.181,11.181,0,0,1-4.046,3.109,14.71,14.71,0,0,1-6.268,1.525,15.686,15.686,0,0,1-6.637-1.5A8.889,8.889,0,0,1,89.566,97.3s-.618-.937-1.106-.827Z" transform="translate(-73.42 -62.858)" fill="none" stroke="#8abd24" stroke-miterlimit="10" stroke-width="1"/>
</svg>
