<svg xmlns="http://www.w3.org/2000/svg" width="45.979" height="74" viewBox="0 0 45.979 74">
  <g id="Сгруппировать_376" data-name="Сгруппировать 376" transform="translate(9489 11697)">
    <g id="Fernsteuerung_und_-kontrolle" data-name="Fernsteuerungund -kontrolle" transform="translate(-9488.5 -11696.5)">
      <path id="Контур_211" data-name="Контур 211" d="M86.64,70h34.695a5.081,5.081,0,0,1,3.647,1.507h0a5.081,5.081,0,0,1,1.507,3.647v62.691a5.069,5.069,0,0,1-1.507,3.647h0A5.081,5.081,0,0,1,121.335,143H86.64a5.142,5.142,0,0,1-5.13-5.118V75.13A5.142,5.142,0,0,1,86.64,70Zm.073,6.941a.851.851,0,0,0-.851.863v53.926a.851.851,0,0,0,.851.851h34.549a.851.851,0,0,0,.851-.851V77.8a.851.851,0,0,0-.851-.863Z" transform="translate(-81.51 -70)" fill="none" stroke="#8abd24" stroke-miterlimit="10" stroke-width="1" fill-rule="evenodd"/>
      <path id="Контур_212" data-name="Контур 212" d="M103.83,124H96.18a.71.71,0,0,0,0,1.41h7.65a.71.71,0,0,0,0-1.41Z" transform="translate(-77.522 -57.05)" fill="#8abd24"/>
    </g>
  </g>
</svg>
