<svg xmlns="http://www.w3.org/2000/svg" width="75.798" height="74.002" viewBox="0 0 75.798 74.002">
  <g id="Сгруппировать_382" data-name="Сгруппировать 382" transform="translate(9380 11697)">
    <g id="Сгруппировать_380" data-name="Сгруппировать 380" transform="translate(-9379.5 -11696.5)">
      <g id="Сгруппировать_379" data-name="Сгруппировать 379" transform="translate(0)">
        <g id="Ungenutzte_Räume" data-name="UngenutzteRäume">
          <path id="Контур_213" data-name="Контур 213" d="M124.249,128.191v10.3a5.212,5.212,0,0,0,5.212,5.212h10.112a5.237,5.237,0,0,0,5.224-5.224v-62.5a5.212,5.212,0,0,0-1.534-3.74h0a5.212,5.212,0,0,0-3.74-1.534h-64.3A5.237,5.237,0,0,0,70,75.974v48.713a5.162,5.162,0,0,0,1.534,3.74h0a5.2,5.2,0,0,0,3.74,1.521h36.507" transform="translate(-70 -70.7)" fill="none" stroke="#8abd24" stroke-miterlimit="10" stroke-width="1" fill-rule="evenodd"/>
          <line id="Линия_10" data-name="Линия 10" x2="25.896" transform="translate(0 23.852)" fill="none" stroke="#8abd24" stroke-miterlimit="10" stroke-width="1"/>
          <path id="Контур_214" data-name="Контур 214" d="M132.718,99.818H119.09V88.16" transform="translate(-57.883 -66.39)" fill="none" stroke="#8abd24" stroke-miterlimit="10" stroke-width="1" fill-rule="evenodd"/>
          <line id="Линия_11" data-name="Линия 11" y2="12.256" transform="translate(25.897 46.98)" fill="none" stroke="#8abd24" stroke-miterlimit="10" stroke-width="1"/>
          <line id="Линия_12" data-name="Линия 12" y2="24.064" transform="translate(25.897 14.601)" fill="none" stroke="#8abd24" stroke-miterlimit="10" stroke-width="1"/>
          <path id="Контур_215" data-name="Контур 215" d="M90.77,99.818h24.188V88.16" transform="translate(-64.873 -66.39)" fill="none" stroke="#8abd24" stroke-miterlimit="10" stroke-width="1" fill-rule="evenodd"/>
        </g>
      </g>
    </g>
  </g>
</svg>
