<svg xmlns="http://www.w3.org/2000/svg" width="81.018" height="61.99" viewBox="0 0 81.018 61.99">
  <g id="Wetterprognose" transform="translate(-59.488 -69.03)">
    <path id="Контур_221" data-name="Контур 221" d="M97.56,90.46l.74.4c.46.27.91.55,1.34.84a18.44,18.44,0,0,1,2.55,2.11A18.661,18.661,0,0,1,104,95.87l.76-.17c.45-.08.89-.14,1.34-.18h1.14a13.31,13.31,0,0,1,12,7.49c.11.23.23.48.34.75l.11.29c.48.07.95.17,1.41.28a14.1,14.1,0,0,1,1.83.63,13.1,13.1,0,0,1,1.41.68c.45.26.89.55,1.31.85.11.09.23.17.34.27h0c.24.18,1.19,1.05,1.19,1.05a13.46,13.46,0,0,1,2.47,3.41,13.31,13.31,0,0,1-11.88,19.3H73.34a13.3,13.3,0,0,1-2.56-26.36A18.67,18.67,0,0,1,93.1,88.87a19.1,19.1,0,0,1,3,.93Z" fill="none" stroke="#8abd24" stroke-miterlimit="10" stroke-width="1" fill-rule="evenodd"/>
    <line id="Линия_13" data-name="Линия 13" x2="6.58" y2="3.8" transform="translate(89.31 83.11)" fill="none" stroke="#8abd24" stroke-linecap="round" stroke-miterlimit="10" stroke-width="1"/>
    <line id="Линия_14" data-name="Линия 14" x2="3.81" y2="6.58" transform="translate(99.25 73.17)" fill="none" stroke="#8abd24" stroke-linecap="round" stroke-miterlimit="10" stroke-width="1"/>
    <line id="Линия_15" data-name="Линия 15" y2="7.6" transform="translate(112.84 69.53)" fill="none" stroke="#8abd24" stroke-linecap="round" stroke-miterlimit="10" stroke-width="1"/>
    <line id="Линия_16" data-name="Линия 16" x1="3.8" y2="6.58" transform="translate(122.62 73.17)" fill="none" stroke="#8abd24" stroke-linecap="round" stroke-miterlimit="10" stroke-width="1"/>
    <line id="Линия_17" data-name="Линия 17" x1="6.58" y2="3.8" transform="translate(129.78 83.11)" fill="none" stroke="#8abd24" stroke-linecap="round" stroke-miterlimit="10" stroke-width="1"/>
    <line id="Линия_18" data-name="Линия 18" x2="7.6" y2="0.08" transform="translate(132.4 96.69)" fill="none" stroke="#8abd24" stroke-linecap="round" stroke-miterlimit="10" stroke-width="1"/>
    <line id="Линия_19" data-name="Линия 19" x2="6.58" y2="3.81" transform="translate(129.78 106.47)" fill="none" stroke="#8abd24" stroke-linecap="round" stroke-miterlimit="10" stroke-width="1"/>
    <path id="Контур_222" data-name="Контур 222" d="M96.27,90.13a17.381,17.381,0,1,1,32.24,13h0a12.53,12.53,0,0,1-2,3.69" fill="none" stroke="#8abd24" stroke-miterlimit="10" stroke-width="1" fill-rule="evenodd"/>
  </g>
</svg>
