<svg xmlns="http://www.w3.org/2000/svg" width="549.976" height="387.734" viewBox="0 0 549.976 387.734">
  <g id="Group_13229" data-name="Group 13229" transform="translate(-685 -415)">
    <g id="Group_13222" data-name="Group 13222" transform="translate(597.503 354.986)">
      <path id="Path_14020" data-name="Path 14020" d="M493.507,273.559H628.929l8.544-85.429H485.927Z" fill="#bfc9ff"/>
      <path id="Path_14021" data-name="Path 14021" d="M583.71,267.547l21.676,28.284,3.436-30.4S584.239,267.547,583.71,267.547Z" fill="#bfc9ff"/>
      <path id="Path_14022" data-name="Path 14022" d="M614.77,208.066c-.868.289-93.077,0-93.077,0" fill="none" stroke="#fff" stroke-miterlimit="10" stroke-width="1"/>
      <line id="Line_57" data-name="Line 57" x1="79.202" transform="translate(534.122 223.097)" fill="none" stroke="#fff" stroke-miterlimit="10" stroke-width="1"/>
      <line id="Line_58" data-name="Line 58" x1="79.202" transform="translate(532.654 237.619)" fill="none" stroke="#fff" stroke-miterlimit="10" stroke-width="1"/>
      <line id="Line_59" data-name="Line 59" x1="79.202" transform="translate(531.185 252.141)" fill="none" stroke="#fff" stroke-miterlimit="10" stroke-width="1"/>
    </g>
    <g id="Group_13223" data-name="Group 13223" transform="translate(597.503 354.986)">
      <path id="Path_14023" data-name="Path 14023" d="M285.649,161.932s-37.315-60.116-88.5-23.47c-47.9,34.3-11.8,114.106-19.4,131.366-5.994,13.623-8.719-11.443-32.377-2.852-32.655,11.858-16.642,84.134,44.379,98S329.1,227.576,285.649,161.932Z" fill="#d4d0d0"/>
      <path id="Path_14024" data-name="Path 14024" d="M235.619,395.321S223.546,296,186.78,307.52s27.438,88.35,27.438,88.35Z" fill="#bfc9ff"/>
      <path id="Path_14025" data-name="Path 14025" d="M528.445,343.28s-4.831-53.933,40.7-39.072c48.632,15.873-14.709,56.4,18.575,61.8s27.018,29.045,27.018,29.045l-139.917,1.358Z" fill="#d4d0d0"/>
      <path id="Path_14026" data-name="Path 14026" d="M218.447,395.688s-62.343-97.3-112.348-58.31a23.815,23.815,0,0,0-9.167,15.266c-.782,5.492.284,11.865,7.676,15.39,18.017,8.593,47.694-14.926,78.463,27.032Z" fill="#bfc9ff"/>
      <path id="Path_14027" data-name="Path 14027" d="M216.58,383.638s-14.741-51.593-23.164-60.806" fill="none" stroke="#fff" stroke-miterlimit="10" stroke-width="1"/>
      <path id="Path_14028" data-name="Path 14028" d="M121.028,349.418s43.964-2.895,67.654,26.849" fill="none" stroke="#fff" stroke-miterlimit="10" stroke-width="1"/>
    </g>
    <g id="Group_13224" data-name="Group 13224" transform="translate(597.503 354.986)">
      <path id="Path_14029" data-name="Path 14029" d="M87.5,235.859h98.8s-10.213-60.682-46.8-45.54c-18.343,7.59-20.873,34.788-20.873,34.788S102.249,214.438,87.5,235.859Z" fill="#bfc9ff"/>
    </g>
    <path id="Path_14030" data-name="Path 14030" d="M503.782,95.714a35.7,35.7,0,0,0-71.4,0,36.184,36.184,0,0,0,.194,3.729h-.017s2.988,33.014,35.4,59.567v.235c.047-.039.091-.078.139-.117l.138.117v-.235c32.413-26.553,35.4-59.567,35.4-59.567h-.05A36.165,36.165,0,0,0,503.782,95.714Z" transform="translate(597.503 354.986)" fill="#3cade5"/>
    <circle id="Ellipse_163" data-name="Ellipse 163" cx="20.848" cy="20.848" r="20.848" transform="matrix(0.973, -0.232, 0.232, 0.973, 1040.472, 434.209)" fill="#5177c5"/>
    <circle id="Ellipse_164" data-name="Ellipse 164" cx="13.295" cy="13.295" r="13.295" transform="translate(1049.578 439.991) rotate(-13.36)" fill="#fff"/>
    <rect id="Rectangle_550" data-name="Rectangle 550" width="32.27" height="66.114" transform="translate(956.422 481.072)" fill="#ebfaff"/>
    <path id="Path_14031" data-name="Path 14031" d="M398,128.876H352.671l-3.494-19.165,52.587,2.3Z" transform="translate(597.503 354.986)" fill="#bbcae8"/>
    <path id="Path_14032" data-name="Path 14032" d="M544.735,396.19H341.188l-2.776-157.147,220.019,8.9Z" transform="translate(597.503 354.986)" fill="#def3ff"/>
    <path id="Path_14033" data-name="Path 14033" d="M573.414,248.691,307.585,237.3V189.479l253.076,26.063Z" transform="translate(597.503 354.986)" fill="#5177c5"/>
    <path id="Path_14034" data-name="Path 14034" d="M191.025,242.528,313.915,105.569,438.169,242.528l-22.066,12-205.133-.087Z" transform="translate(597.503 354.986)" fill="#3cade5"/>
    <path id="Path_14035" data-name="Path 14035" d="M313.915,350.36l-102.827-95.9,102.827-95.9,102.827,95.9Z" transform="translate(597.503 354.986)" fill="#ebfaff"/>
    <path id="Path_14036" data-name="Path 14036" d="M211.087,254.457,229.4,396.2H398.946l17.8-141.739Z" transform="translate(597.503 354.986)" fill="#ebfaff"/>
    <path id="Path_14037" data-name="Path 14037" d="M412.455,372.28l10.622-98.554,121.531-.14-12.059,97.809Z" transform="translate(597.503 354.986)" fill="#fff"/>
    <path id="Path_14038" data-name="Path 14038" d="M422.376,362.643H525.6l8.065-80.637H431.034Z" transform="translate(597.503 354.986)" fill="#bfc9ff"/>
    <path id="Path_14039" data-name="Path 14039" d="M292.731,396.158h41.8l3.589-64.854H289.3Z" transform="translate(597.503 354.986)" fill="#3cade5"/>
    <path id="Path_14040" data-name="Path 14040" d="M270.117,325.032,266.9,237.488l92.857-2.41-3.382,89.311Z" transform="translate(597.503 354.986)" fill="#fff"/>
    <path id="Path_14041" data-name="Path 14041" d="M348.617,317.419H276.275l-1.5-72.341h74.841Z" transform="translate(597.503 354.986)" fill="#bfc9ff"/>
    <path id="Path_14042" data-name="Path 14042" d="M344.095,396.235H283.484l2.424-10.882,55.575-.884Z" transform="translate(597.503 354.986)" fill="#5177c5"/>
    <path id="Path_14043" data-name="Path 14043" d="M309.5,236.3l.444,87.373,4.879.444V234.085Z" transform="translate(597.503 354.986)" fill="#fff"/>
    <path id="Path_14044" data-name="Path 14044" d="M266.738,273.151l93.416-1.588-.529-3.7-91.828.794Z" transform="translate(597.503 354.986)" fill="#fff"/>
    <path id="Path_14045" data-name="Path 14045" d="M211.087,254.457l-4.9-2.648L314.465,147.827,423.218,250.378l-6.476,4.079-102.827-95.9Z" transform="translate(597.503 354.986)" fill="#5177c5"/>
    <path id="Path_14046" data-name="Path 14046" d="M614.927,393.888H181.962L169.4,411.722H625.449Z" transform="translate(597.503 354.986)" fill="#494f70"/>
    <g id="Group_13227" data-name="Group 13227" transform="translate(597.503 354.986)">
      <path id="Path_14047" data-name="Path 14047" d="M593.648,161.135c-12.211-10.9-20.061-4.579-20.061-4.579s.654-11.339-10.467-13.956a13.014,13.014,0,0,0-8.09.455c-4.244-7.206-10.937-12.912-21.074-8.717-10.783,4.461-12.27,20.449-12.27,20.449s-9.624-6.271-18.3,6.321h44.466v.027Z" fill="#bfc9ff"/>
    </g>
    <g id="Group_13228" data-name="Group 13228" transform="translate(597.503 354.986)">
      <path id="Path_14048" data-name="Path 14048" d="M436.534,171.514A92.287,92.287,0,1,0,528.821,263.8,92.282,92.282,0,0,0,436.534,171.514Zm0,168.076a75.8,75.8,0,1,1,75.8-75.789A75.789,75.789,0,0,1,436.534,339.59Z" fill="#494f70"/>
      <path id="Path_14049" data-name="Path 14049" d="M512.331,263.8a75.757,75.757,0,0,1-121.23,60.66,74.322,74.322,0,0,1-5.8-4.81,75.795,75.795,0,1,1,107.09-107.09,72.152,72.152,0,0,1,4.81,5.8,75.392,75.392,0,0,1,15.13,45.44Z" fill="#fff" opacity="0.61"/>
    </g>
    <rect id="Rectangle_551" data-name="Rectangle 551" width="11.386" height="26.954" transform="translate(1079.163 680.599) rotate(-45)" fill="#494f70"/>
    <rect id="Rectangle_552" data-name="Rectangle 552" width="30.67" height="137.249" rx="14.698" transform="translate(1088.422 705.685) rotate(-45.001)" fill="#5177c5"/>
    <path id="Path_14050" data-name="Path 14050" d="M492.391,212.564,385.3,319.654a75.634,75.634,0,0,1-23.51-43.25l87.35-87.35A75.6,75.6,0,0,1,492.391,212.564Z" transform="translate(597.503 354.986)" fill="#fff" opacity="0.57"/>
    <path id="Path_14051" data-name="Path 14051" d="M508.891,241.154l-95,95a75.488,75.488,0,0,1-22.79-11.69l106.1-106.1A75.372,75.372,0,0,1,508.891,241.154Z" transform="translate(597.503 354.986)" fill="#fff" opacity="0.57"/>
  </g>
</svg>
