<?xml version="1.0" encoding="utf-8"?>
<!-- Generator: Adobe Illustrator 21.0.0, SVG Export Plug-In . SVG Version: 6.00 Build 0)  -->
<svg version="1.1" id="Слой_1" xmlns="http://www.w3.org/2000/svg" xmlns:xlink="http://www.w3.org/1999/xlink" x="0px" y="0px"
	 width="316px" height="58px" viewBox="0 0 316 58" style="enable-background:new 0 0 316 58;" xml:space="preserve">
<style type="text/css">
	.st0{fill:#191610;}
	.st1{fill:#2D2926;}
	.st2{fill:#231F1D;}
	.st3{fill:#12100C;}
	.st4{fill:url(#SVGID_1_);}
	.st5{fill:url(#SVGID_2_);}
	.st6{fill:url(#SVGID_3_);}
	.st7{fill:url(#SVGID_4_);}
	.st8{fill:#DD4231;}
	.st9{fill:#6F1A07;}
	.st10{fill:#91250D;}
	.st11{fill:url(#SVGID_5_);}
	.st12{fill:url(#SVGID_6_);}
	.st13{fill:url(#SVGID_7_);}
	.st14{fill:url(#SVGID_8_);}
</style>
<g id="header_x5F_smart">
	<g>
		<path d="M0,28h316v2l-28,28H28L0,30V28z"/>
	</g>
	<g>
		<polygon class="st0" points="28.4,55 1.4,28 28.4,1 287.6,1 314.6,28 287.6,55 		"/>
		<path class="st1" d="M287.2,2l26,26l-26,26H28.8l-26-26l26-26H287.2 M288,0H28L0,28l28,28h260l28-28L288,0L288,0z"/>
	</g>
	<g>
		<path class="st2" d="M278,0H38L10,28l28,28h240l28-28L278,0z M276,52H40L16,28L40,4h236l24,24L276,52z"/>
	</g>
	<g>
		<polygon class="st1" points="38,2 278,2 305,29 306,28 278,0 38,0 10,28 11,29 		"/>
	</g>
	<g>
		<polygon class="st1" points="40,54 276,54 300,30 299,29 276,52 40,52 17,29 16,30 		"/>
	</g>
	<g>
		<path class="st3" d="M252.4,28L273,7.4L293.6,28L273,48.6L252.4,28z M22.4,28L43,7.4L63.6,28L43,48.6L22.4,28z"/>
		<path class="st1" d="M43,8.8L62.2,28L43,47.2L23.8,28L43,8.8 M273,8.8L292.2,28L273,47.2L253.8,28L273,8.8 M273,6l-22,22l22,22
			l22-22L273,6L273,6z M43,6L21,28l22,22l22-22L43,6L43,6z"/>
	</g>
	<g>
		<g>
			<g>
				
					<linearGradient id="SVGID_1_" gradientUnits="userSpaceOnUse" x1="273" y1="32" x2="281.5" y2="23.5" gradientTransform="matrix(1 0 0 -1 0 60)">
					<stop  offset="0.4" style="stop-color:#FF0000"/>
					<stop  offset="1" style="stop-color:#12100C"/>
				</linearGradient>
				<path class="st4" d="M290,28l-17,17V28H290z"/>
			</g>
		</g>
		<g>
			<g>
				
					<linearGradient id="SVGID_2_" gradientUnits="userSpaceOnUse" x1="273" y1="112.0013" x2="281.5" y2="103.5013" gradientTransform="matrix(1 0 0 1 0 -84.0013)">
					<stop  offset="0.4" style="stop-color:#FF0000"/>
					<stop  offset="1" style="stop-color:#12100C"/>
				</linearGradient>
				<path class="st5" d="M290,28l-17-17v17H290z"/>
			</g>
		</g>
		<g>
			<g>
				
					<linearGradient id="SVGID_3_" gradientUnits="userSpaceOnUse" x1="781.0359" y1="32.0108" x2="789.5368" y2="23.5099" gradientTransform="matrix(-0.9999 0 0 -1 1053.9678 60)">
					<stop  offset="0.4" style="stop-color:#FF0000"/>
					<stop  offset="1" style="stop-color:#12100C"/>
				</linearGradient>
				<path class="st6" d="M256,28l17,17V28H256z"/>
			</g>
		</g>
		<g>
			<g>
				
					<linearGradient id="SVGID_4_" gradientUnits="userSpaceOnUse" x1="781.0367" y1="112.0114" x2="789.5375" y2="103.5105" gradientTransform="matrix(-0.9999 0 0 1 1053.9678 -84.0013)">
					<stop  offset="0.4" style="stop-color:#FF0000"/>
					<stop  offset="1" style="stop-color:#12100C"/>
				</linearGradient>
				<path class="st7" d="M256,28l17-17v17H256z"/>
			</g>
		</g>
		<path class="st8" d="M273,18l10,10l-10,10l-10-10L273,18z"/>
		<path class="st9" d="M273,36.3l8.3-8.3h-16.7L273,36.3z"/>
		<path class="st10" d="M273,36.3V28h-8.3L273,36.3z"/>
		<path class="st10" d="M273,19.7l8.3,8.3h-16.7L273,19.7z"/>
		<path class="st8" d="M273,19.7V28h-8.3L273,19.7z"/>
	</g>
	<g>
		<g>
			<g>
				
					<linearGradient id="SVGID_5_" gradientUnits="userSpaceOnUse" x1="43" y1="32" x2="51.5" y2="23.5" gradientTransform="matrix(1 0 0 -1 0 60)">
					<stop  offset="0.4" style="stop-color:#FF0000"/>
					<stop  offset="1" style="stop-color:#12100C"/>
				</linearGradient>
				<path class="st11" d="M60,28L43,45V28H60z"/>
			</g>
		</g>
		<g>
			<g>
				
					<linearGradient id="SVGID_6_" gradientUnits="userSpaceOnUse" x1="43" y1="112.0013" x2="51.5" y2="103.5013" gradientTransform="matrix(1 0 0 1 0 -84.0013)">
					<stop  offset="0.4" style="stop-color:#FF0000"/>
					<stop  offset="1" style="stop-color:#12100C"/>
				</linearGradient>
				<path class="st12" d="M60,28L43,11v17H60z"/>
			</g>
		</g>
		<g>
			<g>
				
					<linearGradient id="SVGID_7_" gradientUnits="userSpaceOnUse" x1="1011.0493" y1="32.0206" x2="1019.55" y2="23.5197" gradientTransform="matrix(-0.9999 0 0 -1 1053.9678 60)">
					<stop  offset="0.4" style="stop-color:#FF0000"/>
					<stop  offset="1" style="stop-color:#12100C"/>
				</linearGradient>
				<path class="st13" d="M26,28l17,17V28H26z"/>
			</g>
		</g>
		<g>
			<g>
				
					<linearGradient id="SVGID_8_" gradientUnits="userSpaceOnUse" x1="1011.05" y1="112.0212" x2="1019.5507" y2="103.5203" gradientTransform="matrix(-0.9999 0 0 1 1053.9678 -84.0013)">
					<stop  offset="0.4" style="stop-color:#FF0000"/>
					<stop  offset="1" style="stop-color:#12100C"/>
				</linearGradient>
				<path class="st14" d="M26,28l17-17v17H26z"/>
			</g>
		</g>
		<path class="st8" d="M43,18l10,10L43,38L33,28L43,18z"/>
		<path class="st9" d="M43,36.3l8.3-8.3H34.7L43,36.3z"/>
		<path class="st10" d="M43,36.3V28h-8.3L43,36.3z"/>
		<path class="st10" d="M43,19.7l8.3,8.3H34.7L43,19.7z"/>
		<path class="st8" d="M43,19.7V28h-8.3L43,19.7z"/>
	</g>
</g>
</svg>
