<?xml version="1.0" encoding="utf-8"?>
<!-- Generator: Adobe Illustrator 21.0.0, SVG Export Plug-In . SVG Version: 6.00 Build 0)  -->
<svg version="1.1" id="Слой_1" xmlns="http://www.w3.org/2000/svg" xmlns:xlink="http://www.w3.org/1999/xlink" x="0px" y="0px"
	 width="576px" height="58px" viewBox="0 0 576 58" style="enable-background:new 0 0 576 58;" xml:space="preserve">
<style type="text/css">
	.st0{fill-rule:evenodd;clip-rule:evenodd;}
	.st1{fill-rule:evenodd;clip-rule:evenodd;fill:#191610;}
	.st2{fill:#2D2926;}
	.st3{fill-rule:evenodd;clip-rule:evenodd;fill:#231F1D;}
	.st4{fill-rule:evenodd;clip-rule:evenodd;fill:#2D2926;}
	.st5{fill-rule:evenodd;clip-rule:evenodd;fill:#12100C;}
	.st6{fill-rule:evenodd;clip-rule:evenodd;fill:url(#SVGID_1_);}
	.st7{fill-rule:evenodd;clip-rule:evenodd;fill:url(#SVGID_2_);}
	.st8{fill-rule:evenodd;clip-rule:evenodd;fill:url(#SVGID_3_);}
	.st9{fill-rule:evenodd;clip-rule:evenodd;fill:url(#SVGID_4_);}
	.st10{fill-rule:evenodd;clip-rule:evenodd;fill:#DD4231;}
	.st11{fill-rule:evenodd;clip-rule:evenodd;fill:#6F1A07;}
	.st12{fill-rule:evenodd;clip-rule:evenodd;fill:#91250D;}
	.st13{fill-rule:evenodd;clip-rule:evenodd;fill:url(#SVGID_5_);}
	.st14{fill-rule:evenodd;clip-rule:evenodd;fill:url(#SVGID_6_);}
	.st15{fill-rule:evenodd;clip-rule:evenodd;fill:url(#SVGID_7_);}
	.st16{fill-rule:evenodd;clip-rule:evenodd;fill:url(#SVGID_8_);}
</style>
<g id="header_x5F_desk">
	<g>
		<path class="st0" d="M0,28h576v2l-28,28H28L0,30V28z"/>
	</g>
	<g>
		<polygon class="st1" points="28.4,55 1.4,28 28.4,1 547.6,1 574.6,28 547.6,55 		"/>
		<path class="st2" d="M547.2,2l26,26l-26,26H28.8l-26-26l26-26H547.2 M548,0H28L0,28l28,28h520l28-28L548,0L548,0z"/>
	</g>
	<g>
		<path class="st3" d="M538,0H38L10,28l28,28h500l28-28L538,0z M536,52H40L16,28L40,4h496l24,24L536,52z"/>
	</g>
	<g>
		<polygon class="st4" points="38,2 538,2 565,29 566,28 538,0 38,0 10,28 11,29 		"/>
	</g>
	<g>
		<polygon class="st4" points="40,54 536,54 560,30 559,29 536,52 40,52 17,29 16,30 		"/>
	</g>
	<g>
		<path class="st4" d="M438,27l66-2l3,3l-3,3l-66-2V27z M418,19l100-6l-5,5l-95,2V19z M418,36l95,2l5,5l-100-6V36z M138,27l-66-2
			l-3,3l3,3l66-2V27z M158,19L58,13l5,5l95,2V19z M158,36l-95,2l-5,5l100-6V36z"/>
	</g>
	<g>
		<path class="st5" d="M512.4,28L533,7.4L553.6,28L533,48.6L512.4,28z M22.4,28L43,7.4L63.6,28L43,48.6L22.4,28z"/>
		<path class="st2" d="M43,8.8L62.2,28L43,47.2L23.8,28L43,8.8 M533,8.8L552.2,28L533,47.2L513.8,28L533,8.8 M533,6l-22,22l22,22
			l22-22L533,6L533,6z M43,6L21,28l22,22l22-22L43,6L43,6z"/>
	</g>
	<g>
		<g>
			<g>
				<linearGradient id="SVGID_1_" gradientUnits="userSpaceOnUse" x1="532.9998" y1="27.9999" x2="541.4998" y2="36.4999">
					<stop  offset="0.4" style="stop-color:#FF0000"/>
					<stop  offset="1" style="stop-color:#12100C"/>
				</linearGradient>
				<path class="st6" d="M550,28l-17,17l0-17H550z"/>
			</g>
		</g>
		<g>
			<g>
				
					<linearGradient id="SVGID_2_" gradientUnits="userSpaceOnUse" x1="532.9998" y1="28" x2="541.4998" y2="36.5" gradientTransform="matrix(1 0 0 -1 0 55.9987)">
					<stop  offset="0.4" style="stop-color:#FF0000"/>
					<stop  offset="1" style="stop-color:#12100C"/>
				</linearGradient>
				<path class="st7" d="M550,28l-17-17l0,17H550z"/>
			</g>
		</g>
		<g>
			<g>
				
					<linearGradient id="SVGID_3_" gradientUnits="userSpaceOnUse" x1="532.9999" y1="27.9999" x2="541.4999" y2="36.4999" gradientTransform="matrix(-0.9999 0 0 1 1065.9672 0)">
					<stop  offset="0.4" style="stop-color:#FF0000"/>
					<stop  offset="1" style="stop-color:#12100C"/>
				</linearGradient>
				<path class="st8" d="M516,28l17,17l0-17H516z"/>
			</g>
		</g>
		<g>
			<g>
				
					<linearGradient id="SVGID_4_" gradientUnits="userSpaceOnUse" x1="532.9999" y1="28" x2="541.4999" y2="36.5" gradientTransform="matrix(-0.9999 0 0 -1 1065.9672 55.9987)">
					<stop  offset="0.4" style="stop-color:#FF0000"/>
					<stop  offset="1" style="stop-color:#12100C"/>
				</linearGradient>
				<path class="st9" d="M516,28l17-17l0,17H516z"/>
			</g>
		</g>
		<path class="st10" d="M533,18l10,10l-10,10l-10-10L533,18z"/>
		<path class="st11" d="M533,36.3l8.3-8.3h-16.7L533,36.3z"/>
		<path class="st12" d="M533,36.3V28h-8.3L533,36.3z"/>
		<path class="st12" d="M533,19.7l8.3,8.3h-16.7L533,19.7z"/>
		<path class="st10" d="M533,19.7V28h-8.3L533,19.7z"/>
	</g>
	<g>
		<g>
			<g>
				<linearGradient id="SVGID_5_" gradientUnits="userSpaceOnUse" x1="42.9998" y1="27.9999" x2="51.4998" y2="36.4999">
					<stop  offset="0.4" style="stop-color:#FF0000"/>
					<stop  offset="1" style="stop-color:#12100C"/>
				</linearGradient>
				<path class="st13" d="M60,28L43,45l0-17H60z"/>
			</g>
		</g>
		<g>
			<g>
				
					<linearGradient id="SVGID_6_" gradientUnits="userSpaceOnUse" x1="42.9998" y1="28" x2="51.4998" y2="36.5" gradientTransform="matrix(1 0 0 -1 0 55.9987)">
					<stop  offset="0.4" style="stop-color:#FF0000"/>
					<stop  offset="1" style="stop-color:#12100C"/>
				</linearGradient>
				<path class="st14" d="M60,28L43,11l0,17H60z"/>
			</g>
		</g>
		<g>
			<g>
				
					<linearGradient id="SVGID_7_" gradientUnits="userSpaceOnUse" x1="1023.0294" y1="27.9999" x2="1031.5293" y2="36.4999" gradientTransform="matrix(-0.9999 0 0 1 1065.9672 0)">
					<stop  offset="0.4" style="stop-color:#FF0000"/>
					<stop  offset="1" style="stop-color:#12100C"/>
				</linearGradient>
				<path class="st15" d="M26,28l17,17l0-17H26z"/>
			</g>
		</g>
		<g>
			<g>
				
					<linearGradient id="SVGID_8_" gradientUnits="userSpaceOnUse" x1="1023.0294" y1="28" x2="1031.5293" y2="36.5" gradientTransform="matrix(-0.9999 0 0 -1 1065.9672 55.9987)">
					<stop  offset="0.4" style="stop-color:#FF0000"/>
					<stop  offset="1" style="stop-color:#12100C"/>
				</linearGradient>
				<path class="st16" d="M26,28l17-17l0,17H26z"/>
			</g>
		</g>
		<path class="st10" d="M43,18l10,10L43,38L33,28L43,18z"/>
		<path class="st11" d="M43,36.3l8.3-8.3H34.7L43,36.3z"/>
		<path class="st12" d="M43,36.3V28h-8.3L43,36.3z"/>
		<path class="st12" d="M43,19.7l8.3,8.3H34.7L43,19.7z"/>
		<path class="st10" d="M43,19.7V28h-8.3L43,19.7z"/>
	</g>
</g>
</svg>
