<?xml version="1.0" encoding="utf-8"?>
<!-- Generator: Adobe Illustrator 17.0.0, SVG Export Plug-In . SVG Version: 6.00 Build 0)  -->
<!DOCTYPE svg PUBLIC "-//W3C//DTD SVG 1.1//EN" "http://www.w3.org/Graphics/SVG/1.1/DTD/svg11.dtd">
<svg version="1.1" id="Layer_1" xmlns="http://www.w3.org/2000/svg" xmlns:xlink="http://www.w3.org/1999/xlink" x="0px" y="0px"
	 width="180px" height="70px" viewBox="0 0 180 70" enable-background="new 0 0 180 70" xml:space="preserve">
<g id="Betdigital">
	<rect id="Path_250_" x="161.229" y="20" fill="#EEEEEE" width="8.771" height="27.085"/>
	<path id="Path_249_" fill="#EEEEEE" d="M143.019,22.915v4.546h7.369v3.071h-7.369v16.553h15.409v-24.17H143.019z M150.388,41.815
		h-2.991v-6.768l2.991,0.004V41.815z"/>
	<polygon id="Path_248_" fill="#EEEEEE" points="127.671,20 127.671,22.915 124.015,22.915 124.015,27.461 127.671,27.461 
		127.671,47.085 140.157,47.085 140.157,41.815 136.441,41.815 136.441,27.461 140.157,27.461 140.157,22.915 136.441,22.915 
		136.441,20 	"/>
	<rect id="Path_247_" x="113.663" y="27.461" fill="#EEEEEE" width="8.101" height="19.624"/>
	<rect id="Path_246_" x="113.663" y="20" fill="#EEEEEE" width="8.101" height="4.59"/>
	<path id="Path_245_" fill="#EEEEEE" d="M99.168,27.461h2.919v10.596h-2.919V27.461z M94.802,22.915v18.9h7.285v3.701h-7.285V50
		H110.8V22.915H94.802z"/>
	<rect id="Path_244_" x="83.758" y="27.461" fill="#EEEEEE" width="8.099" height="19.624"/>
	<rect id="Path_243_" x="83.758" y="20" fill="#EEEEEE" width="8.099" height="4.59"/>
	<path id="Path_242_" fill="#EEEEEE" d="M69.81,27.461h2.254v14.355H69.81V27.461z M72.064,20v2.915h-7.067v24.17h15.836V20H72.064z
		"/>
	<polygon id="Path_241_" fill="#EEEEEE" points="50.197,20 50.197,22.915 46.543,22.915 46.543,27.461 50.197,27.461 50.197,47.085 
		62.685,47.085 62.685,41.815 58.969,41.815 58.969,27.461 62.685,27.461 62.685,22.915 58.969,22.915 58.969,20 	"/>
	<path id="Path_240_" fill="#EEEEEE" d="M44.351,39.538V22.915H28.273v24.17h16.079v-5.269H37.04v-2.255L44.351,39.538z
		 M37.04,27.461h2.926v6.858H37.04V27.461z"/>
	<path id="Path_239_" fill="#EEEEEE" d="M18.862,27.461h2.832v14.355h-2.832V27.461z M10,20v27.085h16.079v-24.17h-7.216V20H10z"/>
</g>
</svg>
