<?xml version="1.0" encoding="utf-8"?>
<!-- Generator: Adobe Illustrator 17.0.0, SVG Export Plug-In . SVG Version: 6.00 Build 0)  -->
<!DOCTYPE svg PUBLIC "-//W3C//DTD SVG 1.1//EN" "http://www.w3.org/Graphics/SVG/1.1/DTD/svg11.dtd">
<svg version="1.1" id="Layer_1" xmlns="http://www.w3.org/2000/svg" xmlns:xlink="http://www.w3.org/1999/xlink" x="0px" y="0px"
	 width="180px" height="70px" viewBox="0 0 180 70" enable-background="new 0 0 180 70" xml:space="preserve">
<g id="Booming">
	<path id="Path_107_" fill="#FF3333" d="M145.04,25.572c0-2.47,0.996-3.198,2.191-3.198c1.952,0,2.828,1.134,2.828,5.506h4.701
		v-1.863c0-4.373-2.47-8.017-7.41-8.017c-4.86,0-7.251,3.361-7.251,7.491v11.284h4.94V25.572z"/>
	<path id="Path_106_" fill="#FF3333" d="M146.913,36.775v3.956l0,0h3.147v2.847c0,2.915-0.717,4.049-2.709,4.049
		c-1.713,0-2.311-1.215-2.311-3.078v-3.819h-4.94v3.778c0,4.657,2.709,7.491,6.613,7.491c2.311,0,3.506-0.81,4.98-2.592l0.917,2.187
		H155V40.731v-3.956H146.913z"/>
	<rect id="Path_105_" x="120.18" y="40.731" fill="#FF3333" width="4.462" height="10.864"/>
	<polygon id="Path_104_" fill="#FF3333" points="127.271,40.731 131.016,51.595 135.319,51.595 135.319,40.731 	"/>
	<polygon id="Path_103_" fill="#FF3333" points="135.319,18.405 130.856,18.405 130.856,35.128 124.762,18.405 120.18,18.405 
		120.18,36.775 124.642,36.775 124.642,29.378 127.271,36.775 135.319,36.775 	"/>
	<rect id="Path_102_" x="109.975" y="18.405" fill="#FF3333" width="4.94" height="18.37"/>
	<rect id="Path_101_" x="109.975" y="40.731" fill="#FF3333" width="4.94" height="10.864"/>
	<rect id="Path_100_" x="84.632" y="40.731" fill="#FF3333" width="4.302" height="10.864"/>
	<polygon id="Path_99_" fill="#FF3333" points="93.475,51.595 95.866,51.595 97.989,40.731 91.353,40.731 	"/>
	<polygon id="Path_98_" fill="#FF3333" points="104.71,18.405 98.216,18.405 94.671,34.312 91.125,18.405 84.632,18.405 
		84.632,36.775 88.934,36.775 88.934,24.803 91.353,36.775 97.989,36.775 100.407,24.803 100.407,36.775 104.71,36.775 	"/>
	<rect id="Path_97_" x="100.407" y="40.731" fill="#FF3333" width="4.303" height="10.864"/>
	<path id="Path_96_" fill="#FF3333" d="M74.891,40.731v3.657c0,2.187-0.637,3.24-2.629,3.24c-1.992,0-2.629-1.053-2.629-3.24v-3.657
		h-4.94v3.778c0,4.131,2.391,7.491,7.569,7.491c5.179,0,7.569-3.36,7.569-7.491v-3.778H74.891z"/>
	<path id="Path_95_" fill="#FF3333" d="M69.633,25.612c0-2.187,0.637-3.239,2.629-3.239c1.992,0,2.629,1.052,2.629,3.239v11.163
		h4.94V25.491c0-4.13-2.391-7.491-7.569-7.491c-5.179,0-7.569,3.361-7.569,7.491v11.284h4.94V25.612z"/>
	<path id="Path_94_" fill="#FF3333" d="M49.712,25.612c0-2.187,0.637-3.239,2.629-3.239s2.629,1.052,2.629,3.239v11.163h4.94V25.491
		c0-4.13-2.391-7.491-7.569-7.491c-5.179,0-7.569,3.361-7.569,7.491v11.284h4.94V25.612z"/>
	<path id="Path_93_" fill="#FF3333" d="M54.97,40.731v3.657c0,2.187-0.637,3.24-2.629,3.24s-2.629-1.053-2.629-3.24v-3.657h-4.94
		v3.778c0,4.131,2.391,7.491,7.569,7.491c5.179,0,7.569-3.36,7.569-7.491v-3.778H54.97z"/>
	<path id="Path_92_" fill="#FF3333" d="M29.94,34.521h1.594c2.08,0,3.234,0.762,3.741,2.254h5.011
		c-0.516-2.272-1.822-3.658-3.733-4.522c2.39-0.972,3.426-3.604,3.426-6.115c0-4.98-2.35-7.734-7.649-7.734H25v18.37h4.94V34.521z
		 M29.94,22.535h1.873c2.191,0,3.227,1.418,3.227,4.131c0,2.429-1.434,3.725-3.306,3.725H29.94V22.535z"/>
	<path id="Path_91_" fill="#FF3333" d="M40.537,40.731h-4.94v2.22h-0.001c0,0.007,0.001,0.013,0.001,0.02
		c0,2.956-0.956,4.495-3.586,4.495H29.94v-6.734H25v10.864h7.808c5.617,0,7.729-3.645,7.729-8.463c0-0.064-0.008-0.119-0.009-0.182
		h0.009V40.731z"/>
</g>
</svg>
