<?xml version="1.0" encoding="utf-8"?>
<!-- Generator: Adobe Illustrator 21.0.0, SVG Export Plug-In . SVG Version: 6.00 Build 0)  -->
<svg version="1.1" id="Layer_1" xmlns="http://www.w3.org/2000/svg" xmlns:xlink="http://www.w3.org/1999/xlink" x="0px" y="0px"
	 viewBox="0 0 180 70" style="enable-background:new 0 0 180 70;" xml:space="preserve">
<style type="text/css">
	.st0{fill:#FF3333;}
	.st1{fill:#EEEEEE;}
	.st2{fill:#333333;}
</style>
<g id="ChanceInteractive">
	<g>
		<path class="st0" d="M147.1,37.1l6.8-7.5c0.3-0.3,0.3-0.9,0.2-1.3l-4.6-10.9c-0.2-0.4-0.5-0.5-0.8-0.2l-6.8,7.5
			c-0.3,0.3-0.3,0.9-0.2,1.3l4.6,10.9C146.5,37.3,146.8,37.4,147.1,37.1z"/>
		<path class="st1" d="M144.5,27.3c0.3,0.8,1,1,1.5,0.4c0.5-0.6,0.6-1.7,0.3-2.5c-0.3-0.8-1-1-1.5-0.4
			C144.3,25.4,144.2,26.5,144.5,27.3z"/>
		<path class="st1" d="M149.8,29.1c0.3,0.8,1,1,1.5,0.4c0.5-0.6,0.6-1.7,0.3-2.5s-1-1-1.5-0.4S149.5,28.3,149.8,29.1z"/>
		<path class="st0" d="M145.1,37.9L135,37.5c-0.4,0-0.9-0.4-1.1-0.8l-4.6-10.9c-0.2-0.4,0-0.8,0.4-0.7l10.2,0.4
			c0.4,0,0.9,0.4,1.1,0.8l4.6,10.9C145.7,37.6,145.5,37.9,145.1,37.9z"/>
		<path class="st1" d="M140.5,28.3c0.3,0.8,0,1.4-0.7,1.4c-0.7,0-1.6-0.7-2-1.5s0-1.4,0.7-1.4C139.3,26.9,140.1,27.5,140.5,28.3z"/>
		<path class="st1" d="M138.8,31.5c0.3,0.8,0,1.4-0.7,1.4c-0.7,0-1.6-0.7-2-1.5c-0.3-0.8,0-1.4,0.7-1.4S138.5,30.7,138.8,31.5z"/>
		<path class="st1" d="M137.1,34.7c0.3,0.8,0,1.4-0.7,1.4c-0.7,0-1.6-0.7-2-1.5c-0.3-0.8,0-1.4,0.7-1.4S136.8,33.9,137.1,34.7z"/>
		<path class="st0" d="M129.4,24.1l6.6-7.3c0.3-0.3,0.8-0.5,1.2-0.5l10.6,0.2c0.4,0,0.5,0.2,0.3,0.5l-6.6,7.3
			c-0.3,0.3-0.8,0.5-1.2,0.5l-10.6-0.2C129.2,24.6,129.1,24.4,129.4,24.1z"/>
		<path class="st1" d="M138,21.8c-0.8,0-1-0.5-0.5-1s1.5-1,2.3-1c0.8,0,1,0.5,0.5,1C139.8,21.4,138.7,21.8,138,21.8z"/>
	</g>
	<g>
		<path class="st1" d="M153.4,36.1l8.7,2.2c0.3,0.1,0.8-0.1,1.1-0.4l6.6-8.1c0.3-0.3,0.2-0.6-0.1-0.7l-8.7-2.2
			c-0.3-0.1-0.8,0.1-1.1,0.4l-6.6,8.1C153,35.7,153.1,36,153.4,36.1z"/>
		<path class="st2" d="M160,29.4c-0.5,0.6-0.4,1.2,0.3,1.4c0.6,0.2,1.6-0.2,2-0.8c0.5-0.6,0.4-1.2-0.3-1.4
			C161.4,28.4,160.5,28.8,160,29.4z"/>
		<path class="st2" d="M165,30.7c-0.5,0.6-0.4,1.2,0.3,1.4c0.6,0.2,1.6-0.2,2-0.8c0.5-0.6,0.4-1.2-0.3-1.4S165.4,30.1,165,30.7z"/>
		<path class="st2" d="M161.1,35.5c-0.5,0.6-0.4,1.2,0.3,1.4c0.6,0.2,1.6-0.2,2-0.8c0.5-0.6,0.4-1.2-0.3-1.4
			C162.5,34.6,161.5,34.9,161.1,35.5z"/>
		<path class="st2" d="M155.6,34.3c-0.5,0.6-0.4,1.2,0.3,1.4c0.6,0.2,1.6-0.2,2-0.8s0.4-1.2-0.3-1.4C157,33.4,156.1,33.7,155.6,34.3
			z"/>
		<path class="st2" d="M160.2,32.7c-0.5,0.6-0.4,1.2,0.3,1.4c0.6,0.2,1.6-0.2,2-0.8s0.4-1.2-0.3-1.4
			C161.6,31.8,160.7,32.1,160.2,32.7z"/>
		<path class="st1" d="M155.6,17.6c-0.2-0.3-0.5-0.3-0.8,0l-2.9,3.5l3,7c0.2,0.4,0.1,1-0.2,1.3l-3.6,4l0.7,1.5
			c0.2,0.3,0.5,0.3,0.8,0l6.6-8.1c0.3-0.3,0.3-0.8,0.2-1.2L155.6,17.6z"/>
		<path class="st2" d="M155,22.6c-0.5,0.6-1.1,0.6-1.4,0c-0.3-0.6-0.1-1.6,0.4-2.2c0.5-0.6,1.1-0.6,1.4,0
			C155.7,21.1,155.5,22,155,22.6z"/>
		<path class="st1" d="M156.3,16.9l8.4,2.2c0.3,0.1,0.7,0.4,0.9,0.8l4.2,8.4c0.2,0.3,0,0.5-0.3,0.4l-8.4-2.2
			c-0.3-0.1-0.7-0.4-0.9-0.8l-4.2-8.4C155.8,17,155.9,16.8,156.3,16.9z"/>
		<path class="st2" d="M161.6,22.7c-0.3-0.6-0.1-1,0.6-0.8c0.6,0.2,1.4,0.8,1.7,1.4s0.1,1-0.6,0.8C162.6,23.9,161.9,23.3,161.6,22.7
			z"/>
	</g>
	<g>
		<path class="st1" d="M10,53.7v-13h2.4v13H10z"/>
		<path class="st1" d="M25.4,50.2v-9.5h2.4v13h-2.6l-8-9.5v9.5h-2.4v-13h2.6L25.4,50.2z"/>
		<path class="st1" d="M30.1,40.7h13v2.4h-5.3v10.6h-2.4V43.1h-5.3V40.7z"/>
		<path class="st1" d="M57.3,40.7v2.4h-9.5V46h7.7v2.4h-7.7v2.9h9.5v2.4H45.4v-13H57.3z"/>
		<path class="st1" d="M73.1,43.2v3.5c0,0.7-0.2,1.3-0.7,1.8c-0.5,0.5-1.1,0.7-1.8,0.7h-0.7l3.2,3.8v0.6h-2.6l-3.8-4.5h-4.2h-0.1
			v4.5h-2.4v-13h10.5c0.7,0,1.3,0.2,1.8,0.7C72.8,41.9,73.1,42.5,73.1,43.2z M62.6,46.8h8c0.1,0,0.1,0,0.1-0.1v-3.5
			c0-0.1,0-0.1-0.1-0.1h-8c-0.1,0-0.1,0-0.1,0.1v3.5C62.4,46.8,62.5,46.8,62.6,46.8z"/>
		<path class="st1" d="M78.4,40.7h8c0.7,0,1.3,0.2,1.8,0.7c0.5,0.5,0.7,1.1,0.7,1.8v10.5h-2.4v-4.4h-8.2v4.4h-2.4V43.2
			c0-0.7,0.2-1.3,0.7-1.8C77.1,40.9,77.7,40.7,78.4,40.7z M78.3,46.9h8.2v-3.7c0-0.1,0-0.1-0.1-0.1h-8c-0.1,0-0.1,0-0.1,0.1V46.9z"
			/>
		<path class="st1" d="M104.8,43.1H94.4c-0.1,0-0.1,0-0.1,0.1v8c0,0.1,0,0.1,0.1,0.1h10.4v2.4H94.4c-0.7,0-1.3-0.2-1.8-0.7
			c-0.5-0.5-0.7-1.1-0.7-1.8v-8c0-0.7,0.2-1.3,0.7-1.8c0.5-0.5,1.1-0.7,1.8-0.7h10.4V43.1z"/>
		<path class="st1" d="M106.9,40.7h13v2.4h-5.3v10.6h-2.4V43.1h-5.3V40.7z"/>
		<path class="st1" d="M122.2,53.7v-13h2.4v13H122.2z"/>
		<path class="st1" d="M135.3,50.8l5.8-10.1h2.8l-7.5,13h-2.1l-7.5-13h2.8L135.3,50.8z"/>
		<path class="st1" d="M158,40.7v2.4h-9.5V46h7.7v2.4h-7.7v2.9h9.5v2.4h-11.9v-13H158z"/>
	</g>
	<g>
		<path class="st0" d="M27.1,21.5H13.5c-0.1,0-0.2,0.1-0.2,0.2V32c0,0.1,0.1,0.2,0.2,0.2h13.6v3.1H13.5c-0.9,0-1.7-0.3-2.3-0.9
			c-0.6-0.6-0.9-1.4-0.9-2.3V21.7c0-0.9,0.3-1.7,0.9-2.3c0.6-0.6,1.4-0.9,2.3-0.9h13.6V21.5z"/>
		<path class="st0" d="M44.3,18.4h3.1v16.9h-3.1v-6.9H33.2v6.9h-3.1V18.4h3.1v6.9h11.1V18.4z"/>
		<path class="st0" d="M53.9,18.4h10.3c0.9,0,1.7,0.3,2.3,0.9c0.6,0.6,1,1.4,1,2.3v13.6h-3.1v-5.7H53.8v5.7h-3.1V21.7
			c0-0.9,0.3-1.7,0.9-2.3C52.3,18.7,53,18.4,53.9,18.4z M53.8,26.5h10.7v-4.8c0-0.1-0.1-0.2-0.2-0.2H53.9c-0.1,0-0.2,0.1-0.2,0.2
			V26.5z"/>
		<path class="st0" d="M84.6,30.8V18.4h3.1v16.9h-3.4L73.9,22.9v12.4h-3.1V18.4h3.4L84.6,30.8z"/>
		<path class="st0" d="M107.7,21.5H94.1c-0.1,0-0.2,0.1-0.2,0.2V32c0,0.1,0.1,0.2,0.2,0.2h13.6v3.1H94.1c-0.9,0-1.7-0.3-2.3-0.9
			c-0.6-0.6-0.9-1.4-0.9-2.3V21.7c0-0.9,0.3-1.7,0.9-2.3c0.6-0.6,1.4-0.9,2.3-0.9h13.6V21.5z"/>
		<path class="st0" d="M126.3,18.4v3.1h-12.4v3.8h10v3.1h-10v3.8h12.4v3.1h-15.5V18.4H126.3z"/>
	</g>
</g>
</svg>
