<?xml version="1.0" encoding="utf-8"?>
<!-- Generator: Adobe Illustrator 17.0.0, SVG Export Plug-In . SVG Version: 6.00 Build 0)  -->
<!DOCTYPE svg PUBLIC "-//W3C//DTD SVG 1.1//EN" "http://www.w3.org/Graphics/SVG/1.1/DTD/svg11.dtd">
<svg version="1.1" id="Layer_1" xmlns="http://www.w3.org/2000/svg" xmlns:xlink="http://www.w3.org/1999/xlink" x="0px" y="0px"
	 width="180px" height="70px" viewBox="0 0 180 70" enable-background="new 0 0 180 70" xml:space="preserve">
<g id="Netent">
	<polygon id="Path" fill="#00CC00" points="131.475,38.533 119.731,19.67 114.293,19.67 114.293,50.432 120.326,50.432 
		120.326,31.525 132.07,50.432 137.548,50.432 137.548,19.67 131.475,19.67 	"/>
	<polygon id="Path_1_" fill="#00CC00" points="140.036,19.671 140.036,25.585 147.002,25.585 147.002,50.432 153.076,50.432 
		153.076,25.585 160,25.585 160,19.671 	"/>
	<polygon id="Path_2_" fill="#00CC00" points="91.822,10 91.822,60 93.244,60 93.244,50.38 111.258,50.38 111.258,44.555 
		97.398,44.555 97.398,37.847 109.249,37.847 109.249,31.977 97.398,31.977 97.398,25.49 111.258,25.49 111.258,19.62 93.244,19.62 
		93.244,10 	"/>
	<polygon id="Path_3_" fill="#EEEEEE" points="69.028,25.534 75.993,25.534 75.993,50.38 82.067,50.38 82.067,25.534 88.993,25.534 
		88.993,19.62 69.028,19.62 	"/>
	<polygon id="Path_4_" fill="#EEEEEE" points="46.647,50.38 66.58,50.38 66.58,44.555 52.72,44.555 52.72,37.847 64.571,37.847 
		64.571,31.977 52.72,31.977 52.72,25.491 66.58,25.491 66.58,19.62 46.647,19.62 	"/>
	<polygon id="Path_5_" fill="#EEEEEE" points="37.182,19.619 37.182,38.482 25.436,19.619 20,19.619 20,50.381 26.032,50.381 
		26.032,31.472 37.776,50.381 43.254,50.381 43.254,19.619 	"/>
</g>
</svg>
