<?xml version="1.0" encoding="utf-8"?>
<!-- Generator: Adobe Illustrator 17.0.0, SVG Export Plug-In . SVG Version: 6.00 Build 0)  -->
<!DOCTYPE svg PUBLIC "-//W3C//DTD SVG 1.1//EN" "http://www.w3.org/Graphics/SVG/1.1/DTD/svg11.dtd">
<svg version="1.1" id="Layer_1" xmlns="http://www.w3.org/2000/svg" xmlns:xlink="http://www.w3.org/1999/xlink" x="0px" y="0px"
	 width="180px" height="70px" viewBox="0 0 180 70" enable-background="new 0 0 180 70" xml:space="preserve">
<g id="Quickfire">
	<path id="Path_34_" fill="#EEEEEE" d="M86.66,42.707c-0.611,1.408-1.913,2.099-5.607,2.099c-4.279,0-5.847-1.887-5.847-4.73V27.718
		c0-0.319,0.239-0.585,0.585-0.585h0.611c0.319,0,0.532,0.266,0.532,0.585v12.411c0,2.046,1.222,3.216,4.305,3.216
		c4.518,0,5.421-1.408,5.421-4.651V27.718c0-0.319,0.266-0.585,0.585-0.585h0.611c0.319,0,0.532,0.266,0.532,0.585v16.158
		c0,0.319-0.213,0.585-0.532,0.585h-0.611c-0.319,0-0.585-0.266-0.585-0.585V42.707z M95.084,43.85c0,0.319-0.266,0.585-0.611,0.585
		h-0.585c-0.319,0-0.585-0.266-0.585-0.585V28.595h-1.701c-0.319,0-0.585-0.239-0.585-0.585v-0.319c0-0.319,0.266-0.585,0.585-0.585
		H94.5c0.319,0,0.585,0.266,0.585,0.585V43.85z M93.915,19.826c0.904,0,1.701,0.797,1.701,1.701c0,0.877-0.797,1.648-1.701,1.648
		c-0.877,0-1.648-0.797-1.648-1.648C92.241,20.623,93.038,19.826,93.915,19.826z M104.545,26.762c4.358,0,6.086,2.046,6.086,4.97
		v0.691c0,0.319-0.239,0.585-0.585,0.585h-0.505c-0.319,0-0.532-0.239-0.532-0.585v-0.718c0-2.339-1.94-3.455-4.677-3.455
		c-2.897,0-4.863,1.408-4.863,7.335c0,6.697,3.535,7.707,6.67,7.707c1.382,0,3.508-0.425,3.933-0.425
		c0.319,0,0.585,0.239,0.585,0.585v0.372c0,0.319-0.239,0.505-0.585,0.585c-0.904,0.186-2.232,0.425-4.279,0.425
		c-4.97,0-8.052-2.312-8.052-9.354C97.715,29.18,100.054,26.762,104.545,26.762z M115.228,34.282c0.425,0,1.143-0.532,1.595-0.904
		l6.697-5.687c0.425-0.372,0.718-0.585,1.143-0.585h0.824c0.319,0,0.532,0.106,0.532,0.292c0,0.186-0.186,0.478-0.585,0.797
		l-8.079,6.777l9.222,8.371c0.292,0.266,0.425,0.505,0.425,0.691c0,0.266-0.292,0.399-0.824,0.399h-0.505
		c-0.425,0-0.611-0.08-1.196-0.585l-7.654-6.963c-0.399-0.372-1.09-1.116-1.541-1.116h-0.213v8.079c0,0.319-0.239,0.585-0.585,0.585
		h-0.611c-0.319,0-0.532-0.266-0.532-0.585V20.756c0-0.319,0.213-0.585,0.532-0.585h0.611c0.319,0,0.585,0.266,0.585,0.585v13.527
		H115.228z M131.493,25.061c0-3.907,1.382-4.863,5.634-4.863h1.196c0.319,0,0.532,0.213,0.532,0.532v0.425
		c0,0.319-0.213,0.585-0.532,0.585h-1.249c-3.136,0-3.827,0.797-3.827,3.455v1.913h4.305c0.319,0,0.585,0.266,0.585,0.585v0.319
		c0,0.319-0.266,0.585-0.585,0.585h-4.332V43.85c0,0.319-0.239,0.585-0.585,0.585h-0.611c-0.319,0-0.532-0.266-0.532-0.585V28.595
		h-2.525c-0.319,0-0.585-0.239-0.585-0.585v-0.319c0-0.319,0.266-0.585,0.585-0.585h2.525V25.061z M143.77,43.85
		c0,0.319-0.239,0.585-0.558,0.585h-0.585c-0.319,0-0.585-0.266-0.585-0.585V28.595h-1.701c-0.319,0-0.585-0.239-0.585-0.585v-0.319
		c0-0.319,0.266-0.585,0.585-0.585h2.844c0.319,0,0.585,0.266,0.585,0.585V43.85z M142.628,19.826c0.904,0,1.701,0.797,1.701,1.701
		c0,0.877-0.797,1.648-1.701,1.648c-0.877,0-1.648-0.797-1.648-1.648C140.98,20.623,141.777,19.826,142.628,19.826z M155.889,28.064
		c-0.08,0.319-0.292,0.372-0.478,0.372c-0.319,0-0.824-0.106-1.196-0.106c-4.518,0-5.474,2.418-5.474,5.661v9.886
		c0,0.319-0.266,0.585-0.585,0.585h-0.611c-0.319,0-0.531-0.266-0.531-0.585V27.718c0-0.319,0.213-0.585,0.531-0.585h0.611
		c0.319,0,0.585,0.266,0.585,0.585v1.887c0.611-1.408,1.94-2.817,5.661-2.817c0.399,0,0.904,0.027,1.249,0.08
		c0.292,0.027,0.424,0.108,0.399,0.292C156.022,27.352,155.889,28.064,155.889,28.064z M158.36,36.169
		c0.213,6.165,3.721,7.096,6.75,7.096c1.382,0,3.561-0.425,4.013-0.425c0.319,0,0.585,0.239,0.585,0.585v0.372
		c0,0.319-0.266,0.505-0.585,0.585c-0.904,0.186-2.312,0.425-4.358,0.425c-4.97,0-8.105-2.312-8.105-9.354
		c0-6.272,2.392-8.69,6.856-8.69c4.837,0,6.484,2.79,6.484,6.777v2.046c0,0.319-0.213,0.585-0.532,0.585L158.36,36.169z
		 M158.36,34.734h9.886v-1.09c0-3.136-1.143-5.421-4.916-5.421C160.592,28.223,158.546,29.526,158.36,34.734z"/>
	<path id="Path_35_" fill="#EEEEEE" d="M72.336,32.316c0,8.371-2.339,11.985-7.574,12.411v1.781c0,1.515,0.425,2.046,1.807,2.046
		h1.834c0.319,0,0.532,0.239,0.532,0.585v0.532c0,0.319-0.213,0.532-0.532,0.532h-1.913c-2.551,0-3.402-1.036-3.402-3.428V44.78
		c-5.793-0.186-8.371-3.721-8.371-12.49c0-8.982,2.711-12.49,8.796-12.49C69.625,19.826,72.336,23.333,72.336,32.316z
		 M70.529,32.316c0-8.079-2.099-11.002-6.989-11.002c-4.916,0-6.989,2.923-6.989,11.002s2.099,11.002,6.989,11.002
		S70.529,40.395,70.529,32.316z"/>
	<path id="Path_36_" fill="#FF9900" d="M29.994,15C17.752,15,10,25.23,10,35.069c0,3.471,0.88,5.807,0.88,5.807
		s6.556-9.115,12.51-20.767c0.335-0.656,1.191-1.494,2.421-0.845c1.231,0.649,1.027,1.838,1.027,1.838
		c-1.44,13.82,0.172,23.014,1.504,23.266c2.098,0.397,9.428-16.136,9.428-16.136s0.741-1.699,2.348-0.992
		c1.399,0.615,1.174,2.169,1.174,2.169c0.758,8.023,3.852,11.799,3.852,11.799s0.229,0.442-0.073,0.662c-0.303,0.22-0.587,0-0.587,0
		s-2.307-1.459-5.246-8.049c-4.55,9.536-6.97,12.019-6.97,12.019s-1.466,2.095-3.883,2.095s-3.784-2.61-3.784-2.61
		s-2.077-2.57-1.908-15.437c-4.183,8.274-9.428,16.062-9.428,16.062S18.226,55,30.297,55S50,44.464,50,34.897S42.236,15,29.994,15z"
		/>
</g>
</svg>
