<svg xmlns="http://www.w3.org/2000/svg" width="40" height="40" viewBox="0 0 40 40">
  <g id="Group_11985" data-name="Group 11985" transform="translate(0.25)">
    <g id="Group_11984" data-name="Group 11984">
      <circle id="Ellipse_125" data-name="Ellipse 125" cx="20" cy="20" r="20" transform="translate(-0.25 0)" fill="#27cf47"/>
    </g>
    <g id="Group_13797" data-name="Group 13797">
      <g id="whatsapp-logo-variant" transform="translate(6.46 6.46)">
        <path id="Path_13151" data-name="Path 13151" d="M26.665,12.99A13.114,13.114,0,0,1,7.247,24.363L0,26.665l2.362-6.971A12.857,12.857,0,0,1,.485,12.989a13.09,13.09,0,0,1,26.18,0ZM13.573,2.071a10.975,10.975,0,0,0-11,10.921,10.8,10.8,0,0,0,2.1,6.4L3.291,23.448,7.519,22.1A11.018,11.018,0,0,0,24.579,12.99,10.974,10.974,0,0,0,13.573,2.071Zm6.612,13.91c-.082-.131-.3-.211-.616-.371s-1.9-.93-2.192-1.034-.51-.161-.723.158-.827,1.036-1.016,1.249-.374.24-.695.083a8.847,8.847,0,0,1-2.582-1.58,9.579,9.579,0,0,1-1.784-2.205c-.189-.318-.019-.49.14-.649.143-.143.321-.372.482-.559a2.123,2.123,0,0,0,.321-.53.593.593,0,0,0-.027-.559c-.08-.16-.721-1.725-.989-2.362s-.534-.531-.722-.531-.4-.026-.615-.026a1.175,1.175,0,0,0-.855.4A3.563,3.563,0,0,0,7.19,10.118,6.156,6.156,0,0,0,8.5,13.41c.162.211,2.221,3.532,5.482,4.807s3.263.849,3.851.795A3.237,3.237,0,0,0,20,17.5,2.645,2.645,0,0,0,20.185,15.981Z" fill="#fff"/>
      </g>
    </g>
  </g>
</svg>
