<svg xmlns="http://www.w3.org/2000/svg" width="40" height="40" viewBox="0 0 40 40">
  <g id="Group_13796" data-name="Group 13796" transform="translate(0)">
    <circle id="Ellipse_125" data-name="Ellipse 125" cx="20" cy="20" r="20" transform="translate(0)" fill="#8e24aa"/>
    <g id="viber" transform="translate(7.501 6.25)">
      <path id="Path_13144" data-name="Path 13144" d="M26.332,15.922c.82-6.906-.394-11.267-2.585-13.239h0C20.212-.686,8.269-1.184,4.039,2.834,2.139,4.8,1.469,7.683,1.4,11.254s-.16,10.263,6.075,12.078h.006L7.471,26.1s-.042,1.123.675,1.349c.82.266,1.192-.256,3.744-3.3a23.352,23.352,0,0,0,7.917-.6c.862-.289,5.738-.934,6.526-7.625ZM12.31,22.2s-2.7,3.368-3.541,4.242c-.275.284-.576.258-.572-.306,0-.37.021-4.6.021-4.6C2.932,20.018,3.243,14.32,3.3,11.34s.6-5.424,2.212-7.068c3.712-3.48,14.182-2.7,16.85-.195,3.261,2.891,2.1,11.059,2.107,11.338C23.8,21,19.848,21.354,19.121,21.6a21.544,21.544,0,0,1-6.811.6Z" transform="translate(-1.38 0.013)" fill="#fff"/>
      <path id="Path_13145" data-name="Path 13145" d="M12.264,4.3a.347.347,0,0,0,0,.693c3.423.026,6.242,2.412,6.273,6.788a.335.335,0,1,0,.67-.006h0c-.037-4.715-3.115-7.45-6.942-7.476Z" transform="translate(0.16 0.642)" fill="#fff"/>
      <path id="Path_13146" data-name="Path 13146" d="M16.691,10.824a.335.335,0,1,0,.67.016A4.641,4.641,0,0,0,12.8,5.872a.348.348,0,0,0-.047.693,3.956,3.956,0,0,1,3.936,4.258Z" transform="translate(0.235 0.872)" fill="#fff"/>
      <path id="Path_13147" data-name="Path 13147" d="M16.877,13.91a1.059,1.059,0,0,0-1.381.2l-.5.645a.891.891,0,0,1-.727.284A6.651,6.651,0,0,1,9.894,10.51a.963.963,0,0,1,.274-.752l.623-.516a1.148,1.148,0,0,0,.191-1.429A14.892,14.892,0,0,0,9.275,5.348a.922.922,0,0,0-1.24-.21h-.01C7.033,5.718,5.948,6.8,6.3,7.92c.592,1.178,1.681,4.933,5.151,7.771a19.808,19.808,0,0,0,5.307,3.034l.01.016c1.079.36,2.129-.768,2.689-1.789v-.008a.982.982,0,0,0-.2-1.267,13.51,13.51,0,0,0-2.379-1.767Z" transform="translate(-0.672 0.743)" fill="#fff"/>
      <path id="Path_13148" data-name="Path 13148" d="M13.209,8.192c1.1.064,1.635.639,1.693,1.821a.336.336,0,1,0,.67-.032A2.3,2.3,0,0,0,13.246,7.5.347.347,0,0,0,13.209,8.192Z" transform="translate(0.3 1.109)" fill="#fff"/>
    </g>
  </g>
</svg>
