<?xml version="1.0" encoding="utf-8"?>
<!-- Generator: Adobe Illustrator 21.0.0, SVG Export Plug-In . SVG Version: 6.00 Build 0)  -->
<svg version="1.1" id="Hero" xmlns="http://www.w3.org/2000/svg" xmlns:xlink="http://www.w3.org/1999/xlink" x="0px" y="0px"
	 viewBox="0 0 740 820" style="enable-background:new 0 0 740 820;" xml:space="preserve">
<style type="text/css">
	.st0{fill:#E1F6E1;}
	.st1{fill:none;stroke:#333333;stroke-width:2;stroke-miterlimit:10;}
	.st2{fill:#9BE59B;}
	.st3{fill:none;stroke:#333333;stroke-linecap:round;stroke-linejoin:round;stroke-miterlimit:10;}
	.st4{fill:#333333;}
	.st5{fill:#33CC33;}
	.st6{fill:#33CC33;stroke:#333333;stroke-width:2;stroke-miterlimit:10;}
	.st7{fill:#FFFFFF;stroke:#333333;stroke-width:2;stroke-miterlimit:10;}
	.st8{fill:none;stroke:#33CC33;stroke-width:2;stroke-miterlimit:10;}
	.st9{fill:#D0D4D0;}
	.st10{fill:#B7B7B7;}
	.st11{fill:none;stroke:#333333;stroke-width:3;stroke-miterlimit:10;}
	.st12{fill:#FEBDA0;}
	.st13{fill:#33AF33;}
	.st14{fill:#5AE4A7;}
	.st15{opacity:0.5;fill:#9DE39E;enable-background:new    ;}
	.st16{fill:#1A2E35;}
	
		.st17{opacity:0.8;fill:none;stroke:#FFFFFF;stroke-linecap:round;stroke-linejoin:round;stroke-miterlimit:10;enable-background:new    ;}
	.st18{fill:#FFFFFF;}
	.st19{fill:none;stroke:#EEEEEE;stroke-width:3;stroke-miterlimit:10;}
	@media screen and (min-width: 760px) {

	#graph {
		animation: scale_up 3s linear infinite alternate;
		transform-origin: left;
		transform-box: fill-box;
	}
	@keyframes scale_up {
		0% {
			transform: scale(1);
		}
		100% {
			transform: scale(1.3);
		}
	}

	@keyframes money_rain {
		0% {
			opacity:0.4;
			transform: translateY(-120%);
		}
		10% {
			opacity:1;
		}
		90% {
			opacity:1;
		}
		100% {
			opacity:0.4;
			transform: translateY(120%);
		}
	}
	#coin2, #coin1, #Money5, #Money4, #Money3, #Money2, #Money1 {
		animation: money_rain 2s linear infinite;
		transform-origin: center;
		transform-box: fill-box;
		opacity: 0;
	}
	#coin1 { animation-delay: 0.9s}
        #Money5 { animation-delay: 0.3s}
        #Money4 { animation-delay: 0.5s}
        #Money3 { animation-delay: 0.2s}
        #Money2 { animation-delay: 0.7s}
        #Money1 { animation-delay: 0.9s}

	}

</style>
<path id="bg" class="st0" d="M501.7,203.3c-34.6,19.8-59.1,53.2-88.7,79.9c-36.6,33-81.9,56.3-130.1,66.7
	c-39.6,8.6-81.2,8.7-119.4,22.1C88.9,398.2,37.8,475.9,36.4,554.9c-1.4,79,43.7,155.6,109.7,198.9c22.4,14.7,47.1,26,73,33.3
	c48.6,13.7,100.1,13.1,150.3,7.8c86.7-9,177.7-58.3,232.3-127.7c24.4-31,45-64.9,61.4-100.8c26.9-58.9,42.6-122.9,45.3-187.6
	c2.3-55.6,0-117.2-44.1-157.7C620.4,180.8,553.4,173.7,501.7,203.3z"/>
<g id="Plant">
	<g>
		<polyline class="st1" points="731,668.3 80.9,668.3 8,733 		"/>
		<g>
			<line class="st1" x1="81.3" y1="622.9" x2="81.3" y2="496.9"/>
			<line class="st1" x1="81.3" y1="660.9" x2="81.3" y2="636.6"/>
		</g>
	</g>
	<g>
		<path class="st2" d="M672.6,377.3c0,0,0-7.5-10.5-17.9S644.9,343,644.9,343s-5.2,17.2,4.5,27.6c7.1,7.4,14.9,14.1,23.2,20.2
			L672.6,377.3L672.6,377.3z"/>
		<path class="st2" d="M657.4,424c0,0,0-7.5-10.5-17.9c-10.5-10.5-17.2-16.4-17.2-16.4s-5.2,17.2,4.5,27.6
			c7.1,7.4,14.9,14.1,23.2,20.2V424z"/>
		<path class="st2" d="M671.9,390.1c0,0,0.8-7.4,12.3-16.7c11.5-9.3,18.8-14.5,18.8-14.5s3.4,17.7-7.4,27
			c-7.9,6.6-16.3,12.5-25.2,17.6L671.9,390.1z"/>
		<path class="st2" d="M653.6,445.1c0,0,1.6-7.3,14-15.3s20.2-12.5,20.2-12.5s1.5,17.9-10.1,26.1c-8.5,5.7-17.5,10.7-26.9,14.9
			L653.6,445.1z"/>
		<path class="st2" d="M657,505.2c0,0,0-7.5,10.4-17.9s17.2-16.4,17.2-16.4s5.2,17.2-4.5,27.6c-7.1,7.4-14.9,14.1-23.1,20.2
			L657,505.2L657,505.2z"/>
		<path class="st2" d="M656.8,519.9c0,0,1.1-7.4-7.8-19.2c-8.9-11.8-14.7-18.7-14.7-18.7s-7.6,16.3,0.5,28c6,8.3,12.7,16.1,20,23.2
			L656.8,519.9z"/>
		<path class="st2" d="M646.5,563.3c0,0,0-7.5,10.4-17.9s17.2-16.4,17.2-16.4s5.2,17.2-4.5,27.6c-7.1,7.4-14.9,14.1-23.1,20.2
			L646.5,563.3L646.5,563.3z"/>
		<path class="st2" d="M653.5,602.7c0,0-1.9-7.2,5.6-20s12.5-20.2,12.5-20.2s9.4,15.3,2.7,27.9c-5,8.9-10.8,17.4-17.3,25.4
			L653.5,602.7z"/>
		<path class="st2" d="M604.1,477.1c0,0-0.8-4.7,4.6-12.4c5.4-7.7,9-12.2,9-12.2s5.1,10.2,0.2,17.8c-3.7,5.4-7.8,10.5-12.3,15.2
			L604.1,477.1z"/>
		<path class="st2" d="M618.7,504.7c0,0-0.8-4.7,4.6-12.4c5.4-7.7,9-12.2,9-12.2s5.1,10.2,0.2,17.8c-3.7,5.4-7.8,10.5-12.3,15.2
			L618.7,504.7z"/>
		<path class="st2" d="M605.9,485c0,0-1.3-4.6-9.5-9.1c-8.3-4.6-13.4-7.1-13.4-7.1s-0.2,11.4,7.6,16.1c5.7,3.3,11.6,6,17.7,8.3
			L605.9,485z"/>
		<path class="st2" d="M623.4,517.6c0,0-1.8-4.4-10.4-8.1c-8.7-3.7-14-5.6-14-5.6s1,11.4,9.2,15.2c6,2.6,12.1,4.8,18.5,6.4
			L623.4,517.6z"/>
		<path class="st2" d="M627.7,555.6c0,0-0.8-4.7-8.5-10.1c-7.7-5.4-12.6-8.4-12.6-8.4s-1.4,11.4,5.8,16.8
			c5.3,3.8,10.9,7.2,16.7,10.1L627.7,555.6z"/>
		<path class="st2" d="M629.4,564.8c0,0-1.5-4.5,2.8-12.9s7.2-13.3,7.2-13.3s6.5,9.4,2.7,17.6c-2.9,5.9-6.3,11.5-10.1,16.8
			L629.4,564.8z"/>
		<path class="st2" d="M642.5,602.5c0,0,0.5-4.7,7.9-10.6c7.4-5.8,12.1-9.1,12.1-9.1s2.1,11.2-4.8,17.1c-5,4.1-10.4,7.8-16.1,11.1
			L642.5,602.5z"/>
		<path class="st2" d="M640.6,590.9c0,0-0.8-4.7-8.5-10.1c-7.7-5.4-12.5-8.4-12.5-8.4s-1.4,11.4,5.8,16.8
			c5.3,3.8,10.9,7.2,16.7,10.1L640.6,590.9z"/>
		<path class="st2" d="M640.5,616.3c0,0,0.4-4.7-5.7-11.9c-6.1-7.2-10-11.4-10-11.4s-4.2,10.6,1.4,17.8c4.1,5.1,8.7,9.8,13.6,14.1
			L640.5,616.3z"/>
	</g>
	<g>
		<path class="st3" d="M673.5,375.5c-0.5,7.8-1.5,15.5-2.9,23.2c-4.1,21.3-14.5,35.1-18.6,54.4s7.7,44.1,4.6,68.9
			c-3.2,24.8-12.8,38.5-10.1,55.1c2.7,16.5,17.2,61.3,17.2,61.3"/>
		<line class="st3" x1="671.8" y1="395" x2="683.1" y2="386.4"/>
		<line class="st3" x1="672.3" y1="385.1" x2="667.6" y2="376.7"/>
		<path class="st3" d="M652.7,452.1c0,0,9.4-7.1,19.1-14.1"/>
		<path class="st3" d="M657.4,437.4c0,0-7.9-15.4-16.8-25.6"/>
		<path class="st3" d="M657.4,515.8c5.4-9.9,12.2-19,20.2-27"/>
		<path class="st3" d="M655.6,526.3c-2.9-6.7-6.3-13.2-10.2-19.4c-5.5-8.1-6.3-9.2-6.3-9.2"/>
		<path class="st3" d="M646.5,577c2.4-5.9,5.2-11.7,8.5-17.2c3.3-5.1,6.9-9.9,11-14.4"/>
		<path class="st3" d="M656.9,615.7c0,0-1.1-8.9,2.8-16.5c3.9-7.6,8.4-17.6,10.2-21.5"/>
		<path class="st3" d="M603.3,476c1.2,4.8,2.6,9.6,4.3,14.2c4.9,12.9,12.9,20.5,17.6,32.1c4.7,11.6,0,28.5,4.6,43.7
			s12.2,22.7,12.3,33.5c0.1,10.7-4.1,40.3-4.1,40.3"/>
		<line class="st3" x1="606.5" y1="488.1" x2="598.5" y2="483.9"/>
		<line class="st3" x1="605.1" y1="481.9" x2="607.1" y2="476.2"/>
		<path class="st3" d="M624.7,521.8c0,0-6.7-3.4-13.5-6.8"/>
		<path class="st3" d="M620.1,513.2c2-6.2,4.6-12.2,7.7-17.9"/>
		<path class="st3" d="M628.7,562.3c-4.5-5.6-9.7-10.6-15.6-14.7"/>
		<path class="st3" d="M630.9,568.7c1.1-4.5,2.5-9,4.3-13.3c2.5-5.7,3-6.4,3-6.4"/>
		<path class="st3" d="M641.7,607.6c0,0,5.3-6.5,8.6-8.9c2-1.5,3.9-3.1,5.6-4.9"/>
		<path class="st3" d="M642.1,599.5c-2.1-3.5-4.5-6.8-7.2-9.9c-2.6-2.8-5.4-5.5-8.5-7.8"/>
		<path class="st3" d="M639.8,624.9c-0.3-3.6-1.5-7.1-3.6-10.1c-3.3-4.3-7.2-10.1-8.7-12.4"/>
	</g>
	<path class="st4" d="M684.4,632.9h-67.8l0,0c-3,0-5.3,2.4-5.3,5.3c0,2.9,2.4,5.3,5.4,5.3h1.2l5.7,43.8c0,2,1.6,3.5,3.5,3.5h47.6
		c2,0,3.5-1.6,3.5-3.5l5.7-43.8h0.6c2.9,0,5.3-2.4,5.4-5.3l0,0C689.7,635.3,687.3,632.9,684.4,632.9z"/>
</g>
<g id="graph">
	<path class="st5" d="M400.6,103.3v6H14.3v-6c0-8.3,6.8-15.1,15.1-15.1h356.1C393.8,88.2,400.6,94.9,400.6,103.3z"/>
	<path class="st1" d="M400.6,103.3v199.6c0,8.3-6.8,15.1-15.1,15.1H29.4c-8.3,0-15.1-6.8-15.1-15.1V103.3c0-8.3,6.8-15.1,15.1-15.1
		h356.1C393.8,88.2,400.6,94.9,400.6,103.3z"/>
	<path class="st1" d="M400.6,103.3v6H14.3v-6c0-8.3,6.8-15.1,15.1-15.1h356.1C393.8,88.2,400.6,94.9,400.6,103.3z"/>
	<circle class="st4" cx="53.8" cy="98.7" r="3.9"/>
	<circle class="st4" cx="74" cy="98.7" r="3.9"/>
	<circle class="st4" cx="94.2" cy="98.7" r="3.9"/>
	<path class="st1" d="M155.2,191H40.9c-2,0-3.7-1.7-3.7-3.7v-57.6c0-2,1.7-3.7,3.7-3.7h114.3c2,0,3.7,1.7,3.7,3.7v57.6
		C158.9,189.4,157.2,191,155.2,191z"/>
	<rect x="52.2" y="170.4" class="st5" width="12.2" height="12.2"/>
	<rect x="70.1" y="154.3" class="st5" width="12.2" height="28.5"/>
	<rect x="90.3" y="159.2" class="st5" width="12.2" height="23.9"/>
	<rect x="111.5" y="135.4" class="st5" width="12.2" height="46.9"/>
	<rect x="132.7" y="135.8" class="st5" width="12.2" height="46.9"/>
	<line class="st1" x1="44.4" y1="182.8" x2="149.9" y2="182.8"/>
	<circle class="st6" cx="309.7" cy="160.1" r="34.2"/>
	<path class="st7" d="M312.5,181.5v3.5h-5.7v-3.5c-4.8-1.2-8-5.3-8-10.6v-1.6l6.5-0.7v1.7c0,3.3,1.7,5.2,4.3,5.2s4.3-1.7,4.3-4.3
		c0-3.1-2.9-5.8-6.4-8.7c-4.1-3.4-8.2-7.4-8.2-13.1c0-5.5,2.7-9.5,7.3-10.6v-3.5h5.7v3.5c4.7,1.1,7.5,5,7.5,10.7v1.1l-6.5,0.7V150
		c0-3.4-1.3-5.2-3.7-5.2c-2.4,0-3.7,1.5-3.7,4.3c0,3.1,3,5.7,6.4,8.7c4,3.4,8.2,7.4,8.2,13.1C320.6,176.3,317.4,180.3,312.5,181.5z"
		/>
	<path class="st8" d="M34.4,224.2h10 M34.4,243.5h10 M34.4,262.9h10 M34.4,282.2h10 M66.4,296.8V289 M82.2,296.8V289 M98.1,296.8
		V289 M113.9,296.8V289 M129.8,296.8V289 M145.6,296.8V289 M161.5,296.8V289 M177.3,296.8V289 M193.2,296.8V289 M209,296.8V289
		 M224.8,296.8V289 M240.7,296.8V289 M256.5,296.8V289 M272.4,296.8V289 M288.2,296.8V289 M303.5,296.8V289 M318.7,296.8V289
		 M334,296.8V289"/>
	<path class="st8" d="M374.3,212.4v75.1c0,5.1-5.2,9.3-11.7,9.3H46.1c-4.3,0-8.1-1.8-10.1-4.6c-1-1.4-1.6-3-1.6-4.7v-75.1
		c0-5.1,5.2-9.3,11.7-9.3h316.5C369.1,203.1,374.3,207.2,374.3,212.4z"/>
	<path class="st4" d="M289.5,46.2l-37.1,22.5l13-1L164.8,203.1L135.9,242l-42.2-26.8l-58,77c1.6,2.7,4.6,4.6,8,4.6h0.7L96,228.3
		l42.2,26.9l38.6-52.1l97.4-131.3l4.8,13.3L289.5,46.2z"/>
</g>
<g id="man">
	<g>
		<path class="st9" d="M567.1,715.7c-17.9,21.2-38.8,39.8-62.6,54.1c-7.5,4.5-15.1,8.4-22.9,11.9c-54.2,24.4-115.9,25.9-173.7,11.9
			C186.5,764.2,122.1,657,113.9,538c-2.2-32.2-7.1-66.9,5.9-97.5c12.9-30.3,39.4-49.6,69.2-62.8c21.6-9.6,45-16.1,66.2-21.4
			c38.6-9.6,78.7-5.2,114.6,11.8c25,11.8,42.8,32.4,63.8,49.7c2.2,1.8,4.5,3.7,6.7,5.5c21.2,17.1,43.5,32.8,66.8,46.9
			c35.3,21.5,71.4,41.9,94,78C637,606,606.6,668.8,567.1,715.7z"/>
		<path class="st10" d="M567.1,715.7c-17.9,21.2-38.8,39.8-62.6,54.1c-7.5,4.5-15.1,8.4-22.9,11.9c-6.2-1.9-12.3-4.1-18.3-6.7
			c-35.6-15.3-65.4-41.1-94.6-66.5c-17.6-15.3-35.5-30.9-56.6-40.9c-28.1-13.4-61.3-16.2-91.3-7.5c15.5-17.6,37.2-29.5,60.3-33.2
			c-15-13.7-36-19.5-56.4-19.8c-20.4-0.4-31.6,2.1-51.5,6.6c6.6-12.2,24.3-23.3,38.3-23c-13.9-0.3-29.8-1.3-39.6-2.8
			c-18-2.9-26-24.1-28.7-42.1c-7.4-49.6,0.1-102.4,27.2-144.6c5.7-8.8,11.8-16.6,18.5-23.4c21.6-9.6,45-16.1,66.2-21.4
			c38.6-9.6,78.7-5.2,114.6,11.8c25,11.8,42.8,32.4,63.8,49.7c2.2,1.8,4.5,3.7,6.7,5.5c21.2,17.1,43.5,32.8,66.8,46.9
			c35.3,21.5,71.4,41.9,94,78C637,606,606.6,668.8,567.1,715.7z"/>
		<path class="st11" d="M440.2,423.4c-2.2-1.8-4.5-3.6-6.7-5.5c-21-17.4-38.8-37.9-63.8-49.7c-35.9-17-76-21.4-114.6-11.8
			c-50.5,12.5-113.1,31.8-135.4,84.2c-13,30.6-8.1,65.3-5.9,97.5c8.2,119,72.6,226.2,194,255.6c66.1,16,137.4,11.6,196.6-23.9
			c23.8-14.3,44.8-32.9,62.6-54.1c39.6-46.9,70-109.7,34-167.3c-22.6-36.2-58.7-56.5-94-78C483.8,456.2,461.5,440.5,440.2,423.4z"/>
		<path class="st11" d="M256.2,635.6c-10,3.1-20.1,7-29.3,11.8"/>
		<path class="st11" d="M318.2,623.8c0,0-19.9,1.4-44,6.9"/>
		<path class="st11" d="M305.2,620.8c0,0-57-33.1-125.8-6.6"/>
	</g>
	<path class="st12" d="M586.9,714.3c0,0,16,13.5,33.5,24.7c22.7,1.5,12.5,28.9,12.5,28.9l-19.4,12.5c0,0-33.2-26.4-51.3-34.9
		C544.2,736.9,586.9,714.3,586.9,714.3z"/>
	<path class="st5" d="M425.9,425.7c0,0-3.1-30.8-8.1-39.4l-75.3-15.4V365c0,0,1.7-10.2-15-16.5c-16.8-6.3-51.8,1.9-60.8,8.7
		c-9,6.8-5.7,18.6-5.7,18.6s-30.3,15.4-44,21.2c-13.6,5.8-32.6,17.2-32.6,17.2s-6.2,70.7-5,87.1s-1,31.9,0.4,41s2.5,14.3,12.1,22
		s18.2,19.2,43.2,7.8l-3.5-2.8L396.3,514L425.9,425.7z"/>
	<path class="st13" d="M418.8,390h-31.5c-6.1,0-11.3,4.4-12.3,10.5L359.4,494c0,0-21.4,1.8-36.5,12.8
		c-15.1,11.1-52.4-67.7-111.3-67.8c0,0,16.9,38.7,20.7,69.6c0,0-36.8-4-42.9,10.4c-6.1,14.4,2.8,41.4,18.3,30.9
		c15.6-10.4,30.1-27.9,40.6-17c10.5,11,56.8,17,56.8,17l71.5-35.9l27.7-13L418.8,390z"/>
	<path class="st5" d="M318.8,343.7c0,0,17.9,5,20.8,11s2.6,21.2,2.6,21.2s-4.9,13.5-19.2,26.5l-13.4-26.5l1.2,30
		c0,0-25.3-4.2-36.1-12.3c-10.7-8.1-10.7-8.1-10.7-8.1s-4.6-15.2-4-20.4c0.7-5.2,20-15.7,20-15.7L318.8,343.7z"/>
	<path class="st14" d="M616.7,806.6c-0.5-1.1,7.3-14.9,1.2-29s-15.9-8.7-15.9-8.7s-27.9-17.7-39.6-23.3
		c-11.7-5.6-24.3-14.5-24.3-14.5l-12.4,16.7l11.4,35.4L616.7,806.6z"/>
	<path class="st14" d="M601,768l35.8,21.9c0,0,25.1-16.1,37.2-27.3c12-11.1,38.8-34.8,38.8-34.8l17.1-23.1c0,0-11.9-14.7-31.7-2.9
		c-25.6,15.3-56.9,37.4-77.7,37.2C620.4,739,624.6,764.6,601,768"/>
	<path class="st12" d="M312.7,251.2c0,0,16.2,24.6,19.2,32.5c3,8,5.3,19.7,4.7,25.4c-0.6,5.7-6.5,36-9.6,36.9l-2.9,3.3l1.8,12.9
		c0,0-12.7,22-50,5.9c0,0-1.5-25.6-6-33.7c-4.5-8-11.3,1.5-18.1-21.7s14.9-47.6,14.9-47.6L312.7,251.2z"/>
	<path class="st15" d="M714.5,697.5c0,0-18.4,3.2-24.4,14.1c-6,10.9-17.4,31.1-21.3,40.9c-3.9,9.8-36.3,33.4-36.3,33.4l4.3,4
		c0,0,26.3-16.3,42.2-31.7c15.9-15.5,50.9-54.4,50.9-54.4S727.4,701.3,714.5,697.5z"/>
	<path class="st15" d="M530.3,741.6l-4.5,6.1l14,29l77,27.7l3.6-11.3c0,0,1.2-11.5-25.8-20.1s-43.5-14.4-51.2-20.4
		C535.6,746.7,530.3,741.6,530.3,741.6z"/>
	<path class="st12" d="M276.1,526c0,0-23.6-3.5-34.6,15.7c-11,19.3-9.9,27.6-9.9,27.6s15.6,14.2,37,13.4
		c21.4-0.7,52.6-25.4,62.8-33.4c10.2-8,35.8-30.9,53.3-26.1l1.9-16.5c0,0-1.7-7.4-16.7-5.4s-20.8,10.5-25.6,10.5s-9.4-4.6-19.1,11.9
		C325.2,523.8,291.2,529.8,276.1,526z"/>
	<path class="st5" d="M546.1,721.9l-15.8,19.7c0,0,17.4,16,35.3,22c18,5.9,49.4,17.2,54.7,25.8l-2-10.4c0,0-49.2-30.2-60.5-37.4
		C546.5,734.5,546.1,721.9,546.1,721.9z"/>
	<path class="st5" d="M601,768l31.5,17.9c0,0,15.5-10.6,23.2-18.5s17-16.5,22.8-34.1c8-24.3,30.9-35.8,30.9-35.8s-31.8,15-48.4,26.8
		c-16.6,11.8-32.7,16.7-42.1,15.9C618.8,740.1,626.4,764,601,768z"/>

		<ellipse transform="matrix(0.9912 -0.1327 0.1327 0.9912 -36.7162 41.4736)" class="st16" cx="292.8" cy="296.2" rx="2.5" ry="4.9"/>

		<ellipse transform="matrix(0.9912 -0.1327 0.1327 0.9912 -35.8417 45.0013)" class="st16" cx="319.7" cy="291.4" rx="2.5" ry="4.9"/>
	<path class="st4" d="M266.7,305.8c2.2-1.6,3.4-4.4,3.2-7.1c-0.3-3.1-2.5-5.9-2-9c0.2-1.5,1-2.9,1.6-4.3c2.3-5.1,1.9-11.3-1-16
		c0,0,26,1.2,38.3-6.5c12.2-7.8,21.5-27.6,14.1-37.1s-21.8,3.5-32.4,4.9s-48.6,7.5-54.6,22.1c-6,14.7,3.2,19.9,3.5,33.8
		s0.3,40.3,21.1,37.9c0,0-7.8-10.1-2.4-20.5C259.8,299.6,266.7,305.8,266.7,305.8z"/>
	<path class="st4" d="M317.8,242.2c0,0,10.7,7.2,12.5,22.9c1.2,10.5,19.7,30.8,6.3,42.3c0,0-3.1-12.3-4.9-18.4s-4.2-17.1-7.2-21
		c-3.1-3.9-19.4-17.1-19.4-17.1L317.8,242.2z"/>
	<path class="st17" d="M252.9,262.2c1.9-4.8,7.1-7.5,12.2-8.4s10.3-0.2,15.5-0.4c7.1-0.2,14.2-1.9,20.2-5.7s10.7-9.8,12.2-16.7"/>
	<path class="st17" d="M240.6,261.3c3.2-9.8,13.7-15.8,24-16.7c5.1-0.4,10.2,0.2,15.3-0.4c5.1-0.6,10.4-2.7,13-7.1"/>
	<polygon class="st18" points="513.2,392.6 388.4,397.4 378.3,525.7 399.6,525.7 507.9,501.4 521.5,395.7 	"/>
	<polygon class="st9" points="384.7,529.5 521.1,398.7 507.9,501.4 	"/>

		<ellipse transform="matrix(0.1123 -0.9937 0.9937 0.1123 -42.7359 861.8872)" class="st4" cx="461" cy="454.9" rx="13.7" ry="7.5"/>
	<path class="st4" d="M507.9,501.4c0,0,57.6-1.6,75.7,10.3c18,11.9,28.6,71.6,26.1,103.3s-24.2,104.4-24.2,104.4l-41.7-47.2
		c0,0-20.5-74.6-9.3-103.8c0,0-55.3,3.1-77.1-3.7c0,0-19.5-31.9-53-42.5L507.9,501.4z"/>
	<path class="st4" d="M594.2,720.6c-18.6,7.5-26,19-28.9,26.4c-25.7-13.3-75.6-33-112.2-53.1c-44.8-24.7-54.7-66.9-68.4-76.3
		c-13.6-9.5-42.3,10.2-70.7,5.8c-28.3-4.4-38-40.5-38-40.5s26.4-11.5,41.7-21.6s50.4-60.5,103.3-35.2c29.2,14,33.7,45.8,56.8,64.6
		c28.7,23.2,56.5,53.2,76.7,84.4C559.6,682.8,576.6,704.8,594.2,720.6z"/>
	<path class="st19" d="M454.8,559c0,0-14.3-29-37.2-34.7"/>
	<path class="st4" d="M721.7,719.4c-2,3.9-25.6,24-46.1,41.6c0.1-0.3,5.6-11,8.1-15.6c5.4-10.2,19.5-38,46.2-41.6
		C733.7,706.1,721.7,719.4,721.7,719.4z"/>
	<path class="st4" d="M618,801.7c-1.9,4.9-4.2,8.3-4.2,8.3c-38.3-6.3-76.5-26.8-76.5-26.8l-9.9-30.5c4.9,6.5,14.1,15.9,27.8,19.8
		C573.8,777.7,608.2,783.9,618,801.7z"/>
	<g>
		<path class="st11" d="M306.8,286.5c0.5,3.1,1.2,6.1,2.1,9.1c0.4,1.4,1,2.9,2,4c1.8,2,4.7,2.4,7.3,2.8c0.4,0.1,0.9,0.2,1.2,0.5
			c0.3,0.3,0.3,0.7,0.3,1.1c0,3-0.9,6-2.6,8.4"/>
		<path class="st11" d="M599.8,767.3c0,0,25.9,2.1,19.8-28.8"/>
		<path class="st4" d="M309.8,333.6c-0.1,0-0.2,0-0.2,0c-5.5-0.2-10.6-5.6-15.2-16.1l-2.4-5.4l4.7,3.6c0.1,0.1,12,9.2,23.9,5.8
			l3.3-0.9l-1.5,3C322,324.1,317.2,333.6,309.8,333.6z M299.3,321c3.4,6.2,6.9,9.5,10.3,9.6c3.3,0.1,6.3-2.9,8.2-5.4
			C310.4,326,303.6,323.3,299.3,321z"/>
		<path class="st11" d="M293.3,284.6c0,0-7.2-3.7-12.3,4.2"/>
		<path class="st11" d="M311.8,279.6c0,0,7.6-6.6,12,0"/>
		<path class="st11" d="M268.8,309.1c0,0-4.6-6.9-9.5-6.6c-4.9,0.2-6.9,7.1-5.1,13.7c1.8,6.6,9.1,15.9,14.6,15s8-4.4,8-4.4"/>
		<path class="st11" d="M313.2,256.8c5.2,4.3,10.7,9,13.4,15.4c2.3,5.4,2.9,11.4,5,16.9c2.3,5.9,4.8,12,4.9,18.4
			c0.2,5.8-1.2,11.9-2.3,17.5c-1,4.9-1.8,10-3.5,14.7c-2.6,6.8-7.3,11.1-13.7,14.3c-4.6,2.4-12.4,5.8-17.4,2.6
			c-2.9-1.9-7.3-7.4-10.9-12.4"/>
		<path class="st11" d="M271.2,365c0,0,12.9,8.5,36.7,8.8l2.8,32c0,0-26.8-2-46.8-20.4c0,0-5.4-14.3-4-20.4s14.2-12.2,14.2-12.2"/>
		<path class="st11" d="M325.2,350.7l0.8,11.4c-8.7,8.9-18,11.7-18,11.7l15,28.5c0,0,17.8-13.9,19.6-28.5c0,0,0.1-14.9-3-19.2
			c-3.1-4.3-14.4-6.3-14.4-6.3"/>
		<path class="st11" d="M235.2,572.2c-24.8,12.9-33.6-0.4-47.4-11.3C174,550,183,530.4,180.2,499c-2.9-31.4,4.3-84.7,4.3-84.7
			s6.2-1.4,23.3-11.9s53.2-26.5,53.2-26.5"/>
		<path class="st11" d="M259.7,524.7c0,0-3.9-12.5-15-12.8s-28.6,4.7-41.1,28.3"/>
		<path class="st11" d="M242.2,511.2c-0.7,0-1.4-0.2-2-0.5c-9.1-3.3-19.2-3.7-28.5-1.3"/>
		<path class="st11" d="M205.3,431.3c20.2,22.3,30,51.8,39.4,80.4"/>
		<path class="st11" d="M342.5,370.9c0,0,36.6,8.7,54.5,10.8c17.9,2.1,20.8,4.6,20.8,4.6l3.3,12.5"/>
		<polygon class="st11" points="384.7,526 395.6,402.3 521.5,395.7 507.9,501.4 		"/>
		<path class="st11" d="M594.2,720.6c-17.6-15.9-34.6-37.9-39.6-45.7c-20.2-31.1-48-61.1-76.7-84.4c-23.1-18.7-28.3-49.3-56.8-64.6
			c-47.2-25.3-88,25-103.3,35.2s-41.7,21.6-41.7,21.6s9.6,36.2,38,40.5c28.3,4.4,57-15.3,70.7-5.8c13.6,9.4,23.6,51.6,68.4,76.3
			c36.6,20.2,86.5,39.9,112.2,53.1c5.8,3,10,6.1,13.2,7.9c8.9,4.8,18.4,10.6,27.3,16.2l30.9,18.8c0,0,31-18.3,42.9-35.2
			c1.6-2.3,4.9-8.3,8-14.2c6.7-12.7,15.2-24.2,27.1-30.6c8.2-4.4,15.4-5.7,15.2-6.2c-0.8-1.5-15.6-9-25.6-4.9
			c-21.3,8.8-63.8,42.6-83.8,40.1C620.4,739,605.9,731.2,594.2,720.6z"/>
		<path class="st11" d="M379.9,501.2c-15.8-3.4-33.1,14-40.3,10.7c-5.4-2.4-14.3,11.9-14.3,11.9s-23.1,3.6-44.3,2.2
			c-21.2-1.3-31.3,2.8-38.8,14.1L231.7,568c0,0,27.7,24.8,57.2,10.4c29.6-14.5,68.8-58,95.9-57.8"/>
		<path class="st11" d="M711.5,697.7c-27,5.4-33.2,40-42.8,54.8s-36.3,34.8-36.3,34.8"/>
		<path class="st11" d="M618,778.4c4.4,8.1,2.3,17.4,0,23.2c-1.9,4.9-4.2,8.3-4.2,8.3c-38.3-6.3-76.5-26.8-76.5-26.8l-9.9-30.5
			l-1.6-4.9l14.8-20"/>
		<polyline class="st11" points="378.3,521.2 388.4,397.4 513.2,392.6 521.5,395.7 		"/>
		<path class="st11" d="M619.3,752.5c0,0,17.1,3,30.2-7.6c13.1-10.7,34.2-34.8,34.2-34.8"/>
		<path class="st11" d="M636.8,737.1c0,0-4.1,6.2,0,18.6"/>
		<path class="st11" d="M648.9,731.2c0,0-3.3,9.3,1.5,18.6"/>
		<path class="st11" d="M663.3,722.8c0,0-3.5,10.4,0,19.5"/>
		<path class="st11" d="M544,725.2l-13.7,16.5c0,0,13.8,15,33.2,21.3s54.2,16.9,57,28.2"/>
		<path class="st11" d="M268.8,331.2c0,0,8.2,20.1,6.2,34.2"/>
	</g>
</g>
<g id="coin2">
	<path class="st5" d="M587.7,338.4c0,18.2-12.7,33.5-29.7,37.4h-0.1c-1,0.2-2,0.4-3,0.6c-1.8,0.3-3.6,0.4-5.5,0.4
		c-21.2,0-38.4-17.2-38.4-38.4c0-20.7,16.4-37.6,37-38.3c0.3,0,0.7,0,1.1,0c0.1,0,0.2,0,0.3,0s0.3,0,0.4,0c5.3,0,10.4,1.2,15,3.2
		C578.3,309.2,587.7,322.7,587.7,338.4z"/>
	<path class="st1" d="M587.7,338.4c0,18.2-12.8,33.5-29.8,37.4c-2.7,0.6-5.6,1-8.5,1c-21.2,0-38.4-17.2-38.4-38.4
		c0-20.7,16.4-37.6,37-38.3c0.5,0,0.9,0,1.4,0C570.6,300,587.7,317.2,587.7,338.4z"/>
	<path class="st7" d="M561.9,362.6l1,4l-6.5,1.6l-1-4c-5.9,0-10.6-3.8-12.1-9.9l-0.4-1.8l7.2-2.6l0.5,1.9c0.9,3.7,3.4,5.5,6.4,4.7
		c3.1-0.7,4.5-3.1,3.7-6.1c-0.9-3.6-5-5.8-9.7-8.1c-5.6-2.7-11.4-6.1-13-12.6c-1.6-6.3,0.4-11.6,5.4-14.2l-1-4l6.5-1.6l1,4
		c5.7-0.1,9.9,3.7,11.5,10.1l0.3,1.3l-7.2,2.6l-0.4-1.5c-1-3.9-3-5.6-5.7-4.9s-3.8,2.7-3,5.9c0.9,3.6,5,5.7,9.7,8.1
		c5.5,2.8,11.4,6.2,13,12.6C569.7,354.4,567.2,359.9,561.9,362.6z"/>
	<path class="st1" d="M557.4,375.8L557.4,375.8c-2.8,0.6-5.6,1-8.5,1c-20.9,0-37.9-16.9-37.9-37.8c0-20.4,16.2-37.1,36.5-37.8
		c0.3,0,0.7,0,1.1,0c-9.2,2.9-24.7,10.3-28.8,25.8C513.8,348.9,527,373.9,557.4,375.8z"/>
</g>
<g id="coin1">
	<path class="st5" d="M601.1,247.7c-8.4,8.4-21.3,9.6-31,3.5c0,0,0,0-0.1,0c-0.6-0.4-1.1-0.7-1.7-1.1c-0.9-0.7-1.9-1.5-2.7-2.3
		c-9.8-9.8-9.8-25.6,0-35.4c9.6-9.6,24.9-9.8,34.7-0.6c0.2,0.1,0.3,0.3,0.5,0.5c0.1,0,0.1,0.1,0.2,0.1c0.1,0.1,0.1,0.1,0.2,0.2
		c2.4,2.5,4.3,5.4,5.4,8.4C610.2,229.9,608.3,240.5,601.1,247.7z"/>
	<path class="st1" d="M601.1,247.7c-8.4,8.4-21.3,9.6-31,3.5c-1.6-1-3-2.1-4.4-3.5c-9.8-9.8-9.8-25.6,0-35.4
		c9.6-9.6,24.9-9.8,34.7-0.6c0.2,0.2,0.5,0.4,0.7,0.6C610.9,222.1,610.9,237.9,601.1,247.7z"/>
	<path class="st7" d="M578,246.9l-1.4,2.3l-3.8-2.3l1.4-2.3c-2.7-2.7-3.1-6.6-1-10.1l0.6-1l4.5,2.1l-0.7,1.1c-1.3,2.1-1,4.1,0.8,5.1
		c1.8,1.1,3.5,0.6,4.5-1.1c1.2-2,0.4-5-0.7-8.2c-1.3-3.8-2.4-8.1-0.2-11.8c2.2-3.6,5.5-5.2,9-4.1l1.4-2.3l3.8,2.3L595,219
		c2.7,2.6,2.9,6.3,0.6,10l-0.5,0.8l-4.5-2.1l0.5-0.8c1.4-2.3,1.2-4-0.3-4.9s-3-0.5-4.1,1.3c-1.2,2-0.3,4.9,0.7,8.2
		c1.3,3.8,2.4,8.1,0.2,11.8C585.4,246.7,581.7,248.1,578,246.9z"/>
	<path class="st1" d="M569.8,250.9L569.8,250.9c-1.6-1-3-2.1-4.4-3.5c-9.6-9.6-9.6-25.3,0-34.9c9.4-9.4,24.6-9.6,34.3-0.6
		c0.2,0.1,0.3,0.3,0.5,0.5c-5.6-2.9-16.2-6.6-25.2-1.4C562.1,218.5,556.7,236.1,569.8,250.9z"/>
</g>
<g id="Money5">
	<path class="st2" d="M59,97.2c0,0,8.5-12.2,23.7-19.6c12.3-6,49.4-19.2,59.1-24.3c17.6-9.4,29.1-21.9,29.1-21.9L219,60.9
		c0,0-9.8,12-23,21.6c-13.4,9.8-48.9,14.7-66.5,28.9c-11.4,9.2-24.4,33.2-24.4,33.2L59,97.2z"/>
	<path class="st5" d="M171.3,34.9l-0.8,0.7c-0.1,0.1-14.6,12.9-24.4,18.1c-6.8,3.6-19.4,8.7-31.6,13.7c-9.2,3.7-17.9,7.3-23.9,10.1
		c-19.2,8.9-25,18.4-25.3,18.8l-0.6,0.9l38.3,41l1-1.7c0.1-0.2,10-17.8,18.8-25.1c11.7-9.7,25-13.6,37.9-17.5
		c9.2-2.7,17.9-5.3,26.1-9.8c9.2-5.1,16.1-10.6,20.3-14.4c4.5-4.1,6.9-7,7-7.1l1-1.3L171.3,34.9z M121.1,109.1
		c-7.6,6.3-15.8,19.5-18.5,24.2L68.5,96.8c0.7-1,2.1-2.6,4.4-4.7c3.4-3.1,9.4-7.6,18.9-12.1c5.9-2.8,14.6-6.3,23.8-10
		c1.1-0.4,2.1-0.9,3.2-1.3c-3.1,3.8-3.6,9.8,2.6,17.2c5.8,6.8,15.1,9.9,22.7,10.4C136.2,99.2,128.4,103.1,121.1,109.1z M185.5,81.5
		c-7.9,4.4-16.5,6.9-25.5,9.6c-0.9,0.3-1.7,0.5-2.6,0.8c3.2-4.9,3.1-13.4-2.1-18.5c-5.2-5.1-13-10.8-22.3-10.5
		c5.8-2.4,10.9-4.7,14.5-6.6c8.8-4.7,20.9-15,24.1-17.8l39.2,23.7C207.9,65.2,199.3,74,185.5,81.5z M104.8,96.7
		c1.5,1.9,1.6,4.2,0.3,5.3c-1.3,1-3.6,0.4-5.1-1.5s-1.6-4.2-0.3-5.3C101,94.2,103.3,94.9,104.8,96.7z M176.7,61.4
		c-1.7-1.6-2.2-3.9-1.1-5.2c1.1-1.2,3.5-0.9,5.2,0.7c1.7,1.6,2.2,3.9,1.1,5.2S178.5,63.1,176.7,61.4z"/>
</g>
<g id="Money4">
	<path class="st2" d="M665.9,154c0,0-14.4,14-18.1,31.7c-3.7,17.6,1,56.8-4.8,70s-12.9,25.6-12.9,25.6l67.6,32.8
		c0,0,13.3-30.7,14.6-44.7c1.9-19.5-6.7-44.9-2.2-57.7c5.3-15.2,21.8-42.3,21.8-42.3L665.9,154z"/>
	<path class="st5" d="M704.9,211.2c3.5-12,17.7-38.5,17.7-38.5l-54.8-14.2c0,0-11.1,14.4-14.5,30.7c-3.3,16.3-0.3,52.3-5.3,64.5
		c-5,12.3-11,23.8-11,23.8l56.8,28.1c0,0,9-18.2,12.8-36.9C709.9,253.7,701.4,223.2,704.9,211.2z M670.8,163.2l45.1,12.3
		c0,0-12.4,20.7-15.7,34.7c-0.7,3.1-0.6,7.3-0.1,12.2c-4.3-5.7-12.8-11.4-24.7-13.8c-11.5-2.3-17.8,0.2-20.1,5.9
		c0.2-9.3,0.7-18.1,2.1-23.9C661.8,172.9,670.8,163.2,670.8,163.2z M702.2,267.8c-4,16.3-11.2,30.2-11.2,30.2l-48.3-21.2
		c0,0,5.2-11.1,9.6-22.8c1.6-4.3,2.2-12,2.5-20.8c3.8,5.5,14.4,13.1,25.7,15.3c14.7,2.9,19.8-3.5,21.6-10.1
		C703.4,248.4,704.3,259,702.2,267.8z M682.3,184c0.9-2.1,3.5-3,5.7-2s3.2,3.5,2.3,5.6s-3.5,3-5.7,2
		C682.4,188.6,681.3,186.1,682.3,184z M674.6,275.7c-0.9,2.1-3.5,3-5.7,2s-3.2-3.5-2.3-5.6s3.5-3,5.7-2S675.5,273.6,674.6,275.7z"/>
</g>
<g id="Money3">
	<path class="st2" d="M547.7,15.4c-43-14.5-86.6-3.2-86.6-3.2s0.1,0,0.2,0h-0.2c-9.9,1.9-17.7,4.7-29,17.9
		C421.2,42.9,418,74.4,418,74.4s13.3-7.8,34.5-8.4c21.1-0.6,29,2.7,29,2.7s-0.9-21.1,7.5-32.1c2.4-3.1,5.5-5.9,8.8-8.4
		c13.9,12.2,35.5,41.9,35.5,41.9s5.7-9.5,16.6-16.8c17.7-11.7,28.1-15,28.1-15S565.5,21.4,547.7,15.4z"/>
	<path class="st5" d="M495.4,26.2c-12.6-9.7-22.2-12.9-28-13.8c-15.1,3.4-25.9,9.9-32.2,19.6c-3.7,5.6-6.7,12.9-9,21.7
		c-1.7,6.5-2.4,11.3-2.4,11.5l-0.3,2.5l2.5-0.5c0.2,0,15.3-3.3,23.5-4c11.2-0.9,26.4,1.6,26.5,1.6l1.9,0.3l0.1-2
		c0-0.1,0.8-11.1,4.3-19.9c2.3-5.8,6-10.6,11.1-14.3c1.1-0.8,2.1-1.4,3-1.9C496.1,26.8,495.8,26.5,495.4,26.2z M479.1,42
		c-2.8,7.1-4,15.3-4.4,19c-4.5-0.7-16.2-2.2-25.5-1.4c-6.5,0.5-16.7,2.6-21.4,3.5c1-5.6,4-19.3,10.5-29.2
		c5.5-8.4,14.8-15.1,27.8-18.7c-3.7,3.5-5.3,9.5,4.4,11.4c8.7,1.7,15.3,1.3,20.1,0.2C486.7,29.8,482,34.6,479.1,42z M571.8,34.9
		c-0.5-0.5-13-12.6-27.6-19.6c-2.1-1-4.4-2-6.7-2.9c-6.9-1.7-13.8-2.9-20.3-3.6c-4.1-0.7-8.9-1.3-17.8-1.2
		c-10.7,0.1-21.2,1.6-21.2,1.6c-2.8,0.3-5.1,0.8-7.3,1.1c6.2,1.7,17.9,5.8,28.3,13.6c9.8,7.4,32,37.7,32.3,38l1.1,1.6l1.4-1.4
		c0.1-0.1,8.1-8,16-13.8c10.5-7.6,21.1-10.6,21.2-10.6l2.8-0.8L571.8,34.9z M547.9,45.6c-6.3,4.5-12.4,10.2-15,12.8
		c-4.8-6.4-22.8-30.3-31.8-37.1c-6.9-5.2-14.5-8.8-20.3-11.1c6,1.9,19.5,5.2,29.2,3.8c11.2-1.6,14.1-3.5,10.1-4.6
		c6.5,1,14.3,2.6,23.9,8.5c10.2,6.2,19.3,13.8,23.4,17.5C563.4,36.8,555.7,40,547.9,45.6z M539.4,31.6c-2.3,1.4-4.9,1.3-5.9-0.3
		c-0.9-1.5,0.2-3.9,2.5-5.3c2.3-1.4,4.9-1.3,5.9,0.3C542.8,27.8,541.7,30.2,539.4,31.6z M459.4,46.6c-2.7-0.3-4.7-1.9-4.5-3.7
		s2.5-3,5.2-2.8c2.7,0.3,4.7,1.9,4.5,3.7C464.4,45.7,462,46.9,459.4,46.6z"/>
</g>
<g id="Money2">
	<path class="st2" d="M233,753.9c-3.2-13.6-5.8-33.1-7.7-39.6c-4.3-14.9-14.7-18.9-14.7-18.9l-65.6-1.7c0,0,11.2,11.9,14,26.1
		c1.4,7.4,3.1,22.8,7.2,39.5c3.7,15.3,15,21.6,15,21.6l77.9,9.3l0,0c3.3,0.4,11.2,1.6,26.6-6.4C295.8,778.5,305,768,305,768
		L233,753.9z"/>
	<path class="st5" d="M299.6,769.1l-2.6,2.3c-0.4,0.4-10.3,8.8-20,13c-7.3,3.2-15.2,4.1-20.8,4.3c-1.4-0.8-3.1-1.9-5.1-3.5
		c1.2,0.1,2.6,0.1,4.1,0.1c5.2-0.1,13-0.9,20.1-4c6.2-2.7,12.7-7.4,16.3-10.2c-12.2-2.4-46.9-9.1-57-11.1c-0.4-1.2-0.7-2.4-1-3.7
		c6,1.2,42.6,8.3,62.5,12.1L299.6,769.1z M250.8,789.1l-7.3-0.9c-2.1-1.8-4.3-4.1-6.4-6.7c-0.3,3-4.5,5.2-6.8,5.1l-42.4-5.1
		c0,0,0,0-0.1,0l-4.3-0.5c-1.4-1.2-2.9-2.6-4.4-4.1c-4.4-4.5-7.7-11.5-10.4-22c-2.5-9.8-4.4-22.2-6.5-36.3c-1.1-7.2-8.9-18.9-9-19.1
		l-2-3l56.9,1.8l0.3,0.1c0.4,0.1,9.6,3.2,12.2,15.2c1.1,5,1.9,10.2,2.8,15.7c2.5,15,5,30.5,12.9,44
		C240.7,781,246.9,786.3,250.8,789.1z M230.7,771.7c-2.8-5.5-5.1-11.7-7-18.9c-2-7.6-3.3-15.4-4.5-22.9c-0.9-5.4-1.7-10.6-2.8-15.5
		c-0.9-4.1-2.8-7.4-5.6-9.9c-1.7-1.4-3.2-2.2-3.8-2.4l-48.6-1.5c2.6,4.2,6.9,11.9,7.7,17.6c3.5,23.6,6.2,40.1,11.5,50.1
		c0.6-3.9,4.8-7.6,16.9-8.4C213.8,758.7,224.5,765.3,230.7,771.7z M192.1,724.3c-4.3,0-7.7,2.1-7.7,4.8c0,2.6,3.5,4.8,7.7,4.8
		c4.3,0,7.7-2.1,7.7-4.8C199.9,726.4,196.4,724.3,192.1,724.3z M249.9,769.8c-4.1-1.2-7.9-0.7-8.5,1.2c-0.7,1.9,2.1,4.4,6.2,5.6
		c4.1,1.2,7.9,0.7,8.5-1.2C256.7,773.5,254,771,249.9,769.8z"/>
</g>
<g id="Money1">
	<path class="st2" d="M489.5,240.3c-8.4-4-17-7.9-23.9-11.6l-1.1-0.6c0.5,0.2,0.8,0.4,1,0.5c-3.2-1.8-39-22.1-45.2-23
		c-2-0.3-21.5-5.8-44.2-1.9c-7.7,1.3-25.2,9.2-25.2,9.2l44,24.3c0,0,12.2-5.6,25.6-10.3c4.4-1.5,8.5-2.5,12.4-3.1l15.3,14.3
		c0,0,15.9,7,38,9.4c15.2,1.6,24.6,0.1,24.6,0.1S497.6,244.1,489.5,240.3z"/>
	<path class="st5" d="M495.9,244.8c-0.2-0.1-15.3-6.7-21.3-9.5c-5.3-2.5-12.9-7-17.9-10c-5.5-1.5-13.2-2.6-22.5-1.4
		c1.8,1.8,5.7,5.7,7.5,7.3c2.7,2.4,7.9,6.7,7.9,6.7s7.5,2.7,17.5,5.3c4.5,1.2,9.2,2,13.4,2.6c8.3,1.1,14.9,1.2,15,1.2l5.8,0.1
		L495.9,244.8z M467.7,240.9c-8.9-2.4-15.7-4.7-16.9-5.1c-0.9-0.7-5.1-4.3-7.5-6.4c-1-0.9-2.9-2.6-4.7-4.2c1.7,0.7,3.7,1.2,5.9,1.2
		c2.9,0.1,6.4-0.4,7.7-1.2c4.2,2.6,14.7,8.9,21.4,12.1c3.6,1.7,13.7,6.2,19.3,7.7C487.5,244.7,475.5,243,467.7,240.9z M451.3,220.7
		c0.1,0,0.1,0,0.1,0c-0.1,0-0.3-0.1-0.6-0.3c-1-0.5-1.8-1-3.3-1.8c0,0-0.1,0-0.2,0c-2.1-1.1-4.8-2.6-7.6-4.1
		c-4.4-2.4-9.4-4.7-11.7-5.8c-0.5-0.3-1.3-0.7-3-1.5c-9.7-2.2-21.4-4.1-32-4c-9,0.1-18.2,1.8-24.3,3.8c-6.6,2.2-11,4.4-11.2,4.5
		l-2.5,1.3l40.4,20.7l0.6-0.3c0.2-0.1,18.4-7.9,28.5-10.3c9.8-2.4,17.6-2.5,22.4-2.2c2.4,0.2,4.3,0.4,5.6,0.7
		C452.2,221.2,451.7,221,451.3,220.7z M424,220.2c-9.4,2.3-25,8.8-28.3,10.2l-34.2-17.5c1.9-0.8,4.8-2,8.3-3.1
		c5.9-1.9,15.1-4.4,23.7-4.6c10.8-0.3,21,0.9,29.5,2.6c-2,0.1-3.1,0.9-0.6,3.4c3.6,3.5,9.9,5.9,15.3,7.3
		C433.5,218.6,428.8,219,424,220.2z M451.5,220.8L451.5,220.8C451.6,220.8,451.6,220.8,451.5,220.8z M396.7,212.9
		c2.1,1.3,3.3,3.1,2.6,4.1c-0.6,1-2.8,0.8-4.9-0.5s-3.3-3.1-2.6-4.1C392.4,211.5,394.6,211.7,396.7,212.9z M460.1,233.9
		c2.3,0.8,4,1.9,3.8,2.6c-0.2,0.6-2.3,0.5-4.6-0.3c-2.3-0.8-4-1.9-3.8-2.6C455.8,233,457.9,233.2,460.1,233.9z"/>
</g>
</svg>
