<?xml version="1.0" encoding="utf-8"?>
<!-- Generator: Adobe Illustrator 21.0.0, SVG Export Plug-In . SVG Version: 6.00 Build 0)  -->
<svg version="1.1" id="Слой_1" xmlns="http://www.w3.org/2000/svg" xmlns:xlink="http://www.w3.org/1999/xlink" x="0px" y="0px"
	 width="24px" height="24px" viewBox="0 0 24 24" style="enable-background:new 0 0 24 24;" xml:space="preserve">
<style type="text/css">
	.st0{fill:#191919;}
	.st1{fill:#E0E0E0;}
</style>
<g id="Info">
	<path id="i_1_" class="st0" d="M15.9,20c0,0.7,0.7,1,2.2,1l-0.5,3H6.3l0.5-3c1.6,0,2.5-0.4,2.6-1.3l1-6.1c0-0.7-0.7-1.1-2.2-1.1
		l0.5-2.9h9L15.9,20z M15.3,2C13.5,2,12,3.5,12,5.3s1.5,3.3,3.3,3.3s3.3-1.5,3.3-3.3S17.1,2,15.3,2z"/>
	<path id="i" class="st1" d="M14.9,18c0,0.7,0.7,1,2.2,1l-0.5,3H5.2l0.5-3c1.6,0,2.5-0.4,2.6-1.3l1-6.1c0-0.7-0.7-1.1-2.2-1.1
		l0.5-2.9h9L14.9,18z M14.3,0C12.4,0,11,1.5,11,3.3s1.5,3.3,3.3,3.3s3.3-1.5,3.3-3.3S16.1,0,14.3,0z"/>
</g>
</svg>
