<?xml version="1.0" encoding="utf-8"?>
<!-- Generator: Adobe Illustrator 21.0.0, SVG Export Plug-In . SVG Version: 6.00 Build 0)  -->
<svg version="1.1" id="Слой_1" xmlns="http://www.w3.org/2000/svg" xmlns:xlink="http://www.w3.org/1999/xlink" x="0px" y="0px"
	 width="18px" height="18px" viewBox="0 0 18 18" style="enable-background:new 0 0 18 18;" xml:space="preserve">
<style type="text/css">
	.st0{fill:#FF0066;}
</style>
<path id="Sheart" class="st0" d="M17.9,4.3c-0.1-0.8-0.4-1.7-0.8-2.4c-0.3-0.5-0.7-0.9-1.2-1.2c-0.5-0.3-1-0.5-1.5-0.6
	C14.1,0,13.9,0,13.6,0c-0.6,0-1.2,0.1-1.8,0.3c-0.6,0.2-1.2,0.6-1.7,1c-0.5,0.5-0.9,1-1.3,1.6C8.7,3.1,8.6,3.4,8.5,3.6
	c-0.1,0.3-0.3,0.6-0.4,1c0,0-0.1-0.1-0.1-0.1c0,0-0.1-0.1-0.1-0.1c0,0,0,0,0,0C7.6,4,7.2,3.7,6.9,3.5C6.4,3.2,5.9,3,5.4,2.9
	C5.2,2.8,5,2.8,4.9,2.8c-0.2,0-0.4,0-0.6,0c-0.1,0-0.2,0-0.3,0c-0.3,0-0.5,0.1-0.8,0.1C2.9,3,2.7,3.1,2.4,3.2C2,3.4,1.6,3.7,1.3,4.1
	C1,4.3,0.8,4.6,0.6,4.9C0.2,5.7,0.1,6.4,0,7.2c0,0.5,0,1.1,0.1,1.6c0.1,0.5,0.3,1,0.5,1.4c0.2,0.4,0.4,0.7,0.7,1
	c0.4,0.4,0.7,0.9,1.1,1.3c0.6,0.6,1.3,1.2,2,1.7c0.8,0.6,1.6,1.2,2.5,1.7c3.4,2,6.1,2.6,6.2,1.7c0.1-1.2,0.4-2.5,1-3.5
	c0.1-0.1,0.1-0.2,0.2-0.4c0.5-0.9,1.1-1.8,1.7-2.8c0.6-1.1,1.2-2.2,1.6-3.3c0.2-0.5,0.3-1,0.3-1.6C18,5.7,18,5.5,18,5.2
	C18,4.9,18,4.6,17.9,4.3z"/>
</svg>
