<?xml version="1.0" encoding="utf-8"?>
<!-- Generator: Adobe Illustrator 21.0.0, SVG Export Plug-In . SVG Version: 6.00 Build 0)  -->
<svg version="1.1" id="Слой_1" xmlns="http://www.w3.org/2000/svg" xmlns:xlink="http://www.w3.org/1999/xlink" x="0px" y="0px"
	 width="142px" height="110px" viewBox="0 0 142 110" style="enable-background:new 0 0 142 110;" xml:space="preserve">
<style type="text/css">
	.st0{fill:#242229;}
	.st1{fill-rule:evenodd;clip-rule:evenodd;fill:#E0E0E0;}
	.st2{fill-rule:evenodd;clip-rule:evenodd;fill:#D1571B;}
	.st3{fill-rule:evenodd;clip-rule:evenodd;fill:#BD390E;}
	.st4{fill:#FFFFFF;}
	.st5{fill-rule:evenodd;clip-rule:evenodd;fill:#FF9900;}
	.st6{fill-rule:evenodd;clip-rule:evenodd;fill:#FFCC00;}
</style>
<g id="Logo">
	<path id="_x34_4" class="st0" d="M142,42.9c0-3.6-1.7-6.9-2.9-8.9c-0.5-0.8-2.2-3.7-2.7-4.5c-1.2-1.9-2.6-3.5-4.4-4.8
		c-1.7-1.2-3.7-2.1-5.9-2.5c-2.1-0.5-4.4-0.5-6.7-0.2c-2.3,0.3-4.5,1-6.5,2.1c-1.3,0.7-2.5,1.6-3.5,2.6l0.1-7.1c0-0.8-3-5.9-3.5-6.5
		c-0.6-0.5-1.3-0.8-2-0.7l-10.3,0.8c-1.4,0.1-2.5,1.3-2.5,2.7l0.1,15.5c-0.6-1.4-1.4-2.7-2.3-3.9c-1.3-1.6-2.8-2.9-4.6-3.9
		c-1.9-1-4-1.5-6.3-1.5c-1.3,0-2.5,0.2-3.5,0.5L86,8.9c0.8-1,0.6-2.4,0-3.5c-1.1-1.8-1.8-3.5-2.7-4.5c-0.5-0.6-1.1-0.9-2-0.9
		c-0.5,0-1,0.1-1.4,0.4L44.8,22.5l-18.4-6.7c-1.1-0.4-2.2-0.1-3,0.8c-0.7,0.9-0.8,2.1-0.3,3l3,5.3c-0.1,0-0.1-0.1-0.2-0.1
		C23.2,23,20.1,22,16.5,22c-2.2,0-4.3,0.4-6.3,1.2c-2,0.8-3.8,1.9-5.3,3.5c-1.5,1.5-2.7,3.3-3.6,5.5C0.5,34.2,0,36.7,0,39.3
		c0,1.8,0.5,4.2,1.3,6.1C2,47,6,53.6,7.5,55.1c1.5,1.5,3.3,2.6,5.3,3.5c2,0.8,4.3,1.3,6.7,1.3c1.5,0,2.9-0.1,4.2-0.3
		c0,1.3,3.2,2.8,4.3,2.1c0,0-1.9,2.2-3.1,1.9c-0.4-0.1-0.9-0.2-1.5-0.3c-0.6-0.1-1.2-0.2-1.9-0.3c-0.7-0.1-1.5-0.2-2.3-0.3
		c-0.8-0.1-1.6-0.1-2.4-0.1c-2.2,0-4.2,0.3-5.8,0.9c-1.7,0.6-3.1,1.4-4.2,2.4c-1.1,1-2,2.2-2.5,3.5c-0.5,1.3-0.8,2.6-0.8,3.9
		c0,1.9,0.3,3.5,1,4.8C4.7,79,5.3,79.8,6,80.5c-0.5,0-1,0.2-1.4,0.5c-0.7,0.5-1.1,1.3-1.1,2.2v8.3c0,1.2,2.8,6,4.5,6.9
		c1.2,0.6,2.8,0.8,4.1,1c1.3,0.2,2.6,0.2,4,0.2c1.7,0,3.4-0.1,5.1-0.4c1.8-0.3,5-1.8,5.2-1.9c0,0-0.4,2.4-0.4,3.4
		c0,4.9,3.7,7.2,5.1,8.1c1.5,1,3.8,1.3,6.5,1.3c1.8,0,4-0.4,5.4-0.9c4.5-1.8,9.3-4.4,8.9-9l1.8-13.4l0.7,5.1c0,1.4,3.8,7,5.2,7.1
		l9.4,0.6c0.7,0.1,1.5-0.2,2-0.7c0,0,1.5,0.8,2.2,0.8c0.1,0,0.1,0,0.2,0l9.6-0.8c1.4-0.1,2.5-1.3,2.5-2.7v-1.7
		c0.7,0.8,1.5,1.5,2.4,2.1c1.7,1.2,3.7,2,5.8,2.5c2.1,0.5,4.3,0.5,6.6,0.2c2.3-0.3,4.4-1,6.3-2c1.9-1,3.5-2.4,4.8-4
		c1.3-1.6,2.3-3.5,2.8-5.6c0.6-2.1,0.7-4.4,0.4-6.8c0,0,0,0,0,0c-0.4-2.4-1.1-4.5-2.2-6.4c-0.5-0.8-2.2-3.7-2.7-4.5
		c-1.1-1.9-2.6-3.4-4.3-4.6c-1.7-1.2-3.6-2-5.8-2.5c-2.1-0.4-4.3-0.5-6.6-0.2c-2.3,0.3-4.4,1-6.3,2c-1.9,1-3.6,2.4-4.9,4.1
		c-0.1,0.1-0.2,0.2-0.2,0.3c-0.4-0.8-0.9-1.6-1.5-2.3c-0.8-1-1.7-1.7-2.8-2.3l-0.1-4.5c1.1,0.2,2.1,0.4,3.1,0.4
		c2.3,0,4.4-0.5,6.3-1.5c1.9-1,3.5-2.2,4.8-3.8c0.2-0.2,0.3-0.4,0.5-0.6c0.1,0.2,2.6,4.5,3.1,5c0.6,0.5,1.3,0.7,2,0.7l9.6-0.8
		c1.4-0.1,2.4-1.3,2.5-2.6l0.1-5.2c0.2,0.3,0.3,0.6,0.5,0.9c1.2,1.9,2.6,3.5,4.4,4.7c1.7,1.2,3.7,2.1,5.9,2.5
		c2.2,0.5,4.4,0.5,6.7,0.2c2.4-0.3,4.5-1,6.5-2.1c2-1.1,3.6-2.4,5-4.1C139.4,51.7,142,48.3,142,42.9z"/>
	<path id="_x34_" class="st1" d="M42.4,48.7l2.7,0.9l-0.9,12.5l-4.5-0.9L42.4,48.7z M6.2,83.2v8.3c1.2,0.3,2.4,0.6,3.6,0.7
		c1.2,0.1,2.4,0.2,3.7,0.2c1.6,0,3.1-0.1,4.6-0.4c1.5-0.3,2.8-0.7,3.9-1.3c1.1-0.6,2.1-1.5,2.7-2.6c0.7-1.1,1-2.4,1-4
		c0-1.5-0.2-2.7-0.7-3.6c-0.5-0.9-1.1-1.6-1.8-2.2c-0.7-0.5-1.5-1-2.3-1.3c-0.8-0.3-1.6-0.5-2.3-0.7c-0.7-0.2-1.3-0.4-1.7-0.7
		c-0.5-0.2-0.7-0.6-0.7-1.1c0-0.3,0.1-0.5,0.4-0.7c0.3-0.2,0.6-0.3,1-0.4c0.4-0.1,0.8-0.1,1.1-0.1c0.4,0,0.7,0,0.8,0
		c0.8,0,1.6,0.1,2.3,0.2c0.7,0.1,1.4,0.3,2.2,0.5v-7.8c-0.4-0.1-0.8-0.2-1.4-0.3c-0.6-0.1-1.2-0.2-1.8-0.3c-0.7-0.1-1.4-0.2-2.1-0.2
		c-0.7-0.1-1.5-0.1-2.2-0.1c-1.9,0-3.6,0.2-4.9,0.7c-1.4,0.5-2.5,1.1-3.3,1.9c-0.9,0.8-1.5,1.6-1.9,2.6c-0.4,0.9-0.6,1.9-0.6,2.9
		c0,1.5,0.2,2.7,0.7,3.6c0.5,0.9,1,1.6,1.7,2.2c0.7,0.5,1.4,1,2.2,1.2c0.8,0.3,1.5,0.5,2.2,0.7c0.7,0.2,1.2,0.4,1.7,0.6
		c0.5,0.2,0.7,0.6,0.7,1c0,0.3-0.1,0.6-0.4,0.8c-0.2,0.2-0.6,0.3-0.9,0.4C13.4,83.9,13,84,12.5,84c-0.5,0-0.9,0-1.3,0
		c-0.9,0-1.8-0.1-2.6-0.2C7.8,83.6,7,83.4,6.2,83.2L6.2,83.2z M65.8,65.8l-9.2,0.7L57,91.8l9.4,0.6l-0.2-16c0-0.6,0.2-1.1,0.7-1.4
		c0.5-0.3,1-0.5,1.5-0.5c0.6,0,1.1,0.2,1.5,0.5c0.4,0.4,0.6,0.8,0.6,1.3l-0.1,16.2l9.6-0.8V74.5c0-1.2-0.2-2.4-0.5-3.5
		c-0.3-1.1-0.8-2-1.5-2.8c-0.7-0.8-1.5-1.4-2.4-1.9c-0.9-0.4-2-0.7-3.3-0.7c-1.2,0-2.3,0.2-3.3,0.7c-1,0.5-2,1.4-3,2.7h-0.2V65.8z
		 M107.3,71.3c-0.9-1.6-2.1-2.8-3.5-3.8c-1.4-1-3-1.7-4.8-2.1c-1.8-0.4-3.7-0.4-5.6-0.2c-2,0.3-3.8,0.8-5.4,1.7c-1.6,0.9-3,2-4,3.4
		c-1.1,1.4-1.9,2.9-2.3,4.7c-0.5,1.8-0.6,3.7-0.3,5.7c0.3,2,0.9,3.8,1.8,5.4c0.9,1.6,2.1,2.8,3.5,3.8c1.4,1,3,1.7,4.8,2.1
		c1.8,0.4,3.7,0.4,5.7,0.2c2-0.3,3.8-0.8,5.4-1.7c1.6-0.9,3-2,4-3.3c1.1-1.3,1.9-2.9,2.3-4.7c0.5-1.8,0.6-3.7,0.3-5.7
		C108.8,74.7,108.2,72.9,107.3,71.3z M90.6,77.3c0.5-1,1.5-1.9,2.9-2.4c1.4-0.6,2.6-0.7,3.7-0.3c1.1,0.4,1.9,1.1,2.4,2.2
		c0.5,1.2,0.5,2.2-0.1,3.3c-0.5,1-1.5,1.8-2.8,2.4c-1.4,0.6-2.6,0.7-3.7,0.3c-1.1-0.4-1.9-1.1-2.4-2.3
		C90.1,79.4,90.1,78.3,90.6,77.3z M24.7,41.5c-0.8,0.7-1.7,1.3-2.6,1.8c-1,0.5-2.1,0.7-3.5,0.7c-0.5,0-1,0-1.5-0.1
		c-0.5-0.1-1-0.2-1.3-0.4l13.6-10.3c-1.1-2.6-2.8-4.7-5-6.2c-2.2-1.6-4.9-2.3-7.9-2.3c-1.9,0-3.7,0.3-5.3,1
		c-1.7,0.7-3.1,1.6-4.4,2.9c-1.2,1.2-2.2,2.8-3,4.6c-0.7,1.8-1.1,3.8-1.1,6.1c0,1.8,0.4,3.6,1.1,5.2c0.7,1.6,1.7,3.1,2.9,4.3
		c1.2,1.2,2.7,2.2,4.4,2.9c1.7,0.7,3.6,1.1,5.7,1.1c2.5,0,4.8-0.3,6.7-0.9c1.9-0.6,3.8-1.6,5.7-2.9L24.7,41.5z M12.7,39.1
		c-0.1-0.2-0.2-0.5-0.3-0.7c-0.1-0.2-0.1-0.6-0.1-1.2c0-0.6,0.1-1.1,0.3-1.7c0.2-0.5,0.5-1,0.8-1.5c0.4-0.4,0.8-0.8,1.3-1.1
		c0.5-0.3,1.1-0.4,1.7-0.4c0.6,0,1.2,0.1,1.7,0.3c0.5,0.2,1,0.5,1.4,1.1L12.7,39.1z M61.8,25.8l0.5,35l9.6-0.8l-0.3-9.1
		c0.8,0.8,1.8,1.4,2.9,1.6c1.1,0.3,2.1,0.4,3,0.4c1.9,0,3.6-0.4,5.1-1.2c1.6-0.8,2.9-1.8,4-3.2c1.1-1.3,2-2.8,2.6-4.5
		c0.6-1.7,0.9-3.4,0.9-5.3c0-1.7-0.3-3.4-0.9-5.1c-0.6-1.7-1.4-3.1-2.4-4.4C85.8,28,84.5,27,83,26.2c-1.5-0.8-3.2-1.2-5-1.2
		c-1.5,0-2.7,0.3-3.8,0.8c-1,0.5-2.1,1.3-3,2.4V25L61.8,25.8z M75.4,43.2c-0.7,0.1-1.3,0-1.8-0.1c-0.6-0.2-1.1-0.4-1.5-0.8
		c-0.4-0.3-0.8-0.8-1-1.3c-0.5-1-0.5-2.1,0-3.3c0.5-1.1,1.4-2.1,2.8-2.7c1.4-0.6,2.6-0.8,3.8-0.4c1.2,0.3,2,1,2.5,2.1
		c0.5,1,0.5,2.1,0,3.2c-0.5,1.2-1.4,2.1-2.8,2.7C76.7,43,76,43.2,75.4,43.2z M94.1,52.7l9.6-0.8l0.4-36.8L93.8,16L94.1,52.7z
		 M134.1,31c-1-1.6-2.2-2.9-3.6-3.9c-1.5-1-3.1-1.7-4.9-2.1c-1.8-0.4-3.8-0.5-5.8-0.2c-2,0.3-3.9,0.9-5.5,1.8
		c-1.7,0.9-3,2.1-4.2,3.5c-1.1,1.4-1.9,3-2.4,4.8c-0.5,1.8-0.6,3.8-0.3,5.9c0.3,2.1,0.9,3.9,1.9,5.5c1,1.6,2.2,2.9,3.7,3.9
		c1.5,1,3.1,1.7,5,2.1c1.9,0.4,3.8,0.5,5.8,0.2c2-0.3,3.9-0.9,5.5-1.8c1.7-0.9,3-2,4.2-3.4c1.1-1.4,1.9-3,2.4-4.8
		c0.5-1.8,0.6-3.8,0.3-5.9C135.7,34.5,135.1,32.6,134.1,31z M117,37.1c0.5-1.1,1.5-1.9,2.9-2.5c1.4-0.6,2.7-0.7,3.8-0.3
		c1.1,0.4,1.9,1.2,2.4,2.3c0.5,1.2,0.5,2.3-0.1,3.4c-0.5,1.1-1.5,1.9-2.9,2.5c-1.4,0.6-2.7,0.7-3.8,0.4c-1.1-0.4-1.9-1.1-2.5-2.3
		C116.4,39.3,116.4,38.2,117,37.1z"/>
	<path id="_x32_2" class="st2" d="M35.3,61.3c0,0,2.7-2.2,6.3-2.7c3.6-0.5,8,0.9,8,0.9l-3.1,36.2l-17.9,4.5L35.3,61.3z"/>
	<path id="_x32_" class="st3" d="M49.6,59.5l-3.1-0.7L42.4,93c-1.8-0.3-4-0.2-6.1,0.2c-4.5,1-8.1,4.3-7.7,7c0.4,2.6,4.7,3.5,9.2,2.5
		c4.5-1,9-4.3,8.6-7L49.6,59.5z"/>
	<path id="_x33_" class="st4" d="M94.1,52.7L93.8,16l10.3-0.8l0,1.9l-8.5,0.7l0.3,34.8L94.1,52.7z M74.1,67.6c1.2,0,2.3,0.2,3.3,0.7
		c0.3,0.2,0.7,0.4,1,0.6c-0.1-0.2-0.2-0.3-0.4-0.5c-0.7-0.8-1.5-1.4-2.4-1.9c-0.9-0.4-2-0.7-3.3-0.7c-1.2,0-2.3,0.2-3.3,0.7
		c-0.5,0.2-1.1,0.6-1.6,1.1l0.2,0V71h0.2c1-1.3,2-2.2,3-2.7C71.8,67.8,72.9,67.6,74.1,67.6z M80.1,36.7
		C80.1,36.7,80.1,36.7,80.1,36.7c0.5,1,0.5,2.1,0,3.2c-0.5,1.2-1.4,2.1-2.8,2.7c-0.7,0.3-1.4,0.5-2,0.6c-0.7,0.1-1.3,0-1.8-0.1
		c-0.3-0.1-0.5-0.2-0.7-0.3c0.3,0.5,0.6,1,1,1.3c0.4,0.3,0.9,0.6,1.5,0.8c0.6,0.2,1.2,0.2,1.8,0.1c0.7-0.1,1.3-0.3,2-0.6
		c1.4-0.6,2.3-1.5,2.8-2.7c0.5-1.2,0.5-2.2,0-3.2C81.6,37.7,80.9,37.1,80.1,36.7z M73,26.7v3.1c1-1.1,2-1.9,3-2.4
		c1-0.5,2.3-0.8,3.8-0.8c1.8,0,3.5,0.4,5,1.2c0.7,0.4,1.4,0.8,2,1.3c-1-1.3-2.3-2.3-3.8-3.1c-1.5-0.8-3.2-1.2-5-1.2
		c-1.5,0-2.7,0.3-3.8,0.8c-0.6,0.3-1.1,0.6-1.7,1.1L73,26.7z M94.7,84.5c1.1,0.4,2.3,0.2,3.7-0.3c1.4-0.6,2.3-1.4,2.8-2.4
		c0.5-1,0.5-2.1,0.1-3.3c-0.4-0.9-1.1-1.6-1.9-2c0,0.1,0.1,0.1,0.1,0.2c0.5,1.2,0.5,2.2-0.1,3.3c-0.5,1-1.5,1.8-2.8,2.4
		c-1.4,0.6-2.6,0.7-3.7,0.3c-0.2-0.1-0.3-0.1-0.5-0.2C93,83.5,93.7,84.2,94.7,84.5z M121.2,44.6c1.1,0.4,2.4,0.3,3.8-0.4
		c1.4-0.6,2.4-1.4,2.9-2.5c0.5-1.1,0.5-2.2,0.1-3.4c-0.4-1-1.1-1.6-1.9-2.1c0,0.1,0.1,0.2,0.2,0.3c0.5,1.2,0.5,2.3-0.1,3.4
		c-0.5,1.1-1.5,1.9-2.9,2.5c-1.4,0.6-2.7,0.7-3.8,0.4c-0.2-0.1-0.3-0.1-0.5-0.2C119.4,43.5,120.1,44.2,121.2,44.6z M64,60.7
		l-0.5-33.1l7.6-0.7V25l-9.4,0.8l0.5,35L64,60.7z M109.2,46.2c0.8,1.3,1.8,2.4,2.9,3.3c-0.4-0.5-0.8-1-1.1-1.6
		c-1-1.6-1.6-3.4-1.9-5.5c-0.3-2.1-0.2-4.1,0.3-5.9c0.5-1.8,1.3-3.4,2.4-4.8c1.1-1.4,2.5-2.6,4.2-3.5c1.7-0.9,3.5-1.5,5.5-1.8
		c2-0.3,4-0.2,5.8,0.2c1.8,0.4,3.5,1.1,4.9,2.1c0.2,0.2,0.5,0.4,0.7,0.6c-0.7-0.9-1.6-1.7-2.5-2.3c-1.5-1-3.1-1.7-4.9-2.1
		c-1.8-0.4-3.8-0.5-5.8-0.2c-2,0.3-3.9,0.9-5.5,1.8c-1.7,0.9-3,2.1-4.2,3.5c-1.1,1.4-1.9,3-2.4,4.8c-0.5,1.8-0.6,3.8-0.3,5.9
		C107.6,42.7,108.2,44.6,109.2,46.2z M8,85c0.8,0.2,1.6,0.4,2.4,0.6c0.8,0.1,1.7,0.2,2.6,0.2c0.4,0,0.9,0,1.3,0
		c0.5,0,0.9-0.1,1.2-0.1c0.4-0.1,0.7-0.2,0.9-0.4c0.2-0.2,0.4-0.4,0.4-0.8c0-0.4-0.2-0.8-0.7-1c-0.3-0.2-0.7-0.3-1.2-0.5
		c-0.1,0.2-0.1,0.4-0.3,0.5c-0.2,0.2-0.6,0.3-0.9,0.4C13.4,83.9,13,84,12.5,84c-0.5,0-0.9,0-1.3,0c-0.9,0-1.8-0.1-2.6-0.2
		c-0.8-0.1-1.6-0.3-2.4-0.6v8.3c0.6,0.2,1.2,0.3,1.8,0.4V85z M58.4,68.3l7.4-0.6v-1.9l-9.2,0.7L57,91.8l1.8,0.1L58.4,68.3z
		 M72.2,92.4l0.1-14.2c0-0.5-0.2-1-0.6-1.3c-0.3-0.3-0.8-0.4-1.2-0.5c0,0,0,0,0,0l-0.1,16.2L72.2,92.4z M8.3,79.1
		c0.2,0.1,0.4,0.3,0.6,0.4c-0.2-0.3-0.3-0.5-0.5-0.8c-0.5-0.9-0.7-2.1-0.7-3.6c0-1,0.2-1.9,0.6-2.9c0.4-0.9,1-1.8,1.9-2.6
		c0.9-0.8,2-1.4,3.3-1.9c1.4-0.5,3-0.7,4.9-0.7c0.7,0,1.5,0,2.2,0.1c0.7,0.1,1.4,0.1,2.1,0.2c0.5,0.1,1,0.2,1.5,0.2v-1.4
		c-0.4-0.1-0.8-0.2-1.4-0.3c-0.6-0.1-1.2-0.2-1.8-0.3c-0.7-0.1-1.4-0.2-2.1-0.2c-0.7-0.1-1.5-0.1-2.2-0.1c-1.9,0-3.6,0.2-4.9,0.7
		c-1.4,0.5-2.5,1.1-3.3,1.9c-0.9,0.8-1.5,1.6-1.9,2.6c-0.4,0.9-0.6,1.9-0.6,2.9c0,1.5,0.2,2.7,0.7,3.6C7.1,77.8,7.7,78.5,8.3,79.1z
		 M84.8,87.8c-0.9-1.6-1.5-3.3-1.8-5.4c-0.3-2-0.2-4,0.3-5.7c0.5-1.8,1.3-3.3,2.3-4.7c1.1-1.4,2.4-2.5,4-3.4
		c1.6-0.9,3.4-1.4,5.4-1.7c2-0.3,3.9-0.2,5.6,0.2c1.8,0.4,3.4,1.1,4.8,2.1c0.2,0.2,0.4,0.3,0.7,0.5c-0.7-0.9-1.5-1.7-2.4-2.3
		c-1.4-1-3-1.7-4.8-2.1c-1.8-0.4-3.7-0.4-5.6-0.2c-2,0.3-3.8,0.8-5.4,1.7c-1.6,0.9-3,1.9-4,3.4c-1.9,2.6-2.9,3.6-2.9,8.5
		c0,5,2.2,8.3,5,10.5C85.5,88.9,85.2,88.4,84.8,87.8z M19.9,34.6c-0.3-0.1-0.7-0.2-1.1-0.2l-4.6,3.5c-0.1,0.3-0.1,0.7-0.1,1.1
		c0,0.6,0,0.9,0.1,1.2c0.1,0.2,0.2,0.5,0.3,0.7l6.8-5.2C20.8,35.2,20.4,34.8,19.9,34.6z M7.5,49.4c-0.8-1-1.4-2-2-3.2
		c-0.7-1.6-1.1-3.4-1.1-5.2c0-2.3,0.4-4.3,1.1-6.1c0.7-1.8,1.7-3.3,3-4.6c1.2-1.2,2.7-2.2,4.4-2.9c1.7-0.7,3.4-1,5.3-1
		c3,0,5.7,0.8,7.9,2.3c0.4,0.2,0.7,0.5,1,0.8c-0.8-1-1.7-1.8-2.8-2.6c-2.2-1.6-4.9-2.3-7.9-2.3c-1.9,0-3.7,0.3-5.3,1
		c-1.7,0.7-3.1,1.6-4.4,2.9c-1.2,1.2-2.2,2.8-3,4.6c-0.7,1.8-1.1,3.8-1.1,6.1c0,1.8,0.4,3.6,1.1,5.2c0.7,1.6,1.7,3.1,2.9,4.3
		C7,49,7.3,49.2,7.5,49.4z M18.8,77.5c0.5,0.2,1,0.5,1.7,0.7c0.7,0.2,1.5,0.5,2.3,0.7c0.7,0.2,1.3,0.6,1.8,1
		c-0.4-0.6-0.8-1.1-1.3-1.5c-0.7-0.5-1.5-1-2.3-1.3c-0.8-0.3-1.6-0.5-2.3-0.7c-0.2-0.1-0.4-0.1-0.6-0.2c0,0.1-0.1,0.2-0.1,0.3
		C18.1,76.9,18.3,77.2,18.8,77.5z M18.8,45.7c0.5,0.1,1,0.1,1.5,0.1c1.4,0,2.6-0.2,3.5-0.7c0.8-0.4,1.5-0.9,2.2-1.4l-1.3-2.2
		c-0.8,0.7-1.7,1.3-2.6,1.8c-0.8,0.4-1.7,0.6-2.7,0.7l-1.8,1.4C17.9,45.5,18.3,45.6,18.8,45.7z"/>
	<path id="_x31_2" class="st5" d="M54.9,34.4l9.8,23.3l-21.4-17L23.7,55l10.7-20.6l-8.9-16.1l19.6,7.2L81.3,2.7L54.9,34.4z"/>
	<path id="_x31__1_" class="st6" d="M51.4,34.4l8.3,19.2L41.1,38.9L26.5,49.6l7.9-15.2l-8.9-16.1l19.6,7.2L71.7,8.7L51.4,34.4z"/>
</g>
</svg>
