<?xml version="1.0" encoding="utf-8"?>
<!-- Generator: Adobe Illustrator 22.1.0, SVG Export Plug-In . SVG Version: 6.00 Build 0)  -->
<svg version="1.1" id="Social" xmlns="http://www.w3.org/2000/svg" xmlns:xlink="http://www.w3.org/1999/xlink" x="0px" y="0px"
	 width="44px" height="44px" viewBox="0 0 44 44" style="enable-background:new 0 0 44 44;" xml:space="preserve">
<style type="text/css">
	.st0{fill:#232229;}
	.st1{fill:#983895;}
	.st2{fill:#E9EBEE;}
</style>
<g id="Instagram">
	<polygon id="Shadow_4_" class="st0" points="42,42 2,44 5,4 40,6 	"/>
	<polygon id="Color_4_" class="st1" points="42,38 2,40 5,0 40,2 	"/>
	<path id="Instagram_1_" class="st2" d="M27.4,8H16.6c-3.6,0-6.6,2.9-6.6,6.6v10.7c0,3.6,2.9,6.6,6.6,6.6h10.7
		c3.6,0,6.6-2.9,6.6-6.6V14.5C33.9,10.9,30.9,8,27.4,8z M32,25.5c0,2.5-2,4.5-4.5,4.5h-11C14,30,12,28,12,25.5v-11
		c0-2.5,2-4.5,4.5-4.5h11c2.5,0,4.5,2,4.5,4.5V25.5L32,25.5z M22,14c-3.3,0-6,2.7-6,6s2.7,6,6,6s6-2.7,6-6S25.3,14,22,14z M22,24
		c-2.2,0-4-1.8-4-4s1.8-4,4-4s4,1.8,4,4S24.2,24,22,24z M28.5,12c-0.4,0-0.9,0.2-1.1,0.4c-0.3,0.3-0.4,0.8-0.4,1.1
		c0,0.4,0.2,0.9,0.4,1.1c0.3,0.3,0.8,0.4,1.1,0.4c0.4,0,0.9-0.2,1.1-0.4c0.3-0.3,0.4-0.8,0.4-1.1c0-0.4-0.2-0.9-0.4-1.1
		C29.4,12.1,28.9,12,28.5,12z"/>
</g>
</svg>
