<?xml version="1.0" encoding="utf-8"?>
<!-- Generator: Adobe Illustrator 21.0.0, SVG Export Plug-In . SVG Version: 6.00 Build 0)  -->
<svg version="1.1" id="Слой_1" xmlns="http://www.w3.org/2000/svg" xmlns:xlink="http://www.w3.org/1999/xlink" x="0px" y="0px"
	 width="40px" height="40px" viewBox="0 0 40 40" style="enable-background:new 0 0 40 40;" xml:space="preserve">
<style type="text/css">
	.st0{fill:#242229;}
	.st1{fill:#FFCC00;}
	.st2{fill:#FFFFFF;}
</style>
<g>
	<path class="st0" d="M33.6,10.2C24,7,14,0,14,0l-4,1c0,0-2,8-10,19l3,8c9,3,19,10,19,10l5-2c0,0,1-8,10-19C37,17,33,10,33.6,10.2z"
		/>
	<path class="st1" d="M22.5,33.2c-0.9-3-18.7-12.3-21.8-11.4c3-0.9,12.6-18.1,11.7-21.1c0.9,3,18.7,12.3,21.8,11.4
		C31.1,13,21.6,30.3,22.5,33.2z"/>
	<path class="st2" d="M14,6c0,0,4,7,2,10S6,20,6,20s4-3,6-6S14,6,14,6z"/>
</g>
</svg>
