<?xml version="1.0" encoding="utf-8"?>
<!-- Generator: Adobe Illustrator 21.0.0, SVG Export Plug-In . SVG Version: 6.00 Build 0)  -->
<svg version="1.1" id="Layer_1" xmlns="http://www.w3.org/2000/svg" xmlns:xlink="http://www.w3.org/1999/xlink" x="0px" y="0px"
	 viewBox="0 0 180 70" style="enable-background:new 0 0 180 70;" xml:space="preserve">
<style type="text/css">
	.st0{fill:#EEEEEE;}
	.st1{fill:#0066FF;}
</style>
<g id="Blueprint">
	<g>
		<path class="st0" d="M111.5,45.6V34.5c0-2.2,0.1-6.5,3.7-9.3s9.1-2.5,9.2-2.5v6.1h-2c-3.8,0-4.9,2-4.9,5v11.8H111.5z"/>
		<path class="st0" d="M126.2,15.9c0,0,1.1,0,3.1,0s2.9,1.8,2.9,3c0,1.1,0,1.8,0,1.8h-6V15.9z M126.2,22.7c0,0,1.5,0,3.1,0
			c1.6,0,2.9,1.3,2.9,2.9c0,1.6,0,20,0,20h-6V22.7z"/>
		<path class="st0" d="M153.9,45.6c0,0-1.1,0-3,0c-1.9,0-2.9-1.3-2.9-2.9s0-11.7,0-11.7c0-1.4-0.8-4-4.1-4c-3.3,0-4,2.6-4,4v14.7h-6
			V32.2c0-5.6,2.7-10,9.8-10s10.2,3.8,10.2,10V45.6z"/>
		<path class="st0" d="M165,45.6c-1.9,0.1-4,0.2-6.2,0c-2.2-0.2-3.3-1.7-3.3-4.3V15.9h3.1c1.2,0,2.8,0.9,2.8,3v3.9h3.5v1
			c0,2.1-1.3,3.1-3.5,3.1v12.8c0,1,0.6,1.5,1.7,1.5h1.8V45.6z"/>
		<path class="st0" d="M94.6,51.2c0,1.6-1.3,2.9-2.9,2.9h-2.9V32.6c0-7.6,4.8-10.4,11.2-10.4c9.2,0,10.4,7.7,10.4,11.8
			c0,7.5-3.9,12.1-9.2,12.1c-4.3,0-5.9-2.2-6.6-3.5V51.2z M104.5,34.2c0-2.2-0.6-7-5-7c-4.4,0-4.8,4.6-4.8,7c0,2.2,0.8,6.7,5,6.7
			S104.5,36.3,104.5,34.2z"/>
	</g>
	<g>
		<path class="st1" d="M27.4,22.1c-4.1,0-5.9,2.4-6.6,3.5v-6.9c0-1.7-1.3-2.9-2.9-2.9H15v20.6c0,6.9,5.2,9.6,11.2,9.6
			c8.1,0,10.4-5.6,10.4-11.8S33.5,22.1,27.4,22.1z M25.7,41.1c-4,0-4.8-3.6-4.8-7.1s1.2-6.6,5-6.6s4.8,3.5,4.8,6.6
			S29.7,41.1,25.7,41.1z"/>
		<path class="st1" d="M41.1,15.9H38v29.7h6V18.8C44,17.2,42.7,15.9,41.1,15.9z"/>
		<path class="st1" d="M59.6,25.6v11.7c0,0,0.1,4-4.1,4s-4-4-4-4V22.7h-6c0,0,0,10.1,0,13.5s0.4,9.9,9.8,9.9s10.2-6.5,10.2-9.9
			c0-3.7,0-13.5,0-13.5h-3C60.8,22.7,59.6,24.1,59.6,25.6z"/>
		<path class="st1" d="M77,22.1c-7.7,0-10.4,5.7-10.4,11.8s3.1,12.1,10.4,12.1c7.4,0,10.4-5.5,10.4-7.5h-4.3c-0.7,0-1.2,0.1-1.6,0.4
			c-0.4,0.3-1.3,2.1-4.1,2.1c-2.8,0-4.7-1.8-4.7-5.4h15.1C87.9,27,84.7,22.1,77,22.1z M72.8,31.8c0,0-0.1-4.7,4.4-4.7
			c4.5,0,4.4,4.7,4.4,4.7H72.8z"/>
	</g>
</g>
</svg>
