<?xml version="1.0" encoding="utf-8"?>
<!-- Generator: Adobe Illustrator 17.0.0, SVG Export Plug-In . SVG Version: 6.00 Build 0)  -->
<!DOCTYPE svg PUBLIC "-//W3C//DTD SVG 1.1//EN" "http://www.w3.org/Graphics/SVG/1.1/DTD/svg11.dtd">
<svg version="1.1" id="Layer_1" xmlns="http://www.w3.org/2000/svg" xmlns:xlink="http://www.w3.org/1999/xlink" x="0px" y="0px"
	 width="180px" height="70px" viewBox="0 0 180 70" enable-background="new 0 0 180 70" xml:space="preserve">
<g id="CasinoTechnology">
	<path id="Path_108_" fill="#0099FF" d="M164.32,45.374h2.995V43.56h1.545v3.602c0,0,0.059,1.068-1.545,1.068h-3.195
		c0,0,0.012-1.068,0.898-1.068h2.297v-0.82h-2.995c-1.305,0-1.584-0.05-1.584-0.969V43.56c1.413,0,1.584,0.564,1.584,1.124V45.374z"
		/>
	<path id="Path_222_" fill="#0099FF" d="M152.669,43.56h2.988c1.604,0,1.552,1.011,1.552,1.011h-4.54v2.591h2.988v-0.82
		c0,0-1.691,0.079-1.691-0.969h3.243v1.789c0,0-0.073,1.068-1.552,1.068h-2.988c-1.603,0-1.597-1.068-1.597-1.068v-2.591
		C151.073,44.571,151.161,43.56,152.669,43.56z"/>
	<path id="Path_223_" fill="#0099FF" d="M145.55,44.571c0,0-0.035-1.011-1.572-1.011h-2.969c-1.534,0-1.547,1.011-1.547,1.011v2.591
		c0,0,0.083,1.068,1.547,1.068h2.969c1.555,0,1.572-1.068,1.572-1.068V44.571z M143.979,47.163h-2.969v-2.591h2.969V47.163z"/>
	<path id="Path_224_" fill="#0099FF" d="M130.791,44.256v2.907h3.168c0,0-0.097,1.068-1.322,1.068h-1.846
		c-1.599,0-1.597-1.068-1.597-1.068V43.56C130.551,43.56,130.791,44.256,130.791,44.256z"/>
	<path id="Path_225_" fill="#0099FF" d="M123.681,44.571c0,0-0.035-1.011-1.572-1.011h-2.969c-1.534,0-1.547,1.011-1.547,1.011
		v2.591c0,0,0.083,1.068,1.547,1.068h2.969c1.555,0,1.572-1.068,1.572-1.068V44.571z M122.109,47.163h-2.969v-2.591h2.969V47.163z"
		/>
	<path id="Path_226_" fill="#0099FF" d="M108.089,43.922l2.445,2.147v-1.764c0-0.676,1.497-0.745,1.497-0.745v4.671
		c-1.281,0-1.633-0.449-1.633-0.449l-2.309-2.11v2.559h-1.559V43.56C106.529,43.56,107.667,43.585,108.089,43.922z"/>
	<path id="Path_227_" fill="#0099FF" d="M96.463,43.56v1.814h2.969V43.56h1.622v4.671h-1.622v-1.888h-2.969v1.888h-1.622v-3.66
		C94.842,43.664,96.463,43.56,96.463,43.56z"/>
	<path id="Path_228_" fill="#0099FF" d="M84.795,43.56h3.011c1.12,0,1.587,0.505,1.587,0.891c0,1.014-1.587,0.922-1.587,0.922
		v-0.803h-3.011v2.591h3.011v-0.82h1.538v0.82c0,0.502-0.39,1.068-1.538,1.068h-3.011c-1.044,0-1.529-0.513-1.529-1.068l-0.05-2.591
		C83.216,44.087,83.652,43.56,84.795,43.56z"/>
	<path id="Path_229_" fill="#0099FF" d="M71.591,44.571c0-0.569,0.523-1.011,1.464-1.011h3.476c1.137,0,1.173,1.011,1.173,1.011
		h-4.649v0.803h2.915v0.969h-2.915v0.82h4.649c0,0-0.095,1.068-1.173,1.068h-3.476c-0.886,0-1.464-0.356-1.464-1.068
		C71.591,47.163,71.591,45.54,71.591,44.571L71.591,44.571z"/>
	<path id="Path_230_" fill="#0099FF" d="M60.864,43.56h5.239c0,0-0.172,1.011-1.153,1.011h-1.192v2.591
		c0,1.01-1.547,1.068-1.547,1.068v-3.66h-2.345C59.866,44.571,59.937,43.56,60.864,43.56z"/>
	<path id="Path_231_" fill="#0099FF" d="M164.856,22.136h-7.458c-3.58,0-5.169,1.776-5.169,4.792v5.995
		c0,2.979,1.162,4.774,5.144,4.774h7.483c3.525,0,5.144-1.812,5.144-4.774v-5.995C170,23.896,168.649,22.136,164.856,22.136z
		 M164.026,34.729h-5.824c-2.098,0-2.489-1.044-2.489-2.632v-4.342c0-1.782,0.521-2.479,2.514-2.479h5.799
		c1.811,0,2.489,0.726,2.489,2.479v4.342C166.515,33.771,166.331,34.729,164.026,34.729z"/>
	<path id="Path_232_" fill="#0099FF" d="M134.383,22.568l11.264,10.782V22.136h3.318v14.742c0,0-0.142,1.248-1.551,1.248
		c-1.5,0-2.353-0.975-2.353-0.975l-11.027-10.285v10.832h-3.231V23.463c0,0,0.099-1.543,1.403-1.543
		C133.911,21.919,134.383,22.568,134.383,22.568z"/>
	<path id="Path_233_" fill="#0099FF" d="M123.007,22.136h3.493v15.561h-3.493V22.136z"/>
	<path id="Path_234_" fill="#0099FF" d="M107.072,22.136h12.218v3.14h-12.218c0,0-1.344-0.15-1.344,1.545s1.344,1.66,1.344,1.66
		h7.503c2.468,0,4.715,0.334,4.715,4.552s-2.17,4.665-4.715,4.665H102.55v-2.969h12.025c0,0,1.54,0.226,1.54-1.696
		c0-1.922-1.54-1.757-1.54-1.757h-7.503c-2.726,0-4.521-0.584-4.521-4.537S104.657,22.136,107.072,22.136z"/>
	<path id="Path_235_" fill="#0099FF" d="M91.549,23.164c-1.023-1.739-3.967-1.714-4.965,0.05
		c-3.044,4.844-9.156,14.483-9.156,14.483h3.992l2.245-3.528h10.702l2.27,3.528h4.041C100.679,37.698,94.617,28.009,91.549,23.164z
		 M85.337,31.462l3.742-5.987l3.667,5.987H85.337z"/>
	<path id="Path_236_" fill="#0099FF" d="M63.896,22.136h11.736v3.14H64.85c-1.578,0-2.489,0.379-2.489,2.442v4.532
		c0,2.304,1.085,2.479,2.489,2.479h10.783v2.969H63.896c-3.369,0-4.978-1.467-4.978-4.958c0-5.537,0,0,0-5.537
		C58.918,23.513,60.752,22.136,63.896,22.136z"/>
	<path id="Path_237_" fill="#0099FF" d="M36,31.446v7.315C36,40.781,37.101,42,39.14,42h10.534l5.673-5.41
		c0.833-0.825,0.833-1.951,0-2.776L49.264,28H39.14C37.101,28,36,29.426,36,31.446z"/>
	<path id="Path_238_" fill="#0099FF" d="M36.678,47C33.279,47,30,44.566,30,41.199V29.007C30,25.641,33.279,22,36.678,22h7.662
		l-9.847-9.298c-0.833-0.825-2.182-1.052-3.015-0.228L21.631,22h8.688c0,0-0.205,6-7.18,6h-6.431l-6.083,5.919
		c-0.833,0.825-0.833,2.109,0,2.933l20.854,20.629c0.833,0.825,2.182,0.664,3.015-0.161L44.751,47H36.678z"/>
</g>
</svg>
