<?xml version="1.0" encoding="utf-8"?>
<!-- Generator: Adobe Illustrator 21.0.0, SVG Export Plug-In . SVG Version: 6.00 Build 0)  -->
<svg version="1.1" id="Layer_1" xmlns="http://www.w3.org/2000/svg" xmlns:xlink="http://www.w3.org/1999/xlink" x="0px" y="0px"
	 viewBox="0 0 180 70" enable-background="new 0 0 180 70" xml:space="preserve">
<g id="Ezugi">
	<path id="z" fill="#EEEEEE" d="M77.2,46.4c-2.7,0-4.7,0.1-5.3,0.2c-0.2-0.1-0.3-0.3-0.3-0.5c1-1.2,3.3-4.8,4.9-7.4l5.4-9.1
		c0.8-1.4,0.5-1.5-0.5-1.5h-3.5c-1.5,0-2.7,0.2-3.5,0.8c-0.9,0.7-1.4,1.8-1.8,2.9c-0.3,0.3-1,0.2-1.2-0.2c0.1-1.3,1-4.7,1.7-5.9
		c0.2-0.1,0.5-0.1,0.6,0c0.2,0.9,0.7,0.9,3.6,0.9h7.2c1.4,0,2.3,0,3.1-0.2c0.2,0.1,0.3,0.3,0.3,0.5c-1.1,1.5-2.3,3.3-3.8,5.8
		L78,42.9c-1.1,1.8-1,2,1,2h1.7c2,0,4.6,0,6-1.5c0.6-0.6,1.1-1.7,1.6-2.9c0.4-0.2,1-0.1,1.1,0.3c-0.5,2.5-1.2,4.8-1.9,5.8
		c-1.7-0.1-3.3-0.2-5.7-0.2H77.2z"/>
	<path id="u" fill="#EEEEEE" d="M97.5,39c0,3.5,0.9,5.8,4.7,5.8c1.4,0,3-0.6,4.1-1.5c0.7-0.6,1-1.4,1-2.9v-8.3c0-3.3-0.4-3.4-1.9-4
		l-0.7-0.3c-0.4-0.2-0.4-0.9,0.1-1.1c2-0.1,4.8-0.4,5.9-0.9c0.3,0.1,0.4,0.2,0.5,0.4c-0.1,1-0.2,2.5-0.2,4.4v8.5
		c0,4,0.2,5.5,1.6,5.5c0.6,0,1.3-0.1,2-0.3c0.3,0.3,0.4,1.3,0,1.5c-2,0.4-4.9,0.9-6.6,1.9c-0.3,0-0.5-0.2-0.6-0.4v-2.1
		c0-0.5-0.2-0.7-0.5-0.7c-1.5,1-4,2.6-7,2.6c-4.5,0-6.1-2.2-6.1-6.3v-8.4c0-3.2,0-3.6-1.5-4.3l-0.6-0.3c-0.3-0.3-0.3-1,0.1-1.1
		c2.3-0.1,4.3-0.5,5.4-0.9c0.3,0.1,0.5,0.2,0.5,0.4c-0.1,0.9-0.2,1.9-0.2,4.4V39z"/>
	<path id="g" fill="#EEEEEE" d="M138.1,27.7c0.6,0.3,0.5,2-0.3,2.1h-3.7c0.1,0.9,0.1,1.7,0.1,2.6c0,3.5-2.1,8-8.5,8
		c-0.9,0-1.6-0.1-2.2-0.2c-0.6,0.4-2.2,1.3-2.2,2.8c0,1.2,1.2,2.1,3.5,2.1c1.7,0,3.8-0.2,6-0.2c2.8,0,7.1,0.5,7.1,5.6
		c0,5.5-6,9.5-12.6,9.5c-6.2,0-8.4-3.3-8.4-5.9c0-0.8,0.2-1.5,0.6-1.9c0.9-0.9,2.3-2.2,3.4-3.4c0.5-0.5,0.9-0.9,0.4-1.2
		c-2-0.5-3.7-2.2-3.7-4c0-0.3,0.2-0.5,0.8-0.9c0.9-0.6,1.8-1.4,2.7-2.3c0.3-0.3,0.5-0.7,0.5-1c-1.7-0.9-3.8-2.9-3.8-6.1
		c0-4.3,3.8-7.6,8.3-7.6c1.9,0,3.7,0.5,4.9,1c1.6,0.7,2,0.8,3.1,0.8H138.1z M127.5,48c-1.6,0-3.7,0.1-4.4,0.6
		c-1.2,0.8-2.4,2.3-2.4,4.2c0,2.7,2.2,5,6.8,5c4.5,0,7.5-2.5,7.5-5.4c0-3.1-2.1-4.4-5.8-4.4H127.5z M130.6,33.6
		c0-3.4-1.4-6.3-4.5-6.3c-2.4,0-4.3,2.2-4.3,5.7c0,3.6,2.2,5.9,4.6,5.9C129.2,38.9,130.6,36.7,130.6,33.6z"/>
	<path id="i" fill="#EEEEEE" d="M143,31.9c0-2,0-2.2-1.4-3.1l-0.5-0.3c-0.2-0.2-0.2-0.8,0-0.9c1.2-0.4,4.1-1.7,5.2-2.5
		c0.3,0,0.5,0.1,0.5,0.3c-0.1,1.8-0.2,4.2-0.2,6.3v9.1c0,3.6,0.1,4.1,1.9,4.4l1.1,0.2c0.4,0.3,0.3,1.1-0.1,1.3
		c-1.5-0.1-3-0.2-4.8-0.2c-1.8,0-3.3,0.1-4.8,0.2c-0.4-0.2-0.5-1-0.1-1.3l1.1-0.2c1.9-0.3,1.9-0.8,1.9-4.4V31.9z"/>
	<polygon id="a2" fill="#0066FF" points="67.7,15.1 67.7,48.6 63.7,51.5 41.7,44.3 41.7,23.5 63.7,10 	"/>
	<polygon id="a1" fill="#0099FF" points="63.7,10 63.7,51.5 30,45.6 35.8,17.7 	"/>
	<path id="e" fill="#EEEEEE" d="M44.3,28.6c-0.1,1.1-0.1,1.2,1.1,1.1l3.2-0.2c2.6-0.1,3.2-0.5,4-2.6l0.4-1.1c0.4-0.4,1.8-0.5,2-0.1
		c-0.3,1.4-0.5,3-0.7,4.7c-0.2,1.7-0.3,3.3-0.3,4.8c-0.3,0.4-1.7,0.4-2,0l-0.1-1.1c-0.3-2.1-0.9-2.4-3.5-2.4l-3.2,0.1
		c-1.2,0-1.2,0.1-1.4,1.3l-0.5,4.7C43,39.7,43,41,43.5,41.7c0.5,0.8,1.3,1.2,4.7,1.6c4.5,0.5,6.4,0.6,10.2-4.4
		c0.6-0.5,2.1-0.2,2.3,0.4c-0.5,2.5-2.4,6.3-3.4,7.5c-3.1-0.5-8.2-1.3-12.2-1.9l-5.5-0.8c-1.8-0.3-3.6-0.5-6.2-0.8
		c-0.2-0.2-0.1-1.1,0.1-1.2l1.6-0.1c1.6-0.1,1.9-0.3,2.3-3.7l1.6-13.7c0.4-3.3,0.2-3.5-1.4-3.5l-0.9,0c-0.3-0.2-0.2-1,0.2-1.2
		c1.7-0.3,3.5-0.6,5.4-0.9l9.6-1.9c3.4-0.7,6.7-1.4,7.5-1.6c0,0.7,0.1,4,0,7c-0.3,0.5-1.7,0.8-2.2,0.4c-0.5-1.5-1.1-2.7-1.8-3.2
		c-1-0.7-2.5-0.9-5-0.5L46.7,20c-1.5,0.3-1.5,0.3-1.6,1.8L44.3,28.6z"/>
	<path id="o" fill="#0099FF" d="M147.4,21c0.5,2.1-1.3,3.5-3.4,4c-2.4,0.5-4.3-0.5-4.6-2.1c-0.4-2,1.2-3.6,3.5-4.2
		C145.2,18.2,147.1,19.3,147.4,21z"/>
</g>
</svg>
