<?xml version="1.0" encoding="utf-8"?>
<!-- Generator: Adobe Illustrator 21.0.0, SVG Export Plug-In . SVG Version: 6.00 Build 0)  -->
<svg version="1.1" id="Layer_1" xmlns="http://www.w3.org/2000/svg" xmlns:xlink="http://www.w3.org/1999/xlink" x="0px" y="0px"
	 viewBox="0 0 180 70" style="enable-background:new 0 0 180 70;" xml:space="preserve">
<style type="text/css">
	.st0{fill:#EEEEEE;}
	.st1{fill:#FF3333;}
</style>
<g id="GamesLab">
	<path class="st0" d="M57.9,26.5v3.2H46c-0.4,0-0.8,0.2-1.1,0.5c-0.3,0.3-0.4,0.7-0.4,1.2v6.6c0,0.5,0.1,0.8,0.4,1.2
		c0.3,0.3,0.7,0.5,1.1,0.5h9v-2.2h-4.1v-3h7.4v8.3H45c-1.1,0-2-0.4-2.7-1.2c-0.8-0.8-1.1-1.8-1.1-2.9v-7.9c0-1.1,0.4-2.1,1.1-2.9
		c0.8-0.8,1.7-1.2,2.7-1.2H57.9z"/>
	<path class="st0" d="M78.3,30.3l5.2,8.3l5.2-8.3h3.1v12.4h-3.1v-7.3l-3.9,6.2h-2.6l-3.9-6.2v7.3h-3.1V30.3H78.3z"/>
	<path class="st0" d="M106.7,30.3v3h-9.8V35h8.5v3h-8.5v1.7h9.8v3h-13V30.3H106.7z"/>
	<path class="st0" d="M112.3,30.3L112.3,30.3h6.5c1,0,1.8,0.4,2.5,1.1c0.7,0.7,1,1.6,1,2.7v0.1h-3c0,0,0-0.1,0-0.1
		c0-0.2-0.1-0.4-0.2-0.5c-0.1-0.2-0.3-0.2-0.5-0.2l-5.8,0c-0.2,0-0.4,0.1-0.5,0.2c-0.1,0.1-0.2,0.3-0.2,0.5c0,0.2,0.1,0.4,0.2,0.5
		c0.1,0.1,0.3,0.2,0.5,0.2c0.7,0,1.7,0,3.2,0c1.4,0,2.5,0,3.2,0c1,0,1.9,0.4,2.6,1.1c0.7,0.8,1.1,1.7,1.1,2.8c0,1.1-0.3,2-1.1,2.8
		c-0.7,0.8-1.6,1.1-2.6,1.1h-6.8c-1,0-1.9-0.4-2.6-1.1c-0.7-0.8-1.1-1.7-1.1-2.8v-0.1h2.9v0.1c0,0.2,0.1,0.5,0.2,0.6
		c0.2,0.2,0.4,0.3,0.6,0.3h6.4c0.2,0,0.4-0.1,0.6-0.3c0.2-0.2,0.2-0.4,0.2-0.6c0-0.2-0.1-0.5-0.2-0.6c-0.2-0.2-0.4-0.3-0.6-0.3h-6.6
		c-1,0-1.8-0.4-2.5-1.1c-0.7-0.7-1-1.6-1-2.7c0-1,0.3-1.9,1-2.6C110.4,30.7,111.3,30.3,112.3,30.3L112.3,30.3L112.3,30.3z"/>
	<path class="st1" d="M124.8,42.7V26.5h3.3v13h11v3.2H124.8z"/>
	<path class="st1" d="M166.1,30.3c0.9,0,1.7,0.3,2.3,1s0.9,1.5,0.9,2.5c0,0.9-0.3,1.7-0.9,2.4c0.5,0.3,0.9,0.7,1.1,1.3
		c0.3,0.5,0.4,1.1,0.4,1.7c0,1-0.3,1.8-1,2.5c-0.6,0.7-1.4,1-2.3,1h-10.8V30.3H166.1z M159,35.2h6.3c0.3,0,0.5-0.1,0.7-0.3
		c0.2-0.2,0.3-0.4,0.3-0.7c0-0.3-0.1-0.5-0.3-0.7c-0.2-0.2-0.4-0.3-0.7-0.3H159V35.2z M159,39.8h7c0.3,0,0.5-0.1,0.7-0.3
		c0.2-0.2,0.3-0.4,0.3-0.7c0-0.3-0.1-0.5-0.3-0.7c-0.2-0.2-0.4-0.3-0.7-0.3h-7V39.8z"/>
	<path class="st1" d="M153.8,33.8c0-1-0.3-1.8-0.9-2.5s-1.4-1-2.3-1h-6.3c-0.9,0-1.7,0.3-2.3,1s-0.9,1.5-0.9,2.5c0,0.9,0,8.9,0,8.9
		h3.1v-4.9h6.6v4.9h3.1C153.8,42.7,153.9,34.7,153.8,33.8z M150.7,35.2h-6.6c0,0,0-0.7,0-1c0-0.3,0-0.5,0.2-0.7
		c0.2-0.2,0.4-0.3,0.7-0.3h4.9c0.3,0,0.5,0.1,0.7,0.3c0.2,0.2,0.2,0.4,0.2,0.7C150.7,34.5,150.7,35.2,150.7,35.2z"/>
	<path class="st0" d="M73.1,33.8c0-1-0.3-1.8-0.9-2.5s-1.4-1-2.3-1h-6.3c-0.9,0-1.7,0.3-2.3,1s-0.9,1.5-0.9,2.5c0,0.9,0,8.9,0,8.9
		h3.1v-4.9H70v4.9h3.1C73.1,42.7,73.1,34.7,73.1,33.8z M70,35.2h-6.6c0,0,0-0.7,0-1c0-0.3,0-0.5,0.2-0.7c0.2-0.2,0.4-0.3,0.7-0.3
		h4.9c0.3,0,0.5,0.1,0.7,0.3c0.2,0.2,0.2,0.4,0.2,0.7C70,34.5,70,35.2,70,35.2z"/>
	<polygon class="st0" points="26,37.5 23,38 23,43.5 31,41.5 31,30.5 26,32.5 	"/>
	<polygon class="st0" points="17,39.1 15,39.5 15,27.5 30,23.5 25,19.5 10,23.5 10,41.5 15,45.5 17,45 	"/>
	<polygon class="st1" points="17,28.5 17,46.5 23,50.5 38,46.5 33,42.5 23,45.2 23,32.5 	"/>
</g>
</svg>
