<?xml version="1.0" encoding="utf-8"?>
<!-- Generator: Adobe Illustrator 17.0.0, SVG Export Plug-In . SVG Version: 6.00 Build 0)  -->
<!DOCTYPE svg PUBLIC "-//W3C//DTD SVG 1.1//EN" "http://www.w3.org/Graphics/SVG/1.1/DTD/svg11.dtd">
<svg version="1.1" id="Layer_1" xmlns="http://www.w3.org/2000/svg" xmlns:xlink="http://www.w3.org/1999/xlink" x="0px" y="0px"
	 width="180px" height="70px" viewBox="0 0 180 70" enable-background="new 0 0 180 70" xml:space="preserve">
<g id="LightningBox">
	<path id="Path_195_" fill="#FFFF00" d="M145.965,24.736h1.004v2.663c0,0.788-0.306,1.154-1.004,1.154v2.481
		c1.619,0,4.035,0,4.035,0V21.89h-4.035V24.736z"/>
	<path id="Path_194_" fill="#FFFF00" d="M145.965,13.509v2.735c0.023-0.001,0.044-0.005,0.068-0.005
		c0.698,0,0.987,0.442,0.987,1.212v2.357H150v-2.53C150,14.393,148.093,13.509,145.965,13.509z"/>
	<path id="Path_193_" fill="#FFFF00" d="M145.539,28.453c-0.475-0.263-0.476-0.977-0.476-1.303v-9.506
		c0-0.363,0.078-0.978,0.476-1.257v-2.86c-2.11,0.168-3.608,1.612-3.608,4.425v8.891c0,2.327,0.63,4.192,2.877,4.192
		c0.177,0,0.431,0,0.731,0V28.453z"/>
	<polygon id="Path_192_" fill="#FFFF00" points="137.924,13.759 137.89,22.816 135.37,13.759 131.949,13.759 131.949,24.941 
		134.979,24.941 134.979,21.534 135.013,21.534 137.549,31.034 140.954,31.034 140.954,13.759 	"/>
	<rect id="Path_191_" x="131.949" y="25.366" fill="#FFFF00" width="3.03" height="5.668"/>
	<path id="Path_190_" fill="#FFFF00" d="M127.712,13.759h3.132v17.275h-3.132V13.759z"/>
	<polygon id="Path_189_" fill="#FFFF00" points="123.747,13.759 123.713,22.816 121.193,13.759 117.772,13.759 117.772,24.941 
		120.802,24.941 120.802,21.534 120.836,21.534 123.372,31.034 126.777,31.034 126.777,13.759 	"/>
	<rect id="Path_188_" x="117.772" y="25.366" fill="#FFFF00" width="3.03" height="5.668"/>
	<rect id="Path_187_" x="111.558" y="17.145" fill="#FFFF00" width="3.132" height="13.889"/>
	<rect id="Path_186_" x="109.258" y="13.759" fill="#FFFF00" width="7.732" height="2.961"/>
	<polygon id="Path_185_" fill="#FFFF00" points="105.275,13.759 105.275,20.737 103.897,20.737 103.897,23.813 105.275,23.813 
		105.275,31.034 108.407,31.034 108.407,13.759 	"/>
	<rect id="Path_184_" x="100.338" y="13.759" fill="#FFFF00" width="3.132" height="17.275"/>
	<path id="Path_183_" fill="#FFFF00" d="M95.318,24.736h1.004v2.663c0,0.788-0.306,1.154-1.004,1.154v2.481c1.619,0,4.035,0,4.035,0
		V21.89h-4.035V24.736z"/>
	<path id="Path_182_" fill="#FFFF00" d="M95.318,13.509v2.735c0.023-0.001,0.044-0.005,0.068-0.005c0.698,0,0.987,0.442,0.987,1.212
		v2.357h2.979v-2.53C99.353,14.393,97.446,13.509,95.318,13.509z"/>
	<path id="Path_181_" fill="#FFFF00" d="M94.892,28.453c-0.475-0.263-0.476-0.977-0.476-1.303v-9.506
		c0-0.363,0.078-0.978,0.476-1.257v-2.86c-2.11,0.168-3.608,1.612-3.608,4.425v8.891c0,2.327,0.63,4.192,2.877,4.192
		c0.177,0,0.431,0,0.731,0V28.453z"/>
	<path id="Path_180_" fill="#FFFF00" d="M87.201,13.759h3.132v17.275h-3.132V13.759z"/>
	<polygon id="Path_179_" fill="#FFFF00" points="79.541,28.072 79.541,31.034 86.078,31.034 86.078,28.072 82.674,28.072 	"/>
	<rect id="Path_178_" x="79.541" y="13.759" fill="#FFFF00" width="3.132" height="13.888"/>
	<polygon id="Path_177_" fill="#FFFF00" points="142.483,45.943 150,33.353 142.35,33.353 138.62,39.541 	"/>
	<polygon id="Path_176_" fill="#FFFF00" points="150,60 133.917,33.353 126.267,33.353 134.282,46.76 126.267,60 134.071,60 
		138.148,53.228 142.196,60 	"/>
	<path id="Path_175_" fill="#FFFF00" d="M122.713,33.353h-8.483v4.474h2.836c0.332,0,0.601,0.268,0.601,0.599v16.5
		c0,0.331-0.269,0.599-0.601,0.599h-2.836V60h8.483c0.908,0,1.644-0.733,1.644-1.637V34.991
		C124.357,34.086,123.621,33.353,122.713,33.353z"/>
	<path id="Path_174_" fill="#FFFF00" d="M113.39,55.526h-2.836c-0.332,0-0.601-0.268-0.601-0.599v-16.5
		c0-0.331,0.269-0.599,0.601-0.599h2.836v-4.474h-8.483c-0.908,0-1.644,0.733-1.644,1.637v23.372c0,0.904,0.736,1.637,1.644,1.637
		h8.483V55.526z"/>
	<path id="Path_173_" fill="#FFFF00" d="M99.16,48.194c-0.761-1.121-1.95-1.911-3.564-2.372c1.063-0.436,1.87-1.03,2.422-1.781
		c0.828-1.127,1.242-2.478,1.242-4.053c0-1.878-0.58-3.454-1.74-4.726c-1.16-1.272-2.824-1.909-4.991-1.909h-5.154v5.399h2.226
		c1.052,0,1.791,0.218,2.215,0.654c0.424,0.436,0.636,1.042,0.636,1.818c0,0.836-0.212,1.475-0.636,1.917
		c-0.424,0.443-1.178,0.663-2.261,0.663h-2.18v5.071h2.686c1.216,0,2.067,0.239,2.553,0.718c0.486,0.479,0.728,1.112,0.728,1.899
		c0,0.848-0.245,1.524-0.736,2.027c-0.491,0.503-1.334,0.754-2.53,0.754h-2.701V60h4.142c0.511,0,1.548-0.121,3.112-0.364
		c1.175-0.182,2.054-0.473,2.637-0.873c0.94-0.642,1.681-1.515,2.223-2.617c0.541-1.103,0.812-2.345,0.812-3.726
		C100.302,50.724,99.921,49.315,99.16,48.194z"/>
	<polygon id="Path_172_" fill="#FFFF00" points="86.534,54.274 86.534,48.876 86.534,43.805 86.534,38.752 86.534,33.353 
		79.528,33.353 79.528,60 86.534,60 	"/>
	<polygon id="Path_171_" fill="#FFFF00" points="79.541,10 53.278,10 40.201,30.702 45.845,30.702 36.186,44.378 40.798,44.378 
		30,59.999 55.449,42.216 47.201,42.216 62.707,29.31 55.069,29.31 	"/>
</g>
</svg>
