<?xml version="1.0" encoding="utf-8"?>
<!-- Generator: Adobe Illustrator 17.0.0, SVG Export Plug-In . SVG Version: 6.00 Build 0)  -->
<!DOCTYPE svg PUBLIC "-//W3C//DTD SVG 1.1//EN" "http://www.w3.org/Graphics/SVG/1.1/DTD/svg11.dtd">
<svg version="1.1" id="Layer_1" xmlns="http://www.w3.org/2000/svg" xmlns:xlink="http://www.w3.org/1999/xlink" x="0px" y="0px"
	 width="180px" height="70px" viewBox="0 0 180 70" enable-background="new 0 0 180 70" xml:space="preserve">
<g id="Nextgen">
	<polygon id="Path_204_" fill="#EEEEEE" points="146.04,47.124 146.04,22.911 152.254,22.911 163.757,37.804 163.757,22.911 
		170,22.911 170,47.124 163.757,47.124 152.254,32.472 152.276,47.124 	"/>
	<polygon id="Path_203_" fill="#EEEEEE" points="141.478,28.373 134.213,28.383 134.213,32.396 141.119,32.386 141.119,37.672 
		134.213,37.682 134.213,41.823 141.478,41.811 141.478,47.124 127.984,47.124 127.984,22.911 141.478,22.911 	"/>
	<path id="Path_202_" fill="#EEEEEE" d="M112.287,33.548h12.308c0,2.239-0.15,4.355-0.68,6.058c-1.714,5.5-6.537,8.069-11.867,8.069
		c-8.804,0-12.587-6.696-12.587-12.686s3.754-12.662,12.587-12.662s11.236,6.638,11.236,6.638l-5.914,2.462
		c0,0-1.063-3.686-5.321-3.686s-6.064,3.943-6.064,7.429c0,1.809,0.758,7.092,6.064,7.092s5.301-3.862,5.301-3.862h-5.062V33.548z"
		/>
	<polygon id="Path_201_" fill="#EEEEEE" points="92.8,28.302 92.8,47.124 86.594,47.124 86.594,28.302 81.557,28.302 81.557,22.911 
		97.854,22.911 97.854,28.302 	"/>
	<polygon id="Path_200_" fill="#EEEEEE" points="56.362,22.911 62.747,32.487 66.418,27.342 64.105,22.911 	"/>
	<polygon id="Path_199_" fill="#EEEEEE" points="72.142,35.549 68.584,40.609 72.558,47.124 80.204,47.124 	"/>
	<polygon id="Path_198_" fill="#FF3333" points="62.069,47.124 54.486,47.124 71.407,22.911 79.149,22.911 	"/>
	<polygon id="Path_197_" fill="#EEEEEE" points="51.843,28.373 44.578,28.383 44.578,32.396 51.485,32.386 51.485,37.672 
		44.578,37.682 44.578,41.823 51.843,41.811 51.843,47.124 38.349,47.124 38.349,22.911 51.843,22.911 	"/>
	<polygon id="Path_196_" fill="#EEEEEE" points="10,47.124 10,22.911 16.213,22.911 27.717,37.804 27.717,22.911 33.96,22.911 
		33.96,47.124 27.717,47.124 16.213,32.472 16.236,47.124 	"/>
</g>
</svg>
