<?xml version="1.0" encoding="utf-8"?>
<!-- Generator: Adobe Illustrator 21.0.0, SVG Export Plug-In . SVG Version: 6.00 Build 0)  -->
<svg version="1.1" id="Layer_1" xmlns="http://www.w3.org/2000/svg" xmlns:xlink="http://www.w3.org/1999/xlink" x="0px" y="0px"
	 viewBox="0 0 180 70" style="enable-background:new 0 0 180 70;" xml:space="preserve">
<style type="text/css">
	.st0{fill:#FF3333;}
</style>
<g id="Spike">
	<path id="s" class="st0" d="M32.8,40.5l2-7c2.3,1,6.8,1.4,9.5,0.7c1.8-0.5,2.3-1.1,2.1-1.7c-0.6-2.3-13.5,4.3-16.2-5.7
		c-1.2-4.3,1.6-9.2,8.6-11.1c4-1.1,8-0.8,11.3,0.3l-1.7,6.7c-1.8-0.8-5-1.4-7.7-0.6c-1.3,0.3-2.1,1.1-2,1.6c0.5,2,13.5-4.1,16.2,5.9
		c1.3,4.8-2.1,9.4-9.2,11.3C41.2,42.2,36,42,32.8,40.5z"/>
	<path id="i_1_" class="st0" d="M88.1,18.5c0-2.6,2.1-4.7,4.7-4.7s4.7,2.1,4.7,4.7c0,2.6-2.1,4.7-4.7,4.7S88.1,21.2,88.1,18.5z
		 M88.6,47.6V24.9h8.4v22.7H88.6z"/>
	<path id="k" class="st0" d="M115.8,47.6l-5.5-10.1v10.1h-8.4V16.3h8.4V33l5.2-8.1h10.2l-7.8,10.3l8.3,12.3H115.8z"/>
	<path id="e_1_" class="st0" d="M125.9,36.2c0-6.6,5-11.9,12.3-11.9c6.7,0,11.8,4.8,11.8,12.8v1.7h-15.4c0.5,1.5,2.1,2.9,4.9,2.9
		c1.3,0,4.1-0.6,5.2-1.6l3.5,5.2c-2.3,1.9-6.3,2.8-9.7,2.8C131.4,48.1,125.9,43.7,125.9,36.2z M138.2,30.8c-2.6,0-3.4,1.7-3.7,2.7
		h7.5C141.7,32.5,140.9,30.8,138.2,30.8z"/>
	<path id="p" class="st0" d="M75.5,24.4c-2.3,0-4.6,0.8-6.4,3v-2.4h-8.4v31.3h8.4v-11c1.9,2.2,4,3,6.4,3c5.6,0,9.9-4.1,9.9-11.9
		C85.5,28.5,81.2,24.4,75.5,24.4z M73.6,40.7c-2.5,0-4.5-2-4.5-4.5c0-2.5,2-4.5,4.5-4.5c2.5,0,4.5,2,4.5,4.5
		C78.1,38.7,76.1,40.7,73.6,40.7z"/>
	
		<rect id="_x2D_" x="35.6" y="42.4" transform="matrix(0.9663 -0.2573 0.2573 0.9663 -10.4203 13.6417)" class="st0" width="22.7" height="8.4"/>
</g>
</svg>
