<?xml version="1.0" encoding="utf-8"?>
<!-- Generator: Adobe Illustrator 17.0.0, SVG Export Plug-In . SVG Version: 6.00 Build 0)  -->
<!DOCTYPE svg PUBLIC "-//W3C//DTD SVG 1.1//EN" "http://www.w3.org/Graphics/SVG/1.1/DTD/svg11.dtd">
<svg version="1.1" id="Layer_1" xmlns="http://www.w3.org/2000/svg" xmlns:xlink="http://www.w3.org/1999/xlink" x="0px" y="0px"
	 width="180px" height="70px" viewBox="0 0 180 70" enable-background="new 0 0 180 70" xml:space="preserve">
<g id="Spinomenal_1_">
	<path id="Path_90_" fill="#EEEEEE" d="M168.385,48.592V31.733H170v16.859H168.385z"/>
	<path id="Path_89_" fill="#EEEEEE" d="M166.636,36.641v11.951h-1.605v-2.021c-0.485,0.803-1.709,2.157-4.559,2.157
		s-5.959-1.956-5.959-6.112s3.177-6.067,5.959-6.067c2.645,0,4.058,1.193,4.559,1.965v-1.874H166.636z M165.044,42.616
		c0-1.753-1.192-4.658-4.534-4.658s-4.556,2.833-4.556,4.658s1.098,4.658,4.556,4.658S165.044,44.369,165.044,42.616z"/>
	<path id="Path_88_" fill="#EEEEEE" d="M152.763,41.662v6.93h-1.615v-6.771c0-1.242-0.352-3.817-3.593-3.817
		c-3.629,0-4.185,2.969-4.185,4.317v6.271h-1.615V36.641h1.546v1.574c0.44-0.727,1.658-1.665,4.549-1.665
		C151.981,36.55,152.763,39.689,152.763,41.662z"/>
	<path id="Path_87_" fill="#EEEEEE" d="M138.345,45.707l0.91,1.045c0,0-1.131,1.977-4.977,1.977c-3.226,0-5.918-2.685-5.918-6.112
		c0-2.363,1.49-6.067,5.918-6.067c4.064,0,5.727,3.285,5.727,6.067v0.587h-10.054c0,1.329,1.52,4.071,4.327,4.071
		C137.286,47.274,138.345,45.707,138.345,45.707z M129.996,41.637h8.493c0-0.546-0.838-3.701-4.21-3.701
		S129.996,40.982,129.996,41.637z"/>
	<path id="Path_86_" fill="#EEEEEE" d="M126.61,41.662v6.93h-1.615v-6.93c0-1.242-0.631-3.658-3.434-3.658s-4.003,2.31-4.003,3.658
		v6.93h-1.615v-6.93c0-1.242-0.87-3.658-3.568-3.658s-3.893,2.31-3.893,3.658v6.93h-1.615V36.641h1.615v1.574
		c0.425-0.727,1.633-1.665,3.893-1.665c3.098,0,3.999,1.76,4.363,2.593c0.44-0.787,1.87-2.593,4.822-2.593
		C125.79,36.55,126.61,39.981,126.61,41.662z"/>
	<path id="Path_85_" fill="#EEEEEE" d="M92.95,42.616c0-2.873,1.97-6.067,6.096-6.067s6.073,3.113,6.073,6.067
		c0,2.953-1.925,6.112-6.073,6.112S92.95,45.489,92.95,42.616z M103.481,42.616c0-2.144-1.271-4.658-4.436-4.658
		c-3.164,0-4.458,2.578-4.458,4.658c0,2.079,1.371,4.658,4.458,4.658S103.481,44.761,103.481,42.616z"/>
	<path id="Path_84_" fill="#EEEEEE" d="M91.2,41.662v6.93h-1.616v-6.771c0-1.242-0.352-3.817-3.593-3.817
		c-3.629,0-4.185,2.969-4.185,4.317v6.271h-1.615V36.641h1.546v1.574c0.44-0.727,1.658-1.665,4.549-1.665
		C90.418,36.55,91.2,39.689,91.2,41.662z"/>
	<path id="Path_83_" fill="#EEEEEE" d="M76.443,32.869c0-0.58,0.487-1.136,1.182-1.136s1.183,0.538,1.183,1.113
		c0,0.576-0.484,1.182-1.183,1.182S76.443,33.449,76.443,32.869z M76.807,36.641h1.615v11.951h-1.615V36.641z"/>
	<path id="Path_82_" fill="#EEEEEE" d="M75.04,42.616c0,4.228-3.265,6.112-5.959,6.112s-4.049-1.613-4.549-2.386V53h-1.615V36.641
		h1.546v2.363c0.485-0.787,1.816-2.454,4.618-2.454S75.04,38.389,75.04,42.616z M73.425,42.616c0-1.698-1.112-4.658-4.458-4.658
		c-3.345,0-4.459,2.888-4.459,4.658s1.079,4.658,4.459,4.658C72.347,47.274,73.425,44.315,73.425,42.616z"/>
	<path id="Path_81_" fill="#EEEEEE" d="M49.959,43.895c0,2.135,1.906,3.172,4.189,3.172h0.816c1.505,0,4.411-0.842,4.411-3.318
		c0-2.398-1.166-2.831-4.771-2.831c-2.498,0-6.565-0.675-6.565-4.652c0-3.987,4.383-4.545,6.11-4.545h0.816
		c4.603,0,6.204,2.532,6.204,4.673h-1.921c0-1.543-1.43-2.989-4.283-2.989h-0.816c-1.7,0-4.189,0.622-4.189,2.861
		c0,1.992,1.349,2.812,4.644,2.812c3.605,0,6.565,0.607,6.565,4.671c0,4.078-4.283,5.002-6.204,5.002h-0.816
		c-4.287,0-6.11-2.089-6.11-4.856H49.959z"/>
	<g id="Path_80_">
		<path fill="#0099FF" d="M36.375,30.017H20.013v-2.892h16.362c4.446,0,7.66,2.664,7.66,2.664S42.103,17,27.963,17H10v18
			c0,3.156,2.509,4.983,7.547,4.983h16.362v2.892H17.547c-4.446,0-7.547-2.664-7.547-2.664S11.819,53,25.959,53h18.077V35
			C44.035,31.733,41.413,30.017,36.375,30.017z"/>
	</g>
</g>
</svg>
