<?xml version="1.0" encoding="utf-8"?>
<!-- Generator: Adobe Illustrator 17.0.0, SVG Export Plug-In . SVG Version: 6.00 Build 0)  -->
<!DOCTYPE svg PUBLIC "-//W3C//DTD SVG 1.1//EN" "http://www.w3.org/Graphics/SVG/1.1/DTD/svg11.dtd">
<svg version="1.1" id="Layer_1" xmlns="http://www.w3.org/2000/svg" xmlns:xlink="http://www.w3.org/1999/xlink" x="0px" y="0px"
	 width="180px" height="70px" viewBox="0 0 180 70" enable-background="new 0 0 180 70" xml:space="preserve">
<g id="Yggdrasil">
	<path id="_x3C_Path_x3E__6_" fill="#EEEEEE" d="M57.792,42.213v-5.922l-5.575-8.547h3.514l3.601,5.813l3.557-5.813h3.514
		l-5.532,8.547v5.922H57.792z"/>
	<path id="_x3C_Path_x3E__5_" fill="#EEEEEE" d="M66.187,34.989c0-4.576,3.471-7.484,7.701-7.484c3.015,0,4.902,1.518,5.987,3.233
		l-2.56,1.388c-0.651-1.02-1.887-1.888-3.427-1.888c-2.625,0-4.534,2.018-4.534,4.75c0,2.733,1.909,4.75,4.534,4.75
		c1.28,0,2.494-0.564,3.08-1.106v-1.736h-1.494v-2.69h4.574v5.553c-1.475,1.649-3.536,2.733-6.16,2.733
		C69.657,42.495,66.187,39.544,66.187,34.989z"/>
	<path id="_x3C_Path_x3E__4_" fill="#EEEEEE" d="M81.804,34.989c0-4.576,3.471-7.484,7.701-7.484c3.015,0,4.902,1.518,5.987,3.233
		l-2.56,1.388c-0.651-1.02-1.887-1.888-3.427-1.888c-2.625,0-4.534,2.018-4.534,4.75c0,2.733,1.909,4.75,4.534,4.75
		c1.28,0,2.494-0.564,3.08-1.106v-1.736h-1.494v-2.69h4.574v5.553c-1.475,1.649-3.536,2.733-6.16,2.733
		C85.275,42.495,81.804,39.544,81.804,34.989z"/>
	<path id="_x3C_Path_x3E__3_" fill="#EEEEEE" d="M98.116,42.213V27.744h4.93c4.533,0,7.679,2.885,7.679,7.245
		s-3.146,7.224-7.679,7.224H98.116z M107.58,34.989c0-2.559-1.562-4.533-4.533-4.533h-1.85v9.045h1.85
		C105.91,39.501,107.58,37.44,107.58,34.989z"/>
	<path id="_x3C_Path_x3E__2_" fill="#EEEEEE" d="M140.573,40.174l1.67-2.343c1.019,1.063,2.603,1.953,4.598,1.953
		c1.692,0,2.516-0.781,2.516-1.605c0-2.559-8.33-0.803-8.33-6.247c0-2.408,2.083-4.404,5.488-4.404c2.299,0,4.209,0.695,5.64,2.018
		l-1.714,2.255c-1.171-1.084-2.733-1.583-4.209-1.583c-1.323,0-2.06,0.586-2.06,1.453c0,2.3,8.308,0.76,8.308,6.161
		c0,2.646-1.887,4.642-5.791,4.642C143.914,42.473,141.918,41.54,140.573,40.174z"/>
	<path id="_x3C_Path_x3E__1_" fill="#EEEEEE" d="M154.564,42.213V27.744h3.081v14.468H154.564z"/>
	<path id="_x3C_Path_x3E_" fill="#EEEEEE" d="M160.506,42.213V27.744h3.081v11.757h6.117v2.711H160.506z"/>
	<path fill="#EEEEEE" d="M121.375,36.703c1.562-0.368,3.167-1.735,3.167-4.295c0-2.69-1.844-4.663-4.859-4.663h-6.768v14.468h3.081
		V30.456h3.232c1.236,0,2.169,0.738,2.169,1.952c0,1.215-0.933,1.953-2.169,1.953h-1.956v2.711h0.98l2.842,5.141h3.535
		L121.375,36.703z"/>
	<polygon fill="#EEEEEE" points="134.781,27.744 130.92,27.744 125.324,42.213 128.837,42.213 132.851,30.824 135.107,37.05 
		131.971,37.05 131.062,39.761 135.952,39.761 136.841,42.213 140.356,42.213 	"/>
	<path fill="#FF9900" d="M30,43.465l-5.275-6.361c-1.355,0.846-2.607,1.59-4.091,2.219L28,47.999v6.863C28,54.952,29.207,55,30,55
		s2-0.048,2-0.138v-6.863l7.366-8.676c-1.484-0.63-2.823-1.373-4.177-2.219L30,43.465z"/>
	<path fill="#FF9900" d="M42.821,34.407c1.905-1.754,4.203-3.084,6.745-3.838c-0.339-1.564-0.858-3.061-1.537-4.467
		c-3.393,1.036-6.501,2.901-9.08,5.492c-0.203,0.204-0.4,0.411-0.594,0.621c-1.631-1.015-3.157-2.226-4.547-3.624
		c-0.01-0.01-0.02-0.021-0.031-0.032c4.408-0.766,8.468-2.872,11.696-6.117c0.052-0.052,0.102-0.105,0.153-0.157
		c-0.983-1.231-2.106-2.343-3.346-3.312c-1.869,1.918-4.178,3.402-6.761,4.284c1.011-2.214,1.746-4.551,2.19-6.966
		c-1.434-0.602-2.953-1.04-4.534-1.293c-0.511,3.085-1.586,6.023-3.174,8.691c-1.588-2.668-2.663-5.607-3.174-8.691
		c-1.581,0.253-3.1,0.692-4.534,1.293c0.444,2.415,1.179,4.752,2.19,6.966c-2.583-0.882-4.892-2.366-6.761-4.284
		c-1.24,0.969-2.363,2.081-3.346,3.312c0.051,0.052,0.101,0.105,0.152,0.157c3.228,3.244,7.288,5.35,11.696,6.117
		c-0.01,0.01-0.02,0.021-0.031,0.032c-1.39,1.397-2.917,2.608-4.547,3.624c-0.194-0.21-0.391-0.417-0.594-0.621
		c-2.578-2.591-5.687-4.456-9.08-5.492c-0.678,1.405-1.197,2.902-1.537,4.467c2.541,0.754,4.839,2.083,6.745,3.838
		c-2.284,0.847-4.697,1.355-7.179,1.501c0.081,1.615,0.353,3.178,0.792,4.671c7.072-0.537,13.649-3.562,18.716-8.655
		c0.166-0.167,0.33-0.336,0.492-0.507c0.162,0.171,0.326,0.34,0.492,0.507c5.067,5.093,11.644,8.118,18.716,8.655
		c0.438-1.492,0.71-3.056,0.792-4.671C47.518,35.762,45.105,35.254,42.821,34.407z"/>
</g>
</svg>
