<?xml version="1.0" encoding="utf-8"?>
<!-- Generator: Adobe Illustrator 21.0.0, SVG Export Plug-In . SVG Version: 6.00 Build 0)  -->
<svg version="1.1" id="Слой_1" xmlns="http://www.w3.org/2000/svg" xmlns:xlink="http://www.w3.org/1999/xlink" x="0px" y="0px"
	 width="30px" height="30px" viewBox="0 0 30 30" style="enable-background:new 0 0 30 30;" xml:space="preserve">
<style type="text/css">
	.st0{fill-rule:evenodd;clip-rule:evenodd;fill:#242229;}
	.st1{fill-rule:evenodd;clip-rule:evenodd;fill:#FF0066;}
	.st2{fill-rule:evenodd;clip-rule:evenodd;fill:#FFFFFF;}
</style>
<g id="Close_x5F_Hover">
	<path id="Shadow" class="st0" d="M3,24l5,6l7-7l7,5l6-7v-4l-7-1l7-7V5L2,9v4l6,5l-5,2V24z"/>
	<path id="Close" class="st1" d="M3,20l5,6l7-7l7,5l6-7l-7-5l7-7l-8-5l-6,7L9,2L2,9l6,5L3,20z"/>
	<path id="Light" class="st2" d="M10.8,5.8L8.4,4.6l-5.1,5.5l1.8,1.5L10.8,5.8z M22.4,3.7l-2.3-1.2L15,8.1l1.8,1.5L22.4,3.7z
		 M10.8,17.5l-1.2-2l-5.7,6.1l1.8,1.5L10.8,17.5z"/>
</g>
</svg>
