<?xml version="1.0" encoding="utf-8"?>
<!-- Generator: Adobe Illustrator 21.0.0, SVG Export Plug-In . SVG Version: 6.00 Build 0)  -->
<svg version="1.1" id="Слой_1" xmlns="http://www.w3.org/2000/svg" xmlns:xlink="http://www.w3.org/1999/xlink" x="0px" y="0px"
	 width="114px" height="84px" viewBox="0 0 114 84" style="enable-background:new 0 0 114 84;" xml:space="preserve">
<style type="text/css">
	.st0{fill:#242229;}
	.st1{fill:#E0E0E0;}
	.st2{fill:#33CC00;}
</style>
<g id="LiveChat">
	<path id="Shadow" class="st0" d="M78,73c0,0-54,0-54,0C13,73,3,62.9,3,51.5c0-9.9,7-18.6,16.7-20.6c1.1-0.2,1.9-1.3,1.8-2.4
		c0-0.4-0.1-0.9-0.1-1.3c0-8.5,6.9-15.3,15.3-15.3c5.1,0,9.9,2.6,12.7,6.9c0.4,0.6,1,0.9,1.7,0.9c0.8,0,1.5-0.5,1.8-1.3
		C56.1,10.3,63.8,5,72.5,5c11.6,0,21,9.4,21,21c0,0.7,0,1.5-0.1,2.3c-0.1,1.2,0.7,2.2,1.9,2.4c10.2,1.5,17.8,10.5,17.8,20.8
		c0,11.6-8.4,21.5-20,21.5l-4,0l1,11L78,73z"/>
	<path id="Obl" class="st1" d="M75,68H21C10,68,0,57.9,0,46.5c0-9.9,7-18.6,16.7-20.6c1.1-0.2,1.9-1.3,1.8-2.4
		c0-0.4-0.1-0.9-0.1-1.3c0-8.5,6.9-15.3,15.3-15.3c5.1,0,9.9,2.6,12.7,6.9c0.4,0.6,1,0.9,1.7,0.9c0.8,0,1.5-0.5,1.8-1.3
		C53.1,5.3,60.8,0,69.5,0c11.6,0,21,9.4,21,21c0,0.7,0,1.5-0.1,2.3c-0.1,1.2,0.7,2.2,1.9,2.4c10.2,1.5,17.8,10.5,17.8,20.8
		c0,11.6-8.4,21.5-20,21.5l-4,0l1,11L75,68z"/>
	<circle id="Circle" class="st2" cx="70" cy="15" r="8"/>
	<path id="Text" class="st0" d="M33.5,30.5c0-0.1,0-0.2-0.1-0.3C33.3,30,33.2,30,33.1,30h-3.4c-0.1,0-0.2,0-0.3,0.1
		c-0.1,0.1-0.1,0.2-0.1,0.3v11.1c0,0.1,0,0.2,0.1,0.3c0.1,0.1,0.2,0.1,0.3,0.1h9.2c0.1,0,0.2,0,0.3-0.1c0.1-0.1,0.1-0.2,0.1-0.3
		v-2.6c0-0.1,0-0.2-0.1-0.3c-0.1-0.1-0.2-0.1-0.3-0.1h-5.4V30.5z M52.5,33.4c0.1-0.1,0.1-0.2,0.1-0.3v-2.6c0-0.1,0-0.2-0.1-0.3
		C52.4,30,52.3,30,52.2,30h-10c-0.1,0-0.2,0-0.3,0.1c-0.1,0.1-0.1,0.2-0.1,0.3v2.6c0,0.1,0,0.2,0.1,0.3c0.1,0.1,0.2,0.1,0.3,0.1h2.9
		v5h-2.9c-0.1,0-0.2,0-0.3,0.1c-0.1,0.1-0.1,0.2-0.1,0.3v2.6c0,0.1,0,0.2,0.1,0.3C42,42,42.1,42,42.2,42h10c0.1,0,0.2,0,0.3-0.1
		c0.1-0.1,0.1-0.2,0.1-0.3v-2.6c0-0.1,0-0.2-0.1-0.3c-0.1-0.1-0.2-0.1-0.3-0.1h-2.9v-5h2.9C52.3,33.5,52.4,33.5,52.5,33.4z
		 M62.5,30.6l-1.8,6.6l-1.8-6.6c0-0.1-0.1-0.3-0.2-0.4c-0.1-0.1-0.3-0.2-0.5-0.2h-3.3c-0.1,0-0.2,0-0.2,0.1
		c-0.1,0.1-0.1,0.1-0.1,0.2s0,0.1,0,0.2l3.7,11c0.1,0.3,0.3,0.5,0.7,0.5h3.7c0.4,0,0.6-0.2,0.7-0.6l3.6-10.9c0,0,0-0.1,0-0.2
		s0-0.1-0.1-0.2C66.7,30,66.6,30,66.5,30h-3.3C62.8,30,62.6,30.2,62.5,30.6L62.5,30.6z M72.9,37.6h5.3c0.1,0,0.2,0,0.3-0.1
		c0.1-0.1,0.1-0.2,0.1-0.3v-2.2c0-0.1,0-0.2-0.1-0.3c-0.1-0.1-0.2-0.1-0.3-0.1h-5.3v-1.1h6.2c0.1,0,0.2,0,0.3-0.1
		c0.1-0.1,0.1-0.2,0.1-0.3v-2.4c0-0.1,0-0.2-0.1-0.3C79.3,30,79.2,30,79.1,30h-9.8c-0.1,0-0.2,0-0.3,0.1c-0.1,0.1-0.1,0.2-0.1,0.3
		v11.1c0,0.1,0,0.2,0.1,0.3C69,42,69.1,42,69.2,42h10c0.1,0,0.2,0,0.3-0.1c0.1-0.1,0.1-0.2,0.1-0.3v-2.4c0-0.1,0-0.2-0.1-0.3
		c-0.1-0.1-0.2-0.1-0.3-0.1h-6.3V37.6z M32.7,47.7c0.3-0.2,0.7-0.4,1.1-0.4c0.5,0,0.8,0.1,1,0.2c0.2,0.2,0.4,0.4,0.5,0.7
		c0.1,0.3,0.3,0.4,0.6,0.4h3.4c0.1,0,0.2,0,0.2-0.1c0.1-0.1,0.1-0.2,0.1-0.3c0-1-0.5-2-1.4-2.9c-0.5-0.4-1.1-0.8-1.9-1
		c-0.8-0.3-1.6-0.4-2.6-0.4c-2.4,0-4.1,0.7-5.1,2.2C28.3,46.9,28,47.9,28,49v2c0,1.1,0.3,2.1,0.8,2.8c0.5,0.8,1.2,1.3,2.1,1.7
		c0.9,0.3,1.8,0.5,2.9,0.5c1,0,2-0.1,2.7-0.4c0.8-0.3,1.4-0.6,1.9-1c0.9-0.9,1.4-1.8,1.4-2.9c0-0.1,0-0.2-0.1-0.3
		c-0.1-0.1-0.2-0.1-0.2-0.1H36c-0.2,0-0.4,0.1-0.6,0.4c-0.1,0.3-0.3,0.5-0.5,0.7c-0.2,0.2-0.6,0.2-1,0.2c-0.5,0-0.8-0.1-1.1-0.4
		c-0.3-0.2-0.4-0.6-0.4-1v-2.6C32.3,48.3,32.4,47.9,32.7,47.7z M48.9,44.2c-0.1,0.1-0.1,0.2-0.1,0.3V48h-3.2v-3.5
		c0-0.1,0-0.2-0.1-0.3c-0.1-0.1-0.2-0.1-0.3-0.1h-3.3c-0.1,0-0.2,0-0.3,0.1c-0.1,0.1-0.1,0.2-0.1,0.3v11c0,0.1,0,0.2,0.1,0.3
		c0.1,0.1,0.2,0.1,0.3,0.1h3.3c0.1,0,0.2,0,0.3-0.1c0.1-0.1,0.1-0.2,0.1-0.3v-3.6h3.2v3.6c0,0.1,0,0.2,0.1,0.3
		c0.1,0.1,0.2,0.1,0.3,0.1h3.3c0.1,0,0.2,0,0.3-0.1c0.1-0.1,0.1-0.2,0.1-0.3v-11c0-0.1,0-0.2-0.1-0.3c-0.1-0.1-0.2-0.1-0.3-0.1h-3.3
		C49.1,44,49,44.1,48.9,44.2z M58.4,55.4l0.4-1.2h3.9l0.4,1.2c0.1,0.4,0.4,0.6,0.7,0.6h3c0.1,0,0.2,0,0.2-0.1
		c0.1-0.1,0.1-0.1,0.1-0.2s0-0.1,0-0.2l-3.5-10.9c-0.1-0.4-0.3-0.6-0.7-0.6h-4.4c-0.4,0-0.6,0.2-0.7,0.6l-3.5,10.9c0,0,0,0.1,0,0.2
		s0,0.1,0.1,0.2c0.1,0.1,0.2,0.1,0.2,0.1h3C58,56,58.2,55.8,58.4,55.4L58.4,55.4z M59.6,50.9l1.1-3.6l1.1,3.6H59.6z M68.3,44.2
		c-0.1,0.1-0.1,0.2-0.1,0.3v2.8c0,0.1,0,0.2,0.1,0.3c0.1,0.1,0.2,0.1,0.3,0.1h3.4v7.8c0,0.1,0,0.2,0.1,0.3c0.1,0.1,0.2,0.1,0.3,0.1
		h3.3c0.1,0,0.2,0,0.3-0.1c0.1-0.1,0.1-0.2,0.1-0.3v-7.8h3.4c0.1,0,0.2,0,0.3-0.1c0.1-0.1,0.1-0.2,0.1-0.3v-2.8c0-0.1,0-0.2-0.1-0.3
		c-0.1-0.1-0.2-0.1-0.3-0.1H68.6C68.5,44,68.4,44.1,68.3,44.2z"/>
</g>
</svg>
