<?xml version="1.0" encoding="utf-8"?>
<!-- Generator: Adobe Illustrator 22.1.0, SVG Export Plug-In . SVG Version: 6.00 Build 0)  -->
<svg version="1.1" id="Слой_1" xmlns="http://www.w3.org/2000/svg" xmlns:xlink="http://www.w3.org/1999/xlink" x="0px" y="0px"
	 width="40px" height="40px" viewBox="0 0 40 40" style="enable-background:new 0 0 40 40;" xml:space="preserve">
<style type="text/css">
	.st0{fill:#242229;}
	.st1{fill:#FFCC00;}
	.st2{fill:#FFFFFF;}
</style>
<g>
	<path class="st0" d="M36.3,7.8c-0.8-0.5-1.7-0.8-2.8-0.8c-2.9,0-5.3,2.4-5.3,5.3c0,0.1,0,0.2,0,0.2l-2.7,1.1l-1.7-3.4
		c1-1,1.5-2.3,1.5-3.8c0-0.7-0.1-1.4-0.4-2c-0.2-0.6-1.6-2.6-2.1-3C22.1,0.5,20.8,0,19.4,0c-2.9,0-5.3,2.4-5.3,5.3
		c0,2.7,0.9,3.5,1.3,4.1l-2.2,4.3l-2.5-1c-0.1-0.3-0.2-0.6-0.3-0.9C10.2,9.1,8,7.1,5.3,7.1C2.4,7.1,0,9.4,0,12.3c0,0.3,0,1.1,0,1.4
		c0,2.7,2,4.9,4.5,5.4l1.7,12c0.3,2.6,2.6,4.6,5.2,4.6h16.9c2.6,0,4.9-1.9,5.4-4.6l1.7-12c2.6-0.4,4.5-2.7,4.5-5.4
		c0-0.7-0.1-1.3-0.3-1.9C39.3,10.9,37,8.3,36.3,7.8z"/>
	<path class="st1" d="M33.5,8.8c-2,0-3.5,1.6-3.5,3.5c0,0.5,0.1,0.9,0.3,1.3l-5.6,2.2L21,8.4c1.2-0.6,2-1.8,2-3.1
		c0-2-1.6-3.5-3.5-3.5c-2,0-3.5,1.6-3.5,3.5c0,1.4,0.8,2.6,2,3.1l-3.7,7.4l-5.6-2.2c0.2-0.4,0.3-0.8,0.3-1.3c0-2-1.6-3.5-3.5-3.5
		s-3.5,1.6-3.5,3.5c0,2,1.6,3.5,3.5,3.5c0.2,0,0.4,0,0.6-0.1L7.8,29c0.2,1.8,1.8,3,3.4,3h16.4c1.8,0,3.2-1.2,3.5-3l1.9-13.2
		c0.2,0,0.4,0.1,0.6,0.1c2,0,3.5-1.6,3.5-3.5C37.1,10.4,35.5,8.8,33.5,8.8z"/>
	<path class="st2" d="M4.1,14.8c-0.9-0.4-1.6-1.3-1.6-2.4c0-1.5,1.2-2.7,2.7-2.7c1.1,0,2,0.6,2.4,1.6C7.3,11.1,7,11,6.6,11
		c-1.5,0-2.7,1.2-2.7,2.7C3.9,14.1,4,14.5,4.1,14.8z M18.2,6.5c0-1.5,1.2-2.7,2.7-2.7c0.4,0,0.8,0.1,1.1,0.2
		c-0.4-0.9-1.3-1.6-2.4-1.6c-1.5,0-2.7,1.2-2.7,2.7c0,1.1,0.6,2,1.6,2.4C18.3,7.3,18.2,6.9,18.2,6.5z M32.2,13.7
		c0-1.5,1.2-2.7,2.7-2.7c0.4,0,0.8,0.1,1.1,0.2c-0.4-0.9-1.3-1.6-2.4-1.6c-1.5,0-2.7,1.2-2.7,2.7c0,1.1,0.6,2,1.6,2.4
		C32.3,14.5,32.2,14.1,32.2,13.7z"/>
</g>
</svg>
