<?xml version="1.0" encoding="utf-8"?>
<!-- Generator: Adobe Illustrator 21.0.0, SVG Export Plug-In . SVG Version: 6.00 Build 0)  -->
<svg version="1.1" id="flags" xmlns="http://www.w3.org/2000/svg" xmlns:xlink="http://www.w3.org/1999/xlink" x="0px" y="0px"
	 viewBox="0 0 30 30" enable-background="new 0 0 30 30" xml:space="preserve">
<g id="flag_x5F_romania">
	<path fill="#FFCC00" d="M20.2,0.9C18.6,0.3,16.8,0,15,0c-1.8,0-3.6,0.3-5.2,0.9L8.5,15l1.3,14.1c1.6,0.6,3.4,0.9,5.2,0.9
		c1.8,0,3.6-0.3,5.2-0.9L21.5,15L20.2,0.9z"/>
	<path fill="#CC3333" d="M30,15c0-6.4-4.1-11.9-9.8-14.1v28.1C25.9,26.9,30,21.4,30,15z"/>
	<path fill="#0066CC" d="M0,15c0,6.4,4.1,11.9,9.8,14.1l0-28.1C4.1,3.1,0,8.6,0,15z"/>
</g>
</svg>
