<?xml version="1.0" encoding="utf-8"?>
<!-- Generator: Adobe Illustrator 21.0.0, SVG Export Plug-In . SVG Version: 6.00 Build 0)  -->
<svg version="1.1" id="flags" xmlns="http://www.w3.org/2000/svg" xmlns:xlink="http://www.w3.org/1999/xlink" x="0px" y="0px"
	 viewBox="0 0 30 30" enable-background="new 0 0 30 30" xml:space="preserve">
<g id="flag_x5F_china">
	<circle fill="#CC3333" cx="15" cy="15" r="15"/>
	<g>
		<polygon fill="#FFCC00" points="8.2,9.1 9.5,13.1 13.7,13.1 10.3,15.6 11.6,19.6 8.2,17.1 4.8,19.6 6.1,15.6 2.7,13.1 6.9,13.1 		
			"/>
		<polygon fill="#FFCC00" points="17.8,23.2 16.8,22 15.3,22.6 16.2,21.3 15.2,20 16.7,20.4 17.6,19.1 17.6,20.7 19.2,21.1 
			17.7,21.7 		"/>
		<polygon fill="#FFCC00" points="19.8,19.7 20.2,18.2 18.9,17.2 20.5,17.2 21,15.7 21.5,17.2 23.1,17.2 21.8,18.1 22.3,19.6 
			21,18.7 		"/>
		<polygon fill="#FFCC00" points="22.4,11 21.7,12.4 22.8,13.5 21.3,13.3 20.6,14.7 20.3,13.2 18.8,12.9 20.2,12.2 19.9,10.6 
			21,11.7 		"/>
		<polygon fill="#FFCC00" points="17.8,6.7 17.7,8.3 19.2,8.9 17.6,9.3 17.5,10.8 16.7,9.5 15.2,9.9 16.2,8.7 15.4,7.3 16.8,7.9 		
			"/>
	</g>
</g>
</svg>
