<?xml version="1.0" encoding="utf-8"?>
<!-- Generator: Adobe Illustrator 21.0.0, SVG Export Plug-In . SVG Version: 6.00 Build 0)  -->
<svg version="1.1" id="flags" xmlns="http://www.w3.org/2000/svg" xmlns:xlink="http://www.w3.org/1999/xlink" x="0px" y="0px"
	 viewBox="0 0 30 30" enable-background="new 0 0 30 30" xml:space="preserve">
<g id="flag_x5F_turkey">
	<circle fill="#CC3333" cx="15" cy="15" r="15"/>
	<polygon fill="#FFFFFF" points="14.4,12.3 15.6,14 17.6,13.3 16.4,15 17.6,16.7 15.6,16 14.4,17.7 14.4,15.6 12.4,15 14.4,14.4 	
		"/>
	<path fill="#FFFFFF" d="M11,19.2c-2.3,0-4.2-1.9-4.2-4.2s1.9-4.2,4.2-4.2c0.7,0,1.4,0.2,2,0.5c-0.9-0.9-2.2-1.5-3.6-1.5
		c-2.9,0-5.2,2.3-5.2,5.2s2.3,5.2,5.2,5.2c1.4,0,2.7-0.6,3.6-1.5C12.4,19.1,11.8,19.2,11,19.2z"/>
</g>
</svg>
