<?xml version="1.0" encoding="utf-8"?>
<!-- Generator: Adobe Illustrator 21.0.0, SVG Export Plug-In . SVG Version: 6.00 Build 0)  -->
<svg version="1.1" id="Слой_1" xmlns="http://www.w3.org/2000/svg" xmlns:xlink="http://www.w3.org/1999/xlink" x="0px" y="0px"
	 viewBox="0 0 240 240" style="enable-background:new 0 0 240 240;" xml:space="preserve">
<style type="text/css">
	.st0{opacity:0.3;enable-background:new    ;}
	.st1{fill:#FFFFFF;}
	.st2{fill:#E4EAEF;}
	.st3{fill:#FF6510;}
	.st4{fill:#FF3300;}
	.st5{display:none;fill:#FF6510;}
	.st6{fill:#FFB000;}
	.st7{fill:#FFD550;}
	.st8{fill:#B22222;}
	.st9{fill:#933B16;}
	.st10{fill:#663300;}
	.st11{fill:#AD4F2D;}

</style>
<g id="candy">
	<path class="st0" d="M44.5,28.4c-28.3,28.3-28.3,74.2,0,102.6c25.1,25.1,64.1,27.9,92.3,8.5l77.9,97.2c2,2.4,5.4,3,8,1.6
		c0.3-0.2,0.6-0.4,0.9-0.6c2.7-2.2,3.2-6.1,1-8.9l-78-97.4c0.2-0.2,0.3-0.3,0.5-0.5c28.3-28.3,28.3-74.2,0-102.6
		C118.7,0.1,72.8,0.1,44.5,28.4z"/>
	<g id="XMLID_77_">
		<path id="XMLID_78_" class="st1" d="M208.5,237c-2.6,1.5-6,0.9-8-1.6l-88.9-111c-2.2-2.7-1.7-6.7,1-8.9c2.7-2.2,6.7-1.7,8.9,1
			l88.9,111c2.2,2.7,1.7,6.7-1,8.9C209.1,236.7,208.8,236.9,208.5,237z"/>
	</g>
	<path id="XMLID_643_" class="st2" d="M203.8,232.2l-88.9-111c-1.5-1.9-1.7-4.4-0.8-6.4c-0.5,0.2-1,0.5-1.5,0.8
		c-2.7,2.2-3.2,6.1-1,8.9l88.9,111c2,2.4,5.4,3,8,1.6c0.3-0.2,0.6-0.4,0.9-0.6c0.8-0.7,1.4-1.5,1.8-2.4
		C208.7,235.1,205.6,234.5,203.8,232.2z"/>
	
		<ellipse id="XMLID_75_" transform="matrix(0.7071 -0.7071 0.7071 0.7071 -30.6698 78.7996)" class="st3" cx="79.8" cy="76.4" rx="72.5" ry="72.5"/>
	<path class="st4" d="M149.1,55.2c0.2,18.8-6.9,37.7-21.2,52c-28.3,28.3-74.2,28.3-102.5,0c-8.7-8.7-14.7-19-18-30
		c0.2,18.3,7.3,36.5,21.2,50.5c28.3,28.3,74.2,28.3,102.5,0C150.7,108.1,156.7,80,149.1,55.2z"/>
	<path id="XMLID_74_" class="st5" d="M127.4,111.3c-28.3,28.3-74.2,28.3-102.6,0c-7.9-7.9-13.6-17.2-17.1-27.1
		c1.7,15.9,8.6,31.3,20.8,43.4c28.3,28.3,74.2,28.3,102.6,0c20.4-20.4,26.1-50,17.1-75.5C150.5,73.3,143.5,95.2,127.4,111.3z"/>
	<g id="XMLID_56_">
		
			<ellipse id="XMLID_66_" transform="matrix(0.7071 -0.7071 0.7071 0.7071 11.5885 101.8248)" class="st4" cx="128.7" cy="36.9" rx="6.3" ry="6.3"/>
		
			<ellipse id="XMLID_64_" transform="matrix(0.7071 -0.7071 0.7071 0.7071 12.4076 99.9541)" class="st6" cx="126.9" cy="35" rx="6.3" ry="6.3"/>
		
			<ellipse id="XMLID_57_" transform="matrix(0.7071 -0.7071 0.7071 0.7071 13.1787 99.4068)" class="st7" cx="126.6" cy="33.8" rx="3.2" ry="3.2"/>
	</g>
	<g id="XMLID_18_">
		
			<ellipse id="XMLID_26_" transform="matrix(0.7071 -0.7071 0.7071 0.7071 -63.9566 99.9471)" class="st3" cx="88.7" cy="127.2" rx="8" ry="8"/>
		
			<ellipse id="XMLID_25_" transform="matrix(0.7071 -0.7071 0.7071 0.7071 -63.0478 97.6178)" class="st6" cx="86.3" cy="124.9" rx="8" ry="8"/>
		
			<ellipse id="XMLID_23_" transform="matrix(0.7071 -0.7071 0.7071 0.7071 -61.9962 96.8881)" class="st7" cx="86" cy="123.3" rx="4" ry="4"/>
	</g>
	<g id="XMLID_83_">
		
			<ellipse id="XMLID_91_" transform="matrix(0.7071 -0.7071 0.7071 0.7071 -15.4513 36.3063)" class="st4" cx="36.1" cy="36.8" rx="6.1" ry="6.1"/>
		
			<ellipse id="XMLID_90_" transform="matrix(0.7071 -0.7071 0.7071 0.7071 -14.7273 34.5064)" class="st8" cx="34.3" cy="35" rx="6.1" ry="6.1"/>
		
			<ellipse id="XMLID_88_" transform="matrix(0.7071 -0.7071 0.7071 0.7071 -13.9125 33.9717)" class="st6" cx="34.1" cy="33.8" rx="3" ry="3"/>
	</g>
	<g id="XMLID_8_">
		
			<ellipse id="XMLID_12_" transform="matrix(0.7071 -0.7071 0.7071 0.7071 -12.588 119.8547)" class="st4" cx="138.4" cy="75.1" rx="6.1" ry="6.1"/>
		
			<ellipse id="XMLID_11_" transform="matrix(0.7071 -0.7071 0.7071 0.7071 -11.8933 118.1255)" class="st8" cx="136.6" cy="73.4" rx="6.1" ry="6.1"/>
		
			<ellipse id="XMLID_9_" transform="matrix(0.7071 -0.7071 0.7071 0.7071 -11.0786 117.5908)" class="st6" cx="136.4" cy="72.2" rx="3" ry="3"/>
	</g>
	<g id="XMLID_13_">
		
			<ellipse id="XMLID_17_" transform="matrix(0.7071 -0.7071 0.7071 0.7071 -72.1066 76.8372)" class="st3" cx="56.7" cy="125.5" rx="6.1" ry="6.1"/>
		
			<ellipse id="XMLID_16_" transform="matrix(0.7071 -0.7071 0.7071 0.7071 -71.3826 75.0372)" class="st8" cx="54.9" cy="123.7" rx="6.1" ry="6.1"/>
	</g>
	<g id="XMLID_37_">
		
			<ellipse id="XMLID_44_" transform="matrix(0.7071 -0.7071 0.7071 0.7071 -40.7841 118.1826)" class="st3" cx="122.3" cy="108.3" rx="10.3" ry="10.3"/>
		
			<ellipse id="XMLID_42_" transform="matrix(0.7071 -0.7071 0.7071 0.7071 -39.5208 115.1826)" class="st9" cx="119.3" cy="105.3" rx="10.3" ry="10.3"/>
		<path id="XMLID_50_" class="st10" d="M124.9,108.9c-4,4-10.6,4-14.6,0c-0.4-0.4-0.8-0.9-1.1-1.3c0.4,1.9,1.3,3.7,2.8,5.1
			c4,4,10.6,4,14.6,0c3.6-3.6,4-9.2,1.1-13.3C128.4,102.7,127.5,106.3,124.9,108.9z"/>
		
			<ellipse id="XMLID_41_" transform="matrix(0.7071 -0.7071 0.7071 0.7071 -38.2574 114.2569)" class="st11" cx="118.8" cy="103.3" rx="5.2" ry="5.2"/>
	</g>
	<g id="XMLID_1_">
		
			<ellipse id="XMLID_7_" transform="matrix(0.9369 -0.3497 0.3497 0.9369 -32.8647 16.7773)" class="st3" cx="30" cy="99.4" rx="13.7" ry="13.7"/>
		
			<ellipse id="XMLID_6_" transform="matrix(0.9369 -0.3497 0.3497 0.9369 -30.6084 16.3494)" class="st9" cx="30" cy="92.9" rx="13.7" ry="13.7"/>
		<path id="XMLID_5_" class="st10" d="M34.9,100.3c-7.1,2.6-15-1-17.6-8.1c-0.3-0.7-0.5-1.5-0.6-2.2c-0.5,2.5-0.4,5.1,0.5,7.7
			c2.6,7.1,10.6,10.7,17.6,8.1c6.4-2.4,9.9-9,8.7-15.4C42.5,94.7,39.4,98.6,34.9,100.3z"/>
		
			<ellipse id="XMLID_4_" transform="matrix(0.9369 -0.3497 0.3497 0.9369 -29.6185 16.3846)" class="st11" cx="30.6" cy="90.2" rx="6.9" ry="6.9"/>
	</g>
	<path class="st4" d="M122.9,63.3c-2-2.4-5.5-2.7-8.8-2.4c0.6-10.9-3.2-21.3-12.9-28.4c-4.9-3.6-9.9-5.6-14.8-6.3
		c-14.1-2.1-30.7,3.5-41.2,15.2C35.8,51.9,31,61.3,31.4,75.2c0.5,16.6,19.6,35.1,39,33.6c11.9-0.9,20.9-4.9,29.5-16.2
		c0,0,0.1,0,0.1,0.1c3.3,1.4,7.2,2.3,10.5,0.9c3.3-1.4,5.5-5.9,3.3-8.8c2.5-0.1,5-1.3,6.1-3.5c1.1-2.2,0.1-5.4-2.2-6.2
		c2.5-0.6,4.8-2.3,5.9-4.6C124.7,68.2,124.5,65.2,122.9,63.3z M77.3,92.4c-2,1.8-4.5,3.1-7,4c-2.5,0.9-5.1,1.4-7.8,1.3
		c-6.4-0.3-12.4-4.8-14.6-10.8c-3.5-9.8,3.2-19.2,12.1-22.5c7.2-2.7,15.7-1.4,20.5,6.5C84.7,77.6,83.2,87.2,77.3,92.4z M95.4,71.1
		c-0.5,0.6-1.4,1.4-2.3,1.4c-1.5-0.1-2.2-2.6-2.7-3.8c-1.2-3.2,2.2-3,4.2-2.3C96.9,67.2,97,69.4,95.4,71.1z M95.6,64.8
		c-1.3-0.7-3.4-2.8-0.8-3.5c1.6-0.4,4-1.1,4.1,1.3C99,64.6,97.4,65.7,95.6,64.8z M99.9,50.1c-1.5,4.4-8.1,7.8-12.6,7.4
		c-5.6-0.6-11.7-8.2-10.5-13.8c1.1-4.8,4.5-6.7,8.3-6.8c4.5-0.1,9.5,2.2,12.4,5.2C99.5,44.2,100.8,47.3,99.9,50.1z"/>
	<path class="st1" d="M120.3,56.2c-2-2.4-5.5-2.7-8.8-2.4c0.6-10.9-3.2-21.3-12.9-28.4c-4.9-3.6-9.9-5.6-14.8-6.3
		C69.7,17,53.1,22.6,42.6,34.3c-9.4,10.5-14.2,19.9-13.8,33.8c0.5,16.6,19.6,35.1,39,33.6c11.9-0.9,20.9-4.9,29.5-16.2
		c0,0,0.1,0,0.1,0.1c3.3,1.4,7.2,2.3,10.5,0.9c3.3-1.4,5.5-5.9,3.3-8.8c2.5-0.1,5-1.3,6.1-3.5c1.1-2.2,0.1-5.4-2.2-6.2
		c2.5-0.6,4.8-2.3,5.9-4.6C122.1,61.1,121.9,58.1,120.3,56.2z M74.7,85.3c-2,1.8-4.5,3.1-7,4c-2.5,0.9-5.1,1.4-7.8,1.3
		c-6.4-0.3-12.4-4.8-14.6-10.8c-3.5-9.8,3.2-19.2,12.1-22.5c7.2-2.7,15.7-1.4,20.5,6.5C82.1,70.5,80.6,80.1,74.7,85.3z M92.8,64
		c-0.5,0.6-1.4,1.4-2.3,1.4c-1.5-0.1-2.2-2.6-2.7-3.8c-1.2-3.2,2.2-3,4.2-2.3C94.3,60.1,94.4,62.3,92.8,64z M93,57.7
		c-1.3-0.7-3.4-2.8-0.8-3.5c1.6-0.4,4-1.1,4.1,1.3C96.4,57.5,94.8,58.6,93,57.7z M97.3,43c-1.5,4.4-8.1,7.8-12.6,7.4
		c-5.6-0.6-11.7-8.2-10.5-13.8c1.1-4.8,4.5-6.7,8.3-6.8C87,29.7,92,32,94.9,35C96.9,37.1,98.2,40.2,97.3,43z"/>
</g>
</svg>
