<?xml version="1.0" encoding="utf-8"?>
<!-- Generator: Adobe Illustrator 21.0.0, SVG Export Plug-In . SVG Version: 6.00 Build 0)  -->
<svg version="1.1" id="Слой_1" xmlns="http://www.w3.org/2000/svg" xmlns:xlink="http://www.w3.org/1999/xlink" x="0px" y="0px"
	 viewBox="0 0 240 240" style="enable-background:new 0 0 240 240;" xml:space="preserve">
<style type="text/css">
	.st0{opacity:0.35;fill:#220526;}
	.st1{fill:#FFFFFF;}
	.st2{fill:#E4EAEF;}
	.st3{fill:#FF6510;}
	.st4{opacity:0.55;fill:#FF6510;}
	.st5{fill:#FFB000;}
	.st6{opacity:0.55;fill:#FFB000;}
	.st7{fill:#FFD550;}
	.st8{fill:#B22222;}
	.st9{opacity:0.25;fill:#B22222;}
	.st10{fill:#933B16;}
	.st11{opacity:0.35;fill:#933B16;}
	.st12{fill:#AD4F2D;}
	.st13{opacity:0.55;}
	.st14{fill:#AC45AD;}
	.st15{fill:none;stroke:#FF6510;stroke-width:4;stroke-miterlimit:10;}
	.st16{opacity:0.55;fill:#AC45AD;}
	.st17{fill:#95B62B;}
	.st18{fill:#160813;}
	.st19{clip-path:url(#XMLID_7_);}
	.st20{fill:none;stroke:#FBC104;stroke-width:7;stroke-miterlimit:10;}
	.st21{fill:#A0BC48;}
	.st22{fill:none;stroke:#AC45AD;stroke-width:4;stroke-miterlimit:10;}
	.st23{opacity:0.55;fill:#A0BC48;}
</style>
<g id="Candy4">
	<path id="XMLID_81_" class="st0" d="M169.5,185.4c-2.1,1.2-4.7,0.7-6.3-1.2L93.7,97.3c-1.7-2.1-1.4-5.2,0.8-6.9
		c2.1-1.7,5.2-1.4,6.9,0.8l69.5,86.8c1.7,2.1,1.4,5.2-0.8,6.9C170,185.1,169.7,185.2,169.5,185.4z"/>
	<g id="XMLID_77_">
		<path id="XMLID_78_" class="st1" d="M158.5,184.4c-2.1,1.2-4.7,0.7-6.3-1.2L82.7,96.4c-1.7-2.1-1.4-5.2,0.8-6.9
			c2.1-1.7,5.2-1.4,6.9,0.8l69.5,86.8c1.7,2.1,1.4,5.2-0.8,6.9C159,184.1,158.7,184.3,158.5,184.4z"/>
	</g>
	<path id="XMLID_643_" class="st2" d="M154.8,180.6L85.3,93.8c-1.2-1.5-1.4-3.4-0.7-5c-0.4,0.2-0.8,0.4-1.1,0.7
		c-2.1,1.7-2.5,4.8-0.8,6.9l69.5,86.8c1.5,1.9,4.2,2.4,6.3,1.2c0.2-0.1,0.5-0.3,0.7-0.5c0.7-0.5,1.1-1.2,1.4-1.9
		C158.6,182.9,156.2,182.4,154.8,180.6z"/>
	
		<ellipse id="XMLID_76_" transform="matrix(0.7071 -0.7071 0.7071 0.7071 -22.8066 67.6547)" class="st0" cx="70.3" cy="61.4" rx="56.7" ry="56.7"/>
	
		<ellipse id="XMLID_75_" transform="matrix(0.7071 -0.7071 0.7071 0.7071 -24.6597 58.1131)" class="st3" cx="57.8" cy="58.8" rx="56.7" ry="56.7"/>
	<path id="XMLID_74_" class="st4" d="M95,86.1c-22.1,22.1-58.1,22.1-80.2,0C8.6,79.9,4.2,72.7,1.4,64.9c1.3,12.4,6.8,24.5,16.3,34
		c22.1,22.1,58.1,22.1,80.2,0c16-16,20.4-39.1,13.4-59C113.1,56.4,107.6,73.5,95,86.1z"/>
	<g id="XMLID_32_">
		
			<ellipse id="XMLID_34_" transform="matrix(0.7071 -0.7071 0.7071 0.7071 -52.8327 73.2256)" class="st4" cx="62" cy="100.4" rx="6" ry="6"/>
		
			<ellipse id="XMLID_31_" transform="matrix(0.7071 -0.7071 0.7071 0.7071 -52.1081 71.4762)" class="st5" cx="60.2" cy="98.6" rx="6" ry="6"/>
		<path id="XMLID_48_" class="st6" d="M63.4,100.9c-2.3,2.3-6.1,2.3-8.5,0c-0.1-0.1-0.2-0.3-0.4-0.4c0.3,0.9,0.7,1.7,1.4,2.4
			c2.3,2.3,6.1,2.3,8.5,0c2.2-2.2,2.3-5.7,0.4-8C65.5,96.9,65,99.3,63.4,100.9z"/>
		
			<ellipse id="XMLID_33_" transform="matrix(0.7071 -0.7071 0.7071 0.7071 -51.3667 70.94)" class="st7" cx="59.9" cy="97.5" rx="3" ry="3"/>
	</g>
	<g id="XMLID_56_">
		
			<ellipse id="XMLID_66_" transform="matrix(0.7071 -0.7071 0.7071 0.7071 8.4024 76.108)" class="st4" cx="96.1" cy="27.9" rx="5" ry="5"/>
		
			<ellipse id="XMLID_64_" transform="matrix(0.7071 -0.7071 0.7071 0.7071 9.0027 74.6586)" class="st5" cx="94.6" cy="26.5" rx="5" ry="5"/>
		<path id="XMLID_63_" class="st6" d="M97.2,28.3c-1.9,1.9-5.1,1.9-7,0c-0.1-0.1-0.2-0.2-0.3-0.4c0.2,0.7,0.6,1.4,1.2,2
			c1.9,1.9,5.1,1.9,7,0c1.8-1.8,1.9-4.7,0.3-6.6C99,25,98.6,27,97.2,28.3z"/>
		
			<ellipse id="XMLID_57_" transform="matrix(0.7071 -0.7071 0.7071 0.7071 9.617 74.2143)" class="st7" cx="94.4" cy="25.5" rx="2.5" ry="2.5"/>
	</g>
	<g id="XMLID_45_">
		
			<ellipse id="XMLID_55_" transform="matrix(0.7071 -0.7071 0.7071 0.7071 -8.2754 88.3554)" class="st4" cx="102.5" cy="54.2" rx="4.7" ry="4.7"/>
		
			<ellipse id="XMLID_54_" transform="matrix(0.7071 -0.7071 0.7071 0.7071 -7.7007 86.9681)" class="st8" cx="101.1" cy="52.8" rx="4.7" ry="4.7"/>
		<path id="XMLID_52_" class="st9" d="M103.6,54.6c-1.9,1.9-4.9,1.9-6.7,0c-0.1-0.1-0.2-0.2-0.3-0.4c0.2,0.7,0.6,1.4,1.1,1.9
			c1.9,1.9,4.9,1.9,6.7,0c1.7-1.7,1.8-4.5,0.3-6.3C105.3,51.4,104.9,53.3,103.6,54.6z"/>
		
			<ellipse id="XMLID_47_" transform="matrix(0.7071 -0.7071 0.7071 0.7071 -7.1127 86.5428)" class="st8" cx="100.9" cy="51.9" rx="2.4" ry="2.4"/>
	</g>
	<g id="XMLID_67_">
		
			<ellipse id="XMLID_71_" transform="matrix(0.7071 -0.7071 0.7071 0.7071 -58.9663 61.594)" class="st4" cx="44.9" cy="102" rx="4.7" ry="4.7"/>
		
			<ellipse id="XMLID_70_" transform="matrix(0.7071 -0.7071 0.7071 0.7071 -58.3916 60.2067)" class="st8" cx="43.5" cy="100.6" rx="4.7" ry="4.7"/>
		<path id="XMLID_69_" class="st9" d="M46,102.4c-1.9,1.9-4.9,1.9-6.7,0c-0.1-0.1-0.2-0.2-0.3-0.4c0.2,0.7,0.6,1.4,1.1,1.9
			c1.9,1.9,4.9,1.9,6.7,0c1.7-1.7,1.8-4.5,0.3-6.3C47.6,99.2,47.3,101.1,46,102.4z"/>
		
			<ellipse id="XMLID_68_" transform="matrix(0.7071 -0.7071 0.7071 0.7071 -57.8036 59.7814)" class="st8" cx="43.3" cy="99.7" rx="2.4" ry="2.4"/>
	</g>
	<g id="XMLID_83_">
		
			<ellipse id="XMLID_91_" transform="matrix(0.7071 -0.7071 0.7071 0.7071 -13.6347 25.9824)" class="st4" cx="24.5" cy="29.4" rx="4.7" ry="4.7"/>
		
			<ellipse id="XMLID_90_" transform="matrix(0.7071 -0.7071 0.7071 0.7071 -13.0601 24.5951)" class="st8" cx="23.2" cy="28.1" rx="4.7" ry="4.7"/>
		<path id="XMLID_89_" class="st9" d="M25.7,29.9c-1.9,1.9-4.9,1.9-6.7,0c-0.1-0.1-0.2-0.2-0.3-0.4c0.2,0.7,0.6,1.4,1.1,1.9
			c1.9,1.9,4.9,1.9,6.7,0c1.7-1.7,1.8-4.5,0.3-6.3C27.3,26.7,27,28.6,25.7,29.9z"/>
		
			<ellipse id="XMLID_88_" transform="matrix(0.7071 -0.7071 0.7071 0.7071 -12.472 24.1698)" class="st8" cx="22.9" cy="27.1" rx="2.4" ry="2.4"/>
	</g>
	<g id="XMLID_37_">
		
			<ellipse id="XMLID_44_" transform="matrix(0.7071 -0.7071 0.7071 0.7071 -32.5787 88.9224)" class="st4" cx="91" cy="83.8" rx="8.1" ry="8.1"/>
		
			<ellipse id="XMLID_42_" transform="matrix(0.7071 -0.7071 0.7071 0.7071 -31.5988 86.5569)" class="st10" cx="88.7" cy="81.4" rx="8.1" ry="8.1"/>
		<path id="XMLID_50_" class="st11" d="M93.1,84.2c-3.2,3.2-8.3,3.2-11.4,0c-0.3-0.3-0.6-0.7-0.9-1.1c0.3,1.5,1,2.9,2.2,4
			c3.2,3.2,8.3,3.2,11.4,0c2.8-2.8,3.1-7.2,0.9-10.4C95.8,79.4,95.1,82.2,93.1,84.2z"/>
		
			<ellipse id="XMLID_41_" transform="matrix(0.7071 -0.7071 0.7071 0.7071 -30.5962 85.8317)" class="st12" cx="88.3" cy="79.8" rx="4" ry="4"/>
	</g>
	<g id="XMLID_73_">
		
			<ellipse id="XMLID_87_" transform="matrix(0.7071 -0.7071 0.7071 0.7071 -46.3391 37.781)" class="st4" cx="22.4" cy="74.8" rx="11" ry="11"/>
		
			<ellipse id="XMLID_85_" transform="matrix(0.7071 -0.7071 0.7071 0.7071 -45.0006 34.5497)" class="st10" cx="19.2" cy="71.6" rx="11" ry="11"/>
		<path id="XMLID_84_" class="st11" d="M25.2,75.4c-4.3,4.3-11.3,4.3-15.6,0c-0.4-0.4-0.8-0.9-1.2-1.4c0.4,2,1.4,3.9,3,5.5
			c4.3,4.3,11.3,4.3,15.6,0c3.9-3.9,4.3-9.9,1.2-14.2C29,68.8,28,72.6,25.2,75.4z"/>
		
			<ellipse id="XMLID_82_" transform="matrix(0.7071 -0.7071 0.7071 0.7071 -43.6311 33.5592)" class="st12" cx="18.7" cy="69.4" rx="5.5" ry="5.5"/>
	</g>
	<g id="XMLID_1_" class="st13">
		<g>
			<path class="st3" d="M86.2,44.7c0.5-8.5-2.5-16.7-10.1-22.2c-3.8-2.8-7.7-4.3-11.6-4.9c-11-1.6-24,2.7-32.3,11.9
				C25,37.7,21.2,45.1,21.5,56c0.4,13,15.3,27.4,30.5,26.3c9.3-0.7,16.4-3.9,23.1-12.6c0,0,0.1,0,0.1,0c2.6,1.1,5.6,1.8,8.2,0.7
				c2.6-1.1,4.3-4.6,2.6-6.9c1.9-0.1,3.9-1,4.8-2.7c0.9-1.7,0.1-4.2-1.7-4.8c1.9-0.5,3.7-1.8,4.6-3.6c0.9-1.8,0.7-4.1-0.6-5.7
				C91.5,44.7,88.8,44.5,86.2,44.7z M57.1,31.3c0.8-3.7,3.5-5.2,6.5-5.3c3.4-0.1,7.4,1.7,9.6,4c1.6,1.7,2.6,4.1,1.9,6.3
				c-1.2,3.4-6.3,6.1-9.9,5.8C60.9,41.6,56.1,35.7,57.1,31.3z M57.4,69.4c-1.6,1.4-3.5,2.4-5.5,3.1c-2,0.7-4,1.1-6.1,1
				c-5-0.2-9.7-3.7-11.4-8.5C31.8,57.4,37,50,44,47.4c5.7-2.1,12.3-1.1,16,5.1C63.2,57.8,62.1,65.3,57.4,69.4z"/>
		</g>
	</g>
	<g id="XMLID_146_">
		<path class="st1" d="M82.6,41.1c0.5-8.5-2.5-16.7-10.1-22.2c-3.8-2.8-7.7-4.3-11.6-4.9c-11-1.6-24,2.7-32.3,11.9
			c-7.3,8.2-11.1,15.6-10.8,26.4c0.4,13,15.3,27.4,30.5,26.3C57.7,78,64.8,74.8,71.5,66c0,0,0.1,0,0.1,0c2.6,1.1,5.6,1.8,8.2,0.7
			c2.6-1.1,4.3-4.6,2.6-6.9c1.9-0.1,3.9-1,4.8-2.7s0.1-4.2-1.7-4.8c1.9-0.5,3.7-1.8,4.6-3.6c0.9-1.8,0.7-4.1-0.6-5.7
			C87.9,41.1,85.2,40.9,82.6,41.1z M53.5,27.7c0.8-3.7,3.5-5.2,6.5-5.3c3.4-0.1,7.4,1.7,9.6,4c1.6,1.7,2.6,4.1,1.9,6.3
			c-1.2,3.4-6.3,6.1-9.9,5.8C57.3,38,52.5,32.1,53.5,27.7z M53.8,65.8c-1.6,1.4-3.5,2.4-5.5,3.1c-2,0.7-4,1.1-6.1,1
			c-5-0.2-9.7-3.7-11.4-8.5c-2.7-7.6,2.5-15,9.5-17.6c5.7-2.1,12.3-1.1,16,5.1C59.6,54.2,58.5,61.7,53.8,65.8z"/>
	</g>
	<g id="XMLID_115_">
		<path class="st3" d="M67.3,45.4c-1.6-0.5-4.2-0.7-3.3,1.8c0.4,0.9,0.9,2.9,2.1,3c0.7,0,1.4-0.6,1.8-1.1
			C69.2,47.8,69.2,46.1,67.3,45.4z"/>
	</g>
	<g id="XMLID_113_">
		<path class="st3" d="M68.1,44.2c-1-0.5-2.7-2.2-0.6-2.7c1.3-0.3,3.1-0.8,3.2,1C70.8,44,69.5,44.9,68.1,44.2z"/>
	</g>
</g>
<g id="Candy3">
	<path id="XMLID_355_" class="st0" d="M211.9,50.2c0.9-2.7,0.2-6.2-2.3-7.6c-1.2-0.6-2.7-0.7-4-0.6c-3.8,0.4-7.4,2.4-9.8,5.3
		c0.3-2.5,0.2-5.1-0.3-7.6c-0.4-1.8-1-3.7-2.7-4.6c-10.8-5.4-12.7,9.2-12.1,21c-8.9,0.8-17.3,5.6-22.2,13.9L146.4,90
		c-5.2,8.7-5.3,19.1-1,27.6c-11.1,4.9-25.5,14.1-14.9,21.6c1.5,1.1,3.5,0.7,5.3,0.2c2.4-0.7,4.8-1.9,6.9-3.3
		c-1.5,3.5-1.5,7.6-0.1,11.2c0.5,1.3,1.3,2.5,2.4,3.3c2.4,1.6,5.8,0.6,7.8-1.5c2-2.1,2.9-5,3.7-7.7c-1.3,4.3,3.1,11.4,7.1,12.9
		c5.3,2.1,7.1-8.9,5.3-20.8c10.6,0.9,21.2-4.2,27-13.9l11.9-19.9c5.5-9.2,5.3-20.1,0.4-28.8c10.2-4.1,17.5-10.2,13.5-13.6
		c-3.3-2.8-11.6-3.3-14.7-0.1C208.9,55,211,52.9,211.9,50.2z"/>
	<g>
		<path class="st14" d="M156.7,119.9l-11.7-7c-8.4,2.1-37.4,14.8-23.6,24.6c1.5,1.1,3.5,0.7,5.3,0.2c2.4-0.7,4.8-1.8,6.9-3.3
			c-1.5,3.5-1.5,7.6-0.1,11.1c0.5,1.3,1.3,2.5,2.4,3.3c2.4,1.6,5.8,0.6,7.8-1.5c2-2.1,2.9-4.9,3.7-7.7c-1.3,4.3,3,11.4,7,13
			C161.4,155.5,162.3,134.8,156.7,119.9z"/>
	</g>
	<g class="st13">
		<path class="st14" d="M143.1,117.2c-5.5,3.2-10.5,7.2-14.8,11.8c4.9-2.2,9.7-4.4,14.6-6.6c-1.8,5.4-3.1,11-3.8,16.6
			c2.6-3.9,5.5-7.6,8.7-11.1c1.6,4.4,3.5,8.6,5.7,12.8c0.9-5.1,1.5-10.2,1.9-15.4L143.1,117.2z"/>
	</g>
	<path id="XMLID_347_" class="st15" d="M136.3,115.8c0,0,6.2,15.1,23.4,16.1"/>
	<g>
		<path class="st14" d="M214.8,55.1c-3.2-2.9-11.4-3.8-14.7-0.8c2.1-1.9,4.3-4,5.4-6.7c1-2.7,0.5-6.2-2-7.7c-1.2-0.7-2.6-0.8-4-0.8
			c-3.8,0.2-7.5,2-10,4.9c0.4-2.5,0.4-5.1,0-7.6c-0.3-1.8-0.9-3.8-2.5-4.7c-14.8-8.2-13.8,23.4-12.1,31.9l11.4,7.6
			C202.1,69.9,220.3,60.2,214.8,55.1z"/>
	</g>
	<g class="st13">
		<path class="st14" d="M189.6,59.8c1.8-4.3,3.9-8.6,6.3-12.6c-4.8,3.1-9.3,6.6-13.3,10.6c-0.1-5.3-0.2-10.7-0.3-16
			c-2.3,5.9-3.8,12.1-4.3,18.4l12.6,7.6c4.5-2.6,8.8-5.4,13.1-8.4C198.9,59.2,194.2,59.3,189.6,59.8z"/>
	</g>
	<path id="XMLID_243_" class="st15" d="M173.7,54.6c0,0,16.3-0.9,24.6,14.2"/>
	<path id="XMLID_239_" class="st14" d="M198.7,98.1l-12,19.9c-8.2,13.6-25.8,18-39.4,9.8l0,0c-13.6-8.2-18-25.8-9.8-39.4l12-19.9
		c8.2-13.6,25.8-18,39.4-9.8l0,0C202.5,66.9,206.9,84.5,198.7,98.1z"/>
	<path id="XMLID_238_" class="st16" d="M194.3,91.5l-12,19.9c-8.2,13.6-25.8,18-39.4,9.8l0,0c-2.6-1.5-4.8-3.4-6.7-5.5
		c2.3,4.8,6.1,9.1,11,12.1l0,0c13.6,8.2,31.2,3.8,39.4-9.8l12-19.9c6.6-11,5-24.8-3.2-33.9C199.7,72.6,199.5,82.9,194.3,91.5z"/>
	<g id="XMLID_235_">
		<path class="st14" d="M168.9,58.5c-4,0.6-7.9,2.1-11.2,4.5c-3.8,2.8-6.3,6.9-8.8,10.8c-5.3,8.3-15.3,24.9-13.5,26
			c1.1,0.7,6.8-9.5,16.8-21.6c3-3.6,6.4-6.9,10-9.8c1.9-1.6,4-2.8,6-4.2c2.6-1.9,9.3-4.8,7.9-5.4C174.3,58,170.8,58.2,168.9,58.5z"
			/>
	</g>
	<g id="XMLID_127_" class="st13">
		<g>
			<path class="st14" d="M170.4,115.7c1.1,0.7,1.9,0.6,2.9-0.2c1.5-1.2,1.5-3.4,0-6.5c2.4,4.1,4.6,4.6,5.6,3.9
				c1-0.7,2.1-2.3-0.7-6.6c3.4,4,5.6,2.8,6.1,1.1c0.4-1.7-0.3-3.6-1.2-5.1c0,0,0,0,0-0.1c4.9-5,6.2-9.8,5.7-15.7
				c-0.7-9.7-11.2-17.6-19.4-16.6c-6.9,0.8-11.1,3.9-15.6,9.3c-5,6-6.5,14.6-4.4,21.3c0.7,2.4,2.1,4.7,4.2,6.8
				c4.2,4.2,9.6,5.3,14.9,4.2C168.7,113.2,169.1,114.8,170.4,115.7z M164.9,98.6c0.6,2.2-0.6,5.7-2.7,6.7c-1.3,0.7-2.9,0.3-4.1-0.6
				c-1.7-1.2-3.2-3.5-3.5-5.6c-0.2-1.9,0.4-3.7,2.7-4.6C160.1,93.5,164.2,95.9,164.9,98.6z M171,94.3c-4.2-1.8-5.5-5.8-4.7-9.6
				c0.9-4.6,5.1-8.6,10.1-7.6c3.1,0.6,5.8,3.2,6.4,6.4c0.3,1.3,0.2,2.6-0.1,3.9c-0.3,1.3-0.7,2.6-1.4,3.7
				C179.2,94.4,174.6,95.9,171,94.3z"/>
		</g>
	</g>
	<g id="XMLID_106_">
		<path class="st1" d="M168.4,115.4c1.1,0.7,1.9,0.6,2.9-0.2c1.5-1.2,1.5-3.4,0-6.5c2.4,4.1,4.6,4.6,5.6,3.9c1-0.7,2.1-2.3-0.7-6.6
			c3.4,4,5.6,2.8,6.1,1.1c0.4-1.7-0.3-3.6-1.2-5.1c0,0,0,0,0-0.1c4.9-5,6.2-9.8,5.7-15.7c-0.7-9.7-11.2-17.6-19.4-16.6
			c-6.9,0.8-11.1,3.9-15.6,9.3c-5,6-6.5,14.6-4.4,21.3c0.7,2.4,2.1,4.7,4.2,6.8c4.2,4.2,9.6,5.3,14.9,4.2
			C166.6,112.9,167,114.6,168.4,115.4z M162.9,98.4c0.6,2.2-0.6,5.7-2.7,6.7c-1.3,0.7-2.9,0.3-4.1-0.6c-1.7-1.2-3.2-3.5-3.5-5.6
			c-0.2-1.9,0.4-3.7,2.7-4.6C158,93.3,162.2,95.7,162.9,98.4z M168.9,94.1c-4.2-1.8-5.5-5.8-4.7-9.6c0.9-4.6,5.1-8.6,10.1-7.6
			c3.1,0.6,5.8,3.2,6.4,6.4c0.3,1.3,0.2,2.6-0.1,3.9c-0.3,1.3-0.7,2.6-1.4,3.7C177.1,94.2,172.5,95.6,168.9,94.1z"/>
	</g>
</g>
<g id="Candy2_1_">
	<path id="XMLID_372_" class="st0" d="M39.6,123.6c0.8-2.4,2.5-4.5,4.9-5.7c4.9-2.5,10.9-0.6,13.4,4.3c2.7,5.2,8.3,16,14.9,16.7
		c3.3,0.4,7.8-1.9,12.2-4.1l0.4-0.2c5.3-2.7,17.7-8.9,30.1-3.4c8.3,3.7,12.8,11.3,16.5,17.4c5.7,9.5,6.8,9.7,10.3,8.8
		c1.9-0.5,4.3-2,6.9-3.7c3.9-2.6,8.8-5.8,15-6.8c18.2-2.9,26.1,11.2,31.3,20.4c4.6,8.3,6.8,11,10.1,11c3.1,0,6.3-1.5,8.2-4
		c3.5-4.3,9.7-4.9,14-1.5c4.3,3.5,4.9,9.7,1.5,14c-5.7,7-14.5,11.3-23.5,11.3c-15.7,0.1-22.9-12.7-27.6-21.1
		c-5.6-9.9-7.3-11.1-10.9-10.5c-1.9,0.3-4.5,2-7.1,3.7c-3.7,2.4-7.8,5.2-13.2,6.4c-18.5,4.4-26.9-9.6-31.9-18
		c-2.5-4.1-5-8.3-7.6-9.5c-3.3-1.5-8.7,0.8-13.1,3l-0.4,0.2c-6.3,3.2-14.1,7.1-23.3,6.1c-17.3-1.9-26.2-19.1-30.5-27.4
		C38.9,128.7,38.8,126,39.6,123.6z"/>
	<g id="XMLID_227_">
		<path id="XMLID_368_" class="st3" d="M42.1,115.7c0.8-2.4,2.5-4.5,4.9-5.7c4.9-2.5,10.9-0.6,13.4,4.3c2.7,5.2,8.3,16,14.9,16.7
			c3.3,0.4,7.8-1.9,12.2-4.1l0.4-0.2c5.3-2.7,17.7-8.9,30.1-3.4c8.3,3.7,12.8,11.3,16.5,17.4c5.7,9.5,6.8,9.7,10.3,8.8
			c1.9-0.5,4.3-2,6.9-3.7c3.9-2.6,8.8-5.8,15-6.8c18.2-2.9,26.1,11.2,31.3,20.4c4.6,8.3,6.8,11,10.1,11c3.1,0,6.3-1.5,8.2-4
			c3.5-4.3,9.7-4.9,14-1.5c4.3,3.5,4.9,9.7,1.5,14c-5.7,7-14.5,11.3-23.5,11.3c-15.7,0.1-22.9-12.7-27.6-21.1
			c-5.6-9.9-7.3-11.1-10.9-10.5c-2,0.3-4.5,2-7.1,3.7c-3.7,2.4-7.8,5.2-13.2,6.4c-18.5,4.4-26.9-9.6-31.9-18c-2.5-4.1-5-8.3-7.6-9.5
			c-3.3-1.5-8.7,0.8-13.1,3l-0.4,0.2c-6.3,3.2-14.1,7.1-23.3,6.1C56,148.8,47,131.6,42.7,123.3C41.5,120.9,41.3,118.1,42.1,115.7z"
			/>
	</g>
	<g id="XMLID_350_">
		
			<ellipse id="XMLID_356_" transform="matrix(0.9647 -0.2632 0.2632 0.9647 -40.3001 66.1132)" class="st17" cx="226.6" cy="183.5" rx="6.6" ry="6.6"/>
		
			<ellipse id="XMLID_354_" transform="matrix(0.9648 -0.2632 0.2632 0.9648 -40.2998 66.1125)" class="st18" cx="226.6" cy="183.5" rx="3.3" ry="3.3"/>
		
			<ellipse id="XMLID_353_" transform="matrix(0.9648 -0.2631 0.2631 0.9648 -39.3652 66.4563)" class="st1" cx="228.4" cy="180.2" rx="2" ry="2"/>
	</g>
	<g id="XMLID_314_">
		<defs>
			<path id="XMLID_369_" d="M42.1,115.7c0.8-2.4,2.5-4.5,4.9-5.7c4.9-2.5,10.9-0.6,13.4,4.3c2.7,5.2,8.3,16,14.9,16.7
				c3.3,0.4,7.8-1.9,12.2-4.1l0.4-0.2c5.3-2.7,17.7-8.9,30.1-3.4c8.3,3.7,12.8,11.3,16.5,17.4c5.7,9.5,6.8,9.7,10.3,8.8
				c1.9-0.5,4.3-2,6.9-3.7c3.9-2.6,8.8-5.8,15-6.8c18.2-2.9,26.1,11.2,31.3,20.4c4.6,8.3,6.8,11,10.1,11c3.1,0,6.3-1.5,8.2-4
				c3.5-4.3,9.7-4.9,14-1.5c4.3,3.5,4.9,9.7,1.5,14c-5.7,7-14.5,11.3-23.5,11.3c-15.7,0.1-22.9-12.7-27.6-21.1
				c-5.6-9.9-7.3-11.1-10.9-10.5c-2,0.3-4.5,2-7.1,3.7c-3.7,2.4-7.8,5.2-13.2,6.4c-18.5,4.4-26.9-9.6-31.9-18
				c-2.5-4.1-5-8.3-7.6-9.5c-3.3-1.5-8.7,0.8-13.1,3l-0.4,0.2c-6.3,3.2-14.1,7.1-23.3,6.1C56,148.8,47,131.6,42.7,123.3
				C41.5,120.9,41.3,118.1,42.1,115.7z"/>
		</defs>
		<clipPath id="XMLID_7_">
			<use xlink:href="#XMLID_369_"  style="overflow:visible;"/>
		</clipPath>
		<g id="XMLID_367_" class="st19">
			<path id="XMLID_349_" class="st20" d="M206.4,161.5c-1.4,5-2.9,10.1-5.1,14.8c-2.3,4.7-5.4,9.1-9.7,12.2"/>
			<path id="XMLID_358_" class="st20" d="M188.2,139.6c-1.3,12-9.3,23.2-19.8,27.9"/>
			<path id="XMLID_361_" class="st20" d="M151.1,134c11.8,9,7.9,27.4,3.6,37.1"/>
			<path id="XMLID_362_" class="st20" d="M136.2,134.3c-2.1,12.3-4.7,25.7-15.5,33.4"/>
			<path id="XMLID_363_" class="st20" d="M113.3,115.2c0.2,12.4-4.7,25.1-13.1,34"/>
			<path id="XMLID_364_" class="st20" d="M83.5,121.5c1.8,11.9-2,25.1-9.9,35"/>
			<path id="XMLID_365_" class="st20" d="M66.4,113.5c-3.5,10.6-11.1,19.8-20.9,25.2"/>
		</g>
	</g>
	<path id="XMLID_605_" class="st16" d="M42.4,121c0.8-2.4,2.5-4.5,4.9-5.7c4.9-2.5,10.9-0.6,13.4,4.3c2.7,5.2,8.3,16,14.9,16.7
		c3.3,0.4,7.8-1.9,12.2-4.1l0.4-0.2c5.3-2.7,17.7-8.9,30.1-3.4c8.3,3.7,12.8,11.3,16.5,17.4c5.7,9.5,6.8,9.7,10.3,8.8
		c1.9-0.5,4.3-2,6.9-3.7c3.9-2.6,8.8-5.8,15-6.8c18.2-2.9,26.1,11.2,31.3,20.4c4.6,8.3,6.8,11,10.1,11c3.1,0,6.3-1.5,8.2-4
		c3.5-4.3,9.7-4.9,14-1.5c1.5,1.2,2.6,2.8,3.2,4.6c0.8-3.6-0.4-7.4-3.4-9.9c-4.3-3.5-10.5-2.8-14,1.5c-2,2.4-5.1,3.9-8.2,4
		c-3.4,0-5.5-2.7-10.1-11c-5.2-9.3-13.1-23.3-31.3-20.4c-6.2,1-11.1,4.2-15,6.8c-2.5,1.7-4.9,3.2-6.9,3.7c-3.4,0.8-4.6,0.6-10.3-8.8
		c-3.7-6.1-8.2-13.7-16.5-17.4c-12.3-5.5-24.8,0.7-30.1,3.4l-0.4,0.2c-4.4,2.2-8.9,4.5-12.2,4.1c-6.6-0.7-12.3-11.5-14.9-16.7
		c-2.5-4.9-8.5-6.8-13.4-4.3c-2.4,1.2-4.1,3.4-4.9,5.7c-0.6,2-0.7,4.1,0,6.2C42.2,121.6,42.3,121.3,42.4,121z"/>
	<g id="XMLID_237_">
		
			<ellipse id="XMLID_318_" transform="matrix(0.9647 -0.2632 0.2632 0.9647 -36.3089 63.7012)" class="st17" cx="219.6" cy="167.4" rx="6.6" ry="6.6"/>
		
			<ellipse id="XMLID_317_" transform="matrix(0.9647 -0.2632 0.2632 0.9647 -36.3088 63.701)" class="st18" cx="219.6" cy="167.4" rx="3.3" ry="3.3"/>
		
			<ellipse id="XMLID_253_" transform="matrix(0.9647 -0.2632 0.2632 0.9647 -35.3797 64.0582)" class="st1" cx="221.4" cy="164.1" rx="2" ry="2"/>
	</g>
</g>
<g id="Candy1_1_">
	<path id="XMLID_159_" class="st0" d="M158.1,194.2c3.2-1.4,5.9-4.9,5-8.3c-0.4-1.6-1.5-3-2.8-4.2c-3.5-3.2-8.2-4.9-12.9-4.6
		c2.5-1.8,4.8-4,6.7-6.5c1.3-1.8,2.6-4,2-6.2c-3.9-14.3-18.8-4.1-29.1,6.1c-8-7.5-19.3-11.2-30.8-9l-28,5.4
		c-12.3,2.4-21.8,10.8-26.1,21.6c-13.6-6.2-33.7-11.8-31.9,4c0.3,2.2,2.2,3.8,4.1,5c2.7,1.6,5.6,2.8,8.6,3.6
		c-4.4,1.5-8.2,4.8-10.3,9c-0.7,1.5-1.3,3.2-1,4.9c0.5,3.5,4.2,5.8,7.7,5.9c3.5,0.1,6.9-1.4,10.1-2.9c-5,2.3-7.9,12.1-6.1,17
		c2.4,6.5,13.9-0.8,23.4-12.2c7.8,10.4,21.1,16,34.7,13.4l28-5.4c12.9-2.5,22.7-11.6,26.7-23.2c12,5.9,23.7,7.7,23.5,1.3
		c-0.2-5.3-6.4-13.2-12-13.6C151.2,195.4,154.9,195.6,158.1,194.2z"/>
	<g>
		<path class="st17" d="M46.1,184.3c-8.8-6-44.1-22.1-41.8-1.4c0.2,2.2,2.2,3.8,4.1,5c2.7,1.6,5.6,2.8,8.6,3.6
			c-4.4,1.5-8.2,4.8-10.3,9c-0.7,1.5-1.3,3.2-1,4.9c0.5,3.5,4.2,5.8,7.7,5.9c3.5,0.1,6.9-1.4,10.1-2.9c-5,2.3-7.9,12.1-6.1,17
			c3.2,8.7,22.8-7.3,31.8-24.6L46.1,184.3z"/>
	</g>
	<g class="st13">
		<path class="st21" d="M43.2,203.9l-2.6-17.8c-7.4-2.4-15.1-3.7-22.9-3.9c6,2.6,12,5.3,17.9,7.9c-6.4,2.8-12.5,6.2-18.3,10.1
			c5.7-0.8,11.5-1.1,17.2-1.1c-2.7,5-5.1,10.2-7,15.6C32.9,211.4,38.2,207.8,43.2,203.9z"/>
	</g>
	<path id="XMLID_129_" class="st22" d="M36.3,178.7c0,0-8.7,18,4.4,34.6"/>
	<g>
		<path class="st17" d="M155.1,186.2c3.3-1.3,6.1-4.6,5.4-8.1c-0.3-1.7-1.4-3.1-2.6-4.3c-3.3-3.3-8-5.2-12.7-5.2
			c2.6-1.7,5-3.8,7-6.2c1.4-1.7,2.8-3.9,2.3-6.1c-4.6-20.3-32.7,6.5-39,15l2.4,16.6c14.2,13.3,38,22.1,38.1,12.8
			c0.1-5.3-5.9-13.5-11.3-14.1C148.1,187.1,151.8,187.5,155.1,186.2z"/>
	</g>
	<g class="st13">
		<path class="st21" d="M131.1,181.7c5.4-1.9,11-3.4,16.7-4.6c-6.7-1.9-13.6-3.1-20.6-3.6c4.8-4.4,9.6-8.9,14.4-13.3
			c-7.3,2.7-14.2,6.5-20.4,11.1l3.3,17.7c6,2,12.1,3.7,18.3,5.1C139.3,189.7,135.3,185.6,131.1,181.7z"/>
	</g>
	<path id="XMLID_130_" class="st22" d="M122.8,162.9c0,0,14.1,14.1,7.1,34.1"/>
	<path id="XMLID_226_" class="st17" d="M103.5,221.4l-28,5.3c-19.1,3.6-37.6-8.9-41.2-28v0c-3.6-19.1,8.9-37.6,28-41.2l28-5.3
		c19.1-3.6,37.6,8.9,41.2,28v0C135.2,199.3,122.6,217.7,103.5,221.4z"/>
	<path id="XMLID_225_" class="st23" d="M105.9,212l-28,5.3c-19.1,3.6-37.6-8.9-41.2-28v0c-0.7-3.6-0.8-7.2-0.4-10.6
		c-2.5,6.1-3.4,13-2,20v0c3.6,19.1,22.1,31.7,41.2,28l28-5.3c15.5-2.9,26.7-15.7,28.4-30.6C127.5,201.4,118.1,209.7,105.9,212z"/>
	<g id="XMLID_126_">
		<path class="st17" d="M115.3,161.7c-3.8-3.2-8.4-5.5-13.3-6.5c-5.7-1.2-11.4-0.1-17.1,0.8c-11.9,1.9-35.3,6.4-34.8,8.9
			c0.3,1.6,14.3-1.5,33.5-2.3c5.7-0.2,11.5,0.3,17.2,1.1c3,0.5,5.8,1.4,8.8,2c3.8,0.8,11.9,4.5,11.4,2.8
			C120.3,166.2,117.2,163.3,115.3,161.7z"/>
	</g>
	<path id="XMLID_382_" class="st23" d="M113.3,174c-5.8-2.5-14-0.7-18.4,4.3c-2.9-1.1-6-1.5-9.3-1.1c0.5-1.7,1.1-3.3,2-4.8
		c2.3-4.2,6.4-8.9,11.4-9.4c1.1-0.1,1.2-1.7,0-1.7c-5.5,0-10,3.5-13.1,7.7c-1.7,2.3-3.5,5.7-4.4,9.1c-0.8,0.3-1.6,0.7-2.4,1.1
		c0.4-1.5,0.5-3.2,0.1-4.8c-1.3-5.1-6.4-8.1-11.5-6.8c0,0,0,0,0,0l-2-1.6l0.1,2.3c-1.2,0.6-2.3,1.5-3.1,2.5l-2.1-0.3l1.1,1.8
		c-1,2-1.4,4.3-0.8,6.6c1.2,4.9,6,7.9,10.9,7c-0.3,0.5-0.7,1.1-1,1.7c-4.3,0.2-9.2,2.4-12.2,4.5c-4,2.8-7.4,6.9-7.7,12
		c-0.1,1,1.5,1.2,1.7,0.3c0.8-4.7,5-8.2,9-10.4c2.2-1.1,4.5-2,6.9-2.4c0.3,0,0.5-0.1,0.8-0.1c-0.7,2.8-0.8,5.8-0.2,8.8
		c-6,3.6-8.9,12.6-6.7,18.9c0.4,1.2,2.2,0.8,1.9-0.5c-0.7-3.9,0.1-7.8,2.4-11.1c1-1.4,2.2-2.5,3.5-3.5c1.7,3.8,4.4,6.8,7.8,8.8
		c-0.5,3.2,0.2,6.7,2.1,9.3c0.7,0.9,2.2,0.5,2-0.8c-0.5-2.3-1-4.6-0.8-7c3.5,1.3,7.4,1.5,11.3,0.6c10-2.5,16.2-12.5,14.2-22.5
		c2.5-0.1,4.8,0.7,7.2,1.3c1,0.3,1.9-1.1,1.1-1.8c-2.6-2.2-6-3.1-9.2-2.9c-1.5-3.9-4.2-7.1-7.6-9.2c0.9-0.9,1.9-1.8,3-2.5
		c3.4-2.1,7.4-2.6,11.2-1.6C114,176.2,114.4,174.5,113.3,174z"/>
	<g id="XMLID_210_">
		<path class="st18" d="M112.5,188.8c-2.6-2.2-6-3.1-9.2-2.9c-1.5-3.9-4.2-7.1-7.6-9.2c0.9-0.9,1.9-1.8,3-2.5
			c3.4-2.1,7.3-2.6,11.2-1.6c1.1,0.3,1.9-1.4,0.8-1.8c-5.9-2.6-14.2-0.9-18.6,4.2c-2.9-1.1-6-1.5-9.2-1.1c0.5-1.7,1.2-3.4,2-4.9
			c2.3-4.2,6.3-8.7,11.4-9.2c1.1-0.1,1.1-1.7,0-1.7c-5.4,0-9.9,3.4-13,7.6c-1.7,2.3-3.6,5.8-4.5,9.3c-0.8,0.3-1.7,0.7-2.4,1.1
			c0.4-1.5,0.5-3.2,0.1-4.8c-1.3-5.1-6.4-8.1-11.5-6.8c0,0,0,0,0,0l-2-1.6l0.1,2.3c-1.2,0.6-2.3,1.5-3.1,2.5l-2.1-0.3l1.1,1.8
			c-1,2-1.4,4.3-0.8,6.6c1.2,4.9,6,7.9,10.9,7c-0.4,0.6-0.7,1.1-1,1.7c-3.9,0.2-8.2,1.9-11.1,3.7c-4.6,2.8-8.5,7.2-8.8,12.7
			c-0.1,1,1.5,1.2,1.7,0.2c0.8-5,5.4-8.6,9.7-10.7c2.1-1,4.4-1.7,6.7-2.1c0.2,0,0.3,0,0.5-0.1c-0.7,2.8-0.8,5.8-0.1,8.8
			c-6,3.6-8.9,12.5-6.7,18.9c0.4,1.2,2.2,0.7,1.9-0.5c-0.7-4,0.1-7.8,2.5-11.1c1-1.4,2.2-2.4,3.5-3.4c1.7,3.8,4.4,6.8,7.8,8.8
			c-0.5,3.2,0.2,6.6,2.1,9.3c0.7,1,2.2,0.4,2-0.8c-0.5-2.3-1.1-4.6-0.8-7c3.5,1.3,7.4,1.5,11.3,0.6c10-2.5,16.2-12.5,14.2-22.5
			c2.5-0.1,4.9,0.7,7.2,1.3C112.4,190.8,113.3,189.5,112.5,188.8z"/>
		<path id="XMLID_224_" class="st1" d="M61.6,169.6l-1.3,3.7C60.4,173.3,58.3,170.5,61.6,169.6z"/>
		<path id="XMLID_218_" class="st1" d="M64.3,167.6l4,0C68.3,167.6,66.6,164.5,64.3,167.6z"/>
	</g>
</g>
</svg>
