<?xml version="1.0" encoding="utf-8"?>
<!-- Generator: Adobe Illustrator 21.0.0, SVG Export Plug-In . SVG Version: 6.00 Build 0)  -->
<svg version="1.1" class="header_bottom_section__decor" id="garland" xmlns="http://www.w3.org/2000/svg" xmlns:xlink="http://www.w3.org/1999/xlink" x="0px" y="0px"
	 width="1960px" height="100px" viewBox="0 0 1960 100" style="enable-background:new 0 0 1960 100;" xml:space="preserve">
<style type="text/css">
	.header_bottom_section__decor {
	position: absolute;
    top: 90%;
    left: 50%;
    transform: translate(-50%, -50%);
    width: 1960px;
    height: 100px;
    z-index: -1;
    pointer-events: none;
	}
	.st0{
		fill:#FFCC35;
	animation: color-change-1 2s linear infinite;
	}
	@keyframes color-change-1 {
         0%, 24% {
           fill:#FFCC35;
         }
         25%, 49% {
           fill:#FF0065;
         }
         50%, 74% {
           fill:#16CC31;
         }
         75%, 100% {
           fill:#00CDFD;
         }
       }
	.st1{fill:#FF0065;
	animation: color-change-2 2s linear infinite;
	}
	@keyframes color-change-2 {
        0%, 24% {
          fill:#FF0065;
        }
        25%, 49% {
          fill:#16CC31;
        }
        50%, 74% {
          fill:#00CDFD;
        }
        75%, 100% {
          fill:#FFCC35;
        }
      }
	.st2{fill:#16CC31;
	animation: color-change-3 2s linear infinite;
	}
	@keyframes color-change-3 {
        0%, 24% {
          fill:#16CC31;
        }
        25%, 49% {
          fill:#00CDFD;
        }
        50%, 74% {
          fill:#FFCC35;
        }
        75%, 100% {
          fill:#FF0065;
        }
      }
	.st3{fill:#00CDFD;
	animation: color-change-4 2s linear infinite;
	}
	@keyframes color-change-4 {
        0%, 24% {
          fill:#00CDFD;
        }
        25%, 49% {
          fill:#FFCC35;
        }
        50%, 74% {
          fill:#FF0065;
        }
        75%, 100% {
          fill:#16CC31;
        }
      }
	.st5{fill:#242229;}
	.st4{fill:none;stroke:#242229;stroke-width:2;stroke-miterlimit:10;}
	.st6{fill:#FFFFFF;}
</style>
<g id="garland_1_">
	<g id="yellow">
		<path class="st0" d="M453.8,45.1c-7.1-1.1-11.5,2.3-13.1,12.1c-1.6,9.8,3.5,22.8,7.4,23.5c4,0.6,12.8-10.2,14.3-20
			C464,50.9,460.9,46.3,453.8,45.1z"/>
		<path class="st0" d="M979.6,35c-7.2-0.3-11.2,3.5-11.7,13.5c-0.5,9.9,5.9,22.3,9.9,22.5s11.6-11.5,12-21.4
			C990.3,39.6,986.7,35.4,979.6,35z"/>
		<path class="st0" d="M1515.6,33.3c-7-1.6-11.6,1.5-13.9,11.2c-2.2,9.7,1.9,23,5.8,23.9c3.9,0.9,13.4-9.3,15.6-19
			C1525.4,39.7,1522.6,34.9,1515.6,33.3z"/>
	</g>
	<g id="pink">
		<path class="st1" d="M45.9,29.1c-6.5-3.1-11.7-1-15.9,8c-4.2,9-3,22.9,0.6,24.6c3.6,1.7,15.1-6.2,19.3-15.2
			C54.1,37.4,52.4,32.1,45.9,29.1z"/>
		<path class="st1" d="M582.1,56.1c-7.1-0.7-11.3,3-12.3,12.9c-0.9,9.9,4.9,22.6,8.9,22.9c4,0.4,12.1-11,13-20.9
			C592.7,61.1,589.2,56.7,582.1,56.1z"/>
		<path class="st1" d="M1113.1,45.1c-7.1-0.7-11.3,3-12.3,12.9c-1,9.9,4.9,22.6,8.8,23c4,0.4,12.1-10.9,13.1-20.8
			C1123.7,50.2,1120.3,45.7,1113.1,45.1z"/>
		<path class="st1" d="M1637,56.2c-7.1-1.2-11.5,2.1-13.2,11.9c-1.7,9.8,3.1,22.9,7,23.6c3.9,0.7,12.9-10,14.6-19.8
			C1647.1,62.1,1644.1,57.4,1637,56.2z"/>
	</g>
	<g id="green">
		<path class="st2" d="M185.1,51c-7.2,0.6-10.7,4.9-9.9,14.8c0.8,9.9,8.7,21.4,12.7,21.1c4-0.3,10-12.9,9.3-22.8
			C196.4,54.2,192.3,50.5,185.1,51z"/>
		<path class="st2" d="M713.2,58c-7.2,0.5-10.7,4.8-10,14.8c0.7,9.9,8.6,21.4,12.6,21.2c4-0.3,10.1-12.8,9.4-22.7
			C724.4,61.3,720.3,57.5,713.2,58z"/>
		<path class="st2" d="M1242,51c-7.2,0-11,4.1-11,14c0,9.9,7,22,11,22s11-12.1,11-22C1253,55.1,1249.2,51,1242,51z"/>
		<path class="st2" d="M1769.5,52.3c-7,1.5-9.9,6.3-7.7,16c2.1,9.7,11.6,20,15.5,19.1c3.9-0.9,8.1-14.1,6-23.9
			C1781.1,53.9,1776.5,50.7,1769.5,52.3z"/>
	</g>
	<g id="blue">
		<path class="st3" d="M315.7,41.1c-7.1,0.8-10.5,5.3-9.4,15.1c1.1,9.9,9.4,21.1,13.4,20.6s9.6-13.2,8.5-23.1
			C327.1,43.9,322.9,40.3,315.7,41.1z"/>
		<path class="st3" d="M844.8,44.1c-7.1,0.7-10.5,5.2-9.5,15.1c1,9.9,9.3,21.2,13.2,20.7s9.7-13.1,8.7-23
			C856.2,47,851.9,43.3,844.8,44.1z"/>
		<path class="st3" d="M1365.7,35.2c-7,1.4-10,6.1-8,15.9c2,9.7,11.2,20.2,15.1,19.4c3.9-0.8,8.4-14,6.5-23.7
			C1377.3,37,1372.8,33.8,1365.7,35.2z"/>
		<path class="st3" d="M1884.1,22.4c-7,1.8-9.6,6.7-7.2,16.3c2.5,9.6,12.3,19.6,16.1,18.6s7.6-14.4,5.2-24.1
			C1895.8,23.5,1891.1,20.6,1884.1,22.4z"/>
	</g>
	<g id="black">
		<path class="st4" d="M20,0c0,0,44.5,41.5,108.5,45.5s180-22,285-14s230,25,331,14s191-25,248-19s235,20,294,13s130-30,197-21
			s177,40,229,36S1906,4,1945,0"/>
		<path class="st5" d="M52.5,35.5c0.1,0.8-0.8,1.3-1.4,0.7c-1.5-1.3-3.9-3.2-6.5-4.4C42,30.6,39,29.9,37,29.6
			c-0.8-0.1-1-1.1-0.3-1.6c1.5-1,3.4-2.2,4.2-2.4c1.3-0.5,4.7-7.7,4.7-7.7s1.3-2.7,4-1.4l3.6,1.7c2.7,1.3,1.4,4,1.4,4
			s-3.4,7.2-2.9,8.6C52,31.5,52.3,33.7,52.5,35.5z"/>
		<path class="st5" d="M194.1,53.3c0.5,0.6-0.1,1.5-0.9,1.4c-2-0.4-4.9-0.9-7.9-0.6c-2.9,0.2-5.8,1.1-7.7,1.9
			c-0.7,0.3-1.4-0.5-1.1-1.2c0.8-1.6,1.9-3.6,2.4-4.2c0.9-1.1,0.3-9.1,0.3-9.1s-0.2-3,2.8-3.2l4-0.3c3-0.2,3.2,2.8,3.2,2.8
			s0.6,8,1.7,8.9C191.6,50.1,193,51.9,194.1,53.3z"/>
		<path class="st5" d="M324.8,43.1c0.5,0.6,0,1.5-0.8,1.4c-2-0.4-5-0.7-7.9-0.4c-2.9,0.3-5.8,1.3-7.6,2.1c-0.7,0.3-1.4-0.5-1.1-1.2
			c0.8-1.6,1.8-3.6,2.3-4.3c0.9-1.1,0-9.1,0-9.1s-0.3-3,2.6-3.3l4-0.4c3-0.3,3.3,2.6,3.3,2.6s0.9,8,2,8.8
			C322.2,39.9,323.7,41.7,324.8,43.1z"/>
		<path class="st5" d="M462,49.5c0.3,0.7-0.4,1.5-1.2,1.1c-1.8-0.9-4.6-2-7.5-2.5s-5.9-0.2-7.9,0c-0.8,0.1-1.3-0.8-0.8-1.4
			c1.2-1.3,2.7-3,3.3-3.5c1.1-0.8,2.4-8.7,2.4-8.7s0.5-3,3.4-2.5l4,0.6c3,0.5,2.5,3.4,2.5,3.4s-1.3,7.9-0.4,9
			C460.4,45.8,461.3,47.8,462,49.5z"/>
		<path class="st5" d="M590.5,59.8c0.4,0.7-0.4,1.5-1.1,1.2c-1.9-0.7-4.7-1.7-7.6-2s-5.9,0.1-7.9,0.5c-0.8,0.2-1.3-0.7-0.8-1.4
			c1.1-1.4,2.5-3.2,3.1-3.7c1.1-0.9,1.8-8.9,1.8-8.9s0.3-3,3.3-2.7l4,0.4c3,0.3,2.7,3.3,2.7,3.3s-0.8,8,0.1,9.1
			C588.7,56.2,589.7,58.2,590.5,59.8z"/>
		<path class="st5" d="M722.1,60.4c0.5,0.6-0.1,1.5-0.9,1.3c-2-0.4-4.9-0.9-7.9-0.7c-2.9,0.2-5.8,1.1-7.7,1.8
			c-0.7,0.3-1.4-0.5-1.1-1.2c0.8-1.6,1.9-3.5,2.5-4.2c0.9-1.1,0.3-9,0.3-9s-0.2-3,2.8-3.2l4-0.3c3-0.2,3.2,2.8,3.2,2.8
			s0.6,8,1.6,8.9C719.7,57.1,721.1,58.9,722.1,60.4z"/>
		<path class="st5" d="M853.8,46.1c0.5,0.6-0.1,1.5-0.8,1.4c-2-0.4-5-0.7-7.9-0.4s-5.8,1.3-7.6,2.1c-0.7,0.3-1.4-0.5-1.1-1.2
			c0.8-1.6,1.8-3.6,2.3-4.2c0.9-1.1,0.1-9.1,0.1-9.1s-0.3-3,2.7-3.3l4-0.4c3-0.3,3.3,2.7,3.3,2.7s0.8,8,1.9,8.8
			C851.3,43,852.7,44.7,853.8,46.1z"/>
		<path class="st5" d="M988.2,38.4c0.4,0.7-0.3,1.5-1,1.2c-1.9-0.7-4.8-1.5-7.7-1.6c-2.9-0.1-5.9,0.4-7.8,0.9
			c-0.8,0.2-1.4-0.7-0.9-1.3c1-1.5,2.3-3.3,2.9-3.8c1-1,1.4-8.9,1.4-8.9s0.1-3,3.1-2.9l4,0.2c3,0.1,2.9,3.1,2.9,3.1s-0.4,8,0.6,9
			C986.1,34.9,987.3,36.9,988.2,38.4z"/>
		<path class="st5" d="M1121.5,48.9c0.4,0.7-0.4,1.5-1.1,1.2c-1.9-0.8-4.7-1.7-7.6-2s-5.9,0.1-7.9,0.5c-0.8,0.2-1.3-0.7-0.8-1.4
			c1.1-1.4,2.5-3.2,3.1-3.7c1.1-0.9,1.9-8.9,1.9-8.9s0.3-3,3.3-2.7l4,0.4c3,0.3,2.7,3.3,2.7,3.3s-0.8,8,0.1,9.1
			C1119.7,45.3,1120.7,47.3,1121.5,48.9z"/>
		<path class="st5" d="M1250.8,54c0.4,0.7-0.2,1.5-1,1.3c-1.9-0.6-4.9-1.3-7.8-1.3s-5.9,0.7-7.8,1.3c-0.8,0.2-1.4-0.6-1-1.3
			c0.9-1.5,2.2-3.4,2.8-4c1-1,1-9,1-9s0-3,3-3h4c3,0,3,3,3,3s0,8,1,9C1248.6,50.6,1249.8,52.5,1250.8,54z"/>
		<path class="st5" d="M1374.9,36.4c0.5,0.6,0.1,1.5-0.7,1.4c-2-0.2-5-0.3-7.9,0.3c-2.9,0.6-5.6,1.8-7.4,2.8
			c-0.7,0.4-1.5-0.3-1.2-1.1c0.6-1.7,1.5-3.8,1.9-4.4c0.8-1.2-0.8-9-0.8-9s-0.6-2.9,2.4-3.5l3.9-0.8c2.9-0.6,3.5,2.4,3.5,2.4
			s1.6,7.8,2.7,8.6C1372.1,33.5,1373.7,35.1,1374.9,36.4z"/>
		<path class="st5" d="M1523.4,38.2c0.3,0.7-0.5,1.4-1.2,1c-1.7-1-4.5-2.3-7.3-3s-5.9-0.6-7.9-0.5c-0.8,0-1.2-0.9-0.7-1.5
			c1.3-1.3,2.9-2.8,3.6-3.3c1.2-0.8,3-8.5,3-8.5s0.7-2.9,3.6-2.3l3.9,0.9c2.9,0.7,2.3,3.6,2.3,3.6s-1.8,7.8-1,9
			C1522.1,34.3,1522.9,36.5,1523.4,38.2z"/>
		<path class="st5" d="M1645.1,60.6c0.3,0.7-0.5,1.4-1.2,1.1c-1.8-0.9-4.6-2.1-7.5-2.6c-2.9-0.5-5.9-0.3-7.9-0.1
			c-0.8,0.1-1.3-0.8-0.7-1.4c1.2-1.3,2.7-3,3.4-3.4c1.2-0.8,2.5-8.7,2.5-8.7s0.5-3,3.5-2.4l3.9,0.7c3,0.5,2.4,3.5,2.4,3.5
			s-1.4,7.9-0.6,9C1643.5,56.9,1644.4,59,1645.1,60.6z"/>
		<path class="st5" d="M1778.7,53.3c0.6,0.6,0.1,1.5-0.7,1.5c-2-0.1-5-0.2-7.9,0.5s-5.6,1.9-7.3,2.9c-0.7,0.4-1.5-0.3-1.2-1
			c0.6-1.7,1.4-3.8,1.8-4.5c0.8-1.2-1-9-1-9s-0.6-2.9,2.3-3.6l3.9-0.9c2.9-0.6,3.6,2.3,3.6,2.3s1.7,7.8,2.9,8.6
			C1775.8,50.4,1777.5,52,1778.7,53.3z"/>
		<path class="st5" d="M1893.3,23.1c0.6,0.5,0.2,1.5-0.6,1.5c-2-0.1-5,0-7.9,0.7c-2.8,0.7-5.5,2.1-7.2,3.2c-0.7,0.4-1.5-0.2-1.3-1
			c0.5-1.7,1.3-3.8,1.7-4.5c0.7-1.2-1.3-9-1.3-9s-0.7-2.9,2.2-3.7l3.9-1c2.9-0.7,3.7,2.2,3.7,2.2s2,7.7,3.2,8.5
			C1890.4,20.3,1892.1,21.8,1893.3,23.1z"/>
	</g>
	<g id="white">
		<path class="st6" d="M443.9,56.7l4,0.6c-1.3,7.9-1,12.3-0.9,18.1C444.6,70.4,442.6,64.6,443.9,56.7z"/>
		<path class="st6" d="M970.9,47.6l4,0.2c-0.4,8,0.4,12.3,1.1,18.1C973.2,61.1,970.6,55.6,970.9,47.6z"/>
		<path class="st6" d="M1504.9,44.2l3.9,0.9c-1.8,7.8-1.8,12.2-2.1,18C1504.7,57.9,1503.1,52,1504.9,44.2z"/>
		<path class="st6" d="M33.1,37.5l3.6,1.7c-3.4,7.2-4.4,11.6-5.8,17.1C30,50.8,29.7,44.7,33.1,37.5z"/>
		<path class="st6" d="M572.9,68.2l4,0.4c-0.8,8-0.2,12.4,0.3,18.1C574.5,81.9,572.1,76.2,572.9,68.2z"/>
		<path class="st6" d="M1103.9,57.2l4,0.4c-0.8,8-0.2,12.4,0.3,18.1C1105.5,70.8,1103.1,65.2,1103.9,57.2z"/>
		<path class="st6" d="M1626.9,67.6l3.9,0.7c-1.4,7.9-1.2,12.3-1.1,18.1C1627.4,81.3,1625.5,75.5,1626.9,67.6z"/>
		<path class="st6" d="M178.1,64.6l4-0.3c0.6,8,1.9,12.2,3.4,17.8C182.1,77.8,178.8,72.6,178.1,64.6z"/>
		<path class="st6" d="M706.1,71.6l4-0.3c0.6,8,1.8,12.2,3.3,17.8C710,84.7,706.7,79.6,706.1,71.6z"/>
		<path class="st6" d="M1234,64h4c0,8,1,12.3,2,18C1236.9,77.4,1234,72,1234,64z"/>
		<path class="st6" d="M1764.5,66.7l3.9-0.9c1.7,7.8,3.6,11.8,5.8,17.1C1770.2,79.2,1766.2,74.5,1764.5,66.7z"/>
		<path class="st6" d="M309.2,54.9l4-0.4c0.9,8,2.3,12.1,4,17.7C313.6,67.9,310.1,62.8,309.2,54.9z"/>
		<path class="st6" d="M838.2,57.8l4-0.4c0.8,8,2.2,12.1,3.9,17.7C842.5,70.9,839,65.8,838.2,57.8z"/>
		<path class="st6" d="M1360.5,49.5l3.9-0.8c1.6,7.8,3.4,11.9,5.5,17.3C1365.9,62.1,1362,57.4,1360.5,49.5z"/>
		<path class="st6" d="M1879.6,37l3.9-1c2,7.7,4,11.7,6.4,16.9C1885.8,49.2,1881.6,44.7,1879.6,37z"/>
	</g>
</g>
</svg>
