<?xml version="1.0" encoding="utf-8"?>
<!-- Generator: Adobe Illustrator 21.0.0, SVG Export Plug-In . SVG Version: 6.00 Build 0)  -->
<svg version="1.1" id="Слой_1" xmlns="http://www.w3.org/2000/svg" xmlns:xlink="http://www.w3.org/1999/xlink" x="0px" y="0px"
	 width="330px" height="140px" viewBox="0 0 330 140" style="enable-background:new 0 0 330 140;" xml:space="preserve">
<style type="text/css">
	.st0{opacity:0.5;fill:#CCCCCC;}
</style>
<path id="symbol_x5F_404" class="st0" d="M87.2,84.6V53H60.2l-3.4,31.5H32.3L64.6,9.9L38,0L0,87.2v20.7h56.5l0.2,28.8h30.5v-28.8
	h15.1V84.6H87.2z M164.4,0.6c-16.4,0-28.9,6-37.5,17.9c-8.7,12-13,29.2-13,51.7c0,22.3,4.3,39.6,13,51.7
	C135.5,134,148,140,164.4,140c16.4,0,28.9-6,37.5-18.1c8.6-12.1,13-29.3,13-51.7c0-22.5-4.3-39.7-13-51.7
	C193.3,6.6,180.8,0.6,164.4,0.6L164.4,0.6z M164.4,23.7c4.5,0,8.1,1.4,10.7,4.1c2.6,2.8,4.6,7.5,5.8,14.3c1.3,6.8,1.9,16.1,1.9,28.1
	c0,12-0.6,21.3-1.9,28.1c-1.3,6.8-3.2,11.6-5.8,14.4c-2.6,2.8-6.2,4.2-10.7,4.2c-4.5,0-8.1-1.4-10.7-4.3c-2.6-2.9-4.6-7.7-5.8-14.5
	c-1.3-6.8-1.9-16.1-1.9-27.9s0.6-21.1,1.9-27.8c1.3-6.7,3.2-11.5,5.8-14.4C156.3,25.1,159.9,23.7,164.4,23.7L164.4,23.7z
	 M314.9,84.6V53H288l-3.4,31.5h-24.6l32.3-74.7L265.8,0l-38,87.2v20.7h56.5l0.2,28.8h30.5v-28.8H330V84.6H314.9z"/>
</svg>
