<?xml version="1.0" encoding="utf-8"?>
<!-- Generator: Adobe Illustrator 21.0.0, SVG Export Plug-In . SVG Version: 6.00 Build 0)  -->
<svg version="1.1" id="search" xmlns="http://www.w3.org/2000/svg" xmlns:xlink="http://www.w3.org/1999/xlink" x="0px" y="0px"
	 viewBox="0 0 20 20" enable-background="new 0 0 20 20" xml:space="preserve">
<path id="search_x5F_active" fill="#0066FF" d="M13.4,2.3c-3.1-3.1-8-3.1-11.1,0c-3.1,3.1-3.1,8,0,11.1c2.7,2.7,6.9,3,10,0.9
	c0.1,0.3,0.2,0.6,0.4,0.8l4.4,4.4c0.6,0.6,1.7,0.6,2.3,0c0.6-0.6,0.6-1.7,0-2.3l-4.4-4.4c-0.2-0.2-0.5-0.4-0.8-0.4
	C16.4,9.2,16.1,5,13.4,2.3z M11.9,11.9c-2.3,2.3-5.9,2.3-8.2,0C1.5,9.7,1.5,6,3.7,3.7c2.3-2.3,5.9-2.3,8.2,0
	C14.2,6,14.2,9.7,11.9,11.9z"/>
</svg>
