<?xml version="1.0" encoding="utf-8"?>
<!-- Generator: Adobe Illustrator 21.0.0, SVG Export Plug-In . SVG Version: 6.00 Build 0)  -->
<svg version="1.1" id="video_1_" xmlns="http://www.w3.org/2000/svg" xmlns:xlink="http://www.w3.org/1999/xlink" x="0px" y="0px"
	 viewBox="0 0 20 12" enable-background="new 0 0 20 12" xml:space="preserve">
<g id="video">
	<path fill="#CCCCCC" d="M19.1,1.2c-0.5-0.8-1.1-1-2.3-1.1C15.6,0,12.6,0,10,0C7.4,0,4.4,0,3.2,0.1C2,0.2,1.4,0.3,0.8,1.2
		C0.3,2,0,3.4,0,6c0,0,0,0,0,0c0,0,0,0,0,0v0c0,2.5,0.3,4,0.8,4.8c0.5,0.8,1.1,1,2.3,1.1C4.4,12,7.4,12,10,12c2.6,0,5.6,0,6.8-0.1
		c1.2-0.1,1.8-0.2,2.3-1.1C19.7,10,20,8.5,20,6c0,0,0,0,0,0c0,0,0,0,0,0C20,3.4,19.7,2,19.1,1.2z M7.5,9.3V2.7L13.8,6L7.5,9.3z"/>
</g>
</svg>
