<?xml version="1.0" encoding="utf-8"?>
<!-- Generator: Adobe Illustrator 21.0.0, SVG Export Plug-In . SVG Version: 6.00 Build 0)  -->
<svg version="1.1" id="Слой_1" xmlns="http://www.w3.org/2000/svg" xmlns:xlink="http://www.w3.org/1999/xlink" x="0px" y="0px"
	 viewBox="0 0 30 30" enable-background="new 0 0 30 30" xml:space="preserve">
<g id="VkHover">
	<circle id="vk" fill="#4C77A6" cx="15" cy="15" r="15"/>
	<path id="Vk_2_" fill="#FFFFFF" d="M24.6,9.8c0.1-0.5,0-0.8-0.7-0.8h-2.2c-0.6,0-0.8,0.3-1,0.6c0,0-1.1,2.7-2.7,4.5
		c-0.5,0.5-0.7,0.7-1,0.7c-0.1,0-0.3-0.2-0.3-0.6V9.8c0-0.6-0.2-0.8-0.6-0.8h-3.4c-0.3,0-0.6,0.3-0.6,0.5c0,0.5,0.8,0.7,0.9,2.1v3.2
		c0,0.7-0.1,0.8-0.4,0.8c-0.7,0-2.6-2.7-3.6-5.9C8.7,9.3,8.5,9,7.9,9H5.7C5.1,9,5,9.3,5,9.7c0,0.6,0.7,3.5,3.5,7.3
		c1.8,2.6,4.4,4,6.7,4c1.4,0,1.6-0.3,1.6-0.9v-2c0-0.6,0.1-0.8,0.6-0.8c0.3,0,0.9,0.2,2.2,1.4c1.5,1.5,1.7,2.2,2.6,2.2h2.2
		c0.6,0,0.9-0.3,0.8-0.9c-0.4-1.3-2.7-3.4-3.4-4.2c-0.3-0.4-0.2-0.6,0-1C21.6,14.9,24.3,11.1,24.6,9.8z"/>
</g>
</svg>
