<?xml version="1.0" encoding="utf-8"?>
<!-- Generator: Adobe Illustrator 21.0.0, SVG Export Plug-In . SVG Version: 6.00 Build 0)  -->
<svg version="1.1" id="superprice" xmlns="http://www.w3.org/2000/svg" xmlns:xlink="http://www.w3.org/1999/xlink" x="0px" y="0px"
	 viewBox="0 0 80 110" enable-background="new 0 0 80 110" xml:space="preserve">
<path id="flag_1_" fill="#009900" d="M0,109V69L65,4v20l10,10L0,109z"/>
<linearGradient id="flag_2_" gradientUnits="userSpaceOnUse" x1="-10" y1="98" x2="75" y2="13">
	<stop  offset="0" style="stop-color:#009900"/>
	<stop  offset="1" style="stop-color:#66CC00"/>
</linearGradient>
<path id="flag" fill="url(#flag_2_)" d="M0,108V68L65,3v20l10,10L0,108z"/>
<g id="super_1_">
	<path fill="#009900" d="M11.7,80.3c0.3,0.4,0.5,0.7,0.5,1c0,0.3-0.2,0.7-0.5,1c-0.4,0.4-0.8,0.5-1.2,0.4c-0.4-0.1-1-0.5-1.6-1.1
		l-0.4-0.4c-0.6-0.6-0.9-1.1-1-1.6c-0.1-0.4,0-0.8,0.4-1.2c0.4-0.4,0.7-0.5,1-0.6c0.3,0,0.7,0.2,1.1,0.5l1.5-1.5
		c-0.7-0.6-1.5-0.9-2.4-0.8c-0.8,0.1-1.6,0.5-2.3,1.2c-0.5,0.5-0.8,1.1-1,1.7c-0.1,0.6-0.1,1.3,0.1,1.9c0.2,0.6,0.7,1.3,1.2,1.9
		l0.3,0.3c0.9,0.9,1.9,1.4,2.9,1.5c1,0.1,1.9-0.3,2.6-1.1c0.5-0.5,0.8-1,1-1.5c0.2-0.6,0.2-1.1,0.1-1.6c-0.1-0.5-0.4-1-0.8-1.5
		L11.7,80.3z"/>
	<path fill="#009900" d="M11.1,72.9l-1.5,1.5l6.4,2.1l0.1,0.3c0.1,0.3,0.2,0.5,0.2,0.7c0,0.2-0.2,0.4-0.4,0.6
		c-0.2,0.2-0.3,0.3-0.3,0.3l1.2,1.1l0.2-0.2l0.3-0.3c0.4-0.4,0.6-0.8,0.6-1.3c0.1-0.5,0-1.1-0.3-1.8l-2.8-6.8l-1.5,1.5l1.6,3.6l0,0
		L11.1,72.9z"/>
	<path fill="#009900" d="M20.7,63.3l-5.1,5.1l6,6l1.5-1.5l-4.9-4.9l2.2-2.2l4.9,4.9l1.5-1.5L20.7,63.3z"/>
	<path fill="#009900" d="M27.9,60.9l-2.3,2.3l-1.3-1.3l2.7-2.7l-1.1-1.1l-4.2,4.2l6,6l4.2-4.2L30.9,63l-2.7,2.7l-1.4-1.4L29,62
		L27.9,60.9z"/>
	<path fill="#009900" d="M33.1,58.9c0.7-0.7,1.1-1.5,1.2-2.3c0.1-0.8-0.2-1.5-0.8-2c-0.4-0.4-0.9-0.7-1.4-0.8
		c-0.5-0.1-1-0.1-1.5,0.1c-0.5,0.2-1,0.5-1.5,1l-2.4,2.4l6,6l1.5-1.5l-2-2L33.1,58.9z M29.3,56.9l1-1c0.3-0.3,0.6-0.4,0.9-0.4
		c0.3,0,0.6,0.2,0.9,0.4c0.3,0.3,0.4,0.5,0.4,0.8c0,0.3-0.2,0.6-0.4,0.9l-1,1L29.3,56.9z"/>
	<path fill="#009900" d="M38.4,57.7l4.5-4.5l1.5,1.5l1.4-1.4l-2.5-2.6l-0.9,0.9l-4.9-4.9L36,48l4.9,4.9l-2.2,2.2l-4.9-4.9l-1.4,1.4
		L38.4,57.7z"/>
	<path fill="#009900" d="M45.4,43.4l-2.3,2.3l-1.3-1.3l2.7-2.7l-1.1-1.1l-4.2,4.2l6,6l4.2-4.2l-1.1-1.1l-2.7,2.7l-1.4-1.4l2.3-2.3
		L45.4,43.4z"/>
	<path fill="#009900" d="M49.2,34.8l-1.4,1.4l2.4,2.4L48,40.8l-2.4-2.4l-1.5,1.5l6,6l1.5-1.5l-2.5-2.5l2.1-2.1l2.5,2.5l1.4-1.4
		L49.2,34.8z"/>
	<path fill="#009900" d="M60.3,35.8l1.6-1.6l-8.3-3.8l-1.4,1.4l3.8,8.2l1.6-1.6L56.8,37l2-2L60.3,35.8z M54.6,32.8l2.7,1.4L56,35.6
		L54.6,32.8z"/>
</g>
<g id="super">
	<path fill="#FFFFFF" d="M11.7,78.3c0.3,0.4,0.5,0.7,0.5,1c0,0.3-0.2,0.7-0.5,1c-0.4,0.4-0.8,0.5-1.2,0.4c-0.4-0.1-1-0.5-1.6-1.1
		l-0.4-0.4c-0.6-0.6-0.9-1.1-1-1.6c-0.1-0.4,0-0.8,0.4-1.2c0.4-0.4,0.7-0.5,1-0.6c0.3,0,0.7,0.2,1.1,0.5l1.5-1.5
		c-0.7-0.6-1.5-0.9-2.4-0.8c-0.8,0.1-1.6,0.5-2.3,1.2c-0.5,0.5-0.8,1.1-1,1.7c-0.1,0.6-0.1,1.3,0.1,1.9c0.2,0.6,0.7,1.3,1.2,1.9
		l0.3,0.3c0.9,0.9,1.9,1.4,2.9,1.5c1,0.1,1.9-0.3,2.6-1.1c0.5-0.5,0.8-1,1-1.5c0.2-0.6,0.2-1.1,0.1-1.6c-0.1-0.5-0.4-1-0.8-1.5
		L11.7,78.3z"/>
	<path fill="#FFFFFF" d="M11.1,70.9l-1.5,1.5l6.4,2.1l0.1,0.3c0.1,0.3,0.2,0.5,0.2,0.7c0,0.2-0.2,0.4-0.4,0.6
		c-0.2,0.2-0.3,0.3-0.3,0.3l1.2,1.1l0.2-0.2l0.3-0.3c0.4-0.4,0.6-0.8,0.6-1.3c0.1-0.5,0-1.1-0.3-1.8l-2.8-6.8l-1.5,1.5l1.6,3.6l0,0
		L11.1,70.9z"/>
	<path fill="#FFFFFF" d="M20.7,61.3l-5.1,5.1l6,6l1.5-1.5l-4.9-4.9l2.2-2.2l4.9,4.9l1.5-1.5L20.7,61.3z"/>
	<path fill="#FFFFFF" d="M27.9,58.9l-2.3,2.3l-1.3-1.3l2.7-2.7l-1.1-1.1l-4.2,4.2l6,6l4.2-4.2L30.9,61l-2.7,2.7l-1.4-1.4L29,60
		L27.9,58.9z"/>
	<path fill="#FFFFFF" d="M33.1,56.9c0.7-0.7,1.1-1.5,1.2-2.3c0.1-0.8-0.2-1.5-0.8-2c-0.4-0.4-0.9-0.7-1.4-0.8
		c-0.5-0.1-1-0.1-1.5,0.1c-0.5,0.2-1,0.5-1.5,1l-2.4,2.4l6,6l1.5-1.5l-2-2L33.1,56.9z M29.3,54.9l1-1c0.3-0.3,0.6-0.4,0.9-0.4
		c0.3,0,0.6,0.2,0.9,0.4c0.3,0.3,0.4,0.5,0.4,0.8c0,0.3-0.2,0.6-0.4,0.9l-1,1L29.3,54.9z"/>
	<path fill="#FFFFFF" d="M38.4,55.7l4.5-4.5l1.5,1.5l1.4-1.4l-2.5-2.6l-0.9,0.9l-4.9-4.9L36,46l4.9,4.9l-2.2,2.2l-4.9-4.9l-1.4,1.4
		L38.4,55.7z"/>
	<path fill="#FFFFFF" d="M45.4,41.4l-2.3,2.3l-1.3-1.3l2.7-2.7l-1.1-1.1l-4.2,4.2l6,6l4.2-4.2l-1.1-1.1l-2.7,2.7l-1.4-1.4l2.3-2.3
		L45.4,41.4z"/>
	<path fill="#FFFFFF" d="M49.2,32.8l-1.4,1.4l2.4,2.4L48,38.8l-2.4-2.4l-1.5,1.5l6,6l1.5-1.5l-2.5-2.5l2.1-2.1l2.5,2.5l1.4-1.4
		L49.2,32.8z"/>
	<path fill="#FFFFFF" d="M60.3,33.8l1.6-1.6l-8.3-3.8l-1.4,1.4l3.8,8.2l1.6-1.6L56.8,35l2-2L60.3,33.8z M54.6,30.8l2.7,1.4L56,33.6
		L54.6,30.8z"/>
</g>
</svg>
