<?xml version="1.0" encoding="utf-8"?>
<!-- Generator: Adobe Illustrator 21.0.0, SVG Export Plug-In . SVG Version: 6.00 Build 0)  -->
<svg version="1.1" id="Слой_1" xmlns="http://www.w3.org/2000/svg" xmlns:xlink="http://www.w3.org/1999/xlink" x="0px" y="0px"
	 viewBox="0 0 30 30" enable-background="new 0 0 30 30" xml:space="preserve">
<g id="Inst">
	<circle id="inst_3_" fill="#993399" cx="15" cy="15" r="15"/>
	<g>
		<path id="inst_2_" fill="#FFFFFF" d="M18.8,6.5h-7.6c-2.6,0-4.7,2.1-4.7,4.7v7.6c0,2.6,2.1,4.7,4.7,4.7h7.6c2.6,0,4.7-2.1,4.7-4.7
			v-7.6C23.5,8.6,21.4,6.5,18.8,6.5z M22,18.8c0,1.8-1.4,3.2-3.2,3.2h-7.6C9.4,22,8,20.6,8,18.8v-7.6C8,9.4,9.4,8,11.2,8h7.6
			c1.8,0,3.2,1.4,3.2,3.2L22,18.8L22,18.8z"/>
		<path id="inst_1_" fill="#FFFFFF" d="M15,10.6c-2.4,0-4.4,2-4.4,4.4c0,2.4,2,4.4,4.4,4.4s4.4-2,4.4-4.4
			C19.4,12.6,17.4,10.6,15,10.6z M15,17.9c-1.6,0-2.9-1.3-2.9-2.9c0-1.6,1.3-2.9,2.9-2.9s2.9,1.3,2.9,2.9
			C17.9,16.6,16.6,17.9,15,17.9z"/>
		<path id="inst" fill="#FFFFFF" d="M19.6,9.3c-0.3,0-0.6,0.1-0.8,0.3c-0.2,0.2-0.3,0.5-0.3,0.8c0,0.3,0.1,0.6,0.3,0.8
			c0.2,0.2,0.5,0.3,0.8,0.3c0.3,0,0.6-0.1,0.8-0.3c0.2-0.2,0.3-0.5,0.3-0.8c0-0.3-0.1-0.6-0.3-0.8C20.1,9.5,19.9,9.3,19.6,9.3z"/>
	</g>
</g>
</svg>
