<?xml version="1.0" encoding="utf-8"?>
<!-- Generator: Adobe Illustrator 21.0.0, SVG Export Plug-In . SVG Version: 6.00 Build 0)  -->
<svg version="1.1" id="hotsale" xmlns="http://www.w3.org/2000/svg" xmlns:xlink="http://www.w3.org/1999/xlink" x="0px" y="0px"
	 viewBox="0 0 80 54" enable-background="new 0 0 80 54" xml:space="preserve">
<path id="fire_1_" fill="#FF3300" d="M47.3,43.4c3-1.2,5.6,0.5,6.7,2.2c1.2-5.1-0.7-6.1-1.8-7c11.4,2.2,12.4-8.8,18.7-8.8
	c-5.2-4.2-11.4,3.6-16.5-0.7c4.8,0.8,11.4-2.8,11.4-11.6C65.8,9,72.1,5.6,78,9.6c-5.2-8.8-16.2-8.7-21.9,0.2
	c-3.7,5.7-7,5.2-10.9,4.6C50.4,13,54.2,7.9,50.9,1c0.1,1.7-0.1,4.7-2.7,6.9c-1.8,1.5-4,2.2-6.4,2.5c-2.8,0.3-4.2-0.2-4.2-0.2
	s0.8-0.2,2.1-1.6c1.6-1.8,2-4.2,2.1-5.4c-3.2,2.9-4.9,3.6-13.8,4.2c-3.6,0.2-7.1,0.9-9.6,1.7C8.5,11.8,2,20.5,2,30.4
	c0,5,1.1,8,2,10.1C8.3,50.1,18.3,54,29,54C38.8,54,46.1,43.9,47.3,43.4z"/>
<linearGradient id="fire_2_" gradientUnits="userSpaceOnUse" x1="11.7183" y1="49.1836" x2="65.5046" y2="-4.6027">
	<stop  offset="0" style="stop-color:#FF3300"/>
	<stop  offset="0.9944" style="stop-color:#FFCC00"/>
</linearGradient>
<path id="fire" fill="url(#fire_2_)" d="M47.3,42.4c3-1.2,5.6,0.5,6.7,2.2c1.2-5.1-0.7-6.1-1.8-7c11.4,2.2,12.4-8.8,18.7-8.8
	c-5.2-4.2-11.4,3.6-16.5-0.7c4.8,0.8,11.4-2.8,11.4-11.6C65.8,8,72.1,4.6,78,8.6c-5.2-8.8-16.2-8.7-21.9,0.2
	c-3.7,5.7-7,5.2-10.9,4.6C50.4,12,54.2,6.9,50.9,0c0.1,1.7-0.1,4.7-2.7,6.9c-1.8,1.5-4,2.2-6.4,2.5c-2.8,0.3-4.2-0.2-4.2-0.2
	s0.8-0.2,2.1-1.6c1.6-1.8,2-4.2,2.1-5.4c-3.2,2.9-4.9,3.6-13.8,4.2c-3.6,0.2-7.1,0.9-9.6,1.7C8.5,10.8,2,19.5,2,29.4
	c0,5,1.1,8,2,10.1C8.3,49.1,18.3,53,29,53C38.8,53,46.1,42.9,47.3,42.4z"/>
<g id="hit_1_">
	<path fill="#FF3300" d="M14.9,17h-3.3l3.4,6l-3.5,6h3.4l2-4.1l2,4.1h3.4l-3.5-6l3.4-6h-3.3l-2,4L14.9,17z"/>
	<path fill="#FF3300" d="M26,24.6V17h-2.9v12H26l4.3-7.6V29h2.9V17h-2.9L26,24.6z"/>
	<path fill="#FF3300" d="M44.3,17H34.2v2.2h3.6V29h2.9v-9.8h3.6V17z"/>
	<path fill="#FF3300" d="M13.8,32.1h-5v6.8h1.4v-5.7h2.1v5.7h1.4V32.1z"/>
	<path fill="#FF3300" d="M17.3,36.5c0.7,0,1.3-0.2,1.7-0.6c0.4-0.4,0.6-0.9,0.6-1.6c0-0.7-0.2-1.2-0.6-1.6c-0.4-0.4-1-0.6-1.7-0.6
		h-2.4v6.8h1.4v-2.4H17.3z M16.4,33.2h1c0.3,0,0.5,0.1,0.6,0.3c0.2,0.2,0.2,0.5,0.2,0.8c0,0.3-0.1,0.6-0.2,0.7
		c-0.1,0.2-0.4,0.3-0.6,0.3h-1V33.2z"/>
	<path fill="#FF3300" d="M25.6,34.9c0-0.9-0.2-1.7-0.7-2.2c-0.5-0.5-1.1-0.8-1.9-0.8c-0.8,0-1.4,0.3-1.9,0.8
		c-0.5,0.5-0.7,1.3-0.7,2.2v1.2c0,0.9,0.2,1.6,0.7,2.1c0.5,0.5,1.1,0.8,1.9,0.8c0.8,0,1.4-0.3,1.9-0.8c0.5-0.5,0.7-1.2,0.7-2.1V34.9
		z M24.2,36.2c0,0.6-0.1,1-0.3,1.3c-0.2,0.3-0.5,0.4-0.8,0.4c-0.4,0-0.7-0.1-0.9-0.4c-0.2-0.3-0.3-0.7-0.3-1.3v-1.2
		c0-0.6,0.1-1,0.3-1.3c0.2-0.3,0.5-0.4,0.8-0.4c0.4,0,0.7,0.1,0.8,0.4c0.2,0.3,0.3,0.8,0.3,1.4V36.2z"/>
	<path fill="#FF3300" d="M32.3,38h-0.7v-6h-4.1l-0.2,3.4c0,0.7-0.1,1.3-0.3,1.7c-0.1,0.4-0.3,0.7-0.5,0.9h-0.5l0.1,3h1.4v-1.8h3.4
		V41h1.3L32.3,38z M28.7,35.2l0.1-2h1.3V38h-2.1C28.4,37.3,28.7,36.4,28.7,35.2L28.7,35.2z"/>
	<path fill="#FF3300" d="M36.9,38.9h1.5l-2.2-6.8h-1.3l-2.2,6.8h1.5l0.4-1.4h2L36.9,38.9z M35.5,33.9l0.7,2.4h-1.3L35.5,33.9z"/>
	<path fill="#FF3300" d="M45.5,38.9h1.8l-1.8-3.7l1.7-3.1h-1.8l-1.1,2.7h-0.6v-2.7h-1.4v2.7h-0.6l-1.2-2.7h-1.8l1.7,3.1l-1.8,3.7
		h1.8l1.1-2.8h0.7v2.8h1.4v-2.8h0.7L45.5,38.9z"/>
</g>
<g id="hit">
	<path fill="#FFFFFF" d="M14.9,18h-3.3l3.4,6l-3.5,6h3.4l2-4.1l2,4.1h3.4l-3.5-6l3.4-6h-3.3l-2,4L14.9,18z"/>
	<path fill="#FFFFFF" d="M26,25.6V18h-2.9v12H26l4.3-7.6V30h2.9V18h-2.9L26,25.6z"/>
	<path fill="#FFFFFF" d="M44.3,18H34.2v2.2h3.6V30h2.9v-9.8h3.6V18z"/>
	<path fill="#FFFFFF" d="M13.8,33.1h-5v6.8h1.4v-5.7h2.1v5.7h1.4V33.1z"/>
	<path fill="#FFFFFF" d="M17.3,37.5c0.7,0,1.3-0.2,1.7-0.6c0.4-0.4,0.6-0.9,0.6-1.6c0-0.7-0.2-1.2-0.6-1.6c-0.4-0.4-1-0.6-1.7-0.6
		h-2.4v6.8h1.4v-2.4H17.3z M16.4,34.2h1c0.3,0,0.5,0.1,0.6,0.3c0.2,0.2,0.2,0.5,0.2,0.8c0,0.3-0.1,0.6-0.2,0.7
		c-0.1,0.2-0.4,0.3-0.6,0.3h-1V34.2z"/>
	<path fill="#FFFFFF" d="M25.6,35.9c0-0.9-0.2-1.7-0.7-2.2c-0.5-0.5-1.1-0.8-1.9-0.8c-0.8,0-1.4,0.3-1.9,0.8
		c-0.5,0.5-0.7,1.3-0.7,2.2v1.2c0,0.9,0.2,1.6,0.7,2.1c0.5,0.5,1.1,0.8,1.9,0.8c0.8,0,1.4-0.3,1.9-0.8c0.5-0.5,0.7-1.2,0.7-2.1V35.9
		z M24.2,37.2c0,0.6-0.1,1-0.3,1.3c-0.2,0.3-0.5,0.4-0.8,0.4c-0.4,0-0.7-0.1-0.9-0.4c-0.2-0.3-0.3-0.7-0.3-1.3v-1.2
		c0-0.6,0.1-1,0.3-1.3c0.2-0.3,0.5-0.4,0.8-0.4c0.4,0,0.7,0.1,0.8,0.4c0.2,0.3,0.3,0.8,0.3,1.4V37.2z"/>
	<path fill="#FFFFFF" d="M32.3,39h-0.7v-6h-4.1l-0.2,3.4c0,0.7-0.1,1.3-0.3,1.7c-0.1,0.4-0.3,0.7-0.5,0.9h-0.5l0.1,3h1.4v-1.8h3.4
		V42h1.3L32.3,39z M28.7,36.2l0.1-2h1.3V39h-2.1C28.4,38.3,28.7,37.4,28.7,36.2L28.7,36.2z"/>
	<path fill="#FFFFFF" d="M36.9,39.9h1.5l-2.2-6.8h-1.3l-2.2,6.8h1.5l0.4-1.4h2L36.9,39.9z M35.5,34.9l0.7,2.4h-1.3L35.5,34.9z"/>
	<path fill="#FFFFFF" d="M45.5,39.9h1.8l-1.8-3.7l1.7-3.1h-1.8l-1.1,2.7h-0.6v-2.7h-1.4v2.7h-0.6l-1.2-2.7h-1.8l1.7,3.1l-1.8,3.7
		h1.8l1.1-2.8h0.7v2.8h1.4v-2.8h0.7L45.5,39.9z"/>
</g>
</svg>
