<?xml version="1.0" encoding="utf-8"?>
<!-- Generator: Adobe Illustrator 21.0.0, SVG Export Plug-In . SVG Version: 6.00 Build 0)  -->
<svg version="1.1" id="mail_1_" xmlns="http://www.w3.org/2000/svg" xmlns:xlink="http://www.w3.org/1999/xlink" x="0px" y="0px"
	 viewBox="0 0 20 16" enable-background="new 0 0 20 16" xml:space="preserve">
<g id="mail">
	<path fill="#2C2C2C" d="M18.2,16c0.4,0,0.8-0.2,1.2-0.4l-5.7-5.8c-0.1,0.1-2,1.4-2.5,1.6c-0.4,0.2-0.9,0.3-1.2,0.3
		s-0.8-0.1-1.2-0.3c-0.4-0.2-2.3-1.5-2.5-1.6l-5.7,5.8C0.9,15.8,1.3,16,1.8,16H18.2z"/>
	<path fill="#2C2C2C" d="M1.1,6.1C0.7,5.9,0.3,5.5,0,5.2v8.8l5-5.1C4,8.1,2.7,7.2,1.1,6.1z"/>
	<path fill="#2C2C2C" d="M18.9,6.1c-1.5,1-2.8,1.9-3.9,2.7l5,5.1V5.2C19.7,5.5,19.3,5.9,18.9,6.1z"/>
	<path fill="#2C2C2C" d="M18.2,0H1.8c-0.6,0-1,0.2-1.3,0.6C0.2,1,0,1.5,0,2.1c0,0.5,0.2,1,0.6,1.6c0.4,0.6,0.8,1,1.3,1.3
		c0.3,0.2,6.6,4.7,6.9,4.8C9,9.9,9.2,10,9.4,10.1c0.2,0.1,0.9,0.1,1.1,0c0.2-0.1,0.4-0.2,0.6-0.3c0.2-0.1,5.1-3.6,6.9-4.8
		c0.5-0.4,1-0.9,1.4-1.4C19.8,3,20,2.4,20,1.8c0-0.5-0.2-0.9-0.5-1.3C19.1,0.2,18.7,0,18.2,0z"/>
</g>
</svg>
