<?xml version="1.0" encoding="utf-8"?>
<!-- Generator: Adobe Illustrator 21.0.0, SVG Export Plug-In . SVG Version: 6.00 Build 0)  -->
<svg version="1.1" id="cart" xmlns="http://www.w3.org/2000/svg" xmlns:xlink="http://www.w3.org/1999/xlink" x="0px" y="0px"
	 viewBox="0 0 42 40" enable-background="new 0 0 42 40" xml:space="preserve">
<g id="ShoppingCart">
	<path fill="#CCCCCC" d="M41,6H11L9,2c0,0-0.9-2-3-2H1C0.6,0,0,0.6,0,1s0.6,1,1,1h4c1.4,0,2.8,2.6,3,4l3,20c0.3,2.1,2,4,5,4h21
		c0.4,0,1-0.6,1-1c0-0.4-0.6-1-1-1H16c-1.4,0-2.8-1.6-3-3v-3h21c1.8,0,3.4-1.3,4-3l4-11C42,6,41,6,41,6z"/>
	<circle fill="#CCCCCC" cx="31" cy="36" r="4"/>
	<circle fill="#CCCCCC" cx="16" cy="36" r="4"/>
</g>
</svg>
