<?xml version="1.0" encoding="utf-8"?>
<!-- Generator: Adobe Illustrator 21.0.0, SVG Export Plug-In . SVG Version: 6.00 Build 0)  -->
<svg version="1.1" id="help" xmlns="http://www.w3.org/2000/svg" xmlns:xlink="http://www.w3.org/1999/xlink" x="0px" y="0px"
	 viewBox="0 0 60 60" enable-background="new 0 0 60 60" xml:space="preserve">
<g id="chat">
	<linearGradient id="r_1_" gradientUnits="userSpaceOnUse" x1="0" y1="30" x2="60" y2="30">
		<stop  offset="0" style="stop-color:#0066FF"/>
		<stop  offset="0.9944" style="stop-color:#0099FF"/>
	</linearGradient>
	<circle id="r" fill="url(#r_1_)" cx="30" cy="30" r="30"/>
	<path id="_x32_" fill="#FFFFFF" d="M41.4,25.7c0-5.2-5.1-11.7-15.7-11.7S10,20.5,10,25.7s4.1,8.1,5.9,9.1c-0.6,1.7-2.7,3.8-3,4.2
		s0,1.2,0.6,1.2c1.5,0,6.6-1.7,8.2-3.3c1.3,0.2,2.6,0.4,3.9,0.4C36,37.4,41.4,31.2,41.4,25.7z M21.1,33.9l-2.4,1.6l0.8-1.9
		c0,0-6.7-2.9-6.7-7.9c0-3.9,4.7-8.8,12.9-8.8s12.9,4.9,12.9,8.8s-4.7,8.8-12.9,8.8C23.3,34.4,21.1,33.9,21.1,33.9z"/>
	<path id="_x31_" fill="#FFFFFF" d="M50,31.5c0-4.8-3.9-8-6.2-9.3c1.3,4.2,0.4,9.8-5.3,14.1c-4.4,3.4-10.3,3.9-14.8,3.9
		c2.6,1.7,5.9,3,10.5,3c2.4,0,3.9-0.4,3.9-0.4c2.5,2,7.4,3.2,8,3.2c0.7,0,1.2-0.5,0.7-1.2c-0.8-1-2.4-2.5-2.9-4.1
		C46.3,39.3,50,36.3,50,31.5z"/>
</g>
</svg>
