<?xml version="1.0" encoding="utf-8"?>
<!-- Generator: Adobe Illustrator 21.0.0, SVG Export Plug-In . SVG Version: 6.00 Build 0)  -->
<svg version="1.1" id="Слой_1" xmlns="http://www.w3.org/2000/svg" xmlns:xlink="http://www.w3.org/1999/xlink" x="0px" y="0px"
	 viewBox="0 0 30 30" enable-background="new 0 0 30 30" xml:space="preserve">
<g id="Youtube">
	<circle id="youtube_1_" fill="#CC0000" cx="15" cy="15" r="15"/>
	<path id="youtube" fill="#FFFFFF" d="M23.2,10c-0.5-0.9-1-1-2.1-1.1c-1.1-0.1-3.8-0.1-6.1-0.1c-2.4,0-5.1,0-6.1,0.1
		C7.8,9,7.3,9.1,6.8,10C6.3,10.9,6,12.4,6,15c0,0,0,0,0,0c0,0,0,0,0,0v0c0,2.6,0.3,4.1,0.8,5c0.5,0.9,1,1,2.1,1.1
		c1.1,0.1,3.8,0.1,6.1,0.1c2.3,0,5.1,0,6.1-0.1c1.1-0.1,1.6-0.2,2.1-1.1c0.5-0.9,0.8-2.4,0.8-5c0,0,0,0,0,0c0,0,0,0,0,0
		C24,12.4,23.7,10.9,23.2,10z M12.8,18.4v-6.8l5.6,3.4L12.8,18.4z"/>
</g>
</svg>
