<?xml version="1.0" encoding="utf-8"?>
<!-- Generator: Adobe Illustrator 21.0.0, SVG Export Plug-In . SVG Version: 6.00 Build 0)  -->
<svg version="1.1" id="filter_1_" xmlns="http://www.w3.org/2000/svg" xmlns:xlink="http://www.w3.org/1999/xlink" x="0px" y="0px"
	 viewBox="0 0 16 16" enable-background="new 0 0 16 16" xml:space="preserve">
<g id="filter">
	<path fill="#333333" d="M8,0C3.6,0,0,1.4,0,3.2c0,0.5,0.2,0.9,0.7,1.3h0L6,8.9v5.1c0,0,0,0.6,1.3,1.3C9.1,16.2,10,16,10,16v-7
		l5.3-4.5h0C15.8,4.1,16,3.6,16,3.2C16,1.4,12.4,0,8,0z M8,5.1c-3.3,0-6-0.9-6-1.9s2.7-1.9,6-1.9s6,0.9,6,1.9S11.3,5.1,8,5.1z"/>
</g>
</svg>
