<?xml version="1.0" encoding="utf-8"?>
<!-- Generator: Adobe Illustrator 21.0.0, SVG Export Plug-In . SVG Version: 6.00 Build 0)  -->
<svg version="1.1" id="Слой_1" xmlns="http://www.w3.org/2000/svg" xmlns:xlink="http://www.w3.org/1999/xlink" x="0px" y="0px"
	 viewBox="0 0 30 30" enable-background="new 0 0 30 30" xml:space="preserve">
<g id="OkHover">
	<circle id="bg_13_" fill="#EC8125" cx="15" cy="15" r="15"/>
	<path id="Ok_1_" fill="#FFFFFF" d="M10,10c0-2.8,2.2-5,5-5s5,2.2,5,5c0,2.8-2.2,5-5,5S10,12.8,10,10z M17.5,10
		c0-1.4-1.1-2.5-2.5-2.5c-1.4,0-2.5,1.1-2.5,2.5c0,1.4,1.1,2.5,2.5,2.5S17.5,11.4,17.5,10z M19.5,17.6c-1.1,0.7-2.5,1-3.5,1.1l3.8,4
		c0.5,0.5,0.4,1.3,0,1.7c-0.4,0.4-1.2,0.7-1.8,0.1l-3-3.2l-3,3.2c-0.6,0.6-1.3,0.3-1.8-0.1c-0.5-0.5-0.5-1.3,0-1.7
		c0.8-0.8,3.8-4,3.8-4c-1-0.1-2.4-0.4-3.5-1.1c-1.3-0.9-1.8-1.4-1.3-2.4c0.3-0.6,1.1-1.1,2.1-0.2c1.7,1.5,5.6,1.6,7.4,0
		c1-0.9,1.8-0.4,2.1,0.2C21.3,16.2,20.8,16.7,19.5,17.6z"/>
</g>
</svg>
