<?xml version="1.0" encoding="utf-8"?>
<!-- Generator: Adobe Illustrator 21.0.0, SVG Export Plug-In . SVG Version: 6.00 Build 0)  -->
<svg version="1.1" id="logo" xmlns="http://www.w3.org/2000/svg" xmlns:xlink="http://www.w3.org/1999/xlink" x="0px" y="0px"
	 viewBox="0 0 200 46" enable-background="new 0 0 200 46" xml:space="preserve">
<g id="home">
	<polygon fill="#0066FF" points="25,0 14,11 14,5 8,5 8,17 0,25 4,29 25,8 46,29 50,25 	"/>
	<polygon fill="#0066FF" points="38,24 34,20 30,20 17,33 23,39 29,33 42,46 45,43 32,30 	"/>
	<polygon fill="#0066FF" points="21,27 18,24 23,19 26,22 29,19 33,19 25,11 7,29 7,46 19,46 19,37 15,33 	"/>
	<polygon fill="#0066FF" points="44,40 44,30 39,25 34,30 	"/>
	<polygon fill="#0066FF" points="30,46 40,46 30,36 	"/>
	
		<rect x="20.4" y="22.1" transform="matrix(0.7071 -0.7071 0.7071 0.7071 -10.0269 22.7929)" fill="#0066FF" width="4.2" height="2.8"/>
</g>
<g id="mosstroitel">
	<path fill="#2D2D2D" d="M190,19v12h6c2.8,0,4-1.8,4-4c0-2.2-1.2-4-4-4h-3v-4H190z M197,27c0,0.7-0.6,1-1.3,1H193v-2h2.7
		C196.4,26,197,26.3,197,27z"/>
	<path fill="#2D2D2D" d="M178,31c2.6,0,4,0,5-4l1-5h2v9h3V19h-8l-1,6c-0.3,2.2-1,3-2,3V31z"/>
	<path fill="#2D2D2D" d="M177,31v-3h-6v-1.5h5v-3h-5V22h6v-3h-9v12H177z"/>
	<path fill="#2D2D2D" d="M164,31v-9h3v-3h-9v3h3v9H164z"/>
	<path fill="#2D2D2D" d="M149,31l5-7v7h3V19h-3l-5,7v-7h-3v12H149z"/>
	<path fill="#2D2D2D" d="M139,19c-3.3,0-6,2.7-6,6s2.7,6,6,6s6-2.7,6-6S142.3,19,139,19z M139,28c-1.7,0-3-1.3-3-3s1.3-3,3-3
		s3,1.3,3,3S140.7,28,139,28z"/>
	<path fill="#2D2D2D" d="M125,31v-4h3c2.8,0,4-1.8,4-4c0-2.2-1.2-4-4-4h-6v12H125z M127.7,24H125v-2h2.7c0.7,0,1.3,0.3,1.3,1
		C129,23.7,128.4,24,127.7,24z"/>
	<path fill="#2D2D2D" d="M118,31v-9h3v-3h-9v3h3v9H118z"/>
	<path fill="#2D2D2D" d="M108.5,26.7c-0.5,0.8-1.4,1.3-2.5,1.3c-1.7,0-3-1.3-3-3s1.3-3,3-3c1,0,1.9,0.5,2.5,1.3l3-0.8
		c-1-2-3-3.4-5.4-3.4c-3.3,0-6,2.7-6,6s2.7,6,6,6c2.4,0,4.5-1.4,5.4-3.4L108.5,26.7z"/>
	<path fill="#2D2D2D" d="M96.5,26.7C95.9,27.5,95,28,94,28c-1.7,0-3-1.3-3-3s1.3-3,3-3c1,0,1.9,0.5,2.5,1.3l3-0.8
		c-1-2-3-3.4-5.4-3.4c-3.3,0-6,2.7-6,6s2.7,6,6,6c2.4,0,4.5-1.4,5.4-3.4L96.5,26.7z"/>
	<path fill="#2D2D2D" d="M81,19c-3.3,0-6,2.7-6,6s2.7,6,6,6s6-2.7,6-6S84.3,19,81,19z M81,28c-1.7,0-3-1.3-3-3s1.3-3,3-3s3,1.3,3,3
		S82.7,28,81,28z"/>
	<path fill="#2D2D2D" d="M74,31V19h-4l-2.5,6L65,19l-4,0v12h3v-7l3,7h1l3-7v7H74z"/>
</g>
</svg>
