<?xml version="1.0" encoding="utf-8"?>
<!-- Generator: Adobe Illustrator 21.0.0, SVG Export Plug-In . SVG Version: 6.00 Build 0)  -->
<svg version="1.1" id="Слой_1" xmlns="http://www.w3.org/2000/svg" xmlns:xlink="http://www.w3.org/1999/xlink" x="0px" y="0px"
	 viewBox="0 0 20 20" style="enable-background:new 0 0 20 20;" xml:space="preserve">
<style type="text/css">
	.st0{fill:#33CC33;}
</style>
<path id="Bonus" class="st0" d="M18.7,3.9h-1.5c0.2-0.3,0.3-0.6,0.4-1c0.1-1.2-0.5-2.2-1.5-2.6c-1-0.4-2-0.2-2.8,0.4l-1.8,1.7
	C11.1,2,10.6,1.7,10,1.7C9.4,1.7,8.9,2,8.6,2.3L6.7,0.7C5.9,0,4.9-0.2,3.9,0.2c-1,0.5-1.6,1.5-1.5,2.6c0,0.4,0.2,0.7,0.4,1H1.3
	C0.6,3.9,0,4.5,0,5.2v2c0,0.4,0.3,0.7,0.7,0.7h18.7c0.4,0,0.7-0.3,0.7-0.7v-2C20,4.5,19.4,3.9,18.7,3.9z M8,3.7v0.2H5
	c-0.8,0-1.4-0.8-1.2-1.6c0.1-0.4,0.4-0.7,0.7-0.9c0.5-0.2,1-0.1,1.4,0.2L8,3.7C8,3.7,8,3.7,8,3.7z M16.3,2.7c0,0.7-0.7,1.2-1.3,1.2
	h-3V3.7c0,0,0,0,0,0c0.5-0.5,1.6-1.4,2.2-2c0.3-0.3,0.8-0.4,1.2-0.3C16,1.5,16.3,2.1,16.3,2.7z M1.3,9.1v9.6c0,0.7,0.6,1.3,1.3,1.3
	h6.1V9.1H1.3z M11.3,9.1V20h6.1c0.7,0,1.3-0.6,1.3-1.3V9.1H11.3L11.3,9.1z"/>
</svg>
