<?xml version="1.0" encoding="utf-8"?>
<!-- Generator: Adobe Illustrator 21.0.0, SVG Export Plug-In . SVG Version: 6.00 Build 0)  -->
<svg version="1.1" id="Слой_1" xmlns="http://www.w3.org/2000/svg" xmlns:xlink="http://www.w3.org/1999/xlink" x="0px" y="0px"
	 viewBox="0 0 20 20" style="enable-background:new 0 0 20 20;" xml:space="preserve">
<style type="text/css">
	.st0{fill:#33CC33;}
</style>
<path id="Live" class="st0" d="M7.8,12.8v-1.4c-1.3-0.9-2.1-2.7-2.2-4.6c0-0.2,0.1-0.3,0.2-0.5c0.1-0.1,0.3-0.2,0.5-0.2h0
	C7.9,6.1,9.5,4,9.5,4C9.6,3.8,9.8,3.7,10,3.7c0.2,0,0.4,0.1,0.5,0.3c0,0,1.5,2.1,3.2,2.1c0.2,0,0.3,0.1,0.5,0.2
	c0.1,0.1,0.2,0.3,0.2,0.5c0,1.9-0.9,3.7-2.2,4.6v1.4l5.2,1.3c0.4-0.5,0.6-1.1,0.6-1.8c0-0.4-0.1-0.8-0.2-1.1c0,0,0,0,0,0
	c-0.3-0.6-0.4-1.3-0.6-2c-0.1-0.5-0.1-0.9-0.2-1.3c-0.1-2.1-0.9-4-2.2-5.5C13.6,0.8,11.8,0,10,0C8.1,0,6.3,0.9,5,2.5
	c-1.2,1.4-1.9,3.3-2,5.3c0,0.4-0.1,0.8-0.2,1.3c-0.1,0.3-0.1,0.7-0.2,1c-0.1,0.3-0.2,0.7-0.3,1C2.1,11.4,2,11.8,2,12.2
	c0,0.7,0.2,1.3,0.5,1.8L7.8,12.8z M11.6,14l-0.2-0.1c-0.3-0.1-0.5-0.3-0.5-0.6V12c-0.3,0.1-0.6,0.1-0.9,0.1s-0.6,0-0.9-0.1v1.3
	c0,0.3-0.2,0.5-0.5,0.6L8.4,14l1.6,1.3L11.6,14z M13.7,14.5l0,5.5h2.4c0.4,0,0.6-0.3,0.6-0.6v-4.2L13.7,14.5z M6.3,14.5l-3.1,0.7
	v4.2c0,0.4,0.3,0.6,0.6,0.6h2.4V14.5z M12.4,14.9l-2.1,1.6c-0.1,0.1-0.3,0.1-0.4,0.1s-0.3,0-0.4-0.1l-2.1-1.6V20h4.9L12.4,14.9z"/>
</svg>
