<?xml version="1.0" encoding="utf-8"?>
<!-- Generator: Adobe Illustrator 21.0.0, SVG Export Plug-In . SVG Version: 6.00 Build 0)  -->
<svg version="1.1" id="Слой_1" xmlns="http://www.w3.org/2000/svg" xmlns:xlink="http://www.w3.org/1999/xlink" x="0px" y="0px"
	 viewBox="0 0 20 20" style="enable-background:new 0 0 20 20;" xml:space="preserve">
<style type="text/css">
	.st0{fill:#33CC33;}
</style>
<path id="New" class="st0" d="M19.4,8.8h-2.2l-5.4-6.3c0.1-0.2,0.1-0.4,0.1-0.6C11.9,0.8,11,0,10,0S8.1,0.8,8.1,1.9
	c0,0.2,0,0.4,0.1,0.6L2.8,8.8H0.6C0.3,8.8,0,9,0,9.4v10C0,19.7,0.3,20,0.6,20h18.8c0.3,0,0.6-0.3,0.6-0.6v-10
	C20,9,19.7,8.8,19.4,8.8z M10,1.2c0.3,0,0.6,0.3,0.6,0.6S10.3,2.5,10,2.5S9.4,2.2,9.4,1.9S9.7,1.2,10,1.2z M9,3.5
	c0.3,0.2,0.6,0.3,1,0.3s0.7-0.1,1-0.3l4.5,5.3h-11L9,3.5z M6.8,17.6c0,0.4-0.3,0.7-0.6,0.8c-0.1,0-0.1,0-0.2,0
	c-0.3,0-0.6-0.2-0.7-0.4l-1.7-3.4v3.1c0,0.4-0.4,0.8-0.8,0.8s-0.8-0.4-0.8-0.8v-6.5c0-0.4,0.3-0.7,0.6-0.8c0.4-0.1,0.7,0.1,0.9,0.4
	l1.7,3.4v-3.1c0-0.4,0.4-0.8,0.8-0.8c0.4,0,0.8,0.4,0.8,0.8V17.6z M10.8,13.6c0.4,0,0.8,0.4,0.8,0.8s-0.4,0.8-0.8,0.8H10v1.6h0.8
	c0.4,0,0.8,0.4,0.8,0.8c0,0.4-0.4,0.8-0.8,0.8H9.2c-0.4,0-0.8-0.4-0.8-0.8v-6.5c0-0.4,0.4-0.8,0.8-0.8h1.6c0.4,0,0.8,0.4,0.8,0.8
	c0,0.4-0.4,0.8-0.8,0.8H10v1.6H10.8z M18.1,17.6c0,0.4-0.3,0.7-0.6,0.8c-0.1,0-0.1,0-0.2,0c-0.3,0-0.6-0.2-0.7-0.4l-0.9-1.8L14.8,18
	c-0.2,0.3-0.5,0.5-0.9,0.4c-0.4-0.1-0.6-0.4-0.6-0.8v-6.5c0-0.4,0.4-0.8,0.8-0.8s0.8,0.4,0.8,0.8v3.1L15,14c0.3-0.5,1.2-0.5,1.5,0
	l0.1,0.2v-3.1c0-0.4,0.4-0.8,0.8-0.8c0.4,0,0.8,0.4,0.8,0.8V17.6z"/>
</svg>
