<?xml version="1.0" encoding="utf-8"?>
<!-- Generator: Adobe Illustrator 21.0.0, SVG Export Plug-In . SVG Version: 6.00 Build 0)  -->
<svg version="1.1" id="Слой_1" xmlns="http://www.w3.org/2000/svg" xmlns:xlink="http://www.w3.org/1999/xlink" x="0px" y="0px"
	 viewBox="0 0 20 20" style="enable-background:new 0 0 20 20;" xml:space="preserve">
<style type="text/css">
	.st0{fill:#33CC33;}
</style>
<path id="Sport" class="st0" d="M10,0C4.5,0,0,4.5,0,10s4.5,10,10,10s10-4.5,10-10S15.5,0,10,0z M10.6,3.2l2.6-1.4
	c1.4,0.6,2.7,1.5,3.6,2.7l-0.6,2.8l-2,1l-3.6-2.6V3.2z M6.8,1.9l2.6,1.4v2.4L5.8,8.3l-2-1L3.2,4.5C4.1,3.3,5.4,2.4,6.8,1.9z
	 M2.8,14.9c-0.8-1.2-1.3-2.6-1.5-4.1l2.1-2.3l1.9,0.9l1.5,4.1l-1.2,1.5L2.8,14.9z M12.2,18.5c-0.7,0.2-1.5,0.3-2.2,0.3
	c-0.9,0-1.8-0.1-2.7-0.4l-0.8-2.4l1.3-1.5h4.4l1.2,1.5L12.2,18.5z M14.4,15.1l-1.2-1.4l1.5-4.1l1.9-0.9l2.1,2.3
	c-0.1,1.3-0.5,2.5-1.2,3.6L14.4,15.1z"/>
</svg>
