<?xml version="1.0" encoding="utf-8"?>
<!-- Generator: Adobe Illustrator 21.0.0, SVG Export Plug-In . SVG Version: 6.00 Build 0)  -->
<svg version="1.1" id="Слой_1" xmlns="http://www.w3.org/2000/svg" xmlns:xlink="http://www.w3.org/1999/xlink" x="0px" y="0px"
	 viewBox="0 0 20 20" style="enable-background:new 0 0 20 20;" xml:space="preserve">
<style type="text/css">
	.st0{fill:#33CC33;}
</style>
<path id="Table" class="st0" d="M12.1,0H1.3C0.6,0,0,0.6,0,1.3v17.3C0,19.4,0.6,20,1.3,20h10.7c0.7,0,1.3-0.6,1.3-1.3V1.3
	C13.4,0.6,12.8,0,12.1,0z M8.2,12c-0.3,0-0.6-0.1-0.8-0.1v1.5h0.7c0.4,0,0.7,0.3,0.7,0.7s-0.3,0.7-0.7,0.7H5.4
	c-0.4,0-0.7-0.3-0.7-0.7s0.3-0.7,0.7-0.7H6v-1.5C5.8,11.9,5.5,12,5.2,12c-1.4,0-2.5-1-2.5-2.4c0-1.8,2.8-3.6,3.7-4.2
	c0.2-0.1,0.5-0.1,0.7,0c0.6,0.4,3.7,2.3,3.7,4.2C10.7,11,9.6,12,8.2,12z M16.6,2.1l-1.9-0.5v12.6l2.8-10.4C17.8,3,17.3,2.3,16.6,2.1
	z M19.3,6l-0.8-0.5L16.2,14l3.6-6.3C20.2,7.1,20,6.3,19.3,6z"/>
</svg>
