<?xml version="1.0" encoding="utf-8"?>
<!-- Generator: Adobe Illustrator 21.0.0, SVG Export Plug-In . SVG Version: 6.00 Build 0)  -->
<svg version="1.1" id="Слой_1" xmlns="http://www.w3.org/2000/svg" xmlns:xlink="http://www.w3.org/1999/xlink" x="0px" y="0px"
	 viewBox="0 0 20 20" style="enable-background:new 0 0 20 20;" xml:space="preserve">
<style type="text/css">
	.st0{fill:#33CC33;}
</style>
<path id="Tvgames" class="st0" d="M20,14.4V4c0-0.4-0.3-0.6-0.6-0.6h-3.3L17,2c0.2-0.3,0.1-0.7-0.1-0.9c-0.3-0.2-0.6-0.2-0.8,0.1
	L15,2.9l-1.1-1.7c-0.2-0.3-0.6-0.4-0.8-0.1C12.8,1.3,12.8,1.7,13,2l0.9,1.4H0.6C0.3,3.4,0,3.7,0,4v10.3C0,14.7,0.3,15,0.6,15h18.8
	C19.7,15,20,14.7,20,14.4L20,14.4z M11.1,6.8c0.3-0.1,0.6,0.1,0.7,0.4l1.1,3.3l1-3.2c0.1-0.3,0.4-0.5,0.7-0.4
	C14.9,7,15.1,7.3,15,7.7l-1.5,4.7c-0.1,0.3-0.4,0.5-0.7,0.5c-0.3,0-0.5-0.2-0.6-0.5l-1.5-4.7C10.6,7.3,10.7,7,11.1,6.8L11.1,6.8z
	 M5.6,6.8h3.1c0.3,0,0.6,0.3,0.6,0.6S9.1,8.1,8.7,8.1h-1v4.1c0,0.4-0.3,0.6-0.6,0.6s-0.6-0.3-0.6-0.6V8.1h-1C5.3,8.1,5,7.8,5,7.4
	S5.3,6.8,5.6,6.8z M17.5,17.7h-0.9l-0.7-1.5H4.1l-0.7,1.5H2.5c-0.3,0-0.6,0.3-0.6,0.6c0,0.4,0.3,0.6,0.6,0.6h15
	c0.3,0,0.6-0.3,0.6-0.6C18.1,18,17.8,17.7,17.5,17.7L17.5,17.7z"/>
</svg>
