<?xml version="1.0" encoding="utf-8"?>
<!-- Generator: Adobe Illustrator 21.0.0, SVG Export Plug-In . SVG Version: 6.00 Build 0)  -->
<svg version="1.1" id="logo" xmlns="http://www.w3.org/2000/svg" xmlns:xlink="http://www.w3.org/1999/xlink" x="0px" y="0px"
	 viewBox="0 0 50 46" enable-background="new 0 0 50 46" xml:space="preserve">
<g id="home">
	<polygon fill="#0066FF" points="25,0 14,11 14,5 8,5 8,17 0,25 4,29 25,8 46,29 50,25 	"/>
	<polygon fill="#0066FF" points="38,24 34,20 30,20 17,33 23,39 29,33 42,46 45,43 32,30 	"/>
	<polygon fill="#0066FF" points="21,27 18,24 23,19 26,22 29,19 33,19 25,11 7,29 7,46 19,46 19,37 15,33 	"/>
	<polygon fill="#0066FF" points="44,40 44,30 39,25 34,30 	"/>
	<polygon fill="#0066FF" points="30,46 40,46 30,36 	"/>
	
		<rect x="20.4" y="22.1" transform="matrix(0.7071 -0.7071 0.7071 0.7071 -10.0269 22.7929)" fill="#0066FF" width="4.2" height="2.8"/>
</g>
</svg>
