<?xml version="1.0" encoding="utf-8"?>
<!-- Generator: Adobe Illustrator 21.0.0, SVG Export Plug-In . SVG Version: 6.00 Build 0)  -->
<svg version="1.1" id="flag" xmlns="http://www.w3.org/2000/svg" xmlns:xlink="http://www.w3.org/1999/xlink" x="0px" y="0px"
	 width="26px" height="26px" viewBox="0 0 26 26" style="enable-background:new 0 0 26 26;" xml:space="preserve">
<style type="text/css">
	.st0{fill:#0052B4;}
	.st1{fill:#F0F0F0;}
	.st2{fill:#D80027;}
</style>
<g id="flag_x5F_russia">
	<path id="b" class="st0" d="M25.2,17.5c0.5-1.4,0.8-2.9,0.8-4.5s-0.3-3.1-0.8-4.5L13,7L0.8,8.5C0.3,9.9,0,11.4,0,13
		s0.3,3.1,0.8,4.5L13,19L25.2,17.5z"/>
	<path id="w" class="st1" d="M13,0C7.4,0,2.6,3.5,0.8,8.5h24.4C23.4,3.5,18.6,0,13,0z"/>
	<path id="r" class="st2" d="M13,26c5.6,0,10.4-3.5,12.2-8.5H0.8C2.6,22.5,7.4,26,13,26z"/>
</g>
</svg>
