<?xml version="1.0" encoding="utf-8"?>
<!-- Generator: Adobe Illustrator 21.0.0, SVG Export Plug-In . SVG Version: 6.00 Build 0)  -->
<svg version="1.1" id="flag" xmlns="http://www.w3.org/2000/svg" xmlns:xlink="http://www.w3.org/1999/xlink" x="0px" y="0px"
	 width="26px" height="26px" viewBox="0 0 26 26" style="enable-background:new 0 0 26 26;" xml:space="preserve">
<style type="text/css">
	.st0{fill:#D80027;}
	.st1{fill:#EEEEEE;}
</style>
<g id="flag_x5F_turkey">
	<circle id="r_1_" class="st0" cx="13" cy="13" r="13"/>
	<path id="w" class="st1" d="M12.4,10.4l1.2,1.6l1.9-0.6L14.3,13l1.2,1.6L13.6,14l-1.2,1.6l0-2L10.5,13l1.9-0.6L12.4,10.4z
		 M9.2,17.1c-2.3,0-4.1-1.8-4.1-4.1s1.8-4.1,4.1-4.1c0.7,0,1.4,0.2,1.9,0.5C10.2,8.5,9,8,7.6,8c-2.8,0-5,2.3-5,5s2.3,5,5,5
		c1.4,0,2.6-0.5,3.5-1.4C10.5,16.9,9.9,17.1,9.2,17.1z"/>
</g>
</svg>
