<?xml version="1.0" encoding="utf-8"?>
<!-- Generator: Adobe Illustrator 21.0.0, SVG Export Plug-In . SVG Version: 6.00 Build 0)  -->
<svg version="1.1" id="flag" xmlns="http://www.w3.org/2000/svg" xmlns:xlink="http://www.w3.org/1999/xlink" x="0px" y="0px"
	 width="26px" height="26px" viewBox="0 0 26 26" style="enable-background:new 0 0 26 26;" xml:space="preserve">
<style type="text/css">
	.st0{fill:#F0F0F0;}
	.st1{fill:#0052B4;}
	.st2{fill:#D80027;}
</style>
<g id="flag_x5F_united">
	<circle id="w" class="st0" cx="13" cy="13" r="13"/>
	<path id="b_1_" class="st1" d="M2.7,5.1c-1,1.3-1.8,2.9-2.2,4.5h6.8L2.7,5.1z M25.6,9.6c-0.4-1.7-1.2-3.2-2.2-4.5l-4.5,4.5H25.6z
		 M0.4,16.4c0.4,1.7,1.2,3.2,2.2,4.5l4.5-4.5H0.4L0.4,16.4z M20.9,2.7c-1.3-1-2.9-1.8-4.5-2.2v6.8L20.9,2.7z M5.1,23.3
		c1.3,1,2.9,1.8,4.5,2.2v-6.8L5.1,23.3z M9.6,0.4C7.9,0.9,6.4,1.7,5.1,2.7l4.5,4.5V0.4z M16.4,25.6c1.7-0.4,3.2-1.2,4.5-2.2
		l-4.5-4.5V25.6L16.4,25.6z M18.8,16.4l4.5,4.5c1-1.3,1.8-2.9,2.2-4.5H18.8z"/>
	<path id="r" class="st2" d="M25.9,11.3H14.7h0V0.1C14.1,0,13.6,0,13,0c-0.6,0-1.1,0-1.7,0.1v11.2v0H0.1C0,11.9,0,12.4,0,13
		c0,0.6,0,1.1,0.1,1.7h11.2h0v11.2C11.9,26,12.4,26,13,26c0.6,0,1.1,0,1.7-0.1V14.7v0h11.2C26,14.1,26,13.6,26,13
		C26,12.4,26,11.9,25.9,11.3z M16.4,16.4L16.4,16.4l5.8,5.8c0.3-0.3,0.5-0.5,0.8-0.8l-5-5L16.4,16.4L16.4,16.4L16.4,16.4z M9.6,16.4
		L9.6,16.4l-5.8,5.8c0.3,0.3,0.5,0.5,0.8,0.8l5-5V16.4L9.6,16.4z M9.6,9.6L9.6,9.6L3.8,3.8C3.5,4.1,3.3,4.4,3,4.6l5,5L9.6,9.6
		L9.6,9.6z M16.4,9.6L16.4,9.6l5.8-5.8c-0.3-0.3-0.5-0.5-0.8-0.8l-5,5V9.6z"/>
</g>
</svg>
