<?xml version="1.0" encoding="utf-8"?>
<!-- Generator: Adobe Illustrator 21.0.0, SVG Export Plug-In . SVG Version: 6.00 Build 0)  -->
<svg version="1.1" id="flag" xmlns="http://www.w3.org/2000/svg" xmlns:xlink="http://www.w3.org/1999/xlink" x="0px" y="0px"
	 width="26px" height="26px" viewBox="0 0 26 26" style="enable-background:new 0 0 26 26;" xml:space="preserve">
<style type="text/css">
	.st0{fill:#FFDA44;}
	.st1{fill:#D80027;}
</style>
<g id="flag_x5F_germany">
	<path id="y" class="st0" d="M0.8,17.5C2.6,22.5,7.4,26,13,26c5.6,0,10.4-3.5,12.2-8.5v-3.8H0.8V17.5z"/>
	<path id="b" d="M0.8,8.5l0,3.8h24.4l0-3.8C23.4,3.5,18.6,0,13,0C7.4,0,2.6,3.5,0.8,8.5z"/>
	<path id="r" class="st1" d="M0.8,8.5C0.3,9.9,0,11.4,0,13c0,1.6,0.3,3.1,0.8,4.5h24.4c0.5-1.4,0.8-2.9,0.8-4.5
		c0-1.6-0.3-3.1-0.8-4.5H0.8z"/>
</g>
</svg>
