<?xml version="1.0" encoding="utf-8"?>
<!-- Generator: Adobe Illustrator 21.0.0, SVG Export Plug-In . SVG Version: 6.00 Build 0)  -->
<svg version="1.1" id="flag" xmlns="http://www.w3.org/2000/svg" xmlns:xlink="http://www.w3.org/1999/xlink" x="0px" y="0px"
	 width="26px" height="26px" viewBox="0 0 26 26" style="enable-background:new 0 0 26 26;" xml:space="preserve">
<style type="text/css">
	.st0{fill:#D80027;}
	.st1{fill:#FFDA44;}
</style>
<g id="flag_x5F_china">
	<circle id="r" class="st0" cx="13" cy="13" r="13"/>
	<path id="y" class="st1" d="M6.4,7.3l1.2,3.8h4l-3.3,2.4l1.2,3.8L6.4,15l-3.3,2.4l1.3-3.8l-3.3-2.4h4L6.4,7.3z M15.7,20.9l-1-1.2
		l-1.4,0.5l0.8-1.3l-1-1.2l1.5,0.4l0.8-1.3l0.1,1.5l1.5,0.4l-1.4,0.5L15.7,20.9z M17.6,17.5L18,16l-1.2-0.9l1.5,0l0.4-1.4l0.5,1.4
		l1.5,0L19.6,16l0.5,1.4l-1.2-0.9L17.6,17.5z M20.1,9.2l-0.7,1.4l1.1,1.1l-1.5-0.2l-0.7,1.4l-0.3-1.5L16.6,11l1.3-0.7l-0.3-1.5
		l1.1,1.1L20.1,9.2z M15.7,5l-0.1,1.5L17,7.1l-1.5,0.4L15.4,9l-0.8-1.3l-1.5,0.4l1-1.2l-0.8-1.3l1.4,0.6L15.7,5z"/>
</g>
</svg>
