<?xml version="1.0" encoding="utf-8"?>
<!-- Generator: Adobe Illustrator 21.0.0, SVG Export Plug-In . SVG Version: 6.00 Build 0)  -->
<svg version="1.1" id="Слой_1" xmlns="http://www.w3.org/2000/svg" xmlns:xlink="http://www.w3.org/1999/xlink" x="0px" y="0px"
	 width="13px" height="20px" viewBox="0 0 13 20" style="enable-background:new 0 0 13 20;" xml:space="preserve">
<style type="text/css">
	.st0{fill:#0096EF;}
</style>
<path class="st0" d="M11.6,4.3c-0.1-0.2-0.2-0.4-0.3-0.5c-0.3-0.3-0.5-0.8-0.8-1.1c-0.1-0.1-0.3-0.2-0.4-0.3c0,0,0,0,0.1,0.1
	C10.2,1.6,10.3,0.7,10,0H9C8.6,0.5,8.8,1.3,8.5,1.8C8.3,1.8,8.2,1.9,8,1.9C7.3,2.1,6.9,2.5,6.8,3c-1.4,0.2-2.6,1-3,2.6
	C2.5,10.2,0,16,0,19c0,1,0.3,1.2,0.7,0.9C6.5,17.1,13,13,13,7C13,5.9,12.4,5,11.6,4.3z"/>
</svg>
