<?xml version="1.0" encoding="utf-8"?>
<!-- Generator: Adobe Illustrator 21.0.0, SVG Export Plug-In . SVG Version: 6.00 Build 0)  -->
<svg version="1.1" id="Слой_1" xmlns="http://www.w3.org/2000/svg" xmlns:xlink="http://www.w3.org/1999/xlink" x="0px" y="0px"
	 width="13px" height="20px" viewBox="0 0 13 20" style="enable-background:new 0 0 13 20;" xml:space="preserve">
<style type="text/css">
	.st0{fill:#669900;}
	.st1{fill:#C12700;}
	.st2{fill:#820F00;}
	.st3{fill:#EEEEEE;}
</style>
<g>
	<path class="st0" d="M11.2,3.8c-0.3-0.3-0.5-0.8-0.8-1.1c-0.1-0.1-0.3-0.2-0.4-0.3c0,0,0,0,0.1,0.1C10.2,1.6,10.3,0.7,10,0H9
		C8.6,0.5,8.8,1.3,8.5,1.8C8.3,1.8,8.2,1.9,8,1.9C6.3,2.2,6.4,4.3,8.1,4.5c0,0,0,0,0,0c0.2,0.3,0.4,0.7,0.6,1
		C10,7,12.6,5.2,11.2,3.8z"/>
	<path class="st1" d="M13,7c0-4-7.9-6.1-9.2-1.4C2.5,10.2,0,16,0,19c0,1,0.3,1.2,0.7,0.9C6.5,17.1,13,13,13,7z"/>
	<path class="st2" d="M13,7c0-1-0.1-1.3-0.6-2c-1.5,3.2-3.5,5.7-6.6,8c-1.7,1.2-3.4,2.3-5,3.5C0.5,17.1,0,18,0,19.3
		C0,19.7,0.4,20,1,20C5,20,13,12,13,7z"/>
	<path class="st3" d="M6.7,7.1c0.3-1.2,0-2.3-0.6-2.4c-0.6-0.1-1.3,0.8-1.5,2C4.3,7.9,4.6,9,5.1,9.1C5.7,9.2,6.4,8.3,6.7,7.1z"/>
</g>
</svg>
