<svg id="eye" xmlns="http://www.w3.org/2000/svg" width="15.208" height="9.065" viewBox="0 0 15.208 9.065">
  <path id="Path_13774" data-name="Path 13774" d="M7.6,98.725A9.487,9.487,0,0,0,.119,102.9a.6.6,0,0,0,0,.719A9.482,9.482,0,0,0,7.6,107.79a9.487,9.487,0,0,0,7.485-4.172.6.6,0,0,0,0-.719A9.482,9.482,0,0,0,7.6,98.725Zm.208,7.724a3.2,3.2,0,1,1,2.983-2.983A3.2,3.2,0,0,1,7.812,106.449Zm-.1-1.475a1.722,1.722,0,1,1,1.608-1.608A1.72,1.72,0,0,1,7.716,104.975Z" transform="translate(0 -98.725)" fill="#b5b5b5"/>
</svg>
