<?xml version="1.0" encoding="utf-8"?>
<!-- Generator: Adobe Illustrator 21.0.0, SVG Export Plug-In . SVG Version: 6.00 Build 0)  -->
<svg version="1.1" id="ico30_x5F_Bonus03_1_" xmlns="http://www.w3.org/2000/svg" xmlns:xlink="http://www.w3.org/1999/xlink"
	 x="0px" y="0px" viewBox="0 0 30 30" enable-background="new 0 0 30 30" xml:space="preserve">
<g id="ico30_x5F_Bonus03">
	<path fill="#FFCC00" d="M17,7l6-6l2,2v6h-8V7z"/>
	<path fill="#FFCC00" d="M13,7L7,1L5,3v6h8V7z"/>
	<rect x="3" y="14" fill="#FF6666" width="24" height="14"/>
	<rect x="1" y="10" fill="#FF6666" width="28" height="3"/>
	<rect x="12" y="10" fill="#FFCC00" width="6" height="3"/>
	<rect x="13" y="14" fill="#FFCC00" width="4" height="14"/>
	<path fill="#FF9900" d="M26,5v4h-6L26,5z"/>
	<path fill="#FF9900" d="M4,5v4h6L4,5z"/>
	<rect x="14" y="7" fill="#FFCC00" width="2" height="1"/>
	<path fill="#363C43" d="M29,9h-3c0,0,1-1,1-3s-1-5-4-5s-6,5-6,5h-4c0,0-3-5-6-5S3,4,3,6s1,3,1,3H1c-1,0-1,1-1,1v3c0,1,1,1,1,1h1v14
		c0,1,1,1,1,1h24c0,0,1,0,1-1V14h1c0,0,1,0,1-1v-3C30,10,30,9,29,9z M26,7c0,0-1,2-2,2s-4,0-4,0s4.3-2.3,5-3C26,5,26,7,26,7z M17,8
		c0,0,4-6,6-6c1,0,3,1,1,3s-6,4-6,4h-1V8z M14,7h2v1h-2V7z M18,10v3h-6v-3H18z M7,2c2,0,6,6,6,6v1h-1c0,0-4-2-6-4S6,2,7,2z M5,6
		c1,1,5,3,5,3S7,9,6,9S4,7,4,7S4,5,5,6z M1,13v-3h10v3H1z M12,28H3V14h9V28z M17,28h-4V14h4V28z M27,28h-9V14h9V28z M29,13H19v-3h10
		V13z"/>
</g>
</svg>
