<?xml version="1.0" encoding="utf-8"?>
<!-- Generator: Adobe Illustrator 21.0.0, SVG Export Plug-In . SVG Version: 6.00 Build 0)  -->
<svg version="1.1" id="icon_x5F_new" xmlns="http://www.w3.org/2000/svg" xmlns:xlink="http://www.w3.org/1999/xlink" x="0px"
	 y="0px" viewBox="0 0 24 30" enable-background="new 0 0 24 30" xml:space="preserve">
<g id="New">
	
		<linearGradient id="SVGID_1_" gradientUnits="userSpaceOnUse" x1="20.1475" y1="-1.2467" x2="20.1475" y2="24.1731" gradientTransform="matrix(0.9117 0.4109 -0.4109 0.9117 1.4685 -4.281)">
		<stop  offset="0" style="stop-color:#006633"/>
		<stop  offset="0.3104" style="stop-color:#008933"/>
		<stop  offset="0.5" style="stop-color:#009933"/>
		<stop  offset="0.8104" style="stop-color:#23BC33"/>
		<stop  offset="1" style="stop-color:#33CC33"/>
	</linearGradient>
	<path fill="url(#SVGID_1_)" d="M14,0c7.4,7.7,6,19,6,19l-3,10C17,29-2.4,24.9,14,0z"/>
	
		<linearGradient id="SVGID_2_" gradientUnits="userSpaceOnUse" x1="21.9901" y1="23.9596" x2="21.9901" y2="-1.2467" gradientTransform="matrix(0.9117 0.4109 -0.4109 0.9117 1.4685 -4.281)">
		<stop  offset="0.3" style="stop-color:#006633"/>
		<stop  offset="0.7" style="stop-color:#009933"/>
		<stop  offset="0.8863" style="stop-color:#23BC33"/>
		<stop  offset="1" style="stop-color:#33CC33"/>
	</linearGradient>
	<path fill="url(#SVGID_2_)" d="M14,0l3,29c0,0,7-3,7-11C24,13.6,21.4,7.7,14,0z"/>
	
		<linearGradient id="SVGID_3_" gradientUnits="userSpaceOnUse" x1="9.9055" y1="16.3983" x2="9.9055" y2="35.6777" gradientTransform="matrix(0.9605 -0.2782 0.2782 0.9605 -8.4866 -0.6144)">
		<stop  offset="0.4" style="stop-color:#009933"/>
		<stop  offset="0.7725" style="stop-color:#23BC33"/>
		<stop  offset="1" style="stop-color:#33CC33"/>
	</linearGradient>
	<path fill="url(#SVGID_3_)" d="M0,14c11.1,4,17,15,17,15s-2,1-4,1C8.5,30,1.7,28.3,0,14z"/>
	
		<linearGradient id="SVGID_4_" gradientUnits="userSpaceOnUse" x1="8.276" y1="33.2281" x2="12.4486" y2="18.8201" gradientTransform="matrix(0.9605 -0.2782 0.2782 0.9605 -8.4866 -0.6144)">
		<stop  offset="0.4" style="stop-color:#009933"/>
		<stop  offset="0.7725" style="stop-color:#23BC33"/>
		<stop  offset="1" style="stop-color:#33CC33"/>
	</linearGradient>
	<path fill="url(#SVGID_4_)" d="M0,14l17,15C17,29,21.6,16,0,14z"/>
</g>
</svg>
