<?xml version="1.0" encoding="utf-8"?>
<!-- Generator: Adobe Illustrator 21.0.0, SVG Export Plug-In . SVG Version: 6.00 Build 0)  -->
<svg version="1.1" id="Слой_1" xmlns="http://www.w3.org/2000/svg" xmlns:xlink="http://www.w3.org/1999/xlink" x="0px" y="0px"
	 width="20px" height="20px" viewBox="0 0 20 20" style="enable-background:new 0 0 20 20;" xml:space="preserve">
<style type="text/css">
	.st0{fill:#4285F4;}
	.st1{fill:#34A853;}
	.st2{fill:#FBBC05;}
	.st3{fill:#EA4335;}
</style>
<g id="ico_x5F_google">
	<path class="st0" d="M20,10.2c0-0.7-0.1-1.3-0.2-1.9h-9.6v3.8h5.5c-0.2,1.2-1,2.3-2,3v2.5H17C18.9,15.8,20,13.3,20,10.2z"/>
	<path class="st1" d="M10.2,20c2.8,0,5.1-0.9,6.8-2.4l-3.3-2.5c-0.9,0.6-2.1,1-3.5,1c-2.7,0-4.9-1.8-5.7-4.1H1.1v2.6
		C2.8,17.8,6.2,20,10.2,20z"/>
	<path class="st2" d="M4.5,11.9c-0.2-0.6-0.3-1.2-0.3-1.9c0-0.7,0.1-1.3,0.3-1.9V5.5H1.1C0.4,6.9,0,8.4,0,10c0,1.6,0.4,3.1,1.1,4.5
		L4.5,11.9z"/>
	<path class="st3" d="M10.2,4c1.5,0,2.9,0.5,3.9,1.5L17,2.6C15.3,1,13,0,10.2,0c-4,0-7.4,2.3-9.1,5.5l3.4,2.6C5.3,5.7,7.6,4,10.2,4z
		"/>
</g>
</svg>
