<?xml version="1.0" encoding="utf-8"?>
<!-- Generator: Adobe Illustrator 21.0.0, SVG Export Plug-In . SVG Version: 6.00 Build 0)  -->
<svg version="1.1" id="Слой_1" xmlns="http://www.w3.org/2000/svg" xmlns:xlink="http://www.w3.org/1999/xlink" x="0px" y="0px"
	 width="17px" height="17px" viewBox="0 0 17 17" style="enable-background:new 0 0 17 17;" xml:space="preserve">
<style type="text/css">
	.st0{fill:#91250D;}
	.st1{fill:#FFA300;}
	.st2{fill:#FF7E00;}
	.st3{fill:#FFCC00;}
</style>
<g id="ico_x5F_money_x5F_orig">
	<path class="st0" d="M1,6.5c0-0.2,0-0.4,0-0.6C2.4,6.6,4.3,7,6.5,7c0.9,0,1.8-0.1,2.6-0.2C8.1,7.3,7.4,8.1,6.8,9C6.7,9,6.6,9,6.5,9
		C3.5,9,1,7.9,1,6.5z M6,12c0-0.7,0.1-1.4,0.4-2c-2.1,0-4-0.4-5.4-1.1c0,0.2,0,0.4,0,0.6C1,10.8,3.2,11.9,6,12z M6.1,13
		c-2-0.1-3.8-0.5-5.1-1.1c0,0.2,0,0.4,0,0.6C1,13.9,3.5,15,6.5,15c0.1,0,0.2,0,0.3,0C6.5,14.4,6.2,13.7,6.1,13z M6.5,1
		C3.5,1,1,2.1,1,3.5S3.5,6,6.5,6S12,4.9,12,3.5S9.5,1,6.5,1z M12,7c-2.8,0-5,2.2-5,5s2.2,5,5,5s5-2.2,5-5S14.8,7,12,7z"/>
	<path class="st1" d="M0,5.5c0-0.2,0-0.4,0-0.6C1.4,5.6,3.3,6,5.5,6c0.9,0,1.8-0.1,2.6-0.2C7.1,6.3,6.4,7.1,5.8,8C5.7,8,5.6,8,5.5,8
		C2.5,8,0,6.9,0,5.5z M5,11c0-0.7,0.1-1.4,0.4-2C3.2,9,1.3,8.5,0,7.9c0,0.2,0,0.4,0,0.6C0,9.8,2.2,10.9,5,11z M5.1,12
		c-2-0.1-3.8-0.5-5.1-1.1c0,0.2,0,0.4,0,0.6C0,12.9,2.5,14,5.5,14c0.1,0,0.2,0,0.3,0C5.5,13.4,5.2,12.7,5.1,12z M5.5,0
		C2.5,0,0,1.1,0,2.5S2.5,5,5.5,5S11,3.9,11,2.5S8.5,0,5.5,0z M11,6c-2.8,0-5,2.2-5,5s2.2,5,5,5s5-2.2,5-5S13.8,6,11,6z"/>
	<path class="st2" d="M7.1,11.5C7,11.3,7,11.2,7,11c0-2.2,1.8-4,4-4s4,1.8,4,4c0,0.2,0,0.3-0.1,0.5C14.7,9.5,13,8,11,8
		S7.3,9.5,7.1,11.5z M5.5,2c1.4,0,2.6,0.4,3.1,1c0.1-0.2,0.2-0.3,0.2-0.5C8.8,1.7,7.3,1,5.5,1S2.2,1.7,2.2,2.5
		c0,0.2,0.1,0.3,0.2,0.5C2.9,2.4,4.1,2,5.5,2z"/>
	<path class="st3" d="M14.9,10c0,0.2,0.1,0.4,0.1,0.6c0,2.5-1.8,4.4-4,4.4s-4-2-4-4.4c0-0.2,0-0.4,0.1-0.6c0.2,2.2,1.9,3.9,3.9,3.9
		S14.7,12.2,14.9,10z M5.5,3C4.1,3,2.9,2.6,2.4,2C2.3,2.2,2.2,2.3,2.2,2.5C2.2,3.3,3.7,4,5.5,4s3.3-0.7,3.3-1.5
		c0-0.2-0.1-0.3-0.2-0.5C8.1,2.6,6.9,3,5.5,3z"/>
</g>
</svg>
