<?xml version="1.0" encoding="utf-8"?>
<!-- Generator: Adobe Illustrator 21.0.0, SVG Export Plug-In . SVG Version: 6.00 Build 0)  -->
<svg version="1.1" id="Слой_1" xmlns="http://www.w3.org/2000/svg" xmlns:xlink="http://www.w3.org/1999/xlink" x="0px" y="0px"
	 width="22px" height="22px" viewBox="0 0 22 22" style="enable-background:new 0 0 22 22;" xml:space="preserve">
<style type="text/css">
	.st0{fill:#F48225;}
</style>
<g id="ico_x5F_ok">
	<path id="ok_1_" class="st0" d="M6,5c0-2.8,2.2-5,5-5s5,2.2,5,5s-2.2,5-5,5S6,7.8,6,5z M13.5,5c0-1.4-1.1-2.5-2.5-2.5
		C9.6,2.5,8.5,3.6,8.5,5c0,1.4,1.1,2.5,2.5,2.5C12.4,7.5,13.5,6.4,13.5,5z M15.5,13.3C14.4,14,13,14.4,12,14.5l3.8,4.3
		c0.4,0.5,0.4,1.4,0,1.8c-0.4,0.4-1.2,0.7-1.8,0.1l-3-3.4l-3,3.4c-0.6,0.6-1.3,0.3-1.8-0.1c-0.5-0.4-0.4-1.4,0-1.8
		C7,17.9,10,14.5,10,14.5c-1-0.1-2.4-0.4-3.5-1.2c-1.3-1-1.8-1.5-1.3-2.6c0.3-0.6,1.1-1.2,2.1-0.2c1.7,1.6,5.6,1.7,7.4,0
		c1-1,1.8-0.4,2.1,0.2C17.3,11.8,16.8,12.3,15.5,13.3z"/>
</g>
</svg>
