<?xml version="1.0" encoding="utf-8"?>
<!-- Generator: Adobe Illustrator 21.0.0, SVG Export Plug-In . SVG Version: 6.00 Build 0)  -->
<svg version="1.1" id="Слой_1" xmlns="http://www.w3.org/2000/svg" xmlns:xlink="http://www.w3.org/1999/xlink" x="0px" y="0px"
	 width="23px" height="23px" viewBox="0 0 23 23" style="enable-background:new 0 0 23 23;" xml:space="preserve">
<style type="text/css">
	.st0{fill:#91250D;}
	.st1{fill:#CCCCCC;}
	.st2{fill:#FFB400;}
</style>
<g id="ico_x5F_chat_x5F_orig">
	<path id="c_4_" d="M23,22h-1l-2-2H9l-2-2v-2h7l4-4V8h2l3,3V22z"/>
	<path id="c_3_" class="st0" d="M16,3H4L1,6v12h1l3-3h8l4-4V4L16,3z M13,11H5v-1h8V11z M13,8H5V7h8V8z"/>
	<path id="c_2_" class="st1" d="M22,21h-1l-2-2H8l-2-2v-2h7l4-4V7h2l3,3V21z"/>
	<path id="c_1_" class="st2" d="M15,2H3L0,5v12h1l3-3h8l4-4V3L15,2z M12,10H4V9h8V10z M12,7H4V6h8V7z"/>
</g>
</svg>
