<?xml version="1.0" encoding="utf-8"?>
<!-- Generator: Adobe Illustrator 21.0.0, SVG Export Plug-In . SVG Version: 6.00 Build 0)  -->
<svg version="1.1" id="Слой_1" xmlns="http://www.w3.org/2000/svg" xmlns:xlink="http://www.w3.org/1999/xlink" x="0px" y="0px"
	 width="18px" height="18px" viewBox="0 0 18 18" style="enable-background:new 0 0 18 18;" xml:space="preserve">
<style type="text/css">
	.st0{fill-rule:evenodd;clip-rule:evenodd;fill:#CCCCCC;}
</style>
<g id="ico_x5F_search">
	<path id="s_4_" class="st0" d="M18,16l-4-4.8c0.6-1.1,1-2.3,1-3.7C15,3.4,11.6,0,7.5,0C3.4,0,0,3.4,0,7.5C0,11.6,3.4,15,7.5,15
		c1.3,0,2.6-0.4,3.7-1l4.8,4L18,16z M3,7.5C3,5,5,3,7.5,3C10,3,12,5,12,7.5S10,12,7.5,12C5,12,3,10,3,7.5z"/>
</g>
</svg>
