<?xml version="1.0" encoding="utf-8"?>
<!-- Generator: Adobe Illustrator 21.0.0, SVG Export Plug-In . SVG Version: 6.00 Build 0)  -->
<svg version="1.1" id="Слой_1" xmlns="http://www.w3.org/2000/svg" xmlns:xlink="http://www.w3.org/1999/xlink" x="0px" y="0px"
	 width="20px" height="20px" viewBox="0 0 20 20" style="enable-background:new 0 0 20 20;" xml:space="preserve">
<style type="text/css">
	.st0{fill:#FF9E00;}
</style>
<g id="ico_x5F_mailru">
	<path id="m_1_" class="st0" d="M13,10c0,1.7-1.3,3-3,3s-3-1.3-3-3s1.3-3,3-3S13,8.3,13,10 M10,0C4.5,0,0,4.5,0,10s4.5,10,10,10
		c2,0,4-0.6,5.6-1.7l0,0l-1.3-1.6l0,0C13,17.5,11.5,18,10,18c-4.4,0-8-3.6-8-8s3.6-8,8-8s8,3.6,8,8c0,0.6-0.1,1.1-0.2,1.7
		c-0.3,1-1,1.3-1.5,1.3c-0.5,0-1.2-0.4-1.2-1.4v-0.7V10c0-2.8-2.3-5.1-5.1-5.1S4.9,7.2,4.9,10s2.3,5.1,5.1,5.1
		c1.4,0,2.6-0.5,3.6-1.5c0.6,0.9,1.5,1.4,2.5,1.5c0.1,0,0.2,0,0.3,0c0.7,0,1.4-0.2,2-0.7c0.6-0.5,1-1.1,1.3-1.9
		c0-0.1,0.1-0.4,0.1-0.4l0,0c0.1-0.6,0.2-1.3,0.2-2C20,4.5,15.5,0,10,0"/>
</g>
</svg>
