<?xml version="1.0" encoding="utf-8"?>
<!-- Generator: Adobe Illustrator 21.0.0, SVG Export Plug-In . SVG Version: 6.00 Build 0)  -->
<svg version="1.1" id="ElemSlider" xmlns="http://www.w3.org/2000/svg" xmlns:xlink="http://www.w3.org/1999/xlink" x="0px" y="0px"
	 width="1780px" height="494px" viewBox="0 0 1780 494" style="enable-background:new 0 0 1780 494;" xml:space="preserve">
<style type="text/css">
	.st0{fill-rule:evenodd;clip-rule:evenodd;fill:#22203D;}
	.st1{fill-rule:evenodd;clip-rule:evenodd;fill:#1D1B33;}
</style>
<g id="ElemSlider_1_">
	<path id="r2" class="st0" d="M1778.7,2.6l-494.8,54.3l-95.6,86.6l12.9,203l3.9,146.1h-5.2l-25.8-146.1L1141.8,128l127.9-97l509-31
		V2.6z"/>
	<path id="r1" class="st1" d="M1780,3.9l-494.8,54.3l-95.6,86.6l12.9,203l3.9,146.1h-2.6l-14.2-146.1l-23.2-212.1L1278.7,44
		L1780,1.3V3.9z"/>
	<path id="l2_1_" class="st0" d="M1.3,2.6l494.8,54.3l95.6,86.6l-12.9,203l-3.9,146.1h5.2l25.8-146.1L638.2,128L510.3,31L1.3,0V2.6z
		"/>
	<path id="l1" class="st1" d="M0,3.9l494.8,54.3l95.6,86.6l-12.9,203L573.6,494h2.6l14.2-146.1l23.2-212.1L501.3,44L0,1.3V3.9z"/>
</g>
</svg>
