<!-- Generated by IcoMoon.io -->
<svg version="1.1" xmlns="http://www.w3.org/2000/svg" width="160" height="60" viewBox="0 0 160 60">
<title>iconPay_Eps</title>
<path fill="#999" d="M108.594 30.813h-6.429c-0.715 0-1.297-0.569-1.297-1.282s0.582-1.341 1.297-1.341h9.788v-4.826h-9.788c-3.416 0-6.196 2.784-6.196 6.19s2.78 6.19 6.196 6.19h6.342c0.715 0 1.297 0.567 1.297 1.28s-0.582 1.238-1.297 1.238h-13.6c-1.154 2.203-2.277 4.092-4.556 5.036h18.243c3.359-0.048 6.106-2.89 6.106-6.266s-2.748-6.171-6.106-6.219z"></path>
<path fill="#999" d="M83.948 23.364c-5.449 0-9.887 4.463-9.887 9.946v20.69h4.933v-10.702h4.944c5.449 0 9.872-4.522 9.872-10.006s-4.413-9.928-9.862-9.928zM83.948 38.262h-4.954v-4.97c0-2.777 2.212-5.036 4.954-5.036s4.973 2.259 4.973 5.036c0 2.778-2.231 4.97-4.973 4.97z"></path>
<path fill="#c09" d="M53.84 35.639c0.859 1.679 2.597 2.623 4.601 2.623h13.081v-14.197c0-2.117-1.715-3.848-3.832-3.848h-18.54c-2.118 0-3.85 1.679-3.85 3.796v18.533c0 2.117 1.733 3.901 3.85 3.901h18.541c1.9 0 3.486-1.364 3.792-3.148h-13.041c-4.845 0-9.954-4.008-9.954-10.043s5.008-9.949 9.933-9.949c5.477 0 9.972 4.45 9.972 9.925v2.408h-14.553z"></path>
<path fill="#c09" d="M58.421 28.018c-1.997 0-3.733 1.222-4.595 2.795h9.191c-0.863-1.574-2.6-2.795-4.596-2.795z"></path>
<path fill="#c09" d="M58.418 6c-4.562 0-8.272 3.547-8.394 7.966-0.002 0.019 0 2.517 0 2.517 0 0.294 0.24 0.585 0.542 0.585h3.090c0.302 0 0.567-0.291 0.567-0.585v-2.293c0-2.259 1.882-4.096 4.199-4.096s4.199 1.838 4.199 4.096v2.294c0 0.294 0.245 0.585 0.547 0.585h3.090c0.302 0 0.561-0.291 0.561-0.585v-2.294c-0.001-4.523-3.762-8.19-8.401-8.19z"></path>
</svg>
