<!-- Generated by IcoMoon.io -->
<svg version="1.1" xmlns="http://www.w3.org/2000/svg" width="160" height="60" viewBox="0 0 160 60">
<title>iconPay_SafetyPay</title>
<path fill="#06c" d="M87 16c6.769 0 13.77 5.856 13.77 14h-3.803c0-5.898-5.283-10.157-9.968-10.157v-3.843zM84.207 24.239l7.275 5.761h-7.28l0.005-5.761z"></path>
<path fill="#09f" d="M87 40.157c4.685 0 9.968-4.259 9.968-10.157h3.803c0 8.144-7.002 14-13.77 14v-3.843zM84.202 30h7.28l-7.275 5.761-0.005-5.761z"></path>
<path fill="#09f" d="M134.544 21.896h2.997l2.368 12.581 6.809-12.581h3.282c0 0-7.241 12.36-10.864 18.539-0.995 1.684-2.393 3.056-4.349 3.459-1.451 0.288-2.749-0.172-3.992-0.893 0.432-0.693 0.871-1.382 1.323-2.063 0.898 0.416 1.752 0.691 2.723 0.293 1.611-0.632 2.317-2.422 3.227-3.779-1.136-5.195-3.524-15.556-3.524-15.556zM113.63 21.885c-3.638 0-5.396 2.858-5.396 2.858l0.631-2.831h-2.643l-4.208 22.063h2.849l1.582-8.655c0 0 1.17 2.658 4.456 2.658s7.106-2.554 8.116-7.755-1.749-8.338-5.387-8.338zM116.855 29.402c-0.285 2.181-1.967 5.939-6.21 5.939-2.565 0-3.832-2.617-3.104-5.939 0.404-1.844 2.407-4.974 5.827-4.974s3.706 3.301 3.487 4.974zM129.431 21.974c-2.446-0.325-4.805 0.325-6.945 1.5 0.25 0.782 0.51 1.561 0.764 2.341 1.582-0.853 2.757-1.411 4.967-1.411 1.251 0 2.949 0.346 2.15 3.6-2.837-0.030-6.254 0.251-8.661 1.935-1.907 1.269-2.854 4.121-1.563 6.152 1.094 1.655 3.589 2.26 5.395 1.657 1.614-0.438 2.868-1.529 3.798-2.906l-0.653 3.162h2.677l1.903-9.889c1.007-5.069-2.5-5.964-3.832-6.141zM125.379 35.519c-0.763 0-2.876-0.030-2.876-2.2 0-3.092 5.695-3.125 7.513-3.125-0.764 3.303-3.229 5.325-4.637 5.325z"></path>
<path fill="#06c" d="M44.521 16.086v2.53c-2.67 0-3.911 0.76-3.911 3.277h3.604v2.386h-3.604v13.711h-2.871v-13.712h-1.883v-2.386h1.883c0-4.152 1.705-5.806 6.782-5.806zM59.91 16.049h2.912v5.844h3.647v2.386h-3.647v7.689c0 2.705 1.616 3.373 3.924 3.373v2.636c-5.424 0-6.836-2.219-6.836-5.846v-7.851h-1.958v-2.386h1.958v-5.845zM20.896 23.548l-1.153 2.237c0 0-1.844-1.336-3.798-1.336s-2.464 1.261-2.464 1.706c0 1.069 1.095 1.815 2.464 2.308 2.418 0.872 5.327 2.001 5.327 5.271 0 1.637-1.612 4.271-5.327 4.271s-5.945-2.247-5.945-2.247l1.41-2.117c0 0 1.971 1.778 4.535 1.778 0.887 0 2.305-0.792 2.305-1.586 0-1.376-0.714-1.755-2.305-2.447s-5.44-1.754-5.44-5.204c0-2.408 2.142-4.278 5.44-4.278s4.951 1.644 4.951 1.644zM66.869 21.893h3.295l4.54 12.23 4.358-12.23h3.162l-6.647 16.949c-0.39 1.003-1.476 5.158-5.481 5.158-1.467 0-2.996-0.952-2.996-0.952l1.027-2.235c0 0 1.118 0.608 1.823 0.608 1.79 0 2.538-1.784 3.431-3.976l-6.512-15.552zM57.602 30.346v-2.113c0 0-0.257-6.329-6.537-6.329s-7.563 5.676-7.563 7.906c0 3.836 2.574 8.197 7.905 8.197 3.648 0 6.023-2.201 6.023-2.201l-1.196-2.161c0 0-2.060 1.767-4.788 1.767-4.554 0-4.977-5.067-4.977-5.067h11.133zM50.976 24.245c3.64 0 3.756 3.889 3.756 3.889h-8.173c0-0.001 0.777-3.889 4.417-3.889zM34.921 28.165c0-4.659-2.707-6.263-5.993-6.263s-5.684 1.795-5.684 1.795l1.204 2.149c0 0 2.326-1.436 3.888-1.436s3.701 0.196 3.701 3.602c-7.685 0-9.817 2.011-9.817 5.692 0 1.636 1.691 4.285 5.095 4.285s4.897-2.952 4.897-2.952l-0.022 2.953h2.732v-9.825zM27.962 35.575c-1.939 0-3.289-1.453-2.667-3.206 0.83-2.34 5.158-2.114 6.799-2.114 0 1.666-1.025 5.32-4.132 5.32z"></path>
</svg>
