<!-- Generated by IcoMoon.io -->
<svg version="1.1" xmlns="http://www.w3.org/2000/svg" width="160" height="60" viewBox="0 0 160 60">
<title>iconPay_Maestro</title>
<path fill="#09f" d="M80 47.788c5.023-4.561 7.88-11.020 7.868-17.788 0.012-6.768-2.845-13.227-7.868-17.788-4.248-3.86-9.883-6.212-16.066-6.212-13.218 0-23.934 10.745-23.934 24s10.716 24 23.934 24c6.183 0 11.819-2.352 16.066-6.212z"></path>
<path fill="#f33" d="M96.066 6c-6.183 0-11.819 2.352-16.066 6.212-0.866 0.788-1.674 1.637-2.416 2.541h4.831c0.663 0.807 1.273 1.656 1.826 2.541h-8.482c-0.511 0.819-0.971 1.668-1.38 2.541h11.239c0.387 0.827 0.726 1.675 1.016 2.541h-13.268c-0.278 0.834-0.51 1.682-0.695 2.541h14.658c0.359 1.671 0.539 3.374 0.539 5.082 0 2.664-0.434 5.228-1.234 7.623h-13.268c0.289 0.866 0.627 1.714 1.013 2.541h11.239c-0.408 0.874-0.868 1.723-1.378 2.541h-8.481c0.552 0.886 1.162 1.734 1.824 2.541h4.832c-0.742 0.904-1.549 1.754-2.415 2.541 4.247 3.862 9.883 6.214 16.066 6.214 13.218 0 23.934-10.745 23.934-24s-10.716-24-23.934-24v0z"></path>
<path fill="#eee" d="M57.965 35.976l1.77-9.354-4.076 9.354h-2.716l-0.496-9.3-1.776 9.3h-2.704l2.31-12.167h4.648l0.246 7.533 3.277-7.533h4.843l-2.348 12.167h-2.978zM92.093 36.176c-2.89 0-2.325-2.747-2.268-3.061l1.701-9.307h2.962l-0.429 2.272h1.52l-0.408 2.406h-1.527l-0.836 4.538c0 0-0.177 1.057 1.82 0.641l-0.395 2.189c0 0.001-1.063 0.322-2.14 0.322zM99.445 27.579l0.263-1.499h-2.698l-1.816 9.896h2.981c0.426-2.417 0.888-4.589 1.293-5.757 0.672-1.938 2.384-1.259 2.384-1.259l1.080-2.798c0.001 0-1.744-0.99-3.487 1.417zM82.425 29.207c0 1.25 0.703 2.111 2.295 2.758 1.22 0.497 1.409 0.643 1.409 1.092 0 0.616-0.538 0.894-1.73 0.894-0.9 0-1.736-0.121-2.701-0.392l-0.413 2.283c0 0 1.623 0.292 3.135 0.292 3.18 0 4.649-1.045 4.649-3.302 0-1.358-0.614-2.155-2.124-2.754-1.264-0.501-1.41-0.612-1.41-1.074 0-0.533 0.501-0.807 1.475-0.807 0.592 0 1.4 0.056 2.165 0.149l0.429-2.291c-0.78-0.106-1.964-0.194-2.652-0.194-3.37 0-4.537 1.521-4.527 3.346zM70.627 35.976h-2.475l0.058-1.026c0 0-0.897 1.197-3.125 1.197-1.614 0-2.722-1.102-2.722-2.703 0-2.411 1.977-3.371 3.417-3.65s3.030-0.090 3.030-0.090c0.113-0.658 0.597-1.517-1.793-1.543-1.392-0.015-3.155 0.445-3.155 0.445l0.413-2.225c0 0 1.75-0.526 3.566-0.526 4.738 0 3.951 3.2 3.671 4.863s-0.885 5.258-0.885 5.258zM65.384 32.363c-0.572 1.137 0.366 2.028 1.569 1.606 1.459-0.512 1.501-2.401 1.501-2.401s-2.512-0.316-3.070 0.795zM80.399 35.762c0 0-1.252 0.401-3.052 0.401-3.363 0-5.066-1.523-5.066-4.433 0-3.397 2.208-5.898 5.206-5.898 2.452 0 4.018 1.401 4.018 3.597 0 0.977-0.366 2.443-0.366 2.443h-5.923c0 0-0.545 2.043 2.584 2.043 1.699 0 3.093-0.626 3.093-0.626l-0.494 2.473zM78.813 29.874c0 0 0.39-1.78-1.384-1.78-1.585 0-1.9 1.774-1.9 1.774l3.284 0.006zM112.193 31.489c-0.451 3.291-2.738 4.752-5.786 4.752-3.37 0-4.731-2.050-4.731-4.561 0-3.507 2.305-5.883 5.865-5.883 3.443-0.001 5.115 2.312 4.652 5.692zM107.485 28.211c-1.52 0-2.462 1.802-2.462 3.392 0 1.342 0.646 2.243 1.71 2.224 1.095 0 2.111-1.296 2.327-2.629 0.191-1.169 0.221-2.987-1.575-2.987z"></path>
</svg>
