<!-- Generated by IcoMoon.io -->
<svg version="1.1" xmlns="http://www.w3.org/2000/svg" width="160" height="60" viewBox="0 0 160 60">
<title>iconPay_Skrill</title>
<path fill="#93c" d="M104.013 20.13c2.494 0 4.515-2.043 4.515-4.563s-2.021-4.567-4.515-4.567c-2.491 0-4.511 2.045-4.511 4.567 0 2.519 2.020 4.563 4.511 4.563v0zM64.218 31.643v-18.565l-9.449 1.889v33.651h9.449v-10.402c2.737 4.151 4.088 10.402 4.088 10.402h11.318c-1.12-4.707-6.017-13.387-6.017-13.387 4.395-5.636 6.326-11.641 6.633-12.636h-10.806c0-0.001-1.67 4.706-5.216 9.048zM94.276 22.243c-8.463 0.275-12.76 4.115-12.76 11.749v14.625h9.233v-11.926c0-4.571 0.592-6.531 5.955-6.718v-7.596c-0.902-0.194-2.428-0.134-2.428-0.134zM35.085 23.607c0-2.944 3.858-2.944 5.305-2.944 2.544 0 5.839 0.76 8.192 1.472l2.534 0.976v-8.063c0 0-4.489-1.971-12.135-1.971-10.324 0.001-13.981 6.083-13.981 11.293 0 3.003 1.273 10.072 13.094 10.887 1.002 0.062 3.662 0.217 3.662 2.739 0 2.082-2.177 3.309-5.84 3.309-4.013 0-7.907-1.035-10.271-2.017v8.304c3.54 0.939 7.531 1.408 12.208 1.408 10.093 0 14.613-5.754 14.613-11.457 0-6.467-5.058-10.668-13.545-11.243 0-0.001-3.836 0.051-3.836-2.693zM99.436 48.617h9.159v-25.994h-9.159v25.994zM125.84 48.617h9.16v-35.54l-9.16 1.657v33.883zM121.626 13.078v35.54h-9.151v-33.883l9.151-1.657z"></path>
</svg>
