<!-- Generated by IcoMoon.io -->
<svg version="1.1" xmlns="http://www.w3.org/2000/svg" width="160" height="60" viewBox="0 0 160 60">
<title>iconPay_EcoPayz</title>
<path fill="#0c0" d="M34.127 13.5c-13.338 0-24.127 6.298-24.127 14.117 0 3.312 1.952 6.352 5.259 8.796-1.627-2.009-2.548-4.235-2.548-6.624 0-8.090 10.573-14.659 23.585-14.659 8.404 0 15.778 2.715 19.952 6.841-3.741-4.996-12.253-8.471-22.121-8.471z"></path>
<path fill="#999" d="M32.005 31.607c1.955 0 3.41-0.889 3.41-2.601 0-3.37-3.21-8.26-9.476-8.26-6.302 0-9.763 4.796-9.763 9.43s3.544 9.3 10.050 9.3c2.005 0 4.804-0.293 7.317-2.075 1.45-1.028 1.648-2.715 1.179-3.399-0.774-1.127-2.103-1.139-3.113-0.726-1.391 0.568-3.328 1.485-5.096 1.485-4.227 0-4.379-3.154-4.379-3.154h9.871zM25.975 25.038c3.482 0 3.733 3.122 3.733 3.122h-7.646c0.001 0 0.431-3.122 3.913-3.122z"></path>
<path fill="#999" d="M45.681 39.444c1.746 0 3.212-0.248 4.379-0.78 1.901-0.866 3.093-2.251 2.084-3.964-0.757-1.285-2.402-1.11-3.627-0.621-0.689 0.275-1.448 0.39-2.261 0.39-1.388 0-4.236-0.557-4.236-4.422 0-4.806 4.3-4.87 6.335-4.048 1.271 0.513 3.074 0.704 3.804-0.593 1.072-1.905-0.198-3.317-1.991-3.976-1.173-0.431-2.549-0.65-4.128-0.65-5.273 0-9.979 3.015-9.979 9.365s4.921 9.299 9.62 9.299z"></path>
<path fill="#999" d="M62.515 39.541c7.379 0 9.799-5.715 9.799-9.398s-2.298-9.43-9.799-9.43-9.835 5.819-9.835 9.43 2.456 9.398 9.835 9.398zM62.515 25.688c3.885 0 3.841 4.422 3.841 4.422s-0.059 4.455-3.841 4.455c-3.782 0-3.841-4.455-3.841-4.455s-0.044-4.422 3.841-4.422z"></path>
<path fill="#0c0" d="M80.462 20.258h2.584c2.728 0 4.092 1.030 4.092 3.089 0 2.103-1.364 3.154-4.092 3.154h-2.584v-6.243zM80.462 31.412h4.020c2.341 0 9.117-0.595 9.117-8.065 0-7.2-6.716-8.064-9.584-8.064h-5.384c-3.439 0-4.128 1.31-4.128 3.8v16.367c0 2.555 0.993 3.832 2.979 3.832s2.979-1.274 2.979-3.821v-4.049z"></path>
<path fill="#0c0" d="M103.675 25.851c3.741 0 3.679 4.227 3.679 4.227s0.081 4.292-3.679 4.292c-3.76 0-3.751-4.292-3.751-4.292s0.010-4.227 3.751-4.227zM113.241 35.437v-10.587c0-2.54-0.957-3.811-2.872-3.811-1.173 0-2.094 0.553-2.764 1.658-1.173-1.257-2.728-1.886-4.666-1.886-5.044 0-9.010 4.115-9.010 9.333 0 5.145 3.8 9.268 8.794 9.268 2.058 0 3.685-0.661 4.882-1.984 0.574 1.236 1.495 1.854 2.764 1.854 1.866-0.001 2.872-1.282 2.872-3.845z"></path>
<path fill="#0c0" d="M123.148 31.509l-3.634-8.692c-0.673-1.078-0.705-1.751-2.908-1.751-2.318 0-2.898 2.474-2.435 3.563l6.066 12.859-2.39 4.711c-0.91 1.671-0.711 4.302 2.393 4.302 1.029 0 1.878-0.705 2.549-2.114l9.177-19.695c0.192-0.492 0.733-3.653-2.542-3.653-1.369 0-2.124 0.694-2.722 2.081l-3.554 8.389z"></path>
<path fill="#0c0" d="M140.651 34.143l7.704-8.97c0.785-0.912 1.178-1.682 1.178-2.311 0-1.104-0.289-1.595-3.661-1.595h-9.297c-2.465 0-3.697 0.792-3.697 2.374 0 1.605 1.22 2.406 3.661 2.406h4.989l-7.969 9.333c-0.574 0.672-0.861 1.344-0.861 2.016 0 1.084 1.017 1.626 3.051 1.626h10.589c2.441 0 3.661-0.802 3.661-2.406 0-1.647-1.206-2.471-3.618-2.471h-5.73z"></path>
</svg>
