<!-- Generated by IcoMoon.io -->
<svg version="1.1" xmlns="http://www.w3.org/2000/svg" width="160" height="60" viewBox="0 0 160 60">
<title>iconPay_PayAnyWay</title>
<path fill="#0c0" d="M132.458 22.721v1.199l7.759 4.453v9.077l1.012 0.685 1.012-0.685v-9.077l7.759-4.453v-1.199l-1.012-0.514-7.759 4.453-7.759-4.453-1.012 0.514z"></path>
<path fill="#999" d="M127.735 22.036h-1.181l-7.084 15.072 0.675 0.856h1.181l1.518-3.426h8.434l1.518 3.426h1.181l0.506-0.856-6.748-15.072zM123.518 32.826l3.542-7.536 3.374 7.536h-6.916z"></path>
<path fill="#999" d="M97.542 23.064l6.916 15.072h1.012l3.711-8.050 3.88 8.050h1.012l6.916-15.072-0.506-1.028h-1.181l-5.735 12.503-5.735-12.331h-1.181l-0.506 0.856 2.024 4.796-3.205 6.851-5.735-12.503-1.181-0.171-0.506 1.027z"></path>
<path fill="#f36" d="M78.482 22.721v1.199l7.759 4.453v9.077l1.012 0.685 1.012-0.685v-9.077l7.759-4.453v-1.199l-1.012-0.514-7.759 4.453-7.759-4.453-1.012 0.514z"></path>
<path fill="#999" d="M64.145 22.036v15.414l1.012 0.685 1.012-0.685v-11.303l9.109 11.989h1.349v-15.415l-1.012-0.685-1.012 0.685v11.133l-8.94-11.818h-1.518z"></path>
<path fill="#999" d="M55.711 22.036h-1.181l-7.084 15.072 0.675 0.856h1.181l1.518-3.426h8.434l1.518 3.426h1.181l0.506-0.856-6.748-15.072zM51.494 32.826l3.542-7.536 3.374 7.536h-6.916z"></path>
<path fill="#f90" d="M31.422 22.721v1.199l7.759 4.453v9.077l1.012 0.685 1.012-0.685v-9.077l7.759-4.453v-1.199l-1.012-0.514-7.759 4.453-7.759-4.453-1.012 0.514z"></path>
<path fill="#999" d="M27.036 22.036h-1.181l-7.084 15.072 0.675 0.856h1.181l1.518-3.426h8.434l1.518 3.426h1.181l0.506-0.856-6.748-15.072zM22.819 32.826l3.542-7.536 3.374 7.536h-6.916z"></path>
<path fill="#999" d="M14.892 21.865h-4.892v15.757l1.012 0.514 1.012-0.514v-5.481h2.867c0 0 4.723-0.371 4.723-5.138s-4.722-5.138-4.722-5.138zM14.723 30.257h-2.699v-6.508h2.699c0 0 2.867 0.343 2.867 3.254s-2.867 3.254-2.867 3.254z"></path>
</svg>
