<?xml version="1.0" encoding="utf-8"?><svg viewBox="0 0 40 40" xmlns="http://www.w3.org/2000/svg" xmlns:xlink="http://www.w3.org/1999/xlink"><style>:root>svg{display:none}:root>svg:target{display:block}</style><svg version="1.1" id="acc_bonuscasino" x="0" y="0" xml:space="preserve" viewBox="0 0 40 40" xmlns="http://www.w3.org/2000/svg"><style>.aast0{fill:#fec042}.aast1{fill:#4527a0}</style><path class="aast0" d="M22 13l-1-2h-2l-1 2h-8v4h2v13h16V17h2v-4z"/><path class="aast1" d="M28 11l-2-1-5 3h-2l-5-3-2 1v2l6 1v16h4V14l6-1z"/></svg><svg version="1.1" id="acc_bonussport" x="0" y="0" xml:space="preserve" viewBox="0 0 40 40" xmlns="http://www.w3.org/2000/svg"><style>.abst0{fill:#4527a0}.abst1{fill:#fec042}</style><path class="abst0" d="M22 13l-1-2h-2l-1 2h-8v4h2v13h16V17h2v-4z"/><path class="abst1" d="M28 11l-2-1-5 3h-2l-5-3-2 1v2l6 1v16h4V14l6-1z"/></svg><svg version="1.1" id="acc_cancel" x="0" y="0" xml:space="preserve" viewBox="0 0 40 40" xmlns="http://www.w3.org/2000/svg"><style>.acst0{fill:#388e3c}.acst1{fill:#4caf50}.acst2{fill:#2f8e42}.acst3{fill:#fff}.acst4{fill:#424242}</style><path class="acst0" d="M20 32l8-19.3L16.4 8 15 11v21h5z"/><path class="acst1" d="M8 32V11h12v21H8z"/><path class="acst2" d="M12.1 30c-.3-1.1-1.1-2-2.1-2.4V15.4c1-.3 1.8-1.2 2.1-2.4h3.8c.3 1.1 1.1 2 2.1 2.4v12.3c-1 .3-1.8 1.2-2.1 2.4h-3.8zM20 27l4.9-10.6.1-.1c-1-.7-1.6-1.9-1.5-3l-.1-.1L20 12v15z"/><path class="acst3" d="M10 21l7 6h1v-4h8v-5h-8v-4h-1l-7 6z"/><path class="acst4" d="M27 19H17v-3l-5 4.4 5 4.6v-3h10s2 0 2 2-2 2-2 2h-4l-1 3h5s5 0 5-5-5-5-5-5z"/></svg><svg version="1.1" id="acc_exit" x="0" y="0" xml:space="preserve" viewBox="0 0 40 40" xmlns="http://www.w3.org/2000/svg"><style>.adst0{fill:#424242}.adst1{fill:#fff}</style><circle class="adst0" cx="20" cy="20" r="10"/><path class="adst1" d="M19 13h2v5h-2z"/><path class="adst1" d="M23 14.8v2.6c.6.7 1 1.6 1 2.6 0 2.2-1.8 4-4 4s-4-1.8-4-4c0-1 .4-1.9 1-2.6v-2.6c-1.8 1-3 3-3 5.2 0 3.3 2.7 6 6 6s6-2.7 6-6c0-2.2-1.2-4.2-3-5.2z"/></svg><svg version="1.1" id="acc_favorite" x="0" y="0" xml:space="preserve" viewBox="0 0 40 40" xmlns="http://www.w3.org/2000/svg"><style>.aest0{fill:#fbc02d}.aest1{fill:#fff}.aest2{fill:#424242}</style><path class="aest0" d="M12.3 31.8l7-3.6c.5-.2 1-.2 1.4 0l7 3.6c.8.4 1.7.1 2.1-.7.1-.2.2-.5.2-.7V9.9c0-1-.8-1.9-1.8-1.9H11.8c-1 0-1.8.8-1.8 1.9v20.5c0 .9.7 1.6 1.6 1.6.2 0 .5-.1.7-.2z"/><path class="aest1" d="M28.4 16.6c.3-.3.3-.7 0-1-.1-.1-.2-.2-.4-.2l-4.8-.7c-.2 0-.4-.2-.5-.4l-2.2-4.6c-.2-.3-.6-.5-.9-.3l-.3.3-2.2 4.6c-.1.2-.3.3-.5.4l-4.6.8c-.4.1-.6.4-.6.8 0 .1.1.3.2.4l3.5 3.6c.2.2.2.4.2.6l-.8 5c-.1.4.2.7.5.8.1 0 .3 0 .4-.1l4.3-2.4c.2-.1.4-.1.6 0l4.3 2.4c.3.2.7 0 .9-.3.1-.1.1-.3.1-.4l-.8-5c0-.2 0-.4.2-.6l3.4-3.7z"/><path class="aest2" d="M25.2 17.2c.2-.2.2-.4 0-.6-.1-.1-.1-.1-.2-.1l-3-.5c-.1 0-.2-.1-.3-.2L20.4 13c-.1-.2-.3-.3-.5-.2-.1 0-.1.1-.2.2l-1.3 2.8c-.1.1-.3.2-.4.2l-3 .5c-.2 0-.4.2-.3.5 0 .1.1.2.1.2l2.1 2.2c.1.1.1.2.1.4l-.5 3.1c0 .2.1.4.3.5h.3l2.6-1.5c.1-.1.3-.1.4 0l2.6 1.5c.2.1.4 0 .5-.2 0-.1.1-.2 0-.3l-.5-3.1c0-.1 0-.3.1-.4l2.4-2.2z"/></svg><svg version="1.1" id="acc_historygame" x="0" y="0" xml:space="preserve" viewBox="0 0 40 40" xmlns="http://www.w3.org/2000/svg"><style>.afst0{fill:#f44336}.afst1{fill:#fff}.afst2{fill:#424242}</style><path class="afst0" d="M9 8h22v10H9V8z"/><path class="afst1" d="M27 17l-2-1 2-5h-2V9h4l1 1-3 7zM20 17l-2-1 2-5h-2V9h4l1 1-3 7zM13 17l-2-1 2-5h-2V9h4l1 1-3 7z"/><g><ellipse class="afst1" cx="24.6" cy="23.4" rx="7.3" ry="7.6"/><ellipse class="afst1" cx="16.6" cy="22.5" rx="4.4" ry="4.5"/><path class="afst2" d="M23.8 14c-4.6 0-8.5 3.6-9.2 8H12l4.2 4.1 4.2-4.1h-2.6c.6-2.9 2.9-5.4 6-5.4 3.6 0 6.6 2.9 6.6 6.4s-2.9 6.4-6.6 6.4c-2.1 0-4.1-1-5.3-2.7l-2.1 1.5c1.7 2.3 4.5 3.7 7.5 3.7 5.1 0 9.2-4 9.2-9S28.9 14 23.8 14z"/><path class="afst2" d="M22.5 19.1v5.2l3.9 2.3 1.4-2.2-2.6-1.6V19l-2.7.1z"/></g></svg><svg version="1.1" id="acc_historypay" x="0" y="0" xml:space="preserve" viewBox="0 0 40 40" xmlns="http://www.w3.org/2000/svg"><style>.agst0{fill:#388e3c}.agst1{fill:#4caf50}.agst2{fill:#fff}.agst3{fill:#424242}</style><path class="agst0" d="M20 32l8-19.3L16.4 8 15 11v21h5z"/><path class="agst1" d="M8 32V11h12v21H8z"/><path class="agst0" d="M12.1 30c-.3-1.1-1.1-2-2.1-2.4V15.4c1-.3 1.8-1.2 2.1-2.4h3.8c.3 1.1 1.1 2 2.1 2.4v12.3c-1 .3-1.8 1.2-2.1 2.4h-3.8zM20 27l4.9-10.6.1-.1c-1-.7-1.6-1.9-1.5-3l-.1-.1L20 12v15z"/><path class="agst2" d="M17 32c-2.8-2-4.8-5.3-4.8-9 0-6.1 4.9-11.1 11.1-11.1 1.7 0 3.3.4 4.7 1.1l-2 18.9c-2.1.1-8.7.1-9 .1z"/><path class="agst3" d="M23.2 14.2c-4.4 0-8.1 3.5-8.7 7.8H12l4 4 4-4h-2.5c.6-2.8 2.7-5.3 5.7-5.3 3.4 0 6.2 2.8 6.2 6.2s-2.8 6.3-6.2 6.3c-2 0-3.9-1-5.1-2.6l-2 1.5c1.6 2.3 4.3 3.6 7.1 3.6 4.8 0 8.8-3.9 8.8-8.8s-3.9-8.7-8.8-8.7z"/><path class="agst3" d="M22 19.2v5.1l3.7 2.2 1.3-2.1-2.5-1.5v-3.7H22z"/></svg><svg version="1.1" id="acc_msg" x="0" y="0" xml:space="preserve" viewBox="0 0 40 40" xmlns="http://www.w3.org/2000/svg"><style>.ahst0{fill:#4caf50}.ahst1{fill:#424242}</style><path class="ahst0" d="M24 9H11c-1.5 0-3 1.5-3 3v12s0 1 1 1l4-3h9c1.5 0 3-1.6 3-3.1V10c0-.4-.6-1-1-1zm-3.7 9h-7.7c-.4 0-.7-.4-.7-1s.3-1 .7-1h7.7c.4 0 .7.4.7 1s-.3 1-.7 1zm0-3h-7.7c-.4 0-.7-.4-.7-1s.3-1 .7-1h7.7c.4 0 .7.4.7 1s-.3 1-.7 1z"/><path class="ahst1" d="M32 30s0 1-1 1l-5-3h-8c-2 0-3-1-3-3v-1h8c3 0 4-2 4-5v-4h2c2 0 3 1 3 3v12z"/></svg><svg version="1.1" id="acc_profile" x="0" y="0" xml:space="preserve" viewBox="0 0 40 40" xmlns="http://www.w3.org/2000/svg"><style>.aist0{fill:#424242}.aist1{fill:#4caf50}</style><path class="aist0" d="M24 21c-1.7-2-4-3-7-3-7 0-9 10-9 10s4 2 7 2l9-9z"/><circle class="aist0" cx="17.5" cy="12.5" r="4.5"/><path class="aist1" d="M19 32h3l-3-3v3zM20 28l7-7 3 3-7 7-3-3zM30 19c-1 0-2 1-2 1l3 3s1-1 1-2-1-2-2-2z"/></svg><svg version="1.1" id="acc_promo" x="0" y="0" xml:space="preserve" viewBox="0 0 40 40" xmlns="http://www.w3.org/2000/svg"><style>.ajst0{fill:#4caf50}.ajst1{fill:#fff}.ajst2{fill:#424242}</style><path class="ajst0" d="M28 15c0 4.4-3.6 8-8 8s-8-3.6-8-8 3.6-8 8-8 8 3.5 8 8c0-.1 0 0 0 0z"/><path class="ajst1" d="M24.5 11.3c-.5-.5-1.3-.4-1.8.2l-3.2 4.2-1.4-1.2c-.5-.5-1.3-.4-1.8.1-.5.6-.4 1.4.1 1.9l.1.1 2.4 2.1c.2.2.5.3.8.3h.1c.3 0 .6-.2.9-.5l4-5.3c.5-.6.4-1.4-.2-1.9z"/><path class="ajst2" d="M32 23.8v4.4c0 .7-.3 1.4-.8 1.9s-1.3.8-2 .8H10.9C9.3 31 8 29.8 8 28.2v-4.4c0-.7.3-1.5.9-2 .5-.5 1.3-.8 2-.8h18.3c1.5 0 2.8 1.2 2.8 2.8z"/><path class="ajst1" d="M29.2 27l-1.3-1 1.3-1c.2-.2.3-.6.1-.8-.2-.3-.5-.3-.8-.1l-1 .8v-1.3c0-.3-.3-.6-.6-.6s-.6.3-.6.6v1.3l-1-.8c-.2-.2-.6-.1-.8.1-.2.3-.1.6.1.8l1.3 1-1.3 1c-.1.1-.2.3-.2.5 0 .3.3.6.6.6.1 0 .2 0 .3-.1l1-.8v1.3c0 .3.3.6.6.6s.6-.3.6-.6v-1.3l1 .8c.1.1.2.1.3.1.2 0 .3-.1.4-.2.3-.4.3-.7 0-.9zM22.2 27l-1.3-1 1.3-1c.2-.2.3-.6.1-.8-.2-.3-.5-.3-.8-.1l-1 .8v-1.3c0-.3-.3-.6-.6-.6s-.6.3-.6.6v1.3l-1-.8c-.2-.2-.6-.1-.8.1-.2.3-.1.6.1.8l1.3 1-1.3 1c-.1.1-.2.3-.2.5 0 .3.3.6.6.6.1 0 .2 0 .3-.1l1-.8v1.3c0 .3.3.6.6.6s.6-.3.6-.6v-1.3l1 .8c.1.1.2.1.3.1.2 0 .3-.1.4-.2.3-.4.3-.7 0-.9zM15.2 27l-1.3-1 1.3-1c.2-.2.3-.6.1-.8-.2-.3-.5-.3-.8-.1l-1 .8v-1.3c0-.3-.3-.6-.6-.6s-.6.3-.6.6v1.3l-1-.8c-.2-.2-.6-.1-.8.1-.2.3-.1.6.1.8l1.3 1-1.3 1c-.1.1-.2.3-.2.5 0 .3.3.6.6.6.1 0 .2 0 .3-.1l1-.8v1.3c0 .3.3.6.6.6s.6-.3.6-.6v-1.3l1 .8c.1.1.2.1.3.1.2 0 .3-.1.4-.2.3-.4.3-.7 0-.9z"/></svg><svg version="1.1" id="acc_settings" x="0" y="0" xml:space="preserve" viewBox="0 0 40 40" xmlns="http://www.w3.org/2000/svg"><style>.akst0{fill:#424242}.akst1{fill:#4caf50}</style><path class="akst0" d="M24.8 18.7c-.1-.2-.2-.4-.5-.5-.2-.1-.5 0-.7.2L22 20c-.6.6-1.4.6-2 0-.6-.6-.6-1.4 0-2l1.6-1.6c.2-.2.2-.4.2-.7-.1-.2-.3-.4-.5-.5-3-.8-5.7 1.2-6.2 3.9-.2.9-.1 1.8.2 2.6l-6.7 6.7c-.8.8-.8 2.2 0 3 .8.8 2.1.8 3 0l6.8-6.8c1.1.4 2.3.4 3.5 0 2.1-.8 3.6-3.3 2.9-5.9z"/><path class="akst1" d="M31.5 17.9l-1.2-.3c-.3-1.1-.7-2.2-1.3-3.2l.6-1c.2-.3.1-.6-.1-.9l-2-2c-.2-.2-.6-.3-.9-.1l-1 .6c-1-.6-2.1-1.1-3.2-1.3l-.3-1.2c-.1-.3-.4-.5-.7-.5h-2.8c-.3 0-.6.2-.7.5l-.3 1.2c-1.1.3-2.2.7-3.2 1.3l-1-.6c-.3-.2-.6-.1-.9.1l-2 2c-.2.2-.3.6-.1.9l.6 1c-.6 1-1.1 2.1-1.3 3.2l-1.2.3c-.3.1-.5.4-.5.7v2.8c0 .3.2.6.5.7l1.2.3c.2.8.4 1.5.8 2.2l3.3-3.3s-.1-.9-.1-1.1c-.1-3.6 2.8-6.4 6.3-6.4s6.3 2.8 6.3 6.3c0 3.2-2.4 6-5.8 6.3-.1 0-.8.1-1.7-.1l-3.3 3.3c.7.3 1.4.6 2.2.8l.3 1.2c.1.3.4.5.7.5h2.8c.3 0 .6-.2.7-.5l.3-1.2c1.1-.3 2.2-.7 3.2-1.3l1 .6c.3.2.6.1.9-.1l2-2c.2-.2.3-.6.1-.9l-.6-1c.6-1 1.1-2.1 1.3-3.2l1.2-.3c.3-.1.5-.4.5-.7v-2.8c-.1-.4-.3-.7-.6-.8z"/></svg><svg version="1.1" id="acc_verification" x="0" y="0" xml:space="preserve" viewBox="0 0 40 40" xmlns="http://www.w3.org/2000/svg"><style>.alst0{fill:#ccc}.alst1{fill:#fff}.alst2{fill:#424242}.alst3{fill:#4caf50}</style><path class="alst0" d="M32 17.6v12.8c0 .9-.7 1.6-1.6 1.6H9.6c-.9 0-1.6-.7-1.6-1.6V17.6c0-.9.7-1.6 1.6-1.6h20.7c1 0 1.7.7 1.7 1.6z"/><path class="alst1" d="M19.6 30h-7.2c-1.3 0-2.4-1.1-2.4-2.4v-7.2c0-1.3 1.1-2.4 2.4-2.4h7.2c1.3 0 2.4 1.1 2.4 2.4v7.2c0 1.3-1.1 2.4-2.4 2.4z"/><path class="alst2" d="M29.6 26h-5.2c-.2 0-.4-.4-.4-1s.2-1 .4-1h5.2c.2 0 .4.4.4 1s-.2 1-.4 1zM29.6 29h-5.2c-.2 0-.4-.4-.4-1s.2-1 .4-1h5.2c.2 0 .4.4.4 1s-.2 1-.4 1z"/><circle class="alst2" cx="16" cy="23" r="3"/><path class="alst2" d="M20 30s0-4-4-4-4 4-4 4h8z"/><path class="alst3" d="M32 16c0 4.4-3.6 8-8 8s-8-3.6-8-8 3.6-8 8-8 8 3.5 8 8c0-.1 0 0 0 0z"/><path class="alst1" d="M28.5 12.3c-.5-.5-1.3-.4-1.8.2l-3.2 4.2-1.4-1.2c-.5-.5-1.3-.4-1.8.1-.5.6-.4 1.4.1 1.9l.1.1 2.4 2.1c.2.2.5.3.8.3h.1c.3 0 .6-.2.9-.5l4-5.3c.5-.6.4-1.4-.2-1.9z"/></svg><svg version="1.1" id="flag_de" x="0" y="0" xml:space="preserve" viewBox="0 0 24 18" xmlns="http://www.w3.org/2000/svg"><style>.amst0{fill:#fc0}.amst1{fill:#c00}.amst2{fill:#333}</style><g id="amFlagDe"><path class="amst0" d="M0 12h24v6H0z"/><path class="amst1" d="M0 6h24v6H0z"/><path class="amst2" d="M0 0h24v6H0z"/></g></svg><svg version="1.1" id="flag_en" x="0" y="0" xml:space="preserve" viewBox="0 0 24 18" xmlns="http://www.w3.org/2000/svg"><style>.anst0{fill:#06c}.anst1{fill:#eee}.anst2{fill:#c00}</style><g id="anFlagEn"><path class="anst0" d="M0 0h24v18H0z"/><path class="anst1" d="M24 0h-2l-8 6V0h-4v6L2 0H0v1.7L7 7H0v4h7l-7 5v2h2l8-6v6h4v-6l8 6h2v-2l-7-5h7V7h-7l7-5V0z"/><path class="anst2" d="M24 8H13V0h-2v8H0v2h11v8h2v-8h11V8zM0 17v1h1l9-7H8l-8 6zm16-6h-2l9 7h1v-1l-8-6zM0 1l8 6h2L1 0H0v1zm16 6l8-6V0h-1l-9 7h2z"/></g></svg><svg version="1.1" id="flag_pl" x="0" y="0" xml:space="preserve" viewBox="0 0 24 18" xmlns="http://www.w3.org/2000/svg"><style>.aost0{fill:#c00}.aost1{fill:#eee}</style><g id="aoFlagPl"><path class="aost0" d="M0 9h24v9H0z"/><path class="aost1" d="M0 0h24v9H0z"/></g></svg><svg version="1.1" id="flag_ru" x="0" y="0" xml:space="preserve" viewBox="0 0 24 18" xmlns="http://www.w3.org/2000/svg"><style>.apst0{fill:#c00}.apst1{fill:#06c}.apst2{fill:#eee}</style><g id="apFlagRu"><path class="apst0" d="M0 12h24v6H0z"/><path class="apst1" d="M0 6h24v6H0z"/><path class="apst2" d="M0 0h24v6H0z"/></g></svg><svg version="1.1" id="ico_allgame" x="0" y="0" xml:space="preserve" viewBox="0 0 40 40" xmlns="http://www.w3.org/2000/svg"><style>.aqst0{fill:#4caf50}.aqst1{fill:#388e3c}.aqst2{fill:#eee}.aqst3{fill:#c12140}.aqst4{fill:#f44336}.aqst5{fill:#d32f2f}.aqst6{fill:#fbc02d}.aqst7{fill:#ff8f00}</style><g id="aqico_x5F_allgame"><path class="aqst0" d="M8.3 21.1l1 5c.9.8 2.1 1.2 3.5 1.2l3.5-1.3c.8-.7 1.2-1.6 1.2-2.6V21l-9.2.1z"/><path class="aqst1" d="M9.2 21.1H8v2.4c0 1 .5 1.9 1.2 2.6v-5zM12.8 27.3c1.4 0 2.7-.5 3.5-1.3v-5h-3.5v6.3z"/><path class="aqst1" d="M8.4 18.8l.8 4.8c.9.8 2.1 1.2 3.5 1.2l3.5-1.3c.8-.7 1.2-1.6 1.2-2.6v-2.3l-9 .2z"/><path class="aqst0" d="M9.2 23.7v-4.8H8v2.3c0 .9.5 1.8 1.2 2.5zM12.8 24.9c1.4 0 2.7-.5 3.5-1.3v-4.8h-3.5v6.1z"/><path class="aqst0" d="M8.3 16.4l1 5c.9.8 2.1 1.2 3.5 1.2l3.5-1.3c.8-.7 1.2-1.6 1.2-2.6v-2.4l-9.2.1z"/><path class="aqst1" d="M9.2 16.4H8v2.4c0 1 .5 1.9 1.2 2.6v-5zM12.8 22.6c1.4 0 2.7-.5 3.5-1.3v-4.9h-3.5v6.2z"/><path class="aqst1" d="M8.3 14.2l.9 4.8c.9.8 2.1 1.2 3.5 1.2l3.5-1.2c.8-.7 1.2-1.6 1.2-2.6v-2.3l-9.1.1z"/><path class="aqst0" d="M9.2 19v-4.6l-.1-.2H8v2.3c0 .9.5 1.8 1.2 2.5zM12.8 20.3c1.4 0 2.7-.5 3.5-1.2v-4.6l-3.5 1.2v4.6z"/><path class="aqst0" d="M8.3 11.8l.9 4.9c.9.8 2.1 1.2 3.5 1.2l3.5-1.2c.8-.7 1.2-1.6 1.2-2.6v-2.4H8.3z"/><path class="aqst1" d="M8 14.2c0 1 .5 1.9 1.2 2.6v-4.4L8 11.7v2.5zM12.8 18c1.4 0 2.7-.5 3.5-1.2v-4h-3.5V18z"/><path class="aqst2" d="M17.5 11.8c0 1-.5 1.9-1.2 2.6l-3.5 1.2c-1.4 0-2.7-.5-3.5-1.2L8 11.8c0-1.2.6-2.2 1.6-2.9l3.2-.9c1.2 0 2.4.4 3.2 1l1.5 2.8z"/><path class="aqst0" d="M17.5 11.7c0-1.1-.6-2-1.5-2.7l-1.9 1.5-1.3-.5V8c-1.1 0-2.2.3-3.1.9l1.6 1.5-.7 1.3H8v.1c0 1 .5 1.9 1.2 2.6l1.9-1.4 1.6.3v2.4c1.4 0 2.7-.5 3.5-1.2L14.4 13l.7-1.3h2.4z"/><ellipse class="aqst2" cx="12.8" cy="11.7" rx="2.7" ry="2.1"/><ellipse class="aqst0" cx="12.8" cy="11.7" rx="2.1" ry="1.7"/><g><path class="aqst3" d="M23.7 24.7v-4.9h-1.2v2.3c-.1 1 .4 1.9 1.2 2.6z"/><path class="aqst4" d="M23 19.9l.7 4.9c.9.8 2.1 1.2 3.5 1.2l3.5-1.3c.8-.7 1.2-1.6 1.2-2.6v-2.3l-8.9.1z"/><path class="aqst5" d="M27.2 26c1.4 0 2.7-.5 3.5-1.3v-4.9h-3.5V26zM23.7 24.7v-4.9h-1.2v2.3c-.1 1 .4 1.9 1.2 2.6z"/><path class="aqst5" d="M22.8 17.5l.9 4.9c.9.8 2.1 1.2 3.5 1.2l3.5-1.3c.8-.7 1.2-1.6 1.2-2.6v-2.4h-9.1z"/><path class="aqst4" d="M27.2 23.7c1.4 0 2.7-.5 3.5-1.3v-2.6h-3.5v3.9zM23.7 17.5h-1.2v2.4c0 1 .5 1.9 1.3 2.6l-.1-5z"/><path class="aqst4" d="M22.8 15.2l.9 4.9c.9.8 2.1 1.3 3.5 1.3l3.5-1.3c.8-.7 1.2-1.6 1.2-2.6v-2.3h-9.1z"/><path class="aqst5" d="M27.2 21.3c1.4 0 2.7-.5 3.5-1.3v-4.6l-3.5 1.3v4.6zM23.7 20.1v-4.6l-.1-.2h-1.1v2.3c-.1.9.4 1.8 1.2 2.5z"/><path class="aqst5" d="M23 12.9l.7 4.9c.9.8 2.1 1.3 3.5 1.3l3.5-1.3c.8-.7 1.2-1.6 1.2-2.6v-2.4l-8.9.1z"/><path class="aqst4" d="M27.2 19c1.4 0 2.7-.5 3.5-1.3v-2.4l-3.5 1.3V19zM22.4 15.2c0 1 .5 1.9 1.2 2.6v-5h-1.2v2.4z"/><path class="aqst4" d="M32 12.7c0 1-.5 2-1.2 2.7l-3.5 1.3c-1.4 0-2.7-.5-3.5-1.3l-1.2-2.6c0-1.2.6-2.2 1.6-2.9l3-.9c1.2 0 2.4.4 3.2 1l1.6 2.7z"/><path class="aqst2" d="M32 12.7c0-1.1-.6-2-1.5-2.7l-1.9 1.5-1.4-.5V9c-1.1 0-2.2.3-3.1 1l1.6 1.5-.7 1.2h-2.6v.1c0 1 .5 1.9 1.2 2.6l1.9-1.4 1.6.3v2.4c1.4 0 2.7-.5 3.5-1.3L28.9 14l.7-1.3H32z"/><ellipse class="aqst2" cx="27.2" cy="12.7" rx="2.7" ry="2.1"/><ellipse class="aqst4" cx="27.2" cy="12.7" rx="2" ry="1.6"/></g><g><path class="aqst6" d="M14.7 24.5l.9 6c1.1.9 2.6 1.5 4.3 1.5l4.3-1.5c.9-.8 1.5-1.9 1.5-3.1v-2.9h-11z"/><path class="aqst7" d="M15.6 30.5v-6h-1.5v2.9c0 1.2.6 2.3 1.5 3.1zM24.2 30.5v-6h-4.3V32c1.7 0 3.2-.6 4.3-1.5z"/><path class="aqst7" d="M14.7 21.7l.9 5.9c1.1.9 2.6 1.5 4.3 1.5l4.3-1.5c.9-.8 1.5-1.9 1.5-3.1v-2.8h-11z"/><path class="aqst6" d="M19.9 29.1c1.7 0 3.2-.6 4.3-1.5V22l-4.3 1.5v5.6zM15.6 27.6V22l-.1-.3h-1.4v2.8c0 1.2.6 2.3 1.5 3.1z"/><path class="aqst6" d="M14.9 18.9l.8 6c1.1.9 2.6 1.5 4.3 1.5l4.3-1.5c.9-.8 1.5-1.9 1.5-3.1v-2.9H14.9z"/><path class="aqst7" d="M15.6 24.9V22l-1.4-3.1h-.1v2.9c0 1.1.6 2.2 1.5 3.1zM19.9 26.4c1.7 0 3.2-.6 4.3-1.5V22l-4.3 1.5v2.9z"/><path class="aqst2" d="M25.7 18.9c0 1.2-.6 2.3-1.5 3.1l-4.3 1.5c-1.7 0-3.2-.6-4.3-1.5l-1.5-3.1c0-1.4.8-2.7 2-3.5l3.8-1.1c1.5 0 2.9.5 3.9 1.2l1.9 3.4z"/><path class="aqst6" d="M25.7 18.9c0-1.4-.8-2.6-1.9-3.4l-2.3 1.9-1.6-.7v-2.4c-1.4 0-2.7.4-3.8 1.1l2 1.8-.8 1.6h-3.1v.1c0 1.2.6 2.3 1.5 3.1l2.3-1.8 1.9.4v2.9c1.7 0 3.2-.6 4.3-1.5l-2.3-1.7.8-1.5 3 .1z"/><ellipse class="aqst2" cx="19.9" cy="18.7" rx="3.2" ry="2.6"/><ellipse class="aqst6" cx="19.9" cy="18.7" rx="2.3" ry="1.9"/></g></g></svg><svg version="1.1" id="ico_bonus" x="0" y="0" xml:space="preserve" viewBox="0 0 40 40" xmlns="http://www.w3.org/2000/svg"><style>.arst0{fill:#212121}.arst1{fill:#424242}.arst2{fill:#fbc02d}.arst3{fill:#ff8f00}</style><g id="arico_x5F_bonus"><path class="arst0" d="M9 14.4L20 20l11-5.6v12L20 32 9 26.4v-12z"/><path class="arst1" d="M20 32V20L9.7 14.8H9v11.6L20 32z"/><path class="arst1" d="M8 14l12-6 12 6v.8l-12 6-12-6V14z"/><path class="arst2" d="M26.9 9.9c-.4-.7-1.2-1.1-2.2-1.1-2.3 0-3.9 2.1-4.6 3.5-.8-1.4-2.4-3.5-4.6-3.5-1.4 0-2.5.9-2.5 2.1 0 2.1 2.3 3.5 7 3.5s7.2-1.8 7.2-3.5c-.1-.4-.2-.7-.3-1zm-11.1 2.3c-.5-.4-.7-.8-.7-1 0-.3.3-.6.7-.6 1 0 1.8 1.3 2.3 2.3-1.2-.1-1.9-.4-2.3-.7zm8.4 0c-.4.3-1.1.6-2.3.7.4-.9 1.2-2.3 2.3-2.3.4 0 .7.2.7.6 0 .3-.2.6-.7 1z"/><path class="arst0" d="M8 14l12 5.9L32 14v3.9l-12 5.9-12-5.9V14z"/><path class="arst2" d="M24.5 18.2v-.4L20 15.3l-4.5 2.4v.4l-3-1.3v-.6l7.3-3.9.2.1.2-.1 7.3 3.9v.6l-3 1.4z"/><path class="arst3" d="M24.5 17.8v12l3-1.5v-12l-3 1.5zM12.5 28.2l3 1.5v-12l-3-1.5v12z"/></g></svg><svg version="1.1" id="ico_brands" x="0" y="0" xml:space="preserve" viewBox="0 0 40 40" xmlns="http://www.w3.org/2000/svg"><style>.asst0{fill:#ffeb3b}.asst1{fill:#fbc02d}.asst2{fill:#ff8f00}.asst3{fill:#f44336}.asst4{fill:#e57373}.asst5{fill:#d32f2f}</style><g id="asico_x5F_brands"><path class="asst0" d="M26 16.6l.4.9c.5 1.2 0 2.6-1.3 3.1 0 0-1.8.6-2.4-1.3l-.5-1.9 1.4-2.1L20 9l-3.6 6.2 1.4 2.1-.5 1.9c-.6 2.1-3.1 1.6-3.7.1-.2-.6-.2-1.3 0-1.8l.4-.9-6-2.1 3 12.4 1.2 1.4h15.6l1.2-1.4 3-12.4-6 2.1z"/><path class="asst1" d="M29 26.9l3-12.4-6 2.1.4.9c.5 1.2 0 2.6-1.3 3.1 0 0-1.8.6-2.4-1.3l-.5-1.9 1.4-2.1L20 9v19.2h7.8l1.2-1.3z"/><path class="asst1" d="M20 27h-9v4h18v-4h-9z"/><path class="asst2" d="M20 27h9v4h-9v-4z"/><path class="asst3" d="M16 27l4-4 4 4-4 4-4-4z"/><path class="asst4" d="M16 27l4-4v4h-4z"/><path class="asst5" d="M20 23v8l4-4-4-4z"/></g></svg><svg version="1.1" id="ico_card" x="0" y="0" xml:space="preserve" viewBox="0 0 40 40" xmlns="http://www.w3.org/2000/svg"><style>.atst0{fill:#eee}.atst1{fill:#bdbdbd}.atst2{fill:#f44336}.atst3{fill:#424242}</style><g id="atico_x5F_card"><path class="atst0" d="M22.2 25.1l-6.1-9.8c-.2-.4-.7-.5-1-.2l-6.7 4.5c-.3.2-.4.7-.2 1.1l6.4 9.8c.2.4.7.5 1 .2l5.4-3.6 1.2-2z"/><path class="atst1" d="M18.1 18.4l-2-3.1c-.2-.4-.7-.5-1-.2l-1.5 1 .8 1.3c.2.4.4.8.4 1.2l.5 8.1c.1.9-.4 1.7-1.1 2.2l-.6.4.8 1.2c.2.4.7.5 1 .2l7.3-5-4.6-7.3z"/><path class="atst2" d="M15.1 19.9c-.5.2-.8.7-.9 1.2 0 .1-.1.1-.1.1-.5-.1-1 0-1.5.3-.6.6-.7 1.5-.2 2.3 1.1 1.6 3.8 1.3 4.2 1.2h.1c.2-.3 1.5-2.8.5-4.4-.4-.7-1.3-1-2.1-.7z"/><path class="atst0" d="M25.4 11.2V8.8c0-.4-.4-.8-1.4-.8h-8c-.5 0-1 .5-1 1l.2 12.8c0 .5.4.8.8.8l6.7-.1 2.7-11.3z"/><path class="atst1" d="M24.5 8H22s-.2 2.8-.4 3.5l-2 8.3c-.3 1.2-1.3 2-2.5 2h-1.9c.1.4.4.7.8.7l6.7-.1 2.5-4 .3-7.3V8.7c-.1-.3-.5-.7-1-.7z"/><path class="atst3" d="M22.1 13.8c-.1 0-.2-.2-.2-.3v-.4c-.1-.8-.7-1.4-1.5-1.5-1-.1-1.9.7-1.9 1.7v.2c0 .1-.1.3-.2.3-.8.2-1.3 1-1.2 1.8.1.8.7 1.5 1.5 1.5.4 0 .7-.1 1-.2v1.4h-.2c-.3 0-.6.3-.6.6s.3.6.6.6h2c.3-.1.4-.3.4-.6s-.3-.6-.6-.6H21v-1.4c.3.2.6.2 1 .2.8-.1 1.4-.8 1.5-1.6-.1-.8-.6-1.5-1.4-1.7z"/><path class="atst0" d="M28.5 32l-8.6-1.8c-.4-.1-.7-.5-.6-1l2.5-12.5c.1-.5.5-.7 1-.6l8.6 1.8c.4.1.7.5.6 1l-2.5 12.5c-.1.4-.6.7-1 .6z"/><path class="atst1" d="M31.3 17.8L22.7 16c-.2 0-.4 0-.6.1l5.6 1.2c.4.1.7.5.6 1l-2 9.9c-.3 1.5-1.5 2.5-2.8 2.8l4.9 1c.4.1.9-.2 1-.6L32 18.8c.1-.4-.2-.9-.7-1z"/><path class="atst2" d="M28.6 24.3L26.5 21c-.1-.2-.4-.2-.5-.1L22.8 23c-.2.1-.2.4-.1.5l2.1 3.3c.1.2.4.2.5.1l3.2-2.1c.2 0 .2-.3.1-.5z"/></g></svg><svg version="1.1" id="ico_casino" x="0" y="0" xml:space="preserve" viewBox="0 0 40 40" xmlns="http://www.w3.org/2000/svg"><style>.aust0{fill:#ff8f00}.aust1{fill:#fbc02d}.aust2{fill:#424242}.aust3{fill:#212121}.aust4{fill:#fff}.aust5{fill:#eee}</style><g id="auico_x5F_casino"><path class="aust0" d="M25.7 14.3l2.3-.7.5-2.2C26.3 9.3 23.3 8 20 8l-.6 1.9.6 2.1c2.2 0 4.2.9 5.7 2.3z"/><path class="aust1" d="M12 20c0-2.2.9-4.2 2.3-5.7L13 12.1l-1.5-.6C9.3 13.7 8 16.7 8 20l2.1.5L12 20z"/><path class="aust0" d="M32 20l-1.9-.5-2.1.5c0 2.2-.9 4.2-2.3 5.7l1.1 2.2 1.7.6c2.2-2.2 3.5-5.2 3.5-8.5z"/><path class="aust1" d="M14.3 25.7l-1.7.7-1.1 2.1c2.2 2.2 5.2 3.5 8.5 3.5l.7-2.1L20 28c-2.2 0-4.2-.9-5.7-2.3z"/><path class="aust2" d="M20 12V8c-3.3 0-6.3 1.3-8.5 3.5l2.8 2.8c1.5-1.4 3.5-2.3 5.7-2.3zM12 20H8c0 3.3 1.3 6.3 3.5 8.5l2.8-2.8C12.9 24.2 12 22.2 12 20z"/><path class="aust2" d="M20 11.2c-4.9 0-8.8 3.9-8.8 8.8s3.9 8.8 8.8 8.8 8.8-3.9 8.8-8.8-3.9-8.8-8.8-8.8z"/><path class="aust3" d="M28 20h4c0-3.3-1.3-6.3-3.5-8.5l-2.8 2.8c1.4 1.5 2.3 3.5 2.3 5.7zM20 28v4c3.3 0 6.3-1.3 8.5-3.5l-2.8-2.8C24.2 27.1 22.2 28 20 28z"/><path class="aust3" d="M28.8 20c0 4.9-3.9 8.8-8.8 8.8V11.2c4.9 0 8.8 3.9 8.8 8.8z"/><circle class="aust4" cx="20" cy="20" r="7.2"/><path class="aust5" d="M27.2 20c0 4-3.2 7.2-7.2 7.2V12.8c4 0 7.2 3.2 7.2 7.2z"/><path class="aust2" d="M20.8 22.6V24h1.6v1.6h-4.8V24h1.6v-1.4c-.4.2-.8.3-1.2.3-1.6 0-2.8-1.3-2.8-3s1.4-2.9 3.2-4.5c1-.9 1-.9 1.5-1.3.5.4.5.5 1.5 1.3 1.7 1.4 3.2 2.6 3.2 4.5 0 1.7-1.2 3-2.8 3-.2 0-.6-.1-1-.3z"/><path class="aust3" d="M20.8 22.6V24h1.6v1.6H20V14.1c.5.4.5.5 1.5 1.3 1.7 1.4 3.2 2.6 3.2 4.5 0 1.7-1.2 3-2.8 3-.3 0-.7-.1-1.1-.3z"/></g></svg><svg version="1.1" id="ico_close" x="0" y="0" xml:space="preserve" viewBox="0 0 30 30" xmlns="http://www.w3.org/2000/svg"><style>.avst0{fill-rule:evenodd;clip-rule:evenodd;fill:#eee}</style><path class="avst0" d="M21.4 19.9L20 21.3l-5-4.9-4.9 4.9-1.4-1.4 4.9-4.9-4.9-4.9 1.4-1.4 4.9 4.9 4.9-4.9 1.4 1.4-4.9 4.9 5 4.9z"/></svg><svg version="1.1" id="ico_esport" x="0" y="0" xml:space="preserve" viewBox="0 0 40 40" xmlns="http://www.w3.org/2000/svg"><style>.awst0{fill:#212121}.awst1{fill:#424242}.awst2{fill:#eee}.awst3{fill:#fbc02d}</style><g id="awico_x5F_esport"><path class="awst0" d="M18 13h-6c0-1.7 1.3-3 3-3s3 1.3 3 3z"/><path class="awst0" d="M26.6 17.7V12H13.4v5.7H8v8.7c0 2 1.5 3.6 3.4 3.6 1.7 0 3.1-1.3 3.4-3 .3-2 2.2-3 4.2-3h2c1.9 0 3.9.9 4.2 3 .3 1.8 1.7 3 3.4 3 1.9 0 3.4-1.6 3.4-3.6v-8.7h-5.4z"/><path class="awst1" d="M20 12h-6.6v5.7H8v8.7c0 2 1.5 3.6 3.4 3.6 1.7 0 3.1-1.3 3.4-3 .3-2 2.2-3 4.2-3h1V12z"/><path class="awst1" d="M15 10c-1.7 0-3 1.3-3 3h3v-3z"/><path class="awst0" d="M28 13h-6c0-1.7 1.3-3 3-3s3 1.3 3 3z"/><path class="awst1" d="M25 10c-1.7 0-3 1.3-3 3h3v-3z"/><path class="awst0" d="M19 17.5c0 3-2.5 5.5-5.5 5.5S8 20.5 8 17.5s2.5-5.5 5.5-5.5 5.5 2.5 5.5 5.5z"/><path class="awst1" d="M13.5 12v11c3 0 5.5-2.5 5.5-5.5S16.5 12 13.5 12z"/><path class="awst2" d="M16.4 16.3h-1.7v-1.7c0-.3-.3-.6-.6-.6h-1.3c-.3 0-.6.3-.6.6v1.7h-1.7c-.3 0-.6.3-.6.6v1.3c0 .3.3.6.6.6h1.7v1.7c0 .3.3.6.6.6h1.3c.3 0 .6-.3.6-.6v-1.7h1.7c.3 0 .6-.3.6-.6v-1.3c0-.4-.3-.6-.6-.6z"/><path class="awst0" d="M32 17.5c0 3-2.5 5.5-5.5 5.5S21 20.5 21 17.5s2.5-5.5 5.5-5.5 5.5 2.5 5.5 5.5z"/><path class="awst1" d="M26.5 12v11c3 0 5.5-2.5 5.5-5.5S29.5 12 26.5 12z"/><path class="awst3" d="M28 14.5c0 .8-.7 1.5-1.5 1.5s-1.5-.7-1.5-1.5.7-1.5 1.5-1.5 1.5.7 1.5 1.5zM28 20.5c0 .8-.7 1.5-1.5 1.5s-1.5-.7-1.5-1.5.7-1.5 1.5-1.5 1.5.7 1.5 1.5z"/><path class="awst2" d="M31 17.5c0 .8-.7 1.5-1.5 1.5s-1.5-.7-1.5-1.5.7-1.5 1.5-1.5 1.5.7 1.5 1.5zM25 17.5c0 .8-.7 1.5-1.5 1.5s-1.5-.7-1.5-1.5.7-1.5 1.5-1.5 1.5.7 1.5 1.5z"/></g></svg><svg version="1.1" id="ico_home" x="0" y="0" xml:space="preserve" viewBox="0 0 40 40" xmlns="http://www.w3.org/2000/svg"><style>.axst0{fill:#fbc02d}.axst1{fill:#ff8f00}.axst2{fill:#424242}.axst3{fill:#212121}.axst4{fill:#eee}.axst5{fill:#fff}</style><g id="axico_x5F_home"><path class="axst0" d="M11 18v14h6l3-8.6.6-6L20 10l-9 8z"/><path class="axst1" d="M29 18l-9-8v13.4l3 8.6h6V18z"/><path class="axst2" d="M25 9v3l1 3h2V9h-3zM8 18l1 2 11-9 1-1-1-2L8 18z"/><path class="axst3" d="M20 8v3l11 9 1-2L20 8z"/><path class="axst4" d="M16 32h4l1-4-1-5-4 1v8z"/><path class="axst5" d="M20 23l4 1v8h-4v-9z"/></g></svg><svg version="1.1" id="ico_hot" x="0" y="0" xml:space="preserve" viewBox="0 0 40 40" xmlns="http://www.w3.org/2000/svg"><style>.ayst0{fill:#d32f2f}.ayst1{fill:#f44336}.ayst2{fill:#fff}</style><g id="ayico_x5F_hot"><path class="ayst0" d="M30.8 20.6c-.2-.4-.2-.8 0-1.2l.9-2c.3-.7.3-1.6 0-2.3-.3-.7-.9-1.3-1.7-1.6l-2-.8c-.4-.1-.7-.4-.8-.8l-.8-2c-.3-.8-.9-1.4-1.6-1.7-.7-.3-1.6-.3-2.3 0l-2 .9c-.4.2-.8.2-1.2 0l-2-.9c-.7-.3-1.6-.3-2.3 0-.7.3-1.3.9-1.6 1.7l-.8 2c-.1.4-.4.7-.8.8l-2 .8c-.8.3-1.4.9-1.7 1.6-.3.7-.3 1.6 0 2.3l.9 2c.2.4.2.8 0 1.2l-.9 2c-.3.7-.3 1.6 0 2.3.3.7.9 1.3 1.7 1.6l2 .8c.4.1.7.4.8.8l.8 2c.3.8.9 1.4 1.6 1.7.4.1.7.2 1.1.2.4 0 .8-.1 1.2-.3l2-.9c.4-.2.8-.2 1.2 0l2 .9c.7.3 1.6.3 2.3 0 .7-.3 1.3-.9 1.6-1.7l.8-2c.1-.4.4-.7.8-.8l2-.8c.8-.3 1.4-.9 1.7-1.6.3-.7.3-1.6 0-2.3l-.9-1.9z"/><path class="ayst1" d="M8.3 22.6c-.3.7-.3 1.6 0 2.3.3.7.9 1.3 1.7 1.6l2 .8c.2.1.4.2.5.3l15.2-15.2c-.1-.1-.3-.3-.3-.5l-.8-2c-.3-.8-.9-1.4-1.6-1.7-.7-.3-1.6-.3-2.3 0l-2 .9c-.4.2-.8.2-1.2 0l-2-.9c-.7-.3-1.6-.3-2.3 0-.7.3-1.3.9-1.6 1.7l-.8 2c-.1.4-.4.7-.8.8l-2 .8c-.8.3-1.4.9-1.7 1.6-.3.7-.3 1.6 0 2.3l.9 2c.2.4.2.8 0 1.2l-.9 2z"/><path class="ayst2" d="M21.4 17.7c-.9-.9-2.3-.9-3.2 0s-.9 2.3 0 3.2l1.4 1.4c.4.4 1 .7 1.6.7.6 0 1.2-.2 1.6-.7.9-.9.9-2.3 0-3.2l-1.4-1.4zm.4 3.5c-.3.3-.8.3-1.1 0l-1.4-1.4c-.3-.3-.3-.8 0-1.1.1-.1.3-.2.5-.2s.4.1.5.2l1.4 1.4c.4.4.4.8.1 1.1zM16.8 20.2c-.3-.3-.8-.3-1.1 0-.3.3-.3.8 0 1.1l1.2 1.2-1.1 1.1-1.2-1.2c-.3-.3-.8-.3-1.1 0s-.3.8 0 1.1L17 27c.1.1.3.2.5.2s.4-.1.5-.2c.3-.3.3-.8 0-1.1l-1-1.3 1.1-1.1 1.2 1.2c.1.1.3.2.5.2s.4-.1.5-.2c.3-.3.3-.8 0-1.1l-3.5-3.4zM26.4 17.7l-3-3 .5-.5c.3-.3.3-.8 0-1.1-.3-.3-.8-.3-1.1 0l-1.1 1.1-1.1 1.1c-.3.3-.3.8 0 1.1.1.1.3.2.5.2s.4-.1.5-.2l.5-.5 3 3c.1.1.3.2.5.2s.4-.1.5-.2c.6-.4.6-.9.3-1.2z"/></g></svg><svg version="1.1" id="ico_info" x="0" y="0" xml:space="preserve" viewBox="0 0 40 40" xmlns="http://www.w3.org/2000/svg"><style>.azst0{fill:#fbc02d}.azst1{fill:#ff8f00}.azst2{fill:#424242}.azst3{fill:#212121}</style><g id="azico_x5F_info"><path class="azst0" d="M20 32c-2.2 0-4.4-.7-6.2-1.8L8 32l1.8-5.8C8.7 24.4 8 22.2 8 20c0-6.6 5.4-12 12-12s12 5.4 12 12-5.4 12-12 12z"/><path class="azst1" d="M32 20c0-6.6-5.4-12-12-12v24c6.6 0 12-5.4 12-12z"/><path class="azst2" d="M20 16.5c-1.2 0-2.1-.9-2.1-2.1s.9-2.1 2.1-2.1 2.1.9 2.1 2.1-.9 2.1-2.1 2.1zM23 27h-6v-1.5c.4 0 .8-.3.8-.8v-4.5c0-.4-.3-.8-.8-.8V18h5.2v6.8c0 .4.3.8.8.8V27z"/><path class="azst3" d="M22.1 14.4c0-1.2-.9-2.1-2.1-2.1v4.2c1.2 0 2.1-1 2.1-2.1zM22.2 24.8V18H20v9h3v-1.5c-.4 0-.8-.3-.8-.7z"/></g></svg><svg version="1.1" id="ico_jackpot" x="0" y="0" xml:space="preserve" viewBox="0 0 40 40" xmlns="http://www.w3.org/2000/svg"><style>.bast0{fill:#ff8f00}.bast1{fill:#fbc02d}.bast2{fill:#ffeb3b}.bast3{fill:#388e3c}.bast4{fill:#4caf50}.bast5{fill:#8bc34a}.bast6{fill:#d32f2f}.bast7{fill:#e57373}.bast8{fill:#f44336}</style><g id="baico_x5F_jackpot"><path class="bast0" d="M8.1 14.1c-.2.4-.1.9.2 1.2l10.4 12.3c.2.3.5.4.9.4.3 0 .7-.1.9-.4l10.4-12.3c.3-.4.3-.9.1-1.3l-22.9.1z"/><path class="bast1" d="M15 14.7L19.5 28 24 14.7zM30.8 14l-3.7-5.5c-.2-.3-.6-.5-.9-.5H12.8c-.4 0-.7.2-.9.5L8.2 14c-.2.2-.2.4-.2.7h23c0-.3 0-.5-.2-.7z"/><path class="bast2" d="M30.8 14l-3.7-5.5c-.1-.2-.3-.3-.4-.4l-4.4 6.6H31c0-.3 0-.5-.2-.7zM11.9 8.5L8.2 14c-.2.2-.2.4-.2.7h8.7l-4.4-6.6c-.2.1-.3.2-.4.4z"/><path class="bast0" d="M19.5 8L15 14.7h9L19.5 8z"/><g><path class="bast3" d="M31.7 23.4H19.3l-.1.2c-.2.2-.1.6 0 .8l5.9 7.4c.1.2.3.2.5.2s.4-.1.5-.2l5.9-7.4c.2-.2.2-.5 0-.8l-.3-.2z"/><path class="bast4" d="M31.9 23.6l-2.1-3.3c-.1-.2-.3-.3-.5-.3h-7.5c-.2 0-.4.1-.5.3l-2.1 3.3c-.2.1-.2.3-.2.4h13c0-.1 0-.3-.1-.4z"/><path class="bast5" d="M21.4 20.1c-.1.1-.2.1-.2.2l-2.1 3.3c-.1.1-.1.3-.1.4h4.9l-2.5-3.9z"/><path class="bast4" d="M23 24l2.5 8 2.5-8z"/><path class="bast5" d="M27.1 24H32c0-.1 0-.3-.1-.4l-2.1-3.3c-.1-.1-.1-.2-.2-.2L27.1 24z"/><path class="bast3" d="M25.5 20L23 24h5l-2.5-4z"/></g><g><path class="bast6" d="M17.8 24.5H8.2l-.1.2c-.1.2-.1.4 0 .6l4.5 5.5c.1.1.2.2.4.2.1 0 .3-.1.4-.2l4.5-5.5c.1-.2.2-.4 0-.6l-.1-.2z"/><path class="bast7" d="M17.9 24.7l-1.6-2.5c-.1-.1-.2-.2-.4-.2h-5.8c-.2 0-.3.1-.4.2l-1.6 2.5c-.1.1-.1.2-.1.3h10c0-.1 0-.2-.1-.3z"/><path class="bast8" d="M9.9 22.1c-.1 0-.1.1-.2.2l-1.6 2.5c-.1 0-.1.1-.1.2h3.8l-1.9-2.9z"/><path class="bast7" d="M11.1 25l1.9 6 1.9-6z"/><path class="bast8" d="M14.2 25H18c0-.1 0-.2-.1-.3l-1.6-2.5c0-.1-.1-.1-.2-.2l-1.9 3z"/><path class="bast6" d="M13 22l-2 3h4l-2-3z"/></g></g></svg><svg version="1.1" id="ico_live" x="0" y="0" xml:space="preserve" viewBox="0 0 40 40" xmlns="http://www.w3.org/2000/svg"><style>.bbst0{fill:#424242}.bbst1{fill:#212121}.bbst2{fill:#fbc02d}.bbst3{fill:#ff8f00}.bbst4{display:none;fill:#fa5d0f}</style><g id="bbico_x5F_live"><path class="bbst0" d="M12 16h-1.5v-2.4c0-1.1.9-2 1.9-2h3.2v1.5h-3.2c-.3 0-.5.2-.5.5V16z"/><path class="bbst1" d="M26.5 19h3.3v6h-3.3v-6z"/><path class="bbst0" d="M32 27l-4-2v-6l4-2v10z"/><path class="bbst1" d="M28 22v3.2l4 1.8v-5h-4z"/><path class="bbst0" d="M24.2 29H10.8C9.2 29 8 27.7 8 26.1v-8.2c0-1.6 1.2-2.9 2.8-2.9h13.4c1.5 0 2.8 1.3 2.8 2.9v8.2c0 1.6-1.2 2.9-2.8 2.9z"/><path class="bbst1" d="M8 22v4.4c0 1.5 1.2 2.6 2.8 2.6h13.4c1.5 0 2.8-1.2 2.8-2.6V22H8z"/><path class="bbst2" d="M11.9 17h11.2c1.1 0 1.9.9 1.9 1.9v3.2c0 1.1-.9 1.9-1.9 1.9H11.9c-1.1 0-1.9-.9-1.9-1.9v-3.2c0-1 .9-1.9 1.9-1.9z"/><path class="bbst3" d="M23.1 22H11.9c-1.1 0-1.9-1-1.9-2.2v2c0 1.2.9 2.2 1.9 2.2h11.2c1.1 0 1.9-1 1.9-2.2v-2c0 1.2-.9 2.2-1.9 2.2z"/><path class="bbst1" d="M21.7 14h-6.3c-.7 0-1.3-.7-1.3-1.5s.6-1.5 1.3-1.5h6.3c.7 0 1.3.7 1.3 1.5s-.6 1.5-1.3 1.5z"/><path class="bbst4" d="M14 19.5c0 .8-.7 1.5-1.5 1.5s-1.5-.7-1.5-1.5.7-1.5 1.5-1.5 1.5.7 1.5 1.5z"/><path class="bbst1" d="M12 18h.9v4.1h1.6v.9H12v-5zM15.9 18v5H15v-5h.9zM17.6 23l-1.3-5h1l.5 2.1c.1.6.3 1.2.4 1.8.1-.6.2-1.2.4-1.8l.5-2.1h1l-1.3 5h-1.2zM22.8 20.9h-1.5v1.2H23v.9h-2.5v-5H23v.9h-1.6v1h1.5v1z"/></g></svg><svg version="1.1" id="ico_livecasino" x="0" y="0" xml:space="preserve" viewBox="0 0 40 40" xmlns="http://www.w3.org/2000/svg"><style>.bcst0{fill:#eee}.bcst1{fill:#fbc02d}.bcst2{fill:#212121}.bcst3{fill:#424242}.bcst4{fill:#fff}.bcst5{fill:#ff8f00}</style><g id="bcico_x5F_livecasino"><path class="bcst0" d="M28.7 29.6v2c0 .2-.2.4-.5.4H11.7c-.3 0-.5-.2-.5-.4v-2c0-1.6 1-2.9 2.5-3.5-.6-.4-1.5-1-2.2-2.3-.8-1.8-.7-3.8.5-5.4.6-.9 1-1.9 1-3v-2.2c0-2.9 2.5-5.2 5.7-5.2h2.7c3.1 0 5.7 2.3 5.7 5.2 0 2.4-.1 2.8.2 3.8.4 1.3 1 1.5 1.5 2.9.7 2.1-.1 4.5-2 5.9l-.6.2c1.5.6 2.5 2 2.5 3.6z"/><path class="bcst1" d="M29 29.6v2c0 .2-.2.4-.5.4h-17c-.3 0-.5-.2-.5-.4v-2c0-2.1 2-3.9 4.4-3.9.4 0 .7-.1 1-.2l3.3 5.3c.2.1.4.1.6 0l3.3-5.3c.3.1.6.2 1 .2 2.4 0 4.4 1.7 4.4 3.9z"/><path class="bcst2" d="M26.7 25.7l-.5.3c-.5-.2-1.1-.3-1.7-.3-1.3 0-2.3-1-2.3-2.1v-.4c2-.8 3.5-2.6 3.5-4.7V16c0-.2-.2-.4-.4-.4-.9 0-1.7-.6-2-1.5-.1-.3-.4-.4-.7-.2-2.2 1.4-4.9 2-7.6 1.8-.3 0-.5.2-.5.4v2.4c0 2.1 1.4 4 3.5 4.7v.4c0 1.2-1.1 2.1-2.3 2.1-.6 0-1.2.1-1.7.3l-.5-.4c-2.4-1.8-3-4.9-1.3-7.3.6-.9 1-1.9 1-3v-2.2c0-2.9 2.5-5.2 5.7-5.2h2.7c3.1 0 5.7 2.3 5.7 5.2v2.2c0 1 .3 2.1 1 3 1.4 2.4.9 5.6-1.6 7.4z"/><path class="bcst3" d="M23.9 8.6c.6.3.3 1.1-.3 1h-3.2c-3.1 0-5.7 2.3-5.7 5.2v.6c0 .4-.3.4-.3.7v2.7c-.4 1.2-1 1.4-1.4 2.7-.2.7-.3 1.4-.2 2.2.1.6-.8.9-1.1.3-1-2-.9-4 .3-5.6.6-.9 1-1.9 1-3v-2.2c0-2.9 2.5-5.2 5.7-5.2h2.7c.9 0 1.7.2 2.5.6z"/><path class="bcst4" d="M18.9 21.9c.8.5.2 1.7-.8 1.4-2.1-.7-3.8-2.5-3.8-4.8V16c0-.2.2-.4.5-.4h.7c.5 0 .8.4.8.8v1.2c.1 1.8 1.1 3.4 2.6 4.3z"/><path class="bcst5" d="M24.6 25.7c-.4 0-.7-.1-1-.2l-3.3 5.3c-.1.1-.2.1-.3.1V32h8.5c.3 0 .5-.2.5-.4v-2c0-2.2-2-3.9-4.4-3.9z"/></g></svg><svg version="1.1" id="ico_menu" x="0" y="0" xml:space="preserve" viewBox="0 0 30 30" xmlns="http://www.w3.org/2000/svg"><style>.bdst0{fill-rule:evenodd;clip-rule:evenodd;fill:#eee}</style><path class="bdst0" d="M7 9h16v2H7V9zM7 14h16v2H7v-2zM7 19h16v2H7v-2z"/></svg><svg version="1.1" id="ico_new" x="0" y="0" xml:space="preserve" viewBox="0 0 40 40" xmlns="http://www.w3.org/2000/svg"><style>.best0{fill:#388e3c}.best1{fill:#4caf50}.best2{fill:#fff}</style><g id="beico_x5F_new"><path class="best0" d="M29.3 8h-8.9c-.7 0-1.4.3-1.9.8l-9.7 9.7c-1.1 1.1-1.1 2.8 0 3.8l8.9 8.9c.5.5 1.2.8 1.9.8s1.4-.3 1.9-.8l9.7-9.7c.5-.5.8-1.2.8-1.9v-8.9C32 9.2 30.8 8 29.3 8z"/><path class="best1" d="M13.3 26.8l18-18c-.5-.5-1.2-.8-2-.8h-8.9c-.7 0-1.4.3-1.9.8l-9.7 9.7c-1.1 1.1-1.1 2.8 0 3.8l4.5 4.5z"/><path class="best2" d="M27.5 14c-.8 0-1.5-.7-1.5-1.5s.7-1.5 1.5-1.5 1.5.7 1.5 1.5-.7 1.5-1.5 1.5zM16.3 20.5c-.3-.3-.8-.3-1.1 0-.3.3-.3.8 0 1.1l1.6 1.6-3-.8c-.3-.1-.7.1-.8.4-.2.3-.1.7.1.9l3.5 3.5c.1.1.3.2.5.2s.4-.1.5-.2c.3-.3.3-.8 0-1.1L16 24.5l3 .8c.3.1.7-.1.8-.4.2-.3.1-.7-.1-.9l-3.4-3.5zM22.3 20.5l-1.6 1.6-.7-.7 1.6-1.6c.3-.3.3-.8 0-1.1-.3-.3-.8-.3-1.1 0l-1.6 1.6-.7-.7 1.6-1.6c.3-.3.3-.8 0-1.1-.3-.3-.8-.3-1.1 0L16.6 19c-.1.1-.2.3-.2.5s.1.4.2.5l3.5 3.5c.1.1.3.2.5.2s.4-.1.5-.2l2.1-2.1c.3-.3.3-.8 0-1.1-.1-.1-.6-.1-.9.2zM24.2 12.9c-.2-.3-.7-.4-1-.2-.3.2-.4.7-.2 1l1.4 2.1-.2-.1c-.3-.1-.6-.1-.8.2-.2.2-.3.5-.2.8l.1.2-2.1-1.4c-.3-.2-.8-.1-1 .2-.2.3-.1.8.2 1l4.2 2.8c.1.1.3.1.4.1.2 0 .3-.1.5-.2.3-.2.3-.6.2-.9l-.3-.8.8.3c.3.1.7 0 .9-.2.2-.3.2-.6 0-.9l-2.9-4z"/></g></svg><svg version="1.1" id="ico_others" x="0" y="0" xml:space="preserve" viewBox="0 0 40 40" xmlns="http://www.w3.org/2000/svg"><style>.bfst0{fill:#eee}.bfst1{fill:#bdbdbd}.bfst2{fill:#fff}.bfst3{fill:#424242}.bfst4{fill:#212121}</style><g id="bfico_x5F_others"><path class="bfst0" d="M21.4 8.3c-.8-.4-2.1-.4-2.9 0l-8.1 4.4c-.8.5-1.4 1.6-1.4 2.5v9.7c0 .9.6 2 1.4 2.4l8.1 4.4c.8.4 2.1.4 2.9 0l8.1-4.4c.8-.4 1.4-1.5 1.4-2.4v-9.7c0-.9-.6-2-1.4-2.4l-8.1-4.5z"/><path class="bfst0" d="M20 32V21c0-.9-.5-1.7-1.3-2.1l-8.3-4.5c-.6-.4-1.4 0-1.4.8v9.7c0 .9.6 2 1.4 2.4l8.1 4.4c.5.2 1 .3 1.5.3z"/><path class="bfst1" d="M20 32V21c0-.9.5-1.7 1.3-2.1l8.3-4.5c.6-.3 1.5.1 1.5.8v9.7c0 .9-.6 2-1.4 2.4l-8.1 4.4c-.6.2-1.1.3-1.6.3z"/><path class="bfst2" d="M21.5 18.7l8.1-4.4c.6-.3.6-1.2 0-1.5l-8.1-4.4c-.9-.5-2-.5-3 0l-8.1 4.4c-.6.3-.6 1.2 0 1.5l8.1 4.4c.9.5 2.1.5 3 0z"/><path class="bfst3" d="M15.7 23.7c0 .9-.6 1.4-1.3 1-.7-.4-1.3-1.5-1.3-2.4 0-.9.6-1.4 1.3-1 .7.4 1.3 1.5 1.3 2.4z"/><path class="bfst4" d="M21.6 28.3c0 .9.6 1.4 1.3 1 .7-.4 1.3-1.5 1.3-2.4s-.6-1.4-1.3-1c-.7.3-1.3 1.4-1.3 2.4zM26.9 19.4c0 .9.6 1.4 1.3 1 .7-.4 1.3-1.5 1.3-2.4s-.6-1.4-1.3-1c-.7.4-1.3 1.4-1.3 2.4zM24.4 23.8c0 .9.6 1.4 1.3 1 .7-.4 1.3-1.5 1.3-2.4 0-.9-.6-1.4-1.3-1-.8.4-1.3 1.4-1.3 2.4z"/><ellipse class="bfst3" cx="20" cy="13.4" rx="2" ry="1"/><ellipse class="bfst3" cx="20" cy="10.6" rx="2" ry="1"/><ellipse class="bfst3" cx="20" cy="16.3" rx="2" ry="1"/><ellipse class="bfst3" cx="25.3" cy="13.4" rx="2" ry="1"/><ellipse class="bfst3" cx="14.7" cy="13.4" rx="2" ry="1"/></g></svg><svg version="1.1" id="ico_resize" x="0" y="0" xml:space="preserve" viewBox="0 0 30 30" xmlns="http://www.w3.org/2000/svg"><style>.bgst0{fill-rule:evenodd;clip-rule:evenodd;fill:#eee}</style><path class="bgst0" d="M9 9v12h12V9H9zm10 10h-8v-8h8v8z"/></svg><svg version="1.1" id="ico_roulette" x="0" y="0" xml:space="preserve" viewBox="0 0 40 40" xmlns="http://www.w3.org/2000/svg"><style>.bhst0{fill:#424242}.bhst1{fill:#f44336}.bhst2{fill:#4caf50}.bhst3{fill:#d32f2f}.bhst4{fill:#388e3c}.bhst5{fill:#212121}.bhst6{fill:#fff}</style><g id="bhico_x5F_roulette"><circle class="bhst0" cx="20" cy="20" r="12"/><path class="bhst0" d="M28.2 15.3c-.8-1.4-2-2.6-3.5-3.5L20 10.5c-1.7 0-3.3.5-4.7 1.3l-3.5 3.5c-.8 1.4-1.3 3-1.3 4.7l1.3 4.7c.8 1.4 2 2.6 3.5 3.5l4.7 1.3c1.7 0 3.3-.5 4.7-1.3l3.5-3.5c.8-1.4 1.3-3 1.3-4.7l-1.3-4.7z"/><path class="bhst1" d="M10.5 20c0 1.7.5 3.3 1.3 4.7L20 20h-9.5zM15.3 11.8c-1.4.8-2.6 2-3.5 3.5L20 20l-4.7-8.2zM24.7 11.8c-1.4-.8-3-1.3-4.7-1.3V20l4.7-8.2z"/><path id="bhSVGCleanerId_0_2_" class="bhst1" d="M15.3 28.2c1.4.8 3 1.3 4.7 1.3V20l-4.7 8.2z"/><path class="bhst1" d="M20 20h9.5c0-1.7-.5-3.3-1.3-4.7L20 20z"/><path class="bhst2" d="M24.7 28.2c1.4-.8 2.6-2 3.5-3.5L20 20l4.7 8.2z"/><path class="bhst3" d="M23.4 11.2c-.3.7-.1 1.5.6 1.9l.7-1.3c-.4-.2-.8-.4-1.3-.6zM16 26.9l-.7 1.3c1.4.8 3 1.3 4.7 1.3V28c-1.4 0-2.8-.4-4-1.1zM26.9 16c.7 1.2 1.1 2.6 1.1 4h1.4c0-1.7-.5-3.3-1.3-4.7l-1.2.7z"/><path class="bhst4" d="M24.7 28.2c1.4-.8 2.6-2 3.5-3.5l-1.3-.7c-.7 1.2-1.7 2.2-2.9 2.9l.7 1.3z"/><path class="bhst5" d="M20 23.7c-2 0-3.7-1.6-3.7-3.7 0-2 1.6-3.7 3.7-3.7s3.7 1.6 3.7 3.7c0 2-1.7 3.7-3.7 3.7z"/><path class="bhst6" d="M22.2 19.2c-.3 0-.5.1-.7.4h-1.1v-1.1c.2-.1.4-.4.4-.7 0-.4-.4-.8-.8-.8s-.8.4-.8.8c0 .3.1.5.4.7v1.1h-1.1c-.1-.2-.4-.4-.7-.4-.4 0-.8.4-.8.8s.4.8.8.8c.3 0 .5-.1.7-.4h1.1v1.1c-.2.1-.4.4-.4.7 0 .4.4.8.8.8s.8-.4.8-.8c0-.3-.1-.5-.4-.7v-1.1h1.1c.1.2.4.4.7.4.4 0 .8-.4.8-.8s-.4-.8-.8-.8z"/><circle class="bhst6" cx="17.5" cy="10.5" r="1.5"/></g></svg><svg version="1.1" id="ico_search" x="0" y="0" viewBox="0 0 20 20" xml:space="preserve" xmlns="http://www.w3.org/2000/svg"><style>.bist0{fill:#93939d}</style><path class="bist0" d="M14.6 12.6C15.5 11.3 16 9.7 16 8c0-4.4-3.6-8-8-8S0 3.6 0 8s3.6 8 8 8c1.7 0 3.3-.5 4.6-1.4L18 20h2v-2l-5.4-5.4zM2 8c0-3.3 2.7-6 6-6s6 2.7 6 6-2.7 6-6 6-6-2.7-6-6"/></svg><svg version="1.1" id="ico_slot" x="0" y="0" xml:space="preserve" viewBox="0 0 40 40" xmlns="http://www.w3.org/2000/svg"><style>.bjst0{fill:#424242}.bjst1{fill:#fbc02d}.bjst2{fill:#ff8f00}.bjst3{fill:#f44336}.bjst4{fill:#4caf50}.bjst5{fill:#fff}.bjst6{fill:#eee}</style><g id="bjico_x5F_slot"><path class="bjst0" d="M31 11.8v8.3c0 .5-.4.8-1 .8h-4c-.6 0-1-.4-1-.8s.4-.8 1-.8h3v-7.5c0-.5.4-.8 1-.8s1 .4 1 .8z"/><path class="bjst1" d="M17.5 8C12.3 8 8 12.3 8 17.7v12C8 31 9 32 10.3 32h14.4c1.3 0 2.3-1.1 2.3-2.3v-12c0-5.4-4.3-9.7-9.5-9.7z"/><path class="bjst2" d="M27 17.7v12c0 1.3-1 2.3-2.3 2.3h-7.2V8c5.2 0 9.5 4.3 9.5 9.7z"/><path class="bjst0" d="M24.1 26H10.9c-.5 0-.9-.4-.9-.8v-7.3c0-.5.4-.8.9-.8H24c.5 0 .9.4.9.8v7.3c.1.4-.3.8-.8.8zM21.4 15.4c-.6-1.7-2.1-2.8-3.9-2.8s-3.3 1.1-3.9 2.8c-.2.4-.6.7-1.1.5-.4-.2-.7-.6-.5-1.1.8-2.3 3-3.9 5.5-3.9s4.6 1.6 5.5 3.9c.2.4-.1.9-.5 1.1-.5.2-1 0-1.1-.5z"/><path class="bjst3" d="M14.7 29h-2.5c-.1 0-.3-.4-.3-1s.1-1 .3-1h2.5c.1 0 .3.4.3 1s-.1 1-.3 1z"/><path class="bjst0" d="M18.7 29h-2.5c-.1 0-.3-.4-.3-1s.1-1 .3-1h2.5c.1 0 .3.4.3 1s-.1 1-.3 1z"/><path class="bjst4" d="M22.7 29h-2.5c-.1 0-.3-.4-.3-1s.1-1 .3-1h2.5c.1 0 .3.4.3 1s-.1 1-.3 1z"/><path class="bjst3" d="M30 13c-1.1 0-2-.9-2-2s.9-2 2-2 2 .9 2 2-.9 2-2 2z"/><path class="bjst5" d="M12 24h11v-5H12v5z"/><path class="bjst6" d="M12 22h11v-3H12v3z"/><path class="bjst0" d="M15 18h1v7h-1zM19 18h1v7h-1z"/><path class="bjst5" d="M17.5 16c-.8 0-1.5-.4-1.5-1s.7-1 1.5-1 1.5.4 1.5 1-.7 1-1.5 1z"/></g></svg><svg version="1.1" id="ico_sport" x="0" y="0" xml:space="preserve" viewBox="0 0 40 40" xmlns="http://www.w3.org/2000/svg"><style>.bkst0{fill:#fff}.bkst1{fill:#eee}.bkst2{fill:#424242}.bkst3{fill:#212121}</style><g id="bkico_x5F_sport"><circle transform="rotate(-45.001 22.255 17.741)" class="bkst0" cx="22.3" cy="17.7" r="9.7"/><path class="bkst1" d="M22.3 27.5V8c5.4 0 9.7 4.4 9.7 9.7s-4.4 9.8-9.7 9.8z"/><path class="bkst2" d="M24.4 21.4h-4.3c-.3 0-.6-.2-.7-.5l-1.3-4.1c-.1-.3 0-.6.3-.8l3.5-2.5c.2-.2.6-.2.8 0l3.5 2.5c.2.2.3.5.3.8l-1.3 4.1c-.2.3-.5.5-.8.5zM22.3 12.6c-.1 0-.3 0-.4-.1L18.4 10c-.2-.1-.3-.4-.3-.7 0-.3.2-.5.4-.6 1.2-.4 2.5-.7 3.8-.7 1.3 0 2.6.3 3.8.7.2.1.4.3.4.6s-.1.5-.3.7l-3.5 2.5c-.2.1-.3.1-.4.1zM17.4 15.7l-1.3-4.1c-.1-.2-.3-.4-.5-.5-.2 0-.5 0-.7.2-.8 1-1.5 2.1-1.9 3.3-.4 1.2-.5 2.5-.4 3.8 0 .3.2.5.4.6.2.1.5.1.7-.1l3.5-2.5c.1-.1.2-.2.3-.4-.1 0-.1-.1-.1-.3zM20.8 26.3l-1.3-4.1c0-.1-.1-.3-.3-.4-.1-.1-.3-.1-.4-.1h-4.3c-.3 0-.5.1-.6.4-.1.2-.1.5 0 .7.7 1.1 1.5 2.1 2.6 2.8 1.1.8 2.2 1.3 3.5 1.6.2.1.5 0 .7-.2.2-.2.2-.4.1-.7z"/><path class="bkst3" d="M30.6 22.1c-.1-.2-.4-.4-.6-.4h-4.3c-.2 0-.3 0-.4.1-.1.1-.2.2-.3.4l-1.3 4.1c-.1.2 0 .5.2.7.2.2.4.3.7.2 1.3-.3 2.4-.8 3.5-1.6s1.9-1.7 2.6-2.8c0-.2 0-.5-.1-.7zM31.5 14.7c-.4-1.2-1-2.4-1.9-3.3-.2-.2-.4-.3-.7-.2-.2 0-.5.2-.5.5l-1.3 4.1v.4c0 .1.1.3.3.4l3.5 2.5c.2.1.5.2.7.1.2-.1.4-.3.4-.6.1-1.3-.1-2.6-.5-3.9zM24.4 21.4c.3 0 .6-.2.7-.5l1.3-4.1c.1-.3 0-.6-.3-.8l-3.5-2.5c-.1-.1-.3-.1-.4-.1v8h2.2zM22.7 12.5l3.5-2.5c.2-.1.3-.4.3-.7 0-.3-.2-.5-.4-.6-1.3-.4-2.5-.7-3.8-.7v4.6c.1 0 .2 0 .4-.1z"/><path class="bkst2" d="M14.2 25.8c-.3-.3-.7-.3-1 0l-5 5c-.3.3-.3.7 0 1 .3.3.7.3 1 0l5-5c.3-.3.3-.8 0-1zM16.8 27.7c-.3-.3-.7-.3-1 0l-3.1 3.1c-.3.3-.3.7 0 1 .3.3.7.3 1 0l3.1-3.1c.3-.3.3-.7 0-1zM12.3 23.2c-.3-.3-.7-.3-1 0l-3.1 3.1c-.3.3-.3.7 0 1 .3.3.7.3 1 0l3.1-3.1c.3-.3.3-.7 0-1z"/></g></svg><svg version="1.1" id="ico_star" x="0" y="0" xml:space="preserve" viewBox="0 0 30 30" xmlns="http://www.w3.org/2000/svg"><style>.blst0{fill-rule:evenodd;clip-rule:evenodd;fill:#eee}</style><path class="blst0" d="M15 7.5l2.6 4.7 5.4 1-3.7 3.9.7 5.3-5-2.2-4.9 2.3.7-5.3-3.8-4 5.4-1L15 7.5"/></svg><svg version="1.1" id="ico_theme" x="0" y="0" xml:space="preserve" viewBox="0 0 40 40" xmlns="http://www.w3.org/2000/svg"><style>.bmst0{fill:#fff}.bmst1{fill:#eee}.bmst2{fill:#424242}.bmst3{fill:#4caf50}.bmst4{fill:#fbc02d}.bmst5{fill:#f44336}.bmst6{fill:#ff8f00}.bmst7{fill:#ffeb3b}</style><g id="bmico_x5F_theme"><path class="bmst0" d="M24.9 28H10.1C8.9 28 8 27 8 25.8V12.7c0-.4.3-.7.7-.7h17.6c.4 0 .7.3.7.7v13.1c0 1.2-.9 2.2-2.1 2.2z"/><path class="bmst1" d="M26.3 12H17v16h7.8c1.2 0 2.2-1 2.2-2.2V12.7c0-.4-.3-.7-.7-.7z"/><path class="bmst2" d="M24.3 17H13.7c-.4 0-.7-.4-.7-1s.3-1 .7-1h10.5c.4 0 .7.4.7 1 .1.6-.2 1-.6 1z"/><circle class="bmst2" cx="11" cy="16" r="1"/><circle class="bmst2" cx="11" cy="19" r="1"/><circle class="bmst2" cx="11" cy="22" r="1"/><circle class="bmst2" cx="11" cy="25" r="1"/><path class="bmst2" d="M16.2 20h-2.5c-.4 0-.8-.4-.8-1s.3-1 .8-1h2.5c.4 0 .8.4.8 1s-.3 1-.8 1zM16.2 23h-2.5c-.4 0-.8-.4-.8-1s.3-1 .8-1h2.5c.4 0 .8.4.8 1s-.3 1-.8 1zM19.2 26h-5.4c-.4 0-.8-.4-.8-1s.3-1 .8-1h5.4c.4 0 .8.4.8 1s-.3 1-.8 1zM24.9 8H10.1C8.9 8 8 8.9 8 10v3h19v-3c0-1.1-.9-2-2.1-2z"/><circle class="bmst3" cx="11" cy="11" r="1"/><circle class="bmst4" cx="14" cy="11" r="1"/><circle class="bmst5" cx="17" cy="11" r="1"/><g><path class="bmst4" d="M23 27l-4-6h13l-4 6h-5z"/><path class="bmst6" d="M26 21v6h2l4-6h-6z"/><path class="bmst7" d="M19 18v4h13v-4H19z"/><path class="bmst4" d="M26 18v4h6v-4h-6z"/><path class="bmst7" d="M23 27v2l3 3h1v-5h-4z"/><path class="bmst4" d="M26 31l2 1v-5h-2v4z"/></g></g></svg><svg version="1.1" id="ico_tournament" x="0" y="0" xml:space="preserve" viewBox="0 0 40 40" xmlns="http://www.w3.org/2000/svg"><style>.bnst0{fill:#ff8f00}.bnst1{fill:#fbc02d}.bnst2{fill:#424242}.bnst3{fill:#212121}</style><g id="bnico_x5F_tournament"><path class="bnst0" d="M28.9 20.6c.6 0 1.2-.2 1.7-.6.8-.6 1.4-1.7 1.4-2.9 0-.6 0-1.2-.1-1.9 0-.2-.1-.4-.3-.5-.1-.1-.3-.2-.5-.2-.7.1-1.4.5-2.1 1.1 0-.3-.1-.5-.1-.8.7-.4 1.2-1 1.5-1.7.4-1 .3-2.3-.3-3.3-.3-.6-.7-1.1-1.1-1.5-.3-.3-.7-.3-1-.1-.6.6-1.1 1.5-1.2 2.6-.1 1-.1 1.8.3 2.6 1.6 3.8.2 8.4-2.9 10.5-.4.3-.6.7-.6 1.3 0 .4.3.8.7.8s.7-.4.7-.8c.1 0 .1-.1.2-.2.6.5 1.2.8 2 .8 1.7 0 2.9-1.5 3.6-3.3.2-.4 0-.8-.3-1-.6-.3-1.4-.4-2.2-.3.1-.2.2-.5.3-.7 0 .1.1.1.3.1z"/><path class="bnst1" d="M15.6 23.7c-3.3-2.6-4.1-7-2.7-10.4.3-.8.4-1.6.2-2.6-.1-1-.5-1.9-1.1-2.5-.3-.3-.7-.2-1 .1-.4.5-.7 1-1.1 1.5-.6 1-.7 2.3-.3 3.3.3.7.8 1.3 1.5 1.7 0 .3-.1.5-.1.8-.6-.6-1.4-1-2.1-1.1-.2 0-.4 0-.5.2-.1.1-.2.3-.3.5-.1.7-.1 1.3-.1 1.9 0 1.2.6 2.3 1.5 2.9.5.4 1.1.6 1.7.6h.4c.1.2.2.5.3.7-.6-.1-1.4-.1-2.2.4-.2.1-.3.3-.4.5-.1.2 0 .4 0 .6.2.5.5 1.1.9 1.6.6 1 1.6 1.6 2.7 1.6.7 0 1.4-.3 1.9-.8.1.1.2.1.2.1 0 .4.3.8.7.8s.7-.3.7-.8c.1-.9-.4-1.3-.8-1.6z"/><path class="bnst0" d="M19 22h2v3h-2z"/><path class="bnst1" d="M19 22h1v3h-1z"/><path class="bnst0" d="M20 23c-1 0-6-3.4-6-7v-6s2.5.6 3.5.6C18.3 10.6 20 9 20 9s1.7 1.6 2.5 1.6c1 0 3.5-.6 3.5-.6v6c0 3.6-5 7-6 7z"/><path class="bnst1" d="M20 20c-.6 0-3.4-1.9-3.4-4v-3.4s1.4.4 2 .4c.4-.1 1.4-1 1.4-1s1 .9 1.4.9c.6 0 2-.4 2-.4V16c0 2.1-2.8 4-3.4 4z"/><path class="bnst2" d="M15 25h10v6H15z"/><path class="bnst3" d="M20 25h5v6h-5z"/><path class="bnst0" d="M23 29h-6l2-2h2l2 2z"/><path class="bnst1" d="M23 29h-3v-2h1l2 2z"/><path class="bnst2" d="M13 30h14v2H13z"/><path class="bnst3" d="M20 30h7v2h-7z"/><path class="bnst1" d="M20 9s-1.7 1.6-2.5 1.6c-1 0-3.5-.6-3.5-.6v6c0 3.6 5 7 6 7V9z"/><path class="bnst0" d="M20 12s-1 .9-1.4.9c-.6 0-2-.4-2-.4V16c0 2.1 2.9 4 3.4 4v-8z"/></g></svg><svg version="1.1" id="ico_tv" x="0" y="0" xml:space="preserve" viewBox="0 0 40 40" xmlns="http://www.w3.org/2000/svg"><style>.bost0{fill:#fbc02d}.bost1{fill:#ff8f00}.bost2{fill:#424242}.bost3{fill:#212121}.bost4{fill:#fff}.bost5{fill:#eee}</style><g id="boico_x5F_tv"><path class="bost0" d="M13 29.3h14V32H13z"/><path class="bost1" d="M20 29.3h7v2.6h-7z"/><path class="bost2" d="M25 9l-1-1-4 4-4-4-1 1 4 4h2z"/><path class="bost2" d="M8 30V12h24v18H8z"/><path class="bost3" d="M32 30H20V12h12v18z"/><path class="bost4" d="M10 14h20v13H10z"/><path class="bost5" d="M25 14h5v13H15z"/><path class="bost0" d="M28 28h2v1h-2z"/></g></svg><svg version="1.1" id="ico_virtual" x="0" y="0" xml:space="preserve" viewBox="0 0 40 40" xmlns="http://www.w3.org/2000/svg"><style>.bpst0{fill:#fbc02d}.bpst1{fill:#212121}.bpst2{fill:#ff8f00}.bpst3{fill:#eee}.bpst4{fill:#424242}.bpst5{fill:#fff}</style><g id="bpico_x5F_virtual"><path class="bpst0" d="M32 25.4v-.2l-.4-2.3c-.1-.4-.3-.8-.6-1.1l-3-3.2-2-2.3c-1-1.1-2.2-2.1-3.4-2.9l-.2-.1c-1.7-1.1-3.8-1.3-5.7-.8l-.4.2-7.5 4.5c-.3.2-.5.5-.5.9 0 .9.4 1.8 1.1 2.5l2.3 2.1c.9-.1 1.9.1 2.7.6l9.5 5.7 3.5.7c.5.1 1 0 1.5-.3l2.5-1.5c.4-.2.6-.6.6-1v-1.5z"/><path class="bpst1" d="M13.9 21.5L11.5 23l.1-3.2 2.3 1.7zM25.4 28.4l-2.1-1.5c-.3-.8-.8-1.5-1.4-1.9-.9-.6-1.7 0-1.7 1.3s.8 2.8 1.7 3.4c.4.3.9.3 1.2.1l2.3-1.4z"/><path class="bpst2" d="M32 25.4c0 .3-.2.6-.4.8L29 27.8c-.5.3-1.1.4-1.7.2l-3.4-1.1-1.7-1.8-1.7-1.8-2-2.3c-1-1.2-2.2-2.3-3.6-3.1-1.5-.9-3.4-1.2-5.1-.9-.9.2-1.5.4-1.4 1.4.1.9.4 1.7 1.1 2.2l2.3 2.1c.9-.1 1.9.1 2.7.6L24 29l3.5.7c.5.1 1 0 1.5-.3l2.5-1.5c.4-.2.6-.6.6-1l-.1-1.5z"/><path class="bpst0" d="M13.8 21.3l6.9 4-.3 1.1-6.7-4.1-.5-.3v-.8l.6.1z"/><path class="bpst1" d="M23.6 28.4c0 1.3-.8 1.9-1.7 1.3-.9-.6-1.7-2.1-1.7-3.4 0-1.3.8-1.9 1.7-1.3.9.6 1.7 2.1 1.7 3.4z"/><path class="bpst3" d="M22.7 27.9c0 .6-.4.9-.8.7s-.8-1-.8-1.7c0-.6.4-.9.8-.7.5.3.8 1.1.8 1.7z"/><path class="bpst1" d="M12.1 21.5c0 1.3-.8 1.9-1.7 1.3-.9-.6-1.7-2.1-1.7-3.4 0-1.3.8-1.9 1.7-1.3.9.5 1.7 2.1 1.7 3.4z"/><path class="bpst3" d="M11.2 21c0 .6-.4.9-.8.7-.5-.3-.8-1-.8-1.7s.4-.9.8-.7.8 1 .8 1.7z"/><path class="bpst4" d="M26.1 21.5c.8-.5 1.4-1.2 1.7-2.1l-2.6-3.1-6.5 3.9 2.6 3c1.7-.2 3.3-.8 4.8-1.7z"/><path class="bpst1" d="M19.7 23.1l-1.9-2.2c-.9-1-2-1.8-3.2-2.4l-2.5-1.1c.3.9.8 1.7 1.4 2.4.3.3.7.6 1.1.9l2.4 1.4c.8.5 1.7.8 2.7 1zM24.2 17.6c.8.5 1.8.9 2.7 1L25 16.4l-1.4.8.6.4zM13.7 22.3h-1.4v-1.8l1.4.9-.6-.1v.7l.6.3z"/><path class="bpst5" d="M29.2 26.7l-4.6-.4 2.7 1.1 1.9-.7zM31 22.1l.4 2.8-.7.8.3-3.6z"/><path class="bpst1" d="M15.8 10l-.2.1v.9l-6.8 4.1-.5-.6-.3.2V16l.9.6.2-.1v-.2l7.2-4.3.2.1.2-.1v-.6l-.9-1.4z"/><path class="bpst4" d="M8.2 14.6l-.2.1V16l.9.6.2-.1v-.6l-.9-1.3z"/><path class="bpst1" d="M10.7 15.7v-.6l-.6.4v.6l.3.2.6-.1.2-.1-.5-.4z"/><path class="bpst4" d="M10.5 15.3l.2-.1v.6l.5.4H11l-.5-.4v-.5z"/><path class="bpst1" d="M15.4 12.9v-.6l-.6.4v.6l.3.2.6-.1.2-.1-.5-.4z"/><path class="bpst4" d="M15.3 12.4l.2-.1v.6l.5.4-.2.1-.5-.4v-.6zM16.5 11.6l-.9-.6v-.9l.9 1.2v.3z"/></g></svg><svg version="1.1" id="link_chat" x="0" y="0" xml:space="preserve" viewBox="0 0 30 30" xmlns="http://www.w3.org/2000/svg"><style>.bqst0{fill:#eee}</style><path class="bqst0" d="M26.8 0h-15c-1.7 0-3.2 1.4-3.2 3.2v7H3.2c-1.7 0-3.2 1.4-3.2 3.2v9.8c0 1.4 1 2.7 2.3 3v3c0 .3.2.7.5.8h.4c.2 0 .4-.1.6-.2l4.1-3.5h7.5c1.7 0 3.2-1.4 3.2-3.2V18h2.9l4.4 4.1c.2.2.4.2.6.2.1 0 .2 0 .4-.1.3-.1.5-.5.5-.8v-3.5c1.5-.2 2.7-1.6 2.7-3.1V3.2C30 1.4 28.6 0 26.8 0zm1.4 14.8c0 .8-.6 1.4-1.4 1.4h-.4c-.5 0-.9.4-.9.9v2.3l-3.2-3c-.2-.2-.4-.2-.6-.2h-9.9c-.8 0-1.4-.6-1.4-1.4V3.2c0-.8.6-1.4 1.4-1.4h15c.8 0 1.4.6 1.4 1.4v11.6z"/><path class="bqst0" d="M24.5 8.1H14.2c-.5 0-.9.4-.9.9s.4.9.9.9h10.3c.5 0 .9-.4.9-.9s-.4-.9-.9-.9zM24.5 4.3H14.2c-.5 0-.9.4-.9.9s.4.9.9.9h10.3c.5 0 .9-.4.9-.9s-.4-.9-.9-.9zM24.5 11.7H14.2c-.5 0-.9.4-.9.9s.4.9.9.9h10.3c.5 0 .9-.4.9-.9s-.4-.9-.9-.9z"/></svg><svg version="1.1" id="link_insta" x="0" y="0" xml:space="preserve" viewBox="0 0 30 30" xmlns="http://www.w3.org/2000/svg"><style>.brst0{fill:#eee}</style><path id="bri" class="brst0" d="M21.7 0H8.3C3.8 0 0 3.7 0 8.3v13.4C0 26.2 3.7 30 8.3 30h13.4c4.5 0 8.3-3.7 8.3-8.3V8.2C29.9 3.7 26.2 0 21.7 0zm5.6 21.7c0 3-2.5 5.6-5.6 5.6H8.2c-3 0-5.6-2.5-5.6-5.6V8.2c0-3 2.5-5.6 5.6-5.6h13.5c3 0 5.6 2.5 5.6 5.6v13.5zM15 6.8c-4.5 0-8.2 3.7-8.2 8.2s3.7 8.2 8.2 8.2 8.2-3.7 8.2-8.2-3.7-8.2-8.2-8.2zm0 13.7c-3 0-5.5-2.5-5.5-5.5S12 9.5 15 9.5s5.5 2.5 5.5 5.5-2.5 5.5-5.5 5.5zM24 6c.3.3.5.8.5 1.5 0 .4-.1 1.1-.5 1.5-.3.3-.8.5-1.5.5-.4 0-1.1-.1-1.5-.5-.3-.3-.5-.8-.5-1.5 0-.4.1-1.1.5-1.5.3-.3.8-.5 1.5-.5s1.2.1 1.5.5z"/></svg><svg version="1.1" id="link_mail" x="0" y="0" xml:space="preserve" viewBox="0 0 30 30" xmlns="http://www.w3.org/2000/svg"><style>.bsst0{fill:#eee}</style><path id="bsmail" class="bsst0" d="M19.4 16.3l-2.5 2.6c-1.1 1.1-2.8 1.1-3.9 0l-2.5-2.6-9 9.2c.3.1.7.2 1.1.2h24.8c.4 0 .8-.1 1.1-.2l-9.1-9.2zm7.9-12H2.7c-.4 0-.7.1-1.1.2l9.6 9.9 3.1 3.2c.3.3 1.1.3 1.4 0l3.1-3.2 9.6-9.9c-.2-.1-.6-.2-1.1-.2zM.3 5.8C.1 6.1 0 6.5 0 7v16c0 .4.1.9.3 1.2l9-9.2-9-9.2zm29.4 0l-9 9.2 9 9.2c.2-.3.3-.8.3-1.2V7c0-.5-.1-.9-.3-1.2z"/></svg><svg version="1.1" id="link_phone" x="0" y="0" xml:space="preserve" viewBox="0 0 30 30" xmlns="http://www.w3.org/2000/svg"><style>.btst0{fill:#eee}</style><path id="btIcon_36_" class="btst0" d="M26.9 26.5L24.2 29c-2.8 2.7-10-.3-16.3-6.8S-1.2 8.6 1.5 6l2.7-2.5c1-1 2.7-1 3.6 0l3.8 3.8c1.3 1.3.8 3.6-1 4.1-1.2.3-2 1.7-1.7 3 .7 2.8 4.3 6.5 7 7.1 1.2.3 2.7-.3 3-1.7.5-1.8 2.8-2.3 4.1-.8l3.8 3.8c1.1 1.1 1.1 2.7.1 3.7zM17.2 5.1h-.8c-.5 0-.8-.3-1-.8 0-.5.3-.8.8-1h1c4.8 0 8.6 3.8 8.6 8.6v1c0 .5-.5.8-1 .8s-.8-.5-.8-1v-.8c.2-3.8-2.9-6.8-6.8-6.8zm5.2 6.8c0 .5-.3.8-.8.8s-.8-.3-.8-.8c0-1.8-1.5-3.5-3.5-3.5-.5 0-.8-.3-.8-.8s.3-.8.8-.8c2.8 0 5.1 2.3 5.1 5.1zm6.6 2.9c-.2.5-.7.8-1 .7-.5-.2-.7-.7-.7-1 .2-.8.3-1.5.3-2.3 0-5.6-4.6-10.3-10.3-10.3h-.8c-.5 0-.8-.3-1-.8 0-.5.3-.8.8-1h1C24 0 29.5 5.3 29.5 11.9c-.1 1-.3 1.9-.5 2.9z"/></svg><svg version="1.1" id="link_telegram" x="0" y="0" xml:space="preserve" viewBox="0 0 30 30" xmlns="http://www.w3.org/2000/svg"><style>.bust0{fill:#eee}</style><path id="busocial_x5F_telegram_1_" class="bust0" d="M28.1 2.8L.7 13.2c-.9.4-.9 1.6.1 1.9l7 2 2.6 8.1c.2.9 1.4 1.1 2 .5L16 22l7.1 5.1c.9.6 2.1.1 2.4-.9L30 4.3c.2-1-.9-1.9-1.9-1.5zm-3.5 4.7L11.9 18.7c-.1.1-.2.2-.2.4l-.5 4.4c0 .1-.2.1-.2 0l-2-6.4c-.1-.2 0-.6.2-.7l15-9.2c.4-.4.8.1.4.3z"/></svg><svg version="1.1" id="social_facebook" x="0" y="0" xml:space="preserve" viewBox="0 0 40 40" xmlns="http://www.w3.org/2000/svg"><style>.bvst0{fill:#3c5999}.bvst1{fill:#e8ebef}</style><g id="bvico40_x5F_FbHover"><circle class="bvst0" cx="20" cy="20" r="20" id="bv_x30__8_"/><path class="bvst1" d="M24.5 16.5l-.4 3.5h-2.7v10h-4V20h-1.9v-3.5h1.9v-2.3c0-1.6.8-4.2 4.1-4.2h3v3.4h-2.2c-.4 0-.8.2-.8 1v2.1h3z" id="bvFb_2_"/></g></svg><svg version="1.1" id="social_google" x="0" y="0" xml:space="preserve" viewBox="0 0 40 40" xmlns="http://www.w3.org/2000/svg"><style>.bwst0{fill:#b5c0cb}.bwst1{fill:#fbbb00}.bwst2{fill:#518ef8}.bwst3{fill:#28b446}.bwst4{fill:#f14336}</style><g id="bwico40_x5F_GoogleHover"><circle class="bwst0" cx="20" cy="20" r="20" id="bw_x30__13_"/><g id="bwGoogle"><path class="bwst1" d="M12.8 22.7l-.9 3.4-3.3.1c-1-1.9-1.6-4-1.6-6.2s.5-4.2 1.5-6l2.9.5 1.3 2.9c-.3.8-.4 1.6-.4 2.5 0 1.1.1 2 .5 2.8z"/><path class="bwst2" d="M32.8 17.6c.1.8.2 1.6.2 2.4 0 .9-.1 1.8-.3 2.7-.6 3-2.3 5.6-4.6 7.4l-3.7-.2-.5-3.3c1.5-.9 2.7-2.3 3.3-4h-7v-5.1h12.6v.1z"/><path class="bwst3" d="M28.1 30.1c-2.2 1.8-5 2.9-8.1 2.9-5 0-9.3-2.8-11.5-6.8l4.2-3.4c1.1 2.9 3.9 5 7.2 5 1.4 0 2.8-.4 3.9-1.1l4.3 3.4z"/><path class="bwst4" d="M28.3 10l-4.2 3.4c-1.2-.7-2.6-1.2-4.1-1.2-3.4 0-6.3 2.2-7.3 5.2L8.5 14C10.6 9.8 15 7 20 7c3.2 0 6 1.1 8.3 3z"/></g></g></svg><svg version="1.1" id="social_insta" x="0" y="0" xml:space="preserve" viewBox="0 0 40 40" xmlns="http://www.w3.org/2000/svg"><style>.bxst0{fill:#939}.bxst1{fill:#e8ebef}</style><g id="bxico40_x5F_InstHover"><circle id="bxinst_3_" class="bxst0" cx="20" cy="20" r="20"/><path id="bxinst_2_" class="bxst1" d="M25.1 8.7H14.9c-3.4 0-6.3 2.8-6.3 6.3v10.2c0 3.4 2.8 6.3 6.3 6.3h10.2c3.4 0 6.3-2.8 6.3-6.3V14.9c-.1-3.4-2.9-6.2-6.3-6.2zm4.2 16.4c0 2.3-1.9 4.2-4.2 4.2H14.9c-2.3 0-4.2-1.9-4.2-4.2V14.9c0-2.3 1.9-4.2 4.2-4.2h10.2c2.3 0 4.2 1.9 4.2 4.2v10.2z"/><path id="bxinst_1_" class="bxst1" d="M20 14.2c-3.2 0-5.8 2.6-5.8 5.8s2.6 5.8 5.8 5.8 5.8-2.6 5.8-5.8-2.6-5.8-5.8-5.8zm0 9.6c-2.1 0-3.8-1.7-3.8-3.8s1.7-3.8 3.8-3.8 3.8 1.7 3.8 3.8-1.7 3.8-3.8 3.8z"/><path id="bxinst" class="bxst1" d="M26.1 12.5c-.4 0-.8.2-1 .4-.3.3-.4.7-.4 1 0 .4.2.8.4 1 .3.3.7.4 1 .4.4 0 .8-.2 1-.4.3-.3.4-.7.4-1 0-.4-.2-.8-.4-1-.2-.3-.6-.4-1-.4z"/></g></svg><svg version="1.1" id="social_mailru" x="0" y="0" xml:space="preserve" viewBox="0 0 40 40" xmlns="http://www.w3.org/2000/svg"><style>.byst0{fill:#134785}.byst1{fill:#ff9e00}</style><g id="byico40_x5F_MailRuHover"><circle id="bymailru" class="byst0" cx="20" cy="20" r="20"/><path class="byst1" d="M24.2 20c0 2.3-1.9 4.2-4.2 4.2s-4.2-1.9-4.2-4.2 1.9-4.2 4.2-4.2 4.2 1.9 4.2 4.2M20 6C12.3 6 6 12.3 6 20s6.3 14 14 14c2.8 0 5.6-.8 7.9-2.4L26 29.3c-1.8 1.2-3.9 1.8-6 1.8-6.1 0-11.1-5-11.1-11.1S13.9 8.9 20 8.9s11.1 5 11.1 11.1c0 .8-.1 1.6-.3 2.4-.4 1.4-1.4 1.9-2.1 1.8-.8-.1-1.7-.6-1.7-1.9V20c0-3.9-3.2-7.1-7.1-7.1s-7.1 3.2-7.1 7.1 3.2 7.1 7.1 7.1c1.9 0 3.7-.7 5-2.1.8 1.2 2.1 2 3.5 2.1h.4c1 0 2-.3 2.8-1 .8-.6 1.5-1.6 1.8-2.7.1-.2.2-.6.2-.6.3-.8.4-1.7.4-2.8 0-7.7-6.3-14-14-14"/></g></svg><svg version="1.1" id="social_twitter" x="0" y="0" xml:space="preserve" viewBox="0 0 40 40" xmlns="http://www.w3.org/2000/svg"><style>.bzst0{fill:#249ddb}.bzst1{fill:#e8ebef}</style><g id="bzico40_x5F_TwHover"><circle class="bzst0" cx="20" cy="20" r="20" id="bz_x30__9_"/><path id="bztw_1_" class="bzst1" d="M33.3 11.9c-1 .4-2 .7-3.1.8 1.1-.7 2-1.7 2.4-3-1.1.6-2.2 1.1-3.5 1.3-1-1-2.4-1.7-4-1.7-3 0-5.5 2.4-5.5 5.4 0 .4 0 .8.1 1.2-4.5-.2-8.6-2.4-11.3-5.6-1.9 3.6.2 6.2 1.7 7.2-.9 0-1.7-.3-2.5-.7v.1c0 2.6 1.9 4.8 4.4 5.3-.5.1-1.3.3-2.5.1.7 2.1 2.7 3.7 5.1 3.7-1.9 1.4-4.7 2.6-8.1 2.2 2.4 1.5 5.3 2.4 8.4 2.4 12.2 0 16.1-11.1 15.5-16 1.2-.7 2.2-1.7 2.9-2.7z"/></g></svg><svg version="1.1" id="social_vkontakte" x="0" y="0" xml:space="preserve" viewBox="0 0 40 40" xmlns="http://www.w3.org/2000/svg"><style>.cast0{fill:#4f80ba}.cast1{fill:#e8ebef}</style><g id="caico40_x5F_VkHover"><circle class="cast0" cx="20" cy="20" r="20" id="ca_x30__4_"/><path class="cast1" d="M29.6 14.8c.1-.5 0-.8-.7-.8h-2.2c-.6 0-.8.3-.9.6 0 0-1.1 2.7-2.7 4.5-.5.5-.7.7-1 .7-.1 0-.3-.2-.3-.6v-4.4c0-.6-.2-.8-.6-.8h-3.4c-.3 0-.6.3-.6.5 0 .5.8.7.9 2.2v3.2c0 .7-.1.8-.4.8-.7 0-2.5-2.7-3.6-5.9-.2-.6-.4-.9-1-.9h-2.2c-.6 0-.7.3-.7.6 0 .6.7 3.5 3.5 7.3 1.8 2.6 4.4 4 6.7 4 1.4 0 1.6-.3 1.6-.9v-2c0-.6.1-.8.6-.8.3 0 .9.2 2.2 1.4 1.5 1.5 1.7 2.2 2.6 2.2h2.2c.6 0 .9-.3.8-.9-.4-1.3-2.7-3.5-3.4-4.2-.3-.4-.2-.6 0-1-.4.3 2.3-3.5 2.6-4.8z" id="caVk_1_"/></g></svg></svg>