<?xml version="1.0" encoding="utf-8"?>
<!-- Generator: Adobe Illustrator 21.0.0, SVG Export Plug-In . SVG Version: 6.00 Build 0)  -->
<svg version="1.1" id="Popular" xmlns="http://www.w3.org/2000/svg" xmlns:xlink="http://www.w3.org/1999/xlink" x="0px" y="0px"
	 width="50px" height="50px" viewBox="0 0 50 50" style="enable-background:new 0 0 50 50;" xml:space="preserve">
<style type="text/css">
	.st0{fill:#FF9900;}
	.st1{fill:#FFCC00;}
	.st2{fill:#990066;}
	.st3{fill:#CC0066;}
	.st4{fill:#660066;}
</style>
<g id="icoCatalog_x5F_Popular">
	<path class="st0" d="M19.9,26.2l-7.8-7.4c0.6-0.4,0.9-1,0.9-1.7c0-1.1-0.9-2.1-2-2.1s-2,0.9-2,2.1c0,1.1,0.9,2.1,2,2.1L9.3,30
		L19.9,26.2z M30.1,26.2l7.8-7.4c-0.6-0.4-0.9-1-0.9-1.7c0-1.1,0.9-2.1,2-2.1s2,0.9,2,2.1c0,1.1-0.9,2.1-2,2.1L40.7,30L30.1,26.2z"
		/>
	<path class="st1" d="M37.1,28.1L25,10L12.8,28.1L2.6,18l2.2,19C7.9,45,42,45,45.1,37.1l2.2-19L37.1,28.1z"/>
	<path class="st0" d="M3,21.7L2.6,18l2.3,2.3C4.6,21,3.9,21.6,3,21.7z M45.1,20.2c0.3,0.8,1,1.4,1.8,1.5l0.4-3.7L45.1,20.2z
		 M27.9,14.4l-3-4.3l-3,4.4c0.6,0.9,1.7,1.6,3,1.6C26.2,16,27.3,15.4,27.9,14.4z"/>
	<path class="st1" d="M2.5,15C3.9,15,5,16.1,5,17.5S3.9,20,2.5,20S0,18.9,0,17.5S1.1,15,2.5,15z M45,17.5c0,1.4,1.1,2.5,2.5,2.5
		s2.5-1.1,2.5-2.5S48.9,15,47.5,15S45,16.1,45,17.5z M22,10c0,1.6,1.3,3,3,3c1.6,0,3-1.3,3-3s-1.3-3-3-3C23.3,7,22,8.3,22,10z"/>
	<path class="st0" d="M20.2,40c-6.9,0-12.7-4.2-12.9-4.4c-0.4-0.3-0.4-0.8-0.2-1.2c0.2-0.4,0.7-0.5,1.1-0.2l0,0
		c0.1,0,5.7,4.1,12.1,4.1c0.4,0,0.8,0.4,0.8,0.9C21,39.6,20.7,40,20.2,40z M29.8,40c-0.4,0-0.8-0.4-0.8-0.9c0-0.5,0.3-0.9,0.8-0.9
		c6.4,0,12-4.1,12.1-4.1c0.4-0.3,0.8-0.2,1.1,0.2c0.2,0.4,0.1,0.9-0.2,1.2C42.4,35.8,36.6,40,29.8,40z"/>
	<path class="st0" d="M23.3,39c-0.5,0-1-0.2-1.2-0.6l-2.7-4.7c-0.2-0.4-0.4-0.9-0.4-1.3v-2.5c0-0.4,0.2-1,0.4-1.4l2.6-4.8
		c0.2-0.4,0.8-0.7,1.2-0.7h3.6c0.5,0,1,0.4,1.2,0.7l2.6,4.8c0.2,0.4,0.4,1,0.4,1.4v2.5c0,0.4-0.2,1-0.4,1.4l-2.6,4.6
		c-0.2,0.4-0.7,0.6-1.2,0.6L23.3,39L23.3,39z"/>
	<polygon class="st2" points="23,38 20,32.9 20,29.4 23,24 27.1,24 30,29.4 30,32.9 27.1,38 	"/>
	<polygon class="st3" points="23.9,35 22,32.1 22,30.2 23.9,27 26.3,27 28,30.2 28,32.1 26.3,35 	"/>
	<path class="st4" d="M27.2,24l-1,3h-2.3l-1-3H27.2z M22,30.2l-2-0.9V33l2-0.9V30.2z M27.2,38l-1-3h-2.3l-1,3H27.2z M28,32.1l2,0.9
		v-3.7l-2,0.9V32.1z"/>
</g>
</svg>
