<?xml version="1.0" encoding="utf-8"?>
<!-- Generator: Adobe Illustrator 21.0.0, SVG Export Plug-In . SVG Version: 6.00 Build 0)  -->
<svg version="1.1" id="Live" xmlns="http://www.w3.org/2000/svg" xmlns:xlink="http://www.w3.org/1999/xlink" x="0px" y="0px"
	 width="50px" height="50px" viewBox="0 0 50 50" style="enable-background:new 0 0 50 50;" xml:space="preserve">
<style type="text/css">
	.st0{fill:#EEEEEE;}
	.st1{fill:#CCCCCC;}
	.st2{fill:#CC0066;}
	.st3{fill:#4B4A75;}
	.st4{fill:#13121F;}
</style>
<g id="icoCatalog_x5F_Live">
	<path class="st0" d="M45,20C45,9,36,0,25,0S5,9,5,20c0,9.5,6.6,17.4,15.4,19.5c-4.9,1-8.4,3.6-8.4,6.7c0,2.1,5.8,3.8,13,3.8
		c7.2,0,13-1.7,13-3.8c0-3.1-3.5-5.7-8.5-6.7C38.4,37.4,45,29.5,45,20z"/>
	<path class="st1" d="M45,20c0-0.7,0-1.3-0.1-1.9c-1,10.2-9.5,18.1-19.9,18.1S6.1,28.2,5.1,18.1C5,18.7,5,19.3,5,20
		c0,9.5,6.7,17.5,15.6,19.5c-1.7,0.4-3.3,1-4.6,1.8c1.4,1.6,4.9,2.7,9,2.7s7.6-1.1,9-2.7c-1.3-0.8-2.8-1.4-4.6-1.8
		C38.3,37.5,45,29.5,45,20z"/>
	<path class="st2" d="M25,2c1.1,0,2,0.9,2,2s-0.9,2-2,2c-1.1,0-2-0.9-2-2S23.9,2,25,2z"/>
	<path class="st3" d="M25,8c-6.6,0-12,5.4-12,12s5.4,12,12,12s12-5.4,12-12S31.6,8,25,8z"/>
	<path class="st4" d="M25,11c-5,0-9,4-9,9c0,5,4,9,9,9s9-4,9-9S30,11,25,11z M25,27c-3.8,0-7-3.2-7-7s3.1-7,7-7s7,3.2,7,7
		S28.8,27,25,27z M29,20c0,2.2-1.8,4-4,4c-2.2,0-4-1.8-4-4s1.8-4,4-4C27.2,16,29,17.8,29,20z"/>
	<path class="st0" d="M24,18c0.6,0,1,0.4,1,1s-0.4,1-1,1s-1-0.4-1-1S23.4,18,24,18z"/>
</g>
</svg>
