<?xml version="1.0" encoding="utf-8"?>
<!-- Generator: Adobe Illustrator 21.0.0, SVG Export Plug-In . SVG Version: 6.00 Build 0)  -->
<svg version="1.1" id="Other" xmlns="http://www.w3.org/2000/svg" xmlns:xlink="http://www.w3.org/1999/xlink" x="0px" y="0px"
	 width="50px" height="50px" viewBox="0 0 50 50" style="enable-background:new 0 0 50 50;" xml:space="preserve">
<style type="text/css">
	.st0{fill:#CC0066;}
	.st1{fill:#FFFFFF;}
	.st2{fill:#66CC33;}
</style>
<g id="icoCatalog_x5F_Other">
	<path class="st0" d="M46.7,31.2C49.1,32.8,50,36,50,39c0,6.1-5,11-11.5,11C32,50,27,45.1,27,39c0-3,0.9-6.2,3.3-7.8
		c4.9-3.2,5.1,0.8,8.2,0.8C41.6,32,41.9,28,46.7,31.2z M11.5,32c-3.1,0-3.4-4-8.2-0.8C0.9,32.8,0,36,0,39c0,6.1,5,11,11.5,11
		C18,50,23,45.1,23,39c0-3-0.9-6.2-3.3-7.8C14.8,28,14.6,32,11.5,32z"/>
	<path class="st1" d="M43.9,36c0-0.6,0.5-1,1-1s1,0.4,1,1c0,0.6-0.5,1-1,1S43.9,36.5,43.9,36z M17.9,37c0.6,0,1-0.4,1-1
		c0-0.6-0.5-1-1-1s-1,0.4-1,1C16.9,36.5,17.4,37,17.9,37z M11.5,46.1c0.1,0.5,0.6,0.9,1.2,0.8c3.6-0.6,6.5-3.5,6.7-6.9
		c0-0.6-0.4-1-1-1.1c-0.6,0-1,0.4-1.1,0.9c-0.2,2.5-2.3,4.7-5,5.1C11.8,45.1,11.4,45.6,11.5,46.1z M45.5,39c-0.6,0-1,0.4-1.1,0.9
		c-0.2,2.5-2.3,4.7-5,5.1c-0.6,0.1-0.9,0.6-0.8,1.1c0.1,0.6,0.6,0.9,1.2,0.8c3.6-0.6,6.5-3.5,6.7-6.9C46.5,39.5,46,39,45.5,39z"/>
	<path class="st2" d="M38.9,31C30.9,25.1,26,12.1,26,2.8c0-0.6-0.5-1-1-1c-0.6,0-1,0.4-1,1c0,1.3-0.1,2.6-0.3,4c-1-1.8-2.6-4-5-5.4
		v0C14.1-1.3,7.4,0.7,7.4,0.7S9,7.4,13.7,10c2.3,1.3,4.8,1.6,6.8,1.6c0.9,0,1.7-0.1,2.4-0.2C21,19,16.9,26.8,11.1,31
		c1.2,0,3.6-0.8,5.2-2c4.3-4.9,7.3-11.6,8.7-17.8c1.4,6.3,4.4,13,8.7,17.8C34.8,30.2,36.4,30.5,38.9,31z"/>
</g>
</svg>
