<?xml version="1.0" encoding="utf-8"?>
<!-- Generator: Adobe Illustrator 21.0.0, SVG Export Plug-In . SVG Version: 6.00 Build 0)  -->
<svg version="1.1" id="Roulette" xmlns="http://www.w3.org/2000/svg" xmlns:xlink="http://www.w3.org/1999/xlink" x="0px" y="0px"
	 width="50px" height="50px" viewBox="0 0 50 50" style="enable-background:new 0 0 50 50;" xml:space="preserve">
<style type="text/css">
	.st0{fill:#13121F;}
	.st1{fill:#66CC33;}
	.st2{fill:#CC0066;}
	.st3{fill:#EEEEEE;}
	.st4{fill:#4B4A75;}
</style>
<g id="icoCatalog_x5F_Roulette">
	<circle class="st0" cx="25" cy="25" r="25"/>
	<path class="st1" d="M25,10c0.9,0,1.8,0.1,2.7,0.2l1.2-6.9C27.6,3.1,26.3,3,25,3s-2.6,0.1-3.9,0.4l1.2,6.9C23.2,10.1,24.1,10,25,10
		z"/>
	<path class="st2" d="M12.7,16.4l-5.8-4c1.5-2.1,3.4-4,5.5-5.5l4,5.8C15,13.7,13.7,15,12.7,16.4z M37.3,16.4l5.8-4
		c-1.5-2.1-3.4-4-5.5-5.5l-4,5.8C35,13.7,36.3,15,37.3,16.4z M10,25c0-0.9,0.1-1.8,0.2-2.7l-6.9-1.2C3.1,22.4,3,23.7,3,25
		s0.1,2.6,0.4,3.9l6.9-1.2C10.1,26.8,10,25.9,10,25z M46.6,21.1l-6.9,1.2c0.2,0.9,0.2,1.7,0.2,2.7s-0.1,1.8-0.2,2.7l6.9,1.2
		c0.2-1.3,0.4-2.6,0.4-3.9S46.9,22.4,46.6,21.1z M12.7,33.6l-5.8,4c1.5,2.1,3.4,4,5.5,5.5l4-5.8C15,36.3,13.7,35,12.7,33.6z
		 M33.6,37.3l4,5.8c2.1-1.5,4-3.4,5.5-5.5l-5.8-4C36.3,35,35,36.3,33.6,37.3z M25,40c-0.9,0-1.8-0.1-2.7-0.2l-1.2,6.9
		c1.3,0.2,2.6,0.4,3.9,0.4s2.6-0.1,3.9-0.4l-1.2-6.9C26.8,39.9,25.9,40,25,40z"/>
	<circle class="st3" cx="25" cy="25" r="15"/>
	<circle class="st0" cx="25" cy="25" r="13"/>
	<circle class="st3" cx="15.5" cy="4.5" r="2.5"/>
	<path class="st3" d="M28.5,18.6c-0.5,0.5-0.7,1.3-0.5,1.9l-1.7,1.7c-0.8-0.4-1.8-0.4-2.6,0L22,20.6c0.2-0.7,0-1.4-0.5-1.9
		c-0.8-0.8-2-0.8-2.8,0c-0.8,0.8-0.8,2,0,2.8c0.5,0.5,1.3,0.7,1.9,0.5l1.7,1.7c-0.4,0.8-0.4,1.8,0,2.6L20.6,28
		c-0.7-0.2-1.4,0-1.9,0.5c-0.8,0.8-0.8,2,0,2.8c0.8,0.8,2,0.8,2.8,0c0.5-0.5,0.7-1.3,0.5-1.9l1.7-1.7c0.8,0.4,1.8,0.4,2.6,0l1.7,1.7
		c-0.2,0.7,0,1.4,0.5,1.9c0.8,0.8,2,0.8,2.8,0s0.8-2,0-2.8c-0.5-0.5-1.3-0.7-1.9-0.5l-1.7-1.7c0.4-0.8,0.4-1.8,0-2.6l1.7-1.7
		c0.7,0.2,1.4,0,1.9-0.5c0.8-0.8,0.8-2,0-2.8C30.6,17.9,29.3,17.9,28.5,18.6z"/>
	<path class="st4" d="M25,50C11.2,50,0,38.8,0,25c0-0.5,0.4-1,1-1s1,0.4,1,1c0,12.7,10.3,23.1,23.1,23.1c0.5,0,1,0.4,1,1
		S25.5,50,25,50z M49,26c-0.5,0-1-0.4-1-1C48.1,12.3,37.7,1.9,25,1.9c-0.5,0-1-0.4-1-1s0.4-1,1-1c13.8,0,25,11.2,25,25
		C50,25.5,49.6,26,49,26z"/>
</g>
</svg>
