<?xml version="1.0" encoding="utf-8"?>
<!-- Generator: Adobe Illustrator 21.0.0, SVG Export Plug-In . SVG Version: 6.00 Build 0)  -->
<svg version="1.1" id="Slots" xmlns="http://www.w3.org/2000/svg" xmlns:xlink="http://www.w3.org/1999/xlink" x="0px" y="0px"
	 width="50px" height="50px" viewBox="0 0 50 50" style="enable-background:new 0 0 50 50;" xml:space="preserve">
<style type="text/css">
	.st0{fill:#4B4A75;}
	.st1{fill:#FFCC00;}
	.st2{fill:#FF9900;}
	.st3{fill:#13121F;}
	.st4{fill:#EEEEEE;}
	.st5{fill:#CCCCCC;}
	.st6{fill:#CC0066;}
</style>
<g id="icoCatalog_x5F_Slots">
	<path class="st0" d="M50,36l-4-7.2V3c0-1.7-1.3-3-3-3H7C5.3,0,4,1.3,4,3v25.8L0,36v2h4v9c0,1.7,1.3,3,3,3h36c1.7,0,3-1.3,3-3v-9h4
		V36z"/>
	<path class="st1" d="M17,33H6v-4c0-1.1,0.9-2,2-2h7c1.1,0,2,0.9,2,2V33z M31,29c0-1.1-0.9-2-2-2h-8c-1.1,0-2,0.9-2,2v4h12V29z
		 M44,29c0-1.1-0.9-2-2-2h-7c-1.1,0-2,0.9-2,2v4h11V29z"/>
	<path class="st2" d="M17,33H6v-2h11V33z M31,31H19v2h12V31z M44,31H33v2h11V31z"/>
	<path class="st3" d="M48,41H2c-1.1,0-2-0.9-2-2v-3h50v3C50,40.1,49.1,41,48,41z M35,44H15v3h20V44z"/>
	<path class="st4" d="M41,24H9c-1.1,0-2-0.9-2-2V6c0-1.1,0.9-2,2-2h32c1.1,0,2,0.9,2,2v16C43,23.1,42.1,24,41,24z"/>
	<path class="st5" d="M41,24H9c-1.1,0-2-0.9-2-2v-8h36v8C43,23.1,42.1,24,41,24z"/>
	<path class="st0" d="M19.2,22h-0.4V6h0.4V22z M31.2,6h-0.4v16h0.4V6z"/>
	<path class="st6" d="M18,8v3c-2,2.2-3,5.6-3,9h-2v0h-3c0-4.4,5-9,5-9h-4v1H8V8L18,8z M20,8v4h3v-1h4c0,0-5,4.6-5,9h3v0h2
		c0-3.4,1-6.8,3-9V8L20,8z M32,8v4h3v-1h4c0,0-5,4.6-5,9h3v0h2c0-3.4,1-6.8,3-9V8L32,8z"/>
</g>
</svg>
