<?xml version="1.0" encoding="utf-8"?>
<!-- Generator: Adobe Illustrator 21.0.0, SVG Export Plug-In . SVG Version: 6.00 Build 0)  -->
<svg version="1.1" id="Favorit" xmlns="http://www.w3.org/2000/svg" xmlns:xlink="http://www.w3.org/1999/xlink" x="0px" y="0px"
	 width="40px" height="40px" viewBox="0 0 40 40" style="enable-background:new 0 0 40 40;" xml:space="preserve">
<style type="text/css">
	.st0{fill:#19172B;}
	.st1{fill:#9C9AB3;}
</style>
<g id="icoFavorit_x5F_normal">
	<g>
		<circle class="st0" cx="20" cy="20" r="20"/>
	</g>
	<path class="st1" d="M24.9,8.8l-6,4.4l-7.3-2.6c-0.5-0.2-1.2,0.4-1,1l2.7,7.3l-4.4,6c-0.4,0.5,0,1.2,0.6,1.2l7.7,0.1l4.6,6.4
		c0.4,0.5,1.2,0.4,1.3-0.2l2.1-7.2l7.2-2.1c0.6-0.2,0.7-1,0.2-1.3l-6.4-4.6l-0.1-7.7C26.1,8.8,25.4,8.5,24.9,8.8L24.9,8.8z"/>
</g>
</svg>
