<?xml version="1.0" encoding="utf-8"?>
<!-- Generator: Adobe Illustrator 21.0.0, SVG Export Plug-In . SVG Version: 6.00 Build 0)  -->
<svg version="1.1" id="ico" xmlns="http://www.w3.org/2000/svg" xmlns:xlink="http://www.w3.org/1999/xlink" x="0px" y="0px"
	 width="30px" height="24px" viewBox="0 0 30 24" style="enable-background:new 0 0 30 24;" xml:space="preserve">
<style type="text/css">
	.st0{fill:#0099FF;}
</style>
<path id="icoTop_x5F_ESport" class="st0" d="M27.3,5.5c-4-6.6-9.9-2-9.9-2c-0.4,0.3-1.1,0.5-1.6,0.5l-1.6,0c-0.5,0-1.2-0.2-1.6-0.5
	c0,0-6-4.6-9.9,2C0.6,8.9,0,12,0,15s0.3,4.2,0.3,4.2C0.6,21,2,22,4,22s5-4,5-4c0.3-0.4,1.5-1,2-1h8c0.5,0,1.7,0.6,2,1c0,0,3,4,5,4
	s3.4-1,3.7-2.8c0,0,0.3-0.2,0.3-4.2C30,12,29.3,8.9,27.3,5.5z M12.6,11.2h-2.4v2.4c0,0-0.5,0.4-1.3,0.4c-0.8,0-1.2-0.4-1.2-0.4v-2.3
	H5.4c0,0-0.3-0.3-0.4-1.1C4.9,9.4,5.3,8.7,5.3,8.7h2.4V6.3C7.8,6.3,8.3,6,9,6c0.7,0,1.3,0.3,1.3,0.3l0,2.4h2.3c0,0,0.4,0.5,0.4,1.2
	C13,10.5,12.6,11.2,12.6,11.2z M20,14c-1.1,0-2-0.9-2-2c0-1.1,0.9-2,2-2c1.1,0,2,0.9,2,2C22,13.1,21.1,14,20,14z M21,9
	c-1.1,0-2-0.9-2-2c0-1.1,0.9-2,2-2c1.1,0,2,0.9,2,2C23,8.1,22.1,9,21,9z M25,12c-1.1,0-2-0.9-2-2.1c0-1.2,0.9-2.1,2-2.1
	c1.1,0,2,0.9,2,2.1C27,11.1,26.1,12,25,12z"/>
</svg>
