<?xml version="1.0" encoding="utf-8"?>
<!-- Generator: Adobe Illustrator 21.0.0, SVG Export Plug-In . SVG Version: 6.00 Build 0)  -->
<svg version="1.1" id="ico" xmlns="http://www.w3.org/2000/svg" xmlns:xlink="http://www.w3.org/1999/xlink" x="0px" y="0px"
	 width="24px" height="24px" viewBox="0 0 24 24" style="enable-background:new 0 0 24 24;" xml:space="preserve">
<style type="text/css">
	.st0{fill:#CC0066;}
</style>
<path id="icoTop_x5F_Casino" class="st0" d="M12,11c0.6,0,1,0.4,1,1c0,0.6-0.4,1-1,1c-0.6,0-1-0.4-1-1C11,11.4,11.4,11,12,11z
	 M16.6,14C16.6,13.9,16.6,13.9,16.6,14c1.1-2.6-0.1-5.5-2.6-6.6l0,0C11.4,6.3,8.5,7.5,7.4,10l0,0c-1.1,2.5,0.1,5.5,2.7,6.5l0,0
	C12.6,17.7,15.5,16.5,16.6,14z M13.3,13c-0.1,0.1-0.2,0.2-0.3,0.3v2c0,0.6-0.4,1-1,1c-0.6,0-1-0.4-1-1v-2c-0.1-0.1-0.2-0.2-0.3-0.3
	h-2c-0.6,0-1-0.4-1-1s0.4-1,1-1h2c0.1-0.1,0.2-0.2,0.3-0.3v-2c0-0.6,0.4-1,1-1s1,0.4,1,1v2c0.1,0.1,0.2,0.2,0.3,0.3h2
	c0.6,0,1,0.4,1,1s-0.4,1-1,1L13.3,13L13.3,13z M12,0C5.4,0,0,5.4,0,12c0,6.6,5.4,12,12,12s12-5.4,12-12C24,5.4,18.6,0,12,0z
	 M20.2,17.7l-3.1-2.2c-0.4,0.6-1,1.1-1.6,1.6l2.2,3.1c-1.2,0.8-2.5,1.4-3.9,1.6l-0.7-3.7c-0.7,0.1-1.5,0.1-2.2,0l-0.7,3.7
	c-1.4-0.3-2.7-0.8-3.9-1.6l2.2-3.1c-0.6-0.4-1.1-1-1.6-1.6l-3.1,2.2c-0.8-1.2-1.4-2.5-1.6-3.9l3.7-0.7c-0.1-0.7-0.1-1.5,0-2.2
	l-3.7-0.7C2.4,8.8,3,7.5,3.8,6.3l3.1,2.2c0.4-0.6,1-1.1,1.6-1.6L6.3,3.8C7.5,3,8.8,2.4,10.2,2.2l0.7,3.7c0.7-0.1,1.5-0.1,2.2,0
	l0.7-3.7c1.4,0.3,2.7,0.8,3.9,1.6l-2.2,3.1c0.6,0.4,1.1,1,1.6,1.6l3.1-2.2c0.8,1.2,1.4,2.5,1.6,3.9l-3.7,0.7c0.1,0.7,0.1,1.5,0,2.2
	l3.7,0.7C21.6,15.2,21,16.5,20.2,17.7z"/>
</svg>
