<?xml version="1.0" encoding="utf-8"?>
<!-- Generator: Adobe Illustrator 21.0.0, SVG Export Plug-In . SVG Version: 6.00 Build 0)  -->
<svg version="1.1" id="ico" xmlns="http://www.w3.org/2000/svg" xmlns:xlink="http://www.w3.org/1999/xlink" x="0px" y="0px"
	 width="24px" height="24px" viewBox="0 0 24 24" style="enable-background:new 0 0 24 24;" xml:space="preserve">
<style type="text/css">
	.st0{fill:#66CC33;}
</style>
<path id="icoTop_x5F_Sport" class="st0" d="M20.5,3.5c-1.1-1.1-2.4-2-3.8-2.6C15.2,0.3,13.6,0,12,0c-1.6,0-3.2,0.3-4.7,0.9
	C5.9,1.6,4.6,2.4,3.5,3.5s-2,2.4-2.6,3.8C0.3,8.8,0,10.4,0,12c0,1.6,0.3,3.2,0.9,4.7c0.6,1.4,1.5,2.7,2.6,3.8c1.1,1.1,2.4,2,3.8,2.6
	C8.8,23.7,10.4,24,12,24c1.6,0,3.2-0.3,4.7-0.9c1.4-0.6,2.7-1.5,3.8-2.6c1.1-1.1,2-2.4,2.6-3.8c0.6-1.5,0.9-3.1,0.9-4.7
	c0-1.6-0.3-3.2-0.9-4.7C22.4,5.9,21.6,4.6,20.5,3.5z M5.4,2.7c0.1-0.1,0.2-0.2,0.3-0.2c0.6-0.4,1.2-0.7,1.9-1C9,0.9,10.5,0.6,12,0.6
	c1,0,2,0.1,3,0.4c-0.4,0.2-0.9,0.5-1.6,1.1c-0.7-0.1-1.3-0.1-2,0c-0.9,0.1-1.7,0.3-2.6,0.6C8,2.9,7.4,3.2,7,3.5
	C6.3,3.2,5.5,3,5.1,2.9C5.2,2.9,5.3,2.7,5.4,2.7z M16.3,5.7l-2.1,5.6l-4.9,0.9L5.2,8.1c0.3-1.9,1.6-3.6,1.6-3.6c0,0,0.9-0.6,2.2-1.1
	c0.8-0.3,1.6-0.5,2.4-0.5c0.7-0.1,1.3-0.1,2,0L16.3,5.7z M1,11.6c-0.1,0.8-0.2,1.7-0.1,2.5c-0.1-0.2-0.2-0.4-0.2-0.5
	c-0.1-0.5-0.1-1.1-0.1-1.6c0-1.7,0.4-3.3,1-4.7c-0.1,0.8,0,1.5,0,2.1C1.3,10.1,1.1,10.8,1,11.6z M2,16c-0.1-0.4-0.3-1-0.3-1.8
	c-0.1-0.8-0.1-1.7,0.1-2.5c0.1-0.6,0.2-1.2,0.5-1.8C3,9.2,4.1,8.8,4.7,8.6l4,4.1l-0.4,4.5l-3.9,1.3C3.4,17.8,2.6,16.9,2,16z
	 M13.8,22.5c-0.9,0.6-3.1,0.7-4,0.7c-1-0.2-1.9-0.5-2.8-0.9c-0.8-0.4-1.5-0.8-2.2-1.4c0,0-0.1-1.2-0.1-1.7l3.9-1.3l4.6,2L13.8,22.5
	C13.8,22.5,13.8,22.5,13.8,22.5z M21.4,18.5c-0.7,1-1.5,1.9-2.5,2.6c-0.9,0.6-2.1,0.9-3.2,1c-0.1,0-1.1,0.2-1.1,0.1L14,19.7l3.2-3.3
	l4.2-0.4c0.1,0.7,0.2,1.7,0.2,2.3C21.5,18.3,21.5,18.4,21.4,18.5z M21.5,15.1C21.5,15.1,21.4,15.2,21.5,15.1l-4.3,0.5l-2.3-4L17,6
	l2.9,0.2c0.6,0.5,1.2,1.1,1.6,1.7c0.6,0.8,1,1.6,1.3,2.5C22.5,13.2,21.8,14.6,21.5,15.1z M23,8.8c-0.2-0.5-0.5-0.9-0.9-1.4
	c-0.5-0.7-1.1-1.3-1.8-1.9c-0.1-0.6-0.5-1.6-1.4-2.7c0,0,0,0,0.1,0C19,2.9,19,3,19.1,3c0.7,0.5,1.2,1.1,1.8,1.7
	C21.8,5.9,22.6,7.3,23,8.8C23,8.8,23,8.8,23,8.8z"/>
</svg>
