<?xml version="1.0" encoding="utf-8"?>
<!-- Generator: Adobe Illustrator 21.0.0, SVG Export Plug-In . SVG Version: 6.00 Build 0)  -->
<svg version="1.1" id="rng_1_" xmlns="http://www.w3.org/2000/svg" xmlns:xlink="http://www.w3.org/1999/xlink" x="0px" y="0px"
	 width="50px" height="50px" viewBox="0 0 50 50" style="enable-background:new 0 0 50 50;" xml:space="preserve">
<style type="text/css">
	.st0{fill:#666699;}
</style>
<path id="rng" class="st0" d="M15.2,26.8L15,22h-0.7l-1.1,4.7H10l3.1-13.5h3.9c2.1,0,3.6,1.6,3.6,3.6c0,2.2-1.4,4.1-2.6,4.6l0.6,5.3
	H15.2z M15.5,19.3c1.1,0,1.7-1.1,1.7-2.2c0-0.9-0.5-1.3-1-1.3h-0.6l-0.8,3.4H15.5L15.5,19.3z M25.7,26.8l-1.1-6.6l-1.5,6.6h-3.1
	l3.1-13.5h3.1l0.9,6.2l1.4-6.2h3.1l-3.1,13.5H25.7z M31.3,22.5c0-3.6,1.9-9.5,6.2-9.5c2.6,0,3.5,1.8,3.5,3.8l-2.6,0.6
	c0-0.9-0.3-1.7-1.1-1.7c-1.7,0-2.8,4.7-2.8,6.8c0,1.3,0.3,1.7,1,1.7c0.5,0,0.9-0.3,1.3-0.8l0.4-1.7h-1.4l0.6-2.7h4.2l-1.2,5.5
	c-1.1,1.6-2.5,2.4-3.9,2.4C32.6,27,31.3,25.2,31.3,22.5z M15.9,34.2h-0.4l-0.5,2h0.4c0.6,0,1-0.7,1-1.3
	C16.5,34.5,16.3,34.2,15.9,34.2z M40,34.2h-0.4l-1,4.5H39c1.2,0,1.7-2.6,1.7-3.4C40.7,34.6,40.4,34.2,40,34.2z M48.4,8.5
	C47.1,6.9,45.2,6,43.1,6h-32c-3.4,0-6.3,2.4-6.8,5.7L0.1,35.9c-0.4,2,0.2,4.1,1.5,5.7C2.9,43.1,4.8,44,6.9,44h32
	c3.4,0,6.2-2.4,6.8-5.7l4.3-24.1C50.3,12.1,49.8,10.1,48.4,8.5z M5.9,38.9c0.3,0,0.6-0.3,0.9-0.8l1,0.4c-0.5,1-1.1,1.5-2,1.5
	C4.6,40,4,39.2,4,37.8C4,36.3,4.8,33,6.9,33c1.2,0,1.6,1,1.7,1.9l-1.2,0.2c0-0.6-0.2-1-0.5-1c-1,0-1.5,2.7-1.5,3.7
	C5.3,38.6,5.5,38.9,5.9,38.9z M12.4,35.9L12.2,37h-1.6l-0.4,1.8h1.7l-0.2,1.1h-3l1.5-6.8h3l-0.2,1.1h-1.7l-0.4,1.6H12.4z M16.5,37.2
	l0.3,2.7h-1.3l-0.2-2.5h-0.5l-0.6,2.5H13l1.5-6.8h1.7c1,0,1.6,0.8,1.6,1.7C17.9,36,17.2,36.9,16.5,37.2z M20.2,39.9h-1.3l1.3-5.6h-1
	l0.2-1.1h3.4l-0.2,1.1h-1L20.2,39.9z M23.8,39.9h-1.3l1.5-6.8h1.3L23.8,39.9z M29.2,35.9L29,37h-1.6l-0.6,2.9h-1.3l1.5-6.8h3
	l-0.2,1.1H28l-0.4,1.6H29.2z M31.1,39.9h-1.3l1.5-6.8h1.3L31.1,39.9z M36.5,35.9L36.2,37h-1.6l-0.4,1.8h1.7l-0.2,1.1h-3l1.5-6.8h3
	l-0.2,1.1h-1.7l-0.4,1.6H36.5z M38.8,39.9h-1.7l1.5-6.8h1.7c0.9,0,1.7,0.7,1.7,2.2C42,36.7,41.3,39.9,38.8,39.9z M46,13.5L43.1,30
	H5.1l3.1-17.6C8.5,11,9.7,10,11.1,10h32c0.9,0,1.7,0.4,2.3,1.1C45.9,11.7,46.2,12.6,46,13.5z"/>
</svg>
