<?xml version="1.0" encoding="utf-8"?>
<!-- Generator: Adobe Illustrator 21.0.0, SVG Export Plug-In . SVG Version: 6.00 Build 0)  -->
<svg version="1.1" id="Bell" xmlns="http://www.w3.org/2000/svg" xmlns:xlink="http://www.w3.org/1999/xlink" x="0px" y="0px"
	 width="20px" height="20px" viewBox="0 0 20 20" style="enable-background:new 0 0 20 20;" xml:space="preserve">
<style type="text/css">
	.st0{fill:#FF9900;}
	.st1{fill:#FFCC00;}
</style>
<g id="smalBell">
	<path id="_x32__1_" class="st0" d="M12.2,18.5c-0.2,0.1-0.5,0-0.6-0.1L1.6,8.5C1.4,8.3,1.4,8.1,1.5,7.8C1.6,7.6,1.8,7.5,2,7.5
		c0.9,0,1.8-0.4,2.4-1l0.1-0.1h1.7l7.5,7.5v1.7l-0.1,0.1c-0.6,0.6-1,1.5-1,2.4C12.5,18.2,12.4,18.4,12.2,18.5z M19.5,0.5
		c-0.7-0.7-1.8-0.7-2.5,0c-0.7,0.7-0.7,1.8,0,2.5c0.7,0.7,1.8,0.7,2.5,0C20.2,2.3,20.2,1.2,19.5,0.5z M8.2,15.1l-3.3-3.3
		c-0.2-0.2-0.6-0.2-0.8,0c-1.1,1.1-1.1,3,0,4.1s3,1.1,4.1,0C8.4,15.7,8.4,15.3,8.2,15.1z"/>
	<path id="_x31__1_" class="st1" d="M17.8,11.3l-4.2,4.2L4.5,6.4l4.2-4.2c2.5-2.5,6.6-2.5,9.1,0S20.3,8.8,17.8,11.3z M12.8,18L2,7.2
		c-0.5-0.5-1.2-0.5-1.7,0c-0.5,0.5-0.5,1.2,0,1.7l10.8,10.8c0.5,0.5,1.2,0.5,1.7,0S13.2,18.5,12.8,18z"/>
</g>
</svg>
