<?xml version="1.0" encoding="utf-8"?>
<!-- Generator: Adobe Illustrator 21.0.0, SVG Export Plug-In . SVG Version: 6.00 Build 0)  -->
<svg version="1.1" id="Слой_1" xmlns="http://www.w3.org/2000/svg" xmlns:xlink="http://www.w3.org/1999/xlink" x="0px" y="0px"
	 width="300px" height="300px" viewBox="0 0 300 300" style="enable-background:new 0 0 300 300;" xml:space="preserve">
<style type="text/css">
	.st0{opacity:0.5;fill-rule:evenodd;clip-rule:evenodd;fill:#952413;}
</style>
<path id="symbol_x5F_accessdenied" class="st0" d="M150,300C67.3,300,0,232.7,0,150S67.3,0,150,0s150,67.3,150,150
	S232.7,300,150,300z M35.8,150c0,26,8.8,50,23.5,69.2L214.9,56.1c-18.4-12.8-40.8-20.3-64.9-20.3C87,35.8,35.8,87,35.8,150z
	 M240.8,80.8L85.1,243.9c18.4,12.8,40.8,20.3,64.9,20.3c63,0,114.2-51.2,114.2-114.2C264.2,124,255.5,100,240.8,80.8z"/>
</svg>
