<?xml version="1.0" encoding="utf-8"?>
<!-- Generator: Adobe Illustrator 21.0.0, SVG Export Plug-In . SVG Version: 6.00 Build 0)  -->
<svg version="1.1" id="Слой_1" xmlns="http://www.w3.org/2000/svg" xmlns:xlink="http://www.w3.org/1999/xlink" x="0px" y="0px"
	 width="300px" height="300px" viewBox="0 0 300 300" style="enable-background:new 0 0 300 300;" xml:space="preserve">
<style type="text/css">
	.st0{opacity:0.5;fill:#FFB400;}
</style>
<path id="symbol_x5F_error" class="st0" d="M150,205.5c-8.4,0-15.4,7-15.4,15.4c0,8.4,7,15.4,15.4,15.4c8.1,0,15.4-7,15-15
	C165.4,212.5,158.4,205.5,150,205.5z M292.7,260.1c9.7-16.7,9.7-36.6,0.1-53.2L196.2,39.8C186.7,23,169.4,13,150.1,13
	c-19.4,0-36.6,10-46.2,26.7L7.2,207c-9.6,16.8-9.6,36.8,0.2,53.5C17,277.1,34.2,287,53.4,287h192.9C265.6,287,283,277,292.7,260.1z
	 M271.7,248.1c-5.4,9.2-15.1,14.9-25.7,14.9H53c-10.5,0-19.6-5.6-24.8-14.6c-5.3-9.2-5.4-20.1-0.1-29.4l96.7-167.2
	c5.2-9.2,14.6-14.6,25.2-14.6c10.5,0,20,5.5,25.2,14.7L271.9,219C277.1,228,277,238.9,271.7,248.1z M146.2,97.4
	c-7.3,2.1-11.9,8.7-11.9,16.8c0.4,4.9,0.7,9.8,1,14.7c1,18.5,2.1,36.7,3.1,55.3c0.4,6.3,5.2,10.8,11.5,10.8
	c6.3,0,11.2-4.9,11.5-11.2c0-3.8,0-7.3,0.4-11.2c0.7-11.9,1.4-23.8,2.1-35.7c0.4-7.7,1-15.4,1.4-23.1c0-2.8-0.4-5.2-1.4-7.7
	C160.8,99.2,153.5,95.7,146.2,97.4z"/>
</svg>
