<svg xmlns="http://www.w3.org/2000/svg" width="19" height="17" viewBox="0 0 19 17">
  <g id="Vector_Smart_Object" data-name="Vector Smart Object" transform="translate(-79.483 -76.5)">
    <g id="Group_98" data-name="Group 98">
      <path id="Path_106" data-name="Path 106" d="M79.483,78.321V88.339a1.887,1.887,0,0,0,1.9,1.821h2.533V93.2a.3.3,0,0,0,.2.283.328.328,0,0,0,.349-.079l3.072-3.24h9.043a1.887,1.887,0,0,0,1.9-1.821V78.321a1.887,1.887,0,0,0-1.9-1.821h-15.2A1.887,1.887,0,0,0,79.483,78.321ZM92.15,83.179a1.268,1.268,0,1,1,1.267,1.214A1.243,1.243,0,0,1,92.15,83.179Zm-4.433,0a1.268,1.268,0,1,1,1.267,1.214A1.243,1.243,0,0,1,87.717,83.179Zm-4.433,0a1.268,1.268,0,1,1,1.267,1.214A1.243,1.243,0,0,1,83.283,83.179Z" fill="#ccc"/>
    </g>
  </g>
</svg>
