<svg xmlns="http://www.w3.org/2000/svg" width="20" height="14" viewBox="0 0 20 14">
  <g id="Group_99" data-name="Group 99" transform="translate(0 -3.267)">
    <g id="visibility">
      <path id="Path_107" data-name="Path 107" d="M10,3.267a10.721,10.721,0,0,0-10,7,10.721,10.721,0,0,0,10,7,10.721,10.721,0,0,0,10-7A10.721,10.721,0,0,0,10,3.267Zm0,11.667a4.562,4.562,0,0,1-4.545-4.667,4.547,4.547,0,1,1,9.091,0A4.562,4.562,0,0,1,10,14.933Zm0-7.467a2.715,2.715,0,0,0-2.727,2.8,2.728,2.728,0,1,0,5.455,0A2.715,2.715,0,0,0,10,7.467Z" fill="#ccc"/>
    </g>
  </g>
</svg>
