<?xml version="1.0" encoding="utf-8"?>
<!-- Generator: Adobe Illustrator 22.1.0, SVG Export Plug-In . SVG Version: 6.00 Build 0)  -->
<svg version="1.1" id="Social" xmlns="http://www.w3.org/2000/svg" xmlns:xlink="http://www.w3.org/1999/xlink" x="0px" y="0px"
	 width="44px" height="44px" viewBox="0 0 44 44" style="enable-background:new 0 0 44 44;" xml:space="preserve">
<style type="text/css">
	.st0{fill:#000000;}
	.st1{fill:#3C599A;}
	.st2{fill:#E9EBEE;}
</style>
<g id="Facebook">
	<polygon id="Shadow" class="st0" points="42,42 2,44 5,4 40,6 	"/>
	<polygon id="Color" class="st1" points="42,38 2,40 5,0 40,2 	"/>
	<path id="Facebook_1_" class="st2" d="M29,15.4L28.5,20h-3.6c0,5.9,0,13,0,13h-5.3c0,0,0-7.1,0-13H17v-4.6h2.5v-3
		c0-2.1,1.1-5.5,5.5-5.5h4v4.4c0,0-2.4,0-2.9,0c-0.5,0-1.1,0.3-1.1,1.3v2.7C24.9,15.4,29,15.4,29,15.4z"/>
</g>
</svg>
