<?xml version="1.0" encoding="utf-8"?>
<!-- Generator: Adobe Illustrator 22.1.0, SVG Export Plug-In . SVG Version: 6.00 Build 0)  -->
<svg version="1.1" id="Social" xmlns="http://www.w3.org/2000/svg" xmlns:xlink="http://www.w3.org/1999/xlink" x="0px" y="0px"
	 width="44px" height="44px" viewBox="0 0 44 44" style="enable-background:new 0 0 44 44;" xml:space="preserve">
<style type="text/css">
	.st0{fill:#000000;}
	.st1{fill:#C6C5C7;}
	.st2{fill:#ED2224;}
</style>
<g id="Yandex_1_">
	<polygon id="Shadow_1_" class="st0" points="42,42 2,44 5,4 40,6 	"/>
	<polygon id="Color_1_" class="st1" points="42,38 2,40 5,0 40,2 	"/>
	<path id="Yandex" class="st2" d="M23.7,23l-4.4,10H16l4.9-10.7c-2.3-1.2-3.8-3.3-3.8-7.2c0-5.5,3.5-8.2,7.7-8.2H29v25.9h-2.8V23
		H23.7z M26,9.5h-1.5c-2.3,0-4.4,1.5-4.4,5.8c0,4.2,2,5.5,4.4,5.5H26V9.5z"/>
</g>
</svg>
