<?xml version="1.0" encoding="utf-8"?>
<!-- Generator: Adobe Illustrator 21.0.0, SVG Export Plug-In . SVG Version: 6.00 Build 0)  -->
<svg version="1.1" id="Слой_1" xmlns="http://www.w3.org/2000/svg" xmlns:xlink="http://www.w3.org/1999/xlink" x="0px" y="0px"
	 width="70px" height="70px" viewBox="0 0 70 70" style="enable-background:new 0 0 70 70;" xml:space="preserve">
<style type="text/css">
	.st0{opacity:0.4;fill:#FFFFFF;}
</style>
<path id="popapico_x5F_msg" class="st0" d="M63.8,10.5H6.2c-3.4,0-6.2,2.8-6.2,6.1v36.8c0,3.4,2.8,6.1,6.2,6.1h57.7
	c3.4,0,6.2-2.7,6.2-6.1V16.6C70,13.3,67.3,10.5,63.8,10.5z M63,14.6C61.7,15.8,40.1,37.3,39.4,38c-1.2,1.2-2.7,1.8-4.4,1.8
	c-1.6,0-3.2-0.6-4.4-1.8C30.1,37.5,8.8,16.3,7,14.6H63z M4.1,52.5V17.5L21.8,35L4.1,52.5z M7,55.4l17.7-17.5l3,3
	c1.9,1.9,4.5,3,7.3,3c2.7,0,5.3-1.1,7.2-3l3-3L63,55.4H7z M65.9,52.5L48.2,35l17.7-17.6V52.5z"/>
</svg>
