<?xml version="1.0" encoding="utf-8"?>
<!-- Generator: Adobe Illustrator 21.0.0, SVG Export Plug-In . SVG Version: 6.00 Build 0)  -->
<svg version="1.1" id="Слой_1" xmlns="http://www.w3.org/2000/svg" xmlns:xlink="http://www.w3.org/1999/xlink" x="0px" y="0px"
	 width="70px" height="70px" viewBox="0 0 70 70" style="enable-background:new 0 0 70 70;" xml:space="preserve">
<style type="text/css">
	.st0{opacity:0.4;fill:#FFFFFF;}
</style>
<path id="popapico_x5F_exit" class="st0" d="M41,45h5v11c0,4.5-3.5,8-8,8H11c-4.5,0-8-3.5-8-8V14c0-4.5,3.5-8,8-8l27.1,0
	c4.5,0,7.9,3.5,7.9,8v11h-5V14c0-1.5-1.5-3-3-3H11c-1.5,0-3,1.5-3,3v42c0,1.5,1.5,3,3,3h27c1.5,0,3-1.5,3-3V45z M54,22l-4,4l6,6H21
	v6h35l-6,6l4,4l13-13L54,22z"/>
</svg>
