<?xml version="1.0" encoding="utf-8"?>
<!-- Generator: Adobe Illustrator 21.0.0, SVG Export Plug-In . SVG Version: 6.00 Build 0)  -->
<svg version="1.1" id="Слой_1" xmlns="http://www.w3.org/2000/svg" xmlns:xlink="http://www.w3.org/1999/xlink" x="0px" y="0px"
	 width="70px" height="70px" viewBox="0 0 70 70" style="enable-background:new 0 0 70 70;" xml:space="preserve">
<style type="text/css">
	.st0{opacity:0.4;fill:#FFFFFF;}
</style>
<path id="popapico_x5F_telegram" class="st0" d="M68.8,7.1c-0.9-1-2.1-1.6-3.6-1.6c-0.8,0-1.6,0.2-2.5,0.5l-59,22.5
	c-3.1,1.2-3.6,3-3.5,4c0,1,0.6,2.7,3.7,3.7c0,0,0,0,0.1,0l12.2,3.5l6.6,18.9c0.9,2.6,2.9,4.2,5.3,4.2c1.5,0,3-0.6,4.2-1.8l7.6-7
	l11,8.8c0,0,0,0,0,0L51,63c0,0,0,0,0,0c1.2,0.9,2.6,1.4,3.9,1.4h0c2.5,0,4.6-1.9,5.2-4.8l9.7-47.8C70.1,10,69.8,8.3,68.8,7.1z
	 M20.3,39.1L43.9,27L29.2,42.6c-0.2,0.3-0.4,0.6-0.5,0.9L25.9,55L20.3,39.1z M29.6,58.1c-0.1,0.1-0.2,0.2-0.3,0.2l2.6-10.7l4.8,3.9
	L29.6,58.1z M65.7,11.1L56,58.9c-0.1,0.5-0.4,1.5-1.2,1.5c-0.4,0-0.9-0.2-1.3-0.6l-12.5-10c0,0,0,0,0,0l-7.4-6L55,21.2
	c0.7-0.7,0.7-1.8,0.1-2.6c-0.6-0.8-1.7-1-2.6-0.6l-35,17.9L5.1,32.3l59-22.5c0.5-0.2,0.8-0.2,1.1-0.2c0.1,0,0.3,0,0.4,0.1
	C65.7,9.8,65.9,10.3,65.7,11.1z"/>
</svg>
