<?xml version="1.0" encoding="utf-8"?>
<!-- Generator: Adobe Illustrator 21.0.0, SVG Export Plug-In . SVG Version: 6.00 Build 0)  -->
<svg version="1.1" id="Слой_1" xmlns="http://www.w3.org/2000/svg" xmlns:xlink="http://www.w3.org/1999/xlink" x="0px" y="0px"
	 width="70px" height="70px" viewBox="0 0 70 70" style="enable-background:new 0 0 70 70;" xml:space="preserve">
<style type="text/css">
	.st0{opacity:0.4;fill:#FFFFFF;}
</style>
<path id="popapico_x5F_info" class="st0" d="M32.6,6.1C18.7,7.2,7.4,18.4,6.1,32.3c-0.5,5.9,0.7,11.4,3.2,16.2
	c0.9,1.7,1,3.8,0.4,5.6L6,64l10.6-3.5c1.7-0.6,3.7-0.5,5.3,0.4c4.8,2.4,10.3,3.6,16.1,3c13.8-1.4,24.8-12.7,25.9-26.5
	C65.3,19.5,50.5,4.7,32.6,6.1z M35,59c-13.3,0-24-10.7-24-24c0-13.3,10.7-24,24-24c13.3,0,24,10.7,24,24C59,48.3,48.3,59,35,59z
	 M35,18c1.7,0,3,1.3,3,3c0,1.7-1.3,3-3,3c-1.7,0-3-1.3-3-3C32,19.3,33.3,18,35,18z M35,52L35,52c-1.7,0-3-1.3-3-3V32
	c0-1.7,1.3-3,3-3l0,0c1.7,0,3,1.3,3,3v17C38,50.7,36.7,52,35,52z"/>
</svg>
