<?xml version="1.0" encoding="utf-8"?>
<!-- Generator: Adobe Illustrator 21.0.0, SVG Export Plug-In . SVG Version: 6.00 Build 0)  -->
<svg version="1.1" id="Слой_1" xmlns="http://www.w3.org/2000/svg" xmlns:xlink="http://www.w3.org/1999/xlink" x="0px" y="0px"
	 width="16px" height="28px" viewBox="0 0 16 28" style="enable-background:new 0 0 16 28;" xml:space="preserve">
<style type="text/css">
	.st0{fill:#12100C;}
	.st1{fill:#231F1D;}
	.st2{fill:#2D2926;}
</style>
<g id="ornament_x5F_line03">
	<rect class="st0" width="16" height="28"/>
	<path d="M0,0h1v28H0V0z M8,11V5H6v8h9v2H6v8h2v-6h6v11h1h1V15v-2V0h-1h-1v11H8z M10,9h2V1H2v26h10v-8h-2v6H4V3h6V9z"/>
	<path class="st1" d="M15,15v13h-2V17H7v6H5v-8H15z M15,0v13H5V5h2v6h6V0H15z M11,1v8H9V3H3v22h6v-6h2v8H1V1H11z"/>
	<path class="st2" d="M2,1v26H1V1H2z M5,15v8h1v-8H5z M5,5v8h1V5H5z M9,3v6h1V3H9z M9,19v6h1v-6H9z M14,28V17h-1v11H14z M13,0v11h1
		V0H13z"/>
</g>
</svg>
