<?xml version="1.0" encoding="utf-8"?>
<!-- Generator: Adobe Illustrator 21.0.0, SVG Export Plug-In . SVG Version: 6.00 Build 0)  -->
<svg version="1.1" id="bg_1_" xmlns="http://www.w3.org/2000/svg" xmlns:xlink="http://www.w3.org/1999/xlink" x="0px" y="0px"
	 width="1024px" height="768px" viewBox="0 0 1024 768" style="enable-background:new 0 0 1024 768;" xml:space="preserve">
<style type="text/css">
	.st0{opacity:0.2;fill-rule:evenodd;clip-rule:evenodd;fill:#FFFFFF;}
</style>
<path id="bg" class="st0" d="M419.8,768h-89.7L372.8,0h4.3L419.8,768z M355.3,0h-5.8L0,534.5v168.2L355.3,0z M256.2,0h-67.6L0,39.5
	v44.7L256.2,0z M315.4,0h-17.5L0,150.6v55.6L315.4,0z M340.1,0h-8.7L0,296.5v83.6L340.1,0z M366.8,0h-4.6L110,768h96.1L366.8,0z
	 M452.1,0h-17.5L1024,385.4v-96.2L452.1,0z M561.4,0h-67.6L1024,174.1V96.8L561.4,0z M400.5,0h-5.8L783,768h119.7L400.5,0z M387.8,0
	h-4.6l160.7,768H640L387.8,0z M418.6,0h-8.7L1024,686.4V541.7L418.6,0z"/>
</svg>
