<?xml version="1.0" encoding="utf-8"?>
<!-- Generator: Adobe Illustrator 21.0.0, SVG Export Plug-In . SVG Version: 6.00 Build 0)  -->
<svg version="1.1" id="Слой_1" xmlns="http://www.w3.org/2000/svg" xmlns:xlink="http://www.w3.org/1999/xlink" x="0px" y="0px"
	 width="594px" height="480px" viewBox="0 0 594 480" style="enable-background:new 0 0 594 480;" xml:space="preserve">
<style type="text/css">
	.st0{fill:#242229;}
	.st1{fill-rule:evenodd;clip-rule:evenodd;fill:#F2F2F2;}
</style>
<path class="st0" d="M594.2,225.3c-1.5-21.9-11.1-42.2-28.1-58.7c7.8-17.2,7.4-38.5-1.2-60.5c-8.4-21.3-24.2-42.2-43.4-57.4
	c-18.5-14.6-38.8-23.2-58.7-24.9c-21-1.8-41,4.3-58.2,17.8c-16.1-25.2-44.3-39.5-82-41.5C261.9-3,189.7,26.7,162.9,55.7
	c-7.8-17.1-21.4-28.5-40.4-33.9c-23.6-6.7-55.7-3.8-95.3,8.5c-1.8,0.6-3.1,2.2-3.2,4.1c-0.1,1.9,1,3.6,2.7,4.4
	c35,14.8,40.9,18.8,44.9,45.3C25.8,103.4,10.5,147.3,30,202.6c-14.6,9.3-24.4,26.2-28,48.1c-3.6,21.7-0.8,46.4,7.7,69.5
	c8.9,24,23.6,44.2,41.5,56.9c19.2,13.6,42,18.7,66.3,14.7c-1.8,22.2,3.9,42.1,16.8,57.9c12.5,15.3,30.9,25.5,51.8,28.8
	c4.8,0.8,9.5,1.1,14.2,1.1c16.5,0,32.3-4.6,45.7-13.3c17.2-11.2,29.1-28.5,34.7-50.3c16.1,15.5,41.1,23,71.5,21.3
	c30.3-1.7,63.2-12.6,88.1-29.1c32.3-21.4,45.8-48.2,37.5-73.2c16.8,4,34.7,2,52.1-6c19-8.7,36-24,47.8-43
	C589.8,267,595.5,245.5,594.2,225.3z"/>
<path class="st1" d="M127.5,372.5c-14,96.8,131.3,119.1,148.8,19.2c49.6,63.7,222.3-5.5,183.1-74.6c73.4,28.3,160.4-84.5,86.8-151.7
	c33.7-63.3-70.6-179-145.5-113.9c-54.4-81.7-209.3-29.5-238.1,15.1c-11.8-35-48.3-55.3-127-31c40.9,10.1,49.4,23.6,47.8,53.4
	c-47.6,18.2-58.2,61.5-39.1,111.5C-17.1,232.9,21.7,395.8,127.5,372.5z"/>
</svg>
