<?xml version="1.0" encoding="utf-8"?>
<!-- Generator: Adobe Illustrator 21.0.0, SVG Export Plug-In . SVG Version: 6.00 Build 0)  -->
<svg version="1.1" id="Слой_1" xmlns="http://www.w3.org/2000/svg" xmlns:xlink="http://www.w3.org/1999/xlink" x="0px" y="0px"
	 width="218px" height="148px" viewBox="0 0 218 148" style="enable-background:new 0 0 218 148;" xml:space="preserve">
<style type="text/css">
	.st0{fill:#FFB400;}
</style>
<path id="ornament_x5F_bonus" class="st0" d="M7.7,147.4c-2.6,0-5.2-0.2-7.7-0.5v-30.2c2.4,0.4,5,0.6,7.7,0.6
	c20.9,0,39.4-17.3,39.4-43.7c0-24.8-18.4-46.3-47.1-48.9V0.2c44.4,2.9,72.5,38.1,72.5,73C72.5,109.7,42.4,147.4,7.7,147.4z
	 M28.9,147.4c6.3,0,43.5,4.4,62.1-10.9c52.5-43.2,67.8-112,121.6-112c1.8,0,3.7,0.1,5.4,0.2V0.2c-1.8-0.1-3.6-0.2-5.4-0.2
	C121.3,0,100.2,130.1,28.9,147.4z M36.5,77.1c0-16.6-12-39.7-36.5-41.5v24.7c9.1,1.3,13.3,8,9,12.1c-3-2.1-6.1-3.1-9-3.1v37
	c1.6,0.2,3.2,0.3,5,0.3C19,106.4,36.5,94.4,36.5,77.1z M201.8,87.3c0,11.8,5.7,17.4,16.2,18.8V69.2
	C209.3,69.3,201.8,77.2,201.8,87.3z M218,116.7c-16.2-2.7-25.9-14-25.9-31c0-18.4,16.2-25.7,23.2-25.7c0.9,0,1.9,0.1,2.7,0.2V35.5
	c-0.9-0.1-1.8-0.1-2.7-0.1c-26.6,0-51.3,24.1-51.3,54.6c0,28.1,23.3,53.1,54.1,56.8V116.7z"/>
</svg>
