<?xml version="1.0" encoding="utf-8"?>
<!-- Generator: Adobe Illustrator 21.0.0, SVG Export Plug-In . SVG Version: 6.00 Build 0)  -->
<svg version="1.1" id="Слой_1" xmlns="http://www.w3.org/2000/svg" xmlns:xlink="http://www.w3.org/1999/xlink" x="0px" y="0px"
	 width="200px" height="80px" viewBox="0 0 200 80" style="enable-background:new 0 0 200 80;" xml:space="preserve">
<style type="text/css">
	.st0{fill:#EFEFEF;}
	.st1{fill:#C5FF41;}
	.st2{fill:#FFCC00;}
	.st3{fill:#FF9900;}
	.st4{fill:#66CC00;}
	.st5{fill:#141414;}
</style>
<g id="LoroDesk">
	<g>
		<path class="st0" d="M94.1,24.1c0,0.3,0,0.8-0.1,1.3c0,0.5-0.1,1.1-0.1,1.7c0,0.6-0.1,1.2-0.2,1.8c-0.1,0.6-0.1,1.2-0.2,1.7
			c0,0.5-0.1,1-0.1,1.3s0,0.6,0,0.7c0,1-0.1,1.8-0.2,2.6c-0.1,0.8-0.1,1.6-0.2,2.4c-0.1,0.8-0.2,1.6-0.3,2.5
			c-0.1,0.8-0.2,1.8-0.3,2.8c-0.1,1-0.2,2.2-0.3,3.4c-0.1,1.3-0.2,2.7-0.3,4.3l9.4-1c0.4,0,0.8-0.1,1-0.1c0.3,0,0.6,0,0.6,0.2
			c0.1,0.1,0.1,0.3,0.1,0.5c0,0,0,0.1,0,0.1c0,0,0,0.2-0.1,0.3c0,0.2-0.1,0.4-0.2,0.6c-0.1,0.3-0.2,0.7-0.4,1.2l-0.5,1.5
			c-0.2,0.5-0.3,0.9-0.5,1.3c-0.1,0.4-0.3,0.7-0.5,1c-0.2,0.3-0.5,0.5-0.8,0.7c-0.3,0.2-0.7,0.3-1.2,0.3c-0.3,0-0.7,0-1.3,0.1
			c-0.6,0-1.2,0-1.9,0.1c-0.7,0-1.5,0-2.3,0.1c-0.8,0-1.7,0.1-2.5,0.1c-0.9,0-1.7,0-2.6,0c-0.9,0-1.7,0-2.5,0c-0.8,0-1.5,0-2.2,0
			c-0.6,0-1.2,0-1.6,0c-0.4,0-0.7,0-0.9-0.1c-0.2,0-0.3-0.2-0.3-0.3c0-0.2,0-0.4,0.2-0.7c0.1-0.3,0.3-0.6,0.4-1
			c0.2-0.4,0.3-0.8,0.6-1.2c0.2-0.4,0.4-0.8,0.6-1.2l0.6-8.1c0.1-1.4,0.3-2.8,0.3-4.2c0.1-1.4,0.2-2.8,0.3-4.1l0.4-6
			c0.1-1.4,0.2-2.5,0.2-3.1c0-0.6,0-1,0-1c0-0.3,0-0.5,0.1-0.7c0-0.2,0-0.3,0.1-0.5c0-0.1,0.1-0.2,0.2-0.3c0.1,0,0.2-0.1,0.3-0.1
			l8-1.9c0.2,0,0.4-0.1,0.6-0.1c0.2,0,0.3,0,0.3,0.1c0.1,0.1,0.1,0.3,0.1,0.6c0,0,0,0.1,0,0.1C94.2,24,94.1,24,94.1,24.1z"/>
		<path class="st0" d="M115.1,57.5c-1.7,0-3.2-0.3-4.6-1s-2.5-1.5-3.4-2.6c-0.9-1.1-1.6-2.3-2.1-3.8c-0.5-1.4-0.7-2.9-0.7-4.5
			c0-1.8,0.3-3.4,0.8-4.9c0.5-1.5,1.2-2.9,2.1-4s2-2.2,3.2-2.9c1.3-0.8,2.6-1.4,4.1-1.8c0.1,0,0.3-0.1,0.3-0.3
			c0.1-0.2,0.1-0.5,0.2-0.7c0-0.3,0.1-0.5,0.2-0.7c0.1-0.2,0.2-0.3,0.3-0.3c2.2,0.2,4.2,0.6,6,1.2c1.8,0.6,3.2,1.3,4.5,2.4
			c1.2,1,2.2,2.3,2.8,3.9c0.6,1.6,1,3.5,1,5.7c0,1.4-0.2,2.8-0.5,4.1c-0.3,1.3-0.9,2.5-1.5,3.5s-1.4,2-2.3,2.9
			c-0.9,0.9-1.9,1.6-3,2.2c-1.1,0.6-2.2,1-3.5,1.3C117.7,57.4,116.4,57.5,115.1,57.5z M111.7,45c0,0.8,0.1,1.6,0.3,2.5
			s0.5,1.6,0.9,2.2c0.4,0.7,1,1.2,1.6,1.6c0.7,0.4,1.5,0.6,2.5,0.6c0.8,0,1.4-0.2,2-0.5c0.6-0.3,1.1-0.6,1.5-1
			c0.4-0.4,0.8-0.9,1-1.5c0.3-0.6,0.5-1.1,0.6-1.7c0.2-0.6,0.3-1.3,0.3-1.9c0-0.6,0.1-1.3,0.1-1.9c0-0.8-0.1-1.6-0.3-2.3
			c-0.2-0.8-0.6-1.4-1-2c-0.4-0.6-1-1-1.6-1.4c-0.6-0.3-1.4-0.5-2.2-0.5c-0.7,0-1.3,0.1-1.8,0.4c-0.6,0.3-1,0.6-1.4,1
			c-0.4,0.4-0.8,0.9-1.1,1.4c-0.3,0.6-0.6,1.1-0.7,1.7c-0.2,0.6-0.3,1.2-0.4,1.7C111.8,44.1,111.7,44.5,111.7,45z"/>
		<path class="st0" d="M141,55.3c0,0.1,0,0.2,0,0.3c0,0.1-0.1,0.2-0.2,0.2c0,0-0.3,0.1-0.7,0.3c-0.4,0.1-0.9,0.3-1.4,0.5
			c-0.5,0.2-1,0.4-1.6,0.6c-0.5,0.2-0.9,0.3-1.2,0.4c-0.1,0-0.3,0.1-0.5,0.2c-0.2,0-0.4,0.1-0.6,0.1c-0.2,0-0.3,0-0.4-0.1
			c-0.1-0.1-0.2-0.2-0.2-0.4c0-0.5,0-1,0-1.4c0-0.4,0.1-0.9,0.1-1.3c0-0.5,0.1-1,0.1-1.5s0.1-1.2,0.1-2c0-1,0.1-1.9,0.2-2.9
			c0.1-0.9,0.1-1.9,0.2-2.9l0.3-2.9c0-0.5,0.1-1,0.1-1.5s0.1-1,0.1-1.5l0.2-2.1c0,0,0,0-0.1,0c-0.1,0-0.3,0-0.5,0
			c-0.2,0-0.5,0.1-0.8,0.1c-0.3,0-0.6,0.1-1,0.2c-0.3,0-0.7,0.1-1.1,0.2c-0.1,0-0.2,0-0.3,0c-0.1,0-0.1-0.1-0.1-0.1c0,0,0-0.1,0-0.1
			l2.8-4.8c0.6-0.1,1.3-0.3,2-0.4c0.7-0.1,1.5-0.3,2.3-0.4c0.8-0.1,1.7-0.2,2.6-0.3c1-0.1,1.9-0.1,3-0.1c1.2,0,2.3,0.1,3.5,0.3
			s2.1,0.6,3,1c0.9,0.5,1.6,1.2,2.1,2c0.5,0.9,0.8,1.9,0.8,3.2c0,0.7-0.1,1.4-0.3,2c-0.3,0.6-0.6,1.2-1,1.6
			c-0.4,0.5-0.8,0.9-1.3,1.3c-0.5,0.4-0.9,0.7-1.3,1c-0.4,0.3-0.8,0.5-1.1,0.6c-0.3,0.1-0.5,0.3-0.6,0.3c0,0,0,0,0,0.1
			c0,0,0,0.1,0.1,0.2c0,0.1,0.1,0.2,0.3,0.4c0.1,0.2,0.3,0.4,0.4,0.7c0.2,0.3,0.4,0.6,0.6,1.1c0.3,0.4,0.6,1,0.9,1.6
			c0.3,0.6,0.7,1.3,1.2,2.1s1,1.6,1.6,2.5c0.2,0.2,0.4,0.3,0.6,0.3c0.3,0,0.5,0,0.7,0.1c0.2,0,0.4,0,0.6,0c0.1,0,0.2,0.1,0.2,0.2
			c0,0.1-0.1,0.2-0.3,0.3s-0.4,0.3-0.6,0.3c-0.3,0.1-0.5,0.3-0.8,0.3c-0.3,0.1-0.4,0.2-0.6,0.3c-0.3,0.1-0.6,0.3-0.9,0.4
			c-0.3,0.1-0.6,0.3-1,0.4s-0.7,0.3-1.1,0.5c-0.4,0.2-0.9,0.4-1.4,0.7c-0.1,0.1-0.3,0.1-0.4,0.2c-0.1,0-0.2,0-0.3,0
			c-0.2,0-0.4,0-0.5-0.1c-0.1-0.1-0.3-0.2-0.4-0.3c-0.1-0.1-0.2-0.3-0.3-0.4c0-0.1-0.1-0.3-0.2-0.3l-5.1-10.5L141,55.3z M142,43.8
			c0.6,0,1.2-0.1,1.8-0.4c0.6-0.3,1.2-0.7,1.7-1.1c0.5-0.5,1-1,1.3-1.6c0.3-0.6,0.5-1.2,0.5-1.8c0-1.6-1-2.5-3-2.5
			c-0.4,0-0.7,0-1,0.1c-0.3,0-0.5,0.1-0.7,0.1L142,43.8z"/>
		<path class="st0" d="M167.8,57.5c-1.7,0-3.2-0.3-4.6-1s-2.5-1.5-3.4-2.6c-0.9-1.1-1.6-2.3-2.1-3.8c-0.5-1.4-0.7-2.9-0.7-4.5
			c0-1.8,0.3-3.4,0.8-4.9s1.2-2.9,2.1-4c0.9-1.2,2-2.2,3.2-2.9c1.3-0.8,2.6-1.4,4.1-1.8c0.1,0,0.3-0.1,0.3-0.3
			c0.1-0.2,0.1-0.5,0.2-0.7c0-0.3,0.1-0.5,0.2-0.7c0.1-0.2,0.2-0.3,0.3-0.3c2.2,0.2,4.2,0.6,6,1.2c1.8,0.6,3.2,1.3,4.5,2.4
			c1.2,1,2.2,2.3,2.8,3.9c0.6,1.6,1,3.5,1,5.7c0,1.4-0.2,2.8-0.5,4.1c-0.3,1.3-0.9,2.5-1.5,3.5s-1.4,2-2.3,2.9s-1.9,1.6-3,2.2
			c-1.1,0.6-2.2,1-3.5,1.3C170.4,57.4,169.1,57.5,167.8,57.5z M164.4,45c0,0.8,0.1,1.6,0.3,2.5c0.2,0.8,0.5,1.6,0.9,2.2
			c0.4,0.7,1,1.2,1.6,1.6c0.7,0.4,1.5,0.6,2.5,0.6c0.8,0,1.4-0.2,2-0.5c0.6-0.3,1.1-0.6,1.5-1c0.4-0.4,0.8-0.9,1-1.5
			s0.5-1.1,0.6-1.7c0.2-0.6,0.3-1.3,0.3-1.9c0-0.6,0.1-1.3,0.1-1.9c0-0.8-0.1-1.6-0.3-2.3c-0.2-0.8-0.6-1.4-1-2
			c-0.4-0.6-1-1-1.6-1.4c-0.6-0.3-1.4-0.5-2.2-0.5c-0.7,0-1.3,0.1-1.8,0.4c-0.6,0.3-1,0.6-1.4,1c-0.4,0.4-0.8,0.9-1.1,1.4
			c-0.3,0.6-0.6,1.1-0.7,1.7c-0.2,0.6-0.3,1.2-0.4,1.7C164.5,44.1,164.4,44.5,164.4,45z"/>
	</g>
	<g>
		<path class="st1" d="M101.7,61c0.4,0.2,0.8,0.5,1,0.9c0.3,0.4,0.3,0.8,0.3,1.3c0,0.5-0.1,1-0.3,1.3c-0.2,0.4-0.6,0.6-1,0.9
			c-0.4,0.2-1,0.3-1.6,0.3h-1.4v1.9h-1.6v-6.9h3C100.7,60.7,101.3,60.8,101.7,61z M101.1,64.1c0.3-0.2,0.4-0.5,0.4-0.9
			c0-0.4-0.1-0.7-0.4-0.9c-0.3-0.2-0.6-0.3-1.1-0.3h-1.3v2.4h1.3C100.5,64.4,100.9,64.3,101.1,64.1z"/>
		<path class="st1" d="M110.4,66.1h-3.2l-0.6,1.5H105l3.1-6.9h1.6l3.1,6.9H111L110.4,66.1z M109.9,64.9l-1.1-2.6l-1.1,2.6H109.9z"/>
		<path class="st1" d="M119.8,67.6l-1.3-1.9h-0.1H117v1.9h-1.6v-6.9h3c0.6,0,1.1,0.1,1.6,0.3c0.4,0.2,0.8,0.5,1,0.9
			c0.3,0.4,0.3,0.8,0.3,1.3c0,0.5-0.1,1-0.4,1.3c-0.3,0.4-0.6,0.6-1,0.9l1.6,2.2L119.8,67.6L119.8,67.6z M119.4,62.3
			c-0.3-0.2-0.6-0.3-1.1-0.3H117v2.4h1.3c0.5,0,0.9-0.1,1.1-0.3c0.3-0.2,0.4-0.5,0.4-0.9C119.7,62.8,119.6,62.5,119.4,62.3z"/>
		<path class="st1" d="M125.9,62h-2.2v-1.3h6V62h-2.2v5.6h-1.6L125.9,62L125.9,62z"/>
		<path class="st1" d="M138.8,60.7v6.9h-1.3l-3.4-4.2v4.2h-1.6v-6.9h1.3l3.4,4.2v-4.2H138.8z"/>
		<path class="st1" d="M147.8,66.3v1.3h-5.3v-6.9h5.2V62H144v1.5h3.2v1.3H144v1.6L147.8,66.3L147.8,66.3L147.8,66.3z"/>
		<path class="st1" d="M155.4,67.6l-1.3-1.9H154h-1.3v1.9H151v-6.9h3c0.6,0,1.1,0.1,1.6,0.3c0.4,0.2,0.8,0.5,1,0.9
			c0.3,0.4,0.3,0.8,0.3,1.3c0,0.5-0.1,1-0.4,1.3c-0.3,0.4-0.6,0.6-1,0.9l1.6,2.2L155.4,67.6L155.4,67.6z M155,62.3
			c-0.3-0.2-0.6-0.3-1.1-0.3h-1.3v2.4h1.3c0.5,0,0.9-0.1,1.1-0.3c0.3-0.2,0.4-0.5,0.4-0.9C155.4,62.8,155.2,62.5,155,62.3z"/>
		<path class="st1" d="M160.9,67.5c-0.5-0.1-0.9-0.3-1.2-0.6l0.6-1.2c0.3,0.2,0.6,0.4,1,0.5c0.4,0.1,0.8,0.2,1.2,0.2
			c0.4,0,0.8-0.1,1-0.2c0.2-0.1,0.3-0.3,0.3-0.5c0-0.2,0-0.3-0.2-0.4c-0.1-0.1-0.3-0.2-0.5-0.3c-0.2-0.1-0.5-0.1-0.8-0.2
			c-0.5-0.1-1-0.3-1.3-0.4c-0.3-0.1-0.6-0.3-0.9-0.6c-0.3-0.3-0.3-0.6-0.3-1.1c0-0.4,0.1-0.8,0.3-1.1c0.2-0.3,0.6-0.6,1-0.8
			c0.4-0.2,1-0.3,1.6-0.3c0.4,0,0.9,0,1.3,0.2c0.4,0.1,0.8,0.3,1.1,0.4l-0.5,1.2c-0.6-0.3-1.3-0.6-1.9-0.6c-0.4,0-0.8,0.1-1,0.2
			c-0.2,0.1-0.3,0.3-0.3,0.6c0,0.2,0.1,0.4,0.4,0.5c0.3,0.1,0.6,0.2,1.1,0.3c0.5,0.1,1,0.3,1.3,0.4c0.3,0.1,0.6,0.3,0.9,0.6
			c0.3,0.3,0.3,0.6,0.3,1.1c0,0.4-0.1,0.7-0.3,1.1c-0.2,0.3-0.6,0.6-1,0.8c-0.4,0.2-1,0.3-1.6,0.3C161.9,67.7,161.4,67.6,160.9,67.5
			z"/>
	</g>
	<g>
		<path class="st1" d="M78.6,35c0,0-11.5,11.4-34.8,11.4c-5.7,0-14.5,2-14.5,11.1s8.8,12.2,17.1,12.2c13.2,0,28.4-9.7,28.4-9.7
			s-11.6,2.9-11.6-1.1C80.6,58.9,78.6,35,78.6,35z"/>
		<path class="st2" d="M43.7,15.2c-4.8,0-8.6,6.5-8.6,11.4c0,6.8,11.4,5.8,11.4,14.3c0,0,8.3-5.4,8.3-14
			C54.9,20.4,48.5,15.2,43.7,15.2z"/>
		<path class="st3" d="M31.8,30.5c0,0-4.3,2.2-4.3,5.8s5,4.5,7.6,4.5c2.6,0,6.9-3.4,6.9-3.4C35.8,37.5,31.8,30.5,31.8,30.5z"/>
		<path class="st4" d="M39.4,13.4l-5.2,6.2c0,0-1-3.8-7.6-3.8c-2.5,0-9,3-9,11.7s8.7,10.2,8.7,17.3c0,10.8-12,7.5-12,18.3
			c0,5.4,3.2,12.5,3.2,12.5S0.6,64.2,0.6,47.4s10.2-27,10.2-27s3.2-4.9-3.7-10.3l7.1,1.9c0-3.7-6.9-9-6.9-9s11.5,0,14.3,9.2
			C32,12.1,39.4,13.4,39.4,13.4z"/>
		<path class="st4" d="M20,61.7c0,0,12,11.6,21.4,11.6c14.9,0,23.3-3.7,23.3-3.7S56.2,80,40,80s-20.4-4.4-20.4-4.4
			c10.5,1.3,10.6-0.7,10.6-0.7C22.7,74.1,20,61.7,20,61.7z"/>
		<path class="st0" d="M28.9,18.8c-3.1-1.2-6.6,0.6-7.8,4c-1.3,3.4,0.2,7,3.3,8.2c3.1,1.2,6.6-0.6,7.8-4
			C33.4,23.6,31.9,19.9,28.9,18.8z"/>
		<path class="st5" d="M28.9,22.1c0,0.2-0.1,0.4-0.1,0.6c-0.5,1.3-1.9,2-3,1.6c-0.8-0.3-1.3-1-1.4-1.9c-0.3,0.3-0.6,0.7-0.7,1.2
			c-0.7,1.8,0.1,3.8,1.8,4.4c1.7,0.6,3.6-0.3,4.3-2.2C30.1,24.4,29.8,23,28.9,22.1z"/>
		<path class="st4" d="M152.7,0c-15.2,0-28.6,6.6-37.1,16.7c7.8-5.4,17.6-8.6,28.2-8.6c25.6,0,46.4,18.8,46.4,42
			c0,10.2-4,19.5-10.6,26.7c12-7.6,19.8-20.3,19.8-34.6C199.4,18.9,178.5,0,152.7,0z"/>
		<path class="st1" d="M160.3,8.8c-11.7,0-22,5.1-28.6,12.9c6-4.2,13.6-6.7,21.7-6.7c19.7,0,35.7,14.5,35.7,32.4
			c0,7.8-4.5,23.8-9.6,29.4c9.2-5.9,16.7-24.4,16.7-35.5C196.3,23.4,180.2,8.8,160.3,8.8z"/>
	</g>
</g>
</svg>
