<?xml version="1.0" encoding="utf-8"?>
<!-- Generator: Adobe Illustrator 21.0.0, SVG Export Plug-In . SVG Version: 6.00 Build 0)  -->
<svg version="1.1" id="Слой_1" xmlns="http://www.w3.org/2000/svg" xmlns:xlink="http://www.w3.org/1999/xlink" x="0px" y="0px"
	 width="50px" height="50px" viewBox="0 0 50 50" style="enable-background:new 0 0 50 50;" xml:space="preserve">
<style type="text/css">
	.st0{fill:#C5FF41;}
	.st1{fill:#FFCC00;}
	.st2{fill:#FF9900;}
	.st3{fill:#66CC00;}
	.st4{fill:#EFEFEF;}
	.st5{fill:#141414;}
</style>
<g id="LoroSmart">
	<path class="st0" d="M50,20.8c0,0-7.4,7.4-22.3,7.4c-3.7,0-9.3,1.3-9.3,7.2s5.6,7.9,11,7.9c8.4,0,18.2-6.3,18.2-6.3
		s-7.4,1.9-7.4-0.7C51.3,36.3,50,20.8,50,20.8z"/>
	<path class="st1" d="M27.6,7.9c-3,0-5.5,4.2-5.5,7.4c0,4.4,7.3,3.8,7.3,9.3c0,0,5.3-3.5,5.3-9.1C34.8,11.3,30.6,7.9,27.6,7.9z"/>
	<path class="st2" d="M20,17.9c0,0-2.7,1.5-2.7,3.8s3.2,2.9,4.9,2.9c1.7,0,4.4-2.2,4.4-2.2C22.5,22.4,20,17.9,20,17.9z"/>
	<path class="st3" d="M24.8,6.8l-3.3,4c0,0-0.6-2.5-4.9-2.5c-1.6,0-5.8,1.9-5.8,7.6s5.6,6.6,5.6,11.2c0,7-7.7,4.9-7.7,11.9
		c0,3.5,2,8.1,2,8.1S0,39.8,0,28.8s6.5-17.6,6.5-17.6s2-3.2-2.4-6.7l4.6,1.3C8.7,3.5,4.3,0,4.3,0s7.4,0,9.2,5.9
		C20.1,5.9,24.8,6.8,24.8,6.8z"/>
	<path class="st3" d="M12.4,38.1c0,0,7.7,7.5,13.7,7.5c9.6,0,14.9-2.4,14.9-2.4S35.6,50,25.2,50s-13.1-2.9-13.1-2.9
		c6.7,0.8,6.8-0.4,6.8-0.4C14.1,46.2,12.4,38.1,12.4,38.1z"/>
	<path class="st4" d="M18.1,10.3c-2-0.8-4.2,0.4-5,2.6s0.1,4.5,2.1,5.3s4.2-0.4,5-2.6C21,13.4,20,11,18.1,10.3z"/>
	<path class="st5" d="M18.1,12.4c0,0.1-0.1,0.3-0.1,0.4c-0.3,0.8-1.2,1.3-1.9,1c-0.5-0.2-0.8-0.7-0.9-1.2c-0.2,0.2-0.4,0.5-0.5,0.8
		c-0.4,1.2,0.1,2.5,1.1,2.9c1.1,0.4,2.3-0.2,2.7-1.4C18.9,13.9,18.7,13,18.1,12.4z"/>
</g>
</svg>
