<!-- Generated by IcoMoon.io -->
<svg version="1.1" xmlns="http://www.w3.org/2000/svg" width="32" height="32" viewBox="0 0 32 32">
<title>ico40_Fullscreen</title>
<path fill="#0080ff" d="M32 16c0 8.837-7.163 16-16 16s-16-7.163-16-16c0-8.837 7.163-16 16-16s16 7.163 16 16z"></path>
<path fill="#e8ebef" d="M12.8 20c-0.48 0-0.8-0.32-0.8-0.8v-1.6h-1.6v2.4c0 0.88 0.72 1.6 1.6 1.6h2.4v-1.6h-1.6z"></path>
<path fill="#e8ebef" d="M12 12.8c0-0.48 0.32-0.8 0.8-0.8h1.6v-1.6h-2.4c-0.88 0-1.6 0.72-1.6 1.6v2.4h1.6v-1.6z"></path>
<path fill="#e8ebef" d="M20 10.4h-2.4v1.6h1.6c0.48 0 0.8 0.32 0.8 0.8v1.6h1.6v-2.4c0-0.88-0.72-1.6-1.6-1.6z"></path>
<path fill="#e8ebef" d="M20 19.2c0 0.48-0.32 0.8-0.8 0.8h-1.6v1.6h2.4c0.88 0 1.6-0.72 1.6-1.6v-2.4h-1.6v1.6z"></path>
</svg>
