<?xml version="1.0" encoding="utf-8"?>
<!-- Generator: Adobe Illustrator 21.0.0, SVG Export Plug-In . SVG Version: 6.00 Build 0)  -->
<svg version="1.1" id="Logo" xmlns="http://www.w3.org/2000/svg" xmlns:xlink="http://www.w3.org/1999/xlink" x="0px" y="0px"
	 viewBox="0 0 140 80" style="enable-background:new 0 0 140 80;" xml:space="preserve">
<style type="text/css">
	.st1{fill:#FFFFFF;}
</style>
<g id="Logo_x5F_EgoCasino">
	
	<path id="o" fill="#B5C0CB" style="fill: var(--color1, #B5C0CB)" d="M127,49.3c7.3,0,13-5.5,13-12.5c0-7-5.7-12.5-13-12.5c-7.2,0-12.9,5.5-12.9,12.5
		C114.1,43.8,119.7,49.3,127,49.3z M127,30.1c3.8,0,6.6,2.8,6.6,6.7c0,3.9-2.7,6.7-6.6,6.7c-3.9,0-6.6-2.7-6.6-6.7
		C120.5,32.8,123.1,30.1,127,30.1z"/>
	<path id="g" fill="#B5C0CB" style="fill: var(--color1, #B5C0CB)" d="M101.2,49.3c4.3,0,8.7-2.1,10.9-5.3c0.7-1,0.9-1.9,0.9-3.2v-2.6c0-1.8-1.3-3.2-3.2-3.2h-6.3
		c-1.6,0-2.8,1.2-2.8,2.7c0,1.5,1.2,2.7,2.8,2.7h3.2v1.1c-1.2,1.4-3.1,2.2-5.3,2.2c-4.2,0-6.9-2.7-6.9-6.9c0-4.1,2.6-6.7,6.6-6.7
		c1.9,0,3.5,0.7,4.8,2c0.9,0.9,1.6,1.3,2.6,1.3c1.5,0,2.8-1.3,2.8-2.8c0-1.2-0.7-2.2-2.2-3.7c-1.9-1.6-4.9-2.6-7.9-2.6
		c-7.4,0-13.1,5.4-13.1,12.5C88.1,43.9,93.8,49.3,101.2,49.3z"/>
	<path id="e" fill="#B5C0CB" style="fill: var(--color1, #B5C0CB)" d="M76.3,49.3c2.8,0,5.4-0.8,7.6-2.2c1.2-0.8,1.6-1.5,1.6-2.6c0-1.5-1.2-2.6-2.7-2.6
		c-0.5,0-0.9,0.1-1.4,0.4c-1.4,0.9-3.2,1.4-5,1.4c-3.5,0-5.9-1.7-6.7-4.7h13.6c2.1,0,3.6-1.3,3.6-3.3v-0.1c0-6.5-4.8-11.2-11.3-11.2
		c-7,0-12.4,5.4-12.4,12.5C63.3,43.9,68.8,49.3,76.3,49.3z M75.5,29.6c3,0,5.1,2,5.2,4.8H69.8C70.5,31.4,72.7,29.6,75.5,29.6z"/>
	<path id="contur_1_" fill="#B5C0CB" style="fill: var(--color1, #B5C0CB)" d="M131.4,51.6c-3.2,0-5.9,1.7-7.4,4.2v-0.4c0-2.1-1.6-3.8-3.6-3.8c-1.8,0-3.2,1.2-3.5,3l-0.9-1.2
		c-0.5-0.6-1.4-1.7-3.1-1.7c-1.5,0-2.7,0.9-3.3,2.3c-0.6-1.3-1.8-2.3-3.3-2.3c-1.7,0-3.1,1.2-3.5,2.9c-0.1-0.2-0.3-0.5-0.4-0.7
		c-0.5-0.7-2.1-2.2-4.9-2.2c0,0,0,0-0.1,0c-3.6,0-6.3,2.5-6.3,5.9c0,1.4,0.5,2.6,1.3,3.7c-0.3,0.2-0.6,0.5-0.8,0.8l-3.1-8
		c-0.6-1.5-1.9-2.4-3.4-2.4c-1.5,0-2.8,0.9-3.4,2.4l-0.2,0.6c-2.7-2.6-6.4-4.3-10.7-4.3c-9.7,0-21.5,8.1-33,8.1s-22.1-8.6-22.1-22
		c0-21.3,22.8-23.5,23.4-22.2c0.6,1.4-4.4,4.4-2.6,8c2.6-2.7,7.1-4.2,7.1-2.7s-4.9,5.4,0.8,12c2.2,2.5,4.8,2.8,6.2,2.8
		c0.6,0,1,0.5,0.8,1c-0.4,1.5-1.3,4-3.6,5.9c-3,2.4-7.4,3.4-11.1,1.4c-3.6-2.1-7.4,0.9-7.4,4c0,2.9,1.6,5,4.8,5.5
		c12.6,1.7,29.7-6.9,29.7-26c0-11.7-8.7-26-26-26C17.4,0,0,15.9,0,37.2s17.1,38.1,37.6,38.1c17.2,0,22.6-6.9,28.2-6.9
		c3.9,0,7.3,3.1,7.3,7.2C73.2,78,75,80,78,80c4.8,0,7.7-3.6,8-12.6c0.7,1,1.7,1.6,2.9,1.6c1.4,0,2.6-0.8,3.2-2c0,0,0,0,0,0l0,0
		c1.2,1.2,3.3,2,5.2,2c2.4,0,4.3-1,5.5-2.7c0.5,1.6,1.8,2.7,3.4,2.7c1.5,0,2.8-0.9,3.3-2.3c0.5,1.4,1.8,2.3,3.3,2.3
		c1.8,0,3.2-1.2,3.5-3l0.9,1.2c0.5,0.6,1.4,1.7,3.1,1.7c2,0,3.6-1.7,3.6-3.8v-0.4c1.5,2.5,4.2,4.2,7.4,4.2c4.8,0,8.6-3.8,8.6-8.7
		C140,55.4,136.2,51.6,131.4,51.6z M131.4,61.7c-0.9,0-1.3-0.5-1.3-1.4c0-0.6,0.2-1.4,1.3-1.4c0.8,0,1.3,0.5,1.3,1.4
		C132.7,60.8,132.5,61.7,131.4,61.7z"/>
	<g id="casino">
		<g>
			<path class="st1" d="M65.3,60.3c0-3.7,2.9-6.6,6.6-6.6c1.9,0,3.6,0.8,4.7,2.1c0.3,0.3,0.5,0.7,0.5,1.2c0,0.8-0.6,1.5-1.5,1.5
				c-0.4,0-0.8-0.2-1.2-0.6c-0.7-0.8-1.5-1.1-2.5-1.1c-1.9,0-3.3,1.5-3.3,3.6s1.3,3.5,3.3,3.5c1,0,1.7-0.4,2.5-1.1
				c0.4-0.4,0.8-0.6,1.2-0.6c0.8,0,1.5,0.7,1.5,1.5c0,0.4-0.1,0.7-0.5,1.2c-1.1,1.3-2.8,2.1-4.7,2.1C68.1,66.9,65.3,64,65.3,60.3z"
				/>
			<path class="st1" d="M90.4,65.3c0,0.9-0.7,1.6-1.6,1.6c-0.7,0-1.2-0.4-1.5-1.2L87.1,65h-4.3l-0.3,0.7c-0.3,0.8-0.8,1.2-1.5,1.2
				c-0.9,0-1.6-0.7-1.6-1.6c0-0.2,0.1-0.5,0.2-0.8l3.8-9.7c0.3-0.7,0.8-1.1,1.5-1.1c0.7,0,1.2,0.4,1.5,1.1l3.8,9.7
				C90.4,64.8,90.4,65.1,90.4,65.3z M83.7,62.4h2.5L85,58.7L83.7,62.4z"/>
			<path class="st1" d="M93.5,65.5c-0.4-0.4-0.6-0.8-0.6-1.3c0-0.9,0.7-1.5,1.4-1.5c0.2,0,0.5,0.1,0.7,0.2c0.3,0.2,1,1.1,2.3,1.1
				c0.8,0,1.2-0.3,1.2-0.9c0-0.6-0.4-0.8-1.2-1.2l-1.2-0.6c-1.9-0.9-3.1-2-3.1-3.8c0-2.3,1.8-3.7,4.2-3.7c2.1,0,3.2,1.1,3.5,1.5
				c0.3,0.3,0.4,0.7,0.4,1c0,0.8-0.7,1.5-1.4,1.5c-0.3,0-0.5-0.1-0.8-0.3c-0.4-0.3-0.8-0.7-1.6-0.7c-0.6,0-1.1,0.2-1.1,0.8
				c0,0.5,0.3,0.7,1,1l1.4,0.6c2,0.9,3.1,2,3.1,3.8c0,2.5-1.9,4-4.4,4C95.9,66.9,94.3,66.3,93.5,65.5z"/>
			<path class="st1" d="M104.6,65.2v-9.8c0-1,0.7-1.7,1.6-1.7s1.6,0.7,1.6,1.7v9.8c0,1-0.7,1.7-1.6,1.7S104.6,66.2,104.6,65.2z"/>
			<path class="st1" d="M122,55.4v9.8c0,0.9-0.7,1.7-1.5,1.7c-0.9,0-1.2-0.5-1.6-1.1l-4.4-5.7v5.1c0,1-0.7,1.7-1.6,1.7
				s-1.6-0.7-1.6-1.7v-9.8c0-0.9,0.7-1.7,1.5-1.7c0.9,0,1.2,0.5,1.6,1.1l4.4,5.7v-5.1c0-1,0.7-1.7,1.6-1.7
				C121.3,53.7,122,54.4,122,55.4z"/>
			<path class="st1" d="M138,60.3c0,3.7-2.9,6.6-6.6,6.6c-3.7,0-6.5-2.9-6.5-6.6c0-3.7,2.9-6.6,6.5-6.6
				C135.1,53.7,138,56.6,138,60.3z M128.1,60.3c0,2.1,1.3,3.5,3.3,3.5c1.9,0,3.3-1.5,3.3-3.5c0-2.1-1.4-3.5-3.3-3.5
				C129.5,56.8,128.1,58.2,128.1,60.3z"/>
		</g>
	</g>
</g>
</svg>
