<?xml version="1.0" encoding="utf-8"?>
<!-- Generator: Adobe Illustrator 21.0.0, SVG Export Plug-In . SVG Version: 6.00 Build 0)  -->
<svg version="1.1" id="Logo" xmlns="http://www.w3.org/2000/svg" xmlns:xlink="http://www.w3.org/1999/xlink" x="0px" y="0px"
	 width="44px" height="80px" viewBox="0 0 44 80" style="enable-background:new 0 0 44 80;" xml:space="preserve">
<style type="text/css">
	.st0{fill:#F63524;}
	.st1{fill:#AA1F1F;}
	.st2{fill:#FFFFFF;}
	.st3{fill:#D0CFE5;}
</style>
<g id="hat">
	<path class="st0" d="M19.2,8.9c-1.3,0.2-2.5,0.6-3.7,1.2c-2.4,1.2-4.6,2.5-6.5,4.5c-1.7,1.8-2.7,4.1-3.6,6.4
		c-0.5,1.2-0.9,2.4-1.4,3.6c-0.5,1.5-1.1,2.9-1.4,4.5c-0.3,1.5-0.4,3.1-0.3,4.6c0,0.1,16.2,8.8,16.5,7.4C19,39.6,31.5,10.4,29.9,9.7
		C28.6,9.1,20.2,8.7,19.2,8.9z"/>
	<path class="st1" d="M24,7.9c-2.5,0-5.6,1.1-5.9,1.2c1.3,0.5,2.6,1.3,3.6,2.2c2.2,2.1,3.2,5.3,2.7,8.3c-0.1,0.7-5.4,11.8-6.6,12.7
		c-1,0.8-2.2,1.2-3.4,1.4c-2.5,0.3-5-0.6-6.8-2.2c-0.7,1,16.9,16.2,17,15.1c0.1-1.5,6.9-36.2,5.4-36.9C28.6,9.1,27,7.9,24,7.9z"/>
	<path class="st2" d="M31.6,8.9c-1.9,0.3-3.5,1-4.8,2.3c-3,2.9-4.4,7-6,10.8c-0.9,2.3-2,4.6-2.8,6.9c-0.7,2.2-1,4.5-1.3,6.8
		c-0.3,2.3,7.9,17.8,12,16.6c0.7-0.2,0.7-13.2,4.3-23.8c3-8.8,9.7-14.1,9.8-14.4c0.5-1.3-4.9-1.8-7.8-2.8
		C32.4,10.4,32.2,8.8,31.6,8.9z"/>
	<path class="st3" d="M31.6,8.9c-1.1,0.2-2.1,0.5-2.9,1c0.4,0,3.7,0.4,3.9,0.7c0.3,0.2,0,0.5-0.1,0.8c0,0.1,1.5,0.3,2,0.3
		c0.7,0,1.4,0.2,1.8,0.8c0,0-0.8,0.3-1,0.6c-0.3,0.2-0.2,0.6,0.2,0.7c0.2,0.1,3.3,0.1,4,0.4c2,0.9-0.6,4.3-1.7,4.3
		c-6.9,8.3-8.2,20-8.5,23c0.5,1.9-0.3,7.2-0.8,7.6c-0.5,0.4-1.2,0.4-1.7-0.1c-0.6-0.6-1.5-10.6-4.3-8.5c0,0-1.1-1.8-1.8-1.9
		c-0.5,2.6-3.7-2.3-3.8-2.4c-0.1,2.1-0.2,4.1-0.2,6.2c0.1,2.1,5.6,11.1,6.5,11.2c0.7,0.1,3.8,1.8,5.8,0.2c2-1.6,1.4-5,1.4-5.4
		c0-8.6,4.6-23.3,6.5-26.6c1.9-3.3,6.9-6.4,6.4-8.6c-0.5-2.2-5.6-1.5-6-1.6c0-0.5,0.4-1.2-0.3-1.4c-0.5-0.1-1.9,0.4-2.2,0.4
		c-0.5,0.2-0.8-0.6-0.3-0.8c0.3-0.1,1.9,0,1.3-0.6C34.8,8.4,32.8,8.7,31.6,8.9z"/>
	<path class="st0" d="M2.3,33.2c-0.2,2.3,0.2,3.5,0.6,5.1c0.5,1.8,1.1,3.6,1.6,5.4c1,3.4,2.8,6.5,5.4,9c1.2,1.1,4.6,4,4.7,4.1
		c1,1.5,1,3.6-0.1,4.6s-4.3,2.2-6.3,2.1c-0.2,0-0.7,1.8,0.2,2.2c1.5,0.7,2.2,1,3.6,1s3.6-0.6,3.9-0.7c0.3-0.1,7.1-7,7.8-13
		c0.2-2-3.4-11.3-5-12.8c-1-0.9-9.2-7.5-10.5-8.9C7.6,31.4,2.4,32.1,2.3,33.2z"/>
	<path class="st1" d="M18.1,39.8c-0.7,0-0.8,0.7-0.6,1.2c0.3,0.8,5.4,8.1,4.8,12.7S15.9,65.7,16,66c0.3-0.1,9-4,9-12.1
		C24.9,44.3,18.3,40,18.1,39.8z"/>
	<path class="st1" d="M10.3,63.3c-0.7,0-1.5,0-2.2-0.1c-0.2,0-0.4,0-0.5,0c-0.5,0-1-0.1-1.5-0.2c-0.3-0.1-0.6-0.1-0.9,0.1
		c-0.1,0-0.1,0.1-0.1,0.2c0,1.1,1.5,1.9,2.3,2.2c0.7,0.3,1.4,0.6,2.1,0.9C10.2,65.6,10.5,64.3,10.3,63.3z"/>
	<path class="st2" d="M5.3,59c-0.6-0.1-1.3,0-1.6,0.6c-0.7-0.1-1.4,0.1-1.7,0.8c-0.1,0.3-0.2,0.6-0.1,0.8c-0.4,0.2-0.7,0.5-0.9,0.9
		c-0.3,0.7,0,1.2,0.5,1.4c-0.3,0.3-0.5,0.6-0.6,1c-0.1,0.4,0,1,0.5,1.1c0.4,0.1,0.7,0,1.1,0.2C2.5,65.9,2.6,66,2.7,66
		c0,0.5,0.1,0.9,0.5,1.3C4.4,66.9,5.5,67,5.5,67L7.3,66l1.1-2.7l-1.2-2.8l-1.4-0.8C5.8,59.8,5.5,59,5.3,59z"/>
	<path class="st3" d="M5.3,59c-0.3,0-0.6,0-0.9,0c0.1,0.1,0.2,0.1,0.3,0.2c0.2,0.2,0.4,0.4,0.5,0.6c0.1,0.2,0,0.4-0.1,0.6
		c0.6-0.2,1.4-0.3,1.7,0.4c0.2,0.5-0.1,0.9-0.5,1.1C7,62.1,7.6,62.4,7.7,63c0.1,0.7-0.3,1-0.8,1c0.3,0.3,0.5,0.6,0.3,1.1
		c-0.1,0.2-0.3,0.5-0.6,0.5c-0.2,0-0.5-0.1-0.7-0.2c0.1,0.4,0,1-0.4,1.2c-0.6,0.3-1-0.3-1.4-0.7c0,0.4-0.2,0.8-0.5,1
		c-0.2,0.1-0.3,0.1-0.5,0.1c0,0,0.1,0.1,0.1,0.1c0.2,0.2,0.6,0.3,0.9,0.1c0.1-0.1,0.3-0.2,0.4-0.3c0.3,0.3,0.7,0.6,1.1,0.5
		c0.6-0.1,0.8-0.6,0.9-1.1c0.2,0.1,0.4,0.2,0.6,0.2c0.7,0.2,1.4-0.4,1.1-1.1c0-0.1-0.1-0.2-0.1-0.3c0.3,0,0.5-0.1,0.8-0.3
		c0.4-0.3,0.5-0.9,0.2-1.2c-0.1-0.1-0.2-0.2-0.2-0.3c0.5-0.3,0.8-0.8,0.7-1.4c-0.1-0.5-0.5-0.8-1-0.7c-0.2,0-0.4,0-0.5,0.1
		C8,60.8,7.6,60,6.7,59.8C6.4,59.4,5.8,59.1,5.3,59z"/>
</g>
</svg>
