<?xml version="1.0" encoding="utf-8"?>
<!-- Generator: Adobe Illustrator 21.0.0, SVG Export Plug-In . SVG Version: 6.00 Build 0)  -->
<svg version="1.1" id="Logo" xmlns="http://www.w3.org/2000/svg" xmlns:xlink="http://www.w3.org/1999/xlink" x="0px" y="0px"
	 viewBox="0 0 140 80" enable-background="new 0 0 140 80" xml:space="preserve">
<g id="Logo_x5F_EgoCasino">
	<path id="o" fill="#B5C0CB" d="M140,31.6c0,9.9-8.1,17.6-18.4,17.6s-18.2-7.7-18.2-17.6s8-17.6,18.2-17.6
		C131.9,14,140,21.8,140,31.6z M112.4,31.6c0,5.7,3.7,9.5,9.3,9.5c5.4,0,9.3-3.9,9.3-9.5c0-5.5-3.9-9.5-9.3-9.5
		C116.2,22.2,112.4,26,112.4,31.6z"/>
	<path id="g" fill="#B5C0CB" d="M66,31.6c0-10,8-17.6,18.5-17.6c4.2,0,8.4,1.4,11.1,3.7c2.2,2,3.1,3.5,3.1,5.2c0,2.2-1.9,4-4,4
		c-1.4,0-2.4-0.5-3.7-1.9c-1.9-1.9-4-2.8-6.7-2.8c-5.6,0-9.3,3.7-9.3,9.5c0,5.9,3.9,9.8,9.8,9.8c3.1,0,5.8-1.1,7.5-3v-1.6h-4.5
		c-2.3,0-4-1.7-4-3.8s1.7-3.8,4-3.8h8.8c2.6,0,4.5,1.9,4.5,4.5v3.7c0,1.9-0.4,3.1-1.3,4.5c-3,4.4-9.3,7.4-15.4,7.4
		C74,49.3,66,41.7,66,31.6z"/>
	<path id="e" fill="#B5C0CB" d="M78,80c-3,0-4.8-2-4.8-4.4c0-4-3.4-7.2-7.3-7.2c-5.7,0-11,6.9-28.2,6.9C17.1,75.4,0,58.5,0,37.2
		S17.4,0,37.6,0c17.3,0,26,14.3,26,26c0,19.1-17.1,27.7-29.7,26c-3.2-0.4-4.8-2.5-4.8-5.5c0-3.1,3.8-6,7.4-4
		c3.6,2.1,8.1,1.1,11.1-1.4c2.3-1.9,3.2-4.4,3.6-5.9c0.1-0.5-0.3-1.1-0.8-1c-1.4,0.1-4-0.2-6.2-2.8c-5.7-6.6-0.8-10.5-0.8-12
		c0-1.5-4.4,0-7.1,2.7c-1.8-3.5,3.2-6.6,2.6-8c-0.6-1.4-23.4,0.9-23.4,22.2c0,13.4,10.7,22,22.1,22s23.3-8.1,33-8.1
		C79.6,50.3,86,57.4,86,66C86,76,83,80,78,80z"/>
	<path id="contur" fill="#B5C0CB" d="M131.6,52c-3.1,0-5.7,1.6-7.2,4.1v-0.4c0-2.1-1.6-3.7-3.5-3.7c-1.7,0-3.1,1.2-3.5,2.9l-0.9-1.2
		c-0.5-0.6-1.3-1.7-3.1-1.7c-1.5,0-2.7,0.9-3.2,2.2c-0.5-1.3-1.8-2.2-3.2-2.2c-1.7,0-3.1,1.2-3.4,2.8c-0.1-0.2-0.3-0.5-0.4-0.7
		c-0.5-0.7-2.1-2.2-4.8-2.2c0,0,0,0-0.1,0c-3.6,0-6.1,2.4-6.1,5.7c0,1.4,0.4,2.6,1.3,3.6c-0.3,0.2-0.6,0.5-0.8,0.8l-3.1-7.8
		C89,52.9,87.7,52,86.2,52c-1.5,0-2.7,0.9-3.3,2.4l-3,7.6c-0.3-0.6-0.9-1.1-1.5-1.4c1.2-0.6,2-1.8,2-3.2c0-0.9-0.3-1.8-0.9-2.5
		C78.1,53,75.8,52,73.4,52c-4.7,0-8.4,3.7-8.4,8.5s3.7,8.5,8.4,8.5c2.2,0,4.2-0.9,5.7-2.4c0.5,1.4,1.8,2.4,3.3,2.4
		c1.3,0,2.4-0.7,3-1.8H87c0.7,1.2,1.7,1.8,3,1.8c1.4,0,2.5-0.8,3.1-2c0,0,0,0,0,0l0,0c1.2,1.2,3.2,1.9,5.1,1.9c2.3,0,4.2-1,5.3-2.6
		c0.4,1.5,1.8,2.6,3.4,2.6c1.5,0,2.7-0.9,3.2-2.2c0.5,1.3,1.8,2.2,3.2,2.2c1.7,0,3.1-1.2,3.5-2.9l0.9,1.2c0.5,0.6,1.3,1.7,3.1,1.7
		c2,0,3.5-1.6,3.5-3.7v-0.4c1.4,2.5,4.1,4.1,7.2,4.1c4.7,0,8.4-3.7,8.4-8.5S136.3,52,131.6,52z M131.6,61.9c-0.8,0-1.2-0.4-1.2-1.4
		c0-0.6,0.2-1.4,1.2-1.4c0.8,0,1.2,0.5,1.2,1.4C132.9,61,132.7,61.9,131.6,61.9z"/>
	<g id="casino">
		<g>
			<path fill="#FFFFFF" d="M67,60.5c0-3.6,2.8-6.4,6.4-6.4c1.8,0,3.5,0.8,4.6,2.1c0.3,0.3,0.4,0.7,0.4,1.1c0,0.8-0.6,1.5-1.4,1.5
				c-0.4,0-0.8-0.2-1.2-0.6c-0.7-0.7-1.5-1.1-2.4-1.1c-1.9,0-3.2,1.4-3.2,3.5s1.3,3.4,3.2,3.4c0.9,0,1.7-0.4,2.4-1.1
				c0.4-0.4,0.8-0.6,1.2-0.6c0.8,0,1.4,0.7,1.4,1.5c0,0.4-0.1,0.7-0.4,1.1c-1,1.3-2.7,2.1-4.6,2.1C69.8,66.9,67,64.1,67,60.5z"/>
			<path fill="#FFFFFF" d="M91.6,65.4c0,0.9-0.6,1.5-1.5,1.5c-0.7,0-1.2-0.4-1.5-1.2l-0.3-0.7h-4.2l-0.3,0.7
				c-0.3,0.8-0.8,1.2-1.5,1.2c-0.9,0-1.5-0.7-1.5-1.5c0-0.2,0.1-0.5,0.2-0.8l3.7-9.4c0.3-0.7,0.8-1.1,1.5-1.1c0.7,0,1.2,0.4,1.5,1.1
				l3.7,9.4C91.5,64.9,91.6,65.2,91.6,65.4z M85,62.5h2.4l-1.2-3.6L85,62.5z"/>
			<path fill="#FFFFFF" d="M94.5,65.5c-0.4-0.4-0.6-0.8-0.6-1.3c0-0.9,0.7-1.4,1.4-1.4c0.2,0,0.5,0.1,0.7,0.2c0.3,0.2,1,1.1,2.3,1.1
				c0.8,0,1.2-0.3,1.2-0.9c0-0.6-0.4-0.8-1.2-1.1l-1.2-0.6c-1.9-0.9-3-2-3-3.7c0-2.2,1.8-3.7,4.1-3.7c2.1,0,3.1,1.1,3.4,1.4
				c0.3,0.3,0.4,0.7,0.4,1c0,0.8-0.7,1.4-1.4,1.4c-0.3,0-0.5-0.1-0.8-0.3c-0.4-0.3-0.7-0.7-1.5-0.7c-0.6,0-1.1,0.2-1.1,0.8
				c0,0.5,0.3,0.7,1,1l1.4,0.6c2,0.9,3,1.9,3,3.7c0,2.4-1.9,3.9-4.3,3.9C96.9,66.9,95.4,66.4,94.5,65.5z"/>
			<path fill="#FFFFFF" d="M105.4,65.3v-9.6c0-0.9,0.6-1.6,1.5-1.6c0.9,0,1.5,0.7,1.5,1.6v9.6c0,0.9-0.6,1.6-1.5,1.6
				C106.1,66.9,105.4,66.2,105.4,65.3z"/>
			<path fill="#FFFFFF" d="M122.4,55.7v9.6c0,0.9-0.6,1.6-1.5,1.6c-0.8,0-1.2-0.5-1.6-1l-4.3-5.6v5c0,0.9-0.7,1.6-1.5,1.6
				s-1.5-0.7-1.5-1.6v-9.6c0-0.9,0.6-1.6,1.5-1.6c0.8,0,1.2,0.5,1.6,1l4.3,5.6v-5c0-0.9,0.7-1.6,1.5-1.6
				C121.7,54.1,122.4,54.8,122.4,55.7z"/>
			<path fill="#FFFFFF" d="M138,60.5c0,3.6-2.8,6.4-6.4,6.4c-3.6,0-6.4-2.8-6.4-6.4c0-3.6,2.8-6.4,6.4-6.4
				C135.2,54.1,138,56.9,138,60.5z M128.4,60.5c0,2.1,1.3,3.5,3.2,3.5c1.9,0,3.2-1.4,3.2-3.5c0-2-1.3-3.5-3.2-3.5
				C129.7,57,128.4,58.5,128.4,60.5z"/>
		</g>
	</g>
</g>
</svg>
