<?xml version="1.0" encoding="utf-8"?>
<!-- Generator: Adobe Illustrator 21.0.0, SVG Export Plug-In . SVG Version: 6.00 Build 0)  -->
<svg version="1.1" id="Слой_1" xmlns="http://www.w3.org/2000/svg" xmlns:xlink="http://www.w3.org/1999/xlink" x="0px" y="0px"
	 width="80px" height="54px" viewBox="0 0 80 54" style="enable-background:new 0 0 80 54;" xml:space="preserve">
<style type="text/css">
	.st0{fill:#12100C;}
</style>
<path id="ornament_x5F_topmenu" class="st0" d="M2.8,53.8c-1,0-1.9-0.1-2.8-0.2v-11c0.9,0.1,1.8,0.2,2.8,0.2
	c7.7,0,14.5-6.3,14.5-15.9C17.3,17.8,10.5,10,0,9v-9c16.3,1,26.6,13.9,26.6,26.7C26.6,40,15.5,53.8,2.8,53.8z M10.6,53.8
	c2.3,0,16,1.6,22.8-4C52.6,34,58.3,8.9,78,8.9c0.7,0,1.3,0,2,0.1v-9C79.3,0,78.7,0,78,0C44.5,0,36.8,47.5,10.6,53.8z M13.4,28.1
	C13.4,22.1,9,13.6,0,13v9c3.4,0.5,4.9,2.9,3.3,4.4c-1.1-0.8-2.2-1.1-3.3-1.1v13.5c0.6,0.1,1.2,0.1,1.8,0.1
	C7,38.8,13.4,34.4,13.4,28.1z M74,31.9c0,4.3,2.1,6.4,6,6.9V25.2C76.8,25.3,74,28.2,74,31.9z M80,42.6c-5.9-1-9.5-5.1-9.5-11.3
	c0-6.7,5.9-9.4,8.5-9.4c0.3,0,0.7,0,1,0.1v-9c-0.3,0-0.7,0-1,0c-9.7,0-18.8,8.8-18.8,19.9c0,10.2,8.5,19.4,19.8,20.7V42.6z"/>
</svg>
