<?xml version="1.0" encoding="utf-8"?>
<!-- Generator: Adobe Illustrator 21.0.0, SVG Export Plug-In . SVG Version: 6.00 Build 0)  -->
<svg version="1.1" id="logo" xmlns="http://www.w3.org/2000/svg" xmlns:xlink="http://www.w3.org/1999/xlink" x="0px" y="0px"
	 width="200px" height="70px" viewBox="0 0 200 70" style="enable-background:new 0 0 200 70;" xml:space="preserve">
<style type="text/css">
	.st0{fill:url(#_x35__1_);}
	.st1{fill:url(#_x34__2_);}
	.st2{fill:url(#_x33__1_);}
	.st3{fill:url(#_x32__1_);}
	.st4{fill:url(#_x31__1_);}
	.st5{fill:#FFFFFF;}
	.st6{fill:#333333;}
	.st7{fill:#8805A8;}
</style>
<g id="brain">
	<linearGradient id="_x35__1_" gradientUnits="userSpaceOnUse" x1="0" y1="35" x2="84.7484" y2="35">
		<stop  offset="0" style="stop-color:#F208B0"/>
		<stop  offset="1.274335e-02" style="stop-color:#EF08B0"/>
		<stop  offset="0.2141" style="stop-color:#CA07AD"/>
		<stop  offset="0.4155" style="stop-color:#AD06AB"/>
		<stop  offset="0.6147" style="stop-color:#9905A9"/>
		<stop  offset="0.8108" style="stop-color:#8C05A8"/>
		<stop  offset="1" style="stop-color:#8805A8"/>
	</linearGradient>
	<path id="_x35_" class="st0" d="M84.7,36.8c0-5.9-2.5-11.2-6.5-14.9c-1.4-9.6-9.7-16.9-19.7-16.9c-1.1,0-2.2,0.1-3.2,0.3
		C52.3,2,47.9,0,43.1,0c-4,0-7.7,1.4-10.6,3.7c-2-1-4.3-1.5-6.8-1.5c-6.6,0-12.3,4.2-14.5,10C4.7,14.3,0,20.4,0,27.7
		C0,36.7,7.3,44,16.3,44c2.5,0,4.8-0.6,7-1.6c-0.7,1.4-1.2,3-1.2,4.6c0,5.4,4.4,9.8,9.8,9.8c1.6,0,3.1-0.4,4.4-1.1
		c1.7,2.1,4.1,3.7,6.8,4.6c3.4,5.8,9.7,9.6,16.9,9.6c10.8,0,19.6-8.8,19.6-19.6c0,0,0-0.1,0-0.1C82.8,46.6,84.7,41.9,84.7,36.8z"/>
	<linearGradient id="_x34__2_" gradientUnits="userSpaceOnUse" x1="11.5202" y1="31.1392" x2="84.7484" y2="31.1392">
		<stop  offset="0" style="stop-color:#F208B0"/>
		<stop  offset="1.274335e-02" style="stop-color:#EF08B0"/>
		<stop  offset="0.2141" style="stop-color:#CA07AD"/>
		<stop  offset="0.4155" style="stop-color:#AD06AB"/>
		<stop  offset="0.6147" style="stop-color:#9905A9"/>
		<stop  offset="0.8108" style="stop-color:#8C05A8"/>
		<stop  offset="1" style="stop-color:#8805A8"/>
	</linearGradient>
	<path id="_x34_" class="st1" d="M78.3,21.8c-1.4-9.6-9.7-16.9-19.7-16.9c-1.1,0-2.2,0.1-3.2,0.3C52.3,2,47.9,0,43.1,0
		c-4,0-7.7,1.4-10.6,3.7c-2-1-4.3-1.5-6.8-1.5c-6.4,0-11.9,3.9-14.2,9.4c14.7,21.9,9.1,27.9,37.3,47.7c7.2,5.1,21.6,2.6,28.5,0.4
		c1.5-2.8,2.3-5.9,2.3-9.3c0,0,0-0.1,0-0.1c3.2-3.6,5.1-8.3,5.1-13.5C84.7,30.9,82.3,25.6,78.3,21.8z"/>
	<linearGradient id="_x33__1_" gradientUnits="userSpaceOnUse" x1="25.4251" y1="28.0194" x2="84.7484" y2="28.0194">
		<stop  offset="0" style="stop-color:#F208B0"/>
		<stop  offset="1.274335e-02" style="stop-color:#EF08B0"/>
		<stop  offset="0.2141" style="stop-color:#CA07AD"/>
		<stop  offset="0.4155" style="stop-color:#AD06AB"/>
		<stop  offset="0.6147" style="stop-color:#9905A9"/>
		<stop  offset="0.8108" style="stop-color:#8C05A8"/>
		<stop  offset="1" style="stop-color:#8805A8"/>
	</linearGradient>
	<path id="_x33_" class="st2" d="M78.3,21.8c-1.4-9.6-9.7-16.9-19.7-16.9c-1.1,0-2.2,0.1-3.2,0.3C52.3,2,47.9,0,43.1,0
		c-4,0-7.7,1.4-10.6,3.7c-2-1-4.3-1.5-6.8-1.5c-0.1,0-0.2,0-0.3,0c0,0.1,0,0.2,0.1,0.2c8.6,27.1,11.4,48.2,33.7,52.9
		c8.8,1.9,15.2-0.2,20.4-3c0.1-0.6,0.1-1.3,0.1-2c0,0,0-0.1,0-0.1c3.2-3.6,5.1-8.3,5.1-13.5C84.7,30.9,82.3,25.6,78.3,21.8z"/>
	<linearGradient id="_x32__1_" gradientUnits="userSpaceOnUse" x1="40.9154" y1="25.131" x2="84.7484" y2="25.131">
		<stop  offset="0" style="stop-color:#F208B0"/>
		<stop  offset="1.274335e-02" style="stop-color:#EF08B0"/>
		<stop  offset="0.2141" style="stop-color:#CA07AD"/>
		<stop  offset="0.4155" style="stop-color:#AD06AB"/>
		<stop  offset="0.6147" style="stop-color:#9905A9"/>
		<stop  offset="0.8108" style="stop-color:#8C05A8"/>
		<stop  offset="1" style="stop-color:#8805A8"/>
	</linearGradient>
	<path id="_x32_" class="st3" d="M78.3,21.8c-1.4-9.6-9.7-16.9-19.7-16.9c-1.1,0-2.2,0.1-3.2,0.3C52.3,2,47.9,0,43.1,0
		c-0.7,0-1.5,0-2.2,0.1c3.4,27,11.9,50.1,32.6,50.1c2.3,0,4.5-0.2,6.5-0.4c2.9-3.5,4.7-8.1,4.7-13.1C84.7,30.9,82.3,25.6,78.3,21.8z
		"/>
	<linearGradient id="_x31__1_" gradientUnits="userSpaceOnUse" x1="70.2995" y1="4.9162" x2="70.2995" y2="43.7684">
		<stop  offset="0" style="stop-color:#F208B0"/>
		<stop  offset="1.274335e-02" style="stop-color:#EF08B0"/>
		<stop  offset="0.2141" style="stop-color:#CA07AD"/>
		<stop  offset="0.4155" style="stop-color:#AD06AB"/>
		<stop  offset="0.6147" style="stop-color:#9905A9"/>
		<stop  offset="0.8108" style="stop-color:#8C05A8"/>
		<stop  offset="1" style="stop-color:#8805A8"/>
	</linearGradient>
	<path id="_x31_" class="st4" d="M78.3,21.8c-1.4-9.6-9.7-16.9-19.7-16.9c-0.9,0-1.8,0.1-2.7,0.2c1.5,21.8,11.9,38.7,24.5,38.7
		c1.1,0,2.2-0.1,3.3-0.4c0.7-2.1,1.1-4.3,1.1-6.6C84.7,30.9,82.3,25.6,78.3,21.8z"/>
	<path id="_x30_" class="st5" d="M46.1,46.8c1.7-2.2,3.3-4.2,7.8-4.2c3.4,0,5.6,0.7,7.6,1.4c1.8,0.6,3.6,1.2,5.8,1.2
		c6.3,0,10.5-4.7,10.5-9.1c0-3.6-2.1-6.2-3.3-7.3c0.2-2.1,0.2-6.7-2.6-10.3c-2.2-2.7-5.5-4.1-9.9-4.3c-1.9-0.1-3.6,0.1-5.1,0.6
		c-1.6-2.6-6-8.8-13-8.9c-5.3,0-8.1,3.1-9.3,5c-2.6-0.8-7.8-1.9-12,1c-2.7,1.8-3.8,4.4-4.2,6.1c-0.3-0.1-0.7-0.2-1-0.3
		c-2.1-0.5-5.3-0.5-8.6,2.7C6,23.3,5.3,26.9,7,30.3c1.8,3.7,6.1,6.2,9.7,5.6c1-0.1,1.6-1,1.5-2c-0.1-1-1-1.6-2-1.5
		c-2.1,0.3-4.9-1.4-6.1-3.7C9.4,27.3,9,25.2,11.3,23c1.7-1.7,3.4-2.3,5.2-1.8c3.4,0.8,8.4,6.1,11.3,14.6c-1.9,0.8-4.9,2.7-6.7,6.4
		c-0.4,0.9,0,1.9,0.8,2.3c0.2,0.1,0.5,0.2,0.8,0.2c0.7,0,1.3-0.4,1.6-1c1.9-4,5.8-5,6-5c0.7-0.2,1.2-0.8,1.3-1.5
		c0-0.2,0.6-4.2,4.2-5.3c3.8-1.2,6.8,0.6,6.9,0.7c0.7,0.4,1.5,0.4,2.1-0.2c0,0,2.8-2.4,7-2.4c4,0,7,3.4,7,3.4
		c0.6,0.7,1.7,0.8,2.5,0.2c0.7-0.6,0.8-1.7,0.2-2.5c-0.2-0.2-3.9-4.5-9.4-4.6c0.1-1.6,0.5-4.2,2.2-6.1c1.6-1.8,4.2-2.6,7.6-2.5
		c3.3,0.1,5.7,1.1,7.2,2.9c2.7,3.3,1.8,8.4,1.8,8.5c-0.1,0.7,0.2,1.4,0.7,1.8c0,0,2.7,2,2.7,5.2c0,3.2-3.7,5.6-6.9,5.6
		c-1.7,0-3-0.4-4.7-1c-2.2-0.7-4.8-1.6-8.8-1.6c-6.3,0-8.8,3.2-10.6,5.6c-1.3,1.7-2,2.5-3.3,2.5c-2.7,0-3.2-2.1-3.3-2.5
		c-0.2-0.9-1.1-1.6-2-1.4c-1,0.2-1.6,1.1-1.4,2c0.3,1.9,2.1,5.4,6.8,5.4C43.1,50.7,44.7,48.7,46.1,46.8z M51.7,17.9
		c-2.6,2.9-3.1,6.7-3.1,8.8c-2.3,0.5-4.1,1.5-5.1,2.2c-1.6-0.7-4.9-1.7-8.7-0.5c-2.2,0.7-3.7,2-4.7,3.4c-2-4.7-5-9.3-8.5-12
		c0.1-0.9,0.6-3.4,3-5.1c4.1-2.8,10.1-0.1,10.1-0.1c0.4,0.2,1,0.2,1.4,0c0.5-0.2,0.8-0.6,1-1c0,0,1.7-4.3,6.7-4.3c0,0,0.1,0,0.1,0
		c4.9,0,8.4,4.6,9.8,6.8C52.9,16.7,52.3,17.3,51.7,17.9z M80.9,53.5c-0.4,0.2-8.8,5.4-19,1.8c-6.3,6.1-13.2,7.1-16.9,7.1
		c-1.7,0-2.8-0.2-2.9-0.2c-1-0.2-1.6-1.1-1.4-2.1c0.2-1,1.1-1.6,2.1-1.4c0.4,0.1,9.5,1.7,17.5-6.7c0.5-0.5,1.3-0.7,2-0.4
		c9,3.7,16.8-1.1,16.9-1.1c0.8-0.5,1.9-0.3,2.4,0.6C82,51.9,81.7,53,80.9,53.5z"/>
</g>
<path class="st6" d="M162.7,24.2l-3.4,27.2c-0.1,0.7-0.4,1.2-0.8,1.6s-0.9,0.6-1.5,0.6h-5.9c-0.6,0-1.1-0.2-1.5-0.6
	c-0.4-0.4-0.7-0.9-0.8-1.6l-2.4-20.7h-0.6l-2.4,20.7c-0.1,0.7-0.3,1.2-0.8,1.6s-0.9,0.6-1.5,0.6h-5.9c-0.6,0-1.1-0.2-1.5-0.6
	c-0.4-0.4-0.7-0.9-0.8-1.6l-3.4-27.2h6.6l2,22.8h0.6l2.6-20.4c0.1-0.7,0.3-1.3,0.7-1.7c0.4-0.4,0.9-0.7,1.5-0.7h5.1
	c0.6,0,1.1,0.2,1.5,0.7c0.4,0.4,0.7,1,0.7,1.7l2.6,20.4h0.6l2-22.8H162.7z M174,45h-5.2c0.2,1.2,0.5,2,1,2.4
	c0.5,0.4,1.3,0.7,2.4,0.7c2.1,0,4.4-0.2,6.9-0.5l0.6,4.7c-1.9,1.2-4.7,1.8-8.1,1.8c-3.4,0-5.9-0.9-7.4-2.6c-1.5-1.8-2.2-4.5-2.2-8.4
	c0-4.1,0.7-7.1,2.2-8.8c1.4-1.7,3.9-2.5,7.3-2.5c3.1,0,5.3,0.6,6.6,1.9c1.4,1.2,2.1,3.1,2.1,5.6c0,2-0.4,3.4-1.4,4.3
	C177.8,44.6,176.2,45,174,45z M168.6,41h3.6c0.7,0,1.2-0.1,1.4-0.4c0.2-0.3,0.3-0.8,0.3-1.5c0-0.8-0.2-1.4-0.5-1.7
	c-0.4-0.3-1-0.4-1.9-0.4c-1.1,0-1.9,0.2-2.3,0.7C168.9,38.3,168.7,39.4,168.6,41z M187.9,23.7c0,0,0,9.2,0,10.8
	c1.9-2.2,3.3-2.7,5.4-2.7c2.4,0,4.1,0.8,5,2.5c1,1.7,1.5,4.5,1.5,8.4c0,1.3-0.1,2.5-0.2,3.5c-0.1,1.1-0.4,2.1-0.8,3.1
	c-0.4,1-0.9,1.8-1.6,2.5s-1.5,1.2-2.6,1.6c-1.1,0.4-2.4,0.6-3.8,0.6c-1.5,0-3.2-0.1-5.1-0.4c-1.9-0.3-3.3-0.7-4.3-1.3V23.7H187.9z
	 M187.8,38.8v9.6c1,0.2,2,0.3,2.9,0.3c1-0.1,1.7-0.5,2-1.3c0.4-0.8,0.5-2.3,0.5-4.6c0-2-0.2-3.4-0.5-4c-0.3-0.7-1-1-2.1-1
	C189.9,37.8,188.9,38.1,187.8,38.8z"/>
<circle id="c" class="st7" cx="127.4" cy="19.5" r="16.1"/>
<path id="_x34__1_" class="st5" d="M133.9,23.4l2.6-9.6l-4-1.1l-1.8,3.4l-1.6,6l-3.8-1c-0.2-0.1-0.4-0.2-0.5-0.4
	c-0.1-0.2,0-0.4,0.2-0.7l7.8-12.1l-5-1.3L119,20c-0.5,0.8-0.7,1.7-0.5,2.5c0.2,0.9,0.8,1.4,1.6,1.6l7.8,2.1l-1.3,4.9l4.8,1.3
	l1.3-4.9l0.1,0l2.4,0l1-3.6L133.9,23.4z"/>
<path id="iqbet_1_" class="st6" d="M88.4,25.3v2.2c0,1.5,0.6,2.3,1.9,2.3h2.8c1.2,0,1.9-0.8,1.9-2.3v-2.2c0-1.5-0.6-2.3-1.9-2.3
	h-2.8C89.1,23,88.4,23.8,88.4,25.3L88.4,25.3z M95,32.6h-6.5v21.3H95V32.6z M116.8,53c0.8-0.5,1.5-1.1,2-1.8
	c1.6-2.2,2.4-6.2,2.4-12.1c0-5.9-0.8-10-2.4-12.1c-1.6-2.2-4.5-3.2-8.6-3.2c-2.1,0-3.8,0.2-5.2,0.7c-1.3,0.5-2.5,1.3-3.4,2.5
	c-0.9,1.2-1.5,2.8-1.9,4.7c-0.4,2-0.6,4.4-0.6,7.5c0,3,0.2,5.5,0.6,7.5c0.4,2,1,3.5,1.9,4.7c0.9,1.2,2,2,3.4,2.5
	c1.3,0.5,3.1,0.7,5.2,0.7c0,0,0,0,0.1,0l-0.3,0.7c3.1,2.5,6.8,4.4,11,5.8l1.7-6.8C120.6,53.9,118.6,53.5,116.8,53z M107,46.4
	c-0.5-1.3-0.8-3.7-0.8-7.3c0-3.6,0.3-6.1,0.8-7.3c0.5-1.3,1.6-1.9,3.2-1.9s2.6,0.6,3.2,1.9c0.5,1.3,0.8,3.7,0.8,7.3
	c0,3.6-0.3,6.1-0.8,7.3c-0.5,1.3-1.6,1.9-3.2,1.9S107.6,47.7,107,46.4z"/>
</svg>
