<svg xmlns="http://www.w3.org/2000/svg" xmlns:xlink="http://www.w3.org/1999/xlink" width="200" height="55" viewBox="0 0 200 55"><defs><path id="tygfc" d="M1079.85 888.153c.701.193 1.272.376 1.819.618 2.595 1.15 3.822 3.113 3.992 5.705.09 1.35-.012 2.683-.57 3.945-1.13 2.56-3.27 3.957-6.17 4.45-.672.113-1.352.13-2.03.13-3.792.01-7.583-.001-11.375.014-.408.001-.517-.085-.516-.47.013-9.178.013-18.355 0-27.533 0-.383.104-.474.515-.472 3.754.016 7.509 0 11.263.012 4.222.014 7.496 2.838 7.805 6.71.167 2.105-.324 4.004-2.05 5.512-.733.64-1.608 1.059-2.683 1.38"/><path id="tygfa" d="M932 872.95h33.488v31.957H932z"/><path id="tygfe" d="M932 895.572c.122-2.85.553-5.807 2.08-8.499 2.02-3.56 5.217-5.354 9.266-5.722 3.636-.331 7.196.335 10.746 1 .794.148 1.584.317 2.38.46.769.136.901.058 1.135-.667.312-.964.425-1.966.544-2.964.227-1.912.328-3.834.414-5.756.016-.343.079-.478.474-.474 1.997.023 3.994.02 5.99.002.38-.004.495.085.449.466-.783 6.42-2.198 12.696-5.317 18.429-3.312 6.085-8.3 10.428-15.085 12.523-3.304 1.02-6.536.583-9.451-1.292-2.658-1.708-3.645-4.299-3.625-7.506m12.188-11.278c-3.613-.001-5.366.648-7.032 2.58-2.633 3.05-3.746 6.535-2.624 10.483 1.04 3.66 3.617 5.454 7.456 5.196 3.27-.22 6.099-1.586 8.484-3.748 2.268-2.054 3.597-4.599 3.614-7.703.012-2.02-.844-3.574-2.61-4.624-2.441-1.45-5.107-2.113-7.288-2.184"/><path id="tygff" d="M1116.237 892.125c-.058 2.774-.568 5.424-2.027 7.874-3.288 5.519-11.503 6.687-16.373 2.001-2.13-2.049-3.734-4.377-4.105-7.301-.554-4.378.353-8.396 3.575-11.702 2.626-2.694 7.027-3.542 10.944-1.97 4.222 1.693 6.997 4.66 7.833 9.13.12.646.169 1.307.153 1.968m-17.34.171c-.018 1.423.16 2.99.573 4.523.471 1.75 1.055 3.461 2.318 4.858 1.571 1.737 4.15 1.908 5.954.396 1.004-.842 1.607-1.943 2.036-3.132 1.202-3.335 1.34-6.75.698-10.203-.33-1.769-.888-3.469-2.036-4.921-1.1-1.39-2.529-2.068-4.357-1.726-1.44.27-2.397 1.192-3.123 2.353-1.475 2.36-2.102 4.942-2.062 7.852"/><path id="tygfg" d="M1008.863 900.648c0-5.66.007-11.322-.013-16.983-.002-.492.145-.595.615-.582 2.345.065 4.695-.104 7.037.107 4.588.412 8.598 3.701 9.025 8.616.223 2.566-.042 5.06-1.274 7.38-1.425 2.685-3.753 4.044-6.807 4.213-1.383.077-2.773.05-4.16.03-.443-.006-.561.111-.56.546.017 4.532.002 9.065.023 13.597.003.506-.128.649-.644.624a33.287 33.287 0 0 0-2.72-.003c-.412.014-.536-.09-.533-.51.02-2.812.01-5.626.01-8.439v-8.596m3.874-7.403c0 2.745.01 5.49-.01 8.234-.003.4.112.498.507.482.782-.031 1.567-.009 2.35-.01 2.339 0 3.9-1.049 4.743-3.183.531-1.346.694-2.755.724-4.181.043-2.005-.103-3.99-.857-5.883-.768-1.927-2.103-3.27-4.205-3.797-.885-.222-1.789-.255-2.699-.272-.433-.009-.568.087-.564.534.023 2.692.011 5.384.011 8.076"/><path id="tygfh" d="M983.93 871.69c.496 1.264.968 2.457 1.433 3.652l10.529 27.052c.236.606.237.606-.431.606-1.467 0-2.933-.017-4.399.01-.448.009-.653-.11-.802-.535-.824-2.341-1.694-4.668-2.53-7.006-.117-.328-.264-.451-.646-.449-2.968.018-5.937.019-8.906 0-.407-.003-.544.135-.667.485-.834 2.374-1.705 4.737-2.542 7.11-.107.303-.25.406-.573.392a14.566 14.566 0 0 0-1.574 0c-.444.03-.509-.083-.36-.48 1.312-3.494 2.606-6.996 3.905-10.496l7.377-19.875c.048-.129.102-.256.186-.466m-1.305 10.48l-.122-.008c-.395 1.066-.79 2.132-1.187 3.198-.894 2.406-1.79 4.812-2.68 7.22-.073.195-.323.475.197.473 2.518-.005 5.035-.006 7.553.002.343.001.343-.114.238-.372-.244-.595-.46-1.2-.687-1.8l-3.312-8.713"/><path id="tygfi" d="M1027.586 887.787c0-4.839.012-9.678-.016-14.516-.003-.54.17-.651.716-.628a38.2 38.2 0 0 0 2.916 0c.437-.014.516.115.515.485-.013 5.674-.001 11.347-.022 17.021-.002.485.109.619.658.61 2.113-.035 4.227-.023 6.34-.006.369.002.466-.091.464-.424-.016-2.3.004-4.6-.02-6.9-.004-.425.119-.554.59-.539.99.033 1.983.035 2.972 0 .472-.017.583.11.582.532-.015 5.997-.01 11.994-.012 17.992 0 .493.19 1.159-.083 1.433-.315.316-1.056.081-1.612.095-.635.017-1.273-.02-1.907.013-.421.022-.531-.095-.529-.481.019-3.015-.005-6.031.025-9.047.005-.531-.143-.67-.725-.66-2.076.035-4.152.027-6.228.003-.436-.005-.513.115-.511.483.016 3.067 0 6.134.02 9.2.002.398-.106.517-.549.503a44.688 44.688 0 0 0-2.973 0c-.48.017-.626-.084-.624-.55.021-4.873.013-9.746.013-14.619"/><path id="tygfj" d="M1001.33 884.026v17.236c0 .157-.02.317.008.47.067.38.193.643.734.679 1.428.092 2.854.063 4.28.051.386-.003.525.055.52.44-.014 1.064.006 1.068-1.15 1.064-2.133-.009-4.266.006-6.397-.042-1.225-.028-1.864-.577-2.13-1.678a6.19 6.19 0 0 1-.163-1.454c-.001-11.403.002-22.805-.012-34.208 0-.452.1-.603.62-.582 1.046.042 2.096.036 3.142.001.465-.015.559.125.558.526-.014 5.832-.01 11.665-.01 17.497"/><path id="tygfk" d="M975.35 872.674c-.205.663-.39 1.297-.597 1.924-1.52 4.61-3.263 9.135-5.699 13.37-3.086 5.365-7.076 9.953-12.363 13.387-1.584 1.028-3.241 1.927-5.083 2.446-.284.08-.716.312-.868.01-.12-.236.328-.439.565-.603 1.712-1.184 3.374-2.423 4.89-3.845 4.034-3.782 6.829-8.322 8.67-13.447a54.88 54.88 0 0 0 2.924-12.748c.04-.372.129-.533.568-.528 2.167.026 4.336.012 6.503.013.142 0 .284.011.49.021"/><path id="tygfl" d="M1058.897 903.942c-.52 0-1.045-.04-1.559.012-.527.053-.69-.169-.802-.601-.436-1.702-.916-3.394-1.356-5.094-.094-.363-.254-.486-.666-.482a407.46 407.46 0 0 1-6.352.005c-.345-.002-.51.058-.597.424-.415 1.742-.89 3.471-1.313 5.212-.1.41-.265.549-.731.537-1.346-.034-1.346-.01-1.025-1.236 1.406-5.368 2.81-10.738 4.218-16.106.236-.9.611-1.734 1.225-2.481 1.3-1.583 4.803-1.433 5.588.816.748 2.144 1.324 4.33 1.967 6.499 1.167 3.94 2.293 7.89 3.436 11.835.029.1.033.21.078.303.135.278.045.369-.272.361-.613-.014-1.226-.004-1.84-.004m-7.515-8.244c.836 0 1.673-.021 2.509.008.467.016.614-.063.476-.54-.447-1.536-.837-3.087-1.26-4.63-.374-1.358-.77-2.71-1.139-4.07-.079-.292-.234-.47-.545-.506-.325-.038-.46.194-.57.414-.1.203-.174.42-.231.638-.727 2.739-1.44 5.481-2.18 8.217-.102.374-.057.49.375.477.854-.025 1.71-.008 2.565-.008"/><path id="tygfm" d="M1087.68 893.997c0-3.146.009-6.293-.01-9.439-.003-.423.114-.54.542-.527 1 .03 2.003.02 3.004.003.31-.006.396.086.395.387a7733 7733 0 0 0 0 19.145c0 .295-.076.397-.391.39a57.38 57.38 0 0 0-3.058.005c-.448.016-.49-.16-.489-.525.013-3.146.007-6.292.007-9.439"/><path id="tygfn" d="M953.67 903.935c3.735-1.605 7.013-3.762 9.836-6.561 2.804-2.782 5.376-5.727 6.903-9.544v.563c0 1.972-.012 3.943.01 5.914.004.447-.12.815-.368 1.175-1.134 1.654-2.616 2.954-4.35 3.967-3.568 2.085-7.348 3.67-11.445 4.47-.168.032-.333.078-.586.016"/><path id="tygfo" d="M1087.67 878.814c.005-1.315 1.107-2.373 2.473-2.374 1.346-.002 2.457 1.084 2.453 2.394-.004 1.276-1.124 2.352-2.446 2.352-1.369-.001-2.485-1.069-2.48-2.372"/><path id="tygfp" d="M1121.168 901.094c0-.812.014-1.623-.007-2.434-.008-.29.094-.391.455-.387 1.291.015 2.583.024 3.874-.003.532-.01.417.26.425.504.008.242.063.468-.416.453-.978-.032-1.958.001-2.937-.015-.372-.007-.544.04-.54.41.012 1.012-.013 1.013 1.237 1.012.125 0 .25.008.374-.001.392-.03.654-.012.64.44-.012.407-.176.523-.62.47-.102-.013-.208-.003-.313-.003-1.34 0-1.318 0-1.318 1.106 0 .352.165.384.51.379 1.041-.015 2.084.016 3.124-.015.47-.014.44.2.422.447-.017.231.139.52-.411.508-1.353-.028-2.708-.02-4.061-.003-.368.005-.453-.098-.446-.383.022-.828.008-1.657.008-2.485"/><path id="tygfq" d="M1129.583 903.963c-.84.032-1.5-.37-1.956-1.064-.663-1.006-.727-2.09-.229-3.165.633-1.365 2.113-1.836 3.501-1.155.247.12.477.278.702.437.41.29.416.622.05.964-.167.154-.248.006-.347-.065-.378-.275-.774-.512-1.25-.605-.78-.153-1.452.124-1.88.783-.44.674-.374 1.69.149 2.311.469.557 1.249.758 1.985.488.341-.125.659-.307.998-.436.17-.065.383-.372.51-.13.132.247.357.597-.062.888-.639.444-1.313.757-2.171.75"/><path id="tygfr" d="M1117.832 901.618c0-.671-.01-1.342.005-2.013.006-.279-.065-.417-.37-.388-.22.02-.449-.024-.666.01-.46.07-.583-.108-.558-.559.018-.328.116-.398.42-.393 1.044.017 2.09.028 3.134-.004.413-.013.388.204.381.476-.006.252.071.515-.365.486-.383-.027-.895-.186-1.13.076-.25.278-.072.79-.077 1.2-.012.946.003 1.892-.008 2.839-.003.267.161.625-.394.617-.523-.007-.36-.341-.367-.591-.015-.585-.005-1.17-.005-1.756"/><path id="tygfs" d="M1024.585 908.236a.493.493 0 0 1-.985-.025.481.481 0 0 1 .49-.451.479.479 0 0 1 .495.476"/><path id="tygft" d="M1069.942 895.877c0-1.89.014-3.779-.012-5.668-.005-.408.121-.487.508-.478 1.181.025 2.363.023 3.545.006 2.304-.034 3.92 1.005 4.917 2.999.898 1.792 1.075 3.695.691 5.624-.395 1.988-1.793 3.222-3.93 3.556-1.813.283-3.645.075-5.468.132-.344.011-.248-.228-.249-.397-.004-1.925-.002-3.85-.002-5.774"/><path id="tygfu" d="M1069.929 882.092c0-1.725.011-3.45-.009-5.175-.004-.375.092-.493.475-.475 1.418.066 2.843-.1 4.258.134 2.412.399 3.798 1.88 4.076 4.32a9.718 9.718 0 0 1-.152 3.048c-.482 2.38-2.267 3.829-4.76 3.872-1.153.02-2.306-.012-3.458.013-.37.009-.44-.117-.437-.455.015-1.76.007-3.522.007-5.282"/><path id="tygfb" d="M1097.56 910.63h8.497v10.42h-8.497z"/><path id="tygfw" d="M1097.704 918.708c.701-.129 1.159.025 1.622.519 1.092 1.163 3.605 1.2 4.843.153.79-.667.73-1.547.769-2.531-1.103 1.067-2.369 1.456-3.828 1.286-.984-.115-1.83-.518-2.499-1.185-1.4-1.395-1.398-3.67-.014-5.046 1.7-1.69 3.852-1.707 6.334 0v-.517c.002-.602.229-.75.88-.613.194.041.217.137.214.276-.042 2.269.147 4.544-.092 6.806-.202 1.917-1.25 2.884-3.317 3.14-1.785.22-3.932-.166-4.863-2.112-.022-.047-.028-.1-.049-.176m7.26-4.296c-.006-1.62-1.315-2.845-3.057-2.86-1.78-.015-3.235 1.298-3.238 2.922-.002 1.614 1.353 2.792 3.19 2.776 1.857-.016 3.11-1.161 3.104-2.838"/><path id="tygfx" d="M1027.65 911.792c2.155-1.713 3.652-1.57 4.66.464.187-.23.354-.464.55-.671.8-.845 1.764-1.177 2.883-.83 1.087.337 1.57 1.216 1.62 2.279.078 1.627.05 3.26.047 4.891 0 .459-.376.202-.58.245-.221.046-.416.037-.411-.317.02-1.316.008-2.632.007-3.948 0-.185.003-.372-.017-.556-.114-1.052-.427-1.49-1.206-1.7-.77-.206-1.647.144-2.157.858-.514.72-.527 1.564-.556 2.393-.033.963-.03 1.928.003 2.891.014.408-.189.405-.464.387-.253-.016-.546.102-.535-.377.028-1.241.01-2.483.01-3.725-.001-.241.007-.484-.016-.723-.073-.756-.295-1.416-1.107-1.676-.74-.238-1.606.05-2.155.713-.558.672-.618 1.487-.637 2.303a53.629 53.629 0 0 0 .005 3.058c.014.416-.17.436-.484.434-.321-.001-.536.006-.53-.451.025-2.15.022-4.301.002-6.451-.004-.407.135-.49.501-.486.349.003.56.041.508.47-.021.167-.065.362.06.525"/><path id="tygfy" d="M1041.4 917.148c0 1.22-.026 2.351.011 3.48.015.451-.215.425-.516.421-.296-.003-.528.037-.525-.42.022-3.135.022-6.27 0-9.405-.002-.448.224-.42.525-.423.305-.003.575-.022.51.424-.034.238-.006.486-.006.866.821-1.01 1.811-1.503 3-1.48 1.171.022 2.162.49 2.925 1.401 1.35 1.608 1.214 3.919-.322 5.429-1.52 1.494-3.624 1.407-5.603-.293m-.032-2.557c0 1.704 1.23 2.965 2.908 2.98 1.566.013 2.942-1.392 2.94-3.003-.003-1.627-1.345-2.978-2.957-2.976-1.628.002-2.892 1.312-2.891 2.999"/><path id="tygfz" d="M1058.957 911.904c.135-.215.1-.404.076-.57-.073-.49.166-.567.611-.559.367.007.435.125.434.444-.013 2.14-.019 4.278.004 6.416.004.395-.155.448-.494.435-.32-.01-.62.033-.556-.437.026-.184.062-.391-.047-.579-2.458 1.617-4.49 1.525-5.941-.261-1.308-1.61-1.07-3.907.538-5.284 1.368-1.17 3.82-1.355 5.375.395m.165 2.532a2.919 2.919 0 0 0-2.989-2.885c-1.605.027-2.928 1.361-2.898 2.922.03 1.562 1.415 2.897 2.972 2.863 1.643-.036 2.931-1.317 2.915-2.9"/><path id="tygfA" d="M1018.729 908.71c1.189-.029 1.954.642 2.629 1.468.11.134.067.207-.046.319-.518.507-.647.516-1.138.005-.347-.362-.73-.66-1.26-.71-.578-.055-1.068.115-1.386.6-.294.45-.23.918.035 1.365.225.377.57.642.923.902.746.548 1.539 1.045 2.184 1.712.65.673 1.096 1.437.955 2.397-.159 1.088-.818 1.832-1.871 2.19-1.105.377-2.153.203-3.063-.54a3.845 3.845 0 0 1-.752-.836c-.365-.541-.23-.872.414-1.035.234-.06.251.114.324.224.229.345.48.671.81.93a1.902 1.902 0 0 0 2.506-.128c.638-.62.628-1.472-.016-2.247-.486-.584-1.113-1.013-1.708-1.479-.43-.338-.883-.657-1.274-1.035-.755-.73-.977-1.846-.564-2.716.448-.944 1.265-1.342 2.298-1.385"/><path id="tygfB" d="M1095.552 914.435c.004 2.115-1.705 3.76-3.914 3.768-2.231.009-3.97-1.644-3.968-3.771.002-2.13 1.76-3.834 3.944-3.822 2.21.012 3.934 1.687 3.938 3.825m-4.019 2.826c1.619.038 2.917-1.141 2.958-2.685a2.903 2.903 0 0 0-2.845-2.998c-1.531-.035-2.877 1.23-2.928 2.752-.053 1.628 1.161 2.892 2.815 2.93"/><path id="tygfC" d="M1083.722 914.452c-.002 2.13-1.697 3.75-3.925 3.751-2.254 0-3.964-1.636-3.957-3.787.007-2.132 1.77-3.822 3.969-3.806 2.218.017 3.914 1.683 3.913 3.842m-3.945 2.809c1.648.002 2.908-1.21 2.914-2.8.006-1.572-1.345-2.907-2.925-2.891-1.564.016-2.892 1.334-2.896 2.875-.004 1.576 1.274 2.814 2.907 2.816"/><path id="tygfD" d="M1063.09 912.02c.727-.755 1.426-1.245 2.355-1.37 1.912-.26 3.344.78 3.435 2.593.077 1.524.026 3.053.066 4.579.012.433-.254.368-.527.37-.277.001-.53.054-.524-.374.016-1.34-.02-2.68-.037-4.02-.001-.111-.011-.223-.019-.334-.117-1.725-1.772-2.512-3.332-1.578-.823.492-1.272 1.202-1.344 2.12-.098 1.246-.087 2.493-.062 3.74.008.384-.132.456-.505.457-.386.002-.55-.056-.546-.476.025-2.16.024-4.321 0-6.481-.004-.423.165-.473.55-.477.388-.004.542.098.495.466-.026.2-.005.405-.005.785"/><path id="tygfE" d="M1114.267 910.647l-2.377 5.696c-.542 1.301-1.082 2.604-1.626 3.905-.356.851-.359.85-1.373.768.354-.853.654-1.707 1.056-2.504.325-.644.27-1.173-.023-1.816-.839-1.834-1.608-3.704-2.402-5.56-.066-.155-.17-.299-.15-.484.93-.096.93-.096 1.298.759l2.142 4.968 1.82-4.341c.081-.193.156-.389.235-.582.362-.883.362-.882 1.4-.809"/><path id="tygfF" d="M1072.29 915.79c0-.974-.015-1.95.009-2.923.008-.347-.076-.499-.445-.445-.17.024-.35-.014-.52.007-.355.043-.412-.135-.414-.436-.002-.321.047-.479.436-.479.934.002.934-.02.935-.969 0-.497.022-.995-.008-1.49-.026-.431.266-.341.494-.328.231.012.573-.15.557.33-.023.688.012 1.377-.013 2.064-.012.334.1.445.425.408.19-.022.391.024.578-.01.524-.092.546.204.535.591-.007.256-.098.318-.342.322-.38.007-.88-.177-1.11.078-.245.271-.073.766-.075 1.162-.009 1.663-.021 3.326.008 4.989.008.44-.166.483-.536.49-.385.006-.54-.068-.525-.493.035-.955.011-1.912.011-2.867"/><path id="tygfG" d="M1085.7 913.935c0-1.59.015-3.18-.01-4.769-.005-.403.137-.47.459-.454.292.016.53-.04.526.447-.02 3.179-.02 6.358 0 9.537.003.476-.217.446-.52.454-.31.008-.472-.03-.465-.447.026-1.59.01-3.179.01-4.768"/><path id="tygfH" d="M1050.214 913.929c0 1.59-.018 3.179.011 4.768.009.48-.222.443-.522.453-.313.01-.465-.037-.463-.449.018-3.179.018-6.358 0-9.537-.002-.406.14-.467.46-.452.294.014.534-.037.525.448-.03 1.59-.011 3.179-.011 4.769"/><path id="tygfI" d="M1024.604 914.399c0 1.122-.022 2.245.01 3.366.014.445-.202.432-.5.437-.311.007-.489-.012-.484-.441.024-2.226.02-4.451.003-6.677-.003-.377.1-.484.457-.473.337.01.536.028.524.478-.032 1.102-.01 2.206-.01 3.31"/><clipPath id="tygfd"><use xlink:href="#tygfa"/></clipPath><clipPath id="tygfv"><use xlink:href="#tygfb"/></clipPath></defs><g><g transform="translate(-932 -866)"><use fill="#a8b6cc" xlink:href="#tygfc"/></g><g transform="translate(-932 -866)"><g/><g clip-path="url(#tygfd)"><use fill="#a8b6cc" xlink:href="#tygfe"/></g></g><g transform="translate(-932 -866)"><use fill="#a8b6cc" xlink:href="#tygff"/></g><g transform="translate(-932 -866)"><use fill="#a8b6cc" xlink:href="#tygfg"/></g><g transform="translate(-932 -866)"><use fill="#a8b6cc" xlink:href="#tygfh"/></g><g transform="translate(-932 -866)"><use fill="#a8b6cc" xlink:href="#tygfi"/></g><g transform="translate(-932 -866)"><use fill="#a8b6cc" xlink:href="#tygfj"/></g><g transform="translate(-932 -866)"><use fill="#a8b6cc" xlink:href="#tygfk"/></g><g transform="translate(-932 -866)"><use fill="#a8b6cc" xlink:href="#tygfl"/></g><g transform="translate(-932 -866)"><use fill="#a8b6cc" xlink:href="#tygfm"/></g><g transform="translate(-932 -866)"><use fill="#a8b6cc" xlink:href="#tygfn"/></g><g transform="translate(-932 -866)"><use fill="#a8b6cc" xlink:href="#tygfo"/></g><g transform="translate(-932 -866)"><use fill="#a8b6cc" xlink:href="#tygfp"/></g><g transform="translate(-932 -866)"><use fill="#a8b6cc" xlink:href="#tygfq"/></g><g transform="translate(-932 -866)"><use fill="#a8b6cc" xlink:href="#tygfr"/></g><g transform="translate(-932 -866)"><use fill="#a8b6cc" xlink:href="#tygfs"/></g><g transform="translate(-932 -866)"><use fill="#fff" xlink:href="#tygft"/></g><g transform="translate(-932 -866)"><use fill="#fff" xlink:href="#tygfu"/></g><g transform="translate(-932 -866)"><g><g/><g clip-path="url(#tygfv)"><use fill="#a8b6cc" xlink:href="#tygfw"/></g></g><g><use fill="#a8b6cc" xlink:href="#tygfx"/></g><g><use fill="#a8b6cc" xlink:href="#tygfy"/></g><g><use fill="#a8b6cc" xlink:href="#tygfz"/></g><g><use fill="#a8b6cc" xlink:href="#tygfA"/></g><g><use fill="#a8b6cc" xlink:href="#tygfB"/></g><g><use fill="#a8b6cc" xlink:href="#tygfC"/></g><g><use fill="#a8b6cc" xlink:href="#tygfD"/></g><g><use fill="#a8b6cc" xlink:href="#tygfE"/></g><g><use fill="#a8b6cc" xlink:href="#tygfF"/></g><g><use fill="#a8b6cc" xlink:href="#tygfG"/></g><g><use fill="#a8b6cc" xlink:href="#tygfH"/></g><g><use fill="#a8b6cc" xlink:href="#tygfI"/></g></g></g></svg>