<svg xmlns="http://www.w3.org/2000/svg" xmlns:xlink="http://www.w3.org/1999/xlink" width="80" height="75" viewBox="0 0 80 75"><defs><path id="ziuda" d="M713.8 493.967l4.869 4.338a3.193 3.193 0 0 1-4.148-.345 3.316 3.316 0 0 1-.766-3.397c.073-.202.073-.404.044-.596zm-6.869-6.124l4.85 4.328-2.48 2.371a3.146 3.146 0 0 1-4.437-.059 3.237 3.237 0 0 1-.93-2.282c0-.858.33-1.661.93-2.268zm10.602-4.544c-.322 0-.639.123-.887.37a1.275 1.275 0 0 0 0 1.787l1.77 1.777c.238.246.56.374.877.374.321 0 .643-.128.882-.374a1.254 1.254 0 0 0 0-1.777l-1.76-1.788a1.25 1.25 0 0 0-.882-.369zm-17.397-1.511l4.222 3.766-4.797 4.554a2.586 2.586 0 0 1-3.64-.064 2.642 2.642 0 0 1-.06-3.668zm21.808-2.944c-.317 0-.638.123-.882.374a1.263 1.263 0 0 0 0 1.777l1.764 1.787c.244.242.56.37.883.37.321 0 .638-.128.882-.37a1.275 1.275 0 0 0 0-1.787l-1.765-1.777a1.227 1.227 0 0 0-.882-.374zm4.411-4.45c-.316 0-.638.118-.882.369a1.263 1.263 0 0 0 0 1.777l1.765 1.787a1.249 1.249 0 0 0 1.764 0 1.275 1.275 0 0 0 0-1.787l-1.764-1.777a1.222 1.222 0 0 0-.883-.37zm-32.809-.015a26.465 26.465 0 0 0 4.046 5.075l-1.555 1.57c-1.199 1.207-3.28 1.212-4.49-.004a3.21 3.21 0 0 1-.048-4.475zm37.22-4.44c-.321 0-.638.117-.882.363a1.275 1.275 0 0 0 0 1.788l1.77 1.777c.239.246.56.369.877.369.322 0 .644-.123.882-.37a1.254 1.254 0 0 0 0-1.776l-1.764-1.788a1.228 1.228 0 0 0-.882-.364zm4.412-4.461c-.322 0-.639.123-.882.37a1.269 1.269 0 0 0 0 1.781l1.764 1.782a1.242 1.242 0 0 0 1.77 0 1.269 1.269 0 0 0 0-1.782l-1.77-1.782a1.233 1.233 0 0 0-.882-.37zm21.145-14.07c-.317 0-.639.123-.882.37l-1.765 1.781a1.269 1.269 0 0 0 0 1.782 1.233 1.233 0 0 0 1.765 0l1.764-1.782a1.269 1.269 0 0 0 0-1.782 1.242 1.242 0 0 0-.882-.37zm-4.411-4.455a1.24 1.24 0 0 0-.883.37l-1.764 1.786a1.274 1.274 0 0 0 0 1.786c.243.247.56.37.882.37.322 0 .639-.123.882-.37l1.765-1.786a1.274 1.274 0 0 0 0-1.786 1.24 1.24 0 0 0-.882-.37zm-4.405-4.456c-.317 0-.64.123-.884.37l-1.769 1.782a1.258 1.258 0 0 0 0 1.782c.24.246.562.369.88.369.322 0 .645-.123.884-.37l1.774-1.781a1.267 1.267 0 0 0 0-1.783 1.246 1.246 0 0 0-.885-.369zm-4.418-4.455c-.322 0-.639.123-.882.37l-1.765 1.776a1.275 1.275 0 0 0 0 1.787 1.249 1.249 0 0 0 1.765 0l1.764-1.787a1.263 1.263 0 0 0 0-1.777 1.195 1.195 0 0 0-.882-.37zm-4.416-4.46c-.317 0-.634.123-.878.374l-1.769 1.782a1.263 1.263 0 0 0 0 1.777 1.244 1.244 0 0 0 1.77 0l1.76-1.777a1.26 1.26 0 0 0 0-1.782 1.219 1.219 0 0 0-.883-.374zm-30.803-2.984a3.721 3.721 0 0 1 1.653.33l5.484 2.486a26.166 26.166 0 0 0-6.644 3.914l-10.17 8.241a3.784 3.784 0 0 0-1.384 3.27 3.78 3.78 0 0 0 1.91 2.987 12.12 12.12 0 0 0 10.736.586l8.419-3.589a11.091 11.091 0 0 1 12.266 2.393l21.864 24.28a3.783 3.783 0 0 1-.175 5.115 3.375 3.375 0 0 1-4.48.28l-4.71-3.701a1.24 1.24 0 0 0-1.701.162 1.273 1.273 0 0 0 .049 1.728l3.783 3.816a3.456 3.456 0 0 1 0 4.844 3.381 3.381 0 0 1-4.485.28l-4.705-3.702a1.24 1.24 0 0 0-1.701.163 1.273 1.273 0 0 0 .049 1.728l2.018 2.028a3.456 3.456 0 0 1 0 4.844 3.37 3.37 0 0 1-4.48.286l-4.715-3.697a1.24 1.24 0 0 0-1.7.157 1.267 1.267 0 0 0 .058 1.723l2.988 3.023a3.29 3.29 0 0 1 .955 2.329c0 .876-.34 1.703-.955 2.323a3.23 3.23 0 0 1-4.456.138L707.71 485.17l-7.596-6.76a24.006 24.006 0 0 1-5.143-6.517l-9.029-16.773c-.784-1.457-.521-3.303.644-4.475L705.34 431.7a3.76 3.76 0 0 1 2.53-1.103zm30.263-.074a3.713 3.713 0 0 1 2.457 1.108l18.838 19.013a3.843 3.843 0 0 1 .643 4.475l-4.797 8.955a23.853 23.853 0 0 1-4.685 6.104l-18.642-20.7c-3.973-4.008-9.872-5.18-15.045-2.974l-8.424 3.584a9.635 9.635 0 0 1-8.551-.468c-.37-.207-.6-.566-.639-.995a1.26 1.26 0 0 1 .463-1.092l10.17-8.242a23.543 23.543 0 0 1 12.236-5.124l8.469-.946c.063-.005.112-.04.17-.054.059-.015.117-.01.176-.034l5.533-2.324a3.68 3.68 0 0 1 1.628-.286zm.116-2.515a6.206 6.206 0 0 0-2.71.472l-5.367 2.255-8.291.926a26.86 26.86 0 0 0-3.334.6.062.062 0 0 1-.03-.02l-7.979-3.613a6.218 6.218 0 0 0-6.96 1.29l-18.757 18.939c-1.94 1.964-2.383 5.031-1.072 7.468l8.496 15.773-2.56 2.708a5.73 5.73 0 0 0 .103 7.995 5.594 5.594 0 0 0 4.007 1.679c.151 0 .297-.035.448-.045l-.2.217a5.175 5.175 0 0 0 .122 7.183c1 1.009 2.301 1.516 3.607 1.516a5.076 5.076 0 0 0 3.5-1.408l.215-.202c-.015.153-.05.3-.05.458 0 1.531.59 2.969 1.668 4.052a5.621 5.621 0 0 0 4.011 1.693 5.62 5.62 0 0 0 3.9-1.575l.107-.103a5.817 5.817 0 0 0 1.638 3.48 5.69 5.69 0 0 0 4.05 1.699 5.69 5.69 0 0 0 3.768-1.438l1.404 1.25a5.698 5.698 0 0 0 3.802 1.453 5.709 5.709 0 0 0 4.07-1.699 5.8 5.8 0 0 0 1.648-4.765 5.863 5.863 0 0 0 6.195-1.374 5.978 5.978 0 0 0 1.72-4.406 5.854 5.854 0 0 0 7.107-.945 5.986 5.986 0 0 0 1.57-5.538 5.868 5.868 0 0 0 5.493-1.59c2.301-2.324 2.423-6.085.264-8.572l-1.594-1.772a26.406 26.406 0 0 0 5.2-6.774l4.797-8.955c1.306-2.437.863-5.499-1.077-7.453l-18.83-19.018a6.182 6.182 0 0 0-4.1-1.841z"/></defs><g><g transform="translate(-683 -428)"><use fill="#1dbacb" xlink:href="#ziuda"/></g></g></svg>