<svg xmlns="http://www.w3.org/2000/svg" xmlns:xlink="http://www.w3.org/1999/xlink" width="27" height="18" viewBox="0 0 27 18"><defs><path id="9do3a" d="M161.129 991.072a.745.745 0 0 0-.586.528.753.753 0 0 0 .21.761l6.892 6.891h-22.219a.752.752 0 0 0-.715.785c.02.413.372.735.785.715h22.149l-6.891 6.89a.753.753 0 0 0-.26.754.754.754 0 0 0 .562.562.753.753 0 0 0 .753-.26l8.18-8.157.515-.539-.516-.54-8.18-8.155a.753.753 0 0 0-.609-.235h-.07z"/></defs><g><g transform="translate(-144 -991)"><use fill="#28bd84" xlink:href="#9do3a"/></g></g></svg>