<svg xmlns="http://www.w3.org/2000/svg" xmlns:xlink="http://www.w3.org/1999/xlink" width="56" height="56" viewBox="0 0 56 56"><defs><path id="dz3oa" d="M838.002 905.787H837V894h1.002v4.662a3.044 3.044 0 0 1 1.33-1.188 4.153 4.153 0 0 1 1.768-.408c.656 0 1.24.125 1.731.373.492.248.893.567 1.221.974.328.408.565.887.711 1.436a5.91 5.91 0 0 1 .237 1.702c0 .62-.073 1.205-.219 1.755a3.995 3.995 0 0 1-.692 1.418 3.53 3.53 0 0 1-1.221.939c-.492.23-1.094.337-1.804.337a3.84 3.84 0 0 1-1.713-.425 3.665 3.665 0 0 1-.766-.532 2.537 2.537 0 0 1-.565-.745h-.036v1.49zm0-4.272c0 .514.073.993.2 1.436.128.443.31.815.565 1.152.256.32.547.568.93.762.364.178.783.284 1.257.284.42 0 .82-.07 1.185-.213.364-.142.674-.354.947-.638.274-.283.474-.638.638-1.046.146-.407.22-.886.22-1.418a5.813 5.813 0 0 0-.129-1.506 3.416 3.416 0 0 0-.546-1.224 2.816 2.816 0 0 0-.948-.833 2.954 2.954 0 0 0-1.349-.301c-.455 0-.874.089-1.239.284a2.944 2.944 0 0 0-.93.762c-.254.319-.436.691-.582 1.134a4.135 4.135 0 0 0-.219 1.365z"/><path id="dz3ob" d="M851.009 906c-.56-.018-1.084-.107-1.553-.304a3.33 3.33 0 0 1-1.264-.839 4.173 4.173 0 0 1-.867-1.393c-.217-.553-.325-1.214-.325-1.964 0-.625.09-1.214.253-1.75a4.038 4.038 0 0 1 .758-1.429c.325-.41.759-.732 1.247-.964.505-.232 1.083-.357 1.751-.357.686 0 1.264.125 1.77.357.505.232.92.554 1.246.964.325.393.578.876.74 1.429.163.554.235 1.143.235 1.768 0 .678-.09 1.303-.289 1.84a3.776 3.776 0 0 1-2.077 2.32 3.997 3.997 0 0 1-1.625.322m2.925-4.495c0-.5-.054-.983-.162-1.412a3.188 3.188 0 0 0-.524-1.145 2.678 2.678 0 0 0-.903-.769c-.361-.179-.813-.286-1.354-.286-.524 0-.976.107-1.337.304a2.44 2.44 0 0 0-.903.805 3.82 3.82 0 0 0-.524 1.162c-.108.43-.162.876-.162 1.341 0 .537.072 1.02.199 1.467.126.447.307.822.56 1.144.252.322.541.572.92.751.361.179.795.268 1.264.268.524 0 .975-.107 1.337-.304.379-.196.668-.483.903-.822.234-.34.397-.733.523-1.163.109-.429.163-.876.163-1.34"/><path id="dz3oc" d="M859 905.806c-.13.018-.296.053-.5.106a2.683 2.683 0 0 1-.685.088c-.519 0-.908-.124-1.167-.37-.26-.247-.407-.688-.407-1.305v-6.17H855v-.81h1.24V895h1.02v2.345h1.666v.81h-1.667v5.782c0 .212 0 .388.019.53.018.158.037.281.11.37a.433.433 0 0 0 .26.21c.111.036.296.072.5.072.13 0 .278-.018.426-.036.148-.017.278-.053.426-.088v.811z"/><path id="dz3od" d="M861 895.48h1V894h-1zm.05 10.52v-8.643h.9v8.625h-.9z"/><path id="dz3oe" d="M865.02 903.095c.168.73.446 1.247.873 1.55.409.303 1.022.446 1.802.446.371 0 .705-.036.984-.125a1.93 1.93 0 0 0 .668-.356c.186-.143.316-.321.409-.5.093-.178.13-.391.13-.588 0-.41-.149-.73-.427-.926a3.577 3.577 0 0 0-1.059-.481 19.737 19.737 0 0 0-1.374-.303 8.125 8.125 0 0 1-1.374-.375 2.554 2.554 0 0 1-1.059-.712c-.278-.303-.427-.749-.427-1.301 0-.713.279-1.301.818-1.747.538-.463 1.318-.677 2.302-.677.966 0 1.746.214 2.34.624.594.41.965 1.105 1.095 2.067h-1.04c-.092-.66-.352-1.123-.78-1.39-.426-.267-.965-.41-1.615-.41s-1.151.143-1.485.41c-.335.267-.52.624-.52 1.07 0 .391.148.676.427.873.278.196.631.374 1.058.499.427.124.873.231 1.374.338.483.107.947.232 1.375.428.427.178.78.428 1.058.73.278.303.427.731.427 1.284 0 .41-.093.766-.279 1.069a2.39 2.39 0 0 1-.76.784c-.317.214-.706.357-1.133.463a6.2 6.2 0 0 1-1.449.161c-.52 0-.984-.071-1.392-.214a2.849 2.849 0 0 1-1.04-.624 3.079 3.079 0 0 1-.668-.926 2.955 2.955 0 0 1-.279-1.141h1.02z"/><path id="dz3of" d="M873.02 903.095c.168.73.446 1.247.873 1.55.409.303 1.022.446 1.802.446.371 0 .705-.036.984-.125a1.93 1.93 0 0 0 .668-.356c.186-.143.316-.321.409-.5.093-.178.13-.391.13-.588 0-.41-.149-.73-.427-.926a3.577 3.577 0 0 0-1.059-.481 19.737 19.737 0 0 0-1.374-.303 8.125 8.125 0 0 1-1.374-.375 2.554 2.554 0 0 1-1.059-.712c-.278-.303-.427-.749-.427-1.301 0-.713.279-1.301.818-1.747.538-.463 1.318-.677 2.302-.677.966 0 1.746.214 2.34.624.594.41.965 1.105 1.095 2.067h-1.04c-.092-.66-.352-1.123-.78-1.39-.426-.267-.965-.41-1.615-.41s-1.151.143-1.485.41c-.335.267-.52.624-.52 1.07 0 .391.148.676.427.873.278.196.631.374 1.058.499.427.124.873.231 1.374.338.483.107.947.232 1.375.428.427.178.78.428 1.058.73.278.303.427.731.427 1.284 0 .41-.093.766-.279 1.069a2.39 2.39 0 0 1-.76.784c-.317.214-.706.357-1.133.463a6.2 6.2 0 0 1-1.449.161c-.52 0-.984-.071-1.392-.214a2.849 2.849 0 0 1-1.04-.624 3.079 3.079 0 0 1-.668-.926 2.955 2.955 0 0 1-.279-1.141h1.02z"/><path id="dz3og" d="M846.387 912.916H846V909h.387v1.556c.116-.167.29-.3.503-.401.213-.084.426-.134.658-.134.252 0 .465.033.64.117.173.084.328.184.444.335.116.134.213.301.271.468a1.958 1.958 0 0 1 .02 1.155 1.077 1.077 0 0 1-.272.469 1.252 1.252 0 0 1-.464.318c-.194.084-.407.117-.678.117-.096 0-.212-.017-.329-.033-.116-.017-.212-.067-.31-.118-.096-.05-.193-.1-.29-.184a.998.998 0 0 1-.212-.25h-.02v.501zm0-1.405c0 .167.02.334.077.468.058.134.116.268.212.385a.98.98 0 0 0 .347.251c.135.067.289.1.462.1.154 0 .309-.016.444-.066a.898.898 0 0 0 .346-.218c.097-.1.174-.218.232-.352.057-.133.077-.3.077-.468 0-.184 0-.351-.058-.502a1.356 1.356 0 0 0-.193-.402c-.077-.117-.212-.2-.346-.268a1.14 1.14 0 0 0-.501-.1c-.174 0-.328.034-.463.1-.135.067-.25.151-.347.252a.912.912 0 0 0-.212.368 1.129 1.129 0 0 0-.077.452z"/><path id="dz3oh" d="M849.78 909.47h.29V909h-.29zm0 3.53h.29v-2.824h-.29z"/><path id="dz3oi" d="M870.77 909.47h.285V909h-.285zm0 3.53h.285v-2.824h-.285z"/><path id="dz3oj" d="M852.049 912.9a1.376 1.376 0 0 1-.484-.285 1.29 1.29 0 0 1-.329-.47 1.679 1.679 0 0 1-.116-.653c0-.202.039-.403.097-.587.058-.184.155-.335.29-.47a1.68 1.68 0 0 1 .465-.318 1.62 1.62 0 0 1 .658-.117c.251 0 .483.034.658.117.193.084.348.185.464.319.136.134.213.285.271.469.058.184.097.369.097.587 0 .217-.039.435-.116.603a1.587 1.587 0 0 1-.31.47c-.135.133-.29.234-.483.3-.136.102-.35.135-.582.135-.212 0-.406-.034-.58-.1zm1.616-1.858a1.265 1.265 0 0 0-.193-.387 1.015 1.015 0 0 0-.347-.252 1.133 1.133 0 0 0-.5-.101c-.193 0-.367.034-.501.1-.135.068-.25.152-.347.27a.947.947 0 0 0-.193.387 1.74 1.74 0 0 0-.057.455c0 .168.019.336.077.488.038.151.115.269.212.387.096.1.212.185.346.252.135.05.29.084.482.084.193 0 .366-.033.5-.1.136-.068.251-.152.348-.27a.945.945 0 0 0 .192-.387c.02-.152.039-.303.039-.454 0-.169-.02-.32-.058-.472z"/><path id="dz3ok" d="M855.248 913h-.348v-2.914h.348v.431h.017a.862.862 0 0 1 .365-.38 1.137 1.137 0 0 1 .887-.085c.087.034.174.069.244.12.07.052.122.104.156.173.035.069.087.138.105.224.104-.19.226-.328.4-.431.156-.086.348-.138.556-.138.209 0 .365.034.487.103a.804.804 0 0 1 .278.259.82.82 0 0 1 .122.362c.018.138.035.276.035.431v1.827h-.348V911a.854.854 0 0 0-.139-.5c-.087-.12-.26-.172-.487-.172a.94.94 0 0 0-.365.086.794.794 0 0 0-.296.241.53.53 0 0 0-.087.173c-.017.069-.052.138-.052.207-.017.069-.017.137-.035.207V913h-.347v-2a.854.854 0 0 0-.14-.5c-.087-.12-.26-.172-.487-.172a.942.942 0 0 0-.365.086.794.794 0 0 0-.295.241.537.537 0 0 0-.087.173c-.018.069-.053.138-.053.207-.017.069-.017.137-.034.207-.018.069 0 .137 0 .189V913z"/><path id="dz3ol" d="M861.302 911.298c.075 0 .15-.017.243-.034.094-.017.17-.034.244-.068.056-.033.094-.067.112-.134a.572.572 0 0 0 .02-.169.531.531 0 0 0-.188-.421c-.113-.101-.32-.169-.6-.169-.132 0-.244.017-.357.034a.678.678 0 0 0-.281.101.514.514 0 0 0-.188.202c-.037.085-.093.186-.093.304h-.375c.018-.169.056-.304.131-.438a.739.739 0 0 1 .281-.287c.113-.067.244-.135.394-.168a2.253 2.253 0 0 1 .937 0c.132.033.263.084.375.151a.596.596 0 0 1 .244.27.951.951 0 0 1 .094.421v1.55c0 .136.019.203.075.237.056.033.15.033.3-.017v.253c-.038 0-.075.016-.131.033-.057.017-.113.017-.17.017-.055 0-.112 0-.168-.017a.227.227 0 0 1-.15-.05.461.461 0 0 1-.094-.101.29.29 0 0 1-.037-.118c0-.05-.019-.101-.019-.152a1.75 1.75 0 0 1-.525.354 1.67 1.67 0 0 1-.656.118c-.131 0-.263-.017-.394-.05a.995.995 0 0 1-.337-.152.767.767 0 0 1-.319-.607c0-.489.375-.775 1.106-.86zm.618.168c-.15.05-.318.1-.468.117-.15.017-.32.034-.47.05-.28.017-.505.067-.655.168a.494.494 0 0 0-.244.435c0 .083.019.167.056.234a.414.414 0 0 0 .15.15c.056.034.131.067.225.1.075.017.169.034.244.034.15 0 .281-.017.431-.05.131-.034.263-.084.375-.15a.889.889 0 0 0 .263-.252c.075-.1.093-.234.093-.368z"/><path id="dz3om" d="M864.437 912.927a.367.367 0 0 0-.117.036.424.424 0 0 1-.169.037c-.13 0-.22-.037-.285-.128-.065-.091-.104-.256-.104-.475v-2.246h-.312v-.293h.312V909h.26v.858h.415v.293h-.416v2.319c0 .055.013.11.026.128.013.037.04.055.065.073.026.019.065.018.13.018.04 0 .065 0 .104-.018.04 0 .065-.018.104-.036v.292z"/><path id="dz3on" d="M865.615 911.601c0 .152.02.304.079.438.04.135.118.253.217.354a.962.962 0 0 0 .355.236c.138.051.296.084.494.084.256 0 .473-.05.651-.168a.812.812 0 0 0 .355-.489h.434c-.04.135-.118.253-.177.371-.06.118-.178.219-.296.303a1.495 1.495 0 0 1-.415.203 1.81 1.81 0 0 1-.552.067c-.257 0-.494-.034-.691-.118a1.28 1.28 0 0 1-.474-.32 1.32 1.32 0 0 1-.276-.472 1.875 1.875 0 0 1-.099-.59c0-.202.04-.405.099-.59.079-.185.177-.337.296-.472.138-.134.296-.252.473-.32.198-.084.395-.118.652-.118.454 0 .809.135 1.085.405.257.27.395.657.395 1.162h-2.605zm2.171-.286c0-.135-.02-.27-.06-.388a.892.892 0 0 0-.533-.54 1.257 1.257 0 0 0-.907 0c-.138.051-.237.136-.336.22-.098.084-.157.202-.216.32-.06.118-.1.253-.119.388z"/><path id="dz3oo" d="M869.263 913H869v-2.93h.263v.554h.013c.066-.225.158-.399.276-.485A.732.732 0 0 1 870 910v.364a.716.716 0 0 0-.355.087.627.627 0 0 0-.224.26 1.503 1.503 0 0 0-.119.381c-.026.157-.026.313-.026.469V913z"/><path id="dz3op" d="M873.752 911.298c.075 0 .15-.017.243-.034.094-.017.17-.034.244-.068.056-.033.094-.067.112-.134a.572.572 0 0 0 .02-.169.531.531 0 0 0-.188-.421c-.113-.101-.32-.169-.6-.169-.132 0-.244.017-.357.034a.678.678 0 0 0-.281.101.514.514 0 0 0-.188.202c-.037.085-.093.186-.093.304h-.375c.018-.169.056-.304.131-.438a.739.739 0 0 1 .281-.287c.113-.067.244-.135.394-.168a2.253 2.253 0 0 1 .937 0c.132.033.263.084.375.151a.596.596 0 0 1 .244.27.951.951 0 0 1 .094.421v1.55c0 .136.019.203.075.237.056.033.15.033.3-.017v.253c-.038 0-.075.016-.131.033-.057.017-.113.017-.17.017-.055 0-.112 0-.168-.017a.227.227 0 0 1-.15-.05.461.461 0 0 1-.094-.101.29.29 0 0 1-.037-.118c0-.05-.019-.101-.019-.152a1.75 1.75 0 0 1-.525.354 1.67 1.67 0 0 1-.656.118c-.131 0-.263-.017-.394-.05a.995.995 0 0 1-.337-.152.767.767 0 0 1-.319-.607c0-.489.375-.775 1.106-.86zm.618.168c-.15.05-.318.1-.468.117-.15.017-.32.034-.47.05-.28.017-.505.067-.655.168a.494.494 0 0 0-.244.435c0 .083.019.167.056.234a.414.414 0 0 0 .15.15c.056.034.131.067.225.1.075.017.169.034.244.034.15 0 .281-.017.431-.05.131-.034.263-.084.375-.15a.889.889 0 0 0 .263-.252c.075-.1.093-.234.093-.368z"/><path id="dz3oq" d="M875.89 913h.333v-4h-.333z"/><path id="dz3or" d="M877.313 912.074c.045.258.135.429.24.532.118.103.283.154.507.154a.767.767 0 0 0 .283-.051.775.775 0 0 0 .194-.12c.045-.052.09-.103.12-.172a.512.512 0 0 0 .044-.205.402.402 0 0 0-.119-.309.747.747 0 0 0-.299-.154c-.119-.035-.253-.069-.388-.103a2.648 2.648 0 0 1-.387-.12.73.73 0 0 1-.299-.24.762.762 0 0 1-.12-.446c0-.24.075-.446.225-.6.149-.154.373-.24.656-.24.269 0 .493.069.657.206.164.137.269.377.313.703h-.298c-.03-.223-.105-.378-.224-.48a.765.765 0 0 0-.463-.137c-.194 0-.328.05-.417.137-.105.085-.15.205-.15.36 0 .137.045.222.12.291.074.069.179.12.298.171.12.035.254.086.388.12.135.035.269.086.388.138.12.068.224.137.299.24.074.102.119.257.119.428 0 .137-.03.257-.075.36a.659.659 0 0 1-.209.257.882.882 0 0 1-.328.155c-.12.034-.269.051-.418.051-.15 0-.283-.017-.403-.069a.978.978 0 0 1-.298-.205 1.025 1.025 0 0 1-.269-.686h.313z"/><path id="dz3os" d="M873.496 922h-32.992C834.16 922 829 916.85 829 910.518v-33.036c0-6.332 5.16-11.482 11.504-11.482h32.992c6.344 0 11.504 5.15 11.504 11.482v33.036c0 6.332-5.16 11.482-11.504 11.482zm-33.01-54.942c-5.76 0-10.443 4.674-10.443 10.424v33.036c0 5.75 4.682 10.424 10.443 10.424h32.993c5.76 0 10.443-4.674 10.443-10.424v-33.036c0-5.75-4.683-10.424-10.443-10.424z"/></defs><g><g transform="translate(-829 -866)"><use fill="#a8b6cc" xlink:href="#dz3oa"/></g><g transform="translate(-829 -866)"><use fill="#a8b6cc" xlink:href="#dz3ob"/></g><g transform="translate(-829 -866)"><use fill="#a8b6cc" xlink:href="#dz3oc"/></g><g transform="translate(-829 -866)"><use fill="#a8b6cc" xlink:href="#dz3od"/></g><g transform="translate(-829 -866)"><use fill="#a8b6cc" xlink:href="#dz3oe"/></g><g transform="translate(-829 -866)"><use fill="#a8b6cc" xlink:href="#dz3of"/></g><g transform="translate(-829 -866)"><use fill="#a8b6cc" xlink:href="#dz3og"/></g><g transform="translate(-829 -866)"><use fill="#a8b6cc" xlink:href="#dz3oh"/></g><g transform="translate(-829 -866)"><use fill="#a8b6cc" xlink:href="#dz3oi"/></g><g transform="translate(-829 -866)"><use fill="#a8b6cc" xlink:href="#dz3oj"/></g><g transform="translate(-829 -866)"><use fill="#a8b6cc" xlink:href="#dz3ok"/></g><g transform="translate(-829 -866)"><use fill="#a8b6cc" xlink:href="#dz3ol"/></g><g transform="translate(-829 -866)"><use fill="#a8b6cc" xlink:href="#dz3om"/></g><g transform="translate(-829 -866)"><use fill="#a8b6cc" xlink:href="#dz3on"/></g><g transform="translate(-829 -866)"><use fill="#a8b6cc" xlink:href="#dz3oo"/></g><g transform="translate(-829 -866)"><use fill="#a8b6cc" xlink:href="#dz3op"/></g><g transform="translate(-829 -866)"><use fill="#a8b6cc" xlink:href="#dz3oq"/></g><g transform="translate(-829 -866)"><use fill="#a8b6cc" xlink:href="#dz3or"/></g><g transform="translate(-829 -866)"><use fill="#a8b6cc" xlink:href="#dz3os"/></g></g></svg>