<svg xmlns="http://www.w3.org/2000/svg" xmlns:xlink="http://www.w3.org/1999/xlink" width="46" height="44" viewBox="0 0 46 44"><defs><path id="e2lda" d="M1247.993 922.935c11.712 0 21.057 8.152 21.057 18.063 0 9.91-9.345 18.062-21.058 18.062a24.5 24.5 0 0 1-5.78-.688l-.562-.125-.375.47s-2.89 3.257-7.498 4.03c.832-1.492 1.465-2.878 1.75-3.937.398-1.48.406-2.5.406-2.5v-.5l-.438-.281c-5.225-3.313-8.56-8.59-8.56-14.532 0-9.91 9.342-18.062 21.057-18.062zm.005-1.875c-12.586 0-22.938 8.863-22.938 19.938 0 6.425 3.563 12.093 8.938 15.718-.008.215 0 .547-.282 1.594-.347 1.293-1.035 3.125-2.468 5.156l-1.032 1.438 1.782.031c6.175.027 9.753-4.031 10.312-4.688 1.824.407 3.723.688 5.688.688 12.582 0 22.937-8.863 22.937-19.938 0-11.074-10.355-19.937-22.938-19.937z"/></defs><g><g transform="translate(-1225 -921)"><use fill="#fff" xlink:href="#e2lda"/></g></g></svg>