<svg xmlns="http://www.w3.org/2000/svg" xmlns:xlink="http://www.w3.org/1999/xlink" width="20" height="36" viewBox="0 0 20 36"><defs><path id="dq6pa" d="M152.385 461.923h3.846a.77.77 0 0 0 .769-.77v-5.181a.767.767 0 0 0-.712-.767c-1.223-.087-3.614-.205-5.333-.205-4.724 0-7.801 2.83-7.801 7.975v5.102h-5.385a.77.77 0 0 0-.769.77v5.384c0 .424.345.769.77.769h5.384v14.615c0 .425.344.77.77.77h5.384a.77.77 0 0 0 .769-.77V475h5.555a.769.769 0 0 0 .765-.685l.598-5.384a.77.77 0 0 0-.764-.854h-6.154v-3.846a2.308 2.308 0 0 1 2.308-2.308z"/></defs><g><g transform="translate(-137 -455)"><use fill="#fff" xlink:href="#dq6pa"/></g></g></svg>