<svg xmlns="http://www.w3.org/2000/svg" xmlns:xlink="http://www.w3.org/1999/xlink" width="21" height="22" viewBox="0 0 21 22"><defs><path id="wgi8a" d="M1051.5 369a1 1 0 0 1 1 1v5.768a.501.501 0 0 0 .916.277c.172-.258.432-.545.934-.545.732 0 1.162.742 1.162.742.093.168.275.27.468.258a.504.504 0 0 0 .434-.314s.254-.686.986-.686c.825 0 1.23 1.023 1.23 1.023a.5.5 0 0 0 .756.236s.37-.259.964-.259c.132 0 .459.117.709.377.25.262.441.63.441 1.123v7.5c0 1.928-1.572 3.5-3.5 3.5h-4.701a3.472 3.472 0 0 1-2.059-.656l-7.697-5.598-.035-.025c-.375-.223-.508-.53-.508-.721 0-.123.08-.404.277-.615.198-.21.494-.385 1.024-.385.338 0 .484.104.924.268.002.002.004.002.007.003.278.1 1.467.612 2.528 1.08 1.062.47 2.035.905 2.035.905a.5.5 0 0 0 .705-.457V370a1 1 0 0 1 1-1zm0-1c-1.098 0-2 .902-2 2v12.031c-.373-.168-.639-.287-1.336-.594-1.06-.468-2.166-.953-2.588-1.105-.363-.135-.715-.332-1.275-.332-.774 0-1.375.299-1.754.701-.377.403-.547.873-.547 1.299 0 .596.354 1.178.957 1.555l7.7 5.6.001.001c.783.56 1.694.844 2.64.844H1058c2.473 0 4.5-2.027 4.5-4.5V378a2.6 2.6 0 0 0-.72-1.814c-.415-.428-.913-.686-1.43-.686-.432 0-.787.104-1.055.209-.262-.486-.758-1.209-1.895-1.209-.7 0-1.175.338-1.482.674-.336-.334-.836-.674-1.568-.674-.346 0-.598.133-.85.258V370c0-1.098-.902-2-2-2z"/></defs><g><g transform="translate(-1042 -368)"><use fill="#1dbacb" xlink:href="#wgi8a"/></g></g></svg>