<svg xmlns="http://www.w3.org/2000/svg" xmlns:xlink="http://www.w3.org/1999/xlink" width="80" height="79" viewBox="0 0 80 79"><defs><path id="fj7ja" d="M1141.713 492.797c-.788 0-1.428.642-1.428 1.433v2.866c0 .791.64 1.433 1.428 1.433.789 0 1.429-.642 1.429-1.433v-2.866c0-.79-.64-1.433-1.429-1.433zm-7.142 0c-.789 0-1.429.642-1.429 1.433v2.866c0 .791.64 1.433 1.429 1.433.788 0 1.428-.642 1.428-1.433v-2.866c0-.79-.64-1.433-1.428-1.433zm-7.143 0c-.788 0-1.428.642-1.428 1.433v2.866c0 .791.64 1.433 1.428 1.433.789 0 1.429-.642 1.429-1.433v-2.866c0-.79-.64-1.433-1.429-1.433zm48.57-2.866h9.408l-9.408 9.438zm-20-35.823c3.152 0 5.715 2.57 5.715 5.731 0 3.162-2.563 5.732-5.714 5.732-3.152 0-5.714-2.57-5.714-5.732 0-3.16 2.562-5.731 5.714-5.731zm0-2.866c-4.726 0-8.57 3.856-8.57 8.597 0 4.742 3.844 8.598 8.57 8.598 4.728 0 8.572-3.856 8.572-8.598 0-4.741-3.844-8.597-8.571-8.597zm-.022-13.87l31.503 27.936c-.017.089-.053.17-.053.263v21.494h-11.428a2.864 2.864 0 0 0-2.857 2.866v11.464h-5.714v-22.927a2.864 2.864 0 0 0-2.857-2.866h-17.143a2.864 2.864 0 0 0-2.857 2.866v22.927h-19.999v-37.257c0-.046-.02-.086-.025-.131zm.064-8.467l37.1 32.978-.042 4.587-35.23-31.245a2.842 2.842 0 0 0-1.892-.714c-.657 0-1.315.225-1.844.672l-35.275 29.896-.064-4.568 37.141-31.586.076.011zm-.016-2.905a2.847 2.847 0 0 0-1.964.764l-37.181 31.62a2.884 2.884 0 0 0-.879 2.068v4.627c0 1.149.683 2.183 1.735 2.636 1.058.45 2.272.229 3.033-.506l.946-.8v34.986a2.864 2.864 0 0 0 2.857 2.866h20a2.864 2.864 0 0 0 2.856-2.866v-22.927h17.143v22.927a2.864 2.864 0 0 0 2.857 2.866h6.55c.764 0 1.48-.298 2.02-.84l13.45-13.49c.54-.541.836-1.26.836-2.026v-20.109l.879.778a2.854 2.854 0 0 0 4.838-2.065v-4.626c0-.776-.324-1.532-.924-2.108l-37.1-32.977a2.848 2.848 0 0 0-1.952-.798z"/></defs><g><g transform="translate(-1116 -426)"><use fill="#1dbacb" xlink:href="#fj7ja"/></g></g></svg>