<svg xmlns="http://www.w3.org/2000/svg" xmlns:xlink="http://www.w3.org/1999/xlink" width="46" height="46" viewBox="0 0 46 46"><defs><path id="1hz0a" d="M286.906 589.969c-.043.008-.086.02-.125.031a.994.994 0 0 0-.781.703c-.105.367.004.758.281 1.016l6.281 6.281h-21.656c-.55.027-.98.496-.953 1.047.027.55.496.98 1.047.953h21.563l-6.282 6.281a1.014 1.014 0 0 0 0 1.438c.399.398 1.04.398 1.438 0l7.844-7.875a.953.953 0 0 0 .156-.125c.023-.032.043-.063.062-.094a.472.472 0 0 0 .063-.063.842.842 0 0 0 .094-.187.466.466 0 0 0 .03-.063v-.03c.012-.032.024-.063.032-.095a1.047 1.047 0 0 0 0-.312v-.063-.03a.466.466 0 0 0-.031-.063v-.032a.466.466 0 0 0-.031-.062v-.031a.466.466 0 0 0-.032-.063l-.031-.031a.466.466 0 0 0-.031-.063.953.953 0 0 0-.125-.156h-.031a.472.472 0 0 0-.063-.062l-7.906-7.938a1.004 1.004 0 0 0-.813-.312zM283 578c11.61 0 21 9.39 21 21s-9.39 21-21 21-21-9.39-21-21 9.39-21 21-21zm0-2c-12.691 0-23 10.309-23 23s10.309 23 23 23 23-10.309 23-23-10.309-23-23-23z"/></defs><g><g transform="matrix(-1 0 0 1 306 -576)"><g><use fill="#ced8e7" xlink:href="#1hz0a"/></g></g></g></svg>