<svg xmlns="http://www.w3.org/2000/svg" xmlns:xlink="http://www.w3.org/1999/xlink" width="80" height="80" viewBox="0 0 80 80"><defs><path id="hdexa" d="M914.938 484.132a21.522 21.522 0 0 0 5.386 5.374l-2.252 2.247c-.476.475-1.314.475-1.79 0l-3.592-3.583a1.26 1.26 0 0 1 0-1.796zm2.237-8.9c-.323 0-.645.124-.893.37a1.25 1.25 0 0 0 0 1.788l1.79 1.788a1.276 1.276 0 0 0 1.801 0 1.26 1.26 0 0 0 0-1.788l-1.8-1.787a1.264 1.264 0 0 0-.898-.37zm4.489-4.49a1.28 1.28 0 0 0-.898.372 1.264 1.264 0 0 0 0 1.791l5.392 5.374c.243.248.57.371.898.371.322 0 .65-.123.892-.37a1.255 1.255 0 0 0 0-1.792l-5.382-5.374a1.283 1.283 0 0 0-.902-.371zm4.494-4.489c-.328 0-.65.119-.903.366a1.266 1.266 0 0 0 0 1.792l1.8 1.788c.244.247.571.37.893.37.328 0 .655-.123.898-.37a1.25 1.25 0 0 0 0-1.788l-1.79-1.792a1.276 1.276 0 0 0-.898-.366zm4.489-4.494c-.328 0-.65.124-.898.372a1.267 1.267 0 0 0 0 1.8l5.382 5.388a1.273 1.273 0 0 0 1.8 0 1.27 1.27 0 0 0 0-1.796l-5.391-5.392a1.259 1.259 0 0 0-.893-.372zm4.484-4.49c-.322 0-.645.124-.893.377a1.255 1.255 0 0 0 0 1.79l1.79 1.802c.249.243.576.372.904.372.322 0 .65-.13.897-.372.496-.501.496-1.3 0-1.801l-1.8-1.791a1.246 1.246 0 0 0-.898-.377zm4.489-4.485c-.322 0-.645.12-.898.372a1.261 1.261 0 0 0 0 1.788l5.392 5.386c.248.248.57.372.898.372a1.267 1.267 0 0 0 .898-2.165l-5.387-5.381a1.261 1.261 0 0 0-.903-.372zm4.494-4.49c-.322 0-.65.12-.898.367a1.27 1.27 0 0 0 0 1.796l1.796 1.787c.248.248.57.371.898.371.327 0 .65-.123.898-.37a1.259 1.259 0 0 0 0-1.788l-1.796-1.796a1.266 1.266 0 0 0-.898-.366zm-.006-4.122l16.157 16.164-28.987 28.99a3.799 3.799 0 0 1-4.196.81l-1.939-.834a18.95 18.95 0 0 1-9.997-10.004l-.834-1.94a3.793 3.793 0 0 1 .804-4.196zm.006-6.658c.322 0 .65.124.898.372l6.285 6.283 8.978 8.98 6.285 6.279a1.275 1.275 0 0 1 0 1.8c-.492.49-1.3.496-1.796 0l-21.548-21.542a1.28 1.28 0 0 1-.005-1.8c.248-.248.576-.372.903-.372zm17.961-.525l2.694 2.691 2.688 2.697-7.182 7.178-5.387-5.389zm-1.8-8.454c.327 0 .65.124.903.372l14.365 14.367a1.279 1.279 0 0 1 0 1.796c-.481.481-1.32.481-1.8 0l-2.694-2.689-2.49-2.495-9.182-9.183a1.27 1.27 0 0 1 .898-2.168zm0-2.535c-.972 0-1.95.367-2.689 1.111a3.77 3.77 0 0 0-1.12 2.694 3.77 3.77 0 0 0 1.12 2.693l2.689 2.694-7.183 7.182-6.284-6.285a3.808 3.808 0 1 0-5.387 5.387l.897.903-28.993 28.993a6.313 6.313 0 0 0-1.349 6.99l.834 1.939c.233.545.496 1.071.768 1.587l-2.688 2.688a3.786 3.786 0 0 0-1.116 2.694c0 1.017.397 1.974 1.116 2.693l.898.898-12.416 12.416a1.27 1.27 0 0 0 .898 2.167c.327 0 .65-.124.898-.367l12.415-12.42.898.898a3.786 3.786 0 0 0 2.694 1.116 3.786 3.786 0 0 0 2.693-1.116l2.689-2.684c.52.273 1.046.536 1.587.764l1.94.833a6.31 6.31 0 0 0 6.99-1.344l28.996-28.998.898.898a3.796 3.796 0 0 0 2.694 1.111c.977 0 1.95-.367 2.698-1.111a3.811 3.811 0 0 0-.005-5.382l-6.285-6.29 7.183-7.182 2.693 2.693a3.786 3.786 0 0 0 2.694 1.116 3.786 3.786 0 0 0 2.693-1.116 3.808 3.808 0 0 0 0-5.387l-14.365-14.365a3.759 3.759 0 0 0-2.693-1.111z"/></defs><g><g transform="translate(-899 -426)"><use fill="#1dbacb" xlink:href="#hdexa"/></g></g></svg>