<svg xmlns="http://www.w3.org/2000/svg" xmlns:xlink="http://www.w3.org/1999/xlink" width="178" height="42" viewBox="0 0 178 42"><defs><path id="5zmsa" d="M648.656 883.964c1.379 0 2.758-.004 4.136 0 .656.001.762.126.787.772.08 2.072-.152 4.075-1.068 5.992-2.08 4.352-7.072 6.723-11.753 5.503-2.175-.567-3.97-1.679-5.367-3.384-2.44-2.973-2.941-6.333-2.02-9.97a8.275 8.275 0 0 1 1.427-2.963c1.703-2.208 3.924-3.826 6.824-4.245 4.408-.638 8.39 1.327 10.603 5.146.234.403.103.61-.378.615-1.301.011-2.602.002-3.904.006-.4.002-.698-.208-.987-.429-1.899-1.448-3.975-1.779-6.152-.76-2.132.995-3.338 2.73-3.584 5.03-.292 2.738.73 4.923 3.16 6.353 3.306 1.944 7.125.15 8.494-3.04.158-.368.039-.46-.34-.455-1.358.015-2.717.01-4.078.006-.664-.001-.776-.115-.778-.767-.002-.837 0-1.673.002-2.51.001-.794.099-.897.897-.899 1.36-.003 2.72-.001 4.079-.001z"/><path id="5zmsb" d="M688.981 885.206c0 3.163.004 6.326-.005 9.49 0 .276.143.646-.228.786-.374.142-.783.17-1.145-.072-.45-.298-.764-.735-1.14-1.111-1.376-1.379-2.762-2.748-4.133-4.131-1.942-1.96-3.872-3.93-5.818-5.886-.145-.145-.286-.45-.49-.369-.252.1-.114.42-.114.64-.005 3.32.002 6.642.006 9.963.001.882-.14 1.017-1.047 1.015-.858-.001-1.715.002-2.574.002-.814 0-.97-.154-.97-.975-.001-6.326-.004-12.652-.001-18.979 0-.32-.136-.788.27-.884.473-.11 1.027-.236 1.46.209.926.949 1.853 1.898 2.786 2.838 2.423 2.44 4.85 4.877 7.274 7.317.346.348.674.718 1.022 1.065.102.1.199.3.387.193.138-.077.07-.251.07-.381.002-1.78 0-3.558-.001-5.338-.002-1.681-.004-3.362-.002-5.04 0-.71.145-.868.868-.878.917-.012 1.835-.005 2.753.002.522.003.788.22.784.795-.017 3.242-.008 6.483-.008 9.727l-.004.002z"/><path id="5zmsc" d="M655.567 885.58v-9.218c0-.738.08-.81.857-.81 3.62 0 7.24 0 10.86-.002.981 0 1.079.092 1.06 1.053-.014.667-.058 1.335-.036 2.002.017.532-.21.703-.738.7-2.275-.017-4.55.008-6.824-.022-.52-.006-.69.123-.673.634.031.972.014 1.948-.032 2.918-.024.515.17.647.682.642 2.156-.024 4.314-.011 6.47-.011.744 0 .889.142.889.878 0 .687-.007 1.375 0 2.061.005.515-.21.761-.78.758-2.216-.017-4.431.003-6.647-.018-.458-.005-.626.105-.614.57.03 1.163.024 2.328.002 3.492-.007.394.118.523.537.52 2.315-.019 4.63-.009 6.944-.009.678 0 .8.11.808.756.01.82-.002 1.64.005 2.463.003.449-.197.655-.681.653a2383.14 2383.14 0 0 0-11.394.005c-.551.002-.705-.236-.702-.736.015-3.091.009-6.182.009-9.276.001-.003 0-.003-.002-.003z"/><path id="5zmsd" d="M556.862 881.459v.674l.002 12.584c0 .776-.08.865-.854.874-1.91.02-1.74.057-1.738-1.646.003-5.835 0-11.668.007-17.503 0-.322-.14-.75.346-.858.46-.102.81.018 1.132.457 2.137 2.92 4.32 5.809 6.482 8.71.382.513.76 1.028 1.106 1.563.226.352.357.28.568-.008 2.262-3.07 4.535-6.133 6.804-9.198.285-.386.583-.762.852-1.156.226-.332.537-.406.913-.383.31.018.468.157.465.464-.002.113 0 .229 0 .343v18.304c0 .79-.107.9-.905.906-1.807.013-1.679.115-1.677-1.636.005-3.985.003-7.97.002-11.955 0-.185.06-.381-.1-.614-.561.752-1.11 1.48-1.654 2.211-1.54 2.071-3.085 4.139-4.61 6.22-.33.45-.53.291-.783-.05-1.617-2.18-3.238-4.353-4.86-6.53-.454-.61-.911-1.218-1.366-1.826a4.39 4.39 0 0 1-.132.053z"/><path id="5zmse" d="M606.291 883.956c1.345 0 2.687-.005 4.031.002.713.003.989.259.982.953-.018 1.881-.394 3.674-1.343 5.344a10.538 10.538 0 0 1-4.43 4.262c-1.963 1.011-4.056 1.28-6.215.923-4.622-.76-7.786-4.293-8.514-8.563a10.553 10.553 0 0 1 6.495-11.6c4.1-1.643 9.062-.26 11.797 3.324.36.471.687.96.958 1.484.171.33.102.527-.32.51-.1-.003-.203-.012-.3.002-1.13.157-1.92-.185-2.698-1.112-1.445-1.726-3.43-2.622-5.765-2.632-3.174-.013-6.214 2.086-7.38 5.074-1.441 3.696-.288 7.723 2.853 9.944 4.633 3.272 10.56.632 11.908-3.796.127-.417.354-.804.458-1.242.116-.482.02-.647-.529-.639-2.024.03-4.051-.007-6.075.025-.602.01-.78-.258-.793-.76-.002-.078 0-.156 0-.235-.004-1.207.059-1.27 1.27-1.268 1.205.002 2.407.002 3.61 0z"/><path id="5zmsf" d="M575.902 885.555c0-3.025-.002-6.052 0-9.077 0-.821.109-.928.923-.928 3.34 0 6.682 0 10.023.002.647 0 .812.153.847.79.011.209.008.418 0 .627-.023.651-.169.791-.82.791-2.636 0-5.27.008-7.905-.01-.415-.003-.563.088-.558.532.024 1.902.021 3.807 0 5.71-.005.453.14.582.59.578 2.558-.02 5.118-.011 7.676-.013.857 0 1.004.142 1.008.981 0 .152.004.305 0 .456-.016.64-.14.765-.784.765-2.596 0-5.193.012-7.789-.018-.561-.006-.713.168-.703.713.031 1.789.028 3.578 0 5.365-.008.486.147.597.612.594 2.616-.021 5.232-.011 7.847-.01.664 0 .8.135.824.794.002.037 0 .075 0 .113.015 1.274.002 1.285-1.248 1.285l-9.624-.001c-.845 0-.921-.074-.921-.907 0-3.043 0-6.088.002-9.132z"/><path id="5zmsg" d="M620.683 888.502c1.26 0 2.518-.018 3.778.01.496.012.603-.077.383-.523-1.32-2.676-2.615-5.359-3.924-8.039-.054-.111-.05-.297-.229-.3-.176-.003-.184.17-.24.287-1.305 2.723-2.594 5.45-3.927 8.161-.225.46-.005.41.322.407 1.278-.008 2.557-.004 3.837-.003zm.014 2.178c-1.607 0-3.215.02-4.822-.011-.47-.01-.68.15-.855.528-.567 1.231-1.191 2.442-1.746 3.678-.24.537-.584.778-1.207.709-.32-.036-.651-.003-.977-.007-.8-.005-.93-.17-.603-.836.674-1.366 1.38-2.72 2.048-4.087.493-1.009.966-2.032 1.487-3.025.79-1.508 1.547-3.03 2.323-4.546a534.342 534.342 0 0 0 3.503-6.982c.2-.403.465-.55.937-.551.464 0 .693.18.874.551 1.503 3.079 3.023 6.15 4.535 9.227 1.545 3.146 3.086 6.295 4.63 9.44.295.603.172.813-.528.806-2.205-.021-1.596.276-2.499-1.512-.5-.992-1.015-1.978-1.473-2.988-.151-.333-.348-.402-.686-.399-1.645.01-3.293.003-4.941.005z"/><path id="5zmsh" d="M629.98 877.014c0 1.5-.02 3.004.01 4.505.01.51-.225.716-.814.71-2.525-.024-2.101.217-2.12-1.706-.024-2.653-.01-5.305-.008-7.957 0-.738.124-.836 1.02-.835 2.234 0 1.898-.108 1.912 1.598.012 1.23.002 2.457.002 3.686l-.002-.001z"/><path id="5zmsi" d="M541.83 883.45h-11.117v2.873c0 1.86-1.567 3.385-3.482 3.385h-6.371v13.862c0 2.432 2.046 4.421 4.547 4.421h16.423c2.501 0 4.548-1.99 4.548-4.42v-15.698c0-2.434-2.047-4.423-4.548-4.423z"/><path id="5zmsj" d="M525.412 883.45h5.306v-5.894h-1.398c-1.194 0-2.173-.95-2.173-2.113v-4.263h-12.215c-1.915 0-3.482 1.524-3.482 3.385v11.757c0 1.86 1.567 3.385 3.482 3.385h5.93v-1.837c.003-2.43 2.05-4.42 4.55-4.42z"/><path id="5zmsk" d="M530.713 886.323v-2.873h-5.306c-2.5 0-4.547 1.99-4.547 4.421v1.837h6.371c1.915 0 3.482-1.524 3.482-3.385z"/><path id="5zmsl" d="M530.71 874.56v2.989h5.78v-2.868c0-.857.72-1.557 1.601-1.557h1.058v-5.012c0-1.16-.977-2.112-2.173-2.112h-7.663c-1.194 0-2.173.95-2.173 2.112v3.061h.087c1.916 0 3.484 1.524 3.484 3.387z"/><path id="5zmsm" d="M529.311 877.554h1.398v-2.989c0-1.861-1.567-3.385-3.482-3.385h-.087v4.263c0 1.161.977 2.111 2.171 2.111z"/><path id="5zmsn" d="M536.976 877.555h-.486v1.332c0 .857.72 1.557 1.601 1.557h4.662c.882 0 1.602-.7 1.602-1.557v-4.2c0-.857-.72-1.557-1.602-1.557h-3.603v2.312c-.001 1.163-.978 2.113-2.174 2.113z"/><path id="5zmso" d="M536.49 874.687v2.868h.486c1.194 0 2.173-.95 2.173-2.113v-2.312h-1.058c-.88.002-1.601.702-1.601 1.557z"/><path id="5zmsp" d="M541.548 907.754c2.501 0 4.547-1.99 4.547-4.421V889.7c-9.69 2.774-17.728 9.3-22.335 17.848.431.133.89.204 1.364.204h16.424z"/><path id="5zmsr" d="M527.291 889.212c2.43 0 4.42-1.933 4.42-4.297V871.67c-9.415 2.696-17.224 9.035-21.701 17.34.42.13.864.2 1.326.2h15.955z"/><path id="5zmst" d="M530.566 876.572c-1.126 0-2.046-.895-2.046-1.99v-6.132c4.36 1.248 7.976 4.183 10.048 8.03-.193.06-.4.094-.614.094h-7.388z"/><radialGradient id="5zmsq" cx="534.93" cy="898.73" r="10.27" gradientUnits="userSpaceOnUse"><stop offset="0" stop-color="#fff"/><stop offset="1" stop-color="#fff" stop-opacity="0"/></radialGradient><radialGradient id="5zmss" cx="520.86" cy="880.44" r="9.98" gradientUnits="userSpaceOnUse"><stop offset="0" stop-color="#fff"/><stop offset="1" stop-color="#fff" stop-opacity="0"/></radialGradient><radialGradient id="5zmsu" cx="533.55" cy="872.51" r="4.62" gradientUnits="userSpaceOnUse"><stop offset="0" stop-color="#fff"/><stop offset="1" stop-color="#fff" stop-opacity="0"/></radialGradient></defs><g><g transform="translate(-511 -866)"><g><use fill="#a8b6cc" xlink:href="#5zmsa"/></g><g><use fill="#a8b6cc" xlink:href="#5zmsb"/></g><g><use fill="#a8b6cc" xlink:href="#5zmsc"/></g><g><use fill="#a8b6cc" xlink:href="#5zmsd"/></g><g><use fill="#a8b6cc" xlink:href="#5zmse"/></g><g><use fill="#a8b6cc" xlink:href="#5zmsf"/></g><g><use fill="#a8b6cc" xlink:href="#5zmsg"/></g><g><use fill="#a8b6cc" xlink:href="#5zmsh"/></g><g><g><use fill="#a8b6cc" xlink:href="#5zmsi"/></g><g><use fill="#a8b6cc" xlink:href="#5zmsj"/></g><g><use fill="#a8b6cc" xlink:href="#5zmsk"/></g><g><use fill="#a8b6cc" xlink:href="#5zmsl"/></g><g><use fill="#a8b6cc" xlink:href="#5zmsm"/></g><g><use fill="#a8b6cc" xlink:href="#5zmsn"/></g><g><use fill="#a8b6cc" xlink:href="#5zmso"/></g><g><use fill="#a8b6cc" xlink:href="#5zmsi"/></g><g opacity=".4"><use fill="url(#5zmsq)" xlink:href="#5zmsp"/></g><g opacity=".4"><use fill="url(#5zmss)" xlink:href="#5zmsr"/></g><g opacity=".4"><use fill="url(#5zmsu)" xlink:href="#5zmst"/></g></g></g></g></svg>