<svg xmlns="http://www.w3.org/2000/svg" xmlns:xlink="http://www.w3.org/1999/xlink" width="134" height="49" viewBox="0 0 134 49"><defs><path id="qlhnd" d="M360.6 867.89c2.09 0 4.112.005 6.133-.002.588-.002.51.393.51.75l-.002 7.058v.926h4.007c.799 0 1.6-.04 2.395.011.704.046.945-.173.935-.88-.04-2.57-.016-5.14-.016-7.836.608 0 1.166.002 1.723 0 1.455-.009 2.91-.007 4.363-.037.486-.01.645.162.643.627-.02 5.397-.026 10.794-.034 16.19-.002 1.6 0 3.199 0 4.844h-6.697v-1.02c0-2.269-.019-4.539.011-6.808.008-.592-.21-.772-.79-.766-1.91.02-3.822.036-5.732-.011-.719-.018-.857.254-.85.874.027 2.567.01 5.134.01 7.743H360.6z"/><path id="qlhne" d="M435.359 884.165v5.39h-6.769s.008-14.525.007-21.477c0-.373-.04-.716.532-.76 3.85-.29 7.703-.619 11.554-.12 1.848.238 3.63.734 5.1 2.006 1.582 1.368 2.336 3.103 2.477 5.14.16 2.323-.178 4.499-1.653 6.43-1.73 2.268-4.147 3.124-6.84 3.368-1.413.129-2.848.023-4.408.023m-.027-13.285v8.764c0 .085-.038.201.004.25.17.197.357.527.551.536 3.95.193 6.133-1.641 5.743-5.772-.159-1.676-1.056-2.91-2.737-3.33-1.112-.278-2.29-.298-3.56-.448"/><path id="qlhnf" d="M342.599 889.555h-6.629v-22.328c1.39-.099 2.782-.285 4.172-.278 2.83.015 5.692-.112 8.481.26 6.865.916 7.97 6.717 6.46 11.341-1.206 3.698-4.237 5.107-7.853 5.516-1.248.14-2.517.14-3.776.14-.635 0-.871.23-.862.848.02 1.476.007 2.953.007 4.501m.002-13.997h.004c0 1.365-.02 2.73.02 4.095.006.236.245.661.4.671 3.287.221 6.067-.87 6.01-5.061-.035-2.52-1.18-3.81-3.67-4.279-.668-.126-1.368-.077-2.053-.125-.513-.036-.724.175-.717.689.017 1.336.006 2.673.006 4.01"/><path id="qlhna" d="M449.8 866.58h18.02v23.78H449.8z"/><path id="qlhnh" d="M466.327 871.968c-2.196-.78-4.313-1.128-6.487-1.038-.45.018-.913.057-1.341.188-.707.215-1.308.61-1.403 1.458-.095.842.257 1.51.955 1.896.87.479 1.784.875 2.695 1.268 1.277.55 2.617.969 3.843 1.618 2.216 1.173 3.31 3.103 3.227 5.695-.085 2.656-1.132 4.728-3.492 5.962-2.432 1.272-5.071 1.444-7.715 1.305-1.746-.092-5.216-.712-5.216-.712l-.47-.292s-.927-3.549-1.123-4.946c1.266.374 2.428.84 3.632 1.043 1.613.272 3.257.44 4.89.47 1.537.027 2.508-.713 2.73-1.758.23-1.085-.35-2.014-1.838-2.688-1.19-.537-2.457-.89-3.648-1.425a17.197 17.197 0 0 1-2.753-1.53c-2.35-1.627-2.712-4.065-2.255-6.671.405-2.305 1.975-3.688 4.036-4.45 2.54-.937 5.187-.851 7.827-.653.93.07 1.86.214 2.774.404.255.054.615.372.65.612.201 1.347.318 2.708.482 4.244"/><path id="qlhni" d="M411.834 885.39l-1.534 4.148c-4.012.026-8.025.012-12.037.004-.054 0-.108-.04-.223-.084v-21.572c1.07 0 2.156-.002 3.243 0 .95.004 1.905.067 2.85.002.676-.047.865.109.861.753-.027 5.199-.016 10.398-.014 15.596 0 1.136.006 1.146 1.219 1.151 1.836.009 5.635.002 5.635.002"/><path id="qlhnj" d="M392.997 889.553h-6.76v-.868c-.002-6.675.002-13.35-.017-20.025-.001-.555.116-.793.765-.78 1.78.038 3.56.03 5.341.004.547-.008.793.122.791.689-.018 6.896-.018 13.792-.027 20.688 0 .078-.048.155-.093.292"/><path id="qlhnk" d="M413.932 867.88h6.775v21.673h-6.897s.016-14.47.022-21.448c0-.05.043-.1.1-.225"/><path id="qlhnl" d="M410.85 913.061h-3.207l-1.018-12.167-.158-.022c-.092.165-.2.324-.274.496-1.58 3.687-3.16 7.373-4.731 11.063-.165.387-.291.693-.863.686-.55-.007-.705-.267-.877-.67-1.56-3.664-3.136-7.321-4.709-10.98-.087-.203-.184-.402-.441-.586l-1.148 12.162h-1.294l1.403-14.959c1.053 0 2.07-.03 3.082.028.19.011.421.357.523.592 1.404 3.228 2.787 6.464 4.177 9.698.067.156.14.31.273.603.156-.279.273-.449.352-.633 1.362-3.183 2.734-6.362 4.063-9.557.236-.567.528-.82 1.184-.769.716.056 1.44.013 2.29.013l1.374 15.002"/><path id="qlhnb" d="M334 896.43h18.39v16.538H334z"/><path id="qlhnn" d="M352.39 896.43c-.195.413-.27.762-.482.996-3.871 4.288-7.759 8.561-11.642 12.839-.364.401-.72.81-1.218 1.372h12.11v1.331H334c.248-.45.37-.827.616-1.098 3.956-4.36 7.929-8.707 11.897-13.058.26-.285.515-.576.903-1.01h-11.682v-1.372z"/><path id="qlhno" d="M361.026 914.057c-4.84-.032-8.351-3.272-8.306-7.667.044-4.239 3.685-7.441 8.424-7.41 4.769.032 8.345 3.293 8.326 7.592-.02 4.295-3.653 7.516-8.444 7.485m-4.763-7.617c-.02 1.957.464 3.79 1.311 4.962 1.81 2.503 5 2.586 6.95.18 2.032-2.507 2.038-7.625.012-10.145-1.91-2.376-5.367-2.242-7.038.272-.97 1.461-1.208 3.074-1.235 4.73"/><path id="qlhnp" d="M380.781 914.057c-4.76.007-8.365-3.258-8.351-7.566.014-4.292 3.63-7.517 8.423-7.511 4.774.006 8.343 3.252 8.327 7.575-.015 4.325-3.562 7.494-8.399 7.502m5.015-7.183c-.031-2.348-.48-3.949-1.369-5.236-1.705-2.47-5.423-2.608-7.018-.115-2.062 3.223-2.065 6.643-.05 9.876 1.666 2.673 5.242 2.586 7.065-.027 1.036-1.486 1.364-3.143 1.372-4.498"/><path id="qlhnq" d="M418.544 909.35h-1.633l-1.131-12.25h3.941c-.391 4.08-.781 8.13-1.177 12.25"/><path id="qlhnc" d="M415.17 911.35h3.21v3.116h-3.21z"/><path id="qlhns" d="M418.38 912.921c.005.82-.739 1.536-1.606 1.545-.9.01-1.598-.65-1.604-1.517a1.59 1.59 0 0 1 1.628-1.599c.851.01 1.577.73 1.582 1.571"/><clipPath id="qlhng"><use xlink:href="#qlhna"/></clipPath><clipPath id="qlhnm"><use xlink:href="#qlhnb"/></clipPath><clipPath id="qlhnr"><use xlink:href="#qlhnc"/></clipPath></defs><g><g transform="translate(-334 -866)"><use fill="#a8b6cc" xlink:href="#qlhnd"/></g><g transform="translate(-334 -866)"><use fill="#a8b6cc" xlink:href="#qlhne"/></g><g transform="translate(-334 -866)"><use fill="#a8b6cc" xlink:href="#qlhnf"/></g><g transform="translate(-334 -866)"><g/><g clip-path="url(#qlhng)"><use fill="#a8b6cc" xlink:href="#qlhnh"/></g></g><g transform="translate(-334 -866)"><use fill="#a8b6cc" xlink:href="#qlhni"/></g><g transform="translate(-334 -866)"><use fill="#a8b6cc" xlink:href="#qlhnj"/></g><g transform="translate(-334 -866)"><use fill="#a8b6cc" xlink:href="#qlhnk"/></g><g transform="translate(-334 -866)"><use fill="#a8b6cc" xlink:href="#qlhnl"/></g><g transform="translate(-334 -866)"><g/><g clip-path="url(#qlhnm)"><use fill="#a8b6cc" xlink:href="#qlhnn"/></g></g><g transform="translate(-334 -866)"><use fill="#a8b6cc" xlink:href="#qlhno"/></g><g transform="translate(-334 -866)"><use fill="#a8b6cc" xlink:href="#qlhnp"/></g><g transform="translate(-334 -866)"><use fill="#a8b6cc" xlink:href="#qlhnq"/></g><g transform="translate(-334 -866)"><g/><g clip-path="url(#qlhnr)"><use fill="#c1c7d0" xlink:href="#qlhns"/></g></g></g></svg>