<svg xmlns="http://www.w3.org/2000/svg" xmlns:xlink="http://www.w3.org/1999/xlink" width="16" height="16" viewBox="0 0 16 16"><defs><path id="p81qa" d="M1163.983 81.357a.894.894 0 0 0-.911.005l-1.423.848a.891.891 0 0 1-1.009-.06 23.157 23.157 0 0 1-2.026-1.766 23.158 23.158 0 0 1-1.765-2.026.891.891 0 0 1-.06-1.008l.847-1.424a.897.897 0 0 0 .004-.913l-2.089-3.567a.9.9 0 0 0-.993-.42c-.378.092-.868.316-1.382.83-1.61 1.61-2.465 4.326 3.589 10.38 6.053 6.053 8.768 5.199 10.378 3.588.515-.515.739-1.006.831-1.385a.896.896 0 0 0-.417-.99c-.86-.502-2.715-1.588-3.574-2.092z"/></defs><g><g transform="translate(-1152 -71)"><use fill="#28bd84" xlink:href="#p81qa"/></g></g></svg>