<svg xmlns="http://www.w3.org/2000/svg" xmlns:xlink="http://www.w3.org/1999/xlink" width="80" height="71" viewBox="0 0 80 71"><defs><path id="fquua" d="M263.349 484.06a1.24 1.24 0 0 0-.935.227l-18.899 13.826a1.267 1.267 0 0 0-.27 1.768 1.256 1.256 0 0 0 1.756.277l18.894-13.826a1.264 1.264 0 0 0 .275-1.768 1.241 1.241 0 0 0-.821-.504zm-10.062-2.09c-.32-.05-.655.02-.935.228l-6.313 4.625a1.274 1.274 0 0 0-.275 1.77c.246.337.63.515 1.018.515.256 0 .517-.074.738-.237l6.313-4.63a1.27 1.27 0 0 0 .275-1.766 1.24 1.24 0 0 0-.821-.505zm44.798-1.329a1.26 1.26 0 0 0-1.25.608l-1.299 2.164a1.265 1.265 0 0 0 1.082 1.916 1.25 1.25 0 0 0 1.078-.612l1.294-2.169a1.261 1.261 0 0 0-.433-1.734 1.217 1.217 0 0 0-.472-.173zm-18.864-.054l2.785 1.761-4.827 6.404zm13.46-3.2c-.482-.07-.982.152-1.252.602l-1.296 2.168a1.273 1.273 0 0 0 .432 1.734 1.245 1.245 0 0 0 1.722-.435l1.296-2.163a1.262 1.262 0 0 0-.432-1.734 1.212 1.212 0 0 0-.47-.173zm-31.707-1.053c-.32-.05-.653.025-.938.232l-3.144 2.302c-.56.41-.682 1.2-.275 1.768a1.261 1.261 0 0 0 1.759.277l3.143-2.307a1.268 1.268 0 0 0-.545-2.272zm26.32-2.203a1.263 1.263 0 0 0-1.259.603l-1.299 2.168a1.271 1.271 0 0 0 1.083 1.917c.428 0 .846-.223 1.082-.613l1.294-2.168a1.27 1.27 0 0 0-.428-1.74 1.359 1.359 0 0 0-.472-.167zm-19.982-11.035a1.258 1.258 0 0 0-1.256.602l-1.29 2.169a1.268 1.268 0 0 0 1.074 1.917c.432 0 .844-.218 1.08-.613l1.295-2.168a1.272 1.272 0 0 0-.903-1.907zm-5.397-3.255a1.247 1.247 0 0 0-1.252.602l-1.295 2.169a1.264 1.264 0 0 0 1.074 1.916c.427 0 .844-.222 1.08-.617l1.295-2.164a1.278 1.278 0 0 0-.431-1.738 1.319 1.319 0 0 0-.471-.168zm-5.39-3.26a1.26 1.26 0 0 0-1.26.606l-1.294 2.164c-.36.596-.168 1.37.428 1.725.206.123.428.187.65.187.427 0 .846-.222 1.082-.616l1.294-2.164a1.257 1.257 0 0 0-.433-1.73 1.197 1.197 0 0 0-.468-.173zm55.37-16.435l-34.401 37.586c-.015.01-.02.035-.03.044-.068.084-.118.188-.167.287-.024.064-.064.114-.079.183-.005.01-.014.02-.02.034l-3.871 15.54-5.83-21.452zm7.622-4.594l-15.484 48.595c-.03-.024-.044-.049-.074-.069a1.254 1.254 0 0 0-1.727.43l-1.299 2.169a1.272 1.272 0 0 0 .433 1.739 1.242 1.242 0 0 0 1.314-.02l-.585 1.833a1.241 1.241 0 0 1-.768.8 1.244 1.244 0 0 1-1.102-.118l-19.858-12.574zm-3.744-1.343l-49.989 36.281-16.389-10.472a1.236 1.236 0 0 1-.576-1.21c.06-.489.364-.88.827-1.047zm4.556-4.204a2.671 2.671 0 0 0-.694.143L248.81 455.38a3.751 3.751 0 0 0-2.49 3.147 3.755 3.755 0 0 0 1.722 3.625l17.029 10.882 5.825 21.448c.305 1.122 1.274 1.867 2.426 1.867h.034a2.503 2.503 0 0 0 2.106-1.19c.059-.06.133-.089.182-.153l8.497-11.302 14.736 9.336a3.743 3.743 0 0 0 3.311.356 3.764 3.764 0 0 0 2.303-2.406l18.386-57.69a2.518 2.518 0 0 0-.644-2.589 2.496 2.496 0 0 0-1.904-.706z"/></defs><g><g transform="translate(-243 -430)"><use fill="#1dbacb" xlink:href="#fquua"/></g></g></svg>