<svg xmlns="http://www.w3.org/2000/svg" xmlns:xlink="http://www.w3.org/1999/xlink" width="25" height="24" viewBox="0 0 25 24"><defs><path id="c60wa" d="M355.845 491.613a.484.484 0 0 1-.265-.078l-7.082-4.445-7.082 4.445a.498.498 0 0 1-.75-.545l2.039-8.107-6.416-5.362a.502.502 0 0 1 .287-.882l8.341-.567 3.116-7.758a.503.503 0 0 1 .465-.314c.203 0 .388.125.464.314l3.116 7.758 8.341.567a.5.5 0 0 1 .288.882l-6.416 5.362 2.039 8.107a.498.498 0 0 1-.485.623z"/></defs><g><g transform="translate(-336 -468)"><use fill="#f5a623" xlink:href="#c60wa"/></g></g></svg>