<svg xmlns="http://www.w3.org/2000/svg" xmlns:xlink="http://www.w3.org/1999/xlink" width="99" height="72" viewBox="0 0 99 72"><defs><path id="l3hza" d="M488.13 460.551c-.198.024-.396.09-.583.199a1.533 1.533 0 0 0-.559 2.097l1.539 2.668c.288.493.8.77 1.334.77.258 0 .523-.073.763-.21.74-.428.992-1.365.571-2.098l-1.538-2.669a1.55 1.55 0 0 0-1.527-.757zm6.659-3.846c-.192.024-.39.09-.577.199a1.531 1.531 0 0 0-.559 2.1l1.539 2.674c.282.493.799.77 1.328.77.264 0 .528-.072.769-.21.74-.428.991-1.367.565-2.101l-1.539-2.673a1.545 1.545 0 0 0-1.526-.759zm6.665-3.846c-.199.024-.391.09-.577.198a1.53 1.53 0 0 0-.565 2.098l1.538 2.668c.289.493.8.77 1.334.77.259 0 .53-.073.77-.211.739-.427.985-1.364.564-2.098l-1.538-2.668a1.55 1.55 0 0 0-1.526-.757zm6.661-3.846a1.43 1.43 0 0 0-.575.198 1.542 1.542 0 0 0-.57 2.101l1.535 2.673c.288.494.804.771 1.337.771a1.54 1.54 0 0 0 1.325-2.312l-1.535-2.673a1.536 1.536 0 0 0-1.517-.758zm6.659-3.846c-.198.024-.396.09-.576.198a1.531 1.531 0 0 0-.563 2.097l1.535 2.669c.288.492.797.769 1.33.769.259 0 .529-.072.769-.21a1.53 1.53 0 0 0 .557-2.098l-1.535-2.668a1.532 1.532 0 0 0-1.517-.757zm-42.064-2.699l31.574 1.683-16.929 9.772-21.322-8.047 3.72-2.572a4.776 4.776 0 0 1 2.957-.836zm48.732-1.148c-.199.025-.397.09-.577.199a1.536 1.536 0 0 0-.571 2.097l1.538 2.668c.289.493.805.77 1.34.77.259 0 .523-.072.77-.21a1.534 1.534 0 0 0 .558-2.098l-1.538-2.668a1.541 1.541 0 0 0-1.52-.758zm6.658-3.846a1.5 1.5 0 0 0-.577.199 1.533 1.533 0 0 0-.565 2.101l1.539 2.673c.288.494.8.77 1.334.77.258 0 .529-.072.77-.21.738-.428.985-1.367.558-2.101l-1.538-2.673a1.53 1.53 0 0 0-1.52-.759zm8.924-5.33a20.48 20.48 0 0 1 3.672.39l3.39.667a1.58 1.58 0 0 1 1.19 1.004c.204.529.12 1.088-.217 1.545l-.12.156a31.3 31.3 0 0 1-9.477 8.413l-4.772 2.759-13.623 7.692a1.53 1.53 0 0 0-.577 2.091c.282.505.799.788 1.34.788.258 0 .517-.067.75-.205l3.559-2-18.973 37.517a4.741 4.741 0 0 1-1.869 1.977l-5.072 2.86 5.15-30.889a1.545 1.545 0 0 0-.637-1.52 1.567 1.567 0 0 0-.883-.276c-.264 0-.529.066-.77.21l-2.577 1.49-23.672 7.452a6.361 6.361 0 0 1-5.691-.973L453.1 462.72l.24-.145a4.74 4.74 0 0 1 2.885-.613l19.249 2.032c.318.036.649-.03.925-.193l11.96-6.905c.006-.006.012-.006.018-.012l38.1-21.995a20.48 20.48 0 0 1 10.547-2.746zm.043-3.071a23.532 23.532 0 0 0-12.128 3.149l-15.763 9.11-36.304-1.94a7.88 7.88 0 0 0-4.868 1.382l-3.726 2.572a3.104 3.104 0 0 0-1.316 2.944 3.117 3.117 0 0 0 2.001 2.536l18.942 7.092-8.605 4.97-18.75-1.983a7.8 7.8 0 0 0-4.748 1.01l-.246.143a3.094 3.094 0 0 0-1.55 2.506 3.105 3.105 0 0 0 1.243 2.68l14.05 10.512a9.43 9.43 0 0 0 8.462 1.442l23.834-7.5c.072-.024.139-.048.21-.084l-4.62 27.686a3.089 3.089 0 0 0 1.291 3.071c.541.373 1.16.559 1.773.559.535 0 1.076-.138 1.563-.42l5.024-2.903a7.754 7.754 0 0 0 3.077-3.252l21.01-41.544L537 446.988a34.317 34.317 0 0 0 10.403-9.231l.12-.162a4.657 4.657 0 0 0 .625-4.49 4.67 4.67 0 0 0-3.467-2.92l-3.384-.667a23.464 23.464 0 0 0-4.23-.445z"/></defs><g><g transform="translate(-450 -429)"><use fill="#1dbacb" xlink:href="#l3hza"/></g></g></svg>