<svg xmlns="http://www.w3.org/2000/svg" xmlns:xlink="http://www.w3.org/1999/xlink" width="18" height="25" viewBox="0 0 18 25"><defs><path id="2tmra" d="M1147 640.003v17h18v-17h-5a.503.503 0 0 0-.44.248.505.505 0 0 0 0 .504c.092.156.26.25.44.248h4v15h-16v-15h4a.503.503 0 0 0 .44-.248.505.505 0 0 0 0-.504.503.503 0 0 0-.44-.248zm9-7.703l-.36.344-4 4a.507.507 0 1 0 .719.719l3.141-3.141v13.781a.503.503 0 0 0 .248.44c.156.09.348.09.504 0a.503.503 0 0 0 .248-.44v-13.781l3.14 3.14c.2.2.52.2.72 0 .199-.199.199-.519 0-.718l-4-4z"/></defs><g><g transform="translate(-1147 -632)"><g><use fill="#fff" xlink:href="#2tmra"/></g></g></g></svg>