<svg xmlns="http://www.w3.org/2000/svg" xmlns:xlink="http://www.w3.org/1999/xlink" width="36" height="36" viewBox="0 0 36 36"><defs><path id="adkra" d="M221.055 479.352c-.385 1.066-2.232 2.038-3.12 2.169-.796.117-1.804.167-2.91-.18a27.085 27.085 0 0 1-2.635-.963c-4.636-1.976-7.663-6.585-7.894-6.89-.231-.304-1.887-2.473-1.887-4.719 0-2.245 1.193-3.35 1.617-3.806.425-.457.925-.572 1.233-.572.308 0 .616.004.886.017.284.014.665-.107 1.04.783.385.914 1.31 3.16 1.424 3.389.115.228.192.495.039.8-.154.304-.23.494-.462.761s-.485.595-.693.8c-.232.228-.472.474-.203.931.27.457 1.197 1.951 2.57 3.161 1.766 1.554 3.255 2.037 3.717 2.265.461.229.731.19 1-.114.27-.305 1.156-1.333 1.463-1.79.308-.455.616-.38 1.04-.228.425.152 2.696 1.256 3.158 1.484.462.229.77.343.886.533.116.19.116 1.104-.27 2.169zM212 455c-9.925 0-18 8.075-18 18 0 3.1.8 6.147 2.319 8.836l-2.29 8.17a.782.782 0 0 0 .942.971l8.527-2.112A18.011 18.011 0 0 0 212 491c9.925 0 18-8.075 18-18s-8.075-18-18-18z"/></defs><g><g transform="translate(-194 -455)"><use fill="#fff" xlink:href="#adkra"/></g></g></svg>