<?xml version="1.0" encoding="utf-8"?>
<!-- Generator: Adobe Illustrator 21.0.0, SVG Export Plug-In . SVG Version: 6.00 Build 0)  -->
<svg version="1.1" id="Слой_1" xmlns="http://www.w3.org/2000/svg" xmlns:xlink="http://www.w3.org/1999/xlink" x="0px" y="0px"
	 width="30px" height="30px" viewBox="0 0 30 30" style="enable-background:new 0 0 30 30;" xml:space="preserve">
<style type="text/css">
	.st0{fill:#FF9900;}
	.st1{fill:#FFCC00;}
	.st2{fill:#FFEC00;}
	.st3{fill:#669900;}
	.st4{fill:#C12700;}
	.st5{fill:#820F00;}
	.st6{fill:#EEEEEE;}
</style>
<g id="ici_x5F_win">
	<g id="c">
		<path class="st0" d="M27.9,26.3c-1.6-5.1-3.8-9.8-6.7-14.5c-1.6-2.6-3.3-5.1-5-7.7c-1.9-3-0.9-3-3.4-4.1c-0.2-0.1-0.3,0.1-0.3,0.3
			c0,0,0,0,0,0c0,0,0,0,0,0c-2.2,3.2-3.9,6.9-6,10.3c-2.1,3.4-6.7,7-6.6,11.6c0,0.9,1.2,1.5,1.7,0.8c0,0,0,0,0,0
			c3.2,1,6.8,1.1,10,1.7c4.7,0.9,9.3,2.1,14,3.3c0.4,0.1,0.7,0,0.9-0.3C27.4,27.9,28.3,27.4,27.9,26.3z"/>
		<path class="st1" d="M27,24.6c-1.4-4.6-3.4-8.8-5.8-13c-1.6-2.5-3.2-5-4.9-7.5c-0.4-0.7-0.7-1.2-1-1.6c0,0,0,0,0,0
			c-0.4-0.7-0.7-1.2-0.9-1.6c-0.3-0.3-0.7-0.5-1.5-0.8c-0.2-0.1-0.3,0.1-0.3,0.3c0,0,0,0,0,0c0,0,0,0,0,0c-2.2,3.2-3.9,6.9-6,10.3
			c-2,3.3-6.3,6.7-6.6,11c0.3,0,0.5-0.1,0.7-0.3c0,0,0,0,0,0c3.2,1,6.8,1.1,10,1.7c4.7,0.9,9.3,2.1,14,3.3c0.4,0.1,0.7,0,0.9-0.3
			C26.4,26.2,27.3,25.7,27,24.6z"/>
		<path class="st2" d="M7.6,12.3C9.6,9,11.3,5.2,13.5,2c0,0,0,0,0,0c0,0,0,0,0,0c0-0.2,0.1-0.4,0.3-0.3c0.7,0.3,1.2,0.6,1.5,0.8
			c-0.7-1.4-0.6-1.7-2.4-2.5c-0.2-0.1-0.3,0.1-0.3,0.3c0,0,0,0,0,0c0,0,0,0,0,0c-2.2,3.2-3.9,6.9-6,10.3c-2.1,3.4-6.7,7-6.6,11.6
			c0,0.6,0.5,1,1,1.1C1.3,19,5.6,15.6,7.6,12.3z"/>
		<path class="st0" d="M23.6,23.2c0.3,0,0.6,0.2,0.7,0.5c0,0.3-0.2,0.6-0.5,0.7c-0.3,0-0.6-0.2-0.7-0.5C23,23.6,23.2,23.3,23.6,23.2
			z M23.9,21.9c0.1,0.4,0.5,0.7,0.9,0.6c0.4-0.1,0.7-0.5,0.6-0.9c-0.1-0.4-0.5-0.7-0.9-0.6C24.1,21.1,23.8,21.5,23.9,21.9z
			 M7.1,20.3c0,0.2,0.3,0.4,0.5,0.3c0.2,0,0.4-0.3,0.4-0.5c0-0.2-0.3-0.4-0.5-0.3C7.3,19.8,7.1,20.1,7.1,20.3z M8.9,16.1
			c0,0.3,0.3,0.4,0.5,0.4c0.2,0,0.4-0.3,0.4-0.5c0-0.2-0.3-0.4-0.5-0.4C9.1,15.6,8.9,15.8,8.9,16.1z M7.2,12.7
			c0,0.2,0.2,0.3,0.3,0.2c0.2,0,0.3-0.2,0.2-0.3c0-0.2-0.2-0.3-0.3-0.2C7.3,12.4,7.2,12.5,7.2,12.7z M7.1,13.3
			c0,0.2,0.2,0.3,0.4,0.3c0.2,0,0.3-0.2,0.3-0.4c0-0.2-0.2-0.3-0.4-0.3C7.2,12.9,7.1,13.1,7.1,13.3z M6.9,16.5
			C7,16.8,7.2,17,7.5,16.9c0.3,0,0.5-0.3,0.5-0.6c0-0.3-0.3-0.5-0.6-0.4C7.1,15.9,6.9,16.2,6.9,16.5z M10.2,13.6
			c0.1,0.4,0.4,0.6,0.8,0.6c0.4-0.1,0.6-0.4,0.6-0.8c-0.1-0.4-0.4-0.6-0.8-0.6C10.4,12.9,10.2,13.2,10.2,13.6z M11.4,14.8
			c0,0.1,0.1,0.2,0.3,0.2c0.1,0,0.2-0.1,0.2-0.3c0-0.1-0.1-0.2-0.3-0.2C11.4,14.6,11.4,14.7,11.4,14.8z M14.7,8.8
			c0,0.2,0.2,0.3,0.3,0.2c0.2,0,0.3-0.2,0.2-0.3c0-0.2-0.2-0.3-0.3-0.2C14.8,8.5,14.7,8.6,14.7,8.8z M11.1,5
			c0.1,0.4,0.4,0.6,0.8,0.6c0.4-0.1,0.6-0.4,0.6-0.8c-0.1-0.4-0.4-0.6-0.8-0.6C11.3,4.3,11,4.6,11.1,5z M2.8,19.3
			c0.1,0.5,0.6,0.9,1.1,0.8C4.4,20,4.7,19.5,4.6,19c-0.1-0.5-0.6-0.9-1.1-0.8C3.1,18.3,2.7,18.8,2.8,19.3z M4.5,15.4
			c0.1,0.5,0.6,0.9,1.2,0.8c0.6-0.1,0.9-0.6,0.8-1.2c-0.1-0.5-0.6-0.9-1.2-0.8C4.8,14.3,4.4,14.8,4.5,15.4z M13,2.5
			c0,0.2,0.3,0.4,0.5,0.4c0.2,0,0.4-0.3,0.4-0.5c0-0.2-0.3-0.4-0.5-0.4C13.2,2.1,13,2.3,13,2.5z M9.7,11.2c0.1,0.4,0.5,0.7,0.9,0.6
			c0.4-0.1,0.7-0.5,0.6-0.9c-0.1-0.4-0.5-0.7-0.9-0.6C9.9,10.4,9.6,10.8,9.7,11.2z M12.1,11.9c0.1,0.3,0.3,0.5,0.6,0.5
			c0.3-0.1,0.5-0.3,0.5-0.6c0-0.3-0.3-0.5-0.6-0.5C12.3,11.3,12.1,11.6,12.1,11.9z M11.6,8.2c0.1,0.6,0.7,1,1.3,0.9
			c0.6-0.1,1-0.7,0.9-1.3c-0.1-0.6-0.7-1-1.3-0.9C11.9,7,11.5,7.5,11.6,8.2z"/>
	</g>
	<g id="p">
		<path class="st3" d="M26.3,5.7c-0.4-0.4-0.7-1.2-1.2-1.6c-0.1-0.1-0.4-0.3-0.6-0.4c0,0,0,0,0.1,0.1C24.8,2.4,25,1,24.5,0H23
			c-0.6,0.7-0.3,1.9-0.7,2.7c-0.3,0-0.4,0.1-0.7,0.1c-2.5,0.4-2.4,3.6,0.1,3.9l0,0c0.3,0.4,0.6,1,0.9,1.5
			C24.5,10.5,28.4,7.8,26.3,5.7z"/>
		<path class="st4" d="M29,10.5c0-6-11.8-9.1-13.8-2.1C13.3,15.3,9.5,24,9.5,28.5c0,1.5,0.4,1.8,1,1.3C19.3,25.6,29,19.5,29,10.5z"
			/>
		<path class="st5" d="M29,10.5c0-1.5-0.1-1.9-0.9-3c-2.2,4.8-5.2,8.5-9.9,12c-2.5,1.8-5.1,3.4-7.5,5.2c-0.4,0.9-1.2,2.2-1.2,4.2
			c0,0.6,0.6,1,1.5,1C17,30,29,18,29,10.5z"/>
		<path class="st6" d="M19.6,10.6c0.4-1.8,0-3.4-0.9-3.6c-0.9-0.1-1.9,1.2-2.2,3c-0.4,1.8,0,3.4,0.7,3.6
			C18.1,13.8,19.1,12.4,19.6,10.6z"/>
	</g>
</g>
</svg>
