<?xml version="1.0" encoding="utf-8"?><svg viewBox="0 0 512 512" xmlns="http://www.w3.org/2000/svg" xmlns:xlink="http://www.w3.org/1999/xlink"><style>:root>svg{display:none}:root>svg:target{display:block}</style><svg version="1.1" id="ico-acc-coins" x="0" y="0" xml:space="preserve" viewBox="0 0 16 16" xmlns="http://www.w3.org/2000/svg"><style>.acoin-st0{fill:#ff9929}.acoin-st1{fill:#ffc33f}.acoin-st2{fill:#ffec54}</style><g id="aicoAcc_x5F_coins"><path class="acoin-st0" d="M12.5 9.2c2.2 1.7 2 4.2-.5 5.7s-6.3 1.4-8.5-.3-2-4.2.5-5.7 6.3-1.4 8.5.3z"/><path class="acoin-st1" d="M12.5 8.8c2.2 1.7 2 4.2-.5 5.7s-6.3 1.4-8.5-.3-2-4.2.5-5.7 6.3-1.4 8.5.3z"/><path class="acoin-st2" d="M12.5 7.7c2.2 1.7 2 4.2-.5 5.7s-6.3 1.4-8.5-.3-2-4.1.5-5.6 6.3-1.4 8.5.2z"/><g><path class="acoin-st0" d="M12.5 6c2.2 1.7 2 4.2-.5 5.7s-6.3 1.4-8.5-.3-2-4.2.5-5.7 6.3-1.4 8.5.3z"/><path class="acoin-st1" d="M12.5 5.5c2.2 1.7 2 4.2-.5 5.7s-6.3 1.4-8.5-.2-2-4.3.5-5.8 6.3-1.3 8.5.3z"/><path class="acoin-st2" d="M12.5 4.5c2.2 1.7 2 4.2-.5 5.7s-6.3 1.4-8.5-.3-2-4.1.5-5.6 6.3-1.4 8.5.2z"/></g><g><path class="acoin-st0" d="M12.5 2.8c2.2 1.7 2 4.2-.5 5.7s-6.3 1.4-8.5-.2-2-4.3.5-5.8 6.3-1.4 8.5.3z"/><path class="acoin-st1" d="M12.5 2.3c2.2 1.7 2 4.2-.5 5.7s-6.3 1.4-8.5-.3-2-4.2.5-5.7 6.3-1.3 8.5.3z"/><path class="acoin-st2" d="M12.5 1.3c2.2 1.7 2 4.2-.5 5.7s-6.3 1.5-8.5-.2-2-4.2.5-5.7 6.3-1.5 8.5.2z"/></g></g></svg><svg version="1.1" id="ico-acc-money" x="0" y="0" xml:space="preserve" viewBox="0 0 30 30" xmlns="http://www.w3.org/2000/svg"><style>.bmoney-st0{fill:#89c356}.bmoney-st1{fill:#42af58}.bmoney-st2{fill:#66b957}.bmoney-st3{fill:#eee}.bmoney-st4{fill:#ccc}.bmoney-st5{fill:#1c1c1c}</style><g id="bicoAcc_x5F_money"><path class="bmoney-st0" d="M.7 13.5l19.1-11 9.5 6.7-19.1 11.2z"/><path class="bmoney-st1" d="M19.8 2L0 13.5l10.2 7.3L30 9.3 19.8 2zm-9.7 15.8c-.8 0-1.5.2-2.1.4l-4-2.9c.7-.4 1.1-1 1.1-1.7s-.3-1.2-.9-1.6H4l13.3-7.7-.2.2c.8.5 1.9.7 2.9.7.8 0 1.6-.2 2.3-.5l4 2.9h-.2c-.7.4-1 .9-1.1 1.5 0 .6.3 1.1 1 1.6h.1l-13.3 7.7c-.8-.3-1.7-.6-2.7-.6zm8.9-3.9c-.4.2-1 .4-1.6.5h-.6c-.6 0-1.1-.1-1.7-.2-.4-.1-.7-.2-1.1-.3-.4-.1-.7-.3-1-.5-.2-.1-.3-.2-.5-.3-1.9-1.4-2.2-3.4-.6-4.3.6-.3 1.3-.6 2.1-.6 1.4 0 3 .5 4.3 1.3 1.9 1.5 2.3 3.5.7 4.4zm3.8-5.5c0 .2-.2.4-.3.5-.1.1-.2.1-.3.1H21.9h-.5c-.1 0-.2-.1-.3-.1H21c-.1 0-.2-.1-.2-.1s-.1 0-.1-.1c-.1-.1-.2-.2-.3-.2-.4-.3-.6-.7-.6-1 0-.2.2-.4.3-.5.1-.1.2-.1.3-.1H21.2c.1 0 .2.1.3.1H21.8s.1 0 .1.1c.1.1.2.2.3.2.2.2.4.3.5.5.1.3.2.4.1.6zm-12.1 7.4c-.1.1-.2.1-.3.1H10.1h-.5c-.1 0-.2-.1-.3-.1h-.1c-.1 0-.2-.1-.2-.1s-.1 0-.1-.1c-.1-.1-.2-.2-.3-.2-.2-.2-.3-.2-.4-.4-.2-.3-.2-.7 0-.9.1-.1.1-.1.1-.2.1-.1.2-.1.3-.1H9.4c.1 0 .2.1.3.1 0 0 .1 0 .1.1.1 0 .2.1.2.1s.1 0 .1.1c.1.1.2.2.3.2.7.4.9 1.1.3 1.4z"/><path class="bmoney-st1" d="M0 13.5l10.2 7.3v6.7L0 20.2z"/><path class="bmoney-st2" d="M30 9.5L10.2 21v6.5L30 16z"/><path class="bmoney-st3" d="M22.5 14.1L19 16 8.8 8.7l3.5-1.9z"/><path class="bmoney-st4" d="M22.3 13.7l-3.6 1.9v7l3.6-2.1z"/><path class="bmoney-st5" d="M0 20.7L10.2 28v-.5L0 20.2zM30 16.5L10.2 28v-.5L30 16z"/></g></svg><svg version="1.1" id="ico_chat" x="0" y="0" xml:space="preserve" viewBox="0 0 38 38" xmlns="http://www.w3.org/2000/svg"><style>.cst0-5,.cst1-5,.cst2-5{fill-rule:evenodd;clip-rule:evenodd;fill:#3952b2}.cst1-5,.cst2-5{fill:#eee}.cst2-5{fill:#404040}</style><g id="cchat"><path class="cst0-5" d="M31 4l3 3.4L35 28 9.6 30.3 8 35l-2-1 1-8 15-7z"/><path class="cst1-5" d="M6 34S3 26 3 4c0 0 9-1 15-1s13 1 13 1l1 22-23.7 1.6L6 34z"/><path class="cst2-5" d="M7.5 12.2l18.3-1.4-.1 3.1-18.2 1.3v-3zm-.1 6l-.1 3 16.1-.8.1-3.1-16.1.9z"/></g></svg><svg version="1.1" id="ico_close" x="0" y="0" xml:space="preserve" viewBox="0 0 20 20" xmlns="http://www.w3.org/2000/svg"><style>.dst0,.dst1{fill-rule:evenodd;clip-rule:evenodd;fill:#eee}.dst1{fill:#ccc}</style><g id="dico_x5F_close"><path class="dst0" d="M19 3.4L15.6 0 10 5.6 4.4 0 1 3.4 6.6 9 1 14.6 4.4 18l5.6-5.6 5.6 5.6 3.4-3.4L13.4 9z"/><path class="dst1" d="M19 4.4L15.6 1 10 6.6 4.4 1 1 4.4 6.6 10 1 15.6 4.4 19l5.6-5.6 5.6 5.6 3.4-3.4-5.6-5.6z"/></g></svg><svg viewBox="0 0 32 32" id="ico_copy" xmlns="http://www.w3.org/2000/svg"><path d="M28 1H10C8.346 1 7 2.346 7 4v3H4c-1.654 0-3 1.346-3 3v18c0 1.654 1.346 3 3 3h18c1.654 0 3-1.346 3-3v-3h3c1.654 0 3-1.346 3-3V4c0-1.654-1.346-3-3-3zm1 21c0 .552-.449 1-1 1h-3V10c0-1.654-1.346-3-3-3H9V4c0-.552.449-1 1-1h18c.551 0 1 .448 1 1z" data-original="#000000"/></svg><svg version="1.1" id="ico_favorit" x="0" y="0" xml:space="preserve" viewBox="0 0 20 20" xmlns="http://www.w3.org/2000/svg"><style>.fst0,.fst1,.fst2{fill-rule:evenodd;clip-rule:evenodd;fill:#cc282b}.fst1,.fst2{fill:#fb433a}.fst2{fill:#e43633}</style><g id="fico_x5F_favorit"><path class="fst0" d="M10 6.7C7.4.8 0 2.2 0 9c0 3.6 10 11 10 11s10-7.4 10-11c0-6.9-7.5-7.9-10-2.3z"/><path class="fst1" d="M10 4.7C7.4-1.2 0 .2 0 7c0 3.6 10 11 10 11s10-7.4 10-11c0-6.9-7.5-7.9-10-2.3z"/><path class="fst2" d="M10 5.7C7.4-.2 0 1.2 0 8c0 3.6 10 11 10 11s10-7.4 10-11c0-6.9-7.5-7.9-10-2.3z"/></g></svg><svg version="1.1" id="ico_gift" x="0" y="0" xml:space="preserve" viewBox="0 0 38 38" xmlns="http://www.w3.org/2000/svg"><style>.gst0-2{fill:#2c1475}.gst1-2{fill:#432392}.gst2-2{fill:#ff7606}.gst3-2{fill:#ffc801}.gst4-2{fill:#ffb001}.gst5-2{fill:#ff8603}.gst7-2-2{fill:#ff4808}.gst7{fill:#ffe603}</style><g id="gbonus"><path class="gst0-2" d="M14.5 9.7S5.1 9.2 2.3 4c0 2.8 1.1 4.7 1.1 4.7S2 9.7 0 8.3c1 5.2 11.1 4.7 14.5 1.4zM23.5 9.2s9.4-.5 12.2-5.7c0 2.8-1.1 4.7-1.1 4.7s1.4 1 3.4-.4c-1 5.2-10.8 5.7-14.5 1.4z"/><path d="M18.7 9.3s-3.9-5-8.6-5.2c-1.5-1.2.5-4.1.5-4.1s6.7-.8 8.1 9.3z"/><path class="gst1-2" d="M11.6 0s-6.2 4.7 7.2 9.3c-.7 1.3-7.9 2.2-10.8-2.1C5.5 3.8 7.6-.4 11.6 0z"/><path d="M18.4 9.3s3.9-5 8.6-5.2c1.5-1.2-.4-4.1-.4-4.1s-6.8-.8-8.2 9.3z"/><path class="gst1-2" d="M25.6 0s6.2 4.7-7.2 9.3c.7 1.3 7.9 2.2 10.8-2.1 2.5-3.4.3-7.6-3.6-7.2z"/><path class="gst2-2" d="M7.1 36.1l13.3-4 10.3 3.2-9 2.7z"/><path class="gst3-2" d="M7.1 36.1L3.6 18.2l15.3-6.5 1.5 20.4z"/><path class="gst4-2" d="M34.5 19.1l-15.6-7.4 1.5 20.4 10.3 3.2zM.6 15.3l1.3 4 17-7.6-.3-4.6z"/><path class="gst5-2" d="M18.9 11.7L3.6 18.5l.6 2.8z"/><path class="gst7-2-2" d="M34.5 19.1l-15.6-7.4 14.9 10.1z"/><path class="gst5-2" d="M37.1 15.6L18.6 7.1l.3 4.6 16.9 8z"/><path class="gst1-2" d="M11.6 10.2l-3.8 1.7 4.5 22.7 3.2-.9z"/><path class="gst0-2" d="M32.7 13.6l-4.5-2.1-4.1 21.8 2.8.8z"/><path class="gst7-2-2" d="M20.6 33.2l1 4.3 7.6-2.2z"/><path d="M24.1 33.3l-9.5 3.8 1.7.2 10.6-3.2z"/><path d="M15.5 33.7c-.4 0-3.2.9-3.2.9l12.1 2.6 2.2-.7-11.1-2.8z"/><path class="gst7" d="M18 14l1.6 17.5-2.6 1z"/></g></svg><svg version="1.1" id="ico_ham" x="0" y="0" xml:space="preserve" viewBox="0 0 60 60" xmlns="http://www.w3.org/2000/svg"><style>.hst0-3,.hst1-3{fill-rule:evenodd;clip-rule:evenodd;fill:#ccc}.hst1-3{fill:#eee}.hst2-3{fill:#fff}</style><g id="hham"><path class="hst0-3" d="M19.4 19.4l21.4-.7 1.6 1.4.6 4.9-23-.7-1.3-1.4.7-3.5zm.6 10.1l21.6-2.1 1.4 1.4-.6 4.9-23-.7-1.4-1.5 2-2zm-.6 7.9l22.1-.7 1.4 1.4-.5 4.9-22.4-.7-1.3-1.4.7-3.5z"/><path class="hst1-3" d="M18 18l23 .7.6 4.9-23-.7L18 18zm.6 10.1l23-.7-.6 4.8-23-.7.6-3.4zM18 36l23.6.7-.6 4.9-22.4-.7L18 36z"/><path class="hst2-3" d="M18.6 22.9L18 18l23 .7.2 1.4-21.7-.7-.9 3.5zm.8 14.5l22 .6.2-1.3L18 36l.6 4.9.8-3.5zm.6-7.9l21.4-.6.2-1.4-23 .7-.6 3.3 2-2z"/></g></svg><svg version="1.1" id="ico_money" x="0" y="0" xml:space="preserve" viewBox="0 0 38 38" xmlns="http://www.w3.org/2000/svg"><style>.ist0-4{fill:#89c356}.ist1-4{fill:#42af58}.ist2-4{fill:#66b957}.ist3-4{fill:#eee}.ist4-4{fill:#ccc}.ist5-4{fill:#1c1c1c}.ist6-4{fill:#ff9929}.ist7-4{fill:#ffc33f}.ist8-4{fill:#ffec54}</style><path class="ist0-4" d="M1 14.6l24-14 12 8.6-24 14.1z"/><path class="ist1-4" d="M25 0L.1 14.6 13 23.9 37.9 9.3 25 0zM12.8 20.1c-1 0-1.9.2-2.7.5L5 16.9c.9-.5 1.4-1.3 1.4-2.1s-.4-1.5-1.1-2h-.1L21.9 3l-.2.2c1 .6 2.3.9 3.6.9 1 0 2-.2 2.9-.6l5.1 3.7h-.2c-.9.5-1.3 1.2-1.4 1.9 0 .7.4 1.4 1.2 2h.1l-16.8 9.8c-1-.5-2.1-.8-3.4-.8zm11.2-5c-.5.3-1.2.5-2 .6h-.8c-.7 0-1.4-.1-2.1-.3-.5-.1-.9-.3-1.4-.4s-.9-.4-1.3-.6c-.2-.1-.4-.3-.6-.4-2.4-1.8-2.8-4.3-.8-5.5.7-.4 1.7-.7 2.7-.7 1.8 0 3.8.6 5.4 1.7 2.5 1.9 2.9 4.4.9 5.6zm4.8-7c0 .2-.2.5-.4.6-.1.1-.2.1-.4.1h-.4-.5-.1c-.1 0-.2-.1-.4-.1h-.1c-.1 0-.2-.1-.3-.1 0 0-.1 0-.1-.1-.1-.1-.3-.2-.4-.3-.5-.4-.8-.9-.7-1.3 0-.2.2-.5.4-.6.1-.1.2-.1.4-.1h1c.1 0 .2.1.4.1h.1c.1 0 .2.1.3.1 0 0 .1 0 .1.1.1.1.3.2.4.3.3.2.5.4.6.6.1.3.2.5.1.7zm-15.2 9.4c-.1.1-.2.1-.4.1h-.4-.5-.1c-.1 0-.2-.1-.4-.1h-.1c-.1 0-.2-.1-.3-.1 0 0-.1 0-.1-.1-.1-.1-.3-.2-.4-.3-.2-.2-.4-.3-.5-.5-.3-.4-.3-.9 0-1.2l.2-.2c.1-.1.2-.1.4-.1h1c.1 0 .2.1.4.1 0 0 .1 0 .1.1.1 0 .2.1.3.1 0 0 .1 0 .1.1.1.1.3.2.4.3.8.5 1 1.4.3 1.8z"/><path class="ist1-4" d="M.1 14.6L13 23.9v8.5L.1 23.1z"/><path class="ist2-4" d="M37.9 9.5L13 24.1v8.3l24.9-14.6z"/><path class="ist3-4" d="M28.4 15.3L24 17.8 11.2 8.5l4.4-2.4z"/><path class="ist4-4" d="M28.2 14.8l-4.5 2.5v8.8l4.5-2.6z"/><path class="ist5-4" d="M.1 23.7L13 33v-.6L.1 23.1zM37.9 18.4L13 33v-.6l24.9-14.6z"/><g><path class="ist6-4" d="M36.1 29.9c2.7 2 2.5 5-.6 6.8-3.1 1.8-7.9 1.7-10.6-.3-2.7-2-2.5-5 .6-6.8 3.1-1.8 7.9-1.7 10.6.3z"/><path class="ist7-4" d="M36.1 29.4c2.7 2 2.5 5-.6 6.8-3.1 1.8-7.9 1.7-10.6-.3-2.7-2-2.5-5 .6-6.8s7.9-1.7 10.6.3z"/><path class="ist8-4" d="M36.1 28.2c2.7 2 2.5 5-.6 6.8-3.1 1.8-7.9 1.7-10.6-.3-2.7-2-2.5-5 .6-6.8 3.1-1.8 7.9-1.7 10.6.3z"/><g><path class="ist6-4" d="M36.1 26.1c2.7 2 2.5 5-.6 6.8-3.1 1.8-7.9 1.7-10.6-.3-2.7-2-2.5-5 .6-6.8 3.1-1.8 7.9-1.7 10.6.3z"/><path class="ist7-4" d="M36.1 25.5c2.7 2 2.5 5-.6 6.8-3.1 1.8-7.9 1.7-10.6-.3-2.7-2-2.5-5 .6-6.8 3.1-1.8 7.9-1.6 10.6.3z"/><path class="ist8-4" d="M36.1 24.4c2.7 2 2.5 5-.6 6.8-3.1 1.8-7.9 1.7-10.6-.3-2.7-2-2.5-5 .6-6.8 3.1-1.8 7.9-1.7 10.6.3z"/></g><g><path class="ist6-4" d="M36.1 22.3c2.7 2 2.5 5-.6 6.8-3.1 1.8-7.9 1.7-10.6-.3-2.7-2-2.5-5 .6-6.8 3.1-1.8 7.9-1.7 10.6.3z"/><path class="ist7-4" d="M36.1 21.7c2.7 2 2.5 5-.6 6.8-3.1 1.8-7.9 1.7-10.6-.3-2.7-2-2.5-5 .6-6.8 3.1-1.8 7.9-1.6 10.6.3z"/><path class="ist8-4" d="M36.1 20.6c2.7 2 2.5 5-.6 6.8-3.1 1.8-7.9 1.7-10.6-.3-2.7-2-2.5-5 .6-6.8 3.1-1.8 7.9-1.7 10.6.3z"/></g></g></svg><svg version="1.1" id="ico_search" x="0" y="0" xml:space="preserve" viewBox="0 0 38 38" xmlns="http://www.w3.org/2000/svg"><style>.jst0-1,.jst1-1,.jst2-1{fill-rule:evenodd;clip-rule:evenodd;fill:#3952b2}.jst1-1,.jst2-1{fill:#1c74d1}.jst2-1{fill:#0096ef}</style><g id="jSearch"><path class="jst0-1" d="M28.8 3.4c-5.4-4.5-14.4-4.5-18.7 3.2-3.5 6.1-1.9 14.6 3.8 18.6.8.6 1.6 1 2.5 1.3L4 31.9l.3 2.3 7.3 3.9 6.8-10.7-.2-.2c4.9 1.2 10.3-.7 13.3-5.1 4.1-5.9 3.1-13.8-2.7-18.7zm-1 16c-2.6 3.7-7.6 4.6-11.3 2-3.7-2.6-4.6-7.7-2-11.4 2.6-3.7 7.6-4.6 11.3-2 3.7 2.6 4.6 7.7 2 11.4z"/><path class="jst1-1" d="M11.2 22.5L4 31.9c4.9-.8 7.2 3.7 7.2 3.7l6-9.4-6-3.7z"/><path class="jst2-1" d="M27.5 2.3c5.7 4 7.1 12 3.1 17.8-4 5.8-11.9 7.2-17.6 3.2-5.7-4-7.1-12-3.1-17.8 4-5.8 11.9-7.2 17.6-3.2zM15.6 19.5c3.7 2.6 8.7 1.7 11.3-2 2.6-3.7 1.7-8.8-2-11.4-3.7-2.6-8.7-1.7-11.3 2-2.6 3.7-1.7 8.8 2 11.4z"/><path class="jst1-1" d="M28.1 2.8c3.4 4.3 3.8 10.5.5 15.3-4 5.8-11.9 7.2-17.6 3.2-.2-.2-.4-.3-.6-.5.7.9 1.6 1.8 2.6 2.5 5.7 4 13.6 2.6 17.6-3.2 3.9-5.6 2.7-13.1-2.5-17.3z"/><path class="jst2-1" d="M13.2 26.5l2.7 1.7 1.3-2-6-3.7L4 31.9c1.8-.3 3.3.1 4.5.8l4.7-6.2z"/></g></svg><svg version="1.1" id="ico_size" x="0" y="0" xml:space="preserve" viewBox="0 0 20 20" xmlns="http://www.w3.org/2000/svg"><style>.kst0,.kst1{fill-rule:evenodd;clip-rule:evenodd;fill:#eee}.kst1{fill:#ccc}</style><g id="kico_x5F_size"><path class="kst0" d="M18 1H2C.9 1 0 1.9 0 3v12c0 1.1.9 2 2 2h16c1.1 0 2-.9 2-2V3c0-1.1-.9-2-2-2zm-1 12c0 .6-.4 1-1 1H4c-.6 0-1-.4-1-1V5c0-.6.4-1 1-1h12c.6 0 1 .4 1 1v8z"/><path class="kst1" d="M18 2H2C.9 2 0 2.9 0 4v12c0 1.1.9 2 2 2h16c1.1 0 2-.9 2-2V4c0-1.1-.9-2-2-2zm-1 12c0 .6-.4 1-1 1H4c-.6 0-1-.4-1-1V6c0-.6.4-1 1-1h12c.6 0 1 .4 1 1v8z"/></g></svg><svg version="1.1" id="ico_win" x="0" y="0" xml:space="preserve" viewBox="0 0 30 30" xmlns="http://www.w3.org/2000/svg"><style>.lst0{fill:#f90}.lst1{fill:#fc0}.lst2{fill:#ffec00}.lst3{fill:#690}.lst4{fill:#c12700}.lst5{fill:#820f00}.lst6{fill:#eee}</style><g id="lici_x5F_win"><g id="lc"><path class="lst0" d="M27.9 26.3c-1.6-5.1-3.8-9.8-6.7-14.5-1.6-2.6-3.3-5.1-5-7.7-1.9-3-.9-3-3.4-4.1-.2-.1-.3.1-.3.3-2.2 3.2-3.9 6.9-6 10.3-2.1 3.4-6.7 7-6.6 11.6 0 .9 1.2 1.5 1.7.8 3.2 1 6.8 1.1 10 1.7 4.7.9 9.3 2.1 14 3.3.4.1.7 0 .9-.3.9.2 1.8-.3 1.4-1.4z"/><path class="lst1" d="M27 24.6c-1.4-4.6-3.4-8.8-5.8-13-1.6-2.5-3.2-5-4.9-7.5-.4-.7-.7-1.2-1-1.6-.4-.7-.7-1.2-.9-1.6-.3-.3-.7-.5-1.5-.8-.2-.1-.3.1-.3.3-2.2 3.2-3.9 6.9-6 10.3-2 3.3-6.3 6.7-6.6 11 .3 0 .5-.1.7-.3 3.2 1 6.8 1.1 10 1.7 4.7.9 9.3 2.1 14 3.3.4.1.7 0 .9-.3.8.1 1.7-.4 1.4-1.5z"/><path class="lst2" d="M7.6 12.3C9.6 9 11.3 5.2 13.5 2c0-.2.1-.4.3-.3.7.3 1.2.6 1.5.8-.7-1.4-.6-1.7-2.4-2.5-.2-.1-.3.1-.3.3-2.2 3.2-3.9 6.9-6 10.3C4.5 14-.1 17.6 0 22.2c0 .6.5 1 1 1.1.3-4.3 4.6-7.7 6.6-11z"/><path class="lst0" d="M23.6 23.2c.3 0 .6.2.7.5 0 .3-.2.6-.5.7-.3 0-.6-.2-.7-.5-.1-.3.1-.6.5-.7zm.3-1.3c.1.4.5.7.9.6.4-.1.7-.5.6-.9-.1-.4-.5-.7-.9-.6-.4.1-.7.5-.6.9zM7.1 20.3c0 .2.3.4.5.3.2 0 .4-.3.4-.5s-.3-.4-.5-.3c-.2 0-.4.3-.4.5zm1.8-4.2c0 .3.3.4.5.4s.4-.3.4-.5-.3-.4-.5-.4-.4.2-.4.5zm-1.7-3.4c0 .2.2.3.3.2.2 0 .3-.2.2-.3 0-.2-.2-.3-.3-.2-.1 0-.2.1-.2.3zm-.1.6c0 .2.2.3.4.3s.3-.2.3-.4-.2-.3-.4-.3-.3.2-.3.4zm-.2 3.2c.1.3.3.5.6.4.3 0 .5-.3.5-.6s-.3-.5-.6-.4c-.3 0-.5.3-.5.6zm3.3-2.9c.1.4.4.6.8.6.4-.1.6-.4.6-.8-.1-.4-.4-.6-.8-.6-.4.1-.6.4-.6.8zm1.2 1.2c0 .1.1.2.3.2.1 0 .2-.1.2-.3 0-.1-.1-.2-.3-.2-.2.1-.2.2-.2.3zm3.3-6c0 .2.2.3.3.2.2 0 .3-.2.2-.3 0-.2-.2-.3-.3-.2-.1 0-.2.1-.2.3zM11.1 5c.1.4.4.6.8.6.4-.1.6-.4.6-.8-.1-.4-.4-.6-.8-.6-.4.1-.7.4-.6.8zM2.8 19.3c.1.5.6.9 1.1.8.5-.1.8-.6.7-1.1-.1-.5-.6-.9-1.1-.8-.4.1-.8.6-.7 1.1zm1.7-3.9c.1.5.6.9 1.2.8.6-.1.9-.6.8-1.2-.1-.5-.6-.9-1.2-.8-.5.1-.9.6-.8 1.2zM13 2.5c0 .2.3.4.5.4s.4-.3.4-.5-.3-.4-.5-.4c-.2.1-.4.3-.4.5zm-3.3 8.7c.1.4.5.7.9.6.4-.1.7-.5.6-.9-.1-.4-.5-.7-.9-.6-.4.1-.7.5-.6.9zm2.4.7c.1.3.3.5.6.5.3-.1.5-.3.5-.6s-.3-.5-.6-.5-.5.3-.5.6zm-.5-3.7c.1.6.7 1 1.3.9.6-.1 1-.7.9-1.3-.1-.6-.7-1-1.3-.9-.6.1-1 .6-.9 1.3z"/></g><g id="lp"><path class="lst3" d="M26.3 5.7c-.4-.4-.7-1.2-1.2-1.6-.1-.1-.4-.3-.6-.4l.1.1c.2-1.4.4-2.8-.1-3.8H23c-.6.7-.3 1.9-.7 2.7-.3 0-.4.1-.7.1-2.5.4-2.4 3.6.1 3.9.3.4.6 1 .9 1.5 1.9 2.3 5.8-.4 3.7-2.5z"/><path class="lst4" d="M29 10.5c0-6-11.8-9.1-13.8-2.1-1.9 6.9-5.7 15.6-5.7 20.1 0 1.5.4 1.8 1 1.3C19.3 25.6 29 19.5 29 10.5z"/><path class="lst5" d="M29 10.5c0-1.5-.1-1.9-.9-3-2.2 4.8-5.2 8.5-9.9 12-2.5 1.8-5.1 3.4-7.5 5.2-.4.9-1.2 2.2-1.2 4.2 0 .6.6 1 1.5 1C17 30 29 18 29 10.5z"/><path class="lst6" d="M19.6 10.6c.4-1.8 0-3.4-.9-3.6-.9-.1-1.9 1.2-2.2 3-.4 1.8 0 3.4.7 3.6.9.2 1.9-1.2 2.4-3z"/></g></g></svg><svg version="1.1" id="icon_PepperOff" x="0" y="0" xml:space="preserve" viewBox="0 0 13 20" xmlns="http://www.w3.org/2000/svg"><style>.mst0{fill:#0096ef}</style><path class="mst0" d="M11.6 4.3c-.1-.2-.2-.4-.3-.5-.3-.3-.5-.8-.8-1.1-.1-.1-.3-.2-.4-.3l.1.1c0-.9.1-1.8-.2-2.5H9c-.4.5-.2 1.3-.5 1.8-.2 0-.3.1-.5.1-.7.2-1.1.6-1.2 1.1-1.4.2-2.6 1-3 2.6C2.5 10.2 0 16 0 19c0 1 .3 1.2.7.9C6.5 17.1 13 13 13 7c0-1.1-.6-2-1.4-2.7z"/></svg><svg version="1.1" id="icon_PepperOn" x="0" y="0" xml:space="preserve" viewBox="0 0 13 20" xmlns="http://www.w3.org/2000/svg"><style>.nst0{fill:#690}.nst1{fill:#c12700}.nst2{fill:#820f00}.nst3{fill:#eee}</style><path class="nst0" d="M11.2 3.8c-.3-.3-.5-.8-.8-1.1-.1-.1-.3-.2-.4-.3l.1.1c.1-.9.2-1.8-.1-2.5H9c-.4.5-.2 1.3-.5 1.8-.2 0-.3.1-.5.1-1.7.3-1.6 2.4.1 2.6.2.3.4.7.6 1 1.3 1.5 3.9-.3 2.5-1.7z"/><path class="nst1" d="M13 7C13 3 5.1.9 3.8 5.6 2.5 10.2 0 16 0 19c0 1 .3 1.2.7.9C6.5 17.1 13 13 13 7z"/><path class="nst2" d="M13 7c0-1-.1-1.3-.6-2-1.5 3.2-3.5 5.7-6.6 8-1.7 1.2-3.4 2.3-5 3.5-.3.6-.8 1.5-.8 2.8 0 .4.4.7 1 .7 4 0 12-8 12-13z"/><path class="nst3" d="M6.7 7.1c.3-1.2 0-2.3-.6-2.4-.6-.1-1.3.8-1.5 2-.3 1.2 0 2.3.5 2.4.6.1 1.3-.8 1.6-2z"/></svg><svg version="1.1" id="logo_Amigos" x="0" y="0" xml:space="preserve" viewBox="0 0 200 86" xmlns="http://www.w3.org/2000/svg"><style>.ost0{fill:#ff9929}.ost1{fill:#66b957}.ost2{fill:#ffc33f}.ost3{fill:#fb433a}.ost4{fill:#1c1c1c}.ost5{fill:#dcdcdc}.ost6{fill:#fff}</style><path class="ost0" d="M103.7 34.4c.3-1 .6-2.3.9-3.6-8 .4-21.9-1.4-29.6-3.9-.5 1.1-.9 2.2-1.3 3.4 9.5 1.6 20.1 3.1 30 4.1z"/><path class="ost1" d="M105.2 28.1c-7.5.5-21-1.1-29.1-3.4-.2.4-.4.9-.6 1.3 7.7 2.5 21.6 4.2 29.4 3.8.1-.6.2-1.1.3-1.7z"/><path class="ost0" d="M104.2 8.9c-4.9-3.8-18.7-2.4-27.6 14.8 8.2 2.3 21.7 3.9 28.9 3.3 1.3-6.9 2.1-15.2-1.3-18.1z"/><path class="ost2" d="M120.6 35.7c-3.7-1-7.4-2-11.1-2.6 5 .4 10.1 1.4 15 2.7 1.9 0 3.6 0 5.1-.1-9.4-3-14.8-4.3-19.1-5.1 7.1.6 15.9 2.7 22.1 4.8 1-.1 1.8-.3 2.4-.5-4.6-1.7-15.5-5.2-24.3-6.8 7 .6 15.9 2.7 22 4.7-6.3-3.1-18.5-5.9-24.1-7-.5 3.3-1.2 6.5-1.9 9.1 5 .3 9.7.6 13.9.8zM46.4 23.1c.3.3.8.6 1.5.9 7-.5 16.5-.3 23.5.9-6.5-.5-14.3-.3-20.8.1 1.2.4 2.6.8 4.2 1.3 5.3 0 10.8.3 15.9 1.2-2.8-.2-5.6-.4-12.2-.2 4 1 8.7 1.9 13.8 2.8 1.2-3.6 2.6-6.7 4.2-9.4-6-.5-26.8-2-30.2 1.3 3.2-.3 14.9-1.4 26.3.7-8.6-.8-21.1-.2-26.2.4z"/><path class="ost3" d="M111.9 47.8l-6.1-7.8-9.8 6.6-5.5-8.8-8.8 6.8-6.1-9.7-10.4 6.2-7.2-9.9-9 6.5c.5 1 .9 1.6 1.2 1.8 18.1 7.1 73.8 11.4 74.9 10.7.4-.2 1-.9 1.7-1.7l-5.2-7.3-9.7 6.6z"/><path class="ost2" d="M45.7 23.8c-.2 4.3 1.5 9.7 2.9 12.9l9.6-6.9 7.2 9.9 10.5-6.2 6.1 9.6 8.8-6.8 5.5 8.9 9.8-6.6 6.1 7.8 9.8-6.7 5.6 7.9c2-2.5 4.6-6.4 6.6-9.6-17 2.6-81.8-8.9-88.5-14.2zM102.6 11.5C99 20.2 89 24.3 80.3 20.6c-.5-.2-1-.5-1.5-.7 8.5-13 19.9-14.3 24.7-11.4-.2 1-.5 2-.9 3z"/><path class="ost0" d="M106.7 34.7c2.1.2 4.1.4 6 .5.1-.5.3-1 .4-1.5-1.2-.3-2.4-.5-3.6-.7 1.2.1 2.4.2 3.7.4.1-.8.3-1.5.3-2.3-1.1-.2-2.1-.4-3-.6 1 .1 2 .2 3.1.3.1-.8.1-1.6 0-2.3-1-.2-1.9-.4-2.9-.6.9.1 1.9.2 2.9.3 0-.5-.1-1.1-.2-1.6-1.9-.4-3.5-.8-4.8-1.1-.5 3.5-1.3 6.7-1.9 9.2z"/><path class="ost3" d="M111.9 47.8l-6.1-7.8-9.5 6.4c-.3.5-.7 1-1 1.6 15.8 1.8 29.3 2.6 29.9 2.2.4-.2 1-.9 1.7-1.7l-5.2-7.3-9.8 6.6z"/><path class="ost0" d="M101.8 36.2c-1.2 2.7-2.6 5.4-4.2 8.1l8.5-5.7 6.1 7.8 9.8-6.7 5.6 7.9c2-2.5 4.6-6.4 6.6-9.6-6.2.9-18.7 0-32.4-1.8z"/><path class="ost4" d="M90.4 49.4c14.7 1.9 34.5 3.8 35.7 3.4h.1c3-1.2 10.5-12.6 12.5-17 .6-1.2.2-2.6-1.6-3.8-4.4-2.9-21.4-6.7-28.3-8.1.9-7.2.6-14.6-3.9-17.4h-.1c-7.4-3.8-19.4-.7-27.7 12.8-5.2-.4-32.3-2.2-32.3 3.1-.7 4.3.6 10.1 2.2 14.2 1.6 4.2 2.7 4.3 2.7 4.3 3.6 2.2 17.2 5.5 40.7 8.5zm42.3-16.7c-6-2-14.9-4.1-22-4.7 8.9 1.6 19.7 5.1 24.3 6.8-.7.2-1.5.4-2.4.5-6.2-2-15-4.2-22.1-4.8 4.3.8 9.8 2 19.1 5.1-1.5.1-3.2.1-5.1.1-4.9-1.3-10-2.3-15-2.7 3.6.7 7.4 1.6 11.1 2.6-4.2-.1-8.9-.5-13.9-.9.6-2.6 1.4-5.8 1.9-9.1 5.6 1.2 17.8 4 24.1 7.1zm-29 1.7c-9.8-1-20.5-2.5-30-4.1.4-1.2.9-2.3 1.3-3.4 7.7 2.5 21.5 4.2 29.6 3.9-.3 1.4-.6 2.6-.9 3.6zm.5-25.5c3.4 2.8 2.6 11.2 1.3 18.2-7.2.6-20.7-1-28.9-3.3C85.5 6.5 99.3 5.2 104.2 8.9zM76.1 24.7c8.1 2.3 21.6 3.9 29.1 3.4-.1.6-.2 1.1-.4 1.6-7.8.5-21.7-1.2-29.4-3.7.2-.4.4-.9.7-1.3zm.3-4.1c-1.6 2.7-3 5.9-4.2 9.4-5.1-.9-9.8-1.9-13.8-2.8 6.6-.2 9.4 0 12.2.2-5.1-.9-10.6-1.2-15.9-1.2-1.6-.4-3-.9-4.2-1.3 6.6-.4 14.3-.6 20.8-.1-7-1.2-16.4-1.4-23.5-.9-.6-.3-1.1-.6-1.5-.9 5.1-.5 17.6-1.2 26.1-.5-11.4-2-23.2-.9-26.3-.7 3.5-3.2 24.3-1.8 30.3-1.2zm-30.7 3.2c6.7 5.3 71.5 16.8 88.4 14.2-1.9 3.2-4.6 7.1-6.6 9.6l-5.6-7.9-9.8 6.7-6.1-7.8-9.8 6.6-5.5-8.9-8.7 6.8-6.1-9.6-10.5 6.2-7.2-9.9-9.6 6.9c-1.4-3.2-3.1-8.6-2.9-12.9zm4.6 15.7c-.3-.2-.7-.9-1.2-1.8l9-6.5 7.1 9.9 10.4-6.2 6.1 9.7 8.8-6.8 5.5 8.8 9.9-6.6 6.1 7.8 9.8-6.6 5.2 7.3c-.7.9-1.3 1.5-1.7 1.7-1.2.7-56.9-3.6-75-10.7z"/><g><path class="ost3" d="M14.2 77.5c1.2.7 2.6 1.3 4.4 2h.2c.2 0 .3 0 .5-.1s.3-.2.3-.4c.8-1.3 1.6-2.5 2.3-3.8.7-1.2 1.4-2.5 2.2-3.9l1.6.1h9.2c.3 0 .5 0 .8.1.2 0 .4.1.6.2.2.1.3.1.3.2 0 .8.1 1.5.2 2.1.1.6.2 1.1.3 1.6l.3 1.5c.1.5.2 1.1.3 1.7 0 .2.1.3.1.5.1.2.3.2.5.2h.2c.1 0 .4 0 .7-.1.3-.1.7-.2 1.2-.3.4-.1.9-.3 1.4-.5.5-.2 1-.3 1.5-.5l6.6-2c.4-.1.6-.2.6-.3 0-.1 0-.2-.1-.3-.1-.1-.2-.3-.3-.5-.1-.2-.2-.5-.3-1-.1-.4-.2-1-.2-1.6-.3-1.6-.5-3.2-.8-4.8-.3-1.5-.5-3.1-.8-4.6-.2-1.5-.5-3.1-.7-4.7-.2-1.6-.5-3.3-.7-5.1-.4-3.4-.9-6.5-1.4-9.3-.6-2.8-1.1-5.4-1.6-7.8 0-.4-.2-.7-.4-.9-.3-.1-.5-.2-.8-.2h-.5c-.4 0-.9.1-1.6.2-.7.1-1.3.3-2 .5s-1.3.3-1.8.5-.8.2-.9.3c-.1 0-.3.1-.5.2s-.4.2-.7.3c-.2.1-.5.3-.7.4-.2.2-.4.3-.5.5-.9 1.6-2 3.2-3.1 5.1-1.1 1.8-2.2 3.9-3.5 6.3-.6 1.3-1.3 2.5-1.9 3.6l-1.8 3.3c-.9.7-1.5 1.8-2.1 2.8-.6 1-1.2 2.1-1.9 3.3h-4.6c-.5 0-.8 0-1.1.1-.3 0-.5.1-.5.1-.1.6-.1 1.2-.1 1.8.1.6.2 1.3.4 1.9.2.6.4 1.3.6 1.9.2.6.5 1.2.8 1.7l-1.1 1.9c-.4.7-.7 1.4-1.1 2-.4.6-.7 1.2-1.1 1.7 1 .8 1.9 1.4 3.1 2.1zm21-23.9c0 1.2 0 2.4.1 3.4 0 1.1.1 2.1.2 3 .1 1 .1 1.9.2 2.9h-6.9s0-.1.1-.2v-.3c.2-.4.5-1 .9-1.7s.9-1.7 1.4-2.7c.6-1.1 1.2-2.3 1.9-3.7.7-1.4 1.4-3 2.2-4.7-.1 1.5-.1 2.8-.1 4z"/><path class="ost3" d="M87 49.5l-10.2-.4-8.4 12.7-3.9-12.7-10.3.4c-1 5.3-1.9 10.2-2.7 14.8-.8 4.6-1.4 9-1.8 13.2l8.7.5c.7-6.3 1.3-10.9 1.8-14l5.3 14.4L75.9 64c-1.3 6.4-2.3 11.1-3.1 14l8.9-.5c1.1-4.2 2.1-8.6 2.9-13.2.7-4.5 1.5-9.4 2.4-14.8zM90.6 49C89 55.9 87.8 61.6 87 66.1c-.8 4.5-1.4 8.7-1.8 12.4l9.1-.3c.4-2.9 1-6.8 1.9-11.9.9-5.1 2.1-10.8 3.7-17l-9.3-.3zM131.1 60.3l-17.4 1.4-.8 7.1c3.3-.2 5.7-.4 7.2-.4-2.2 1.8-4.3 2.7-6.4 2.7-1.7 0-2.9-.4-3.9-1.3-.9-.9-1.2-2.1-1-3.8.5-2.6 1.9-4.7 4.2-6.1 2-1.3 4.4-1.9 7.1-1.9 1.1 0 2.7.3 4.9.9l3.5-9.9c-2-.8-4.7-1.2-8.2-1.2-4.9 0-9.5 1.7-13.7 5-4.3 3.4-6.9 7.6-7.7 12.5-.8 4.3 0 7.8 2.4 10.5 2.3 2.7 5.7 4 10 4 4.7 0 8.9-1.6 12.8-4.8 3.9-3.2 6.2-7.2 7-11.8.1-1.1.1-2 0-2.9zM160.7 51.9c-2.4-3.2-5.7-4.8-10.1-4.8-4.3 0-8.2 1.6-11.7 4.8-3.5 3.2-5.6 6.9-6.4 11.3-.8 4.4 0 8.1 2.4 11.3 2.4 3.2 5.8 4.9 10.1 4.9s8.3-1.6 11.8-4.9c3.5-3.1 5.6-6.9 6.3-11.3.7-4.4-.1-8.2-2.4-11.3zm-9.4 16.3c-1.4 1.6-3.1 2.4-4.9 2.4-1.8 0-3.1-.8-4-2.4-.8-1.5-1.1-3.2-.7-5.1.3-1.9 1.2-3.5 2.5-5 1.5-1.7 3.1-2.5 4.9-2.5 1.8 0 3.2.8 4 2.5.8 1.5 1.1 3.2.7 5-.3 2-1.1 3.7-2.5 5.1zM186.5 48.1c-2.4-1.1-4.9-1.6-7.5-1.6-3.1 0-6 .8-8.8 2.5-3.2 1.9-5 4.3-5.5 7.3-.5 2.7.6 5 3.2 6.8 1.3 1 3.8 2.2 7.5 3.7 2.7 1.1 4.1 2 3.9 2.7-.1.8-1 1.2-2.4 1.2-1.5 0-3.1-.6-4.8-1.7-1.4-1-2.6-2.1-3.6-3.4l-6.7 6.9c3.7 5 7.9 7.5 12.5 7.5 3.2 0 6.2-.9 8.8-2.8 2.8-2 4.5-4.6 5.1-7.8.4-2.3-.6-4.3-2.9-6.1-1.2-.9-3.5-2.2-6.8-3.7-2.4-1.1-3.6-1.9-3.5-2.5.1-.7 1.1-1.1 2.9-1.1 2.9 0 5.4 1.1 7.6 3.4l6.6-6.7c-1.2-2-3.1-3.5-5.6-4.6z"/><g><path class="ost4" d="M12.5 75.8c1.2.7 2.6 1.3 4.4 2h.2c.2 0 .3 0 .5-.1s.3-.2.3-.4c.8-1.3 1.6-2.5 2.3-3.8.7-1.2 1.4-2.5 2.2-3.9 0 0 4.4.1 4.9.1H34c.2 0 .2 4.8.3 5.3.1.5 1.6 2.4 1.7 2.5.1.2.3.2.5.2h.2c.1 0 .4 0 .7-.1.3-.1.7-.2 1.2-.3.4-.1.9-.3 1.4-.5.5-.2 1-.3 1.5-.5l6.6-2c.4-.1.6-.2.6-.3 0-.1 0-.2-.1-.3-.1-.1-.2-.3-.3-.5-.1-.2-.2-.5-.3-1-.1-.4-.2-1-.2-1.6-.3-1.6-.5-3.2-.8-4.8-.3-1.5-.5-3.1-.8-4.6-.2-1.5-.5-3.1-.7-4.7-.2-1.6-.5-3.3-.7-5.1-.4-3.4-.9-6.5-1.4-9.3-.6-2.8-1.1-5.4-1.6-7.8 0-.4-1.8-3.4-2.1-3.4L28.2 41.1l-16.5 29-3.9 1.2 1.7 2.5c.9.7 1.9 1.3 3 2zm21-23.9c0 1.2 0 2.4.1 3.4 0 1.1.1 2.1.2 3 .1 1 .1 1.9.2 2.9h-7s0-.1.1-.2v-.3c.2-.4.5-1 .9-1.7s.9-1.7 1.4-2.7c.6-1.1 1.2-2.3 1.9-3.7.7-1.4 1.4-3 2.2-4.7v4z"/><path class="ost4" d="M85.3 47.8l-1.7-2.5-16.8 14.9-3.9-12.7-1.7-2.5-14.8 28.3 1.7 2.5 8.7.5c.7-6.3 1.3-10.9 1.8-14l3.6 11.9 1.7 2.5 10.4-14.4-4.8 11.5 1.7 2.5 8.9-.5c1.1-4.2 2.1-8.6 2.9-13.2.6-4.5 1.5-9.4 2.3-14.8zM96.4 45.1L81.8 74.3l1.7 2.5 9.1-.3c.4-2.9 1-6.8 1.9-11.9.9-5.1 2.1-10.8 3.7-17l-1.8-2.5zM129.4 58.6l-1.7-2.5-18.2 8.5 1.7 2.5c3.3-.2 5.7-.4 7.2-.4-2.2 1.8-4.3 2.7-6.4 2.7-1.7 0-2.9-.4-3.9-1.3-.9-.9-1.2-2.1-1-3.8.5-2.6 1.9-4.7 4.2-6.1 2-1.3 4.4-1.9 7.1-1.9 1.1 0 2.7.3 4.9.9l3.5-9.9-1.7-2.5-20.1 6.3s-9.3 9.6-9.3 14.6c0 2.5 1.6 5.7 3.9 8.3 2.3 2.7 5.7 4 10 4 4.7 0 8.9-1.6 12.8-4.8 3.9-3.2 6.2-7.2 7-11.8.1-1 .1-1.9 0-2.8zM159 50.2c-2.4-3.2-5.7-4.8-10.1-4.8-4.3 0-8.2 1.6-11.7 4.8-3.5 3.2-5.6 6.9-6.4 11.3-.8 4.4 0 8.1 2.4 11.3 2.4 3.2 5.8 4.9 10.1 4.9s8.3-1.6 11.8-4.9c3.5-3.1 5.6-6.9 6.3-11.3.8-4.4-.1-8.2-2.4-11.3zm-9.4 16.4c-1.4 1.6-3.1 2.4-4.9 2.4-1.8 0-3.1-.8-4-2.4-.8-1.5-1.1-3.2-.7-5.1.3-1.9 1.2-3.5 2.5-5 1.5-1.7 3.1-2.5 4.9-2.5 1.8 0 3.2.8 4 2.5.8 1.5 1.1 3.2.7 5-.3 1.9-1.1 3.6-2.5 5.1z"/><path class="ost4" d="M168.6 47.3s-5 4.3-5.5 7.3c-.5 2.7.6 5 3.2 6.8 1.3 1 3.8 2.2 7.5 3.7 2.7 1.1 4.1 2 3.9 2.7-.1.8-19.2.5-19.2.5l1.7 2.5c3.7 5 7.9 7.5 12.5 7.5 3.2 0 6.2-.9 8.8-2.8 2.8-2 4.5-4.6 5.1-7.8.4-2.3-.6-4.3-2.9-6.1-1.2-.9-3.5-2.2-6.8-3.7-2.4-1.1-3.6-1.9-3.5-2.5.1-.7 1.1-1.1 2.9-1.1 2.9 0 5.4 1.1 7.6 3.4l6.6-6.7c-1.2-1.9-1.7-2.5-1.7-2.5l-20.2-1.2z"/></g><g><path class="ost5" d="M10.8 73.2c1.2.7 2.6 1.3 4.4 2h.2c.2 0 .3 0 .5-.1s.3-.2.3-.4c.8-1.3 1.6-2.5 2.3-3.8.7-1.2 1.4-2.5 2.2-3.9l1.6.1h9.2c.3 0 .5 0 .8.1.2 0 .4.1.6.2.2.1.3.1.3.2 0 .8.1 1.5.2 2.1.1.6.2 1.1.3 1.6l.3 1.5c.1.5.2 1.1.3 1.7 0 .2.1.3.1.5.1.2.3.2.5.2h.1c.1 0 .4 0 .7-.1.3-.1.7-.2 1.2-.3.4-.1.9-.3 1.4-.5.5-.2 1-.3 1.5-.5l6.6-2c.4-.1.6-.2.6-.3 0-.1 0-.2-.1-.3-.1-.1-.2-.3-.3-.5-.1-.2-.2-.5-.3-1-.1-.4-.2-1-.2-1.6-.3-1.6-.5-3.2-.8-4.8-.3-1.5-.5-3.1-.8-4.6-.2-1.5-.5-3.1-.7-4.7-.2-1.6-.5-3.3-.7-5.1-.4-3.4-.9-6.5-1.4-9.3-.6-2.8-1.1-5.4-1.6-7.8 0-.4-.2-.7-.4-.9-.3-.1-.5-.2-.8-.2h-.5c-.4 0-.9.1-1.6.2-.7.1-1.3.3-2 .5s-1.3.3-1.8.5-.8.2-.9.3c-.1 0-.3.1-.5.2s-.4.2-.7.3c-.2.1-.5.3-.7.4-.2.2-.4.3-.5.5-.9 1.6-2 3.2-3.1 5.1-1.1 1.8-2.2 3.9-3.5 6.3-.6 1.3-1.3 2.5-1.9 3.6l-1.8 3.3c-.6 1.1-1.2 2.1-1.8 3.1-.6 1-1.2 2.1-1.9 3.3h-4.6c-.5 0-.8 0-1.1.1-.3 0-.5.1-.5.1-.1.6-.1 1.2-.1 1.8.1.6.2 1.3.4 1.9.2.6.4 1.3.6 1.9.2.6.5 1.2.8 1.7L10 67.6c-.4.7-.7 1.4-1.1 2-.4.6-.7 1.2-1.1 1.7.9.7 1.9 1.3 3 1.9zm21-23.8c0 1.2 0 2.4.1 3.4 0 1.1.1 2.1.2 3 .1 1 .1 1.9.2 2.9h-6.9s0-.1.1-.2v-.3c.2-.4.5-1 .9-1.7s.9-1.7 1.4-2.7c.6-1.1 1.2-2.3 1.9-3.7.7-1.4 1.4-3 2.2-4.7-.1 1.4-.1 2.8-.1 4z"/><path class="ost5" d="M83.6 45.3l-10.2-.4L65 57.6l-3.9-12.7-10.3.4c-1 5.3-1.9 10.2-2.7 14.8-.8 4.6-1.4 9-1.8 13.2l8.7.5c.7-6.3 1.3-10.9 1.8-14l5.3 14.4 10.4-14.4c-1.3 6.4-2.3 11.1-3.1 14l8.9-.5c1.1-4.2 2.1-8.6 2.9-13.2.7-4.5 1.6-9.5 2.4-14.8zM87.2 44.8c-1.6 6.9-2.8 12.6-3.6 17.1-.8 4.5-1.4 8.7-1.8 12.4l9.1-.3c.4-2.9 1-6.8 1.9-11.9.9-5.1 2.1-10.8 3.7-17l-9.3-.3zM127.7 56.1l-17.4 1.4-.8 7.1c3.3-.2 5.7-.4 7.2-.4-2.2 1.8-4.3 2.7-6.4 2.7-1.7 0-2.9-.4-3.9-1.3-.9-.9-1.2-2.1-1-3.8.5-2.6 1.9-4.7 4.2-6.1 2-1.3 4.4-1.9 7.1-1.9 1.1 0 2.7.3 4.9.9l3.5-9.9c-2-.8-4.7-1.2-8.2-1.2-4.9 0-9.5 1.7-13.7 5-4.3 3.4-6.9 7.6-7.7 12.5-.8 4.3 0 7.8 2.4 10.5 2.3 2.7 5.7 4 10 4 4.7 0 8.9-1.6 12.8-4.8 3.9-3.2 6.2-7.2 7-11.8.1-1.1.1-2 0-2.9zM157.3 47.6c-2.4-3.2-5.7-4.8-10.1-4.8-4.3 0-8.2 1.6-11.7 4.8-3.5 3.2-5.6 6.9-6.4 11.3-.8 4.4 0 8.1 2.4 11.3 2.4 3.2 5.8 4.9 10.1 4.9s8.3-1.6 11.8-4.9c3.5-3.1 5.6-6.9 6.3-11.3.8-4.3 0-8.1-2.4-11.3zM147.9 64c-1.4 1.6-3.1 2.4-4.9 2.4-1.8 0-3.1-.8-4-2.4-.8-1.5-1.1-3.2-.7-5.1.3-1.9 1.2-3.5 2.5-5 1.5-1.7 3.1-2.5 4.9-2.5 1.8 0 3.2.8 4 2.5.8 1.5 1.1 3.2.7 5-.3 1.9-1.1 3.6-2.5 5.1zM183.1 43.9c-2.4-1.1-4.9-1.6-7.5-1.6-3.1 0-6 .8-8.8 2.5-3.2 1.9-5 4.3-5.5 7.3-.5 2.7.6 5 3.2 6.8 1.3 1 3.8 2.2 7.5 3.7 2.7 1.1 4.1 2 3.9 2.7-.1.8-1 1.2-2.4 1.2-1.5 0-3.1-.6-4.8-1.7-1.4-1-2.6-2.1-3.6-3.4l-6.7 6.9c3.7 5 7.9 7.5 12.5 7.5 3.2 0 6.2-.9 8.8-2.8 2.8-2 4.5-4.6 5.1-7.8.4-2.3-.6-4.3-2.9-6.1-1.2-.9-3.5-2.2-6.8-3.7-2.4-1.1-3.6-1.9-3.5-2.5.1-.7 1.1-1.1 2.9-1.1 2.9 0 5.4 1.1 7.6 3.4l6.6-6.7c-1.2-2-3-3.5-5.6-4.6z"/></g><g><path class="ost6" d="M163 55.4c.5-2.9 2.4-5.4 5.5-7.3 2.8-1.7 5.7-2.5 8.8-2.5 2.6 0 5.1.5 7.5 1.6 1.2.5 2.3 1.2 3.2 1.9l.7-.7c-1.2-1.9-3.1-3.4-5.6-4.6-2.4-1.1-4.9-1.6-7.5-1.6-3.1 0-6 .8-8.8 2.5-3.2 1.9-5 4.3-5.5 7.3-.4 2.1.2 3.9 1.7 5.5-.1-.7-.1-1.4 0-2.1zM129.4 59.4c.1.9.1 1.8 0 2.8-.1.6-.3 1.2-.4 1.8.3 2.1 1 4 2.2 5.7-.7-2.2-.8-4.7-.4-7.4.8-4.4 2.9-8.1 6.4-11.3 3.5-3.2 7.4-4.8 11.7-4.8 4.3 0 7.7 1.6 10.1 4.8.1.2.2.3.3.5-.5-1.4-1.1-2.7-2-3.9-2.4-3.2-5.7-4.8-10.1-4.8-4.3 0-8.2 1.6-11.7 4.8-3.5 3.2-5.6 6.9-6.4 11.3 0 .2 0 .3-.1.5h.4zM110.3 57.5l-.8 7.1c.7-.1 1.4-.1 2.1-.1l.4-3.6 15.6-1.3c.1-.2.1-.5.2-.7.2-.9.2-1.9 0-2.8l-17.5 1.4zM66.8 61.1l8.4-12.7 7.9.3c.2-1.1.4-2.2.5-3.3L73.4 45l-7.9 12 1.3 4.1zM170.5 68.1c1.7 1.1 3.3 1.7 4.8 1.7s2.3-.4 2.4-1.2c.1-.6-.9-1.4-3-2.3-.3.1-.7.1-1.2.1-1.5 0-3.1-.6-4.8-1.7-1.3-.9-2.4-1.9-3.2-3.1-.1-.1-.2-.2-.4-.3l-5 5.2c-.3.8-.7 1.5-1.1 2.3.6.8 1.2 1.5 1.9 2.1l6.1-6.3c.9 1.4 2 2.5 3.5 3.5z"/><path class="ost6" d="M144.7 69.8c1.8 0 3.5-.8 4.9-2.4 1.3-1.5 2.2-3.2 2.5-5.1.3-1.9.1-3.5-.7-5-.3-.5-.6-.9-.9-1.3.2.9.2 1.9 0 2.9-.3 1.9-1.2 3.6-2.5 5.1-1.4 1.6-3.1 2.4-4.9 2.4-1.3 0-2.3-.4-3.1-1.2.1.8.4 1.5.8 2.1.8 1.7 2.2 2.5 3.9 2.5zM182 59c-1.2-.9-3.5-2.2-6.8-3.7-.1 0-.2-.1-.3-.1-.9.2-1.5.5-1.6 1-.1.6 1.1 1.4 3.5 2.5 3.3 1.5 5.5 2.7 6.8 3.7.5.4.9.8 1.3 1.2-.1-1.7-1.1-3.2-2.9-4.6zM85.3 65.3c.8-4.5 2-10.2 3.6-17.1l6.7.3c.3-1.1.5-2.2.8-3.3l-9.2-.4c-1.6 6.9-2.8 12.6-3.6 17.1-.8 4.5-1.4 8.7-1.8 12.4l2.1-.1c.4-2.8.9-5.7 1.4-8.9zM74.2 63.1l-3.4 4.7c-.5 2.5-1 4.5-1.5 6l2.6-.1c.7-2.8 1.5-6.3 2.3-10.6zM97.2 64.4c.9-4.9 3.4-9.1 7.7-12.5 4.2-3.3 8.7-5 13.7-5 2.1 0 4 .2 5.5.5l.9-2.6c-2-.8-4.7-1.2-8.2-1.2-4.9 0-9.5 1.7-13.7 5-4.3 3.4-6.9 7.6-7.7 12.5-.7 4-.1 7.2 1.9 9.8-.5-1.9-.6-4.1-.1-6.5zM33.8 59.2c-.1-1-.1-2-.2-3 0-1.1-.1-2.2-.1-3.4 0-1.2-.2-8-.2-8l-1.4.6v7.4c0 1.1.1 2.1.2 3 .1 1 .1 1.9.2 2.9h-3.6l-.6 1.2c-.4.7-.7 1.3-.9 1.7v.3c0 .1 0 .2-.1.2H34c-.1-1-.1-1.9-.2-2.9zM10.6 73c.4-.6.8-1.3 1.1-2l1.1-1.9c-.3-.5-.5-1.1-.8-1.7-.2-.6-.5-1.2-.6-1.9-.2-.6-.3-1.3-.4-1.9 0-.6 0-1.2.1-1.8 0 0 .2-.1.5-.1s.7-.1 1.1-.1h4.6c.6-1.2 1.3-2.3 1.9-3.3.6-1 1.2-2.1 1.8-3.1.6-1.1 1.2-2.1 1.8-3.3.6-1.1 1.3-2.3 1.9-3.6 1.2-2.4 2.4-4.5 3.5-6.3 1.1-1.8 2.1-3.5 3.1-5.1.1-.2.3-.4.5-.5.2-.2.4-.3.7-.4.2-.1.5-.2.7-.3.2-.1.4-.1.5-.2.1 0 .4-.1.9-.3.5-.2 1.1-.3 1.8-.5s1.4-.3 2-.5c.6-.1 1.2-.2 1.6-.2h.6c-.2-.8-.3-1.6-.5-2.3 0-.4-.2-.7-.4-.9-.3-.1-.5-.2-.8-.2h-.5c-.4 0-.9.1-1.6.2-.7.1-1.3.3-2 .5s-1.3.3-1.8.5-.8.2-.9.3c-.1 0-.3.1-.5.2s-.4.2-.7.3c-.2.1-.5.3-.7.4-.2.2-.4.3-.5.5-.9 1.6-2 3.2-3.1 5.1-1.1 1.8-2.2 3.9-3.5 6.3-.6 1.3-1.3 2.5-1.9 3.6l-1.8 3.3c-.6 1.1-1.2 2.1-1.8 3.1-.6 1-1.2 2.1-1.9 3.3h-4.6c-.5 0-.8 0-1.1.1-.3 0-.5.1-.5.1-.1.6-.1 1.2-.1 1.8.1.6.2 1.3.4 1.9.2.6.4 1.3.6 1.9.2.6.5 1.2.8 1.7L10 67.6c-.4.7-.7 1.4-1.1 2-.4.6-.7 1.2-1.1 1.7.8.6 1.7 1.2 2.8 1.7 0 .1 0 .1 0 0zM46.4 73.3l2 .1s.8-6.5 1.4-10c.8-4.6 1.7-9.5 2.7-14.8l9.7-.3-1-3.4-10.3.4c-1 5.3-1.9 10.2-2.7 14.8-1.5 8.2-1.8 13.2-1.8 13.2z"/></g></g></svg></svg>