<?xml version="1.0" encoding="utf-8"?>
<!-- Generator: Adobe Illustrator 21.0.0, SVG Export Plug-In . SVG Version: 6.00 Build 0)  -->
<svg version="1.1" id="Social" xmlns="http://www.w3.org/2000/svg" xmlns:xlink="http://www.w3.org/1999/xlink" x="0px" y="0px"
	 width="40px" height="40px" viewBox="0 0 40 40" style="enable-background:new 0 0 40 40;" xml:space="preserve">
<style type="text/css">
	.st0{fill:#134785;}
	.st1{fill:#FF9E00;}
</style>
<g id="Mailru">
	<rect id="b" class="st0" width="40" height="40"/>
	<path id="m" class="st1" d="M24.2,20c0,2.3-1.9,4.2-4.2,4.2s-4.2-1.9-4.2-4.2s1.9-4.2,4.2-4.2S24.2,17.7,24.2,20 M20,6
		C12.3,6,6,12.3,6,20s6.3,14,14,14c2.8,0,5.6-0.8,7.9-2.4l0,0L26,29.3l0,0c-1.8,1.2-3.9,1.8-6,1.8c-6.1,0-11.1-5-11.1-11.1
		S13.9,8.9,20,8.9s11.1,5,11.1,11.1c0,0.8-0.1,1.6-0.3,2.4c-0.4,1.4-1.4,1.9-2.1,1.8c-0.8-0.1-1.7-0.6-1.7-1.9v-1.1V20
		c0-3.9-3.2-7.1-7.1-7.1s-7.1,3.2-7.1,7.1s3.2,7.1,7.1,7.1c1.9,0,3.7-0.7,5-2.1c0.8,1.2,2.1,2,3.5,2.1c0.1,0,0.3,0,0.4,0
		c1,0,2-0.3,2.8-1c0.8-0.6,1.5-1.6,1.8-2.7c0.1-0.2,0.2-0.6,0.2-0.6l0,0C33.9,22,34,21.1,34,20C34,12.3,27.7,6,20,6"/>
</g>
</svg>
