<svg width="503" height="403" viewBox="0 0 503 403" fill="none" xmlns="http://www.w3.org/2000/svg">
<style>
	* {
		transform-box: fill-box;
	}
	#arm {
		transform-origin: top right;
			animation: arm-animation 1.5s linear infinite alternate;
	}
	@keyframes arm-animation {
        0% {
            transform: rotate(0deg);
        }
        100% {
            transform: rotate(-6deg);
        }
    }
	#graphic {
		transform-origin: top left;
		animation: scale-up-animation 2.5s linear infinite alternate;
	}
	@keyframes scale-up-animation {
        0% {
            transform: scaleY(0.3);
        }
        100% {
            transform: scaleY(1);
        }
    }
	#selection {
		transform-origin: top right;
		animation: scale-full-up-animation 4s linear infinite alternate;
	}
	@keyframes scale-full-up-animation {
        0% {
            transform: scale(0.1);
        }
        100% {
            transform: scale(1);
        }
    }
</style>
<g id="Group">
<g id="Group_2">
<g id="Group_3">
<path id="Vector" d="M372.3 33.9C372.3 30.9 369.9 28.4 366.8 28.4C366.3 28.4 365.7 28.5 365.2 28.6C365.3 28.1 365.3 27.5 365.3 26.9C365.3 20.5 360.1 15.3 353.7 15.3C353 15.3 352.3 15.4 351.6 15.5C349.8 12.6 346.6 10.6 343 10.6C337.5 10.6 333 15.1 332.9 20.6C332.8 20.6 332.8 20.6 332.7 20.6C327.5 20.6 323.4 24.8 323.4 29.9C323.4 35 327.6 39.2 332.7 39.2H367C370 39.3 372.3 36.9 372.3 33.9Z" fill="url(#paint0_linear)"/>
<path id="Vector_2" d="M352.3 42.1V31.5H343.6V42.1H336.5L347.9 51.8L359.3 42.1H352.3Z" fill="url(#paint1_linear)"/>
</g>
<g id="Group_4">
<path id="Vector_3" d="M201 50.1C201 43.7 195.8 38.5 189.4 38.5C188.2 38.5 187.1 38.7 186.1 39C186.3 37.8 186.4 36.6 186.4 35.4C186.4 21.8 175.4 10.8 161.8 10.8C160.3 10.8 158.7 10.9 157.3 11.2C153.5 4.99999 146.7 0.899994 139 0.899994C127.2 0.899994 117.7 10.4 117.5 22.1C117.4 22.1 117.3 22.1 117.1 22.1C106.2 22.1 97.3 31 97.3 41.9C97.3 52.8 106.2 61.7 117.1 61.7H189.8C196 61.5 201 56.4 201 50.1Z" fill="url(#paint2_linear)"/>
<path id="Vector_4" d="M139.9 51V73.6H158.3V51H173.4L149.1 30.5L124.9 51H139.9Z" fill="url(#paint3_linear)"/>
</g>
<g id="Group_5">
<path id="Vector_5" d="M210.3 84.6V54.2H303.5V84.3" fill="url(#paint4_linear)"/>
<g id="Group_6">
<path id="Vector_6" d="M259.3 25.5H257.3V84.5H259.3V25.5Z" fill="url(#paint5_linear)"/>
</g>
<g id="Group_7">
<path id="Vector_7" d="M274.3 13.9H242.3C241.6 13.9 241.1 14.4 241.1 15.1V34.3C241.1 35 241.6 35.5 242.3 35.5H274.3C275 35.5 275.5 35 275.5 34.3V15.1C275.5 14.4 274.9 13.9 274.3 13.9Z" fill="url(#paint6_linear)"/>
<path id="Vector_8" d="M273.9 34.6H242.8C242.6 34.6 242.4 34.4 242.4 34.2V16.8C242.4 16.6 242.6 16.4 242.8 16.4H273.9C274.1 16.4 274.3 16.6 274.3 16.8V34.1C274.3 34.4 274.1 34.6 273.9 34.6Z" fill="url(#paint7_linear)"/>
</g>
<g id="Group_8">
<path id="Vector_9" d="M226.3 81.8H194.3C193.6 81.8 193.1 82.3 193.1 83V102.2C193.1 102.9 193.6 103.4 194.3 103.4H226.3C227 103.4 227.5 102.9 227.5 102.2V83C227.5 82.4 226.9 81.8 226.3 81.8Z" fill="url(#paint8_linear)"/>
<path id="Vector_10" d="M225.9 102.5H194.8C194.6 102.5 194.4 102.3 194.4 102.1V84.8C194.4 84.6 194.6 84.4 194.8 84.4H225.9C226.1 84.4 226.3 84.6 226.3 84.8V102.1C226.3 102.3 226.1 102.5 225.9 102.5Z" fill="url(#paint9_linear)"/>
</g>
<g id="Group_9">
<path id="Vector_11" d="M274.3 81.8H242.3C241.6 81.8 241.1 82.3 241.1 83V102.2C241.1 102.9 241.6 103.4 242.3 103.4H274.3C275 103.4 275.5 102.9 275.5 102.2V83C275.5 82.4 274.9 81.8 274.3 81.8Z" fill="url(#paint10_linear)"/>
<path id="Vector_12" d="M273.9 102.5H242.8C242.6 102.5 242.4 102.3 242.4 102.1V84.8C242.4 84.6 242.6 84.4 242.8 84.4H273.9C274.1 84.4 274.3 84.6 274.3 84.8V102.1C274.3 102.3 274.1 102.5 273.9 102.5Z" fill="url(#paint11_linear)"/>
</g>
<g id="Group_10">
<path id="Vector_13" d="M319.6 81.8H287.6C286.9 81.8 286.4 82.3 286.4 83V102.2C286.4 102.9 286.9 103.4 287.6 103.4H319.6C320.3 103.4 320.8 102.9 320.8 102.2V83C320.8 82.4 320.2 81.8 319.6 81.8Z" fill="url(#paint12_linear)"/>
<path id="Vector_14" d="M319.2 102.5H288C287.8 102.5 287.6 102.3 287.6 102.1V84.8C287.6 84.6 287.8 84.4 288 84.4H319.1C319.3 84.4 319.5 84.6 319.5 84.8V102.1C319.6 102.3 319.4 102.5 319.2 102.5Z" fill="url(#paint13_linear)"/>
</g>
<path id="Vector_15" d="M257.6 44.9L249 53.5C248.6 53.9 248.6 54.4 249 54.8L257.6 63.4C258 63.8 258.5 63.8 258.9 63.4L267.5 54.8C267.9 54.4 267.9 53.9 267.5 53.5L258.9 44.9C258.6 44.6 258 44.6 257.6 44.9Z" fill="url(#paint14_linear)"/>
</g>
<g id="Group_11">
<path id="Vector_16" opacity="0.8" d="M76.4 75.9H53.8C53.3 75.9 52.9 75.5 52.9 75V62.2C52.9 61.7 53.3 61.3 53.8 61.3H76.4C76.9 61.3 77.3 61.7 77.3 62.2V75C77.2 75.5 76.8 75.9 76.4 75.9Z" fill="url(#paint15_linear)"/>
<path id="Vector_17" d="M59.3 103.8H41.4C40.9 103.8 40.5 103.4 40.5 102.9V93.5C40.5 93 40.9 92.6 41.4 92.6H59.3C59.8 92.6 60.2 93 60.2 93.5V102.9C60.2 103.4 59.8 103.8 59.3 103.8Z" fill="url(#paint16_linear)"/>
<path id="Vector_18" d="M89.1 103.8H71.2C70.7 103.8 70.3 103.4 70.3 102.9V93.5C70.3 93 70.7 92.6 71.2 92.6H89.1C89.6 92.6 90 93 90 93.5V102.9C90 103.4 89.6 103.8 89.1 103.8Z" fill="url(#paint17_linear)"/>
<g id="Group_12">
<path id="Vector_19" d="M70.8 125.7H62.2C61.7 125.7 61.3 125.3 61.3 124.8V117C61.3 116.5 61.7 116.1 62.2 116.1H70.8C71.3 116.1 71.7 116.5 71.7 117V124.8C71.7 125.3 71.3 125.7 70.8 125.7Z" fill="url(#paint18_linear)"/>
<path id="Vector_20" d="M83.9 125.7H75.3C74.8 125.7 74.4 125.3 74.4 124.8V117C74.4 116.5 74.8 116.1 75.3 116.1H83.9C84.4 116.1 84.8 116.5 84.8 117V124.8C84.8 125.3 84.4 125.7 83.9 125.7Z" fill="url(#paint19_linear)"/>
<path id="Vector_21" d="M97 125.7H88.4C87.9 125.7 87.5 125.3 87.5 124.8V117C87.5 116.5 87.9 116.1 88.4 116.1H97C97.5 116.1 97.9 116.5 97.9 117V124.8C97.9 125.3 97.5 125.7 97 125.7Z" fill="url(#paint20_linear)"/>
</g>
<path id="Vector_22" d="M40.5 125.7H31.9C31.4 125.7 31 125.3 31 124.8V117C31 116.5 31.4 116.1 31.9 116.1H40.5C41 116.1 41.4 116.5 41.4 117V124.8C41.3 125.3 40.9 125.7 40.5 125.7Z" fill="url(#paint21_linear)"/>
<path id="Vector_23" d="M54.7 125.7H46.1C45.6 125.7 45.2 125.3 45.2 124.8V117C45.2 116.5 45.6 116.1 46.1 116.1H54.7C55.2 116.1 55.6 116.5 55.6 117V124.8C55.6 125.3 55.2 125.7 54.7 125.7Z" fill="url(#paint22_linear)"/>
<g id="Group_13">
<path id="Vector_24" d="M79.1 92.7H80.2V84.9H65.6V75.9H64.5V84.9H50V92.7H51.1V86H79.1V92.7Z" fill="url(#paint23_linear)"/>
<path id="Vector_25" d="M50 110.6H35.5V116.2H36.6V111.7H50V116.2H51.1V103.9H50V110.6Z" fill="url(#paint24_linear)"/>
<path id="Vector_26" d="M80.2 111.7V103.9H79.1V111.7H65.6V116.2H66.8V112.8H79.1V116.2H80.2V112.8H92.5V116.2H93.6V111.7H80.2Z" fill="url(#paint25_linear)"/>
</g>
</g>
<g id="Group_14">
<path id="Vector_27" d="M402.6 64.9V72.9L406.7 73.3C407.3 76 408.3 78.5 409.8 80.7L407.1 83.9L412.8 89.6L416 86.9C418.2 88.4 420.7 89.4 423.4 90L423.8 94.1H431.8L432.2 90C434.9 89.4 437.4 88.4 439.6 86.9L442.8 89.6L448.5 83.9L445.8 80.7C447.3 78.5 448.3 76 448.9 73.3L453 72.9V64.9L448.9 64.5C448.3 61.8 447.3 59.3 445.8 57.1L448.5 53.9L442.8 48.2L439.6 50.9C437.4 49.4 434.9 48.4 432.2 47.8L431.8 43.7H423.8L423.4 47.8C420.7 48.4 418.2 49.4 416 50.9L412.8 48.2L407.1 53.9L409.8 57.1C408.3 59.3 407.3 61.8 406.7 64.5L402.6 64.9ZM427.9 58C433.9 58 438.8 62.9 438.8 68.9C438.8 74.9 433.9 79.8 427.9 79.8C421.9 79.8 417 74.9 417 68.9C417 62.9 421.9 58 427.9 58Z" fill="url(#paint26_linear)"/>
<path id="Vector_28" d="M407.8 123.5C409.9 123.1 411.9 122.2 413.6 121.1L416.1 123.2L420.6 118.8L418.5 116.3C419.6 114.6 420.5 112.6 420.9 110.5L424.1 110.2V103.9L420.9 103.6C420.5 101.5 419.6 99.5 418.5 97.8L420.6 95.3L416.1 90.8L413.6 92.9C411.9 91.8 409.9 90.9 407.8 90.5L407.5 87.3H401.2L400.9 90.5C398.8 90.9 396.8 91.8 395.1 92.9L392.6 90.8L388.1 95.3L390.2 97.8C389.1 99.5 388.2 101.5 387.8 103.6L384.6 103.9V110.2L387.8 110.5C388.2 112.6 389.1 114.6 390.2 116.3L388.1 118.8L392.6 123.2L395.1 121.1C396.8 122.2 398.8 123.1 400.9 123.5L401.2 126.7H407.5L407.8 123.5ZM395.8 106.9C395.8 102.2 399.6 98.4 404.3 98.4C409 98.4 412.8 102.2 412.8 106.9C412.8 111.6 409 115.4 404.3 115.4C399.6 115.4 395.8 111.6 395.8 106.9Z" fill="url(#paint27_linear)"/>
<path id="Vector_29" d="M393.8 89.4L395.9 91.1L399.6 87.4L397.9 85.3C398.9 83.8 399.6 82.2 399.9 80.4L402.6 80.1V74.8L399.9 74.5C399.5 72.7 398.8 71.1 397.9 69.6L399.6 67.5L395.9 63.8L393.8 65.5C392.3 64.5 390.7 63.8 388.9 63.5L388.6 60.8H383.3L383 63.5C381.2 63.9 379.6 64.6 378.1 65.5L376 63.8L372.3 67.5L374 69.6C373 71.1 372.3 72.7 372 74.5L369.3 74.8V80.1L372 80.4C372.4 82.2 373.1 83.8 374 85.3L372.3 87.4L376 91.1L378.1 89.4C379.6 90.4 381.2 91.1 383 91.4L383.3 94.1H388.6L388.9 91.4C390.6 91.1 392.3 90.3 393.8 89.4ZM378.8 77.5C378.8 73.5 382 70.3 386 70.3C390 70.3 393.2 73.5 393.2 77.5C393.2 81.5 390 84.7 386 84.7C382 84.7 378.8 81.5 378.8 77.5Z" fill="url(#paint28_linear)"/>
</g>
<g id="Group_15">
<g id="Group_16">
<path id="Vector_30" d="M467.9 286.5H392.8V335.3H467.9V286.5Z" fill="url(#paint29_linear)"/>
</g>
<path id="Vector_31" d="M465.2 295.6H395.6V332.8H465.2V295.6Z" fill="url(#paint30_linear)"/>
<g id="Group_17">
<path id="Vector_32" d="M452.7 301.2H401.2V302.8H452.7V301.2Z" fill="url(#paint31_linear)"/>
<path id="Vector_33" d="M425.9 306.1H401.2V307.7H425.9V306.1Z" fill="url(#paint32_linear)"/>
<path id="Vector_34" d="M432.3 311H401.2V312.6H432.3V311Z" fill="url(#paint33_linear)"/>
<path id="Vector_35" d="M412.2 315.9H401.2V317.5H412.2V315.9Z" fill="url(#paint34_linear)"/>
<path id="Vector_36" d="M408.3 320.8H401.2V322.4H408.3V320.8Z" fill="url(#paint35_linear)"/>
</g>
</g>
<g id="Group_18">
<path id="Vector_37" d="M83.7 319.2L30.3 319.4L30.1 286.5L83.5 286.2L83.7 319.2Z" fill="url(#paint36_linear)"/>
<g id="Group_19">
<g id="Group_20">
<path id="Vector_38" d="M50.5999 311.1C50.3999 311.1 50.1 311 49.9 310.9L40.2 303.8C39.9 303.6 39.7 303.3 39.7 302.9C39.7 302.5 39.9 302.2 40.2 302L49.9 294.8C50.4 294.4 51.1 294.5 51.5 295C51.9 295.5 51.7999 296.2 51.2999 296.6L42.7999 302.9L51.2999 309.1C51.7999 309.5 51.9 310.2 51.5 310.7C51.3 311 50.9999 311.1 50.5999 311.1Z" fill="url(#paint37_linear)"/>
</g>
<g id="Group_21">
<path id="Vector_39" d="M63.3 311.1C63 311.1 62.6 310.9 62.4 310.7C62 310.2 62.1 309.5 62.6 309.1L71.1 302.8L62.6 296.6C62.1 296.2 62 295.5 62.4 295C62.8 294.5 63.5 294.4 64 294.8L73.7 301.9C74 302.1 74.2 302.4 74.2 302.8C74.2 303.2 74 303.5 73.7 303.7L64 310.9C63.7 311 63.5 311.1 63.3 311.1Z" fill="url(#paint38_linear)"/>
</g>
<g id="Group_22">
<path id="Vector_40" d="M54.3999 311.1C54.2999 311.1 54.1999 311.1 53.9999 311C53.3999 310.8 53.0999 310.2 53.2999 309.6L58.2999 295.2C58.4999 294.6 59.0999 294.3 59.6999 294.5C60.2999 294.7 60.5999 295.3 60.3999 295.9L55.3999 310.3C55.2999 310.8 54.8999 311.1 54.3999 311.1Z" fill="url(#paint39_linear)"/>
</g>
</g>
</g>
</g>
<path id="x3C Path x3E  359" d="M256.2 402.3C375.935 402.3 473 396.614 473 389.6C473 382.586 375.935 376.9 256.2 376.9C136.465 376.9 39.4 382.586 39.4 389.6C39.4 396.614 136.465 402.3 256.2 402.3Z" fill="url(#paint40_linear)"/>
<g id="Group_23">
<g id="Group_24">
<path id="Vector_41" d="M194 339.9H118.9V388.7H194V339.9Z" fill="#262D40"/>
<path id="Vector_42" opacity="0.6" d="M194 339.9H118.9V388.7H194V339.9Z" fill="#262D40"/>
</g>
<path id="Vector_43" d="M191.2 349.1H121.6V386.3H191.2V349.1Z" fill="white"/>
<g id="Group_25" opacity="0.6">
<path id="Vector_44" opacity="0.6" d="M178.8 354.7H127.3V356.3H178.8V354.7Z" fill="#262D40"/>
<path id="Vector_45" opacity="0.6" d="M152 359.6H127.3V361.2H152V359.6Z" fill="#262D40"/>
<path id="Vector_46" opacity="0.6" d="M158.4 364.5H127.3V366.1H158.4V364.5Z" fill="#262D40"/>
<path id="Vector_47" opacity="0.6" d="M138.3 369.4H127.3V371H138.3V369.4Z" fill="#262D40"/>
<path id="Vector_48" opacity="0.6" d="M134.4 374.3H127.3V375.9H134.4V374.3Z" fill="#262D40"/>
</g>
</g>
<g id="Group_26">
<g id="Group_27">
<path id="Vector_49" d="M286.7 389.6H225.6L236 308.3H276.4L286.7 389.6Z" fill="#262D40"/>
<path id="Vector_50" opacity="0.6" d="M286.7 389.6H225.6L232.7 334L236 308.3H276.4L281.2 346.2L286.7 389.6Z" fill="#262D40"/>
<path id="Vector_51" d="M281.2 346.2L232.7 334L236 308.3H276.4L281.2 346.2Z" fill="#0D0F14"/>
</g>
<g id="Group_28">
<path id="Vector_52" d="M400.2 108H394.1H118.2H112.1C108 108 104.7 111.3 104.7 115.4V310.5C104.7 314.6 108 317.9 112.1 317.9H118.2H394.1H400.2C404.3 317.9 407.6 314.6 407.6 310.5V115.4C407.6 111.3 404.3 108 400.2 108Z" fill="#262D40"/>
<path id="Vector_53" opacity="0.7" d="M400.2 108H394.1H118.2H112.1C108 108 104.7 111.3 104.7 115.4V310.5C104.7 314.6 108 317.9 112.1 317.9H118.2H394.1H400.2C404.3 317.9 407.6 314.6 407.6 310.5V115.4C407.6 111.3 404.3 108 400.2 108Z" fill="#262D40"/>
</g>
<path id="Vector_54" d="M397.9 115.2H114.4V303.3H397.9V115.2Z" fill="#318BCF"/>
<g id="Group_29">
<path id="Vector_55" d="M307.6 383.5H204.7C204.1 383.5 203.7 384 203.7 384.5V388.4C203.7 389 204.2 389.4 204.7 389.4H307.6C308.2 389.4 308.6 388.9 308.6 388.4V384.5C308.6 383.9 308.2 383.5 307.6 383.5Z" fill="#262D40"/>
<path id="Vector_56" opacity="0.7" d="M307.6 383.5H204.7C204.1 383.5 203.7 384 203.7 384.5V388.4C203.7 389 204.2 389.4 204.7 389.4H307.6C308.2 389.4 308.6 388.9 308.6 388.4V384.5C308.6 383.9 308.2 383.5 307.6 383.5Z" fill="#262D40"/>
</g>
<g id="Group_30">
<path id="Vector_57" opacity="0.2" d="M397.9 115.4H114.4V143.4H397.9V115.4Z" fill="black"/>
<path id="Vector_58" opacity="0.4" d="M235.9 143.8H114.4V303.3H235.9V143.8Z" fill="white"/>
<g id="selection">
<g id="Group_31">
<g id="Group_32">
<path id="Vector_59" d="M354.3 184.8V187.3H351.8" stroke="white" stroke-miterlimit="10"/>
<path id="Vector_60" d="M347 187.3H253.2" stroke="white" stroke-miterlimit="10" stroke-dasharray="4.81 4.81"/>
<path id="Vector_61" d="M250.8 187.3H248.3V184.8" stroke="white" stroke-miterlimit="10"/>
<path id="Vector_62" d="M248.3 179.7V131" stroke="white" stroke-miterlimit="10" stroke-dasharray="5.12 5.12"/>
<path id="Vector_63" d="M248.3 128.5V126H250.8" stroke="white" stroke-miterlimit="10"/>
<path id="Vector_64" d="M255.6 126H349.4" stroke="white" stroke-miterlimit="10" stroke-dasharray="4.81 4.81"/>
<path id="Vector_65" d="M351.8 126H354.3V128.5" stroke="white" stroke-miterlimit="10"/>
<path id="Vector_66" d="M354.3 133.6V182.2" stroke="white" stroke-miterlimit="10" stroke-dasharray="5.12 5.12"/>
</g>
</g>
<g id="Group_33">
<path id="Vector_67" d="M356 124.2H352.5V127.7H356V124.2Z" fill="#007CFF" stroke="white" stroke-miterlimit="10"/>
<path id="Vector_68" d="M356 185.5H352.5V189H356V185.5Z" fill="#007CFF" stroke="white" stroke-miterlimit="10"/>
<path id="Vector_69" d="M250 124.2H246.5V127.7H250V124.2Z" fill="#007CFF" stroke="white" stroke-miterlimit="10"/>
<path id="Vector_70" d="M250 185.5H246.5V189H250V185.5Z" fill="#007CFF" stroke="white" stroke-miterlimit="10"/>
</g>
<g id="Group_34">
<path id="Vector_71" d="M303 124.2H299.5V127.7H303V124.2Z" fill="#007CFF" stroke="white" stroke-miterlimit="10"/>
<path id="Vector_72" d="M303 185.5H299.5V189H303V185.5Z" fill="#007CFF" stroke="white" stroke-miterlimit="10"/>
</g>
<g id="Group_35">
<path id="Vector_73" d="M356 154.9H352.5V158.4H356V154.9Z" fill="#007CFF" stroke="white" stroke-miterlimit="10"/>
<path id="Vector_74" d="M250 154.9H246.5V158.4H250V154.9Z" fill="#007CFF" stroke="white" stroke-miterlimit="10"/>
</g>
</g>
<path id="Vector_75" opacity="0.7" d="M344.9 157.7H318.5C317.5 157.7 316.6 156.9 316.6 155.8V148.4C316.6 147.4 317.4 146.5 318.5 146.5H344.9C345.9 146.5 346.8 147.3 346.8 148.4V155.8C346.8 156.9 345.9 157.7 344.9 157.7Z" fill="white"/>
<path id="Vector_76" opacity="0.7" d="M300.2 157.7H273.8C272.8 157.7 271.9 156.9 271.9 155.8V148.4C271.9 147.4 272.7 146.5 273.8 146.5H300.2C301.2 146.5 302.1 147.3 302.1 148.4V155.8C302 156.9 301.2 157.7 300.2 157.7Z" fill="white"/>
<path id="Vector_77" opacity="0.7" d="M242.6 293.7H216.2C215.2 293.7 214.3 292.9 214.3 291.8V284.4C214.3 283.4 215.1 282.5 216.2 282.5H242.6C243.6 282.5 244.5 283.3 244.5 284.4V291.8C244.5 292.8 243.6 293.7 242.6 293.7Z" fill="white"/>
<g id="Group_36">
<path id="Vector_78" d="M379.2 125.4H388.6" stroke="white" stroke-width="1.5" stroke-miterlimit="10" stroke-linecap="round" stroke-linejoin="round"/>
<path id="Vector_79" d="M379.2 129.8H388.6" stroke="white" stroke-width="1.5" stroke-miterlimit="10" stroke-linecap="round" stroke-linejoin="round"/>
<path id="Vector_80" d="M379.2 134.3H388.6" stroke="white" stroke-width="1.5" stroke-miterlimit="10" stroke-linecap="round" stroke-linejoin="round"/>
</g>
<path id="Vector_81" opacity="0.5" d="M228.7 168.5H133.6V263.6H228.7V168.5Z" fill="white"/>
<g id="graphic">
<path id="Vector_82" d="M173.4 176.3V258.3" stroke="#007CFF" stroke-miterlimit="10"/>
<path id="Vector_83" d="M214.4 258.3C191.8 258.3 173.4 239.9 173.4 217.3C173.4 194.7 191.8 176.3 214.4 176.3" stroke="#007CFF" stroke-miterlimit="10"/>
<path id="Vector_84" d="M216.2 174.5H212.7V178H216.2V174.5Z" fill="white" stroke="#007CFF" stroke-miterlimit="10"/>
<path id="Vector_85" d="M216.2 256.5H212.7V260H216.2V256.5Z" fill="white" stroke="#007CFF" stroke-miterlimit="10"/>
<path id="Vector_86" d="M175.2 215.5H171.7V219H175.2V215.5Z" fill="white" stroke="#007CFF" stroke-miterlimit="10"/>
<path id="Vector_87" d="M173.4 177.2C173.897 177.2 174.3 176.797 174.3 176.3C174.3 175.803 173.897 175.4 173.4 175.4C172.903 175.4 172.5 175.803 172.5 176.3C172.5 176.797 172.903 177.2 173.4 177.2Z" fill="white" stroke="#007CFF" stroke-miterlimit="10"/>
<path id="Vector_88" d="M173.4 259.2C173.897 259.2 174.3 258.797 174.3 258.3C174.3 257.803 173.897 257.4 173.4 257.4C172.903 257.4 172.5 257.803 172.5 258.3C172.5 258.797 172.903 259.2 173.4 259.2Z" fill="white" stroke="#007CFF" stroke-miterlimit="10"/>
</g>
<path id="Vector_89" opacity="0.7" d="M331 283.8H302.2C297.6 283.8 293.9 280.1 293.9 275.5C293.9 270.9 297.6 267.2 302.2 267.2H331C335.6 267.2 339.3 270.9 339.3 275.5C339.3 280.1 335.6 283.8 331 283.8Z" fill="white"/>
<path id="Vector_90" opacity="0.7" d="M356.3 212.9H267.4C266.4 212.9 265.6 212.1 265.6 211.1C265.6 210.1 266.4 209.3 267.4 209.3H356.3C357.3 209.3 358.1 210.1 358.1 211.1C358.1 212.1 357.3 212.9 356.3 212.9Z" fill="white"/>
<path id="Vector_91" opacity="0.7" d="M356.3 226.2H267.4C266.4 226.2 265.6 225.4 265.6 224.4C265.6 223.4 266.4 222.6 267.4 222.6H356.3C357.3 222.6 358.1 223.4 358.1 224.4C358.1 225.4 357.3 226.2 356.3 226.2Z" fill="white"/>
<path id="Vector_92" opacity="0.7" d="M356.3 239.5H300.9C299.9 239.5 299.1 238.7 299.1 237.7C299.1 236.7 299.9 235.9 300.9 235.9H356.3C357.3 235.9 358.1 236.7 358.1 237.7C358.1 238.7 357.3 239.5 356.3 239.5Z" fill="white"/>
<g id="Group_37">
<path id="Vector_93" opacity="0.4" d="M129.7 123.2H123.4V129.5H129.7V123.2Z" fill="black"/>
<path id="Vector_94" opacity="0.4" d="M140.4 129.5H137C136.2 129.5 135.6 128.9 135.6 128.1V124.7C135.6 123.9 136.2 123.3 137 123.3H140.4C141.2 123.3 141.8 123.9 141.8 124.7V128.1C141.9 128.8 141.2 129.5 140.4 129.5Z" fill="black"/>
<path id="Vector_95" opacity="0.4" d="M151.5 129.5H150.4C149 129.5 147.8 128.3 147.8 126.9V125.8C147.8 124.4 149 123.2 150.4 123.2H151.5C152.9 123.2 154.1 124.4 154.1 125.8V126.9C154.1 128.3 152.9 129.5 151.5 129.5Z" fill="black"/>
</g>
<g id="Group_38">
<g id="Group_39">
<path id="Vector_96" opacity="0.9" d="M142.6 278.1V275.7L141.3 275.6C141.1 274.8 140.8 274 140.4 273.3L141.2 272.3L139.5 270.6L138.5 271.4C137.8 271 137.1 270.6 136.2 270.5L136.1 269.2H133.7L133.6 270.5C132.8 270.7 132 271 131.3 271.4L130.3 270.6L128.6 272.3L129.4 273.3C129 274 128.6 274.7 128.5 275.6L127.2 275.7V278.1L128.5 278.2C128.7 279 129 279.8 129.4 280.5L128.6 281.5L130.3 283.2L131.3 282.4C132 282.8 132.7 283.2 133.6 283.3L133.7 284.6H136.1L136.2 283.3C137 283.1 137.8 282.8 138.5 282.4L139.5 283.2L141.2 281.5L140.4 280.5C140.8 279.8 141.2 279.1 141.3 278.2L142.6 278.1ZM134.9 280.2C133.1 280.2 131.6 278.7 131.6 276.9C131.6 275.1 133.1 273.6 134.9 273.6C136.7 273.6 138.2 275.1 138.2 276.9C138.2 278.7 136.8 280.2 134.9 280.2Z" fill="white"/>
<path id="Vector_97" opacity="0.6" d="M152.6 285V283.1L151.6 283C151.5 282.4 151.2 281.8 150.9 281.2L151.5 280.4L150.1 279L149.3 279.6C148.8 279.3 148.2 279 147.5 278.9L147.4 277.9H145.5L145.4 278.9C144.8 279 144.2 279.3 143.6 279.6L142.8 279L141.4 280.4L142 281.2C141.7 281.7 141.4 282.3 141.3 283L140.3 283.1V285L141.3 285.1C141.4 285.7 141.7 286.3 142 286.9L141.4 287.7L142.8 289.1L143.6 288.5C144.1 288.8 144.7 289.1 145.4 289.2L145.5 290.2H147.4L147.5 289.2C148.1 289.1 148.7 288.8 149.3 288.5L150.1 289.1L151.5 287.7L150.9 286.9C151.2 286.4 151.5 285.8 151.6 285.1L152.6 285ZM146.5 286.6C145.1 286.6 143.9 285.4 143.9 284C143.9 282.6 145.1 281.4 146.5 281.4C147.9 281.4 149.1 282.6 149.1 284C149.1 285.5 148 286.6 146.5 286.6Z" fill="white"/>
<path id="Vector_98" opacity="0.4" d="M142.6 290.4V288.8L141.8 288.7C141.7 288.2 141.5 287.7 141.2 287.2L141.7 286.6L140.6 285.5L140 286C139.6 285.7 139.1 285.5 138.5 285.4L138.4 284.6H136.8L136.7 285.4C136.2 285.5 135.7 285.7 135.2 286L134.6 285.5L133.5 286.6L134 287.2C133.7 287.6 133.5 288.1 133.4 288.7L132.6 288.8V290.4L133.4 290.5C133.5 291 133.7 291.5 134 292L133.5 292.6L134.6 293.7L135.2 293.2C135.6 293.5 136.1 293.7 136.7 293.8L136.8 294.6H138.4L138.5 293.8C139 293.7 139.5 293.5 140 293.2L140.6 293.7L141.7 292.6L141.2 292C141.5 291.6 141.7 291.1 141.8 290.5L142.6 290.4ZM137.6 291.8C136.4 291.8 135.4 290.8 135.4 289.6C135.4 288.4 136.4 287.4 137.6 287.4C138.8 287.4 139.8 288.4 139.8 289.6C139.7 290.8 138.8 291.8 137.6 291.8Z" fill="white"/>
</g>
</g>
</g>
<g id="Group_40">
<g id="Group_41">
<path id="Vector_99" d="M353.6 125.3L358.4 138L366.3 130.1L353.6 125.3Z" fill="#007CFF"/>
<path id="Vector_100" d="M361.275 131.21L359.507 132.977L363.467 136.937L365.235 135.169L361.275 131.21Z" fill="#007CFF"/>
</g>
<path id="Vector_101" opacity="0.4" d="M366.3 130.1L353.6 125.3L358.4 138L361.4 134.9L363.4 136.9L365.2 135.1L363.2 133.2L366.3 130.1Z" fill="white"/>
</g>
<g id="Group_42">
<path id="Vector_102" d="M159.4 170.7L171.3 175.2L165 168.9C164.5 169.2 163.9 169.1 163.5 168.7C163 168.2 163 167.4 163.5 167C164 166.5 164.8 166.5 165.2 167C165.6 167.4 165.6 168 165.4 168.5L171.7 174.8L167.2 162.9L163.2 163.8L163 162.4L162.3 161.7L157.9 166.1L158.6 166.8L160 167L159.4 170.7Z" fill="#1A2E35"/>
<path id="Vector_103" opacity="0.2" d="M159.4 170.7L171.3 175.2L165 168.9C164.5 169.2 163.9 169.1 163.5 168.7C163 168.2 163 167.4 163.5 167C164 166.5 164.8 166.5 165.2 167C165.6 167.4 165.6 168 165.4 168.5L171.7 174.8L167.2 162.9L163.2 163.8L163 162.4L162.3 161.7L157.9 166.1L158.6 166.8L160 167L159.4 170.7Z" fill="white"/>
</g>
</g>
<g id="Group_43">
<g id="Group_44">
<path id="Vector_104" d="M470.7 156.7C474.7 161.3 494.9 200.2 491 209.3C487.1 218.4 454.7 207.9 454.7 207.9L456.6 195.1C456.6 195.1 469.2 195.5 470.4 194.4C471.6 193.2 453.4 175 453.4 175L470.7 156.7Z" fill="#262D40"/>
<g id="Group_45" opacity="0.2">
<path id="Vector_105" opacity="0.2" d="M491 209.3C490.6 210.3 489.7 211.1 488.6 211.7C488.4 211.8 488.2 211.9 488 212H487.9C487.7 212.1 487.5 212.2 487.3 212.2C486.5 212.5 485.5 212.7 484.5 212.8C484.2 212.8 484 212.9 483.7 212.9C483.3 212.9 482.9 213 482.5 213C482.2 213 481.8 213 481.4 213C470.6 213 454.8 207.9 454.8 207.9L456.7 195.1C456.7 195.1 469.3 195.5 470.5 194.4C470.8 194.1 469.9 192.8 468.5 191C464.9 186.6 457.8 179.4 454.9 176.4C454.1 175.6 453.6 175.1 453.6 175.1L470.9 156.9C474.7 161.3 494.9 200.2 491 209.3Z" fill="#262D40"/>
</g>
</g>
<path id="Vector_106" d="M488.6 211.7C488.4 211.8 488.1 211.9 487.9 212H487.8C487.6 212.1 487.4 212.2 487.2 212.2C486.4 212.5 485.4 212.7 484.4 212.8C484.1 212.8 483.9 212.9 483.6 212.9C483.2 212.9 482.8 213 482.4 213C482.1 213 481.7 213 481.3 213C470.5 213 454.7 207.9 454.7 207.9L456.6 195.1C456.6 195.1 470.8 196.3 472 195.1C472 195.1 472 195.1 472 195C472.2 194.5 470.7 192.9 468.3 190.9C464.7 186.5 457.6 179.3 454.7 176.3L462.9 167.6L469.1 166.9C469.1 166.9 482.9 189.1 488.6 211.7Z" fill="#0D0F14"/>
<g id="Group_46">
<path id="Vector_107" d="M429.9 155.4C427.7 157 426.6 159.3 427.4 160.5L486.5 241.9C487.4 243.1 489.9 242.8 492.2 241.2C494.4 239.6 495.5 237.3 494.7 236.1L435.6 154.7C434.7 153.5 432.1 153.8 429.9 155.4Z" fill="#1A2E35"/>
<path id="Vector_108" opacity="0.7" d="M435.6 154.7L494.7 236.1C495.6 237.3 494.5 239.6 492.2 241.2C490 242.8 487.4 243.2 486.6 241.9L427.5 160.5C427 159.8 427.1 158.8 427.7 157.8C428 157.3 428.3 156.8 428.8 156.3C429.1 156 429.5 155.6 429.9 155.3C432.1 153.8 434.7 153.5 435.6 154.7Z" fill="white"/>
<path id="Vector_109" opacity="0.3" d="M494.6 236.2C495.5 237.4 494.4 239.7 492.1 241.3C489.9 242.9 487.3 243.3 486.5 242C486 241.3 487.2 240.3 487.9 238.8L427.6 157.8C427.9 157.3 428.2 156.8 428.7 156.3L487.8 237.8C488.1 237.5 488.5 237.1 488.9 236.8C491.2 235.3 493.8 234.9 494.6 236.2Z" fill="black"/>
</g>
<g id="Group_47">
<path id="Vector_110" d="M422.6 153.2C420.7 155.2 420.1 157.7 421.2 158.7L494.7 227.5C495.8 228.5 498.2 227.7 500.1 225.7C502 223.7 502.6 221.2 501.5 220.2L428 151.4C426.9 150.4 424.5 151.2 422.6 153.2Z" fill="#007CFF"/>
<path id="Vector_111" opacity="0.7" d="M428 151.4L501.5 220.2C502.6 221.2 501.9 223.7 500.1 225.7C498.2 227.7 495.8 228.5 494.7 227.5L421.2 158.7C420.6 158.1 420.5 157.1 420.9 156C421.1 155.5 421.3 154.9 421.7 154.4C422 154 422.3 153.6 422.6 153.2C424.5 151.2 426.9 150.4 428 151.4Z" fill="white"/>
<path id="Vector_112" opacity="0.3" d="M501.4 220.2C502.5 221.2 501.8 223.7 500 225.7C498.1 227.7 495.7 228.5 494.6 227.5C494 226.9 495 225.7 495.4 224.1L420.8 156C421 155.5 421.2 154.9 421.6 154.4L495.1 223.2C495.4 222.8 495.7 222.4 496 222C497.9 219.9 500.4 219.1 501.4 220.2Z" fill="black"/>
</g>
<path id="Vector_113" d="M440.2 372.6L434.6 372.7C428.9 346 424.9 312.9 422.4 287.9C422 284 421.7 280.3 421.3 276.8C421.2 275.2 421 273.6 420.9 272.1C420.2 264.6 419.8 258.7 419.5 255C419.3 252.3 419.2 250.8 419.2 250.8H439.4L439.2 256L438.6 273L438.5 274.9L438.1 286.1L437.4 305.2C444.4 332.3 440.2 372.6 440.2 372.6Z" fill="#FFD194"/>
<path id="Vector_114" d="M485.6 371.2L480.1 372.2C469.1 344.6 458.7 309.3 452 284.6C451 280.8 450 277.2 449.1 274C449.1 273.8 449 273.7 449 273.5C447.3 267.1 446 261.9 445.2 258.7C444.6 256.2 444.2 254.8 444.2 254.8L464.1 251.4L465.2 259.8L466.9 272.1L467.2 274.5L468.3 282.9L471.3 305.4C482.8 330.7 485.6 371.2 485.6 371.2Z" fill="#FFD194"/>
<path id="Vector_115" d="M466.9 272.1L449.1 274.1C449.1 273.9 449 273.8 449 273.6C447.3 267.2 446 262 445.2 258.8L465.3 259.8L466.9 272.1Z" fill="#F1C183"/>
<path id="Vector_116" d="M439.3 256L438.7 273L438.6 274.9L421.4 276.8C421.3 275.2 421.1 273.6 421 272.1C420.3 264.6 419.9 258.7 419.6 255L439.3 256Z" fill="#F1C183"/>
<path id="Vector_117" d="M423.7 391.2C424.7 390.4 425.9 389.7 427.2 389.3C427.2 389.3 431 385.5 432.8 374.1L437.8 372.8C439.5 372.4 441.3 373.1 442.3 374.6C442.4 374.8 442.5 375 442.6 375.3C442.9 376.5 443 377.8 443.1 379C443.6 382.9 443.2 391.5 443.2 391.5H442.3L441.9 383.7C441.8 381 439.7 384.2 439.1 387C438.5 389.9 437.3 392.9 431.4 393.1C424.8 393.2 422 392.9 423.7 391.2Z" fill="#262D40"/>
<path id="Vector_118" d="M442.6 374.7C442.9 372 443 367.4 443 367.4L431.9 368.6C431.9 368.6 433.2 373.9 432.1 377.8C437.7 376.4 442.6 374.7 442.6 374.7Z" fill="#262D40"/>
<path id="Vector_119" d="M468.8 391.2C469.8 390.4 471 389.7 472.3 389.3C472.3 389.3 476.1 385.5 477.9 374.1L482.9 372.8C484.6 372.4 486.4 373.1 487.4 374.6C487.5 374.8 487.6 375 487.7 375.3C488 376.5 488.1 377.8 488.2 379C488.7 382.9 488.3 391.5 488.3 391.5H487.4L487 383.7C486.9 381 484.8 384.2 484.2 387C483.6 389.9 482.4 392.9 476.5 393.1C469.9 393.2 467.1 392.9 468.8 391.2Z" fill="#262D40"/>
<path id="Vector_120" d="M487.7 374.7C488 372 488.1 367.4 488.1 367.4L477 368.6C477 368.6 478.3 373.9 477.2 377.8C482.8 376.4 487.7 374.7 487.7 374.7Z" fill="#262D40"/>
<path id="Vector_121" d="M468.9 266.6L447.8 269.3L447 269.4L442.7 253.5L441.6 270.5L419 269.3C408.9 210.2 426.1 196.2 426.1 196.2L456.8 202.4C470.7 226 467.4 253.4 467.4 253.4L468.9 266.6Z" fill="#318BCF"/>
<g id="Group_48">
<path id="Vector_122" d="M437.5 126.8C438.77 126.8 439.8 124.92 439.8 122.6C439.8 120.28 438.77 118.4 437.5 118.4C436.23 118.4 435.2 120.28 435.2 122.6C435.2 124.92 436.23 126.8 437.5 126.8Z" stroke="#1A2E35" stroke-width="0.5" stroke-miterlimit="10" stroke-linecap="round" stroke-linejoin="round"/>
<path id="Vector_123" d="M455 136.7C454.9 136.8 454.8 136.8 454.7 136.9C453.5 137.8 452 138.6 450.4 139C445.9 140 442.8 139.4 440.8 137.4C438 134.3 437.3 128.9 437.7 122.3C437.9 119.3 438.3 116.7 439.1 114.6V114.5C439.1 114.4 439.2 114.3 439.2 114.2C440.4 111.4 442.5 109.5 445.8 108.7C446.9 108.4 448.2 108.3 449.7 108.3C462.5 108.1 464.8 129.4 455 136.7Z" fill="#FFD194"/>
<path id="Vector_124" opacity="0.2" d="M454.7 136.9C453.5 137.8 452 138.4 450.4 138.8C445.9 139.8 442.8 139.1 440.8 137C443 137.5 446 137.7 448.9 136.3C450.7 135.5 452.8 135.9 454.7 136.9Z" fill="black"/>
<path id="Vector_125" d="M456 148.4C456.8 152 452.1 153.5 452.1 153.5C444.4 150.2 442.9 146.1 442.9 146.1C449.3 142.7 447.5 133.2 447.5 133.2L448.8 133.8L458 135.6C458 135.6 455.4 140.5 455.1 141.6C453.4 147.6 456 148.4 456 148.4Z" fill="#F1C183"/>
<path id="Vector_126" d="M439.1 114.5C439.1 114.5 438.4 123.5 446.9 127.3C446.9 127.3 450.6 136.6 455.9 136.8C463.2 137 469.7 126.5 467.2 115.9C463.9 102.1 443 101 439.1 114.5Z" fill="#1A2E35"/>
<path id="Vector_127" d="M442.6 124.8C442.6 123.4 443.7 121 445.9 121.4C448.2 121.7 449.4 127.3 443.9 128.5C443 128.6 442.5 127.7 442.6 124.8Z" fill="#FCB373"/>
<path id="Vector_128" d="M454.7 105C454.7 105 446.1 102.8 441.4 106.3C435.9 110.3 433.8 114.5 440.3 120.9C440.3 120.9 454.7 116.2 459.5 117.2C464.3 118.2 467.7 119.6 467.7 119.6C468.7 110.1 459.5 103 454.7 105Z" fill="#39435B"/>
<path id="Vector_129" d="M442.6 122.6C442.6 122.6 444.9 133 441.3 141.8C441.3 141.8 461.6 148.9 468.7 145C475.8 141.2 469.3 128.3 469 120.9C468.7 113.5 465.5 102.5 454.7 105C443.9 107.4 442.6 122.6 442.6 122.6Z" fill="#262D40"/>
<path id="Vector_130" d="M435.2 121.9H443.8" stroke="#1A2E35" stroke-width="0.5" stroke-miterlimit="10" stroke-linecap="round" stroke-linejoin="round"/>
</g>
<path id="Vector_131" d="M447.8 269.3L447 269.4L442.7 253.5C442.7 253.5 452 237.6 449.1 229.3C449.4 229.9 459.4 244.7 447.8 269.3Z" fill="#0071AA"/>
<g id="Group_49">
<path id="Vector_132" d="M430.3 147.6C430.3 147.6 440.5 144 456 148.4C471.4 152.9 472 159.4 472 159.4C472 159.4 462.2 181.5 460.7 206.6L420.5 205.1C420.5 205.2 415.7 169.8 430.3 147.6Z" fill="#262D40"/>
<path id="Vector_133" opacity="0.2" d="M472 159.5C472 159.5 462.2 181.6 460.7 206.7L420.5 205.2C420.5 205.2 419.8 200.3 419.8 192.9C419.7 187.8 420 181.5 420.9 174.9C422.2 165.6 425 155.7 430.4 147.6C430.4 147.6 440.6 144 456 148.4C471.4 152.9 472 159.5 472 159.5Z" fill="#262D40"/>
</g>
<path id="Vector_134" d="M429.8 176.5C429.8 176.5 428.1 186.7 419.8 193C419.7 187.9 420 181.6 420.9 175L429.8 176.5Z" fill="#0D0F14"/>
<path id="Vector_135" d="M385.4 146.9L380.3 139.4C380.3 139.4 379.5 136.1 378.5 135.4C377.5 134.7 367.8 130.5 366.6 130.5C365.4 130.5 365.4 138.1 366.6 139.4C367.8 140.7 373.9 143.4 375.5 143.7C377.1 144 376.3 143.7 376.3 143.7L380.8 152.6L385.4 146.9Z" fill="#FFD194"/>
<g id="Group_50">
<path id="Vector_136" d="M430.3 147.6C430.3 147.6 416.2 153.1 399 163.8L382.7 141.5C382.7 141.5 378.3 142.9 376.7 150.5C376.7 150.5 385.1 182.5 396 185.7C406.9 188.9 429.8 176.5 429.8 176.5C429.8 176.5 436.5 159.8 430.3 147.6Z" fill="#262D40"/>
<path id="Vector_137" opacity="0.2" d="M430.3 147.6C430.3 147.6 416.2 153.1 399 163.8L382.7 141.5C382.7 141.5 378.3 142.9 376.7 150.5C376.7 150.5 385.1 182.5 396 185.7C406.9 188.9 429.8 176.5 429.8 176.5C429.8 176.5 436.5 159.8 430.3 147.6Z" fill="#262D40"/>
</g>
<g id="Group_51">
<path id="Vector_138" d="M440.7 146.2C440.7 146.2 444.3 171.7 455.6 172.8C466.9 173.8 472 155 470 152.7C468.1 150.4 453.5 146.1 440.7 146.2Z" fill="#394359"/>
<path id="Vector_139" opacity="0.3" d="M440.7 146.2C440.7 146.2 444.3 171.7 455.6 172.8C466.9 173.8 472 155 470 152.7C468.1 150.4 453.5 146.1 440.7 146.2Z" fill="#394359"/>
</g>
</g>
<g id="x3C Group x3E  81">
<path id="Vector_140" d="M38.6 381.1H46.8L47.5 361.9H39.2L38.6 381.1Z" fill="#FFD194"/>
<path id="Vector_141" d="M48 380.1H37.9C37.6 380.1 37.3 380.3 37.2 380.7L35.6 388.1C35.5 388.8 35.9 389.4 36.5 389.5C36.6 389.5 36.7 389.5 36.8 389.5C40.1 389.4 42.4 389.2 46.5 389.2C49 389.2 56.6 389.5 60.1 389.5C63.6 389.5 64 386.1 62.6 385.8C56.2 384.4 51.4 382.5 49.4 380.7C49 380.3 48.5 380.1 48 380.1Z" fill="#262D40"/>
<path id="Vector_142" d="M39.2 361.9H47.5L47.2 371.8H38.9L39.2 361.9Z" fill="#F1C183"/>
<path id="Vector_143" d="M81.2 381.7L89.7 382.6L91.3 364.2L82.8 363.3L81.2 381.7Z" fill="#FFD194"/>
<path id="Vector_144" d="M90.6 379.9H80.6C80.3 379.9 80 380.1 79.9 380.5L78.3 387.9C78.2 388.6 78.6 389.2 79.2 389.3C79.3 389.3 79.4 389.3 79.5 389.3C82.8 389.2 85.1 389 89.2 389C91.7 389 99.3 389.3 102.8 389.3C106.3 389.3 106.7 385.9 105.3 385.6C98.9 384.2 94.1 382.3 92.1 380.5C91.7 380.1 91.2 379.9 90.6 379.9Z" fill="#262D40"/>
<g id="Group_52">
<path id="Vector_145" d="M52.4 379.6C51.9 379.4 51 379.7 50.1 380.1C50.7 379.4 51.1 378.7 51 378.2C50.9 377.9 50.7 377.7 50.4 377.7C50.1 377.7 49.8 377.8 49.6 378C48.7 378.7 48.5 380.8 48.4 381.2C48.4 381.2 48.4 381.2 48.4 381.3C48.4 381.4 48.4 381.4 48.5 381.5H48.6C49.3 381.7 50 381.8 50.7 381.8C51.3 381.8 51.8 381.7 52.3 381.4C52.6 381.1 52.8 380.7 52.7 380.3C52.7 379.9 52.6 379.7 52.4 379.6ZM49.8 378.1C49.9 378 50.1 377.9 50.2 377.9H50.3C50.6 377.9 50.6 378 50.6 378.1C50.7 378.6 49.7 380 48.8 380.7C48.9 379.8 49.2 378.9 49.8 378.1ZM52.1 380.9C51.2 381.3 50.1 381.4 49.2 381C50.1 380.4 51 380.1 52 379.9C52.1 379.9 52.2 379.9 52.3 380C52.4 380 52.4 380.1 52.4 380.2C52.4 380.4 52.3 380.7 52.1 380.9Z" fill="#0D0F14"/>
<path id="Vector_146" d="M95.4 379.9C95.4 379.7 95.3 379.5 95.1 379.4C94.6 379.2 93.7 379.5 92.8 379.9C93.4 379.2 93.8 378.5 93.7 378C93.6 377.7 93.4 377.5 93.1 377.5C92.8 377.5 92.5 377.6 92.3 377.8C91.4 378.5 91.2 380.6 91.1 381C91.1 381 91.1 381 91.1 381.1C91.1 381.2 91.1 381.2 91.2 381.3H91.3C92 381.5 92.7 381.6 93.4 381.6C94 381.6 94.5 381.5 95 381.2C95.3 380.7 95.4 380.3 95.4 379.9ZM92.5 377.9C92.6 377.8 92.8 377.7 92.9 377.7H93C93.3 377.7 93.3 377.8 93.3 377.9C93.4 378.4 92.4 379.8 91.5 380.5C91.6 379.5 91.9 378.6 92.5 377.9ZM94.7 380.6C93.8 381 92.7 381.1 91.8 380.7C92.7 380.1 93.6 379.8 94.6 379.6C94.7 379.6 94.8 379.6 94.9 379.7C95 379.7 95 379.8 95 379.9C95 380.2 94.9 380.4 94.7 380.6Z" fill="#0D0F14"/>
</g>
<path id="Vector_147" d="M82.8 363.3L91.3 364.2L90.5 373.7L82 372.8L82.8 363.3Z" fill="#F1C183"/>
<path id="Vector_148" d="M42.7 193.7H86.6C90.8 216.5 103.9 297.2 94.5 369.2L79.6 367.4C79.6 367.4 81 271.9 67.8 236.6C66.3 255.5 64.5 275.6 62.9 286.3C59.1 312.6 50.9 370.2 50.9 370.2H35.8C35.8 370.2 38.9 315.1 40.3 289.3C41.9 261.1 42.6 199.5 42.7 193.7Z" fill="#262D40"/>
<g id="Group_53">
<path id="Vector_149" d="M96.2 372.7L77.8 369.9L78.3 364.8L97.5 367.3L96.2 372.7Z" fill="#0D0F14"/>
</g>
<g id="Group_54">
<path id="Vector_150" d="M52.8 370.2H34.9V364.9L53.5 364.6L52.8 370.2Z" fill="#0D0F14"/>
</g>
<path id="Vector_151" d="M67.8 236.6C69.7 241.8 71.3 248.3 72.7 255.6C73.9 238.8 69 221 69 221L67.8 236.6Z" fill="#0D0F14"/>
<path id="Vector_152" d="M41.4 201.4L40.4 206.7C40.4 206.7 71.1 210.7 90.3 210.6L89.6 207L41.4 201.4Z" fill="#0071AA"/>
<path id="Vector_153" d="M103.8 155.4C103.8 155.4 114.4 188.9 121.7 191.1C129 193.3 147.5 165.6 147.5 165.6C147.5 165.6 164.1 165.4 164.8 164.3C165.5 163.2 160.5 151.5 159.3 151.5C158.1 151.5 143.7 156.9 143.1 157.8C142.5 158.7 126 174.5 125.2 174.1C124.4 173.7 118.1 153.7 118.1 153.7L103.8 155.4Z" fill="#FFD194"/>
<path id="Vector_154" d="M149.6 163.9C149.7 163.9 149.9 163.8 150 163.8C149.9 163.8 149.9 163.7 149.8 163.7C149.8 163.7 149.7 163.8 149.6 163.9Z" fill="#CC7A63"/>
<g id="Group_55">
<path id="Vector_155" d="M97.8 151.5L99.1 153.9L105.2 165.1L106.5 167.4L123.5 161.5C123.5 161.5 116.4 135.1 114 132.4L97.8 151.5Z" fill="#318BCF"/>
<path id="Vector_156" opacity="0.4" d="M97.8 151.5L99.1 153.9L105.2 165.1L106.5 167.4L123.5 161.5C123.5 161.5 116.4 135.1 114 132.4L97.8 151.5Z" fill="#318BCF"/>
</g>
<path id="Vector_157" opacity="0.2" d="M99.1 153.9L105.2 165.1C108.9 157.7 107.9 147.7 107.9 147.7L99.1 153.9Z" fill="black"/>
<g id="Group_56">
<path id="Vector_158" d="M113.9 132.4C113.9 132.4 105 120.8 88.3 120C71.7 119.2 66.4 120.9 60.3 126.3C51.4 134.2 40.4 202.6 40.4 202.6C40.4 202.6 63.6 209.8 90.3 208C90.3 208 90.5 189 96.5 176.2C108.2 151.4 113.9 132.4 113.9 132.4Z" fill="#0071AA"/>
<path id="Vector_159" d="M40.4 202.6C40.4 202.6 63.6 209.8 90.3 208C90.3 208 90.3 205.7 90.6 202.1C90.7 200.4 90.9 198.4 91.2 196.3C91.5 194.1 91.9 191.7 92.4 189.3C92.7 188 93 186.7 93.3 185.4C94.1 182.3 95.2 179.2 96.5 176.4C97.2 174.8 97.9 173.3 98.6 171.8C99.8 169.1 100.9 166.6 102 164.1C104.2 158.9 106.1 154.1 107.7 150C108.8 147 109.8 144.3 110.6 142C111.5 139.4 112.2 137.3 112.7 135.8C113.4 133.7 113.7 132.6 113.7 132.6C113.7 132.6 113.1 131.8 111.9 130.6C108.6 127.3 100.7 120.9 88.7 120.2C88.5 120.2 88.3 120.2 88.1 120.2C75.4 119.6 69.4 120.4 64.5 123.3C63 124.2 61.6 125.3 60.1 126.6C59.1 127.5 58.1 129.1 57.1 131.4C55.4 135.1 53.7 140.3 52 146.2C51.8 147.1 51.5 148 51.3 148.9C50.2 153 49.1 157.5 48.1 161.9C47.8 163.2 47.5 164.4 47.3 165.7C46.9 167.6 46.5 169.6 46.1 171.5C45.1 176.3 44.2 181 43.4 185.2C42.3 191.2 41.4 196.3 40.8 199.4C40.6 201.4 40.4 202.6 40.4 202.6ZM89.3 120.7C90.5 120.7 91.6 120.8 92.6 121C97.1 121.6 103.9 125.2 103.8 126.9C103.6 128.6 101 132.9 94.3 131.9C92 131.5 89.8 130.5 87.8 129.2C84.1 126.8 81.4 123.5 81.2 122.4C80.8 121 85.2 120.6 89.3 120.7Z" fill="#318BCF"/>
<path id="Vector_160" d="M74.9 143.4C74.9 143.4 66.1 164.7 64.3 182.4L88.1 185.4C88.1 185.4 98.8 156.6 101 147.6C101 147.7 82 145.8 74.9 143.4Z" fill="#0071AA"/>
<path id="Vector_161" opacity="0.4" d="M96.4 148.5L99.7 148.8L97.2 150.7L96.4 148.5Z" fill="white"/>
</g>
<path id="Vector_162" d="M83.4 122.3C85.2 127.4 91.9 129.8 95.4 130.1C100.3 130.5 101.8 126.6 101.8 126.6C101.8 126.6 97.8 124.6 98.2 122.4C98.4 121.1 99.1 119.8 99.9 118.6C100.3 117.9 100.8 117.3 101.3 116.7L94.9 102.9C93.3 108.9 88.9 120.4 83.4 122.3Z" fill="#FFD194"/>
<path id="Vector_163" d="M94.5 109.3C91.4 116 95.8 120.6 98.2 122.4C98.4 121.1 99.1 119.8 99.9 118.6L94.5 109.3Z" fill="#F1C183"/>
<g id="Group_57">
<g id="Group_58" opacity="0.4">
<path id="Vector_164" opacity="0.4" d="M116.1 91.4C116.1 91.4 118.2 102.8 112.2 107.3C106.3 111.9 105.7 90.6 105.7 90.6L116.1 91.4Z" fill="#F1C183"/>
<path id="Vector_165" opacity="0.4" d="M116.1 91.4C116.1 91.4 118.2 102.8 112.2 107.3C106.3 111.9 105.7 90.6 105.7 90.6L116.1 91.4Z" fill="#F1C183"/>
</g>
<path id="Vector_166" d="M94.9 116.9C98 121 102.8 122 106.9 120.6C109.6 119.7 111.9 117.8 113.3 115.1C113.5 114.7 113.7 114.4 113.8 114C116.6 106.9 117.2 89.7 109.7 90.4C103.5 90.9 97.5001 89 94.3001 94.4C93.4001 95.9 92.9001 97.6 92.8001 99.4C92.1001 107.4 91.3 112.2 94.9 116.9Z" fill="#FFD194"/>
<path id="Vector_167" d="M104.8 103.3C104.7 103.9 105 104.5 105.4 104.6C105.8 104.7 106.3 104.2 106.4 103.5C106.5 102.8 106.2 102.3 105.8 102.2C105.3 102.1 104.9 102.6 104.8 103.3Z" fill="#1A2E35"/>
<path id="Vector_168" d="M112.3 104.3C112.2 104.9 112.5 105.5 112.9 105.6C113.3 105.7 113.8 105.2 113.9 104.5C114 103.8 113.7 103.3 113.3 103.2C112.8 103.2 112.4 103.7 112.3 104.3Z" fill="#1A2E35"/>
<path id="Vector_169" opacity="0.4" d="M109.9 104.3C110.4 106.4 111.2 108.5 112.3 110.4C111.3 110.9 110.1 111 109 110.5L109.9 104.3Z" fill="#F1C183"/>
<path id="Vector_170" d="M102.8 100.5C102.9 100.5 103.1 100.5 103.2 100.4C103.9 99.7 104.9 99.3 105.9 99.5C106.1 99.5 106.3 99.4 106.4 99.2C106.4 99 106.3 98.8 106.1 98.7C104.9 98.5 103.6 98.9 102.7 99.9C102.5 100 102.5 100.3 102.7 100.5C102.7 100.4 102.8 100.5 102.8 100.5Z" fill="#1A2E35"/>
<path id="Vector_171" d="M115.9 102.2C116 102.2 116 102.3 116.1 102.2C116.3 102.1 116.4 101.9 116.4 101.7C116 100.5 115.1 99.5 113.9 99.1C113.7 99 113.5 99.2 113.4 99.4C113.3 99.6 113.5 99.8 113.7 99.9C114.6 100.2 115.4 101 115.6 102C115.6 102.1 115.7 102.2 115.9 102.2Z" fill="#1A2E35"/>
<path id="Vector_172" d="M103.8 110.8C103.8 110.8 105.2 113.8 108 113.6" stroke="#1A2E35" stroke-width="0.5" stroke-miterlimit="10" stroke-linecap="round" stroke-linejoin="round"/>
<g id="Group_59">
<path id="Vector_173" d="M100.2 90L100.3 93.6C99.1 94.1 98.2 95.4 98.6 96.9C99.5 100 97.3 104.6 94.8 106.2C94.8 106.2 94.9 104.9 93.7 105.1C92.6 105.3 92.2 112.2 94.1 115.6C94.1 115.6 90.1 112 89 104.6C87.9 97.8 88.1 93.5 89.1 90.3L100.2 90Z" fill="#F1C183"/>
<path id="Vector_174" opacity="0.4" d="M100.2 90L100.3 93.6C99.1 94.1 98.2 95.4 98.6 96.9C99.5 100 97.3 104.6 94.8 106.2C94.8 106.2 94.9 104.9 93.7 105.1C92.6 105.3 92.2 112.2 94.1 115.6C94.1 115.6 90.1 112 89 104.6C87.9 97.8 88.1 93.5 89.1 90.3L100.2 90Z" fill="#F1C183"/>
</g>
<path id="Vector_175" d="M88.4 94.3C88.4 94.3 93.1 95 100.3 93.6C111.6 91.4 116.4 95.5 116.4 95.5C116.4 95.5 119.1 93.2 118.7 90C118.4 86.8 113.9 86.2 113.9 86.2C113.9 86.2 112.5 82.6 109.6 81.4C106.6 80.3 103.6 83.1 103.6 83.1C103.6 83.1 99.9 79.5 95.5 80.5C90.2 81.8 90.3 86.8 90.3 86.8C90.3 86.8 85.2 87.3 85.3 89.9C85.4 92.5 88.4 94.3 88.4 94.3Z" fill="#262D40"/>
<path id="Vector_176" d="M105.7 108C107.743 108 109.4 106.12 109.4 103.8C109.4 101.48 107.743 99.6 105.7 99.6C103.657 99.6 102 101.48 102 103.8C102 106.12 103.657 108 105.7 108Z" stroke="#1A2E35" stroke-width="0.5" stroke-miterlimit="10" stroke-linecap="round" stroke-linejoin="round"/>
<path id="Vector_177" d="M114.9 108.6C116.943 108.6 118.6 106.72 118.6 104.4C118.6 102.08 116.943 100.2 114.9 100.2C112.857 100.2 111.2 102.08 111.2 104.4C111.2 106.72 112.857 108.6 114.9 108.6Z" stroke="#1A2E35" stroke-width="0.5" stroke-miterlimit="10" stroke-linecap="round" stroke-linejoin="round"/>
<path id="Vector_178" d="M109.3 104.3C109.3 104.3 110.5 103.6 111.2 104.4" stroke="#1A2E35" stroke-width="0.5" stroke-miterlimit="10" stroke-linecap="round" stroke-linejoin="round"/>
<path id="Vector_179" d="M102 103.8L95.6 102.9C94.8 102.8 93.9 103 93.2 103.5L92.9 103.7" stroke="#1A2E35" stroke-width="0.5" stroke-miterlimit="10" stroke-linecap="round" stroke-linejoin="round"/>
<path id="Vector_180" d="M88.3 105.4C88.9 107.4 90.3 109 92.2 109.9C94.6 111.1 96.4 109.1 96.2 106.5C96 104.2 94.4 100.7 91.8 100.6C89 100.5 87.6 103 88.3 105.4Z" fill="#FFD194"/>
</g>
<path id="Vector_181" d="M47.5 165.5C58 161.1 66.3 143 66.3 143L60.3 139.4L52.2 145.9C52 146.8 51.7 147.7 51.5 148.6C50.4 152.7 49.3 157.2 48.3 161.6C48 162.9 47.7 164.2 47.5 165.5Z" fill="#0071AA"/>
<path id="Vector_182" d="M105.6 167.4L123.8 160.7L124.3 162.3L106.1 168.7L105.6 167.4Z" fill="#0071AA"/>
<g id="arm">
<g id="arm-4">
<path id="Vector_183" d="M58.3473 213.395L5.60413 205.027L0.448697 237.522L53.1919 245.89L58.3473 213.395Z" fill="#7F358A"/>
<g id="Group_60">
<path id="Vector_184" d="M24.3 217.4L13.6 223L22.1 231.6" stroke="white" stroke-width="2" stroke-miterlimit="10" stroke-linecap="round" stroke-linejoin="round"/>
<path id="Vector_185" d="M34.6 233.6L45.3 228L36.8 219.4" stroke="white" stroke-width="2" stroke-miterlimit="10" stroke-linecap="round" stroke-linejoin="round"/>
<path id="Vector_186" d="M25.8 232.2L33.1 218.8" stroke="white" stroke-width="2" stroke-miterlimit="10" stroke-linecap="round" stroke-linejoin="round"/>
</g>
</g>
<path id="arm-1" d="M54 129.2C54 129.2 34.1 149.2 31.4 153C28.7 156.8 23.5 200 23.5 200C23.5 200 22.4 200.4 22.3 201.3C22.2 202.2 22.1 214.3 22.3 214.9C22.5 215.5 31.6 221.1 33 219.8C34.3 218.5 36.2 204.8 36.2 204.8L31.4 200.1C31.4 200.1 37 168.4 40.5 163.3C44 158.2 58.5 147.2 58.5 147.2L54 129.2Z" fill="#FFD194"/>
<g id="arm-2">
<path id="Vector_187" d="M69.3 121.2C72.2 127.3 70 140.3 64.7 144.8C56.6 151.7 46.8 157.6 46.8 157.6L37 144.9C37 144.9 47.4 134.8 53.7 128.9C61.3 121.8 69.3 121.2 69.3 121.2Z" fill="#318BCF"/>
<path id="Vector_188" opacity="0.4" d="M69.3 121.2C72.2 127.3 70 140.3 64.7 144.8C56.6 151.7 46.8 157.6 46.8 157.6L37 144.9C37 144.9 47.4 134.8 53.7 128.9C61.3 121.8 69.3 121.2 69.3 121.2Z" fill="#318BCF"/>
</g>
<path id="arm-3" d="M37 144.1L35.8 145.7L46 159L47.5 158L37 144.1Z" fill="#0071AA"/>
</g>
</g>
</g>
<defs>
<linearGradient id="paint0_linear" x1="323.466" y1="25.103" x2="372.345" y2="25.103" gradientUnits="userSpaceOnUse">
<stop stop-color="white"/>
<stop offset="1" stop-color="#A69EBF"/>
</linearGradient>
<linearGradient id="paint1_linear" x1="336.481" y1="41.6255" x2="359.33" y2="41.6255" gradientUnits="userSpaceOnUse">
<stop stop-color="white"/>
<stop offset="1" stop-color="#A69EBF"/>
</linearGradient>
<linearGradient id="paint2_linear" x1="97.2133" y1="31.287" x2="201.022" y2="31.287" gradientUnits="userSpaceOnUse">
<stop stop-color="white"/>
<stop offset="1" stop-color="#A69EBF"/>
</linearGradient>
<linearGradient id="paint3_linear" x1="124.854" y1="52.0354" x2="173.381" y2="52.0354" gradientUnits="userSpaceOnUse">
<stop stop-color="white"/>
<stop offset="1" stop-color="#A69EBF"/>
</linearGradient>
<linearGradient id="paint4_linear" x1="210.29" y1="69.3898" x2="303.509" y2="69.3898" gradientUnits="userSpaceOnUse">
<stop stop-color="white"/>
<stop offset="1" stop-color="#A69EBF"/>
</linearGradient>
<linearGradient id="paint5_linear" x1="257.277" y1="55.0042" x2="259.277" y2="55.0042" gradientUnits="userSpaceOnUse">
<stop stop-color="white"/>
<stop offset="1" stop-color="#A69EBF"/>
</linearGradient>
<linearGradient id="paint6_linear" x1="241.095" y1="24.6486" x2="275.459" y2="24.6486" gradientUnits="userSpaceOnUse">
<stop stop-color="white"/>
<stop offset="1" stop-color="#A69EBF"/>
</linearGradient>
<linearGradient id="paint7_linear" x1="242.282" y1="25.4829" x2="274.272" y2="25.4829" gradientUnits="userSpaceOnUse">
<stop stop-color="white"/>
<stop offset="1" stop-color="#A69EBF"/>
</linearGradient>
<linearGradient id="paint8_linear" x1="193.108" y1="92.6123" x2="227.472" y2="92.6123" gradientUnits="userSpaceOnUse">
<stop stop-color="white"/>
<stop offset="1" stop-color="#A69EBF"/>
</linearGradient>
<linearGradient id="paint9_linear" x1="194.295" y1="93.4465" x2="226.285" y2="93.4465" gradientUnits="userSpaceOnUse">
<stop stop-color="white"/>
<stop offset="1" stop-color="#A69EBF"/>
</linearGradient>
<linearGradient id="paint10_linear" x1="241.095" y1="92.6123" x2="275.459" y2="92.6123" gradientUnits="userSpaceOnUse">
<stop stop-color="white"/>
<stop offset="1" stop-color="#A69EBF"/>
</linearGradient>
<linearGradient id="paint11_linear" x1="242.282" y1="93.4465" x2="274.272" y2="93.4465" gradientUnits="userSpaceOnUse">
<stop stop-color="white"/>
<stop offset="1" stop-color="#A69EBF"/>
</linearGradient>
<linearGradient id="paint12_linear" x1="286.401" y1="92.6123" x2="320.765" y2="92.6123" gradientUnits="userSpaceOnUse">
<stop stop-color="white"/>
<stop offset="1" stop-color="#A69EBF"/>
</linearGradient>
<linearGradient id="paint13_linear" x1="287.588" y1="93.4465" x2="319.578" y2="93.4465" gradientUnits="userSpaceOnUse">
<stop stop-color="white"/>
<stop offset="1" stop-color="#A69EBF"/>
</linearGradient>
<linearGradient id="paint14_linear" x1="248.783" y1="54.1701" x2="267.771" y2="54.1701" gradientUnits="userSpaceOnUse">
<stop stop-color="white"/>
<stop offset="1" stop-color="#A69EBF"/>
</linearGradient>
<linearGradient id="paint15_linear" x1="52.9203" y1="68.6384" x2="77.2359" y2="68.6384" gradientUnits="userSpaceOnUse">
<stop stop-color="white"/>
<stop offset="1" stop-color="#A69EBF"/>
</linearGradient>
<linearGradient id="paint16_linear" x1="40.507" y1="98.2557" x2="60.1726" y2="98.2557" gradientUnits="userSpaceOnUse">
<stop stop-color="white"/>
<stop offset="1" stop-color="#A69EBF"/>
</linearGradient>
<linearGradient id="paint17_linear" x1="70.3444" y1="98.2557" x2="90.0099" y2="98.2557" gradientUnits="userSpaceOnUse">
<stop stop-color="white"/>
<stop offset="1" stop-color="#A69EBF"/>
</linearGradient>
<linearGradient id="paint18_linear" x1="61.3417" y1="120.983" x2="71.6638" y2="120.983" gradientUnits="userSpaceOnUse">
<stop stop-color="white"/>
<stop offset="1" stop-color="#A69EBF"/>
</linearGradient>
<linearGradient id="paint19_linear" x1="74.4505" y1="120.983" x2="84.7726" y2="120.983" gradientUnits="userSpaceOnUse">
<stop stop-color="white"/>
<stop offset="1" stop-color="#A69EBF"/>
</linearGradient>
<linearGradient id="paint20_linear" x1="87.5594" y1="120.983" x2="97.8815" y2="120.983" gradientUnits="userSpaceOnUse">
<stop stop-color="white"/>
<stop offset="1" stop-color="#A69EBF"/>
</linearGradient>
<linearGradient id="paint21_linear" x1="31.0092" y1="120.983" x2="41.3313" y2="120.983" gradientUnits="userSpaceOnUse">
<stop stop-color="white"/>
<stop offset="1" stop-color="#A69EBF"/>
</linearGradient>
<linearGradient id="paint22_linear" x1="45.2367" y1="120.983" x2="55.5588" y2="120.983" gradientUnits="userSpaceOnUse">
<stop stop-color="white"/>
<stop offset="1" stop-color="#A69EBF"/>
</linearGradient>
<linearGradient id="paint23_linear" x1="49.9857" y1="84.3091" x2="80.1706" y2="84.3091" gradientUnits="userSpaceOnUse">
<stop stop-color="white"/>
<stop offset="1" stop-color="#A69EBF"/>
</linearGradient>
<linearGradient id="paint24_linear" x1="35.4522" y1="110.022" x2="51.1036" y2="110.022" gradientUnits="userSpaceOnUse">
<stop stop-color="white"/>
<stop offset="1" stop-color="#A69EBF"/>
</linearGradient>
<linearGradient id="paint25_linear" x1="65.6371" y1="110.022" x2="93.5861" y2="110.022" gradientUnits="userSpaceOnUse">
<stop stop-color="white"/>
<stop offset="1" stop-color="#A69EBF"/>
</linearGradient>
<linearGradient id="paint26_linear" x1="402.604" y1="68.8669" x2="453.152" y2="68.8669" gradientUnits="userSpaceOnUse">
<stop stop-color="white"/>
<stop offset="1" stop-color="#A69EBF"/>
</linearGradient>
<linearGradient id="paint27_linear" x1="384.534" y1="106.886" x2="424.144" y2="106.886" gradientUnits="userSpaceOnUse">
<stop stop-color="white"/>
<stop offset="1" stop-color="#A69EBF"/>
</linearGradient>
<linearGradient id="paint28_linear" x1="369.334" y1="77.506" x2="402.604" y2="77.506" gradientUnits="userSpaceOnUse">
<stop stop-color="white"/>
<stop offset="1" stop-color="#A69EBF"/>
</linearGradient>
<linearGradient id="paint29_linear" x1="392.814" y1="310.901" x2="467.883" y2="310.901" gradientUnits="userSpaceOnUse">
<stop stop-color="white"/>
<stop offset="1" stop-color="#A69EBF"/>
</linearGradient>
<linearGradient id="paint30_linear" x1="395.56" y1="314.258" x2="465.136" y2="314.258" gradientUnits="userSpaceOnUse">
<stop stop-color="white"/>
<stop offset="1" stop-color="#A69EBF"/>
</linearGradient>
<linearGradient id="paint31_linear" x1="401.23" y1="302.007" x2="452.697" y2="302.007" gradientUnits="userSpaceOnUse">
<stop stop-color="white"/>
<stop offset="1" stop-color="#A69EBF"/>
</linearGradient>
<linearGradient id="paint32_linear" x1="401.23" y1="306.911" x2="425.923" y2="306.911" gradientUnits="userSpaceOnUse">
<stop stop-color="white"/>
<stop offset="1" stop-color="#A69EBF"/>
</linearGradient>
<linearGradient id="paint33_linear" x1="401.23" y1="311.816" x2="432.332" y2="311.816" gradientUnits="userSpaceOnUse">
<stop stop-color="white"/>
<stop offset="1" stop-color="#A69EBF"/>
</linearGradient>
<linearGradient id="paint34_linear" x1="401.23" y1="316.721" x2="412.191" y2="316.721" gradientUnits="userSpaceOnUse">
<stop stop-color="white"/>
<stop offset="1" stop-color="#A69EBF"/>
</linearGradient>
<linearGradient id="paint35_linear" x1="401.23" y1="321.626" x2="408.328" y2="321.626" gradientUnits="userSpaceOnUse">
<stop stop-color="white"/>
<stop offset="1" stop-color="#A69EBF"/>
</linearGradient>
<linearGradient id="paint36_linear" x1="30.1217" y1="302.807" x2="83.688" y2="302.807" gradientUnits="userSpaceOnUse">
<stop stop-color="white"/>
<stop offset="1" stop-color="#A69EBF"/>
</linearGradient>
<linearGradient id="paint37_linear" x1="39.7505" y1="302.837" x2="51.7325" y2="302.837" gradientUnits="userSpaceOnUse">
<stop stop-color="white"/>
<stop offset="1" stop-color="#A69EBF"/>
</linearGradient>
<linearGradient id="paint38_linear" x1="62.0769" y1="302.778" x2="74.059" y2="302.778" gradientUnits="userSpaceOnUse">
<stop stop-color="white"/>
<stop offset="1" stop-color="#A69EBF"/>
</linearGradient>
<linearGradient id="paint39_linear" x1="53.2759" y1="302.807" x2="60.5335" y2="302.807" gradientUnits="userSpaceOnUse">
<stop stop-color="white"/>
<stop offset="1" stop-color="#A69EBF"/>
</linearGradient>
<linearGradient id="paint40_linear" x1="39.3994" y1="389.572" x2="472.92" y2="389.572" gradientUnits="userSpaceOnUse">
<stop stop-color="white"/>
<stop offset="1" stop-color="#A69EBF"/>
</linearGradient>
</defs>
</svg>
