<svg width="520" height="520" viewBox="0 0 520 520" fill="none" xmlns="http://www.w3.org/2000/svg">
<style>
	* {
		transform-box: fill-box;
	}
	#part-1 {
		transform-origin: center center;
		animation: scale-up-animation 2s linear infinite;
	}
	#part-2 {
		transform-origin: center center;
		animation: scale-up-animation 4s linear infinite;
	}
	#part-3 {
		transform-origin: center center;
		animation: scale-up-animation 3s linear infinite;
	}
	#part-4 {
		transform-origin: center center;
		animation: scale-up-animation 1s linear infinite;
	}
		
	@keyframes scale-up-animation {
        0% {
            transform: scale(0.8);
        }
		50% {
			transform: scale(1.2);
		}
        100% {
            transform: scale(0.8);
        }
    }
</style>
<g id="iq4bet_img05 1">
<g id="Group">
<path id="Vector" d="M459.6 231.7C428.1 211.7 403 208.4 376.3 205.9C385.3 205 394.2 203.7 403 202.1C418 199.3 433.5 195.3 445.2 185.7C456.9 176.1 463.6 159.5 457.2 146C451.6 134.1 437.8 128.1 424.7 125C411.6 121.9 397.7 120.6 386 114C374.9 107.8 367.1 97.5 357.4 89.3C339.6 74.2 314.6 66.8 291.5 71.5C268.4 76.3 250.3 87.9 243.3 116.3C238.3 136.2 247.3 156 262.3 171.7C209.6 133.9 187.7 75.6 104.9 113.4C52.5 137.3 16.3 204.8 9.9 281.5C3.6 356.6 30.3 408.1 84.7 443.4C212.4 448.8 340.4 447.8 469.5 446.3C524.5 404.6 549 288.6 459.6 231.7Z" fill="url(#paint0_linear)"/>
<g id="XMLID 27">
<path id="XMLID 155" d="M492.3 269.9V244.7H482.7C481.5 240.3 479.8 236.1 477.6 232.3L484.4 225.5L466.5 207.6L459.7 214.4C455.9 212.2 451.7 210.4 447.3 209.3V199.7H422.1V209.3C417.7 210.5 413.5 212.2 409.7 214.4L402.9 207.6L385 225.5L391.8 232.3C389.6 236.1 387.8 240.3 386.7 244.7H377.1V269.9H386.7C387.9 274.3 389.6 278.5 391.8 282.3L385 289.1L402.9 307L409.7 300.2C413.5 302.4 417.7 304.2 422.1 305.3V314.9H447.3V305.3C451.7 304.1 455.9 302.4 459.7 300.2L466.5 307L484.4 289.1L477.6 282.3C479.8 278.5 481.6 274.3 482.7 269.9H492.3V269.9ZM434.7 279.2C422.6 279.2 412.8 269.4 412.8 257.3C412.8 245.2 422.6 235.4 434.7 235.4C446.8 235.4 456.6 245.2 456.6 257.3C456.6 269.4 446.8 279.2 434.7 279.2Z" fill="#A69DBF"/>
<path id="Vector_2" d="M389.5 369.5L387.6 364.6C385.4 364.8 383.2 364.7 381.1 364.4L379 369.2L365.8 363.3L367.9 358.5C366.2 357.1 364.7 355.5 363.4 353.8L358.5 355.7L353.3 342.2L358.2 340.3C358 338.1 358.1 335.9 358.4 333.8L353.6 331.7L359.5 318.5L364.3 320.6C365.7 318.9 367.3 317.4 369 316.1L367.1 311.2L380.6 306L382.5 310.9C384.7 310.7 386.8 310.8 389 311.1L391.1 306.3L404.3 312.2L402.2 317C403.9 318.4 405.4 320 406.7 321.7L411.6 319.8L416.8 333.3L411.9 335.2C412.1 337.4 412.1 339.5 411.7 341.7L416.5 343.8L410.6 357L405.8 354.9C404.4 356.6 402.8 358.1 401.1 359.4L403 364.3L389.5 369.5ZM388.3 363.6L390.1 368.2L401.7 363.8L399.9 359.2L400.2 359C402.1 357.6 403.8 356 405.3 354.2L405.5 353.9L410 355.9L415.1 344.6L410.6 342.6L410.7 342.2C411.1 339.9 411.1 337.5 410.9 335.2V334.8L415.5 333L411.1 321.4L406.5 323.2L406.3 322.9C404.9 321 403.3 319.3 401.5 317.8L401.2 317.6L403.2 313.1L391.9 308L389.9 312.5L389.5 312.4C387.2 312 384.8 312 382.5 312.2H382.1L380.3 307.6L368.7 312L370.5 316.6L370.2 316.8C368.3 318.2 366.6 319.8 365.1 321.6L364.9 321.9L360.4 319.9L355.3 331.2L359.8 333.2L359.7 333.6C359.3 335.9 359.3 338.3 359.5 340.6V341L354.9 342.8L359.3 354.4L363.9 352.6L364.1 352.9C365.5 354.8 367.1 356.5 368.9 358L369.2 358.2L367.2 362.7L378.5 367.8L380.5 363.3L380.9 363.4C383.2 363.8 385.6 363.8 387.9 363.6H388.3ZM385.1 350C383.4 350 381.7 349.6 380.2 348.9C377.2 347.6 375 345.2 373.8 342.2C371.4 336 374.5 328.9 380.8 326.5C387 324.1 394.1 327.2 396.5 333.5C397.7 336.5 397.6 339.8 396.3 342.8C395 345.8 392.6 348 389.6 349.2C388 349.8 386.5 350 385.1 350ZM385 326.8C383.7 326.8 382.3 327 381 327.5C375.3 329.7 372.4 336.1 374.6 341.9C375.7 344.7 377.7 346.9 380.5 348.1C383.2 349.3 386.2 349.4 389 348.3C391.8 347.2 394 345.2 395.2 342.4C396.4 339.7 396.5 336.7 395.4 333.9C393.7 329.5 389.5 326.8 385 326.8Z" fill="#A69DBF"/>
<path id="Vector_3" d="M357 314L355.7 310.7C354.3 310.8 352.9 310.8 351.5 310.6L350 313.8L340.8 309.7L342.2 306.4C341.1 305.5 340.2 304.5 339.3 303.4L336 304.7L332.4 295.3L335.7 294C335.6 292.6 335.6 291.2 335.8 289.8L332.6 288.4L336.7 279.2L339.9 280.6C340.8 279.5 341.8 278.6 342.9 277.7L341.6 274.4L351 270.8L352.3 274.1C353.7 274 355.1 274 356.5 274.2L358 271L367.2 275.1L365.8 278.4C366.9 279.3 367.8 280.3 368.7 281.4L372 280.1L375.6 289.5L372.3 290.8C372.4 292.2 372.4 293.6 372.2 295L375.4 296.4L371.3 305.6L368 304.2C367.1 305.3 366.1 306.2 365 307.1L366.3 310.4L357 314ZM356.4 309.6L357.6 312.7L365.1 309.8L363.9 306.7L364.2 306.5C365.5 305.6 366.6 304.5 367.6 303.3L367.8 303L370.8 304.3L374.1 296.9L371.1 295.5L371.2 295.1C371.5 293.5 371.5 292 371.3 290.4V290L374.4 288.8L371.5 281.3L368.4 282.5L368.2 282.2C367.3 280.9 366.2 279.8 365 278.8L364.7 278.6L366 275.6L358.6 272.3L357.2 275.3L356.8 275.2C355.2 274.9 353.7 274.9 352.1 275.1H351.7L350.5 272L343 274.9L344.2 278L343.9 278.2C342.6 279.1 341.5 280.2 340.5 281.4L340.3 281.7L337.3 280.4L334 287.8L337 289.2L336.9 289.6C336.6 291.1 336.6 292.7 336.8 294.3V294.7L333.7 295.9L336.6 303.4L339.7 302.2L339.9 302.5C340.8 303.8 341.9 304.9 343.1 305.9L343.4 306.1L342.1 309.1L349.5 312.4L350.9 309.4L351.3 309.5C352.8 309.8 354.4 309.8 356 309.6H356.4V309.6ZM354.1 300.8C350.7 300.8 347.6 298.8 346.3 295.4C344.7 291.1 346.8 286.3 351.1 284.6C353.2 283.8 355.4 283.9 357.5 284.8C359.5 285.7 361.1 287.4 361.9 289.4C362.7 291.5 362.6 293.8 361.7 295.8C360.8 297.8 359.1 299.4 357.1 300.2C356.1 300.6 355.1 300.8 354.1 300.8ZM354.1 285.1C353.2 285.1 352.3 285.3 351.5 285.6C347.7 287.1 345.8 291.3 347.3 295.1C348.8 298.9 353 300.8 356.8 299.3C358.6 298.6 360.1 297.2 360.9 295.4C361.7 293.6 361.8 291.6 361 289.8C360.3 288 358.9 286.5 357.1 285.7C356.1 285.3 355.1 285.1 354.1 285.1Z" fill="#A69DBF"/>
</g>
<g id="part-3">
<path id="XMLID 30" d="M372.1 141.2C372.1 153.9 366.2 165.2 356.9 172.5C350.1 177.9 341.5 181.1 332.2 181.1C322.9 181.1 314.3 177.9 307.5 172.5C298.3 165.2 292.3 153.9 292.3 141.2C292.3 119.2 310.2 101.3 332.2 101.3C354.2 101.3 372.1 119.1 372.1 141.2Z" fill="#318BCF"/>
<g id="XMLID 31">
<path id="XMLID 32" d="M332.2 141.1C339.435 141.1 345.3 135.235 345.3 128C345.3 120.765 339.435 114.9 332.2 114.9C324.965 114.9 319.1 120.765 319.1 128C319.1 135.235 324.965 141.1 332.2 141.1Z" fill="white"/>
<path id="XMLID 33" d="M356.9 167.4C350.1 172.8 341.5 176 332.2 176C322.9 176 314.3 172.8 307.5 167.4C310.1 156.2 312.4 146.5 314.8 144C318.3 140.5 327.4 138.5 332.2 138.5C337 138.5 346.6 140.9 348.3 142.7C351.9 146.4 355 156.4 356.9 167.4Z" fill="white"/>
</g>
</g>
<g id="part-4">
<path id="Vector_4" d="M346.6 210.1H284.5C279.1 210.1 274.8 214.5 274.8 219.8V239.5C274.8 244.9 279.2 249.2 284.5 249.2H289.9L270.9 267.7L307.5 249.2H346.5C351.9 249.2 356.2 244.8 356.2 239.5V219.8C356.4 214.4 352 210.1 346.6 210.1Z" fill="#318BCF"/>
<g id="XMLID 38">
<path id="XMLID 39" d="M282.4 219.3V219.2C282.4 218.4 283 217.8 283.8 217.8H314.5C315.3 217.8 315.9 218.4 315.9 219.2V219.3C315.9 220.1 315.3 220.7 314.5 220.7H283.8C283 220.8 282.4 220.1 282.4 219.3Z" fill="white"/>
<path id="XMLID 40" d="M317.3 219.3V219.2C317.3 218.4 317.9 217.8 318.7 217.8H345.5C346.3 217.8 346.9 218.4 346.9 219.2V219.3C346.9 220.1 346.3 220.7 345.5 220.7H318.7C318 220.8 317.3 220.1 317.3 219.3Z" fill="white"/>
<path id="XMLID 41" d="M305.6 225.9V225.8C305.6 225 306.2 224.4 307 224.4H345.5C346.3 224.4 346.9 225 346.9 225.8V225.9C346.9 226.7 346.3 227.3 345.5 227.3H307C306.3 227.3 305.6 226.7 305.6 225.9Z" fill="white"/>
<path id="XMLID 42" d="M282.4 225.9V225.8C282.4 225 283 224.4 283.8 224.4H301C301.8 224.4 302.4 225 302.4 225.8V225.9C302.4 226.7 301.8 227.3 301 227.3H283.8C283 227.3 282.4 226.7 282.4 225.9Z" fill="white"/>
<path id="XMLID 43" d="M311 232.5V232.4C311 231.6 311.6 231 312.4 231H345.5C346.3 231 346.9 231.6 346.9 232.4V232.5C346.9 233.3 346.3 233.9 345.5 233.9H312.4C311.6 233.9 311 233.3 311 232.5Z" fill="white"/>
<path id="XMLID 44" d="M282.4 232.5V232.4C282.4 231.6 283 231 283.8 231H306.7C307.5 231 308.1 231.6 308.1 232.4V232.5C308.1 233.3 307.5 233.9 306.7 233.9H283.8C283 233.9 282.4 233.3 282.4 232.5Z" fill="white"/>
<path id="XMLID 45" d="M282.4 239.1V239C282.4 238.2 283 237.6 283.8 237.6H292.3C293.1 237.6 293.7 238.2 293.7 239V239.1C293.7 239.9 293.1 240.5 292.3 240.5H283.8C283 240.5 282.4 239.9 282.4 239.1Z" fill="white"/>
<path id="XMLID 46" d="M296.8 239.1V239C296.8 238.2 297.4 237.6 298.2 237.6H345.5C346.3 237.6 346.9 238.2 346.9 239V239.1C346.9 239.9 346.3 240.5 345.5 240.5H298.2C297.4 240.5 296.8 239.9 296.8 239.1Z" fill="white"/>
</g>
</g>
<g id="part-2">
<path id="Vector_5" d="M136.9 216.4L124.1 204.6C125.9 197.3 125.6 189.3 122.7 181.7C115.2 162 93 152 73.2 159.5C53.4 167.1 43.4 189.2 51 209C58.5 228.8 80.7 238.8 100.5 231.3C108.6 228.2 115.1 222.7 119.4 215.9C126.3 215.9 136.9 216.4 136.9 216.4Z" fill="#318BCF"/>
<path id="Vector_6" d="M102.6 170.1L102.3 177L96.6 181.9L91.3 179.3L91.6 171.8L96.8 167.3C93 166.9 89.3 168.9 87.5 172.5C85.9 175.8 86.5 179.6 88.6 182.3L83.4 192.1C83 192.8 82.6 193.6 82.3 194.4L77.8 205C74.3 205 71 206.9 69.4 210.3C67.2 214.9 69.1 220.5 73.8 222.7C78.4 224.9 84 223 86.2 218.3C87.8 215 87.2 211.2 85.1 208.5L90.4 198.6C90.9 197.7 91.3 196.8 91.7 195.9L95.9 186C99.4 186 102.7 184.1 104.3 180.7C106 177 105.2 172.8 102.6 170.1ZM78.2 220.1L72.9 217.5L72.5 211.6L77.4 208.3L82.7 210.9L83.1 216.8L78.2 220.1Z" fill="white"/>
</g>
<g id="part-1">
<path id="XMLID 166" d="M176.329 153.202C197.15 153.077 213.928 136.097 213.803 115.276C213.678 94.4548 196.698 77.6772 175.877 77.8021C155.056 77.927 138.278 94.9071 138.403 115.728C138.528 136.549 155.508 153.327 176.329 153.202Z" fill="#318BCF"/>
<g id="XMLID 158">
<path id="XMLID 72" d="M177.3 83.4H174.8V115.1H177.3V83.4Z" fill="white"/>
<path id="XMLID 73" d="M174.617 115.086L148.225 133.354L149.648 135.409L176.04 117.141L174.617 115.086Z" fill="white"/>
<path id="XMLID 156" d="M176.1 119C178.033 119 179.6 117.433 179.6 115.5C179.6 113.567 178.033 112 176.1 112C174.167 112 172.6 113.567 172.6 115.5C172.6 117.433 174.167 119 176.1 119Z" fill="white"/>
</g>
</g>
<g id="Group_2">
<path id="Vector_7" d="M337 336C311 341.7 287.2 360.7 273.6 386.3C275.6 381 277.4 375.6 279.2 370.3C302.9 349.4 317.6 314.6 316.8 280.3C291.8 300.4 276.8 335.4 278.5 369.4C276.8 374.4 275.1 379.5 273.2 384.5C272.9 383.9 272.7 383.2 272.4 382.6C277.4 354 269.2 322.4 251.1 301.4C243.7 329.5 250.6 362.4 271.6 383.2C271.9 384 272.2 384.8 272.6 385.6C272.6 385.7 272.7 385.7 272.7 385.8C269.9 393.4 266.8 401 263.3 408.2C263.1 407.9 262.9 407.7 262.7 407.4C260.1 378.1 245 350.6 223 335.4C224.3 351.1 228.5 366.3 235.1 380.1C242.5 395.5 253.3 405.4 262.1 408.2C262.4 408.5 262.6 408.9 262.9 409.2C259.7 415.6 256.1 421.8 251.9 427.5C251.7 427.7 251.8 428 252 428.2C252.1 428.3 252.2 428.3 252.3 428.3C252.5 428.3 252.6 428.2 252.7 428.1C260.5 417.4 266.3 405.1 271.3 392.5C298.5 389.9 325.1 366.6 337 336Z" fill="#A69DBF"/>
<path id="Vector_8" d="M263.2 417.2C262 417.5 260.8 417.8 259.7 418.1C259.4 418.2 259.3 418.4 259.3 418.7C259.4 418.9 259.6 419.1 259.8 419.1H259.9C261.3 418.8 262.6 418.4 264 418C287.9 424.3 319 410.9 338 386C311.9 378.7 280.5 391.9 263.2 417.2Z" fill="#A69DBF"/>
<path id="Vector_9" d="M424.1 413.1C428 409.2 431.8 405.2 435.6 401.2C465.1 392.2 492.3 367.3 505.7 336.4C475.3 344.1 447.8 369.1 435.3 400.1C431.7 403.9 428.1 407.7 424.4 411.4C424.4 410.7 424.5 410.1 424.5 409.4C440.6 386 446.3 354.5 438.9 328.4C420.8 350.4 413.5 382.5 423.5 409.6C423.5 410.5 423.4 411.3 423.4 412.2C423.4 412.3 423.4 412.4 423.4 412.4C417.8 418.1 412 423.5 405.9 428.5C405.8 428.2 405.8 427.9 405.7 427.5C415.4 400.3 413.3 369.7 400.1 347.2C394.8 361.7 392.3 377 392.5 392C392.7 408.7 398.2 421.9 404.8 428C404.9 428.4 405 428.8 405.1 429.3C399.6 433.7 394 437.7 387.9 441.1C387.7 441.2 387.6 441.5 387.7 441.8C387.8 442 388 442.1 388.1 442.1C388.2 442.1 388.3 442.1 388.3 442C399.6 435.6 409.8 427.1 419.3 417.9C444.6 426.7 477.6 416.7 500.6 394.3C475.4 388.6 446.6 395.8 424.1 413.1Z" fill="#A69DBF"/>
<path id="Vector_10" d="M402.3 436.4C401.1 436.2 400 436 398.8 435.8C398.5 435.7 398.3 435.9 398.2 436.2C398.1 436.5 398.3 436.7 398.6 436.8C399.9 437.1 401.3 437.3 402.6 437.5C421.2 452.9 454.1 453.6 481.1 439.2C461.1 422 428 420.9 402.3 436.4Z" fill="#A69DBF"/>
<path id="Vector_11" d="M129.7 408.6C129.9 408.5 130 408.3 129.9 408C129.8 407.7 129.6 407.6 129.3 407.7C123.7 395.8 117.3 384.3 110.2 373.2C110.6 372.5 111 371.8 111.4 371.1C128.6 352.3 136.7 324.4 134.5 297.1C115.1 316.5 105.9 344.8 110 371.6C109.9 371.8 109.7 372.1 109.6 372.3C106.6 367.6 103.5 363.1 100.2 358.6C100 354.5 99.7 350.5 99.4 346.4C106.5 334 107 318.1 103.8 303.1C100.5 287.5 93.4 272.8 85.2 258.9C74.5 288.1 79.6 322.5 98.5 348C98.7 351.1 98.9 354.1 99.1 357.2C96.1 353.1 93 349.1 89.8 345.1C77.1 307.7 42.8 277.6 3.00001 269C19.7 301.4 49.9 327.3 89 345.6C90.5 347.5 92 349.4 93.5 351.3C92.6 351.3 91.7 351.3 90.9 351.2C64 336.5 30.7 333.4 1.70001 343C28.8 356.5 60.9 360.4 91.5 352.2C92.3 352.2 93.1 352.2 93.8 352.3C93.9 352.3 94 352.3 94.1 352.2C95.8 354.4 97.5 356.7 99.2 359C99.2 359.1 99.3 359.2 99.4 359.3C99.6 359.5 99.7 359.7 99.8 359.9C99.6 360 99.4 360.1 99.2 360.2C70 356.3 39.5 363.5 15.8 380C42.2 389.6 73.8 383.7 98 361.8C98.7 361.5 99.4 361.2 100.1 360.9C100.2 360.9 100.2 360.8 100.3 360.8C103.3 364.9 106.1 369.1 108.9 373.4V373.5C108.8 373.7 108.9 374 109.1 374.2C109.2 374.2 109.3 374.3 109.3 374.3H109.4C109.9 375 110.3 375.8 110.8 376.5L107.1 378.3C78.6 378.7 50.8 392.4 34.1 414.4C47 417 60.8 415.4 72.6 410.1C84.3 404.8 94.2 395.7 108.3 378.8L111.2 377.3C117.4 387.3 123 397.6 128 408.1C99.7 403.6 69.7 412.5 49.3 431.5C61.6 436.2 75.4 436.9 88 433.6C100.4 430.3 111.6 423.1 128.1 409.1C128.2 409.1 128.3 409.1 128.3 409C131.6 415.9 134.6 422.9 137.3 430C137.4 430.2 137.6 430.3 137.8 430.3C137.9 430.3 137.9 430.3 138 430.3C138.3 430.2 138.4 429.9 138.3 429.7C135.9 422.5 132.9 415.5 129.7 408.6Z" fill="#A69DBF"/>
</g>
<g id="XMLID 47">
<path id="XMLID 65" d="M244.5 376.3C244.5 376.3 247 399.6 249.9 401.4C255 404.7 313.7 412.5 313.7 412.5L311.8 427.8C311.8 427.8 231.3 435 227.9 431C222 424 211.5 390.4 211.5 390.4L244.5 376.3Z" fill="#F1C183"/>
<path id="XMLID 64" d="M205.7 316.4L212.2 300.8C212.2 300.8 229.8 309.1 235.7 319.3C241.9 330.2 249.5 388.4 249.5 388.4C249.5 388.4 218.4 395.6 212.6 392.5C206.9 389.5 205.7 316.4 205.7 316.4Z" fill="#3A1340"/>
</g>
<path id="XMLID 63" d="M156.2 244C151.6 242.3 146.8 240.9 141.9 241.2C137 241.6 132 244.2 130.4 248.4C129.2 251.4 129.8 255 127.9 257.8C126.1 260.4 122.6 261.5 119.3 261.7C116 261.9 112.6 261.5 109.3 261.9C99.1 263.3 91.8 274.3 95.2 283.4C96.5 287 99.3 290.5 98.6 294.2C97.9 298.2 93.7 300.9 92 304.6C89.7 309.6 92.5 315.6 97 319C101.6 322.4 107.5 323.7 113.2 324.5C121.1 325.7 129.3 326.2 137.1 324.6C144.9 323 152.4 318.8 156.4 312.4C158.2 309.5 159.3 306.3 161.4 303.7C165.7 298.2 173.3 296 179.4 292.1C186 287.8 190.8 279.4 186.9 272.9C183.2 266.6 173.5 265.2 169.6 259C168 256.4 167.6 253.4 166.6 250.6C165.5 247.8 162.9 246.4 156.2 244Z" fill="#280E2B"/>
<g id="XMLID 48">
<path id="XMLID 62" d="M182.7 321.1C183.8 322.4 185.2 323.9 187.1 324C189.1 324.1 190.7 322.7 192 321.4C198.6 314.4 202.9 305.9 204.7 297.1C203.1 296.2 201.5 295.3 200.1 294.4C198.8 293.6 197.8 292.5 197.2 291.2C196.8 290.2 196.7 289.3 196.8 288.2C197.7 279.5 198.5 274.6 201.6 265.8C187.1 262.5 173.4 258.6 165.5 252C164.5 256.1 163.4 264 161 271.9C158.4 280.2 154.4 288.5 147.5 292C160.9 300 172.9 309.9 182.7 321.1Z" fill="#FFD194"/>
<path id="XMLID 61" d="M196.8 288.3C196.7 289.3 196.8 290.4 197.2 291.3C188.6 301.7 169.4 288.1 160.9 272C163.3 264.1 164.5 256.2 165.4 252.1C173.3 258.7 187 262.6 201.5 265.9C198.5 274.7 197.7 279.6 196.8 288.3Z" fill="#F1C183"/>
</g>
<g id="XMLID 49">
<path id="XMLID 60" d="M220.7 414.4C218.8 427 232.4 440.5 232.7 447.3C203.9 447.3 143.4 449.1 112.7 444.9C111.3 437.1 126.5 419.7 126.5 402.4C126.5 400.1 126.4 397.6 126.2 394.9C125.7 387.2 124.6 378.1 123.3 368.7C119.9 343.5 115.3 316.6 118.7 311C125.3 300.1 140.8 292.7 148.4 289.6C151 288.5 152.7 287.9 152.9 287.9C162.5 304.3 182.1 318.3 189.4 317.6C191.5 317.4 197.5 315.3 201.6 295.1C203.2 296 204.7 296.8 206.3 297.6C213.9 301.6 221.1 304.9 223.2 310C228.6 323.5 234 357.4 232.8 369.4C231.6 381.6 226.7 390.9 223.3 403.1C222.5 406 221.8 409 221.2 412.3C220.9 412.8 220.8 413.6 220.7 414.4Z" fill="#53285A"/>
<path id="XMLID 59" d="M232.7 447.2C203.9 447.2 143.4 449 112.7 444.8C111.3 437 126.5 419.6 126.5 402.3C126.5 400 126.4 397.5 126.2 394.8C125.7 387.1 124.6 378 123.3 368.6C128.8 374.4 136.7 350 140.2 357.2C159.3 395.7 174.3 405.8 200.4 405.8C208.2 405.8 215.4 404.7 223.1 403C222.3 405.9 221.6 408.9 221 412.2C220.9 412.9 220.7 413.7 220.6 414.5C218.8 426.9 232.4 440.5 232.7 447.2Z" fill="#3A1340"/>
<path id="XMLID 58" d="M206.2 297.4C205 306.4 201.3 318.5 190.6 321.7C176.2 326 155.3 299 148.4 289.4C151 288.3 152.7 287.7 152.9 287.7C162.5 304.1 182.1 318.1 189.4 317.4C191.5 317.2 197.5 315.1 201.6 294.9C203.1 295.8 204.7 296.6 206.2 297.4Z" fill="#7F358A"/>
</g>
<g id="XMLID 50">
<g id="XMLID 51">
<g id="XMLID 52">
<path id="XMLID 57" d="M212.2 433.7L212.1 443.7L391.7 444.8L392.1 433.4L212.2 433.7Z" fill="#53285A"/>
</g>
<g id="XMLID 53">
<path id="XMLID 56" d="M469.5 344L465.5 340L334.7 339.1L269.1 434L272.5 436.8L469.5 344Z" fill="#53285A"/>
<path id="XMLID 55" d="M337.2 342.6L272.5 436.8L396.1 437.4L469.5 344L337.2 342.6Z" fill="#262D40"/>
</g>
</g>
<path id="XMLID 54" d="M368.5 402.7C376.453 402.7 382.9 399.476 382.9 395.5C382.9 391.524 376.453 388.3 368.5 388.3C360.547 388.3 354.1 391.524 354.1 395.5C354.1 399.476 360.547 402.7 368.5 402.7Z" fill="#53285A"/>
</g>
<g id="XMLID 114">
<g id="XMLID 115">
<path id="XMLID 116" d="M240.986 254.54C243.03 243.572 238.833 233.59 231.612 232.245C224.39 230.899 216.88 238.699 214.836 249.667C212.792 260.634 216.989 270.616 224.21 271.962C231.432 273.307 238.942 265.507 240.986 254.54Z" fill="#318BCF"/>
</g>
<path id="XMLID 117" d="M241 220.2C239.7 229.7 235.4 240.2 229.2 251.8C227 242.3 225.6 230.7 223.7 219.1C221.7 207.5 219.3 195.9 214.9 186.4C213.9 184.3 212.9 182.3 211.7 180.4C214.3 180.2 216.9 180.4 219.3 181.1C223.2 182.1 226.8 184.1 229.7 186.8C234.6 191.2 237.9 197.1 239.9 203.4C241.6 208.7 241.9 214.3 241 220.2Z" fill="#53285A"/>
<g id="XMLID 118">
<path id="XMLID 119" d="M233.7 230C233.6 231.9 233.5 233.8 233.3 235.7C230.7 266.5 217.7 287.7 197.9 287.7C169.9 287.7 151.8 256.3 151.8 225.6C151.8 195.3 170.4 173.4 192.1 175.9C204.6 177.3 213.8 181.5 220.3 187.6C224.6 191.7 227.7 196.6 229.8 202.1C232.2 208.3 233.4 215.4 233.6 223C233.6 223 233.6 223 233.6 223.1C233.8 225.4 233.8 227.7 233.7 230Z" fill="#FFD194"/>
<path id="XMLID 120" d="M233.7 230C232.9 227 231.6 224.1 229.9 221.5C213.4 230.1 193.8 233.4 175.1 230.3C171.6 233.3 168.1 236.2 164.6 239.1C164.7 225.1 164.9 215.6 170.3 208.8C175.4 202.4 184 200 192.1 199C201.2 197.8 210.5 197.9 219.6 199.2C223.1 199.7 226.7 200.4 229.7 202.2C232.1 208.4 233.3 215.5 233.5 223.1C233.5 223.1 233.5 223.1 233.5 223.2C233.8 225.4 233.8 227.7 233.7 230Z" fill="#F1C183"/>
</g>
<path id="XMLID 121" d="M237.7 211.1C233.9 214.3 229.1 217 223.7 219.2C208.3 225.4 188.4 227.5 172.8 226.7C165.2 243.5 162.1 249.5 160.1 264.2C152.6 257.2 146.5 244.4 144.7 234.3C142.9 224.2 143.1 213.7 145.9 203.8C150.3 188.2 161.5 179.9 169.2 175.8C171.1 174.7 172.9 174 174.2 173.5C184.1 169.7 195.2 170 205.3 173.1C210.8 174.8 215.5 177.7 219.4 181.3C227.3 188.4 232.2 198.1 235.3 205.3C236.3 207.5 237.1 209.5 237.7 211.1Z" fill="#53285A"/>
<path id="XMLID 122" d="M241 220.2C240.4 216.8 239.4 213.6 238.1 210.4C237.3 208.6 236.4 206.9 235.3 205.2C231.8 199.7 226.7 195.1 220.5 193.1C218.7 190.6 216.9 188.4 214.9 186.4C207.9 179.3 199.7 175.2 190.9 173.8C183.6 172.6 176.1 173.3 169.1 175.7C171 174.6 172.8 173.9 174.1 173.4C184 169.6 195.1 169.9 205.2 173C210.7 174.7 215.4 177.6 219.3 181.2C223.2 182.2 226.8 184.2 229.7 186.9C234.6 191.3 237.9 197.2 239.9 203.5C241.6 208.7 241.9 214.3 241 220.2Z" fill="#7F358A"/>
<g id="XMLID 123">
<g id="XMLID 124">
<path id="Vector_12" d="M181.7 240.1C181.4 240.1 181 239.9 180.8 239.6C180.5 239.1 180.7 238.5 181.2 238.2C185.7 235.6 191.5 233.4 200.1 236.6C200.6 236.8 200.9 237.4 200.7 237.9C200.5 238.4 199.9 238.7 199.4 238.5C193.1 236.2 188.1 236.6 182.2 240C182.1 240.1 181.9 240.1 181.7 240.1Z" fill="#53285A"/>
<path id="Vector_13" d="M217.1 239.9C216.8 239.9 216.5 239.8 216.3 239.5C216 239.1 216.1 238.4 216.5 238.1C221.6 234.3 228.6 234.4 232.2 238.2C232.6 238.6 232.6 239.2 232.2 239.6C231.8 240 231.2 240 230.8 239.6C227.9 236.5 221.9 236.6 217.7 239.7C217.5 239.8 217.3 239.9 217.1 239.9Z" fill="#53285A"/>
<path id="Vector_14" d="M210.9 266.6C210.8 266.6 210.6 266.6 210.5 266.5C210 266.3 209.8 265.7 210 265.2C211 263.1 211.2 258.1 210.8 256C210.7 255.5 211 254.9 211.6 254.8C212.1 254.7 212.7 255 212.8 255.6C213.3 258 213.1 263.5 211.8 266.1C211.6 266.4 211.2 266.6 210.9 266.6Z" fill="#53285A"/>
<path id="XMLID 128" d="M194.3 257.4C195.46 257.4 196.4 255.878 196.4 254C196.4 252.122 195.46 250.6 194.3 250.6C193.14 250.6 192.2 252.122 192.2 254C192.2 255.878 193.14 257.4 194.3 257.4Z" fill="#262D40"/>
<path id="XMLID 129" d="M222.2 255.8C223.36 255.8 224.3 254.278 224.3 252.4C224.3 250.522 223.36 249 222.2 249C221.04 249 220.1 250.522 220.1 252.4C220.1 254.278 221.04 255.8 222.2 255.8Z" fill="#262D40"/>
</g>
<g id="XMLID 130">
<path id="XMLID 131" d="M209.1 270.2C209.1 270.2 208.7 271 207.9 272.1C206.6 273.8 204.5 276.1 201.6 277C200.4 277.4 199 277.5 197.6 277.3C193.2 276.5 192.1 272.5 191.9 269.4C191.9 268.8 191.9 268.2 191.9 267.7C191.9 266.4 192.1 265.6 192.1 265.6C198.9 269.4 209.1 270.2 209.1 270.2Z" fill="#262D40"/>
<path id="XMLID 132" d="M209.1 270.2C209.1 270.2 208.7 271 207.9 272.1C204.4 272.1 197.1 270.2 191.8 267.7C191.8 266.4 192 265.6 192 265.6C198.9 269.4 209.1 270.2 209.1 270.2Z" fill="white"/>
<path id="XMLID 133" d="M201.6 277C200.4 277.4 199 277.5 197.6 277.3C193.2 276.5 192.1 272.5 191.9 269.4C194 269.7 196 270.5 197.7 271.8C199.5 273 200.8 274.9 201.6 277Z" fill="#7F358A"/>
</g>
</g>
<g id="XMLID 134">
<path id="XMLID 135" d="M160.2 233.8C160.2 233.8 160 219.4 166 205C173.5 187 188.9 179.3 203.8 178.8C221.8 178.2 233 190.2 233 190.2C233 190.2 227.1 179.9 215.6 176.9C208 175 196.6 174.6 187.4 178.4C177.9 182.2 166.2 192.9 161.9 204.1C157.6 215.4 155.6 232.9 155.6 232.9L160.2 233.8Z" fill="#318BCF"/>
<g id="XMLID 136">
<path id="XMLID 137" d="M159.886 271.376C167.576 270.576 172.829 260.488 171.618 248.843C170.408 237.197 163.192 228.405 155.502 229.205C147.812 230.004 142.559 240.092 143.769 251.738C144.98 263.383 152.196 272.175 159.886 271.376Z" fill="#56C4F9"/>
<path id="XMLID 138" d="M156.379 267.622C161.349 266.875 164.314 259.186 163 250.448C161.687 241.709 156.594 235.231 151.624 235.978C146.654 236.724 143.689 244.414 145.002 253.152C146.316 261.891 151.409 268.369 156.379 267.622Z" fill="#318BCF"/>
</g>
<path id="Vector_15" d="M203.9 278.8C200.3 278.8 197.3 280.4 196.6 282.5H196.5C178.1 281.1 167.3 267.5 167.2 267.3C166.9 266.9 166.2 266.8 165.8 267.1C165.4 267.4 165.3 268.1 165.6 268.5C166.1 269.1 177.1 283 196.3 284.4H196.4C196.5 284.4 196.5 284.4 196.6 284.4C197.3 286.5 200.3 288.1 203.9 288.1C208 288.1 211.4 286 211.4 283.5C211.4 280.9 208 278.8 203.9 278.8Z" fill="#318BCF"/>
</g>
</g>
<g id="XMLID 142">
<g id="XMLID 143">
<g id="XMLID 144">
<g id="XMLID 145">
<path id="XMLID 146" d="M212.1 406.8L211.4 425.3C211.4 425.3 144.4 445.4 133.3 439C127.9 435.9 122.9 418.8 119.1 402.1C115.2 384.6 112.6 367.5 112.6 367.5L151.9 359.8C151.9 359.8 151.9 383.8 153.3 397.6C153.8 402.8 154.5 406.5 155.4 407.1C158.8 409.6 212.1 406.8 212.1 406.8Z" fill="#FFD194"/>
<path id="XMLID 147" d="M153.2 397.7C146.1 400 132.3 403.6 119 402.2C115.1 384.7 112.5 367.6 112.5 367.6L151.8 359.9C151.9 359.9 151.9 383.9 153.2 397.7Z" fill="#F1C183"/>
</g>
<g id="XMLID 148">
<path id="XMLID 149" d="M210.2 407C220.2 404.9 237 399.7 244 398C249 396.7 261.9 403.4 265.3 409.8C266.8 412.6 268.2 428.2 263 426.6C260.4 425.8 260.8 419.1 260 416.4C259.3 414.2 257.2 412 254 410.2C256.1 415.5 256.1 420.2 255.8 426C255.8 427.3 255.7 428.6 255.1 429.7C254.5 430.8 253.1 431.6 252 431.1C250.8 430.6 250.4 429.1 250.1 427.9C249.2 423.5 248.3 419 247.9 414C248 418.9 247.9 423.9 247.6 428.8C247.4 432.6 245.5 434.7 243.2 434C242.2 433.7 241.8 432.8 241.3 431.5C240.6 433.9 238.9 436.6 236.6 435.6C235.2 435 234.4 430 234.6 425C230.3 427.7 225.4 428.8 219.8 429.1C214.8 429.3 209.6 428.4 206.6 425C207 419.4 208.8 411.5 210.2 407Z" fill="#FFD194"/>
<path id="XMLID 150" d="M241.5 430.5C241.8 426.5 241.5 422.4 240.5 418.6Z" fill="#FFD194"/>
</g>
</g>
<path id="XMLID 151" d="M147.5 321.1C144.6 313.1 134.2 296.6 134.2 296.6C134.2 296.6 118.3 303.2 112.6 314.5C103 333.6 107.9 388.2 107.9 388.2C120.8 393.6 146.7 393.7 157.7 392.1C157.7 392.2 153.2 337.1 147.5 321.1Z" fill="#7F358A"/>
</g>
</g>
<path id="XMLID 3" d="M490.5 441.5H33.6V453H490.5V441.5Z" fill="#262D40"/>
</g>
</g>
<defs>
<linearGradient id="paint0_linear" x1="263.915" y1="447.489" x2="263.915" y2="70.0967" gradientUnits="userSpaceOnUse">
<stop stop-color="white"/>
<stop offset="1" stop-color="#A69EBF"/>
</linearGradient>
</defs>
</svg>
