<svg width="520" height="520" viewBox="0 0 520 520" fill="none" xmlns="http://www.w3.org/2000/svg">
<style>
	* {
		transform-box: fill-box;
	}
	#wheel-1,
	#wheel-2,
	#wheel-3,
	#wheel-4,
	#wheel-5,
	#wheel-6,
	#wheel-7 {
		transform-origin: center center;
	}
	#wheel-1 {
		animation: wheel-animation 2s linear infinite;
	}
	#wheel-2 {
		animation: wheel-animation 3s linear infinite;
	}
	#wheel-3 {
		animation: wheel-animation 5s linear infinite;
	}
	#wheel-4 {
		animation: wheel-animation 1.5s linear infinite;
	}
	#wheel-5 {
		animation: wheel-animation 1.5s linear infinite;
	}
	#wheel-7 {
		animation: wheel-animation 1.5s linear infinite;
	}
	@keyframes wheel-animation {
        0% {
            transform: rotate(0deg);
        }
        100% {
            transform: rotate(360deg);
        }
    }
	#wheel-6 {
		animation: wheel-reverse-animation 1.5s linear infinite;
	}
	@keyframes wheel-reverse-animation {
        0% {
            transform: rotate(0deg);
        }
        100% {
            transform: rotate(-360deg);
        }
    }
</style>
<g id="iq4bet_img04 1">
<g id="Group">
<g id="Group_2">
<path id="Vector" d="M138.7 185.3H35.6V114.7H138.7V185.3ZM36.4 184.5H137.9V115.6H36.4V184.5Z" fill="#A69DBF"/>
<g id="Group_3">
<path id="Vector_2" d="M41.6001 121.4C42.7599 121.4 43.7001 120.46 43.7001 119.3C43.7001 118.14 42.7599 117.2 41.6001 117.2C40.4403 117.2 39.5001 118.14 39.5001 119.3C39.5001 120.46 40.4403 121.4 41.6001 121.4Z" fill="#A69DBF"/>
<path id="Vector_3" d="M50.0001 121.4C51.1599 121.4 52.1001 120.46 52.1001 119.3C52.1001 118.14 51.1599 117.2 50.0001 117.2C48.8403 117.2 47.9001 118.14 47.9001 119.3C47.9001 120.46 48.8403 121.4 50.0001 121.4Z" fill="#A69DBF"/>
<path id="Vector_4" d="M58.3001 121.4C59.4599 121.4 60.4001 120.46 60.4001 119.3C60.4001 118.14 59.4599 117.2 58.3001 117.2C57.1403 117.2 56.2001 118.14 56.2001 119.3C56.2001 120.46 57.1403 121.4 58.3001 121.4Z" fill="#7F358A"/>
</g>
<path id="Vector_5" d="M138.3 122.9H36.0001V123.7H138.3V122.9Z" fill="#A69DBF"/>
</g>
<g id="Group_4">
<path id="wheel-4" d="M511.5 219.5L516.3 211.8L513.9 210.3C513.2 209.9 512.8 209.1 512.9 208.3C512.9 207.8 513 207.4 512.9 206.9C512.9 206.1 513.3 205.3 514 204.9L516.5 203.6L512.2 195.6L509.7 196.9C509 197.3 508.1 197.2 507.4 196.8C507 196.5 506.6 196.3 506.2 196.1C505.5 195.7 505 195 505.1 194.1L505.2 191.3L496.1 191L496 193.8C496 194.6 495.5 195.3 494.7 195.7C494.5 195.8 494.3 195.9 494.1 196C493.9 196.1 493.7 196.2 493.5 196.3C492.8 196.7 491.9 196.7 491.2 196.3L488.8 194.8L484 202.5L486.4 204C487.1 204.4 487.5 205.2 487.4 206C487.4 206.4 487.3 206.9 487.4 207.4C487.4 208.2 487 209 486.3 209.4L483.8 210.7L488.1 218.7L490.6 217.4C491.3 217 492.2 217.1 492.9 217.5C493.3 217.8 493.7 218 494.1 218.2C494.8 218.6 495.3 219.3 495.2 220.2L495.1 223L504.2 223.3L504.3 220.5C504.3 219.7 504.8 219 505.6 218.6C505.8 218.5 506 218.4 506.2 218.3C506.4 218.2 506.6 218.1 506.8 218C507.5 217.6 508.4 217.6 509.1 218L511.5 219.5ZM503.8 213.7C500.2 215.6 495.7 214.3 493.7 210.7C491.8 207.1 493.1 202.6 496.7 200.6C500.3 198.7 504.8 200 506.8 203.6C508.8 207.3 507.5 211.8 503.8 213.7Z" fill="#A69DBF"/>
<path id="wheel-1" d="M185.9 132.1L182.7 126.6L181 127.6C180.5 127.9 179.9 127.9 179.4 127.5C179.1 127.3 178.9 127.2 178.6 127C178.1 126.7 177.8 126.2 177.8 125.7V123.7H171.4V125.7C171.4 126.3 171.1 126.8 170.6 127C170.3 127.1 170 127.3 169.8 127.5C169.3 127.8 168.7 127.8 168.2 127.6L166.5 126.6L163.3 132.1L165 133.1C165.5 133.4 165.8 133.9 165.7 134.5C165.7 134.7 165.7 134.8 165.7 135C165.7 135.2 165.7 135.3 165.7 135.5C165.7 136.1 165.5 136.6 165 136.9L163.3 137.9L166.5 143.4L168.2 142.4C168.7 142.1 169.3 142.1 169.8 142.5C170.1 142.7 170.3 142.8 170.6 143C171.1 143.3 171.4 143.8 171.4 144.3V146.3H177.8V144.3C177.8 143.7 178.1 143.2 178.6 143C178.9 142.9 179.2 142.7 179.4 142.5C179.9 142.2 180.5 142.2 181 142.4L182.7 143.4L185.9 137.9L184.2 136.9C183.7 136.6 183.4 136.1 183.5 135.5C183.5 135.3 183.5 135.2 183.5 135C183.5 134.8 183.5 134.7 183.5 134.5C183.5 133.9 183.7 133.4 184.2 133.1L185.9 132.1ZM179.8 134.9C179.8 137.8 177.5 140.1 174.6 140.1C171.7 140.1 169.4 137.8 169.4 134.9C169.4 132 171.7 129.7 174.6 129.7C177.5 129.7 179.8 132 179.8 134.9Z" fill="#A69DBF"/>
<path id="wheel-2" d="M64.5 299.6V291.1L59 290.7C58.4 287.2 57 284 55.1 281.2L58.9 276.8L52.9 270.8L48.5 274.6C45.8 272.8 42.7 271.5 39.4 270.8L38.9 264.6H30.4L29.9 270.8C26.7 271.4 23.7 272.7 21 274.4L16.1 270.2L10.1 276.2L14.2 281C12.4 283.6 11.1 286.5 10.4 289.7L3.90002 290.2V298.7L10.1 299.2C10.6 302.5 11.8 305.5 13.5 308.2L9.40002 313L15.4 319L19.9 315.2C22.6 317.2 25.7 318.6 29 319.4L29.5 325.3H38L38.4 319.8C41.9 319.3 45.2 318 48 316.1L52.2 319.7L58.2 313.7L54.7 309.6C56.7 306.8 58.1 303.6 58.8 300.1L64.5 299.6ZM34.6 306.8C28.2 306.8 23 301.6 23 295.2C23 288.8 28.2 283.6 34.6 283.6C41 283.6 46.2 288.8 46.2 295.2C46.2 301.6 41 306.8 34.6 306.8Z" fill="#A69DBF"/>
<path id="wheel-3" d="M478.7 272.7V264.2L473.2 263.8C472.6 260.3 471.2 257.1 469.3 254.3L473.1 249.9L467.1 243.9L462.7 247.7C460 245.9 456.9 244.6 453.6 243.9L453.1 237.7H444.6L444.1 243.9C440.9 244.5 437.9 245.8 435.2 247.5L430.3 243.3L424.3 249.3L428.4 254.1C426.6 256.7 425.3 259.6 424.6 262.8L418.1 263.3V271.8L424.3 272.3C424.8 275.6 426 278.6 427.7 281.3L423.6 286.1L429.6 292.1L434.1 288.3C436.8 290.3 439.9 291.7 443.2 292.5L443.7 298.4H452.2L452.6 292.9C456.1 292.4 459.4 291.1 462.2 289.2L466.4 292.8L472.4 286.8L468.9 282.7C470.9 279.9 472.3 276.7 473 273.2L478.7 272.7ZM448.9 279.9C442.5 279.9 437.3 274.7 437.3 268.3C437.3 261.9 442.5 256.7 448.9 256.7C455.3 256.7 460.5 261.9 460.5 268.3C460.5 274.7 455.3 279.9 448.9 279.9Z" fill="#A69DBF"/>
</g>
<path id="Vector_6" d="M260.2 438.9C392.472 438.9 499.7 430.393 499.7 419.9C499.7 409.407 392.472 400.9 260.2 400.9C127.928 400.9 20.7 409.407 20.7 419.9C20.7 430.393 127.928 438.9 260.2 438.9Z" fill="url(#paint0_linear)"/>
<g id="Group_5">
<path id="Vector_7" d="M431.2 154.7H87.8V384.4H431.2V154.7Z" fill="#ECECEC"/>
<path id="Vector_8" d="M428.7 157.5H90.3V381.6H428.7V157.5Z" fill="#262D40"/>
<g id="Group_6">
<path id="Vector_9" d="M476 401.7H43.1V417.5H476V401.7Z" fill="#0D0F14"/>
<path id="Vector_10" d="M43.1 401.7L87.8 384.5H431.3L476 401.7H43.1Z" fill="#262D40"/>
<path id="Vector_11" d="M91.8 395.6L120.7 384.5H398.4L427.3 395.6H91.8Z" fill="#353E51"/>
</g>
<g id="Group_7">
<path id="Vector_12" d="M409.7 174.6H109.5V364.7H409.7V174.6Z" fill="white"/>
<path id="Vector_13" d="M404.3 181.9H109.2V227.8H404.3V181.9Z" fill="#A69DBF"/>
<g id="Group_8">
<path id="Vector_14" d="M409.6 174.6H109.2V181.9H409.6V174.6Z" fill="#53285A"/>
<g id="Group_9">
<path id="Vector_15" d="M113.2 180C114.194 180 115 179.194 115 178.2C115 177.206 114.194 176.4 113.2 176.4C112.206 176.4 111.4 177.206 111.4 178.2C111.4 179.194 112.206 180 113.2 180Z" fill="white"/>
<path id="Vector_16" d="M120.6 180C121.594 180 122.4 179.194 122.4 178.2C122.4 177.206 121.594 176.4 120.6 176.4C119.606 176.4 118.8 177.206 118.8 178.2C118.8 179.194 119.606 180 120.6 180Z" fill="white"/>
<path id="Vector_17" d="M128 180C128.994 180 129.8 179.194 129.8 178.2C129.8 177.206 128.994 176.4 128 176.4C127.006 176.4 126.2 177.206 126.2 178.2C126.2 179.194 127.006 180 128 180Z" fill="white"/>
</g>
</g>
<g id="Group_10">
<path id="Vector_18" d="M409.6 181.9H404.3V364.7H409.6V181.9Z" fill="#DCDCDC"/>
<path id="Vector_19" d="M407 245.2C406.2 245.2 405.6 244.6 405.6 243.8V184.3C405.6 183.5 406.2 182.9 407 182.9C407.8 182.9 408.4 183.5 408.4 184.3V243.8C408.3 244.6 407.7 245.2 407 245.2Z" fill="#A8A8A8"/>
</g>
<g id="Group_11">
<g id="Group_12">
<g id="Group_13">
<path id="Vector_20" d="M313.5 190.8H148.3V200.4H313.5V190.8Z" fill="white"/>
<path id="Vector_21" d="M313.7 200.5H148.2V190.7H313.6V200.5H313.7ZM148.4 200.3H313.4V190.9H148.4V200.3V200.3Z" fill="#C8C8C8"/>
</g>
<path id="Vector_22" d="M150.8 192.7H150.3V198.5H150.8V192.7Z" fill="#C8C8C8"/>
</g>
<g id="Group_14">
<path id="Vector_23" d="M130.3 198.9L126.8 195.7L130.3 192.3L130.8 192.9L127.9 195.6L130.8 198.3L130.3 198.9Z" fill="white"/>
</g>
<g id="Group_15">
<path id="Vector_24" d="M138.7 192.3L142.2 195.5L138.7 198.9L138.2 198.3L141 195.5L138.2 192.9L138.7 192.3Z" fill="white"/>
</g>
</g>
<g id="Group_16">
<path id="Vector_25" d="M250.13 347.93H303.73V306.83H250.13V347.93Z" fill="#A69DBF"/>
<path id="Vector_26" opacity="0.6" d="M255.5 315.9C254.9 319.3 257.8 322.3 261.2 321.6C263.1 321.2 264.7 319.7 265 317.8C265.6 314.4 262.7 311.4 259.3 312.1C257.4 312.4 255.8 313.9 255.5 315.9Z" fill="white"/>
<g id="Group_17">
<path id="Vector_27" d="M267.8 339.1H303.7L285.8 317L267.8 339.1Z" fill="#53285A"/>
<path id="Vector_28" opacity="0.2" d="M267.8 339.1H303.7L285.8 317L267.8 339.1Z" fill="#53285A"/>
</g>
<g id="Group_18">
<path id="Vector_29" d="M250.1 339.1H282L266 324.7L250.1 339.1Z" fill="#7F358A"/>
<path id="Vector_30" opacity="0.1" d="M250.1 339.1H282L266 324.7L250.1 339.1Z" fill="#7F358A"/>
</g>
<g id="Group_19">
<path id="Vector_31" d="M303.7 339.1H250.1V348H303.7V339.1Z" fill="#7F358A"/>
<path id="Vector_32" opacity="0.1" d="M303.7 339.1H250.1V348H303.7V339.1Z" fill="#7F358A"/>
</g>
</g>
<g id="Group_20">
<path id="Vector_33" d="M164.3 306.9H124.1V310.3H164.3V306.9Z" fill="#A8A8A8"/>
<path id="Vector_34" d="M240.5 314.7H124.1V318.1H240.5V314.7Z" fill="#ECECEC"/>
<path id="Vector_35" d="M240.5 322.2H124.1V325.6H240.5V322.2Z" fill="#ECECEC"/>
<path id="Vector_36" d="M240.5 329.6H124.1V333H240.5V329.6Z" fill="#ECECEC"/>
<path id="Vector_37" d="M240.5 337.1H124.1V340.5H240.5V337.1Z" fill="#ECECEC"/>
<path id="Vector_38" d="M240.5 344.5H124.1V347.9H240.5V344.5Z" fill="#ECECEC"/>
</g>
<g id="Group_21">
<path id="Vector_39" d="M261.2 240.4H221V249.5H261.2V240.4Z" fill="#A8A8A8"/>
<path id="Vector_40" d="M303.7 255.7H221V259.1H303.7V255.7Z" fill="#ECECEC"/>
<path id="Vector_41" d="M303.7 263.2H221V266.6H303.7V263.2Z" fill="#ECECEC"/>
<path id="Vector_42" d="M303.7 270.6H221V274H303.7V270.6Z" fill="#ECECEC"/>
<path id="Vector_43" d="M303.7 278.1H221V281.5H303.7V278.1Z" fill="#ECECEC"/>
<path id="Vector_44" d="M303.7 288H221V291.4H303.7V288Z" fill="#ECECEC"/>
<path id="Vector_45" d="M303.7 295.4H221V298.8H303.7V295.4Z" fill="#ECECEC"/>
</g>
<g id="Group_22">
<path id="Vector_46" d="M389 240.4H315.4V249.6H389V240.4Z" fill="#A69DBF"/>
<g id="Group_23">
<g id="Group_24">
<path id="Vector_47" d="M388.8 249.6H315.6V347.8H388.8V249.6Z" fill="white"/>
<path id="Vector_48" d="M389 348H315.4V249.5H389V348ZM315.8 347.6H388.6V249.8H315.8V347.6Z" fill="#DCDCDC"/>
</g>
<path id="Vector_49" d="M315.8 347.9L315.4 347.7L388.6 249.6L389 249.7L315.8 347.9Z" fill="#DCDCDC"/>
<path id="Vector_50" d="M388.6 347.9L315.4 249.7L315.8 249.6L389 347.7L388.6 347.9Z" fill="#DCDCDC"/>
</g>
</g>
<g id="Group_25">
<g id="Group_26">
<path id="Vector_51" d="M211.9 240.6H124.2V298.7H211.9V240.6Z" fill="white"/>
<path id="Vector_52" d="M124.1 298.8V298.7V240.5H124.2H212V298.9H211.9L124.1 298.8ZM124.4 240.7V298.5H211.8V240.7H124.4Z" fill="#DCDCDC"/>
</g>
<path id="Vector_53" d="M124.4 240.7C131.8 245.4 139.1 250.1 146.4 254.9L168.3 269.3L190.1 283.8L201 291.1L211.8 298.5L200.8 291.4L189.8 284.3L167.9 269.9L146 255.4C138.8 250.6 131.5 245.7 124.4 240.7Z" fill="#DCDCDC"/>
<path id="Vector_54" d="M211.8 240.7C204.6 245.7 197.4 250.5 190.1 255.4L168.3 269.9L146.4 284.3L135.4 291.4L124.4 298.5L135.2 291.1L146.1 283.8L167.9 269.3L189.8 254.9C197.1 250.1 204.4 245.4 211.8 240.7Z" fill="#DCDCDC"/>
</g>
</g>
</g>
<g id="Group_27">
<g id="wheel-5">
<path id="Vector_55" d="M299.9 181.8C295.4 181.4 291.4 184.7 291 189.2C290.6 193.7 293.9 197.7 298.4 198.1C302.9 198.5 306.9 195.2 307.3 190.7C307.8 186.2 304.4 182.2 299.9 181.8ZM306.3 190.6C305.9 194.6 302.4 197.5 298.4 197.1C294.4 196.7 291.5 193.2 291.9 189.2C292.3 185.2 295.8 182.3 299.8 182.7C303.8 183.1 306.7 186.6 306.3 190.6Z" fill="#318BCF"/>
<path id="Vector_56" d="M320.3 194.4L320.8 188.5L316.3 187.7C316 185.5 315.3 183.3 314.2 181.4L317.4 178.3L313.6 173.7L309.9 176.3C308.2 174.9 306.2 173.9 304 173.2L304.1 168.9L298.2 168.4L297.5 172.7C295.1 172.9 292.9 173.6 290.9 174.7L288.1 171.8L283.5 175.6L285.8 178.9C284.3 180.7 283.2 182.9 282.5 185.2L278.7 185.1L278.2 191L282 191.7C282.3 194.2 283.1 196.5 284.3 198.6L281.6 201.2L285.4 205.8L288.6 203.6C290.5 205.1 292.7 206.2 295.1 206.8L295 210.7L300.9 211.2L301.6 207.2C304 206.9 306.2 206.1 308.2 204.9L311.1 207.9L315.7 204.1L313.2 200.5C314.5 198.7 315.6 196.7 316.1 194.4H320.3ZM298.3 199.4C293.1 198.9 289.2 194.3 289.7 189.1C290.2 183.9 294.8 180 300 180.5C305.2 181 309.1 185.6 308.6 190.8C308.1 196 303.5 199.9 298.3 199.4Z" fill="#318BCF"/>
</g>
<g id="Group_28">
<path id="Vector_57" d="M379 202.9C376.1 202.6 373.5 204.8 373.3 207.7C373 210.6 375.2 213.2 378.1 213.4C381 213.7 383.6 211.5 383.8 208.6C384 205.7 381.9 203.1 379 202.9ZM378.1 212.7C375.6 212.5 373.7 210.2 373.9 207.7C374.1 205.2 376.4 203.3 378.9 203.5C381.4 203.7 383.3 206 383.1 208.5C382.9 211.1 380.6 213 378.1 212.7Z" fill="white"/>
<path id="wheel-7" d="M392.1 211L392.5 207.2L389.6 206.7C389.4 205.3 389 203.9 388.3 202.7L390.3 200.7L387.9 197.8L385.5 199.5C384.4 198.6 383.1 197.9 381.7 197.5V194.7L377.9 194.3L377.4 197C375.9 197.1 374.5 197.6 373.2 198.3L371.4 196.4L368.5 198.8L370 200.9C369 202.1 368.3 203.4 367.9 205H365.4L365 208.8L367.4 209.2C367.6 210.8 368.1 212.3 368.8 213.6L367.1 215.3L369.5 218.2L371.5 216.8C372.7 217.7 374.1 218.4 375.6 218.8V221.3L379.4 221.7L379.8 219.1C381.3 218.9 382.7 218.4 384 217.6L385.8 219.5L388.7 217.1L387.1 214.8C388 213.7 388.6 212.4 389 210.9L392.1 211ZM378 214.2C374.7 213.9 372.2 210.9 372.5 207.6C372.8 204.3 375.8 201.8 379.1 202.1C382.4 202.4 384.9 205.4 384.6 208.7C384.3 212 381.3 214.5 378 214.2Z" fill="white"/>
</g>
<g id="Group_29">
<path id="wheel-6" d="M364.6 219.5L364.8 212.1L359.1 211.5C358.6 208.7 357.5 206.1 356 203.8L359.7 199.7L354.6 194.3L350.2 197.9C347.9 196.3 345.3 195.2 342.5 194.5L342.2 189.1L334.8 188.9L334.2 194.3C331.3 194.8 328.5 195.9 326.1 197.4L322.3 194L316.9 199.1L320.1 203C318.4 205.4 317.1 208.2 316.5 211.2L311.7 211.4L311.5 218.8L316.3 219.3C316.8 222.4 318 225.2 319.7 227.7L316.6 231.2L321.7 236.6L325.5 233.5C328 235.2 330.8 236.4 333.8 236.9L334 241.7L341.4 241.9L341.9 236.8C344.8 236.2 347.6 235 349.9 233.4L353.7 236.9L359.1 231.8L355.6 227.5C357.1 225.2 358.2 222.5 358.8 219.7L364.6 219.5ZM337.6 225.8C332 225.7 327.6 221 327.7 215.4C327.8 209.8 332.5 205.4 338.1 205.5C343.7 205.6 348.1 210.3 348 215.9C347.8 221.6 343.2 226 337.6 225.8Z" fill="#7F358A"/>
<path id="Vector_58" d="M336.5 208.3L331.1 213.4L332.8 220.6L339.9 222.7L345.3 217.6L343.6 210.4L336.5 208.3ZM338.2 217.8C336.9 217.8 335.9 216.7 335.9 215.4C335.9 214.1 337 213.1 338.3 213.1C339.6 213.1 340.6 214.2 340.6 215.5C340.5 216.8 339.5 217.9 338.2 217.8Z" fill="#7F358A"/>
</g>
</g>
<g id="Group_30">
<path id="Vector_59" d="M368.4 123.7C367.2 121.9 365.3 120.9 365.3 118.8C365.3 118.5 365.3 118.3 365.4 118C365.4 117.9 365.4 117.8 365.4 117.7C365.9 115.7 367 114.2 366.6 112C366.4 110.9 365.9 109.9 365.2 109.1C365 108.8 364.8 108.6 364.6 108.3C363 106.4 361 105 359.7 102.8C359.2 102 358.8 101.1 358.6 100.2C358.2 97.4 358.5 94.4 357.4 92C356.1 89 353.9 86.1 350.7 85C342.2 82.3 337.4 87.9 335.7 91C335 92.3 334.5 93.5 334.2 94.8H334.1C333 99.3 331.6 103.5 328.4 107C328 107.3 327.7 107.7 327.3 108.1C327.1 108.3 327 108.5 326.8 108.7C324.9 110.8 323.4 113.1 324.3 116C324.6 116.9 325.1 117.7 325.3 118.6C325.6 119.8 325.5 120.8 324.9 121.6C324.4 122.1 323.9 122.5 323.5 123C323.4 123.2 323.3 123.4 323.2 123.5C322.3 124.4 321.5 125.4 321.3 126.8C320.9 129.6 323.2 131.6 325.5 133C326.7 134.2 328.2 135.2 329.7 136C335.3 138.9 342.3 139.5 348.5 139.2C353.9 138.9 359.9 137.5 364 134C366.4 132.7 368.4 130.5 369 128.1C369.5 126.6 369.3 125 368.4 123.7ZM326.2 113.4C326.6 115.1 328 116.4 328 118.2C328 118.2 328 118.2 328 118.3C327.7 117.5 327.1 116.6 326.7 115.8C325.9 114.3 325.8 112.9 326.1 111.7C326 112.2 326 112.8 326.2 113.4ZM322.4 126.6C322.4 127.7 322.7 128.9 323.3 130.1C322.5 129.1 322.2 127.7 322.4 126.6ZM331 104.5C331.7 103.3 332.3 102.1 332.7 100.8C332.3 102.1 331.8 103.4 331 104.5ZM324.5 115C324.3 113.2 324.9 111.8 325.9 110.5C325.2 112.3 325.3 114.3 326.3 116.3C326.7 117.1 327.5 118.1 327.7 119C327.4 119.7 326.7 120.3 325.9 121C326 120.7 326 120.4 326 120.1C326 118.2 324.7 116.7 324.5 115ZM322.3 129.6C321.8 128.7 321.7 127.8 321.8 127.1C321.8 128.5 322.6 130 323.7 130.8C324 131.2 324.3 131.6 324.6 132C323.7 131.3 322.9 130.6 322.3 129.6ZM364 120C363.5 118.7 364.1 117 364.6 115.8C366.1 112.7 365.8 111.2 365.1 109.9C364.8 109.3 364.5 108.9 364.2 108.5L364.3 108.6C364.7 109.1 365.1 109.5 365.4 110C365.5 110.2 365.6 110.4 365.7 110.6C366.6 113.1 365.3 115.2 364.9 117.6C364.6 119.2 365 120.4 365.8 121.7C366.4 122.5 367.1 123.3 367.4 124.3C366.7 122.7 364.6 121.8 364 120ZM361.2 105.2C361.6 105.7 362.1 106.1 362.6 106.6C361.9 106 361.1 105.4 360.5 104.7C360.2 104.4 360 104 359.8 103.6C359.5 103.1 359.3 102.5 359.1 101.9C359.6 103 360.3 104.2 361.2 105.2ZM365.5 132.6C365.6 132.5 365.6 132.4 365.7 132.4C366.8 131.1 367.6 129.6 367.8 128C368 127.4 368.1 126.8 368.1 126.2C368.1 124.4 367.1 123.2 366.2 121.8C366.7 122.4 367.3 122.9 367.7 123.5C370.3 126.7 368.5 130.3 365.5 132.6Z" fill="#1A2E35"/>
<g id="Group_31">
<g id="Group_32">
<path id="Vector_60" d="M344.7 113.2C333.3 125.2 319 150.3 321.8 155.2C324.9 160.8 341.4 143.7 340.9 142.9C340.5 142.2 346.2 127.1 350.3 116.1C354.5 105 347.6 110.2 344.7 113.2Z" fill="#FFD194"/>
<g id="Group_33">
<path id="Vector_61" d="M330.7 127.5L347.1 130.5C347.1 130.5 351.2 118.9 352 112.4C352.5 108.8 350.3 108.6 347.6 110.6C338.3 117.3 330.7 127.5 330.7 127.5Z" fill="#7F358A"/>
<g id="Group_34">
<g id="Group_35">
<path id="Vector_62" d="M347 127.8C344.5 127.1 337.7 125.5 333.1 125.1C333.1 125.1 333 125.2 333.1 125.2C336.8 126.2 344.4 127.5 346.9 128C347 128 347.1 127.8 347 127.8Z" fill="#1A2E35"/>
</g>
</g>
<path id="Vector_63" opacity="0.1" d="M352.1 112.4C351.3 118.9 347.2 130.5 347.2 130.5L334.6 128.2L350.7 109.3C351.7 109.4 352.3 110.3 352.1 112.4Z" fill="black"/>
</g>
</g>
<g id="Group_36">
<path id="Vector_64" d="M338.1 154.7H379.7C379.7 154.7 374.8 126.2 361.4 110.9C357.8 106.8 352.3 107.5 349.2 110.3C348.4 111 339.7 122.5 338.3 128.4C337.4 132.3 341 136.5 341 136.5L338.1 154.7Z" fill="#7F358A"/>
<g id="Group_37">
<path id="Vector_65" d="M348.3 135.3C350 135.5 351.8 135.7 353.5 136.2C354.3 136.4 355.2 136.7 356 137C356.4 137.1 356.8 137.3 357.2 137.4C357.6 137.5 358.1 137.6 358.5 137.7V137.8C358.1 137.8 357.6 137.8 357.2 137.8C356.8 137.8 356.4 137.7 356 137.6C355.1 137.4 354.3 137.1 353.4 136.9C351.7 136.4 350 136 348.2 135.6C348.2 135.4 348.3 135.3 348.3 135.3Z" fill="#1A2E35"/>
<path id="Vector_66" d="M344 136.8C345.4 136.7 346.9 136.6 348.3 136.6C349 136.6 349.7 136.7 350.5 136.7C350.8 136.7 351.2 136.8 351.5 136.8C351.9 136.9 352.2 137 352.6 137V137.1C352.2 137.1 351.9 137.1 351.5 137.1C351.1 137.1 350.8 137.1 350.4 137.1C349.7 137.1 349 137.1 348.2 137C346.8 136.9 345.3 136.9 343.9 136.9C343.9 136.9 343.9 136.8 344 136.8Z" fill="#1A2E35"/>
</g>
</g>
<g id="Group_38">
<g id="Group_39">
<path id="Vector_67" d="M321.9 155.2C324.6 158.9 331.7 159.5 349.6 162.7C352.1 163.1 359.9 146.6 357.3 145.9C354 145.1 341.1 142.9 340.1 142.8C331.9 142.5 320.1 152.7 321.9 155.2Z" fill="#FFD194"/>
<g id="Group_40">
<path id="Vector_68" d="M353.6 145.2C353.6 145.2 361.2 146.2 365 148C370.1 150.4 373.5 154.5 374.9 156.3C377.7 160.1 381.8 171.2 378.8 172.9C376.1 174.5 372.5 162.9 372.5 162.9C372.5 162.9 378.1 174.1 374.5 175.4C370.9 176.7 367.5 163 367.5 163C367.5 163 373 174.6 369.1 175.4C366.1 176 362.3 163.8 362.3 163.8C362.3 163.8 367 173.8 364 174.5C360.7 175.3 356.4 164.3 356.4 164.3C348.4 164.8 344.4 161.8 341.8 159.3C341 158.6 353.6 145.2 353.6 145.2Z" fill="#FFD194"/>
<g id="Group_41">
<path id="Vector_69" d="M370.7 158.9C371.4 160.2 372.1 161.5 372.7 162.8C373.3 164.1 373.8 165.5 374.3 166.9C375.4 170.3 375.6 172.6 375.6 172.5C375 169.1 372.9 164.3 372.3 162.9C371.8 161.6 371.2 160.3 370.7 158.9C370.7 158.9 370.6 158.9 370.7 158.9Z" fill="#1A2E35"/>
<path id="Vector_70" d="M365.8 161C366.6 162.7 367.5 164.3 368.3 166C369.1 167.7 369.6 169.4 370.3 171.2C370.3 171.3 370.3 171.3 370.2 171.2C369.5 169.5 368.7 167.9 368 166.2C367.2 164.4 366.5 162.7 365.8 161C365.8 160.9 365.7 160.9 365.8 161Z" fill="#1A2E35"/>
<path id="Vector_71" d="M361.3 162C362.7 164.5 363.6 167.3 364.5 170C364.5 170.1 364.4 170.1 364.4 170C363.3 167.2 362.6 165.1 361.3 162C361.2 161.9 361.2 162 361.3 162Z" fill="#1A2E35"/>
</g>
<path id="Vector_72" d="M359.9 171.4C360.4 172.1 360.9 172.7 361.6 173.3C361.9 173.6 362.2 173.9 362.6 174.1C362.9 174.3 363.4 174.5 363.7 174.4C364.1 174.3 364.4 174 364.5 173.7C364.6 173.3 364.7 172.9 364.7 172.5C364.7 171.7 364.6 170.8 364.4 170L364 168.4L364.7 169.9C365.1 170.8 365.6 171.6 366.1 172.5C366.6 173.3 367.2 174.1 367.9 174.7C368.2 175 368.7 175.2 369 175.1C369.4 175 369.8 174.8 370 174.4C370.4 173.6 370.2 172.6 370.1 171.7L369.9 170.1L370.7 171.6C371.1 172.5 371.7 173.3 372.3 174C372.6 174.4 373 174.7 373.3 174.9C373.7 175.1 374.1 175.2 374.5 175.1C374.9 175 375.1 174.6 375.3 174.2C375.4 173.8 375.5 173.3 375.5 172.8C375.5 171.8 375.3 170.9 375.1 169.9L374.4 167.1L375.6 169.7C375.9 170.3 376.2 170.8 376.6 171.4C377 171.9 377.4 172.4 377.9 172.7C378.2 172.8 378.4 172.9 378.6 172.8C378.8 172.7 379.1 172.5 379.2 172.3C379.5 171.8 379.7 171.2 379.7 170.6C379.7 169.3 379.5 168 379.1 166.8C378.7 165.5 378.4 164.3 377.9 163C377 160.5 376 158.1 374.5 156C372.9 153.9 371.1 152 369 150.4C371.2 151.9 373.1 153.8 374.7 155.8C376.3 157.9 377.4 160.4 378.3 162.9C378.8 164.1 379.2 165.4 379.6 166.7C380 168 380.2 169.3 380.2 170.7C380.2 171.4 380.1 172.1 379.6 172.7C379.4 173 379.1 173.3 378.7 173.4C378.3 173.6 377.9 173.5 377.5 173.3C376.8 173 376.4 172.4 376 171.9C375.6 171.3 375.3 170.8 375 170.1L375.6 169.9C375.8 170.9 376 171.9 376 172.9C376 173.4 376 173.9 375.8 174.5C375.6 175 375.3 175.6 374.7 175.8C374.1 176 373.5 175.9 373 175.6C372.5 175.3 372.2 174.9 371.8 174.5C371.1 173.7 370.6 172.8 370.2 171.9L370.7 171.7C370.8 172.2 370.8 172.7 370.9 173.2C370.9 173.7 370.9 174.3 370.6 174.8C370.3 175.3 369.8 175.6 369.3 175.7C369 175.8 368.7 175.7 368.4 175.6C368.1 175.5 367.9 175.3 367.7 175.2C366.9 174.5 366.4 173.7 365.9 172.8C365.4 171.9 364.9 171.1 364.5 170.2L364.8 170.1C365 170.9 365.1 171.8 365.1 172.7C365.1 173.1 365 173.6 364.9 174C364.7 174.4 364.4 174.8 363.9 174.8C363.4 174.8 363 174.6 362.7 174.4C362.3 174.2 362 173.9 361.7 173.6C360.9 172.8 360.3 172.1 359.9 171.4Z" fill="#1A2E35"/>
</g>
</g>
<path id="Vector_73" d="M332.1 144.9C333.3 144.1 336.6 142.4 339.9 142.9V143C337.3 142.9 333.4 144.3 332.1 144.9Z" fill="#1A2E35"/>
</g>
</g>
<g id="Group_42">
<g id="Group_43">
<path id="Vector_74" d="M421.2 146.5L412.1 155.1L405.7 151.8L402.8 145.2L411.9 136.6C406.7 134.7 400.5 135.7 396.2 139.8C391.9 143.9 390.5 149.9 392.1 155.3L348.3 196.7C343.1 194.8 336.9 195.8 332.6 199.9C328.3 204 326.9 210 328.5 215.4L337.6 206.8L344 210.1L346.9 216.7L337.8 225.3C343 227.2 349.2 226.2 353.5 222.1C357.8 218 359.2 212 357.6 206.6L401.4 165.2C406.6 167.1 412.8 166.1 417.1 162C421.4 157.9 422.8 151.9 421.2 146.5Z" fill="#E2E2E2"/>
</g>
<g id="Group_44">
<path id="Vector_75" d="M364 112.6C374.1 119.6 389.3 133.6 390.5 140C391.8 146.5 386.4 164 383.5 169.9C382.3 172.4 362.3 165.6 363.5 162.9C366 157.5 371.3 144.9 371.1 143.1C370.9 141.4 363 127.7 358.8 119.8C352 107.2 356.9 107.7 364 112.6Z" fill="#FFD194"/>
<g id="Group_45">
<path id="Vector_76" d="M364.8 160C364.8 160 361.5 167.3 359.5 172.1C358.4 174.8 357 179.6 357.1 182C357.3 185.5 360.2 200.1 363.8 199.5C367 198.9 362.9 186.7 362.9 186.7C362.9 186.7 366 199.4 369.7 198C373.5 196.6 367 183.4 367 183.4C367 183.4 370.4 196.4 374.1 194.3C376.8 192.7 371.6 180.5 371.6 180.5C371.6 180.5 374.6 191.6 377.5 190.2C380.7 188.6 376.6 176.9 376.6 176.9C383.3 171.9 385.2 167.4 385.6 163.7C385.7 163.5 371.1 160.6 364.8 160Z" fill="#FFD194"/>
<g id="Group_46">
<path id="Vector_77" d="M361.6 182.3C361.9 183.8 362.2 185.3 362.6 186.8C363 188.3 363.5 189.7 364.1 191.2C365.5 194.7 366.9 196.7 366.9 196.5C365.1 193.4 363.5 188.1 363 186.7C362.6 185.2 362 183.7 361.6 182.3C361.5 182.3 361.6 182.2 361.6 182.3Z" fill="#FFD194"/>
<path id="Vector_78" d="M366.8 180.6C366.8 182.7 368.4 188.6 370.2 191.7C370.3 191.8 370.3 191.8 370.3 191.6C369.7 189.8 367.4 182.5 366.8 180.6C366.8 180.6 366.9 180.6 366.8 180.6Z" fill="#FFD194"/>
<path id="Vector_79" d="M371.1 178.4C371.4 181.1 372.4 184 374 187C374.1 187.1 374.1 187 374.1 186.9C373.1 184.1 372.3 181.9 371.3 178.4C371.2 178.3 371.1 178.3 371.1 178.4Z" fill="#FFD194"/>
</g>
</g>
<g id="Group_47">
<path id="Vector_80" d="M378.7 122.5L362.7 129C362.7 129 356.9 119 354.9 112.8C353.8 109.3 355.8 107.6 358.8 109C369.3 113.9 378.7 122.5 378.7 122.5Z" fill="#7F358A"/>
<g id="Group_48">
<g id="Group_49">
<g id="Group_50">
<path id="Vector_81" d="M362.5 125.9C364.8 124.8 371.2 121.9 375.6 120.6C375.6 120.6 375.7 120.7 375.6 120.7C372.1 122.3 364.9 125.1 362.5 126C362.5 126 362.4 125.9 362.5 125.9Z" fill="#1A2E35"/>
</g>
</g>
<path id="Vector_82" d="M363.6 128.6C363.4 128.7 362.8 128.9 362.8 128.9C362.7 128.9 362 127.7 361.8 127.2C361.3 126.2 360.8 125.3 360.4 124.4C359.4 122.5 358.4 120.7 357.3 118.8H357.2C357.6 119.8 358 120.7 358.4 121.7C358.4 121.7 358.4 121.7 358.4 121.6C358.1 121.2 357.8 120.8 357.6 120.4H357.5C357.8 120.8 358 121.2 358.3 121.6C358.4 121.8 358.6 122 358.7 122.3C359.2 123.3 359.6 124.3 360.2 125.2C360.8 126.3 362.3 129.2 362.6 129.2C362.7 129.2 363.3 128.8 363.6 128.6C363.8 128.7 363.7 128.6 363.6 128.6Z" fill="#1A2E35"/>
</g>
</g>
<path id="Vector_83" d="M359.9 171.3C360.6 169.5 361.3 167.7 362 166L364.2 160.7L368.8 150.2C368.3 152 367.6 153.8 366.9 155.6C366.2 157.4 365.5 159.1 364.7 160.9C363.9 162.6 363.2 164.4 362.3 166.1C361.6 167.9 360.8 169.6 359.9 171.3Z" fill="#1A2E35"/>
</g>
</g>
<g id="Group_51">
<path id="Vector_84" d="M353.5 107.1C356.5 107.3 357 110.5 355.5 113.8C354 117.1 351.3 118.3 349.8 118.2C348.3 118.1 346.9 116.6 347.9 112.7C349.3 107.8 351.7 107 353.5 107.1Z" fill="#1A2E35"/>
<g id="Group_52">
<path id="Vector_85" d="M354.9 108.9C355 109.6 353.5 115 350.5 115.9C349.5 116.2 347.6 110.9 347.6 110.9L347.4 110.5L344.1 105.5L349 99L349.7 98.1C349.7 98.1 350.5 99.5 351.5 101.3C351.5 101.4 351.6 101.5 351.6 101.6C351.7 101.7 351.7 101.8 351.8 101.9C351.9 102.2 352.1 102.4 352.2 102.7C352.3 102.9 352.4 103.1 352.5 103.3C352.6 103.5 352.7 103.7 352.8 104C354 106.3 354.9 108.6 354.9 108.9Z" fill="#FFD194"/>
<path id="Vector_86" d="M351.4 101.5C351.5 106.4 348.7 109.5 347.3 110.7L344 105.7L348.9 99.2L349.6 98.3C349.7 98.2 350.5 99.7 351.4 101.5Z" fill="#FFD194"/>
</g>
<g id="Group_53">
<path id="Vector_87" d="M333.4 99.2C334.3 109.6 340.7 110.3 342.9 110.1C344.9 109.9 351.9 109 352 98.6C352.2 88.1 347 85.3 342.3 85.4C337.7 85.6 332.5 88.8 333.4 99.2Z" fill="#FFD194"/>
<g id="Group_54">
<path id="Vector_88" d="M335.3 97.5C335.5 97.4 335.7 97.3 336 97.3C336.3 97.2 336.5 97.2 336.6 96.9C336.7 96.8 336.7 96.5 336.5 96.4C336.2 96.2 335.9 96.2 335.6 96.3C335.3 96.4 335 96.6 334.8 96.9C334.6 97.2 335 97.6 335.3 97.5Z" fill="#1A2E35"/>
<path id="Vector_89" d="M342 96.6C341.8 96.6 341.5 96.6 341.3 96.6C341 96.6 340.8 96.6 340.6 96.4C340.5 96.3 340.5 96.1 340.5 95.9C340.7 95.6 341 95.5 341.4 95.6C341.8 95.6 342 95.7 342.3 96C342.5 96.2 342.3 96.6 342 96.6Z" fill="#1A2E35"/>
<g id="Group_55">
<g id="Group_56">
<path id="Vector_90" d="M340.9 99.4C340.9 99.4 341 99.5 340.9 99.4C341 100.2 341.2 101 341.9 101.1C341.1 101.2 340.9 100.1 340.9 99.4Z" fill="#1A2E35"/>
<path id="Vector_91" d="M341.5 98.6C342.6 98.4 343 100.7 341.9 100.9C340.9 101.1 340.5 98.8 341.5 98.6Z" fill="#1A2E35"/>
</g>
<path id="Vector_92" d="M342 98.7C342.2 98.8 342.4 99 342.7 99C343 99 343.2 98.7 343.3 98.5C343.4 98.9 343.3 99.4 342.8 99.5C342.4 99.6 342 99.3 341.8 98.9C341.8 98.8 341.9 98.6 342 98.7Z" fill="#1A2E35"/>
</g>
<g id="Group_57">
<g id="Group_58">
<path id="Vector_93" d="M336.8 99.8C336.8 99.7 336.8 99.8 336.8 99.8C336.9 100.6 336.9 101.4 336.3 101.7C337.1 101.5 337.1 100.4 336.8 99.8Z" fill="#1A2E35"/>
<path id="Vector_94" d="M336.1 99.1C335 99.2 335.2 101.5 336.3 101.4C337.3 101.3 337.1 99 336.1 99.1Z" fill="#1A2E35"/>
</g>
<path id="Vector_95" d="M335.6 99.3C335.4 99.4 335.3 99.7 335.1 99.7C334.9 99.7 334.6 99.5 334.4 99.3C334.4 99.7 334.6 100.2 335.1 100.2C335.5 100.2 335.7 99.8 335.8 99.4C335.8 99.4 335.7 99.3 335.6 99.3Z" fill="#1A2E35"/>
</g>
<path id="Vector_96" d="M342.1 104.9C342 105.1 341.8 105.4 341.6 105.4C341.4 105.5 341.1 105.4 340.8 105.4C341 105.6 341.5 105.7 341.8 105.6C342.1 105.6 342.2 105.2 342.1 104.9C342.2 104.9 342.2 104.9 342.1 104.9Z" fill="#1A2E35"/>
<g id="Group_59">
<path id="Vector_97" d="M338.5 102.7C338.5 102.7 338.5 103.8 338.6 104.3C338.6 104.3 340.2 104.5 341.1 103.1C341.1 103 341.1 103 341 103C340.4 103.6 339.7 103.8 338.9 103.9C338.8 103.8 339 102.1 338.9 102.1C338.6 102.1 338.1 102.4 337.8 102.5C337.7 100.3 338 98 337.9 95.8C337.9 95.7 337.8 95.7 337.8 95.8C337.3 98.1 337.4 100.7 337.4 103C337.3 103.4 338.3 102.8 338.5 102.7Z" fill="#1A2E35"/>
</g>
<g id="Group_60">
<path id="Vector_98" d="M339.2 104.2C339.2 104.2 339.7 104.7 340.4 104.8C340.6 104.8 340.9 104.8 341.1 104.7C341.6 104.5 341.5 104 341.4 103.6C341.3 103.3 341.1 103 341.1 103C341.1 103 340.4 103.9 339.2 104.2Z" fill="#1A2E35"/>
<path id="Vector_99" d="M340.4 104.8C340.6 104.8 340.9 104.8 341.1 104.7C341.6 104.5 341.5 104 341.4 103.6C340.8 103.8 340.3 104.3 340.4 104.8Z" fill="#7F358A"/>
</g>
</g>
<g id="Group_61">
<g id="Group_62">
<path id="Vector_100" d="M351.6 99.5C349.7 100.2 348.3 95.9 348.3 95.9C348.3 95.9 339.8 96.3 337.7 89.7C337.7 89.7 337.2 94.3 333.3 97.1C333.3 97.1 332 89.1 337.5 86.4C337.5 86.4 344.4 82.4 349.7 87.2C355 92.1 352.9 99.1 351.6 99.5Z" fill="#1A2E35"/>
</g>
<path id="Vector_101" d="M337.5 89.2C337.6 90.2 338 91.3 338.5 92.2C339 93.1 339.8 93.9 340.6 94.6C340.8 94.8 341 94.9 341.3 95L341.6 95.2C341.7 95.3 341.8 95.3 342 95.4C342.2 95.5 342.5 95.6 342.7 95.7C343 95.8 343.2 95.9 343.5 95.9C343.6 95.9 343.8 96 343.9 96L344.3 96.1L345.1 96.2C345.6 96.2 346.2 96.2 346.7 96.2C346.2 96.1 345.7 96 345.2 95.9L344.4 95.7L344 95.6C343.9 95.6 343.8 95.5 343.6 95.5C343.4 95.4 343.1 95.3 342.9 95.2C342.7 95.1 342.4 95 342.2 94.9L341.9 94.7L341.6 94.5C341.4 94.4 341.2 94.2 341 94.1C340.2 93.5 339.5 92.8 338.9 91.9C338.6 91.5 338.4 91 338.1 90.6C337.8 90.2 337.7 89.7 337.5 89.2Z" fill="#1A2E35"/>
</g>
<g id="Group_63">
<g id="Group_64">
<path id="Vector_102" d="M350.4 99.2C350.4 99.2 352.1 95.6 353.7 96.1C355.3 96.6 354.4 101.6 352.8 102.5C351.2 103.4 350.3 102 350.3 102L350.4 99.2Z" fill="#FFD194"/>
<path id="Vector_103" d="M353.4 97.5C352.3 98.2 351.9 99.5 351.6 100.7C351.9 100.2 352.3 99.9 353 100.2V100.3C352.5 100.3 352.1 100.4 351.9 100.9C351.7 101.2 351.6 101.6 351.5 102C351.5 102.1 351.3 102.1 351.3 102C351 100.3 351.8 98 353.4 97.5Z" fill="#1A2E35"/>
</g>
<g id="Group_65">
<path id="Vector_104" d="M352.213 102.601C352.427 102.546 352.557 102.328 352.502 102.114C352.447 101.9 352.23 101.771 352.016 101.825C351.802 101.88 351.672 102.098 351.727 102.312C351.781 102.526 351.999 102.655 352.213 102.601Z" fill="white"/>
<path id="Vector_105" d="M352.978 101.592C353.138 101.551 353.235 101.388 353.194 101.227C353.153 101.067 352.99 100.97 352.829 101.011C352.669 101.052 352.572 101.215 352.613 101.376C352.654 101.536 352.817 101.633 352.978 101.592Z" fill="white"/>
</g>
<path id="Vector_106" d="M354 97.2L354.6 97C354.7 97 354.8 96.8 354.7 96.7C354.7 96.6 354.5 96.5 354.4 96.6L353.8 96.8C353.7 96.8 353.6 97 353.7 97.1C353.8 97.2 353.9 97.3 354 97.2Z" fill="white"/>
<path id="Vector_107" d="M354.1 97.9L354.7 97.8C354.8 97.8 354.9 97.7 354.9 97.6C354.9 97.5 354.8 97.4 354.7 97.4L354.1 97.5C354 97.5 353.9 97.6 353.9 97.7C353.9 97.8 354 97.9 354.1 97.9Z" fill="white"/>
</g>
<g id="Group_66">
<path id="Vector_108" d="M347.8 97.3L349.6 99.1L351.9 95.7L351.1 94.9L347.8 97.3ZM348.8 97.4L350.9 95.6L351.1 95.8L349.5 98L348.8 97.4Z" fill="white"/>
</g>
</g>
</g>
</g>
<g id="Group_67">
<g id="Group_68">
<g id="Group_69">
<g id="Group_70">
<g id="Group_71">
<path id="Vector_109" d="M114.2 423.1C112.7 423.6 68.9 422.6 67.3 421.6C66.7 421.2 66.4 414.8 66.4 407.1C66.4 405.4 66.4 403.7 66.4 402C66.4 399.9 66.4 397.8 66.4 395.8L94.9 396.3L94.8 402.5L94.6 407.6C94.6 407.6 111.2 415.4 112.8 416.8C114.4 418.2 115.7 422.6 114.2 423.1Z" fill="white"/>
<g id="Group_72">
<path id="Vector_110" d="M114.3 423.2C113.3 423.5 94.7 423.2 81.1 422.7C78 422.6 75.1 422.4 72.8 422.3C69.6 422.1 67.5 421.9 67.1 421.7C66.3 421.2 66.1 411.8 66.2 402L94.8 402.5L94.6 407.7C94.6 407.7 111.3 415.6 113 417C114.6 418.2 115.8 422.7 114.3 423.2Z" fill="#318BCF"/>
<g id="Group_73">
<g id="Group_74">
<path id="Vector_111" d="M113.7 421.4C106.3 421.1 76.6 420.4 69.3 420.6C69.2 420.6 69.2 420.6 69.3 420.6C76.6 421.1 106.3 421.5 113.7 421.5C113.9 421.5 113.9 421.4 113.7 421.4Z" fill="#1A2E35"/>
<path id="Vector_112" d="M95.6001 405.9C92.7001 405.3 89.2001 405.7 86.9001 407.7C86.8001 407.8 86.9001 407.9 87.0001 407.9C89.9001 407.1 92.6001 406.5 95.6001 406.3C95.8001 406.3 95.8001 406 95.6001 405.9Z" fill="#1A2E35"/>
<path id="Vector_113" d="M97.7 407.3C94.8 406.7 91.3 407.1 89 409.1C88.9 409.2 89 409.3 89.1 409.3C92 408.5 94.7 407.9 97.7 407.7C97.9 407.6 97.9 407.3 97.7 407.3Z" fill="#1A2E35"/>
<path id="Vector_114" d="M99.8 408.6C96.9 408 93.4 408.4 91.1 410.4C91 410.5 91.1 410.6 91.2 410.6C94.1 409.8 96.8 409.2 99.8 409C99.9 408.9 100 408.6 99.8 408.6Z" fill="#1A2E35"/>
<path id="Vector_115" d="M101.8 409.9C98.9 409.3 95.4 409.7 93.1 411.7C93 411.8 93.1 411.9 93.2 411.9C96.1 411.1 98.8 410.5 101.8 410.3C102 410.2 102 409.9 101.8 409.9Z" fill="#1A2E35"/>
</g>
<g id="Group_75">
<path id="Vector_116" d="M101.1 399.4C100 397.8 97.9 398.5 96.6 399.5C94.6 401.1 92.8 403.6 92 406C92 406.1 92 406.1 92.1 406.1C92.1 406.3 92.3 406.6 92.5 406.5C94.9 405.7 97.6 405.1 99.7 403.5C100.9 402.6 102.2 400.9 101.1 399.4ZM95.9 404.4C94.7 404.8 93.5 405.2 92.4 405.7C93.3 404.4 94.1 403.1 95.2 401.9C95.7 401.3 96.2 400.8 96.8 400.3C97.7 399.5 101.1 397.9 100.6 401.1C100.2 402.9 97.4 403.9 95.9 404.4Z" fill="#1A2E35"/>
<path id="Vector_117" d="M84.7 405C87.1 406.1 89.8 406.1 92.4 406.4C92.7 406.4 92.8 406.2 92.8 405.9C92.8 405.9 92.9 405.8 92.8 405.8C91.5 403.6 89.2 401.5 86.9 400.4C85.5 399.7 83.3 399.5 82.5 401.3C81.8 403 83.3 404.4 84.7 405ZM83.4 402.9C82.2 399.9 85.9 400.7 86.9 401.3C87.6 401.7 88.2 402.1 88.8 402.6C90.1 403.5 91.2 404.6 92.3 405.7C91.1 405.5 89.8 405.4 88.6 405.2C87.1 405 84.1 404.6 83.4 402.9Z" fill="#1A2E35"/>
</g>
</g>
<path id="Vector_118" d="M91.9 423C88.2 422.9 84.5 422.8 81.1 422.7C78 422.6 75.1 422.4 72.8 422.3C69.6 422.1 67.5 421.9 67.1 421.7C66.4 421.3 66.2 414 66.2 405.6C72.7 409.9 85.4 418.6 91.9 423Z" fill="#15557C"/>
</g>
</g>
<g id="Group_76">
<path id="Vector_119" d="M97.3 407.2H64.8C64.8 407.2 66.6 334.1 66.2 332.4C65.4 328.3 46.9 263.9 46.9 263.9L72.5 264.3L81.3 264.5C81.3 264.5 80.5 275.2 80.9 276.4C85.2 292 93.6 318.7 95.3 328.6C98.3 345.8 97.3 407.2 97.3 407.2Z" fill="#262D40"/>
<g id="Group_77">
<g id="Group_78">
<path id="Vector_120" d="M96.3001 401.8C91.2001 401.7 73.3 401.1 66.5 401.6C66.4 401.6 66.4 401.7 66.5 401.7C68.8 402.1 91.2001 402 96.3001 401.9C96.4001 401.9 96.4001 401.8 96.3001 401.8Z" fill="white"/>
</g>
<path id="Vector_121" d="M68.8001 330.8C67.8001 326.8 60.6001 302.2 58.4001 294.5C56.2001 286.7 54.1001 278.9 52.2001 271.1C52.0001 270.1 51.7001 269.1 51.4001 268.1C51.4001 268 51.3 268.1 51.3 268.1C52 272.1 53.0001 276 53.9001 279.9C54.8001 283.8 55.8001 287.7 56.9001 291.6C59.0001 299.4 61.3 307.2 63.8 314.9C65 318.7 67.1 326.6 68.2 330.5C69.3 334.4 67.5 398 67.6 399.1C67.6 399.4 68.1 399.4 68.1 399.1C68.2 391.5 69.8001 334.7 68.8001 330.8Z" fill="white"/>
</g>
</g>
<path id="Vector_122" d="M72.6 264.4C72.6 264.4 66.3 332.8 66.3 332.5C65.5 328.6 48.1 268 47 264.2C47 264.1 47 264 47 264L72.6 264.4Z" fill="#0D0F14"/>
</g>
<g id="Group_79">
<g id="Group_80">
<path id="Vector_123" d="M80.5 426.8C79 427.3 35.2 426.3 33.6 425.3C33 424.9 32.7 418.5 32.7 410.8C32.7 409.1 32.7 407.4 32.7 405.7C32.7 403.6 32.7 401.5 32.7 399.5L61.2 400L61.1 406.2L60.9 411.3C60.9 411.3 77.5 419.1 79.1 420.5C80.8 421.9 82 426.4 80.5 426.8Z" fill="white"/>
<g id="Group_81">
<path id="Vector_124" d="M80.6 426.9C79.6 427.2 61 426.9 47.4 426.4C44.3 426.3 41.4 426.1 39.1 426C35.9 425.8 33.8 425.6 33.4 425.4C32.6 424.9 32.4 415.5 32.5 405.7L61.1 406.2L60.9 411.4C60.9 411.4 77.6 419.3 79.3 420.7C80.9 422 82.2 426.4 80.6 426.9Z" fill="#318BCF"/>
<g id="Group_82">
<g id="Group_83">
<path id="Vector_125" d="M80 425.1C72.6 424.8 42.9 424.1 35.6 424.3C35.5 424.3 35.5 424.3 35.6 424.3C42.9 424.8 72.6 425.2 80 425.2C80.2 425.3 80.2 425.1 80 425.1Z" fill="#1A2E35"/>
<path id="Vector_126" d="M61.9001 409.7C59.0001 409.1 55.5001 409.5 53.2001 411.5C53.1001 411.6 53.2001 411.7 53.3001 411.7C56.2001 410.9 58.9001 410.3 61.9001 410.1C62.1001 410 62.1001 409.7 61.9001 409.7Z" fill="#1A2E35"/>
<path id="Vector_127" d="M64 411C61.1 410.4 57.6 410.8 55.3 412.8C55.2 412.9 55.3 413 55.4 413C58.3 412.2 61 411.6 64 411.4C64.2 411.3 64.2 411 64 411Z" fill="#1A2E35"/>
<path id="Vector_128" d="M66.1 412.3C63.2 411.7 59.7 412.1 57.4 414.1C57.3 414.2 57.4 414.3 57.5 414.3C60.4 413.5 63.1 412.9 66.1 412.7C66.3 412.7 66.3 412.3 66.1 412.3Z" fill="#1A2E35"/>
<path id="Vector_129" d="M68.1 413.6C65.2 413 61.7 413.4 59.4 415.4C59.3 415.5 59.4 415.6 59.5 415.6C62.4 414.8 65.1 414.2 68.1 414C68.3 414 68.3 413.7 68.1 413.6Z" fill="#1A2E35"/>
</g>
<g id="Group_84">
<path id="Vector_130" d="M67.4 403.1C66.3 401.5 64.2 402.2 62.9 403.2C60.9 404.8 59.1 407.3 58.3 409.7C58.3 409.8 58.3 409.8 58.4 409.8C58.4 410 58.6 410.3 58.8 410.2C61.2 409.4 63.9 408.8 66 407.2C67.3 406.3 68.5 404.6 67.4 403.1ZM62.3 408.2C61.1 408.6 59.9 409 58.8 409.5C59.7 408.2 60.5 406.9 61.6 405.7C62.1 405.1 62.6 404.6 63.2 404.1C64.1 403.3 67.5 401.7 67 404.9C66.5 406.6 63.7 407.6 62.3 408.2Z" fill="#1A2E35"/>
<path id="Vector_131" d="M51 408.8C53.4 409.9 56.1 409.9 58.7 410.2C59 410.2 59.1 410 59.1 409.7C59.1 409.7 59.2 409.6 59.1 409.6C57.8 407.4 55.5 405.3 53.2 404.2C51.8 403.5 49.6 403.3 48.8 405.1C48.1 406.8 49.6 408.2 51 408.8ZM49.7 406.7C48.5 403.7 52.2 404.5 53.2 405.1C53.9 405.5 54.5 405.9 55.1 406.4C56.4 407.3 57.5 408.4 58.6 409.5C57.4 409.3 56.1 409.2 54.9 409C53.4 408.7 50.4 408.3 49.7 406.7Z" fill="#1A2E35"/>
</g>
</g>
</g>
</g>
<g id="Group_85">
<path id="Vector_132" d="M62.8 410.5L31.2 410C31.2 410 40 296.3 38.9 290.3C37.1 280.4 38.6 269.2 43.4 263.9L74.1 264.5C74.1 264.5 74.5 273.1 71.3 278.2C71.3 278.2 68.4 280 67 280.7L62.8 410.5Z" fill="#262D40"/>
<g id="Group_86">
<path id="Vector_133" d="M61.9 404.9C57.1 404.7 58.5 404.7 53.7 404.5C51.4 404.4 36 403.9 33.8 404.2C33.8 404.2 33.7 404.3 33.8 404.3C36 404.7 51.4 404.9 53.7 405C58.5 405.1 57.1 405 61.9 405C62 405.1 62 404.9 61.9 404.9Z" fill="white"/>
<g id="Group_87">
<path id="Vector_134" d="M73.3 276.8C70.2 278.1 67.3 279.9 64.6 281.8C64.5 281.9 64.6 282 64.7 282C67.7 280.4 70.7 278.9 73.5 277.2C73.7 277 73.5 276.7 73.3 276.8Z" fill="white"/>
<path id="Vector_135" d="M69.4 276.2C69.2 276.8 69.1 277.4 68.9 278C68.8 278.5 68.7 279 68.8 279.5C68.8 279.6 68.9 279.6 69 279.5C69.3 279.1 69.4 278.5 69.5 278C69.7 277.4 69.8 276.9 70 276.3C70.1 276 69.5 275.9 69.4 276.2Z" fill="white"/>
<path id="Vector_136" d="M69.2 273.3C69.3 272.8 69.4 272.3 69.5 271.8C69.6 271.3 69.7 270.7 69.8 270.2C69.8 270.1 69.9 270.1 69.9 270.2C69.8 270.7 69.8 271.2 69.7 271.8C69.6 272.3 69.6 272.8 69.5 273.4C69.4 274.4 69.2 275.3 69 276.3C69.5 276.2 70 276.1 70.4 275.7C70.8 275.4 71 274.8 71.2 274.2C71.4 273.6 71.5 273 71.7 272.4C71.9 271.8 72.1 271.1 72.2 270.4C72.2 270.3 72.3 270.3 72.3 270.4C72.1 271.8 71.9 273.2 71.4 274.5C71.2 275 71.1 275.6 70.6 275.9C70.1 276.2 69.5 276.3 68.9 276.4C68.8 276.4 68.7 276.4 68.7 276.3C68.9 275.3 69 274.3 69.2 273.3Z" fill="white"/>
</g>
<path id="Vector_137" d="M44 290C43.8 287.7 43.5 285.5 43.3 283.2C42.9 278.7 43.3 274.1 44.4 269.7C44.4 269.6 44.3 269.6 44.3 269.7C43.5 273.6 42.8 277.5 42.9 281.5C43 285.5 43.7 289.4 43.6 293.4C43.6 297.4 43.2 301.5 42.9 305.5C42.6 309.5 42.2 313.6 41.9 317.6C40.6 333.9 39.3 350.2 38 366.4C37.6 370.9 37.3 375.5 37 380C36.6 384.6 36.1 396 35.9 400.7C35.9 401.1 36.5 401.1 36.5 400.7C37.3 392.5 38 377.6 38.7 369.4C39.4 361.3 40 353.2 40.6 345.1C41.2 337 41.9 328.9 42.5 320.8C42.8 316.8 43.1 312.7 43.4 308.7C43.7 304.7 44.1 300.6 44.2 296.6C44.2 294.4 44.2 292.2 44 290Z" fill="white"/>
<path id="Vector_138" d="M55.2 269.6C55.2 269.5 55.1 269.5 55.1 269.6C54.8 270 54.9 270.8 54.8 271.3C54.7 271.9 54.6 272.5 54.3 273.1C53.9 274.3 53.3 275.3 52.4 276.2C50.4 278 47.8 278.6 45.3 279.2C45.2 279.2 45.2 279.3 45.3 279.4C46.8 279.5 48.3 279.2 49.7 278.8C50.9 278.4 52.1 277.9 53.1 277C54.1 276.1 54.7 275 55 273.7C55.2 273.1 55.2 272.4 55.2 271.7C55.2 271.4 55.2 271.1 55.2 270.7C55.3 270.3 55.4 269.9 55.2 269.6Z" fill="white"/>
</g>
</g>
</g>
</g>
<g id="Group_88">
<g id="Group_89">
<g id="Group_90">
<g id="Group_91">
<g id="Group_92">
<path id="Vector_139" d="M73.4 221.9C78 236.8 87.4 251.2 90.2 253.2C94.7 256.3 115.9 258.9 122.9 258.1C125.2 257.8 124.3 242 122.2 240.7C120.1 239.4 99.5 239.1 98.1 238.6C97.4 238.3 86.3 225.6 80.2 219C74.4 212.7 72 217.4 73.4 221.9Z" fill="#C36358"/>
</g>
</g>
</g>
<g id="Group_93">
<path id="Vector_140" d="M89.6 228.4L77.8 237.9C77.8 237.9 72.6 226.8 72.2 220C71.8 213.2 75 214 78.8 217.3C82.5 220.5 89.6 228.4 89.6 228.4Z" fill="#FFC800"/>
<path id="Vector_141" d="M89.6 228.4L85.4 231.8L77.8 237.9C77.8 237.9 72.6 226.8 72.2 220C71.9 214.5 73.9 214 76.7 215.7C77.3 216.1 78 216.6 78.7 217.2C82.5 220.5 89.6 228.4 89.6 228.4Z" fill="#318BCF"/>
<path id="Vector_142" d="M87.5 227.1C87.5 227 87.5 226.9 87.5 227.1C83.5 229.9 79 233.5 77.6 235C77.6 235 77.6 235.1 77.6 235C79.4 233.9 86.6 227.7 87.5 227.1Z" fill="#1A2E35"/>
<path id="Vector_143" d="M85.4 231.8L77.8 237.9C77.8 237.9 72.6 226.8 72.2 220C71.9 214.5 73.9 214 76.7 215.7L85.4 231.8Z" fill="#2073A5"/>
</g>
</g>
<g id="Group_94">
<path id="Vector_144" d="M38.4 267.4C38.5 267.5 83.1 276.5 83.6 276.1C84.3 275.6 85.1 229.4 79.8 218.3C78.5 215.5 72.4 212.7 69.3 214.7C60.3 220.5 57.6 226.2 54.8 230.8C52.7 234.2 49.7 240.1 47 246.2C42.3 256.3 38.1 266.9 38.4 267.4Z" fill="#318BCF"/>
</g>
<g id="Group_95">
<g id="Group_96">
<g id="Group_97">
<path id="Vector_145" d="M76.1001 222.4C74.2001 222.4 70.3001 218.7 68.8001 215.7C68.7001 215.5 69.1001 213.4 69.5001 210.7C69.7001 209.1 70.0001 207.3 70.1001 205.7L80.2001 208.8C80.2001 208.8 79.0001 212.2 78.9001 215C78.9001 215.2 78.9001 215.5 78.9001 215.7V215.8C79.1001 217 79.1001 222.3 76.1001 222.4Z" fill="#F1C183"/>
</g>
<path id="Vector_146" d="M79.0001 215.6V215.7C78.7001 215.7 78.3001 215.7 77.9001 215.7C72.0001 215.2 70.9001 207.8 70.7001 205.8L80.2001 208.7C80.2001 208.7 79.0001 212.1 78.9001 214.9C78.9001 215.2 79.0001 215.4 79.0001 215.6Z" fill="#F1C183"/>
</g>
<g id="Group_98">
<g id="Group_99">
<path id="Vector_147" d="M67.2 195.4C66.4 199.1 69.3 209.4 72.1 211.5C76.1 214.5 82.3001 214.3 84.8001 209.6C87.2001 205 83.2 191.6 80.1 189.8C75.6 187 68.4 189.9 67.2 195.4Z" fill="#FFD194"/>
</g>
<g id="Group_100">
<g id="Group_101">
<path id="Vector_148" d="M78.6 200.4C78.6 200.4 78.5 200.5 78.6 200.4C78.8 201.2 79 202 78.4 202.4C79.1 202.1 78.9 201 78.6 200.4Z" fill="#1A2E35"/>
<path id="Vector_149" d="M77.7 199.9C76.6 200.2 77.2 202.4 78.2 202.2C79.3 201.9 78.7 199.7 77.7 199.9Z" fill="#1A2E35"/>
</g>
<g id="Group_102">
<path id="Vector_150" d="M82.2 199.3C82.2 199.2 82.3 199.3 82.2 199.3C82.4 200 82.8 200.8 83.4 200.9C82.7 201 82.3 200 82.2 199.3Z" fill="#1A2E35"/>
<path id="Vector_151" d="M82.6 198.4C83.7 198 84.4 200.2 83.4 200.6C82.4 200.9 81.7 198.7 82.6 198.4Z" fill="#1A2E35"/>
</g>
<path id="Vector_152" d="M76.6 199.1C76.9 198.9 77.1 198.7 77.4 198.6C77.7 198.4 78 198.2 78.1 197.9C78.2 197.7 78 197.4 77.9 197.3C77.5 197.1 77.1 197.3 76.7 197.5C76.3 197.8 76.1 198.1 75.9 198.5C75.7 199 76.2 199.3 76.6 199.1Z" fill="#1A2E35"/>
<path id="Vector_153" d="M83.2 197.3C82.9 197.3 82.6 197.3 82.2 197.3C81.8 197.3 81.5 197.3 81.2 197.1C81 197 81 196.7 81.1 196.5C81.3 196.1 81.8 196 82.2 196C82.7 196 83.1 196.1 83.4 196.4C83.8 196.6 83.6 197.2 83.2 197.3Z" fill="#1A2E35"/>
<path id="Vector_154" d="M79.3001 207.2C79.5001 207.3 79.7001 207.5 80.0001 207.4C80.2001 207.4 80.5001 207.2 80.7001 207C80.6001 207.3 80.3001 207.6 79.9001 207.6C79.6001 207.7 79.4001 207.5 79.3001 207.2C79.3001 207.2 79.2001 207.2 79.3001 207.2Z" fill="#1A2E35"/>
<g id="Group_103">
<g id="Group_104">
<path id="Vector_155" d="M79.5 204.9C80.1 205.4 80.7 205.6 81.4 205.5C81.7 205.5 82 205.4 82.3 205.3C82.4 205.3 82.4 205.3 82.5 205.2C82.5 205.2 82.6 205.2 82.6 205.1C82.7 205.1 82.7 205 82.7 204.9C82.7 204.9 82.7 204.9 82.7 204.8V204.7C82.6 204.2 82.3 203.4 82.3 203.4C82.5 203.4 83.6 203.6 83.5 203.3C82.7 201 81.9 198.5 80.6 196.4C80.6 196.3 80.5 196.4 80.5 196.5C81.2 198.7 82.2 200.8 82.9 203C82.5 203 82 202.9 81.7 203C81.6 203 82.3 204.5 82.3 204.8C81.3 205.3 80.6 205.2 79.5 204.9C79.4 204.8 79.5 204.8 79.5 204.9Z" fill="#1A2E35"/>
</g>
</g>
<g id="Group_105">
<path id="Vector_156" d="M81.8 205.1C81.8 205.1 81.5 205.9 80.9 206.3C80.7 206.5 80.4 206.6 80.1 206.6C79.5 206.6 79.4 206.1 79.3 205.6C79.3 205.2 79.4 204.9 79.4 204.9C79.4 204.9 80.5 205.4 81.8 205.1Z" fill="#1A2E35"/>
<path id="Vector_157" d="M80.9 206.3C80.7 206.5 80.4 206.6 80.1 206.6C79.5 206.6 79.4 206.1 79.3 205.6C80 205.5 80.7 205.7 80.9 206.3Z" fill="#A69DBF"/>
</g>
</g>
<g id="Group_106">
<path id="Vector_158" d="M68 203C68.7 202.5 69.6 199.9 70 198.8C70.4 197.7 69.5 193 69.2 191.6C68.2 192.6 67.5 193.9 67.1 195.4C66.9 197 67.2 200 68 203Z" fill="#F1C183"/>
<g id="Group_107">
<path id="Vector_159" d="M79.1001 193.4C78.5001 194.5 77.4001 195.3 76.1001 195.4C74.8001 195.5 73.5001 194.9 72.7001 193.9C72.7001 193.9 72.6001 193.9 72.7001 193.9C73.5001 195 74.7001 195.8 76.1001 195.7C77.5001 195.6 78.7001 194.7 79.1001 193.4C79.2001 193.4 79.2001 193.4 79.1001 193.4Z" fill="#1A2E35"/>
<path id="Vector_160" d="M73.3001 185.4C71.2001 185.9 69.6001 187.5 69.1001 189.1C68.8001 190.1 69.0001 191 69.3001 191.8H69.4001C69.0001 190.4 69.3001 188.6 70.6001 187.3C71.8001 186 73.7001 185.3 75.5001 185.5C76.5001 185.6 77.3001 186 77.8001 186.6C77.9001 186.7 78.0001 186.6 78.0001 186.5C77.1001 185.4 75.2001 184.9 73.3001 185.4Z" fill="#1A2E35"/>
<path id="Vector_161" d="M86.6 187.1C86 186.1 85.1 185.4 84.1 185.1C82.6 184.6 81.2 185.1 79.8 185.5V185.6C81 185.2 82.2 184.9 83.5 185.2C84.5 185.5 85.5 186.1 86.1 186.9C87.4 188.7 87.2 191.3 85.5 192.8C84.6 193.6 83.3 194.1 82 194C82 194 81.9 194.1 82 194.1C84.3 194.4 86.6 192.8 87.1 190.5C87.3 189.3 87.1 188.1 86.6 187.1Z" fill="#1A2E35"/>
<path id="Vector_162" d="M67.1 197.6C67.1 197.6 64.3001 194.3 65.4001 191.7C66.1001 190.3 69.2 189.7 69.2 189.7C69.2 189.7 69.8001 187.7 72.3001 186.5C74.8001 185.3 78.3001 186.1 78.3001 186.1C78.3001 186.1 80.5001 184.1 83.1 184.9C86.8001 186 87.5001 191.1 84.6 193.4C82.6 195 79.0001 193.7 79.0001 193.7C78.7001 193.8 76.1 196.4 73.1 194.1C73.1 194.1 71.6 196.2 69.6 195.4C69.5 195.5 69.1 197.4 67.1 197.6Z" fill="#1A2E35"/>
</g>
</g>
<g id="Group_108">
<path id="Vector_163" d="M70.2 203.7C70.2 203.7 67.5 200.6 66 201.6C64.6 202.6 66.9001 207.3 68.8001 207.8C70.7 208.3 71.1 206.5 71.1 206.5L70.2 203.7Z" fill="#FFD194"/>
<path id="Vector_164" d="M66.7001 202.9C66.7001 202.9 66.7001 203 66.7001 202.9C68.0001 203.3 68.8001 204.4 69.4001 205.6C69.0001 205.2 68.4001 205 67.9001 205.5V205.6C68.4001 205.4 68.8001 205.5 69.2001 205.9C69.5001 206.2 69.7001 206.5 69.9001 206.8C70.0001 206.9 70.2001 206.8 70.1001 206.7C70.0001 205 68.5001 202.9 66.7001 202.9Z" fill="#1A2E35"/>
</g>
</g>
</g>
<g id="Group_109">
<g id="Group_110">
<path id="Vector_165" d="M169.5 220.1H81.8V278.2H169.5V220.1Z" fill="white"/>
<path id="Vector_166" d="M81.7 278.3V278.2V220H81.8H169.6V278.4H169.5L81.7 278.3ZM82 220.2V278H169.4V220.2H82Z" fill="#DCDCDC"/>
</g>
<g id="Group_111">
<path id="Vector_167" d="M125.7 259.1C131.223 259.1 135.7 254.623 135.7 249.1C135.7 243.577 131.223 239.1 125.7 239.1C120.177 239.1 115.7 243.577 115.7 249.1C115.7 254.623 120.177 259.1 125.7 259.1Z" fill="#318BCF"/>
<path id="Vector_168" d="M121.5 253.3V244.9L132 249.1L121.5 253.3Z" fill="white"/>
</g>
<g id="Group_112">
<path id="Vector_169" d="M169.5 273.6H81.8V278.1H169.5V273.6Z" fill="#ECECEC"/>
<path id="Vector_170" d="M160.9 275.2H87.1V276.5H160.9V275.2Z" fill="#C8C8C8"/>
<g id="Group_113">
<path id="Vector_171" d="M85.5 274.4H82.6V277.3H85.5V274.4Z" fill="#C8C8C8"/>
<g id="Group_114">
<path id="Vector_172" d="M83.8 275H83.3V276.8H83.8V275Z" fill="#A8A8A8"/>
<path id="Vector_173" d="M84.8 275H84.3V276.8H84.8V275Z" fill="#A8A8A8"/>
</g>
</g>
<g id="Group_115">
<path id="Vector_174" d="M165 274.4H162.1V277.3H165V274.4Z" fill="#C8C8C8"/>
<g id="Group_116">
<g id="Group_117">
<path id="Vector_175" d="M163.1 275.5H162.5V276.2H163.1V275.5Z" fill="#A8A8A8"/>
<path id="Vector_176" d="M163.7 276.7L162.9 276.2V275.5L163.7 275.1V276.7Z" fill="#A8A8A8"/>
</g>
<g id="u5Zjqx 1">
<g id="Group_118">
<path id="Vector_177" d="M164.2 275.3L164.3 275.2C164.4 275.3 164.5 275.5 164.6 275.7C164.6 276 164.5 276.3 164.3 276.5L164.2 276.4C164.3 276.3 164.4 276.1 164.4 275.9C164.4 275.7 164.3 275.5 164.2 275.3Z" fill="#A8A8A8"/>
<path id="Vector_178" d="M164 276.3L163.9 276.2C164 276.1 164 276 164 275.9C164 275.8 164 275.7 163.9 275.6L164 275.5C164.2 275.7 164.3 276 164 276.3Z" fill="#A8A8A8"/>
</g>
</g>
</g>
</g>
<g id="Group_119">
<path id="Vector_179" d="M168.4 274.4H165.5V277.3H168.4V274.4Z" fill="#C8C8C8"/>
<path id="Vector_180" d="M167.2 274.9H166V276.1H167.2V274.9Z" fill="#A8A8A8"/>
<path id="Vector_181" d="M168 275.7H166.8V276.9H168V275.7Z" fill="white"/>
</g>
<g id="Group_120">
<path id="Vector_182" d="M101 275.9C101 276.1 101.1 276.4 101.2 276.6H87.2001V275.3H101.2C101 275.4 101 275.6 101 275.9Z" fill="#A8A8A8"/>
<path id="Vector_183" d="M104 275.9C104 276.1 103.9 276.4 103.8 276.6C103.5 277.1 103 277.5 102.4 277.5C101.8 277.5 101.3 277.2 101 276.6C100.9 276.4 100.8 276.2 100.8 275.9C100.8 275.7 100.9 275.4 101 275.2C101.2 274.7 101.8 274.3 102.4 274.3C103 274.3 103.5 274.6 103.8 275.2C104 275.4 104 275.6 104 275.9Z" fill="#A8A8A8"/>
</g>
</g>
</g>
<g id="Group_121">
<path id="Vector_184" d="M61.2 224.5C56.7 235.9 58.1 256.8 62.2 261.8C68.8 269.5 79.5 280 85.3 281.8C88.7 282.8 95.5 264 92.5 262.9C87.8 261.2 75.3 252.1 74.1 250.6C72.9 249.2 70.3 234.6 68.8 225.8C67.2 216.1 63.5 218.7 61.2 224.5Z" fill="#FFD194"/>
<g id="Group_122">
<path id="Vector_185" d="M85.4 281.7C95.5 285.8 107.5 284.4 109.4 283.7C111.1 283.1 111.9 282.8 111.9 282.8C114.9 281.8 115.7 280.1 115.7 280.1C115.7 280.1 119.5 280 119.9 277.7C120.3 275.1 114.8 275.8 111.6 274.3C104.2 270.9 94.7 264.1 92.6 262.9L85.4 281.7Z" fill="#FFD194"/>
<path id="Vector_186" d="M101.4 276.2C103.6 277.1 105.7 278.1 108 278.8C110.5 279.5 113.1 279.8 115.7 280.1C115.8 280.1 115.8 280.2 115.7 280.2C110.9 280.4 105.4 278.9 101.3 276.4C101.2 276.3 101.3 276.1 101.4 276.2Z" fill="#1A2E35"/>
<path id="Vector_187" d="M98.7 280.3C100.9 281.1 104.7 282.5 112 282.7C107.3 283.2 102.9 282.5 98.6 280.5C98.5 280.5 98.6 280.3 98.7 280.3Z" fill="#1A2E35"/>
<path id="Vector_188" d="M103 269.6C102.2 268.8 102.6 268.4 104.6 268.6C106.6 268.9 114.3 271.7 115 268.9C115.8 266.1 104.8 262.3 101.5 262.1C98.1 261.9 92.6 262.7 92.6 262.7C94.6 264 99.1 267.3 103 269.6Z" fill="#FFD194"/>
</g>
<g id="Group_123">
<path id="Vector_189" d="M71.5 238.6L56.4 239.8C56.4 239.8 58.4 227.7 61.9 221.9C65.4 216.1 67.6 218.5 68.9 223.3C70.1 228.1 71.5 238.6 71.5 238.6Z" fill="#318BCF"/>
<g id="Group_124">
<path id="Vector_190" d="M70.5 236.3C70.6 236.2 70.6 236.2 70.5 236.3C65.6 236.3 59.9 236.8 57.9 237.2V237.3C59.9 237.3 69.4 236.3 70.5 236.3Z" fill="#1A2E35"/>
<path id="Vector_191" d="M58.5 239.6C57.7 239.7 57.2 239.7 56.4 239.8C56.9 237.6 57.4 235.5 58 233.3C58.6 231.1 59.2 228.8 59.9 226.6C59.5 227.7 59 228.9 58.6 230C58.7 229.3 58.8 228.5 59 227.8C58.7 228.7 58.6 229.5 58.5 230.4C58.2 231.3 57.9 232.2 57.6 233.1C57 235.3 56.2 238.8 56.1 240C56.1 240 57.8 239.9 58.6 239.7C58.5 239.7 58.5 239.6 58.5 239.6Z" fill="#1A2E35"/>
<path id="Vector_192" d="M70.9 233.1C70.8 232.8 70.8 232.5 70.7 232.1C70.7 231.2 70.7 230.3 70.7 229.4H70.6C70.6 230.1 70.5 230.8 70.5 231.5C70.4 231.1 70.4 230.7 70.3 230.3C70.2 229.4 69.9 228.6 69.8 227.7C69.8 227.6 69.7 227.7 69.7 227.7C69.8 228.6 69.8 229.6 70 230.5C70.1 231.4 70.3 232.4 70.4 233.3C70.7 235.1 70.9 236.8 71.3 238.6C71.2 238.6 71.2 238.6 71.1 238.7C71 238.7 71 238.8 71.1 238.8C71.2 238.8 71.3 238.8 71.4 238.8C71.5 238.8 71.5 238.7 71.5 238.7C71.5 236.8 71.2 234.9 70.9 233.1Z" fill="#1A2E35"/>
</g>
</g>
</g>
<g id="Group_125">
<path id="Vector_193" d="M138.7 232.3C136.5 233.2 136.7 230.1 136.7 230.1C136.7 230.1 135.4 234.5 132.8 234.6C130.3 234.7 130.6 230.9 130.6 230.6C130.5 230.8 129.2 234.9 126.6 234.7C123.8 234.5 124.8 230.8 124.9 230.5C124.8 230.7 122.9 233.3 120.9 232.7C117.5 231.7 122.1 223.7 121.5 220.9L116.6 218.7C117.6 218.6 118.7 218.5 120.4 217.3C122.1 216.2 123.1 215.4 124.4 215.3C126.4 215 127.2 216.7 127.2 216.7C127.2 216.7 128.3 214.4 130.4 214.5C131.5 214.5 132.4 216.3 132.4 216.3C132.4 216.3 133.4 214.5 135.2 214.7C136.7 214.8 137.3 216.6 137.3 216.6C137.3 216.6 139 215.3 140.5 216C143.4 217.4 143.4 230.2 138.7 232.3Z" fill="#FFD194"/>
<path id="Vector_194" d="M120.3 220.4L116.5 218.9C116.4 218.8 116.2 218.7 116.1 218.6C112 215.5 111.7 208.9 115.2 210.2C117.9 211.2 118.9 215.8 121.8 216.4L120.3 220.4Z" fill="#FFD194"/>
<g id="Group_126">
<path id="Vector_195" d="M137.4 217.1C137.4 217 137.4 217 137.4 217.1C138.5 221.3 138.4 226.2 136.8 230.3C136.7 230.4 136.5 230.4 136.5 230.2C137.3 225.7 137.8 221.6 137.4 217.1Z" fill="#1A2E35"/>
<path id="Vector_196" d="M132.3 216.4C132.2 216.4 132.3 216.4 132.3 216.4C133.5 220.7 133.1 226.3 130.7 230.7C130.6 230.9 130.4 230.9 130.5 230.7C131.8 227.7 132.6 220.6 132.3 216.4Z" fill="#1A2E35"/>
<path id="Vector_197" d="M124.5 230.8C126.7 226.4 127.2 221.8 127.1 217C127.1 216.9 127.2 216.9 127.2 217C127.9 219.3 127.7 222.4 127.3 224.8C126.9 227.1 126.1 229.1 124.7 230.9C124.6 231 124.5 230.9 124.5 230.8Z" fill="#1A2E35"/>
</g>
</g>
</g>
</g>
</g>
</g>
</g>
<defs>
<linearGradient id="paint0_linear" x1="20.7757" y1="419.851" x2="499.693" y2="419.851" gradientUnits="userSpaceOnUse">
<stop stop-color="white"/>
<stop offset="1" stop-color="#A69EBF"/>
</linearGradient>
</defs>
</svg>
