<svg width="520" height="520" viewBox="0 0 520 520" fill="none" xmlns="http://www.w3.org/2000/svg">
<style>
	* {
		transform-box: fill-box;
	}
	#part-1,
	#part-2,
	#part-3,
	#part-4 {
		transform-origin: center center;
		animation: scale-up-animation 2s linear infinite;
	}
	
	@keyframes scale-up-animation {
        0% {
            transform: scale(1);
        }
		50% {
			transform: scale(1.2);
		}
        100% {
            transform: scale(1);
        }
    }
</style>
<g id="iq4bet_img01 1">
<g id="Group">
<g id="Group_2">
<path id="Vector" d="M7.90002 412.8L93.7 321.9C102.5 312.6 116.7 312.6 125.5 321.9L211.3 412.8H7.90002V412.8Z" fill="url(#paint0_linear)"/>
<path id="Vector_2" d="M125.5 321.9C120 316.1 112.4 313.9 105.3 315.4C102.1 328.3 100 347.1 111.8 355.9C130.6 370 107.3 384.5 107.3 398.6C107.3 403.2 108.8 408.1 110.9 412.8H211.3L125.5 321.9Z" fill="url(#paint1_linear)"/>
</g>
<g id="Group_3">
<path id="Vector_3" d="M81.1 413.9H46V308.7L81.1 291.9V413.9Z" fill="url(#paint2_linear)"/>
<g id="Group_4">
<path id="Vector_4" d="M58.6 315H52.1V321.5H58.6V315Z" fill="url(#paint3_linear)"/>
<path id="Vector_5" d="M72.7 326.9H66.2V333.4H72.7V326.9Z" fill="url(#paint4_linear)"/>
<path id="Vector_6" d="M58.6 338.8H52.1V345.3H58.6V338.8Z" fill="url(#paint5_linear)"/>
<path id="Vector_7" d="M72.7 350.7H66.2V357.2H72.7V350.7Z" fill="url(#paint6_linear)"/>
<path id="Vector_8" d="M72.7 362.7H66.2V369.2H72.7V362.7Z" fill="url(#paint7_linear)"/>
<path id="Vector_9" d="M58.6 374.6H52.1V381.1H58.6V374.6Z" fill="url(#paint8_linear)"/>
<path id="Vector_10" d="M72.7 398.4H66.2V404.9H72.7V398.4Z" fill="url(#paint9_linear)"/>
</g>
</g>
<g id="Group_5">
<path id="Vector_11" d="M36.2 210.8C36.2 210.8 164.4 229.3 175.1 198.9C185.2 170 166 191.3 142.4 189.9C133 189.3 141.1 161.8 117.1 161.9C93.5 162 99.5 188.6 89.9 189C85 189.2 87.5 177.8 73.2 178.8C57.7 179.9 61.6 196.4 55.9 200.5C51.4 203.6 35.2 195.2 36.2 210.8Z" fill="url(#paint10_linear)"/>
<path id="Vector_12" d="M13.1001 217.5C13.1001 217.5 92.1001 228.9 98.6001 210.2C104.8 192.4 93.0001 205.5 78.4001 204.6C72.6001 204.2 77.6001 187.3 62.8001 187.3C48.3001 187.4 52.0001 203.8 46.1001 204C43.1001 204.1 44.6001 197.1 35.8001 197.7C26.2001 198.4 28.6001 208.6 25.2001 211C22.4001 213.1 12.5001 207.9 13.1001 217.5Z" fill="url(#paint11_linear)"/>
</g>
<g id="Group_6">
<path id="Vector_13" d="M461.3 397.1H481.7V361.2L461.3 353.5V397.1Z" fill="url(#paint12_linear)"/>
<g id="Group_7">
<path id="Vector_14" d="M470 364H473V360.9H470V364Z" fill="url(#paint13_linear)"/>
<path id="Vector_15" d="M463.5 364H466.5V360.9H463.5V364Z" fill="url(#paint14_linear)"/>
<path id="Vector_16" d="M476.5 369.4H479.5V366.4H476.5V369.4Z" fill="url(#paint15_linear)"/>
<path id="Vector_17" d="M470 374.9H473V371.9H470V374.9Z" fill="url(#paint16_linear)"/>
<path id="Vector_18" d="M463.5 374.9H466.5V371.9H463.5V374.9Z" fill="url(#paint17_linear)"/>
<path id="Vector_19" d="M476.5 380.4H479.5V377.4H476.5V380.4Z" fill="url(#paint18_linear)"/>
<path id="Vector_20" d="M473 384.1H470V387.1H473V384.1Z" fill="url(#paint19_linear)"/>
<path id="Vector_21" d="M479.5 384.1H476.5V387.1H479.5V384.1Z" fill="url(#paint20_linear)"/>
<path id="Vector_22" d="M466.5 389.6H463.5V392.6H466.5V389.6Z" fill="url(#paint21_linear)"/>
</g>
</g>
<g id="Group_8">
<path id="Vector_23" d="M452.7 312.5V301.3H450V288.7H447.7V283L443.2 276.3L438.6 283V288.7H436.3V301.3H433.6V312.5H430.9V378.3H455.4V312.5H452.7Z" fill="url(#paint22_linear)"/>
<g id="Group_9">
<path id="Vector_24" d="M444.9 316H441.5V319.4H444.9V316Z" fill="url(#paint23_linear)"/>
<path id="Vector_25" d="M452.2 316H448.8V319.4H452.2V316Z" fill="url(#paint24_linear)"/>
<path id="Vector_26" d="M437.5 328.4H434.1V331.8H437.5V328.4Z" fill="url(#paint25_linear)"/>
<path id="Vector_27" d="M452.2 328.4H448.8V331.8H452.2V328.4Z" fill="url(#paint26_linear)"/>
<path id="Vector_28" d="M444.9 334.6H441.5V338H444.9V334.6Z" fill="url(#paint27_linear)"/>
<path id="Vector_29" d="M437.5 340.8H434.1V344.2H437.5V340.8Z" fill="url(#paint28_linear)"/>
<path id="Vector_30" d="M444.9 340.8H441.5V344.2H444.9V340.8Z" fill="url(#paint29_linear)"/>
<path id="Vector_31" d="M452.2 347H448.8V350.4H452.2V347Z" fill="url(#paint30_linear)"/>
<path id="Vector_32" d="M437.5 353.1H434.1V356.5H437.5V353.1Z" fill="url(#paint31_linear)"/>
<path id="Vector_33" d="M444.9 359.3H441.5V362.7H444.9V359.3Z" fill="url(#paint32_linear)"/>
<path id="Vector_34" d="M452.2 359.3H448.8V362.7H452.2V359.3Z" fill="url(#paint33_linear)"/>
</g>
</g>
<g id="Group_10">
<path id="Vector_35" d="M314.9 412.8L398.3 356.3C406.8 350.5 420.7 350.5 429.2 356.3L512.6 412.8H314.9Z" fill="url(#paint34_linear)"/>
<path id="Vector_36" d="M429.2 356.3C423.9 352.7 416.5 351.3 409.6 352.2C406.5 360.2 404.5 371.9 415.9 377.4C434.2 386.1 411.5 395.1 411.5 403.9C411.5 406.7 413 409.8 415 412.7H512.6L429.2 356.3Z" fill="url(#paint35_linear)"/>
</g>
<path id="Vector_37" d="M307.5 399.5H176.8C176.8 386.9 176.8 374.4 176.8 361.8C176.8 350.4 176.8 339 176.8 327.7C176.9 327.6 177 327.5 177.2 327.3C182.2 327.3 187.1 327.3 192.1 327.3C206.2 327.3 220.3 327.3 234.3 327.3C243.6 327.3 253 327.3 262.3 327.3C267.7 327.3 273 327.3 278.4 327.3C278.5 327.3 278.7 327.3 278.8 327.2C278.9 327.2 278.9 327.2 278.9 327.1C279 327.1 279 327.1 279.1 327L279.2 326.9L279.3 326.8C279.4 326.7 279.4 326.6 279.4 326.6C279.4 322.7 279.4 318.7 279.4 314.8C279.4 314.7 279.4 314.6 279.3 314.6C279.3 314.5 279.2 314.5 279.1 314.5C279.1 314.5 279.1 314.5 279 314.4C278.9 314.4 278.9 314.3 278.8 314.3C278.8 314.3 278.7 314.3 278.7 314.2C278.6 314.2 278.4 314.1 278.3 314.1C272.9 314.1 267.6 314.1 262.2 314.1C252.9 314.1 243.5 314.1 234.2 314.1C220.1 314.1 206 314.1 192 314.1C187 314.1 182.1 314.1 177.1 314.1C177 314 176.9 313.9 176.7 313.7C176.7 307.3 176.7 301 176.7 294.6C176.7 275.3 176.7 256.1 176.7 236.8C176.8 236.7 176.9 236.6 177.1 236.4C196.1 236.4 215.2 236.4 234.2 236.4C243.5 236.4 252.9 236.4 262.2 236.4C267.6 236.4 272.9 236.4 278.3 236.4C278.4 236.4 278.6 236.4 278.7 236.3C278.8 236.3 278.8 236.3 278.8 236.2C278.9 236.2 278.9 236.2 279 236.1C279 236.1 279 236.1 279.1 236C279.2 236 279.2 235.9 279.3 235.9C279.4 235.8 279.4 235.7 279.4 235.7C279.4 231.8 279.4 227.8 279.4 223.9C279.4 223.8 279.4 223.7 279.3 223.7C279.3 223.6 279.2 223.6 279.1 223.5C279 223.5 279 223.4 278.9 223.4H278.8C278.7 223.4 278.5 223.3 278.4 223.3C273 223.3 267.7 223.3 262.3 223.3C238.9 223.3 215.5 223.3 192 223.3C187 223.3 182.1 223.3 177.1 223.3C177 223.2 176.9 223.1 176.7 222.9C176.7 213.1 176.7 203.3 176.7 193.4C176.7 177.6 176.7 161.8 176.7 146C176.8 145.9 176.9 145.8 177.1 145.6C182.1 145.6 187 145.6 192 145.6C206.1 145.6 220.2 145.6 234.2 145.6C243.5 145.6 252.9 145.6 262.2 145.6C267.6 145.6 272.9 145.6 278.3 145.6C278.4 145.6 278.6 145.6 278.7 145.5C278.8 145.5 278.8 145.5 278.8 145.4C278.9 145.4 278.9 145.4 279 145.3C279 145.3 279 145.3 279.1 145.2C279.2 145.2 279.2 145.1 279.3 145.1C279.4 145 279.4 144.9 279.4 144.9C279.4 141 279.4 137 279.4 133.1C279.4 133 279.4 132.9 279.3 132.9C279.3 132.8 279.2 132.8 279.1 132.8C279.1 132.8 279.1 132.8 279 132.7C278.9 132.7 278.9 132.6 278.8 132.6C278.8 132.6 278.7 132.6 278.7 132.5C278.6 132.5 278.4 132.4 278.3 132.4C272.9 132.4 267.6 132.4 262.2 132.4C252.9 132.4 243.5 132.4 234.2 132.4C220.1 132.4 206 132.4 192 132.4C187 132.4 182.1 132.4 177.1 132.4C177 132.3 176.9 132.2 176.7 132C176.7 130.1 176.7 128.1 176.7 126.2C176.7 113.4 176.7 100.6 176.7 87.7C176.7 87.5 176.7 87.4 176.7 87.2C176.7 86.9 176.6 86.7 176.5 86.5V86.4C176.5 86.3 176.4 86.3 176.4 86.2C176.4 86.1 176.3 86.1 176.3 86C176.3 86 176.3 85.9 176.2 85.9C176.1 85.8 176.1 85.8 176 85.7C175.8 85.5 175.7 85.4 175.5 85.4C175.4 85.4 175.3 85.3 175.2 85.3C165.8 85.3 156.4 85.3 147 85.3C146.9 85.3 146.8 85.3 146.7 85.4C146.4 85.5 146.2 85.7 146 86C146 86 146 86 145.9 86.1C145.9 86.2 145.8 86.2 145.8 86.3C145.8 86.4 145.7 86.4 145.7 86.5C145.7 86.5 145.7 86.6 145.6 86.7C145.6 86.8 145.5 86.9 145.5 87V87.1C145.5 87.2 145.5 87.3 145.4 87.4C145.4 87.6 145.4 87.7 145.4 87.9C145.4 100.7 145.4 113.5 145.4 126.4C145.4 128.3 145.4 130.3 145.4 132.2C144.8 132.7 144.4 133.4 144.4 134.2V143.9C144.4 144.7 144.8 145.4 145.4 145.9C145.4 161.7 145.4 177.5 145.4 193.3C145.4 203.1 145.4 212.9 145.4 222.8C144.8 223.3 144.4 224 144.4 224.8V234.5C144.4 235.3 144.8 236 145.4 236.5C145.4 255.8 145.4 275 145.4 294.3C145.4 300.7 145.4 307 145.4 313.4C144.8 313.9 144.4 314.6 144.4 315.4V325.1C144.4 325.9 144.8 326.6 145.4 327.1C145.4 338.5 145.4 349.9 145.4 361.2C145.4 373.8 145.4 386.3 145.4 398.9H137.5V403.4V404.5V412.8H300.6V405H307.4V399.5H307.5ZM185.8 134.6C188.4 136.2 190.9 137.8 193.5 139.5C190.9 141.1 188.4 142.7 185.8 144.4C185.8 141.1 185.8 137.9 185.8 134.6ZM184.5 144.3C182.3 142.9 180 141.5 177.8 140V138.8C180 137.4 182.3 136 184.5 134.5C184.5 137.9 184.5 141.1 184.5 144.3ZM185.8 315.9C188.4 317.5 190.9 319.1 193.5 320.8C190.9 322.4 188.4 324 185.8 325.7C185.8 322.4 185.8 319.2 185.8 315.9ZM184.5 325.6C182.3 324.2 180 322.8 177.8 321.3V320.1C180 318.7 182.3 317.3 184.5 315.8C184.5 319.2 184.5 322.4 184.5 325.6ZM173.7 395.5C170 389.6 166.3 383.8 162.6 377.9C166.3 372 170 366.2 173.7 360.3C173.7 360.8 173.7 361.2 173.7 361.7C173.7 373 173.7 384.3 173.7 395.5ZM161.1 375.7C157.2 369.6 153.4 363.5 149.5 357.3C157.2 357.3 165 357.3 172.7 357.3C168.9 363.4 165 369.6 161.1 375.7ZM149.5 354.1C153.4 348 157.2 341.9 161.1 335.7C165 341.8 168.8 347.9 172.7 354.1C165 354.1 157.3 354.1 149.5 354.1ZM148.6 360.4C152.3 366.3 156 372.1 159.7 378C156 383.9 152.3 389.7 148.6 395.6C148.6 384.4 148.6 373.1 148.6 361.9C148.6 361.3 148.6 360.9 148.6 360.4ZM161.1 380.3C164.8 386.2 168.5 392 172.2 397.9C164.8 397.9 157.4 397.9 150 397.9C153.7 392 157.4 386.1 161.1 380.3ZM162.6 333.4C163.7 331.7 164.8 330 165.9 328.3H173.7C173.7 335.9 173.7 343.4 173.7 351C170 345.1 166.3 339.3 162.6 333.4ZM149.5 312.8C157.2 312.8 165 312.8 172.7 312.8C172.6 313 172.5 313.1 172.4 313.3H149.8C149.7 313.1 149.6 312.9 149.5 312.8ZM173.7 294.8C173.7 298.7 173.7 302.5 173.7 306.4C170 300.5 166.3 294.7 162.6 288.8C166.3 282.9 170 277.1 173.7 271.2C173.7 279.1 173.7 287 173.7 294.8ZM161.1 286.6C157.2 280.5 153.4 274.4 149.5 268.2C157.2 268.2 165 268.2 172.7 268.2C168.9 274.3 165 280.4 161.1 286.6ZM148.6 271.3C152.3 277.2 156 283 159.7 288.9C156 294.8 152.3 300.6 148.6 306.5C148.6 302.6 148.6 298.8 148.6 294.9C148.6 287 148.6 279.1 148.6 271.3ZM161.1 291.1C165 297.2 168.8 303.3 172.7 309.5C165 309.5 157.2 309.5 149.5 309.5C153.4 303.4 157.3 297.3 161.1 291.1ZM149.5 265C153.4 258.9 157.2 252.8 161.1 246.6C165 252.7 168.8 258.8 172.7 265C165 265 157.3 265 149.5 265ZM162.9 328.3C162.3 329.3 161.7 330.2 161.1 331.2C160.5 330.2 159.9 329.3 159.3 328.3H162.9ZM162.6 244.3C164 242.1 165.4 239.9 166.8 237.6H173.7C173.7 245.7 173.7 253.7 173.7 261.8C170 256 166.3 250.1 162.6 244.3ZM221.7 235C219.1 233.4 216.6 231.8 214 230.1C216.6 228.5 219.1 226.9 221.7 225.2C221.7 228.5 221.7 231.7 221.7 235ZM223.1 225.3C225.7 226.9 228.2 228.5 230.8 230.2C228.2 231.8 225.7 233.4 223.1 235.1C223.1 231.7 223.1 228.5 223.1 225.3ZM213.1 229.5C210.7 228 208.2 226.4 205.8 224.9C210.7 224.9 215.6 224.9 220.5 224.9C218 226.4 215.6 228 213.1 229.5ZM203.1 235C200.5 233.4 198 231.8 195.4 230.1C198 228.5 200.5 226.9 203.1 225.2C203.1 228.5 203.1 231.7 203.1 235ZM204.5 225.3C207.1 226.9 209.6 228.5 212.2 230.2C209.6 231.8 207.1 233.4 204.5 235.1C204.5 231.7 204.5 228.5 204.5 225.3ZM194.5 229.5C192.1 228 189.6 226.4 187.2 224.9C188.8 224.9 190.4 224.9 192.1 224.9C195.4 224.9 198.7 224.9 201.9 224.9C199.4 226.4 196.9 228 194.5 229.5ZM185.8 225.3C188.4 226.9 190.9 228.5 193.5 230.2C190.9 231.8 188.4 233.4 185.8 235.1C185.8 231.7 185.8 228.5 185.8 225.3ZM184.5 235C182.3 233.6 180 232.2 177.8 230.7V229.5C180 228.1 182.3 226.7 184.5 225.2C184.5 228.5 184.5 231.7 184.5 235ZM149.5 220.4C153.4 214.3 157.2 208.2 161.1 202C165 208.1 168.8 214.2 172.7 220.4C165 220.4 157.3 220.4 149.5 220.4ZM173.7 193.8C173.7 201.6 173.7 209.5 173.7 217.3C170 211.4 166.3 205.6 162.6 199.7C166.3 193.8 170 188 173.7 182.1C173.7 186 173.7 189.9 173.7 193.8ZM161.1 197.4C157.2 191.3 153.4 185.2 149.5 179C157.2 179 165 179 172.7 179C168.9 185.2 165 191.3 161.1 197.4ZM148.6 182.2C152.3 188.1 156 193.9 159.7 199.8C156 205.7 152.3 211.5 148.6 217.4C148.6 209.6 148.6 201.7 148.6 193.9C148.6 189.9 148.6 186 148.6 182.2ZM149.5 175.8C153.4 169.7 157.2 163.6 161.1 157.4C165 163.5 168.8 169.6 172.7 175.8C165 175.8 157.3 175.8 149.5 175.8ZM163.9 237.6C163 239.1 162.1 240.5 161.1 242C160.2 240.5 159.3 239.1 158.3 237.6H163.9ZM177.7 235V231.9C179.5 233 181.3 234.2 183.1 235.3C181.3 235.3 179.4 235.3 177.6 235.3C177.7 235.2 177.7 235.1 177.7 235ZM194.5 230.7C196.9 232.2 199.4 233.8 201.8 235.3C198.5 235.3 195.2 235.3 192 235.3C190.4 235.3 188.8 235.3 187.1 235.3C189.6 233.8 192 232.3 194.5 230.7ZM213.1 230.7C215.5 232.2 218 233.8 220.4 235.3C215.5 235.3 210.6 235.3 205.7 235.3C208.2 233.8 210.7 232.3 213.1 230.7ZM231.7 230.7C234.1 232.2 236.6 233.8 239 235.3C237.4 235.3 235.8 235.3 234.1 235.3C230.8 235.3 227.5 235.3 224.3 235.3C226.8 233.8 229.3 232.3 231.7 230.7ZM241.7 225.3C244.3 226.9 246.8 228.5 249.4 230.2C246.8 231.8 244.3 233.4 241.7 235.1C241.7 231.7 241.7 228.5 241.7 225.3ZM240.4 235C237.8 233.4 235.3 231.8 232.7 230.1C235.3 228.5 237.8 226.9 240.4 225.2C240.4 228.5 240.4 231.7 240.4 235ZM250.4 230.7C252.8 232.2 255.3 233.8 257.7 235.3C252.8 235.3 247.9 235.3 243 235.3C245.5 233.8 247.9 232.3 250.4 230.7ZM259 235C256.4 233.4 253.9 231.8 251.3 230.1C253.9 228.5 256.4 226.9 259 225.2C259 228.5 259 231.7 259 235ZM260.4 225.3C263 226.9 265.5 228.5 268.1 230.2C265.5 231.8 263 233.4 260.4 235.1C260.4 231.7 260.4 228.5 260.4 225.3ZM250.4 229.5C248 228 245.5 226.4 243.1 224.9C248 224.9 252.9 224.9 257.8 224.9C255.3 226.4 252.8 228 250.4 229.5ZM231.7 229.5C229.3 228 226.8 226.4 224.4 224.9C227.7 224.9 231 224.9 234.2 224.9C235.8 224.9 237.4 224.9 239.1 224.9C236.6 226.4 234.2 228 231.7 229.5ZM177.7 228.3V225.2C177.7 225.1 177.7 224.9 177.7 224.8C179.5 224.8 181.4 224.8 183.2 224.8C181.4 226 179.5 227.2 177.7 228.3ZM162.6 155.2C164.3 152.5 166.1 149.7 167.8 147H173.7C173.7 155.6 173.7 164.2 173.7 172.7C170 166.9 166.3 161 162.6 155.2ZM149.5 131.3C153.4 125.2 157.2 119.1 161.1 112.9C165 119 168.8 125.1 172.7 131.3C165 131.3 157.3 131.3 149.5 131.3ZM164.9 147C163.7 149 162.4 150.9 161.2 152.9C160 150.9 158.7 149 157.5 147H164.9ZM173.7 126.8C173.7 127.3 173.7 127.7 173.7 128.2C170 122.3 166.3 116.5 162.6 110.6C166.3 104.7 170 98.9 173.7 93C173.7 104.3 173.7 115.5 173.7 126.8ZM161.1 108.3C157.4 102.4 153.7 96.6 150 90.7C157.4 90.7 164.8 90.7 172.2 90.7C168.5 96.6 164.8 102.5 161.1 108.3ZM159.7 110.6C156 116.5 152.3 122.3 148.6 128.2C148.6 127.7 148.6 127.3 148.6 126.8C148.6 115.6 148.6 104.3 148.6 93.1C152.3 98.9 156 104.7 159.7 110.6ZM154.5 147C156.2 149.7 158 152.5 159.7 155.2C156 161.1 152.3 166.9 148.6 172.8C148.6 164.2 148.6 155.6 148.6 147.1H154.5V147ZM155.5 237.6C156.9 239.8 158.3 242 159.7 244.3C156 250.2 152.3 256 148.6 261.9C148.6 253.8 148.6 245.8 148.6 237.7H155.5V237.6ZM156.4 328.3C157.5 330 158.6 331.7 159.7 333.4C156 339.3 152.3 345.1 148.6 351C148.6 343.4 148.6 335.9 148.6 328.3H156.4V328.3ZM177.7 325.6V322.5C179.5 323.6 181.3 324.8 183.1 325.9C181.3 325.9 179.4 325.9 177.6 325.9C177.7 325.9 177.7 325.8 177.7 325.6ZM187.1 326C189.5 324.5 192 322.9 194.4 321.4C196.8 322.9 199.3 324.5 201.7 326C198.4 326 195.1 326 191.9 326C190.4 326 188.7 326 187.1 326ZM204.5 315.9C207.1 317.5 209.6 319.1 212.2 320.8C209.6 322.4 207.1 324 204.5 325.7C204.5 322.4 204.5 319.2 204.5 315.9ZM213.1 321.4C215.5 322.9 218 324.5 220.4 326C215.5 326 210.6 326 205.7 326C208.2 324.5 210.7 322.9 213.1 321.4ZM221.7 325.6C219.1 324 216.6 322.4 214 320.7C216.6 319.1 219.1 317.5 221.7 315.8C221.7 319.2 221.7 322.4 221.7 325.6ZM223.1 315.9C225.7 317.5 228.2 319.1 230.8 320.8C228.2 322.4 225.7 324 223.1 325.7C223.1 322.4 223.1 319.2 223.1 315.9ZM213.1 320.2C210.7 318.7 208.2 317.1 205.8 315.6C210.7 315.6 215.6 315.6 220.5 315.6C218 317.1 215.6 318.6 213.1 320.2ZM203.1 325.6C200.5 324 198 322.4 195.4 320.7C198 319.1 200.5 317.5 203.1 315.8C203.1 319.2 203.1 322.4 203.1 325.6ZM224.4 326C226.8 324.5 229.3 322.9 231.7 321.4C234.1 322.9 236.6 324.5 239 326C237.4 326 235.8 326 234.1 326C231 326 227.7 326 224.4 326ZM241.7 315.9C244.3 317.5 246.8 319.1 249.4 320.8C246.8 322.4 244.3 324 241.7 325.7C241.7 322.4 241.7 319.2 241.7 315.9ZM250.4 321.4C252.8 322.9 255.3 324.5 257.7 326C252.8 326 247.9 326 243 326C245.5 324.5 247.9 322.9 250.4 321.4ZM259 325.6C256.4 324 253.9 322.4 251.3 320.7C253.9 319.1 256.4 317.5 259 315.8C259 319.2 259 322.4 259 325.6ZM260.4 315.9C263 317.5 265.5 319.1 268.1 320.8C265.5 322.4 263 324 260.4 325.7C260.4 322.4 260.4 319.2 260.4 315.9ZM250.4 320.2C248 318.7 245.5 317.1 243.1 315.6C248 315.6 252.9 315.6 257.8 315.6C255.3 317.1 252.8 318.6 250.4 320.2ZM240.4 325.6C237.8 324 235.3 322.4 232.7 320.7C235.3 319.1 237.8 317.5 240.4 315.8C240.4 319.2 240.4 322.4 240.4 325.6ZM261.7 326C264.1 324.5 266.6 322.9 269 321.4C271.4 322.9 273.9 324.5 276.3 326C271.6 326 266.9 326 262.2 326C262.1 326 261.9 326 261.7 326ZM277.3 325.4C274.9 323.9 272.4 322.3 270 320.8C272.4 319.3 274.9 317.7 277.3 316.2C277.3 319.2 277.3 322.3 277.3 325.4ZM276.4 315.5C274 317 271.5 318.6 269.1 320.1C266.7 318.6 264.2 317 261.8 315.5C262 315.5 262.2 315.5 262.4 315.5C267 315.5 271.7 315.5 276.4 315.5ZM239.1 315.5C236.7 317 234.2 318.6 231.8 320.1C229.4 318.6 226.9 317 224.5 315.5C227.8 315.5 231.1 315.5 234.3 315.5C235.8 315.5 237.5 315.5 239.1 315.5ZM201.8 315.5C199.4 317 196.9 318.6 194.5 320.1C192.1 318.6 189.6 317 187.2 315.5C188.8 315.5 190.4 315.5 192.1 315.5C195.3 315.5 198.5 315.5 201.8 315.5ZM183.2 315.5C181.4 316.6 179.6 317.8 177.8 318.9V315.8C177.8 315.7 177.8 315.5 177.8 315.4C179.5 315.5 181.3 315.5 183.2 315.5ZM261.7 235.4C264.1 233.9 266.6 232.3 269 230.8C271.4 232.3 273.9 233.9 276.3 235.4C271.6 235.4 266.9 235.4 262.2 235.4C262.1 235.4 261.9 235.4 261.7 235.4ZM277.3 234.8C274.9 233.3 272.4 231.7 270 230.2C272.4 228.7 274.9 227.1 277.3 225.6C277.3 228.6 277.3 231.7 277.3 234.8ZM276.4 224.9C274 226.4 271.5 228 269.1 229.5C266.7 228 264.2 226.4 261.8 224.9C262 224.9 262.2 224.9 262.4 224.9C267 224.9 271.7 224.9 276.4 224.9ZM177.7 144.3V141.2C179.5 142.3 181.3 143.5 183.1 144.6C181.3 144.6 179.4 144.6 177.6 144.6C177.7 144.6 177.7 144.5 177.7 144.3ZM187.1 144.7C189.5 143.2 192 141.6 194.4 140.1C196.8 141.6 199.3 143.2 201.7 144.7C198.4 144.7 195.1 144.7 191.9 144.7C190.4 144.7 188.7 144.7 187.1 144.7ZM204.5 134.6C207.1 136.2 209.6 137.8 212.2 139.5C209.6 141.1 207.1 142.7 204.5 144.4C204.5 141.1 204.5 137.9 204.5 134.6ZM213.1 140.1C215.5 141.6 218 143.2 220.4 144.7C215.5 144.7 210.6 144.7 205.7 144.7C208.2 143.2 210.7 141.6 213.1 140.1ZM221.7 144.3C219.1 142.7 216.6 141.1 214 139.4C216.6 137.8 219.1 136.2 221.7 134.5C221.7 137.9 221.7 141.1 221.7 144.3ZM223.1 134.6C225.7 136.2 228.2 137.8 230.8 139.5C228.2 141.1 225.7 142.7 223.1 144.4C223.1 141.1 223.1 137.9 223.1 134.6ZM213.1 138.9C210.7 137.4 208.2 135.8 205.8 134.3C210.7 134.3 215.6 134.3 220.5 134.3C218 135.8 215.6 137.3 213.1 138.9ZM203.1 144.3C200.5 142.7 198 141.1 195.4 139.4C198 137.8 200.5 136.2 203.1 134.5C203.1 137.9 203.1 141.1 203.1 144.3ZM224.4 144.7C226.8 143.2 229.3 141.6 231.7 140.1C234.1 141.6 236.6 143.2 239 144.7C237.4 144.7 235.8 144.7 234.1 144.7C231 144.7 227.7 144.7 224.4 144.7ZM241.7 134.6C244.3 136.2 246.8 137.8 249.4 139.5C246.8 141.1 244.3 142.7 241.7 144.4C241.7 141.1 241.7 137.9 241.7 134.6ZM250.4 140.1C252.8 141.6 255.3 143.2 257.7 144.7C252.8 144.7 247.9 144.7 243 144.7C245.5 143.2 247.9 141.6 250.4 140.1ZM259 144.3C256.4 142.7 253.9 141.1 251.3 139.4C253.9 137.8 256.4 136.2 259 134.5C259 137.9 259 141.1 259 144.3ZM260.4 134.6C263 136.2 265.5 137.8 268.1 139.5C265.5 141.1 263 142.7 260.4 144.4C260.4 141.1 260.4 137.9 260.4 134.6ZM250.4 138.9C248 137.4 245.5 135.8 243.1 134.3C248 134.3 252.9 134.3 257.8 134.3C255.3 135.8 252.8 137.3 250.4 138.9ZM240.4 144.3C237.8 142.7 235.3 141.1 232.7 139.4C235.3 137.8 237.8 136.2 240.4 134.5C240.4 137.9 240.4 141.1 240.4 144.3ZM261.7 144.7C264.1 143.2 266.6 141.6 269 140.1C271.4 141.6 273.9 143.2 276.3 144.7C271.6 144.7 266.9 144.7 262.2 144.7C262.1 144.7 261.9 144.7 261.7 144.7ZM277.3 144.1C274.9 142.6 272.4 141 270 139.5C272.4 138 274.9 136.4 277.3 134.9C277.3 137.9 277.3 141 277.3 144.1ZM276.4 134.2C274 135.7 271.5 137.3 269.1 138.8C266.7 137.3 264.2 135.7 261.8 134.2C262 134.2 262.2 134.2 262.4 134.2C267 134.2 271.7 134.2 276.4 134.2ZM239.1 134.2C236.7 135.7 234.2 137.3 231.8 138.8C229.4 137.3 226.9 135.7 224.5 134.2C227.8 134.2 231.1 134.2 234.3 134.2C235.8 134.2 237.5 134.2 239.1 134.2ZM201.8 134.2C199.4 135.7 196.9 137.3 194.5 138.8C192.1 137.3 189.6 135.7 187.2 134.2C188.8 134.2 190.4 134.2 192.1 134.2C195.3 134.2 198.5 134.2 201.8 134.2ZM183.2 134.2C181.4 135.3 179.6 136.5 177.8 137.6V134.5C177.8 134.4 177.8 134.2 177.8 134.1C179.5 134.2 181.3 134.2 183.2 134.2Z" fill="url(#paint36_linear)"/>
<path id="Vector_38" d="M309.7 136.4C309.7 136.4 450.5 152.3 436.4 112.6C425.6 82.1 405.5 110.6 395.9 107.2C387.4 104.3 390.7 82.9 367.6 85.3C344.5 87.7 353 110.4 345.6 116.4C337.6 122.9 308.8 107.2 309.7 136.4Z" fill="url(#paint37_linear)"/>
<path id="Vector_39" d="M384.3 141.3C384.3 141.3 469.3 150.9 460.9 126.9C454.4 108.5 442.2 125.7 436.4 123.7C431.3 122 433.3 109 419.3 110.5C405.3 112 410.5 125.7 406 129.3C401.2 133.1 383.8 123.7 384.3 141.3Z" fill="url(#paint38_linear)"/>
<path id="x3C Path x3E  1" d="M256.7 462.9C385.161 462.9 489.3 456.811 489.3 449.3C489.3 441.789 385.161 435.7 256.7 435.7C128.239 435.7 24.1 441.789 24.1 449.3C24.1 456.811 128.239 462.9 256.7 462.9Z" fill="url(#paint39_linear)"/>
<g id="Group_11">
<g id="Group_12">
<path id="Vector_40" d="M341 209.4L322.5 212.3C321.1 212.5 319.7 211.6 319.5 210.1L315.3 183.6C315.1 182.2 316 180.8 317.5 180.6L336 177.7C337.4 177.5 338.8 178.4 339 179.9L343.2 206.4C343.4 207.8 342.4 209.2 341 209.4Z" fill="#15557C"/>
<path id="Vector_41" d="M339 180.4C338.9 179.5 338.4 178.8 337.7 178.4L321.2 212.2C321.7 212.4 322.3 212.5 322.8 212.4L340.5 209.6C342.2 209.3 343.3 207.8 343 206.1L339 180.4Z" fill="#318BCF"/>
<path id="Vector_42" d="M340.5 209.5C342.2 209.2 343.3 207.7 343 206L338.9 180.4C338.6 178.7 337.1 177.6 335.4 177.9L317.7 180.7C316 181 314.9 182.5 315.2 184.2L319.3 209.8C319.6 211.5 321.1 212.6 322.8 212.3L340.5 209.5ZM320.5 209.6L316.4 184C316.3 183.5 316.4 183 316.7 182.6C317 182.2 317.4 181.9 317.9 181.8L335.6 179C335.7 179 335.8 179 335.9 179C336.8 179 337.6 179.7 337.8 180.6L341.9 206.2C342 206.7 341.9 207.2 341.6 207.6C341.3 208 340.9 208.3 340.4 208.4L322.7 211.2C321.6 211.3 320.7 210.6 320.5 209.6Z" fill="#1A2E35"/>
<path id="Vector_43" opacity="0.9" d="M336.7 196.2L322.8 198.4C321.7 198.6 320.8 197.8 320.6 196.8L320.4 195.6C320.2 194.5 321 193.6 322 193.4L335.9 191.2C337 191 337.9 191.8 338.1 192.8L338.3 194C338.5 195 337.7 196 336.7 196.2Z" fill="white"/>
<g id="Group_13">
<g id="Group_14">
<path id="Vector_44" d="M324 196.9C323.8 196.9 323.6 196.8 323.5 196.7L323.6 196.3C323.7 196.4 323.9 196.4 324 196.4C324.2 196.4 324.3 196.4 324.5 196.4C324.7 196.4 324.8 196.3 324.9 196.2C325 196.1 325 196 325 195.9C325 195.8 325 195.8 324.9 195.7C324.8 195.7 324.8 195.6 324.7 195.6C324.6 195.6 324.5 195.6 324.4 195.6C324.2 195.6 324 195.6 323.9 195.5C323.8 195.5 323.7 195.4 323.6 195.3C323.5 195.2 323.4 195.1 323.4 194.9C323.4 194.8 323.4 194.6 323.5 194.5C323.6 194.4 323.7 194.3 323.8 194.2C323.9 194.1 324.1 194 324.4 194C324.6 194 324.7 194 324.9 194C325.1 194 325.2 194.1 325.3 194.1L325.2 194.5C325.1 194.5 325 194.4 324.8 194.4C324.7 194.4 324.6 194.4 324.4 194.4C324.2 194.4 324.1 194.5 324 194.6C323.9 194.7 323.9 194.8 323.9 194.9C323.9 195 323.9 195 324 195.1C324.1 195.1 324.1 195.2 324.2 195.2C324.3 195.2 324.4 195.2 324.5 195.2C324.7 195.2 324.9 195.2 325 195.3C325.1 195.3 325.2 195.4 325.3 195.5C325.4 195.6 325.5 195.7 325.5 195.9C325.5 196 325.5 196.2 325.4 196.3C325.3 196.4 325.2 196.5 325.1 196.6C325 196.7 324.8 196.8 324.5 196.8C324.4 197 324.2 197 324 196.9Z" fill="#1A2E35"/>
<path id="Vector_45" d="M326.3 194.4L325.5 194.5L325.4 194.1L327.6 193.8L327.7 194.2L326.9 194.3L327.2 196.5L326.7 196.6L326.3 194.4Z" fill="#1A2E35"/>
<path id="Vector_46" d="M329.8 195.5L328.5 195.7L328.3 196.3L327.8 196.4L328.5 193.7L329 193.6L330.6 196L330.1 196.1L329.8 195.5ZM329.6 195.1L328.9 194.1L328.6 195.3L329.6 195.1Z" fill="#1A2E35"/>
<path id="Vector_47" d="M332.8 195.6L332.2 194.9H332.1L331.5 195L331.6 195.7L331.1 195.8L330.7 193.2L331.8 193C332 193 332.2 193 332.4 193C332.6 193 332.7 193.1 332.8 193.3C332.9 193.4 333 193.6 333 193.8C333 194 333 194.2 332.9 194.3C332.8 194.5 332.7 194.6 332.5 194.7L333.2 195.4L332.8 195.6ZM332.3 193.6C332.2 193.5 332 193.5 331.8 193.5L331.2 193.6L331.4 194.6L332 194.5C332.2 194.5 332.4 194.4 332.5 194.3C332.6 194.2 332.6 194.1 332.6 193.9C332.5 193.8 332.4 193.7 332.3 193.6Z" fill="#1A2E35"/>
<path id="Vector_48" d="M334 193.2L333.2 193.3L333.1 192.9L335.3 192.6L335.4 193L334.6 193.1L334.9 195.3L334.4 195.4L334 193.2Z" fill="#1A2E35"/>
</g>
</g>
</g>
<g id="Group_15">
<path id="Vector_49" d="M376.9 165.3C376.7 165.9 376.9 166.5 377.3 166.7C377.7 166.8 378.3 166.4 378.4 165.8C378.6 165.2 378.4 164.6 378 164.4C377.6 164.2 377.1 164.6 376.9 165.3Z" fill="#1A2E35"/>
<path id="Vector_50" d="M379.3 167.8L373.9 170.8C373.9 170.8 374.9 172.7 377.4 173.1L379.3 167.8Z" fill="#F1C183"/>
<path id="Vector_51" d="M380.2 163.4C380.1 163.4 380 163.3 379.9 163.2C379.5 162.4 378.7 161.9 377.8 161.8C377.6 161.8 377.5 161.6 377.5 161.4C377.5 161.2 377.7 161.1 377.9 161.1C379 161.2 380 161.8 380.6 162.8C380.7 163 380.6 163.2 380.5 163.3C380.3 163.4 380.3 163.4 380.2 163.4Z" fill="#1A2E35"/>
<path id="Vector_52" d="M402.4 169.6C400.2 178.1 399.5 181.8 394.2 185.5C386.5 188.8 376 186.6 375.5 177.6C375.1 169.5 378.7 156.9 388 155C394.6 153.6 401.2 157.7 402.6 164.2C402.9 165.9 402.9 167.8 402.4 169.6Z" fill="#FFD194"/>
<path id="Vector_53" d="M385.6 168.2L375.9 162.1C375.9 162.1 373 168.5 374.2 168.9C375.4 169.3 377.3 164.3 377.3 164.3L384.2 168.1L385.6 168.2Z" fill="#318BCF"/>
<path id="Vector_54" opacity="0.7" d="M377 164.4L376.3 163.9C376.3 163.9 374 168.4 374.5 168.8C375 169.3 377 164.4 377 164.4Z" fill="white"/>
<path id="Vector_55" d="M384.3 185.3C385.1 187.9 381.8 194.1 381.8 194.1L394 200.1L396.3 182.9C396.2 183 383.3 182.2 384.3 185.3Z" fill="#F1C183"/>
<path id="Vector_56" d="M384.5 173.3C384.5 173.3 382.9 168.4 386 164.3C387.3 162.6 384.9 157.6 383.4 162.1C382.4 165 376.9 159.4 380 154.6C380 154.6 387.4 145.9 393 153C393 153 406.4 154.7 405.5 163.9C405.5 163.9 409.9 175.3 395.3 186.9L390.9 186.1C388.7 185.6 386.9 182.3 386.3 180.1L384.5 173.3Z" fill="#1A2E35"/>
<path id="Vector_57" d="M384.2 168.3C382.6 169.2 381.5 170.7 381 172.5C380.4 174.8 382.6 175.9 384.8 175.2C386.8 174.6 389.5 172.6 389 170.3C388.6 167.9 386.1 167.2 384.2 168.3Z" fill="#F1C183"/>
<path id="Vector_58" d="M402.3 157.8C402.3 157.8 398.2 155.6 398.4 159.6C398.7 163.6 401.6 169.2 405.1 168.8C408.6 168.4 402.3 157.8 402.3 157.8Z" fill="#318BCF"/>
<path id="Vector_59" d="M405.8 154.6C403.7 154.5 401.7 156.1 401 158.1C400.4 160.1 401 162.4 402.2 164.1C403.5 165.8 405.3 172.6 404.6 173.5C403.6 174.8 404 176.6 403.6 178.2C401.6 185.1 408.2 187.7 409.4 187.7C410.6 188.4 412 188.6 413.2 188.2C414 188 417 187.3 415.6 183.3C415.6 184 414.4 184.7 413.6 184.6C412.8 184.5 412.1 184 411.8 183.3C411.5 182.6 413.7 185.1 416.2 182.3C417.2 181.2 417.4 177.8 416.7 176.5C418.2 174.2 419.5 171.5 419.7 168.7C419.8 166.4 419 164 417.3 162.4C418.7 160.1 417.9 156.9 416 155C414 153.1 411.1 152.5 408.4 153C407.2 153.2 405.8 153.9 405.6 155.1" fill="#1A2E35"/>
</g>
<g id="Group_16">
<g id="Group_17">
<path id="Vector_60" d="M359.6 214.2C359.6 214.2 354.2 207.3 352.4 205C351.1 203.5 348.7 200.2 347.1 199.1C345.4 197.9 340.9 195.8 338.8 196.1C338.4 196.1 338 196.2 338 196.6C338 197.6 340.8 198.8 342.6 199.4C343.4 199.7 343.7 200.6 343.3 201.3C342.6 202.6 341.6 205.5 341.9 206.3C342.3 207.4 344.5 208.6 345.4 209.2C346.2 209.8 348.9 211.2 348.9 211.2L355.3 221.4L359.6 214.2Z" fill="#FFD194"/>
<path id="Vector_61" opacity="0.1" d="M359.6 214.2C359.6 214.2 354.2 207.3 352.4 205C351.1 203.5 348.7 200.2 347.1 199.1C345.4 197.9 340.9 195.8 338.8 196.1C338.4 196.1 338 196.2 338 196.6C338 197.6 340.8 198.8 342.6 199.4C343.4 199.7 343.7 200.6 343.3 201.3C342.6 202.6 341.6 205.5 341.9 206.3C342.3 207.4 344.5 208.6 345.4 209.2C346.2 209.8 348.9 211.2 348.9 211.2L355.3 221.4L359.6 214.2Z" fill="#FFD194"/>
</g>
<path id="Vector_62" d="M353.5 219.2C353.5 219.2 361.5 236.4 370.3 240.3C379.2 244.2 380.3 244.1 397.1 227.8C413.9 211.5 410.9 202 404.9 200.2C398.9 198.4 394.3 205 389 212.6C383.6 220.1 375.8 227.4 375.8 227.4L359 213.1C359 213.1 354.4 213.6 353.5 219.2Z" fill="#262D40"/>
</g>
<g id="Group_18">
<path id="Vector_63" d="M340.8 429L339.7 445.9L347.5 447.1L351.6 430.6L340.8 429Z" fill="#FFD194"/>
<path id="Vector_64" d="M340 441.9L348.2 442.5C348.6 442.5 348.9 442.8 349 443.2L350.7 451.8C350.9 452.6 350.4 453.3 349.6 453.4C349.5 453.4 349.4 453.4 349.3 453.4C345.5 453.2 342.2 452.9 337.5 452.8C332 452.7 333.4 453.4 326.8 453.3C322.9 453.2 322.3 448.8 323.9 448.6C331.5 447.8 334.7 445.2 337.7 442.6C338.4 442.1 339.2 441.9 340 441.9Z" fill="#262D40"/>
<path id="Vector_65" d="M348.9 441.5L340 440.7L340.8 429L351.6 430.6L348.9 441.5Z" fill="#F1C183"/>
</g>
<g id="Group_19">
<path id="Vector_66" d="M398.1 424.7L402.2 445.9L409.7 445.2L408.9 424.7H398.1Z" fill="#FFD194"/>
<path id="Vector_67" d="M401.4 443.2L410.8 443.1C411.2 443.1 411.5 443.3 411.5 443.7L413.3 451.3C413.5 452 413.1 452.6 412.4 452.8C412.3 452.8 412.2 452.8 412.1 452.8C408.7 452.8 405.7 452.7 401.5 452.7C396.5 452.8 397.8 453.3 392 453.5C388.5 453.6 387.8 449.6 389.3 449.4C396.1 448.4 396.8 446.4 399.4 443.9C399.9 443.4 400.6 443.2 401.4 443.2Z" fill="#262D40"/>
<path id="Vector_68" d="M409.5 440.5L401.3 441.3L398.2 425.7C401.8 425.5 407.7 425.3 408.9 425.2L409.5 440.5Z" fill="#F1C183"/>
</g>
<path id="Vector_69" d="M410.2 437.3L400 438L380.3 348.2L376.3 328.4L371 302L364.5 266.3H398.2C398.2 266.3 404.4 281.9 401.6 299.2C399.9 310.1 400.2 325.1 400.3 336.8C400.3 340.2 400.4 343.2 400.4 345.5C400.4 348.4 401 351.3 402 354C402.7 355.9 403.5 358.5 404.4 361.8C405.7 367 407.1 371.4 407.7 379.5C409.3 399.2 410.2 437.3 410.2 437.3Z" fill="#007CFF"/>
<path id="Vector_70" d="M410.2 437.3L400 438L380.3 348.2L376.3 328.4L371 302L364.5 266.3H398.2C398.2 266.3 404.4 281.9 401.6 299.2C399.9 310.1 400.2 325.1 400.3 336.8C400.3 340.2 400.4 343.2 400.4 345.5C400.4 348.4 401 351.3 402 354C402.7 355.9 403.5 358.5 404.4 361.8C405.7 367 407.1 371.4 407.7 379.5C409.3 399.2 410.2 437.3 410.2 437.3Z" fill="#318BCF"/>
<path id="Vector_71" d="M388.2 294C388.2 294 378.8 309 376.3 328.4L371 302L371.1 301.3L380.2 294.5L383.2 293.2L388.2 294Z" fill="#15557C"/>
<path id="Vector_72" d="M356.6 266.3L339.8 436.1L350.1 437.6C350.1 437.6 363.4 394.2 365.4 369C365.6 366 365.7 363.3 365.6 361C365.4 357.6 365.9 354.1 366.9 350.9L368.3 346.2L376.1 317.3C377.7 311.7 380.3 306.5 384 301.9C388.2 296.7 393.9 283.2 391.5 266.7L365.9 266.3H356.6V266.3Z" fill="#318BCF"/>
<g id="Group_20">
<path id="Vector_73" d="M352 435L350.5 439.3L338.3 437.5L338.6 433L352 435Z" fill="#15557C"/>
<path id="Vector_74" opacity="0.2" d="M352 435L350.5 439.3L338.3 437.5L338.6 433L352 435Z" fill="#15557C"/>
</g>
<g id="Group_21">
<path id="Vector_75" d="M411.5 434.3L411.4 438.7L399.2 439.7L398.5 435.2L411.5 434.3Z" fill="#15557C"/>
<path id="Vector_76" opacity="0.2" d="M411.5 434.3L411.4 438.7L399.2 439.7L398.5 435.2L411.5 434.3Z" fill="#15557C"/>
</g>
<path id="Vector_77" d="M407.4 204.4C407.5 218 398.2 224.3 397.9 260C397.9 260 396.5 266.2 356.9 259.7C356.9 259.7 357.6 252.9 356.8 235.7C356.8 235.2 356.8 234.8 356.7 234.3C356.3 226.1 356.1 218.4 356.3 213.7C356.3 213 356.4 212.3 356.4 211.7C356.5 211.1 356.5 210.5 356.6 210.1C358.3 200.9 359.3 197.2 362.6 195C374.9 187.2 407.3 195.8 407.4 204.4Z" fill="#262D40"/>
<path id="Vector_78" d="M356.8 234.3C356.4 226.1 356.2 218.4 356.4 213.7C356.4 213 356.5 212.3 356.5 211.7L365.5 199.9L369.3 201.5C369.3 201.6 372.8 216 356.8 234.3Z" fill="#0D0F14"/>
<path id="Vector_79" d="M332.9 212.8L324.5 206.3C324.5 206.3 324.6 201.5 322.9 198.3C321.5 195.7 315.1 190.9 315.2 197.2C315.3 203.5 315.6 203.1 316.7 205.3C317.4 206.7 318.5 207.2 320.7 209.6C323 212 327 217.8 327 217.8L332.9 212.8Z" fill="#FFD194"/>
<path id="Vector_80" d="M324.9 217.1C324.9 217.1 334.7 230.3 338.6 233.7C344.2 238.5 352.9 236.9 361.1 223.4C373.2 203.4 372.3 196.4 366.2 195.2C360.1 194 357.1 201.8 352.5 209.8C347.9 217.8 344.8 222.9 344.8 222.9L331.2 210.4C331.2 210.2 325.3 211.4 324.9 217.1Z" fill="#262D40"/>
<path id="Vector_81" d="M380 193.4C380 193.4 384.4 185.7 396.5 190.9C403.5 193.9 396.5 197.9 396.5 197.9L380 193.4Z" fill="#262D40"/>
<path id="Vector_82" d="M382.8 192.6C382.8 192.6 393.1 190.5 398.3 196.1L382.8 192.6Z" fill="#0D0F14"/>
<path id="Vector_83" d="M356.9 259.7L397.9 260L398.2 266.3H356.6L356.9 259.7Z" fill="#007CFF"/>
<path id="Vector_84" d="M356.9 259.7L397.9 260L398.2 266.3H356.6L356.9 259.7Z" fill="#15557C"/>
</g>
<path id="Vector_85" d="M214.4 233.5C212.4 233.7 210 233.3 208 233.5C208.6 218.5 205.6 196.7 198.9 179.4C210.7 195.2 213.7 213.8 214.4 233.5Z" fill="white"/>
<g id="Group_22">
<g id="Group_23">
<path id="Vector_86" d="M209 345.5L205.2 377.5C205.2 377.5 212.4 372.9 214.4 383.1C214.4 383.1 214.5 375.9 220.3 375.3C226.5 374.7 227.5 381.8 227.5 381.8C227.5 381.8 227.7 372.9 235.6 371.9L232.1 345.6H209V345.5Z" fill="url(#paint40_linear)"/>
<g id="Group_24">
<g id="Group_25">
<g id="Group_26">
<path id="Vector_87" d="M168.9 400.2C168.9 400.2 148.8 401.5 149.4 398.6C150 395.7 164.9 395.3 164.9 395.3C164.9 395.3 155.6 391.3 159.6 385.6C163.8 379.8 171.3 387 171.3 387C171.3 387 166.5 380.2 171.4 376.3C177.6 371.3 182.9 381.2 182.9 381.2C182.9 381.2 181.5 373.6 187.1 373.7C192.7 373.8 191.1 381.1 191.1 381.1C191.1 381.1 198.9 374.6 203 378.9C206.8 382.9 201.6 388.4 201.6 388.4C201.6 388.4 209.7 383.3 212.2 388C214.6 392.7 205.9 396.9 205.9 396.9C205.9 396.9 222.8 396.1 223.4 398.7C223.9 401.3 181.9 398.7 168.9 400.2Z" fill="url(#paint41_linear)"/>
<path id="Vector_88" opacity="0.7" d="M168.9 400.2C168.9 400.2 148.8 401.5 149.4 398.6C150 395.7 164.9 395.3 164.9 395.3C164.9 395.3 155.6 391.3 159.6 385.6C163.8 379.8 171.3 387 171.3 387C171.3 387 166.5 380.2 171.4 376.3C177.6 371.3 182.9 381.2 182.9 381.2C182.9 381.2 181.5 373.6 187.1 373.7C192.7 373.8 191.1 381.1 191.1 381.1C191.1 381.1 198.9 374.6 203 378.9C206.8 382.9 201.6 388.4 201.6 388.4C201.6 388.4 209.7 383.3 212.2 388C214.6 392.7 205.9 396.9 205.9 396.9C205.9 396.9 222.8 396.1 223.4 398.7C223.9 401.3 181.9 398.7 168.9 400.2Z" fill="url(#paint42_linear)"/>
</g>
<g id="Group_27">
<path id="Vector_89" d="M236.7 399C236.7 399 216.6 400.3 217.2 397.4C217.8 394.5 232.7 394.1 232.7 394.1C232.7 394.1 223.4 390.1 227.4 384.4C231.6 378.6 239.1 385.8 239.1 385.8C239.1 385.8 234.3 379 239.2 375.1C245.4 370.1 250.7 380 250.7 380C250.7 380 249.3 372.4 254.9 372.5C260.5 372.6 258.9 379.9 258.9 379.9C258.9 379.9 266.7 373.4 270.8 377.7C274.6 381.7 269.4 387.2 269.4 387.2C269.4 387.2 277.5 382.1 280 386.8C282.4 391.5 273.7 395.7 273.7 395.7C273.7 395.7 290.6 394.9 291.2 397.5C291.7 400.1 249.7 397.5 236.7 399Z" fill="url(#paint43_linear)"/>
<path id="Vector_90" opacity="0.7" d="M236.7 399C236.7 399 216.6 400.3 217.2 397.4C217.8 394.5 232.7 394.1 232.7 394.1C232.7 394.1 223.4 390.1 227.4 384.4C231.6 378.6 239.1 385.8 239.1 385.8C239.1 385.8 234.3 379 239.2 375.1C245.4 370.1 250.7 380 250.7 380C250.7 380 249.3 372.4 254.9 372.5C260.5 372.6 258.9 379.9 258.9 379.9C258.9 379.9 266.7 373.4 270.8 377.7C274.6 381.7 269.4 387.2 269.4 387.2C269.4 387.2 277.5 382.1 280 386.8C282.4 391.5 273.7 395.7 273.7 395.7C273.7 395.7 290.6 394.9 291.2 397.5C291.7 400.1 249.7 397.5 236.7 399Z" fill="url(#paint44_linear)"/>
</g>
<g id="Group_28">
<path id="Vector_91" d="M197.8 373.1C197.8 373.1 187.3 368.6 191.9 362.1C196.6 355.5 205.1 363.7 205.1 363.7C205.1 363.7 199.7 356.1 205.2 351.6C212.2 346 218.2 357.1 218.2 357.1C218.2 357.1 216.6 348.5 222.9 348.7C229.2 348.9 227.4 357 227.4 357C227.4 357 236.2 349.7 240.8 354.5C245.1 359 239.2 365.2 239.2 365.2C239.2 365.2 248.4 359.4 251.1 364.8C253.8 370.1 244 374.8 244 374.8L197.8 373.1Z" fill="url(#paint45_linear)"/>
<path id="Vector_92" opacity="0.6" d="M197.8 373.1C197.8 373.1 187.3 368.6 191.9 362.1C196.6 355.5 205.1 363.7 205.1 363.7C205.1 363.7 199.7 356.1 205.2 351.6C212.2 346 218.2 357.1 218.2 357.1C218.2 357.1 216.6 348.5 222.9 348.7C229.2 348.9 227.4 357 227.4 357C227.4 357 236.2 349.7 240.8 354.5C245.1 359 239.2 365.2 239.2 365.2C239.2 365.2 248.4 359.4 251.1 364.8C253.8 370.1 244 374.8 244 374.8L197.8 373.1Z" fill="url(#paint46_linear)"/>
</g>
<path id="Vector_93" d="M192.6 400.4C192.6 400.4 163 402.3 163.9 398C164.9 393.7 186.7 393.2 186.7 393.2C186.7 393.2 173 387.3 179 378.9C185.1 370.3 196.2 381 196.2 381C196.2 381 189.1 371 196.4 365.2C205.5 357.9 213.3 372.4 213.3 372.4C213.3 372.4 211.2 361.2 219.5 361.4C227.7 361.6 225.4 372.3 225.4 372.3C225.4 372.3 236.9 362.8 242.9 369C248.5 374.8 240.8 383 240.8 383C240.8 383 252.8 375.5 256.4 382.4C260 389.3 247.1 395.4 247.1 395.4C247.1 395.4 272 394.2 272.8 398C273.5 402 211.7 398.2 192.6 400.4Z" fill="url(#paint47_linear)"/>
<path id="Vector_94" opacity="0.8" d="M192.6 400.4C192.6 400.4 163 402.3 163.9 398C164.9 393.7 186.7 393.2 186.7 393.2C186.7 393.2 173 387.3 179 378.9C185.1 370.3 196.2 381 196.2 381C196.2 381 189.1 371 196.4 365.2C205.5 357.9 213.3 372.4 213.3 372.4C213.3 372.4 211.2 361.2 219.5 361.4C227.7 361.6 225.4 372.3 225.4 372.3C225.4 372.3 236.9 362.8 242.9 369C248.5 374.8 240.8 383 240.8 383C240.8 383 252.8 375.5 256.4 382.4C260 389.3 247.1 395.4 247.1 395.4C247.1 395.4 272 394.2 272.8 398C273.5 402 211.7 398.2 192.6 400.4Z" fill="url(#paint48_linear)"/>
</g>
<path id="Vector_95" opacity="0.9" d="M209 347.7L205.2 379.6C205.2 379.6 212.4 375.1 214.4 385.4C214.4 385.4 214.5 378.2 220.3 377.7C226.5 377.2 227.5 384.3 227.5 384.3C227.5 384.3 227.7 375.4 235.6 374.5L232.1 348.1L209 347.7Z" fill="url(#paint49_linear)"/>
<path id="Vector_96" opacity="0.1" d="M214.2 361.1C214.2 361.1 212.6 367.3 213.6 374.4C213.6 374.4 215.4 366.7 214.2 361.1Z" fill="url(#paint50_linear)"/>
<path id="Vector_97" opacity="0.1" d="M226.7 365.5C226.7 365.5 225.6 371.2 227 377.5C227 377.5 228.1 370.5 226.7 365.5Z" fill="url(#paint51_linear)"/>
</g>
</g>
<g id="Group_29">
<g id="Group_30">
<g id="part-4">
<g id="Group_31">
<g id="Group_32">
<path id="Vector_98" d="M197.1 276.8H194.9L156.6 344.9C155.7 346.6 156.9 348.6 158.8 348.6H197.2V276.8H197.1Z" fill="#007CFF"/>
<path id="Vector_99" d="M284 344.8L245.7 276.7H243.5V348.5H281.9C283.7 348.5 284.9 346.5 284 344.8Z" fill="#007CFF"/>
</g>
<g id="Group_33">
<path id="Vector_100" d="M197.1 276.8H194.9L156.6 344.9C155.7 346.6 156.9 348.6 158.8 348.6H197.2V276.8H197.1Z" fill="#3A1340"/>
<path id="Vector_101" d="M284 344.8L245.7 276.7H243.5V348.5H281.9C283.7 348.5 284.9 346.5 284 344.8Z" fill="#3A1340"/>
</g>
<g id="Group_34">
<path id="Vector_102" d="M243.4 318C243.4 306.2 243.4 293.5 243.4 267.8C228.6 263.6 212.6 263.3 197.1 267.8C197.1 293.5 197.1 306.2 197.1 318C212.6 313.6 228.6 313.8 243.4 318Z" fill="#262D40"/>
</g>
<g id="Group_35">
<path id="Vector_103" d="M237.3 349.5L231.2 324.5H209.3L203.2 349.5C213.7 353.8 225.9 354.2 237.3 349.5Z" fill="#545F75"/>
<path id="Vector_104" opacity="0.2" d="M209.3 324.5C209.3 324.5 208.4 328.3 207.9 330.3C215.8 332.6 224.4 332.7 232.7 330.3L231.3 324.4H209.3V324.5Z" fill="#262D40"/>
<path id="Vector_105" opacity="0.4" d="M206.3 336.6C205.9 338.2 205.5 339.8 205.2 341.3C214.8 344.3 225.2 344.4 235.3 341.3L234.2 336.6C224.8 338.5 215.4 338.4 206.3 336.6Z" fill="#262D40"/>
</g>
<path id="Vector_106" d="M243.4 267.6C227.8 272 211.8 271.8 197.1 267.6C197.1 288.8 197.1 305.7 197.1 311.1C211.7 316.1 227.9 316.5 243.4 311.1C243.4 305.7 243.4 288.8 243.4 267.6Z" fill="#007CFF"/>
<path id="Vector_107" d="M243.4 267.6C227.8 272 211.8 271.8 197.1 267.6C197.1 288.8 197.1 305.7 197.1 311.1C211.7 316.1 227.9 316.5 243.4 311.1C243.4 305.7 243.4 288.8 243.4 267.6Z" fill="#A151AF"/>
<path id="Vector_108" d="M197.1 311.1V321.7C211.4 327.6 228 328.1 243.4 321.7V311.1C227.9 316.5 211.7 316.1 197.1 311.1Z" fill="#007CFF"/>
<path id="Vector_109" d="M197.1 311.1V321.7C211.4 327.6 228 328.1 243.4 321.7V311.1C227.9 316.5 211.7 316.1 197.1 311.1Z" fill="#3A1340"/>
<g id="Group_36">
<path id="Vector_110" d="M186.8 292.5C186.8 292.5 186.8 293.8 186.8 296.1C193.4 298 200.5 298.1 207.4 296.1C207.4 293.8 207.4 292.5 207.4 292.5C207.4 282.8 203.5 274 197.1 267.6C190.7 273.9 186.8 282.7 186.8 292.5Z" fill="#53285A"/>
<path id="Vector_111" d="M186.8 296C186.8 301.2 186.8 311.6 186.8 323.1C193.4 325 200.5 325.1 207.4 323.1C207.4 311.7 207.4 301.3 207.4 296C200.5 298 193.4 297.9 186.8 296Z" fill="#7F358A"/>
<path id="Vector_112" d="M207.4 323.1C200.5 325.1 193.3 325 186.8 323.1C186.8 332.5 186.8 342.5 186.8 351C193.4 352.9 200.5 353 207.4 351C207.4 342.5 207.4 332.5 207.4 323.1Z" fill="#A151AF"/>
<path id="Vector_113" d="M186.8 350.5V355.2C193.2 357.8 200.6 358 207.4 355.2V350.5C200.5 352.9 193.3 352.7 186.8 350.5Z" fill="#3A1340"/>
</g>
<path id="Vector_114" opacity="0.4" d="M197.1 271.1C197.1 271.1 200.8 280.3 200.8 288.3C200.8 296.3 200.8 348.7 200.8 348.7L203.9 348.1V284.7C203.9 284.7 203.4 276.3 197.1 271.1Z" fill="white"/>
<g id="Group_37">
<path id="Vector_115" d="M233.1 292.5C233.1 292.5 233.1 293.8 233.1 296.1C239.7 298 246.8 298.1 253.7 296.1C253.7 293.8 253.7 292.5 253.7 292.5C253.7 282.8 249.8 274 243.4 267.6C237 273.9 233.1 282.7 233.1 292.5Z" fill="#53285A"/>
<path id="Vector_116" d="M233.1 296C233.1 301.2 233.1 311.6 233.1 323.1C239.7 325 246.8 325.1 253.7 323.1C253.7 311.7 253.7 301.3 253.7 296C246.8 298 239.7 297.9 233.1 296Z" fill="#7F358A"/>
<path id="Vector_117" d="M253.7 323.1C246.8 325.1 239.6 325 233.1 323.1C233.1 332.5 233.1 342.5 233.1 351C239.7 352.9 246.8 353 253.7 351C253.7 342.5 253.7 332.5 253.7 323.1Z" fill="#A151AF"/>
<path id="Vector_118" d="M233.1 350.5V355.2C239.5 357.8 246.9 358 253.7 355.2V350.5C246.8 352.9 239.6 352.7 233.1 350.5Z" fill="#3A1340"/>
</g>
<path id="Vector_119" opacity="0.4" d="M243.6 271.8C243.6 271.8 247.3 281 247.3 289C247.3 297 247.3 349.4 247.3 349.4L250.4 348.8V285.4C250.4 285.4 250 277 243.6 271.8Z" fill="white"/>
</g>
<g id="Group_38" opacity="0.8">
<path id="Vector_120" opacity="0.8" d="M226.5 302.1H224.4V304.8H221.5V302.1H214.5V300.1L220.6 291.9H223.7L218 299.7H221.5V297.3H224.3V299.7H226.4V302.1H226.5Z" fill="white"/>
</g>
</g>
<g id="part-3">
<g id="Group_39">
<g id="Group_40">
<path id="Vector_121" d="M243.4 259.1C243.4 247.3 243.4 224 243.4 198.3C228.6 194.1 212.6 193.8 197.1 198.3C197.1 224 197.1 247.3 197.1 259.1C212.6 254.6 228.6 254.8 243.4 259.1Z" fill="#262D40"/>
</g>
<path id="Vector_122" d="M238.8 206.1H201.8L173.9 255.7C173.2 256.9 174.1 258.4 175.5 258.4H265.3C266.7 258.4 267.6 256.9 266.9 255.7L238.8 206.1Z" fill="#15557C"/>
<path id="Vector_123" d="M243.4 198.4C227.8 202.8 211.8 202.6 197.1 198.4C197.1 219.4 197.1 241.9 197.1 261C211.9 265.2 227.9 265.5 243.4 261C243.4 241.9 243.4 219.4 243.4 198.4Z" fill="#318BCF"/>
<path id="Vector_124" opacity="0.4" d="M231.6 205.7V260C231.6 260 237.1 260.9 239.1 258.1V203.9L238.8 204.1C236.5 205.1 234 205.6 231.6 205.7Z" fill="white"/>
</g>
<g id="Group_41">
<path id="Vector_125" d="M224.2 232C224.8 232.7 225.1 233.5 225.1 234.4C225.1 235.2 224.9 235.8 224.5 236.5C224.1 237.1 223.5 237.6 222.7 238C221.9 238.4 220.9 238.6 219.7 238.6C218.8 238.6 217.9 238.5 217 238.2C216.1 238 215.4 237.6 214.8 237.2L216 234.9C216.5 235.3 217.1 235.6 217.7 235.8C218.3 236 219 236.1 219.7 236.1C220.5 236.1 221 236 221.5 235.7C221.9 235.4 222.1 235 222.1 234.5C222.1 233.4 221.3 232.9 219.7 232.9H218.3V230.9L221 227.9H215.5V225.5H224.6V227.4L221.7 230.7C222.7 230.9 223.6 231.3 224.2 232Z" fill="white"/>
</g>
</g>
<g id="part-2">
<g id="Group_42">
<path id="Vector_126" d="M243.4 191.7C243.4 179.9 243.4 156.6 243.4 130.9C228.6 126.7 212.6 126.4 197.1 130.9C197.1 156.6 197.1 179.9 197.1 191.7C212.6 187.2 228.6 187.5 243.4 191.7Z" fill="#262D40"/>
<path id="Vector_127" d="M197.1 131C197.1 142.8 197.1 166.1 197.1 191.8C211.9 196 227.9 196.3 243.4 191.8C243.4 166.1 243.4 142.8 243.4 131C227.9 135.5 211.9 135.2 197.1 131Z" fill="#A151AF"/>
<path id="Vector_128" opacity="0.4" d="M231.6 137.2V191.5C231.6 191.5 237.1 192.4 239.1 189.6V135.4L238.8 135.6C236.5 136.6 234 137.2 231.6 137.2Z" fill="white"/>
<g id="Group_43">
<path id="Vector_129" d="M220.4 181.1C230.396 181.1 238.5 172.996 238.5 163C238.5 153.004 230.396 144.9 220.4 144.9C210.404 144.9 202.3 153.004 202.3 163C202.3 172.996 210.404 181.1 220.4 181.1Z" fill="#7F358A"/>
<g id="Group_44">
<path id="Vector_130" d="M220.4 181.1C210.8 181.1 203 173.7 202.3 164.3C202.3 164.8 202.2 165.2 202.2 165.7C202.2 175.7 210.3 183.8 220.3 183.8C230.3 183.8 238.4 175.7 238.4 165.7C238.4 165.2 238.4 164.8 238.3 164.3C237.7 173.7 229.9 181.1 220.4 181.1Z" fill="#3A1340"/>
<path id="Vector_131" opacity="0.3" d="M220.4 181.1C210.8 181.1 203 173.7 202.3 164.3C202.3 164.8 202.2 165.2 202.2 165.7C202.2 175.7 210.3 183.8 220.3 183.8C230.3 183.8 238.4 175.7 238.4 165.7C238.4 165.2 238.4 164.8 238.3 164.3C237.7 173.7 229.9 181.1 220.4 181.1Z" fill="#3A1340"/>
</g>
<path id="Vector_132" d="M220.4 175.8C227.469 175.8 233.2 170.069 233.2 163C233.2 155.931 227.469 150.2 220.4 150.2C213.331 150.2 207.6 155.931 207.6 163C207.6 170.069 213.331 175.8 220.4 175.8Z" fill="#A151AF"/>
</g>
</g>
<g id="Group_45" opacity="0.8">
<path id="Vector_133" opacity="0.8" d="M225.2 166.7V169.1H215.4V167.2L220.4 162.5C220.9 162 221.3 161.6 221.5 161.2C221.7 160.8 221.8 160.5 221.8 160.1C221.8 159.6 221.6 159.2 221.3 158.9C220.9 158.6 220.4 158.5 219.8 158.5C219.2 158.5 218.7 158.6 218.3 158.8C217.8 159 217.5 159.3 217.2 159.8L215 158.4C215.5 157.6 216.2 157.1 217.1 156.6C218 156.2 219 156 220.1 156C221.1 156 221.9 156.2 222.6 156.5C223.3 156.8 223.9 157.3 224.3 157.8C224.7 158.4 224.9 159 224.9 159.8C224.9 160.5 224.8 161.2 224.5 161.8C224.2 162.4 223.6 163.1 222.8 163.9L219.8 166.7H225.2V166.7Z" fill="white"/>
</g>
</g>
<g id="part-1">
<g id="Group_46">
<path id="Vector_134" d="M197.1 116.4C197.1 116.4 197.1 119.3 197.1 124.4C211.9 128.6 227.9 128.9 243.4 124.4C243.4 119.3 243.4 116.4 243.4 116.4C243.4 94.6 234.5 74.8 220.2 60.5C205.9 74.8 197.1 94.6 197.1 116.4Z" fill="#007CFF"/>
</g>
<g id="Group_47">
<path id="Vector_135" d="M197.1 116.4C197.1 116.4 197.1 119.3 197.1 124.4C211.9 128.6 227.9 128.9 243.4 124.4C243.4 119.3 243.4 116.4 243.4 116.4C243.4 94.6 234.5 74.8 220.2 60.5C205.9 74.8 197.1 94.6 197.1 116.4Z" fill="#318BCF"/>
</g>
<g id="Group_48">
<path id="Vector_136" d="M222.3 101.3V114.2H219.3V103.7H216.7V101.3H222.3Z" fill="white"/>
</g>
</g>
</g>
<g id="Group_49">
<path id="Vector_137" opacity="0.4" d="M232.8 90.1C236.2 100.4 237.4 111.3 237.9 123C235.1 124.7 235.1 124.7 231.5 124.1C231.9 114.4 231 102.7 228.3 90.3L232.8 90.1Z" fill="white"/>
</g>
<g id="Group_50">
<path id="Vector_138" opacity="0.4" d="M227.7 86.1C226.3 80 224.5 74 222.4 68.4C226.7 74.1 229.8 80 232 86.2L227.7 86.1Z" fill="white"/>
</g>
</g>
</g>
<g id="Group_51">
<g id="Group_52">
<path id="Vector_139" d="M188.5 233.7L177.1 210.6L145.8 210.7V209.7L177.7 209.6L189.4 233.2L188.5 233.7Z" fill="#318BCF"/>
<path id="Vector_140" d="M188 236.5C190.099 236.5 191.8 234.799 191.8 232.7C191.8 230.601 190.099 228.9 188 228.9C185.901 228.9 184.2 230.601 184.2 232.7C184.2 234.799 185.901 236.5 188 236.5Z" fill="#262D40"/>
</g>
<g id="Group_53">
<g id="Group_54">
<path id="Vector_141" d="M144 232.1H107.3C104.5 232.1 102.3 229.9 102.3 227.1V190.4C102.3 187.6 104.5 185.4 107.3 185.4H144C146.8 185.4 149 187.6 149 190.4V227.1C149 229.8 146.8 232.1 144 232.1Z" fill="#318BCF"/>
<path id="Vector_142" opacity="0.4" d="M144 232.1H107.3C104.5 232.1 102.3 229.9 102.3 227.1V190.4C102.3 187.6 104.5 185.4 107.3 185.4H144C146.8 185.4 149 187.6 149 190.4V227.1C149 229.8 146.8 232.1 144 232.1Z" fill="#318BCF"/>
</g>
<g id="Group_55">
<g id="Group_56">
<g id="Group_57">
<path id="Vector_143" d="M129.8 206.6C129.8 206.3 129.8 206 129.7 205.7L132.7 203.5C132.4 202.5 132 201.6 131.6 200.7L127.9 201.2C127.5 200.7 127.1 200.3 126.6 199.9L127.1 196.2C126.2 195.7 125.3 195.3 124.3 195.1L122.1 198.1C121.8 198.1 121.5 198 121.2 198C120.9 198 120.6 198 120.3 198.1L118.1 195.1C117.1 195.4 116.2 195.8 115.3 196.2L115.8 199.9C115.3 200.3 114.9 200.7 114.5 201.2L110.8 200.7C110.3 201.6 109.9 202.5 109.7 203.5L112.7 205.7C112.7 206 112.6 206.3 112.6 206.6C112.6 206.9 112.6 207.2 112.7 207.5L109.7 209.7C110 210.7 110.4 211.6 110.8 212.5L114.5 212C114.9 212.5 115.3 212.9 115.8 213.3L115.3 217C116.2 217.5 117.1 217.9 118.1 218.1L120.3 215.1C120.6 215.1 120.9 215.2 121.2 215.2C121.5 215.2 121.8 215.2 122.1 215.1L124.3 218.1C125.3 217.8 126.2 217.4 127.1 217L126.6 213.3C127.1 212.9 127.5 212.5 127.9 212L131.6 212.5C132.1 211.6 132.5 210.7 132.7 209.7L129.7 207.5C129.8 207.3 129.8 206.9 129.8 206.6ZM121.2 209.4C119.7 209.4 118.4 208.2 118.4 206.6C118.4 205.1 119.6 203.8 121.2 203.8C122.7 203.8 124 205 124 206.6C123.9 208.2 122.7 209.4 121.2 209.4Z" fill="white"/>
<path id="Vector_144" d="M140.2 217.6C140.2 217.4 140.2 217.3 140.2 217.1L141.7 216C141.6 215.5 141.4 215 141.1 214.6L139.3 214.9C139.1 214.7 138.9 214.4 138.6 214.2L138.9 212.4C138.5 212.2 138 212 137.5 211.8L136.4 213.3C136.2 213.3 136.1 213.3 135.9 213.3C135.7 213.3 135.6 213.3 135.4 213.3L134.3 211.8C133.8 211.9 133.3 212.1 132.9 212.4L133.2 214.2C133 214.4 132.7 214.6 132.5 214.9L130.7 214.6C130.5 215 130.3 215.5 130.1 216L131.6 217.1C131.6 217.3 131.6 217.4 131.6 217.6C131.6 217.8 131.6 217.9 131.6 218.1L130.1 219.2C130.2 219.7 130.4 220.2 130.7 220.6L132.5 220.3C132.7 220.5 132.9 220.8 133.2 221L132.9 222.8C133.3 223 133.8 223.2 134.3 223.4L135.4 221.9C135.6 221.9 135.7 221.9 135.9 221.9C136.1 221.9 136.2 221.9 136.4 221.9L137.5 223.4C138 223.3 138.5 223.1 138.9 222.8L138.6 221C138.8 220.8 139.1 220.6 139.3 220.3L141.1 220.6C141.3 220.2 141.5 219.7 141.7 219.2L140.2 218.1C140.2 217.9 140.2 217.7 140.2 217.6ZM135.9 220.5C134.3 220.5 132.9 219.2 132.9 217.5C132.9 215.9 134.2 214.5 135.9 214.5C137.6 214.5 138.9 215.8 138.9 217.5C138.9 219.2 137.5 220.5 135.9 220.5Z" fill="white"/>
</g>
<g id="Group_58" opacity="0.8">
<path id="Vector_145" opacity="0.8" d="M129.8 206.6C129.8 206.3 129.8 206 129.7 205.7L132.7 203.5C132.4 202.5 132 201.6 131.6 200.7L127.9 201.2C127.5 200.7 127.1 200.3 126.6 199.9L127.1 196.2C126.2 195.7 125.3 195.3 124.3 195.1L122.1 198.1C121.8 198.1 121.5 198 121.2 198C120.9 198 120.6 198 120.3 198.1L118.1 195.1C117.1 195.4 116.2 195.8 115.3 196.2L115.8 199.9C115.3 200.3 114.9 200.7 114.5 201.2L110.8 200.7C110.3 201.6 109.9 202.5 109.7 203.5L112.7 205.7C112.7 206 112.6 206.3 112.6 206.6C112.6 206.9 112.6 207.2 112.7 207.5L109.7 209.7C110 210.7 110.4 211.6 110.8 212.5L114.5 212C114.9 212.5 115.3 212.9 115.8 213.3L115.3 217C116.2 217.5 117.1 217.9 118.1 218.1L120.3 215.1C120.6 215.1 120.9 215.2 121.2 215.2C121.5 215.2 121.8 215.2 122.1 215.1L124.3 218.1C125.3 217.8 126.2 217.4 127.1 217L126.6 213.3C127.1 212.9 127.5 212.5 127.9 212L131.6 212.5C132.1 211.6 132.5 210.7 132.7 209.7L129.7 207.5C129.8 207.3 129.8 206.9 129.8 206.6ZM121.2 209.4C119.7 209.4 118.4 208.2 118.4 206.6C118.4 205.1 119.6 203.8 121.2 203.8C122.7 203.8 124 205 124 206.6C123.9 208.2 122.7 209.4 121.2 209.4Z" fill="white"/>
<path id="Vector_146" opacity="0.8" d="M140.2 217.6C140.2 217.4 140.2 217.3 140.2 217.1L141.7 216C141.6 215.5 141.4 215 141.1 214.6L139.3 214.9C139.1 214.7 138.9 214.4 138.6 214.2L138.9 212.4C138.5 212.2 138 212 137.5 211.8L136.4 213.3C136.2 213.3 136.1 213.3 135.9 213.3C135.7 213.3 135.6 213.3 135.4 213.3L134.3 211.8C133.8 211.9 133.3 212.1 132.9 212.4L133.2 214.2C133 214.4 132.7 214.6 132.5 214.9L130.7 214.6C130.5 215 130.3 215.5 130.1 216L131.6 217.1C131.6 217.3 131.6 217.4 131.6 217.6C131.6 217.8 131.6 217.9 131.6 218.1L130.1 219.2C130.2 219.7 130.4 220.2 130.7 220.6L132.5 220.3C132.7 220.5 132.9 220.8 133.2 221L132.9 222.8C133.3 223 133.8 223.2 134.3 223.4L135.4 221.9C135.6 221.9 135.7 221.9 135.9 221.9C136.1 221.9 136.2 221.9 136.4 221.9L137.5 223.4C138 223.3 138.5 223.1 138.9 222.8L138.6 221C138.8 220.8 139.1 220.6 139.3 220.3L141.1 220.6C141.3 220.2 141.5 219.7 141.7 219.2L140.2 218.1C140.2 217.9 140.2 217.7 140.2 217.6ZM135.9 220.5C134.3 220.5 132.9 219.2 132.9 217.5C132.9 215.9 134.2 214.5 135.9 214.5C137.6 214.5 138.9 215.8 138.9 217.5C138.9 219.2 137.5 220.5 135.9 220.5Z" fill="white"/>
</g>
</g>
</g>
</g>
</g>
<g id="Group_59">
<g id="Group_60">
<path id="Vector_147" d="M202.4 164.4L191.1 141.4H159.8V140.4H191.7L203.3 164L202.4 164.4Z" fill="#7F358A"/>
<path id="Vector_148" d="M202 167.3C204.099 167.3 205.8 165.599 205.8 163.5C205.8 161.401 204.099 159.7 202 159.7C199.901 159.7 198.2 161.401 198.2 163.5C198.2 165.599 199.901 167.3 202 167.3Z" fill="#262D40"/>
</g>
<g id="Group_61">
<g id="Group_62">
<path id="Vector_149" d="M157.9 161.4H121.2C118.4 161.4 116.2 159.2 116.2 156.4V119.7C116.2 116.9 118.4 114.7 121.2 114.7H157.9C160.7 114.7 162.9 116.9 162.9 119.7V156.4C162.9 159.2 160.7 161.4 157.9 161.4Z" fill="#7F358A"/>
<path id="Vector_150" opacity="0.4" d="M157.9 161.4H121.2C118.4 161.4 116.2 159.2 116.2 156.4V119.7C116.2 116.9 118.4 114.7 121.2 114.7H157.9C160.7 114.7 162.9 116.9 162.9 119.7V156.4C162.9 159.2 160.7 161.4 157.9 161.4Z" fill="#7F358A"/>
</g>
<g id="Group_63">
<g id="Group_64">
<path id="Vector_151" d="M127.6 140L133.6 146L139.4 136.5L145.4 146.3L152.5 134.2L152.6 135.7L154.3 135.5L153.7 130.3L149.1 132.5L149.8 134L150.9 133.5L145.4 143L139.4 133.3L133.3 143.3L127.4 137.4L122.1 144.6L123.5 145.6L127.6 140Z" fill="white"/>
<path id="Vector_152" d="M155.8 130.3V147.5H122.1V148.8H157.1V130.3H155.8Z" fill="white"/>
</g>
<g id="Group_65" opacity="0.8">
<path id="Vector_153" opacity="0.8" d="M127.6 140L133.6 146L139.4 136.5L145.4 146.3L152.5 134.2L152.6 135.7L154.3 135.5L153.7 130.3L149.1 132.5L149.8 134L150.9 133.5L145.4 143L139.4 133.3L133.3 143.3L127.4 137.4L122.1 144.6L123.5 145.6L127.6 140Z" fill="white"/>
<path id="Vector_154" opacity="0.8" d="M155.8 130.3V147.5H122.1V148.8H157.1V130.3H155.8Z" fill="white"/>
</g>
</g>
</g>
</g>
<g id="Group_66">
<g id="Group_67">
<path id="Vector_155" d="M250.2 299L249.3 298.5L260.9 274.9H292.8V275.9H261.6L250.2 299Z" fill="#7F358A"/>
<path id="Vector_156" d="M250.6 301.8C252.699 301.8 254.4 300.099 254.4 298C254.4 295.901 252.699 294.2 250.6 294.2C248.501 294.2 246.8 295.901 246.8 298C246.8 300.099 248.501 301.8 250.6 301.8Z" fill="#1A2E35"/>
</g>
<g id="Group_68">
<g id="Group_69">
<g id="Group_70">
<path id="Vector_157" d="M333.5 297.4H296.8C294 297.4 291.8 295.2 291.8 292.4V255.7C291.8 252.9 294 250.7 296.8 250.7H333.5C336.3 250.7 338.5 252.9 338.5 255.7V292.4C338.5 295.2 336.3 297.4 333.5 297.4Z" fill="#7F358A"/>
<path id="Vector_158" opacity="0.4" d="M333.5 297.4H296.8C294 297.4 291.8 295.2 291.8 292.4V255.7C291.8 252.9 294 250.7 296.8 250.7H333.5C336.3 250.7 338.5 252.9 338.5 255.7V292.4C338.5 295.2 336.3 297.4 333.5 297.4Z" fill="#7F358A"/>
</g>
</g>
<g id="Group_71">
<g id="Group_72">
<path id="Vector_159" d="M319.6 268.9C319.6 271.7 318 273.9 315.2 273.9C312.4 273.9 310.8 271.7 310.8 268.9C310.8 266.1 312.4 263.9 315.2 263.9C318 263.9 319.6 266.2 319.6 268.9Z" fill="white"/>
<path id="Vector_160" d="M319.3 273C318.3 274.2 316.9 274.9 315.2 274.9C313.5 274.9 312.1 274.2 311.1 273C307.6 274.2 305.6 277.2 305.6 281.7H324.9C324.8 277.2 322.8 274.2 319.3 273Z" fill="white"/>
<path id="Vector_161" d="M305 274C305 275.6 304 276.9 302.4 276.9C300.8 276.9 299.8 275.6 299.8 274C299.8 272.4 300.8 271.1 302.4 271.1C304 271.1 305 272.4 305 274Z" fill="white"/>
<path id="Vector_162" d="M330.5 274C330.5 275.6 329.5 276.9 327.9 276.9C326.3 276.9 325.3 275.6 325.3 274C325.3 272.4 326.3 271.1 327.9 271.1C329.5 271.1 330.5 272.4 330.5 274Z" fill="white"/>
<path id="Vector_163" d="M325.8 281.7H333.7C333.7 279.1 332.5 277.3 330.5 276.6C329.9 277.3 329.1 277.7 328.1 277.7C327.1 277.7 326.3 277.3 325.7 276.6C325.4 276.7 325.1 276.8 324.9 277C325.5 278.4 325.8 280 325.8 281.7Z" fill="white"/>
<path id="Vector_164" d="M304.5 281.7C304.5 279.9 304.8 278.3 305.4 277C305.1 276.9 304.9 276.7 304.6 276.6C304 277.3 303.2 277.7 302.2 277.7C301.2 277.7 300.4 277.3 299.8 276.6C297.7 277.3 296.6 279.1 296.6 281.7H304.5Z" fill="white"/>
<path id="Vector_165" opacity="0.8" d="M319.6 268.9C319.6 271.7 318 273.9 315.2 273.9C312.4 273.9 310.8 271.7 310.8 268.9C310.8 266.1 312.4 263.9 315.2 263.9C318 263.9 319.6 266.2 319.6 268.9Z" fill="white"/>
<path id="Vector_166" opacity="0.8" d="M319.3 273C318.3 274.2 316.9 274.9 315.2 274.9C313.5 274.9 312.1 274.2 311.1 273C307.6 274.2 305.6 277.2 305.6 281.7H324.9C324.8 277.2 322.8 274.2 319.3 273Z" fill="white"/>
<path id="Vector_167" opacity="0.8" d="M305 274C305 275.6 304 276.9 302.4 276.9C300.8 276.9 299.8 275.6 299.8 274C299.8 272.4 300.8 271.1 302.4 271.1C304 271.1 305 272.4 305 274Z" fill="white"/>
<path id="Vector_168" opacity="0.8" d="M330.5 274C330.5 275.6 329.5 276.9 327.9 276.9C326.3 276.9 325.3 275.6 325.3 274C325.3 272.4 326.3 271.1 327.9 271.1C329.5 271.1 330.5 272.4 330.5 274Z" fill="white"/>
<path id="Vector_169" opacity="0.8" d="M325.8 281.7H333.7C333.7 279.1 332.5 277.3 330.5 276.6C329.9 277.3 329.1 277.7 328.1 277.7C327.1 277.7 326.3 277.3 325.7 276.6C325.4 276.7 325.1 276.8 324.9 277C325.5 278.4 325.8 280 325.8 281.7Z" fill="white"/>
<path id="Vector_170" opacity="0.8" d="M304.5 281.7C304.5 279.9 304.8 278.3 305.4 277C305.1 276.9 304.9 276.7 304.6 276.6C304 277.3 303.2 277.7 302.2 277.7C301.2 277.7 300.4 277.3 299.8 276.6C297.7 277.3 296.6 279.1 296.6 281.7H304.5Z" fill="white"/>
</g>
</g>
</g>
</g>
<g id="Group_73">
<g id="Group_74">
<path id="Vector_171" d="M242.2 107.1L241.3 106.7L252.9 83H284.8V84H253.6L242.2 107.1Z" fill="#318BCF"/>
<path id="Vector_172" d="M242.6 109.9C244.699 109.9 246.4 108.199 246.4 106.1C246.4 104.001 244.699 102.3 242.6 102.3C240.501 102.3 238.8 104.001 238.8 106.1C238.8 108.199 240.501 109.9 242.6 109.9Z" fill="#262D40"/>
</g>
<g id="Group_75">
<g id="Group_76">
<path id="Vector_173" d="M325.5 106.9H288.8C286 106.9 283.8 104.7 283.8 101.9V65.2C283.8 62.4 286 60.2 288.8 60.2H325.5C328.3 60.2 330.5 62.4 330.5 65.2V101.9C330.5 104.6 328.3 106.9 325.5 106.9Z" fill="#318BCF"/>
<path id="Vector_174" opacity="0.4" d="M325.5 106.9H288.8C286 106.9 283.8 104.7 283.8 101.9V65.2C283.8 62.4 286 60.2 288.8 60.2H325.5C328.3 60.2 330.5 62.4 330.5 65.2V101.9C330.5 104.6 328.3 106.9 325.5 106.9Z" fill="#318BCF"/>
</g>
<path id="Vector_175" d="M304.1 97.8H310.3C309.6 98.7 308.5 99.2 307.3 99.2H307.1C305.9 99.2 304.8 98.7 304.1 97.8ZM304.1 96.9H310.3V94.3H304.1V96.9ZM318.3 78.3C318.3 81.8 316.7 85 314.1 87C312.2 88.5 310.9 90.5 310.4 92.8L310.3 93.4H304.1L304 92.8C303.5 90.5 302.2 88.5 300.3 87.1C297.6 85 295.9 81.6 296 77.8C296.3 72.1 301.1 67.3 306.8 67.2C313.2 67 318.3 72 318.3 78.3ZM312.5 75.8L309.2 77.9L307.2 72.3L305.4 77.7L301.7 75.4L303.6 85.9L305.1 85.6L304 79L306.3 80.2L307.3 77L308.4 80L310.5 78.5L309.2 85.5L310.7 85.8L312.5 75.8Z" fill="white"/>
</g>
</g>
</g>
</g>
<defs>
<linearGradient id="paint0_linear" x1="7.89222" y1="363.825" x2="211.27" y2="363.825" gradientUnits="userSpaceOnUse">
<stop stop-color="white"/>
<stop offset="1" stop-color="#A69EBF"/>
</linearGradient>
<linearGradient id="paint1_linear" x1="102.82" y1="363.826" x2="211.27" y2="363.826" gradientUnits="userSpaceOnUse">
<stop stop-color="white"/>
<stop offset="1" stop-color="#A69EBF"/>
</linearGradient>
<linearGradient id="paint2_linear" x1="46.0142" y1="352.886" x2="81.1224" y2="352.886" gradientUnits="userSpaceOnUse">
<stop stop-color="white"/>
<stop offset="1" stop-color="#A69EBF"/>
</linearGradient>
<linearGradient id="paint3_linear" x1="52.1287" y1="318.254" x2="58.6779" y2="318.254" gradientUnits="userSpaceOnUse">
<stop stop-color="white"/>
<stop offset="1" stop-color="#A69EBF"/>
</linearGradient>
<linearGradient id="paint4_linear" x1="66.2212" y1="330.172" x2="72.7705" y2="330.172" gradientUnits="userSpaceOnUse">
<stop stop-color="white"/>
<stop offset="1" stop-color="#A69EBF"/>
</linearGradient>
<linearGradient id="paint5_linear" x1="52.1287" y1="342.09" x2="58.6779" y2="342.09" gradientUnits="userSpaceOnUse">
<stop stop-color="white"/>
<stop offset="1" stop-color="#A69EBF"/>
</linearGradient>
<linearGradient id="paint6_linear" x1="66.2212" y1="354.008" x2="72.7705" y2="354.008" gradientUnits="userSpaceOnUse">
<stop stop-color="white"/>
<stop offset="1" stop-color="#A69EBF"/>
</linearGradient>
<linearGradient id="paint7_linear" x1="66.2212" y1="365.927" x2="72.7705" y2="365.927" gradientUnits="userSpaceOnUse">
<stop stop-color="white"/>
<stop offset="1" stop-color="#A69EBF"/>
</linearGradient>
<linearGradient id="paint8_linear" x1="52.1287" y1="377.845" x2="58.6779" y2="377.845" gradientUnits="userSpaceOnUse">
<stop stop-color="white"/>
<stop offset="1" stop-color="#A69EBF"/>
</linearGradient>
<linearGradient id="paint9_linear" x1="66.2212" y1="401.681" x2="72.7705" y2="401.681" gradientUnits="userSpaceOnUse">
<stop stop-color="white"/>
<stop offset="1" stop-color="#A69EBF"/>
</linearGradient>
<linearGradient id="paint10_linear" x1="36.1134" y1="189.103" x2="177.841" y2="189.103" gradientUnits="userSpaceOnUse">
<stop stop-color="white"/>
<stop offset="1" stop-color="#A69EBF"/>
</linearGradient>
<linearGradient id="paint11_linear" x1="13.0424" y1="204.139" x2="100.298" y2="204.139" gradientUnits="userSpaceOnUse">
<stop stop-color="white"/>
<stop offset="1" stop-color="#A69EBF"/>
</linearGradient>
<linearGradient id="paint12_linear" x1="461.299" y1="375.318" x2="481.706" y2="375.318" gradientUnits="userSpaceOnUse">
<stop stop-color="white"/>
<stop offset="1" stop-color="#A69EBF"/>
</linearGradient>
<linearGradient id="paint13_linear" x1="469.997" y1="362.446" x2="473.007" y2="362.446" gradientUnits="userSpaceOnUse">
<stop stop-color="white"/>
<stop offset="1" stop-color="#A69EBF"/>
</linearGradient>
<linearGradient id="paint14_linear" x1="463.522" y1="362.446" x2="466.531" y2="362.446" gradientUnits="userSpaceOnUse">
<stop stop-color="white"/>
<stop offset="1" stop-color="#A69EBF"/>
</linearGradient>
<linearGradient id="paint15_linear" x1="476.473" y1="367.923" x2="479.483" y2="367.923" gradientUnits="userSpaceOnUse">
<stop stop-color="white"/>
<stop offset="1" stop-color="#A69EBF"/>
</linearGradient>
<linearGradient id="paint16_linear" x1="469.997" y1="373.4" x2="473.007" y2="373.4" gradientUnits="userSpaceOnUse">
<stop stop-color="white"/>
<stop offset="1" stop-color="#A69EBF"/>
</linearGradient>
<linearGradient id="paint17_linear" x1="463.522" y1="373.4" x2="466.531" y2="373.4" gradientUnits="userSpaceOnUse">
<stop stop-color="white"/>
<stop offset="1" stop-color="#A69EBF"/>
</linearGradient>
<linearGradient id="paint18_linear" x1="476.473" y1="378.877" x2="479.483" y2="378.877" gradientUnits="userSpaceOnUse">
<stop stop-color="white"/>
<stop offset="1" stop-color="#A69EBF"/>
</linearGradient>
<linearGradient id="paint19_linear" x1="469.997" y1="385.578" x2="473.007" y2="385.578" gradientUnits="userSpaceOnUse">
<stop stop-color="white"/>
<stop offset="1" stop-color="#A69EBF"/>
</linearGradient>
<linearGradient id="paint20_linear" x1="476.473" y1="385.578" x2="479.483" y2="385.578" gradientUnits="userSpaceOnUse">
<stop stop-color="white"/>
<stop offset="1" stop-color="#A69EBF"/>
</linearGradient>
<linearGradient id="paint21_linear" x1="463.522" y1="391.055" x2="466.531" y2="391.055" gradientUnits="userSpaceOnUse">
<stop stop-color="white"/>
<stop offset="1" stop-color="#A69EBF"/>
</linearGradient>
<linearGradient id="paint22_linear" x1="430.904" y1="327.308" x2="455.413" y2="327.308" gradientUnits="userSpaceOnUse">
<stop stop-color="white"/>
<stop offset="1" stop-color="#A69EBF"/>
</linearGradient>
<linearGradient id="paint23_linear" x1="441.459" y1="317.724" x2="444.858" y2="317.724" gradientUnits="userSpaceOnUse">
<stop stop-color="white"/>
<stop offset="1" stop-color="#A69EBF"/>
</linearGradient>
<linearGradient id="paint24_linear" x1="448.773" y1="317.724" x2="452.172" y2="317.724" gradientUnits="userSpaceOnUse">
<stop stop-color="white"/>
<stop offset="1" stop-color="#A69EBF"/>
</linearGradient>
<linearGradient id="paint25_linear" x1="434.146" y1="330.094" x2="437.545" y2="330.094" gradientUnits="userSpaceOnUse">
<stop stop-color="white"/>
<stop offset="1" stop-color="#A69EBF"/>
</linearGradient>
<linearGradient id="paint26_linear" x1="448.773" y1="330.094" x2="452.172" y2="330.094" gradientUnits="userSpaceOnUse">
<stop stop-color="white"/>
<stop offset="1" stop-color="#A69EBF"/>
</linearGradient>
<linearGradient id="paint27_linear" x1="441.459" y1="336.28" x2="444.858" y2="336.28" gradientUnits="userSpaceOnUse">
<stop stop-color="white"/>
<stop offset="1" stop-color="#A69EBF"/>
</linearGradient>
<linearGradient id="paint28_linear" x1="434.146" y1="342.465" x2="437.545" y2="342.465" gradientUnits="userSpaceOnUse">
<stop stop-color="white"/>
<stop offset="1" stop-color="#A69EBF"/>
</linearGradient>
<linearGradient id="paint29_linear" x1="441.459" y1="342.465" x2="444.858" y2="342.465" gradientUnits="userSpaceOnUse">
<stop stop-color="white"/>
<stop offset="1" stop-color="#A69EBF"/>
</linearGradient>
<linearGradient id="paint30_linear" x1="448.773" y1="348.65" x2="452.172" y2="348.65" gradientUnits="userSpaceOnUse">
<stop stop-color="white"/>
<stop offset="1" stop-color="#A69EBF"/>
</linearGradient>
<linearGradient id="paint31_linear" x1="434.146" y1="354.835" x2="437.545" y2="354.835" gradientUnits="userSpaceOnUse">
<stop stop-color="white"/>
<stop offset="1" stop-color="#A69EBF"/>
</linearGradient>
<linearGradient id="paint32_linear" x1="441.459" y1="361.02" x2="444.858" y2="361.02" gradientUnits="userSpaceOnUse">
<stop stop-color="white"/>
<stop offset="1" stop-color="#A69EBF"/>
</linearGradient>
<linearGradient id="paint33_linear" x1="448.773" y1="361.02" x2="452.172" y2="361.02" gradientUnits="userSpaceOnUse">
<stop stop-color="white"/>
<stop offset="1" stop-color="#A69EBF"/>
</linearGradient>
<linearGradient id="paint34_linear" x1="314.862" y1="382.378" x2="512.577" y2="382.378" gradientUnits="userSpaceOnUse">
<stop stop-color="white"/>
<stop offset="1" stop-color="#A69EBF"/>
</linearGradient>
<linearGradient id="paint35_linear" x1="407.147" y1="382.378" x2="512.577" y2="382.378" gradientUnits="userSpaceOnUse">
<stop stop-color="white"/>
<stop offset="1" stop-color="#A69EBF"/>
</linearGradient>
<linearGradient id="paint36_linear" x1="137.588" y1="249.622" x2="307.539" y2="249.622" gradientUnits="userSpaceOnUse">
<stop stop-color="white"/>
<stop offset="1" stop-color="#A69EBF"/>
</linearGradient>
<linearGradient id="paint37_linear" x1="309.666" y1="112.353" x2="437.392" y2="112.353" gradientUnits="userSpaceOnUse">
<stop stop-color="white"/>
<stop offset="1" stop-color="#A69EBF"/>
</linearGradient>
<linearGradient id="paint38_linear" x1="384.262" y1="126.744" x2="461.44" y2="126.744" gradientUnits="userSpaceOnUse">
<stop stop-color="white"/>
<stop offset="1" stop-color="#A69EBF"/>
</linearGradient>
<linearGradient id="paint39_linear" x1="24.1267" y1="449.337" x2="489.302" y2="449.337" gradientUnits="userSpaceOnUse">
<stop stop-color="white"/>
<stop offset="1" stop-color="#A69EBF"/>
</linearGradient>
<linearGradient id="paint40_linear" x1="205.19" y1="364.334" x2="235.502" y2="364.334" gradientUnits="userSpaceOnUse">
<stop stop-color="white"/>
<stop offset="1" stop-color="#A69EBF"/>
</linearGradient>
<linearGradient id="paint41_linear" x1="149.347" y1="387.098" x2="223.352" y2="387.098" gradientUnits="userSpaceOnUse">
<stop stop-color="white"/>
<stop offset="1" stop-color="#A69EBF"/>
</linearGradient>
<linearGradient id="paint42_linear" x1="149.347" y1="387.098" x2="223.352" y2="387.098" gradientUnits="userSpaceOnUse">
<stop stop-color="white"/>
<stop offset="1" stop-color="#A69EBF"/>
</linearGradient>
<linearGradient id="paint43_linear" x1="217.162" y1="385.882" x2="291.166" y2="385.882" gradientUnits="userSpaceOnUse">
<stop stop-color="white"/>
<stop offset="1" stop-color="#A69EBF"/>
</linearGradient>
<linearGradient id="paint44_linear" x1="217.162" y1="385.882" x2="291.166" y2="385.882" gradientUnits="userSpaceOnUse">
<stop stop-color="white"/>
<stop offset="1" stop-color="#A69EBF"/>
</linearGradient>
<linearGradient id="paint45_linear" x1="190.659" y1="361.87" x2="251.571" y2="361.87" gradientUnits="userSpaceOnUse">
<stop stop-color="white"/>
<stop offset="1" stop-color="#A69EBF"/>
</linearGradient>
<linearGradient id="paint46_linear" x1="190.659" y1="361.87" x2="251.571" y2="361.87" gradientUnits="userSpaceOnUse">
<stop stop-color="white"/>
<stop offset="1" stop-color="#A69EBF"/>
</linearGradient>
<linearGradient id="paint47_linear" x1="163.846" y1="381.122" x2="272.722" y2="381.122" gradientUnits="userSpaceOnUse">
<stop stop-color="white"/>
<stop offset="1" stop-color="#A69EBF"/>
</linearGradient>
<linearGradient id="paint48_linear" x1="163.846" y1="381.122" x2="272.722" y2="381.122" gradientUnits="userSpaceOnUse">
<stop stop-color="white"/>
<stop offset="1" stop-color="#A69EBF"/>
</linearGradient>
<linearGradient id="paint49_linear" x1="205.19" y1="366.584" x2="235.502" y2="366.584" gradientUnits="userSpaceOnUse">
<stop stop-color="white"/>
<stop offset="1" stop-color="#A69EBF"/>
</linearGradient>
<linearGradient id="paint50_linear" x1="213.285" y1="367.725" x2="214.61" y2="367.725" gradientUnits="userSpaceOnUse">
<stop stop-color="white"/>
<stop offset="1" stop-color="#A69EBF"/>
</linearGradient>
<linearGradient id="paint51_linear" x1="226.31" y1="371.528" x2="227.395" y2="371.528" gradientUnits="userSpaceOnUse">
<stop stop-color="white"/>
<stop offset="1" stop-color="#A69EBF"/>
</linearGradient>
</defs>
</svg>
