<svg width="520" height="520" viewBox="0 0 520 520" fill="none" xmlns="http://www.w3.org/2000/svg">
<style>
	* {
		transform-box: fill-box;
	}
	#part-1 {
		transform-origin: center center;
		animation: scale-up-animation 2s linear infinite;
	}
	#part-2 {
		transform-origin: center center;
		animation: scale-up-animation 1s linear infinite;
	}
	#part-3 {
		transform-origin: center center;
		animation: scale-up-animation 3s linear infinite;
	}
	#part-4 {
		transform-origin: center center;
		animation: scale-up-animation 4s linear infinite;
	}
	#part-5 {
		transform-origin: center center;
		animation: scale-up-animation 3.5s linear infinite;
	}
	#part-6 {
		transform-origin: center center;
		animation: scale-up-animation 5s linear infinite;
	}
	#part-7 {
		transform-origin: center center;
		animation: scale-up-animation 4s linear infinite;
	}
	#part-8 {
		transform-origin: center center;
		animation: scale-up-animation 2.5s linear infinite;
	}
	
	@keyframes scale-up-animation {
        0% {
            transform: scale(1);
        }
		50% {
			transform: scale(1.4);
		}
        100% {
            transform: scale(1);
        }
    }
</style>
<g id="iq4bet_img02 1">
<g id="Group">
<path id="Vector" d="M470.1 199C467.5 171.5 461.1 146.4 447.6 125.5C434.1 104.7 408 93.7 383.9 87.6C359.8 81.5 339.7 87.3 322.2 104.9C303.9 123.4 298.3 151.8 293.2 177.3C288.1 202.8 278.2 235.9 257.4 251.6C233.8 269.5 196.7 259.8 167.4 255.4C138.1 250.9 105.6 246.6 80.9 263C60.6 276.4 50.4 302 51.6 326.3C52.8 350.6 60.3 373 72.5 394.1C89.3 423.1 139 458.3 172.4 447.6L316.5 439.5C343.7 427 337.5 446.3 381.8 420.5C407.6 405.5 447.5 351 459.2 313.6C469.7 280.6 473.3 233.2 470.1 199Z" fill="url(#paint0_linear)"/>
<path id="Vector_2" d="M183.1 47.6L173.9 43.8C137.8 31.6 94 52.4 80.5 88C67.1 123.6 86.4 168.2 121.5 182.8C156.7 197.4 201.8 179.6 217.6 145C233.4 110.3 217.2 64.5 183.1 47.6Z" fill="url(#paint1_linear)"/>
<g id="part-1">
<path id="XMLID 74" d="M136.5 139.2C117.6 139.2 102.2 123.9 102.2 104.9C102.2 86 117.5 70.6 136.5 70.6C155.4 70.6 170.8 85.9 170.8 104.9C170.8 123.8 155.4 139.2 136.5 139.2Z" fill="#318BCF"/>
<path id="Vk 2" d="M161.9 92.4C162.3 91.1 161.9 90.2 160.1 90.2H154C152.5 90.2 151.8 91 151.4 91.9C151.4 91.9 148.3 99.4 144 104.3C142.6 105.7 141.9 106.2 141.2 106.2C140.8 106.2 140.3 105.8 140.3 104.5V92.5C140.3 91 139.9 90.3 138.6 90.3H129C128 90.3 127.5 91 127.5 91.7C127.5 93.2 129.7 93.5 129.9 97.6V106.5C129.9 108.5 129.5 108.8 128.8 108.8C126.7 108.8 121.8 101.3 118.8 92.6C118.2 90.9 117.6 90.2 116.1 90.2H110C108.3 90.2 107.9 91 107.9 91.9C107.9 93.5 110 101.5 117.5 112C122.5 119.2 129.5 123.1 136 123.1C139.8 123.1 140.3 122.2 140.3 120.7V115.3C140.3 113.6 140.7 113.2 141.9 113.2C142.8 113.2 144.3 113.6 147.9 117.1C152 121.2 152.7 123 155 123H161.1C162.8 123 163.7 122.1 163.2 120.4C162.1 116.9 155.7 110.9 153.9 109C153 107.8 153.3 107.3 153.9 106.3C153.8 106.4 161.2 96 161.9 92.4Z" fill="white"/>
</g>
<g id="Group_2">
<path id="Vector_3" d="M165.4 48.7L170.1 57.3L178.7 61.9L170.1 66.6L165.4 75.2L160.7 66.6L152.2 61.9L160.7 57.3L165.4 48.7Z" fill="white"/>
<path id="Vector_4" d="M378.1 269.1L381.6 275.5L388 279L381.6 282.5L378.1 289L374.6 282.5L368.1 279L374.6 275.5L378.1 269.1Z" fill="white"/>
<path id="Vector_5" d="M388 237.3L389.6 240.2L392.5 241.8L389.6 243.4L388 246.3L386.4 243.4L383.5 241.8L386.4 240.2L388 237.3Z" fill="white"/>
<path id="Vector_6" d="M131.9 51.9L133.5 54.8L136.4 56.4L133.5 58L131.9 60.9L130.3 58L127.4 56.4L130.3 54.8L131.9 51.9Z" fill="white"/>
</g>
<g id="part-2">
<g id="Group_3">
<path id="Vector_7" d="M69.3 309.6C72.9 308 75.4 304.3 75.4 299.9C75.3 294.2 71 289.6 65.6 289.6C60.2 289.6 55.9 294.3 56 300.1C56 304.5 58.7 308.2 62.3 309.7C47.4 312.1 48.3 328.4 48.3 328.4L83.7 328.1C83.6 328.1 84.2 311.6 69.3 309.6Z" fill="#7F358A"/>
</g>
</g>
<g id="part-8">
<g id="Group_4">
<path id="Vector_8" d="M431.9 205.9L435.7 205.1L441.7 191.9L440.2 184.3C440.2 184.3 446 182.8 447.3 192.8C448.6 202.9 448.8 200.2 448.8 200.2C448.8 200.2 461.3 197.8 462.5 198.7C463.4 199.3 466.2 211.6 467.7 218.3C468.4 221.7 467 225.2 464 226.6C463.6 226.8 463.1 227 462.7 227C459.6 227.6 443.2 228.2 443.2 228.2L436.6 229.5L431.9 205.9Z" fill="white"/>
</g>
<g id="Group_5">
<path id="Vector_9" d="M420.6 206L428.1 231.5L434.6 230.2L429.6 204.8L420.6 206Z" fill="white"/>
</g>
</g>
<g id="part-5">
<path id="XMLID 28" d="M393.6 195.9C373.4 205.7 349.1 197.3 339.3 177.1C329.5 156.9 337.9 132.6 358.1 122.8C378.3 113 402.6 121.4 412.4 141.6C422.2 161.8 413.8 186.1 393.6 195.9Z" fill="#7F358A"/>
<path id="XMLID 23" d="M365.8 168.5C366.5 168.5 366.9 168 366.7 167.3C366.6 166.8 366.3 165.6 366.2 165.1C366.1 164.4 365.9 164.2 365.2 163.9C363.6 163.2 362.2 162 361.2 159.8C358.1 153.5 360.1 145.6 367.7 141.9C374.4 138.6 380.1 140.9 382.7 146.4C386.2 153.6 386 161.2 381.2 163.5C378.6 164.8 375.6 163.6 374.9 160.6C374.1 157.1 373.9 153 372.8 150.7C371.8 148.7 369.9 147.5 367.6 148.6C364.9 149.9 364.1 153.7 365.9 157.4C367 159.8 368.6 161 368.6 161C368.6 161 371.5 173.9 372 176.1C373 180.6 376.2 185.1 376.5 185.6C376.7 185.9 377.1 185.8 377.2 185.5C377.3 185.1 378.6 179.6 377.7 175.2C377.5 173.9 376.1 167.5 376.1 167.5C377.8 168.7 381 169 383.7 167.6C391.7 163.7 393.6 153.8 388.8 144C385.2 136.6 375.6 132.8 366.1 137.4C354.3 143.2 352.4 154.6 355.9 161.6C358.2 165.7 361.7 168.8 365.8 168.5Z" fill="white"/>
</g>
<g id="part-6">
<path id="XMLID 20" d="M434.2 310.5C419.7 305 412.5 288.8 418 274.3C423.5 259.8 439.7 252.6 454.2 258.1C468.7 263.6 475.9 279.8 470.4 294.3C464.9 308.8 448.7 316.1 434.2 310.5Z" fill="#7F358A"/>
<g id="XMLID 10">
<path id="XMLID 15" fill-rule="evenodd" clip-rule="evenodd" d="M458.9 289.1C461.6 281.5 457.7 273 450 270.1C442.4 267.2 434 270.8 430.8 278.1C430.7 278.3 430.6 278.5 430.6 278.7C429.6 281.3 429.4 284.1 429.9 286.7L424.5 293.2L433.3 293.7C434.9 295.6 437 297.1 439.4 298C447.2 301 455.9 297.1 458.8 289.4C458.8 289.4 458.8 289.3 458.9 289.1ZM440.1 295.9C437.7 295 435.7 293.4 434.3 291.5L429.2 291.2L432.3 287.4C431.6 284.9 431.7 282.2 432.7 279.6C432.8 279.2 433 278.8 433.2 278.5C436.1 272.8 442.9 270 449.1 272.4C455.3 274.8 458.6 281.5 456.8 287.8C456.7 288.1 456.6 288.4 456.5 288.7C454 295.1 446.7 298.4 440.1 295.9Z" fill="white"/>
<path id="XMLID 13" fill-rule="evenodd" clip-rule="evenodd" d="M450 289.4C449.7 289.1 448.3 287.6 448.1 287.4C447.8 287.2 447.6 287 447.3 287.3C446.9 287.6 446 288.1 445.7 288.2C445.4 288.4 445.2 288.3 444.9 288C444.6 287.7 443.6 286.9 442.8 285.2C442.1 283.9 441.9 282.5 441.8 282.1C441.7 281.7 442 281.6 442.2 281.5C442.4 281.4 442.7 281.2 443 281.1C443.1 281.1 443.1 281 443.2 281C443.3 280.9 443.4 280.8 443.6 280.7C443.8 280.5 443.8 280.3 443.8 280.1C443.8 279.9 443.7 277.9 443.7 277.1C443.7 276.3 443.3 276.3 443.1 276.2C442.9 276.1 442.7 276 442.5 275.9C442.3 275.8 441.9 275.8 441.4 276C441 276.2 439.7 276.7 439.1 278.4C438.9 278.8 438.9 279.2 438.8 279.6C438.7 280.9 439.1 282.2 439.1 282.4C439.2 282.7 440 287.1 443 289.8C446 292.5 446.2 292.1 446.8 292.2C447.5 292.4 449.2 292.2 449.8 291.5C450.4 290.8 450.7 290.1 450.6 289.9C450.5 289.9 450.3 289.7 450 289.4Z" fill="white"/>
</g>
</g>
<g id="part-3">
<path id="XMLID 26" d="M69.8 181C58 181 48.4 171.4 48.4 159.6C48.4 147.8 58 138.2 69.8 138.2C81.6 138.2 91.2 147.8 91.2 159.6C91.2 171.5 81.6 181 69.8 181Z" fill="#318BCF"/>
<path id="XMLID 25" d="M58.5 166.8C60.6 168.1 63 168.9 65.7 168.9C74.4 168.9 79.3 161.6 79 155C79.9 154.3 80.7 153.5 81.3 152.6C80.5 153 79.6 153.2 78.6 153.3C79.6 152.7 80.3 151.8 80.7 150.7C79.8 151.2 78.8 151.6 77.7 151.8C76.8 150.9 75.6 150.3 74.3 150.3C71.3 150.3 69.1 153.1 69.7 156C65.8 155.8 62.4 153.9 60.1 151.1C58.9 153.2 59.5 155.9 61.5 157.3C60.7 157.3 60 157.1 59.4 156.7C59.3 158.9 60.9 160.9 63.1 161.3C62.4 161.5 61.7 161.5 61 161.4C61.6 163.3 63.3 164.6 65.4 164.6C63.4 166.4 60.9 167.1 58.5 166.8Z" fill="white"/>
</g>
<g id="part-4">
<path id="XMLID 21" d="M108.2 420.4C88.4 425.1 68.6 412.9 63.9 393.1C59.2 373.3 71.4 353.5 91.2 348.8C111 344.1 130.8 356.3 135.5 376.1C140.2 395.8 128 415.7 108.2 420.4Z" fill="#7F358A"/>
<g id="XMLID 6">
<path id="XMLID 14" d="M95.9 368.5C101.1 367.3 101.8 367.1 103.9 366.7C105.8 366.3 107 366.4 107.7 366.5C108.7 366.6 109.5 366.9 110.3 367.4C111.2 367.9 111.7 368.5 112.3 369.3C112.7 369.9 113.3 370.9 113.8 372.8C114.4 374.8 114.6 375.5 115.8 380.7C117 385.9 117.2 386.6 117.6 388.7C118 390.6 117.9 391.8 117.8 392.5C117.7 393.5 117.4 394.3 116.9 395.1C116.4 396 115.8 396.5 115 397.1C114.4 397.5 113.4 398.1 111.5 398.6C109.5 399.2 108.8 399.4 103.6 400.6C98.4 401.8 97.7 402 95.6 402.4C93.7 402.8 92.5 402.7 91.8 402.6C90.8 402.5 90 402.2 89.2 401.7C88.3 401.2 87.8 400.6 87.2 399.8C86.8 399.2 86.2 398.2 85.7 396.3C85.1 394.3 84.9 393.6 83.7 388.4C82.5 383.2 82.3 382.5 81.9 380.4C81.5 378.5 81.6 377.3 81.7 376.6C81.8 375.6 82.1 374.8 82.6 374C83.1 373.1 83.7 372.6 84.5 372C85.1 371.6 86.1 371 88 370.5C90 369.9 90.6 369.8 95.9 368.5ZM95 365C89.7 366.3 89 366.5 86.9 367C84.8 367.6 83.5 368.3 82.4 369C81.2 369.8 80.3 370.7 79.5 372.1C78.7 373.5 78.3 374.7 78.1 376.1C77.9 377.5 77.9 379 78.3 381.1C78.7 383.2 78.8 383.9 80.1 389.2C81.4 394.5 81.6 395.2 82.1 397.3C82.7 399.4 83.4 400.7 84.1 401.8C84.9 403 85.8 403.9 87.2 404.7C88.6 405.5 89.8 405.9 91.2 406.1C92.6 406.3 94.1 406.3 96.2 405.9C98.3 405.5 99 405.4 104.3 404.1C109.6 402.8 110.3 402.6 112.4 402.1C114.5 401.5 115.8 400.8 116.9 400.1C118.1 399.3 119 398.4 119.8 397C120.6 395.6 121 394.4 121.2 393C121.4 391.6 121.4 390.1 121 388C120.6 385.9 120.5 385.2 119.2 379.9C117.9 374.6 117.7 373.9 117.2 371.8C116.6 369.7 115.9 368.4 115.2 367.3C114.4 366.1 113.5 365.2 112.1 364.4C110.7 363.6 109.5 363.2 108.1 363C106.7 362.8 105.2 362.8 103.1 363.2C101 363.6 100.4 363.7 95 365Z" fill="white"/>
<path id="XMLID 8" d="M97.3 374.5C91.7 375.8 88.3 381.4 89.6 387C90.9 392.6 96.5 396 102.1 394.7C107.7 393.4 111.1 387.8 109.8 382.2C108.5 376.6 102.9 373.2 97.3 374.5ZM101.3 391.1C97.7 392 94.1 389.7 93.2 386.1C92.3 382.5 94.6 378.9 98.2 378C101.8 377.1 105.4 379.4 106.3 383C107.1 386.7 104.9 390.3 101.3 391.1Z" fill="white"/>
<path id="XMLID 7" d="M110.1 371.1C110.4 372.4 109.6 373.7 108.3 374C107 374.3 105.7 373.5 105.4 372.2C105.1 370.9 105.9 369.6 107.2 369.3C108.4 369 109.7 369.8 110.1 371.1Z" fill="white"/>
</g>
</g>
<g id="part-7">
<path id="XMLID 4" d="M387 388C377.5 388 369.8 380.3 369.8 370.8C369.8 361.3 377.5 353.6 387 353.6C396.5 353.6 404.2 361.3 404.2 370.8C404.2 380.3 396.5 388 387 388Z" fill="#318BCF"/>
<path id="XMLID 2" d="M384.4 381.2H388.6V370.7H391.5L391.8 367.2H388.6C388.6 367.2 388.6 365.9 388.6 365.2C388.6 364.4 388.8 364 389.6 364C390.2 364 391.9 364 391.9 364V360.4C391.9 360.4 389.5 360.4 389 360.4C385.9 360.4 384.5 361.8 384.5 364.4C384.5 366.7 384.5 367.2 384.5 367.2H382.3V370.7H384.5V381.2H384.4Z" fill="white"/>
</g>
<g id="Group_6">
<path id="Vector_10" d="M341.8 173.9H181.9V271.7H341.8V173.9Z" fill="#E1E1E1"/>
<path id="Vector_11" d="M328.5 482.8L190.6 482.7C174 482.7 160.6 469.2 160.6 452.7L160.7 107C160.7 90.4 174.2 77 190.8 77L328.7 77.1C345.3 77.1 358.7 90.6 358.7 107.1L358.6 452.8C358.5 469.4 345.1 482.9 328.5 482.8Z" fill="#1A2E35"/>
<path id="Vector_12" d="M328.4 89.3H301.7C298.1 89.3 295.2 92.3 295.2 96.1V100.9C295.2 104.6 292.3 107.7 288.7 107.7H236.6C233 107.7 230.1 104.7 230.1 100.9V96.1C230.1 92.4 227.2 89.3 223.6 89.3H214.2H190.8C179.2 89.3 169.8 98.7 169.8 110.3L169.7 447.7C169.7 459.3 179.1 468.7 190.7 468.7L328.3 468.8C339.9 468.8 349.3 459.4 349.3 447.8L349.4 110.4C349.5 98.7 340.1 89.3 328.4 89.3Z" fill="white"/>
<path id="Vector_13" d="M231.9 389.4C231.9 389.4 231.8 389.4 231.7 389.4C231.5 389.4 231.3 389.4 231.1 389.4C230.5 389.4 229.7 389.4 228.7 389.4C226.6 389.4 223.5 389.4 219.6 389.4C211.8 389.4 200.8 389.4 187.7 389.3L187.9 389.1C187.8 399.6 187.8 411.7 187.7 424.5C187.8 424.6 187.2 424 187.4 424.2H187.5H187.7H188.1H188.9H190.4C191.4 424.2 192.4 424.2 193.4 424.2C195.4 424.2 197.4 424.2 199.4 424.2C203.3 424.2 207.2 424.2 210.9 424.3C218.3 424.4 225.3 424.4 231.6 424.5L231.4 424.7C231.5 414.1 231.6 405.2 231.7 399C231.7 395.9 231.8 393.5 231.8 391.8C231.8 391 231.8 390.4 231.8 389.9C231.9 389.7 231.9 389.4 231.9 389.4C231.9 389.4 231.9 389.6 231.9 390C231.9 390.4 231.9 391.1 231.9 391.9C231.9 393.6 231.9 396 231.9 399C231.9 405.2 231.9 414.1 231.9 424.8V425H231.7C225.4 425 218.4 424.9 211 424.9C207.3 424.9 203.4 424.9 199.5 424.8C197.5 424.8 195.5 424.8 193.5 424.8C192.5 424.8 191.5 424.8 190.5 424.8H189H188.2H187.8H187.6H187.5C187.7 425 187.2 424.5 187.2 424.5C187.3 411.7 187.4 399.6 187.4 389.1V388.9H187.6C200.8 389 211.9 389.1 219.7 389.2C223.6 389.2 226.6 389.3 228.7 389.3C229.7 389.3 230.5 389.3 231.1 389.3C231.3 389.3 231.5 389.3 231.7 389.3C231.8 389.4 231.9 389.4 231.9 389.4ZM230.1 422.6L218.3 408.9L212.2 415.3L203.4 403.2L188.9 422.4L230.1 422.6ZM212.9 397.7C211.1 397.7 209.6 399.1 209.6 400.9C209.6 402.7 211 404.2 212.8 404.2C214.6 404.2 216.1 402.8 216.1 401C216.1 399.1 214.7 397.7 212.9 397.7Z" fill="#7F358A"/>
<path id="Vector_14" d="M275.2 392.2C275.2 392.2 274.7 392.3 273.8 392.3C272.8 392.3 271.4 392.3 269.9 392.4C266.6 392.4 262 392.5 256.9 392.5C251.8 392.5 247.2 392.5 243.9 392.4C242.3 392.4 241 392.3 240 392.3C239.1 392.3 238.6 392.2 238.6 392.2C238.6 392.2 239.1 392.1 240 392.1C241 392.1 242.4 392.1 243.9 392C247.2 392 251.8 391.9 256.9 391.9C262 391.9 266.6 391.9 269.9 392C271.5 392 272.8 392.1 273.8 392.1C274.7 392.1 275.2 392.2 275.2 392.2ZM285.7 401C259.6 401 238.4 401.1 238.4 401.3C238.4 401.4 259.6 401.6 285.7 401.6C311.8 401.6 333 401.5 333 401.3C333 401.1 311.8 401 285.7 401ZM270.9 409.5C252.9 409.5 238.4 409.6 238.4 409.8C238.4 410 253 410.1 270.9 410.1C288.8 410.1 303.4 410 303.4 409.8C303.4 409.6 288.9 409.5 270.9 409.5ZM334.9 417.7H329.2V426.1L332 423.3L334.9 426.2V417.7ZM329.4 425.5V418H334.6V425.7L332 423.1L331.9 423L329.4 425.5ZM256.4 424.2C256.9 423.7 257.1 423 257.1 422.3C257.1 420.7 255.8 419.4 254.2 419.4C252.6 419.4 251.3 420.7 251.3 422.3C251.3 423.9 252.6 425.2 254.2 425.2C254.6 425.2 255 425.1 255.5 424.8L256.5 425.3L256.4 424.2ZM256.9 422.3C256.9 423 256.7 423.6 256.2 424.1L256.4 424.9L255.6 424.6C255.1 424.9 254.7 425 254.3 425C252.8 425 251.6 423.8 251.6 422.3C251.6 420.8 252.8 419.6 254.3 419.6C255.7 419.6 256.9 420.8 256.9 422.3ZM265.3 419.8H259.9L262.1 421.8L263.3 424.7L265.3 419.8ZM265 420L263.3 424.2L262.3 421.7L260.4 420H265ZM265.3 420L265.2 419.8L262.3 421.7L262.4 421.9L265.3 420ZM248.1 420.5C247.9 419.7 247.2 419.1 246.4 419.2C245.6 419.2 244.9 419.9 244.8 420.7C244.7 419.9 244 419.3 243.2 419.3C242.4 419.3 241.7 419.9 241.5 420.7C241.4 421.3 241.6 421.9 241.9 422.3C242.2 422.8 242.7 423.2 243.1 423.5C243.7 424 244.3 424.5 244.9 425.1C245.5 424.6 246 424 246.6 423.5C247 423.1 247.5 422.7 247.8 422.2C248 421.6 248.2 421 248.1 420.5ZM340.9 432.9C340.9 432.3 340.9 431.4 340.9 430.2C340.9 427.8 340.9 424.3 340.9 419.7C340.9 410.5 341 397.1 341 380.3V380.1H340.8C302.4 380 245 380 181 380H180.7V380.3C180.7 398.9 180.7 417 180.7 433.9V434.2H181C227.1 434.2 267.1 434.1 295.6 434.1C309.8 434.1 321.1 434 328.9 434C332.8 434 335.8 434 337.8 434C338.8 434 339.6 434 340.1 434C340.6 434 340.9 434 340.9 434C340.9 434 340.6 434 340.1 434C339.6 434 338.8 434 337.8 434C335.7 434 332.7 434 328.8 434C321 434 309.6 434 295.4 433.9C266.9 433.9 227 433.8 181 433.8L181.3 434.1C181.3 417.2 181.3 399.1 181.3 380.5L181 380.8C245 380.8 302.4 380.7 340.9 380.7L340.7 380.5C340.7 397.3 340.8 410.6 340.8 419.8C340.8 424.4 340.8 427.9 340.8 430.4C340.8 431.3 340.9 432.2 340.9 432.9C340.9 433.5 340.9 433.8 340.9 433.8C340.9 433.8 340.9 433.5 340.9 432.9ZM184.2 128.5C184.2 128.5 184.3 128.5 184.6 128.5C184.9 128.5 185.3 128.5 185.7 128.5C186.8 128.5 188.2 128.4 189.9 128.4L189.8 128.5C189.8 127.6 189.8 126.6 189.8 125.5C189.8 124.9 189.8 124.4 189.8 123.8C189.9 123.2 190.5 122.6 191.2 122.5C191.9 122.5 192.5 122.5 193.2 122.5C194 122.6 194.6 123.3 194.6 124.1C194.6 125.5 194.6 127 194.7 128.5L194.5 128.3C196.2 128.3 198 128.3 199.8 128.2L199.6 128.4C199.6 126.3 199.6 124.1 199.5 121.8C199.5 121.2 199.5 120.7 199.5 120.1C199.5 119.6 199.2 119.2 198.8 118.9C198 118.1 197.3 117.4 196.5 116.6C195.7 115.9 195 115.1 194.3 114.4C193.9 114 193.6 113.7 193.2 113.3C192.8 112.9 192.5 112.6 192.1 112.5C191.7 112.4 191.2 112.5 190.9 112.7C190.6 113 190.2 113.4 189.9 113.7C189.3 114.4 188.6 115 188 115.6C186.8 116.8 185.6 118 184.7 119C184.3 119.6 184.5 120.3 184.4 121C184.4 121.7 184.4 122.3 184.4 122.9C184.4 124 184.4 125 184.4 125.9C184.4 126.7 184.4 127.3 184.4 127.8C184.2 128.3 184.2 128.5 184.2 128.5C184.2 128.5 184.2 128.3 184.2 127.9C184.2 127.4 184.2 126.8 184.1 126C184.1 125.1 184.1 124.1 184 123C184 122.4 184 121.8 184 121.1C184 120.8 184 120.4 184 120.1C184 119.7 184.1 119.3 184.3 119C185.3 117.8 186.4 116.7 187.6 115.5C188.2 114.9 188.8 114.2 189.5 113.6C189.8 113.3 190.1 112.9 190.5 112.6C190.9 112.3 191.5 112.2 192 112.3C192.6 112.4 192.9 112.9 193.3 113.2C193.7 113.5 194 113.9 194.4 114.3C195.1 115 195.9 115.7 196.6 116.5C197.4 117.2 198.1 118 198.9 118.8C199.1 119 199.3 119.2 199.5 119.4C199.7 119.7 199.8 120 199.8 120.3C199.8 120.9 199.8 121.4 199.8 122C199.8 124.2 199.8 126.4 199.8 128.6V128.8H199.6C197.8 128.8 196 128.8 194.3 128.8H194.1V128.6C194.1 127.1 194.1 125.6 194.1 124.2C194.1 123.6 193.6 123 193 122.9C192.4 122.9 191.7 122.9 191.1 122.9C190.5 122.9 190.1 123.4 190 123.9C189.9 124.4 190 125 190 125.6C190 126.7 190 127.7 190 128.6V128.7H189.9C188.2 128.7 186.7 128.7 185.7 128.7C185.3 128.7 184.9 128.7 184.6 128.7C184.3 128.6 184.2 128.6 184.2 128.5ZM322.7 116.6C318.4 116.6 314.9 116.7 314.9 116.8C314.9 116.9 318.4 116.9 322.7 116.9C327 116.9 330.5 116.8 330.5 116.7C330.5 116.6 327 116.6 322.7 116.6ZM330.5 120.7C330.5 120.8 327 120.9 322.7 120.9C318.4 120.9 314.9 120.9 314.9 120.8C314.9 120.7 318.4 120.6 322.7 120.6C327 120.6 330.5 120.6 330.5 120.7ZM330.5 124.7C330.5 124.8 327 124.9 322.7 124.9C318.4 124.9 314.9 124.9 314.9 124.8C314.9 124.7 318.4 124.6 322.7 124.6C327 124.5 330.5 124.6 330.5 124.7ZM262.3 159.7C262.3 159.7 262.1 159.7 261.8 159.8C261.4 159.8 261 159.8 260.4 159.8C259.1 159.8 257.5 159.8 255.4 159.9C251.2 159.9 245.4 160 238.9 160C232.5 160 226.6 160 222.4 159.9C220.4 159.9 218.7 159.8 217.4 159.8C216.9 159.8 216.4 159.8 216 159.8C215.7 159.8 215.5 159.8 215.5 159.7C215.5 159.7 215.7 159.7 216 159.6C216.4 159.6 216.8 159.6 217.4 159.6C218.7 159.6 220.3 159.6 222.4 159.5C226.6 159.5 232.4 159.4 238.9 159.4C245.3 159.4 251.1 159.4 255.4 159.5C257.4 159.5 259.1 159.6 260.4 159.6C260.9 159.6 261.4 159.6 261.8 159.6C262.1 159.6 262.3 159.6 262.3 159.7ZM327.7 355.4L323.3 351L319.1 355.1V342.6H327.6L327.7 355.4ZM323.4 350.5L323.5 350.6L327.3 354.5V343.1H319.5V354.3L323.4 350.5ZM216.9 354.1L214.9 353.2C213.9 353.7 213 354 212.3 354C209.2 354 206.6 351.5 206.6 348.4C206.6 345.3 209.1 342.7 212.2 342.7C215.3 342.7 217.9 345.2 217.9 348.3C217.9 349.7 217.4 351 216.5 352.1L216.9 354.1ZM212.1 343.1C209.2 343.1 206.8 345.5 206.9 348.4C206.9 351.3 209.3 353.7 212.2 353.6C212.9 353.6 213.8 353.3 214.7 352.8H214.8L216.3 353.5L216 352L216.1 351.9C217 350.9 217.5 349.6 217.5 348.3C217.4 345.4 215 343.1 212.1 343.1ZM230 353.3L227.7 347.6L223.3 343.6L233.9 343.5L230 353.3ZM224.3 343.9L228 347.3L230 352.2L233.3 343.8L224.3 343.9ZM228.1 347.6L227.9 347.3L233.7 343.5L233.9 343.8L228.1 347.6ZM199.4 348C198.8 348.9 197.9 349.7 197.1 350.5C195.9 351.6 194.9 352.6 193.8 353.6C192.6 352.6 191.5 351.6 190.3 350.5C189.5 349.8 188.6 349 188 348.1C187.4 347.2 187 346 187.2 344.9C187.5 343.4 189 342.2 190.5 342.2C192 342.2 193.4 343.5 193.7 345C193.9 343.5 195.3 342.2 196.8 342.1C198.3 342 199.9 343.2 200.2 344.7C200.4 345.8 200 347 199.4 348ZM206.4 159.7C206.4 163.7 203.2 166.9 199.2 166.9C195.2 166.9 192 163.7 192 159.7C192 155.7 195.2 152.5 199.2 152.5C203.2 152.5 206.4 155.7 206.4 159.7ZM325 314C325 314.1 294.7 314.3 257.4 314.3C220.1 314.3 189.8 314.2 189.8 314C189.8 313.8 220.1 313.7 257.4 313.7C294.8 313.8 325 313.9 325 314ZM325 302.8C325 302.9 294.7 303.1 257.4 303.1C220.1 303.1 189.8 303 189.8 302.8C189.8 302.6 220.1 302.5 257.4 302.5C294.8 302.5 325 302.6 325 302.8ZM263.4 325.5C263.4 325.6 246.9 325.8 226.6 325.8C206.3 325.8 189.8 325.7 189.8 325.5C189.8 325.3 206.3 325.2 226.6 325.2C247 325.2 263.4 325.3 263.4 325.5ZM251.5 445.2C249.9 445.2 248.6 446.5 248.6 448.1C248.6 449.7 249.9 451 251.5 451C253.1 451 254.4 449.7 254.4 448.1C254.4 446.5 253.1 445.2 251.5 445.2ZM260.4 445.2C258.8 445.2 257.5 446.5 257.5 448.1C257.5 449.7 258.8 451 260.4 451C262 451 263.3 449.7 263.3 448.1C263.3 446.5 262 445.2 260.4 445.2ZM269.3 445.2C267.7 445.2 266.4 446.5 266.4 448.1C266.4 449.7 267.7 451 269.3 451C270.9 451 272.2 449.7 272.2 448.1C272.2 446.6 270.9 445.2 269.3 445.2Z" fill="#375A64"/>
<path id="Vector_15" d="M196.7 271.8L242.5 210.4L270.9 248.8L290.2 228.3L327.9 271.7L196.7 271.8Z" fill="url(#paint2_linear)"/>
<path id="Vector_16" d="M341.4 362.6C341.4 360.5 341.3 272.2 341.2 141.4L341.4 141.6C293.2 141.6 238.8 141.6 181.5 141.6L181.8 141.3C181.8 224 181.8 300.6 181.8 362.5L181.6 362.3C278.5 362.6 339.7 362.6 341.4 362.6C339.7 362.6 278.5 362.7 181.5 362.8H181.3V362.6C181.3 300.7 181.3 224.1 181.3 141.4V141.1H181.6C238.9 141.1 293.3 141.1 341.5 141.1H341.7V141.3C341.7 206.8 341.6 262.1 341.6 301.1C341.6 320.6 341.6 335.9 341.5 346.5C341.5 351.7 341.5 355.8 341.5 358.5C341.5 359.9 341.5 360.9 341.5 361.6C341.4 362.3 341.4 362.6 341.4 362.6Z" fill="#1A2E35"/>
<path id="Vector_17" d="M272.6 213.2C278.289 213.2 282.9 208.589 282.9 202.9C282.9 197.211 278.289 192.6 272.6 192.6C266.911 192.6 262.3 197.211 262.3 202.9C262.3 208.589 266.911 213.2 272.6 213.2Z" fill="url(#paint3_linear)"/>
</g>
<g id="Group_7">
<g id="Group_8">
<g id="Group_9">
<path id="Vector_18" d="M277.3 390.1L280.8 378.2C281.4 375.6 282.2 372.6 283.3 369.1C284.3 366 286.8 362.7 289.2 360.3C292.8 356.6 294.5 356.6 297 354.7C297.2 354.6 297.5 354.4 297.7 354.2C298.2 353.9 298.6 353.6 298.9 353.2C301 350.9 299 347.4 294.7 347.8C291.5 348.1 286.3 349 277.8 357.7C277.7 357.8 277.6 357.9 277.5 358.1C273 363.9 268.9 347.4 268.1 341.2C267.6 337.2 263.3 334.8 259.4 336.2L238.7 345.9C237 345.3 235 345.4 232.7 346.1C229.7 347.2 228 350.4 228.8 353.4L237.2 386.9L212.6 468.8H265.6L277.3 390.1Z" fill="#FFD194"/>
<path id="Vector_19" d="M318 314.9L301.6 347L293.4 344.7L252.2 378.2C248.7 381.1 243.6 380.6 240.6 377.2L224.9 359C224.9 359 256.5 345.4 262.4 334.1C268.3 322.8 261.5 320.3 261.5 320.3L276.4 303.4L318 314.9Z" fill="#7F358A"/>
<path id="Vector_20" d="M296.7 249.2C296.7 249.2 272.7 243.9 238.9 211.4C205.1 178.9 189.2 135.8 185.1 136C181 136.2 162.9 127.8 128.6 202.5C94.3 277.2 107.8 294.5 114.6 294.4C121.4 294.3 167.8 281.3 196.8 284.6C225.8 287.9 263 303 263 303L296.7 249.2Z" fill="#7F358A"/>
<path id="Vector_21" d="M347.7 289.9L339.5 305.5L335.8 312.5C330.8 322.1 319.1 326 309.3 321.5L257.9 303.6L287.9 235.2L339.3 262.6C349.2 267.8 352.9 280.1 347.7 289.9Z" fill="#7F358A"/>
<path id="Vector_22" d="M347.7 289.9L339.5 305.5L335.8 312.5C330.8 322.1 319.1 326 309.3 321.5L257.9 303.6L287.9 235.2L339.3 262.6C349.2 267.8 352.9 280.1 347.7 289.9Z" fill="#53285A"/>
<path id="Vector_23" d="M163.66 218.489C181.937 178.019 189.531 141.95 180.621 137.927C171.712 133.903 149.673 163.448 131.397 203.918C113.12 244.387 105.527 280.456 114.436 284.48C123.345 288.503 145.384 258.958 163.66 218.489Z" fill="#280E2B"/>
<path id="Vector_24" d="M352.1 312.4L338.2 308.1L346.8 291.7L357.3 298.2L352.1 312.4Z" fill="#7F358A"/>
<path id="Vector_25" d="M346.8 291.7L338.2 308.1L341.1 309L348.1 292.4L346.8 291.7Z" fill="#280E2B"/>
<path id="Vector_26" d="M337.26 295.488C337.465 295.035 330.817 291.588 322.412 287.79C314.007 283.992 307.027 281.28 306.823 281.733C306.618 282.186 313.266 285.633 321.671 289.431C330.076 293.229 337.055 295.94 337.26 295.488Z" fill="#7F358A"/>
<path id="Vector_27" d="M341.42 285.681C341.639 285.235 335.712 281.867 328.181 278.158C320.65 274.449 314.367 271.804 314.148 272.25C313.928 272.696 319.855 276.064 327.386 279.773C334.917 283.482 341.2 286.127 341.42 285.681Z" fill="#7F358A"/>
<path id="Vector_28" d="M331.8 305.7C331.7 305.9 330.1 305.6 327.4 304.7C326.1 304.3 324.5 303.8 322.8 303.2C321.1 302.6 319.3 301.7 317.4 300.8C309.8 297.3 303.9 293.8 304.1 293.4C304.3 292.9 310.6 295.7 318.1 299.2C320 300.1 321.8 301 323.4 301.7C325.1 302.4 326.6 303 327.8 303.6C330.4 304.7 331.9 305.5 331.8 305.7Z" fill="#7F358A"/>
<path id="Vector_29" d="M168.7 194.9C168.7 194.9 147.8 182 136.4 210.2C125 238.4 146.9 243 146.9 243C155.9 229.1 163.2 213.1 168.7 194.9Z" fill="#7F358A"/>
<path id="Vector_30" d="M190.9 161.3C191 161.3 190.7 163.2 190.1 166.7C189.4 170.1 188.5 175.1 187.2 181.3C186.3 184.3 185.4 187.6 184.3 191.2C183.8 193 183.2 194.8 182.7 196.7C182.4 197.6 182.1 198.6 181.8 199.6C181.5 200.6 181.1 201.5 180.7 202.5C179.2 206.4 177.6 210.4 176 214.7C175.6 215.8 175.2 216.8 174.8 217.9C174.4 219 173.8 220 173.3 221.1C172.3 223.2 171.2 225.3 170.2 227.5C169.1 229.7 168.1 231.8 167.1 233.9C166.6 234.9 166.1 236 165.5 237C164.9 238 164.3 239 163.8 239.9C161.5 243.8 159.3 247.5 157.2 251.1C156.7 252 156.2 252.9 155.6 253.7C155 254.5 154.4 255.3 153.9 256.1C152.8 257.7 151.7 259.3 150.6 260.8C148.5 263.8 146.5 266.6 144.6 269.2C140.6 274 137.3 277.8 135 280.5C132.7 283.1 131.4 284.6 131.3 284.5C131.2 284.4 132.3 282.9 134.5 280.1C136.7 277.3 139.9 273.3 143.7 268.4C145.5 265.8 147.4 263 149.5 260C150.5 258.5 151.6 256.9 152.7 255.3C153.3 254.5 153.8 253.7 154.4 252.9C154.9 252.1 155.4 251.2 156 250.3C158.1 246.7 160.3 243 162.5 239.1C163.1 238.1 163.6 237.2 164.2 236.2C164.8 235.2 165.2 234.1 165.7 233.1C166.7 231 167.7 228.9 168.8 226.7C169.8 224.6 170.9 222.4 171.9 220.4C172.4 219.3 173 218.3 173.4 217.3C173.8 216.2 174.2 215.2 174.6 214.1C176.3 209.9 177.9 205.9 179.4 202.1C179.8 201.1 180.2 200.2 180.5 199.3C180.8 198.3 181.1 197.4 181.4 196.5C182 194.6 182.5 192.8 183.1 191.1C184.2 187.6 185.2 184.3 186.2 181.4C187.6 175.4 188.8 170.5 189.7 167C190.2 163.2 190.7 161.3 190.9 161.3Z" fill="#53285A"/>
<path id="Vector_31" d="M229.9 356.8C231.8 360.3 233.7 363.8 236.6 366.5C239.4 369.3 243.3 371.2 247.2 370.8C251.1 370.4 254.8 367.1 254.9 363.2C256.8 364.6 259.7 363.8 261.2 362.1C262.8 360.3 263.3 357.9 263.5 355.5C266.1 357 269.6 355.8 271.3 353.4C273 351 273.1 347.7 272.3 344.8C271.5 341.9 269.8 339.4 268.2 336.9C270.2 337.1 272.3 337.2 274 336.3C275.8 335.4 277 333.1 275.9 331.4C275.3 330.4 274.1 329.9 273 329.6C269.9 328.6 267.7 327.9 264.5 328.2C263.8 328.2 265.8 336.7 245.6 348.3C233.8 355.2 229.9 356.8 229.9 356.8Z" fill="#280E2B"/>
</g>
<path id="Vector_32" d="M275.3 369C275.3 369.1 273.9 368.8 271.8 368.9C269.6 368.9 266.6 369.4 263.6 370.9C260.6 372.3 258.3 374.4 257 376.1C255.6 377.8 255 379 254.9 378.9C254.9 378.9 255 378.6 255.3 378C255.6 377.5 256.1 376.7 256.7 375.8C258 374.1 260.3 371.9 263.4 370.4C266.5 368.9 269.6 368.5 271.8 368.5C272.9 368.5 273.8 368.6 274.4 368.7C275 368.9 275.3 369 275.3 369Z" fill="#EB996E"/>
<path id="Vector_33" d="M231.2 351.4C234.4 354.5 236.7 358 240.1 361.1C241.6 362.5 244.1 365.2 246.1 365.6C248.2 366 249.5 365.7 250.3 363.7C251 362.1 249.8 360 248.9 358.7C246.7 355.3 244.7 352.6 243 350C242.2 348.8 243.2 348.5 243.6 349.1C245.2 350.7 247.5 352.1 248.9 353.9C250.8 356.3 251.2 359.5 256.2 358.5C256.9 358.4 257.5 358.1 258.1 357.7C260 356.3 260.1 353.7 259.3 351.7C258.7 350.1 257.6 348.8 256.5 347.5C258.6 349.9 261 352.5 264.4 352.7C266.4 352.9 268.4 351.9 269.2 350.1C270.2 347.8 268.8 345.6 267.3 343.8C264.7 340.6 261.9 337.7 258.8 335.1C257.6 334.1 256.2 333.6 254.7 333.6C252.9 333.6 250.7 333.9 249.7 335.4C247.7 338.2 248.3 340.6 248.3 340.6C248.3 340.6 243.9 338.4 240.4 340.7C236.9 343 236 347.1 236 347.1L231.2 351.4Z" fill="#FFD194"/>
<path id="Vector_34" d="M254.7 332.7C253.3 331.3 253 328.8 254.1 326.7C254.8 325.2 255.8 323.8 256.8 323.5C261 322.1 279.3 325.3 279.1 329.3C278.9 333.5 277.6 335.3 267.7 333.9C266 333.6 263.2 333.3 263.2 333.3L260.8 336.9L254.7 332.7Z" fill="#FFD194"/>
</g>
<g id="Group_10">
<path id="Vector_35" d="M257.9 349.7C257.8 349.8 256.4 346.9 253.5 344.4C250.7 341.8 247.7 340.7 247.8 340.6C247.8 340.5 248.6 340.7 249.7 341.3C250.9 341.8 252.4 342.8 253.8 344.1C255.2 345.4 256.3 346.8 257 347.9C257.7 348.9 258 349.7 257.9 349.7Z" fill="#EB996E"/>
</g>
<g id="Group_11">
<path id="Vector_36" d="M261 337.2C260.9 337.3 259.7 336.3 258.1 335.3C257.3 334.8 256.5 334.4 256 334.1C255.4 333.8 255.1 333.8 255.1 333.7C255.1 333.6 255.5 333.6 256.2 333.8C256.8 334 257.7 334.4 258.5 334.9C260 335.9 261.1 337.1 261 337.2Z" fill="#EB996E"/>
</g>
<g id="Group_12">
<path id="Vector_37" d="M264.1 333.4C264.1 333.5 262.5 333.6 260.6 333C259.6 332.7 258.8 332.2 258.3 331.8C257.8 331.4 257.6 331 257.6 331C257.7 330.9 258.8 332 260.7 332.5C262.5 333 264.1 333.2 264.1 333.4Z" fill="#EB996E"/>
</g>
<g id="Group_13">
<path id="Vector_38" d="M246.3 354.7C246.2 354.7 245.6 353.9 244.6 352.5C243.6 351.1 242.4 349.1 240.3 347.6C238.3 346.1 235.9 345.8 234.2 346C232.6 346.2 231.7 346.9 231.6 346.8C231.6 346.8 231.8 346.6 232.2 346.3C232.6 346 233.3 345.8 234.1 345.6C235.8 345.3 238.4 345.6 240.5 347.1C242.7 348.7 243.9 350.8 244.8 352.2C245.8 353.8 246.4 354.7 246.3 354.7Z" fill="#EB996E"/>
</g>
<g id="Group_14">
<path id="Vector_39" d="M252.822 396.281C256.994 395.827 260.362 395.325 260.344 395.161C260.326 394.996 256.929 395.23 252.757 395.684C248.584 396.138 245.216 396.639 245.234 396.804C245.252 396.969 248.649 396.734 252.822 396.281Z" fill="#EB996E"/>
</g>
</g>
<g id="Group_15">
<path id="Vector_40" d="M406.8 62.6L408 64.7L410 65.8L408 67L406.8 69L405.7 67L403.7 65.8L405.7 64.7L406.8 62.6Z" fill="#7F358A"/>
<path id="Vector_41" d="M430.4 113.8L431.6 115.9L433.6 117L431.6 118.1L430.4 120.2L429.3 118.1L427.3 117L429.3 115.9L430.4 113.8Z" fill="#7F358A"/>
<path id="Vector_42" d="M52.1 250.3L53.2 252.4L55.3 253.5L53.2 254.6L52.1 256.7L51 254.6L48.9 253.5L51 252.4L52.1 250.3Z" fill="#7F358A"/>
<path id="Vector_43" d="M375.9 75.4L378.5 80.1L383.2 82.7L378.5 85.3L375.9 90.1L373.3 85.3L368.5 82.7L373.3 80.1L375.9 75.4Z" fill="#7F358A"/>
<path id="Vector_44" d="M73.3 217.9L75.9 222.6L80.6 225.2L75.9 227.8L73.3 232.6L70.7 227.8L65.9 225.2L70.7 222.6L73.3 217.9Z" fill="#7F358A"/>
<path id="Vector_45" d="M436.9 331.4L439.5 336.1L444.2 338.7L439.5 341.3L436.9 346.1L434.3 341.3L429.5 338.7L434.3 336.1L436.9 331.4Z" fill="#7F358A"/>
<path id="Vector_46" d="M408.8 416.7C408.3 414.2 405.8 412.2 403.2 412.3C400.6 412.4 398.3 414.5 397.9 417.1C397.5 414.6 395.2 412.4 392.6 412.4C390 412.3 387.5 414.3 387 416.9C386.7 418.8 387.3 420.7 388.3 422.3C389.3 423.9 390.8 425.1 392.2 426.4C394.2 428.2 396 429.8 398 431.6C400 429.8 401.6 428.2 403.6 426.4C405 425.1 406.4 423.8 407.4 422.3C408.6 420.5 409.2 418.6 408.8 416.7Z" fill="#7F358A"/>
</g>
</g>
</g>
<defs>
<linearGradient id="paint0_linear" x1="51.6282" y1="267.395" x2="471.249" y2="267.395" gradientUnits="userSpaceOnUse">
<stop stop-color="white"/>
<stop offset="1" stop-color="#A69EBF"/>
</linearGradient>
<linearGradient id="paint1_linear" x1="76.2508" y1="114.095" x2="223.73" y2="114.095" gradientUnits="userSpaceOnUse">
<stop stop-color="white"/>
<stop offset="1" stop-color="#A69EBF"/>
</linearGradient>
<linearGradient id="paint2_linear" x1="196.669" y1="241.101" x2="327.93" y2="241.101" gradientUnits="userSpaceOnUse">
<stop stop-color="white"/>
<stop offset="1" stop-color="#A69EBF"/>
</linearGradient>
<linearGradient id="paint3_linear" x1="262.279" y1="202.911" x2="282.949" y2="202.911" gradientUnits="userSpaceOnUse">
<stop stop-color="white"/>
<stop offset="1" stop-color="#A69EBF"/>
</linearGradient>
</defs>
</svg>
