<svg width="520" height="520" viewBox="0 0 520 520" fill="none" xmlns="http://www.w3.org/2000/svg">
<style>
	* {
		transform-box: fill-box;
	}
	#leg {
		transform-origin: top right;
		animation: rotate-animation 0.6s linear infinite alternate;
	}
	@keyframes rotate-animation {
        0% {
            transform: rotate(0deg);
        }
        100% {
            transform: rotate(3deg);
        }
    }
	#face {
		transform-origin: center center;
		animation: face-rotate-animation 2.5s linear infinite alternate;
	}
	@keyframes face-rotate-animation {
        0% {
            transform: rotate(-150deg);
        }
        100% {
            transform: rotate(120deg);
        }
    }	
	
</style>
<g id="iq4bet_img06 1">
<g id="Group">
<g id="Group_2">
<path id="Vector" d="M76.2 315.5C76.9 310.5 78 305.2 82.1 302.1C84.9 300 88.4 300 91.5 301.2C92.6 301.6 93.5 302.1 94.5 302.7C94.5 302.8 94.6 302.9 94.6 303C94.6 303 86.2 300 82.1 306.1C78 312.2 82.9 327.7 120.9 336.4C120.9 336.4 119.9 319.8 111.8 302C103.9 284.7 89.9 290.6 94.2 301.9C91.3 300 88.1 298.9 84.6 299.9C78.7 301.5 76.5 307.9 75.4 313.3C75.2 314.1 75.1 314.8 75 315.6C74.9 315.6 74.8 315.6 74.7 315.7C74.2 315.9 73.7 316.2 73.4 316.6C73.3 315.9 73.2 315.1 73.1 314.4C72.4 309.5 71.6 304.6 70.2 299.8C69.2 296.1 67.8 292.5 65.3 289.5L65.2 289.4C65.3 287.9 65.4 286.5 65.6 285C65.8 283 66.1 281 66.5 279.1C66.8 277.7 67.2 276.2 68.2 275.1C69.5 273.7 71.5 273.8 73 274.7C74.1 275.4 75 276.4 75.6 277.6C75.6 277.7 75.6 277.7 75.6 277.7C75.6 277.7 65.9 271 69.2 281.1C71.4 287.9 89.2 298.3 89.2 298.3C89.2 298.3 88.8 280.9 78.8 272.9C73.8 268.9 74.8 274.8 75.3 276.9C74.1 275 72.5 273.2 70.1 273.3C67.4 273.5 66.1 276.3 65.5 278.6C64.7 281.8 64.2 285 63.9 288.3C61.6 286.1 58.5 284.8 55.2 285.2C50.8 285.7 47.2 288.6 44.1 291.6C44.1 291.6 44.1 291.6 44 291.7C45.2 288.9 48 281.3 42.4 278.6C35.5 275.2 12.6 300.8 5.90002 338.3C5.90002 338.3 43 321.9 55.6 305.5C67.7 289.8 55 285.9 44.8 292C47.1 289.9 49.6 288 52.6 287.1C54.6 286.5 56.8 286.3 58.9 287C60.6 287.5 62 288.5 63.2 289.7C63.4 289.9 63.6 290.2 63.8 290.4C63.5 293.8 63.4 297.3 63.3 300.7C62.9 308.3 62.6 315.9 62.3 323.6C59.4 324.4 57.3 327 56 329.8C55.1 331.6 54.5 333.6 54 335.5C53.7 336.6 53.4 337.7 53.1 338.8C52.9 337.7 52.6 336.7 52.2 335.7C51.6 333.9 50.5 332.3 48.7 331.7C45.2 330.5 42.6 333.1 40.7 335.9C41.3 333.6 43.6 323.3 35.9 329.4C21.5 340.7 21 365.7 21 365.7C21 365.7 46.6 350.8 49.8 341C50.9 337.7 51 335.6 50.5 334.4C51.2 335.5 51.8 337.2 52.3 339.6C52.4 340 52.5 340.5 52.6 341C52.4 341.7 52.2 342.5 52 343.2C50.7 348.4 49.6 353.7 48.7 359C48.2 362 47.7 364.9 47.3 367.9C46.9 370.9 46.4 374 46.4 377C46.4 377.5 47.2 377.6 47.3 377.1C47.8 374.6 48 372 48.4 369.5C48.8 367 49.2 364.4 49.6 361.9C50.5 356.9 51.4 351.8 52.6 346.8C52.8 346 53 345.2 53.1 344.4C55.5 359.4 57.5 382.7 57.7 384.4C57.9 385.4 58.6 385.4 58.6 384.3C58.6 381.9 58.3 379.6 58.1 377.2C57.9 374.8 57.7 372.4 57.4 370C56.9 365.3 56.3 360.5 55.7 355.8C55.1 351.1 54.5 346.4 53.7 341.7C54.4 338.6 55.2 335.6 56.2 332.6C57.3 329.4 59 325.6 62.4 324.4C62.4 324.9 62.4 325.5 62.4 326C59.6 327.9 59.5 332.9 62.1 338.6C62.1 341.3 62 344 62 346.8C62 351.1 62 355.4 62 359.7C62 364.1 62 368.5 62.3 372.8C62.3 373.2 62.9 373.2 62.9 372.8C62.9 369.1 62.8 365.3 62.8 361.6C62.8 357.9 62.8 354.3 62.9 350.6C63 347.3 63 344 63.1 340.6C64.7 343.4 66.8 346.2 69.6 348.9C69.3 350.9 69 352.9 68.7 354.9C68.1 358.9 67.6 362.8 67 366.8C66.7 368.8 66.4 370.8 66.2 372.7C65.9 374.6 65.6 376.6 65.5 378.5C65.5 379.1 66.4 379.2 66.6 378.6C67.4 375.3 67.7 371.9 68.2 368.5C68.7 365.1 69.2 361.8 69.7 358.4C70.1 355.6 70.5 352.8 71 350C71.2 350.2 71.5 350.4 71.7 350.6C72.8 351.5 73.9 352.4 75 353.3C75.1 354.5 75.1 355.7 75.2 356.9C75.7 366.8 76.1 376.7 77 386.6C77.1 387.8 77.3 389 77.4 390.2C77.5 391 78.8 391 78.7 390.2C77.9 380 77.4 369.8 77 359.6C76.9 358 76.8 356.3 76.8 354.7C87 362.3 98 368.4 98 368.4C101.5 337 84.5 315.6 76.2 315.5ZM47 332.3C47.9 332.4 48.8 332.7 49.6 333.4C47.5 332.1 43 334.7 41.3 335.7C42.7 334 44.8 332.1 47 332.3ZM64.3 306.6C64.5 302.9 64.6 299.3 64.8 295.6C64.9 294.3 64.9 293 65 291.7C66.5 293.9 67.4 296.5 68.2 299C70.2 305.8 71.2 312.8 72.1 319.8C71.8 322.1 72.4 324.7 72.8 326.2C72.8 326.4 72.8 326.6 72.9 326.8C70.6 324.9 68.1 323.3 65 323.2C64.6 323.2 64.2 323.2 63.8 323.3C63.8 317.7 64.1 312.1 64.3 306.6ZM63.5 325.6C63.5 325.2 63.5 324.7 63.6 324.3C66.9 323.7 70 325.3 72.8 327.3C71.7 326.5 67.5 323.9 63.5 325.6Z" fill="#A69DBF"/>
<g id="Group_3">
<g id="Group_4">
<path id="Vector_2" d="M86.3 381L85.5 394.9L83 436.2H40.7L38.2 394.9L37.4 381H86.3Z" fill="#262D40"/>
<path id="Vector_3" d="M86.3 381L85.5 394.9H38.2L37.4 381H86.3Z" fill="#0D0F14"/>
</g>
<path id="Vector_4" d="M90.3 371.1H33.5V385.1H90.3V371.1Z" fill="#262D40"/>
</g>
</g>
<g id="Group_5">
<path id="Vector_5" d="M280.8 517.9C409.814 517.9 514.4 508.767 514.4 497.5C514.4 486.233 409.814 477.1 280.8 477.1C151.786 477.1 47.2 486.233 47.2 497.5C47.2 508.767 151.786 517.9 280.8 517.9Z" fill="url(#paint0_linear)"/>
</g>
<g id="Group_6">
<g id="Group_7">
<path id="Vector_6" d="M384.3 5.29999H165.4V223.8H384.3V5.29999Z" fill="url(#paint1_linear)"/>
<path id="Vector_7" d="M384.5 5.29999H165.4V18.5H384.5V5.29999Z" fill="#262D40"/>
<g id="Group_8">
<path id="Vector_8" d="M173 14.6C174.491 14.6 175.7 13.3912 175.7 11.9C175.7 10.4088 174.491 9.19998 173 9.19998C171.509 9.19998 170.3 10.4088 170.3 11.9C170.3 13.3912 171.509 14.6 173 14.6Z" fill="#C8C8C8"/>
<path id="Vector_9" d="M184.2 14.6C185.691 14.6 186.9 13.3912 186.9 11.9C186.9 10.4088 185.691 9.19998 184.2 9.19998C182.709 9.19998 181.5 10.4088 181.5 11.9C181.5 13.3912 182.709 14.6 184.2 14.6Z" fill="white"/>
<path id="Vector_10" d="M195.4 14.6C196.891 14.6 198.1 13.3912 198.1 11.9C198.1 10.4088 196.891 9.19998 195.4 9.19998C193.909 9.19998 192.7 10.4088 192.7 11.9C192.7 13.3912 193.909 14.6 195.4 14.6Z" fill="#7F358A"/>
</g>
<path id="Vector_11" d="M355 40.8H194.9V200.9H355V40.8Z" fill="white"/>
<g id="face">
<path id="Vector_12" d="M275.347 174.697L275.335 173.497C306.034 173.204 330.794 147.967 330.501 117.268C330.208 86.5695 304.97 61.8093 274.271 62.1025C243.573 62.3957 218.813 87.6333 219.106 118.332L217.906 118.343C217.606 86.9448 242.861 61.2024 274.26 60.9026C305.659 60.6027 331.401 85.858 331.701 117.257C332.001 148.655 306.745 174.398 275.347 174.697Z" fill="#318BCF"/>
<g id="Group_9">
<path id="Vector_13" d="M218.536 121.437C220.248 121.421 221.622 120.02 221.606 118.308C221.589 116.596 220.188 115.221 218.476 115.238C216.764 115.254 215.39 116.655 215.406 118.367C215.422 120.079 216.824 121.454 218.536 121.437Z" fill="#318BCF"/>
<path id="Vector_14" d="M218.541 122.037C216.541 122.057 214.825 120.373 214.806 118.373C214.787 116.373 216.471 114.657 218.471 114.638C220.471 114.619 222.187 116.302 222.206 118.302C222.225 120.302 220.541 122.018 218.541 122.037ZM218.483 115.938C217.183 115.95 216.094 117.061 216.106 118.361C216.119 119.66 217.229 120.75 218.529 120.738C219.829 120.725 220.918 119.615 220.906 118.315C220.893 117.015 219.883 115.924 218.483 115.938Z" fill="#318BCF"/>
</g>
<path id="Vector_15" d="M251.055 112.827C254.7 112.792 257.626 109.809 257.592 106.164C257.557 102.519 254.574 99.5923 250.929 99.6272C247.284 99.662 244.357 102.645 244.392 106.29C244.427 109.935 247.41 112.861 251.055 112.827Z" fill="#318BCF"/>
<path id="Vector_16" d="M298.453 112.374C302.098 112.339 305.024 109.356 304.989 105.711C304.955 102.066 301.972 99.1397 298.327 99.1745C294.682 99.2093 291.755 102.192 291.79 105.837C291.825 109.482 294.808 112.409 298.453 112.374Z" fill="#318BCF"/>
<g id="Group_10">
<path id="Vector_17" d="M331.13 120.362C332.842 120.346 334.217 118.945 334.201 117.233C334.184 115.521 332.783 114.146 331.071 114.162C329.359 114.179 327.985 115.58 328.001 117.292C328.017 119.004 329.418 120.379 331.13 120.362Z" fill="#318BCF"/>
<path id="Vector_18" d="M331.136 120.962C329.136 120.981 327.42 119.298 327.401 117.298C327.382 115.298 328.966 113.583 331.066 113.563C333.065 113.543 334.782 115.227 334.801 117.227C334.82 119.227 333.136 120.943 331.136 120.962ZM331.078 114.862C329.778 114.875 328.689 115.985 328.701 117.285C328.713 118.585 329.824 119.675 331.124 119.662C332.424 119.65 333.513 118.539 333.501 117.239C333.488 115.939 332.378 114.85 331.078 114.862Z" fill="#318BCF"/>
</g>
<g id="Group_11">
<path id="Vector_19" d="M274.295 64.6024C276.007 64.586 277.382 63.1849 277.366 61.4729C277.349 59.7609 275.948 58.3863 274.236 58.4027C272.524 58.419 271.15 59.8201 271.166 61.5321C271.182 63.2441 272.583 64.6187 274.295 64.6024Z" fill="#318BCF"/>
<path id="Vector_20" d="M274.301 65.2024C272.301 65.2215 270.585 63.5378 270.566 61.5379C270.547 59.538 272.23 57.8218 274.23 57.8027C276.23 57.7836 277.946 59.4673 277.966 61.4672C277.985 63.4671 276.301 65.1833 274.301 65.2024ZM274.243 59.1026C272.943 59.1151 271.853 60.2255 271.866 61.5255C271.878 62.8254 272.989 63.9148 274.289 63.9024C275.589 63.89 276.678 62.7796 276.666 61.4796C276.653 60.1797 275.543 59.0902 274.243 59.1026Z" fill="#318BCF"/>
</g>
<path id="Vector_21" d="M275.37 177.097C277.082 177.081 278.456 175.68 278.44 173.968C278.424 172.256 277.023 170.881 275.31 170.898C273.598 170.914 272.224 172.315 272.24 174.027C272.257 175.739 273.658 177.114 275.37 177.097Z" fill="#318BCF"/>
<path id="Vector_22" d="M287.176 104.381C287.242 111.281 281.695 116.934 274.796 117C267.896 117.066 262.243 111.52 262.177 104.62L287.176 104.381Z" fill="#318BCF"/>
</g>
</g>
</g>
<g id="Group_12">
<path id="Vector_23" d="M321.9 336.6L318.6 356.7L295.8 479.4H292.2L308.7 356.7L311.1 336.6H321.9Z" fill="#D0CCE2"/>
<path id="Vector_24" d="M311.1 336.6H321.9L318.6 356.7H308.7L311.1 336.6Z" fill="#A69DBF"/>
<path id="Vector_25" d="M393.2 479.4H389.6L366.9 356.7L363.5 336.6H374.3L376.7 356.7L393.2 479.4Z" fill="#D0CCE2"/>
<path id="Vector_26" d="M374.3 336.6L376.7 356.7H366.9L363.5 336.6H374.3Z" fill="#A69DBF"/>
<path id="Vector_27" d="M461.4 479.4H457.7L435 356.7L431.7 336.6H442.4L444.9 356.7L461.4 479.4Z" fill="#D0CCE2"/>
<path id="Vector_28" d="M444.9 356.7H435L431.7 336.6H442.4L444.9 356.7Z" fill="#A69DBF"/>
<path id="Vector_29" d="M455.6 346.1H289.1V328.5H351.4L372.4 180.8H449.2L455.6 346.1Z" fill="#A69DBF"/>
<path id="Vector_30" d="M445.9 328.5H289.1V346.1H446.5L445.9 328.5Z" fill="#D0CCE2"/>
<path id="Vector_31" d="M455.6 346.1H446.5L440.6 180.8H449.2L455.6 346.1Z" fill="#D0CCE2"/>
</g>
<g id="Group_13">
<g id="Group_14">
<path id="Vector_32" d="M286.2 502.4C289.4 502.7 377.2 481.7 379.9 478.9C380.2 478.6 378.5 470.6 376 459.7L375.9 459.5C375.3 456.9 371.4 447.6 366.7 436.8C357.3 439.3 323.8 448.4 311.6 452.2L317.7 464.5C317.7 464.5 307 472.2 297.8 479.6C292.1 484.1 287.2 488.2 286.2 489.5C283.6 492.9 283 502.1 286.2 502.4Z" fill="white"/>
<g id="Group_15">
<path id="Vector_33" d="M286 502.8C289.3 503.1 377.1 481.8 380 478.9C381.1 477.8 379.1 463.9 374.3 449.3L317.6 463C317.6 463 288.7 485.9 285.9 489.5C283.2 493 282.6 502.5 286 502.8Z" fill="#7F358A"/>
<g id="Group_16">
<g id="Group_17">
<path id="Vector_34" d="M286.4 499C301 495.1 360.4 480.6 375.2 477.9C375.3 477.9 375.3 478 375.2 478C360.8 482.2 301.3 496.2 286.5 499.3C286.1 499.3 286.1 499 286.4 499Z" fill="#262D40"/>
<path id="Vector_35" d="M290.9 485C294.4 484 298.2 484.8 300.6 486.5C302.9 488.1 305.2 490.5 305.8 493.6C305.8 493.7 305.7 493.7 305.6 493.6C303.4 488 296.9 484.3 291 485.2C290.8 485.2 290.7 485 290.9 485Z" fill="#262D40"/>
<path id="Vector_36" d="M313.4 465.6C319.3 464.1 326.6 464.5 331.4 468.5C331.6 468.7 331.4 468.9 331.2 468.9C325.2 467.4 319.7 466.6 313.5 466.4C313 466.4 312.9 465.7 313.4 465.6Z" fill="#262D40"/>
<path id="Vector_37" d="M309.2 468.5C315.1 467 322.4 467.4 327.2 471.4C327.4 471.6 327.2 471.8 327 471.8C321 470.3 315.5 469.5 309.3 469.3C308.9 469.2 308.8 468.6 309.2 468.5Z" fill="#262D40"/>
<path id="Vector_38" d="M305.1 471.4C311 469.9 318.3 470.3 323.1 474.3C323.3 474.5 323.1 474.7 322.9 474.7C316.9 473.2 311.4 472.4 305.2 472.2C304.8 472.1 304.7 471.5 305.1 471.4Z" fill="#262D40"/>
<path id="Vector_39" d="M301 474.2C306.9 472.7 314.2 473.1 319 477.1C319.2 477.3 319 477.5 318.8 477.5C312.8 476 307.3 475.2 301.1 475C300.6 475 300.6 474.3 301 474.2Z" fill="#262D40"/>
<path id="Vector_40" d="M368 464.8C374.6 463.2 377.1 473.5 370.5 475.1C363.9 476.6 361.4 466.4 368 464.8Z" fill="#262D40"/>
</g>
<path id="Vector_41" d="M305.8 460C310 463.3 315.4 464.7 320.3 466.6C320.8 466.8 321.2 466.3 321.2 465.9C321.3 465.9 321.4 465.8 321.3 465.7C319.7 460.7 316.3 455.4 312.3 451.9C309.8 449.8 305.5 448.3 303.1 451.5C300.9 454.5 303.3 458 305.8 460ZM304.3 455.1C303.3 448.5 310.3 452.1 312.1 453.7C313.2 454.8 314.2 456 315.2 457.2C317.2 459.7 318.9 462.4 320.6 465.1C318.3 464 315.8 463.2 313.4 462.2C310.6 461 304.8 458.8 304.3 455.1Z" fill="#262D40"/>
<path id="Vector_42" d="M341.4 456.8C340 453.1 335.4 453.3 332.5 454.6C327.7 456.8 322.9 460.9 320 465.3C319.9 465.4 320 465.5 320.1 465.5C320 465.9 320.3 466.5 320.8 466.5C326 466.1 331.7 466.2 336.6 464.2C339.4 463.1 342.7 460.4 341.4 456.8ZM328.5 464.3C325.9 464.6 323.4 464.7 320.8 465.1C323.2 463 325.6 460.8 328.2 459C329.5 458.1 330.8 457.3 332.2 456.6C334.3 455.5 342 454.1 339.3 460.1C337.8 463.4 331.6 464 328.5 464.3Z" fill="#262D40"/>
</g>
</g>
</g>
<g id="Group_18">
<path id="Vector_43" d="M311.4 459.7L372.3 441.4C372.3 441.4 322.1 336.7 323.7 331.4C324.8 327.8 400.1 327.6 422.1 307.8C444.9 287.3 427.2 247 427.2 247L363.9 246.7C363.9 246.7 365 259.9 362.6 262C361 263.4 274.5 271 257.9 302.8C242.7 331.7 311.4 459.7 311.4 459.7Z" fill="#262D40"/>
<path id="Vector_44" d="M323.6 331.5C323.3 332.4 324.5 336.2 326.8 341.8L281.3 397.7C265.1 360.7 249.8 318.1 257.7 302.9C274.3 271.1 360.8 263.5 362.4 262.1C364.8 260 363.7 246.8 363.7 246.8L403.9 247L337.1 329C329.2 329.8 323.9 330.5 323.6 331.5Z" fill="#0D0F14"/>
<g id="Group_19">
<g id="Group_20">
<path id="Vector_45" d="M309.8 446.8C311.4 446 313.1 445.5 314.8 445C316.6 444.4 318.3 443.8 320.1 443.2C323.6 442.1 327.1 441 330.6 440C337.7 438 344.8 436 351.9 434.2C355.6 433.3 363.6 431.2 364.1 431.3C364.3 431.3 364.4 431.7 364.2 431.8C357.3 434.3 350.3 436.4 343.3 438.5C336.3 440.6 329.3 442.7 322.2 444.5C320.2 445 318.3 445.4 316.3 445.9C314.2 446.4 312.2 447.1 310 447.2C309.8 447.3 309.6 446.9 309.8 446.8Z" fill="white"/>
</g>
<path id="Vector_46" d="M423.7 259.1C423.5 257 423.3 254.9 423 252.8C423 252.6 422.6 252.6 422.6 252.8C423.4 261.4 424.3 270.1 422.7 278.7C421.2 286.7 417.3 293.7 411.4 299.2C398.8 310.9 381.3 314.4 364.9 317.1C355.5 318.7 346.1 319.9 336.6 320.8C332 321.3 327.3 321.6 322.7 321.9C318.1 322.2 313.5 322.2 308.9 322.5C307.4 322.6 306.1 323.2 306.4 324.9C306.5 325.9 307.1 326.9 307.5 327.8C308 328.9 308.5 330 309 331.2C310.8 335.4 312.7 339.6 314.6 343.7C318.5 352.3 322.4 360.9 326.3 369.4C334.2 386.4 342.3 403.2 350.8 419.9C351.8 422 352.9 424 354 426.1C354.1 426.2 354.3 426.1 354.2 426C346.1 409.1 338.1 392.2 330.3 375.2C326.4 366.8 322.5 358.3 318.6 349.9C316.7 345.7 314.7 341.4 312.8 337.2C311.8 335.1 310.9 333 309.9 330.8C309.4 329.7 309 328.7 308.5 327.6C308.1 326.7 306.7 324.6 307.7 323.8C308.4 323.2 309.7 323.4 310.5 323.4C311.7 323.4 312.9 323.3 314.2 323.3C316.5 323.2 318.9 323.1 321.2 323C325.9 322.8 330.6 322.4 335.3 322C344.5 321.2 353.7 320 362.8 318.6C379.1 316 396.7 313 409.8 302.1C415.5 297.3 420.1 291.1 422.3 283.9C424.7 275.9 424.5 267.4 423.7 259.1Z" fill="white"/>
</g>
</g>
</g>
<g id="leg">
<g id="Group_21">
<path id="Vector_47" d="M152.4 422.1C154.7 424.4 235.7 464.2 239.6 463.7C240.1 463.7 243.8 456.4 248.8 446.4L248.9 446.2C249.1 445.8 249.3 445.3 249.6 444.9C249.8 444.6 249.9 444.3 250.1 443.9C250.3 443.4 250.6 443 250.9 442.5C253.1 438.3 256.7 431.6 260.7 424.2L209.3 398.3L201 412.9C201 412.9 187.8 412 176.1 411.8C168.9 411.7 162.5 411.7 160.9 412C156.4 413.2 150.1 419.9 152.4 422.1Z" fill="white"/>
<g id="Group_22">
<path id="Vector_48" d="M151.9 422.3C154.3 424.6 235.4 464.3 239.5 463.8C241 463.6 248.4 451.7 254 437.3L201.6 411.8C201.6 411.8 164.7 411 160.3 412C156 413 149.5 420 151.9 422.3Z" fill="#7F358A"/>
<g id="Group_23">
<g id="Group_24">
<path id="Vector_49" d="M154.6 419.6C168.4 425.9 223.3 452.7 236.4 459.9C236.5 460 236.5 460 236.4 460C222.6 454 167.9 426.8 154.5 419.8C154.2 419.7 154.3 419.5 154.6 419.6Z" fill="#262D40"/>
<path id="Vector_50" d="M167 411.7C170.3 413.1 172.7 416.2 173.5 419C174.3 421.7 174.5 425 173 427.8C173 427.9 172.8 427.8 172.8 427.7C174.6 422 172.1 415 166.9 411.9C166.8 411.8 166.9 411.6 167 411.7Z" fill="#262D40"/>
<path id="Vector_51" d="M196.7 411.1C202.2 413.7 207.6 418.7 208.8 424.8C208.8 425 208.5 425.1 208.4 424.9C204.7 420 201 415.8 196.3 411.7C196 411.5 196.3 410.9 196.7 411.1Z" fill="#262D40"/>
<path id="Vector_52" d="M191.7 410.7C197.2 413.3 202.6 418.3 203.8 424.4C203.8 424.6 203.5 424.7 203.4 424.5C199.7 419.6 196 415.4 191.3 411.3C190.9 411.1 191.3 410.5 191.7 410.7Z" fill="#262D40"/>
<path id="Vector_53" d="M186.7 410.3C192.2 412.9 197.6 417.9 198.8 424C198.8 424.2 198.5 424.3 198.4 424.1C194.7 419.2 191 415 186.3 410.9C185.9 410.6 186.3 410.1 186.7 410.3Z" fill="#262D40"/>
<path id="Vector_54" d="M181.7 409.9C187.2 412.5 192.6 417.5 193.8 423.6C193.8 423.8 193.5 423.9 193.4 423.7C189.7 418.8 186 414.6 181.3 410.5C180.9 410.2 181.3 409.7 181.7 409.9Z" fill="#262D40"/>
<path id="Vector_55" d="M239.3 445.3C245.4 448.3 240.7 457.8 234.6 454.8C228.6 451.8 233.2 442.3 239.3 445.3Z" fill="#262D40"/>
</g>
<path id="Vector_56" d="M194.4 401.9C195.5 407.1 198.8 411.7 201.4 416.3C201.7 416.8 202.3 416.7 202.6 416.3C202.7 416.3 202.8 416.3 202.8 416.2C204.8 411.4 205.5 405 204.7 399.9C204.2 396.7 201.8 392.8 197.9 393.7C194.2 394.6 193.8 398.9 194.4 401.9ZM196.4 397.3C199.8 391.6 203 398.8 203.3 401.2C203.5 402.7 203.5 404.3 203.5 405.8C203.5 409 203 412.2 202.6 415.4C201.5 413.1 200.2 410.9 199 408.6C197.5 405.8 194.5 400.4 196.4 397.3Z" fill="#262D40"/>
<path id="Vector_57" d="M223.9 422.2C225.2 418.4 221.5 415.7 218.4 414.8C213.3 413.4 207 413.6 202 415.1C201.9 415.1 201.9 415.2 201.9 415.3C201.5 415.6 201.4 416.2 201.8 416.5C206.1 419.5 210.3 423.2 215.4 424.8C218.4 425.8 222.7 425.8 223.9 422.2ZM209.2 419.8C207 418.4 205 416.9 202.8 415.5C206 415.5 209.2 415.3 212.4 415.6C213.9 415.7 215.5 415.9 217 416.2C219.3 416.7 226.2 420.5 220.2 423.4C216.9 425 211.8 421.5 209.2 419.8Z" fill="#262D40"/>
</g>
</g>
</g>
<g id="Group_25">
<path id="Vector_58" d="M201.1 404.7L261.8 435.1C261.8 435.1 309.2 338.7 314.4 332.5C321.3 324.2 411.7 335.9 433 309.2C455 281.5 436.2 247.2 436.2 247.2H367.4C367.4 247.2 367.2 254.8 371.2 266C371.2 266 292.6 261.3 270.3 282.9C253.3 299.4 201.1 404.7 201.1 404.7Z" fill="#262D40"/>
<g id="Group_26">
<path id="Vector_59" d="M383.7 272.8C380.2 270.4 376.6 268.1 372.8 266.1C370.9 265.1 367 263.3 364.5 262.8C362.5 262.3 361.6 262.2 363.5 263.1C364.6 263.6 366.6 264.6 368.6 265.5C368.2 265.5 367.9 265.5 367.5 265.5C366.1 265.4 364.8 265.4 363.4 265.3C360.8 265.2 358.1 265.2 355.5 265.2C350.1 265.2 344.8 265.7 339.5 265.9C339.4 265.9 339.4 266.1 339.5 266.1C344.8 265.9 350.2 266.2 355.5 266.2C358.1 266.2 360.8 266.3 363.4 266.3C364.7 266.3 366 266.3 367.3 266.4C368.4 266.4 369.5 266.5 370.6 266.4C371.2 266.7 371.7 266.9 372.1 267.1C376 268.9 379.9 270.8 383.6 273C383.7 273 383.8 272.8 383.7 272.8Z" fill="white"/>
<path id="Vector_60" d="M365.8 244.5C366.5 247.7 367.1 251 367.9 254.2C368.3 255.7 368.6 257.2 369.1 258.6C369.5 259.8 370.2 261.2 371.6 261.5C373.2 261.9 373.7 260.5 373.6 259.2C373.5 257.7 373.2 256.2 372.9 254.8C372.6 253.1 372.3 251.4 372.1 249.8C372 249 371.8 248.1 371.7 247.3C371.7 247.1 371.6 245.5 371.5 245C371.5 245 371.5 245.1 371.4 245.1C371.4 245.1 371.4 245.1 371.3 245.1C371.3 245.1 371.2 245.1 371.2 245C371.2 244.9 371.2 244.8 371.3 244.8H371.4C371.7 245 371.7 245.4 371.8 245.7C372 246.5 372.3 247.3 372.5 248.2C372.9 249.8 373.3 251.3 373.6 252.9C373.9 254.5 374.3 256 374.6 257.6C374.8 258.8 375.1 260 374.8 261.2C374.4 262.5 373.4 263.1 372.2 263.2C372.3 263.3 372.3 263.4 372.4 263.5C372.5 263.8 372.6 264.2 372.7 264.5C372.8 264.8 372.9 265.2 373 265.5C373 265.7 373.1 265.8 373.1 266C373.1 266.2 373.1 266.4 373.1 266.6C373.1 266.9 372.7 267.1 372.6 266.8C372.5 266.6 372.4 266.5 372.3 266.3C372.2 266.1 372.1 265.9 372.1 265.8C372 265.5 371.9 265.2 371.8 264.8C371.7 264.5 371.6 264.1 371.6 263.8C371.6 263.6 371.6 263.4 371.6 263.2C370.9 263.1 370.3 262.9 369.8 262.4C368.9 261.6 368.3 260.5 368 259.4C367.6 258 367.2 256.6 366.9 255.3C366.1 251.9 365.4 248.4 365.2 244.9C365.2 244.2 365.7 244.1 365.8 244.5Z" fill="white"/>
<path id="Vector_61" d="M399 253.7C399.2 255.3 399.4 256.9 399.7 258.5C400 260.1 400.4 261.6 400.8 263.1C401.2 264.6 401.8 266 402.6 267.3C403.4 268.5 404.5 269.6 405.6 270.6C407.8 272.5 410.3 274 413 275.1C414.4 275.6 415.7 276.1 417.2 276.5C417.9 276.7 418.7 276.8 419.4 277C420 277.1 420.6 277.1 421.2 277.5C421.4 277.6 421.4 278 421.1 278.1C420.1 278.5 418.8 278.2 417.8 278.1C416.6 277.9 415.4 277.7 414.3 277.4C412 276.7 409.7 275.6 407.6 274.3C405.6 273 403.6 271.4 402.1 269.5C400.6 267.5 399.8 265.2 399.3 262.8C398.7 259.9 398.4 256.7 398.6 253.8C398.7 253.6 398.9 253.5 399 253.7Z" fill="white"/>
<g id="Group_27">
<path id="Vector_62" d="M213.4 393.6C215.1 394.1 216.7 394.9 218.3 395.7C220 396.5 221.7 397.2 223.4 398C226.7 399.6 230 401.2 233.2 402.9C239.7 406.3 246.2 409.7 252.6 413.3C255.9 415.2 263.2 419.1 263.5 419.5C263.6 419.7 263.4 420 263.2 419.9C256.5 417 250 413.7 243.4 410.4C236.9 407.2 230.3 403.9 224 400.3C222.2 399.3 220.5 398.3 218.7 397.3C216.9 396.2 214.9 395.3 213.2 394C213.1 394 213.2 393.6 213.4 393.6Z" fill="white"/>
</g>
<path id="Vector_63" d="M436.1 263.1C436.1 262.8 435.6 262.8 435.6 263.1C435.7 278 433.4 294.7 421.9 305.4C409.3 317.1 391.1 318.5 374.8 318.4C365.4 318.3 356 318.1 346.6 318.4C337.2 318.7 327.6 319.2 318.3 320.4C314.5 320.9 311.4 322.2 308.7 325C306.1 327.7 304.2 331 302.3 334.2C297.6 342 293 349.9 288.6 357.9C279.8 373.8 271.7 390 264.2 406.6C263.3 408.7 262.3 410.7 261.4 412.8C261.3 412.9 261.5 413.1 261.6 412.9C269.2 396.3 277.4 380 286.2 363.9C290.6 355.9 295.1 347.9 299.7 340.1C301.9 336.4 304 332.6 306.5 329.1C308.7 326 311.4 323 315.1 321.9C317.4 321.2 319.8 321.1 322.1 320.9C324.5 320.7 326.9 320.5 329.3 320.3C334 320 338.7 319.7 343.4 319.5C352.9 319.2 362.3 319.3 371.8 319.4C388.2 319.7 406.2 319.1 419.8 308.7C425.7 304.2 429.9 298 432.5 291C435.1 283.9 436 276.3 436.2 268.8C436.2 266.8 436.2 265 436.1 263.1Z" fill="white"/>
<path id="Vector_64" d="M337.8 328.5C334.4 328.6 331.1 328.7 327.7 328.8C324.9 328.9 322.1 328.9 319.4 329.5C316.9 330.1 314.8 330.4 312.8 333.3C310.2 336.8 296.1 364.1 290.2 376.2C288.6 379.5 286.9 382.9 285.3 386.3C283.7 389.8 282.2 393.4 280.6 396.8C280.5 396.9 280.7 397 280.8 396.9C282.3 394 283.9 391.2 285.4 388.3C286.9 385.4 288.4 382.5 289.8 379.6C292.7 373.7 295.7 367.8 298.6 362C301.5 356.2 305.1 350.5 308.1 344.7C310.6 339.8 314 333.2 316.4 332.2C319.2 331 323.8 329.9 326.8 329.7C330.5 329.4 334.2 329.2 337.9 328.9C337.9 328.7 337.9 328.5 337.8 328.5Z" fill="white"/>
</g>
</g>
</g>
<g id="Group_28">
<path id="Vector_65" d="M414.4 159.4C412.6 153.7 410.7 148.1 408.8 142.5C407.7 137.9 406.5 133.3 405.3 128.7C403.7 122.7 400.7 119.4 395.1 116.8C389.6 114.2 382.5 109.8 376.2 110.4C373.2 110.7 370.5 111.9 368 113.5C365 115 362.4 117.1 360.7 119.8C358.6 122.5 358.5 125.2 358.8 127.8C360.1 139.3 362.5 147.5 361.3 157.7C360.9 159.5 360.5 161.3 359.8 163C357.6 168.6 353.7 173.4 348.7 176.8C344.7 179.5 340.2 180.5 335.8 182.4C322 188.2 322.6 205.1 331.2 214.8C332.4 217.2 334 219.3 335.6 220.8C353.7 237.8 381.5 230.9 399.7 217.9C402.3 216 404.9 213.9 407.2 211.6C415.1 206.6 421.1 199.2 421.8 189C422.6 179.1 417.4 168.6 414.4 159.4ZM346.9 181.1C341.8 183.7 336.3 185.5 332.1 189.6C326.6 195.1 326.9 204.6 330 212.1C325.5 206 324.1 197.9 327.8 190.4C332.1 181.5 344 181.6 351.2 175.7C355.8 171.9 358.8 167.4 360.5 162.3C360.3 163.3 360.1 164.2 359.8 165.2C357.9 172.7 353.6 177.8 346.9 181.1ZM411.3 207C414.4 203 416.7 198.6 417.8 193.6C420.6 180.9 415.1 166.8 411.9 154.5C414.7 163.3 418.2 172.1 420.2 181.1C422.6 192.1 418.4 200.8 411.3 207Z" fill="#53285A"/>
<g id="Group_29">
<g id="Group_30">
<path id="Vector_66" d="M390.8 173.5C383 190.3 356.4 229.4 343.6 231.2C332.3 232.8 304.2 226.2 294.7 221C290.3 218.6 301.3 186.4 308.6 187.9C317.7 189.8 330.1 194.3 338.5 194.8C341.5 195 355.9 184.7 381.3 168C390.8 161.9 395.2 164.1 390.8 173.5Z" fill="#F1C183"/>
<g id="Group_31">
<g id="Group_32">
<path id="Vector_67" d="M293.9 192C293.9 192 271.3 188.5 270.1 188.7C268.9 188.9 269.2 190.6 269.3 191.9C269.3 192.2 269.8 193 270.3 194.1C272 197.5 274.9 203.4 270.3 204.8C264.3 206.6 257.8 193.1 257.2 190.9C257 190.3 257.1 189.2 257.4 187.8C258.2 184.1 260.8 178.7 265.1 177.4C271.1 175.5 277.9 176.3 283.8 176.6L293.9 192Z" fill="#F1C183"/>
<path id="Vector_68" d="M293.9 192C293.9 192 271.3 188.5 270.1 188.7C268.9 188.9 269.2 190.6 269.3 191.9C269.3 192.2 269.8 193 270.3 194.1C265.7 191.9 260.6 189.4 257.4 187.8C258.2 184.1 260.8 178.7 265.1 177.4C271.1 175.5 277.9 176.3 283.8 176.6L293.9 192Z" fill="#262D40"/>
</g>
<path id="Vector_69" d="M294.7 221.1C293.5 220.5 287.4 218.7 279.2 215.8C277 209.5 271.1 197.3 269.6 194.1C268.5 190.2 263.9 182.6 263.6 182.8C262.9 183.1 260.6 184.3 257.6 185.4C253.7 186.9 248.7 188.5 245.1 188.3C243.2 188.2 241.7 187.5 240.9 186.1C239.6 183.5 245.2 180.4 251.6 176.2C260.2 170.5 271.2 163.9 276.5 165.5C284.4 167.8 292.2 177.5 294.9 180.1C297.6 182.7 308.6 188 308.6 188C306.3 199.8 296.3 221.9 294.7 221.1Z" fill="#F1C183"/>
<path id="Vector_70" d="M268.7 191.7C268.6 191.5 268.5 191.6 268.6 191.8C268.8 192.4 269.8 195.2 269.2 195.5C268.1 196 261.8 192.6 258.9 191.6C258.7 191.5 258.7 191.8 258.8 191.8C259.6 192 262.4 193.5 263.1 193.8C264.4 194.5 268.3 196.8 269.7 196.1C270.5 195.8 269.1 192.3 268.7 191.7Z" fill="#1A2E35"/>
<g id="Group_33">
<path id="Vector_71" d="M237.7 206.9C236.9 207.7 236.1 208.3 235.7 207.9C235.4 207.5 236 206.7 236.8 205.9L237.7 206.9Z" fill="#1A2E35"/>
<path id="Vector_72" d="M246.8 205.8C246 206.6 239.8 207.2 237.5 207.1C237.1 207.1 236.6 206.6 236.5 206.1C236.4 203.8 237.2 197.6 238.1 196.8C238.7 196.3 241.2 194.9 243.7 193.4C247 191.4 282.2 158.7 282.8 158.6C283.4 158.4 284.4 159.3 285 159.9C285.5 160.4 286.4 161.5 286.2 162.1C286 162.7 252.5 197.1 250.4 200.3C248.7 202.8 247.3 205.3 246.8 205.8Z" fill="#2B454E"/>
<path id="Vector_73" d="M246.8 205.9C246.7 206 246.6 206 246.5 206.1C244.2 204.6 242.5 203.2 241.2 201.8C239.4 200 238.4 198.4 237.9 197.4C238 197.2 238.1 197.1 238.1 197C238.1 196.9 238.3 196.8 238.5 196.7C239.3 198.2 241.5 201.9 247.1 205.5C247 205.6 246.9 205.8 246.8 205.9Z" fill="#A8A8A8"/>
<g id="Group_34">
<path id="Vector_74" d="M246.6 198.1L245.8 197.3C245.5 197 245.5 196.5 245.8 196.3L256 186.4C256.3 186.1 256.8 186.1 257 186.4L257.8 187.2C258.1 187.5 258.1 188 257.8 188.2L247.6 198.1C247.4 198.4 246.9 198.4 246.6 198.1Z" fill="#1A2E35"/>
<path id="Vector_75" d="M246.9 197.4L246.5 196.9C246.3 196.7 246.3 196.5 246.5 196.3L253 189.9C253.2 189.7 253.4 189.7 253.6 189.9L254 190.4C254.2 190.6 254.2 190.8 254 191L247.5 197.4C247.4 197.6 247.1 197.6 246.9 197.4Z" fill="#A8A8A8"/>
<path id="Vector_76" d="M248.825 194.101L248.538 194.38L249.585 195.454L249.872 195.175L248.825 194.101Z" fill="#1A2E35"/>
</g>
</g>
<path id="Vector_77" d="M279.2 215.8C276.4 214.8 273.9 214 272.2 213.5C265.4 211.5 262.3 208.1 259.6 204.2C256.9 200.2 243.1 196 249.8 191.8C256.5 187.6 268.5 197.8 269.7 196.1C269.9 195.8 269.9 195.1 269.6 194.2C271.1 197.3 277 209.5 279.2 215.8Z" fill="#F1C183"/>
</g>
</g>
<g id="Group_35">
<g id="Group_36">
<path id="Vector_78" d="M352.2 183.7L380.1 194.9C380.1 194.9 388.9 182.6 392.8 175.1C398 165.2 395.5 160.9 382.7 165.9C374.2 169.2 352.2 183.7 352.2 183.7Z" fill="#7F358A"/>
</g>
<path id="Vector_79" d="M376.7 193.5C377 193.6 379.9 194.6 380.1 194.8C381.1 193.3 382.1 191.8 383.1 190.4C383.6 189.7 384.1 188.9 384.7 188.2C385.3 187.4 385.9 186.5 386.4 185.8C386.5 185.7 386.6 185.8 386.6 185.9C386 186.9 385.6 187.6 385 188.4C384.5 189.1 384.1 189.9 383.6 190.6C382.6 192.1 381.5 193.8 380.4 195.3C380.3 195.5 376.9 193.8 376.7 193.5C376.6 193.5 376.6 193.6 376.7 193.5Z" fill="#1A2E35"/>
<path id="Vector_80" d="M356.1 182.2C360.3 183.5 364.4 185 368.5 186.5C370.5 187.3 372.6 188.1 374.6 189C376.6 189.9 378.5 190.9 380.6 191.7C380.7 191.7 380.6 191.9 380.5 191.9C378.5 191 376.4 190.3 374.4 189.5C372.4 188.7 370.3 187.9 368.3 187.1C364.2 185.5 360.2 183.9 356.1 182.4C355.9 182.3 356 182.2 356.1 182.2Z" fill="#1A2E35"/>
</g>
</g>
<g id="Group_37">
<path id="Vector_81" d="M361.5 250.2L440.8 256.6C440.8 256.6 420.5 187.4 404.2 169.9C396.8 162 389.5 163.2 383.3 168.3C381.8 169.6 362.7 193.8 361.1 202.2C359.7 209.7 365.7 217.9 365.7 217.9L361.5 250.2Z" fill="#7F358A"/>
<g id="Group_38">
<path id="Vector_82" d="M373.2 181.2C370.8 185 368.2 188.7 365.8 192.5C364.6 194.4 363.4 196.3 362.5 198.3C361.5 200.3 360.9 202.5 360.9 204.7C360.8 203.6 360.8 202.4 361 201.3C361.2 200.2 361.6 199.1 362 198C362.9 195.9 364.1 194 365.3 192.1C366.4 190.4 367.6 188.7 368.8 187C369 186.4 369.2 185.8 369.5 185.2C369.9 184.4 370.2 183.5 370.7 182.7C370.5 183.6 370.1 184.4 369.8 185.3C369.7 185.5 369.6 185.8 369.5 186C370.7 184.4 371.9 182.8 373.2 181.2Z" fill="#1A2E35"/>
</g>
<g id="Group_39">
<path id="Vector_83" d="M387 216.3C383.9 216.4 380.8 216.7 377.8 217.3C376.3 217.6 374.8 218 373.3 218.3C372.6 218.5 371.8 218.7 371.1 218.8C370.3 219 369.5 219.1 368.7 219.1C368.6 219.1 368.6 219.2 368.7 219.2C369.5 219.3 370.2 219.3 371 219.3C371.7 219.3 372.5 219.2 373.2 219C374.7 218.7 376.2 218.4 377.8 218.1C380.9 217.5 384 216.9 387.1 216.5C387.2 216.6 387.1 216.3 387 216.3Z" fill="#1A2E35"/>
<path id="Vector_84" d="M394.4 219.5C391.9 219.1 389.4 218.8 386.8 218.7C385.5 218.6 384.3 218.7 383 218.7C382.4 218.7 381.8 218.8 381.2 218.8C380.5 218.8 379.9 219 379.2 219C379.1 219 379.1 219.1 379.2 219.1C379.8 219.1 380.5 219.2 381.1 219.2C381.7 219.2 382.4 219.2 383 219.3C384.3 219.3 385.5 219.4 386.8 219.4C389.3 219.5 391.9 219.6 394.4 219.7C394.5 219.7 394.5 219.5 394.4 219.5Z" fill="#1A2E35"/>
</g>
</g>
<g id="Group_40">
<g id="Group_41">
<path id="Vector_85" d="M393.8 166.4C393.9 167.8 390.1 178.4 383.8 179.9C381.8 180.4 378.6 169.5 378.6 169.5L378.2 168.7L372.3 158.2L383 145.8L384.6 144.1C384.6 144.1 386 147.1 387.7 150.8C387.8 151 387.9 151.1 387.9 151.3C388 151.5 388.1 151.7 388.2 151.9C388.5 152.5 388.7 153 389 153.6C389.2 154 389.4 154.5 389.6 154.9C389.8 155.4 390 155.8 390.2 156.3C392.2 160.9 393.7 165.7 393.8 166.4Z" fill="#FFD194"/>
<path id="Vector_86" d="M387.8 150.8C387.2 160.7 381.1 166.5 378.2 168.7L372.3 158.2L383 145.8L384.6 144.1C384.7 144 386.1 147 387.8 150.8Z" fill="#F1C183"/>
</g>
<g id="Group_42">
<path id="Vector_87" d="M352.5 142.2C353.2 163.4 365.9 165.3 370.5 165.2C374.6 165.1 388.7 164.1 390.2 142.9C391.7 121.8 381.7 115.4 372.2 115.2C362.7 115.1 351.8 121.1 352.5 142.2Z" fill="#FFD194"/>
<g id="Group_43">
<path id="Vector_88" d="M355.4 138.5C355.9 138.4 356.3 138.3 356.8 138.1C357.3 137.9 357.8 137.9 358.2 137.4C358.4 137.2 358.4 136.7 358.1 136.5C357.6 136 356.9 136 356.2 136.2C355.5 136.4 355 136.7 354.5 137.3C354.2 137.8 354.7 138.6 355.4 138.5Z" fill="#262D40"/>
<path id="Vector_89" d="M369.9 137.6C369.4 137.6 368.9 137.5 368.5 137.4C367.9 137.3 367.5 137.3 367.1 136.9C366.9 136.7 366.9 136.2 367.1 136C367.5 135.4 368.2 135.4 368.9 135.5C369.6 135.6 370.2 135.8 370.7 136.4C371 136.9 370.5 137.7 369.9 137.6Z" fill="#262D40"/>
<g id="Group_44">
<g id="Group_45">
<path id="Vector_90" d="M366.8 143C366.8 142.9 366.9 143.1 366.9 143.1C366.9 144.5 367.1 146.2 368.5 146.6V146.7C366.9 146.6 366.6 144.4 366.8 143Z" fill="#262D40"/>
<path id="Vector_91" d="M368.1 141.5C370.4 141.3 370.7 145.9 368.6 146.1C366.4 146.3 366.1 141.7 368.1 141.5Z" fill="#262D40"/>
</g>
<path id="Vector_92" d="M369 141.7C369.4 141.9 369.9 142.4 370.3 142.4C370.9 142.4 371.3 141.9 371.6 141.4C371.6 141.3 371.7 141.4 371.7 141.4C371.8 142.3 371.5 143.2 370.6 143.4C369.7 143.6 369.1 142.8 368.8 142C368.7 141.8 368.8 141.6 369 141.7Z" fill="#262D40"/>
</g>
<g id="Group_46">
<g id="Group_47">
<path id="Vector_93" d="M358.8 143.3C358.8 143.2 358.7 143.4 358.7 143.4C358.9 144.8 358.8 146.5 357.5 147.1V147.2C359.1 146.8 359.2 144.6 358.8 143.3Z" fill="#262D40"/>
<path id="Vector_94" d="M357.4 141.9C355.1 141.9 355.3 146.6 357.4 146.6C359.5 146.5 359.3 141.9 357.4 141.9Z" fill="#262D40"/>
</g>
<path id="Vector_95" d="M356.4 142.2C356 142.5 355.7 142.9 355.3 143C354.8 143.1 354.4 142.6 354.1 142.1C354.1 142.1 354 142.1 354 142.2C354 143.1 354.3 144 355.2 144.1C356 144.2 356.5 143.4 356.7 142.5C356.7 142.4 356.6 142.1 356.4 142.2Z" fill="#262D40"/>
</g>
<path id="Vector_96" d="M367.8 154.8C367.5 155.2 367.2 155.7 366.7 155.8C366.2 155.9 365.6 155.7 365.1 155.6C365.1 155.6 365 155.6 365 155.7C365.4 156.2 366.3 156.5 366.9 156.3C367.5 156.1 367.8 155.5 367.9 154.9C368 154.8 367.9 154.8 367.8 154.8Z" fill="#262D40"/>
<g id="Group_48">
<path id="Vector_97" d="M362.1 152.8C362.1 152.8 363.1 154.1 364.4 154.6C364.9 154.8 365.4 154.9 366 154.7C367.2 154.4 367.2 153.3 367 152.4C366.8 151.6 366.5 151 366.5 151C366.5 151 364.8 152.6 362.1 152.8Z" fill="#262D40"/>
<path id="Vector_98" d="M364.4 154.6C364.9 154.8 365.4 154.9 366 154.7C367.2 154.4 367.2 153.3 367 152.4C365.8 152.6 364.6 153.4 364.4 154.6Z" fill="#262D40"/>
</g>
<g id="Group_49">
<path id="Vector_99" d="M361.5 150C361.5 150 361.3 152.2 361.4 153.2C361.4 153.3 361.7 153.3 362 153.3C363.8 153.5 365.6 152.8 366.6 151.2C366.7 151.1 366.5 151 366.4 151.1C365.1 152.2 363.7 152.5 362.1 152.6C362 152.3 362.5 148.9 362.4 148.9C361.8 148.9 360.8 149.3 360.1 149.6C360.3 145.1 361.3 140.6 361.4 136.1C361.4 135.9 361.2 135.9 361.1 136C359.8 140.6 359.4 145.8 359 150.5C359 151 361.1 150.2 361.5 150Z" fill="#262D40"/>
</g>
</g>
<path id="Vector_100" d="M388.7 144.7C386.4 144.6 380.4 138.2 380.3 127.1C380.3 127.1 381.1 137.1 381.9 138.5C382.6 140 378.6 134.9 378.3 126C378.3 126 373.3 129.6 369.1 130.7C364.9 131.9 362.3 131.8 362 131.5C361.7 131.2 367.9 129.3 369.6 127.3C369.6 127.3 358.3 132.5 353.1 132.9C352.5 132.9 351.8 120.6 359.9 115.4C367.9 110.2 380.6 115.9 384 119.2C384 119.2 388 119.8 392.4 125.7C396.7 131.7 391.2 144.8 388.7 144.7Z" fill="#7F358A"/>
<g id="Group_50">
<path id="Vector_101" d="M369.6 149.9C365.9 149.6 363.2 146.4 363.5 142.7C363.8 139 367 136.3 370.7 136.6C374.4 136.9 377.1 140.1 376.8 143.8C376.5 146.9 374.2 149.3 371.3 149.8C370.7 149.9 370.2 149.9 369.6 149.9ZM364.4 142.8C364.1 146 366.5 148.8 369.7 149C372.9 149.3 375.6 146.9 375.9 143.7C376.2 140.5 373.8 137.7 370.6 137.5C370.1 137.5 369.6 137.5 369.2 137.6C366.7 138 364.6 140.1 364.4 142.8Z" fill="#262D40"/>
<path id="Vector_102" d="M355.6 150.5C352.9 150.6 350.5 147.8 350.3 144.1C350.2 142.4 350.6 140.7 351.5 139.4C352.4 138.1 353.6 137.3 354.9 137.2C356.2 137.1 357.5 137.8 358.5 139C359.5 140.2 360 141.8 360.1 143.6C360.3 147.1 358.4 150 355.9 150.4C355.9 150.5 355.7 150.5 355.6 150.5ZM352.2 139.9C351.5 141 351.1 142.5 351.2 144.1C351.4 147.3 353.3 149.8 355.5 149.6C357.7 149.5 359.4 146.8 359.3 143.7C359.2 142.1 358.7 140.7 357.9 139.6C357.1 138.6 356.1 138.1 355 138.1C354.9 138.1 354.8 138.1 354.7 138.1C353.7 138.3 352.9 139 352.2 139.9Z" fill="#262D40"/>
<path id="Vector_103" d="M363.8 143.5L364.3 142.8C363.3 142 360.9 141 359.3 142.8L360 143.4C361.4 141.7 363.7 143.4 363.8 143.5Z" fill="#262D40"/>
<path id="Vector_104" d="M393.4 143.7L394.2 143.3C394 142.9 392.1 139.8 390.1 139.6C388.2 139.4 376.4 141.1 375.9 141.2L376 142.1C379.4 141.6 388.5 140.4 390 140.5C391.3 140.6 392.9 142.9 393.4 143.7Z" fill="#262D40"/>
</g>
<g id="Group_51">
<g id="Group_52">
<path id="Vector_105" d="M390.5 150.8C390.2 151 389.9 151.1 389.6 151.2C389.2 151.3 388.9 151.3 388.6 151.3C388.1 151.3 387.7 151.2 387.3 151.1C387 151 386.7 150.8 386.4 150.6C385.8 150.1 385.5 149.5 385.5 149.5L386 143.7C386 143.7 389.8 136.6 393 137.9C396.2 139.1 393.9 149.1 390.5 150.8Z" fill="#F1C183"/>
<path id="Vector_106" d="M392.3 140.7C392.3 140.7 392.4 140.7 392.3 140.7C390 142.1 389 144.5 388.4 147C389 146 390 145.4 391.3 146.1C391.4 146.1 391.3 146.2 391.2 146.2C390.2 146.1 389.5 146.4 388.9 147.3C388.5 147.9 388.2 148.7 388 149.4C387.9 149.6 387.5 149.6 387.6 149.3C387.6 149.3 387.6 149.3 387.6 149.2C387.1 146 389 141.4 392.3 140.7Z" fill="#1A2E35"/>
</g>
<path id="Vector_107" d="M390.131 149.876C390.175 149.326 389.765 148.843 389.214 148.799C388.664 148.755 388.181 149.165 388.137 149.716C388.093 150.266 388.503 150.749 389.054 150.793C389.604 150.837 390.087 150.427 390.131 149.876Z" fill="white"/>
<path id="Vector_108" d="M392.029 148.185C392.06 147.799 391.772 147.462 391.387 147.431C391.002 147.4 390.664 147.687 390.633 148.073C390.602 148.458 390.889 148.796 391.275 148.826C391.66 148.857 391.998 148.57 392.029 148.185Z" fill="white"/>
</g>
</g>
</g>
<g id="Group_53">
<g id="Group_54">
<path id="Vector_109" d="M407.8 173.8C422.2 196.1 441.2 233.5 430.9 240.7C413.9 252.5 366.8 256.3 356 256.7C351.3 256.9 344.6 226 347.9 222.4C351.3 218.8 400.7 220 401.3 217C401.6 215.3 398.8 200.3 395.5 181.6C391.7 160 403.7 167.4 407.8 173.8Z" fill="#FFD194"/>
<g id="Group_55">
<path id="Vector_110" d="M356.2 220.5C356.2 220.5 342.1 219.3 332.8 218.9C327.6 218.7 318.7 219.1 314.9 220.7C309.1 223.1 286.4 236.6 289.6 242.2C292.5 247.2 310.5 233.1 310.5 233.1C310.5 233.1 291.1 245.8 295.6 251.2C300.2 256.6 318.4 237.9 318.4 237.9C318.4 237.9 298.7 251.4 304.3 256.2C308.5 259.9 326 243.9 326 243.9C326 243.9 309.2 255.6 313.4 259.6C318 264 335.1 250.2 335.1 250.2C347.5 258.5 356.7 257.4 363.2 255.8C364.8 255.4 356.2 220.5 356.2 220.5Z" fill="#FFD194"/>
<g id="Group_56">
<path id="Vector_111" d="M316.9 228.3C314.6 229.7 312.2 231.1 310 232.7C307.8 234.3 305.6 236 303.6 237.8C298.6 242.2 296.1 245.8 296.3 245.6C300.4 240.8 308.2 234.9 310.5 233.3C312.6 231.7 314.7 230 316.9 228.3C316.9 228.2 317 228.3 316.9 228.3Z" fill="#1A2E35"/>
<path id="Vector_112" d="M322.8 236.1C319.9 238 316.9 239.8 314.1 241.9C311.3 243.9 308.8 246.1 306.1 248.4C305.9 248.6 306.1 248.6 306.3 248.5C309 246.4 311.8 244.6 314.5 242.5C317.3 240.4 320 238.2 322.8 236.1C322.9 236.1 322.9 236.2 322.8 236.1Z" fill="#1A2E35"/>
<path id="Vector_113" d="M329.2 241.9C324.6 244.6 320.5 248.2 316.6 251.8C316.4 252 316.6 252 316.8 251.9C320.9 248.5 324.1 245.9 329.3 242.2C329.3 242 329.2 241.9 329.2 241.9Z" fill="#1A2E35"/>
</g>
</g>
<path id="Vector_114" d="M358.9 220C355.6 219.7 352.1 219.9 348.7 219.8C345.8 219.7 343 219.3 340.1 219.1C334.2 218.7 325.6 218.2 319.7 219.1C315.5 219.8 310.2 223.2 307.2 224.6C307.1 224.7 307.2 224.8 307.3 224.8C312.9 222.8 316.3 220.4 321.3 219.7C327.1 218.9 342.3 220 348.2 220.3C351.6 220.5 355.4 220.1 358.8 220.3C359 220.3 359 220 358.9 220Z" fill="#1A2E35"/>
</g>
<g id="Group_57">
<g id="Group_58">
<path id="Vector_115" d="M426.2 202.1L396.2 199.5C396.2 199.5 393.9 184.6 393.7 176.1C393.5 164.9 397.6 162.2 406.8 172.4C413.1 179.3 426.2 202.1 426.2 202.1Z" fill="#7F358A"/>
</g>
<path id="Vector_116" d="M399.9 199.9C399.6 199.8 396.5 199.4 396.3 199.5C396.1 197.7 395.9 196 395.6 194.2C395.5 193.3 395.3 192.4 395.2 191.6C395 190.6 394.9 189.5 394.7 188.7C394.7 188.6 394.5 188.6 394.5 188.7C394.6 189.8 394.7 190.7 394.8 191.6C394.9 192.5 395 193.3 395.1 194.2C395.3 196 395.5 198 395.8 199.8C395.8 199.9 399.6 200 399.9 200C400 200 400 199.9 399.9 199.9Z" fill="#1A2E35"/>
<path id="Vector_117" d="M423.4 199C419.1 198.3 414.7 197.7 410.4 197.3C408.2 197.1 406 196.9 403.9 196.8C401.7 196.7 399.5 196.7 397.3 196.6C397.2 196.6 397.2 196.8 397.3 196.8C399.5 196.9 401.7 197.2 403.8 197.4C406 197.6 408.2 197.8 410.3 198C414.7 198.4 419 198.8 423.4 199.3C423.6 199.2 423.6 199.1 423.4 199Z" fill="#1A2E35"/>
</g>
</g>
</g>
<g id="Group_59">
<g id="Group_60">
<path id="Vector_118" d="M499.1 252.9H62.4V268.4H499.1V252.9Z" fill="#0D0F14"/>
</g>
<g id="Group_61">
<path id="Vector_119" d="M483.5 268.4H78V283.9H483.5V268.4Z" fill="#262D40"/>
</g>
<g id="Group_62">
<path id="Vector_120" d="M78.1 501.9H71.8L90.1 283.9H106.1L78.1 501.9Z" fill="#262D40"/>
<path id="Vector_121" d="M106.1 283.9L104.2 298.5H88.9L90.1 283.9H106.1Z" fill="#0D0F14"/>
</g>
<g id="Group_63">
<path id="Vector_122" d="M483.5 501.9H489.7L471.5 283.9H455.5L483.5 501.9Z" fill="#262D40"/>
<path id="Vector_123" d="M455.5 283.9L457.3 298.5H472.7L471.5 283.9H455.5Z" fill="#0D0F14"/>
</g>
</g>
<g id="Group_64">
<path id="Vector_124" d="M172.2 252.9H262.3L240.4 192.8H150.4L172.2 252.9Z" fill="#0D0F14"/>
<path id="Vector_125" d="M169 252.9H259.1L237.3 192.8H147.2L169 252.9Z" fill="#262D40"/>
<path id="Vector_126" d="M147.2 192.8L169 252.9H205.5L155.6 192.8H147.2Z" fill="#0D0F14"/>
<g id="Group_65">
<path id="Vector_127" d="M153 252.9H164L173.8 235.8H162.8L153 252.9Z" fill="#353E51"/>
<path id="Vector_128" d="M173.8 235.8V252.9H164L173.8 235.8Z" fill="#0D0F14"/>
</g>
<g id="Group_66">
<path id="Vector_129" d="M214.5 252.9H225.5L235.3 235.8H224.3L214.5 252.9Z" fill="#353E51"/>
<path id="Vector_130" d="M235.3 235.8V252.9H225.5L235.3 235.8Z" fill="#0D0F14"/>
</g>
</g>
<g id="Group_67">
<g id="Group_68">
<path id="Vector_131" d="M372.3 249.6H299.5V252.9H372.3V249.6Z" fill="#D0CCE2"/>
<path id="Vector_132" d="M336.1 249.6H299.5V252.9H336.1V249.6Z" fill="#A69DBF"/>
</g>
<g id="Group_69">
<path id="Vector_133" d="M332.2 252.9H261.2L251.9 204.7H322.9L332.2 252.9Z" fill="#A69DBF"/>
<path id="Vector_134" d="M296.4 228.8C296.6 231.2 294.8 233.1 292.5 233.1C290.2 233.1 288 231.2 287.8 228.8C287.6 226.4 289.4 224.5 291.7 224.5C294 224.5 296.2 226.4 296.4 228.8Z" fill="#D0CCE2"/>
</g>
</g>
<g id="Group_70">
<g id="Group_71">
<path id="Vector_135" d="M116.1 244.9L113.7 244.6L125.7 153.2L169.3 129.3L170.5 131.3L127.9 154.7L116.1 244.9Z" fill="#262D40"/>
<path id="Vector_136" d="M126.8 157.3C128.623 157.3 130.1 155.823 130.1 154C130.1 152.177 128.623 150.7 126.8 150.7C124.977 150.7 123.5 152.177 123.5 154C123.5 155.823 124.977 157.3 126.8 157.3Z" fill="#7F358A"/>
<path id="Vector_137" d="M169.5 133.6C171.323 133.6 172.8 132.123 172.8 130.3C172.8 128.477 171.323 127 169.5 127C167.677 127 166.2 128.477 166.2 130.3C166.2 132.123 167.677 133.6 169.5 133.6Z" fill="#7F358A"/>
</g>
<g id="Group_72">
<g id="Group_73">
<path id="Vector_138" d="M191.8 133.3L176.2 150.8L169 141.9L164.6 136.4L176.3 123.4L182.1 127.2L191.8 133.3Z" fill="#7F358A"/>
<path id="Vector_139" d="M191.8 133.3L176.2 150.8L169 141.9L182.1 127.2L191.8 133.3Z" fill="#53285A"/>
</g>
<path id="Vector_140" d="M214.4 141.9L187.2 172.3L169.1 149.3L189.5 126.5L214.4 141.9Z" fill="#7F358A"/>
</g>
<path id="Vector_141" d="M136.3 252.9H96L98.5 240.2H133.8L136.3 252.9Z" fill="#7F358A"/>
</g>
<g id="Group_74">
<g id="Group_75">
<path id="Vector_142" d="M358.1 24.9L316.5 66.2C313.7 69 309.1 69 306.3 66.2C303.5 63.4 303.5 58.8 306.3 56L347.9 14.7L358.1 24.9Z" fill="#ECECEC"/>
<path id="Vector_143" d="M358.1 24.9L346.3 36.6L338.4 24.1L347.9 14.6L358.1 24.9Z" fill="#C8C8C8"/>
<path id="Vector_144" d="M303.6 68.9C302.9 68.2 302.9 67 303.6 66.3L313 57L315.6 59.6L306.2 68.9C305.4 69.6 304.3 69.6 303.6 68.9Z" fill="#ECECEC"/>
<path id="Vector_145" d="M315.6 59.5L306.2 68.9C305.5 69.6 304.3 69.6 303.6 68.9C302.9 68.2 302.9 67 303.6 66.3L305.2 64.7L313 56.9L315.6 59.5Z" fill="#ECECEC"/>
<g id="Group_76">
<path id="Vector_146" d="M363.1 9.69998C360.3 6.89998 355.7 6.89998 352.9 9.69998L348.4 14.2L345.9 11.7L338.7 18.9L353.9 34.2L361.1 27L358.5 24.4L363 19.9C365.9 17.1 365.9 12.5 363.1 9.69998Z" fill="#318BCF"/>
<path id="Vector_147" d="M306.3 56C303.9 58.4 303.5 62 305.2 64.7L303.6 66.3C302.9 67 302.9 68.2 303.6 68.9C304.3 69.6 305.5 69.6 306.2 68.9L307.8 67.3C310.6 68.9 314.2 68.6 316.5 66.2L332 50.8L311.6 50.7L306.3 56Z" fill="#318BCF"/>
</g>
</g>
</g>
</g>
</g>
<defs>
<linearGradient id="paint0_linear" x1="47.1943" y1="497.472" x2="514.352" y2="497.472" gradientUnits="userSpaceOnUse">
<stop stop-color="white"/>
<stop offset="1" stop-color="#A69EBF"/>
</linearGradient>
<linearGradient id="paint1_linear" x1="165.366" y1="114.486" x2="384.287" y2="114.486" gradientUnits="userSpaceOnUse">
<stop stop-color="white"/>
<stop offset="1" stop-color="#A69EBF"/>
</linearGradient>
</defs>
</svg>
