<?xml version="1.0" encoding="utf-8"?>
<!-- Generator: Adobe Illustrator 21.0.0, SVG Export Plug-In . SVG Version: 6.00 Build 0)  -->
<svg version="1.1" id="Layer_1" xmlns="http://www.w3.org/2000/svg" xmlns:xlink="http://www.w3.org/1999/xlink" x="0px" y="0px"
	 viewBox="0 0 300 300" style="enable-background:new 0 0 300 300;" xml:space="preserve">
<style type="text/css">
	.st0{fill:#9933FF;}
</style>
<path id="Ballance" class="st0" d="M49.8,266.6c-1.1-1.1-2.6-1.7-4.1-1.7s-3.1,0.6-4.1,1.7c-1.1,1.1-1.7,2.6-1.7,4.1
	s0.6,3.1,1.7,4.1c1.1,1.1,2.6,1.7,4.1,1.7s3.1-0.6,4.1-1.7c1.1-1.1,1.7-2.6,1.7-4.1S50.9,267.7,49.8,266.6z M275.1,107.2
	c-1.1-1.1-2.6-1.7-4.1-1.7c-1.5,0-3.1,0.6-4.1,1.7c-1.1,1.1-1.7,2.6-1.7,4.1s0.6,3.1,1.7,4.1c1.1,1.1,2.6,1.7,4.1,1.7
	c1.5,0,3.1-0.6,4.1-1.7c1.1-1.1,1.7-2.6,1.7-4.1S276.2,108.3,275.1,107.2z M298.3,1.7c-1.1-1.1-2.6-1.7-4.1-1.7L150,0
	c-3.2,0-5.9,2.6-5.9,5.9v16.8L88.6,37.5c-3.1,0.8-5,4.1-4.1,7.2l28.8,107.4L88.3,177c-3.2-4.6-8.5-7.7-14.5-7.7H17.6
	c-9.7,0-17.6,7.9-17.6,17.6v95.5c0,9.7,7.9,17.6,17.6,17.6h56.3c8.2,0,15.2-5.7,17.1-13.3l7,6.1c5.4,4.7,12.3,7.3,19.4,7.3h176.9
	c3.2,0,5.9-2.6,5.9-5.9V5.9C300,4.3,299.4,2.8,298.3,1.7z M79.7,282.4c0,3.2-2.6,5.9-5.9,5.9H17.6c-3.2,0-5.9-2.6-5.9-5.9v-95.5
	c0-3.2,2.6-5.9,5.9-5.9h22.3v67.5c0,3.2,2.6,5.9,5.9,5.9c3.2,0,5.9-2.6,5.9-5.9v-67.5h22.3c3.2,0,5.9,2.6,5.9,5.9L79.7,282.4
	L79.7,282.4z M97.3,47.3l46.8-12.6v21.7l-3.9,1.1c-1.5,0.4-2.8,1.4-3.6,2.7s-1,2.9-0.6,4.4c2.3,8.4-2.8,17.1-11.2,19.3
	c-1.5,0.4-2.8,1.4-3.6,2.7c-0.8,1.3-1,3-0.6,4.5l22.8,84.6h-11.8l-6.1-23.7c-0.2-0.8-0.5-1.5-1-2.1L97.3,47.3z M144.1,83.3v49.4
	l-10.7-39.6C137.9,90.9,141.6,87.5,144.1,83.3z M228.3,288.3H117.3l0,0c-4.3,0-8.5-1.6-11.7-4.4l-14.2-12.3v-81l25.6-25.6l4.6,18.2
	c0.7,2.6,3,4.4,5.7,4.4l115.2,0c4.5,0,8.2,3.7,8.2,8.2c0,4.5-3.7,8.2-8.2,8.2h-59c-3.2,0-5.9,2.6-5.9,5.9c0,3.2,2.6,5.9,5.9,5.9
	h77.4c4.5,0,8.2,3.7,8.2,8.2c0,4.5-3.7,8.2-8.2,8.2h-77.4c-3.2,0-5.9,2.6-5.9,5.9c0,3.2,2.6,5.9,5.9,5.9h64.8c4.5,0,8.2,3.7,8.2,8.2
	s-3.7,8.2-8.2,8.2h-64.8c-3.2,0-5.9,2.6-5.9,5.9c0,3.2,2.6,5.9,5.9,5.9h44.8c4.5,0,8.2,3.7,8.2,8.2
	C236.5,284.6,232.8,288.3,228.3,288.3z M288.3,288.3L288.3,288.3h-41.8c1.1-2.5,1.8-5.3,1.8-8.2c0-2.9-0.6-5.7-1.8-8.2h1.8
	c11,0,19.9-8.9,19.9-19.9c0-3.2-0.8-6.2-2.1-8.9c8.4-2.3,14.7-10,14.7-19.2c0-4.4-1.5-8.6-3.9-11.9v-74.3c0-3.2-2.6-5.9-5.9-5.9
	c-3.2,0-5.9,2.6-5.9,5.9v66.7c-1.4-0.3-2.8-0.5-4.3-0.5h-0.2c1.1-2.5,1.8-5.3,1.8-8.2c0-11-8.9-19.9-19.9-19.9h-9.4
	c10-4.3,17-14.2,17-25.8c0-15.5-12.6-28-28-28c-15.5,0-28,12.6-28,28c0,11.6,7,21.5,17,25.8h-32V64.4c10.5-2.3,18.7-10.5,21-21h44.1
	c2.3,10.5,10.5,18.7,21,21v18.2c0,3.2,2.6,5.9,5.9,5.9s5.9-2.6,5.9-5.9V59.1c0-3.2-2.6-5.9-5.9-5.9c-8.7,0-15.8-7.1-15.8-15.8
	c0-3.2-2.6-5.9-5.9-5.9h-54.5c-3.2,0-5.9,2.6-5.9,5.9c0,8.7-7.1,15.8-15.8,15.8c-3.2,0-5.9,2.6-5.9,5.9v116.6h-11.4V11.7l132.4,0
	V288.3z M222.1,166.3c-9,0-16.3-7.3-16.3-16.3s7.3-16.3,16.3-16.3c9,0,16.3,7.3,16.3,16.3S231.1,166.3,222.1,166.3z"/>
</svg>
