<?xml version="1.0" encoding="utf-8"?>
<!-- Generator: Adobe Illustrator 21.0.0, SVG Export Plug-In . SVG Version: 6.00 Build 0)  -->
<svg version="1.1" id="Layer_1" xmlns="http://www.w3.org/2000/svg" xmlns:xlink="http://www.w3.org/1999/xlink" x="0px" y="0px"
	 viewBox="0 0 300 300" style="enable-background:new 0 0 300 300;" xml:space="preserve">
<style type="text/css">
	.st0{fill:#9933FF;}
</style>
<path id="Bonus_1_" class="st0" d="M232,200l-52.6,26.1c-1.9-7.8-7.7-14.4-15.9-16.8l-24.4-7.2c-17.6-5.2-40.7-9.5-63.7,3.8
	c-1.5,0.8-2.8,1.7-3.9,2.4c-4.4,2.8-7.1,4.5-14.7,4.6c-2.5-6-8.4-10.3-15.3-10.3h-25c-9.1,0-16.5,7.4-16.5,16.5v57.9
	c0,9.1,7.4,16.5,16.5,16.5h25c8.7,0,15.9-6.8,16.5-15.4c10.3,0.1,17.1,0.9,31.1,5c7.7,2.3,40.7,11.9,43.2,12.6
	c8.3,2.4,15.3,4.4,22.5,4.4c8.2,0,16.8-2.6,28-10.1c0.1,0,0.1-0.1,0.2-0.1l72.5-51.6c10.3-7.3,13.3-20.5,7-30.7
	C256.2,197.5,243.5,194.3,232,200L232,200z M45.6,276.9c0,2.3-1.9,4.1-4.1,4.1h-25c-2.3,0-4.1-1.9-4.1-4.1v-57.9
	c0-2.3,1.9-4.1,4.1-4.1h25c2.3,0,4.1,1.9,4.1,4.1L45.6,276.9L45.6,276.9z M248.3,228.2l-72.4,51.5c-16.4,10.9-23.4,8.9-40.2,4
	c-2.5-0.7-35.5-10.3-43.2-12.6c-15-4.4-22.5-5.4-34.6-5.5v-40.5c10.5-0.3,15.4-3.4,20.2-6.5c1.1-0.7,2.2-1.4,3.4-2.1
	c15-8.6,31.2-9.4,54-2.6l24.4,7.2c5.6,1.7,8.9,7.6,7.3,13.2c0,0,0,0,0,0c-1.6,5.6-7.6,8.8-13.2,7.2l-34.8-10.1
	c-3.3-1-6.7,0.9-7.7,4.2c-1,3.3,0.9,6.7,4.2,7.7l34.8,10.1c11.3,3.3,23-2.5,27.6-12.9l59.4-29.4c4.8-2.4,11.2-2.1,14.4,3
	C254.7,218.6,253.2,224.7,248.3,228.2L248.3,228.2z M16.3,140.3h33.5c3.4,0,6.2-2.8,6.2-6.2c0-3.4-2.8-6.2-6.2-6.2H16.3
	c-3.4,0-6.2,2.8-6.2,6.2C10.1,137.5,12.9,140.3,16.3,140.3z M18.1,98.6l29,14.2c0.9,0.4,1.8,0.6,2.7,0.6c2.3,0,4.5-1.3,5.6-3.5
	c1.5-3.1,0.2-6.8-2.8-8.3l-29-14.2c-3.1-1.5-6.8-0.2-8.3,2.8C13.7,93.4,15,97.1,18.1,98.6z M47.1,155.5l-29,14.2
	c-3.1,1.5-4.3,5.2-2.8,8.3c1.1,2.2,3.3,3.5,5.6,3.5c0.9,0,1.8-0.2,2.7-0.6l29-14.2c3.1-1.5,4.3-5.2,2.8-8.3
	C53.8,155.3,50.1,154,47.1,155.5L47.1,155.5z M293.8,127.9h-33.5c-3.4,0-6.2,2.8-6.2,6.2c0,3.4,2.8,6.2,6.2,6.2h33.5
	c3.4,0,6.2-2.8,6.2-6.2C300,130.7,297.2,127.9,293.8,127.9z M260.4,113.4c0.9,0,1.8-0.2,2.7-0.6l29-14.2c3.1-1.5,4.3-5.2,2.8-8.3
	c-1.5-3.1-5.2-4.3-8.3-2.8l-29,14.2c-3.1,1.5-4.3,5.2-2.8,8.3C255.9,112.1,258.1,113.4,260.4,113.4L260.4,113.4z M292.1,169.7
	l-29-14.2c-3.1-1.5-6.8-0.2-8.3,2.8c-1.5,3.1-0.2,6.8,2.8,8.3l29,14.2c0.9,0.4,1.8,0.6,2.7,0.6c2.3,0,4.5-1.3,5.6-3.5
	C296.4,174.9,295.1,171.2,292.1,169.7L292.1,169.7z M76.8,85.1v80.5c0,11.7,9.5,21.2,21.2,21.2h114c11.7,0,21.2-9.5,21.2-21.2V85.1
	c9.3-1.7,16.5-9.9,16.5-19.7v-8.8c0-11.1-9-20.1-20.1-20.1h-12.8c1.5-5.5,1.1-11.4-1.2-17.2c-4.2-10.4-13.8-18.1-23.9-19.2
	c-9.1-1-17.5,3.3-23.5,12.1l-13.2,19.4l-13.2-19.4c-6-8.8-14.3-13.1-23.4-12.1c-10.1,1.1-19.7,8.8-23.9,19.2
	c-2.3,5.8-2.7,11.7-1.2,17.2H80.5c-11.1,0-20.1,9-20.1,20.1v8.8C60.4,75.2,67.5,83.4,76.8,85.1L76.8,85.1z M178.5,19.2
	c3.4-5,7.4-7.2,11.9-6.8c5.6,0.6,11.2,5.3,13.7,11.5c1.1,2.7,2.3,7.6-0.6,12.6h-36.8L178.5,19.2z M106,23.9
	c2.5-6.2,8.1-10.9,13.7-11.5c4.5-0.5,8.5,1.8,11.9,6.7l11.8,17.3h-36.8C103.7,31.5,104.9,26.6,106,23.9z M72.8,56.6
	c0-4.2,3.5-7.7,7.7-7.7h149.2c4.3,0,7.7,3.5,7.7,7.7v8.8c0,4.2-3.5,7.7-7.7,7.7h-74.6c-3.4,0-6.2,2.8-6.2,6.2c0,3.4,2.8,6.2,6.2,6.2
	h65.8v80.1c0,4.9-4,8.9-8.9,8.9h-114c-4.9,0-8.9-4-8.9-8.9V85.4h9.4c3.4,0,6.2-2.8,6.2-6.2c0-3.4-2.8-6.2-6.2-6.2H80.5
	c-4.3,0-7.7-3.5-7.7-7.7L72.8,56.6L72.8,56.6z M126.4,95.4c3.4,0,6.2-2.8,6.2-6.2s-2.8-6.2-6.2-6.2h0c-3.4,0-6.2,2.8-6.2,6.2
	C120.2,92.6,123,95.4,126.4,95.4z"/>
</svg>
