<?xml version="1.0" encoding="utf-8"?>
<!-- Generator: Adobe Illustrator 21.0.0, SVG Export Plug-In . SVG Version: 6.00 Build 0)  -->
<svg version="1.1" id="FlagBr_1_" xmlns="http://www.w3.org/2000/svg" xmlns:xlink="http://www.w3.org/1999/xlink" x="0px" y="0px"
	 width="24px" height="18px" viewBox="0 0 24 18" style="enable-background:new 0 0 24 18;" xml:space="preserve">
<style type="text/css">
	.st0{fill:#009933;}
	.st1{fill-rule:evenodd;clip-rule:evenodd;fill:#FFCC00;}
	.st2{fill-rule:evenodd;clip-rule:evenodd;fill:#0066CC;}
	.st3{fill:#FFFFFF;}
</style>
<g id="FlagBr">
	<rect id="_x34_" class="st0" width="24" height="18"/>
	<path id="_x33_" class="st1" d="M2,9l10-8l10,8l-10,8L2,9z"/>
	<path id="_x32_" class="st2" d="M12,4c2.8,0,5,2.2,5,5c0,2.8-2.2,5-5,5c-2.8,0-5-2.2-5-5C7,6.2,9.2,4,12,4z"/>
	<path id="_x31_" class="st3" d="M16.7,11.3c0.1-0.3,0.3-0.6,0.3-1C15.9,7.8,13.5,6,10.6,6C9.4,6,8.3,6.3,7.3,6.8
		C7.2,7.1,7.1,7.3,7,7.6c1-0.5,2-0.8,3.2-0.8C13.1,6.8,15.6,8.7,16.7,11.3z"/>
</g>
</svg>
