<!-- Generated by IcoMoon.io -->
<svg version="1.1" xmlns="http://www.w3.org/2000/svg" width="40" height="40" viewBox="0 0 40 40">
<title>BigTimeGaming</title>
<path fill="#000" opacity="0.6" d="M40 20c0 11.046-8.954 20-20 20s-20-8.954-20-20c0-11.046 8.954-20 20-20s20 8.954 20 20z"></path>
<path fill="#f33" d="M37.333 20c0 9.573-7.76 17.333-17.333 17.333s-17.333-7.76-17.333-17.333c0-9.573 7.76-17.333 17.333-17.333s17.333 7.76 17.333 17.333z"></path>
<path fill="#eee" d="M32.933 10.384l-1.929-0.402-1.005-1.848-1.005 1.848-1.929 0.402 1.326 1.527-0.201 2.089 1.808-0.884 1.808 0.884-0.201-2.089z"></path>
<path fill="#eee" d="M12.933 10.384l-1.929-0.402-1.005-1.848-1.005 1.848-1.929 0.402 1.326 1.527-0.201 2.089 1.808-0.884 1.808 0.884-0.201-2.089z"></path>
<path fill="#eee" d="M24.867 7.933l-3.2-0.667-1.667-3.067-1.667 3.067-3.2 0.667 2.2 2.533-0.333 3.467 3-1.467 3 1.467-0.333-3.467z"></path>
<path fill="#eee" d="M31.467 19.867l1.267-2.4c0 0-1.067-1.933-4.533-1.933s-6.2 3.667-6.2 8.267c0 6.059 3.4 8 6.4 8s4.733-2.333 4.733-2.333v-7h-4.467v2.8h1.667c0 2.437-0.075 3.6-1.733 3.6s-3.667-1.642-3.667-5.067 1.933-5.133 3.267-5.133c1.867 0 3.267 1.2 3.267 1.2z"></path>
<path fill="#eee" d="M25.234 15.6h-10.375c1.102 0.758 1.881 1.952 2.087 3.333h1.255v12.867h2.8v-12.867h1.279c0.57-1.374 1.614-2.54 2.954-3.333z"></path>
<path fill="#eee" d="M15 22.8c3.333 2.533 1.667 6.267 1.267 7-0.329 0.603-1.6 2-4.733 2s-4.6-1.6-4.6-1.6v-12.067c0 0 1.067-2.6 4.267-2.6 3.6 0 4.133 1.467 4.667 2.533 0.482 0.963 0.533 2.867-0.867 4.733zM10.067 24.467v3.267c0 0.532 0.231 0.933 0.6 0.933h1.867c0.6 0 1.333-0.533 1.333-2.2 0-1.333-0.933-2-1.667-2h-2.133zM10.067 22c0 0 1.271 0 2.067 0 0.321 0 0.933-0.933 0.933-1.8 0-0.8-0.733-1.533-1.467-1.533-0.933 0-1.533 0.602-1.533 1.2 0 0.467 0 2.133 0 2.133z"></path>
</svg>
