<!-- Generated by IcoMoon.io -->
<svg version="1.1" xmlns="http://www.w3.org/2000/svg" width="40" height="40" viewBox="0 0 40 40">
<title>CasinoTechnology</title>
<path fill="#000" opacity="0.6" d="M40 20c0 11.046-8.954 20-20 20s-20-8.954-20-20c0-11.046 8.954-20 20-20s20 8.954 20 20z"></path>
<path fill="#09f" d="M21.733 17.213v5.25c0 1.45 1.191 2.603 2.64 2.603h7.486l4.031-4.022c0.592-0.592 0.592-1.507 0-2.099l-4.322-4.28h-7.194c-1.449 0-2.64 1.097-2.64 2.547z"></path>
<path fill="#09f" d="M22.624 28.6c-2.415 0-4.357-1.97-4.357-4.386v-8.75c0-2.416 1.942-4.33 4.357-4.33h5.445l-6.997-7.023c-0.592-0.592-1.551-0.581-2.142 0.011l-6.997 7.012h6.174c0 0-0.146 3.533-5.102 3.533h-4.57l-4.322 4.285c-0.592 0.592-0.592 1.532 0 2.124l14.818 14.815c0.592 0.592 1.551 0.592 2.142 0.001l7.289-7.292h-5.736z"></path>
</svg>
