<!-- Generated by IcoMoon.io -->
<svg version="1.1" xmlns="http://www.w3.org/2000/svg" width="40" height="40" viewBox="0 0 40 40">
<title>Microgaming</title>
<path fill="#000" opacity="0.6" d="M40 20c0 11.046-8.954 20-20 20s-20-8.954-20-20c0-11.046 8.954-20 20-20s20 8.954 20 20z"></path>
<path fill="#0c0" d="M19.999 7.281c-7.025 0-12.717 5.692-12.717 12.719 0 1.278 0.189 2.51 0.538 3.67 0.023-0.024 4.188-4.554 7.987-11.107 3.811-6.574 3.149 1.097 3.149 1.097s-1.146 9.983 1.717 10.413c0 0 1.138 0.225 2.868-3.96 1.845-4.461 3.856-8.282 4.393-4.61 0.674 4.614 1.963 6.433 3.123 6.628 0.197 0.032 0.226 0.158-0.183 0.237-0.112 0.022-2.404 0.471-4.247-3.344 0 0-2.688 8.932-6.282 9.185-3.594 0.256-3.631-12.017-3.631-12.017s-4.665 7.884-7.248 10.938c2.286 3.373 6.15 5.588 10.532 5.588 7.025 0 12.718-5.692 12.718-12.72s-5.693-12.719-12.718-12.719z"></path>
<path fill="#0c0" d="M19.999 2.667c-9.572 0-17.333 7.759-17.333 17.332 0 9.576 7.76 17.335 17.333 17.335 9.573 0 17.334-7.759 17.334-17.335 0-9.574-7.76-17.332-17.334-17.332zM19.999 35.035c-8.303 0-15.033-6.731-15.033-15.036 0-8.303 6.73-15.034 15.033-15.034 8.304 0 15.035 6.731 15.035 15.034 0 8.305-6.731 15.036-15.035 15.036z"></path>
</svg>
