<!-- Generated by IcoMoon.io -->
<svg version="1.1" xmlns="http://www.w3.org/2000/svg" width="40" height="40" viewBox="0 0 40 40">
<title>PragmaticPlay</title>
<path fill="#000" opacity="0.6" d="M40 20c0 11.046-8.954 20-20 20s-20-8.954-20-20c0-11.046 8.954-20 20-20s20 8.954 20 20z"></path>
<path fill="#f90" d="M21.222 18.269c-4.731 0.263-2.607 5.78 2.624 5.489 5.115-0.285 2.418-5.77-2.624-5.489z"></path>
<path fill="#f90" d="M20.133 11.568c-7.18 0-13 5.82-13 13s5.82 13 13 13c7.18 0 13-5.82 13-13s-5.82-13-13-13zM20.132 34.592c-5.529 0-10.012-4.474-10.012-9.992s4.483-9.992 10.012-9.992c5.53 0 10.013 4.474 10.013 9.992s-4.483 9.992-10.013 9.992z"></path>
<path fill="#f90" d="M18.796 4.584l-3.585 3.401-3.942-5.552 0.796 6.936-5.197-0.482 5.039 4.682 5.996-2.467 0.893-6.517z"></path>
</svg>
