<?xml version="1.0" encoding="utf-8"?>
<!-- Generator: Adobe Illustrator 21.0.0, SVG Export Plug-In . SVG Version: 6.00 Build 0)  -->
<svg version="1.1" id="ico_x5F_Hot" xmlns="http://www.w3.org/2000/svg" xmlns:xlink="http://www.w3.org/1999/xlink" x="0px"
	 y="0px" viewBox="0 0 70 30" enable-background="new 0 0 70 30" xml:space="preserve">
<g id="Hot">
	<linearGradient id="SVGID_1_" gradientUnits="userSpaceOnUse" x1="29.0247" y1="39.8817" x2="43.4981" y2="0.1164">
		<stop  offset="0.5" style="stop-color:#FF6600"/>
		<stop  offset="0.6883" style="stop-color:#FF9200"/>
		<stop  offset="0.8943" style="stop-color:#FFBC00"/>
		<stop  offset="1" style="stop-color:#FFCC00"/>
	</linearGradient>
	<path fill="url(#SVGID_1_)" d="M67.8,13.3c-0.7,0-3.4,2.2-3.2,4.5c0.2,1.9-1.3,3.4-3.3,2.7c-1.7-0.6-1.8-3.2-0.6-5.2
		c2.2-3.4-0.2-7.7-2-9.7c-0.2,6.5-2.4,5.7-4,9.1c-1.9,4-0.9,7.1-3.4,6.9c-1.6-0.2-1.8-2.3-0.9-3.9c1.7-2.9,0.7-4.6-0.2-6.6
		c0,2.5-1.2,3.6-2.6,4.6C45.1,12.4,41,11.9,41,7c-1.1,2.4-1.8,5.7,2.1,9.4c1.5,1.5,0.5,4.4-1.3,4.1c-3.4-0.4-1-3.6-4.4-7.5
		c-3.7-4.4-8.9-3.2-6.8-13c-3,2.6-5.7,8.6-3.2,13.5c1.2,2.5,1.8,6-0.2,6.8c-2.1,0.9-2.7-0.8-2-3.9c0.5-2.7-2.2-6.4-3.1-6.4
		c0.6,2.5,0.2,4.5-0.5,6.3c-1.2-0.9-2.2-1.9-2.2-4.4c-0.9,2.1-2.1,3.6-0.4,6.5c0.9,1.6-0.5,2.8-1.9,2.8c-2.4,0-2.6-2.7-1.8-4.9
		c1.5-4.3-3.5-6.8-7-6.8c3.1,2.9-0.7,4.2,1.8,6.9c1.1,1.2,0.1,2.8-0.9,3.4c-1.8,1.2-3.4-0.5-4.1-2.2c-0.5-1.5-2.4-2.2-3.1-2.2
		C3.6,20.4,0,21,0,26.2c0,1.3,0.5,2.5,1.9,3.8c0.8,0,65.3,0,66.3,0c1.4-1.4,1.9-3.5,1.9-4.7C70,20.1,66.4,22.4,67.8,13.3z"/>
	<linearGradient id="SVGID_2_" gradientUnits="userSpaceOnUse" x1="44.8594" y1="42.7995" x2="23.6133" y2="6.0003">
		<stop  offset="0.6" style="stop-color:#FF6600"/>
		<stop  offset="0.7507" style="stop-color:#FF9200"/>
		<stop  offset="0.9155" style="stop-color:#FFBC00"/>
		<stop  offset="1" style="stop-color:#FFCC00"/>
	</linearGradient>
	<path fill="url(#SVGID_2_)" d="M65.9,19.8c0.2,2.1-2.6,4.1-5.5,2.4c-3.1-1.9-2.8-4.8-1.5-8.6C57,14.3,55,17,54.6,20.8
		c-0.4,3.6-3.5,3.7-4.8,3.2c-2.5-1-2.7-2.8-3-5c-1.3,3.1-2.4,4.6-5.1,4.6c-1.5,0-3.6-2-4.7-5.4c-1.3-4-5.9-3.5-5.9-8.1
		c-3.1,5.2,2.3,7.9-2.5,12.7c-2,2.1-6.3-0.6-6.9-3.6c-0.5,2.8-2.9,4.1-4.5,4.1c-1.1,0-3-0.5-3.4-2.3c-0.7-3.2,0.6-6.2-2.7-7.9
		c1.7,4.7,0.1,9-3.3,9.4c-2.1,0.3-4.2-0.8-4-2.5c-3.2,3.9-1,9.9-1,9.9H67C67,30,69.5,23.4,65.9,19.8z"/>
	<linearGradient id="SVGID_3_" gradientUnits="userSpaceOnUse" x1="34.2646" y1="16.6255" x2="35.6641" y2="32.622">
		<stop  offset="0" style="stop-color:#FFFF00"/>
		<stop  offset="0.2" style="stop-color:#FFCC00"/>
		<stop  offset="1" style="stop-color:#FF6600"/>
	</linearGradient>
	<path fill="url(#SVGID_3_)" d="M66.2,23.2c-1.2,1.5-1.7,2.1-4.1,2.1c-1.9,0-5.2-1.4-4.8-5.2c-2.4,1.7-1.3,5.7-5.2,5.7
		c-3.3,0-4.3-0.9-5.4-2c-2.2,2.2-6.2,2.7-8.4,0.8c-2.7-2.4-2.9-7.8-5.7-7.8c1.4,4.9-1.3,7.7-3.1,8.9c-1.8,1.1-5.4-0.3-7.3-1.7
		c-0.7,1.3-2.7,2.9-5.8,2.3c-1.5-0.3-4.6-1.9-3.6-5.2c-2.3,0.9-2.4,2.8-4.2,4.4c-1.4,1.3-3.7,0.6-4.4-1.6C3.5,24.8,3,27.7,4.6,30
		h61.1C65.6,30,67.5,26.1,66.2,23.2z"/>
</g>
</svg>
