<?xml version="1.0" encoding="utf-8"?><svg viewBox="0 0 512 512" xmlns="http://www.w3.org/2000/svg" xmlns:xlink="http://www.w3.org/1999/xlink"><style>:root>svg{display:none}:root>svg:target{display:block}</style><svg version="1.1" id="a01" x="0" y="0" xml:space="preserve" viewBox="0 0 120 120" xmlns="http://www.w3.org/2000/svg"><style>.ast0{fill:url(#a_x30_01_1_)}</style><linearGradient id="a_x30_01_1_" gradientUnits="userSpaceOnUse" x1="0" y1="60" x2="120" y2="60"><stop offset=".2" stop-color="#ac0df9"/><stop offset="1" stop-color="#6c00ff"/></linearGradient><path id="a_x30_01_2_" class="ast0" d="M88 74c0-12.2-9.8-22-22-22s-22 9.8-22 22c0 7.2 3.5 13.9 9.4 18.1H50c-3.3 0-6 2.7-6 6 0-1.5-.6-2.9-1.6-4 1-1.1 1.6-2.5 1.6-4v-4c0-1.5-.6-2.9-1.6-4 1-1.1 1.6-2.5 1.6-4v-4c0-1.5-.6-2.9-1.6-4 1-1.1 1.6-2.5 1.6-4v-4c0-3.3-2.7-6-6-6H6c-3.3 0-6 2.7-6 6v4c0 1.5.6 2.9 1.6 4-1 1.1-1.6 2.5-1.6 4v4c0 1.5.6 2.9 1.6 4-1 1.1-1.6 2.5-1.6 4v4c0 1.5.6 2.9 1.6 4-1 1.1-1.6 2.5-1.6 4v4c0 1.5.6 2.9 1.6 4-1 1.1-1.6 2.5-1.6 4v4c0 3.3 2.7 6 6 6h32c3.3 0 6-2.7 6-6 0 3.3 2.7 6 6 6h32c3.3 0 6-2.7 6-6v-4c0-1.5-.6-2.9-1.6-4 1-1.1 1.6-2.5 1.6-4v-4c0-3.3-2.7-6-6-6h-3.4C84.5 87.9 88 81.2 88 74zm-56 26v4h-4v-4h-4v4h-4v-4h-4v4h-4v-4H8v4H6c-1.1 0-2-.9-2-2v-4c0-1.1.9-2 2-2h32c1.1 0 2 .9 2 2v4c0 1.1-.9 2-2 2h-2v-4h-4zM4 90v-4c0-1.1.9-2 2-2h32c1.1 0 2 .9 2 2v4c0 1.1-.9 2-2 2h-2v-4h-4v4h-4v-4h-4v4h-4v-4h-4v4h-4v-4H8v4H6c-1.1 0-2-.9-2-2zm0-12v-4c0-1.1.9-2 2-2h32c1.1 0 2 .9 2 2v4c0 1.1-.9 2-2 2h-2v-4h-4v4h-4v-4h-4v4h-4v-4h-4v4h-4v-4H8v4H6c-1.1 0-2-.9-2-2zm0-16c0-1.1.9-2 2-2h32c1.1 0 2 .9 2 2v4c0 1.1-.9 2-2 2h-2v-4h-4v4h-4v-4h-4v4h-4v-4h-4v4h-4v-4H8v4H6c-1.1 0-2-.9-2-2v-4zm36 52c0 1.1-.9 2-2 2h-2v-4h-4v4h-4v-4h-4v4h-4v-4h-4v4h-4v-4H8v4H6c-1.1 0-2-.9-2-2v-4c0-1.1.9-2 2-2h32c1.1 0 2 .9 2 2v4zm2.4-8c1-1.1 1.6-2.5 1.6-4 0 1.5.6 2.9 1.6 4-1 1.1-1.6 2.5-1.6 4 0-1.5-.6-2.9-1.6-4zm41.6 8c0 1.1-.9 2-2 2h-2v-4h-4v4h-4v-4h-4v4h-4v-4h-4v4h-4v-4h-4v4h-2c-1.1 0-2-.9-2-2v-4c0-1.1.9-2 2-2h32c1.1 0 2 .9 2 2v4zm-2-18c1.1 0 2 .9 2 2v4c0 1.1-.9 2-2 2h-2v-4h-4v4h-4v-4h-4v4h-4v-4h-4v4h-4v-4h-4v4h-2c-1.1 0-2-.9-2-2v-4c0-1.1.9-2 2-2h32zm-16-4c-9.9 0-18-8.1-18-18s8.1-18 18-18 18 8.1 18 18-8.1 18-18 18zm2-28v-4h-4v4c-2.2 0-4 1.8-4 4v4c0 2.2 1.8 4 4 4h4v4h-4v-2h-4v2c0 2.2 1.8 4 4 4v4h4v-4c2.2 0 4-1.8 4-4v-4c0-2.2-1.8-4-4-4h-4v-4h4v2h4v-2c0-2.2-1.8-4-4-4zm18-4h6c1.1 0 2-.9 2-2 0-2.2 1.8-4 4-4 1.1 0 2-.9 2-2V28c0-1.1-.9-2-2-2-2.2 0-4-1.8-4-4 0-1.1-.9-2-2-2H36c-1.1 0-2 .9-2 2 0 2.2-1.8 4-4 4-1.1 0-2 .9-2 2v24c0 1.1.9 2 2 2s2-.9 2-2V29.7c2.8-.7 5-2.9 5.7-5.7h52.5c.7 2.8 2.9 5 5.7 5.7v20.5c-2.8.7-5 2.9-5.7 5.7H86c-1.1 0-2 .9-2 2s.9 2.1 2 2.1zm4-20c0-1.1-.9-2-2-2h-4c-1.1 0-2 .9-2 2s.9 2 2 2h4c1.1 0 2-.9 2-2zm-50-2c-1.1 0-2 .9-2 2s.9 2 2 2h4c1.1 0 2-.9 2-2s-.9-2-2-2h-4zm12 2c0 6.6 5.4 12 12 12s12-5.4 12-12-5.4-12-12-12-12 5.4-12 12zm20 0c0 4.4-3.6 8-8 8s-8-3.6-8-8 3.6-8 8-8 8 3.6 8 8zm46-40H34c-1.1 0-2 .9-2 2v4h-4c-1.1 0-2 .9-2 2v4h-4c-1.1 0-2 .9-2 2v38c0 1.1.9 2 2 2s2-.9 2-2V16h80v48H92c-1.1 0-2 .9-2 2s.9 2 2 2h14c1.1 0 2-.9 2-2v-4h4c1.1 0 2-.9 2-2v-4h4c1.1 0 2-.9 2-2V2c0-1.1-.9-2-2-2zm-8 58h-2V14c0-1.1-.9-2-2-2H30v-2h80v48zm6-6h-2V8c0-1.1-.9-2-2-2H36V4h80v48z"/></svg><svg version="1.1" id="a02" x="0" y="0" xml:space="preserve" viewBox="0 0 120 120" xmlns="http://www.w3.org/2000/svg"><style>.bst0{fill:url(#b_x30_02_1_)}</style><linearGradient id="b_x30_02_1_" gradientUnits="userSpaceOnUse" x1="0" y1="60" x2="120" y2="60"><stop offset=".2" stop-color="#ac0df9"/><stop offset="1" stop-color="#6c00ff"/></linearGradient><path id="b_x30_02" class="bst0" d="M120 61.9V46.4c0-4.3-2.8-8-6.9-9.3l-12.5-3.7v-2.9c3.5-2.5 5.8-6.5 5.8-11.1v-5.8c0-7.5-6.1-13.5-13.5-13.5s-13.5 6-13.5 13.4v5.8c0 4.6 2.3 8.7 5.8 11.1v2.9l-11 3.3c-4.1-3.6-9.4-5.6-15-5.6s-10.6 2-14.6 5.4l-9.8-3v-2.9c3.5-2.5 5.8-6.5 5.8-11.1v-5.8c0-7.5-6-13.6-13.5-13.6S13.5 6.1 13.5 13.5v5.8c0 4.6 2.3 8.7 5.8 11.1v2.9L6.9 37.1c-4.1 1.2-6.9 5-6.9 9.3v15.5h3.9V46.4c0-2.6 1.7-4.8 4.1-5.6l12.5-3.7c1.1 1.5 3.3 3.5 6.6 3.5s5.5-2.1 6.6-3.5l7.9 2.4c-2.5 3.2-4.2 7-4.7 11.2-2.5-2.6-6-4.3-9.9-4.3-7.5 0-13.5 6.1-13.5 13.5v5.8c0 4.6 2.3 8.7 5.8 11.1v2.9L6.9 83.6c-4.1 1.2-6.9 5-6.9 9.3v17.5h23.2c1.1 0 1.9.9 1.9 1.9v7.7h69.7v-7.7c0-1.1.9-1.9 1.9-1.9H120V92.9c0-4.3-2.8-8-6.9-9.3l-12.5-3.7V77c3.5-2.5 5.8-6.5 5.8-11.1V60c0-7.5-6.1-13.5-13.5-13.5-3.8 0-7.2 1.6-9.7 4.1v-1.8c0-3.8-2.1-7.3-5.3-9.1l8.4-2.5c1.1 1.5 3.3 3.5 6.6 3.5s5.5-2.1 6.6-3.5l12.5 3.7c2.5.7 4.1 3 4.1 5.6V62h3.9zm-92.9-58c5.3 0 9.7 4.3 9.7 9.7h-8.9c-1.2 0-2.4-.5-3.3-1.4l-1.4-1.4-1.4 1.4c-.9.9-2.1 1.4-3.3 1.4h-1.1c0-5.4 4.4-9.7 9.7-9.7zm-9.7 15.5v-1.9h1.1c1.7 0 3.3-.5 4.7-1.4 1.4.9 3 1.4 4.7 1.4h8.9v1.9c0 5.3-4.3 9.7-9.7 9.7s-9.7-4.4-9.7-9.7zm9.7 17.4c-2.1 0-3.4-1.7-3.9-2.5v-2c1.2.4 2.5.6 3.9.6 1.3 0 2.6-.2 3.9-.6v2c-.5.7-1.8 2.5-3.9 2.5zm53.2 33.9c1 2.5 2.7 4.6 4.9 6.2v2.9l-12.5 3.7c-.4.1-.8.3-1.2.5l-1.8-.4v-3.8c2.1-1.7 3.7-3.8 4.7-6.3 2.2-.2 4.3-1.2 5.9-2.8zM60 83.2c2.1 0 4-.4 5.8-1.1v2.1L60 88.5l-5.8-4.4V82c1.8.8 3.7 1.2 5.8 1.2zm-8.2 4l4.7 3.5-4.9 2.9-1.2-6.1 1.4-.3zm6.1 15.4h4.3l1.5 13.5h-7.3l1.5-13.5zm4.6-3.9h-5l-1.1-3.3 3.6-2.2 3.6 2.2-1.1 3.3zm1-7.9l4.7-3.5 1.4.3-1.2 6.1-4.9-2.9zm14.3-23c-.7.7-1.5 1.3-2.4 1.6.1-.5.1-1.1.1-1.6v-9.3c2.1.8 3.6 2.6 3.8 4.8.2 1.7-.3 3.2-1.5 4.5zm-6.2-.1c0 6.4-5.2 11.6-11.6 11.6s-11.6-5.2-11.6-11.6V58H55c4.2 0 8.3-1.1 12-3.1l1.5 3.1h3.1v9.7zm-27 1.6c-.9-.3-1.8-.8-2.4-1.6-1.1-1.2-1.6-2.8-1.5-4.5.2-2.2 1.8-4 3.8-4.8v9.3c0 .6 0 1.1.1 1.6zm1 4.2c1 2.5 2.6 4.7 4.7 6.3v3.8l-1.8.4c-.4-.2-.8-.3-1.2-.5l-12.5-3.7v-2.9c2.2-1.5 3.9-3.7 4.9-6.2 1.6 1.6 3.7 2.6 5.9 2.8zM27.1 50.3c5.3 0 9.7 4.3 9.7 9.7h-1.1c-1.2 0-2.4-.5-3.3-1.4L31 57.3l-1.4 1.4c-.9.9-2.1 1.4-3.3 1.4h-8.9c0-5.4 4.4-9.8 9.7-9.8zm-9.7 15.5v-1.9h8.9c1.7 0 3.3-.5 4.7-1.4 1.4.9 3 1.4 4.7 1.4h1.1v1.9c0 5.3-4.3 9.7-9.7 9.7s-9.7-4.4-9.7-9.7zm9.7 13.6c1.3 0 2.6-.2 3.9-.6v2c-.5.7-1.8 2.5-3.9 2.5s-3.4-1.7-3.9-2.5v-2c1.3.4 2.6.6 3.9.6zm-3.9 27.1h-7.7V92.9h-3.9v13.5H3.9V92.9c0-2.6 1.7-4.8 4.1-5.6l12.5-3.7c1.1 1.5 3.3 3.5 6.6 3.5s5.5-2.1 6.6-3.5l7.3 2.2-5.3 1.2c-6.2 1.4-10.5 6.9-10.5 13.2v2.4H29v-2.4c0-4.5 3.1-8.4 7.5-9.4l10.1-2.3L49 99.8l4-2.4 1.1 3.4-1.7 15.3h-9.9v-15.5h-3.9v15.5H29v-3.9c0-3.1-2.6-5.7-5.8-5.7zM112 87.3c2.5.7 4.1 3 4.1 5.6v13.6h-7.7V92.9h-3.9v13.5h-7.7c-3.2 0-5.8 2.6-5.8 5.8v3.9h-9.7v-15.5h-3.9v15.5h-9.9l-1.7-15.3 1.1-3.4 4 2.4 2.3-11.4 10.1 2.3c4.4 1 7.5 4.9 7.5 9.4v2.4h3.9v-2.4c0-6.3-4.3-11.8-10.5-13.2l-5.4-1.2 7.3-2.2c1.1 1.5 3.3 3.5 6.6 3.5s5.5-2.1 6.6-3.5l12.7 3.8zm-15.2-6.5c-.5.7-1.8 2.5-3.9 2.5-2.1 0-3.4-1.7-3.9-2.5v-2c1.2.4 2.5.6 3.9.6 1.3 0 2.6-.2 3.9-.6v2zm-3.9-5.3c-5.3 0-9.7-4.3-9.7-9.7v-1.9h1.1c1.7 0 3.3-.5 4.7-1.4 1.4.9 3 1.4 4.7 1.4h8.9v1.9c0 5.3-4.4 9.7-9.7 9.7zm0-25.2c5.3 0 9.7 4.3 9.7 9.7h-8.9c-1.2 0-2.4-.5-3.3-1.4L89 57.3l-1.4 1.4c-.9.9-2.1 1.4-3.3 1.4h-1.1c0-5.4 4.4-9.8 9.7-9.8zm-13.5 6c-1.7-1.3-3.8-2.1-6.1-2.1H71l-2.4-4.8-1.8 1.2c-3.5 2.3-7.5 3.5-11.7 3.5h-8.2c-2.3 0-4.4.8-6.1 2.1v-2.9c0-10.3 8.3-18.6 18.6-18.6 5 0 9.6 1.9 13.1 5.4l2.1 2.1.4.1c2.7.9 4.5 3.4 4.5 6.2v7.8zM92.9 3.9c5.3 0 9.7 4.3 9.7 9.7h-1.1c-1.2 0-2.4-.5-3.3-1.4l-1.4-1.4-1.4 1.4c-.9.9-2.1 1.4-3.3 1.4h-8.9c0-5.4 4.4-9.7 9.7-9.7zm-9.7 15.5v-1.9h8.9c1.7 0 3.3-.5 4.7-1.4 1.4.9 3 1.4 4.7 1.4h1.1v1.9c0 5.3-4.3 9.7-9.7 9.7-5.3-.1-9.7-4.4-9.7-9.7zm9.7 17.4c-2.1 0-3.4-1.7-3.9-2.5v-2c1.2.4 2.5.6 3.9.6 1.3 0 2.6-.2 3.9-.6v2c-.5.7-1.8 2.5-3.9 2.5zM44.5 0h3.9v3.9h-3.9V0zm0 7.7h3.9V29h-3.9V7.7zM71.6 0h3.9v3.9h-3.9V0zm0 7.7h3.9V29h-3.9V7.7zm-19.3 0h3.9v13.5h-3.9V7.7zm0 17.5h3.9V29h-3.9v-3.8zM63.9 7.7h3.9v13.5h-3.9V7.7zm0 17.5h3.9V29h-3.9v-3.8z"/></svg><svg version="1.1" id="a03" x="0" y="0" xml:space="preserve" viewBox="0 0 120 120" xmlns="http://www.w3.org/2000/svg"><style>.cst0{fill:url(#c_x30_03_1_)}</style><linearGradient id="c_x30_03_1_" gradientUnits="userSpaceOnUse" x1="0" y1="60" x2="120" y2="60"><stop offset=".2" stop-color="#ac0df9"/><stop offset="1" stop-color="#6c00ff"/></linearGradient><path id="c_x30_03" class="cst0" d="M32 62.1v4h-6v-4h6zM45.9 72h-6v4h6v-4zM26 76h10v-4H26v4zm-4-4H10v4h12v-4zm23.9 10H22v4h24v-4zM10 86h8v-4h-8v4zm35.9 10v-4H34v4h11.9zM30 92H10v4h20v-4zm4 10H22v4h12v-4zm-24 4h8v-4h-8v4zm105.9-2h4v4h-64v6c0 3.3-2.7 6-6 6H6c-3.3 0-6-2.7-6-6V67.7c0-1.6.6-3.1 1.8-4.2l13.6-13.6c1.1-1.1 2.6-1.8 4.2-1.8h30.3c3.3 0 6 2.7 6 6v2h-4v-2c0-1.1-.9-2-2-2H20v10c0 3.3-2.7 6-6 6H4v46c0 1.1.9 2 2 2h43.9c1.1 0 2-.9 2-2v-6h-2.3c-.6 1.7-1.9 3-3.7 3.7-3.1 1.1-6.5-.5-7.6-3.7-1.1-3.1.5-6.5 3.7-7.6 3.1-1.1 6.5.5 7.6 3.7h14.3V92c0-1.1.9-2 2-2h10V80c0-1.1.9-2 2-2h10V68c0-1.1.9-2 2-2h10V56c0-1.1.9-2 2-2h12c1.1 0 2 .9 2 2v48zm-70 2c0-1.1-.9-2-2-2s-2 .9-2 2 .9 2 2 2 2-.9 2-2zM6.8 64.1H14c1.1 0 2-.9 2-2v-7.2l-9.2 9.2zM75.9 94h-8v10h8V94zm12-12h-8v22h8V82zm12-11.9h-8v34h8v-34zm12-12h-8v46h8v-46zM.6 41.5c1.4-3 5-4.3 8-2.8l6-6c-.1-.2-.2-.4-.2-.6-1.1-3.1.5-6.5 3.7-7.6s6.5.5 7.6 3.7h8.7c.4-1.2 1.2-2.2 2.2-2.9 2.7-1.9 6.4-1.2 8.3 1.5l9.6-8.2c-.7-1.7-.6-3.6.2-5.2 1.5-2.9 5.2-4.1 8.1-2.5 2.9 1.5 4.1 5.2 2.5 8.1-1.5 2.9-5.2 4.1-8.1 2.5l-11.3 9.7c-.4 2.1-1.9 3.9-3.9 4.7-3.1 1.1-6.5-.5-7.6-3.7h-8.7c-.1.2-.2.4-.2.6-1.4 3-5 4.2-8 2.8l-6 6c.4.8.6 1.7.6 2.6 0 3.3-2.7 6-6 6-.9 0-1.8-.2-2.6-.6C.4 48.1-.8 44.5.6 41.5zm57.3-25.4c0 1.1.9 2 2 2s2-.9 2-2-.9-2-2-2-2 .9-2 2zM38 30.1c0 1.1.9 2 2 2s2-.9 2-2-.9-2-2-2c-1.2 0-2 .9-2 2zm-20 0c0 1.1.9 2 2 2s2-.9 2-2-.9-2-2-2-2 .9-2 2zm-14 14c0 1.1.9 2 2 2s2-.9 2-2-.9-2-2-2-2 .9-2 2zm67-30.3C77.7 1.1 93.5-3.7 106.2 3s17.5 22.5 10.8 35.2C110.2 51 94.5 55.8 81.7 49.1L67.3 63.5c-.4.4-.9.6-1.4.6h-10v36h-4v-36h-4.3c-.6 1.7-1.9 3-3.7 3.7-3.1 1.1-6.5-.5-7.6-3.7-1.1-3.1.5-6.5 3.7-7.6 3.1-1.1 6.5.5 7.6 3.7h17.5L78.3 47C68.1 39.2 65 25.2 71 13.8zM43.9 62.1c0-1.1-.9-2-2-2s-2 .9-2 2 .9 2 2 2c1.2 0 2-.9 2-2zm71.9-34H98.3l11.6 13c3.4-3.5 5.4-8.1 5.9-13zm-19.9-4h19.9c-1-10.6-9.3-18.9-19.9-19.9v19.9zm-19.7 15c7.2 9.8 21 11.8 30.7 4.6L92.4 27.4c-.3-.4-.5-.8-.5-1.3V4.2c-4 .4-7.8 1.8-11 4.2-9.8 7.2-11.9 21-4.7 30.7z"/></svg><svg version="1.1" id="a04" x="0" y="0" xml:space="preserve" viewBox="0 0 120 120" xmlns="http://www.w3.org/2000/svg"><style>.dst0{fill:url(#d_x30_04_1_)}</style><linearGradient id="d_x30_04_1_" gradientUnits="userSpaceOnUse" x1="0" y1="60" x2="120" y2="60"><stop offset=".2" stop-color="#ac0df9"/><stop offset="1" stop-color="#6c00ff"/></linearGradient><path id="d_x30_04" class="dst0" d="M76.7 74.8l-3.4-.8-7.7-2-3.9-1-3.9-1v-4.6C69.8 63.5 79 52.9 79 40.6c0-13.9-11.3-25.2-25.1-25.2s-25 11.4-25 25.2c0 2.5.4 5 1.1 7.4-5.6 4-12.4 6.2-19.3 6.2h-5C2.6 54.2 0 56.8 0 60v3.9c0 3.2 2.6 5.8 5.8 5.8h2.5l5.2 13.9v9.3H5.8c-3.2 0-5.8 2.6-5.8 5.8v7.7c0 3.2 2.6 5.8 5.8 5.8h3.1l6.4 6.4c.9.9 2 1.4 3.3 1.4 2.6 0 4.7-2.1 4.7-4.7v-3.1h5.8c3.2 0 5.8-2.6 5.8-5.8v-7.7c0-3.2-2.6-5.8-5.8-5.8H17.4v-7.7h3.9V71.4c3.7 1.2 7.3 3.1 10.4 5.6l3.1 2.5V56.7c3 3.6 6.9 6.4 11.6 7.9v13.3c-1.9-1.5-4.1-2.4-6.7-2.4-1.3 0-2.5.5-3.5 1.4-.9.9-1.4 2.2-1.4 3.6 0 .8.2 1.6.5 2.3l2.3 4.6c.7 1.3 1 2.8 1 4.3v6.9c0 11.7 9.5 21.3 21.2 21.3S81 110.3 81 98.6V80.4c.1-2.6-1.7-4.9-4.3-5.6zm-65.1-9H5.8c-1.1 0-1.9-.9-1.9-1.9V60c0-1.1.9-1.9 1.9-1.9h5.8v7.7zm17.3 31c1.1 0 1.9.9 1.9 1.9v7.7c0 1.1-.9 1.9-1.9 1.9h-9.6v6.9c0 .7-.9 1-1.4.6l-7.5-7.5H5.8c-1.1 0-1.9-.9-1.9-1.9v-7.7c0-1.1.9-1.9 1.9-1.9h23.1zM17.4 81.3h-.6l-4.3-11.5c1.7.1 3.3.3 4.9.6v10.9zm13.5-9.6c-4.7-3-10-4.9-15.4-5.6v-8.4c5.5-.7 10.8-2.6 15.4-5.6v19.6zm26.6-21.4c-.8-2.2-2.9-3.9-5.4-3.9-2.2 0-4 1.2-5 3-.4-2.2-.6-4.5-.7-6.9h15.3c-.1 2.7-.4 5.3-.9 7.7h-3.3zm.4 11.3v-7.4h12.4c-3.1 3.8-7.4 6.5-12.4 7.4zm15-11.3h-8.2c.4-2.5.7-5.1.8-7.7h9.6c-.2 2.7-1 5.4-2.2 7.7zm0-19.3c1.2 2.4 2 5 2.2 7.7h-9.6c-.1-2.7-.4-5.3-.8-7.7h8.2zm-2.5-3.9h-6.5c-.7-2.5-1.6-4.7-2.7-6.5 3.6 1.3 6.8 3.6 9.2 6.5zM54 19.4c2.1 0 4.3 3 5.8 7.7H48.2c1.6-4.8 3.8-7.7 5.8-7.7zM60.8 31c.5 2.3.8 4.9.9 7.7H46.4c.1-2.8.4-5.4.9-7.7h13.5zM46.9 20.6c-1.1 1.8-2 4-2.7 6.5h-6.5c2.4-2.9 5.6-5.2 9.2-6.5zM35.2 31h8.1c-.4 2.4-.7 5-.8 7.7h-9.6c.3-2.8 1-5.4 2.3-7.7zm-.1 19.3c-1.2-2.4-2-5-2.2-7.7h9.6c.1 2.7.4 5.3.8 7.7h-8.2zm2.6 3.9h8.6v6.3c-3.4-1.4-6.4-3.6-8.6-6.3zm39.5 44.5c0 9.6-7.8 17.4-17.4 17.4s-17.4-7.8-17.4-17.4v-6.9c0-2.1-.5-4.2-1.4-6.1l-2.3-4.6c-.1-.2-.1-.3-.1-.7 0-.3.1-.5.3-.7.2-.2.5-.3.9-.3 1.8 0 3.4.7 4.6 1.9 1.2 1.2 1.9 2.9 1.9 4.6v8.9h3.9V52.3c0-1.1.9-1.9 1.9-1.9 1.1 0 1.9.9 1.9 1.9V94.9h3.9V74.1l3.9 1v19.8h3.9V76l3.9 1v17.8h3.9V78l2.4.6c.9.2 1.5 1 1.5 1.9v18.2zm41.6-63.4c-.8-4.7-4.5-8.6-9.2-9.5-.6-.1-1-.5-1.3-.9 1.9-1.6 3.2-3.9 3.5-6.6l1.5-1.5c1.6-1.6 2.5-3.7 2.5-6 0-6-4.9-10.8-10.8-10.8h-5.4c-6 0-10.8 4.9-10.8 10.8 0 2.3.9 4.4 2.5 6l1.5 1.5c.2 2.6 1.5 5 3.5 6.6-.3.5-.7.8-1.3.9-4.7.9-8.4 4.8-9.2 9.5l-1.2 7.3H120l-1.2-7.3zM94.3 11c-.5.5-.9 1.1-1.2 1.8-.3-.6-.5-1.3-.5-2 0-3.8 3.1-7 7-7h5.4c3.8 0 7 3.1 7 7 0 .7-.2 1.4-.5 2-.3-.7-.7-1.3-1.2-1.8l-2.7-2.7-2.7 2.7 2.7 2.7c.4.4.6.9.6 1.4v2.3c0 3.2-2.6 5.8-5.8 5.8-3.2 0-5.8-2.6-5.8-5.8v-2.3c0-.5.2-1 .6-1.4l1.4-1.4 2.5 2.5 2.7-2.7-5.2-5.2-4.3 4.1zm11.2 16.5l-1.8 2.7c-.6.9-2.2.9-2.8 0l-1.8-2.7c.2-.3.4-.5.5-.8.8.2 1.7.4 2.6.4s1.8-.2 2.6-.4c.3.3.5.6.7.8zM89.1 38.7l.5-2.8c.5-3.2 3-5.7 6.1-6.3h.1l1.9 2.8c1 1.5 2.8 2.5 4.6 2.5s3.6-.9 4.6-2.5l1.9-2.8h.1c3.1.6 5.6 3.2 6.1 6.3l.5 2.8H89.1zM118.3 94l-7.4-7.4-2.5 1.2-.9-2.6H97.1l-.9 2.6-2.5-1.2-7.4 7.4 1.2 2.5-2.6.9v10.5l2.5.9-1.2 2.5 7.4 7.4 2.5-1.2.9 2.6h10.4l.9-2.6 2.5 1.2 7.4-7.4-1.2-2.5 2.6-.9V97.4l-2.5-.9 1.2-2.5zm-2.5 11.1l-1.6.6-.9.4-.8 2 1.1 2.3-3.5 3.6-2.3-1.1-2.1.9-.9 2.4h-5l-.6-1.6-.4-.9-2-.8-2.3 1.1-3.5-3.6 1.1-2.3-.9-2.1-2.4-.9v-5l1.6-.6.9-.4.8-2-1.1-2.3 3.5-3.6 2.3 1.1 2.1-.9.9-2.4h5l.6 1.6.4.9 2 .8 2.3-1.1 3.5 3.6-1.1 2.3.9 2.1 2.4.9v5zm-13.5-12.2c-5.3 0-9.6 4.3-9.6 9.7 0 5.3 4.3 9.7 9.6 9.7s9.6-4.3 9.6-9.7c0-5.4-4.3-9.7-9.6-9.7zm0 15.5c-3.2 0-5.8-2.6-5.8-5.8 0-3.2 2.6-5.8 5.8-5.8 3.2 0 5.8 2.6 5.8 5.8 0 3.2-2.6 5.8-5.8 5.8zM7.7 7.7h11.6v3.9H7.7V7.7zm0 7.8h11.6v3.9H7.7v-3.9zm0 7.7h11.6v3.9H7.7v-3.9zm15.5 77.4H27v3.9h-3.9v-3.9zm-15.5 0h3.9v3.9H7.7v-3.9zm7.7 0h3.9v3.9h-3.9v-3.9zm-3.8-50.3h3.9V34.8H27V0H0v34.8h11.6v15.5zM3.9 31V3.9h19.3V31H3.9zm96.5 15.5h3.9v11.6h-3.9V46.5zm0 15.4h3.9v3.9h-3.9v-3.9zm0 7.8h3.9v11.6h-3.9V69.7z"/></svg><svg version="1.1" id="a05" x="0" y="0" xml:space="preserve" viewBox="0 0 120 120" xmlns="http://www.w3.org/2000/svg"><style>.est0{fill:url(#e_x30_05_1_)}</style><linearGradient id="e_x30_05_1_" gradientUnits="userSpaceOnUse" x1="0" y1="60" x2="120" y2="60"><stop offset=".2" stop-color="#ac0df9"/><stop offset="1" stop-color="#6c00ff"/></linearGradient><path id="e_x30_05" class="est0" d="M70 104h-4V84.4c0-1.1-.9-2-2-2s-2 .9-2 2V104H10V64h16.6c1.1 0 2-.9 2-2s-.9-2-2-2H8c-1.1 0-2 .9-2 2v42H2c-1.1 0-2 .9-2 2v4c0 5.5 4.5 10 10 10h52c5.5 0 10-4.5 10-10v-4c0-1.1-.9-2-2-2zm-2 6c0 3.3-2.7 6-6 6h-4v-2c0-1.1-.9-2-2-2s-2 .9-2 2v2H18v-2c0-1.1-.9-2-2-2s-2 .9-2 2v2h-4c-3.3 0-6-2.7-6-6v-2h64v2zm36-98h4c1.1 0 2-.9 2-2s-.9-2-2-2h-4c-3.3 0-6 2.7-6 6v2h-2c-1.1 0-2 .9-2 2s.9 2 2 2h2v6c0 1.1.9 2 2 2s2-.9 2-2v-6h2c1.1 0 2-.9 2-2s-.9-2-2-2h-2v-2c0-1.1.9-2 2-2zm10-12H90c-3.3 0-6 2.7-6 6v4c0 1.1.9 2 2 2s2-.9 2-2V6c0-1.1.9-2 2-2h24c1.1 0 2 .9 2 2v24c0 1.1-.9 2-2 2H90c-1.1 0-2-.9-2-2V18c0-1.1-.9-2-2-2s-2 .9-2 2v12c0 3.3 2.7 6 6 6h24c3.3 0 6-2.7 6-6V6c0-3.3-2.7-6-6-6zM94 80c0 4.4 3.6 8 8 8s8-3.6 8-8-3.6-8-8-8-8 3.6-8 8zm12 0c0 2.2-1.8 4-4 4s-4-1.8-4-4 1.8-4 4-4 4 1.8 4 4zm8-18H90c-3.3 0-6 2.7-6 6v24c0 3.3 2.7 6 6 6h24c3.3 0 6-2.7 6-6v-4c0-1.1-.9-2-2-2s-2 .9-2 2v4c0 1.1-.9 2-2 2H90c-1.1 0-2-.9-2-2V68c0-1.1.9-2 2-2h24c1.1 0 2 .9 2 2v12c0 1.1.9 2 2 2s2-.9 2-2V68c0-3.3-2.7-6-6-6zM46.9 27.7c.3.2.7.3 1.1.3.3 0 .6-.1.9-.2l12-6c1-.5 1.4-1.7.9-2.7-.2-.4-.5-.7-.9-.9l-12-6c-1-.5-2.2-.1-2.7.9-.1.3-.2.6-.2.9v12c0 .7.4 1.3.9 1.7zM50 17.2l5.5 2.8-5.5 2.8v-5.6zM52 38c9.9 0 18-8.1 18-18S61.9 2 52 2s-18 8.1-18 18 8.1 18 18 18zm0-32c7.7 0 14 6.3 14 14s-6.3 14-14 14-14-6.3-14-14S44.3 6 52 6zm18 36c.6 0 1.2-.3 1.6-.8l6-8c.7-.9.5-2.1-.4-2.8-.9-.7-2.1-.5-2.8.4l-6 8c-.7.9-.5 2.1.4 2.8.3.3.8.4 1.2.4zm4.4 7.2c.4.5 1 .8 1.6.8.4 0 .9-.1 1.2-.4l8-6c.9-.7 1.1-1.9.4-2.8-.7-.9-1.9-1.1-2.8-.4l-8 6c-.9.7-1.1 1.9-.4 2.8zM94 53.6c-.2-1.1-1.2-1.8-2.3-1.6h-.1l-10 2c-1.1.1-1.9 1.1-1.8 2.2.1 1.1 1.1 1.9 2.2 1.8h.4l10-2c1.1-.2 1.8-1.2 1.6-2.4 0 .1 0 0 0 0zM2 54h24c1.1 0 2-.9 2-2V20c0-1.1-.9-2-2-2H2c-1.1 0-2 .9-2 2v32c0 1.1.9 2 2 2zm2-32h20v28H4V22zm14 4h-4c-1.1 0-2 .9-2 2s.9 2 2 2h4c1.1 0 2-.9 2-2s-.9-2-2-2zm0 8h-8c-1.1 0-2 .9-2 2s.9 2 2 2h8c1.1 0 2-.9 2-2s-.9-2-2-2zm0 8h-8c-1.1 0-2 .9-2 2s.9 2 2 2h8c1.1 0 2-.9 2-2s-.9-2-2-2zm50.2 11.4c-.6-1-1.8-1.3-2.7-.7-1 .6-1.3 1.8-.7 2.7l8.8 15.3-32 12H41.3l-5.2 3-3.5 2c-.9.5-2 .7-3 .4-1-.3-1.9-.9-2.4-1.9l-4-6.9c-1-1.9-.3-4.2 1.5-5.3l6.9-4 5 8.7c.4.6 1 1 1.7 1 1.1 0 2-.9 2-2 0-.4-.1-.7-.3-1l-5.2-8.9L60 47l.8 1.4c.6 1 1.8 1.3 2.7.7 1-.6 1.3-1.8.7-2.7l-2-3.5c-.3-.5-.8-.9-1.4-1-.6-.1-1.2 0-1.6.4l-28 23.1-8.5 4.9c-3.1 1.8-4.7 5.6-3.7 9.1l-2 1.1c-2.9 1.7-3.9 5.3-2.2 8.2.8 1.4 2.1 2.4 3.7 2.8.5.1 1 .2 1.6.2 1.1 0 2.1-.3 3-.8l2-1.1c1 1 2.2 1.7 3.5 2.1.7.2 1.4.3 2.1.3 1.4 0 2.8-.4 4-1.1l1.7-1 4 6.9c1.7 2.9 5.3 3.8 8.2 2.2 2.9-1.7 3.9-5.3 2.2-8.2l-3.6-6.3 30-11.3c.6-.2 1-.6 1.2-1.2.2-.5.1-1.2-.1-1.7L68.2 53.4zM21 87.6c-.5.3-1 .3-1.5.2-.5-.1-1-.5-1.2-.9-.3-.5-.3-1-.2-1.5.1-.5.5-1 .9-1.2l1.7-1 2 3.5-1.7.9zm26.3 5.6c.3.5.3 1 .2 1.5-.1.5-.5.9-.9 1.2-1 .5-2.2.2-2.7-.7l-4-6.9 3.3-1.9h.2l3.9 6.8z"/></svg><svg version="1.1" id="a06" x="0" y="0" xml:space="preserve" viewBox="0 0 120 120" xmlns="http://www.w3.org/2000/svg"><style>.fst0{fill:url(#f_x30_06_1_)}</style><linearGradient id="f_x30_06_1_" gradientUnits="userSpaceOnUse" x1="0" y1="60" x2="120" y2="60"><stop offset=".2" stop-color="#ac0df9"/><stop offset="1" stop-color="#6c00ff"/></linearGradient><path id="f_x30_06" class="fst0" d="M97.5 104.4L93 90.9c-1.6-4.7-5.6-8.2-10.5-9.1l-13-2.4v-1c2.3-1.3 4.2-3.1 5.8-5.1h3.9c3.2 0 5.8-2.6 5.8-5.8V44.2c0-13.9-11.3-25.3-25.2-25.3S34.6 30.2 34.6 44.2v13.6c0 3.7 2.7 6.9 6.2 7.6 1.1 5.6 4.6 10.3 9.3 13.1v1l-13 2.4c-4.9.9-8.9 4.4-10.5 9.1l-.6 2.3-6.6-6.6c-.8-.8-.8-2 0-2.8l7.7-7.7-14.5-14.4L4 70.5c-2.6 2.6-4 6-4 9.6s1.4 7.1 4 9.6L30.2 116c2.6 2.6 6 4 9.6 4 3.6 0 7-1.4 9.5-3.9l9.4-8.7-2.9-2.9h41.7zM81.2 67.5c0 1.1-.9 1.9-1.9 1.9h-1.6c.6-1.3 1-2.6 1.3-4 .8-.2 1.6-.5 2.3-.9v3zm-1.9-6.4v-6.7c1.2.7 1.9 1.9 1.9 3.3s-.8 2.8-1.9 3.4zm-38.8 0c-1.2-.7-1.9-1.9-1.9-3.3s.8-2.7 1.9-3.3v6.6zm0-13v2.2c-.7.2-1.3.5-1.9.8v-6.9c0-11.8 9.6-21.4 21.3-21.4s21.3 9.6 21.3 21.4v6.9c-.6-.4-1.2-.6-1.9-.8v-2.2h-1.9c-5.7 0-11.1-2.2-15.2-6.3l-2.3-2.3-2.3 2.3c-4.1 4.1-9.5 6.3-15.2 6.3h-1.9zm3.8 13.6v-9.8c5.8-.4 11.3-2.8 15.5-6.9 4.3 4.1 9.7 6.5 15.5 6.9v9.8c0 2.8-.8 5.5-2.1 7.8H59.9v3.9h10.2c-2.7 2.4-6.3 3.9-10.2 3.9-8.6-.1-15.6-7.1-15.6-15.6zm21.4 18.5l-5.8 5.9-5.9-5.8v-.1c1.8.6 3.8.9 5.8.9s4-.3 5.9-.9zm-35.3 12c1.1-3.4 4-5.9 7.5-6.5l13.6-2.5 8.4 8.4 8.4-8.4 13.6 2.5c3.5.6 6.3 3.1 7.5 6.5l2.8 8.4H52L44.4 93l-8.4 7.6c-.7.7-2 .7-2.7 0L29 96.3l1.4-4.1zM12.6 67.3l8.9 8.9-2.1 2.1-8.9-8.9 2.1-2.1zm34.1 46c-1.8 1.8-4.3 2.8-6.9 2.8-2.6 0-5-1-6.9-2.8L6.7 87c-1.8-1.8-2.8-4.3-2.8-6.9 0-2.6 1-5 2.8-6.9l1.1-1.1 8.9 8.9-.1.1c-2.3 2.3-2.3 6 0 8.2l13.9 13.9c1.1 1.1 2.6 1.7 4.1 1.7 1.6 0 3-.6 4-1.6l.1-.1 8.9 9-.9 1.1zm3.9-3.7l-8.9-8.9 2.6-2.3 8.9 8.9-2.6 2.3zM114.2 0H87c-3.2 0-5.8 2.6-5.8 5.8v15.6c0 3.2 2.6 5.8 5.8 5.8h5.2l-2 11.7 18.7-11.7h5.3c3.2 0 5.8-2.6 5.8-5.8V5.8c0-3.2-2.6-5.8-5.8-5.8zm1.9 21.4c0 1.1-.9 1.9-1.9 1.9h-6.4L95.5 31l1.3-7.7H87c-1.1 0-1.9-.9-1.9-1.9V5.8c0-1.1.9-1.9 1.9-1.9h27.2c1.1 0 1.9.9 1.9 1.9v15.6zM89 7.8h23.3v3.9H89V7.8zm0 7.8h15.5v3.9H89v-3.9zm19.4 0h3.9v3.9h-3.9v-3.9zM59.9 5.3C34.5 5.3 12.7 22.9 7 47.4l-3.7-6.1-3.3 2 6.8 11.4 11.4-6.8-2-3.3-5.3 3.2c5.5-22.6 25.6-38.6 49-38.6 5.1 0 10.1.8 14.9 2.3L76 7.7c-5.2-1.6-10.7-2.4-16.1-2.4zm59.2 37.2l-11.4-6.8-6.8 11.4 3.3 2 3.4-5.7c1.8 5.2 2.7 10.7 2.7 16.3 0 11.6-4 22.9-11.2 31.8l3 2.4c7.8-9.7 12.1-21.8 12.1-34.3 0-5.9-1-11.8-2.8-17.3l5.7 3.4 2-3.2z"/></svg><svg version="1.1" id="advantage-01" x="0" y="0" xml:space="preserve" viewBox="0 0 80 80" xmlns="http://www.w3.org/2000/svg"><style>.gst0{fill:#6c00ff}.gst1{fill:#c5ff41}.gst2{fill:#5fcc31}.gst3{fill:#390}.gst4{fill:#fffbb3}.gst5{fill:#fef156}.gst6{fill:#ffd301}.gst7{fill:#ff953a}.gst8{fill:#fea53d}.gst9{fill:#ac0df9}</style><path class="gst0" d="M50.4 3.7l-12.9-2c-13.6.3-25.4 7.6-32 18.5l2.9 43.7c7 8.8 17.8 14.4 29.9 14.4 21.1 0 38.3-17.1 38.3-38.3 0-16.9-11-31.2-26.2-36.3z"/><path class="gst1" d="M17 16c.4.7 1.2 1.1 2.4 1.3-.2.7-.7 2.8.3 4.3.7 1.1 2 1.8 3.8 1.9h.1L52.3 7l-1.9-3.3c-3.8-1.3-7.9-2-12.1-2h-.7L17 13.6c-.2.5-.5 1.5 0 2.4z"/><path class="gst2" d="M4.6 34.5l19.2-11.1c-.1 0-.2-.1-.4-.1-6-.5-3.8-6.2-3.8-6.2-4.1-.3-2.4-3.7-2.4-3.7L5.5 20.2c-1.3 2.2-2.4 4.6-3.3 7L.9 48.3c1.3 5.8 3.9 11.1 7.5 15.6.2-.1.3-.1.5-.2l6.5-3.8-12-20.8c-.9-1.6-.4-3.6 1.2-4.6z"/><path class="gst2" d="M19.4 17.3c-.2.7-.7 2.8.3 4.3.7 1.1 2 1.8 3.8 1.9h.1l22-12.7c-2.3.5-4.8-.3-6.3-2.3-.8-1.1-2.3-1.4-3.5-.8l-16.4 9.6z"/><path class="gst3" d="M4.6 34.5l19.2-11.1c-.1 0-.2-.1-.4-.1-6-.5-3.8-6.2-3.8-6.2L2.2 27.3C.8 31.2 0 35.5 0 40c0 2.9.3 5.7.9 8.3l1.2 2.1c.7 1.2 2.1 1.6 3.4 1.1 1.7-.7 3.5-.6 5.1.1L3.4 39.2c-.9-1.7-.4-3.7 1.2-4.7z"/><path class="gst1" d="M79.5 32.2L70.2 16c-.1 1-.5 1.6-1 2-1.1.7-2.7 0-2.7 0H56.1c.1-.4.2-1.1 0-2-.2-1.1-1-2.7-3.3-3.7-1.1-.5-1.8-1.2-2-2-.4-1.5 1-3.1 1-3.2l.2-.4-21.4 12.5c-.2.5-.5 1.7.1 2.6.4.7 1.2 1 2.4 1.1-.1.5-.3 1.5.2 2.3.4.6 1.1.9 2 .9-.1.4-.2 1 .1 1.5.3.5.9.8 1.8.9l3.6 7.4h.2s3.2-.2 4.2 1.4c.5.9.4 2.1-.5 3.7l-.1.1.8 1.7c-.1.3-.5 1.2-.1 2 .2.5.7.8 1.3.9-.2.5-.4 1.4 0 2.2.3.6 1 1 1.9 1.2-.2.5-.5 1.7 0 2.6.4.7 1.1 1.1 2.1 1.2l27.3-15.8c2-.9 2.6-3.1 1.6-4.9z"/><path class="gst1" d="M63.5 4.5c-1-1.7-3.2-2.3-5-1.3l-7 4s-3.1 3.7 1.1 5.5c4.2 1.8 3.1 5.6 3.1 5.6h10.6s3.4 1.4 4-1.9L63.5 4.5z"/><path class="gst2" d="M51.2 52.8c-3.8-.4-2.2-3.9-2.2-3.9-3.4-.4-2-3.4-2-3.4-2.5-.3-1.3-2.7-1.3-2.7l-.8-1.7c3.3-5.9-3.9-5.5-3.9-5.5l-3.6-7.3c-2.8-.2-1.8-2.5-1.8-2.5-3.5 0-2.2-3.2-2.2-3.2-4.2.1-2.4-3.6-2.4-3.6L4.5 34.3c-1.7 1-2.3 3.2-1.3 5l16 27.8c1 1.7 3.2 2.3 5 1.3l27-15.6z"/><path class="gst2" d="M70.1 24.8l-4.8-8.4c-.7-1.2-2.1-1.6-3.4-1.1-2.6 1.1-5.6.3-7.3-2-.8-1.1-2.3-1.4-3.5-.8l-18 10.4h.1c-.1.5-.3 1.5.2 2.3.4.6 1.1.9 2 .9-.1.4-.2 1 .1 1.5.3.5.9.8 1.8.9l3.6 7.4h.2s3.2-.2 4.2 1.4c.5.9.4 2.1-.5 3.7l-.1.1.8 1.7c-.1.3-.5 1.2-.1 2 .2.5.7.8 1.3.9-.2.5-.4 1.4 0 2.2.3.6 1 1 1.9 1.2l17.6-10.2c1.2-.7 1.6-2.1 1.1-3.4-1.1-2.6-.3-5.6 2-7.3 1.1-.8 1.5-2.3.8-3.4z"/><path class="gst3" d="M47 45.6c-2.5-.3-1.3-2.7-1.3-2.7l-.8-1.7c3.3-5.9-3.9-5.5-3.9-5.5l-3.6-7.3c-2.8-.2-1.8-2.5-1.8-2.5-3.5 0-2.2-3.2-2.2-3.2l-17 9.8c-1.2.7-1.6 2.1-1.1 3.4 1.1 2.6.3 5.6-2 7.3-1.1.8-1.4 2.3-.8 3.5l4.8 8.4c.7 1.2 2.1 1.6 3.4 1.1 2.6-1.1 5.6-.3 7.3 2 .8 1.1 2.3 1.4 3.5.8l17.4-10c-3.3-.5-1.9-3.4-1.9-3.4z"/><path class="gst4" d="M73.5 64.2H53.2c-.5 0-1-.4-1-1v-3.9c0-.5.4-1 1-1h20.3c.5 0 1 .4 1 1v3.9c0 .6-.5 1-1 1z"/><path class="gst5" d="M73.5 70H53.2c-.5 0-1-.4-1-1v-3.9c0-.5.4-1 1-1h20.3c.5 0 1 .4 1 1V69c0 .6-.5 1-1 1z"/><path class="gst6" d="M73.5 75.8H53.2c-.5 0-1-.4-1-1v-3.9c0-.5.4-1 1-1h20.3c.5 0 1 .4 1 1v3.9c0 .5-.5 1-1 1z"/><path class="gst1" d="M35.3 26.2c-.1.4-.2 1 .1 1.5.3.5.9.8 1.8.9l3.6 7.4h.2s3.2-.2 4.2 1.4c.5.9.4 2.1-.5 3.7l-.1.1.8 1.7c-.1.3-.5 1.2-.1 2 .2.5.7.7 1.3.9.1-.1.2-.1.3-.2 5.4-3.1 7.3-10.1 4.2-15.5-3.1-5.4-10.1-7.3-15.5-4.2 0 .1-.2.2-.3.3 0-.1 0 0 0 0z"/><path class="gst2" d="M31.5 41.4c3.1 5.4 10.1 7.3 15.5 4.2-2.5-.3-1.3-2.7-1.3-2.7l-.8-1.7c3.3-5.9-3.9-5.5-3.9-5.5l-3.6-7.3c-2.8-.2-1.8-2.5-1.8-2.5-5.3 3.2-7.2 10.1-4.1 15.5z"/><path class="gst3" d="M45.2 43.6c-.4 0-.8-.2-1-.6l-7.8-13.5c-.3-.5-.1-1.2.4-1.6.5-.3 1.3-.1 1.6.4l7.8 13.5c.3.5.1 1.2-.4 1.6-.2.2-.4.2-.6.2z"/><circle transform="rotate(-88.969 57.456 26.417) scale(.99996)" class="gst1" cx="57.5" cy="26.4" r="3.1"/><circle transform="rotate(-41.31 25.205 45.077)" class="gst2" cx="25.2" cy="45.1" r="3.1"/><path class="gst5" d="M58.2 45.2c.2 0 .5 0 .8-.1l4.2 2.3s.9.4 1.8 1.1c1.2 1 1.8 2.2 1.8 3.5 0 1.9.8 2.8 1.5 3.3.6.4 1.3.5 2.1.4 2.4-2 4-5.1 4-8.5 0-1.7-.4-3.3-1.1-4.8l-.1.1c-1.2 1.2-2.4 1.7-3.5 1.6-1.6-.2-2.6-1.6-2.6-1.6v-.1H67c-3.3-.9-3.5-3.8-3.5-3.9v-.1l-.1-.1c-.4-.2-.6-.5-.6-.8 0-.5.4-1 .6-1.2l.9-.2c-.3 0-.7-.1-1.1-.1-4 0-7.6 2.2-9.5 5.4.3.9 1.4 3.8 4.5 3.8z"/><path class="gst6" d="M67.2 52.1c0-3.4-3.8-4.9-3.8-4.9L59 44.9c-4.2.6-5-3.6-5-3.7-1.1 1.7-1.8 3.8-1.8 6 0 6.1 5 11.1 11.1 11.1 2.9 0 5.5-1.1 7.5-2.9-1.8.5-3.6-.4-3.6-3.3z"/><path class="gst4" d="M63.3 38.5s.2 3.2 3.7 4.2c0 0 2.6 3.8 6.4 0-1.7-3.9-5.6-6.6-10.1-6.6 0 0-1.5 1.4 0 2.4z"/><path class="gst7" d="M63.4 54.3c-1.4 0-2.2-.2-3.4-1-.5-.3-.6-1-.3-1.5s1-.6 1.5-.3c.9.6 1.2.6 2.3.6 1.2 0 1.9-.9 2-1.8 0-.4 0-1.4-1.3-1.7L62 48c-2.3-.6-3.1-2.5-2.9-4.1.2-1.8 1.7-3.7 4.1-3.7 1.4 0 2.3.1 3.6 1 .5.3.6 1 .3 1.5s-1 .6-1.5.3c-.9-.6-1.2-.6-2.3-.6-1.2 0-1.9.9-2 1.8 0 .4 0 1.4 1.3 1.7l2.2.5c2.3.6 3.1 2.5 2.9 4.1-.2 1.8-1.7 3.7-4.1 3.7l-.2.1z"/><path class="gst8" d="M63.3 55.9c-.6 0-1.1-.5-1.1-1.1V39.6c0-.6.5-1.1 1.1-1.1s1.1.5 1.1 1.1v15.2c0 .7-.5 1.1-1.1 1.1z"/><g><path class="gst3" d="M41.9 42.9h-.5c-.6 0-1.1-.6-1.1-1.2s.6-1.1 1.2-1.1c1 .1 1.4-.1 2.4-.6 1.1-.6 1.2-1.8.8-2.5-.2-.4-.7-1.2-2-.9l-2.2.7c-2.3.7-4.1-.6-4.7-2.2-.8-1.7-.4-4.2 1.8-5.4 1.3-.7 2.1-1 3.7-1 .6 0 1.1.6 1.1 1.2s-.6 1.1-1.2 1.1c-1-.1-1.4.1-2.4.6-1.1.6-1.2 1.8-.8 2.5.2.4.7 1.2 2 .9l2.2-.7c2.3-.7 4.1.6 4.7 2.2.8 1.7.4 4.2-1.8 5.4-1.1.7-1.9 1-3.2 1z"/></g><path class="gst9" d="M26 76.3c3.9 1.3 8 2 12.3 2 3.2 0 6.4-.4 9.4-1.2-2.5-16.1-15.4-6.6-21.7-.8z"/></svg><svg version="1.1" id="advantage-02" x="0" y="0" xml:space="preserve" viewBox="0 0 80 80" xmlns="http://www.w3.org/2000/svg"><style>.hst0{fill:#5fcc31}.hst1{fill:#6c00ff}.hst2{fill:#60c}.hst3{fill:#e9efff}.hst4{fill:#dae2fe}.hst5{fill:#bec8f7}.hst6{fill:#a2b6f4}.hst7{fill:#ac0df9}.hst8{fill:#390}.hst9{fill:#fcad6d}.hst10{fill:#fd995b}.hst11{fill:#c5ff41}.hst12{fill:#47477f}.hst13{fill:#3b3868}.hst14{fill:#f9ba8f}.hst15{fill:#ffdd40}.hst16{fill:#ffb332}</style><path class="hst0" d="M47.6.8L41.9 0h-3.8l-5.7.7C14.9 4.3 1.7 19.8 1.7 38.3c0 21.1 17.1 38.3 38.3 38.3s38.3-17.1 38.3-38.3c0-18.5-13.2-34-30.7-37.5z"/><path class="hst1" d="M37.1 18.3H43L47.7.8C45.8.4 43.9.2 42 .1l-4.9 18.2z"/><path class="hst2" d="M46.2 6.2c-5.2 1.5-5-3.3-5-3.3l-4.1 15.4H43l3.2-12.1z"/><path class="hst3" d="M69.5 37.3h-59c-2.6 0-4.8 2.1-4.8 4.8v33.2c0 2.6 2.1 4.8 4.8 4.8h59.1c2.6 0 4.8-2.1 4.8-4.8V42c-.1-2.6-2.2-4.7-4.9-4.7z"/><path class="hst4" d="M24.9 37.3H10.5c-2.6 0-4.8 2.1-4.8 4.8v33.2c0 2.6 2.1 4.8 4.8 4.8h15.3c0-.1-.1-.2-.1-.3-.8-1.1-.4-2-.1-2.5.2-.2.2-.5 0-.8-.6-.7-.3-1.4 0-1.8.2-.2.2-.5 0-.8-1.3-1.7-.2-3.1.2-3.5.1-.1.2-.3.2-.4V45c0-.2-.1-.3-.2-.4-.5-.4-.4-.9-.2-1.2.1-.2.1-.4-.1-.6-.5-.7-.3-1.3-.1-1.7.2-.2.1-.6-.1-.8-1.2-1-.7-2.3-.5-2.7 0-.2 0-.3.1-.3z"/><path class="hst5" d="M69.2 76.8H10.8c-1 0-1.9-.8-1.9-1.9V42.3c0-1 .8-1.9 1.9-1.9h58.5c1 0 1.9.8 1.9 1.9v32.6c-.1 1.1-.9 1.9-2 1.9zm-57.8-2.5h57.3V42.9H11.4v31.4z"/><path class="hst6" d="M8.9 42.3v32.6c0 1 .8 1.9 1.9 1.9h14.9c0-.1-.1-.3-.1-.4-.6-.7-.3-1.4 0-1.8.1-.1.1-.2.1-.3H11.4V42.9h14.2c0-.1 0-.2-.1-.3-.5-.7-.3-1.3-.1-1.7.1-.1.1-.3.1-.4H10.8c-1.1 0-1.9.8-1.9 1.8z"/><path class="hst4" d="M47.4 33.7c-.4-.6-1-1-1.7-1h-2v.7c0 .7-.5 1.2-1.2 1.2h-4.8c-.7 0-1.2-.5-1.2-1.2v-.7h-2c-.7 0-1.3.4-1.7 1l-1.5 2.6c-.6 1 .1 2.2 1.3 2.2h15.2c1.1 0 1.8-1.2 1.3-2.2l-1.7-2.6z"/><path class="hst5" d="M39.8 38.1c-.7-1.1-.4-2 0-2.6.1-.2.1-.5 0-.8h-2.2c-.7 0-1.2-.5-1.2-1.2v-.7h-2c-.7 0-1.3.4-1.7 1l-1.5 2.6c-.6 1 .1 2.2 1.3 2.2H40c-.1-.3-.1-.4-.2-.5z"/><path class="hst7" d="M63.1 49.6H42.5c-.7 0-1.2-.6-1.2-1.2s.6-1.2 1.2-1.2h20.6c.7 0 1.2.6 1.2 1.2s-.5 1.2-1.2 1.2z"/><path class="hst1" d="M49.1 48.3c0-.7.6-1.2 1.2-1.2h-7.8c-.7 0-1.2.6-1.2 1.2s.6 1.2 1.2 1.2h7.8c-.7.1-1.2-.5-1.2-1.2z"/><path class="hst4" d="M63.1 56.4H50.4c-.7 0-1.2-.6-1.2-1.2 0-.7.6-1.2 1.2-1.2h12.7c.7 0 1.2.6 1.2 1.2 0 .7-.5 1.2-1.2 1.2zM63.1 61H50.4c-.7 0-1.2-.6-1.2-1.2s.6-1.2 1.2-1.2h12.7c.7 0 1.2.6 1.2 1.2s-.5 1.2-1.2 1.2zM63.1 65.6H50.4c-.7 0-1.2-.6-1.2-1.2 0-.7.6-1.2 1.2-1.2h12.7c.7 0 1.2.6 1.2 1.2s-.5 1.2-1.2 1.2z"/><path class="hst5" d="M45.3 56.4h-2.8c-.7 0-1.2-.6-1.2-1.2 0-.7.6-1.2 1.2-1.2h2.8c.7 0 1.2.6 1.2 1.2 0 .7-.5 1.2-1.2 1.2zM45.3 61h-2.8c-.7 0-1.2-.6-1.2-1.2s.6-1.2 1.2-1.2h2.8c.7 0 1.2.6 1.2 1.2S46 61 45.3 61zM45.3 65.6h-2.8c-.7 0-1.2-.6-1.2-1.2 0-.7.6-1.2 1.2-1.2h2.8c.7 0 1.2.6 1.2 1.2s-.5 1.2-1.2 1.2z"/><path class="hst4" d="M56.7 70.2h-6.4c-.7 0-1.2-.6-1.2-1.2s.6-1.2 1.2-1.2h6.4c.7 0 1.2.6 1.2 1.2.1.6-.5 1.2-1.2 1.2z"/><path class="hst7" d="M36.4 64.1c.9-1.6 1.4-3.5 1.4-5.5 0-6.4-5.2-11.6-11.6-11.6s-11.6 5.2-11.6 11.6c0 2 .5 3.8 1.4 5.5h20.4z"/><path class="hst0" d="M25.1 63.6c-.1-.1-.2-.3-.1-.5l.1-.3v-.2l-1.4 1.1c-.3.2-.6.1-.8-.2-.4-.8-.7-1.7-.8-2.7-.1-.4 0-.7.2-1-1.3.8-3.6 2.1-5 2.6l.6 4.4c2.1 2.2 5 3.5 8.3 3.5h.2v-5.5c0-.1 0-.2-.1-.3l-1.2-.9z"/><path class="hst8" d="M22.9 63.6c-.4-.9-.6-1.8-.8-2.8-.1-.4 0-.7.2-1-1.3.8-3.6 2.1-5 2.6l.6 4.4c3.5-1 5-3.2 5-3.2z"/><path class="hst9" d="M25 62.4c.4.4-.4.8 0 1.3.9.8 1.1 1 1.1 1s.2-.2 1.1-1c.1-.1.2-.3.1-.5s-.2-.4-.2-.6c0-.1.1-.2.2-.3.6-.6 1.2-1.5 1.5-2.3.1-.3.2-.5.2-.7-.2-.4-.2-1-.2-1.4-.8.9-1.7 1.5-2.9 1.5-1.1 0-1.9-.6-2.7-1.5 0 .4-.1.8-.2 1.2 0 .1-.1.2-.1.2.3.6.6 1.6 2.1 3.1z"/><path class="hst10" d="M25.1 62.8c.1-.2.2-.4.2-.6.2-1 .4-2 .4-2.8-.9-.1-1.7-.7-2.3-1.4 0 .4-.1.8-.2 1.2 0 .1-.1.2-.1.2.1.6.4 1.6 1.8 3.1.2 0 .2.1.2.3z"/><path class="hst5" d="M17.9 66.7l-.6-4.4c-.2.1-.5.2-.7.4-.3.3-.6.8-.8 1.2.6 1.1 1.3 2 2.1 2.8z"/><path class="hst11" d="M34.4 66.7l.6-4.3c-1.1-.3-2.5-1.1-3.6-1.7-.7-.4-1.2-.7-1.5-.9.2.3.3.7.2 1-.2 1-.4 1.9-.8 2.7-.2.3-.5.4-.8.2l-1.4-1.1v.2l.1.3c.1.2 0 .3-.1.5l-1.1.8c-.1.1-.1.2-.1.3v5.5h.2c3.3 0 6.2-1.3 8.3-3.5z"/><path class="hst3" d="M36.4 63.9c-.2-.4-.5-.8-.8-1.2-.2-.2-.4-.3-.7-.4l-.6 4.4c.9-.8 1.6-1.7 2.1-2.8z"/><path class="hst4" d="M25.1 62.4c-.7-.7-1.3-1.5-1.6-2.4-.3-.8-.2-1.1-.2-1.2l-.5.4-.3.3c-.3.3-.5.8-.4 1.3.2 1.1.4 1.9.8 2.8.2.3.5.4.8.2l1.4-1.1c.1-.2 0-.3 0-.3z"/><path class="hst12" d="M25.2 44.7c-2.8.4-3.1 2-3.1 2.5 0 .1-.1.2-.2.3-1.5.7-.7 4.1-.7 4.1.1 0 .3.1.4.1 0-.2.1-.3.1-.5 0-.1.1-.3.2-.4.1-.2.2-.5.2-.7-.1-.7 0-2.1.9-2.5.8-.4 1.8-.2 2.4.1.4.1.8.1 1.2 0 .6-.2 1.6-.4 2.4-.1.9.4 1 1.8.9 2.5 0 .2 0 .5.2.7.1.1.1.3.2.4.1.2.1.3.1.5.1-.1.3-.1.5-.1 0-.7.1-1.5.1-1.5 1-4.1-2.8-5.8-5.8-5.4z"/><path class="hst13" d="M25.5 47.7s0-.1 0 0c-1.2-2 .5-3 .5-3-.2 0-.5 0-.7.1-2.8.4-3.1 2-3.1 2.5 0 .1-.1.2-.2.3-1.5.7-.7 4.1-.7 4.1.1 0 .3.1.4.1 0-.2.1-.3.1-.5 0-.1.1-.3.2-.4.1-.2.2-.5.2-.7-.1-.7 0-2.1.9-2.5.8-.4 1.8-.2 2.4 0z"/><path class="hst9" d="M31.4 51.7c-.2-.2-.6-.1-.8 0v.8l-.2 1.6v.4c.5.2.8-.3.9-.7 0-.1.1-.3.1-.4 0-.4.6-1.2 0-1.7z"/><path class="hst10" d="M30.9 53.3c-.2 0-.3-.1-.4-.2l-.1.9v.4c.5.2.8-.3.9-.7 0-.1.1-.3.1-.4 0-.1.1-.2.1-.3-.2.3-.4.3-.6.3z"/><path class="hst9" d="M20.9 51.7c.2-.2.6-.1.8 0v.8l.2 1.6v.4c-.5.2-.8-.3-.9-.7 0-.1-.1-.3-.1-.4 0-.4-.5-1.2 0-1.7z"/><path class="hst10" d="M21.8 53.1c-.1.1-.3.2-.5.2-.1 0-.3 0-.4-.1 0 .1.1.1.1.2s.1.3.1.4c0 .3.3.8.9.7v-.4l-.2-1z"/><path class="hst14" d="M30.3 50.8c-.1-.2-.2-.4-.2-.7.1-.8 0-2.1-.9-2.6-.8-.4-1.7-.2-2.4.1-.4.1-.8.1-1.2 0-.7-.2-1.6-.4-2.4-.1-.4.2-1.1.8-.9 2.6 0 .2 0 .5-.2.7-.3.4-.4 1-.3 1.7l.2 1.6v.7c.4 2.7 1.9 4 3.1 4.6.7.4 1.6.4 2.3 0 1.1-.6 2.7-1.8 3.1-4.6v-.7l.2-1.6c0-.6-.2-1.2-.4-1.7z"/><path class="hst9" d="M24.3 54.8v-.7l-.2-1.6c-.1-.6.1-1.3.3-1.7.1-.2.2-.4.2-.7-.1-1.7.5-2.3.9-2.5-.7-.2-1.6-.4-2.3 0-.4.2-1.1.8-.9 2.6 0 .2 0 .5-.2.7-.3.4-.4 1-.3 1.7l.2 1.6v.7c.4 2.7 1.9 4 3.1 4.6.7.4 1.6.4 2.3 0h.1c-1.3-.8-2.8-2-3.2-4.7z"/><path class="hst3" d="M27.2 62.4c.7-.7 1.3-1.5 1.6-2.4.3-.8.2-1.1.2-1.2l.5.4.3.3c.3.3.5.8.4 1.3-.2 1.1-.4 1.9-.8 2.8-.2.3-.5.4-.8.2l-1.4-1.1c-.1-.2 0-.3 0-.3z"/><path class="hst15" d="M46.5 27.1h-2.6c-.7 0-1.2-.6-1.2-1.2s.6-1.2 1.2-1.2h2.6c.5 0 .9-.4.9-.9v-4.9c0-.5-.4-.9-.9-.9h-13c-.5 0-.9.4-.9.9v4.9c0 .5.4.9.9.9h2.6c.7 0 1.2.6 1.2 1.2s-.6 1.2-1.2 1.2h-2.6c-1.9 0-3.4-1.5-3.4-3.4v-4.9c0-1.9 1.5-3.4 3.4-3.4h12.9c1.9 0 3.4 1.5 3.4 3.4v4.9c0 1.9-1.5 3.4-3.3 3.4z"/><path class="hst16" d="M42.6 25.9c0 .7.6 1.2 1.2 1.2h2.6c.8 0 1.5-.3 2-.7-2 0-1.4-2-1.4-2-.2.1-.4.2-.6.2h-2.6c-.6.1-1.2.6-1.2 1.3zM45.6 15.5h-12c-1.9 0-3.4 1.5-3.4 3.4v4.9c0 1.9 1.5 3.4 3.4 3.4h2.6c.7 0 1.2-.6 1.2-1.2 0-.7-.6-1.2-1.2-1.2h-2.6c-.5 0-.9-.4-.9-.9V19c0-.5.4-.9.9-.9h12c-1.4-1.4 0-2.6 0-2.6z"/><path class="hst7" d="M32.4.8l4.7 17.5H43L38.1 0c-2 .1-3.9.4-5.7.8z"/><path class="hst3" d="M42.4 21h-4.8c-.8 0-1.5.7-1.5 1.5v11c0 .8.7 1.5 1.5 1.5h4.8c.8 0 1.5-.7 1.5-1.5v-11c0-.8-.7-1.5-1.5-1.5z"/><path class="hst4" d="M39.9 21h-2.3c-.8 0-1.5.7-1.5 1.5v11c0 .8.7 1.5 1.5 1.5h2.3c0-.1-.1-.2-.1-.4-.2-.3-.3-.7-.3-.8V29.1c0-.6.2-.9.4-1.1.1-.1.2-.3.2-.6v-3.2c0-.2-.1-.4-.2-.5-.7-.9-.3-1.9 0-2.4-.1-.1 0-.2 0-.3z"/><path class="hst5" d="M41.9 25.9c0 1.1-.9 1.9-1.9 1.9s-1.9-.9-1.9-1.9c0-1.1.9-1.9 1.9-1.9s1.9.8 1.9 1.9z"/><g><path class="hst11" d="M58.3 4.7C56.7 5.9 55 7.5 55 9.2c0 3.5 2.9 6.5 2.9 9.1s-5.9 8.3-2.1 12c3.4 3.4 17.5-1.6 22.4 8.2v-.3c.1-14.4-8-27-19.9-33.5zM21.7 4.7C23.3 5.9 25 7.5 25 9.2c0 3.5-2.9 6.5-2.9 9.1s5.9 8.3 2.1 12c-3.4 3.4-17.5-1.6-22.4 8.2v-.3c-.1-14.4 8-27 19.9-33.5z"/></g></svg><svg version="1.1" id="advantage-03" x="0" y="0" xml:space="preserve" viewBox="0 0 80 80" xmlns="http://www.w3.org/2000/svg"><style>.ist0{fill:#6c00ff}.ist1{fill:#c5ff41}.ist2{fill:#5fcc31}.ist3{fill:#390}.ist4{fill:#ac0df9}</style><path class="ist0" d="M65.8 70l7.9-10.2c2.9-5.4 4.5-11.5 4.5-18.1C78.3 20.6 61.1 3.4 40 3.4S1.7 20.6 1.7 41.7 18.9 80 40 80c10 0 19-3.8 25.8-10z"/><path class="ist1" d="M72.5 23.6h-4.1c-.7 0-1.3.6-1.3 1.3v30.3c0 1.8 1.5 3.3 3.3 3.3s3.3-1.5 3.3-3.3V24.9c0-.7-.5-1.3-1.2-1.3zM60 32.8h-4c-.7 0-1.3.6-1.3 1.3v21.2c0 1.8 1.5 3.3 3.3 3.3s3.3-1.5 3.3-3.3V34c0-.7-.6-1.2-1.3-1.2z"/><path class="ist2" d="M47.5 41.9h-4.1c-.7 0-1.3.6-1.3 1.3v12.1c0 1.8 1.5 3.3 3.3 3.3 1.8 0 3.3-1.5 3.3-3.3V43.1c.1-.7-.5-1.2-1.2-1.2zM35 51h-4c-.7 0-1.3.6-1.3 1.3v3c0 1.8 1.5 3.3 3.3 3.3 1.8 0 3.3-1.5 3.3-3.3v-3c0-.8-.6-1.3-1.3-1.3zM70.5 58.2c-1.8 0-3.3-1.5-3.3-3.3v13.8c2.6-2.6 4.8-5.6 6.6-8.9v-4.9c-.1 1.8-1.5 3.3-3.3 3.3zM58 58.2c-1.8 0-3.3-1.5-3.3-3.3v13.8h6.6V54.9c0 1.8-1.5 3.3-3.3 3.3z"/><path class="ist3" d="M45.5 58.2c-1.8 0-3.3-1.5-3.3-3.3v13.8h6.6V54.9c0 1.8-1.5 3.3-3.3 3.3zM33 58.2c-1.8 0-3.3-1.5-3.3-3.3v13.8h6.6V54.9c0 1.8-1.5 3.3-3.3 3.3zM17.3 68.7h6.6v-7.4c0-.7-.6-1.3-1.3-1.3h-4.1c-.7 0-1.3.6-1.3 1.3l.1 7.4z"/><path class="ist2" d="M65.9 9.8l-2.1-2c-1.5-1.4-.9-3.7 1.8-4.1h.2l-.8-.9c-.9-.9-2.3-.9-3.2 0l-5.6 5.6c-.9.9-.9 2.3 0 3.2.9.9 2.3.9 3.2 0l1.8-1.8v5.4c0 1.2 1 2.2 2.2 2.2 1.2 0 2.2-1 2.2-2.2V9.9l.4.4c0-.2 0-.4-.1-.5z"/><path class="ist1" d="M70.6 11.6c.9-.9.9-2.3 0-3.2l-5-5s-2.8.3-2.8 2.5c0 .8.3 1.5.9 2l2 1.9 1.8 1.8c.8.9 2.3.9 3.1 0z"/><path class="ist2" d="M47.2 23.4l-2.1-2c-1.5-1.4-.9-3.7 1.8-4.1h.2l-.8-.8c-.9-.9-2.3-.9-3.2 0l-5.6 5.6c-.9.9-.9 2.3 0 3.2.9.9 2.3.9 3.2 0l1.8-1.8v5.4c0 1.2 1 2.2 2.2 2.2s2.2-1 2.2-2.2v-5.4l.4.4c0-.2-.1-.3-.1-.5z"/><path class="ist1" d="M51.9 25.3c.9-.9.9-2.3 0-3.2l-5-5s-2.8.3-2.8 2.5c0 .8.3 1.5.9 2l2 1.9 1.8 1.8c.8.9 2.2.9 3.1 0z"/><path class="ist2" d="M28.5 37.1l-2.1-2c-1.5-1.4-.9-3.7 1.8-4.1h.2l-.8-.8c-.9-.9-2.3-.9-3.2 0l-5.6 5.6c-.9.9-.9 2.3 0 3.2.9.9 2.3.9 3.2 0l1.8-1.8v5.4c0 1.2 1 2.2 2.2 2.2s2.2-1 2.2-2.2v-5.4l.4.4c0-.2-.1-.3-.1-.5z"/><path class="ist1" d="M33.2 39c.9-.9.9-2.3 0-3.2l-5-5s-2.8.3-2.8 2.5c0 .8.3 1.5.9 2l2 1.9L30 39c.9.8 2.3.8 3.2 0z"/><path class="ist4" d="M10 77c-.7 0-1.2-.6-1.2-1.2V1.2C8.7.6 9.3 0 10 0s1.2.6 1.2 1.2v74.5c0 .7-.5 1.3-1.2 1.3z"/><path class="ist4" d="M9.8 7.2H7c-.7 0-1.2-.6-1.2-1.2S6.3 4.7 7 4.7h2.8c.7 0 1.2.6 1.2 1.2s-.5 1.3-1.2 1.3zM9.8 16.3H8.1c-.7 0-1.2-.6-1.2-1.2s.6-1.2 1.2-1.2h1.7c.7 0 1.2.6 1.2 1.2s-.5 1.2-1.2 1.2zM9.8 52.7H8.1c-.7 0-1.2-.6-1.2-1.2 0-.7.6-1.2 1.2-1.2h1.7c.7 0 1.2.6 1.2 1.2.1.7-.5 1.2-1.2 1.2zM9.8 34.5H8.1c-.7 0-1.2-.6-1.2-1.2S7.4 32 8.1 32h1.7c.7 0 1.2.6 1.2 1.2s-.5 1.3-1.2 1.3zM9.8 25.4H7c-.7 0-1.2-.6-1.2-1.2 0-.7.6-1.2 1.2-1.2h2.8c.7 0 1.2.6 1.2 1.2.1.6-.5 1.2-1.2 1.2zM9.8 61.8H7c-.7 0-1.2-.6-1.2-1.2 0-.7.6-1.2 1.2-1.2h2.8c.7 0 1.2.6 1.2 1.2.1.7-.5 1.2-1.2 1.2zM9.8 43.6H7c-.7 0-1.2-.6-1.2-1.2 0-.7.6-1.2 1.2-1.2h2.8c.7 0 1.2.6 1.2 1.2.1.7-.5 1.2-1.2 1.2zM3 67.5c-.7 0-1.2.6-1.2 1.2-.1.7.5 1.3 1.2 1.3h62.9c.9-.8 1.7-1.6 2.5-2.5H3z"/><path class="ist4" d="M58 72.9c-.7 0-1.2-.6-1.2-1.2v-2.8c0-.7.6-1.2 1.2-1.2.7 0 1.2.6 1.2 1.2v2.8c0 .7-.5 1.2-1.2 1.2zM45.5 72.9c-.7 0-1.2-.6-1.2-1.2v-2.8c0-.7.6-1.2 1.2-1.2.7 0 1.2.6 1.2 1.2v2.8c0 .7-.5 1.2-1.2 1.2zM20.5 72.9c-.7 0-1.2-.6-1.2-1.2v-2.8c0-.7.6-1.2 1.2-1.2.7 0 1.2.6 1.2 1.2v2.8c.1.7-.5 1.2-1.2 1.2zM33 72.9c-.7 0-1.2-.6-1.2-1.2v-2.8c0-.7.6-1.2 1.2-1.2.7 0 1.2.6 1.2 1.2v2.8c.1.7-.5 1.2-1.2 1.2zM40 3.4c-9.4 0-18.1 3.4-24.8 9.1 1.5 4.1 4.9 9.1 11.9 6.5 8.6-3.3 16.1-8.6 16.7-15.3-1.2-.2-2.5-.3-3.8-.3z"/></svg><svg version="1.1" id="advantage-04" x="0" y="0" xml:space="preserve" viewBox="0 0 80 80" xmlns="http://www.w3.org/2000/svg"><style>.jst0{fill:#6c00ff}.jst1{fill:#1aa9e8}.jst2{fill:#42c3fc}.jst3{fill:#8ae1ff}.jst4{fill:#c5ff41}.jst5{fill:#ff7186}.jst6{fill:#ac0df9}.jst7{fill:#ff4155}.jst8{fill:#e80054}.jst9{fill:#5fcc31}.jst10{fill:#390}.jst11{fill:#ffdd40}.jst12{fill:#ffb332}.jst13{fill:#ff9100}</style><path class="jst0" d="M38.3 1.7c-12.8 0-24.2 6.3-31.1 16L.1 38c-.1.6-.1 1.3-.1 2v.7l.2 2.9C2 63.1 18.4 78.3 38.3 78.3c21.1 0 38.3-17.1 38.3-38.3S59.4 1.7 38.3 1.7z"/><path class="jst1" d="M5.6 46.2c-1.3-.3-1.5-.9-1.8-1.9-.4-1.1-.9-2.6-3-3.1-.2 0-.5-.2-.8-.4 0 1 .1 1.9.2 2.9.7.2.9.5 1.2 1.5.4 1.1 1 2.9 3.6 3.5h.3c.6 0 1.1-.4 1.2-1 .2-.7-.2-1.4-.9-1.5z"/><path class="jst2" d="M15.7 30.6c-1.6-.6-3.1-3.5-5.4-2.9-2.5.7-3 .2-4.4-1.1-1.3-1.3 1.3-1.7 2.9-3.3 1.1-1.1 2.6.2 3.4 1.1.3.4.8.5 1.3.3L15 24c.4-.1.6-.4.7-.8.1-.5-.1-1-.5-1.2-.5-.3-1.3-.9-1.9-2.1-1-2-3.8-2.2-3.8-2.2H7.2c-1.1 1.5-2 3-2.8 4.6l-4.1 13c-.1.9-.2 1.8-.2 2.7 1.3-1.4 3.8-.8 5.4-.8 2.3 0 3.4-2.2 4.8-3.6 1-1 3.7-1.1 5.1-1.1.5 0 .9-.4.9-.9s-.3-.8-.6-1zM5.9 45.7l-1.1 1.4s-1.5 1.7-.5 3.5c1 1.7.2 3.4 2.6 4.4 2.3 1-.7 9 5.5 11.3.4.2.9.1 1.2-.3.4-.4.5-1.1.1-1.6-.3-.4-.5-1-.1-1.9.6-1.6 1.8-2.7 2.2-3.9.2-.5.5-1 .9-1.4.6-.6 1.3-1.5 1.5-3 .1-.5.3-1 .6-1.4l.6-.8c.5-.7.3-1.6-.4-2.1s-1.8-.9-3.2-.9c-2.9 0-2.5-4-4.8-4-2.1.1-3.5-.8-5.1.7z"/><path class="jst3" d="M78.7 19.2c-3.3-.3-8.7 1.9-10.1.4-1.7-1.7-4.2-.8-7.8-.8-3.6 0-3.8-1.9-7.8-1.9s-6.6 4.1-8.8 6.3c-1.2 1.2-2.6 1.3-3.5 1.2-.6-.1-1.1-.5-1.3-1-.3-.6-1.2-1.1-2-1.2-.9-.2-1.8-.4-2.8-.5-.5-.1-1-.2-1.5 0-.4.2-.7.5-.9.8l-2 2.3c-.2.2-.2.4-.2.6.1.9 1.5.5 1.8 1.4.1.4-.1.7-.4.9-.6.4-1.4.3-2.1.1-.6-.1-1.3-.1-1.7.3-.5.4-.5 1.2-1.1 1.6-.5.4-1.2.3-1.3 1.1-.1.3 0 .6.1.8.4.6 1.1.8 1.7.9 1.7.2 3.4-.4 5-.9.9-.3 1.9-.6 2.9-.4 1 .2 1.9.9 1.9 1.9.1 1.2-1.1 2.9-2.3 3.1-1.1.2-2.3-1-3.5-.9-2.3.1-4.7.4-6.6 1.7-.8.6-1.3 2.3-2.1 2.7-.1.1-.3.2-.4.3-.6.8.2 1.2.6 1.8.4.6.3 1.4.4 2.1.3 2 2.4 3.5 4.4 3.2.7-.1 1.4-.5 2.2-.4 1.5.1 2.4 1.6 2.8 3 .6 2.1.8 4.4.3 6.6-.1.5-.2 1-.2 1.5s.2.9.4 1.3c.7 1.6 1.6 3.2 2.7 4.6.3.4.7.8 1.2.9.4.1.8 0 1.2-.2 1.3-.5 2.4-1.5 3-2.8.7-1.5.8-3.4 1.9-4.7.3-.4.8-.7 1-1.2.9-1.5-.2-3.6.5-5.2.3-.6.7-1.1 1.2-1.6.8-.8 1.6-1.7 2.2-2.7.3-.4.6-.9.6-1.4-.1-.9-1.1-1.4-2-1.4-.3 0-.8 0-.9-.3-.1-.3.1-.6.5-.7 1-.2 1.7-1.2 1.8-2.2.1-.9.8-1.6 1.7-1.5 1.1.1 2.1.3 3.2.6.4.1.9.3 1.2.6.6.7.5 1.8.9 2.6.1.2.2.4.4.5 1.1.9 2.8-.4 3.5-1.3.5-.6 1.3-1 2.1-.9 1.8.2 1.6 2.5 2.3 4 .7 1.5 2.6 2.1 4.2 2.5 1.2.3 2.8.5 3.6-.5.1-.2.2-.4.2-.5 0-.2-.1-.3-.2-.4-.9-1.1-2.1-2-2.8-3.3-.7-1.2-.8-3.1.5-3.9 0 0 6.8-5.8 3.1-7.2-3.7-1.4-4.9-3.1-2.7-5.4s4.9.9 7.1-2.4c.4-.6 2.1-1.3 3.2-1.7.5-.2.9-.6 1-1.2-.1-.8-.7-1.6-1.5-1.6z"/><path class="jst2" d="M40.5 24.4c-.6-.1-1.1-.5-1.3-1-.3-.6-1.2-1.1-2-1.2-.9-.2-1.8-.4-2.8-.5-.5-.1-1-.2-1.5 0-.4.2-.7.5-.9.8l-2 2.3c-.2.2-.2.4-.2.6.1.9 1.5.5 1.8 1.4.1.4-.1.7-.4.9-.6.4-1.4.3-2.1.1-.6-.1-1.3-.1-1.7.3-.5.4-.5 1.2-1.1 1.6-.5.4-1.2.3-1.3 1.1-.1.3 0 .6.1.8.4.6 1.1.8 1.7.9 1.7.2 3.4-.4 5-.9.9-.3 1.9-.6 2.9-.4 1 .2 1.9.9 1.9 1.9.1 1.2-1.1 2.9-2.3 3.1-1.1.2-2.3-1-3.5-.9-2.3.1-4.7.4-6.6 1.7-.8.6-1.3 2.3-2.1 2.7-.1.1-.3.2-.4.3-.6.8.2 1.2.6 1.8.4.6.3 1.4.4 2.1.3 2 2.4 3.5 4.4 3.2.7-.1 1.4-.5 2.2-.4 1.5.1 2.4 1.6 2.8 3 .6 2.1.8 4.4.3 6.6-.1.5-.2 1-.2 1.5s.2.9.4 1.3c.7 1.6 1.6 3.2 2.7 4.6.3.4.7.8 1.2.9.4.1.8 0 1.2-.2 1.3-.5 2.4-1.5 3-2.8.7-1.5.8-3.4 1.9-4.7.3-.4.8-.7 1-1.2.9-1.5-.2-3.6.5-5.2.3-.6.7-1.1 1.2-1.6.8-.8 1.6-1.7 2.2-2.7.3-.4.6-.9.6-1.4-.1-.9-1.1-1.4-2-1.4-.3 0-.8 0-.9-.3-.1-.3.1-.6.5-.7 1-.2 1.7-1.2 1.8-2.2.1-.9.8-1.6 1.7-1.5 1.1.1 2.1.3 3.2.6.4.1.9.3 1.2.6.6.7.5 1.8.9 2.6.1.2.2.4.4.5 1.1.9 2.8-.4 3.5-1.3l.3-.3c-1.1-1.3.4-3.1-.5-5.3-1.1-2.9-7.4.3-9.1-1.4s1.1-5.4-3-6.1-2.1-5.5-2.1-5.5c-1.1 1.4-2.5 1.4-3.5 1.3z"/><path class="jst1" d="M39.8 63.1c-1.3-1-1.8-3.9-.3-6.7 1.9-3.4 1.2-6.8 1.2-6.8s-5.6-7.5-9.4-8.9c-3.8-1.5-1.4-5.2-1.4-5.2h-.1c-1.9.1-3.8.5-5.4 1.5-.8.6-1.3 2.3-2.1 2.7-.1.1-.3.2-.4.3-.6.8.2 1.2.6 1.8.4.6.3 1.4.4 2.1.3 2 2.4 3.5 4.4 3.2.7-.1 1.4-.5 2.2-.4 1.5.1 2.4 1.6 2.8 3 .6 2.1.8 4.4.3 6.6-.1.5-.2 1-.2 1.5s.2.9.4 1.3c.7 1.6 1.6 3.2 2.7 4.6.3.4.7.8 1.2.9.4.1.8 0 1.2-.2.7-.2 1.4-.7 1.9-1.3z"/><path class="jst4" d="M30.6 13.6c-5.6 0-8.6 6.7-4.8 10.9l3.9 4.3c.5.5 1.3.5 1.8 0l3.9-4.3c3.8-4.2.9-10.9-4.8-10.9z"/><path class="jst5" d="M2.1 37.3c.5.5 1.3.5 1.8 0L7.8 33c3.5-3.8 1.3-9.7-3.4-10.7-2.1 4-3.5 8.4-4.1 13l1.8 2z"/><path class="jst6" d="M38.3 1.7c-4.6 0-9.1.8-13.2 2.3 4.2.7 10 2.3 13.7 5.7 1.5 1.4 3.7 1.9 5.7 1.2 2.6-.9 6.5-1.6 11.7-.2 2.9.8 5.2.7 7.1.2-6.8-5.7-15.5-9.2-25-9.2zM62.7 54.1c-3.9-3.9-11-4.5-14.7 5.3-3.8 9.8-11.8 13.3-18.5 8.6-5.9-4.1-10.4-1.4-12.5 3.8 6.1 4.1 13.4 6.5 21.3 6.5 14.4 0 27-8 33.5-19.8-3.1-.9-7-2.2-9.1-4.4z"/><path class="jst7" d="M7.8 33c-3 .4-2.9-2.4-2.9-2.4l-3-2.4C1.2 30.5.6 32.9.3 35.3l1.8 2c.5.5 1.3.5 1.8 0L7.8 33z"/><path class="jst8" d="M3 31.4c1.5 0 2.7-1.2 2.7-2.7C5.7 27.2 4.5 26 3 26h-.3c-.6 1.5-1.1 3.1-1.5 4.7.4.4 1.1.7 1.8.7z"/><path class="jst9" d="M33 22c0-.3-.1-.5-.3-.7l-3.5-3.1c-.2-.2-.4-.2-.7-.2-1.7 0-2.2-1.1-2.3-1.9 0-.2-.1-.4-.3-.6-2.2 2.3-2.7 6.2-.2 8.9l3.9 4.3c.5.5 1.3.5 1.8 0l3.9-4.3c-1.9-.2-2.3-1.7-2.3-2.4z"/><circle class="jst10" cx="30.6" cy="20.1" r="2.7"/><path class="jst11" d="M36 38.7c-5.6 0-8.6 6.7-4.8 10.9l3.9 4.3c.5.5 1.3.5 1.8 0l3.9-4.3c3.8-4.2.8-10.9-4.8-10.9z"/><path class="jst12" d="M38.3 47.1c0-.3-.1-.5-.3-.7l-3.5-3.1c-.2-.2-.4-.2-.7-.2-1.7 0-2.2-1.1-2.3-1.9 0-.2-.1-.4-.3-.6-2.2 2.3-2.7 6.2-.2 8.9l3.9 4.3c.5.5 1.3.5 1.8 0l3.9-4.3c-1.9-.2-2.2-1.7-2.3-2.4z"/><circle transform="rotate(-45.001 35.967 45.228)" class="jst13" cx="36" cy="45.2" r="2.7"/><path class="jst5" d="M62.7 20c-5.6 0-8.6 6.7-4.8 10.9l3.9 4.3c.5.5 1.3.5 1.8 0l3.9-4.3c3.8-4.3.8-10.9-4.8-10.9z"/><path class="jst7" d="M65 28.4c0-.3-.1-.5-.3-.7l-3.5-3.1c-.2-.2-.4-.2-.7-.2-1.7 0-2.2-1.1-2.3-1.9 0-.2-.1-.4-.3-.6-2.2 2.3-2.7 6.2-.2 8.9l3.9 4.3c.5.5 1.3.5 1.8 0l3.9-4.3c-1.9-.3-2.2-1.7-2.3-2.4z"/><circle transform="rotate(-45.001 62.652 26.472)" class="jst8" cx="62.7" cy="26.5" r="2.7"/><path class="jst1" d="M11.1 45.1c-2.2 0-3.6-.9-5.2.7l-1.1 1.4s-1.5 1.7-.5 3.5c1 1.7.2 3.4 2.6 4.4 2.3 1-.7 9 5.5 11.3.4.2.9.1 1.2-.3.4-.4.5-1.1.1-1.6-.3-.4-.5-1-.1-1.9.2-.6.6-1.2.9-1.7-3.9.3-1-2.8-3.5-5.3s-.6-5-1.6-6.9c-1-2 1.7-3.6 1.7-3.6z"/></svg><svg version="1.1" id="advantage-05" x="0" y="0" xml:space="preserve" viewBox="0 0 80 80" xmlns="http://www.w3.org/2000/svg"><style>.kst0{fill:#c5ff41}.kst1{fill:#5fcc31}.kst2{fill:#eee}.kst3{fill:#fff}.kst4{fill:#8757f3}.kst5{fill:#6a2bc2}.kst6{fill:#fec502}.kst7{fill:#ffa50a}.kst8{fill:#00b7f0}.kst9{fill:#0091c8}</style><path class="kst0" d="M40 0C23.1 0 8.7 10.4 2.8 25.2c0 0 0 .1-.1.1-3 7.6-.2 16.3 6.6 20.9l22.9 18.1c9.9 7.8 23.5 9.2 34.6 3.4 2.3-1.2 4.3-2.6 5.4-4.2 4.9-6.6 7.7-14.8 7.7-23.7C79.9 17.9 62 0 40 0z"/><circle transform="rotate(-67.487 50.538 64.434)" class="kst1" cx="50.5" cy="64.4" r="1.6"/><path class="kst1" d="M50.9 48.3l6.8 6.8c2.5 1.9 6.2.8 7.1-2.4L68.7 38c3.3-3.5 6.3-7.7 8.8-11.9-3.1-8.4-9-15.5-16.5-20.2-3.2 1.7-6.4 3.7-9.3 5.9-2.8 2.1-4.5 3.7-4.7 3.9l-15.1 4c-3.3.9-4.4 5.1-2 7.5l3.3 3.3 3.3 3.3c0 1 .1 2 .3 3L32 41.7c-3.2-.2-6.4.9-8.9 3.4-1.1 1.1-3.1.8-3.7-.7 0-.1-.1-.2-.1-.3V44c-.6-1.3-1.5-2.4-2.6-3.3-1.1-.8-1.5-2.3-1.1-3.6.4-1 .5-2.1.5-3.3-.5-7.4-10.4-10.4-14.7-3.9-6.6 26.7 32.5 55.8 53.8 47.2 6.2-2.5 11.9-6.7 16.3-12.3 3-3.8-2.2-8.5-5.7-5.2-1.7 1.6-3.6 3.1-5.6 4.5-.8.5-1.8.5-2.7.1-.7-.4-1.6.1-1.6.9-.1 1-.7 1.8-1.6 2.2-1.6.7-3.3 1.3-5 1.8-.9.3-2 0-2.6-.8-1.5-1.8-3.6-3.1-6-3.5-1.6-.3-2.2-2.2-1.1-3.4 2.4-2.4 3.6-5.7 3.4-8.9l4.7-4.7c.9.4 2 .5 3.2.5z"/><path class="kst1" d="M22.2 39.4c1.1 0 2-.9 2-2s-.9-2-2-2-2 .9-2 2 .9 2 2 2zM21.2 30.8c.6 0 1-.5 1-1 0-.6-.5-1-1-1-.6 0-1 .5-1 1s.4 1 1 1z"/><path class="kst2" d="M46.1 69.3c-1.4.3-2.9-.4-3.8-1.5a9.65 9.65 0 00-6.3-3.9c-1.6-.3-2.2-2.2-1.1-3.4 4.5-4.5 4.5-11.9 0-16.4s-11.9-4.5-16.4 0c-1.1 1.1-3.1.8-3.7-.7-.6-1.4-1.6-2.7-2.9-3.6-1.1-.8-1.5-2.3-1-3.6.4-1 .5-2.1.5-3.3-.3-4-3.5-7.2-7.4-7.5H2.7C1 29.9 0 34.9 0 40c0 22.1 17.9 40 40 40 5.3 0 10.4-1 15-2.9V76c-.4-4.5-4.7-7.4-8.9-6.7z"/><path class="kst3" d="M14.7 43.1c-.5-1-2.1-.3-1.6.7.1.3.3.6.5.7 1.2 1 2.2 2.2 2.9 3.6.6 1.5 2.6 1.9 3.7.7 4.5-4.5 11.9-4.5 16.4 0 .7.7 1.3 1.4 1.7 2.2-.3-2.6-1.4-5.1-3.3-7.1-4.5-4.5-11.9-4.5-16.4 0-1.1 1.1-3.1.8-3.7-.7-.1.1-.1 0-.2-.1zM36.5 65.3c-1.2 1.2-.5 3.1 1.1 3.4 2.5.5 4.8 1.9 6.4 4 .9 1.2 2.3 1.7 3.7 1.5 1.8-.3 3.6 0 5.1.9.9.5 2-.4 1.5-1.4-1.4-3.1-4.8-5-8.2-4.3-1.4.3-2.9-.3-3.8-1.5-.9-1.2-2.1-2.2-3.4-3-.7-.4-1.7-.3-2.4.4zM3.5 25.4h-.8C2 27.3 1.4 29.3 1 31.3c1.3-.8 2.9-1.2 4.7-1.1.7.1 1.4.2 2 .4 1.6.5 2.8-1.4 1.7-2.6 0-.1-.1-.1-.1-.2l-.1-.1-.1-.1-.1-.1-.1-.1-.1-.1-.1-.1-.1-.1-.1-.1c-.1 0-.1-.1-.2-.1l-.1-.1c-.1 0-.1-.1-.2-.1l-.1-.1c-.1 0-.1-.1-.2-.1 0 0-.1 0-.1-.1-.1 0-.1-.1-.2-.1 0 0-.1 0-.1-.1-.1 0-.1-.1-.2-.1 0 0-.1 0-.1-.1-.1 0-.1-.1-.2-.1h-.1c-.1 0-.2-.1-.2-.1h-.1c-.1 0-.2 0-.2-.1h-.1c-.1 0-.2 0-.2-.1H5.6h-.4-.9c-.7-.2-.8-.2-.8-.2z"/><path class="kst4" d="M64.9 34.4l-6.6-6.6L49 44.1l3.8 9.7c2.4 2.4 6.6 1.3 7.5-2l4.6-17.4z"/><path class="kst5" d="M53.2 54.1c1.5 1.2 3.3-1 1.9-2.3-.1 0-.1-.1-.2-.1-1.1-1.1-.8-2.9.5-3.6 0 0 .1 0 .1-.1 4.4-2.5 7.6-6.7 8.9-11.6l.5-1.9-6.6-6.6-13.6 13.5-2.1 2.1 6.9 6.9 3.3 3.3c.1.2.2.3.4.4z"/><path class="kst4" d="M44.7 14.2l6.6 6.6-17.5 7-8.5-1.5c-2.4-2.4-1.3-6.6 2-7.5l17.4-4.6z"/><path class="kst5" d="M25 26c-1.2-1.5 1-3.3 2.3-1.9 0 .1.1.1.1.2 1.1 1.1 2.9.8 3.6-.5 0 0 0-.1.1-.1 2.5-4.4 6.7-7.6 11.6-8.9l1.9-.5 6.6 6.6-13.5 13.5-2.1 2.1-6.9-6.9-3.3-3.3c-.2-.1-.3-.2-.4-.3z"/><path class="kst6" d="M62.7 38.6C51.5 49.8 42.4 49 36.3 42.9s-5-11.8 6.2-23S70.9-3.8 77 2.3c6.1 6.1-3.1 25.1-14.3 36.3z"/><path class="kst7" d="M63.3 19.4c-.5-.8-1.1-1.5-1.7-2.1-1.7-1.6-.1-4.4 2.1-3.7 1.4.4 2.7 1.2 3.7 2.3l.2.2C71 19.5 77 18 78.2 13.2c.9-3.6 1.1-7.2-.4-9.7-3.7-6.1-14.7-2-20.8 1.2-.1.1-.2.1-.4.2-5.7 3-11.5 7.2-16 11.7C29.4 27.8 30.2 36.9 36.3 43c1 1 2.1 1.9 3.3 2.6-2.2-3.7-2.6-8.1-.4-13.2 1.6-3.5 6.3-4.4 8.9-1.6l.2.2c4.2 4.2 11.3 3.7 14.8-1.6 2-3.1 2.1-7 .2-10z"/><path class="kst4" d="M75.7 19.9c3.4-7.5 4.5-14.4 1.2-17.6s-8 0-15.5 3.4l14.3 14.2z"/><path class="kst5" d="M73.2 14.5l-2.1-2.1c-1.9-1.9-1.1-5 1.4-5.8 1.2-.4 2.3-.7 3.4-.9 1.6-.3 2.2-2.2 1.1-3.4C73.7-1 66.8.1 59.4 3.5l13.9 13.9c.7-.8.7-2.1-.1-2.9z"/><circle class="kst3" cx="56.6" cy="22.6" r="9.5"/><path class="kst3" d="M22 64.7l-3.9.5c-.8.1-1.4-.5-1.3-1.3l.5-3.9c.5-3.9 2.3-7.5 5.1-10.3 2.7-2.7 7.2-2.7 10 0 2.7 2.7 2.7 7.2 0 10-2.9 2.7-6.5 4.5-10.4 5z"/><path class="kst6" d="M22.5 61.2l-5.4.7s4.1-11.5 6.9-14.3c0 0 4.3-4.1 7-2.8.7.3 1.3.8 1.8 1.3 2.7 2.7 2.7 7.2 0 10s-6.4 4.6-10.3 5.1z"/><path class="kst8" d="M61.4 27.4c-2.6 2.6-6.9 2.6-9.5 0s-1.5-5.4 1.2-8c2.3-2.3 4.7-4.1 7.3-2.4.4.2.7.5 1.1.9 2.5 2.6 2.5 6.8-.1 9.5z"/><path class="kst5" d="M32.3 35.9l7 7-4.9 4.9-7-7 4.9-4.9z"/><path class="kst4" d="M38.3 51.6L33 46.3c-1.3-1.3-1.3-3.5 0-4.9s3.5-1.3 4.9 0l5.3 5.3-4.9 4.9z"/><path class="kst9" d="M56.8 26.3c.6-.6.6-1.5 0-2l-2-2c-.4-.4-.5-1.2 0-1.6.5-.5 1.2-.5 1.7 0l.6.6c.5.5 1.4.6 2 .1.6-.6.7-1.5.1-2.1-.3-.3-.1-.7.3-.7 1 0 1.3-1.3.4-1.8-2.4-1.3-5.6-1.1-7.8.9-2.8 2.6-2.9 7-.2 9.7.2.2.4.4.6.5.4.3.9-.1.8-.5-.3-.9.8-1.7 1.5-1 .6.5 1.5.5 2-.1z"/><path class="kst7" d="M22.9 46.2c-2.8 2.8-4.6 6.4-5.1 10.3l-.7 5.4c1.1-.1 1.9-1 2.1-2.1.1-.7.2-1.4.5-2.3.3-1.2 1.7-1.5 2.6-.7l.8.8c.7.7 1.7.7 2.4 0s.7-1.7 0-2.4L23.2 53c-.6-.6-.6-1.5-.1-2.1.6-.7 1.7-.8 2.3-.1l.8.8c.7.7 1.7.7 2.4 0s.7-1.7 0-2.4c-.6-.6-.2-1.6.7-1.6h.1c1.8 0 2.2-2.5.5-3-2.3-.9-5-.4-7 1.6z"/><circle class="kst3" cx="46" cy="63.5" r="1.6"/><circle class="kst3" cx="52.1" cy="64.1" r=".9"/><circle class="kst3" cx="17.7" cy="36.4" r="2"/><circle class="kst3" cx="16.6" cy="28.8" r="1"/></svg><svg version="1.1" id="advantage-06" x="0" y="0" xml:space="preserve" viewBox="0 0 80 80" xmlns="http://www.w3.org/2000/svg"><style>.lst0{fill:#ac0df9}.lst1{fill:#6c00ff}.lst2{fill:#ffb332}.lst3{fill:#c5ff41}.lst4{fill:#5fcc31}.lst5{fill:#390}.lst6{fill:#f9a373}.lst7{fill:#ef8e5e}.lst8{fill:#ffdd40}.lst9{fill:#fbb989}.lst10{fill:#45304c}.lst11{fill:#ff4155}.lst12{fill:#ff9433}.lst13{fill:#deeeff}.lst14{fill:#d3dcfb}.lst15{fill:#fff}</style><path class="lst0" d="M71.4 63.6c4.3-6.2 6.9-13.8 6.9-21.9C78.3 20.6 61.1 3.4 40 3.4S1.7 20.6 1.7 41.7c0 8.1 2.5 15.7 6.9 21.9h62.8z"/><circle class="lst1" cx="40" cy="37.8" r="31.2"/><path class="lst2" d="M23.4 15.8C21.4 20 15.3 26.2 18 32c.9 1.8 1.1 3.8.6 5.7-.2.7-.2 1.4-.1 2.2.7 5 6.8 13.6 21.5 13.6S60.8 45 61.5 39.9c.1-.7 0-1.4-.1-2.2-.4-1.9-.3-4 .6-5.7 2.8-5.7-3.4-11.9-5.4-16.2H23.4z"/><path class="lst3" d="M40 80c13 0 24.5-6.5 31.4-16.4-1.3-3.5-2.7-6.7-3.9-8.1-.1-.2-.3-.3-.4-.4-1-.9-3-1.8-5.4-2.6-5.9-2-14.1-3.3-14.3-3.4H32.6c-.3 0-8.4 1.4-14.3 3.4-2.3.8-4.3 1.6-5.4 2.6l-.4.4c-1.2 1.4-2.6 4.6-3.9 8.1C15.5 73.5 27 80 40 80z"/><path class="lst4" d="M54.8 72.9h-7c-.6 0-1.2-.5-1.2-1.2s.5-1.2 1.2-1.2h7c.6 0 1.2.5 1.2 1.2s-.5 1.2-1.2 1.2zM23 52.8c-.1-.6-.1-1.1-.2-1.6-1.6.4-3.1.8-4.6 1.3-2.3.8-4.3 1.6-5.4 2.6l-.4.4c-1.2 1.4-2.6 4.6-3.9 8.1C15.5 73.5 27 80 40 80c-8.9-4.2-15.5-14.5-17-27.2z"/><path class="lst5" d="M38.8 80h2.4V49.2h-2.3V80zM18.9 73.6s-1.4-3.9.7-8.4c.4-.8-.7-1.6-1.3-.9-1.3 1.4-2.7 3.5-3.2 6.4 1.2 1.1 2.4 2.1 3.8 2.9z"/><path class="lst4" d="M61.1 73.6s1.4-3.9-.7-8.4c-.4-.8.7-1.6 1.3-.9 1.3 1.4 2.7 3.5 3.2 6.4-1.2 1.1-2.4 2.1-3.8 2.9z"/><path class="lst6" d="M32.6 34.6v14.6s3 5.2 7.4 5.2 7.4-5.2 7.4-5.2V34.6H32.6z"/><path class="lst7" d="M32.6 34.5v14.7c14.8 0 14.8-8.3 14.8-8.3v-6.3l-14.8-.1z"/><path class="lst4" d="M47.4 46.8L40 54.3s2.9 5.2 4.7 5.2c1.1 0 2.7-3.5 3.8-6.3.8-2.2.4-4.6-1.1-6.4zM32.6 46.8l7.4 7.5s-2.9 5.2-4.7 5.2c-1.1 0-2.7-3.5-3.8-6.3-.8-2.2-.4-4.6 1.1-6.4z"/><path class="lst8" d="M55.2 22.9C55.2 12.9 47.6 4 40 4s-15.2 8.8-15.2 18.9v8.7h30.5v-8.7z"/><path class="lst2" d="M43.1 6V4.5C42.1 4.2 41 4 40 4c-7.6 0-15.2 8.8-15.2 18.9v8.7H34c-.9-2.8-1.4-5.8-1.4-8.7 0-8.6 4.5-15.2 10.5-16.9z"/><path class="lst9" d="M49.4 14.4c1 5.2 4.3 8 4.3 8v.6c0 10.1-6.1 21.9-13.7 21.9-6.2 0-11.4-7.9-13.1-16.3 14.4-1.5 22.5-14.2 22.5-14.2z"/><path class="lst6" d="M32.9 27.2c-1.9.6-3.9 1.1-6 1.3 1.7 8.4 6.9 16.3 13.1 16.3 1.1 0 2.1-.2 3.1-.7-5.1-2.2-9-9.5-10.2-16.9z"/><path class="lst7" d="M37.8 30.1l1.3-2.1c.4-.6 1.3-.6 1.7 0l1.3 2.1c.4.7-.1 1.6-.9 1.6h-2.6c-.7-.1-1.2-.9-.8-1.6z"/><path class="lst10" d="M36.8 37.6h6.4c.6-.6 1.1-1.3 1.4-2.1.2-.8-.3-1.5-1.1-1.5h-7c-.8 0-1.4.8-1.1 1.5.2.8.7 1.6 1.4 2.1z"/><path class="lst11" d="M43.2 37.6c-.9.8-2 1.2-3.2 1.2s-2.4-.5-3.2-1.2c.9-.8 2-1.2 3.2-1.2 1.2 0 2.4.5 3.2 1.2z"/><path class="lst12" d="M48.2 21.1h-3.1c-.6 0-1.2-.5-1.2-1.2 0-.6.5-1.2 1.2-1.2h3.1c.6 0 1.2.5 1.2 1.2s-.5 1.2-1.2 1.2z"/><path class="lst10" d="M48.6 25.3c0-.5-.2-1.1-.7-1.5-.7-.6-1.8-.6-2.6 0-.4.4-.7.9-.7 1.5 0 .7.9 1 1.4.5.3-.3.8-.3 1.1 0 .6.6 1.5.2 1.5-.5z"/><path class="lst13" d="M40 0c-9.7 0-17.6 9.3-17.6 22.3v6.4h3.9v-6.4c.3-9.8 6.3-16.7 13.7-16.7s13.4 6.9 13.7 16.7v6.4h3.9v-6.4C57.6 9.3 49.7 0 40 0z"/><path class="lst14" d="M37.2 2.8C37.2 1.3 38.5 0 40 0c-9.7 0-17.6 9.3-17.6 22.3v6.4h3.9v-6.4c.3-9.8 6.3-16.7 13.7-16.7-1.5 0-2.8-1.3-2.8-2.8z"/><path class="lst15" d="M52.3 36.9c1.7.4 3.4-.5 3.8-2.2l2.4-9.1c.4-1.7-.5-3.4-2.2-3.8s-3.4.5-3.8 2.2l-2.4 9.1c-.4 1.7.6 3.4 2.2 3.8z"/><path class="lst14" d="M40 49.3h-.2l-6.3-1.6c-2.4-.6-4.3-2.5-5-4.8l-3.7-12.5c-.1-.4.1-.8.5-1 .4-.1.8.1 1 .5L30 42.5c.5 1.9 2 3.3 3.9 3.8l6.3 1.6c.4.1.7.5.6.9-.1.3-.5.5-.8.5z"/><path class="lst13" d="M27.7 36.9c-1.7.4-3.4-.5-3.8-2.2l-2.4-9.1c-.5-1.6.5-3.3 2.1-3.7 1.7-.4 3.4.5 3.8 2.2l2.4 9.1c.5 1.6-.5 3.3-2.1 3.7z"/><circle class="lst15" cx="40" cy="48.6" r="2.3"/></svg><svg version="1.1" id="ico_mail" x="0" y="0" xml:space="preserve" viewBox="0 0 40 40" xmlns="http://www.w3.org/2000/svg"><style>.mst0{fill:#09f}</style><path id="mmail" class="mst0" d="M24.1 21.2l-2.3 2.4c-1 1-2.6 1-3.6 0l-2.3-2.4-8.4 8.6c.3.1.7.2 1 .2h23.1c.4 0 .7-.1 1-.2l-8.5-8.6zM31.5 10h-23c-.4 0-.7.1-1 .2l9 9.2 2.9 3c.3.3 1 .3 1.3 0l2.9-3 9-9.2c-.3-.1-.7-.2-1.1-.2zM6.3 11.4c-.2.3-.3.7-.3 1.1v15c0 .4.1.8.3 1.1l8.4-8.6-8.4-8.6zm27.4 0L25.3 20l8.4 8.6c.2-.3.3-.7.3-1.1v-15c0-.4-.1-.8-.3-1.1z"/></svg><svg class="ncontact-section__success-img" viewBox="0 0 286.054 286.054" id="ico_ok" xmlns="http://www.w3.org/2000/svg"><path d="M143.031 0C64.027 0 .004 64.04.004 143.027c0 78.996 64.031 143.027 143.027 143.027 78.987 0 143.018-64.031 143.018-143.027C286.049 64.049 222.018 0 143.031 0zm0 259.236c-64.183 0-116.209-52.026-116.209-116.209S78.857 26.818 143.031 26.818s116.2 52.026 116.2 116.209-52.025 116.209-116.2 116.209zm56.21-177.049c-6.079-3.629-13.847-1.475-17.342 4.827l-47.959 86.147-26.71-32.512c-4.836-5.569-11.263-8.456-17.333-4.827-6.079 3.638-8.591 12.39-4.657 18.004l37.169 45.241c2.78 3.611 5.953 5.775 9.27 6.392l.027.054.34.018c.751.116 11.979 2.19 16.815-6.463l55.048-98.876c3.493-6.313 1.411-14.367-4.668-18.005z" fill="#5fcc31" data-original="#3db39e"/></svg><svg version="1.1" id="ico_skype" x="0" y="0" xml:space="preserve" viewBox="0 0 40 40" xmlns="http://www.w3.org/2000/svg"><style>.ost0{fill:#09f}</style><path id="ologo_8_" class="ost0" d="M33 22c.1-.6.2-1.3.2-2 0-7.2-5.9-13.2-13.2-13.2-.7 0-1.4.1-2 .2-1.1-.7-2.6-1.1-4.2-1.1-4.3 0-8 3.5-8 8 0 1.5.4 3 1.1 4.1-.1.6-.2 1.3-.2 2 0 7.2 5.9 13.2 13.2 13.2.7 0 1.4-.1 2-.1 1.1.7 2.6 1.1 4.2 1.1 4.3.1 8-3.4 8-7.9.1-1.7-.3-3-1.1-4.3zm-6.7 3.9c-.5.9-1.4 1.3-2.4 1.9-1.1.4-2.4.6-3.8.6-1.7 0-3.2-.3-4.4-.9-.9-.4-1.5-1.1-2-1.8s-.7-1.5-.7-2.1c0-.4.1-.7.4-1.1.3-.3.7-.4 1.1-.4.4 0 .7.1.9.3.3.2.5.5.6 1.1.2.5.4.9.7 1.3.2.3.6.6 1.1.9.4.2 1.1.3 1.8.3 1.1 0 1.9-.2 2.6-.6.6-.4.9-.9.9-1.7 0-.5-.2-.9-.5-1.3-.3-.3-.9-.6-1.4-.7-.5-.2-1.3-.3-2.2-.5-1.3-.3-2.4-.6-3.2-.9-.9-.4-1.6-.9-2-1.5-.5-.6-.7-1.5-.7-2.4s.3-1.7.9-2.4c.5-.7 1.3-1.3 2.4-1.6 1.1-.4 2.2-.5 3.6-.5 1.1 0 2 .1 2.9.4.7.2 1.5.6 2 .9.5.4.9.9 1.1 1.3.2.4.3.9.3 1.3s-.1.7-.4 1.1c-.3.3-.7.5-1.1.5s-.7-.1-.9-.3c-.2-.2-.4-.5-.7-.9-.3-.6-.7-1.1-1.1-1.3-.4-.3-1.1-.5-2.2-.5-.9 0-1.7.2-2.2.5-.5.3-.9.9-.9 1.3 0 .3.1.5.3.9.2.2.4.4.7.6.3.2.6.3 1.1.4.3.1.9.2 1.7.4.9.2 1.9.4 2.8.7.9.2 1.5.5 2 .9s1.1.9 1.4 1.5c.3.5.5 1.3.5 2.1-.1.5-.5 1.5-1 2.2z"/></svg><svg version="1.1" id="ico_telegram" x="0" y="0" xml:space="preserve" viewBox="0 0 40 40" xmlns="http://www.w3.org/2000/svg"><style>.pst0{fill:#09f}</style><path id="psocial_x5F_telegram_1_" class="pst0" d="M33.1 7.7L5.6 18.2c-.9.4-.9 1.6.1 1.9l7 2 2.6 8.1c.2.9 1.4 1.1 2 .5L21 27l7.1 5.1c.9.6 2.1.1 2.4-.9l4.5-22c.2-1-.9-1.9-1.9-1.5zm-3.5 4.8L16.9 23.7c-.1.1-.2.2-.2.4l-.5 4.4c0 .1-.2.1-.2 0l-2-6.4c-.1-.2 0-.6.2-.7l15-9.2c.4-.4.8.1.4.3z"/></svg><svg version="1.1" id="ico_viber" x="0" y="0" xml:space="preserve" viewBox="0 0 40 40" xmlns="http://www.w3.org/2000/svg"><style>.qst0{fill:#6c00ff}</style><path id="qIcon_36_" class="qst0" d="M23.1 5h-6.2C10.9 5 6 9.9 6 15.9v4.7c0 4.2 2.4 8 6.2 9.8v5.2c0 .4.6.7.9.4l4.5-4.5h5.5c6 0 10.9-4.9 10.9-10.9v-4.7C34 9.9 29.1 5 23.1 5zm4.1 20.3l-1.6 1.5c-1.7 1.6-6-.2-9.8-4.1-3.8-3.9-5.5-8.2-3.9-9.8l1.6-1.5c.6-.6 1.6-.6 2.2 0l2.3 2.3c.8.8.5 2.2-.6 2.5-.7.2-1.2 1-1 1.8.4 1.7 2.6 3.9 4.2 4.3.7.2 1.6-.2 1.8-1 .3-1.1 1.7-1.4 2.5-.5l2.3 2.3c.6.6.6 1.6 0 2.2zm-5.8-12.9h-.5c-.3 0-.5-.2-.6-.5 0-.3.2-.5.5-.6h.6c2.9 0 5.2 2.3 5.2 5.2v.6c0 .3-.3.5-.6.5s-.5-.3-.5-.6v-.5c.1-2.3-1.8-4.1-4.1-4.1zm3.1 4.1c0 .3-.2.5-.5.5s-.5-.2-.5-.5c0-1.1-.9-2.1-2.1-2.1-.3 0-.5-.2-.5-.5s.2-.5.5-.5c1.7 0 3.1 1.4 3.1 3.1zm4 1.7c-.1.3-.4.5-.6.4-.3-.1-.4-.4-.4-.6.1-.5.2-.9.2-1.4 0-3.4-2.8-6.2-6.2-6.2H21c-.3 0-.5-.2-.6-.5 0-.3.2-.5.5-.6h.6c4 0 7.3 3.2 7.3 7.2-.1.6-.2 1.1-.3 1.7z"/></svg><svg version="1.1" id="ico_whatsapp" x="0" y="0" xml:space="preserve" viewBox="0 0 40 40" xmlns="http://www.w3.org/2000/svg"><style>.rst0{fill:#5fcc31}</style><path id="rwats" class="rst0" d="M20 6C12.3 6 6 12.3 6 20c0 3.1 1 5.9 2.7 8.2L7 33.4l5.4-1.7c2.2 1.5 4.9 2.3 7.7 2.3 7.7 0 14-6.3 14-14S27.7 6 20 6zm8.1 19.8c-.3 1-1.7 1.7-2.7 2-.7.2-1.7.3-4.9-1.1-4.1-1.7-6.8-5.9-7-6.2-.2-.3-1.7-2.2-1.7-4.2s1-3 1.4-3.4c.3-.3.9-.5 1.4-.5h.5c.4 0 .6 0 .9.7.3.8 1.2 2.8 1.3 3 .1.2.2.5.1.8-.1.3-.2.4-.5.6-.2.2-.4.4-.6.7-.2.2-.4.5-.2.9s1.1 1.7 2.3 2.8c1.6 1.4 2.8 1.8 3.3 2 .3.1.7.1 1-.2.3-.3.7-.9 1.1-1.4.3-.4.6-.4 1-.3.4.1 2.4 1.1 2.8 1.3.4.2.7.3.8.5.1.2.1 1-.3 2z"/></svg></svg>